<svg xmlns="http://www.w3.org/2000/svg" height="512" preserveAspectRatio="none" style="display: block;" version="1.1" viewBox="0 0 2048 2048" width="512">
<path d="M 1382.71 447.012 L 1661.05 446.948 C 1681.13 446.912 1701.65 446.101 1721.38 450.218 C 1821.05 470.847 1808.78 573.527 1808.79 648.609 L 1808.75 832.02 C 1768.7 832.679 1724.81 832.374 1684.58 832.02 C 1683.64 813.908 1684.53 787.125 1684.54 768.196 L 1684.58 639.346 C 1684.6 618.168 1685.23 594.909 1684.58 573.995 L 1397.89 573.995 L 1397.89 1476.99 C 1428.65 1476.19 1462.55 1476.95 1493.65 1476.96 L 1684.58 1476.99 C 1685.21 1466.81 1684.62 1452.12 1684.62 1441.49 L 1684.58 1147.24 C 1684.62 1126.12 1684.17 1105.14 1684.58 1084.01 L 1559.49 1084.01 C 1558.9 1070.73 1559.44 1054.27 1559.44 1040.68 L 1559.49 958.143 C 1583.57 959.207 1617.3 958.178 1642.06 958.172 L 1808.75 958.143 L 1808.8 1439.9 C 1808.99 1507.32 1805.16 1587.21 1715.69 1598.28 C 1697.18 1600.57 1676.29 1599.14 1657.37 1599.11 L 1434.11 1599.13 C 1413.38 1599.19 1386.19 1600.6 1366.13 1597.86 C 1285.71 1586.9 1272.86 1519.72 1272.96 1454.92 L 1273.06 610.13 C 1273.2 524.59 1281.89 458.946 1382.71 447.012 z" fill="rgb(0,0,0)" transform="translate(0,0)"></path>
<path d="M 855.86 738.541 C 861.122 738.16 873.21 738.589 879.159 738.584 L 929.063 738.537 C 997.346 738.483 1085.51 728.112 1111.46 813.567 C 1120.85 844.5 1117.92 890.519 1117.9 923.587 L 1117.96 1415.1 C 1118.07 1514.6 1126.42 1564 1023.25 1599.11 C 1012.31 1598.01 999.621 1598.96 988.401 1599.03 L 918.936 1599.17 C 765.168 1599.45 758.676 1552.26 758.686 1406.84 L 758.653 882.447 C 758.711 807.243 772.101 757.663 855.86 738.541 z M 883.065 860.581 L 883.065 1476.99 C 897.648 1475.3 901.711 1475.56 916.25 1476.99 L 995.305 1476.99 L 995.305 860.581 C 984.827 860.504 974.473 860.442 963.991 860.581 C 937.095 860.633 909.935 860.865 883.065 860.581 z" fill="rgb(0,0,0)" transform="translate(0,0)"></path>
<path d="M 333.839 1057 C 339.914 1056.42 354.132 1056.86 361.048 1056.88 L 469.408 1056.98 C 596.437 1056.43 604.381 1119.03 604.332 1231.72 L 604.417 1452.38 C 605.015 1529 592.526 1585.07 507.248 1599.11 C 441.961 1590.99 341.897 1616.32 286.271 1577.38 C 229.686 1537.77 237.186 1486.26 237.223 1426.01 L 237.046 1211.65 C 237.069 1137.42 243.147 1072.89 333.839 1057 z M 363.49 1476.99 L 477.009 1476.99 C 478.18 1474.24 477.008 1205.48 477.009 1179.99 L 363.49 1179.99 L 363.49 1476.99 z" fill="rgb(0,0,0)" transform="translate(0,0)"></path>
<metadata><recraft-signature>{"signed_by": "recraft", "signature_b64": "1dNOU2K0zDnbFyVvBRtI+s3xihaMrIFf8XwoQ2y08HXwTzGjI2d/h/w4hGBAO9PrRnTr8xa+OkzLi5Dt+S98AQ==", "signing_algo": "Ed25519", "generation_timestamp": 1772999357, "identifier": "9c18eb06-3b30-43cf-8ae7-ceed51b95147"}</recraft-signature></metadata></svg>