<svg xmlns="http://www.w3.org/2000/svg" height="512" preserveAspectRatio="none" style="display: block;" version="1.1" viewBox="0 0 2048 2048" width="512">
<path d="M 1508.44 482.176 L 1572.95 482.046 C 1661.75 481.938 1643.73 517.681 1643.75 591.407 L 1643.8 1635.2 C 1643.86 1684.13 1659.3 1733.12 1597.38 1735.99 L 1531.07 1736.11 C 1507.84 1736.14 1461.42 1738.04 1461.22 1702.5 L 1461.51 653.441 C 1461.7 611.915 1460.48 570.389 1461.43 528.817 C 1462.17 496.328 1475.86 483.321 1508.44 482.176 z" fill="rgb(0,0,0)" transform="translate(0,0)"></path>
<path d="M 1143.11 854.009 C 1168.12 853.034 1258.82 850.493 1276.52 860.363 C 1301.9 874.511 1296.16 904.722 1296.1 928.505 L 1296.06 1655.37 C 1296.09 1688.09 1306.27 1728.67 1263.3 1735.99 L 1184.1 1736.09 C 1088.12 1736.15 1108.04 1707.3 1108.03 1621.85 L 1108.01 963.691 C 1108.02 923.492 1095.36 864.626 1143.11 854.009 z" fill="rgb(0,0,0)" transform="translate(0,0)"></path>
<path d="M 790.523 1136.48 C 816.164 1133.89 849.034 1138.3 875.443 1136.3 C 945.247 1131.03 937.078 1167.5 937.024 1218.57 L 936.994 1654.53 C 937.204 1689.73 946.282 1729.61 899.783 1735.99 L 825.381 1736.09 C 801.05 1736.1 753.291 1741.24 752.732 1703.74 C 752.348 1677.97 752.215 1651.61 752.204 1625.8 L 752.142 1209.73 C 751.97 1176.39 745.425 1140.47 790.523 1136.48 z" fill="rgb(0,0,0)" transform="translate(0,0)"></path>
<path d="M 778.875 284.984 C 845.708 271.454 930.584 341.841 931.095 408.128 C 931.249 428.098 911.456 445.128 891.798 443.467 C 854.488 440.825 860.493 400.736 838.634 378.828 C 799.645 339.753 726.214 360.343 726.77 420.797 C 727.378 486.895 725.01 554.519 727.773 620.565 C 729.787 668.718 796.097 699.797 832.113 662.611 C 855.184 638.792 853.895 614.511 853.683 584.123 C 816.973 584.78 754.567 580.205 786.882 523.623 C 804.536 501.823 931.334 483.34 927.665 562.745 C 926.644 584.835 928.711 609.555 926.326 631.845 C 907.423 777.022 719.513 802.288 662.947 666.762 C 648.093 631.174 650.054 606.375 650.052 568.918 L 650.109 499.078 C 650.184 427.749 640.319 358.09 705.224 309.842 C 725.902 294.47 752.507 281.621 778.875 284.984 z" fill="rgb(0,0,0)" transform="translate(0,0)"></path>
<path d="M 351.738 284.984 C 366.755 284.214 381.305 284.844 396.312 284.924 L 518.74 284.944 C 529.545 284.951 541.753 284.203 552.519 286.119 C 592.142 293.172 593.155 350.22 554.096 358.201 C 538.382 361.412 515.029 359.588 498.326 359.561 L 397.49 359.49 C 397.483 401.099 398.334 445.242 397.49 486.535 C 417.116 486.13 438.38 485.795 457.83 487.207 C 576.887 495.847 627.093 646.513 536.333 720.804 C 514.242 737.871 490.626 746.713 460.839 744.718 C 426.13 742.394 313.366 762.791 323.659 701.885 C 339.034 628.235 499.683 717.67 505.263 630.083 C 509.4 565.144 473.071 560.996 423.505 561.638 L 377.496 561.926 C 352.308 561.932 324.466 558.63 324.338 525.74 C 324.363 457.5 324.276 389.222 324.327 320.983 C 324.342 302.163 335.434 291.395 351.738 284.984 z" fill="rgb(0,0,0)" transform="translate(0,0)"></path>
<path d="M 432.456 1387 L 507.857 1386.88 C 566.467 1386.85 583.004 1380.97 583.061 1450.31 L 583.094 1636.46 C 583.08 1672.14 594.247 1725.48 551.242 1735.99 C 521.291 1733.78 443.463 1741.49 420.447 1730.49 C 391.856 1716.81 401.426 1664.92 401.507 1640.01 L 401.652 1524.05 C 401.726 1479.88 384.678 1401.25 432.456 1387 z" fill="rgb(0,0,0)" transform="translate(0,0)"></path>
<metadata><recraft-signature>{"signed_by": "recraft", "signature_b64": "+GqzYkkYN+RdfaJmXk7BCeldtNz7+4/xX8iaBlqPsuNnCUsP68Tj/b8+LisZ+flTQv1tirVA5HuqdDSE0eubBw==", "signing_algo": "Ed25519", "generation_timestamp": 1772999367, "identifier": "dc31fe1b-be19-45e8-8b45-6048397b8179"}</recraft-signature></metadata></svg>