<svg xmlns="http://www.w3.org/2000/svg" height="512" preserveAspectRatio="none" style="display: block;" version="1.1" viewBox="0 0 2048 2048" width="512">
<path d="M 395.499 343.219 C 408.526 342.183 436.694 343.166 451.119 343.179 L 1566.59 343.197 C 1596.35 343.196 1656.33 336.832 1680.25 353.92 C 1711.03 375.907 1706 412.317 1705.99 445.677 L 1705.93 1556.46 C 1705.94 1609.43 1722.39 1695.2 1650.35 1705.67 C 1637.58 1706.66 1609.96 1705.73 1595.89 1705.72 L 495.269 1705.7 C 445.749 1705.72 356.176 1720.06 342.928 1656.39 C 341.156 1647.87 341.891 1626.42 341.911 1616.51 L 341.973 500.086 C 341.939 440.547 322.299 356.682 395.499 343.219 z M 469.001 1578 C 515.684 1579.48 571.759 1578 619.054 1578 L 1166.25 1578.08 C 1173.38 1578.1 1188.22 1578.57 1194.49 1578 L 1194.49 808.962 L 549.749 808.95 C 523.586 808.945 494.971 808.334 469.001 808.962 L 469.101 1551.33 C 469.124 1558.27 469.552 1571.36 469.001 1578 z M 1361.5 895.761 L 1322.21 895.761 L 1322.28 1504.94 C 1322.27 1524.21 1323.54 1560.43 1322.21 1578 L 1539.5 1578 L 1577.42 1578 C 1577.98 1553.3 1577.42 1526.86 1577.42 1502.01 L 1577.42 895.761 L 1361.5 895.761 z M 469.001 469.998 L 469.001 683.965 L 1577.42 683.965 C 1576.71 659.581 1577.41 632.466 1577.41 607.803 L 1577.42 469.998 L 590.765 469.989 C 552.69 469.988 506.616 468.748 469.001 469.998 z" fill="rgb(0,0,0)" transform="translate(0,0)"></path>
<metadata><recraft-signature>{"signed_by": "recraft", "signature_b64": "kYOdoBP66wE6nnAntP4N/hCHMcNZIGJs6znSC5o12HCMEWGykjlG5sWBeEHbrFk0y+quvxlx6qcMaVj1aAImCQ==", "signing_algo": "Ed25519", "generation_timestamp": 1772996591, "identifier": "fc10ad5c-077f-43c1-a305-385fd73838e0"}</recraft-signature></metadata></svg>