<svg xmlns="http://www.w3.org/2000/svg" height="512" preserveAspectRatio="none" style="display: block;" version="1.1" viewBox="0 0 2048 2048" width="512">
<path d="M 519.626 311.001 C 590.988 309.525 668.231 310.994 739.958 310.993 L 1480.99 310.948 C 1538.97 310.889 1587.34 315.423 1636.73 350.781 C 1716.96 408.229 1727.75 477.017 1727.79 565.842 L 1727.82 1468.78 C 1727.83 1490.4 1728.5 1515.76 1726.45 1536.86 C 1715.93 1645.14 1630.99 1710.32 1530.25 1727.4 C 1454.15 1728.17 1376.49 1727.4 1300.28 1727.4 L 623.369 1727.41 C 582.928 1727.41 535.632 1730.56 496.681 1724.89 C 407.94 1711.95 336.777 1638.43 324.722 1549.88 C 321.318 1524.88 321.899 1502.14 321.898 1477.27 L 321.877 563.386 C 321.674 500.3 321.89 452.923 362.702 398.829 C 403.483 344.777 454.326 320.536 519.626 311.001 z M 870.996 1571 C 919.608 1473.84 965.92 1364.93 1010.56 1265.26 L 1224.22 793.654 C 1235.16 768.954 1248.09 735.153 1260.91 712.795 C 1279.44 680.479 1329.54 668.221 1361.85 685.249 C 1401.88 703.781 1427.21 786.041 1446.07 827.828 L 1533.85 1020.02 C 1546.98 1048.63 1559.35 1077.22 1572.91 1105.75 L 1572.95 587.135 C 1572.96 548.459 1581.06 476.798 1526.12 470.051 C 1512.15 468.335 1497.6 468.787 1483.48 468.785 L 1164 468.811 L 593.674 468.784 C 572.573 468.78 549.833 468.178 528.881 469.799 C 464.373 474.792 477.019 554.803 477.085 598.448 L 476.96 1440.57 C 476.967 1482.13 466.136 1558.88 524.198 1568.83 C 539.357 1571.43 557.325 1571.04 572.805 1571.06 L 870.996 1571 z M 1044.96 1571 L 1291.5 1571 L 1449.25 1571.05 C 1470.37 1571.05 1491.76 1571.32 1512.88 1570.72 C 1550.92 1569.63 1579.74 1524.02 1565.29 1489.24 C 1540.11 1426.64 1510.94 1365.78 1483.76 1304.06 L 1356.86 1017.97 C 1352.33 1007.88 1329.99 954.219 1324.73 948.763 L 1044.96 1571 z" fill="rgb(0,0,0)" transform="translate(0,0)"></path>
<metadata><recraft-signature>{"signed_by": "recraft", "signature_b64": "WgA3qxU/oLYY/U3jSJ0egfAHtu9rvUwd3ttu7y7R9EsWR4dKYFZn5jpsd0rvPFSyzHvGg6JDTIC4jRzg+6YqBQ==", "signing_algo": "Ed25519", "generation_timestamp": 1772989663, "identifier": "b3b479c6-c2be-4172-8284-e31b0bd0e23c"}</recraft-signature></metadata></svg>