<svg xmlns="http://www.w3.org/2000/svg" height="512" preserveAspectRatio="none" style="display: block;" version="1.1" viewBox="0 0 2048 2048" width="512">
<path d="M 1079 297.636 L 1449.3 297.636 L 1449.3 410.965 C 1449.31 429.654 1449.93 450.064 1449.3 468.49 L 426.49 468.49 C 425.802 480.091 426.44 497.726 426.447 509.885 L 426.518 1339.92 C 426.537 1417.98 425.209 1499.27 426.49 1577 L 1449.3 1577 L 1449.29 1085.27 C 1449.28 1066.04 1448.48 1043.19 1449.3 1024.48 C 1492.32 1025.21 1537.57 1024.51 1580.75 1024.48 C 1594.41 1024.35 1607.83 1024.33 1621.48 1024.48 L 1621.52 1534.13 C 1621.53 1562.99 1622.94 1592.57 1617.65 1620.95 C 1603.31 1697.88 1530.85 1747.11 1455.69 1747.24 L 439.901 1747.33 C 423.518 1747.34 405.671 1748.02 389.562 1745.55 C 313.415 1733.87 253.314 1663.61 252.733 1587.05 L 252.956 493.304 C 252.981 402.305 288.061 319.672 388.319 300.302 C 411.216 295.878 445.613 297.605 470.049 297.607 L 1079 297.636 z" fill="rgb(0,0,0)" transform="translate(0,0)"></path>
<path d="M 1705.41 428.366 C 1776.71 418.241 1827.1 508.546 1782.46 565.156 C 1774.34 575.46 1760.93 587.206 1751.22 596.802 L 1704.63 643.305 C 1663.54 683.536 1621.38 726.104 1581.23 767.174 L 1014.58 1338.26 C 992.738 1360.28 977.215 1371.35 945.385 1371.33 C 891.997 1371.29 863.762 1327.53 828.554 1292.12 L 690.176 1152.48 L 647.502 1110.22 C 621.448 1084.13 598.471 1064.87 597.432 1025.07 C 596.161 976.412 635.724 937.062 684.049 936.782 C 726.988 936.532 743.611 958.589 771.214 986.532 L 941.55 1157.81 C 947.918 1152.16 953.826 1146.35 959.902 1140.4 L 1602.1 502.468 C 1633.11 471.3 1658.61 433.002 1705.41 428.366 z" fill="rgb(0,0,0)" transform="translate(0,0)"></path>
<metadata><recraft-signature>{"signed_by": "recraft", "signature_b64": "SBgSY3xH2t0+t7rpoyoluzk/BUhCgCKs5VUfKKnYI0OQHDn91Al99MvCfV8cQb0NOxG3/sWZANS+mnGocXf8Aw==", "signing_algo": "Ed25519", "generation_timestamp": 1773000810, "identifier": "f54aec1a-07d3-43ea-b72a-61576e1fbbec"}</recraft-signature></metadata></svg>