<svg xmlns="http://www.w3.org/2000/svg" height="512" preserveAspectRatio="none" style="display: block;" version="1.1" viewBox="0 0 2048 2048" width="512">
<path d="M 358.8 382.997 C 374.941 381.783 409.115 382.998 427.173 383.003 L 1612.07 382.943 C 1669.16 382.865 1758.56 374.371 1762.58 458.342 C 1763.66 480.809 1763.03 504.538 1763.02 527.153 L 1763.02 1531.24 C 1763.04 1587.84 1767.92 1658.84 1687.95 1664.25 C 1661.33 1665.06 1629.43 1664.26 1602.46 1664.25 L 432.673 1664.29 C 325.614 1664.4 283.709 1664.53 283.946 1549.74 L 284.006 549.488 C 283.945 478.267 266.623 399.254 358.8 382.997 z M 1424.5 1577.66 L 1677.89 1577.66 C 1676.99 1498.19 1677.9 1416.7 1677.9 1337.06 L 1677.85 511.839 C 1677.83 499.462 1676.98 482.244 1677.89 470.49 C 1560.45 471.76 1440.35 470.484 1322.69 470.49 C 1237.7 471.418 1152.43 468.212 1067.49 470.49 L 1067.48 1538.57 C 1067.51 1551.43 1068.1 1564.91 1067.49 1577.66 L 1424.5 1577.66 z M 372.006 1577.66 C 438.588 1576.6 507.918 1577.66 574.821 1577.66 L 981.017 1577.66 L 981.028 596.867 C 981.028 555.262 981.63 511.994 981.017 470.49 C 857.462 469.052 730.801 470.496 607.035 470.487 L 454.35 470.414 C 428.896 470.378 397.154 469.545 372.006 470.49 L 372.006 1577.66 z" fill="rgb(0,0,0)" transform="translate(0,0)"></path>
<path d="M 1188.78 937.849 C 1191.69 937.297 1207.07 937.619 1210.81 937.642 L 1319.37 937.802 C 1486.66 936.228 1624.2 1064.85 1613.46 1234.9 C 1608.16 1318.74 1572.27 1379.25 1510.62 1433.72 C 1427.57 1501.98 1358.4 1495.63 1258.69 1496.99 C 1161.51 1495.07 1147.18 1507.68 1147.23 1394.58 L 1147.25 1015.99 C 1147.17 981.333 1143.81 944.515 1188.78 937.849 z M 1235.85 1411 L 1309.7 1411.05 C 1375.73 1411.03 1417.17 1405.75 1468.4 1358.2 C 1546.54 1280.98 1551.33 1161.32 1472.19 1082.4 C 1389.29 999.733 1331.26 1035.47 1245.95 1023.08 C 1241.16 1023.88 1239.51 1023.38 1236.06 1026.15 C 1234.54 1031.06 1235.87 1100.2 1235.88 1111.52 L 1235.85 1411 z" fill="rgb(0,0,0)" transform="translate(0,0)"></path>
<path d="M 678.446 550.278 C 693.913 549.554 711.519 560.953 718.619 574.46 L 887.079 900.123 C 897.322 919.729 907.876 939.113 917.829 958.875 C 931.486 982.835 914.233 1017.92 886.864 1021.6 C 865.861 1024.42 839.714 1023.14 817.965 1023.13 L 682.5 1023.08 L 540.6 1023.08 C 518.925 1023.09 493.289 1024.14 471.879 1022.7 C 445.133 1020.9 426.593 984.477 439.587 959.475 C 498.973 845.204 558.887 730.773 618.904 616.764 C 635.041 586.105 639.824 555.648 678.446 550.278 z M 549.652 937.849 C 593.219 937.185 638.75 937.863 682.5 937.849 C 724.216 937.823 767.27 937.31 808.887 937.849 C 802.722 923.871 794.821 910.248 787.856 896.551 L 702.085 730.258 C 696.876 720.292 684.756 696.994 678.446 688.686 C 656.287 730.263 635.101 773.936 613.172 815.537 L 568.17 903.01 C 562.474 914.193 554.685 926.761 549.652 937.849 z" fill="rgb(0,0,0)" transform="translate(0,0)"></path>
<metadata><recraft-signature>{"signed_by": "recraft", "signature_b64": "69EelupXsw/GlsgdYavCldUuWBR3CkNqbtOUL8ZSO7fqnxT+OnmC/r6oES+Jsj/tRBlPtK5pRO/sP9GwqDeWAg==", "signing_algo": "Ed25519", "generation_timestamp": 1772990294, "identifier": "2c81acfe-2517-4931-b760-57b0926644e0"}</recraft-signature></metadata></svg>