<svg xmlns="http://www.w3.org/2000/svg" height="512" preserveAspectRatio="none" style="display: block;" version="1.1" viewBox="0 0 2048 2048" width="512">
<path d="M 287.5 604.986 L 1740.37 604.949 C 1831.59 604.962 1878.69 622.036 1878.93 723.172 L 1879.01 1288.08 C 1879.02 1378.77 1865.21 1439.05 1759.25 1440.01 C 1631.71 1438.68 1501.54 1440 1373.75 1440 L 274.996 1440 C 172.43 1440.94 168.169 1351.13 168.17 1275.2 L 168.224 713.024 C 165.674 641.118 219.803 603.475 287.5 604.986 z M 560.858 1396.98 L 1724.36 1397.01 C 1779.03 1396.99 1835.88 1397.87 1835.15 1326.08 L 1835.04 709.019 C 1834.99 657.491 1802.18 648.811 1758.88 648.584 L 1488.49 648.859 L 307.827 648.795 C 256.943 648.726 211.637 651.666 211.488 716.104 L 211.552 1325.33 C 211.099 1388.87 250.78 1397.23 300.642 1397.08 L 560.858 1396.98 z" fill="rgb(0,0,0)" transform="translate(0,0)"></path>
<path d="M 823.86 1085.65 C 843.202 1085.84 863.319 1084.87 882.5 1085.65 C 890.745 1114.69 931.879 1226.81 945.488 1252.48 C 965.313 1201.65 981.736 1132.72 1006.73 1085.65 L 1066.61 1085.65 C 1080.72 1130.81 1100.6 1177.87 1116.4 1223.24 C 1120.3 1235.15 1124.9 1246.33 1128.32 1258.51 L 1071.31 1258.51 C 1068.39 1250.13 1065.6 1240.68 1062.93 1232.16 C 1049.59 1230.97 1021.32 1232.02 1006.73 1232.16 C 1004.4 1241.01 1001.8 1249.73 999.215 1258.51 C 962.557 1258.06 925.216 1258.46 888.508 1258.51 C 884.376 1247.41 884.027 1243.75 882.5 1232.16 C 866.612 1233.22 840.422 1232.27 823.86 1232.16 C 820.701 1241.28 818.775 1249.18 816.447 1258.51 L 759.796 1258.51 C 764.733 1239.29 777.954 1207.2 785.118 1187.36 L 806.919 1127.39 C 810.978 1116.2 818.135 1094.8 823.86 1085.65 z M 833.234 1191.4 C 840.226 1191.59 846.26 1191.6 853.25 1191.4 C 859.514 1191.59 864.397 1191.7 870.68 1191.4 C 867.919 1183.14 855.542 1130.76 853.25 1128.45 C 846.402 1146.96 838.761 1172.14 833.234 1191.4 z M 1015.49 1191.4 C 1021.93 1191.47 1029.41 1191.73 1035.75 1191.4 L 1055 1191.4 C 1049.29 1176.94 1039.54 1144.61 1036.47 1129.09 L 1035.75 1128.45 C 1025.87 1150.58 1024.91 1169.06 1015.49 1191.4 z" fill="rgb(0,0,0)" transform="translate(0,0)"></path>
<path d="M 695.413 899.086 C 718.449 897.789 726.15 900.61 743.552 915.906 C 743.452 911.332 743.529 906.656 743.552 902.072 L 788.003 902.072 L 788.072 977.921 C 788.115 1003.17 791.512 1032.29 779.292 1054.88 C 757.447 1095.26 676.032 1099.07 652.495 1058.22 C 649.315 1051.47 648.896 1045.76 648.015 1038.48 L 695.413 1038.48 C 699.653 1054.67 719.67 1062.27 732.299 1051.33 C 741.458 1043.4 742.445 1027.7 743.552 1016.47 C 725.31 1035.26 702.068 1039.38 678.44 1027.15 C 628.549 1001.35 633.065 916.594 695.413 899.086 z M 724.018 997.013 C 755.395 986.299 748.378 933.616 712.925 935.052 C 684.031 942.579 677.878 998.684 724.018 997.013 z" fill="rgb(0,0,0)" transform="translate(0,0)"></path>
<path d="M 356.486 856.466 L 404.541 856.466 C 425.493 896.973 460.82 990.074 475.044 1033.95 C 457.895 1034.19 440.354 1033.97 423.174 1033.95 C 418.973 1023.82 415.948 1014.12 412.576 1003.71 L 401.002 1003.71 C 383.652 1004.2 364.967 1003.65 347.407 1003.71 C 343.759 1013.35 340.21 1024.15 336.772 1033.95 C 320.544 1035.29 303.777 1034.52 287.5 1033.95 C 294.723 998.773 341.482 891.969 356.486 856.466 z M 361.985 964.056 L 382.849 964.056 L 401.002 964.056 C 398.14 956.561 383.132 908.064 382.849 907.647 C 374.374 924.222 366.615 945.887 361.985 964.056 z" fill="rgb(0,0,0)" transform="translate(0,0)"></path>
<path d="M 1171.33 856.466 L 1205.02 856.466 L 1205.02 1033.95 C 1189.99 1034.12 1174.62 1033.89 1159.53 1033.95 C 1160.09 1027.84 1159.77 1022.58 1159.53 1016.47 C 1145.11 1040.24 1120.26 1042.13 1097.58 1029.31 C 1064.45 1014.17 1058.03 954.531 1076.47 926.485 C 1095.36 893.594 1141.94 887.303 1159.53 923.484 C 1157.3 902.672 1158.87 877.401 1159.53 856.466 C 1163.44 856.336 1167.42 856.429 1171.33 856.466 z M 1121.55 943.452 C 1105.26 962.636 1111.69 1001.89 1140.43 997.013 C 1171.92 983.294 1163.25 940.24 1131.49 937.437 L 1121.55 943.452 z" fill="rgb(0,0,0)" transform="translate(0,0)"></path>
<path d="M 1205.02 1085.65 C 1253.12 1071.75 1297.39 1099.73 1309.5 1147.26 L 1257.72 1147.26 C 1211.26 1074.37 1154.45 1193.52 1212.09 1216.38 C 1237.75 1226.55 1251.23 1208.91 1257.72 1187.06 C 1265.95 1186.93 1274.48 1187.05 1282.74 1187.06 C 1291.9 1186.89 1300.33 1186.83 1309.5 1187.06 C 1300.57 1293.43 1141.39 1286.4 1138.34 1180.74 C 1137.05 1136.19 1153.45 1088.32 1205.02 1085.65 z" fill="rgb(0,0,0)" transform="translate(0,0)"></path>
<path d="M 532.712 899.086 C 554.381 896.772 565.402 901.316 580.891 915.906 C 579.135 893.925 597.955 903.441 623.263 902.072 C 623.853 945.589 623.288 990.343 623.263 1033.95 C 608.033 1034.88 595.922 1034.7 580.891 1033.95 L 580.891 1019.78 L 578.611 1022.63 C 563.396 1041.72 532.304 1042.16 512.08 1031.54 C 466.775 1007.75 464.008 917.622 532.712 899.086 z M 560.858 1000.83 C 592.883 989.843 587.567 934.587 548.746 937.437 C 513.056 948.475 518.434 1005.28 560.858 1000.83 z" fill="rgb(0,0,0)" transform="translate(0,0)"></path>
<path d="M 1282.74 899.086 C 1341.55 890.779 1366.2 925.111 1365.99 979.332 C 1334.85 979.342 1301.68 978.654 1270.73 979.332 C 1276.32 1008.06 1305.66 1012.12 1322.35 989.536 L 1358.25 989.536 C 1367.01 991.394 1360.93 1001.14 1357.91 1006.41 C 1329.22 1056.53 1236.11 1043.93 1225.9 985.396 C 1217.93 939.652 1237.41 908.304 1282.74 899.086 z M 1270.73 954.204 C 1281.03 954.636 1290.48 954.418 1300.75 954.204 L 1322.35 954.204 C 1318.1 939.369 1310.06 929.304 1293.06 932.33 C 1277.93 935.917 1275.87 939.646 1270.73 954.204 z" fill="rgb(0,0,0)" transform="translate(0,0)"></path>
<path d="M 870.68 899.086 C 922.683 891.843 950.266 931.205 949.385 979.332 C 923.271 982.405 881.214 978.785 853.25 979.332 C 860.15 1009.24 883.972 1009.19 903.152 989.536 L 945.488 989.536 C 951.071 991.925 940.347 1008.12 937.87 1011.15 C 901.561 1055.55 812.306 1043.9 808.856 977.904 C 806.622 935.166 825.382 901.536 870.68 899.086 z M 853.25 954.204 L 882.5 954.204 L 903.152 954.204 C 900.063 941.377 891.903 929.331 876.788 932.33 C 862.339 934.493 858.442 941.032 853.25 954.204 z" fill="rgb(0,0,0)" transform="translate(0,0)"></path>
<path d="M 1675.01 870.002 C 1689.54 869.548 1706.14 869.97 1720.83 870.002 C 1720.19 881.888 1720.17 890.204 1720.83 902.072 C 1732.43 902.757 1738.42 902.64 1749.94 902.072 L 1749.94 937.437 C 1740.45 937.668 1730.37 937.465 1720.83 937.437 C 1720.72 956.479 1719.14 982.962 1724.07 1000.83 L 1732.79 1003.71 C 1739.31 1002.9 1743.54 1002.38 1749.94 1000.83 C 1750.49 1011.05 1750.26 1019.15 1749.94 1029.31 L 1749.78 1031.32 C 1739.22 1042.09 1674.21 1045.97 1674.9 996.206 C 1675.17 976.556 1674.94 956.434 1675.01 937.437 C 1668.22 937.24 1661.38 937.374 1654.58 937.437 C 1654.19 926.291 1654.52 913.356 1654.58 902.072 C 1662.01 902.442 1667.56 902.347 1675.01 902.072 C 1675.86 892.307 1675.14 880.091 1675.01 870.002 z" fill="rgb(0,0,0)" transform="translate(0,0)"></path>
<path d="M 1499.88 870.002 C 1518.21 868.434 1527.61 867.804 1545.99 870.002 C 1545.57 880.629 1545.85 891.425 1545.99 902.072 C 1555.32 902.93 1561.43 902.541 1570.7 902.072 L 1570.7 937.437 C 1563.17 938.044 1553.69 937.592 1545.99 937.437 C 1545.81 972.941 1532.61 1007.8 1570.7 1000.83 L 1570.94 1003.62 C 1571.83 1013.24 1571.25 1019.7 1570.7 1029.31 C 1572.75 1036.28 1549.3 1037.06 1544.77 1037.34 C 1487.43 1040.81 1499.74 976.579 1499.88 937.437 C 1494.13 937.2 1488.76 937.326 1483.02 937.437 L 1483.02 902.072 L 1499.88 902.072 L 1499.88 870.002 z" fill="rgb(0,0,0)" transform="translate(0,0)"></path>
<path d="M 1045.3 899.086 C 1047.22 898.88 1052.8 899.063 1055 899.086 L 1055 943.452 C 1000.36 943.47 1015.38 986.634 1015.49 1033.95 C 994.344 1033.96 969.101 1041.63 968.965 1022.39 L 968.965 902.072 C 983.488 901.814 998.626 902.639 1013.07 902.072 C 1013.42 908.968 1013.16 916.523 1013.07 923.484 C 1022.31 909.894 1027.92 902.103 1045.3 899.086 z" fill="rgb(0,0,0)" transform="translate(0,0)"></path>
<path d="M 1464.55 899.086 C 1473.11 899.315 1469.1 932.31 1468.98 940.606 C 1459.34 940.83 1451.83 940.8 1442.52 943.452 C 1428.66 962.938 1433.22 1010.19 1433.84 1033.95 L 1388.04 1033.95 L 1388.04 1019.78 L 1388.04 902.072 C 1403.14 900.942 1418.72 901.386 1433.84 902.072 C 1433.55 909.835 1433.27 915.766 1433.84 923.484 C 1441.82 905.975 1446.19 903.703 1464.55 899.086 z" fill="rgb(0,0,0)" transform="translate(0,0)"></path>
<path d="M 1590.19 904.01 L 1635.56 904.01 C 1635.54 947.129 1636.06 990.936 1635.56 1033.95 C 1623.12 1034.64 1603.23 1033.95 1590.19 1033.95 L 1590.19 904.01 z" fill="rgb(0,0,0)" transform="translate(0,0)"></path>
<path d="M 1590.19 856.466 L 1635.56 856.466 C 1635.39 867.766 1635.75 879.109 1635.56 890.49 C 1621.79 891.055 1604.26 890.515 1590.19 890.49 C 1588.65 876.859 1589.01 870.271 1590.19 856.466 z" fill="rgb(0,0,0)" transform="translate(0,0)"></path>
<metadata><recraft-signature>{"signed_by": "recraft", "signature_b64": "nB81jbUX0Q+mmpQCnZL01WAd/DLtnQAjIEKzQpn043DSLds13oLQ2UPgo3BkKeSEmQr1GfD2Z1ehSxv99DX/AQ==", "signing_algo": "Ed25519", "generation_timestamp": 1772998750, "identifier": "c6876584-af46-4e6e-973c-091c323d4bb5"}</recraft-signature></metadata></svg>