<svg xmlns="http://www.w3.org/2000/svg" height="512" preserveAspectRatio="none" style="display: block;" version="1.1" viewBox="0 0 2048 2048" width="512">
<path d="M 1462.89 597.32 C 1492.28 593.097 1527.91 614.37 1532.96 642.983 C 1536.98 665.785 1535.05 705.255 1535.04 729.673 L 1534.99 904.503 C 1567.08 871.574 1623.57 808.055 1658.6 781.095 C 1716.82 736.29 1796.69 808.665 1746.76 869.003 C 1734.8 883.387 1718.56 896.946 1705.29 910.346 L 1520.95 1094.79 C 1463.22 1153.09 1473.22 1148.67 1390.85 1148.69 L 655.999 1148.73 C 514.838 1149.1 411.244 1099.2 323.523 983.553 C 137.009 724.758 368.287 673.092 404.893 776.732 C 410.871 793.66 413.071 811.883 420.495 828.389 C 451.773 906.206 520.963 965.019 603.011 982.863 C 632.13 988.998 671.314 987.01 702.161 986.989 L 1313.93 986.966 C 1274.83 946.293 1226.91 905.03 1191.15 861.415 C 1155.98 818.527 1214.87 738.385 1275.3 775.987 C 1314.98 802.818 1369.28 869.814 1409.04 904.503 L 1408.99 729.432 C 1408.97 677.071 1395.16 609.226 1462.89 597.32 z" fill="rgb(0,0,0)" transform="translate(0,0)"></path>
<path d="M 711.8 1281.93 C 726.406 1281.05 749.381 1281.84 764.691 1281.87 L 1658.76 1281.88 C 1679.67 1281.88 1700.33 1281.81 1721.58 1282.17 C 1808.14 1283.63 1836.89 1418.42 1726.99 1448.73 C 1716.29 1449.68 1694.06 1448.83 1682.23 1448.8 L 793.018 1448.74 C 760.925 1448.74 703.61 1453.67 677.613 1434.42 C 619.368 1391.29 635.06 1294.5 711.8 1281.93 z" fill="rgb(0,0,0)" transform="translate(0,0)"></path>
<metadata><recraft-signature>{"signed_by": "recraft", "signature_b64": "YHynWUh1LgA5mD45NE3lpOeSwQ6Hu+mAZeI33VT8QzhkeMcuROBhzNmqP5KjVmBsAfuerXpkq0yRzsShY6x4Cg==", "signing_algo": "Ed25519", "generation_timestamp": 1772996950, "identifier": "e6fab39e-c70f-4a64-afc3-8602bbcb3318"}</recraft-signature></metadata></svg>