<svg xmlns="http://www.w3.org/2000/svg" height="512" preserveAspectRatio="none" style="display: block;" version="1.1" viewBox="0 0 2048 2048" width="512">
<path d="M 331.063 557.1 C 353.452 556.07 386.225 557.084 409.3 557.086 L 1639.21 557.072 C 1695.93 556.99 1771.62 545.519 1795.15 613.843 C 1805.38 643.549 1801.44 687.473 1801.44 719.319 L 1801.53 1323.28 C 1801.51 1393.54 1804.48 1452.75 1723.25 1468.99 L 379.576 1469.05 C 276.569 1469.08 245.416 1453.12 245.92 1347.75 L 245.982 680.793 C 245.735 617.848 252.214 565.223 331.063 557.1 z M 1686.25 1418.51 C 1756.62 1418.34 1753.04 1401.96 1753.04 1342.65 L 1752.98 644.998 C 1752.79 597.493 1706.63 607.048 1674.25 607.049 L 356.951 607.091 C 287.74 608.76 296.1 630.556 296.381 687.752 L 296.476 1238.49 C 296.466 1287.45 296.076 1336.52 297 1385.45 C 297.801 1427.84 354.484 1418.64 382.441 1418.56 L 1686.25 1418.51 z" fill="rgb(0,0,0)" transform="translate(0,0)"></path>
<path d="M 594.781 702.419 C 637.638 693.234 646.867 743.136 657.585 772.672 L 714.639 933.974 C 718.232 944.128 733.774 983.692 730.976 992.126 C 722.13 1018.8 682.021 1021.87 671.313 991.545 C 665.961 976.391 660.07 958.725 654.758 943.054 L 606.5 943.054 L 543.689 943.054 C 533.084 971.456 532.034 1005.4 498.701 1013.49 C 474.364 1007.56 463.581 997.013 471.424 970.171 C 479.843 941.362 557.015 724.633 565.322 714.774 C 572.974 705.693 583.582 703.543 594.781 702.419 z M 559.457 895 L 601.5 895 L 639.684 895 C 629.188 866.772 606.166 805.574 602.294 776.885 C 602.084 775.33 602.359 776.15 601.5 774.665 C 588.294 797.484 567.399 865.478 559.457 895 z" fill="rgb(0,0,0)" transform="translate(0,0)"></path>
<path d="M 888.026 702.419 C 905.671 700.572 925.922 705.264 933.413 723.444 C 964.963 800.018 1008.3 903.463 1029.72 983.227 C 1020.63 1014 990.05 1026.76 971.692 995.653 C 964.508 983.481 957.619 957.735 952.052 943.054 C 937.833 942.724 925.307 942.581 911.113 943.054 C 889.011 943.194 864.735 942.109 843.002 943.054 C 833.636 969.914 823.882 1029.98 782.225 1009 C 752.513 996.176 777.813 947.943 784.797 928.368 L 848.254 752.574 C 857.214 728.014 859.174 709.092 888.026 702.419 z M 861 895 L 898.5 895 L 935.243 895 C 932.161 882.69 902.462 787.826 898.5 780.631 C 887.314 798.917 862.725 873.738 861 895 z" fill="rgb(0,0,0)" transform="translate(0,0)"></path>
<path d="M 1444.72 702.419 C 1458.33 702.1 1480.48 704.052 1486.54 718.704 C 1518.01 794.778 1540.33 874.71 1569.18 951.816 C 1572.57 960.871 1575.96 970.095 1578.43 979.434 C 1582.91 1002.31 1560.37 1018.78 1539.53 1010.23 C 1518.16 1001.47 1512.72 963.367 1504.12 943.054 C 1490.1 943.862 1469.09 943.145 1454.5 943.054 C 1438.93 943.546 1407.41 945.324 1393.53 943.054 C 1384.09 975.043 1385.13 998.877 1354.36 1012.14 C 1335.34 1020.33 1316.61 993.631 1322.53 975.955 C 1330.77 951.53 1339.74 927.178 1348.3 902.877 L 1384.66 800.966 C 1396.41 768.213 1407.15 707.796 1444.72 702.419 z M 1409.21 897 C 1424.43 897.426 1439.33 896.96 1454.5 897 C 1465.77 897.043 1478.36 897.33 1489.53 897 C 1485.69 884.114 1451.89 777.851 1448.36 774.665 C 1434.63 812.702 1420.5 858.356 1409.21 897 z" fill="rgb(0,0,0)" transform="translate(0,0)"></path>
<path d="M 1245.75 702.419 C 1265.36 701.712 1284.07 723.49 1272.41 742.235 C 1251.22 771.913 1214.04 822.386 1190.63 845.061 C 1217.74 880.286 1261.14 935.457 1283.19 973.205 C 1298.91 1000.14 1252 1025.84 1235.37 1004.48 C 1202.48 962.246 1173.46 917.065 1140.08 875.001 C 1140.36 893.023 1140.15 911.235 1140.08 929.273 C 1139.99 948.318 1143.03 980.94 1136.78 997.241 C 1128.79 1018.1 1088.73 1016.05 1082.35 993.433 C 1079.63 983.761 1080.75 968.302 1080.78 958.359 L 1080.82 797.083 C 1080.81 783.211 1077.24 727.671 1084.5 716.906 C 1094.98 701.205 1119.24 700.898 1132.44 713.114 C 1145.7 725.401 1139.46 805.192 1140.08 824.551 C 1163.23 798.623 1217.76 712.568 1245.75 702.419 z" fill="rgb(0,0,0)" transform="translate(0,0)"></path>
<path d="M 1109 1109 C 1128.58 1108.2 1146.58 1107.48 1165.63 1112.73 C 1215.29 1126.42 1224.11 1188.43 1176.4 1212.1 C 1216.38 1234.18 1199.46 1265.25 1210.77 1301.33 C 1213.86 1311.18 1171.96 1339.56 1170.94 1268.85 C 1166.83 1229.71 1149.79 1227.57 1112.09 1229.48 C 1095.78 1230.31 1132.76 1332.42 1076.45 1309.79 C 1068.97 1299.94 1074.78 1156.02 1073.35 1135.88 C 1071.85 1114.74 1092.03 1111.56 1109 1109 z M 1109 1140.37 L 1109 1201 C 1124.31 1201.1 1135.23 1202 1150.15 1198.48 C 1190.28 1180.5 1176.91 1138.3 1129.27 1140.37 C 1122.64 1140.19 1115.61 1139.96 1109 1140.37 z" fill="rgb(0,0,0)" transform="translate(0,0)"></path>
<path d="M 772.239 1109 C 852.808 1102.03 890.584 1173.09 844.246 1220.28 C 821.62 1243.32 795.36 1239.93 765.975 1240.22 C 765.835 1245.9 765.963 1252.03 765.975 1257.75 C 765.865 1269.25 767.412 1299.66 761.643 1307.84 C 758.001 1313 732.071 1314.98 731.067 1298.39 C 729.886 1278.88 730.23 1259.95 730.225 1240.43 L 730.243 1125.01 C 740.055 1110.49 756.102 1111.16 772.239 1109 z M 765.975 1209.11 C 783.902 1210.76 799.371 1212.3 814.287 1201 C 845.779 1179.99 825.255 1135.57 772.239 1140.37 C 759.331 1143.45 765.986 1193.96 765.975 1209.11 z" fill="rgb(0,0,0)" transform="translate(0,0)"></path>
<path d="M 952.052 1109 C 986.971 1112.69 986.285 1141.24 997.001 1172.3 L 1022.29 1247.35 C 1025.73 1257.69 1046.37 1305.98 1034.03 1309.45 C 998.545 1319.42 999.833 1289.06 990.74 1263.7 L 990.296 1262.49 C 981.318 1261.89 971.325 1262.31 962.25 1262.49 L 916.897 1262.49 C 908.554 1287.88 908.397 1323.22 872.887 1308.02 C 865 1298.18 923.404 1131.55 935.243 1117.28 C 941.688 1111.87 943.828 1110.57 952.052 1109 z M 924.229 1234.09 L 952.052 1234.09 C 958.585 1234.07 973.467 1234.8 978.356 1231.59 C 979.644 1223.67 956.996 1153.79 952.052 1144.5 C 944.804 1174.21 932.26 1205.17 924.229 1234.09 z" fill="rgb(0,0,0)" transform="translate(0,0)"></path>
<path d="M 1368.74 1109 C 1420.77 1106.03 1347.25 1174.62 1331.96 1193.23 C 1349.58 1209.55 1393.29 1284.54 1398 1302.77 C 1395.55 1314.94 1378.32 1313.96 1368.74 1312.24 C 1353.29 1299.74 1327.77 1240.65 1311.07 1219.02 C 1302.32 1231.1 1286.35 1242.31 1287.38 1257.75 C 1287.1 1269.49 1289.05 1298.51 1285.07 1307.37 C 1278.34 1312.32 1253.23 1315.5 1252.45 1298.11 C 1249.86 1239.77 1251.19 1179.38 1251.09 1121.21 C 1251.06 1108.36 1292.17 1097.09 1289.07 1139.66 C 1287.72 1158.2 1287.49 1188.41 1284.23 1209.11 C 1298.62 1183.68 1336.03 1134.11 1354.77 1113.64 C 1357.32 1110.85 1365.03 1109.68 1368.74 1109 z" fill="rgb(0,0,0)" transform="translate(0,0)"></path>
<path d="M 619.192 1109 C 676.174 1094.45 689.128 1144.19 667.161 1143.27 C 646.331 1142.4 598.298 1129.78 596.308 1164.51 C 594.776 1191.24 739.358 1211.21 674.896 1291.8 C 660.399 1309.92 633.985 1310.92 611.728 1312.24 C 596.279 1310.58 559.604 1310.64 557.997 1290.49 C 555.748 1262.29 584.365 1276.53 599.983 1280.13 C 649.529 1291.55 677.954 1249.01 629.75 1227.12 C 601.049 1214.08 563.457 1204.92 562.155 1166.05 C 560.825 1130.58 586.519 1111.23 619.192 1109 z" fill="rgb(0,0,0)" transform="translate(0,0)"></path>
<metadata><recraft-signature>{"signed_by": "recraft", "signature_b64": "PInOS0R6OqjBamRC28UStOd5ksGQGXJqSeg32DYuNRJN5ttBUa7SJDLST+VLQLGxeoZA+lihbBlbh5sZ3CUzBA==", "signing_algo": "Ed25519", "generation_timestamp": 1772996941, "identifier": "017af3d6-4362-4b9e-b750-586b79dd1e90"}</recraft-signature></metadata></svg>