<svg xmlns="http://www.w3.org/2000/svg" height="512" preserveAspectRatio="none" style="display: block;" version="1.1" viewBox="0 0 2048 2048" width="512">
<path d="M 274.378 577.001 C 298.124 575.715 335 576.984 359.927 576.986 L 1699.67 577.017 C 1812.4 577.003 1863.06 577.903 1863.05 704.276 L 1863.08 1319.96 C 1863.11 1384.4 1850.82 1437.05 1775.75 1446 L 331.716 1446.06 C 312.773 1446.07 292.482 1446.74 273.553 1445.3 C 197.445 1439.52 184.763 1376.19 184.876 1316.01 L 184.854 701.501 C 184.827 636.769 199.985 585.301 274.378 577.001 z M 1195.5 1383.12 L 1715.44 1383.14 C 1786.02 1383.16 1799.1 1398.47 1799.06 1319.28 L 1799.02 807.571 C 1799.03 762.419 1799.54 717.161 1798.37 672.046 C 1797.43 635.987 1763.41 641.194 1736.36 641.424 L 859.989 641.517 L 340.006 641.489 C 274.888 641.472 248.958 625.301 249.002 697 L 249.117 1222.33 C 249.26 1261.95 248.532 1301.31 249.477 1341.04 C 250.671 1391.19 280.169 1383.14 317.913 1383.14 L 1195.5 1383.12 z" fill="rgb(0,0,0)" transform="translate(0,0)"></path>
<path d="M 911.349 791.096 C 966.941 780.418 960.062 847.316 960.051 879.751 L 960.008 978.71 C 1001.12 922.164 1047.72 868.845 1091.39 814.313 C 1134.21 759.372 1195.43 810.756 1172.13 850.851 C 1164.15 864.57 1147.2 882.165 1136.31 895.007 L 1065.57 978.71 C 1099.04 1043.29 1142.42 1116.73 1181.53 1178.17 C 1209.42 1235.92 1132.01 1256.04 1112.12 1228.36 C 1071.51 1171.87 1043.47 1107.1 1003.37 1050.52 C 988.57 1068.6 975.838 1084.25 960.008 1101.42 C 963.247 1117.94 959.489 1162.45 960.832 1184.22 C 965.731 1263.61 876.014 1247.39 872.968 1206.36 C 871.407 1185.33 872.001 1163.46 871.99 1142.34 L 871.994 893.638 C 872.014 853.682 860 796.301 911.349 791.096 z" fill="rgb(0,0,0)" transform="translate(0,0)"></path>
<path d="M 1408.7 791.096 C 1432.57 789.441 1448.77 793.229 1457.76 817.722 L 1574.47 1142.22 C 1579.98 1157.78 1587.77 1177.17 1591.05 1192.24 C 1600.84 1237.2 1530.11 1258.02 1511.71 1221.78 C 1499.43 1197.59 1491.46 1168.97 1483.45 1143.11 C 1464.87 1142.89 1445.87 1143.1 1427.25 1143.11 C 1400.91 1143.06 1374.09 1142.76 1347.79 1143.11 C 1340.58 1165.22 1327.52 1229.65 1302.68 1237.34 C 1270.5 1246.35 1229.32 1228.32 1241.95 1188.75 C 1250.58 1161.7 1260.74 1134.7 1270.19 1107.75 L 1363.86 849.489 C 1374.64 819.935 1375.14 800.493 1408.7 791.096 z M 1414.75 1076.85 C 1429.4 1076.87 1444.86 1077.15 1459.44 1076.85 C 1449.97 1047.55 1428.8 974.433 1414.75 948.695 C 1400.19 974.721 1380.17 1046.11 1370.49 1076.85 L 1414.75 1076.85 z" fill="rgb(0,0,0)" transform="translate(0,0)"></path>
<path d="M 630.174 791.096 C 644.689 790.712 665.492 800.75 670.757 814.542 C 690.963 867.465 708.16 921.727 727.393 975.034 L 781.895 1126.13 C 790.934 1150.72 802.801 1175.74 809.543 1201.02 C 803.583 1224.13 792.48 1237.3 768.013 1238.8 C 718.985 1241.81 712.449 1184.36 699.984 1145.99 L 638.5 1145.99 L 563.208 1145.99 C 554.815 1169.09 548.818 1194.04 538.986 1216.36 C 523.357 1251.85 465.6 1244.08 457.351 1207.07 C 452.966 1187.4 482.92 1120.8 490.062 1100.56 L 560.248 905.078 C 576.391 861.273 582.418 799.001 630.174 791.096 z M 630.174 1074.13 C 645.981 1074.12 662.452 1073.86 678.2 1074.13 C 674.247 1061.08 634.926 943.474 630.174 937.588 C 615.819 969.51 593.079 1039.95 582.868 1074.13 L 630.174 1074.13 z" fill="rgb(0,0,0)" transform="translate(0,0)"></path>
<metadata><recraft-signature>{"signed_by": "recraft", "signature_b64": "rScf3rWbV73bD3RHMqwUFwLlhEXtaocbbMlGCgHRGbrpz5qXwpyqagNbbfBAR9vWvtv97eOvHRQhYWSA25k7Aw==", "signing_algo": "Ed25519", "generation_timestamp": 1772996932, "identifier": "4a56918b-57d6-4090-b8e7-3ac83e0ddcf0"}</recraft-signature></metadata></svg>