<svg xmlns="http://www.w3.org/2000/svg" height="512" preserveAspectRatio="none" style="display: block;" version="1.1" viewBox="0 0 2048 2048" width="512">
<path d="M 1499.32 442.525 C 1673.37 429.768 1731.64 686.514 1562.36 751.865 C 1549.43 756.789 1536.38 759.175 1522.93 762.087 C 1583.58 758.734 1643.69 783.005 1643.05 854.46 C 1642.73 890.614 1598.11 1040.52 1584.86 1068.85 C 1518.95 1214.04 1383.78 1317.11 1224.79 1336.57 C 1190.61 1340.75 1152.99 1339.26 1118.19 1339.25 L 955.005 1339.24 C 959.359 1375.09 954.978 1437.58 955.005 1476.2 L 1468.93 1476.26 C 1551.96 1476.28 1643.53 1470.71 1664.02 1365.8 C 1668.51 1340.26 1661.53 1319.37 1680.98 1298 C 1717.82 1257.54 1786.94 1282.41 1789.61 1337.21 C 1795.4 1456.05 1700.24 1570.23 1583.64 1591.65 C 1538.68 1599.91 1488.64 1597.34 1442.51 1597.32 L 563.876 1597.33 C 542.113 1597.39 513.328 1598.12 492.538 1596.51 C 359.982 1586.2 258.654 1470.65 257.386 1339.7 C 256.642 1262.92 379.923 1248.52 382.845 1350.31 C 385.69 1449.42 462.788 1476.32 544.751 1476.24 L 835.809 1476.2 C 836.919 1432.5 833.539 1381.41 835.809 1339.24 L 585.987 1339.93 C 442.868 1340.37 402.005 1156.88 527.005 1094.84 C 549.033 1083.9 579.531 1084.94 603.705 1084.94 L 1093.11 1085.04 C 1183.01 1085.08 1232.26 1085.56 1301.24 1016.99 C 1264.09 971.846 1201.74 915.774 1158.61 874.08 C 1101.94 819.305 1158.03 737.252 1224.21 770.768 C 1243.5 780.538 1337.42 879.714 1357.19 899.683 C 1377.81 833.358 1384.64 755.947 1479.14 762.087 C 1472.15 758.728 1462.56 756.564 1455.03 753.954 C 1291.05 697.082 1324.56 453.963 1499.32 442.525 z" fill="rgb(0,0,0)" transform="translate(0,0)"></path>
<metadata><recraft-signature>{"signed_by": "recraft", "signature_b64": "l/2RwsMr965yOfBxKl3fS0vmhBT3CeKSSeDAJrMQOU7YCRDaQB+iPJ1ryMxtN2VbuwBITFAwvduYXEKeAsXfDg==", "signing_algo": "Ed25519", "generation_timestamp": 1772996828, "identifier": "57e46a3b-72a6-412c-88aa-3c5993286aae"}</recraft-signature></metadata></svg>