<svg xmlns="http://www.w3.org/2000/svg" height="512" preserveAspectRatio="none" style="display: block;" version="1.1" viewBox="0 0 2048 2048" width="512">
<path d="M 405.346 335.951 C 414.97 334.866 438.83 335.85 449.961 335.906 L 826.627 335.459 C 916.763 334.817 991.036 391.005 1017.12 478.076 C 1023.28 498.612 1024.15 539.133 1026.3 562.008 C 1039.84 706.388 1103.3 807.628 1231.24 874.998 C 1247.18 883.387 1264.59 890.266 1279.98 898.845 C 1298.73 909.295 1316.44 927.165 1337.13 934.684 C 1357.47 942.079 1377.72 943.007 1399.08 949.548 C 1447.26 963.268 1575.69 1015.05 1609.25 1049.94 C 1679.26 1122.7 1682.33 1250.65 1610.88 1321.23 C 1553.48 1378.28 1483.23 1382.13 1409 1381.86 L 1409 1579 L 1497.33 1578.99 C 1512.69 1578.96 1530.41 1578.37 1545.54 1579 C 1561.38 1562.51 1585.06 1540.1 1599.77 1522.57 C 1639.96 1474.69 1711.76 1492.02 1718.33 1555.53 C 1722.15 1592.42 1646.03 1654.4 1619.07 1683.16 C 1593.51 1710.65 1570.36 1706.32 1536.02 1706.08 L 1204.5 1705.99 C 1172.87 1706.18 1145.96 1710.4 1121.58 1686.48 C 1086.51 1652.83 1102.94 1590.71 1150.74 1580.26 C 1163.83 1577.4 1186.64 1578.88 1200.79 1578.92 L 1278.2 1579 C 1278.98 1559.01 1278.24 1533.52 1278.23 1513.07 L 1278.2 1381.86 L 795.203 1381.86 C 782.828 1410.22 771.189 1443.43 760.479 1472.77 L 705.488 1622.75 C 688.286 1671.68 676.284 1706.38 613.737 1706.01 C 558.055 1705.67 502.23 1706.35 446.543 1705.85 C 371.379 1705.35 357.79 1593.63 432.981 1580.79 C 451.962 1577.55 475.826 1579.01 495.39 1579.02 L 589.027 1579 C 594.731 1561.39 601.934 1543.1 608.178 1525.55 L 640.809 1431.09 C 646.171 1415.22 653.322 1397.74 657.227 1381.86 C 629.943 1382.96 601.956 1380.88 574.599 1382.28 C 550.063 1383.53 526.874 1375.98 521.187 1348.16 C 513.7 1314.91 507.102 1281.63 500.476 1248.28 L 336.871 461.708 C 323.573 398.557 325.775 338.399 405.346 335.951 z M 628.406 1254.11 L 1390.23 1254.1 C 1430.77 1254.1 1485.07 1263.57 1515.27 1233.15 C 1539.94 1207.87 1544.93 1162.33 1518.71 1136.38 C 1507.76 1125.54 1298.64 1046.23 1261.27 1029.84 C 1164.47 987.372 1088.85 951.376 1017.52 871.309 C 934.765 778.426 900.245 671.774 897.364 548.495 C 895.6 472.986 875.491 466.847 804.571 466.827 L 468.693 466.856 C 469.134 473.25 470.335 479.649 471.667 485.918 L 614.883 1186.93 C 618.891 1205.62 626.214 1235.56 628.406 1254.11 z" fill="rgb(0,0,0)" transform="translate(0,0)"></path>
<metadata><recraft-signature>{"signed_by": "recraft", "signature_b64": "f9+5yOne2IdEReyYAFwhQCHMmXOiCSWnoy6Diz+gChrEAoE2kTYTTnuRCSKi/FIdV0Z1iS4QeYs/bImH8/JsAA==", "signing_algo": "Ed25519", "generation_timestamp": 1772996838, "identifier": "408c43f2-895c-4b9a-aaf8-6b83c5ae142d"}</recraft-signature></metadata></svg>