<svg xmlns="http://www.w3.org/2000/svg" height="512" preserveAspectRatio="none" style="display: block;" version="1.1" viewBox="0 0 2048 2048" width="512">
<path d="M 696.49 310.842 C 859.793 297.073 1003.28 418.421 1016.82 581.742 C 1030.36 745.063 908.817 888.384 745.476 901.697 C 582.459 914.983 439.482 793.727 425.968 630.728 C 412.454 467.729 533.51 324.583 696.49 310.842 z M 722.502 775.097 C 815.978 774.762 891.461 698.669 891.042 605.193 C 890.624 511.717 814.463 436.303 720.987 436.805 C 627.63 437.306 552.332 513.35 552.75 606.708 C 553.168 700.066 629.144 775.432 722.502 775.097 z" fill="rgb(0,0,0)" transform="translate(0,0)"></path>
<path d="M 1461.91 921.328 C 1521.4 912.128 1539.97 993.919 1558.76 1037.04 L 1732.11 1427.24 C 1761.27 1492.47 1788.94 1558.2 1820.44 1622.39 C 1831.26 1644.45 1843.21 1664.91 1834.11 1689.56 C 1821.27 1724.29 1783.31 1744.7 1747.84 1731.08 C 1711.72 1717.93 1704.27 1678.68 1689.94 1646.53 L 1625.71 1502.97 L 1476.75 1502.97 L 1312.01 1502.97 C 1304.4 1524.86 1293.9 1548.03 1284.64 1569.39 L 1249.18 1650.85 C 1241.61 1667.84 1231.73 1694.61 1222.07 1709.72 C 1191.71 1757.21 1115.64 1740.34 1106.13 1685.48 C 1099.83 1649.13 1158.86 1540.37 1174.75 1504.73 L 1411.14 959.06 C 1421.6 934.446 1436.5 925.374 1461.91 921.328 z M 1370.89 1379.89 C 1406 1379.47 1441.59 1379.94 1476.75 1379.89 C 1510.35 1379.07 1540.03 1379.86 1573.16 1379.89 C 1564.35 1357.9 1474.8 1149.31 1470.38 1145.58 C 1440.63 1222.59 1404.37 1304.3 1370.89 1379.89 z" fill="rgb(0,0,0)" transform="translate(0,0)"></path>
<path d="M 581.704 1041.03 C 586.351 1040.41 618.989 1041 625.724 1041 L 896.807 1041 C 925.873 1041.01 955.423 1040.66 984.696 1041.5 C 1054.26 1043.49 1069.92 1136.37 1006.52 1162.04 C 992.929 1167.55 943.632 1165.08 926.081 1165.07 L 635.559 1165.03 C 565.592 1164.69 569.782 1166.96 531.525 1224.65 L 380.645 1454.27 C 354.482 1494.57 321.77 1535.7 365.816 1582.16 C 390.069 1607.73 415.197 1605.7 447.59 1605.84 L 741.487 1606.06 C 781.273 1606.07 830.695 1602.98 830.928 1547.4 L 831.018 1374.5 C 829.954 1242.09 947.896 1281.73 953.595 1339.58 C 956.325 1367.29 954.891 1398.91 954.892 1427.12 L 954.947 1505.46 C 954.945 1615.22 915.528 1716.99 789.094 1731.91 C 767.445 1734.47 742.929 1733.58 720.747 1733.59 L 477.131 1733.6 C 446.791 1733.59 415.111 1735.08 385.211 1730.32 C 257.726 1709.95 184.115 1569.81 232.844 1451.98 C 244.484 1423.83 263.609 1398.36 280.471 1373.01 L 421.052 1160.7 C 465.758 1092.85 496.17 1050.48 581.704 1041.03 z" fill="rgb(0,0,0)" transform="translate(0,0)"></path>
<metadata><recraft-signature>{"signed_by": "recraft", "signature_b64": "ZvkJ5WXlTXt36Ex5cuRMWD5zgl/pzjy/6P0VaeCJHXuEYWQYboXW7W1I7zV3WxCpPpp3kMtrdYHD4q839Qm8Cw==", "signing_algo": "Ed25519", "generation_timestamp": 1772989724, "identifier": "8bb8a640-3c61-444b-aa62-fc50575cc67b"}</recraft-signature></metadata></svg>