<svg xmlns="http://www.w3.org/2000/svg" height="512" preserveAspectRatio="none" style="display: block;" version="1.1" viewBox="0 0 2048 2048" width="512">
<path d="M 898.598 254.482 L 1352.68 254.435 C 1370.95 254.432 1388.97 254.424 1407.38 254.741 C 1553.63 257.261 1685.1 375.126 1701.91 520.702 C 1705.15 548.738 1704.79 582.647 1704.77 611.031 L 1704.83 1383.75 C 1704.89 1429.39 1705.14 1457.69 1688.78 1502.03 C 1614.79 1702.52 1334.68 1800.83 1140.24 1822.42 C 861.259 1866.32 343.277 1735.32 342.958 1395.17 L 342.966 628.135 C 342.958 585.841 340.746 543.187 348.529 501.391 C 373.012 369.922 492.274 266.811 624.553 255.599 C 656.647 252.878 695.527 254.458 728.137 254.452 L 898.598 254.482 z M 1343.38 1598.99 C 1419.19 1565.91 1529.73 1511.44 1534.73 1416.59 C 1535.77 1396.99 1535.38 1376.37 1535.38 1356.71 L 1535.37 602.344 C 1535.41 585.291 1535.89 567.396 1535.03 550.445 C 1531.59 485.757 1474.39 427.821 1409.07 425.509 C 1380.52 424.499 1351.47 425.064 1322.89 425.066 L 644.629 425.061 C 539.673 436.676 510.533 504.145 510.701 599.038 L 510.759 1373.35 C 510.756 1389.5 509.938 1409.68 511.643 1425.43 C 519.356 1496.66 599.006 1547.33 657.164 1576.67 C 867.025 1682.54 1126.92 1692.11 1343.38 1598.99 z" fill="rgb(31,31,31)" transform="translate(0,0)"></path>
<metadata><recraft-signature>{"signed_by": "recraft", "signature_b64": "G81k4JvyWmA0yHhnDr2a50g4QedlxWEjOHAXHc3s2SeOMAoLv5FQnd/hmaYNkWRBmG6DinZxzLkp0fH0+dObDw==", "signing_algo": "Ed25519", "generation_timestamp": 1772999434, "identifier": "dc1f5577-605c-44c4-ada5-e37a9a7a9e68"}</recraft-signature></metadata></svg>