<svg xmlns="http://www.w3.org/2000/svg" height="512" preserveAspectRatio="none" style="display: block;" version="1.1" viewBox="0 0 2048 2048" width="512">
<path d="M 769.846 1247.01 C 703.401 1254.97 640.385 1224.78 600.161 1171.56 C 570.376 1132.16 536.682 1061.74 572.881 1016.35 C 598.032 984.66 630.462 990.503 665.644 990.656 L 755.488 990.766 C 767.467 990.759 796.061 991.695 806.218 987.597 L 807.338 985.99 C 804.994 982.513 757.762 961.491 749.54 957.639 L 593.486 884.779 C 569.609 873.787 545.323 864.155 521.91 852.209 C 369.489 774.443 320.243 634.657 320.069 475.99 L 320.033 390.028 C 320.041 374.605 318.768 351.322 321.756 336.803 C 328.803 302.561 382.059 306.689 383.691 342.322 C 386.173 396.49 387.104 470.154 384.319 525.112 L 385.74 525.529 C 391.036 510.081 391.619 496.598 409.473 489.737 C 505.576 452.802 416.398 642.644 553.573 711.628 C 570.588 720.194 593.352 711.304 603.757 695.57 C 626.641 702.122 656.164 727.712 669.628 747.33 L 670.715 747.706 C 741.174 829.486 836.785 758.979 835.674 664.558 C 835.047 611.254 879.596 588.566 909.07 621.993 C 944.904 661.948 895.04 786.639 853.562 818.633 C 819.608 844.824 777.776 853.342 799.876 909.822 C 820.694 923.414 861.278 939.854 884.466 950.248 C 933.141 926.306 1105.01 928.684 1164.72 949.213 L 1167.7 950.248 C 1179.28 944.864 1231.14 922.335 1238.43 916.654 C 1248.83 903.497 1253.78 886.417 1249.05 869.957 C 1240.32 839.552 1176.86 820.885 1149.11 761.433 C 1136.66 734.775 1121.85 660.383 1132.58 632.758 C 1141.35 610.165 1168.99 602.801 1190.17 611.751 C 1219.14 623.993 1212.55 656.051 1214.92 681.057 C 1224.77 785.192 1341.87 822.676 1377.03 733.003 C 1381.93 731.643 1408.63 696.234 1440 691.94 C 1467.03 733.924 1502.16 716.627 1529.37 683.769 C 1563.26 644.921 1582.07 596.362 1583.82 544.937 C 1584.63 534.036 1583.7 521.78 1586.45 511.192 C 1596.19 473.602 1643.02 475.387 1665.01 517.38 L 1664.97 401.723 C 1664.95 381.21 1663.84 359.212 1666.07 338.959 C 1670.08 302.412 1727.72 308.11 1727.92 340.846 C 1728.97 513.737 1750.28 666.532 1605.38 796.613 C 1560.64 837.324 1532.34 847.395 1480.55 873.054 L 1325.63 948.071 C 1294.86 962.671 1268.71 972.578 1238.43 990.703 L 1362.84 990.659 C 1418.15 990.664 1488.62 982.823 1487.7 1062.39 C 1486.3 1183.08 1395.6 1247.73 1280.56 1247.01 C 1276.44 1266.57 1273.1 1287.07 1269.19 1306.84 L 1231.17 1500.77 C 1225.15 1531.33 1220.99 1566.08 1212.1 1595.67 C 1161.55 1749.59 942.738 1773.46 854.979 1636.46 C 825.672 1590.71 822.458 1532.83 812.137 1480.49 L 782.878 1328.42 C 778.225 1303.57 770.104 1271.25 769.846 1247.01 z" fill="rgb(0,0,0)" transform="translate(0,0)"></path>
<path d="M 1440 691.94 C 1467.03 733.924 1502.16 716.627 1529.37 683.769 C 1563.26 644.921 1582.07 596.362 1583.82 544.937 C 1584.63 534.036 1583.7 521.78 1586.45 511.192 C 1596.19 473.602 1643.02 475.387 1665.01 517.38 C 1661.89 539.281 1662.04 559.869 1657.45 581.931 C 1624.01 742.798 1517.58 784.824 1384.18 848.732 L 1273.32 901.21 C 1266.35 904.442 1244.02 915.863 1238.43 916.654 C 1248.83 903.497 1253.78 886.417 1249.05 869.957 C 1240.32 839.552 1176.86 820.885 1149.11 761.433 C 1136.66 734.775 1121.85 660.383 1132.58 632.758 C 1141.35 610.165 1168.99 602.801 1190.17 611.751 C 1219.14 623.993 1212.55 656.051 1214.92 681.057 C 1224.77 785.192 1341.87 822.676 1377.03 733.003 C 1381.93 731.643 1408.63 696.234 1440 691.94 z" fill="rgb(113,69,55)" transform="translate(0,0)"></path>
<path d="M 384.319 525.112 L 385.74 525.529 C 391.036 510.081 391.619 496.598 409.473 489.737 C 505.576 452.802 416.398 642.644 553.573 711.628 C 570.588 720.194 593.352 711.304 603.757 695.57 C 626.641 702.122 656.164 727.712 669.628 747.33 L 670.715 747.706 C 741.174 829.486 836.785 758.979 835.674 664.558 C 835.047 611.254 879.596 588.566 909.07 621.993 C 944.904 661.948 895.04 786.639 853.562 818.633 C 819.608 844.824 777.776 853.342 799.876 909.822 C 791.456 908.276 766.084 895.565 756.451 891.155 L 594.243 816.076 C 576.083 807.798 557.773 800.368 540.414 790.459 C 444.729 735.838 387.795 634.505 384.319 525.112 z" fill="rgb(113,69,55)" transform="translate(0,0)"></path>
<path d="M 818.762 1168.24 C 800.401 1039.54 903.59 992.043 1017.49 997.056 C 1052.17 998.582 1089.28 993.187 1123.34 1002.18 C 1202.8 1023.16 1245.8 1097.96 1229.96 1176.75 L 1161.78 1519.12 C 1156.26 1548.56 1153.19 1578.12 1136.15 1603.34 C 1087.47 1674.34 983.3 1681.86 924.443 1619.1 C 893.292 1585.89 891.873 1557.77 883.72 1515.02 L 818.762 1168.24 z" fill="rgb(222,221,221)" transform="translate(0,0)"></path>
<path d="M 818.762 1168.24 C 800.401 1039.54 903.59 992.043 1017.49 997.056 C 1052.17 998.582 1089.28 993.187 1123.34 1002.18 C 1202.8 1023.16 1245.8 1097.96 1229.96 1176.75 C 1208.03 1166.35 1200.31 1098.9 1118.23 1093.82 C 1060.74 1090.26 1003.02 1092.42 945.45 1092.09 C 868.233 1091.56 859.823 1126.18 819.798 1167.2 L 818.762 1168.24 z" fill="rgb(246,243,241)" transform="translate(0,0)"></path>
<path d="M 1115.85 1188.65 C 1133.77 1186.73 1149.95 1199.46 1152.29 1217.33 C 1154.63 1235.2 1142.28 1251.67 1124.47 1254.43 C 1112.57 1256.27 1100.61 1251.52 1093.21 1242.02 C 1085.81 1232.53 1084.14 1219.77 1088.84 1208.68 C 1093.55 1197.6 1103.88 1189.93 1115.85 1188.65 z" fill="rgb(0,0,0)" transform="translate(0,0)"></path>
<path d="M 922.166 1189.63 C 939.786 1185.13 957.697 1195.84 962.069 1213.49 C 966.441 1231.14 955.601 1248.98 937.919 1253.23 C 920.414 1257.43 902.796 1246.72 898.468 1229.25 C 894.139 1211.77 904.722 1194.08 922.166 1189.63 z" fill="rgb(0,0,0)" transform="translate(0,0)"></path>
<path d="M 1280.56 1054.94 L 1423.05 1054.94 L 1422.99 1063.29 C 1422.55 1100.36 1412.14 1124.09 1385.63 1149.93 C 1356.99 1175.31 1330.33 1182.78 1293.05 1183.15 C 1301.97 1124.24 1291.69 1106.92 1280.56 1054.94 z" fill="rgb(44,130,137)" transform="translate(0,0)"></path>
<path d="M 633.342 1054.94 C 665.763 1051.37 736.314 1053.9 769.846 1054.94 C 750.845 1105.99 751.586 1125.69 750.987 1176.75 C 751.966 1178.39 753.559 1182.63 750.352 1182.75 C 682.527 1185.15 637.629 1123.02 622.026 1064.49 C 625.648 1058.78 626.979 1057.09 633.342 1054.94 z" fill="rgb(44,130,137)" transform="translate(0,0)"></path>
<path d="M 603.757 695.57 C 619.085 660.148 600.068 580.291 608.742 542.51 C 617.996 505.072 669.488 514.263 670.589 551.153 C 671.113 568.689 670.816 586.484 670.794 604.024 L 670.61 710.391 C 670.576 717.804 669.797 741.835 670.715 747.706 L 669.628 747.33 C 656.164 727.712 626.641 702.122 603.757 695.57 z" fill="rgb(0,0,0)" transform="translate(0,0)"></path>
<path d="M 1377.03 733.003 C 1377.63 719.046 1377.1 701.357 1377.08 687.073 L 1376.98 598.113 C 1376.96 580.128 1376.13 560.731 1378.38 542.892 C 1384.92 509.337 1438.12 514.035 1439 543.055 C 1440.43 590.528 1440.78 644.927 1440 691.94 C 1408.63 696.234 1381.93 731.643 1377.03 733.003 z" fill="rgb(0,0,0)" transform="translate(0,0)"></path>
<metadata><recraft-signature>{"signed_by": "recraft", "signature_b64": "HQgyNSfYQIRzO1i8N4aM/bcjgRvRsetSNyYGmcd7LEILBkOiv+Yf3nd6JfAFqC8IVr8ofe+5HkvBvKOi9g/MDw==", "signing_algo": "Ed25519", "generation_timestamp": 1772997225, "identifier": "e7ffed62-ff2b-4a7f-aba9-f35a4b21ffc0"}</recraft-signature></metadata></svg>