<svg xmlns="http://www.w3.org/2000/svg" height="512" preserveAspectRatio="none" style="display: block;" version="1.1" viewBox="0 0 2048 2048" width="512">
<path d="M 1255.34 214.165 C 1256.03 214.148 1256.71 214.13 1257.39 214.112 L 1568.93 214.084 C 1651.58 213.952 1734.88 235.853 1750.56 333.984 C 1756.23 369.452 1754 412.848 1754 449.504 L 1754.02 643.904 C 1753.96 782.658 1714.06 851.908 1566.25 852.037 L 1496.88 852.002 L 1496.87 1084.34 C 1496.9 1119.46 1495.97 1158.24 1496.88 1193 C 1592.19 1196.37 1674.93 1174.35 1733.67 1276.34 C 1755.89 1314.92 1754.04 1347.91 1754.02 1391.76 L 1754.07 1612.4 C 1754.06 1636.35 1754.49 1660.62 1753.55 1684.53 C 1750.6 1755.91 1693.68 1818.17 1623.64 1829.59 C 1601.41 1833.21 1574.3 1832.01 1551.47 1832 L 1332.66 1832.01 C 1249.52 1832.13 1178.02 1833.32 1130.58 1746.37 C 1109.07 1702.67 1108.06 1626.41 1112.41 1576.13 C 1107.94 1576.32 1103.45 1576.45 1098.98 1576.49 L 574.676 1576.16 C 542.156 1576.16 504.671 1577.78 472.94 1571.32 C 386.36 1553.67 315.923 1484.83 297.484 1398.47 C 290.819 1367.26 292.711 1332.05 292.745 1299.96 L 292.728 699.744 C 292.791 591.062 351.962 497.504 463.82 476.253 C 493.807 470.556 526.352 472.088 556.941 472.105 L 1112.41 472.146 C 1113.65 403.568 1100.37 331.956 1144.01 274.486 C 1170.72 239.315 1211.78 219.413 1255.34 214.165 z M 433.194 750.002 L 611.589 749.956 C 669.141 749.961 753.175 736.935 757.358 822.99 C 761.393 905.982 671.171 894.326 619.363 894.299 L 433.194 894.297 C 431.864 998.278 433.228 1105.6 433.227 1209.91 L 433.153 1303.07 C 433.1 1375.43 436.519 1435.39 525.762 1436.06 L 947.5 1436 L 1112.41 1436 C 1112.45 1360.58 1098.25 1295.73 1158.48 1236.7 C 1201.81 1195.3 1237.42 1192.94 1292.47 1192.95 L 1357.01 1193 L 1357.01 852.002 C 1291.86 856.856 1218.44 856.736 1167.02 813.124 C 1095.6 752.547 1118.04 683.081 1112.41 606.016 L 585.621 606.003 C 565.647 606.001 541.13 605.241 521.584 606.016 C 431.242 614.851 432.871 678.818 433.194 750.002 z M 1382.25 353.631 L 1312.74 353.562 C 1242.45 353.557 1255.3 358.722 1255.33 425.094 L 1255.33 636.765 C 1255.36 729.307 1246.59 713.531 1345.9 713.495 L 1488.75 713.487 C 1524.95 713.45 1561.91 713.015 1598.05 713.487 C 1620.2 700.065 1614.59 683.238 1614.55 660.017 L 1614.76 374.013 C 1614.85 364.006 1608.48 358.698 1600.91 353.631 L 1382.25 353.631 z M 1277.58 1331 C 1242.44 1336.73 1255.33 1394.18 1255.33 1425.72 L 1255.3 1639.67 C 1255.14 1694.48 1253.88 1693.16 1313.71 1693.08 L 1598.05 1693 C 1605.46 1690.53 1610.25 1685.11 1614.54 1678.69 L 1614.56 1403.62 C 1614.55 1386.63 1615.86 1356.08 1611.17 1340.78 C 1596.94 1327.05 1583.12 1330.94 1564.33 1330.94 L 1500.53 1331.01 C 1426.71 1331.07 1351.22 1330.02 1277.58 1331 z" fill="rgb(0,0,0)" transform="translate(0,0)"></path>
<metadata><recraft-signature>{"signed_by": "recraft", "signature_b64": "9QlqqHETAwANTze7X9nTRNYOFHl2djVSkMkQ3e19TjxuZE1nzQEsTLRWZ+ahq0M1/kBJhJatBlC3AFNBxH/vDw==", "signing_algo": "Ed25519", "generation_timestamp": 1773000137, "identifier": "b0ddd3c6-83b3-4548-98c0-1a523c76f509"}</recraft-signature></metadata></svg>