<svg xmlns="http://www.w3.org/2000/svg" height="512" preserveAspectRatio="none" style="display: block;" version="1.1" viewBox="0 0 2048 2048" width="512">
<path d="M 1525.85 425.002 C 1688.1 407.413 1764.73 655.147 1583.5 717.031 C 1713.99 716.587 1750.56 743.564 1750.52 878.331 L 1750.54 1064.23 C 1750.66 1157.02 1738.69 1147.07 1663.06 1151.98 L 1663.17 1560.46 C 1663.09 1632.23 1608.19 1618.23 1554.5 1618 L 1487.55 1618.09 C 1406.6 1618.29 1406.88 1604.55 1406.95 1534.36 L 1407.03 1447.76 C 1407.04 1349.84 1405.76 1249.64 1407.02 1151.98 C 1339.05 1148.67 1323.9 1151.61 1323.96 1076.21 L 1323.99 886.743 C 1323.74 750.473 1351.23 712.875 1492.68 717.031 C 1473.93 709.856 1466.78 710.617 1449.08 697.819 C 1338.82 618.094 1382.55 444.967 1525.85 425.002 z M 1631.5 1066.99 C 1677.56 1067.46 1662.27 1067.18 1662.88 1029.17 C 1663.17 1010.84 1663.05 992.357 1663.06 974.014 L 1662.98 867.39 C 1662.96 848.116 1673.43 804.09 1642.92 801.669 C 1625.04 800.388 1607.08 800.472 1589.16 800.461 L 1461.22 800.405 C 1457.06 800.378 1444.69 799.993 1441.19 800.49 C 1399.05 804.099 1406.97 855.662 1406.97 886.588 L 1407.24 975.918 C 1408.21 1084.06 1383.67 1066.99 1496.14 1067 L 1631.5 1066.99 z" fill="rgb(0,0,0)" transform="translate(0,0)"></path>
<path d="M 500.808 425.002 C 522.425 422.854 555.021 431.115 574.561 440.769 C 693.688 499.633 683.532 675.372 559.504 717.031 C 706.834 716.461 724.828 759.829 724.78 900.112 L 724.893 1076.29 C 724.959 1154.89 702.893 1150.57 638.107 1151.98 C 637.24 1186.43 638.077 1224.82 638.086 1259.5 L 638.054 1466.53 C 638.053 1503.47 639.309 1541.65 638.253 1578.53 C 636.761 1630.67 549.871 1618.1 516.5 1618 C 489.86 1617.94 463.213 1618.26 436.572 1618.11 C 380.14 1617.79 382.377 1577.46 382.403 1532.92 L 382.463 1449.31 C 382.473 1350.69 381.427 1250.39 382.453 1151.98 C 348.831 1151.46 297.038 1157.26 297.286 1105.91 L 297.491 858.954 C 297.576 738.205 354.16 717.961 462.733 717.031 C 312.136 670.957 322.263 450.734 500.808 425.002 z M 607.5 1066.99 C 615.478 1067.1 632.762 1068.25 639.279 1065.07 C 640.63 1062.63 644.969 842.077 639.438 824.074 C 629.065 790.311 577.388 800.437 549.038 800.456 C 505.012 800.487 460.953 800.972 416.933 800.49 C 377.92 803.034 382.352 833.834 382.403 862.484 L 382.441 1003.71 C 382.494 1083.05 371.536 1067.05 455.523 1067.05 L 607.5 1066.99 z" fill="rgb(0,0,0)" transform="translate(0,0)"></path>
<path d="M 1010.88 425.002 C 1163.02 404.004 1256.66 651.461 1075.41 717.031 C 1126.17 717.473 1157.3 709.489 1199.65 748.417 C 1220.8 767.857 1237.16 800.994 1237.37 829.804 L 1237.71 1076.46 C 1237.78 1148.61 1220.89 1152.35 1151.99 1151.98 L 1152.03 1529.88 C 1152.14 1638.05 1124.02 1618.19 1031.75 1618 C 1002.97 1618.03 974.176 1618.13 945.403 1618.12 C 901.095 1618.11 895.15 1591.05 894.929 1556.57 L 895.044 1248.51 C 895.031 1216.46 894.463 1183.93 895.018 1151.98 C 844.455 1152.4 812.18 1150.85 812.485 1090.82 C 812.78 1032.85 812.138 975.443 812.431 917.479 C 812.71 862.324 801.154 792.582 845.597 750.233 C 888.873 708.996 927.308 717.062 980.419 717.031 C 818.862 659.278 847.73 449.652 1010.88 425.002 z M 1124.5 1066.99 C 1164.88 1067.55 1151.93 1063.76 1151.94 1017.73 L 1152.01 871.572 C 1152.25 803.803 1157.4 800.004 1079.52 800.412 L 961.979 800.428 C 952.092 800.4 939.314 799.858 929.73 800.49 C 878.649 804.478 894.998 905.273 894.98 944.788 L 894.983 1008.94 C 895.036 1086.92 893.459 1067.05 982.947 1067.03 L 1124.5 1066.99 z" fill="rgb(0,0,0)" transform="translate(0,0)"></path>
<metadata><recraft-signature>{"signed_by": "recraft", "signature_b64": "DndRUEY9XyZ3MhehqM+9RQimOdvumPLkhGST7WWmjcKXsqworPF8qMG/ExhvG9hx9/jpEM9/wWb5+dLIOqCwDA==", "signing_algo": "Ed25519", "generation_timestamp": 1772996331, "identifier": "a6a7ea26-c409-4b26-bda5-b4f7086af6ac"}</recraft-signature></metadata></svg>