<svg xmlns="http://www.w3.org/2000/svg" height="512" preserveAspectRatio="none" style="display: block;" version="1.1" viewBox="0 0 2048 2048" width="512">
<path d="M 406.355 297.001 L 1600.91 296.941 C 1646.39 296.936 1676.23 297.066 1712.54 330.487 C 1763.08 376.992 1750.99 449.971 1750.99 513.56 L 1751.01 1588.72 C 1751.01 1606.08 1751.17 1624 1750.34 1641.29 C 1747.76 1694.41 1693.03 1747.85 1639.69 1749.81 C 1619.06 1751.01 1584.46 1749.84 1562.7 1749.83 L 470.951 1749.81 C 450.871 1749.83 424.493 1751.31 404.933 1748.74 C 309.143 1736.16 296.134 1658.19 296.23 1581.9 L 296.271 490.501 C 296.273 399.824 290.844 312.344 406.355 297.001 z M 384.298 932.51 L 831.391 932.51 L 1665.11 932.51 L 1665.16 457.892 C 1665.25 387.89 1674.2 381.583 1592.29 381.659 L 1226.12 381.709 L 495.252 381.749 C 468.066 381.745 440.205 381.036 413.074 382.369 C 374.218 384.277 384.228 442.928 384.278 470.214 L 384.298 932.51 z M 518.995 1112.58 C 475.307 1112.68 427.561 1111.6 384.298 1112.58 L 384.244 1573.87 C 384.257 1649.28 374.381 1663.49 460.995 1663.06 L 545.474 1663 L 680.475 1663 L 680.475 1112.58 L 518.995 1112.58 z M 1011 1112.58 L 856.49 1112.58 C 850.607 1293.83 858.699 1480.89 856.49 1663 L 1514.54 1663 L 1595.17 1662.98 C 1645.07 1662.93 1665.99 1666.51 1665.56 1610.95 L 1665.11 1112.58 C 1593.04 1111.57 1518.15 1112.59 1445.81 1112.59 L 1011 1112.58 z" fill="rgb(0,0,0)" transform="translate(0,0)"></path>
<metadata><recraft-signature>{"signed_by": "recraft", "signature_b64": "Bp+FjQEe4bvKuJWsTTiTeZbZug+jhqkuPjJIYN9RxgADJdSoMtg1+x57MluEHd6LKB11wXWvmdGKtp5r9rNiDg==", "signing_algo": "Ed25519", "generation_timestamp": 1772996727, "identifier": "f87ea371-e9a9-410b-8897-1112e87e6f18"}</recraft-signature></metadata></svg>