<svg xmlns="http://www.w3.org/2000/svg" height="512" preserveAspectRatio="none" style="display: block;" version="1.1" viewBox="0 0 2048 2048" width="512">
<path d="M 287.402 477.01 L 1713.52 477.017 C 1725.75 477.019 1750.1 477.932 1760.99 477.01 L 1761 1433.21 C 1760.99 1471.33 1760.08 1513.15 1760.99 1550.96 L 340.924 1550.94 C 323.499 1550.93 304.571 1550.28 287.402 1550.96 C 286.815 1539.55 287.359 1523.14 287.377 1511.44 L 287.402 477.01 z M 749.133 1091.82 L 749.133 1503.93 L 1401.5 1503.93 L 1714.47 1503.93 L 1714.45 1229.55 C 1714.45 1185.38 1713.31 1135.62 1714.47 1091.82 L 1064.18 1091.82 L 749.133 1091.82 z M 334.783 524.003 L 334.783 933 L 589.033 933 L 589.033 524.003 C 505.991 523.987 417.338 522.48 334.783 524.003 z M 1714.47 524.003 C 1683.95 525.408 1642.21 523.994 1610.7 523.993 L 749.133 524.003 C 748.508 560.28 749.144 598.174 749.157 634.616 L 749.147 840.225 C 749.171 870.931 749.684 902.405 749.133 933 L 1686.54 933.098 C 1691.82 933.119 1710.03 933.569 1714.47 933 C 1716.39 797.644 1709.98 658.693 1714.47 524.003 z M 334.783 1503.93 L 581.422 1503.93 C 595.917 1503.15 588.971 1493.1 589.159 1478.47 C 589.594 1444.55 589.014 1410.58 589.007 1376.6 L 589.033 1091.82 L 340.895 1091.82 C 327.003 1093.1 334.769 1192.62 334.768 1210.83 L 334.783 1503.93 z" fill="rgb(0,0,0)" transform="translate(0,0)"></path>
<metadata><recraft-signature>{"signed_by": "recraft", "signature_b64": "qSstEJKf0x6xlZQiigTKrYM1w9yJuh4oMkvd/tU78EdPHnKIRfLZW9cNBsuSgzaaBVqCGEN9glTAuZFU+70HAw==", "signing_algo": "Ed25519", "generation_timestamp": 1772996187, "identifier": "d4c08da6-a337-44d5-9ed0-f63213fd230a"}</recraft-signature></metadata></svg>