<svg xmlns="http://www.w3.org/2000/svg" height="512" preserveAspectRatio="none" style="display: block;" version="1.1" viewBox="0 0 2048 2048" width="512">
<path d="M 426.48 345.995 C 511.475 344.935 599.065 345.992 684.248 345.994 L 1570.07 345.943 C 1647.8 345.934 1722.19 356.599 1747.03 448.387 C 1756.14 482.059 1753.02 528.603 1752.98 564.472 L 1753.02 1506.58 C 1753.01 1610.9 1736.74 1668.25 1625.14 1698.98 C 1608.75 1700.17 1575.21 1699.02 1557.3 1699.01 L 497.698 1699.02 C 474.531 1699.03 448.331 1699.91 425.487 1697.55 C 362.649 1690.75 306.506 1636.85 298.636 1573.9 C 296.112 1553.71 296.984 1531.46 296.993 1511.06 L 297.014 543.539 C 297.018 524.175 297.005 504.497 297.213 485.46 C 298.033 410.311 354.804 355.059 426.48 345.995 z M 446.998 498.485 C 445.466 531.061 447.001 576.812 446.999 610.65 L 446.998 1537.51 L 1600.63 1537.51 L 1600.67 1419.99 C 1600.68 1401.63 1601.34 1378.99 1600.63 1360.99 L 1175.5 1360.99 L 641.577 1360.99 L 641.577 1200 L 1496.12 1200 C 1528.94 1200.01 1568.42 1201.11 1600.63 1200 L 1600.64 733.453 C 1600.65 655.898 1601.66 575.862 1600.63 498.485 L 800.986 498.485 L 564.931 498.511 C 527.565 498.515 483.879 499.6 446.998 498.485 z" fill="rgb(0,0,0)" transform="translate(0,0)"></path>
<metadata><recraft-signature>{"signed_by": "recraft", "signature_b64": "JpvdtYS3GPAY56OQWoOmnY5yAuXREE1rmdt2g23ZnyrUzUsVTfTvMPr4XE9Jtm7377Qpo0lhDgGjboNmaA4tBA==", "signing_algo": "Ed25519", "generation_timestamp": 1773000009, "identifier": "2d7f77a6-6368-497d-9104-c03434225a7e"}</recraft-signature></metadata></svg>