<svg xmlns="http://www.w3.org/2000/svg" height="512" preserveAspectRatio="none" style="display: block;" version="1.1" viewBox="0 0 2048 2048" width="512">
<path d="M 1484.28 266.36 C 1511.61 263.123 1531.59 281.896 1544.28 303.439 L 1729.58 621.105 C 1744.51 645.816 1763.39 672.984 1775.94 698.471 C 1817.36 788.188 1812.3 848.31 1809.69 944.99 L 1807.23 1083 C 1805.94 1145.42 1808.49 1208.24 1805.13 1270.59 C 1802.91 1311.98 1763.65 1304.18 1733.33 1304.01 L 1657.1 1303.98 C 1641.37 1304.01 1623.35 1303.26 1608.22 1304.05 C 1470.83 1311.22 1358.97 1217.98 1244.62 1155.72 C 1123.13 1089.57 1134.38 1084.12 988.495 1080.4 C 955.266 1079.43 938.648 1039.03 960.76 1014.4 C 975.563 997.176 1000.82 1001.28 1021.01 1000.94 C 1106.83 999.467 1190.74 1022.3 1262.37 1070.11 C 1281.05 1082.59 1294.29 1090.73 1310.6 1070.72 C 1316.22 1046.65 1298.55 1040.63 1279.78 1032.35 C 1229.6 1010.38 1179.93 975.583 1125.81 965.135 C 1060.29 952.58 992.613 961.231 926.673 956.811 C 882.003 952.584 878.997 884.443 921.804 877.965 C 946.784 874.185 982.776 876.489 1008.25 876.558 C 1085.48 876.299 1153.77 879.126 1225.73 912.366 C 1251.74 924.439 1274.76 941.121 1301.31 952.199 C 1315.42 960.767 1361.64 931.739 1295.44 901.569 C 1263.37 886.641 1231.77 870.592 1199.4 856.326 C 1113.57 818.499 1016.74 832.752 925.619 829.958 C 826.456 826.918 855.58 750.377 895.828 747.703 C 903.503 747.189 911.039 747.789 918.681 747.86 L 964.681 747.955 C 1090.25 747.711 1182.24 744.907 1297.48 812.555 C 1309.53 819.629 1332.27 831.502 1345.75 835.908 C 1357.81 832.515 1369.21 823.734 1367.25 810.03 C 1364.85 793.321 1332.44 783.492 1319.35 776.786 C 1186.99 708.878 1130.17 715.76 993.89 710.511 C 963.861 709.354 950.586 666.642 970.987 643.635 C 989.058 623.256 1018.59 632.217 1043.07 630.164 C 1201.62 628.591 1247.25 657.04 1384.82 716.906 C 1420.44 732.406 1446.92 748.249 1487.36 742.552 C 1542.53 734.781 1608.43 676.179 1576.61 618.761 C 1556.53 582.764 1426.37 365.365 1423.67 336.974 C 1420.28 297.436 1446.3 270.608 1484.28 266.36 z" fill="rgb(0,0,0)" transform="translate(0,0)"></path>
<path d="M 650.783 950.807 C 677.492 934.551 661.379 919.372 648.759 900.456 L 611.454 845.508 C 568.153 781.384 525.414 716.597 480.468 653.64 C 423.424 577.887 514.661 532.698 549.437 574.216 C 564.864 592.635 580.141 617.885 594.036 638.078 L 726.084 831.935 C 735.653 846.267 735.565 851.158 752.491 856.587 C 766.466 853.549 769.724 852.069 775.484 838.139 C 776.407 822.878 670.2 682.267 653.706 658.582 C 594.268 573.227 691.497 543.354 716.393 575.442 C 746.338 614.037 778.796 661.981 806.864 702.08 C 772.429 739.612 761.777 787.895 778.948 835.908 C 784.828 847.53 805.729 876.601 806.661 883.394 C 800.657 892.218 742.659 897.797 723.946 952.164 C 703.899 1010.4 689.722 1071.43 674.312 1131.14 C 658.436 1188.84 686.713 1253.7 743.663 1275.6 C 774.989 1287.18 845.999 1313.39 877.879 1318.6 C 971.883 1333.94 1020.39 1249.22 994.565 1163.03 L 1088.65 1163.03 C 1105.47 1172.34 1121.75 1180.47 1138.39 1189.45 C 1140.59 1228.75 1146.3 1268.88 1136.97 1307.8 C 1127.98 1345.26 1121.59 1377.46 1144.72 1413.32 L 1224.22 1538.91 C 1257.5 1592.2 1268.9 1591.12 1213.41 1631.68 L 1023.57 1771.74 C 998.395 1789.94 982.916 1769.96 968.842 1748.71 L 886.084 1621.11 C 852.077 1567.71 825.535 1519.05 759.222 1500.01 C 673.828 1475.5 649.981 1441.92 606.533 1371.55 C 575 1324.44 545.364 1274.77 514.369 1227.53 L 272.498 860.07 C 249.948 826.547 212.102 785.293 247.95 745.74 C 303.733 684.191 364.482 810.144 388.88 847.099 L 490.733 998.563 C 503.899 1018.41 553.018 1114.31 573.505 1048.88 L 572.908 1047.59 C 568.711 1038.76 557.269 1022.68 551.321 1013.73 L 323.182 672.626 C 316.19 662.016 304.508 646.343 300.499 635.501 C 284.525 592.295 325.57 550.916 368.764 570.672 C 391.63 581.131 428.454 646.674 443.532 669.057 L 587.13 884.29 C 603.305 908.177 621.321 953.552 650.783 950.807 z" fill="rgb(0,0,0)" transform="translate(0,0)"></path>
<path d="M 806.864 955.672 L 808.318 956.37 C 813.142 987.261 839.145 1008.99 865.934 1021.52 L 865.628 1022.66 C 855.713 1058.11 869.64 1099.38 894.583 1125.34 C 897.021 1127.88 911.971 1139.83 912.231 1140.42 C 924.281 1167.92 953.05 1227.22 918.698 1247.98 C 903.649 1257.08 891.076 1255.45 875.041 1251.69 L 870.577 1250.3 C 841.575 1241.16 813.066 1230.56 783.473 1221.61 C 728.149 1204.87 728.014 1174.31 741.209 1128.92 C 755.468 1079.87 768.796 1030.55 782.584 981.374 C 787.107 965.296 792.63 962.821 806.864 955.672 z" fill="rgb(0,0,0)" transform="translate(0,0)"></path>
<metadata><recraft-signature>{"signed_by": "recraft", "signature_b64": "lgCIAq5fY/i8jpJ4dC2X3gH8IXSFLO0GZAGtKEm+bsm/ZGBdodXm7thMtG2kWCc3pWgjqGlsF2MXtOEKn5rCCA==", "signing_algo": "Ed25519", "generation_timestamp": 1772998760, "identifier": "78fc2608-7616-490c-85a4-daf81bc83edf"}</recraft-signature></metadata></svg>