<svg xmlns="http://www.w3.org/2000/svg" height="512" preserveAspectRatio="none" style="display: block;" version="1.1" viewBox="0 0 2048 2048" width="512">
<path d="M 552.58 218.416 C 588.529 213.179 616.151 244.046 638.132 267.015 C 669.276 299.559 702.785 330.312 734.395 362.397 C 888.342 271.741 1071.22 254.16 1238.27 323.659 C 1263.59 334.192 1290.78 349.171 1315.12 362.397 C 1349.26 335.026 1396.92 281.518 1428.34 249.308 C 1506.49 171.875 1613.04 257.418 1567.97 339.045 C 1549.87 370.369 1470.48 442.502 1442.74 469.227 C 1493.47 524.935 1533.26 589.911 1558.42 660.953 C 1576.19 711.124 1561.35 694.971 1597.31 730.522 C 1649.93 782.548 1671.63 839.765 1671.71 912.788 L 1671.81 1256.28 C 1671.81 1287.99 1673.09 1317.6 1666.31 1349.65 C 1649.36 1435.34 1578.35 1512.89 1493.16 1534.32 C 1460.35 1542.57 1397.67 1538.89 1362 1539.34 L 1362 1686.57 C 1362.01 1705.66 1363.25 1740.37 1362 1757.78 C 1332.54 1853.45 1218.23 1843.7 1199.36 1766.95 C 1194.76 1748.28 1196.97 1706.42 1196.97 1686.04 L 1197.02 1539.34 C 1132.55 1538.08 1063.43 1539.35 998.682 1539.35 L 901.928 1539.32 C 885.164 1539.31 867.976 1538.74 851.309 1539.34 C 851.275 1605.84 850.601 1672.56 852.062 1739.1 C 854.45 1847.81 703.347 1852.41 686.529 1764.46 C 682.005 1740.81 684.049 1706.26 684.049 1681.42 L 684.042 1539.34 C 653.464 1538.51 622.888 1541.12 592.309 1538 C 491.502 1527.7 404.359 1451.34 381.726 1352.42 C 375.179 1323.81 376.49 1295.06 376.492 1265.96 L 376.279 912.561 C 376.083 817.57 411.673 771.76 473.039 710.077 C 480.5 695.331 486.035 669.361 492.259 652.053 C 511.737 597.894 560.528 507.113 603.869 469.227 C 570.608 425.009 478.586 362.608 473.187 311.488 C 467.721 259.734 501.841 222.673 552.58 218.416 z M 1438.25 1373 C 1510.05 1365.8 1501.14 1294.99 1501.11 1244.64 L 1501.14 966.357 C 1501.18 943.071 1502.19 915.042 1500.73 892.543 C 1496.7 830.654 1430.36 828.664 1385.62 828.781 L 661.112 828.78 C 646.234 828.755 626.04 827.954 611.817 828.84 C 531.034 843.677 545.619 912.75 545.629 974.584 L 545.64 1256.49 C 545.64 1295.16 538.005 1341.13 577.953 1363.25 C 607.276 1379.49 662.785 1372.97 696.976 1372.97 L 1438.25 1373 z M 1052.5 669.368 L 1381.93 669.368 C 1316.89 529.327 1153.81 433.624 1000.17 443.996 C 878.54 460.959 789.25 500.984 711.063 602.475 C 696.885 620.879 679.826 647.647 672.534 669.368 L 1052.5 669.368 z" fill="rgb(0,0,0)" transform="translate(0,0)"></path>
<metadata><recraft-signature>{"signed_by": "recraft", "signature_b64": "ZFJPpIvw+90hgAhLKEmMEYAxlr8SCjVuCywqGX8ONQkVEXmWJlWYVTjIkarbxTUqqWh/XNCK/+aIR9BIRkoVDA==", "signing_algo": "Ed25519", "generation_timestamp": 1772999276, "identifier": "4d31006f-9dfe-4a4a-a540-8ecf5459b033"}</recraft-signature></metadata></svg>