<svg xmlns="http://www.w3.org/2000/svg" height="512" preserveAspectRatio="none" style="display: block;" version="1.1" viewBox="0 0 2048 2048" width="512">
<path d="M 542.867 298.908 C 560.085 298.257 581.617 298.878 599.258 298.89 L 1445.02 298.889 C 1463.26 298.822 1482.13 298.199 1500.29 298.921 C 1618.93 303.775 1722.6 392.465 1745.37 509.405 C 1752.03 543.642 1750.05 576.508 1750.02 611.105 L 1749.98 895.309 C 1750.01 945.299 1760.48 1002.62 1720.84 1039.4 C 1689.14 1068.79 1659.5 1064.99 1619.04 1065.02 L 1411.85 1065.06 C 1365.44 1065.05 1320.86 1072.78 1287.16 1034.23 C 1242.82 983.533 1270.52 900.493 1338.23 890.239 C 1355.55 887.616 1373.35 888.452 1390.84 888.472 L 1468.57 888.545 C 1503.28 888.534 1545.28 885.687 1579.01 888.512 L 1579.01 708.5 L 1579.07 601.571 C 1579.07 583.629 1579.8 563.179 1578.19 545.523 C 1571.01 466.854 1489.93 470.964 1434.71 470.985 L 602.162 470.967 C 464.237 471.011 469.495 540.001 469.501 646.259 L 469.52 945.576 C 469.541 961.025 470.14 976.768 468.177 992.007 C 455.634 1089.34 309.665 1088.01 298.368 993.409 C 296.218 975.413 297.869 953.325 297.896 934.704 L 297.876 638.25 C 297.892 598.091 294.873 549.61 302.886 511.003 C 328.298 388.584 423.161 313.116 542.867 298.908 z" fill="rgb(0,0,0)" transform="translate(0,0)"></path>
<path d="M 995.41 1195 C 1254.31 1183.81 1485.42 1358.15 1542.84 1611.99 C 1546.07 1630.13 1550.53 1648.01 1547.7 1666.53 C 1534.5 1753.02 1421.64 1766.76 1385.61 1687.91 C 1380.21 1674.97 1377.67 1660.46 1374.26 1646.97 C 1333.71 1486.64 1209.9 1395.38 1052.25 1374.52 C 904.184 1373.62 778.223 1437.84 706.245 1572.34 C 684.442 1611 672.512 1687.53 654.216 1710.17 C 598.65 1778.92 482.029 1741.45 504.054 1618.06 C 547.393 1374.75 758.67 1219.11 995.41 1195 z" fill="rgb(0,0,0)" transform="translate(0,0)"></path>
<path d="M 658.428 640.106 L 714.946 639.997 C 799.529 639.993 806.568 657.242 808.897 739.209 C 810.262 787.254 812.09 840.822 750.526 850.012 C 651.241 850.813 597.757 868.65 598.783 741.104 C 599.188 690.802 599.295 646.598 658.428 640.106 z" fill="rgb(254,184,61)" transform="translate(0,0)"></path>
<metadata><recraft-signature>{"signed_by": "recraft", "signature_b64": "BRxVvdK1aoBD1xbM9XafSRHEoxlJSvl+IAdluu4cyhWVyR13d+RuLsFPBYBHsZC8VgKi4fHUvZC23XjUDJsVBw==", "signing_algo": "Ed25519", "generation_timestamp": 1772989493, "identifier": "a82995e2-ca69-4fc5-b68c-05fd918b40bd"}</recraft-signature></metadata></svg>