<svg xmlns="http://www.w3.org/2000/svg" height="512" preserveAspectRatio="none" style="display: block;" version="1.1" viewBox="0 0 2048 2048" width="512">
<path d="M 1106.35 301.573 L 1438.18 301.521 C 1529.42 301.5 1600.01 307.884 1669.9 378.4 C 1724.54 433.519 1745.04 490.106 1745.19 566.334 L 1745.19 1399.99 C 1745.19 1444.74 1747.95 1492.39 1739.44 1536.17 C 1720.2 1635.15 1639.44 1718.18 1541.06 1740.29 C 1504.98 1748.39 1468.37 1746.92 1431.53 1746.9 L 943.5 1746.87 L 602.291 1746.89 C 569.381 1746.9 535.535 1747.83 503.293 1740.06 C 391.741 1713.18 303.56 1607.67 303 1492.01 L 302.999 642.404 C 302.995 601.815 300.858 551.484 307.989 512.53 C 326.319 412.407 405.832 329.674 504.853 307.375 C 538.225 299.86 575.489 301.529 609.79 301.543 L 1106.35 301.573 z M 771.5 1579.13 L 1423.3 1579.11 C 1448.47 1579.14 1476.75 1580.38 1501.64 1577.75 C 1565.51 1571.02 1582.64 1509.41 1582.41 1455.99 L 1582.26 575.055 C 1581.42 464.536 1511.15 465.819 1423.02 465.896 L 1275.59 465.882 L 620.142 465.857 C 556.546 465.848 477.993 459.378 467.957 546.949 C 464.194 579.777 465.966 619.369 465.988 653.489 L 465.994 1475.16 C 465.75 1580.45 546.469 1579.18 621.524 1579.13 L 771.5 1579.13 z" fill="rgb(34,33,33)" transform="translate(0,0)"></path>
<path d="M 997.491 1108.01 C 1185.55 1102.56 1341.38 1197.15 1437.27 1357.9 C 1497.27 1458.5 1366.59 1545.82 1299.71 1453.84 C 1291.55 1441.25 1286.13 1427.1 1278.52 1414.16 C 1236.39 1342.9 1158.61 1293.71 1078.41 1278.23 C 1069.63 1276.53 1060.56 1275.36 1052.01 1272.98 C 941.739 1272.38 853.22 1302.07 783.396 1395.04 C 767.805 1415.77 758.879 1441.54 743.14 1461.97 C 689.901 1531.06 502.928 1480.35 661.866 1282.38 C 747.178 1176.11 864.475 1120.54 997.491 1108.01 z" fill="rgb(34,33,33)" transform="translate(0,0)"></path>
<path d="M 1011.53 555.404 C 1127.85 548.468 1227.83 637.026 1234.98 753.336 C 1242.12 869.645 1153.75 969.78 1037.45 977.141 C 920.856 984.522 820.405 895.867 813.237 779.257 C 806.07 662.646 894.908 562.357 1011.53 555.404 z M 1034.55 826.139 C 1068.75 821.556 1092.78 790.164 1088.28 755.959 C 1083.79 721.755 1052.46 697.64 1018.24 702.049 C 983.902 706.473 959.681 737.942 964.193 772.27 C 968.706 806.599 1000.24 830.739 1034.55 826.139 z" fill="rgb(34,33,33)" transform="translate(0,0)"></path>
<metadata><recraft-signature>{"signed_by": "recraft", "signature_b64": "6wxzeJgDGeV/eaXNyEjqCoaRQ/1CYmi5UDpJ8WXZZJBFtxMNPOHyvRnPV2MaY7o73CkldBlyM66kSE/tanFKDA==", "signing_algo": "Ed25519", "generation_timestamp": 1772990369, "identifier": "ca31245e-0e60-45ac-b83f-5ae723319dc1"}</recraft-signature></metadata></svg>