<svg xmlns="http://www.w3.org/2000/svg" height="512" preserveAspectRatio="none" style="display: block;" version="1.1" viewBox="0 0 2048 2048" width="512">
<path d="M 454.876 511.207 L 1568.21 511.173 C 1584.34 511.119 1602.32 510.358 1617.99 512.605 C 1689.3 522.828 1725.72 581.117 1725.7 648.141 L 1725.8 1105.16 C 1725.93 1195.78 1725.07 1214.13 1630.12 1214 L 1210.5 1213.93 L 446.227 1213.93 C 447.163 1235.09 446.263 1262.92 446.264 1284.67 L 446.242 1507.14 C 446.24 1532.81 449.748 1557.05 432.646 1578.35 C 398.269 1621.15 324.46 1600.52 321.717 1544.06 C 320.642 1521.93 321.049 1499.85 321.045 1477.7 L 321.002 665.646 C 321 654.057 320.691 641.974 321.157 630.602 C 324.309 553.635 385.187 515.652 454.876 511.207 z M 446.227 640.991 C 447.458 688.045 446.226 741.121 446.223 788.688 L 446.227 1086.54 L 589.5 1086.54 L 1593.26 1086.42 C 1606.73 1086.34 1601.06 1047.27 1601.06 1034.55 L 1601.02 657.962 C 1600.96 641.951 1598.01 640.255 1582.26 640.521 C 1541.15 641.217 1499.91 641.023 1458.79 640.991 L 689.259 640.979 C 608.961 640.978 526.379 642 446.227 640.991 z" fill="rgb(0,0,0)" transform="translate(0,0)"></path>
<metadata><recraft-signature>{"signed_by": "recraft", "signature_b64": "pcko9cDJCps7N48sb6B8E1JRzWKW/R3Erb3yACfTv1w0yAfzjgDtsTKApo0peoA0xgH9ytOBa1jN/8M7592/Bw==", "signing_algo": "Ed25519", "generation_timestamp": 1772998616, "identifier": "9746acdb-4bc5-414d-8653-3b22b7073b3d"}</recraft-signature></metadata></svg>