<svg xmlns="http://www.w3.org/2000/svg" height="512" preserveAspectRatio="none" style="display: block;" version="1.1" viewBox="0 0 2048 2048" width="512">
<path d="M 804.286 1023.91 L 1141.06 1023.87 C 1380.37 1023.93 1593.51 1192.06 1617.13 1435.47 C 1619.91 1464.16 1619.01 1496.7 1619.01 1525.82 L 1619.1 1647.61 C 1618.91 1729.44 1567.43 1748.49 1496.1 1748.35 L 1161.25 1748.27 C 1109.31 1749.53 1054.82 1748.29 1002.68 1748.28 L 517.473 1748.29 C 455.776 1748.29 382.673 1762.13 352.311 1694.55 C 342.374 1672.43 344.878 1647.08 344.915 1623.38 L 345.001 1544.93 C 344.972 1509.37 343.619 1470 346.01 1435.01 C 359.957 1230.96 535.892 1063.98 732.727 1030.78 C 758.168 1026.49 778.906 1025.88 804.286 1023.91 z M 512.014 1581 C 535.781 1581.55 561.047 1581.01 584.965 1581.01 L 1161.25 1581 L 1449.53 1581 C 1449.55 1535.87 1452.19 1480.84 1446.09 1437.08 C 1430.53 1325.51 1336.83 1231.74 1229.47 1204.16 C 1187.01 1192.91 1149.48 1194 1106.21 1194.01 L 803.071 1193.95 C 802.214 1193.98 801.357 1194 800.499 1194.03 C 704.714 1203.53 636.755 1230.39 572.886 1309.08 C 501.62 1396.88 511.969 1477.17 512.014 1581 z" fill="rgb(0,0,0)" transform="translate(0,0)"></path>
<path d="M 973.319 297.815 L 974.991 297.81 C 1071.63 297.766 1159.43 331.514 1228.45 400.018 C 1438.65 608.668 1264.34 936.462 984.75 935.019 C 933.359 939.126 865.008 919.983 820.111 896.523 C 541.046 748.424 598.186 369.326 909.529 305.866 C 930.936 301.503 951.531 299.812 973.319 297.815 z M 988.751 763.986 C 1213.69 747.168 1213.03 476.229 973.319 469.929 L 972.31 470.166 C 960.94 472.752 949.011 473.429 937.738 476.128 C 738.325 523.883 787.698 768.687 988.751 763.986 z" fill="rgb(0,0,0)" transform="translate(0,0)"></path>
<path d="M 1591.45 297.815 L 1626.31 297.336 C 1697.33 296.86 1707.77 358.145 1707.65 411.672 L 1707.54 769.422 C 1667.33 770.014 1575.54 774.28 1538.03 769.078 C 1536.21 766.665 1536.62 762.507 1536.56 759.241 L 1536.56 469.929 C 1494.11 468.52 1450.49 468.887 1408.02 469.929 L 1407.94 363.61 C 1407.76 343.679 1406.4 316.944 1408.02 297.815 L 1591.45 297.815 z" fill="rgb(0,0,0)" transform="translate(0,0)"></path>
<metadata><recraft-signature>{"signed_by": "recraft", "signature_b64": "TCaMVidf81QULh0xqKWZ1hrqa9/wsi5q2cl3YbDfVymZXV2JAyivMbpqeQ+rkOukT+/wITWZsttB7g+AZaFjAA==", "signing_algo": "Ed25519", "generation_timestamp": 1772995567, "identifier": "b6d2a69b-3221-4b88-ab2c-6e6041146986"}</recraft-signature></metadata></svg>