<svg xmlns="http://www.w3.org/2000/svg" height="512" preserveAspectRatio="none" style="display: block;" version="1.1" viewBox="0 0 2048 2048" width="512">
<path d="M 578.001 289.512 L 1538.06 289.41 C 1578.98 289.36 1629.53 295.026 1629.18 351.137 L 1629.02 878.892 C 1629.03 898.375 1629.6 918.579 1629 937.849 C 1623.7 988.566 1551.49 1004.44 1518.23 970.895 C 1495.68 948.153 1501.09 913.012 1501.09 883.252 L 1501.07 415.937 L 417.997 415.937 L 417.997 697.5 L 417.997 1501.06 L 865.448 1500.99 C 884.588 1500.97 903.637 1500.7 922.813 1501.3 C 1004.84 1503.38 1004.52 1630.22 917.886 1629.91 L 386.526 1629.9 C 305.09 1629.94 289.821 1615.62 289.946 1534.23 L 290.197 388.119 C 289.44 280.427 321.421 289.494 418.741 289.48 L 578.001 289.512 z" fill="rgb(0,0,0)" transform="translate(0,0)"></path>
<path d="M 1535.38 1150.51 L 1647.51 1150.48 C 1694.7 1150.39 1756.95 1147.27 1757.2 1217.32 L 1757.39 1645.51 C 1757.41 1661.11 1759.74 1695.56 1755.79 1709.19 C 1737.47 1772.38 1652.69 1772.81 1631.55 1710.97 C 1626.77 1696.99 1628.93 1663 1628.93 1647.86 L 1629.02 1570.49 C 1605.34 1569.3 1569.45 1570.47 1544.99 1570.47 L 1373.75 1570.49 L 1278.95 1570.49 L 1278.98 1650.47 C 1279.03 1666.67 1280.6 1693 1276.91 1708.16 C 1258.69 1783.11 1150.6 1768.15 1150.88 1691.06 C 1151.05 1645 1141.03 1499.86 1164.24 1465.17 L 1332.28 1211.3 C 1374.94 1147.16 1369.57 1150.47 1447.54 1150.47 L 1535.38 1150.51 z M 1335.61 1441 L 1524.5 1441 L 1629.02 1441 L 1629.07 1333.25 C 1629.08 1317.11 1629.81 1295.37 1629.02 1279.79 L 1442.39 1279.79 C 1409.36 1328.5 1363.56 1390.31 1335.61 1441 z" fill="rgb(0,0,0)" transform="translate(0,0)"></path>
<metadata><recraft-signature>{"signed_by": "recraft", "signature_b64": "5xFIncy72aq/vt3saven15VVQ/l6C2/Op3rnfm6ajN5XovVASkXs3GnERYro/4zexNdir1O/tayXGpiI97lsBA==", "signing_algo": "Ed25519", "generation_timestamp": 1772998497, "identifier": "a75ec23a-9c10-4d72-a20c-edd0344c43e1"}</recraft-signature></metadata></svg>