<svg xmlns="http://www.w3.org/2000/svg" height="512" preserveAspectRatio="none" style="display: block;" version="1.1" viewBox="0 0 2048 2048" width="512">
<path d="M 473.638 292.367 C 486.778 290.58 513.396 292.308 527.816 292.343 L 721.279 291.915 C 781.231 301.821 791.045 381.46 733.538 403.615 C 716.006 410.369 704.284 407.088 686.798 406.947 L 563.555 406.977 C 521.829 406.961 464.512 398.365 432.767 428.123 C 403.493 455.565 409.895 497.547 409.899 534.792 L 409.962 646.5 L 410.035 731.866 C 410.042 747.684 411.539 774.921 407.235 789.403 C 391.182 843.419 305.594 839.174 296.346 781.903 C 294.336 769.339 294.947 755.981 294.954 743.259 L 294.957 482.475 C 295.168 383.311 372.691 291.752 473.638 292.367 z" fill="rgb(0,0,0)" transform="translate(0,0)"></path>
<path d="M 1691.83 1210.37 C 1749.48 1203.93 1754.29 1256.45 1754.14 1296.39 L 1754.61 1565.22 C 1754.77 1653.56 1691.62 1728.87 1606.97 1748.31 C 1552.78 1760.76 1395.02 1752.64 1334.75 1752.65 C 1264.85 1757.43 1245.79 1661.05 1313.53 1641.28 C 1327.52 1637.2 1356.56 1638.99 1372.03 1639.01 L 1508.86 1639.04 C 1557.13 1639.04 1621.75 1646.52 1637.53 1583.08 C 1641.88 1565.61 1640.61 1530.49 1640.59 1510.82 L 1640.71 1339.97 C 1640.83 1291.54 1627.48 1220.67 1691.83 1210.37 z" fill="rgb(0,0,0)" transform="translate(0,0)"></path>
<path d="M 344.82 1210.37 C 426.882 1198.71 410.003 1310.6 409.992 1358.87 L 410.002 1517.98 C 409.814 1643.49 439.382 1639.08 564.386 1639.04 L 679.36 1638.96 C 699.018 1638.91 728.999 1635.79 745.601 1646.38 C 795.899 1678.47 777.972 1737.62 725.635 1752.65 C 714.68 1753.46 695.96 1752.75 684.249 1752.73 L 526.425 1752.66 C 466.219 1752.81 423.437 1751.6 372.372 1713.58 C 300.426 1660.02 294.704 1601.82 294.971 1522.23 L 294.982 1312.41 C 294.984 1269.03 289.334 1218.39 344.82 1210.37 z" fill="rgb(0,0,0)" transform="translate(0,0)"></path>
<path d="M 1339.17 292.367 L 1565.01 292.355 C 1617.39 292.625 1663.72 312.38 1700.86 349.284 C 1763.53 411.549 1753.81 481.91 1754.09 561.764 L 1754.89 759.02 C 1754.72 796.924 1728.93 819.559 1691.83 818.983 C 1644.92 812.12 1638.44 779.973 1638.59 737.824 L 1638.63 555.541 C 1638.67 498.557 1651.38 429.978 1581.43 409.229 C 1568.44 405.376 1542.06 407.002 1527 407.021 L 1390.08 407.074 C 1368.96 407.073 1338.12 408.816 1317.98 405.385 C 1255.12 392.958 1250.89 294.362 1339.17 292.367 z" fill="rgb(0,0,0)" transform="translate(0,0)"></path>
<path d="M 1158.49 1308.5 C 1201.02 1308.27 1249.27 1307.54 1291.45 1308.5 C 1270.89 1365.76 1249.91 1399.65 1202.72 1439.74 C 1048.16 1564.28 806.78 1492.86 753.637 1308.5 L 861.751 1308.5 L 886.905 1308.5 C 938.821 1414.06 1106.73 1415.9 1158.49 1308.5 z" fill="rgb(0,0,0)" transform="translate(0,0)"></path>
<path d="M 667.716 800.013 L 779.006 800.013 C 780.728 833.691 780.776 885.15 778.734 918.526 C 776.744 919.934 775.362 919.26 772.25 919.127 L 659.043 919.127 L 658.96 847.112 C 658.956 829.382 651.91 802.016 667.716 800.013 z" fill="rgb(0,0,0)" transform="translate(0,0)"></path>
<path d="M 1268.61 800.013 L 1386 800.013 L 1386 919.127 L 1268.61 919.127 L 1268.61 800.013 z" fill="rgb(0,0,0)" transform="translate(0,0)"></path>
<metadata><recraft-signature>{"signed_by": "recraft", "signature_b64": "SFW8HfOMo0iB7u7TbC2d70mk/ENu42WFksinVhIMv4Jwy0XEpPa0wdS5uaLMWXqZD2cCJctXGHulA5tlVCeWBQ==", "signing_algo": "Ed25519", "generation_timestamp": 1773000054, "identifier": "d6190617-2eec-4dce-b26d-16fe1ed9a506"}</recraft-signature></metadata></svg>