<svg xmlns="http://www.w3.org/2000/svg" height="512" preserveAspectRatio="none" style="display: block;" version="1.1" viewBox="0 0 2048 2048" width="512">
<path d="M 295.789 301.604 L 1782.16 301.265 C 1855.38 301.024 1865.62 356.139 1865.64 415.246 L 1865.76 1646.9 C 1869.89 1713.02 1806.51 1726.14 1756.22 1725.01 L 299.865 1725.08 C 233.027 1725.27 181.152 1720.09 181.066 1638.4 L 180.99 422.25 C 180.993 322.872 201.451 301.343 295.789 301.604 z M 303.49 1603.48 L 1744.71 1603.48 L 1745.95 1602.67 L 1745.75 1600.67 C 1743.17 1573.73 1744.68 1521.85 1744.7 1493 L 1744.72 520.012 C 1744.74 490.728 1745.85 453.081 1744.71 424.397 L 358.895 424.32 C 341.823 424.295 320.335 423.701 303.49 424.397 C 302.721 447.763 303.476 474.662 303.483 498.362 L 303.451 1548.36 C 303.438 1564.44 302.612 1588.17 303.49 1603.48 z" fill="rgb(50,60,68)" transform="translate(0,0)"></path>
<path d="M 1010.59 861.334 C 1060.21 860.277 1154.99 856.457 1197.45 873.058 C 1288.25 908.559 1296.67 1060.17 1165.25 1087.05 C 1156.48 1086.47 1142.17 1086.93 1132.96 1086.95 L 1072.47 1087.05 C 1072.55 1109.45 1073.29 1133.05 1071.49 1155.32 C 1069.62 1178.46 1003.23 1169.93 999.37 1163.2 C 993.229 1150.42 996.84 909.184 997.056 875.729 C 997.114 866.689 1003.06 863.757 1010.59 861.334 z M 1072.47 1022.98 C 1105.05 1023.04 1148.79 1027.75 1175.55 1010.06 C 1201.06 984.847 1192.92 940.866 1157.08 931.466 C 1131.07 924.646 1099.64 927.079 1072.47 927.018 L 1072.47 1022.98 z" fill="rgb(50,60,68)" transform="translate(0,0)"></path>
<path d="M 748.203 861.334 C 829.47 861.33 826.384 841.794 851.558 912.723 L 913.047 1089.93 C 917.201 1101.68 947.327 1166.09 922.437 1168.23 C 859.611 1173.64 863.771 1171.93 848.051 1121.94 C 841.097 1122.34 833.546 1122.06 826.533 1121.94 L 723.337 1121.94 C 718.888 1133.69 712.016 1165.98 701.717 1167.4 C 655.929 1173.73 631.441 1176.1 647.863 1128.65 L 736.998 868.93 C 738.432 864.681 744.258 862.672 748.203 861.334 z M 744.042 1063.49 L 790.297 1063.49 C 804.129 1064.01 817.488 1063.44 831.252 1063.49 C 820.5 1029.73 802.246 965.547 787.196 935.688 C 773.292 969.141 752.171 1030.85 744.042 1063.49 z" fill="rgb(50,60,68)" transform="translate(0,0)"></path>
<path d="M 1337.86 861.334 C 1353.18 861.725 1390.94 858.355 1401.55 866.388 C 1409.25 889.758 1404.34 1161.01 1403.53 1162.73 C 1401.77 1166.44 1399.31 1167.67 1395.76 1169.23 C 1378.59 1171.24 1327.46 1177.75 1327.71 1152.95 L 1327.74 885.887 C 1327.64 874.594 1326.79 867.162 1337.86 861.334 z" fill="rgb(50,60,68)" transform="translate(0,0)"></path>
<metadata><recraft-signature>{"signed_by": "recraft", "signature_b64": "H1QLfu+s/O1HS16+F1+2GetI8XOgQP1UNhR9WhvQRmWKmcYL4XJQ4NCOdT/yb0y7JhWmva/tQlSQfEKC7rlCAA==", "signing_algo": "Ed25519", "generation_timestamp": 1773000126, "identifier": "de8d5ef2-c36a-4302-9a5f-5f42f05cd812"}</recraft-signature></metadata></svg>