<svg xmlns="http://www.w3.org/2000/svg" height="512" preserveAspectRatio="none" style="display: block;" version="1.1" viewBox="0 0 2048 2048" width="512">
<path d="M 1240.16 300.809 L 1630.99 300.727 C 1646.83 300.661 1664.9 299.314 1680.34 301.815 C 1738.4 311.22 1748.11 360.059 1748.13 407.658 L 1748.12 1082.66 C 1748.11 1171.8 1747.43 1261.29 1748.87 1350.38 C 1749.99 1419.2 1711.17 1446.69 1645.18 1446.91 L 1033.26 1447 C 1013.41 1447.01 984.087 1448.76 965.517 1446.16 C 897.715 1435.86 875.061 1350.62 920.738 1303.01 C 950.843 1271.64 990.149 1277.96 1029.86 1277.98 L 1580.73 1278.02 C 1582.11 1218.07 1580.75 1152.72 1580.74 1092.13 L 1580.73 719.5 L 1580.77 567.293 C 1580.77 450.66 1599.86 467.1 1491.22 467.099 L 564.967 467.116 C 533.854 467.12 501.458 467.68 470.49 467.117 C 469.787 480.311 470.475 499.662 470.476 513.471 L 470.48 986.895 C 470.493 1004.4 471.766 1021.37 469.359 1038.79 C 458.605 1119.77 301.502 1160.07 301.025 993.441 L 300.999 439.346 C 301.007 338.949 305.904 300.201 414.23 300.753 L 1240.16 300.809 z" fill="rgb(0,0,0)" transform="translate(0,0)"></path>
<path d="M 500.75 1234.36 C 546.026 1227.06 576.907 1271.68 605.179 1299.69 L 909.802 1602.92 C 956.121 1657.78 937.661 1735.13 866.248 1742.88 C 808.806 1746.69 777.925 1701.57 739.862 1663.96 L 515.767 1442.23 C 485.856 1412.99 433.436 1373.79 427.022 1331.96 C 420.567 1289.87 458.915 1240.04 500.75 1234.36 z" fill="rgb(0,0,0)" transform="translate(0,0)"></path>
<metadata><recraft-signature>{"signed_by": "recraft", "signature_b64": "HHeF0/L4kw2yDG4O8T9Hy/eAtehyNg//9N/YihJ05hZ2YxIXsqNjUg+jPaNMwq++59fD+n7Splib/cHKRnxGBQ==", "signing_algo": "Ed25519", "generation_timestamp": 1772996600, "identifier": "3e5ed241-9b55-4784-8fdf-f3dbd9d99800"}</recraft-signature></metadata></svg>