<svg xmlns="http://www.w3.org/2000/svg" height="512" preserveAspectRatio="none" style="display: block;" version="1.1" viewBox="0 0 2048 2048" width="512">
<path d="M 503.504 285.001 C 521.719 283.971 552.149 284.95 571.161 284.966 L 1497.75 284.947 C 1516.43 284.908 1537.11 284.083 1555.55 286.316 C 1628.42 295.14 1690.82 355.583 1699.45 428.872 C 1702.03 450.786 1701.04 474.245 1701.03 496.203 L 1700.9 1585 C 1701.82 1678.31 1636.23 1751.61 1542.75 1762.02 C 1520.43 1762.85 1492.55 1762.04 1469.75 1762.03 L 539.3 1762.06 C 524.719 1762.11 506.732 1762.9 492.658 1761.27 C 420.158 1752.9 356.971 1689.27 349.887 1616.41 C 347.557 1592.45 348.442 1567.47 348.481 1543.31 L 348.326 445.688 C 347.699 353.109 417.508 295.408 503.504 285.001 z M 805.988 1632.36 L 1454.22 1632.38 C 1482.57 1632.39 1511.03 1632.93 1539.34 1631.14 C 1578.22 1628.68 1570.02 1574 1570.02 1548.08 L 1570.03 540.895 C 1570.04 510.606 1570.21 480.259 1569.56 449.943 C 1568.75 412.537 1533.72 413.512 1506.38 413.56 L 1243 413.642 L 587.403 413.658 C 496.868 413.609 477.899 393.867 477.953 494.305 L 478.345 1590.53 C 478.676 1640.48 513.15 1630.83 544.903 1632.54 C 561.58 1632.27 578.114 1632.31 594.78 1632.31 L 805.988 1632.36 z" fill="rgb(0,0,0)" transform="translate(0,0)"></path>
<metadata><recraft-signature>{"signed_by": "recraft", "signature_b64": "OJ1zIUidbvvZ/DlsrPfIbJGmiUSsQyfttD3BYK7s24Eqo8FsceinU6wqwnvlRNf/F11t9oCYbEg44hDVcbkXAw==", "signing_algo": "Ed25519", "generation_timestamp": 1772998597, "identifier": "0c4d1a16-7902-43a0-a759-7b807035fa8e"}</recraft-signature></metadata></svg>