<svg xmlns="http://www.w3.org/2000/svg" height="512" preserveAspectRatio="none" style="display: block;" version="1.1" viewBox="0 0 2048 2048" width="512">
<path d="M 372.264 254.003 C 398.67 252.697 438.687 253.975 465.861 253.983 L 769.393 253.943 C 818.044 253.933 852.126 249.902 892.084 283.394 C 948.549 330.721 937.998 392.741 937.991 458.65 L 938.045 758.546 C 938.063 847.598 930.349 928.342 820.948 937.992 L 414.055 938.036 C 373.106 938.112 343.157 940.511 308.194 914.492 C 254.191 874.305 255.532 832.334 255.51 769.016 L 255.513 462.578 C 255.505 362.815 248.101 272.949 372.264 254.003 z M 817.872 852.802 C 842.9 845.647 853.219 833.798 853.158 807.569 L 853.05 442.862 C 853.12 353.75 868.993 340.928 763.792 340.949 L 382.458 340.991 C 325.664 348.848 342.902 427.101 342.95 473.172 L 342.947 763.418 C 342.949 836.126 332.039 852.559 415.711 852.769 L 706.217 852.81 C 742.742 852.8 781.517 852.111 817.872 852.802 z" fill="rgb(0,0,0)" transform="translate(0,0)"></path>
<path d="M 1224.8 254.003 C 1250.63 252.745 1288.61 253.964 1315.07 253.971 L 1614.42 253.98 C 1637.22 253.982 1664.62 252.761 1686.96 255.926 C 1739.2 263.123 1787.22 312.714 1791.14 365.498 C 1793.22 393.525 1792.01 426.666 1791.97 455.145 L 1792.01 756.854 C 1792.09 842.23 1786.03 926.576 1675.22 937.992 L 1279.31 938.022 C 1206.58 938.007 1121.42 928.301 1111.8 834.302 C 1109.09 807.845 1110.45 777.126 1110.47 750.28 L 1110.47 436.926 C 1110.46 347.345 1117.18 269.551 1224.8 254.003 z M 1668.68 852.802 C 1692.93 844.805 1704.64 832.741 1704.86 806.565 L 1705.04 404.144 C 1705.25 371.619 1703.77 341.974 1664.57 340.525 C 1633.75 341.049 1602.9 341.001 1572.07 341.008 L 1260.48 340.962 C 1255.77 340.946 1234.59 340.274 1231.74 340.991 C 1179.37 346.24 1195.35 424.918 1195.37 466.565 L 1195.36 762.813 C 1195.35 792.761 1184.98 851.142 1229.85 852.474 C 1252.4 853.143 1275.77 852.882 1298.71 852.864 L 1592.3 852.827 C 1613.09 852.836 1649.06 854.027 1668.68 852.802 z" fill="rgb(0,0,0)" transform="translate(0,0)"></path>
<path d="M 529.751 1110.55 L 787.223 1110.52 C 877.738 1110.4 937.127 1149.28 937.978 1245.62 L 938.02 1618.51 C 938.014 1756.97 889.699 1791.65 755.991 1791.6 L 663.61 1791.56 L 469.994 1791.56 C 436.009 1791.57 383.452 1794.37 351.248 1787.79 C 298.933 1777.09 255.754 1722.15 255.369 1667.99 L 255.5 1276.81 C 255.509 1206.26 260.416 1136.65 345.852 1115.05 C 372.281 1108.36 406.011 1110.51 434.063 1110.51 L 529.751 1110.55 z M 735.34 1706.51 C 829.904 1706.7 853.127 1726.57 853.075 1615.87 L 852.927 1242.69 C 852.532 1191.02 816.777 1194.93 778.241 1194.94 L 460.496 1195 C 425.39 1194.95 333.723 1180.77 341.998 1237.92 C 343.797 1281.44 343.036 1325.24 343.004 1368.76 L 343.042 1639.9 C 342.775 1708.26 349.175 1706.55 417.977 1706.55 L 735.34 1706.51 z" fill="rgb(0,0,0)" transform="translate(0,0)"></path>
<path d="M 1268.38 1110.55 L 1635.16 1110.48 C 1734.23 1110.41 1791.72 1143.45 1791.98 1250 L 1792.03 1625.32 C 1792.1 1750.16 1749.72 1791.38 1631.25 1791.56 L 1279 1791.65 C 1175.1 1791.77 1111.11 1760.71 1110.5 1647.4 L 1110.4 1268.14 C 1110.29 1144.78 1153.88 1110.59 1268.38 1110.55 z M 1564.5 1706.51 C 1607.16 1706.58 1706.4 1726.36 1705.64 1663.96 C 1704.34 1557.43 1705.02 1450.85 1704.99 1344.31 L 1705.06 1266.19 C 1705.56 1192.64 1695.32 1194.99 1629.49 1194.97 L 1333.52 1195 L 1270.7 1194.93 C 1201.2 1194.94 1195.32 1193.66 1195.33 1270.05 L 1195.28 1642.46 C 1195.39 1702.79 1210.63 1706.44 1267.13 1706.53 L 1564.5 1706.51 z" fill="rgb(0,0,0)" transform="translate(0,0)"></path>
<metadata><recraft-signature>{"signed_by": "recraft", "signature_b64": "CYW5BMp7kI4e0tBFh2Egfz0ABP17tZ23k/O8QzUUK+Izu6m3+RkB8rB0PBo4BRT+NEnOMH0w/DLqW2Aj8mnuAA==", "signing_algo": "Ed25519", "generation_timestamp": 1772998917, "identifier": "48e25ed7-0cd6-4696-a9d4-5444bc36a015"}</recraft-signature></metadata></svg>