<svg xmlns="http://www.w3.org/2000/svg" height="512" preserveAspectRatio="none" style="display: block;" version="1.1" viewBox="0 0 2048 2048" width="512">
<path d="M 597.198 1364.94 L 597.217 686.461 C 597.209 656.624 595.143 620.39 600.647 591.695 C 617.125 505.772 684.352 432.51 768.37 408.276 C 804.696 397.798 848.13 392.599 885.95 386.325 L 1365.65 303.476 C 1432.05 292.248 1502.74 272.927 1569.53 289.99 C 1655.17 311.869 1730.04 384.096 1744.31 473.116 C 1750.03 508.785 1747.87 555.083 1747.87 591.946 L 1747.77 1444.74 C 1747.6 1551.31 1675.12 1651.5 1564.03 1659.01 C 1534.6 1660.43 1504.36 1659.2 1475 1659.69 C 1258.34 1663.34 1205.64 1352.32 1420.03 1286.02 C 1448.53 1277.21 1477.13 1278.95 1506.38 1278.95 L 1582.01 1279 L 1582.01 838.419 C 1553.42 842.521 1523.49 848.054 1494.9 852.874 L 950.615 948.761 C 933.766 951.769 912.482 956.063 895.828 958.105 L 895.828 793.031 C 914.855 779.381 929.896 776.4 952.903 772.549 L 1445.55 687.867 C 1491.24 680.077 1536 671.173 1582.01 664.461 L 1582.08 575.732 C 1582.09 554.107 1583.84 526.148 1579.13 505.706 C 1565.64 447.104 1509.51 453.362 1466.91 460.365 L 918.911 552.904 C 864.405 562.325 775.617 562.778 769.527 637.111 C 766.854 669.75 767.995 706.231 767.996 739.256 L 768.5 1561.2 C 769.236 1662.41 670.606 1745.54 571.632 1745.91 C 489.323 1746.21 430.082 1754.5 364.681 1693.48 C 245.961 1582.71 310.546 1381.56 472.875 1365.52 C 502.774 1362.57 567.656 1363.15 597.198 1364.94 z" fill="rgb(0,0,0)" transform="translate(0,0)"></path>
<path d="M 843.142 1470.66 L 843.104 943.773 C 843.069 882.63 837.341 830.559 895.828 793.031 L 895.828 958.105 L 895.883 1340.47 C 895.904 1397.23 898.127 1437.4 843.142 1470.66 z" fill="rgb(244,18,24)" transform="translate(0,0)"></path>
<metadata><recraft-signature>{"signed_by": "recraft", "signature_b64": "NGIUkHHTbHXbfuSfHCNP0mUGezNqEu8y5jdX6HZbXmL70bjMYozhefLqR4LnRW5uLvivX2JL8Sc1rGrvKqmGCA==", "signing_algo": "Ed25519", "generation_timestamp": 1772999541, "identifier": "279689a8-a5e8-48bb-91f6-2f3073207760"}</recraft-signature></metadata></svg>