<svg xmlns="http://www.w3.org/2000/svg" height="512" preserveAspectRatio="none" style="display: block;" version="1.1" viewBox="0 0 2048 2048" width="512">
<path d="M 630.489 296.134 L 1419.08 296.134 C 1418.21 347.676 1413.85 404.522 1411.65 456.5 L 1380.02 1116.41 C 1372.04 1259.16 1332.18 1276.24 1194.89 1276.27 L 1065.69 1276.24 C 1064.77 1318.11 1065.66 1363.82 1065.67 1405.94 L 1065.69 1663.01 L 1223.5 1663.01 C 1304.77 1661.98 1286.37 1746.17 1237.43 1746.85 C 1208.35 1747.26 1179.23 1747.06 1150.15 1747.05 L 828.13 1747.1 C 747.808 1746.67 761.9 1674.05 802.639 1664.66 C 821.811 1660.25 845.989 1662.93 865.837 1662.94 L 982.397 1663.01 L 982.402 1404.11 C 982.401 1364.54 980.985 1315.15 982.397 1276.24 C 915.473 1277.99 845.317 1275.82 779.233 1275.28 C 725.331 1274.85 670.009 1217.42 666.417 1165.54 C 662.965 1115.7 660.306 1062.95 658.321 1012.96 L 632.14 367.133 C 631.297 347.459 629.092 314.655 630.489 296.134 z M 729.686 666.996 C 748.176 664.092 776.952 666.754 796.173 666.95 L 1158.8 666.988 C 1206.98 666.993 1262.44 665.351 1309.9 669.284 L 1310.11 669.69 L 1307.55 670.688 C 1318 680.751 1310.37 684.155 1315.83 692.96 C 1318.64 663.588 1319.73 627.008 1321.33 597.04 L 1328.74 461.521 C 1329.88 436.332 1329.91 407.682 1332.03 383.002 L 719.419 383.002 C 718.438 405.047 720.52 428.433 721.369 450.73 L 727.697 590.592 C 728.811 613.101 731.048 644.954 729.686 666.996 z" fill="rgb(34,33,33)" transform="translate(0,0)"></path>
<path d="M 729.686 666.996 C 748.176 664.092 776.952 666.754 796.173 666.95 L 1158.8 666.988 C 1206.98 666.993 1262.44 665.351 1309.9 669.284 L 1310.11 669.69 L 1307.55 670.688 C 1318 680.751 1310.37 684.155 1315.83 692.96 C 1316.32 712.152 1313.08 747.983 1311.94 768.057 L 1295.61 1074.46 C 1294.38 1100.82 1293.54 1127.13 1291.69 1153.48 C 1288.34 1201.31 1233.87 1192.21 1200.57 1192.14 L 892.709 1192.16 C 859.689 1192.16 826.636 1192.44 793.63 1191.92 C 746.831 1191.18 751.019 1144.85 749.89 1111.4 L 735.971 784.103 C 734.256 749.715 734.28 699.19 729.686 666.996 z" fill="rgb(233,233,232)" transform="translate(0,0)"></path>
<metadata><recraft-signature>{"signed_by": "recraft", "signature_b64": "4bSdniqgmm/rJ/FZq6skXG93SWLe9E5gwwpVSTtiviyPtUS6dJ46WZlEwQY2qcQLzElrIr33imNb299GhwtFAQ==", "signing_algo": "Ed25519", "generation_timestamp": 1772995898, "identifier": "d0e26ac1-6aad-4523-bfb4-32a70c922391"}</recraft-signature></metadata></svg>