<svg xmlns="http://www.w3.org/2000/svg" height="512" preserveAspectRatio="none" style="display: block;" version="1.1" viewBox="0 0 2048 2048" width="512">
<path d="M 1286.5 233.565 C 1458.3 223.297 1606.01 353.987 1616.75 525.758 C 1627.49 697.529 1497.2 845.597 1325.46 856.805 C 1153.06 868.056 1004.29 737.155 993.508 564.718 C 982.729 392.282 1114.04 243.873 1286.5 233.565 z M 1322.62 724.335 C 1421.23 715.074 1493.68 627.68 1484.51 529.07 C 1475.34 430.461 1388.02 357.925 1289.4 367.002 C 1190.65 376.091 1118 463.557 1127.18 562.298 C 1136.36 661.038 1223.89 733.609 1322.62 724.335 z" fill="rgb(0,0,0)" transform="translate(0,0)"></path>
<path d="M 1115.72 919.495 C 1138.34 912.875 1161.51 921.752 1177.47 938.154 C 1219.97 981.807 1265.73 1023.77 1307.38 1068.1 C 1339.71 1038.84 1371.51 1004.99 1403.36 974.806 C 1449.1 931.691 1443.02 916.906 1508.17 919.968 C 1608.35 924.675 1701.62 991.51 1738.36 1084.74 C 1748.94 1111.6 1749.53 1140.5 1753.89 1168.69 L 1806.1 1493.65 C 1813.61 1538.21 1842.38 1640.72 1812.61 1676.68 C 1788.68 1708.62 1727.05 1699.76 1691.66 1699.76 L 1377.07 1699.74 C 1352.75 1699.74 1323.8 1701.24 1300.71 1698.83 C 1246.33 1693.16 1229.12 1614.44 1279.75 1577.06 C 1305.88 1564.07 1322.72 1566.41 1351.26 1566.45 L 1594.47 1566.51 C 1623.39 1566.5 1653.66 1567.11 1682.4 1566.51 C 1666.58 1439 1644.13 1312.1 1625.53 1184.96 C 1615.82 1118.62 1589.2 1063.29 1514.15 1052.52 C 1458.15 1103.67 1406.54 1162.15 1349.52 1212.12 C 1298.9 1256.49 1247.66 1197.76 1215.22 1166.06 L 1132.92 1084.49 C 1123.99 1075.49 1108.31 1057.75 1098.02 1052.52 C 1061.44 1057.59 1029.65 1077.65 1007.39 1106.85 C 982.794 1085.42 924.365 1059.59 892.573 1056.26 C 933.907 982.705 1030.21 917.529 1115.72 919.495 z" fill="rgb(0,0,0)" transform="translate(0,0)"></path>
<path d="M 493.472 1167.33 C 502.31 1166.56 518.523 1167.23 527.964 1167.25 L 704.242 1167.32 C 739.15 1167.3 774.456 1166.48 809.181 1170.64 C 940.517 1186.4 1048.55 1298.81 1056.52 1431.27 C 1057.65 1449.96 1057.04 1469.63 1057.03 1488.41 L 1056.99 1680.15 C 1057.06 1713.12 1063.12 1752.62 1040.75 1779.68 C 1008.77 1818.37 944.441 1803.69 928.505 1757.81 C 921.866 1738.7 924.244 1704.28 924.237 1682.95 L 924.22 1523.34 C 924.245 1489.63 927.288 1442.23 919.698 1410.59 C 903.409 1342.68 844.329 1303.96 778.755 1299.04 L 594.395 1299.03 C 561.446 1299 520.26 1297.68 488.023 1300.87 C 395.698 1310.02 357.494 1386.44 357.409 1469.39 L 357.506 1688.09 C 357.554 1730.11 364.344 1772.05 320.08 1795.39 C 296.012 1808.08 267.508 1803.21 246.768 1786.29 C 217.595 1762.48 221.896 1730.14 222.027 1696.38 L 221.967 1509.6 C 221.858 1469.03 219.124 1431.67 228.514 1391.7 C 258.732 1263.07 363.668 1177.7 493.472 1167.33 z" fill="rgb(0,0,0)" transform="translate(0,0)"></path>
<path d="M 633.485 679.116 C 733.356 673.544 818.823 750.016 824.345 849.891 C 829.868 949.765 753.354 1035.19 653.477 1040.67 C 553.669 1046.14 468.313 969.687 462.795 869.883 C 457.276 770.078 533.683 684.684 633.485 679.116 z" fill="rgb(0,0,0)" transform="translate(0,0)"></path>
<metadata><recraft-signature>{"signed_by": "recraft", "signature_b64": "oY35DllY0s6idyLsDXcxwpX5R9DfavyxnF12vj5FgLMsJrq6ovmhsq4Dc6KzAgfycBDwbze1NBiy9m6WA3ESBQ==", "signing_algo": "Ed25519", "generation_timestamp": 1773000455, "identifier": "21340e35-1a65-40c1-9b56-d77c81794666"}</recraft-signature></metadata></svg>