<svg xmlns="http://www.w3.org/2000/svg" height="512" preserveAspectRatio="none" style="display: block;" version="1.1" viewBox="0 0 2048 2048" width="512">
<path d="M 1006.44 415.475 C 1009.39 414.878 1042.61 415.47 1047.39 415.49 L 1415.05 415.438 C 1533.79 414.388 1535.37 459.53 1535.13 568.113 L 1535.14 795.201 C 1535.15 862.527 1534.9 904.397 1460 927.997 C 1452.73 928.751 1441.19 928.216 1433.63 928.145 L 1081.49 927.94 C 955.584 927.859 928.821 924.351 928.994 786.566 L 929.009 544.124 C 929.007 483.23 925.037 427.482 1006.44 415.475 z M 1009.89 863.815 L 1405.13 863.832 C 1417.26 863.839 1440.11 864.653 1451.25 863.815 C 1461.25 861.132 1464.78 855.114 1470.06 846.462 L 1470.1 545.333 C 1470.07 468.881 1466.16 479.81 1397.19 479.83 L 1009.89 479.885 C 980.605 486.706 991 560.287 990.991 585.872 L 991.024 798.781 C 991.043 821.709 985.184 848.943 1007.55 862.402 L 1009.89 863.815 z" fill="rgb(0,0,0)" transform="translate(0,0)"></path>
<path d="M 355.175 415.475 L 649.747 415.469 C 687.726 415.476 728.306 416.287 765.997 415.475 L 765.997 479.885 C 734.569 480.455 701.177 479.904 669.615 479.897 L 405.529 479.862 C 372.812 479.862 341.101 470.164 341.091 512.614 L 341.041 801.377 C 341.019 866.747 340.197 863.985 405.727 863.917 L 484.5 863.815 L 765.997 863.815 C 765.839 885.111 766.987 906.862 765.997 927.997 L 407.321 928.046 C 292.724 928.13 276.938 904.012 276.973 788.322 L 276.987 553.125 C 276.709 485.239 272.742 431.127 355.175 415.475 z" fill="rgb(0,0,0)" transform="translate(0,0)"></path>
<path d="M 542.375 1118.24 L 765.997 1118.24 C 765.462 1138.51 765.981 1161.53 765.997 1181.99 C 674.487 1183.33 579.421 1181.98 487.657 1181.97 L 389.701 1181.99 C 363.68 1181.83 342.075 1180.47 341.641 1213.69 C 340.711 1284.83 341.073 1356 341.096 1427.16 L 341.115 1496.71 C 341.092 1565.36 336.537 1566.25 403.937 1566.23 L 673.5 1566.18 L 765.997 1566.18 L 765.997 1630.12 L 472.597 1630.11 C 432.96 1630.12 387.701 1631.8 348.71 1629.19 C 299.168 1625.87 276.479 1571.26 277.075 1527.26 L 277.008 1233.99 C 277.071 1117.78 332.829 1118.19 432.954 1118.19 L 542.375 1118.24 z" fill="rgb(0,0,0)" transform="translate(0,0)"></path>
<path d="M 1009.89 1118.24 C 1019.76 1117.66 1032.97 1118.19 1043.14 1118.2 L 1372.04 1118.34 C 1382.11 1118.4 1396.39 1118.95 1406 1118.24 L 1406 1181.99 L 1061.2 1181.95 C 1033.84 1181.95 992.585 1173.12 990.966 1211.94 L 991.031 1494.49 C 991.051 1548.12 979.844 1566.93 1043.02 1566.35 L 1095.18 1566.18 L 1276.36 1566.19 C 1303.16 1566.19 1338.86 1567.29 1365.06 1566.18 L 1365.06 1630.12 L 1045.87 1630.19 C 938.712 1631.02 928.877 1590.07 928.995 1488.65 L 929.01 1256.75 C 929.005 1190.22 928.939 1130.85 1009.89 1118.24 z" fill="rgb(0,0,0)" transform="translate(0,0)"></path>
<path d="M 1470.06 1289.23 C 1517.14 1285.84 1557.32 1360.38 1595.54 1384.6 C 1621.62 1357.84 1648.2 1332.17 1674.71 1305.55 C 1706.2 1272.04 1763.76 1294 1769.12 1338.48 C 1774.39 1382.33 1697.98 1427.53 1672.14 1461.44 L 1673.49 1462.97 C 1695.69 1488.51 1744.15 1523.63 1760.28 1550.4 C 1779.78 1582.78 1761.14 1629.1 1718.72 1630.12 C 1680.56 1635.91 1624.68 1563.6 1595.54 1536.32 C 1568.04 1561.85 1542.38 1592.64 1514.92 1618.48 C 1476.9 1654.25 1418.94 1621.47 1423.23 1572.1 C 1425.6 1544.87 1497.25 1478.86 1517.95 1461.44 C 1494.92 1433.18 1426.97 1385.76 1423.04 1351 C 1419.41 1318.87 1439.45 1295.45 1470.06 1289.23 z" fill="rgb(0,0,0)" transform="translate(0,0)"></path>
<path d="M 1588.76 1055.38 C 1623.64 1049.97 1656.26 1073.98 1661.45 1108.89 C 1666.65 1143.8 1642.44 1176.26 1607.5 1181.24 C 1572.86 1186.17 1540.74 1162.22 1535.59 1127.62 C 1530.44 1093.02 1554.19 1060.75 1588.76 1055.38 z" fill="rgb(0,0,0)" transform="translate(0,0)"></path>
<metadata><recraft-signature>{"signed_by": "recraft", "signature_b64": "UUrTYaxkg2wcNX0Jn/t8XZ0WC53gQag4U6Czj8TYCGzbNh1KYM7V4S5L1KMgGt/DY4MlG1I2TzYGJe5HUOn0Bw==", "signing_algo": "Ed25519", "generation_timestamp": 1772998453, "identifier": "0c593147-55a1-41ad-b1ae-37650d6f1ee0"}</recraft-signature></metadata></svg>