<svg xmlns="http://www.w3.org/2000/svg" height="512" preserveAspectRatio="none" style="display: block;" version="1.1" viewBox="0 0 2048 2048" width="512">
<path d="M 468.356 344.003 C 505.725 342.817 549.88 343.996 587.762 343.999 L 1247.13 344.296 C 1340.07 345.033 1422.15 400.189 1443.56 492.498 C 1448.25 512.713 1447.32 535.012 1447.31 555.918 L 1447.18 736.376 C 1446.18 813.57 1330.49 833.75 1308.54 754.361 C 1304.54 739.929 1305.98 718.34 1305.98 702.827 L 1306 579.456 C 1306 545.03 1312.35 480.076 1257.05 481.186 C 1210.85 482.113 1164.43 481.847 1118.25 481.85 L 504.113 481.791 C 431.92 481.798 423.645 501.937 423.712 571.311 L 423.77 882.946 L 423.717 1255.92 C 423.632 1273.84 421.9 1295.76 425.966 1312.47 C 438.631 1364.51 517.161 1352.35 557.064 1352.35 L 876.902 1352.21 C 891.878 1352.16 906.966 1351.44 921.854 1353.21 C 1004.87 1363.03 994.171 1488.39 913.928 1489.93 C 890.794 1490.37 867.457 1490 844.315 1489.99 L 541.845 1490.06 C 509.423 1490.08 474.649 1491.76 442.759 1486.87 C 359.233 1474.08 292.226 1398.76 285.997 1315.07 C 284.506 1295.04 284.958 1275.02 284.984 1254.9 L 284.982 558.95 C 284.986 540.872 284.383 521.483 287.071 503.638 C 301.651 407.86 376.602 352.328 468.356 344.003 z" fill="rgb(0,0,0)" transform="translate(0,0)"></path>
<path d="M 1392.26 937.245 C 1438.7 930.785 1460.75 959.264 1477.2 995.603 L 1760.7 1608.3 C 1791.55 1680.22 1693.65 1746.33 1643.1 1680.8 C 1619.82 1650.62 1568.23 1527.33 1552.17 1490.02 C 1540.11 1491.51 1523.77 1490.14 1510.96 1490.08 L 1424.5 1490.02 L 1305.37 1490.05 C 1295.61 1490.06 1264.84 1491.08 1257.46 1490.02 C 1237.79 1544.89 1201.28 1603.43 1183.43 1654.9 C 1158.63 1726.44 1066.8 1722.24 1048.52 1649.46 C 1041.06 1619.76 1062.95 1586.3 1075.34 1558.24 C 1131.91 1430.14 1192.2 1303.06 1250.77 1175.86 L 1313.24 1037.83 C 1332.42 994.639 1340.72 947.633 1392.26 937.245 z M 1324.61 1349 L 1406.26 1349 L 1484.07 1349 C 1470.24 1310.46 1450.06 1272.27 1432.35 1235.32 C 1427.86 1225.96 1408.75 1180.11 1406.26 1176.54 C 1383.93 1210.66 1341.58 1306.1 1324.61 1349 z" fill="rgb(0,0,0)" transform="translate(0,0)"></path>
<path d="M 864.503 630.44 C 927.862 630.984 948.17 717.235 970.272 767.387 L 1039.12 920.084 L 1080.27 919.978 C 1109.89 919.958 1132.79 919.933 1155.24 942.295 C 1200.78 987.659 1164.45 1057.08 1095.99 1056.99 C 1108.06 1097.56 1144.6 1133.77 1128.15 1180.01 C 1111.65 1228.37 1044.23 1240.63 1012.85 1199.77 C 1003.83 1188.02 993.873 1162.77 987.394 1148.63 L 945.613 1056.99 L 871.862 1056.99 L 788.164 1056.99 C 771.612 1088.6 732.508 1195.73 707.799 1211.84 C 672.606 1233.61 631.818 1225.61 609.335 1191.52 C 577.368 1143.04 618.035 1107.76 630.395 1061.4 C 630.685 1057.16 618.396 1058.67 614.837 1057.84 C 542.849 1041.04 525.361 920.322 650.53 920.077 L 689.051 920.084 C 715.296 866.514 737.395 810.589 763.368 756.775 C 788.366 704.981 800.185 636.596 864.503 630.44 z M 843.665 920.084 C 851.643 920.764 856.448 920.495 864.503 920.084 C 871.903 920.2 880.185 920.512 887.497 920.084 C 882.434 906.311 873.601 883.67 864.503 872.613 C 858.387 889.898 851.102 903.554 843.665 920.084 z" fill="rgb(0,0,0)" transform="translate(0,0)"></path>
<metadata><recraft-signature>{"signed_by": "recraft", "signature_b64": "0CLmclr6NjrNIE3SM0IKfHMIDk9PJ5lqxuTIFBVzxclF8zCCh4xJleUhzGXWL7T5isouMmd7epEeLFEFjnokBQ==", "signing_algo": "Ed25519", "generation_timestamp": 1772989760, "identifier": "38038fbf-9eac-421d-b94b-80df71be10d4"}</recraft-signature></metadata></svg>