<svg xmlns="http://www.w3.org/2000/svg" height="512" preserveAspectRatio="none" style="display: block;" version="1.1" viewBox="0 0 2048 2048" width="512">
<path d="M 763.958 425.52 C 764.83 425.585 764.232 425.472 765.523 426.462 C 767.462 450.079 766.507 484.099 766.515 508.315 L 766.502 667.509 C 766.486 691.591 765.344 722.535 766.49 745.895 C 795.978 744.984 829.756 745.886 859.693 745.889 L 1756.99 745.895 L 1756.99 931 C 1728.46 929.6 1686.47 930.973 1657.19 930.988 L 766.49 931 C 762.078 988.336 767.658 1058 766.49 1116.92 L 1756.99 1116.92 L 1756.99 1299.29 C 1731.74 1300.39 1697.52 1299.33 1671.5 1299.29 L 766.49 1299.29 C 765.924 1307.52 766.438 1321.03 766.442 1329.67 L 766.46 1391.82 C 766.476 1467.45 767.625 1545.42 766.49 1620.73 L 578.566 1620.73 L 578.566 1299.29 C 548.609 1298.31 513.664 1299.26 483.178 1299.27 L 293.02 1299.29 L 293.02 1116.92 L 578.566 1116.92 L 578.566 931 L 293.02 931 C 293.008 870.207 294.067 806.348 293.02 745.895 C 302.06 745.136 315.084 745.823 324.496 745.851 L 578.566 745.895 L 578.566 425.52 L 763.958 425.52 z" fill="rgb(0,0,0)" transform="translate(0,0)"></path>
<metadata><recraft-signature>{"signed_by": "recraft", "signature_b64": "UcQQJ8wgKBAWEW+YLJmcWUleuTx3cwXT+zNfd/7EBe4YvCai13u1Fu/cwnGtHLcjyd3X1dtzxt87LbpvJH6GAQ==", "signing_algo": "Ed25519", "generation_timestamp": 1772995758, "identifier": "b332c2e4-8850-488e-a7ed-c622e7c7014a"}</recraft-signature></metadata></svg>