<svg xmlns="http://www.w3.org/2000/svg" height="512" preserveAspectRatio="none" style="display: block;" version="1.1" viewBox="0 0 2048 2048" width="512">
<path d="M 1223.67 288.992 C 1343.61 285.166 1448.6 352.375 1476.28 473.151 L 1550.41 473.091 C 1663.73 473.083 1745.21 518.554 1745.54 641.888 L 1745.56 1481.32 C 1745.56 1523.13 1747.19 1567.68 1741.27 1608.85 C 1728.02 1700.99 1652.28 1739.25 1568.14 1739.06 L 550.5 1738.96 C 451.751 1739.11 334.975 1747.04 306.417 1618.73 C 301.189 1595.25 302.172 1566.98 302.155 1542.75 L 302.391 1263.34 C 301.656 1178.74 376.208 1169.12 442.271 1169.22 L 508.943 1169.35 C 521.207 1169.38 537.229 1170.6 548.885 1167.72 C 596.645 1155.93 597.272 1091.14 551.242 1076.3 C 538.302 1072.13 523.116 1073.49 509.56 1073.52 L 432.663 1073.72 C 416.718 1073.77 395.508 1074.96 380.263 1071.72 C 327.046 1060.39 302.5 1016.9 302.151 966.363 L 302.166 661.121 C 302.116 640.06 300.886 617.79 305.392 597.341 C 330.23 484.63 424.048 473.186 517.574 473.161 L 1004.14 473.151 C 1025.15 371.312 1124.17 301.983 1223.67 288.992 z M 490.979 659.599 L 490.979 896.981 L 492.889 897.181 C 510.415 898.912 533.704 895.483 553.591 896.835 C 624.164 900.589 680.903 929.774 725.719 984.286 C 844.85 1129.19 742.112 1347.72 555.779 1360.96 C 534.135 1362.5 512.494 1361.35 490.979 1361.6 L 490.979 1550.92 L 526.5 1550.92 L 1556.15 1550.92 L 1556.15 659.599 L 1432.15 659.637 C 1410.96 659.634 1380.91 662.7 1361.04 657.388 C 1260.42 629.024 1321.45 538.078 1282.94 497.61 C 1269.4 483.374 1252.42 478.168 1233.18 479.189 C 1174.84 491.768 1183.95 532.608 1182.69 578.057 C 1180.37 661.592 1102.2 659.637 1044.27 659.64 L 490.979 659.599 z" fill="rgb(44,40,40)" transform="translate(0,0)"></path>
<metadata><recraft-signature>{"signed_by": "recraft", "signature_b64": "6icoxch1NwMrAtYApoy5FzwuqBqMoyPirQ5D6Gk4+koMPg7eyCSHCloxULLiASgUm6hDVMlzWDG6MlICctwvAg==", "signing_algo": "Ed25519", "generation_timestamp": 1772990285, "identifier": "db9db33a-780c-40ee-8e13-24c717553ba7"}</recraft-signature></metadata></svg>