<svg xmlns="http://www.w3.org/2000/svg" height="512" preserveAspectRatio="none" style="display: block;" version="1.1" viewBox="0 0 2048 2048" width="512">
<path d="M 1000.43 384.108 C 1312.65 369.956 1570 642.319 1533.46 953.515 C 1585.97 954.567 1685.04 947.013 1733.09 955.055 C 1805.04 967.096 1812.34 1068.05 1741.68 1088.82 C 1724.69 1093.81 1701.73 1092.12 1684.07 1092.07 L 1428.53 1092 C 1411.8 1091.98 1372.17 1089.7 1357.5 1093.06 C 1357.81 1097.94 1396.19 1170.1 1400.89 1178.88 L 1582.23 1519.19 C 1597.1 1546.14 1620.31 1578.47 1612.2 1610.56 C 1596.74 1671.71 1515.3 1679.86 1489.12 1637.76 C 1465.42 1599.64 1443.72 1553.15 1422.16 1512.91 L 1229 1146.59 C 1219.6 1128.79 1209.89 1109.33 1199.83 1092.03 C 1185.43 1090.86 1165.72 1091.95 1150.56 1091.98 L 1052.5 1092.03 L 848.581 1092.03 L 594.382 1577.97 C 579.627 1606.16 564.399 1647.72 533.382 1659.78 C 496.771 1674.02 455.033 1658.04 441.165 1619.95 C 423.823 1572.31 484.7 1479.46 510.007 1432.02 L 600.204 1259.85 C 628.301 1207.43 663.139 1146.02 687.405 1092.03 C 664.145 1093.78 633.748 1092.06 609.856 1092.04 L 358.996 1092.08 C 343.557 1092.09 325.162 1093.07 310.245 1090.9 C 242.373 1080.59 220.237 953.352 348.148 953.496 L 515.212 953.515 C 514.176 941.125 512.83 928.269 512.237 915.984 C 498.35 628.268 720.395 402.6 1000.43 384.108 z M 653.304 953.515 L 1034.35 953.515 L 1344.91 953.555 C 1359.67 953.618 1374.79 954.179 1389.47 953.515 C 1430.45 722.202 1243.06 507.134 1009.3 520.055 C 785.504 538.132 615.679 725.223 653.304 953.515 z" fill="rgb(0,0,0)" transform="translate(0,0)"></path>
<metadata><recraft-signature>{"signed_by": "recraft", "signature_b64": "c8sncJFTpODZJ7GcF/yS6sThmUO+PG1pu0FjKU6EyZn9aHF4XvOvcmtQYvor9kaOIoSU1XIYTOZzA5H38K3NDA==", "signing_algo": "Ed25519", "generation_timestamp": 1772998002, "identifier": "1e9d50de-b8f5-497b-a160-e4f7908cf9fe"}</recraft-signature></metadata></svg>