<svg xmlns="http://www.w3.org/2000/svg" height="512" preserveAspectRatio="none" style="display: block;" version="1.1" viewBox="0 0 2048 2048" width="512">
<path d="M 1072.72 765.699 C 1095.55 759.943 1151.07 767.904 1175.64 769.381 C 1187.01 867.366 1327.46 893.154 1357.59 769.381 C 1386.73 758.512 1467.63 765.093 1491.89 784.547 C 1503.7 792.5 1511.18 805.907 1521.12 815.249 C 1546.25 838.865 1574.94 856.502 1602.45 876.888 C 1688.24 940.467 1707.53 957.771 1752.79 1054.74 C 1786.52 1127.01 1842.63 1282.03 1851.23 1364.92 C 1860.05 1449.77 1744.54 1482.55 1707.03 1406.4 C 1698.49 1389.07 1701.13 1370.25 1696.58 1351.93 C 1670.76 1247.98 1632.6 1148.34 1589.15 1050.59 C 1554.8 1032.75 1546.88 1024.1 1518 1000.77 C 1516.79 1012.22 1517.59 1045.15 1517.73 1058.04 L 1518 1146.28 C 1518.01 1244.59 1516.64 1346.3 1518 1444.28 C 1599.1 1469.33 1774.95 1569.41 1703.24 1675.41 C 1668.91 1726.17 1590.5 1728.07 1556.71 1675.81 C 1546.97 1660.73 1544.82 1647.4 1528.31 1636.96 C 1415.23 1565.45 1278.5 1557.62 1150.06 1581.72 C 1099.01 1594.1 1035.99 1612.59 994.89 1650 C 989.591 1654.82 983.689 1670.09 979.208 1677.32 C 918.621 1772.95 763.235 1670.36 839.045 1562.25 C 869.327 1519.06 954.984 1459.8 1006.17 1448.98 C 1006.43 1437.73 1006.24 1426.26 1006.17 1414.99 L 1171.2 1415 C 1191.7 1415 1273.76 1416.74 1287.95 1411.79 C 1295.21 1403.7 1294.06 1350.43 1290.14 1346.56 C 1283.36 1339.88 1190.95 1342.57 1175.64 1342.59 C 1175.96 1311.22 1180.7 1277.64 1181.05 1246.93 C 1253.81 1224.96 1237.25 1143.76 1224.31 1088.02 C 1221.75 1077.99 1215.96 1076.46 1206.44 1076.25 C 1184.93 1075.76 1130.04 1072.97 1110.98 1075.97 C 1107.23 1083.43 1106.1 1090.62 1104.74 1098.75 C 1094.05 1162.6 1073.3 1203.6 1135.97 1246.93 L 1136.05 1247.83 C 1138.09 1272.66 1133.68 1315.85 1132.9 1342.59 L 1021.88 1342.59 C 1021.04 1322.58 1019.53 1263.41 1022.84 1245.55 C 1030.04 1206.82 1054.26 1184.92 1014.19 1156.97 C 1012.79 1122.22 1017.22 1084.38 1014.19 1050.59 C 1004.05 1083.29 983.225 1120.82 951.389 1136.3 C 894.188 1126.31 854.604 1132.55 805.288 1126.99 C 769.906 1063.91 747.002 931.392 732.625 860.064 C 769.274 836.826 820.706 820.356 860.082 797.385 C 864.433 816.045 896.582 949.415 902.921 957.133 L 904.602 957.162 C 913.36 951.254 961.682 862.405 969.865 847.045 C 993.636 802.425 1019.29 770.89 1072.72 765.699 z" fill="rgb(0,0,0)" transform="translate(0,0)"></path>
<path d="M 1244.63 330.564 C 1352.83 319.292 1449.61 398.007 1460.63 506.228 C 1471.64 614.449 1392.7 711.051 1284.45 721.81 C 1176.57 732.532 1080.36 653.91 1069.38 546.051 C 1058.4 438.192 1136.8 341.798 1244.63 330.564 z" fill="rgb(0,0,0)" transform="translate(0,0)"></path>
<path d="M 816.334 1140.96 C 859.323 1132.4 1011.73 1149.56 1022.56 1181.45 C 1026.87 1201.65 1010.58 1238.67 1001.95 1255.36 C 972.487 1312.28 933.675 1330.55 876.748 1348.98 C 867.196 1348.1 855.512 1348.76 845.763 1348.84 C 726.301 1349.82 646.776 1198.62 681.557 1172.72 C 710.941 1150.84 781.061 1138.86 816.334 1140.96 z M 764.324 1156.97 C 740.402 1164.95 682.602 1195.51 738.027 1208.45 C 783.354 1219.04 830.562 1218.28 876.748 1218.44 C 912.288 1215.31 961.336 1211.92 994.017 1197.78 C 968.843 1172.31 953.26 1155.35 917.598 1167.47 C 906.106 1160.76 902.854 1159.1 889.484 1156.97 C 882.119 1160.43 876.598 1163.42 869.51 1167.47 C 856.898 1159.9 847.663 1150.87 832.358 1151.2 C 810.562 1155.72 808.928 1163.38 792.129 1171.06 C 782.253 1166.52 773.557 1161.27 764.324 1156.97 z" fill="rgb(0,0,0)" transform="translate(0,0)"></path>
<path d="M 587.998 1121.33 C 588.325 1121.93 588.653 1122.52 588.98 1123.12 C 583.141 1211.82 592.222 1259.17 538.172 1339.22 C 525.109 1340.06 503.792 1339.28 490.014 1339.26 L 393.226 1339.22 C 381.991 1326.73 374.798 1312.67 367.997 1297.5 C 344.183 1244.33 340.991 1178.83 341.025 1121.33 C 410.511 1152.58 514.685 1144.17 587.998 1121.33 z" fill="rgb(0,0,0)" transform="translate(0,0)"></path>
<path d="M 663.527 1358.68 L 1212.1 1358.69 C 1232.57 1358.68 1258.23 1357.72 1277.97 1358.68 C 1277.99 1371.56 1277.57 1384.06 1277.97 1396.99 L 816.334 1396.99 L 198.118 1396.99 C 197.814 1384.66 197.959 1371.04 198.118 1358.68 L 663.527 1358.68 z" fill="rgb(0,0,0)" transform="translate(0,0)"></path>
<path d="M 503.966 853.376 C 520.371 860.049 498.845 946.878 517.124 954.485 C 535.915 944.207 511.237 852.239 533.882 855.414 C 543.224 866.219 528.247 963.959 548.257 953.973 C 555.898 939.743 548.034 861.309 557.224 854.482 L 560.57 855.295 C 562.887 857.832 567.46 916.739 567.93 925.8 C 569.895 963.694 584.464 1005.49 543.848 1024.55 C 542.642 1041.11 543.772 1066.77 543.848 1084.15 C 670.31 1100.99 474.99 1142.89 410.766 1121.33 C 381.889 1120.5 300.258 1101.73 372.035 1088.86 C 353.358 1064.51 301.521 991.624 294.349 962.683 L 294.771 961.104 C 300.596 939.518 321.109 939.035 328.949 955.656 C 349.27 998.734 364.657 1041.92 387.369 1084.15 C 432.809 1083.98 470.952 1075.45 518.712 1084.15 C 518.882 1065.11 517.774 1043.12 518.712 1024.55 C 500.879 1017.43 491.64 1003.12 491.444 984.191 C 491.266 967.085 494.635 860.303 503.966 853.376 z" fill="rgb(0,0,0)" transform="translate(0,0)"></path>
<path d="M 1006.17 622.446 C 1104.08 616.767 1029.57 747.947 950.594 758.696 C 927.156 761.886 905.874 756.658 883.893 768.119 C 822.197 795.532 764.716 828.703 705.438 860.064 C 675.225 876.609 654.441 865.427 676.491 853.199 C 746.406 814.429 828.285 779.612 894.881 738.697 C 898.116 678.051 944.684 627.247 1006.17 622.446 z" fill="rgb(0,0,0)" transform="translate(0,0)"></path>
<path d="M 387.369 1414.99 C 404.119 1415.18 416.221 1412.99 433.395 1414.99 C 433.53 1510.8 439.39 1618.04 445.13 1714 L 433.395 1714 L 372.035 1714 C 371.897 1692.13 373.17 1667.39 373.984 1645.44 L 379.911 1514.38 C 381.266 1487.12 379.624 1439.31 387.369 1414.99 z" fill="rgb(0,0,0)" transform="translate(0,0)"></path>
<path d="M 1120.74 1088.86 L 1209.74 1088.86 C 1223.54 1128.96 1232.92 1193.85 1196.58 1225.29 C 1171.75 1243.19 1135.14 1239.19 1117.69 1212.68 C 1100.19 1186.09 1106.26 1163.9 1111.81 1134.84 L 1120.74 1088.86 z" fill="rgb(0,0,0)" transform="translate(0,0)"></path>
<path d="M 792.129 719.269 C 815.577 716.493 836.473 732.392 849.821 749.942 C 830.063 759.83 779.644 785.22 764.324 797.385 C 752.982 796.935 738.426 810.286 728.45 812.333 C 719.296 806.837 735.754 760.839 741.747 751.995 C 755.486 731.72 769.06 724.599 792.129 719.269 z" fill="rgb(0,0,0)" transform="translate(0,0)"></path>
<path d="M 1150.06 1249.92 L 1167.22 1249.92 C 1166.68 1279 1162.84 1312.77 1161.09 1342.59 L 1147 1342.59 C 1146.32 1313.55 1151.43 1282.26 1150.06 1249.92 z" fill="rgb(0,0,0)" transform="translate(0,0)"></path>
<metadata><recraft-signature>{"signed_by": "recraft", "signature_b64": "/w56DmW2Mh/m3nTC5fBuDADoPVBuC1XEUVUNcxkhp/nTU4WLU5XA4m7y7/FWSRLmYkxy8PFt0hWe/EHN0S3DBA==", "signing_algo": "Ed25519", "generation_timestamp": 1773009094, "identifier": "77b9e4cd-e336-4546-af4c-66f33bde241e"}</recraft-signature></metadata></svg>