<svg xmlns="http://www.w3.org/2000/svg" height="512" preserveAspectRatio="none" style="display: block;" version="1.1" viewBox="0 0 2048 2048" width="512">
<path d="M 922.707 827.116 C 958.79 822.837 976.212 860.462 988.314 886.127 L 1073 1069.7 C 1143.19 1046.34 1211.09 1018.95 1280.46 994.894 C 1320.85 818.965 1487.49 798.838 1611.17 927.705 C 1801.72 1126.24 1798.17 1492.57 1798 1749.18 L 1307.68 1749.18 C 1307.91 1741.55 1307.74 1733.58 1307.68 1725.91 L 1307.68 1408.76 L 1025.17 1595.32 C 1004.8 1608.62 991.059 1620.51 966.372 1624.4 C 866.18 1640.21 813.584 1509.57 892.747 1451.33 C 914.522 1435.32 938.128 1422.17 960.776 1407.42 L 1129.93 1299.12 C 1187.78 1262.21 1171.74 1276.12 1215.49 1217.21 C 1165.35 1231.62 1115.22 1252.53 1065.37 1268.74 C 971.362 1299.3 948.08 1214.66 918.863 1154.74 L 835.095 972.574 C 822.322 945.072 792.639 887.835 832.766 866.265 C 859.008 852.158 893.932 833.584 922.707 827.116 z" fill="rgb(0,0,0)" transform="translate(0,0)"></path>
<path d="M 1247.1 294.002 C 1416.47 290.216 1559.68 419.58 1545.61 593.939 C 1525.94 837.708 1229.84 930.858 1065.59 762.933 C 1051.16 748.184 1040.92 730.253 1027.58 714.844 C 1015.66 724.047 980.846 744.868 967.136 753.057 C 938.82 769.511 945.107 770.714 925.063 789.051 C 874.217 835.567 783.436 868.98 714.656 868.728 C 675.049 868.582 658.333 850.135 693.284 820.513 C 737.466 783.066 871.795 735.335 926.857 741.117 C 955.354 717.222 985.031 699.619 1016.28 680.085 C 940.657 504.183 1058.33 315.687 1247.1 294.002 z" fill="rgb(0,0,0)" transform="translate(0,0)"></path>
<path d="M 279.215 1321.99 C 309.059 1320.67 350.922 1321.96 381.432 1321.96 L 783.624 1321.99 C 816.918 1321.97 850.092 1321.82 883.492 1322.18 C 910.179 1322.47 924.634 1359.18 880.624 1373.27 C 879.325 1373.68 879.58 1391.22 879.563 1392.92 C 879.177 1455.96 849.075 1520.52 806.651 1566.96 C 726.707 1650.96 666.889 1646.16 563.504 1646.12 C 512.581 1646.1 475.339 1650.17 427.912 1627.38 C 343.327 1586.73 289.636 1506.83 280.566 1414.01 C 279.743 1405.59 279.747 1379.66 278.293 1372.89 C 278.058 1371.79 261.576 1366.93 259.132 1355 C 255.682 1338.15 262.806 1327.03 279.215 1321.99 z" fill="rgb(0,0,0)" transform="translate(0,0)"></path>
<path d="M 608.875 1168.99 C 675.761 1160.67 741.86 1207.94 761.017 1271.31 C 764.382 1282.45 765.723 1292.98 768.809 1303.83 L 769.137 1304.96 L 626.5 1304.96 L 469.008 1304.96 C 476.631 1229.54 531.585 1171.52 608.875 1168.99 z" fill="rgb(0,0,0)" transform="translate(0,0)"></path>
<path d="M 415.372 1042.41 C 490.144 1043.46 503.83 1169.92 439.999 1228.46 L 439.999 1304.96 L 419.75 1304.96 C 414.42 1304.52 404.685 1304.9 399.013 1304.96 L 399.013 1228.46 C 333.845 1188.86 344.368 1051.77 415.372 1042.41 z" fill="rgb(0,0,0)" transform="translate(0,0)"></path>
<path d="M 793.377 605.01 C 803.06 604.756 809.958 605.081 813.818 615.077 C 826.985 649.167 846.283 700.912 855.023 735.279 C 849.863 737.362 841.75 739.497 836.215 741.117 C 832.438 741.855 823.797 744.641 819.742 745.816 C 807.494 704.066 788.729 663.763 778.954 621.45 C 781.708 611.247 783.688 609.084 793.377 605.01 z" fill="rgb(0,0,0)" transform="translate(0,0)"></path>
<path d="M 855.023 615.011 C 883.898 613.799 905.249 704.935 910.377 728.478 C 902.405 727.908 899.114 727.672 891.223 728.478 C 891.225 728.477 874.684 731.046 872.704 731.404 C 863.163 697.691 822.16 630.35 855.023 615.011 z" fill="rgb(0,0,0)" transform="translate(0,0)"></path>
<path d="M 749.14 647.134 C 780.087 644.68 796.739 728.024 801.979 753.057 C 795.857 754.496 791.727 755.496 785.751 757.548 C 778.925 759.905 775.625 761.39 769.137 764.621 C 761.854 747.484 756.154 724.374 749.858 706.371 C 743.314 684.768 726.055 659.726 749.14 647.134 z" fill="rgb(0,0,0)" transform="translate(0,0)"></path>
<metadata><recraft-signature>{"signed_by": "recraft", "signature_b64": "GeYuVjl/oI1cpxWCEaG4YcjqgDIK7ORfHuPTFHQUCJ88ZnnoR2bWduh9gZDA8h0T8w5hFSzJeR3/ZTlgpOeZBA==", "signing_algo": "Ed25519", "generation_timestamp": 1773008888, "identifier": "9157d895-7c23-49b0-ad25-86d0c695827f"}</recraft-signature></metadata></svg>