<svg xmlns="http://www.w3.org/2000/svg" height="512" preserveAspectRatio="none" style="display: block;" version="1.1" viewBox="0 0 2048 2048" width="512">
<path d="M 681.027 569.925 C 691.988 569.27 709.363 569.855 720.724 569.868 L 1797.7 569.326 C 1875.87 568.99 1866.07 643.361 1866.05 697.022 L 1866.05 1376.01 C 1866.07 1461.27 1845.57 1474.33 1762.82 1474.09 L 1367.5 1474.01 L 280.535 1474.11 C 202.553 1474.51 182.844 1460.36 182.113 1380.16 L 181.987 637.496 C 182.083 572.262 225.478 569.833 278.234 569.868 L 681.027 569.925 z M 243.463 620.991 C 226.99 632.375 233.465 661.49 233.472 682.102 L 233.473 1346.11 C 233.487 1422.37 221.344 1420.43 293.666 1420.18 L 1445.25 1420.1 L 1749.55 1420.12 C 1830.95 1420.1 1815.82 1420.9 1815.51 1331.81 L 1815.47 671.912 C 1815.39 642.099 1823.83 621.129 1787.36 621.033 L 603.995 620.991 L 285.838 620.937 C 272.833 620.899 256.212 620.393 243.463 620.991 z" fill="rgb(0,0,0)" transform="translate(0,0)"></path>
<path d="M 941.423 774.981 C 952.919 776.214 986.094 774.771 999.875 774.981 C 1001.58 782.033 1006.94 794.537 1009.75 801.654 L 1084.54 986.103 C 1112.78 920.476 1145.37 842.492 1168.56 774.981 L 1224.67 774.981 C 1235.05 792.094 1243.92 815.632 1251.51 834.401 L 1288.87 925.205 C 1298.67 949.35 1309.39 979.207 1322.49 1000.99 C 1303.94 1001.36 1283.85 1001 1265.19 1000.99 C 1259.61 989.434 1254.28 976.052 1249.96 963.987 L 1147.93 963.987 C 1142.32 976.125 1138.6 988.679 1132.87 1000.99 L 1033.33 1000.99 C 1028.27 989.1 1023.38 976.334 1019.62 963.987 L 1010.25 963.987 L 922.393 963.987 C 918.406 976.833 914.833 988.454 909.999 1000.99 L 807.384 1000.99 C 800.549 987.787 797.851 976.916 791.958 963.987 L 692.072 963.987 C 687.54 976.3 682.687 988.715 678.014 1000.99 C 660.028 999.55 643.944 999.15 626.005 1000.99 C 630.512 965.357 675.999 866.889 692.1 825.13 C 698.228 809.236 707.61 791.474 711.055 774.981 L 774.965 774.981 C 797.898 844.724 834.025 914.983 858.851 986.103 C 881.053 924.198 911.995 833.415 941.423 774.981 z M 745.5 919.99 C 757.398 920.331 767.08 920.45 778.99 919.99 C 776.112 911.726 745.388 832.239 742.219 829.472 C 731.969 855.76 716.139 894.381 707.795 919.99 C 721.383 921.246 731.838 920.893 745.5 919.99 z M 973.597 919.99 L 1005.59 919.99 C 998.495 903.713 974.394 837.786 970.003 832.492 C 958.558 856.005 945.546 894.732 936.166 919.99 L 973.597 919.99 z M 1163.91 919.99 L 1197.16 919.99 L 1231.94 919.99 C 1228.44 908.092 1204.17 841.068 1197.16 836.61 C 1186.64 864.5 1173.2 891.748 1163.91 919.99 z" fill="rgb(0,0,0)" transform="translate(0,0)"></path>
<path d="M 1423.01 771.296 C 1464.17 767.678 1505.58 784.889 1529.34 819.014 C 1518.28 829.368 1506.29 840.248 1494.13 849.239 C 1454.73 805.68 1381.02 804.302 1371.1 873.632 C 1359.37 955.546 1431.61 978.635 1494.13 927.68 C 1505.36 938.497 1518.55 946.494 1529.34 957.754 C 1492.95 1010.53 1407.22 1020.62 1357.85 981.339 C 1284.78 923.2 1304.45 783.447 1423.01 771.296 z" fill="rgb(0,0,0)" transform="translate(0,0)"></path>
<path d="M 1092.81 1123.45 C 1135.22 1122.97 1161.56 1156.14 1128.69 1188.62 C 1160.32 1212.82 1151.15 1245.28 1114.95 1257.19 C 1093.67 1258.71 1063.68 1257.82 1042 1257.19 L 1042 1123.45 C 1058.99 1123.57 1075.83 1123.69 1092.81 1123.45 z M 1071.49 1204.99 L 1071.49 1229 C 1082.26 1229.7 1088.47 1229.5 1099.2 1229 C 1128.77 1228.95 1130.69 1203.78 1092.81 1204.99 L 1071.49 1204.99 z M 1111.13 1173.49 C 1122.44 1146.41 1087.82 1151.47 1071.49 1151.7 C 1071.21 1160.73 1070.92 1168.33 1071.49 1177.38 C 1082.91 1177.3 1101.99 1178.67 1111.13 1173.49 z" fill="rgb(0,0,0)" transform="translate(0,0)"></path>
<path d="M 795.025 1123.45 C 811.09 1123.56 850.462 1121.29 864.279 1124.86 C 904.391 1135.23 911.991 1188.06 872.27 1210.4 C 882.273 1224.18 892.786 1242.53 902.655 1257.19 C 895.793 1257.03 888.639 1257.16 881.75 1257.19 L 872.27 1257.19 C 859.917 1246.35 850.131 1227.41 841.645 1212.99 L 825.564 1212.99 C 826.618 1229.03 826.422 1240.98 825.564 1257.19 C 815.422 1257.04 805.176 1257.15 795.025 1257.19 C 795.035 1213.21 795.76 1167.28 795.025 1123.45 z M 825.564 1184.51 C 836.808 1186.36 847.706 1188.43 858.851 1184.51 C 874.255 1174.34 870.312 1163.2 858.851 1151.7 L 834.849 1151.7 C 819.502 1154.12 825.463 1167.43 825.564 1184.51 z" fill="rgb(0,0,0)" transform="translate(0,0)"></path>
<path d="M 953.601 1123.45 C 985.249 1122.9 1027.3 1127.45 1021.09 1172.51 C 1018.46 1191.59 1007.03 1199.86 992.722 1210.4 C 1000.92 1219.7 1017.28 1245.9 1023.04 1257.19 C 1011.87 1257.61 1003.98 1257.78 992.722 1257.19 C 988.161 1252.58 986.712 1250.85 982.918 1245.71 C 978.052 1236.71 967.5 1219.74 960.475 1212.99 L 947.159 1212.99 C 947.084 1227.65 946.87 1242.56 947.159 1257.19 L 917.51 1257.19 C 917.12 1215.97 916.295 1164.12 917.51 1123.45 L 953.601 1123.45 z M 947.159 1184.51 C 957.441 1184.7 979.263 1185.82 987.999 1181.92 C 1013.21 1152.01 964.255 1150.81 947.159 1151.7 C 947.285 1162.69 947.468 1173.52 947.159 1184.51 z" fill="rgb(0,0,0)" transform="translate(0,0)"></path>
<path d="M 1479.66 1123.45 C 1490.4 1123.02 1497.81 1123.06 1508.49 1123.45 C 1527.78 1148.64 1544.52 1176.87 1565.55 1203.17 C 1565.49 1176.88 1566.33 1149.49 1565.55 1123.45 C 1575.27 1123.96 1585.12 1123.63 1594.86 1123.45 L 1594.86 1257.19 C 1584.98 1257.45 1575.44 1257.85 1565.55 1257.19 C 1554.21 1236.51 1523.76 1196.81 1508.49 1177.38 C 1508.34 1203.89 1509.03 1230.75 1508.49 1257.19 C 1498.95 1257.34 1489.22 1257.22 1479.66 1257.19 C 1478.82 1213.49 1479.69 1167.4 1479.66 1123.45 z" fill="rgb(0,0,0)" transform="translate(0,0)"></path>
<path d="M 363.949 1123.45 C 373.314 1123.08 381.739 1123.25 391.075 1123.45 C 409.806 1158.7 436.028 1219.43 450.157 1257.19 C 439.1 1256.91 429.295 1256.93 418.234 1257.19 C 414.218 1248.7 410.188 1240.4 406.007 1231.99 L 395.248 1231.99 L 348.079 1231.99 C 344.688 1240.21 340.413 1249.05 336.678 1257.19 L 307.658 1257.19 C 311.245 1244.62 322.324 1220.5 327.812 1207.74 L 363.949 1123.45 z M 359.91 1204.99 C 365.022 1204.97 372.861 1204.7 377.75 1204.99 L 395.248 1204.99 C 393.064 1198.59 381.275 1167.19 377.75 1162.75 C 369.496 1178.49 365.701 1188.34 359.91 1204.99 z" fill="rgb(0,0,0)" transform="translate(0,0)"></path>
<path d="M 1675.28 1123.45 C 1702.2 1120.96 1721.21 1128.63 1739.23 1149.07 C 1731.65 1152.26 1722.29 1158.53 1714.44 1162.75 C 1673.25 1134.07 1635.14 1167.39 1648.57 1206.6 C 1663.53 1250.25 1727.31 1223.74 1714.57 1209.74 C 1710.3 1205.05 1687.54 1205.41 1680.72 1204.99 C 1679.92 1193.36 1675.07 1182.28 1689.86 1181.92 L 1740.82 1181.92 C 1740.73 1195.19 1742.07 1219.87 1739.23 1231.99 C 1653.24 1328.38 1549.08 1154 1675.28 1123.45 z" fill="rgb(0,0,0)" transform="translate(0,0)"></path>
<path d="M 681.027 1123.45 L 774.965 1123.45 C 774.585 1133.65 774.653 1141.56 774.965 1151.7 L 711.055 1151.7 C 709.707 1161.24 710.367 1167.8 711.055 1177.38 C 729.965 1177.62 750.108 1177.73 768.999 1177.38 C 768.594 1186.04 768.925 1196.21 768.999 1204.99 L 721.25 1204.99 C 706.224 1205.75 710.575 1216.63 711.055 1229 L 774.965 1229 L 774.965 1257.19 L 681.027 1257.19 C 682.027 1213.99 681.047 1166.92 681.027 1123.45 z" fill="rgb(0,0,0)" transform="translate(0,0)"></path>
<path d="M 468.075 1123.45 C 496.031 1122.76 526.75 1123.44 554.991 1123.45 C 554.161 1134.37 554.302 1140.75 554.991 1151.7 C 533.85 1152.05 512.242 1151.77 491.066 1151.7 L 491.066 1177.38 C 507.77 1178.33 533.455 1177.44 550.763 1177.38 C 550.551 1186.39 550.738 1195.93 550.763 1204.99 L 491.066 1204.99 C 491.524 1213.32 491.292 1220.7 491.066 1229 C 512.352 1228.94 533.711 1228.77 554.991 1229 L 554.991 1257.19 L 462.49 1257.19 C 462.236 1240.38 461.061 1127.56 463.532 1124 L 468.075 1123.45 z" fill="rgb(0,0,0)" transform="translate(0,0)"></path>
<path d="M 626.005 1123.45 L 665.181 1123.45 C 665.665 1132.68 665.327 1142.43 665.181 1151.7 C 654.455 1152.12 640.266 1151.65 629.095 1151.7 L 629.095 1257.19 C 618.628 1256.93 609.45 1256.95 599.02 1257.19 C 598.15 1255.3 599.436 1161.53 599.02 1151.7 C 588.181 1151.25 574.355 1151.67 563.306 1151.7 C 563.5 1142.08 562.892 1133.58 563.306 1123.45 L 626.005 1123.45 z" fill="rgb(0,0,0)" transform="translate(0,0)"></path>
<path d="M 1228.36 1123.45 C 1236.23 1122.95 1245.97 1123.34 1254 1123.45 L 1254 1229 C 1259.48 1229.89 1300.08 1229.44 1306.86 1229 C 1306.72 1238.53 1307.57 1246.96 1308.31 1256.44 L 1306.86 1257.19 C 1279.65 1257.11 1251.78 1257.73 1224.67 1257.19 C 1224.45 1225.64 1224.11 1158.63 1225.53 1124.56 C 1225.57 1123.57 1227.06 1123.67 1228.36 1123.45 z" fill="rgb(0,0,0)" transform="translate(0,0)"></path>
<path d="M 1322.49 1123.45 C 1332.8 1123.9 1341.27 1123.75 1351.51 1123.45 L 1351.51 1229 C 1356.76 1229.88 1396.46 1229.48 1402.93 1229 L 1402.93 1257.19 C 1376.13 1257 1349.28 1257.58 1322.49 1257.19 C 1321.74 1214.33 1321.97 1166.4 1322.49 1123.45 z" fill="rgb(0,0,0)" transform="translate(0,0)"></path>
<path d="M 1431.5 1123.45 L 1452 1123.45 C 1452.01 1139.78 1454.35 1252.05 1450.02 1256.98 L 1445.25 1257.19 C 1438.14 1256.98 1430.2 1257.17 1423.01 1257.19 C 1422.45 1220.68 1419.71 1160.03 1423.45 1124.81 C 1426.17 1123.3 1428.13 1123.66 1431.5 1123.45 z" fill="rgb(0,0,0)" transform="translate(0,0)"></path>
<path d="M 1168.56 1123.45 C 1178.43 1123.1 1187.33 1123.25 1197.16 1123.45 L 1197.16 1257.19 C 1188.38 1257.66 1177.5 1257.28 1168.56 1257.19 L 1168.56 1123.45 z" fill="rgb(0,0,0)" transform="translate(0,0)"></path>
<metadata><recraft-signature>{"signed_by": "recraft", "signature_b64": "tkbb2BiCbHphXo9T7fVevsTenalbo8tXlDSjGmXg6WYqkwvr1NhRM3HeUVR8Eobgj1T8toU24Em0BnuPs4tfDg==", "signing_algo": "Ed25519", "generation_timestamp": 1772998972, "identifier": "5ed02c86-7a6f-4e75-b0ff-b0ac640bc714"}</recraft-signature></metadata></svg>