<svg xmlns="http://www.w3.org/2000/svg" height="512" preserveAspectRatio="none" style="display: block;" version="1.1" viewBox="0 0 2048 2048" width="512">
<path d="M 267.276 539.003 C 301.365 538.223 338.534 538.99 372.852 538.992 L 1720.56 538.965 C 1822.55 538.877 1858.32 541.433 1858.36 655.388 L 1858.37 1380.47 C 1858.36 1440.16 1860.54 1496.54 1780.25 1504.04 L 317.793 1504.08 C 233.022 1504.11 189.961 1505.43 190.032 1404.16 L 190.091 675.57 C 190.089 608.593 185.181 548.683 267.276 539.003 z M 1780.25 1460.27 C 1806.64 1454.84 1814.95 1443.17 1814.99 1417.48 L 1815.11 679.993 C 1815.12 644.435 1828.24 583.571 1778.15 584.313 C 1753.57 584.677 1728.89 584.91 1704.3 584.926 L 337.549 584.91 C 327.007 584.906 273.278 583.399 267.276 584.914 C 222.336 588.22 234.497 643.458 234.43 678.645 L 234.331 1401.39 C 234.276 1424.23 229.512 1460.45 263.02 1460.43 L 1697.42 1460.27 C 1723.69 1460.27 1754.29 1461.07 1780.25 1460.27 z" fill="rgb(0,0,0)" transform="translate(0,0)"></path>
<path d="M 1080.14 799.004 C 1106.76 785.766 1158.7 807.635 1172.95 831.043 C 1148.65 876.864 1139.54 843.724 1110.69 837.479 C 981.713 809.566 1023.41 1041.77 1142.27 962.811 C 1141.9 954.554 1142.23 944.266 1142.27 935.86 C 1128.77 934.574 1101.22 937.371 1091.44 932.824 C 1076.57 925.917 1077.24 902.087 1095.96 895.51 C 1104 894.189 1178.47 894.131 1182.57 899.899 C 1187.05 906.205 1189.99 983.081 1178.31 990.082 C 1133.06 1024.83 1055.45 1029.1 1014.89 984.764 C 959.472 924.192 987.864 793.793 1080.14 799.004 z" fill="rgb(0,0,0)" transform="translate(0,0)"></path>
<path d="M 443.5 799.004 C 449.972 798.657 461.556 799.485 464.818 806.44 C 493.06 866.655 515.283 930.414 541.465 991.706 C 553.956 1020.95 528.784 1014.06 509.045 1013.31 C 499.445 1012.95 489.826 979.84 486.134 971.49 L 439.799 971.49 L 397.043 971.49 C 391.558 983.287 386.919 1012.89 370.88 1014.98 C 363.449 1015.95 337.533 1016.75 337.861 1004.4 C 338.12 994.64 414.786 807.141 420.105 802.995 C 426.55 797.972 435.819 798.89 443.5 799.004 z M 408.908 935.86 C 420.015 936.497 432.292 936.035 443.5 935.86 L 472.951 935.86 C 469.6 926.777 442.982 854.582 439.799 851.486 C 427.139 878.581 419.544 908.233 408.908 935.86 z" fill="rgb(0,0,0)" transform="translate(0,0)"></path>
<path d="M 861.583 799.004 C 904.575 797.92 896.227 808.261 912.97 847.683 L 975.425 991.954 C 987.663 1019.88 955.495 1014.61 939.116 1013.42 C 931.147 1012.83 920.939 979.831 917.956 971.49 C 908.785 971.633 899.323 971.5 890.126 971.49 L 829.821 971.49 C 816.389 1000.37 821.105 1023.84 779.196 1014.11 C 768.217 1011.56 771.482 1001.48 774.472 993.866 L 850.835 807.309 C 852.469 803.425 858 800.652 861.583 799.004 z M 842.84 935.86 C 853.316 935.882 863.941 936.002 874.403 935.86 C 884.239 935.72 894.231 935.438 904.046 935.86 C 901.492 926.765 877.862 860.447 874.403 856.502 C 864.065 874.842 851.207 914.046 842.84 935.86 z" fill="rgb(0,0,0)" transform="translate(0,0)"></path>
<path d="M 645.54 799.004 C 691.036 798.47 689.139 834.493 706.707 875.912 L 736.536 946.936 C 743.242 962.711 753.945 986.29 758.203 1002.23 L 757.95 1003.42 C 754.295 1021.16 731.088 1015.3 717.205 1014.2 C 711.846 1003.92 704.96 983.188 700.789 971.49 L 667.587 971.49 C 649.186 971.409 626.957 972.4 609.033 971.49 L 604.408 987.937 C 596.769 1015.02 591.228 1019.08 559.028 1012.54 C 545.725 1009.84 565.149 972.794 569.122 963.009 L 617.865 842.577 C 624.277 826.565 627.354 804.549 645.54 799.004 z M 626.096 935.86 L 656.5 935.86 C 666.221 935.794 676.238 935.594 685.932 935.86 C 682.951 927.872 657.987 857.864 656.5 856.502 C 647.228 876.017 633.04 914.902 626.096 935.86 z" fill="rgb(0,0,0)" transform="translate(0,0)"></path>
<path d="M 961.949 1091.97 C 990.436 1086.14 1019.86 1096.07 1038.99 1117.97 C 1058.12 1139.87 1064.01 1170.36 1054.4 1197.8 C 1044.8 1225.25 1021.19 1245.42 992.578 1250.61 C 949.023 1258.52 907.216 1229.9 898.825 1186.44 C 890.433 1142.97 918.581 1100.85 961.949 1091.97 z M 986.533 1219.57 C 1013.34 1214.86 1031.18 1189.22 1026.28 1162.45 C 1021.37 1135.67 995.593 1118.02 968.857 1123.13 C 942.4 1128.18 924.972 1153.63 929.828 1180.12 C 934.683 1206.62 960.004 1224.23 986.533 1219.57 z" fill="rgb(0,0,0)" transform="translate(0,0)"></path>
<path d="M 677.311 1091.96 C 721.379 1086.12 761.835 1117.12 767.672 1161.18 C 773.508 1205.25 742.516 1245.71 698.448 1251.55 C 654.378 1257.39 613.92 1226.39 608.083 1182.32 C 602.246 1138.25 633.24 1097.79 677.311 1091.96 z M 692.477 1220.82 C 719.294 1218.11 738.798 1194.12 735.987 1167.31 C 733.176 1140.5 709.12 1121.08 682.323 1123.99 C 655.661 1126.88 636.358 1150.79 639.155 1177.47 C 641.952 1204.14 665.795 1223.52 692.477 1220.82 z" fill="rgb(0,0,0)" transform="translate(0,0)"></path>
<path d="M 1409.51 835 C 1435.16 835.331 1463.55 832.036 1483.1 851.777 C 1504.14 873.022 1503.72 913.496 1482.53 934.349 C 1462.83 953.744 1431.56 950.791 1406.29 950.611 L 1406.29 968.25 C 1406.59 980.589 1406.75 991.248 1405.95 1003.55 C 1404.98 1018.57 1374.26 1015.75 1368.17 1010.55 C 1361.5 990.885 1363.68 846.449 1367.77 839.512 C 1370.83 834.323 1402.73 835.201 1409.51 835 z M 1406.29 916.49 C 1419.32 916.473 1440.66 917.959 1451.16 910.452 C 1457.03 902.137 1459.15 891.95 1459.63 881.895 C 1445.79 868.255 1440.77 866.719 1421.25 866.847 L 1406.29 867.021 C 1406.23 883.076 1405.85 900.566 1406.29 916.49 z" fill="rgb(0,0,0)" transform="translate(0,0)"></path>
<path d="M 1221.56 835 L 1261.55 834.879 C 1284.16 834.84 1308.5 833.272 1327.2 849.009 C 1350.62 868.713 1352.18 907.05 1332.58 930.047 C 1316.85 948.51 1299.55 949.01 1277.25 950.611 C 1270.65 950.374 1262.94 950.586 1256.25 950.611 C 1256.05 967.533 1258.44 995.402 1253.85 1010.91 C 1252.79 1014.48 1223.8 1017.15 1216.47 1009.23 C 1214.25 1001.5 1214.96 975.125 1214.96 966.042 L 1214.99 896.749 C 1215 880.782 1209.87 843.87 1221.56 835 z M 1256.25 916.49 C 1269.39 916.806 1286.76 918.47 1297.65 910.452 C 1309.31 893.382 1305.09 882.549 1293.88 867.021 L 1256.25 867.021 C 1257.1 885.162 1257.52 898.164 1256.25 916.49 z" fill="rgb(0,0,0)" transform="translate(0,0)"></path>
<path d="M 1683.23 1090.14 C 1694.15 1088.78 1698.11 1094.23 1703.49 1102.69 L 1703.52 1188.78 C 1703.54 1200.97 1705.79 1233.48 1700.51 1245.05 C 1695.35 1256.37 1673.16 1248.99 1673.59 1237.5 C 1671.67 1212.36 1672.64 1185.24 1672.7 1160.01 C 1655.79 1198.29 1632.9 1276.01 1601.94 1204.77 C 1595.74 1190.5 1587.19 1172.55 1580.97 1156.6 C 1581.02 1168.7 1579.78 1173.76 1580.97 1186.68 C 1581.11 1201.79 1585.73 1241.62 1571.24 1249.68 C 1531.97 1275.61 1550.28 1102.96 1554.3 1095.34 C 1589.18 1076.11 1610.89 1156.49 1627.68 1186.68 C 1636.51 1168.71 1668.68 1096.83 1683.23 1090.14 z" fill="rgb(0,0,0)" transform="translate(0,0)"></path>
<path d="M 493.58 1092.41 C 513.193 1092.41 535.11 1090.86 554.054 1095.4 C 597.202 1105.75 605.511 1168.53 558.561 1191.85 C 563.323 1198.4 575.114 1212.94 580.396 1218.77 C 602.4 1243.06 574.838 1265.7 558.561 1240.48 C 541.853 1225.72 534.306 1207.03 517.981 1193.43 C 505.538 1183.07 512.218 1232.48 509.521 1239.76 C 504.505 1253.29 484.916 1255.32 479.771 1240.5 C 476.248 1230.35 477.075 1124.24 478.178 1108.7 C 478.891 1098.66 484.333 1095.2 493.58 1092.41 z M 511.002 1165.51 C 524.453 1165.85 540.733 1167.91 551.705 1160.01 C 561.131 1149.07 560.309 1137.54 551.705 1126.12 C 539.119 1121.34 524.743 1122.86 511.002 1122.99 C 509.641 1134.69 510.452 1153.44 511.002 1165.51 z" fill="rgb(0,0,0)" transform="translate(0,0)"></path>
<path d="M 1269.07 1092.41 C 1283.11 1090.89 1297.2 1091.99 1311.26 1091.63 C 1359.4 1090.42 1386.32 1157.27 1329.5 1186.68 L 1330.17 1187.74 C 1337.38 1199.22 1372.25 1233.11 1357.59 1245.05 C 1342.84 1257.06 1334.26 1244.8 1325.37 1233.53 C 1317.47 1222.84 1299.73 1200.08 1293.88 1189 L 1282.82 1189 C 1282.8 1202.56 1284.62 1228.87 1280.93 1241.79 C 1276.33 1254.28 1250.27 1252.72 1249.92 1240.22 C 1248.68 1195.73 1250.67 1151.09 1249.99 1106.51 C 1249.8 1093.28 1257.99 1092.26 1269.07 1092.41 z M 1282.82 1160.01 C 1297.17 1159.83 1311.41 1160.23 1325.37 1156.6 C 1330.41 1148.87 1330.39 1143 1329.5 1133.76 C 1316.56 1117.1 1301.57 1120.37 1282.82 1122.99 C 1281.24 1134.87 1281.61 1148.06 1282.82 1160.01 z" fill="rgb(0,0,0)" transform="translate(0,0)"></path>
<path d="M 1142.27 1090.14 C 1197.78 1086.1 1242.97 1134.54 1197.59 1140.11 C 1188.1 1134.87 1181.28 1125.77 1170.39 1122.35 C 1106.34 1102.21 1078.26 1196.85 1137.69 1219.66 C 1161.76 1228.9 1186.38 1211.82 1192.91 1189 L 1147.52 1189 C 1142.11 1178.12 1140.17 1172.78 1147.52 1162.58 C 1151.71 1159.49 1223.95 1151.32 1225.16 1175.19 C 1229.61 1262.85 1107.9 1279.45 1076.82 1202.49 C 1056.87 1153.07 1089.56 1096.62 1142.27 1090.14 z" fill="rgb(0,0,0)" transform="translate(0,0)"></path>
<path d="M 352.525 1092.41 C 380.068 1092.2 414.066 1088.02 436.21 1106.66 C 478.903 1142.6 451.633 1196.04 393.25 1198.48 C 386.855 1198.58 380.395 1198.5 373.993 1198.48 C 378.092 1274.76 343.103 1253.17 342.463 1232.72 C 341.792 1208.63 333.561 1105.28 352.525 1092.41 z M 373.993 1168.99 C 385.999 1169.06 402.695 1169.9 413.753 1165.51 C 444.887 1134.18 406.902 1123.01 379.15 1122.99 C 369.253 1124.49 373.904 1158.7 373.993 1168.99 z" fill="rgb(0,0,0)" transform="translate(0,0)"></path>
<path d="M 1446.89 1090.14 C 1476.66 1089.35 1515.3 1202.68 1526.25 1230.25 C 1529.81 1237.62 1515.36 1280.97 1486.12 1216.5 C 1477.06 1216.92 1468.66 1216.69 1459.63 1216.5 C 1445.64 1216.22 1432.91 1216.08 1418.94 1216.5 C 1393.95 1275.92 1373.92 1244.7 1379.29 1230.78 C 1389.24 1205.02 1427.12 1101.65 1446.89 1090.14 z M 1430.73 1189 L 1451.16 1189 L 1472.67 1189 C 1468.49 1173.97 1460.11 1152.7 1451.16 1140.11 C 1443.79 1155.97 1436.86 1172.61 1430.73 1189 z" fill="rgb(0,0,0)" transform="translate(0,0)"></path>
<path d="M 786.394 1092.41 C 807.047 1090.1 877.906 1085.24 890.126 1102.69 C 889.582 1130.46 872.073 1123.16 849.993 1122.99 C 849.468 1157.25 849.984 1192.88 849.993 1227.25 C 850.696 1256.25 821.95 1258.59 817.945 1234.88 C 816.148 1224.24 816.941 1205.23 816.944 1193.95 L 817.02 1122.99 C 804.896 1122.42 774.692 1127.57 771.946 1113.85 C 769.244 1100.34 773.741 1094.11 786.394 1092.41 z" fill="rgb(0,0,0)" transform="translate(0,0)"></path>
<metadata><recraft-signature>{"signed_by": "recraft", "signature_b64": "DsevaX6cq5liYIvqkNC3gG2KxVBx/EqoWZwDRizYD1TRzmSj7x9j+ZwnDe7KpoqMYBPQ8rmv7poOpZnwNmzuAg==", "signing_algo": "Ed25519", "generation_timestamp": 1772998390, "identifier": "7bbdf365-90f0-4493-a1ba-fa57d1378139"}</recraft-signature></metadata></svg>