<svg xmlns="http://www.w3.org/2000/svg" height="512" preserveAspectRatio="none" style="display: block;" version="1.1" viewBox="0 0 2048 2048" width="512">
<path d="M 354.376 477.977 C 374.242 477.345 397.774 477.955 417.983 477.957 L 1444.74 477.965 C 1557.07 477.962 1528.26 471.617 1607.31 549.844 L 1681.62 623.784 C 1706.22 648.54 1731.22 664.359 1731.51 702.369 L 1731.71 1521.08 C 1731.71 1549.09 1718.38 1560.44 1694.03 1569.97 C 1629.76 1573.26 1556.51 1570 1491.46 1570 L 442.844 1570.01 C 411.911 1570.06 321.651 1582.04 317.725 1536.1 C 315.554 1510.7 316.615 1477.11 316.64 1451.28 L 316.645 521.028 C 316.732 496.052 329.806 481.768 354.376 477.977 z M 418.589 576.185 L 418.589 1470.05 L 1435.5 1470.05 L 1632.55 1470.05 C 1634.05 1395.15 1632.55 1315.34 1632.55 1239.85 L 1632.55 714.656 C 1590.1 673.275 1548.44 630.986 1506.98 588.626 C 1487.21 568.428 1431.01 576.113 1402.56 576.121 L 618.503 576.185 L 418.589 576.185 z" fill="rgb(0,0,0)" transform="translate(0,0)"></path>
<metadata><recraft-signature>{"signed_by": "recraft", "signature_b64": "wsUgAjM4ZpKtZ3h1CCK5md1sea602PirC0JKirlFqWb5GuFzTOsqHskJTGtEZzTsbbOxLJcU/iGbVnaCwKfgAQ==", "signing_algo": "Ed25519", "generation_timestamp": 1772998102, "identifier": "207a8689-5941-4606-878f-dc910808476c"}</recraft-signature></metadata></svg>