<svg xmlns="http://www.w3.org/2000/svg" height="512" preserveAspectRatio="none" style="display: block;" version="1.1" viewBox="0 0 2048 2048" width="512">
<path d="M 647.387 281.336 C 868.227 269.027 966.96 575.906 748.009 681.291 C 913.66 677.234 928.208 714.849 1008.16 849.971 L 1072.2 959.515 C 1086 982.922 1100.24 1006.07 1113.78 1029.69 C 1193.23 1168.29 1002.72 1315.31 893.852 1198.27 C 866.087 1168.43 814.474 1068.17 792.727 1030.22 C 754.323 958.968 854.823 906.612 891.888 967.7 C 904.769 988.928 970.925 1116.65 988.547 1122.7 C 1003.2 1126.58 1011.92 1111.67 1015.28 1099.88 C 1011.45 1089.52 1002.28 1074.59 996.508 1064.57 L 898.342 893.954 C 851.555 812.605 863.352 796.656 758.58 796.656 L 674.5 796.706 L 535.311 796.319 C 473.933 795.674 468.825 811.217 440.975 860.067 L 398.688 934.337 C 368.799 986.806 337.038 1038.37 308.034 1091.39 C 295.705 1110.01 327.89 1133.52 340.165 1117.01 C 371.446 1074.96 392.597 1025.49 420.078 981.025 C 477.377 888.312 557.77 965.715 532.672 1021.31 C 518.656 1051.53 497.44 1078.54 482.811 1108.41 C 465.52 1138.2 449.926 1175.51 425.199 1198.84 C 315.71 1302.21 141.794 1183.36 201.185 1043.97 C 205.817 1033.1 213.727 1022 219.686 1011.68 L 327.034 828.208 C 393.417 713.227 421.281 674.916 569.294 681.291 C 373.211 584.425 423.523 303.479 647.387 281.336 z M 668.547 588.551 C 722.504 583.586 762.193 535.78 757.147 481.83 C 752.101 427.88 704.234 388.263 650.292 393.39 C 596.465 398.506 556.95 446.249 561.985 500.084 C 567.021 553.919 614.704 593.506 668.547 588.551 z" fill="rgb(0,0,0)" transform="translate(0,0)"></path>
<path d="M 1550.65 847.001 C 1669.63 836.091 1753.03 941.063 1732.41 1059.04 C 1779.76 1057.73 1858.08 1050.28 1858.21 1117.76 L 1858.1 1502.74 C 1858.36 1547.15 1864.83 1614.52 1797.06 1613.15 C 1759.16 1612.38 1691.49 1617.46 1657.43 1611.52 C 1590.87 1598.96 1598.89 1497.14 1676.3 1497.43 C 1698.52 1497.51 1720.82 1496.86 1743.02 1497.44 L 1743.02 1384.98 C 1702.11 1422.06 1631.34 1401.01 1623.54 1343.71 C 1614.28 1275.81 1686.74 1237.68 1739.03 1280.11 L 1739.03 1169.42 C 1685.31 1171.52 1612.36 1183.02 1591.61 1122.17 C 1574.66 1074.98 1624.56 1063.91 1622.86 1020.02 C 1620.69 963.881 1559.39 938.698 1520.87 980.907 C 1467.42 1057.88 1583.27 1075.92 1520.71 1147.48 C 1492 1180.31 1422.08 1167.92 1380.99 1169.42 L 1381.15 1228.65 C 1381.38 1323.94 1346.09 1309.18 1271 1310 L 1271 1367 C 1357.68 1368.52 1381.41 1357.79 1380.82 1455.86 L 1380.99 1500.02 C 1404.77 1499.91 1429.14 1500.2 1452.41 1500.52 C 1532.8 1501.66 1526.37 1611.89 1464.64 1612.78 C 1428.4 1613.31 1308.23 1622.28 1282.76 1598.64 C 1255.8 1573.62 1266.9 1519.8 1265.56 1485.21 C 1218.47 1487.07 1148.61 1495.35 1150.12 1426.73 C 1151 1386.82 1148.95 1346.74 1150.02 1306.82 C 1152.84 1201.69 1148.32 1194.44 1260.94 1195.01 L 1260.81 1147.07 C 1260.58 1045.88 1304.84 1057.8 1395.65 1059.04 C 1373.73 946.218 1437.57 861.773 1550.65 847.001 z" fill="rgb(0,0,0)" transform="translate(0,0)"></path>
<path d="M 707.033 1255.94 C 741.848 1253.62 781.015 1259.54 789.578 1300.06 C 815.712 1423.74 842.936 1547.16 873.476 1669.85 C 902.388 1786 783.082 1775.07 765.122 1722.17 C 755.916 1695.05 749.585 1657.76 742.727 1628.87 L 680.566 1361.14 L 639.106 1361.14 L 635.364 1376.4 C 632.874 1395.01 624.519 1425.59 620.372 1445.13 L 571.358 1675.24 C 568.344 1689.79 566.714 1703.83 562.255 1718.31 C 548.449 1763.13 490.786 1777.19 459.822 1740.74 C 432.044 1708.6 454.296 1655.99 462.584 1617.65 L 518.032 1358.91 C 536.11 1270.61 531.447 1255.8 626.229 1255.85 L 707.033 1255.94 z" fill="rgb(0,0,0)" transform="translate(0,0)"></path>
<metadata><recraft-signature>{"signed_by": "recraft", "signature_b64": "9nwt6jzkhBJzGv9hncOCOpIbxV4GnvZjMvDGL5iKkGEQqaztfBT7jH2gZllPKxJKHXE7pysoXlRbs7UHBR/4Ag==", "signing_algo": "Ed25519", "generation_timestamp": 1772990276, "identifier": "2828df95-eeb9-49d4-b8bb-13b625739f51"}</recraft-signature></metadata></svg>