<svg xmlns="http://www.w3.org/2000/svg" height="512" preserveAspectRatio="none" style="display: block;" version="1.1" viewBox="0 0 2048 2048" width="512">
<path d="M 897.539 249.056 C 1068 242.371 1213.96 363.53 1235.87 533.267 C 1257.84 703.476 1137.31 867.839 966.061 890.971 C 941.21 894.328 913.454 893.071 888.109 893.058 L 771.253 892.959 C 742.554 892.917 715.451 891.874 686.969 894.967 C 553.866 909.418 437.294 1015.34 416.97 1148.79 C 399.875 1261.05 491.07 1216.36 527.835 1247.82 C 561.654 1274.34 553.5 1315.08 553.506 1353.53 L 553.475 1548.03 C 553.304 1586.39 549.032 1619.2 583.714 1645.02 C 612.166 1666.47 656.886 1664.18 682.063 1638.72 C 716.786 1603.62 700.551 1540.5 707.609 1494.65 C 745.363 1249.39 1115.54 1271.59 1121.77 1519.4 C 1122.86 1562.9 1112.21 1613.47 1151.28 1642.92 C 1233.87 1705.15 1266.8 1568.4 1347.96 1631.59 C 1379.47 1661.62 1377.91 1704.63 1347.12 1734.43 C 1218.4 1859.03 1005.77 1783.61 985.686 1609.89 C 982.907 1585.85 985.397 1559.35 984.587 1535.08 C 990.745 1435.15 830.595 1409.19 837.413 1556.63 C 851.858 1869 446.307 1865.02 420.137 1607.04 C 417.648 1574.35 418.975 1538.72 418.974 1505.83 L 419.008 1357.94 C 307.44 1329.31 268.645 1233.39 284.331 1129.03 C 309.033 964.679 423.912 833.346 580.996 779.573 C 603.952 771.715 628.328 766.797 652.001 761.366 C 645.861 751.427 639.002 742.14 633.252 731.888 C 513.457 518.303 660.958 275.17 897.539 249.056 z M 931.573 760.394 C 1035.41 752.261 1112.96 661.455 1104.75 557.629 C 1096.53 453.803 1005.67 376.32 901.847 384.614 C 798.141 392.899 720.762 483.644 728.966 587.356 C 737.17 691.067 827.855 768.517 931.573 760.394 z" fill="rgb(30,29,29)" transform="translate(0,0)"></path>
<path d="M 1435.61 872.99 C 1435.68 872.984 1435.75 872.978 1435.81 872.973 L 1678.83 872.86 C 1738.27 872.739 1769.25 888.489 1769.32 955.05 L 1769.32 1506.12 C 1769.38 1526.78 1770.33 1550.67 1768.41 1570.91 C 1762.64 1631.66 1689.31 1624.31 1648.05 1624.1 L 1530.5 1623.97 C 1474.31 1623.82 1387.03 1641.46 1371.46 1566.57 C 1368.99 1554.7 1373 1471.63 1372.98 1453.63 C 1138.19 1415.74 1125.12 1078.87 1372.98 1039.5 L 1372.86 971.352 C 1372.78 921.113 1375.26 884.675 1435.61 872.99 z M 1509.11 1432.25 C 1509.11 1449.34 1509.81 1473.36 1509.11 1489.96 C 1550.28 1490.64 1593.12 1489.95 1634.49 1489.96 L 1634.49 1006.8 L 1557 1006.72 C 1540.12 1006.6 1526.07 1005.74 1509.11 1006.8 C 1507.83 1051.54 1519.72 1122.52 1486.12 1153.47 C 1459.48 1178.01 1435.98 1173.79 1403.72 1171.56 C 1297.78 1168.78 1304.04 1324.91 1401.16 1321.35 C 1494.01 1317.94 1509.03 1343.78 1509.11 1432.25 z" fill="rgb(30,29,29)" transform="translate(0,0)"></path>
<metadata><recraft-signature>{"signed_by": "recraft", "signature_b64": "6FMdkMJP/amaGrJXvO8ErxV6dgjYAnB5GpGPU2+roVVKI44TkamRJR0sU43YLLuEWHJcaRHtK5K3OyZeMwWNCg==", "signing_algo": "Ed25519", "generation_timestamp": 1772989567, "identifier": "781ab70d-8a07-47de-8bdc-e862ec3d1566"}</recraft-signature></metadata></svg>