<svg xmlns="http://www.w3.org/2000/svg" height="512" preserveAspectRatio="none" style="display: block;" version="1.1" viewBox="0 0 2048 2048" width="512">
<path d="M 995.683 288.013 C 1121.1 281.886 1239.02 374.294 1248.49 502.096 C 1249.61 517.193 1248.98 533.686 1249 548.962 C 1256.76 550.034 1267.79 549.138 1275.89 549.101 L 1481.81 548.909 C 1558.36 549.118 1625.78 584.719 1629.34 670.96 C 1632.35 743.913 1630.09 825.48 1629.53 898.704 C 1891.04 903.104 1945.7 1309.88 1629.53 1338.15 C 1628.44 1405.69 1630.38 1474.63 1629.58 1542.27 C 1628.79 1609.31 1641.85 1667.98 1584.11 1716.45 C 1544.87 1749.39 1503.5 1743.04 1455.5 1743.03 L 1204.99 1743.06 C 1186.26 1743.07 1163.09 1744.29 1144.95 1742.29 C 1101.41 1736.76 1076.85 1684.53 1095.5 1646.41 C 1106.25 1624.43 1115.19 1617.75 1118.8 1591.27 C 1138.64 1445.79 912.352 1403.44 891.05 1570.15 C 889.762 1621.8 923.471 1635.5 923.397 1674.3 C 923.266 1743.36 865.2 1743.07 817.081 1743.05 L 421.187 1742.95 C 368.893 1744.88 318.309 1707.65 303.707 1657.52 C 297.64 1636.7 298.988 1614.7 298.984 1592.74 L 298.998 1269.43 C 299.001 1246.67 302.145 1228.81 319.068 1212.29 C 356.535 1175.73 388.692 1208.26 421.731 1221.93 C 503.212 1255.63 596.105 1194.89 596.256 1106.11 C 596.405 1018.29 502.456 962.568 423.812 997.834 C 402.049 1007.59 385.634 1027.59 360.34 1026.25 C 304.414 1024.24 299.02 980.244 299 935.292 L 298.971 672.456 C 299.57 576.526 369.96 548.889 450.984 548.942 L 773.043 548.962 C 774.201 535.016 772.588 519.819 773.402 505.495 C 780.618 378.668 876.075 301.562 995.683 288.013 z M 423.105 673.998 L 423.105 864.282 C 439.198 862.71 455.815 860.315 471.997 860.062 C 599.948 858.065 709.606 955.88 722.892 1083.28 C 741.225 1259.08 589.918 1375.51 423.105 1349.99 L 423.076 1529.71 C 423.071 1555.33 421.923 1591.49 423.105 1616.51 C 462.028 1617.2 503.05 1616.51 542.148 1616.52 L 765.625 1616.51 C 746.698 1522.02 791.768 1431.34 867.925 1376.18 C 1033.95 1269.42 1245.58 1378.28 1249.41 1571.78 C 1249.71 1586.68 1248.25 1601.82 1249 1616.51 C 1333.25 1616.53 1420.06 1617.69 1504.09 1616.51 L 1504.06 1305.36 C 1504.1 1129.73 1628.6 1266.49 1701.84 1172.08 C 1729.9 1135.91 1726.36 1085.84 1694.17 1053.35 C 1631.6 990.162 1504.15 1083.15 1504.04 944.482 L 1504.17 703.491 C 1504.2 694.813 1504.86 682.331 1504.09 673.998 L 1194.02 674.014 C 1164.7 674.001 1135.02 677.582 1113.14 654.672 C 1080.72 621.627 1099.74 593.755 1112.03 560.74 C 1139.65 486.518 1084.52 415.476 1007.8 414.462 L 1006.92 414.455 C 931.849 418.187 882.463 489.616 906.588 560.661 C 910.497 570.767 916.13 580.078 920.35 590.065 C 936.432 628.124 907.564 672.375 866.696 673.693 C 848.858 674.268 830.847 674.047 812.978 674.046 L 423.105 673.998 z" fill="rgb(0,0,0)" transform="translate(0,0)"></path>
<metadata><recraft-signature>{"signed_by": "recraft", "signature_b64": "j5k7joFu3E5eYAFeIJWDzqPJVob5vwQ9OKC2Kn8TbJKZAjgu4k+g8wvG7KxVgwjilipkFHd9S2c8tbPeLpyBCA==", "signing_algo": "Ed25519", "generation_timestamp": 1772990128, "identifier": "536e3803-a993-4523-bc6e-e949d57e901e"}</recraft-signature></metadata></svg>