<svg xmlns="http://www.w3.org/2000/svg" height="512" preserveAspectRatio="none" style="display: block;" version="1.1" viewBox="0 0 2048 2048" width="512">
<path d="M 418.736 487.009 C 420.189 486.842 419.384 486.902 421.381 486.894 L 1565.72 486.977 C 1595.11 486.978 1623.36 485.846 1651.93 494.749 C 1729.61 518.953 1773.33 586.908 1773.61 665.692 L 1773.62 1324.1 C 1773.65 1350.83 1775.54 1386.41 1771.08 1411.96 C 1750.58 1529.41 1661.14 1559.43 1559.44 1559.34 L 1230.28 1559.31 L 1230.28 1422.34 C 1235.76 1421.44 1282.26 1422.31 1290.42 1422.33 L 1561.38 1422.4 C 1648.7 1422.71 1635.72 1409.97 1635.74 1332.97 L 1635.72 1204.92 L 1319.86 1204.99 C 1288.69 1205.05 1264.99 1209.28 1240.76 1186.23 C 1200.76 1148.19 1218.95 1076.82 1275.3 1068.76 C 1291.37 1066.46 1306.52 1067.06 1322.65 1067.05 L 1635.72 1067.06 L 1635.72 751.5 L 1635.89 691.849 C 1635.93 678.179 1636.51 664.945 1634.33 651.387 C 1628.2 613.436 1549.27 624.959 1521.22 624.954 L 446.327 624.461 C 427.989 624.598 413.995 636.894 413.917 655.343 L 413.865 1285.58 C 413.854 1321.11 413.647 1357.15 414.085 1392.68 C 414.616 1435.78 473.082 1422.38 506.24 1422.37 L 1104.9 1422.34 L 1104.9 1559.31 L 499.55 1559.32 C 475.93 1559.34 445.113 1560.24 422.284 1558.01 C 351.467 1551.1 289.564 1490.52 276.314 1421.72 C 273.083 1404.95 273.928 1383.43 273.959 1366.21 L 273.969 683.874 C 273.972 667.812 273.388 649.803 274.975 633.935 C 282.919 554.507 343.88 501.08 418.736 487.009 z" fill="rgb(25,24,25)" transform="translate(0,0)"></path>
<metadata><recraft-signature>{"signed_by": "recraft", "signature_b64": "PD3Aw8NbKN4tsnPJxDJ2m0/AR3I+TwoOh0YpqTpfNXIWr/dGJxli4c+e0p2PvVZJqxJ41MLMbQQK9l0FkZhMDg==", "signing_algo": "Ed25519", "generation_timestamp": 1773000155, "identifier": "bd62c55f-6969-4927-bc22-d7e911e4685a"}</recraft-signature></metadata></svg>