<svg xmlns="http://www.w3.org/2000/svg" height="512" preserveAspectRatio="none" style="display: block;" version="1.1" viewBox="0 0 2048 2048" width="512">
<path d="M 481.43 314.149 L 1473.56 314.14 C 1556.8 314.095 1626.75 303.366 1692.07 366.517 C 1757.65 429.931 1747.75 497.565 1747.7 578.984 L 1747.7 1501.95 C 1747 1611.35 1682.54 1707.54 1564.25 1709.05 L 513.783 1709.13 C 412.818 1709.2 327.304 1665.31 304.334 1557.79 C 297.757 1527 300.383 1495.62 300.421 1464.29 L 300.417 530.209 C 300.412 515.303 299.689 488.663 301.868 474.442 C 316.037 381.978 388.893 320.105 481.43 314.149 z M 1601.03 786.49 C 1573.6 785.758 1543.85 784.646 1516.45 786.49 L 1516.45 1155.16 L 1516.5 1267.84 C 1516.5 1290.32 1518.52 1328.25 1513.24 1348.49 C 1494.11 1421.8 1383.09 1416.75 1372.04 1341.25 C 1369.37 1322.97 1370.97 1298.74 1370.98 1280.24 L 1371.01 786.49 L 703.823 786.394 C 697.311 786.345 685.964 785.813 679.836 786.49 L 679.858 1283.15 C 679.868 1320.3 686.95 1350.29 658.554 1378.38 C 615.889 1420.58 545.954 1397.78 532.875 1340.37 C 529.625 1325.77 531.994 1307.92 531.319 1292.99 L 531.412 906.541 C 531.408 865.568 530.05 821.901 531.423 781.105 C 505.388 781.113 475.482 780.31 449.822 781.105 L 449.809 1507.27 C 449.85 1569.42 471.839 1562.07 527.325 1562.06 L 1560.12 1562.04 C 1616.97 1561.76 1601.05 1478.54 1601.05 1437.84 L 1601.03 786.49 z M 449.822 635.916 L 1545.5 635.916 L 1601.03 635.916 L 1601.09 551.098 C 1601.08 469.742 1602.62 460.925 1510.91 460.975 L 503.718 461.014 C 432.887 463.835 452.385 505.118 449.781 555.95 C 450.385 581.704 448.665 610.747 449.822 635.916 z" fill="rgb(30,30,30)" transform="translate(0,0)"></path>
<path d="M 758.079 1329.9 L 1286.93 1329.9 L 1286.93 1477.04 L 758.079 1477.04 C 757.303 1462.55 758.027 1442.05 758.038 1427.05 L 758.079 1329.9 z" fill="rgb(66,173,241)" transform="translate(0,0)"></path>
<metadata><recraft-signature>{"signed_by": "recraft", "signature_b64": "uVWl1yiW9IWpT5fXt55/jTqv5e/jpJUhDJu9cT2GmvN9yRZnjSQiYiwlUaUUpcHn5WBRSMAeeA0SyMbxC7j2DQ==", "signing_algo": "Ed25519", "generation_timestamp": 1773000146, "identifier": "d71d8a72-06ea-4b8b-b953-245fbf82445a"}</recraft-signature></metadata></svg>