<svg xmlns="http://www.w3.org/2000/svg" height="512" preserveAspectRatio="none" style="display: block;" version="1.1" viewBox="0 0 2048 2048" width="512">
<path d="M 957.018 1008.04 C 990.023 1013.19 1043.47 1007.14 1081.54 1009.28 C 1086.22 1009.55 1092.36 1009.3 1096.9 1008.04 L 1102.52 1010.02 C 1122.67 1017.2 1153.26 1020.59 1175.3 1025.71 C 1405.1 1079.08 1596.06 1260.69 1657.29 1489.02 C 1671.41 1541.63 1682.47 1609.57 1674.22 1663.36 C 1663.37 1734.04 1606.75 1797.22 1536.85 1813.79 C 1504.65 1821.55 1469.07 1818.73 1436.07 1818.71 L 579.997 1818.74 C 439.002 1819.13 355.362 1734.84 371.372 1587.93 C 399.513 1329.7 589.503 1106.69 838.595 1034.9 C 879.036 1023.24 917.056 1018.27 957.018 1008.04 z M 1029.69 1664.07 L 1440.91 1664.09 C 1471.47 1664.1 1524.18 1673.36 1522.24 1625.94 C 1511.91 1372.76 1278.75 1156.16 1024.53 1161.84 L 1019.56 1161.98 C 766.54 1160.69 534.185 1371.24 525.583 1628.14 C 524.07 1673.33 582.684 1664.1 613.352 1664.09 L 1029.69 1664.07 z" fill="rgb(27,32,36)" transform="translate(0,0)"></path>
<path d="M 957.018 1008.04 C 953.336 1006.28 953.903 1007.32 950.625 1006.9 C 876.119 997.426 793.965 949.011 742.689 897.254 C 587.574 740.68 590.392 488.83 746.952 334.281 C 998.629 85.8371 1428.04 271.267 1420.63 627.891 C 1417.16 794.541 1307.21 943.962 1148.81 995.447 C 1130.88 1001.27 1112.18 1003.38 1096.9 1008.04 C 1092.36 1009.3 1086.22 1009.55 1081.54 1009.28 C 1043.47 1007.14 990.023 1013.19 957.018 1008.04 z M 1040.45 864.287 C 1176.4 855.41 1279.26 737.734 1269.87 601.811 C 1260.47 465.887 1142.41 363.478 1006.52 373.386 C 871.363 383.242 769.62 500.538 778.963 635.734 C 788.305 770.93 905.215 873.116 1040.45 864.287 z" fill="rgb(120,179,224)" transform="translate(0,0)"></path>
<metadata><recraft-signature>{"signed_by": "recraft", "signature_b64": "VZ1OrWb/MyIZDMqQGrh0u6/lCdPp1jKPYJ33wz9x1TXzx7N3z/eFaUwUClXaxw5oJz6QRYIr0+Sw9F5S+mpyBg==", "signing_algo": "Ed25519", "generation_timestamp": 1772999787, "identifier": "2db5f787-39f5-4379-8b6d-5222bc3d2b83"}</recraft-signature></metadata></svg>