<svg xmlns="http://www.w3.org/2000/svg" height="512" preserveAspectRatio="none" style="display: block;" version="1.1" viewBox="0 0 2048 2048" width="512">
<path d="M 1754.78 1222.84 L 1800.63 1222.67 C 1877.48 1221.85 1871.89 1249.39 1871.87 1314.35 L 1871.84 1513.85 C 1872.43 1625.58 1857.94 1610.57 1760.43 1610.54 L 221.176 1610.67 C 178.691 1611.63 159.02 1559.99 188.157 1530.14 C 208.283 1509.52 240.044 1514.83 266.904 1514.86 L 1559.75 1514.92 L 1777.53 1514.92 L 1777.53 1318 L 268.604 1318.05 C 238.79 1318.06 211.593 1323.78 187.2 1303.73 C 158.572 1276.88 178.541 1226.6 216.3 1223.43 C 235.241 1222.62 254.256 1222.85 273.184 1222.85 L 1754.78 1222.84 z" fill="rgb(1,1,1)" transform="translate(0,0)"></path>
<path d="M 1020.18 436.561 C 1037.62 441.434 1103.15 482.318 1125.07 492.81 C 1117.85 527.644 1106.98 567.011 1098.45 602.065 L 1042.05 828.879 C 1047.8 827.462 1053.49 825.716 1059.1 823.834 L 1308.36 738.932 C 1327.02 732.819 1355.8 724.875 1372.83 717.383 C 1405.85 732.172 1462.91 763.782 1492.67 783.356 C 1484.15 789.747 1474.86 795.559 1465.92 801.363 C 1373.95 861.041 1282.81 922.511 1191.1 982.527 C 1217.38 1000.42 1247.46 1002.53 1260.13 1038.26 C 1278.29 1089.46 1232.41 1147.55 1177.83 1134.89 C 1165.86 1131.65 1154.99 1124.99 1144.17 1119.37 C 1073.71 1082.78 1004.89 1042.69 934.469 1006.19 C 931.187 1003.62 901.97 988.473 897.323 985.975 L 391.934 708.044 C 359.612 690.035 318.347 678.331 311.597 638.302 C 300.262 571.073 361.816 528.044 421.707 559.865 L 817.957 775.084 C 826.694 779.735 838.433 785.505 846.411 790.999 C 851.145 783.059 858.116 767.5 862.368 758.615 L 984.209 509.077 C 995.86 485.822 1007.82 458.88 1020.18 436.561 z" fill="rgb(1,1,1)" transform="translate(0,0)"></path>
<metadata><recraft-signature>{"signed_by": "recraft", "signature_b64": "nbOpntCScTrkpst2g/Etk1uz9gNtnV04xtg9q9graeX3Y1KkKrQ8ky+lWR4lkyD2pINR8a8jhyGJRmO+BL62Ag==", "signing_algo": "Ed25519", "generation_timestamp": 1772998607, "identifier": "dd830bb5-f5c5-4d7e-8754-786091df1262"}</recraft-signature></metadata></svg>