<svg xmlns="http://www.w3.org/2000/svg" height="512" preserveAspectRatio="none" style="display: block;" version="1.1" viewBox="0 0 2048 2048" width="512">
<path d="M 1490.8 191.462 C 1540.71 191.399 1578.98 229.187 1579.36 279.252 L 1579.57 1698.91 C 1579.59 1740.53 1586.6 1767.67 1556.09 1801.03 C 1509.04 1852.48 1418.39 1822.55 1409.88 1754.6 C 1406.8 1730.06 1408 1701.51 1408 1676.64 L 1408.04 1096.36 L 1026.07 1096.37 C 963.141 1096.37 897.566 1097.38 834.888 1096.36 C 829.071 1112.78 824.085 1131.08 819.059 1147.88 L 648.081 1715.63 C 642.087 1735.81 636.261 1759.14 628.571 1778.56 C 604.699 1838.83 524.388 1847.62 486.207 1795.36 C 452.661 1746.7 487.03 1675.36 502.561 1623.2 L 884.576 356.921 C 894.665 323.651 898.26 296.837 929.654 276.888 C 985.506 240.663 1064.1 284.856 1057.34 352.298 C 1055.81 367.571 1047.32 391.147 1042.75 406.345 L 1011.45 508.482 C 969.399 645.888 919.294 792.147 884.14 930.993 C 902.588 930.439 923.812 930.979 942.468 930.98 L 1408.04 930.993 L 1408.12 330.652 C 1407.96 263.991 1402.37 202.362 1490.8 191.462 z" fill="rgb(0,0,0)" transform="translate(0,0)"></path>
<metadata><recraft-signature>{"signed_by": "recraft", "signature_b64": "BVncnGZ2ipjEddBp/G239pNDXpb7Jj7yL044Pn67by80nRaLsGvVGh+vvRHQSV16ZXlCAYclJULYO42T9zviDQ==", "signing_algo": "Ed25519", "generation_timestamp": 1773000618, "identifier": "62c18ed0-8f6e-4153-adee-0058258624e5"}</recraft-signature></metadata></svg>