<svg xmlns="http://www.w3.org/2000/svg" height="512" preserveAspectRatio="none" style="display: block;" version="1.1" viewBox="0 0 2048 2048" width="512">
<path d="M 891.492 590.286 C 969.458 619.336 1047.46 620.875 1089.73 715.318 C 1099.39 736.895 1105.41 759.496 1117.38 780.098 C 1169.66 879.138 1229.28 911.286 1328.04 941.078 C 1393.79 960.933 1378.98 1062.63 1277.71 1037.88 C 1154.63 1007.79 1057.34 920.241 1008 805.181 L 1007.98 1075.6 C 1007.95 1237.47 1020.03 1379.99 1034.7 1541.55 L 1042.35 1630.55 C 1044.01 1649.54 1045.73 1668.38 1046.97 1687.49 C 1051.12 1751.88 982.092 1792.86 927.652 1757.67 C 890.897 1733.91 893.031 1696.92 889.817 1657.64 L 860.436 1345.04 C 856.767 1308.68 853.306 1261.06 847.628 1226 L 783.345 1226 C 782.385 1238.25 781.246 1245.92 783.345 1258.23 C 777.946 1277.03 778.085 1291.09 776.535 1310.44 L 752.93 1615.43 C 749.535 1660.72 754.447 1716.61 719.995 1749.21 C 669.422 1797.07 587.141 1759.28 590.578 1689.71 C 591.327 1673.59 592.84 1656.84 594.129 1640.4 L 618.433 1340.96 C 623.712 1268.47 625.016 1203.82 625.031 1130.96 L 625.02 896.782 C 625.005 864.349 623.349 819.511 624.999 788.522 C 570.847 844.24 549.228 930.897 564.67 1006.16 C 569.994 1032.11 580.933 1061.25 587.784 1087.41 C 610.622 1166.37 523.563 1187.62 495.326 1139.07 C 479.391 1111.67 453.382 1001.63 451.509 973.39 C 442.428 827.302 530.045 666.273 669.806 612.403 C 695.038 602.611 719.194 596.797 745.274 590.286 C 783.58 609.633 852.489 603.223 891.492 590.286 z" fill="rgb(0,0,0)" transform="translate(0,0)"></path>
<path d="M 1181.03 1422.97 C 1192.3 1423.58 1212.25 1422.93 1224 1422.95 L 1592.58 1422.97 C 1581.55 1470.15 1579.33 1566.13 1574.85 1617.06 C 1573.49 1632.54 1572.51 1665.87 1568.49 1679.37 C 1551.74 1710.26 1513 1701.52 1481.77 1701.53 L 1277.15 1701.54 C 1201.81 1701.96 1214.5 1678.92 1206.13 1611.27 L 1191.61 1499.58 C 1188.55 1474.89 1186.38 1446.92 1181.03 1422.97 z" fill="rgb(0,0,0)" transform="translate(0,0)"></path>
<path d="M 800.789 276.535 C 881.636 266.644 955.28 323.941 965.568 404.74 C 975.856 485.538 918.92 559.462 838.173 570.146 C 756.864 580.904 682.313 523.485 671.954 442.125 C 661.594 360.764 719.378 286.495 800.789 276.535 z" fill="rgb(0,0,0)" transform="translate(0,0)"></path>
<path d="M 1213.12 1291.34 C 1231.43 1290.26 1262.09 1291.27 1281.37 1291.29 L 1519.07 1291.25 C 1568.14 1291.25 1604.9 1283.36 1597.65 1349.02 C 1595.63 1367.38 1595.8 1386.67 1592.58 1406 C 1583.19 1405.77 1574.63 1405.82 1565.25 1406 L 1181.03 1406 C 1181.11 1362.82 1161.78 1298.27 1213.12 1291.34 z" fill="rgb(0,0,0)" transform="translate(0,0)"></path>
<path d="M 1387.14 996.746 C 1390.5 997.921 1400.64 1014.89 1402.58 1018.87 C 1459.24 1124.59 1332.57 1149.12 1387.14 1251.03 C 1376.48 1248.86 1368.14 1245.83 1356.48 1243.76 C 1332.7 1225.04 1308.71 1207.95 1305.16 1173.92 C 1296.95 1094.99 1399.67 1100.75 1387.14 996.746 z" fill="rgb(0,0,0)" transform="translate(0,0)"></path>
<path d="M 1467.69 996.746 C 1470.97 998.963 1479.98 1011.16 1482.76 1014.77 C 1587.94 1151.42 1461.42 1161.78 1449.33 1243.76 C 1449.17 1247.31 1449.3 1251.34 1449.33 1254.94 C 1436.64 1246.73 1424.45 1235.75 1420.85 1220.51 C 1402.94 1144.67 1514.77 1151.34 1467.69 996.746 z" fill="rgb(0,0,0)" transform="translate(0,0)"></path>
<metadata><recraft-signature>{"signed_by": "recraft", "signature_b64": "hiE0iKApF+ysqVJyK4QgacsxizPAl17NbkKDlC6vfYesC9CmPcnuS7BgeUQ7zOMDnNj6Kd8Y+HgL2Ch93/nOAw==", "signing_algo": "Ed25519", "generation_timestamp": 1772996820, "identifier": "7456a1f1-a2fb-4174-bb5d-44ac54884206"}</recraft-signature></metadata></svg>