<svg xmlns="http://www.w3.org/2000/svg" height="512" preserveAspectRatio="none" style="display: block;" version="1.1" viewBox="0 0 2048 2048" width="512">
<path d="M 279.002 282.002 L 945.998 282.002 L 945.998 811.2 C 1022.9 812.097 1101.69 811.217 1178.7 811.211 L 1638.04 811.2 L 1638.04 282.002 C 1666.12 285.085 1740.9 283.526 1769.75 282.002 L 1769.75 943.003 L 945.998 943.003 L 945.998 1103.88 L 1769.75 1103.88 C 1768.16 1141.3 1769.75 1189.86 1769.75 1228.49 L 1769.75 1483.25 L 1769.75 1765.49 L 1638.04 1765.49 L 1638.04 1234 L 945.998 1234 L 945.998 1765.49 C 921.623 1766.24 894.147 1765.5 869.481 1765.49 L 279.002 1765.49 L 279.011 1323.73 C 279.01 1251.34 277.872 1175.93 279.002 1103.88 L 814.59 1103.88 L 814.59 943.003 C 801.148 944.279 786.741 942.967 773.069 943.09 L 279.002 943.003 L 279.007 354.65 C 279.002 331.013 278.35 305.372 279.002 282.002 z M 411.49 811.2 L 814.59 811.2 L 816.094 810.494 C 814.01 789.407 814.551 770.205 814.551 749.087 L 814.59 413.045 L 455.518 413.014 C 442.023 413.011 424.675 412.474 411.49 413.045 C 410.931 414.136 411.495 478.223 411.492 484.156 L 411.476 702.643 C 411.471 735.666 410.094 779.394 411.49 811.2 z M 411.49 1631.4 L 649.53 1631.4 C 703.291 1631.4 761.191 1632.55 814.59 1631.4 L 814.515 1270.56 C 814.499 1263.64 813.844 1239.61 814.59 1234 L 411.49 1234 L 411.49 1631.4 z" fill="rgb(0,0,0)" transform="translate(0,0)"></path>
<metadata><recraft-signature>{"signed_by": "recraft", "signature_b64": "jfCEnyySKo+MQkx1m3ANeDW4Hp5R3doPBhC8Fn4tSfJE6BaN3RTaBv0ZT5ULZzWHzsM21z9Ku2QQ4SNuEmV1AQ==", "signing_algo": "Ed25519", "generation_timestamp": 1772996772, "identifier": "82b8b616-8ead-4d80-923a-f9973a6c034c"}</recraft-signature></metadata></svg>