<svg xmlns="http://www.w3.org/2000/svg" height="512" preserveAspectRatio="none" style="display: block;" version="1.1" viewBox="0 0 2048 2048" width="512">
<path d="M 1613.75 274.695 L 1665.46 274.579 C 1726.64 273.91 1772.7 283.062 1773 354.494 L 1773.04 1663.2 C 1773.08 1755.81 1756.4 1772.34 1663.66 1772.34 L 434.75 1772.31 L 383.036 1772.39 C 333.49 1772.42 274.278 1766.15 273.716 1699.51 L 273.829 389.302 C 273.511 293.419 285.965 274.598 383.859 274.634 L 1613.75 274.695 z M 429 1618.37 L 896.669 1618.32 C 906.536 1618.3 938.788 1617.48 947.018 1618.37 L 946.982 1154.37 C 946.904 1134.08 945.606 1115.33 947.018 1094.99 L 429 1094.99 L 429 1618.37 z M 1103 1618.37 C 1120.39 1619.03 1140.49 1618.4 1158.14 1618.39 L 1618.81 1618.37 C 1619.32 1615.19 1618.75 1583.85 1618.76 1577.92 L 1618.81 1094.99 C 1562.06 1094.23 1503.37 1095 1446.49 1095 L 1103 1094.99 C 1102.05 1152.12 1103.01 1212.33 1103.01 1269.64 L 1103 1618.37 z M 1227.99 430.475 L 1103 430.475 L 1103 938.404 L 1490.75 938.404 L 1618.81 938.404 L 1618.81 430.475 L 1227.99 430.475 z M 834.909 938.404 L 909.011 938.334 C 919.866 938.322 936.667 937.735 947.018 938.404 L 947.018 430.475 L 542.984 430.475 L 429 430.475 L 429 938.404 L 834.909 938.404 z" fill="rgb(0,0,0)" transform="translate(0,0)"></path>
<metadata><recraft-signature>{"signed_by": "recraft", "signature_b64": "SPgPH76RAnoRgtSrSxkOMMbTcnjaCo1aK6YsGIPpGC46zsLJL/NWmQqftFV8DTyt6Aj4zKHjQQ3QQXsKjQo9Ag==", "signing_algo": "Ed25519", "generation_timestamp": 1772996484, "identifier": "7ad02025-5194-4600-886c-5ac12ec4a7f0"}</recraft-signature></metadata></svg>