<svg xmlns="http://www.w3.org/2000/svg" height="512" preserveAspectRatio="none" style="display: block;" version="1.1" viewBox="0 0 2048 2048" width="512">
<path d="M 996.036 330.5 C 1068.21 323.386 1135.73 376.01 1148 446.833 C 1151.35 466.145 1150.59 491.879 1150.59 511.621 L 1150.6 1506.35 C 1150.62 1596.43 1153.78 1692.28 1034.15 1710.83 C 974.833 1720.03 941.8 1697.45 896.856 1664.51 L 833.68 1617.35 C 769.76 1569.63 705.011 1520.89 640.534 1474.21 C 590.719 1438.23 612.267 1443.24 548.405 1443.19 L 440.125 1443.23 C 420.23 1443.23 399.792 1443.7 380.082 1442.81 C 307.004 1439.53 247.239 1372.71 247.585 1300.28 L 247.578 804.38 C 247.542 777.523 246.14 746.952 250.346 720.846 C 258.443 664.732 315.022 609.243 372.593 606.327 C 444.674 602.676 519.628 606.586 592.142 605.026 C 611.122 593.192 640.92 567.567 660.646 553.056 L 858.038 406.359 C 902.575 373.187 938.112 336.076 996.036 330.5 z M 699.691 727.63 C 698.909 747.16 699.672 771.427 699.679 791.406 L 699.691 1317.56 C 740.566 1347.5 782 1376.99 822.455 1407.45 C 876.91 1448.14 930.25 1487.35 986.059 1526.27 L 986.067 587.477 C 986.069 578.545 988.494 523.691 986.059 520.638 C 957.371 538.965 927.224 561.481 899.515 581.51 L 781.268 667.247 C 759.016 683.551 718.409 708.803 699.691 727.63 z M 413.33 1278.01 L 534.233 1278.01 L 535.924 1277.23 C 535.692 1265.33 534.226 1253.67 534.213 1241.37 L 534.233 767.505 L 413.33 767.505 L 412.005 768.464 C 414.205 786.94 413.365 817.139 413.368 836.507 L 413.348 1165.91 C 413.355 1202.78 413.919 1241.24 413.33 1278.01 z" fill="rgb(32,31,31)" transform="translate(0,0)"></path>
<path d="M 1627.7 671.304 C 1680.58 667.183 1695.76 696.661 1719.55 735.336 C 1837.2 926.636 1831.09 1149.98 1702.38 1337.24 C 1686.62 1360.16 1673.8 1370.76 1645.89 1376.83 C 1607.7 1382.15 1570.27 1358.23 1557.64 1321.66 C 1543.7 1281.29 1559.51 1253.96 1582.49 1221.83 C 1660.59 1112.67 1653.77 950.215 1591.63 835.397 C 1580.69 812.559 1561.48 790.394 1557.6 764.85 C 1549.92 714.32 1579.81 679.342 1627.7 671.304 z" fill="rgb(32,31,31)" transform="translate(0,0)"></path>
<path d="M 1401.56 795.372 C 1421.56 791.91 1448.57 801.643 1464.27 814.19 C 1500.28 842.957 1494.14 881.898 1494.14 923.25 L 1494.16 1124.29 C 1494.2 1180.05 1491.27 1240.96 1417.25 1247.58 C 1330.84 1253.82 1324.99 1181.66 1324.96 1116.64 L 1324.97 913.93 C 1325.01 855.925 1326.3 805.522 1401.56 795.372 z" fill="rgb(32,31,31)" transform="translate(0,0)"></path>
<metadata><recraft-signature>{"signed_by": "recraft", "signature_b64": "BohZPvfAAZ08NRH7wBXfY7+lf+j96MPCsQqPYD1NBWRHcLxLvcYnEtiRtznzNRfYmv1eXivsBiznDcNjz5lwBg==", "signing_algo": "Ed25519", "generation_timestamp": 1772989273, "identifier": "eba4b1be-8554-4c61-8ee0-550509207b9e"}</recraft-signature></metadata></svg>