<svg xmlns="http://www.w3.org/2000/svg" height="512" preserveAspectRatio="none" style="display: block;" version="1.1" viewBox="0 0 2048 2048" width="512">
<path d="M 363.153 293.003 C 363.428 292.986 363.702 292.968 363.977 292.95 L 1622.44 292.975 C 1642.97 292.976 1664.76 292.717 1685.11 293.401 C 1766.05 296.124 1752 401.296 1751.97 455.612 L 1751.94 1622.82 C 1751.96 1645.79 1752.7 1670.46 1751.27 1692.91 C 1747.57 1750.77 1676.25 1773.54 1630.18 1728.48 L 993.901 1094.78 C 981.175 1082.31 966.897 1069.72 955.34 1055.68 C 916.186 1008.11 946.828 936.557 1009.29 935.001 C 1048.75 934.018 1081.84 977.56 1108.2 1003.74 L 1229.14 1124.52 C 1255.48 1151.53 1282.15 1176.67 1308.73 1203.31 L 1557.28 1452.82 C 1572.05 1467.58 1591.5 1488.19 1607.02 1501.18 L 1607.02 437.169 L 441.228 437.169 L 441.205 1102.2 C 441.21 1128.47 442.425 1156.27 440.813 1181.87 C 434.743 1265.02 298.074 1290.75 298.042 1158 L 298.015 419.674 C 297.961 364.858 288.664 305.17 363.153 293.003 z" fill="rgb(0,0,0)" transform="translate(0,0)"></path>
<metadata><recraft-signature>{"signed_by": "recraft", "signature_b64": "2Zssuj7jEABBca6Tlbxeq3986uJRhed0MD+/fc62FAIKm9lMpG0v1tlQ2uaHq7/RhSx3TLcE5/WZGgKciTLWCA==", "signing_algo": "Ed25519", "generation_timestamp": 1772997844, "identifier": "de2b53b1-1f06-40db-8b97-22648169fd85"}</recraft-signature></metadata></svg>