<svg xmlns="http://www.w3.org/2000/svg" height="512" preserveAspectRatio="none" style="display: block;" version="1.1" viewBox="0 0 2048 2048" width="512">
<path d="M 312.091 1249.03 C 326.825 1248 357.253 1249.02 372.949 1249.03 L 1732.72 1248.62 C 1804.89 1248.1 1813.26 1352.16 1738.25 1365.01 C 1707.47 1365.68 1674.47 1365 1643.53 1364.98 L 313.557 1364.86 C 243.392 1364.22 233.951 1259.87 312.091 1249.03 z" fill="rgb(50,46,46)" transform="translate(0,0)"></path>
<path d="M 312.091 668.51 C 329.664 667.496 359.733 668.496 378.29 668.499 L 1638.05 668.51 C 1668.98 668.477 1699.86 668.237 1731.1 668.717 C 1804.15 669.839 1812.13 771.179 1738.25 784.105 C 1725.38 785.277 1693.33 784.154 1678.85 784.132 L 415.021 784.127 C 382.973 784.126 350.471 784.396 318.456 783.751 C 242.888 780.576 237.343 675.374 312.091 668.51 z" fill="rgb(50,46,46)" transform="translate(0,0)"></path>
<metadata><recraft-signature>{"signed_by": "recraft", "signature_b64": "kn3U4IvoqXbgaq2UzfxEqJ2Q7IwNfaRMxUH+Y6dJAT8OOnK9bH01jjZy/FJ6agTx2FRes7K64hZ0PeB/EirSBA==", "signing_algo": "Ed25519", "generation_timestamp": 1773000416, "identifier": "9e9a003b-9b53-4a75-ab8b-5d45422e0a78"}</recraft-signature></metadata></svg>