<svg xmlns="http://www.w3.org/2000/svg" height="512" preserveAspectRatio="none" style="display: block;" version="1.1" viewBox="0 0 2048 2048" width="512">
<path d="M 1370 678.698 L 1739.67 678.631 C 1776.93 678.501 1821.15 672.914 1821.08 725.91 L 1821.07 1248.04 C 1821.37 1325.89 1836.95 1353.08 1743.53 1353.03 L 679.75 1352.98 L 316.021 1353.05 C 280.048 1353.07 226.995 1358.74 226.433 1309.07 C 225.977 1268.75 226.18 1228.38 226.182 1188.05 L 226.161 796.142 C 226.153 770.083 225.689 742.626 226.817 716.595 C 228.698 673.199 279.718 678.693 309.857 678.69 L 1370 678.698 z M 595.508 1321 L 1466.03 1321.02 C 1503.7 1321.02 1778.92 1322.92 1787.37 1319.26 C 1790.72 1307.97 1789.15 1280.19 1789.14 1266.5 L 1789.11 816.211 C 1789.12 802.234 1791.32 721.379 1788.11 713.957 C 1783.81 704.01 1717.44 709.657 1705.68 709.658 L 1457.49 709.652 L 410.474 709.634 C 388.961 709.635 269.696 705.493 258.657 713.746 C 255.812 720.034 256.995 815.616 256.997 831.107 L 256.878 1305.21 C 256.8 1321.79 265.736 1321.2 279.671 1321.19 L 595.508 1321 z" fill="rgb(0,0,0)" transform="translate(0,0)"></path>
<path d="M 405.005 890.993 C 440.672 892.175 482.062 887.516 516.55 894.298 C 575.159 905.822 593.168 983.821 528.303 1018.09 C 570.231 1034.23 583.412 1070.34 567.104 1112.14 C 550.262 1160.54 501.066 1159.05 458.684 1159.05 L 405.005 1158.99 C 404.235 1130.63 404.983 1098.5 404.988 1069.89 L 405.005 890.993 z M 512.515 1109.93 C 522.951 1097.86 524.192 1089.66 523.1 1073.97 C 520.499 1036.58 481.452 1037.96 453.944 1039.07 L 453.944 1120.98 C 474.259 1121.4 495.559 1122.83 512.515 1109.93 z M 453.944 1000.98 C 471.331 1001.16 496.183 1003.73 509.403 991.079 C 513.758 985.309 516.509 981.291 517.723 973.871 C 525.348 927.29 485.577 930.71 453.944 931.004 L 453.944 1000.98 z" fill="rgb(0,0,0)" transform="translate(0,0)"></path>
<path d="M 666.282 890.993 L 726.98 890.993 C 727.124 913.095 736.43 941.931 741.712 964.454 L 773.262 1096.47 C 777.83 1115.39 785.717 1140.33 784.712 1158.99 L 736.844 1158.99 C 733.195 1144.2 729.965 1125.15 726.98 1109.93 L 718.655 1109.93 L 655.191 1109.93 C 651.421 1122.2 645.314 1146.7 644.793 1158.99 C 628.708 1158.99 611.476 1158.37 595.508 1158.99 C 601.149 1126.74 611.047 1092.91 618.858 1060.83 L 659.569 892.599 C 661.895 890.635 662.51 891.277 666.282 890.993 z M 690.5 1068.96 L 718.655 1068.96 C 715.444 1041.35 700.385 966.385 690.5 937.942 C 684.056 977.945 671.065 1028.7 661.983 1068.96 C 671.556 1069.07 680.932 1069.05 690.5 1068.96 z" fill="rgb(0,0,0)" transform="translate(0,0)"></path>
<path d="M 1634.74 890.993 L 1635.88 891.557 C 1635.46 897.402 1632.21 908.703 1630.76 915.289 L 1574.57 1158.99 L 1514.75 1158.99 C 1504.64 1122.71 1496 1079.99 1487.8 1043.04 L 1463.45 937.942 C 1462.16 926.387 1456.76 903.234 1454.3 890.993 L 1504.98 890.993 L 1530.31 1017.93 C 1536.43 1047.96 1543.99 1079.9 1548.42 1109.93 C 1557.37 1040.18 1572.53 960.164 1587.07 890.993 C 1602.45 891.14 1619.89 889.799 1634.74 890.993 z" fill="rgb(0,0,0)" transform="translate(0,0)"></path>
<path d="M 784.712 890.993 L 940.998 890.993 L 940.998 937.942 L 889.002 937.942 L 889.002 1106.5 L 889.002 1158.99 C 872.813 1158.61 855.364 1158.96 839.08 1158.99 L 839.08 937.942 C 823.003 938.712 801.224 937.986 784.712 937.942 L 784.712 890.993 z" fill="rgb(0,0,0)" transform="translate(0,0)"></path>
<path d="M 1092 890.993 L 1142 890.993 L 1142 1112.14 L 1235 1112.14 L 1235 1158.99 C 1220.28 1159.79 1201.28 1159.06 1186.06 1159.04 L 1092 1158.99 C 1092.91 1070.28 1091.95 979.842 1092 890.993 z" fill="rgb(0,0,0)" transform="translate(0,0)"></path>
<path d="M 1247.47 890.993 C 1265.64 890.295 1282.34 890.878 1300.46 890.993 C 1311.82 978.23 1333.38 1072.07 1349.64 1158.99 L 1300.46 1158.99 C 1297.87 1149.63 1294.58 1127.39 1292.57 1116.92 L 1262.11 964.218 C 1257.13 940.116 1251.46 915.198 1247.47 890.993 z" fill="rgb(0,0,0)" transform="translate(0,0)"></path>
<path d="M 1395.34 890.993 L 1443.18 890.993 C 1435.89 922.292 1432 954.674 1425.64 986.326 L 1409.67 1067.84 C 1404.15 1095.72 1397.02 1130.98 1395.34 1158.99 L 1395.16 1159.33 C 1393.15 1160.5 1355.36 1159.03 1349.64 1158.99 C 1350.31 1148.76 1353.61 1138 1355.28 1127.78 L 1395.34 890.993 z" fill="rgb(0,0,0)" transform="translate(0,0)"></path>
<path d="M 984.424 973.997 C 1001.18 973.999 1018.01 973.598 1034.76 973.997 L 1034.76 1158.99 L 984.424 1158.99 L 984.424 973.997 z" fill="rgb(0,0,0)" transform="translate(0,0)"></path>
<path d="M 984.424 890.993 C 1001.11 891.068 1018.13 890.388 1034.76 890.993 L 1034.76 937.942 C 1020.82 938.741 998.973 937.975 984.424 937.942 C 983.765 923.471 984.32 905.63 984.424 890.993 z" fill="rgb(0,0,0)" transform="translate(0,0)"></path>
<metadata><recraft-signature>{"signed_by": "recraft", "signature_b64": "knDQVtM4nx3q1cWUobtfkp/aTZmViPk5xPquW/itNSU2p78QrE4B8nwdbr4U3F6/S7vp5RvJwrVrB4j1YJroAA==", "signing_algo": "Ed25519", "generation_timestamp": 1772996987, "identifier": "c10cdcdc-1038-45a0-bfd5-7370d0c1be9e"}</recraft-signature></metadata></svg>