<svg xmlns="http://www.w3.org/2000/svg" height="512" preserveAspectRatio="none" style="display: block;" version="1.1" viewBox="0 0 2048 2048" width="512">
<path d="M 601.751 246.436 L 1421.51 246.422 C 1510.08 246.427 1595.3 241.768 1612.54 351.517 C 1638.12 514.407 1660.59 677.831 1687.4 840.534 C 1702.61 934.539 1647.53 928.006 1573.67 928.01 L 1447.13 927.961 L 451.454 928.037 C 415.401 928.41 354.377 930.651 355.742 876.021 C 356.415 849.097 363.893 817.655 368.333 790.549 L 395.423 622.036 C 407.578 547.872 418.465 473.447 432.172 399.52 C 455.966 271.18 459.73 246.864 601.751 246.436 z M 477.216 812.921 L 1493.16 812.921 L 1567.25 812.921 C 1562.73 774.583 1555.72 734.8 1549.75 696.58 L 1525.15 533.158 C 1516.42 478.545 1504.93 413.635 1498.33 359.101 L 662.44 359.089 C 627.894 359.087 585.658 357.931 551.833 359.101 L 487.548 752.293 C 484.263 772.277 480.102 793.003 477.216 812.921 z" fill="rgb(0,0,0)" transform="translate(0,0)"></path>
<path d="M 604.751 1122.3 L 1479.53 1122.19 C 1600.68 1121.86 1602.9 1186.17 1617.96 1281.39 L 1676.38 1643.89 C 1685.33 1697.77 1717.33 1799.14 1627.75 1799.77 L 1447.13 1799.93 L 450.378 1799.99 C 436.015 1799.99 422.083 1800.08 407.73 1799.16 C 331.904 1794.31 362.231 1696.97 369.506 1649.83 L 399.132 1461.92 C 412.618 1376.02 425.359 1288.66 440.607 1202.98 C 454.523 1124.77 545.308 1122.22 604.751 1122.3 z M 551.833 1233.43 C 545.859 1250.83 543.758 1268.28 540.936 1286.42 L 498.427 1560.44 C 491.978 1602.4 485.418 1647.57 477.216 1689.01 L 1297.5 1689.01 L 1570.8 1689.01 L 1505.61 1278.39 C 1503.35 1264.99 1501.35 1246.13 1498.33 1233.43 L 756.748 1233.43 L 551.833 1233.43 z" fill="rgb(0,0,0)" transform="translate(0,0)"></path>
<metadata><recraft-signature>{"signed_by": "recraft", "signature_b64": "4wWpKnfLjWe54vrXXLaxDIR7sB526S4Tss2PDOam+e4t1RStOw1l62UDIMqFG0Uwis2hmuVUZd3lxU8PlQ1HCA==", "signing_algo": "Ed25519", "generation_timestamp": 1772996745, "identifier": "5d3566cb-2fef-438c-ac84-823595ae19c1"}</recraft-signature></metadata></svg>