<svg xmlns="http://www.w3.org/2000/svg" height="512" preserveAspectRatio="none" style="display: block;" version="1.1" viewBox="0 0 2048 2048" width="512">
<path d="M 971.334 297.868 C 1018.19 294.951 1155.62 312.911 1194 344.753 C 1224.67 321.506 1247.34 304.149 1288.29 302.903 C 1405.72 299.33 1467.57 435.62 1376.94 530.727 C 1405.35 582.002 1422.53 644.934 1428.98 703.016 C 1434.94 756.707 1422.98 745.459 1452.35 792.764 C 1555.03 958.195 1658.36 1227.31 1575.52 1420.18 C 1611.44 1437.12 1662.91 1456.01 1674.16 1498.5 C 1697.66 1587.27 1587.5 1612.94 1523.98 1630.06 C 1526.18 1649.11 1528.14 1664.08 1522.55 1682.93 C 1513.51 1713.41 1481.43 1745.27 1447.61 1745.62 C 1389.26 1745.92 1330.15 1746.6 1271.85 1745.66 C 1215.91 1744.75 1161.75 1699.33 1136.95 1650.9 C 1109.23 1658.11 1078.93 1658.39 1054.23 1664.93 C 1037.27 1662.69 1003.09 1665.39 983.103 1664.84 C 936.139 1663.55 898.268 1657.81 851.945 1650.9 C 801.087 1754.33 733.348 1745.27 637.963 1745.9 C 604.56 1746.11 567.657 1748.04 534.766 1742.4 C 489.266 1731.61 459.846 1678.41 473.788 1633.6 C 483.732 1601.64 501.179 1590.5 528.895 1574.65 C 402.909 1483.84 357.941 1343.54 376.329 1191.22 C 391.719 1063.74 456.463 917.951 517.509 807.89 C 553.619 742.785 544.82 755.744 555.136 684.612 C 562.9 631.078 578.524 578.582 603.704 530.727 L 594.006 518.647 C 517.881 422.928 584.016 290.71 703.003 303.266 C 731.227 306.245 763.94 321.898 781.806 344.753 C 829.595 315.315 915.035 299.183 971.334 297.868 z M 691.314 512.488 C 687.513 524.998 679.585 533.731 673.141 544.93 C 644.435 594.812 627.813 651.454 621.582 708.515 C 614.581 772.628 622.051 751.206 597.09 810.259 C 623.45 819.424 673.876 855.39 700.166 871.019 C 715.63 880.213 702.349 900.702 689.196 894.07 C 653.287 875.964 621.414 846.525 584.028 831.894 C 574.517 845.56 567.901 860.664 559.395 874.912 C 494.389 983.808 428.497 1180.14 445.752 1310.12 C 473.312 1517.73 640.856 1534.99 646.746 1573.51 C 656.517 1631.61 538.175 1622.6 539.67 1658.92 C 540.096 1669.28 553.255 1674.53 562.134 1674.52 C 619.582 1674.45 744.454 1692.57 779.571 1639.17 C 824.269 1571.29 755.375 1418.75 724.324 1356.22 C 716.84 1341.15 697.257 1312.99 693.309 1298.47 C 682.998 1260.57 733.525 1236.36 757.004 1275.46 C 808.03 1360.44 861.991 1479.75 861.196 1581.04 C 903.49 1584.45 941.635 1593.08 986.266 1594.12 C 1030.34 1594.39 1079.53 1589.22 1122.96 1581.04 C 1122.51 1517.3 1147.85 1434.99 1173.31 1377.12 C 1181.88 1357.64 1221.03 1277.24 1234.68 1263.58 C 1254.98 1243.27 1297.7 1257.27 1295.14 1287.65 C 1293.81 1303.41 1258.96 1360.6 1249.34 1379.95 C 1222.57 1433.76 1185.63 1541.99 1194.4 1601.15 C 1207.09 1686.65 1304.84 1675.03 1366.24 1674.85 C 1381.59 1674.81 1438.78 1679.96 1449.82 1671.15 C 1457.51 1665.01 1457.71 1651.57 1450.69 1644.94 C 1439.3 1634.18 1345.1 1628.77 1342.85 1583.09 C 1341.69 1559.7 1367.48 1550.84 1383.75 1540.73 C 1616.03 1396.47 1538.84 1115.54 1439.48 913.064 C 1425.83 885.256 1408.99 859.242 1394.57 831.894 C 1301.37 922.689 1280.21 878.036 1306.2 865.303 C 1334.9 851.248 1356.8 829.177 1381.62 810.259 C 1361.4 782.828 1364.34 766.843 1362.25 735.035 C 1357.57 663.835 1336.93 592.728 1298.86 532.136 C 1281.67 504.759 1297.05 500.294 1320.38 489.18 C 1393.63 444.182 1329.26 340.09 1256.17 384.98 C 1236.6 396.998 1233.01 429.624 1206.73 425.631 C 1191.28 422.112 1168.11 406.857 1151.97 400.058 C 1086.56 372.519 1033.37 365.127 963.067 366.989 C 904.519 373.579 853.527 383.131 801.188 412.25 C 756.514 437.104 764.309 430.884 740.904 397.723 C 678.274 321.725 580.37 424.736 653.979 483.523 C 668.891 495.432 684.236 490.398 691.314 512.488 z M 1467.3 1568.03 C 1486.49 1563.56 1505.03 1558.52 1523.98 1553.18 C 1547.63 1546.31 1586.51 1535.16 1606.11 1520.8 C 1588.43 1506.11 1560.99 1494.05 1539.32 1485.55 C 1520.11 1520.53 1494.8 1541.61 1467.3 1568.03 z" fill="rgb(49,46,45)" transform="translate(0,0)"></path>
<path d="M 979.699 702.605 C 996.637 701.309 1012.57 701.712 1028.43 704.41 C 1139.47 723.308 1093.32 822.955 1006.46 853.374 C 1026.44 864.744 1055.05 883.713 1074.34 897.023 C 1096.59 886.444 1118.92 872.551 1141.62 861.818 C 1151.72 881.796 1166.95 900.776 1176.78 922.294 C 1143.13 941.706 1107.52 959.201 1074.34 979.852 C 1055.45 970.95 1019.52 948.293 1000.66 936.735 C 990.064 928.842 927.014 970.97 913.97 979.852 C 881.634 957.959 845.928 938.995 812.732 917.104 C 819.352 904.058 838.625 872.331 847.79 861.818 C 861.133 865.508 901.439 888.234 913.97 897.023 C 933.641 882.837 964.621 866.266 986.266 853.374 C 884.514 824.071 852.895 710.955 979.699 702.605 z" fill="rgb(49,46,45)" transform="translate(0,0)"></path>
<path d="M 1162.45 571.829 C 1181.28 568.637 1199.11 581.402 1202.15 600.259 C 1205.19 619.115 1192.29 636.839 1173.41 639.732 C 1154.74 642.593 1137.26 629.862 1134.25 611.216 C 1131.24 592.569 1143.83 574.985 1162.45 571.829 z" fill="rgb(49,46,45)" transform="translate(0,0)"></path>
<path d="M 818.402 571.893 C 837.231 569.657 854.304 583.116 856.526 601.946 C 858.748 620.776 845.277 637.839 826.446 640.048 C 807.633 642.255 790.59 628.801 788.37 609.989 C 786.15 591.178 799.593 574.126 818.402 571.893 z" fill="rgb(49,46,45)" transform="translate(0,0)"></path>
<metadata><recraft-signature>{"signed_by": "recraft", "signature_b64": "5fTbLKrNZ3Dip2qBGz4s1YJZS8NW+do0DrmMlyoJQKVFYzFTTuRLRoP7dYP9aBUbAEU06Qpus9zoYAFIj3XvBA==", "signing_algo": "Ed25519", "generation_timestamp": 1772997423, "identifier": "ea52a33b-8d8a-4957-b6b9-57934bc8525b"}</recraft-signature></metadata></svg>