<svg xmlns="http://www.w3.org/2000/svg" height="512" preserveAspectRatio="none" style="display: block;" version="1.1" viewBox="0 0 2048 2048" width="512">
<path d="M 375.881 1152.22 C 401.239 1151.06 436.45 1152.19 462.55 1152.2 L 746.315 1152.17 C 766.805 1152.15 788.837 1151.42 809.1 1153.39 C 886.441 1160.93 869.991 1264.14 869.948 1318.56 L 869.963 1620.31 C 869.956 1676.71 871.235 1737.34 796.775 1742.02 L 416.625 1742.12 C 343.94 1742.37 303.817 1739.57 303.865 1646.42 L 303.943 1288.94 C 303.916 1230.76 294.747 1160.99 375.881 1152.22 z M 385.018 1231.32 L 385.018 1663.17 L 776.334 1663.17 L 791.361 1663.17 L 791.361 1231.32 L 402.531 1231.32 L 385.018 1231.32 z" fill="rgb(38,39,39)" transform="translate(0,0)"></path>
<path d="M 1252.83 1152.22 C 1283.26 1151.66 1315.55 1152.19 1346.08 1152.2 L 1619.46 1152.18 C 1661.15 1152.12 1703.56 1147.35 1730.24 1186.37 C 1751.55 1217.54 1743.52 1292.86 1743.49 1331.18 L 1743.53 1623.44 C 1743.68 1676.89 1743.41 1739.4 1667.86 1742.02 C 1643.5 1743.19 1607.49 1742.05 1582.42 1742.04 L 1299.07 1742.07 C 1280.73 1742.08 1255.82 1743.12 1238.27 1740.75 C 1164.01 1730.1 1176.58 1636.43 1176.6 1583.92 L 1176.59 1285.71 C 1176.57 1225.52 1168.03 1159.45 1252.83 1152.22 z M 1659.25 1663.17 L 1662.8 1662.56 C 1665.93 1657.77 1664.39 1606.61 1664.41 1597.18 L 1664.51 1308.4 C 1664.51 1283.28 1665.07 1256.2 1664.48 1231.32 L 1262.19 1231.32 C 1249.52 1232.57 1255.53 1266.9 1255.54 1280.43 L 1255.54 1663.17 L 1659.25 1663.17 z" fill="rgb(38,39,39)" transform="translate(0,0)"></path>
<path d="M 814.677 303.033 C 827.635 301.86 865.939 303.058 881.427 303.064 L 1165.64 303.033 C 1279.54 303.05 1303.16 299.676 1303.02 434.626 L 1302.99 797.032 C 1302.91 848.003 1292.42 884.791 1232.8 894.652 L 860.803 894.746 C 755.706 895.051 744.753 875.663 744.722 770.641 L 744.671 408.168 C 744.692 353.444 753.018 315.55 814.677 303.033 z M 825.002 814.955 L 1225.05 814.955 C 1225.86 799.557 1225.16 779.127 1225.11 763.39 L 1225.05 381.864 L 825.002 381.864 L 825.002 814.955 z" fill="rgb(38,39,39)" transform="translate(0,0)"></path>
<path d="M 454.951 352.238 C 490.715 347.476 497.444 387.725 508.797 414.913 L 550.425 514.262 C 571.298 563.986 594.609 612.999 615.893 662.535 C 623.008 679.267 592.055 721.962 565.638 660.436 C 557.015 640.353 547.861 620.516 540.223 600.016 C 524.976 601.563 487.622 600.017 469.5 600.016 L 381.342 600.016 C 372.006 625.474 359.987 652.382 348.903 677.232 C 337.479 702.845 312.39 691.084 303.938 670.714 C 306.485 662.688 310.856 653 314.265 645.108 C 350.843 560.486 387.473 475.84 422.502 390.548 C 430.493 371.09 432.239 357.229 454.951 352.238 z M 402.531 558.854 L 462.5 558.854 L 520.213 558.854 C 515.959 546.107 462.147 419.301 459.247 416.53 C 444.419 461.778 410.752 517.409 402.531 558.854 z" fill="rgb(38,39,39)" transform="translate(0,0)"></path>
<metadata><recraft-signature>{"signed_by": "recraft", "signature_b64": "LXZZ+JFmLSFoxoOIdS2yJld9tASic114+fbCKH2LupRIWG+VNWnWBtlrVmicZ9wgieQzbK7iz3GWcPQMSn4FBA==", "signing_algo": "Ed25519", "generation_timestamp": 1772990239, "identifier": "1d238271-8226-4581-8581-3dc51b007cfd"}</recraft-signature></metadata></svg>