<svg xmlns="http://www.w3.org/2000/svg" height="512" preserveAspectRatio="none" style="display: block;" version="1.1" viewBox="0 0 2048 2048" width="512">
<path d="M 414.936 281.001 C 415.968 280.872 418.494 280.886 419.633 280.888 L 1592.37 280.985 C 1679.2 281.002 1756.44 318.421 1757.08 417.948 L 1757.03 944.049 C 1757.2 1051.63 1749.02 1063.12 1640.99 1063.12 L 1517.54 1063.06 L 1517.54 1240.98 C 1569.48 1242.1 1659.18 1234.84 1707.37 1243.12 C 1765.9 1253.18 1757.02 1332.26 1757.03 1374.53 L 1757.01 1564.38 C 1757 1587.78 1754.36 1622.19 1756.84 1644.1 L 1757 1645.45 C 1729.21 1744.34 1679.05 1765.01 1578.36 1765.03 L 519.346 1765.01 C 487.23 1765.01 455.637 1765.48 423.5 1763.47 C 359.43 1759.46 302.694 1706.99 293.344 1643.55 C 290.044 1621.17 290.972 1597.26 290.979 1574.49 L 291.011 481.322 C 290.986 382.535 294.78 299.718 414.936 281.001 z M 426.925 1626 L 727.016 1626 L 1581.11 1625.97 C 1592.85 1625.89 1605.98 1625.33 1617.53 1626 C 1620.33 1603.64 1617.46 1576.35 1617.46 1552.32 L 1617.53 1377.02 L 1486.28 1377.08 C 1399.14 1377.16 1379.31 1376 1379.03 1281.79 L 1379.07 988.191 C 1379.04 915.278 1449.93 924.933 1498.17 924.977 L 1617.53 925.001 L 1617.53 417.99 C 1601.85 417.924 1577.38 416.968 1562.31 417.99 L 519.975 417.987 C 505.993 417.989 438.987 416.914 428.943 420.15 C 426.139 433.672 426.904 451.652 426.9 465.754 L 426.925 1626 z" fill="rgb(0,0,0)" transform="translate(0,0)"></path>
<path d="M 974.128 604.149 C 1028.06 598.498 1097.9 624.742 1139.69 658.543 C 1256.14 752.735 1272.04 914.865 1176.31 1030.49 C 1288.22 1100.76 1362.91 1218.49 1360.8 1353.53 C 1360.05 1401.16 1294.39 1432.62 1252.06 1400.3 C 1215.7 1372.92 1230.15 1331.8 1219.06 1292.4 C 1187.91 1181.83 1105.1 1120.88 993.25 1109 C 876.85 1107.42 774.66 1185.2 748.284 1299.53 C 743.661 1318.04 745.426 1336.78 741.843 1355.43 C 725.481 1440.59 610.372 1418.36 606.861 1354.7 C 599.032 1212.74 679.231 1101.72 792.018 1026.68 C 648.485 867.197 759.605 607.212 974.128 604.149 z M 999.441 979.571 C 1064.66 971.421 1110.89 911.907 1102.67 846.699 C 1094.44 781.492 1034.87 735.326 969.674 743.63 C 904.585 751.92 858.513 811.367 866.726 876.466 C 874.939 941.565 934.332 987.707 999.441 979.571 z" fill="rgb(0,0,0)" transform="translate(0,0)"></path>
<metadata><recraft-signature>{"signed_by": "recraft", "signature_b64": "gc55Jcq5ph7w/aQ2rt58ckLnN5bN+9WetG7FSajJNLV6rOrI5Epqam3uuSaadT3E2r1KjfdRQjWolYJJWrbNCA==", "signing_algo": "Ed25519", "generation_timestamp": 1772990119, "identifier": "5852d48d-28e1-4c6b-90cb-c5a6deec4156"}</recraft-signature></metadata></svg>