<svg xmlns="http://www.w3.org/2000/svg" height="512" preserveAspectRatio="none" style="display: block;" version="1.1" viewBox="0 0 2048 2048" width="512">
<path d="M 371.93 262.003 C 389.512 260.756 425.797 261.961 444.846 261.976 L 1610.67 261.984 C 1729.21 262.008 1744.71 270.595 1745.15 392.138 L 1745.06 1454.98 C 1745.14 1518.51 1744.87 1600.02 1655.98 1599.17 C 1561.69 1598.26 1455.67 1584.79 1363.06 1590.92 L 1363.06 1747.01 L 1199.02 1747.01 L 1199.02 1433.91 L 1582.76 1433.91 C 1583.37 1400.26 1582.78 1364.4 1582.78 1330.59 L 1582.76 505.774 L 1582.76 422.971 L 465.589 422.971 L 465.589 1433.91 L 850.511 1433.91 L 850.526 1643.2 C 850.519 1676.31 849.457 1714.34 850.511 1747.01 C 832.567 1747.58 811.556 1747.06 793.453 1747.06 L 684.631 1747.01 L 684.631 1589.14 C 655.836 1588.49 619.994 1590.66 590.723 1591.82 L 465.626 1596.24 C 360.34 1600.09 302.713 1607.52 302.927 1487.05 L 303.025 426.464 C 303.018 363.83 287.304 275.929 371.93 262.003 z" fill="rgb(0,0,0)" transform="translate(0,0)"></path>
<path d="M 1009.59 599.29 C 1215.44 588.113 1379.15 794.431 1303.92 994.089 C 1297.42 1011.35 1287.93 1025.78 1281.05 1042.46 L 1280.4 1044.07 C 1398.37 1105.95 1446.56 1187.75 1446 1317.05 C 1440.33 1316.52 1427.23 1316.96 1421.1 1316.97 L 1374.11 1317.04 C 1346.3 1317.07 1306.86 1315.6 1280.4 1317.05 C 1278.22 1201.08 1233.81 1185.99 1126.71 1186.03 L 1042.15 1186 L 910.498 1185.95 C 810.29 1185.94 765.337 1211.31 765.998 1317.05 L 604.009 1317.05 C 603.662 1187.41 642.445 1104.86 765.998 1044.07 C 660.625 873.073 764.738 643.663 965.879 604.586 C 980.912 601.666 994.397 600.525 1009.59 599.29 z M 1039.49 1026.64 C 1112.72 1017.92 1165.04 951.521 1156.39 878.284 C 1147.74 805.047 1081.39 752.666 1008.15 761.246 C 934.801 769.839 882.334 836.296 890.996 909.632 C 899.658 982.968 966.166 1035.37 1039.49 1026.64 z" fill="rgb(0,0,0)" transform="translate(0,0)"></path>
<metadata><recraft-signature>{"signed_by": "recraft", "signature_b64": "JoJ1rlYNH+qvYOJ459GWhYuZoLdRAwGLToHItXbQzgHJLE98CoVoKKbLpqtWC8ZmeTNoLSZ1wxU/MQQ4MYSQDQ==", "signing_algo": "Ed25519", "generation_timestamp": 1772990043, "identifier": "63326809-ee7d-42aa-9b87-43f6375340b4"}</recraft-signature></metadata></svg>