<svg xmlns="http://www.w3.org/2000/svg" height="512" preserveAspectRatio="none" style="display: block;" version="1.1" viewBox="0 0 2048 2048" width="512">
<path d="M 497.75 512.334 L 1632.93 512.282 C 1704 512.21 1772.07 523.833 1788.27 610.347 C 1791.39 627.02 1790.86 650.337 1790.84 667.72 L 1790.83 1489.49 C 1790.86 1506.84 1792.64 1536.71 1790.67 1552.61 C 1778.43 1651.26 1636.99 1649.78 1621.1 1550.3 C 1620.54 1545.95 1621 1523.81 1621.02 1518.2 L 1621.1 1449.27 C 1606.11 1450.43 1578 1449.32 1561.73 1449.3 L 407.496 1449.26 C 361.553 1449.21 329.404 1445.91 294.263 1410.6 C 248.936 1365.05 255.491 1325.25 255.495 1266.01 L 255.498 682.729 C 255.457 552.345 286.693 512.285 419.639 512.268 L 497.75 512.334 z M 427.294 1279.45 C 442.948 1280.13 460.053 1279.53 475.876 1279.48 L 1618.25 1279.45 L 1620.38 1278.68 C 1621.74 1272.62 1621.16 1242.24 1621.14 1233.74 L 1621.11 833.132 C 1621.11 783.502 1620.22 730.791 1621.1 681.339 L 470.543 681.284 C 458.268 681.261 438.991 680.568 427.294 681.339 L 427.294 1279.45 z" fill="rgb(0,0,0)" transform="translate(0,0)"></path>
<metadata><recraft-signature>{"signed_by": "recraft", "signature_b64": "wmfncNf+7QfmqgKsKviElTOQMmIRCXzZSAXIWz3G+ALv8dduI8Qh2B0ZSDqaMp82R19S1TDs72cJSIAMAPspCw==", "signing_algo": "Ed25519", "generation_timestamp": 1773000472, "identifier": "00fbc73c-5b55-4635-9e9f-b6d854524c2b"}</recraft-signature></metadata></svg>