<svg xmlns="http://www.w3.org/2000/svg" height="512" preserveAspectRatio="none" style="display: block;" version="1.1" viewBox="0 0 2048 2048" width="512">
<path d="M 465.971 300.153 C 500.518 298.596 547.841 300.145 583.579 300.148 L 1466.75 300.157 C 1578.21 300.911 1675.45 356.523 1699.15 473.181 C 1705.15 502.701 1703.55 533.3 1703.52 563.303 L 1703.49 870.645 C 1703.5 903.681 1702.99 940.316 1703.55 974.197 C 1705.14 1071.49 1577.36 1097.93 1539.49 1010.97 C 1530.56 990.474 1534.08 928.108 1534.08 901.862 L 1534.13 561.654 C 1534.21 491.145 1532.25 467.691 1448.51 467.792 L 593.5 467.864 L 522.807 467.85 C 431.124 467.904 423.979 481.374 423.953 568.972 L 423.953 1185.74 C 423.99 1286.86 458.639 1279.5 545.967 1279.49 L 818.156 1279.44 C 850.817 1279.3 876.53 1275.87 903.51 1297.63 C 940.834 1327.7 946.365 1381.66 915.99 1418.73 C 885.65 1455.76 852.89 1449.4 810.467 1449.37 L 550.519 1449.41 C 444.935 1449.58 369.249 1449.13 298.604 1352.08 C 257.938 1296.21 255.998 1244.5 256.013 1178.86 L 256.037 614.893 C 256.035 585.417 255.597 555.895 256.282 526.43 C 259.123 404.156 343.723 310.277 465.971 300.153 z" fill="rgb(0,0,0)" transform="translate(0,0)"></path>
<path d="M 1344.39 938.486 C 1375.58 936.748 1405.77 951.079 1421.42 978.748 C 1483.52 1092.02 1548.9 1207.88 1613.01 1319.96 L 1764.81 1588.56 C 1773.26 1603.28 1781.31 1616.32 1788.1 1632.28 C 1827.05 1723.65 1699.59 1786.89 1654.03 1709.64 C 1617.07 1646.96 1581.92 1583.22 1544.79 1520.63 C 1513.1 1547.13 1477.74 1581.6 1447.42 1610.08 C 1414.58 1640.92 1391.58 1673.16 1341.22 1665 C 1307.26 1663.88 1195.28 1545.91 1162.36 1520.63 C 1155.29 1530.55 1149.77 1542.24 1143.69 1552.87 C 1115 1603 1082.06 1666.56 1050.39 1713.93 C 995.719 1795.67 857.8 1718.44 903.627 1628.59 C 913.827 1608.59 926.27 1589.24 937.586 1569.94 L 1236.12 1055.75 C 1263.83 1006.57 1282.78 945.663 1344.39 938.486 z M 1242.76 1385.39 C 1273.34 1407.56 1325.91 1454.82 1354.35 1483.73 C 1388.81 1452.4 1429.59 1417.63 1462.29 1385.39 C 1431.63 1327.86 1389.76 1254.04 1354.35 1199.81 C 1344.58 1210.54 1336.62 1225.71 1328.98 1238.38 L 1290.66 1303.12 C 1276.03 1328.2 1255.52 1360.37 1242.76 1385.39 z" fill="rgb(0,0,0)" transform="translate(0,0)"></path>
<metadata><recraft-signature>{"signed_by": "recraft", "signature_b64": "hsTQPX+mr+xXuf0G76blO2dpObhVFpIk/hubELTjbW7IQPlQ+FHo3bQFPic6XyPDisW2LEzimMGrT+uTSTXlDg==", "signing_algo": "Ed25519", "generation_timestamp": 1772990474, "identifier": "70865bc3-418d-4ea1-b5b8-7c9fb23eea63"}</recraft-signature></metadata></svg>