<svg xmlns="http://www.w3.org/2000/svg" height="512" preserveAspectRatio="none" style="display: block;" version="1.1" viewBox="0 0 2048 2048" width="512">
<path d="M 533.313 254.999 C 656.981 245.648 774.53 317.49 828.267 427.968 L 1281.15 427.922 C 1303.51 427.919 1334.83 426.872 1355.96 431.251 C 1469.99 454.892 1494.47 542.388 1494.52 641.206 L 1494.49 725.615 C 1669.87 728.555 1809.28 880.064 1790.07 1056.15 C 1773 1212.69 1643.89 1310.51 1494.49 1324.09 C 1494.29 1338.05 1495.98 1352.03 1495.47 1365.82 C 1491.56 1472.11 1413.02 1526.28 1316.31 1537.25 C 1314.29 1554.95 1311.34 1566.68 1306.53 1583.66 C 1202.3 1887.82 778.518 1852.18 731.835 1534.34 L 458.079 1534.42 C 437.979 1534.44 416.136 1535.22 396.58 1531.31 C 287.965 1509.61 256.286 1423.51 256.331 1326.83 L 256.309 581.451 C 256.285 574.378 256.533 566.536 256.228 559.551 C 249 393.961 377.916 277.235 533.313 254.999 z M 423.104 1368.46 L 787.751 1368.37 C 977.178 1367.39 829.937 1508.07 948.227 1597.07 C 999.525 1635.66 1069.31 1630.6 1115.02 1585.56 C 1185.15 1516.44 1127.98 1440.5 1176.64 1391.79 C 1196.72 1371.69 1222.62 1367.59 1249.8 1368.46 L 1323.24 1368.46 L 1323.18 1288.8 C 1323.19 1250.68 1317.65 1203.8 1346.99 1174.15 C 1406.81 1113.7 1526.43 1198.02 1599.54 1096.89 C 1653.72 1021.93 1611.78 913.463 1519.59 894.709 C 1444.17 879.365 1325.65 924.888 1323.35 802.864 C 1322.05 734.048 1323.22 665 1323.24 596.16 L 810.349 596.201 C 725.858 596.306 699.695 596.473 676.642 511.058 C 661.92 455.236 600.684 417.835 544.296 423.375 C 477.707 430.878 424.57 480.908 423.589 550.909 C 423.23 576.54 423.081 602.718 423.08 628.709 L 423.104 1368.46 z" fill="rgb(39,38,38)" transform="translate(0,0)"></path>
<metadata><recraft-signature>{"signed_by": "recraft", "signature_b64": "fRXAdI8OYRy+XzLLmjbsNAiVpRmkB84YhgusF2WMtbQN16SxIs8Jb8aZnBbP1/M9E9tuwFWVogKILLkYASr6DQ==", "signing_algo": "Ed25519", "generation_timestamp": 1772990483, "identifier": "3fb55056-517b-4c54-9cfd-67dc5b2d7427"}</recraft-signature></metadata></svg>