<svg xmlns="http://www.w3.org/2000/svg" height="512" preserveAspectRatio="none" style="display: block;" version="1.1" viewBox="0 0 2048 2048" width="512">
<path d="M 1017.57 184.129 C 1057.63 180.027 1068.44 256.772 1081.05 290.832 L 1175.89 543.635 C 1181.88 559.271 1188.43 577.573 1195.36 592.588 C 1208.2 595.121 1225.77 596.241 1239.31 597.546 L 1607.05 634.608 C 1658.83 642.329 1643.8 672.97 1608.55 697.568 L 1347.72 883.453 C 1331.65 894.882 1316.33 906.669 1299.95 917.79 C 1307.11 945.806 1317.52 976.63 1325.76 1004.87 L 1392.32 1232.08 C 1401.74 1264.88 1443.86 1351.52 1396.56 1362.3 C 1380.99 1365.85 1362.32 1349.14 1349.76 1340.57 L 1296.96 1304.76 C 1228.62 1259.09 1160.29 1213.82 1092.6 1167.14 C 1092.96 1176.84 1096.17 1195.6 1097.63 1205.75 L 1107.8 1276.39 C 1118.79 1353.26 1131.26 1437.35 1139.97 1514.04 C 1151.68 1514.7 1166.74 1514.13 1178.79 1514.11 L 1252.01 1514.01 C 1373.29 1513.87 1359.4 1556.29 1362.97 1662.31 C 1439.78 1667.26 1437.3 1734.15 1436.84 1790.06 C 1436.41 1843.3 1425.94 1845.08 1376.05 1845.05 L 1040.17 1844.99 L 684.666 1845.04 C 628.052 1845.06 612.696 1854.9 612.817 1790.41 L 612.768 1742.48 C 612.871 1699.88 641.217 1661.67 686.188 1662.31 C 690.017 1543.05 678.043 1513.97 813.054 1514 L 910.233 1514.04 C 914.211 1494.45 916.203 1469.72 918.776 1449.49 L 934.313 1330.68 C 941.393 1276.4 952.433 1221.75 956.362 1167.14 C 929.676 1180.02 895.655 1205.25 870.872 1222.06 L 724.374 1321.45 C 705.621 1334.06 685.626 1349.15 666.372 1360.26 C 646.574 1369.79 622.111 1350.97 627.774 1329.02 C 663.012 1192.44 711.192 1057.66 745.077 921.204 C 728.702 905.157 693.317 881.409 673.769 866.878 C 592.561 806.506 500.791 746.619 423.672 682.504 C 402.551 664.944 413.895 636.282 439.553 633.851 L 785.155 603.416 C 802.91 601.839 836.368 598.018 853.355 598.337 C 859.963 571.976 875.08 536.68 884.77 510.549 L 977.301 259.579 C 986.119 235.42 993.437 192.332 1017.57 184.129 z" fill="rgb(0,0,0)" transform="translate(0,0)"></path>
<path d="M 1023.19 286.988 L 1108.99 515.531 C 1125.46 559.246 1141.93 596.125 1156.72 641.322 C 1177.61 644.875 1207.77 646.954 1229.62 649.266 L 1366.51 664.794 C 1397.45 668.394 1428.5 670.997 1459.05 676.902 C 1483.44 676.412 1508.15 680.608 1532.51 682.714 C 1514.04 698.42 1482.53 719.157 1462.02 734.022 L 1326.05 832.438 C 1312.97 841.74 1244.11 890.196 1237.83 899.453 C 1241.66 906.39 1247.78 928.227 1250.38 936.823 L 1305.43 1123.86 C 1313.36 1150.47 1322.67 1179.5 1329.7 1206.17 C 1336.52 1229.82 1342.66 1251.08 1350.17 1274.58 C 1310.86 1252.28 1265.37 1219.35 1226.44 1193.75 L 1128.84 1128.6 C 1094.77 1105.88 1055.86 1080.19 1023.19 1055.4 C 1010.3 1062.94 994.845 1073.82 982.303 1082.29 L 782.703 1217.33 C 754.965 1235.89 724.987 1255.02 698.233 1274.58 C 707.079 1248.85 713.411 1215.41 722.301 1192.11 C 747.182 1096.47 778.098 993.609 807.169 899.453 C 795.249 889.54 780.442 879.284 767.766 870.05 L 510.439 680.43 C 585.246 675.543 661.025 667.391 735.688 660.19 L 890.935 646.399 C 927.593 536.011 972.654 428.419 1010.44 318.407 C 1014.64 307.912 1018.79 297.398 1023.19 286.988 z" fill="rgb(253,183,33)" transform="translate(0,0)"></path>
<path d="M 1010.44 1000.33 C 1090.74 1053.95 1179.27 1112.4 1262.15 1161.77 C 1271.86 1167.55 1302.73 1189.54 1309.36 1192.11 C 1316.42 1199.03 1320.91 1201.6 1329.7 1206.17 C 1336.52 1229.82 1342.66 1251.08 1350.17 1274.58 C 1310.86 1252.28 1265.37 1219.35 1226.44 1193.75 L 1128.84 1128.6 C 1094.77 1105.88 1055.86 1080.19 1023.19 1055.4 C 1010.3 1062.94 994.845 1073.82 982.303 1082.29 L 782.703 1217.33 C 754.965 1235.89 724.987 1255.02 698.233 1274.58 C 707.079 1248.85 713.411 1215.41 722.301 1192.11 C 729.463 1192.61 985.986 1015.4 1010.44 1000.33 z" fill="rgb(210,129,4)" transform="translate(0,0)"></path>
<path d="M 1459.05 676.902 C 1483.44 676.412 1508.15 680.608 1532.51 682.714 C 1514.04 698.42 1482.53 719.157 1462.02 734.022 L 1326.05 832.438 C 1312.97 841.74 1244.11 890.196 1237.83 899.453 C 1232.81 898.112 1208.06 881.757 1202.39 878.124 L 1195.36 870.786 C 1201.45 865.698 1211.54 858.817 1218.13 853.97 L 1430.66 699.029 C 1435.36 695.583 1457.98 680.025 1459.05 676.902 z" fill="rgb(210,129,4)" transform="translate(0,0)"></path>
<path d="M 1202.39 878.124 C 1208.06 881.757 1232.81 898.112 1237.83 899.453 C 1241.66 906.39 1247.78 928.227 1250.38 936.823 L 1305.43 1123.86 C 1313.36 1150.47 1322.67 1179.5 1329.7 1206.17 C 1320.91 1201.6 1316.42 1199.03 1309.36 1192.11 C 1305.66 1177.49 1294.54 1152.25 1289.31 1135.59 C 1278.26 1100.36 1203.33 901.591 1202.39 878.124 z" fill="rgb(246,195,87)" transform="translate(0,0)"></path>
<path d="M 1023.19 286.988 L 1108.99 515.531 C 1125.46 559.246 1141.93 596.125 1156.72 641.322 C 1149.86 642.432 1146.45 643.921 1139.97 646.399 C 1132.26 632.036 1126.2 613.935 1120.34 598.452 L 1093.42 527.65 C 1066.15 456.237 1039.25 388.841 1010.44 318.407 C 1014.64 307.912 1018.79 297.398 1023.19 286.988 z" fill="rgb(246,195,87)" transform="translate(0,0)"></path>
<path d="M 738.657 1662.31 C 738.098 1642.01 738.991 1621.39 738.484 1601.11 C 737.351 1555.82 773.746 1567.03 808.722 1567.05 L 1225.8 1567.08 C 1248.3 1567.02 1272.34 1566.59 1294.71 1567.08 C 1318.47 1585.77 1309.33 1632.65 1309.36 1662.31 L 1225.8 1662.31 L 738.657 1662.31 z" fill="rgb(246,195,87)" transform="translate(0,0)"></path>
<path d="M 1225.8 1567.08 C 1248.3 1567.02 1272.34 1566.59 1294.71 1567.08 C 1318.47 1585.77 1309.33 1632.65 1309.36 1662.31 L 1225.8 1662.31 C 1225.28 1647.75 1228.3 1575.99 1225.8 1567.08 z" fill="rgb(253,183,33)" transform="translate(0,0)"></path>
<path d="M 666.297 1790.94 C 666.11 1694.21 663.95 1714.85 769.573 1714.84 L 1271.56 1714.84 C 1279.8 1747.78 1273.46 1761.07 1274.77 1790.94 L 666.297 1790.94 z" fill="rgb(82,64,48)" transform="translate(0,0)"></path>
<path d="M 1017.57 1125.87 C 1022.61 1128.41 1027.63 1130.79 1032.31 1133.95 C 1035.42 1145.7 1037.88 1165.55 1039.89 1178.3 L 1069.89 1382.8 C 1076.26 1426.72 1083.09 1469.92 1088.13 1514.04 C 1079.97 1514.21 1071.27 1514.59 1063.18 1514.04 C 1031.2 1513.19 995.285 1514.03 962.987 1514.04 C 965.99 1497.18 968.267 1476.98 970.624 1459.69 L 989.95 1309.47 L 1003.7 1215.22 C 1006.3 1197.34 1010.3 1174.96 1010.44 1157.35 L 1017.57 1125.87 z" fill="rgb(82,64,48)" transform="translate(0,0)"></path>
<path d="M 1017.57 1125.87 C 1022.61 1128.41 1027.63 1130.79 1032.31 1133.95 C 1035.42 1145.7 1037.88 1165.55 1039.89 1178.3 L 1069.89 1382.8 C 1076.26 1426.72 1083.09 1469.92 1088.13 1514.04 C 1079.97 1514.21 1071.27 1514.59 1063.18 1514.04 L 1063.16 1512.66 C 1062.96 1501.68 1059.44 1478.4 1057.99 1466.77 L 1047.35 1381.17 C 1045.14 1362.76 1023.48 1163.31 1015.72 1155.96 C 1012.34 1155.34 1014.08 1155.22 1010.44 1157.35 L 1017.57 1125.87 z" fill="rgb(49,38,26)" transform="translate(0,0)"></path>
<path d="M 1271.56 1714.84 L 1329.2 1714.76 C 1366.42 1714.75 1384.8 1709.27 1384.85 1751.94 L 1384.74 1790.94 L 1274.77 1790.94 C 1273.46 1761.07 1279.8 1747.78 1271.56 1714.84 z" fill="rgb(49,38,26)" transform="translate(0,0)"></path>
<metadata><recraft-signature>{"signed_by": "recraft", "signature_b64": "9lVe88ns1OJtV/zsVx1781MeEmsdeEgUwgloScPzygM2QosrPeQriSuvoEflnRUfAK39Db9lj+7oceiQ0iXiDw==", "signing_algo": "Ed25519", "generation_timestamp": 1772988290, "identifier": "454b9063-f1cb-44f7-a0c5-2ba9e600dd81"}</recraft-signature></metadata></svg>