<svg xmlns="http://www.w3.org/2000/svg" height="512" preserveAspectRatio="none" style="display: block;" version="1.1" viewBox="0 0 2048 2048" width="512">
<path d="M 1239 291.988 C 1242.46 291.42 1275.94 291.96 1281.86 291.964 L 1620.75 291.918 C 1628.8 291.87 1652.12 291.615 1659.49 293.017 C 1702.6 302.011 1746.89 339.992 1750.54 386.32 C 1752.64 412.994 1751.71 441.147 1751.68 467.947 L 1751.73 754.181 C 1751.75 777.25 1753.3 808.7 1749.91 830.822 C 1735.13 927.035 1641.81 919.714 1570.85 919.743 L 1295.82 919.74 C 1274.02 919.734 1241.57 920.827 1221.39 917.459 C 1129.99 902.212 1134.91 814.057 1135.49 746.468 L 1135.42 646.467 C 1135.48 599.495 1127.41 610.544 1079.47 610.523 L 663.493 610.564 C 647.949 610.627 634.603 611.503 619 610.551 L 619 1128.77 L 740.199 1128.78 C 829.541 1128.69 911.137 1133.01 913.001 1253.25 L 913.279 1610.65 C 914.452 1692.31 888.873 1751.84 796.959 1752.77 L 450.267 1752.98 C 364.472 1752.93 295.975 1734.78 296.052 1634.08 L 295.987 1277.09 C 295.978 1158.52 338.33 1128.57 447.56 1128.71 L 517.539 1128.77 L 517.515 614.924 C 517.291 525.472 512.223 508.745 608.492 508.949 L 1074.37 508.985 C 1090.9 509.047 1108 509.406 1124.52 508.75 C 1152.17 507.651 1115.09 383.051 1159.64 331.619 C 1182.54 305.166 1205.44 294.867 1239 291.988 z M 1640.25 813.001 C 1657.25 811.474 1649.02 737.798 1649.03 719.324 L 1649.05 459.44 C 1649.04 447.261 1650.42 405.786 1645.76 397.307 C 1631.18 392.347 1521.92 394.173 1497.04 394.178 L 1248.48 394.183 C 1245.33 395.775 1241.05 397.726 1239.64 401.252 C 1237.82 405.813 1238.54 764.755 1238.99 793.944 C 1239.46 823.563 1268.68 813.121 1296 813.032 L 1640.25 813.001 z M 797.25 1650.04 C 808.859 1648.94 809.954 1643.24 810.02 1632.63 L 810.103 1287.23 C 810.087 1219.59 811.963 1231 747.969 1231.22 L 414.622 1231.3 C 390.371 1234.68 400.957 1312.83 400.991 1336.59 L 400.981 1588.59 C 400.983 1609.49 392.324 1650.46 418.425 1649.98 L 797.25 1650.04 z" fill="rgb(0,0,0)" transform="translate(0,0)"></path>
<path d="M 1232.76 1128.77 C 1263.07 1128.01 1296.48 1128.73 1327.14 1128.75 L 1605.17 1128.75 C 1637.76 1128.74 1672.66 1125.19 1700.88 1143.74 C 1759.64 1182.37 1751.73 1234.28 1751.73 1295.11 L 1751.75 1580.05 C 1751.77 1660.69 1754.12 1733.63 1649.02 1752.97 L 1289.73 1753.02 C 1225.53 1753.03 1150.88 1743.79 1137.85 1663.06 C 1133.42 1635.66 1135.3 1599.15 1135.31 1570.52 L 1135.3 1290.48 C 1135.12 1212.49 1133.92 1148.2 1232.76 1128.77 z M 1239 1241.31 L 1238.94 1589.36 C 1238.91 1614.19 1229.3 1649.51 1257.76 1649.82 C 1300.8 1650.28 1343.88 1650.09 1386.93 1650.09 L 1628.75 1650.04 C 1635.35 1650 1642.35 1650.88 1647.34 1646.66 C 1650.79 1639.41 1649.01 1576.25 1649 1564.51 L 1649.07 1293.76 C 1649.06 1222.53 1658.1 1231.15 1583.34 1231.23 L 1256.6 1231.3 C 1246.55 1232.89 1244.6 1232.36 1239 1241.31 z" fill="rgb(0,0,0)" transform="translate(0,0)"></path>
<metadata><recraft-signature>{"signed_by": "recraft", "signature_b64": "WpAr2cH47R4Rs6bsV1naeS67tDkPtgkLO6JM6vid9WUTLbY1cMttkp0fGpTrS85cf11w1G7x4fQCYSRz3s3vCw==", "signing_algo": "Ed25519", "generation_timestamp": 1772989921, "identifier": "5a2b8475-fa62-4540-a482-a2ff60eefca5"}</recraft-signature></metadata></svg>