<svg xmlns="http://www.w3.org/2000/svg" height="512" preserveAspectRatio="none" style="display: block;" version="1.1" viewBox="0 0 2048 2048" width="512">
<path d="M 463.823 274.992 C 470.556 274.32 480.849 274.89 487.863 274.896 L 1223.78 274.863 C 1327.25 274.116 1310.05 339.714 1310.1 415.745 L 1310.09 588.13 C 1310.01 708.417 1307.62 726.548 1359.84 838.36 L 1710.81 1580.34 C 1721.69 1602.71 1761.9 1676.42 1761.33 1699.52 C 1759.6 1766.95 1700.96 1769.75 1652.21 1769.66 L 1591.25 1769.56 C 1477.37 1767.7 1362.38 1773.71 1248.8 1764.89 C 947.196 1741.48 729.666 1661.02 459.304 1544.84 C 384.88 1512.86 319.549 1473.75 298.328 1388.96 C 281.451 1321.52 312.609 1259.7 332.73 1196.17 C 407.11 961.313 401.986 688.902 402.262 444.979 L 402.21 378.751 C 401.82 325.89 402.933 289.522 463.823 274.992 z M 1467.56 1620.38 C 1497.42 1620.41 1541.98 1621.89 1570.49 1620.38 C 1560.73 1597.44 1543.88 1566.71 1532.53 1542.9 L 1225.54 887.476 C 1167.58 760.119 1168.02 742.274 1168.04 610.513 L 1168.08 417.997 L 545.045 417.997 C 545.118 679.061 550.904 969.453 476.956 1222.81 C 466.32 1259.25 423.758 1349.47 453.989 1379.91 C 468.708 1394.73 556.932 1431.22 581.439 1442.14 C 795.949 1537.76 1030.58 1602.39 1265.43 1617.65 C 1332.62 1622.01 1400.25 1620.42 1467.56 1620.38 z" fill="rgb(0,0,0)" transform="translate(0,0)"></path>
<metadata><recraft-signature>{"signed_by": "recraft", "signature_b64": "FBtxEHjvl66KuvwuCtQjNuidTVAxKEnI8zUaAzMgXK1ghpXMqcADkKlGKCzMBog9QKqUsTluedd8ybR9bVX4Bw==", "signing_algo": "Ed25519", "generation_timestamp": 1772997782, "identifier": "f4ddad1d-d1d1-45a9-abfc-ff3973078d0c"}</recraft-signature></metadata></svg>