<svg xmlns="http://www.w3.org/2000/svg" height="512" preserveAspectRatio="none" style="display: block;" version="1.1" viewBox="0 0 2048 2048" width="512">
<path d="M 1118.59 734.478 C 1163.41 731.122 1204.28 759.047 1217.65 802.175 C 1223.5 821.036 1220.66 892.574 1220.66 916.837 L 1220.72 1097.63 C 1220.77 1112.22 1217.69 1138.83 1222.31 1151.68 C 1224.11 1156.68 1241.64 1158.45 1242.7 1149.39 C 1244.96 1130.04 1241.48 1110.71 1244.1 1091.3 C 1251.51 1011.81 1354.59 994.164 1393.69 1060.98 C 1419.3 1104.74 1386.9 1200.45 1416.84 1199.61 C 1429.12 1194.81 1425.61 1158.51 1426.66 1146.98 C 1432.26 1089.29 1497.2 1058.35 1547.37 1086.12 C 1636.13 1135.26 1562.94 1277.8 1605.74 1263.41 C 1622 1257.94 1608.35 1203.06 1622.08 1175.56 C 1652.36 1115.8 1741.15 1117.14 1771.27 1176.84 C 1791.23 1216.4 1773.27 1369.92 1770.78 1420.19 L 1760.42 1601.4 C 1754.51 1696.32 1754.85 1771.67 1642.75 1808.53 C 1627.87 1812.15 1615.91 1813.76 1600.51 1813.84 L 1206.37 1813.49 C 1138.84 1813.5 1098.24 1812.71 1046.14 1762.48 C 998.833 1716.87 1004.43 1658.76 962.054 1611.03 C 950.39 1597.9 938.176 1580.17 927.359 1565.98 L 810.629 1414.45 C 782.001 1377.29 746.245 1345.8 747.023 1294.98 C 747.957 1233.93 798.723 1190.2 858.556 1190.61 C 930.266 1190.69 983.81 1293.74 1032.01 1343.7 C 1031.14 1308.41 1032.04 1269.68 1032.01 1234.13 L 1032.01 876.371 C 1031.92 811.852 1029.86 742.652 1118.59 734.478 z" fill="rgb(0,0,0)" transform="translate(0,0)"></path>
<path d="M 586.97 226.029 C 681.822 223.364 766.2 255.38 835.251 320.163 C 877.456 359.759 928.21 437.327 930.782 498.191 C 932.754 544.853 881.262 575.719 840.934 552.341 C 812.741 535.998 811.717 502.888 800.257 475.052 C 771.948 406.291 690.397 347.484 615.25 348.038 C 525.9 341.664 438.995 391.493 402.04 473.357 C 384.788 511.576 385.351 553.557 331.96 560.65 C 303.827 564.388 268.868 538.115 270.068 509.538 C 272.35 455.183 305.913 392.321 339.933 350.819 C 405.09 272.116 486.673 234.323 586.97 226.029 z" fill="rgb(0,0,0)" transform="translate(0,0)"></path>
<path d="M 1055.83 228.992 C 1214.42 213.137 1365.64 330.008 1392.93 486.973 C 1399.18 522.875 1378.7 553.039 1342.25 559.049 C 1283.19 563.012 1282.21 522.091 1269.63 480.437 C 1248.67 411 1185.33 360.048 1113.98 349.858 C 1085.99 344.691 1054.01 354.668 1028.53 339.424 C 982.3 311.761 994.151 239.851 1055.83 228.992 z" fill="rgb(0,0,0)" transform="translate(0,0)"></path>
<path d="M 1317.49 605.101 C 1352.39 604.725 1391.73 599.574 1395.08 648.273 C 1397.12 677.953 1397.52 725.924 1356.25 726.49 C 1329.17 726.19 1280.29 732.085 1278.4 689.985 C 1276.78 653.841 1269.85 611.745 1317.49 605.101 z" fill="rgb(0,0,0)" transform="translate(0,0)"></path>
<path d="M 316.063 607 L 319.262 606.853 C 351.734 605.387 385.586 606.018 385.104 650.369 C 384.674 689.887 391.824 727.273 338.309 726.49 C 301.161 726.408 269.207 730.332 268.943 680.151 C 268.74 641.499 263.908 606.304 316.063 607 z" fill="rgb(0,0,0)" transform="translate(0,0)"></path>
<path d="M 666.806 607 C 737.123 601.371 752.52 617.269 747.651 683.573 C 745.81 708.639 740.724 722.913 713.877 726.49 C 687.641 726.653 638.963 734.004 633.095 697.958 C 626.74 658.927 623.306 618.738 666.806 607 z" fill="rgb(0,0,0)" transform="translate(0,0)"></path>
<path d="M 850.244 607 C 878.361 607.156 925.984 603.354 929.893 642.43 C 932.804 671.521 936.659 719.413 898.994 726.49 C 875.925 726.761 815.777 733.225 815.305 695.53 C 814.865 660.34 804.639 616.044 850.244 607 z" fill="rgb(0,0,0)" transform="translate(0,0)"></path>
<path d="M 491.335 607 L 492.472 606.953 C 523.955 605.792 563.076 605.187 563.195 649.409 C 563.286 683.545 572.325 727.03 523.25 726.49 C 478.181 725.926 448.692 734.527 450.98 674.502 C 452.365 638.163 444.561 614.186 491.335 607 z" fill="rgb(0,0,0)" transform="translate(0,0)"></path>
<metadata><recraft-signature>{"signed_by": "recraft", "signature_b64": "3X9umlPOtPQy192E/wILb5uWG3WCz+HP3/4HPPnjHNcNJ0wsk8O/YDmVlwnrET5sphI+enfAeFh8ZN1/t9s6AQ==", "signing_algo": "Ed25519", "generation_timestamp": 1772989100, "identifier": "7f741493-cb92-44b5-beb2-f6ded1961eab"}</recraft-signature></metadata></svg>