<svg xmlns="http://www.w3.org/2000/svg" height="512" preserveAspectRatio="none" style="display: block;" version="1.1" viewBox="0 0 2048 2048" width="512">
<path d="M 1006.29 288.305 L 1579.86 288.283 C 1632.64 288.281 1677.73 283.796 1719.9 322.58 C 1763.17 362.378 1762.99 402.497 1763 458.426 L 1763.01 986.417 C 1763.04 1013.71 1764.87 1048.31 1761.33 1074.81 C 1743.51 1208.47 1593.12 1185.97 1496.85 1185.97 L 996.899 1186.04 C 971.625 1186.02 949.901 1188.96 929.58 1170.43 C 893.892 1138.24 908.361 1074.67 957.4 1065.97 C 969.059 1063.91 984.83 1064.85 996.989 1064.9 L 1290.5 1064.99 L 1637.01 1064.99 C 1637.95 993.148 1637.02 919.345 1637.02 847.297 L 1637.01 412.999 L 842.49 412.999 L 842.412 604.501 C 842.565 636.095 844.009 674.672 841.238 705.777 C 836.037 764.158 737.288 774.031 724.356 711.158 C 720.366 686.022 721.992 654.313 721.995 628.273 L 721.95 432.948 C 722.566 308.44 786.701 288.265 897.224 288.258 L 1006.29 288.305 z" fill="rgb(0,0,0)" transform="translate(0,0)"></path>
<path d="M 532.504 797 C 535.116 796.613 549.202 796.812 552.272 796.825 C 765.74 797.721 882.307 1045.71 761.877 1214.39 C 727.573 1262.44 668.599 1303.98 609.912 1313.43 L 609.942 1413.51 C 610.013 1445.53 615.916 1489.01 585.858 1510.01 C 550.113 1534.98 494.725 1515.82 489.675 1470.23 C 488.155 1456.51 488.738 1441.79 488.733 1427.89 L 488.68 1294.22 C 488.382 1255.15 482.645 1228.05 518.659 1203.38 C 542.348 1192.1 550.369 1198.08 573.882 1194.58 C 691.354 1177.07 730.002 1017.91 630.155 947.019 C 547.396 888.261 429.198 935.804 410.705 1036.75 C 405.248 1066.54 417.169 1095.8 397.975 1121.99 C 363.607 1168.76 293.935 1148.83 288.074 1089.97 C 272.77 936.291 381.911 813.969 532.504 797 z" fill="rgb(0,0,0)" transform="translate(0,0)"></path>
<path d="M 1243.54 1308.4 C 1336.32 1297.68 1395.5 1380.76 1418.97 1459.95 C 1436.21 1518.09 1423.69 1547.12 1397.9 1598.45 C 1364.64 1664.64 1368.46 1687.45 1284.75 1710.98 C 1243.27 1712.15 1212.32 1709.4 1178.11 1681.59 C 1136.64 1647.87 1105.15 1563.06 1099.19 1511.83 C 1090.72 1439.01 1159.76 1315.98 1243.54 1308.4 z M 1216.8 1510.35 C 1221.34 1520.01 1256.49 1587.46 1260.72 1591.37 C 1272.53 1566.93 1294.77 1533.3 1303.92 1510.35 C 1298.59 1496.74 1271.35 1441.17 1260.72 1432.59 C 1250.41 1444.87 1222.69 1494.27 1216.8 1510.35 z" fill="rgb(0,0,0)" transform="translate(0,0)"></path>
<path d="M 538.817 1623.93 C 573.192 1617.87 605.91 1641.01 611.649 1675.44 C 617.387 1709.87 593.943 1742.37 559.461 1747.79 C 525.43 1753.14 493.447 1730.07 487.784 1696.09 C 482.12 1662.11 504.892 1629.91 538.817 1623.93 z" fill="rgb(0,0,0)" transform="translate(0,0)"></path>
<metadata><recraft-signature>{"signed_by": "recraft", "signature_b64": "Zo/wuvukiKBUsv/LKLsdg7Eyn7Hihj+69YD1CtekkecVr+pfChFFJVEkGU/PxJtfIX681nusJu0cOQDtEg1OBw==", "signing_algo": "Ed25519", "generation_timestamp": 1772989457, "identifier": "21c165df-2bbb-437b-9e64-639b0c5793bf"}</recraft-signature></metadata></svg>