<svg xmlns="http://www.w3.org/2000/svg" height="512" preserveAspectRatio="none" style="display: block;" version="1.1" viewBox="0 0 2048 2048" width="512">
<path d="M 327.819 278.005 C 339.144 277.11 364.944 277.941 377.061 277.95 L 1699.34 278.079 C 1738.9 279.657 1770.6 290.391 1770.42 339.437 L 1770.6 1714.97 C 1770.81 1741.96 1745.56 1760.92 1722.54 1768.99 C 1717.77 1769.93 1699.19 1769.12 1693.03 1769.08 L 336.872 1768.83 C 260.672 1768.11 275.935 1681.6 275.999 1631.61 L 276.004 415.247 C 275.993 361.595 258.481 290.332 327.819 278.005 z M 1087.4 1641.31 C 1148.13 1642.38 1212.05 1641.31 1273.06 1641.3 L 1644 1641.31 C 1642.98 1623.31 1644 1600.59 1644.01 1581.89 L 1644 1085.99 L 1147.8 1085.96 C 1130.58 1085.94 1103.56 1084.96 1087.4 1085.99 C 1085.31 1089.3 1087.46 1162.03 1087.45 1176.86 L 1087.38 1591.23 C 1087.37 1605.9 1086.57 1627.42 1087.4 1641.31 z M 414.799 1085.99 C 398.516 1087.1 406.141 1111.22 406.154 1129.34 L 406.167 1593.5 C 406.172 1608.56 406.975 1626.68 406.15 1641.31 L 950.75 1641.31 C 969.211 1640.95 961.371 1618.48 961.375 1598.09 L 961.369 1085.99 L 414.799 1085.99 z M 406.15 404.014 L 406.15 959.51 L 961.369 959.51 L 961.369 404.014 L 406.15 404.014 z M 1087.4 404.014 L 1087.4 959.51 L 1458.12 959.493 C 1518.34 959.491 1584.13 958.116 1644 959.51 L 1645.24 958.813 C 1642.86 935.813 1644.03 912.217 1644.04 888.917 L 1644 404.014 C 1627.38 404.812 1610.91 404.064 1594.28 404.032 L 1131.3 403.961 C 1118.22 403.925 1100.22 403.332 1087.4 404.014 z" fill="rgb(0,0,0)" transform="translate(0,0)"></path>
<metadata><recraft-signature>{"signed_by": "recraft", "signature_b64": "6Lq0syVpc2AJaj3Rmg3LNjgu6iGCl5w+LguXsFC4laOxSriERGNMtdAaWFnRP/24fiTH6sbzTUu8vusaC79PDg==", "signing_algo": "Ed25519", "generation_timestamp": 1773000627, "identifier": "b3419c8f-652d-453b-bb33-a18532dde40c"}</recraft-signature></metadata></svg>