<svg xmlns="http://www.w3.org/2000/svg" height="512" preserveAspectRatio="none" style="display: block;" version="1.1" viewBox="0 0 2048 2048" width="512">
<path d="M 534.906 353.082 C 555.848 352.526 579.556 353.063 600.705 353.066 L 1094.65 352.807 C 1182.13 352.844 1192.7 478.245 1089.91 477.299 L 604.881 477.025 C 540.687 476.951 481.789 472.082 481.05 555.317 L 481.062 1403.25 C 481.061 1438.61 480.022 1475.14 482.47 1510.42 C 485.869 1559.4 533.218 1566.86 572.348 1566.59 L 783.862 1566.56 L 1072.01 1566.46 C 1097.13 1566.38 1116.57 1563.38 1138.12 1578.4 C 1182.84 1609.58 1166.32 1683.62 1111.7 1690.11 C 1099.12 1691.61 1086.36 1691.06 1073.7 1691.06 L 606.915 1691.02 C 580.305 1690.99 542.629 1693.37 517.589 1689.96 C 436.911 1678.94 367.32 1609.3 360.145 1527.53 C 358.554 1509.4 359.317 1489.4 359.341 1470.87 L 359.459 566.384 C 360.044 493.136 365.208 442.974 429.474 391.955 C 460.839 367.055 495.957 357.534 534.906 353.082 z" fill="rgb(51,50,51)" transform="translate(0,0)"></path>
<path d="M 1401.43 353.082 L 1475.54 353.033 C 1553.9 353.044 1608.96 363.783 1658.76 434.272 C 1693.92 484.036 1689.39 532.257 1689.36 589.541 L 1689.42 1466.36 C 1689.56 1548.3 1677.39 1608.47 1602.61 1659.5 C 1553.93 1692.73 1436.82 1700 1377.12 1688.57 C 1331.99 1672.01 1310.58 1624.45 1344.42 1586.49 C 1371.38 1556.24 1462.29 1567.14 1503.22 1566.69 C 1573.75 1565.9 1568.77 1486.93 1568.72 1439.29 L 1568.71 591.519 C 1568.73 575.541 1569.49 557.097 1568.71 541.504 C 1564.98 460.024 1463.92 478.625 1410.26 477.255 C 1398.63 476.958 1387.79 479.834 1376 477.277 C 1313.7 463.769 1295.66 357.575 1401.43 353.082 z" fill="rgb(254,175,45)" transform="translate(0,0)"></path>
<metadata><recraft-signature>{"signed_by": "recraft", "signature_b64": "QJfG4kenRZL9qVYmS12D1m7odTWZcXspInIoNnHAQkMcVfuhg0761hr2aml4nMYEC7YzgSgM7GdXa3f2EBcZBQ==", "signing_algo": "Ed25519", "generation_timestamp": 1773000000, "identifier": "3890f354-cd47-4314-9a8e-e36a5fdf0433"}</recraft-signature></metadata></svg>