<svg xmlns="http://www.w3.org/2000/svg" height="512" preserveAspectRatio="none" style="display: block;" version="1.1" viewBox="0 0 2048 2048" width="512">
<path d="M 1324.38 291.781 L 1640.73 291.711 C 1734.37 291.002 1745.05 316.241 1745.02 412.326 L 1745.51 1672.65 C 1745.7 1734.63 1696.57 1750.31 1644.58 1750.09 L 1364.5 1750 L 1040.58 1750.2 C 960.403 1750.68 947.648 1725.53 947.774 1649.71 L 947.408 371.759 C 946.931 304.948 990.646 291.472 1048.17 291.666 L 1324.38 291.781 z M 1388 1602.01 L 1595.01 1602.01 L 1595.01 440.715 L 1388 440.715 L 1388.08 1567.71 C 1388.1 1576.48 1388.75 1593.97 1388 1602.01 z M 1098 1602.01 C 1114.59 1602.01 1233.33 1604.1 1237.31 1600.4 L 1237.57 1599.19 L 1237.56 545.655 C 1237.62 511.918 1236.59 473.996 1237.57 440.715 L 1144.85 440.779 C 1130.37 440.788 1112.14 441.35 1098 440.715 L 1097.94 1561.1 C 1097.92 1573.76 1097.43 1589.61 1098 1602.01 z" fill="rgb(0,0,0)" transform="translate(0,0)"></path>
<path d="M 371.616 291.781 C 376.635 291.158 407.524 291.751 413.929 291.751 L 663.101 291.76 C 715.742 291.767 787.514 279.224 806.504 344.789 C 811.934 363.539 809.581 392.189 809.544 412.51 L 809.845 1678.72 C 810.111 1714.67 779.635 1740.28 747.786 1750 C 740.489 1750.91 709.046 1750.02 699.483 1750.02 L 438.813 1750.02 C 341.024 1750.02 302.915 1755.7 302.954 1641.73 L 302.804 365.016 C 302.739 325.561 334.892 297.991 371.616 291.781 z M 451.009 1602.01 C 469.844 1603.18 499.228 1602.02 519.315 1602.01 L 659.946 1602.01 L 659.941 567.61 C 659.938 527.845 658.63 479.803 659.946 440.715 L 516.537 440.689 C 501.646 440.681 463.256 439.485 451.009 440.715 L 451.009 1602.01 z" fill="rgb(0,0,0)" transform="translate(0,0)"></path>
<metadata><recraft-signature>{"signed_by": "recraft", "signature_b64": "HzsIzN2+VfChAAl+EegGjKaUxG+/75A2+dP9UQVvBHeaV4gC+fKCVoKWXbWEyu3AuNEG1pJvaN0yB+K2d2C5DQ==", "signing_algo": "Ed25519", "generation_timestamp": 1772996637, "identifier": "d77fdb16-ffda-4527-9368-7cb6f7ecdd71"}</recraft-signature></metadata></svg>