<svg xmlns="http://www.w3.org/2000/svg" height="512" preserveAspectRatio="none" style="display: block;" version="1.1" viewBox="0 0 2048 2048" width="512">
<path d="M 881.476 352.123 C 937.503 350.554 1001.51 352.177 1058.16 352.175 L 1119.94 352.019 C 1183.82 351.759 1245.21 364.135 1244.9 447.178 L 1245.09 1576.19 C 1245.28 1641.92 1240.54 1692.12 1162.25 1694.19 L 957.438 1694.17 C 838.654 1694.16 798.745 1701.18 798.968 1573.74 L 798.983 512.978 C 798.928 443.953 785.919 364.306 881.476 352.123 z M 927.988 1568.86 C 990.469 1568.11 1054.59 1568.87 1117.24 1568.86 L 1119.53 1568.3 C 1121.63 1562.27 1120.88 1497.65 1120.88 1486.32 L 1120.86 479.502 L 927.988 479.502 L 927.988 1568.86 z" fill="rgb(54,58,62)" transform="translate(0,0)"></path>
<path d="M 338.929 608.116 C 400.889 607.392 464.202 608.204 526.252 608.18 L 579.199 607.98 C 642.434 607.639 694.437 630.056 694.542 702.263 L 694.581 1590.2 C 694.695 1647.17 681.53 1693.17 610.277 1694.19 L 421.012 1694.19 C 378.065 1694.2 323.539 1702.27 288.227 1675.96 C 249.74 1647.29 255.329 1598.97 255.377 1556.51 L 255.349 742.956 C 255.295 680.261 254.176 616.317 338.929 608.116 z M 379.593 1568.86 L 571.069 1568.86 L 571.069 737.628 L 379.593 737.628 L 379.593 1568.86 z" fill="rgb(54,58,62)" transform="translate(0,0)"></path>
<path d="M 1561.74 1022.52 L 1658.53 1022.47 C 1727.74 1022.44 1792.57 1024.49 1793.05 1112.42 L 1792.99 1553.48 C 1793.21 1667.77 1784.4 1694.26 1666.64 1694.25 L 1581.5 1694.19 L 1472.18 1694.22 C 1363.6 1694.22 1349.78 1675.83 1349.87 1566.81 L 1349.41 1103.44 C 1348.63 1018.9 1421.74 1022.44 1483.48 1022.46 L 1561.74 1022.52 z M 1473.95 1150.49 L 1473.95 1568.86 L 1652.74 1568.86 L 1668.91 1568.86 L 1668.91 1150.49 L 1492.91 1150.49 L 1473.95 1150.49 z" fill="rgb(54,58,62)" transform="translate(0,0)"></path>
<path d="M 1427.27 352.123 L 1680.87 352.05 C 1800.06 351.923 1792.99 411.41 1793.03 511.491 L 1793.02 764.773 C 1792.99 823.817 1790.68 889.72 1711.82 895.741 L 1453.17 895.837 C 1409.57 895.977 1356.46 884.935 1351.04 830.368 C 1348.66 806.429 1349.89 775.804 1349.89 750.878 L 1349.89 477.763 C 1349.85 420.005 1348.24 361.573 1427.27 352.123 z M 1473.95 574.222 L 1668.91 574.222 L 1668.91 479.502 L 1473.95 479.502 L 1473.95 574.222 z M 1473.95 766.256 L 1668.91 766.256 L 1668.91 701.858 C 1604.39 701.852 1538.32 701.064 1473.95 701.858 L 1473.95 766.256 z" fill="rgb(54,58,62)" transform="translate(0,0)"></path>
<metadata><recraft-signature>{"signed_by": "recraft", "signature_b64": "HRt3xT1qFp+ePTWIgTO6CUr9/lHrQ4cEHioRTFgNTiqmrraBzIsrfNIeSW++NBPJ9JsT1LsgpQLxqE9OQ4kIAg==", "signing_algo": "Ed25519", "generation_timestamp": 1773000092, "identifier": "384a7ea4-7674-4047-a6e8-1fe32dc63b57"}</recraft-signature></metadata></svg>