<svg xmlns="http://www.w3.org/2000/svg" height="512" preserveAspectRatio="none" style="display: block;" version="1.1" viewBox="0 0 2048 2048" width="512">
<path d="M 1068.61 266.087 C 1083.84 265.248 1105.83 266.016 1121.68 266.043 L 1696.74 266.09 C 1721.13 266.05 1769.26 258.159 1783 277.847 C 1784.28 301.044 1783 338.046 1783 362.336 L 1783 976.243 C 1782.98 987.54 1778.3 992.179 1767.25 994.366 L 1117.27 994.334 C 1106.44 994.329 1070.94 995.644 1063.08 994.366 C 1040.44 976.29 1051.09 910.463 1051.1 879.75 L 1051.03 290.9 C 1051.04 277.637 1055.89 269.81 1068.61 266.087 z M 1085.51 959.871 L 1734.82 959.871 L 1748.98 959.871 L 1748.98 301.289 L 1163.42 301.256 C 1139.69 301.25 1113.97 300.713 1090.47 301.289 L 1086.99 301.674 C 1084.18 305.432 1085.68 359.278 1085.74 367.533 L 1085.55 915.409 C 1085.57 929.479 1086.08 946.06 1085.51 959.871 z" fill="rgb(0,0,0)" transform="translate(0,0)"></path>
<path d="M 1406.5 436.592 C 1411.94 437.484 1434.93 462.349 1440.84 468.251 L 1544.35 572.85 C 1558.62 587.241 1573.54 601.491 1586.54 616.987 L 1537.96 616.987 C 1536.75 676.848 1537.94 741.026 1537.96 801.223 L 1442.04 801.223 C 1442.09 772.67 1441.07 741.072 1442.04 712.975 L 1406.5 712.975 L 1373.01 712.975 L 1373.01 801.223 L 1274.53 801.223 L 1274.53 616.987 C 1258.26 617.407 1242.3 616.749 1226.11 616.987 C 1251.76 581.68 1372.92 465.413 1406.5 436.592 z" fill="rgb(0,0,0)" transform="translate(0,0)"></path>
<path d="M 1063.08 1050.77 L 1712.75 1050.73 C 1726.15 1050.69 1773.59 1043.67 1780.66 1060.2 C 1785.37 1071.2 1783.03 1197.89 1783.03 1217.56 L 1783.03 1704.54 C 1783.03 1725.67 1789.53 1768.3 1770.82 1779.05 C 1722.89 1780.11 1670.63 1779.04 1622.41 1779.04 L 1153.23 1779.06 C 1124.86 1779.08 1095.48 1779.43 1067.08 1778.71 C 1052.22 1778.33 1051.1 1763.08 1051.08 1751.81 L 1051.13 1122.53 C 1051.03 1099.69 1043.08 1062.48 1063.08 1050.77 z M 1085.51 1085.34 C 1084.73 1108.35 1085.51 1135.43 1085.5 1158.73 L 1085.51 1745.02 L 1730.5 1745.02 L 1748.98 1745.02 C 1747.74 1724.85 1748.97 1695.98 1748.98 1674.72 L 1748.98 1085.34 L 1103.34 1085.34 L 1085.51 1085.34 z" fill="rgb(0,0,0)" transform="translate(0,0)"></path>
<path d="M 1398.39 1299.12 C 1454.04 1293.03 1504.04 1333.33 1509.91 1389 C 1515.78 1444.67 1475.28 1494.51 1419.58 1500.16 C 1364.2 1505.77 1314.7 1465.55 1308.87 1410.19 C 1303.03 1354.83 1343.05 1305.18 1398.39 1299.12 z" fill="rgb(0,0,0)" transform="translate(0,0)"></path>
<path d="M 1283.27 1453.04 C 1292.09 1452.41 1299.08 1455.72 1302.4 1464 C 1309.14 1480.8 1257.64 1506.18 1245.97 1510.64 C 1232.88 1514.07 1229.91 1506.98 1226.11 1496.16 C 1231.27 1478.19 1266.99 1460.33 1283.27 1453.04 z" fill="rgb(0,0,0)" transform="translate(0,0)"></path>
<path d="M 1402.09 1190.07 C 1435.21 1184.81 1426.78 1265.79 1412.68 1273.49 C 1380.9 1277.21 1386.87 1198.85 1402.09 1190.07 z" fill="rgb(0,0,0)" transform="translate(0,0)"></path>
<path d="M 1274.53 1241.01 C 1293.38 1240.34 1352.98 1284.93 1327.58 1307.85 C 1310.91 1308.15 1247.73 1262.83 1274.53 1241.01 z" fill="rgb(0,0,0)" transform="translate(0,0)"></path>
<path d="M 1356.68 1514.95 C 1368.34 1515 1373.84 1518.95 1377.05 1530.11 C 1373.42 1544.98 1360.42 1585.9 1348.62 1592.3 C 1336.13 1594.89 1330.91 1587.57 1327.58 1576.92 C 1330.5 1562.76 1342.05 1521.19 1356.68 1514.95 z" fill="rgb(0,0,0)" transform="translate(0,0)"></path>
<path d="M 1533.67 1241.01 C 1580.92 1234.15 1511.85 1305.05 1501.97 1307.85 C 1453.93 1302.87 1516.91 1244.7 1533.67 1241.01 z" fill="rgb(0,0,0)" transform="translate(0,0)"></path>
<path d="M 1455.52 1514.95 C 1471.55 1516.56 1509.94 1579.99 1480 1592.3 C 1464.09 1593.38 1426.27 1530.12 1455.52 1514.95 z" fill="rgb(0,0,0)" transform="translate(0,0)"></path>
<path d="M 1529.27 1453.04 C 1535.73 1453.22 1612.15 1492.31 1579.29 1514.95 C 1562.55 1513.6 1492.43 1469.69 1529.27 1453.04 z" fill="rgb(0,0,0)" transform="translate(0,0)"></path>
<path d="M 1567.13 1354.49 C 1567.79 1354.49 1578.3 1354.65 1580.13 1354.28 C 1611.89 1347.92 1630.78 1386.31 1579.29 1385.69 C 1562.1 1385.65 1518.39 1390.08 1537.88 1359.06 C 1541.56 1353.2 1559.13 1354.44 1567.13 1354.49 z" fill="rgb(0,0,0)" transform="translate(0,0)"></path>
<path d="M 1215.18 1354.49 C 1229.36 1354.63 1260.6 1356.1 1273.92 1360.31 C 1283.14 1363.22 1287.99 1382.12 1271.75 1385.69 C 1243.98 1390.18 1171.3 1379.48 1215.18 1354.49 z" fill="rgb(0,0,0)" transform="translate(0,0)"></path>
<path d="M 284.281 266.087 C 330.292 265.029 380.627 266.069 427.125 266.073 L 888.918 266.103 C 917.692 266.1 946.566 265.765 975.248 266.242 C 1006.48 266.76 995.477 319.002 995.473 342.434 L 995.49 985.335 C 993.073 988.785 990.605 991.288 987.762 994.366 C 982.107 994.97 979.547 994.742 974.005 994.366 L 290.682 994.251 C 255.349 998.846 266.985 934.754 266.983 910.218 L 266.516 291.053 C 266.495 278.061 270.906 268.576 284.281 266.087 z M 301 959.871 L 887.296 959.851 C 909.036 959.848 934.974 959.111 956.249 959.871 C 957.571 959.697 960.292 959.825 960.971 958.623 C 968.731 944.871 956.867 423.425 961.844 301.289 L 306.156 301.289 C 294.485 302.91 301.017 339.913 301.042 353.752 L 301 959.871 z" fill="rgb(0,0,0)" transform="translate(0,0)"></path>
<path d="M 632.999 462.625 C 644.245 464.622 685.385 564.047 692.556 580.542 C 736.419 585.976 780.93 586.863 824.805 591.714 C 868.388 596.532 742.998 685.866 733.868 693.342 C 737.506 720.086 774.951 835.514 752.187 840.775 C 746.259 840.135 650.668 775.02 637.004 766.173 C 622.97 758.989 541.001 836.785 517.811 839.693 C 492.787 842.831 533.629 711.374 537.487 693.342 C 529.106 684.592 517.979 675.453 508.703 667.439 L 451.549 618.741 C 442.134 610.571 425.994 593.773 450.69 590.66 C 487.489 586.02 541.964 580.274 578.072 580.542 L 579.241 575.374 C 582.595 559.978 616.667 470.543 632.999 462.625 z" fill="rgb(0,0,0)" transform="translate(0,0)"></path>
<path d="M 284.281 1050.77 L 983.289 1050.77 C 995.871 1058.79 995.299 1063.47 995.37 1077.64 L 995.484 1679.13 C 995.491 1703.01 1005.48 1770.77 983.289 1779.05 L 347.093 1779.04 C 331.128 1779.03 292.014 1780.35 278.009 1779.05 C 274.522 1776.02 272.403 1773.23 269.473 1769.71 C 265.84 1751.67 266.957 1708.26 266.975 1688.23 L 266.91 1076.45 C 266.868 1061.39 269.965 1056.34 284.281 1050.77 z M 301 1085.34 L 301.011 1697 C 300.945 1712.88 301.472 1729.22 301 1745.02 L 808.5 1745.02 L 961.844 1745.02 L 961.844 1085.34 L 455.994 1085.34 L 301 1085.34 z" fill="rgb(0,0,0)" transform="translate(0,0)"></path>
<path d="M 599.709 1201.03 C 640.025 1199.62 633.06 1240.26 633.061 1268.61 L 632.999 1341.3 L 643.663 1347.73 C 674.905 1321.4 689.011 1333.05 709.325 1362.35 C 739.774 1339.28 754.961 1350.34 769.331 1383 C 779.658 1375.25 782.055 1374.02 794.378 1370.06 C 812.888 1379 822.311 1397.53 822.105 1417.63 C 820.938 1531.11 838.281 1544.33 755.045 1636.99 L 652.5 1636.99 L 610.554 1636.99 C 599.385 1626.9 590.142 1612.67 581.21 1600.5 C 557.206 1567.8 471.393 1466.6 462.509 1436.41 C 464.689 1426.69 468.143 1414.27 478.825 1410.52 C 518.628 1399.21 533.49 1440.29 558.8 1466.03 C 562.177 1469.47 575.969 1487.84 576.99 1473.37 C 578.54 1451.4 578.084 1427.47 578.089 1405.5 L 578.12 1273.56 C 578.12 1246.1 569.087 1213.76 599.709 1201.03 z" fill="rgb(0,0,0)" transform="translate(0,0)"></path>
<path d="M 550.907 1257.99 L 551.862 1258.33 C 547.114 1280.66 550.52 1383.99 550.907 1410.46 C 535.625 1393.66 521.177 1379.12 496.17 1377.68 C 444.027 1374.7 443.157 1419.55 432.98 1428.89 L 429.778 1428.19 C 408.68 1420.4 384.969 1403.95 392.725 1378.27 C 394.563 1372.18 524.956 1270.93 550.907 1257.99 z" fill="rgb(0,0,0)" transform="translate(0,0)"></path>
<metadata><recraft-signature>{"signed_by": "recraft", "signature_b64": "yAmYt+HAcVUan4gD6b9oN6uH5fyxmjiIXEiStp9l/NvvFvfAA8FnWNFrWq55Wa7mv8VPuWA7xf9Yo/EHeR9SAA==", "signing_algo": "Ed25519", "generation_timestamp": 1772988270, "identifier": "910c6f36-c155-4009-83ff-35d0dfce306f"}</recraft-signature></metadata></svg>