<svg xmlns="http://www.w3.org/2000/svg" height="512" preserveAspectRatio="none" style="display: block;" version="1.1" viewBox="0 0 2048 2048" width="512">
<path d="M 635.993 310.056 C 636.136 310.053 636.279 310.049 636.423 310.045 L 700.97 309.934 C 760.49 309.81 764.069 310.983 763.908 372.595 L 763.826 431.949 L 1288.13 431.949 L 1287.99 375.102 C 1287.89 290.722 1314.48 311.398 1384.53 310.025 C 1461.98 306.524 1440.1 367.874 1439.98 431.949 L 1678.98 431.871 C 1753.19 431.598 1769.52 446.819 1769.55 523.89 L 1769.57 1680.6 C 1770.33 1740.87 1711.7 1737.45 1672.36 1737.17 L 341.024 1737.41 C 289.641 1736.68 278.712 1692.56 278.625 1651.91 L 278.608 1251.52 C 278.606 1224.42 273.743 1167.35 284.145 1143.99 C 302.036 1103.81 340.719 1108.78 377.408 1108.77 L 870.612 1108.7 C 899.504 1108.59 946.855 1105.6 945.956 1149.7 C 944.486 1221.86 954.428 1235.43 867.574 1235.05 L 530.484 1235.02 C 490.178 1235.02 447.003 1234.16 406.999 1235.02 L 406.999 1581.5 L 406.999 1610.89 L 1642.01 1610.89 L 1642.01 1360.29 C 1642.01 1319.42 1641.11 1275.52 1642.01 1235.02 L 1187.18 1235.06 C 1164.93 1235.14 1134.04 1240.13 1117.69 1224.17 C 1097.36 1204.32 1099.33 1137.97 1116.42 1120.75 C 1133.65 1103.58 1167.74 1108.68 1190.95 1108.74 L 1642.01 1108.79 L 1642.01 559.961 L 1439.98 559.961 L 1440.13 620.394 C 1440.17 645.971 1444.92 679.534 1408.73 680.245 C 1376.37 680.88 1343.15 681.902 1310.9 680.013 C 1276.05 677.97 1288.41 585.13 1288.13 559.961 L 938.162 559.962 C 881.321 559.959 820.41 558.825 763.826 559.961 C 762.757 594.805 778.366 680.738 733.009 680.802 C 653.142 679.125 610.721 706.818 610.877 617.868 L 611.015 559.961 C 600.425 558.551 586.901 559.871 575.792 559.921 L 438.977 559.926 C 430.39 559.878 414.674 558.894 406.999 559.961 L 407.008 864.502 C 407.071 875.832 408.276 887.331 407.062 898.561 C 399.512 962.115 278.616 955.782 278.553 890.137 L 278.573 528.621 C 278.516 514.266 277.518 496.91 278.831 482.966 C 282.976 418.222 377.396 431.969 420.476 431.983 L 611.015 431.949 C 610.975 395.29 596.232 322.631 635.993 310.056 z" fill="rgb(0,0,0)" transform="translate(0,0)"></path>
<metadata><recraft-signature>{"signed_by": "recraft", "signature_b64": "ZXfLwlbth4MRcEUZmrcSqADovGfXyeO56d84kccvZDFopaltUw/4GkoWL3wIHFTPlLHDsHOMIGpbLn3wp9b2AA==", "signing_algo": "Ed25519", "generation_timestamp": 1772989626, "identifier": "14ac255a-986f-4eb0-a0cb-65381e4e20d6"}</recraft-signature></metadata></svg>