<svg xmlns="http://www.w3.org/2000/svg" height="512" preserveAspectRatio="none" style="display: block;" version="1.1" viewBox="0 0 2048 2048" width="512">
<path d="M 1159.6 325.001 C 1178.04 323.727 1208.85 324.976 1228.65 325.019 L 1479.6 324.962 C 1496.58 324.948 1513.45 324.789 1530.54 325.037 C 1626.4 326.426 1713.1 398.458 1722.19 495.745 C 1724.26 517.814 1723.04 543.944 1723.02 566.328 L 1723.01 820.919 C 1723.06 852.478 1735.75 903.078 1695.76 906.739 C 1675.32 906.768 1604.35 909.32 1587.8 904.282 C 1560.01 895.822 1570.02 837.219 1570.03 814.245 L 1570.12 554.15 C 1570.12 536.317 1572.16 513.651 1563.99 497.355 C 1546.09 466.158 1474.45 477.019 1442.13 477.026 L 1220.82 476.869 C 1190.17 476.894 1132.23 488.439 1131.38 441.505 C 1130.6 398.879 1117 341.769 1159.6 325.001 z" fill="rgb(0,0,0)" transform="translate(0,0)"></path>
<path d="M 501.865 325.001 C 506.657 324.47 513.808 324.854 518.712 324.86 L 834.282 325.007 C 863.328 324.985 919.745 316.941 918.412 362.587 C 917.601 390.345 919.97 419.94 917.85 447.427 C 915.276 480.812 874.13 477.036 851.889 477.021 L 525.733 476.848 C 471.41 476.875 478.87 514.001 478.915 553.384 L 479.001 642.25 L 478.921 805.341 C 478.889 824.085 483.393 877.383 475.263 892.309 C 462.351 916.015 431.191 905.199 409.069 906.542 C 327.609 911.49 327.964 910.68 327.989 829.404 L 327.997 570.075 C 327.995 542.941 325.68 505.607 330.395 479.495 C 346.422 390.728 416.852 335.951 501.865 325.001 z" fill="rgb(0,0,0)" transform="translate(0,0)"></path>
<path d="M 1597.88 1137.08 C 1618.13 1135.33 1643.07 1138.08 1663.79 1136.94 C 1725.51 1138.41 1722.97 1140.28 1723.03 1209.29 L 1722.92 1502 C 1723.12 1602.98 1682.05 1692.11 1573.31 1716.62 C 1540.4 1724.04 1500.29 1721.31 1466.24 1721.56 L 1261.75 1721.49 L 1203.34 1721.6 C 1185.68 1721.79 1136.88 1725.91 1135.08 1696.68 C 1133.36 1663.27 1133.02 1628.06 1134.87 1594.64 C 1136.45 1566.12 1174.3 1570.61 1193.08 1570.71 L 1465.36 1570.81 C 1576.09 1570.82 1570.3 1578.32 1570.06 1466.55 L 1570.01 1201.44 C 1569.85 1173.93 1563.07 1143.97 1597.88 1137.08 z" fill="rgb(0,0,0)" transform="translate(0,0)"></path>
<path d="M 375.72 1137.08 C 448.788 1141.22 479.752 1112.73 479.09 1193.97 L 479.009 1435.58 C 479.008 1466.46 478.873 1498.19 479.213 1528.63 C 479.837 1584.48 538.52 1570.88 580.338 1570.79 L 851.546 1570.68 C 915.903 1569.94 913.405 1580.37 911.942 1636.72 C 910.858 1678.44 926.808 1720.9 866.873 1721.49 L 553.259 1721.49 C 528.098 1721.45 505.015 1722.31 480.079 1717.2 C 397.915 1700.54 333.737 1629.11 328.092 1545.21 C 326.636 1523.56 327.972 1501.02 328.022 1479.18 L 327.994 1230.32 C 327.968 1175.42 311.876 1138.9 375.72 1137.08 z" fill="rgb(0,0,0)" transform="translate(0,0)"></path>
<metadata><recraft-signature>{"signed_by": "recraft", "signature_b64": "v5bnlDZoGAhu9uB4gfmITnNuPhZpuFwfeXqLkpQfJoYyH6ZI98XWG+4ahGmtSkcCOl+6ZQT4tTYrzzhfeHCGBw==", "signing_algo": "Ed25519", "generation_timestamp": 1772989654, "identifier": "4d181267-9a3d-4e55-b7d7-fe190ed23ad3"}</recraft-signature></metadata></svg>