<svg xmlns="http://www.w3.org/2000/svg" height="512" preserveAspectRatio="none" style="display: block;" version="1.1" viewBox="0 0 2048 2048" width="512">
<path d="M 897.606 583.101 C 926.469 544.353 973.953 439.886 996.94 393.892 C 1029.67 328.407 1055.33 248.511 1134.19 230.346 C 1155.06 225.539 1240.16 224.893 1261.09 228.947 C 1388.3 253.593 1381.62 388.002 1372.36 488.29 C 1355.85 667.123 1220.92 816.325 1045.85 854.693 C 1015.98 861.599 990.192 862.367 959.984 862.041 C 959.234 873.256 959.923 891.064 959.938 902.822 L 960.049 1311.08 C 960.065 1325.42 961.194 1344.41 958.658 1358.2 C 946.309 1425.35 841.427 1427.15 832.394 1357.43 C 829.957 1338.62 831.005 1318.9 831.001 1300.02 L 831.02 862.041 C 623.856 861.443 443.404 698.378 420.046 491.214 C 416.446 459.291 417.398 431.086 416.971 399.269 C 415.723 306.167 443.801 238.331 546.288 226.997 C 711.691 223.556 717.166 238.014 786.382 373.847 C 817.242 434.409 859.067 526.729 896.74 581.846 L 897.606 583.101 z" fill="rgb(0,0,0)" transform="translate(0,0)"></path>
<path d="M 1209.26 959.014 C 1223.58 958.172 1239.71 960.49 1253.86 962.528 C 1459.71 992.177 1633.06 1170.7 1632.01 1383 C 1630.84 1621.26 1455.51 1802.55 1219.75 1823.85 C 1156.47 1829.67 1129.16 1773.39 1156.38 1727.07 C 1172.55 1698.1 1199.69 1701.14 1227.52 1697.12 C 1328.05 1682.63 1414.57 1621.44 1465.24 1534.92 C 1566.21 1362.53 1461.89 1137.27 1269.42 1094.47 C 1244.3 1088.89 1202.76 1088.16 1184.42 1077.52 C 1133.83 1046.46 1146.06 974.525 1209.26 959.014 z" fill="rgb(0,0,0)" transform="translate(0,0)"></path>
<metadata><recraft-signature>{"signed_by": "recraft", "signature_b64": "iBa/Mspi1EBm8+5EdklcqaIM0FdkQ8zeZS+m+sEeT32ghBX6sdarJMafYZq7AuB/f0rYpeo6LEw5rIyjcP2DAA==", "signing_algo": "Ed25519", "generation_timestamp": 1772999195, "identifier": "a85b3d1e-085f-40ae-ad43-407a678fa7bd"}</recraft-signature></metadata></svg>