<svg xmlns="http://www.w3.org/2000/svg" height="512" preserveAspectRatio="none" style="display: block;" version="1.1" viewBox="0 0 2048 2048" width="512">
<path d="M 1360.89 442.606 C 1399.62 436.741 1435.72 461.044 1458.35 490.283 C 1470.01 488.773 1476.59 488.927 1488.29 490.283 C 1527.34 396.261 1664.83 463.337 1635.87 546.851 C 1724.67 616.055 1687.49 674.966 1783.33 735.168 C 1844.02 773.292 1821.56 820.937 1782.92 869.769 C 1714.56 956.146 1632.16 911.504 1542.02 917.618 C 1490.44 921.117 1450 962.074 1418.95 1000.08 C 1428.23 1028.97 1435.42 1049.9 1450.87 1076.44 C 1496.18 1154.3 1586.79 1236.51 1548.68 1336.01 C 1533.96 1374.45 1512.81 1408.62 1494.28 1444.99 L 1457.39 1517.23 C 1411.83 1606.7 1400.8 1577.08 1356.78 1507.04 C 1345.28 1486.88 1333.77 1466.76 1323.94 1445.88 C 1301.04 1397.24 1362.46 1354.07 1345.21 1310.83 C 1334.92 1285.06 1265.38 1243.46 1240.67 1233.05 L 1239.17 1232.43 C 1225.43 1283.35 1221.76 1413.57 1236.94 1469.11 C 1273.78 1499.13 1308.27 1510.21 1334.66 1559.26 C 1345.25 1583.82 1328.06 1602.57 1303.99 1601.98 C 1198.79 1599.41 1037.98 1638.53 1022.32 1493.68 C 1012.83 1405.82 966.736 1313.28 935.623 1232.43 C 919.156 1236.59 906.755 1239.61 889.784 1241.92 C 857.436 1248.04 805.156 1248.13 771.945 1247.84 C 753.298 1298.1 708.498 1405.79 716.146 1458.8 C 739.429 1482.54 778.611 1505.44 793.051 1536.31 C 813.918 1580.93 721.141 1571.21 703.441 1571.21 L 637.643 1571.19 C 606.461 1571.17 580.73 1574.23 554.036 1555.23 C 499.762 1516.6 524.837 1450.48 526.014 1399.27 C 526.995 1373.48 523.132 1353.06 519.012 1327.94 C 454.296 1392.15 457.91 1387.89 441.867 1479.41 C 457.712 1495.7 522.931 1549.79 521.246 1572.91 C 518.291 1613.44 454.557 1601.86 425.706 1601.91 L 355.636 1602.03 C 341.576 1602.06 326.763 1602.44 313.022 1601.45 C 230.772 1595.52 215.481 1521.94 225.875 1455.49 L 233.838 1404.08 C 235.641 1392.72 240.873 1349.36 244.614 1340.18 C 257.721 1308.01 263.853 1306.75 266.914 1269.08 C 272.205 1203.98 261.306 1143.28 254.903 1078.92 C 250.399 1033.65 254.225 987.678 258.305 942.548 C 201.43 904.724 223.979 839.473 266.197 800.248 C 447.973 631.359 551.787 505.231 823.677 541.285 C 928.454 555.179 926.064 554.44 1024.27 528.304 C 1094.33 509.659 1199.08 493.905 1269.92 511.644 C 1291.51 471.022 1312.29 447.608 1360.89 442.606 z M 423.103 1543.44 C 373.628 1495.26 383.435 1513.76 389.616 1456.96 C 393.986 1425.93 398.664 1367.12 420.431 1344.65 C 504.367 1269.21 550.212 1189.4 567.849 1079.38 C 568.732 1073.87 590.612 1080.79 594.645 1080.85 C 601.203 1081.62 612.414 1081.5 617.55 1085.37 C 622.513 1095.28 615.869 1134.83 613.106 1147.43 C 638.822 1159.08 662.987 1165.1 687.292 1175.15 C 758.52 1188.52 848.619 1194.83 919.079 1175.15 C 905.287 1106.1 928.535 996.984 991.08 954.001 C 1003.44 967.477 1014.73 979.191 1027.75 992.034 C 952.772 1106.88 964.088 1155.75 1020.01 1278.37 C 1052.29 1349.17 1070.2 1432.08 1087.07 1507.45 C 1098.39 1558.02 1200.39 1539.38 1236.94 1543.44 C 1223.65 1532.54 1186.05 1513.69 1181.31 1504.5 C 1172.71 1482.93 1174.03 1451.21 1172.24 1428.08 C 1154.33 1196.6 1185.25 1146.76 1342.7 992.585 C 1363.17 972.538 1381.8 950.763 1401.88 930.353 C 1333.84 869.141 1285.49 802.686 1281.32 706.489 C 1280.11 678.8 1283.53 644.215 1293.82 618.455 C 1281.47 601.333 1273.86 591.864 1269.92 570.688 C 1238.92 566.086 1216.45 563.222 1184.85 563.527 C 1137.85 565.196 1100.08 571.247 1054.52 583.024 C 917.624 618.41 917.474 609.689 774.72 595.678 C 520.661 570.743 303.922 797.482 313.379 1049.4 C 316.978 1145.27 348.641 1243.15 311.42 1336.84 C 295.824 1376.09 296.043 1390.64 289.509 1433.16 C 284.797 1463.83 263.905 1531.51 310.154 1541.71 C 329.056 1545.88 402.31 1544.44 423.103 1543.44 z M 1360.89 501.068 C 1287.45 525.857 1342.54 578.765 1363.75 612.152 C 1309.67 715.928 1357.29 827.118 1451.15 887.69 C 1509.09 857.137 1552.63 852.249 1619.06 860.046 C 1636.61 862.106 1661.1 866.283 1678.3 866.003 C 1724.75 861.194 1745.45 831.244 1761.82 791.065 C 1735.3 775.186 1703.75 752.652 1684.44 728.333 C 1664.9 703.732 1660.87 673.137 1646.74 649.095 C 1601.55 572.234 1519.32 536.732 1432.99 553.54 L 1431.91 552.443 C 1407.02 526.95 1402.78 499.562 1360.89 501.068 z" fill="rgb(1,1,1)" transform="translate(0,0)"></path>
<path d="M 1575.45 643.803 C 1595.77 641.821 1613.89 656.563 1616.09 676.857 C 1618.29 697.15 1603.75 715.433 1583.48 717.85 C 1570.17 719.438 1557.04 713.753 1549.09 702.966 C 1541.14 692.178 1539.59 677.95 1545.05 665.71 C 1550.5 653.469 1562.11 645.103 1575.45 643.803 z" fill="rgb(1,1,1)" transform="translate(0,0)"></path>
<path d="M 1370.03 1049.83 C 1370 1049.8 1393.19 1096.44 1396.37 1102.57 C 1427.76 1163.11 1513.48 1237.65 1492.98 1311.43 C 1485.39 1338.72 1461.44 1378.5 1447.78 1404.22 L 1408.23 1479.41 C 1403.69 1470.13 1397.24 1459.32 1392.1 1450.19 C 1386.85 1441.09 1382.04 1432.53 1378.59 1422.58 C 1388.9 1384.07 1413.4 1367.45 1406.96 1319.89 C 1395.76 1237.11 1321.2 1217.61 1261.89 1172.13 C 1284.97 1135.69 1338.11 1080.51 1370.03 1049.83 z" fill="rgb(58,57,57)" transform="translate(0,0)"></path>
<metadata><recraft-signature>{"signed_by": "recraft", "signature_b64": "oH5aQne8Zx2t/5FymN/pKKrRZp3LfomUCSzAJ9BCvVvjSK8i/a9tjUujQgw0iaITbd1CGUHKEO8zxDzWBKqxCw==", "signing_algo": "Ed25519", "generation_timestamp": 1772997295, "identifier": "f3653a2c-be46-4e79-a62b-7bc6b21a885b"}</recraft-signature></metadata></svg>