<svg xmlns="http://www.w3.org/2000/svg" height="512" preserveAspectRatio="none" style="display: block;" version="1.1" viewBox="0 0 2048 2048" width="512">
<path d="M 1252.38 971.137 C 1470.77 967.924 1650.38 1142.44 1653.45 1360.83 C 1656.51 1579.23 1481.88 1758.72 1263.48 1761.64 C 1045.29 1764.56 866.009 1590.12 862.944 1371.94 C 859.88 1153.75 1034.19 974.346 1252.38 971.137 z" fill="rgb(35,34,35)" transform="translate(0,0)"></path>
<path d="M 1344.99 1065.7 C 1350.21 1066.61 1365.7 1072.95 1371.03 1075.18 C 1576.33 1158.4 1636.13 1430.98 1474.94 1587.76 C 1372.67 1687.22 1216.03 1702.54 1095.08 1627.81 C 1083.14 1620.43 1071.7 1612.91 1061.92 1602.75 C 943.728 1518.47 916.697 1326.37 994.956 1205.68 C 992.324 1339.95 1143.59 1368 1172.74 1211.54 C 1222.68 1243.77 1324.99 1286.82 1333.38 1190.04 C 1336.87 1149.81 1320.92 1124.37 1296.47 1094.28 C 1320.54 1086.54 1326.49 1082.34 1344.99 1065.7 z" fill="rgb(69,77,218)" transform="translate(0,0)"></path>
<path d="M 1070.11 938.178 C 1056.16 919.274 1042.81 902.813 1030.95 882.3 C 866.511 598.744 1111.07 235.607 1444.88 286.358 C 1806.95 341.408 1914.51 811.793 1626.66 1022.11 C 1618.75 1027.87 1606.52 1036.21 1598.12 1040.11 C 1577.59 1020.54 1555.2 1004.62 1535.95 986.452 C 1488.03 946.742 1418.81 919.794 1358.5 906.29 C 1342.93 902.803 1314.91 900.818 1301.26 895.997 C 1196.01 900.949 1178.42 897.532 1070.11 938.178 z" fill="rgb(69,77,218)" transform="translate(0,0)"></path>
<path d="M 1070.11 938.178 C 1056.16 919.274 1042.81 902.813 1030.95 882.3 C 866.511 598.744 1111.07 235.607 1444.88 286.358 C 1806.95 341.408 1914.51 811.793 1626.66 1022.11 C 1618.75 1027.87 1606.52 1036.21 1598.12 1040.11 C 1577.59 1020.54 1555.2 1004.62 1535.95 986.452 C 1540.97 980.202 1568.09 963.639 1576.21 957.398 C 1783.57 797.688 1744.93 471.454 1493.35 383.323 C 1261.49 302.1 1020.88 504.515 1065.7 739.428 C 1071.39 710.16 1076.6 686.32 1097.95 664.007 C 1128 632.597 1174.59 620.161 1208.18 653.938 C 1240.26 686.2 1237.13 712.499 1237.79 753.63 C 1349.94 705.237 1410.38 813.115 1326.22 882.834 C 1319.26 888.593 1310.93 896.719 1301.26 895.997 C 1196.01 900.949 1178.42 897.532 1070.11 938.178 z" fill="rgb(35,34,35)" transform="translate(0,0)"></path>
<path d="M 794.553 1401.77 C 445.584 1542.16 94.8258 1115.93 329.616 789.487 C 447.962 624.94 677.303 567.889 854.68 670.377 C 874.153 681.637 891.904 694.73 910.203 707.794 C 906.941 798.558 948.078 906.61 1005.92 974.193 C 988.978 986.406 974.658 997.179 958.666 1010.61 C 864.086 1102.95 818.214 1174.99 797.376 1312.23 C 793.159 1341.58 794.799 1372.06 794.553 1401.77 z" fill="rgb(69,77,218)" transform="translate(0,0)"></path>
<path d="M 794.553 1401.77 C 445.584 1542.16 94.8258 1115.93 329.616 789.487 C 447.962 624.94 677.303 567.889 854.68 670.377 C 874.153 681.637 891.904 694.73 910.203 707.794 C 906.941 798.558 948.078 906.61 1005.92 974.193 C 988.978 986.406 974.658 997.179 958.666 1010.61 C 952.888 1003.02 947.842 994.562 942.773 986.452 C 924.657 1022.45 899.892 1052.79 860.44 1065.53 C 773.836 1093.5 756.676 981.828 794.553 927.492 C 761.207 925.321 735.371 917.634 712.269 892.156 C 643.947 816.808 733.037 742.202 829.836 778.775 C 821.386 762.152 815.228 743.156 797.811 734.75 C 646.307 661.622 455.174 719.604 378.214 871.579 C 238.389 1134.82 499.924 1420.51 773.126 1320.13 C 779.836 1317.66 790.707 1313.03 797.376 1312.23 C 793.159 1341.58 794.799 1372.06 794.553 1401.77 z" fill="rgb(35,34,35)" transform="translate(0,0)"></path>
<metadata><recraft-signature>{"signed_by": "recraft", "signature_b64": "1sYfcYgNS9EgkWDXKHgljNkb2Y+eBKEeTSktvdJqyPk3KIACqmK2ZpmeJyKNqhu8ZH16Bwwv0GSredxF0mdKCQ==", "signing_algo": "Ed25519", "generation_timestamp": 1772997277, "identifier": "f4c75615-c36a-4e02-95b1-1533ae92b840"}</recraft-signature></metadata></svg>