<svg xmlns="http://www.w3.org/2000/svg" height="512" preserveAspectRatio="none" style="display: block;" version="1.1" viewBox="0 0 2048 2048" width="512">
<path d="M 1013.97 248.98 C 1062.33 245.437 1131.85 267.464 1180.23 278.947 L 1532.04 360.25 C 1582.66 372.164 1619.33 376.278 1661.17 412.104 C 1736.23 476.371 1751.18 581.679 1695.21 663.415 C 1658.14 717.567 1597.37 734.128 1538.87 755.757 L 1221.02 872.688 C 1166.05 893.563 1095.76 926.642 1037.25 931.001 C 974.786 931.709 949.549 917.558 892.337 896.374 L 513.655 756.102 C 487.411 746.173 460.14 738.503 434.422 726.845 C 287.98 660.461 279.221 450.395 430.067 383.994 C 449.05 375.638 467.806 372.926 487.939 368.465 L 944.137 261.473 C 968.758 255.595 988.374 249.183 1013.97 248.98 z M 1033.26 805.762 C 1052.82 803.391 1070.61 795.742 1089.05 788.894 L 1497.3 637.79 C 1541.35 621.23 1612.07 607.473 1605.06 546.005 C 1599.08 493.528 1543.68 491.067 1503.43 481.568 L 1139.94 396.671 C 1114.51 390.863 1039.27 369.705 1017.68 372.428 C 1001.23 373.987 983.187 378.941 966.993 382.877 L 550.716 482.325 C 527.851 487.627 505.446 490.668 482.35 498.659 C 438.506 513.828 430.836 578.601 468.443 603.876 C 487.702 616.821 533.683 631.173 557.392 640.048 L 921.036 774.334 C 951.001 785.209 1002.85 808.374 1033.26 805.762 z" fill="rgb(0,0,0)" transform="translate(0,0)"></path>
<path d="M 506.712 1181 L 699.482 1180.99 C 781.1 1180.94 846.119 1170.77 909.483 1234.67 C 967.532 1293.2 958.34 1361.19 958.26 1435.57 L 958.655 1573.07 C 959.23 1669.91 871.069 1752.34 775.25 1752.49 L 592.017 1752.44 C 551.329 1752.45 499.261 1755.74 460.668 1747.28 C 383.738 1730.41 321.758 1656.53 320.329 1577.37 C 319.652 1539.88 320.119 1501.5 320.085 1463.66 L 320.033 1398.84 C 320.029 1373.87 319.286 1347.06 324.931 1322.75 C 346.096 1231.62 417.897 1184.83 506.712 1181 z M 528.5 1627.87 L 700.457 1627.93 C 739.053 1627.93 825.535 1638.86 833.483 1583.42 C 840.965 1531.22 835.191 1426.82 834.855 1371.53 C 834.554 1321.86 813.797 1300.79 763.378 1302.63 L 751.12 1303.19 L 527.34 1303.09 C 489.451 1302.82 444.288 1310.56 446.221 1359.76 C 446.81 1410.37 446.243 1460.32 446.46 1510.99 C 446.725 1572.76 434.718 1628.69 515.405 1628.02 L 528.5 1627.87 z" fill="rgb(0,0,0)" transform="translate(0,0)"></path>
<path d="M 1249.3 1181 C 1254.14 1180.34 1274.96 1180.88 1280.7 1180.91 L 1491.7 1180.96 C 1550.15 1180.89 1594.98 1175.51 1646.55 1209.53 C 1721.61 1259.05 1726.13 1315.86 1726 1395.54 L 1726.04 1548.17 C 1726.03 1663.18 1678.62 1729.27 1565.75 1752.49 C 1547.04 1753.04 1524.74 1752.46 1505.78 1752.46 L 1311.08 1752.5 C 1166.83 1752.44 1088.93 1689.37 1089.01 1537.54 L 1089.03 1395.5 C 1088.97 1285.55 1122.95 1198.41 1249.3 1181 z M 1541.25 1627.87 C 1602.33 1619.07 1602.1 1577.99 1602.07 1531.06 L 1602.06 1389.44 C 1601.99 1316.36 1587.63 1303 1513.22 1303.12 L 1272.37 1303.19 C 1197.29 1311.41 1214.91 1388.31 1214.93 1446.55 L 1214.83 1528.95 C 1214.75 1559.89 1209.63 1592.81 1237.53 1614.1 C 1263.94 1634.26 1314.14 1627.9 1346 1627.9 L 1497.66 1627.93 C 1506.07 1627.97 1535.47 1626.57 1541.25 1627.87 z" fill="rgb(0,0,0)" transform="translate(0,0)"></path>
<metadata><recraft-signature>{"signed_by": "recraft", "signature_b64": "eIxK6dodpH/i/osi9RkLswjLcadzxgHAhbW5cGXQIbu0gpmkRC0x2imL5QVsgv9VaIFP/fzlZjd5e1L5RA/NBg==", "signing_algo": "Ed25519", "generation_timestamp": 1772997684, "identifier": "25cbe190-69b7-457c-8d14-af4b50237436"}</recraft-signature></metadata></svg>