<svg xmlns="http://www.w3.org/2000/svg" height="512" preserveAspectRatio="none" style="display: block;" version="1.1" viewBox="0 0 2048 2048" width="512">
<path d="M 303.999 196.855 C 321.022 210.247 341.598 231.908 357.542 247.6 L 1725.07 1613.7 C 1766.41 1655.33 1807.02 1697.37 1849.24 1738.21 L 1785.99 1800.67 C 1771.76 1814.99 1758.01 1830.75 1742.61 1843.76 C 1738.13 1843.36 1582.54 1683.78 1566.9 1668.1 L 229.949 333.29 C 219.553 322.937 208.277 310.387 197.566 300.979 C 225.899 271.717 273.188 220.844 303.999 196.855 z" fill="rgb(0,0,0)" transform="translate(0,0)"></path>
<path d="M 294.013 583.548 C 319.153 599.071 387.561 674.739 414.656 699.828 C 422.675 707.254 437.35 720.3 443.091 728.994 L 443.078 1109.91 C 443.058 1159.09 438.08 1248.71 446.323 1295.63 C 459.859 1372.68 520.318 1373.06 578.955 1373.04 L 1083.27 1373 C 1113.93 1394.97 1171.28 1456.87 1200.69 1486.17 C 1214.26 1499.7 1228.11 1511.89 1240.41 1525.8 C 1232.88 1527.21 1206.87 1525.89 1198.09 1525.87 L 629.577 1525.81 C 509.347 1525.84 418.093 1532.44 338.079 1420.68 C 290.24 1353.87 293.98 1306.95 293.992 1231.01 L 294.013 583.548 z" fill="rgb(0,0,0)" transform="translate(0,0)"></path>
<path d="M 1281.23 530.706 C 1288.78 530.136 1405.77 650.721 1419.99 665.512 C 1537.88 788.06 1665 902.334 1783.46 1024.2 C 1749.79 1054.62 1710.77 1095.99 1678.61 1128.64 L 1525.46 1281.86 C 1510.54 1268.03 1495.01 1251.57 1480.51 1236.97 L 1417.15 1173.56 C 1444.34 1144.15 1476.2 1112.74 1504.71 1084.61 C 1524.99 1064.22 1543.39 1043.9 1564.85 1024.2 C 1557.08 1014.31 1541.99 1000.11 1532.72 990.852 L 1247.44 707.395 C 1240.78 700.716 1227.41 687.997 1222.2 681.006 C 1190.87 681.938 1155.04 681.028 1123.27 681.023 L 926.382 681.006 C 916.356 673.521 895.347 650.013 885.033 639.885 C 848.857 604.36 811.015 567.968 776.685 530.706 L 1281.23 530.706 z" fill="rgb(0,0,0)" transform="translate(0,0)"></path>
<metadata><recraft-signature>{"signed_by": "recraft", "signature_b64": "mse4xt7prrLEtV8VctcuyqEDMy96/6rgxlsIhtE+XU4LfGTW55VqvotAhYtET4/nwjRua8SRk95OKeYXThjJAA==", "signing_algo": "Ed25519", "generation_timestamp": 1772997160, "identifier": "9cfe9079-3e75-4fad-bc9a-27396a1864dc"}</recraft-signature></metadata></svg>