<svg xmlns="http://www.w3.org/2000/svg" height="512" preserveAspectRatio="none" style="display: block;" version="1.1" viewBox="0 0 2048 2048" width="512">
<path d="M 535.564 477.979 L 1477.3 477.915 C 1494.08 477.902 1508.98 477.424 1525.96 479.855 C 1768.37 514.535 1718.7 868.817 1513.53 877.263 C 1501.83 878.261 1474.51 877.317 1461.73 877.303 L 596.28 877.349 C 574.262 877.395 549.462 878.491 527.871 875.402 C 302.785 843.199 299.333 501.29 535.564 477.979 z M 1506.1 759.026 C 1579.61 745.936 1596.57 648.62 1537.03 607.32 C 1507.97 587.166 1473.59 593.05 1439.96 593.05 L 582.105 593.005 C 574.173 592.988 551.429 592.342 544.796 593.075 C 449.583 607.312 451.512 748.983 548.346 758.542 C 559.039 759.598 571.332 759.068 582.166 759.067 L 1506.1 759.026 z" fill="rgb(0,0,0)" transform="translate(0,0)"></path>
<path d="M 1401.66 1033.86 C 1545.13 1020.1 1672.65 1125.11 1686.67 1268.56 C 1700.69 1412.01 1595.92 1539.72 1452.5 1554.01 C 1308.7 1568.33 1180.58 1463.22 1166.52 1319.4 C 1152.46 1175.58 1257.81 1047.65 1401.66 1033.86 z M 1431.13 1438.51 C 1511.01 1435.47 1573.28 1368.21 1570.18 1288.33 C 1567.07 1208.45 1499.76 1146.23 1419.89 1149.4 C 1340.09 1152.56 1277.95 1219.78 1281.06 1299.57 C 1284.16 1379.37 1351.33 1441.56 1431.13 1438.51 z" fill="rgb(0,0,0)" transform="translate(0,0)"></path>
<path d="M 608.906 1034.48 C 752.544 1027.26 874.799 1137.93 881.869 1281.57 C 888.939 1425.22 778.143 1547.36 634.491 1554.28 C 491.048 1561.19 369.124 1450.59 362.064 1307.16 C 355.005 1163.72 465.478 1041.68 608.906 1034.48 z" fill="rgb(0,0,0)" transform="translate(0,0)"></path>
<path d="M 602.387 1153.22 C 680.679 1143.04 752.357 1198.37 762.331 1276.69 C 772.306 1355.01 716.786 1426.54 638.442 1436.31 C 560.387 1446.04 489.178 1390.77 479.24 1312.74 C 469.303 1234.71 524.385 1163.36 602.387 1153.22 z" fill="rgb(254,5,0)" transform="translate(0,0)"></path>
<metadata><recraft-signature>{"signed_by": "recraft", "signature_b64": "KTWlvNQCTfjIaahHRcEv9ZV4GljQsNlaBEsvnlA3ihcrrVNO96+dpp94CIaPwzqmiENJLr3j3Vd1XTW8oiChAg==", "signing_algo": "Ed25519", "generation_timestamp": 1772989167, "identifier": "f7294bc5-cfc6-49e3-9c2d-991d41694184"}</recraft-signature></metadata></svg>