<svg xmlns="http://www.w3.org/2000/svg" height="512" preserveAspectRatio="none" style="display: block;" version="1.1" viewBox="0 0 2048 2048" width="512">
<path d="M 677.194 800.818 L 1393.28 800.792 C 1451.6 800.789 1503.78 793.531 1555.09 826.928 C 1609 862.026 1644.59 887.489 1659.4 953.742 C 1690.88 898.879 1760.11 864.415 1790.08 935.698 C 1803.26 967.036 1780.75 994.392 1781.39 1025.45 C 1782.03 1056.58 1805.71 1087.8 1790.67 1119.45 C 1777.25 1147.29 1738.62 1160.65 1711.19 1146.42 C 1679.73 1130.1 1666.58 1104.93 1655.21 1073.46 C 1621.05 1126.44 1608.24 1162.15 1543.41 1190.81 C 1499.19 1210.37 1391.03 1220.77 1339.96 1226.1 C 1073.31 1244.6 847.26 1245.95 579.633 1213.03 C 491.886 1202.24 420.17 1146.71 394.299 1061.34 C 386.447 1095.58 375.956 1123.76 344.047 1142.82 C 312.408 1161.72 277.814 1152.44 259.073 1120.74 C 237.761 1084.7 265.727 1057.37 264.356 1020.7 C 263.029 993.341 245.517 965.871 254.271 937.66 C 264.739 902.147 300.542 887.824 334.208 899.353 C 363.013 909.218 376.844 931.087 389.994 956.965 C 415.355 844.693 500.793 800.78 606.261 800.765 L 677.194 800.818 z M 637.047 988.032 C 652.538 987.332 663.759 990.536 678.794 993.029 C 921.166 1033.22 1164.1 1027.43 1406.13 988.032 L 1406.13 923.106 C 1190.66 968.385 926.383 965.345 711.53 934.462 C 687.267 930.974 661.351 924.983 637.047 923.106 L 637.047 988.032 z" fill="rgb(35,35,35)" transform="translate(0,0)"></path>
<metadata><recraft-signature>{"signed_by": "recraft", "signature_b64": "2CveqqOI3KQ/SAYIvHI8n464bFo9xSN95sWADd8OmsI07g1Zp/DwJGJzUTWVc9HvTiIXSe/a9cxJY43AMZOOCA==", "signing_algo": "Ed25519", "generation_timestamp": 1772995623, "identifier": "3af4b93f-9245-46b8-a607-6db3ccc8e34d"}</recraft-signature></metadata></svg>