<svg xmlns="http://www.w3.org/2000/svg" height="512" preserveAspectRatio="none" style="display: block;" version="1.1" viewBox="0 0 2048 2048" width="512">
<path d="M 1052.27 139.221 C 1088.49 137.195 1110.21 162.125 1137.01 183.471 L 1595.22 548.843 C 1607.07 558.122 1621.02 568.213 1630.89 579.396 C 1647.98 598.529 1646.59 639.289 1626.3 656.027 C 1565.37 706.311 1500.73 756.11 1438.36 804.775 C 1347.01 876.044 1258.21 952.251 1165.64 1021.58 C 1193.02 1042.05 1217.52 1062.32 1244.22 1083.36 L 1435.11 1233.88 C 1495.75 1281.26 1558.17 1328.62 1617.76 1377.38 C 1644.28 1399.08 1645.51 1445.54 1621.82 1469.94 C 1598.53 1491.66 1571.05 1510.76 1546.18 1530.54 L 1140.62 1855.77 C 1126.35 1867.27 1112.15 1879.35 1096.94 1889.66 C 1059.42 1914.99 1001.07 1888.6 995.29 1843.73 C 992.527 1822.3 994.074 1793.58 994.091 1771.45 L 994.062 1154.48 C 973.07 1172.76 949.373 1190.08 927.671 1207.97 C 917.202 1217.65 899.685 1231.06 888.344 1240.17 L 524.18 1530.54 C 467.353 1576.82 403.875 1543.31 412.685 1481.91 C 417.076 1451.31 437.077 1439.58 459.082 1422.19 L 799.762 1150.11 C 853.2 1107.14 906.427 1063.44 960.79 1021.58 C 920.356 980.781 847.052 929.567 800.231 892.819 L 462.001 623.561 C 450.376 614.49 433.08 603.225 423.379 592.528 C 379.246 543.866 433.711 459.785 495.96 491.488 C 507.558 497.395 526.955 515.083 537.866 523.667 L 811.159 737.818 C 870.362 784.425 933.563 839.276 994.062 882.931 L 994.024 279.418 C 994.011 222.034 979.779 155.018 1052.27 139.221 z M 1123.62 1707.8 L 1246.52 1609.55 C 1264.14 1595.43 1300.36 1565.16 1318.36 1554.23 C 1330.37 1541.51 1349.21 1527.6 1363.26 1516.47 L 1434.22 1459.23 C 1445.78 1449.89 1462.32 1437.63 1472.67 1427.75 C 1428.05 1388.01 1369.46 1344.91 1321.9 1307.75 L 1123.62 1149.9 L 1123.62 1707.8 z M 1123.62 889.15 L 1318.36 735.023 C 1366.14 695.363 1422.61 649.189 1472.67 613.486 C 1460.52 605.83 1448.7 595.917 1437.38 586.945 L 1158.17 366.488 C 1149.55 359.773 1132.37 345.737 1123.62 340.689 C 1124.22 360.826 1123.61 381.115 1123.61 401.302 L 1123.62 889.15 z" fill="rgb(0,0,0)" transform="translate(0,0)"></path>
<metadata><recraft-signature>{"signed_by": "recraft", "signature_b64": "Q8O3n0RTy9w9JBVgVe235rAgU8a8vcwKcp02cGMAtA00j4D/gkzoMYZNvm4Er7iRIt/MlN851g9cTd41om1LBg==", "signing_algo": "Ed25519", "generation_timestamp": 1772999348, "identifier": "db02bc34-1a48-43f4-bb81-beddde467dbc"}</recraft-signature></metadata></svg>