<svg xmlns="http://www.w3.org/2000/svg" height="512" preserveAspectRatio="none" style="display: block;" version="1.1" viewBox="0 0 2048 2048" width="512">
<path d="M 505.022 318.322 C 544.569 315.314 573.18 345.409 574.048 383.012 C 596.884 384.015 629.288 383.024 652.68 383.021 L 1530.06 382.976 C 1594.83 382.976 1596.45 406.077 1596.52 464.45 L 1597 509.92 L 1153.91 509.92 L 1153.91 894.003 L 1597 894.003 L 1597.07 1041.13 C 1597.08 1129.59 1604.44 1152.18 1507.93 1152.07 L 1162.5 1152 L 1022.63 1152 C 982.742 1189.07 934.031 1245.71 892.742 1277 L 704.072 1277 C 734.916 1238.88 793.833 1188.42 830.416 1152 L 574.048 1152 L 574.102 1615.85 C 574.149 1633.25 575.168 1652.97 574.168 1669.97 C 570.299 1735.74 463.413 1748.82 450.252 1677.16 C 447.656 1663.02 448.799 1643.55 448.806 1629.02 L 448.971 379.23 C 449.101 344.573 471.994 322.885 505.022 318.322 z M 574.048 894.003 C 609.741 894.552 646.73 894.004 682.528 894.001 L 897.181 894.003 L 897.181 509.92 L 574.048 509.92 C 574.059 637.222 575.425 766.912 574.048 894.003 z" fill="rgb(0,0,0)" transform="translate(0,0)"></path>
<metadata><recraft-signature>{"signed_by": "recraft", "signature_b64": "KHaZICeQGN7qGZLQKVUh8MU2ACPqiFoHKLWu4V8gz9SI1euYxuL2+66Hi+h1QNb5BgqF3dOgC2dqc0nc9nIfAA==", "signing_algo": "Ed25519", "generation_timestamp": 1772997791, "identifier": "9a4f9bea-84db-4829-999d-1ae6a191037c"}</recraft-signature></metadata></svg>