<svg xmlns="http://www.w3.org/2000/svg" height="512" preserveAspectRatio="none" style="display: block;" version="1.1" viewBox="0 0 2048 2048" width="512">
<path d="M 261.001 358.527 L 1815 358.527 L 1814.99 1542.51 C 1815 1591.31 1815.59 1641.3 1815 1690.01 C 1805.8 1690.3 1796.79 1690.13 1787.59 1690.01 L 233.554 1690.01 C 232.431 1621.67 233.571 1550.31 233.569 1481.64 L 233.554 593.693 C 233.553 515.925 232.538 436.049 233.554 358.527 L 261.001 358.527 z M 861.175 1080.77 L 861.191 1488.88 C 861.23 1507.83 861.838 1529.27 861.175 1548.01 L 1552.5 1548.01 L 1635.97 1548.09 C 1644.88 1548.1 1666.97 1548.9 1674.49 1548.01 L 1674.49 1080.77 C 1598.98 1079.51 1520.04 1080.78 1444.12 1080.78 L 986.495 1080.77 L 861.175 1080.77 z M 861.175 939.99 L 1671.25 939.99 L 1673.36 939.428 C 1676.52 928.759 1674.47 842.236 1674.47 825.268 L 1674.49 497.14 L 968.844 497.129 C 935.791 497.127 897.973 496.158 865.439 497.14 C 862.003 497.498 863.163 496.696 861.319 498.768 C 859.703 544.758 861.178 600.538 861.179 647.357 L 861.175 939.99 z M 379.873 497.14 L 376.235 498.128 C 374.236 502.662 375.489 901.345 375.49 939.99 L 716.027 939.99 L 717.595 938.996 C 718.986 929.011 718.165 896.912 718.147 885.339 L 718.159 589.812 C 718.165 561.694 719.38 524.181 718.148 497.14 L 379.873 497.14 z M 401.496 1080.77 L 375.49 1080.77 C 374.202 1167.96 375.488 1258.86 375.488 1346.29 L 375.482 1480.86 C 375.481 1502.49 374.918 1526.64 375.49 1548.01 C 410.699 1547.49 447.055 1548.01 482.357 1548.01 L 695.5 1548.01 L 718.148 1548.01 L 718.148 1080.77 L 401.496 1080.77 z" fill="rgb(0,0,0)" transform="translate(0,0)"></path>
<metadata><recraft-signature>{"signed_by": "recraft", "signature_b64": "KeIcRm89xj8buzHXkSSzAuL5AG4nokmsZWQETb1hLKZWkIFrI9DLN4RsWKP3ZfRG8rSDpeZxhqR0OB2vsHUZBA==", "signing_algo": "Ed25519", "generation_timestamp": 1772998741, "identifier": "b5606259-58f1-4a39-ba0b-f7f59e595de7"}</recraft-signature></metadata></svg>