<svg xmlns="http://www.w3.org/2000/svg" height="512" preserveAspectRatio="none" style="display: block;" version="1.1" viewBox="0 0 2048 2048" width="512">
<path d="M 256.751 679.107 C 259.436 678.65 286.082 679.029 290.852 679.036 L 1765.89 679.128 C 1817.02 681.239 1855.47 696.154 1856.03 757.539 L 1856.16 1206.04 C 1856.19 1272.54 1866.35 1319.9 1792.3 1346.01 C 1778.48 1347.19 1742.8 1346.05 1727.51 1346.04 L 364.205 1346.03 C 321.086 1346.02 259.129 1354.6 222.967 1331.52 C 181.452 1304.26 191.779 1240.57 191.797 1198.26 L 191.733 785.278 C 191.778 729.816 195.362 689.985 256.751 679.107 z M 245.001 745.288 L 244.966 1209.86 C 244.97 1233.46 234.876 1291.6 265.927 1292.01 C 292.076 1292.37 318.365 1292.08 344.511 1292.06 L 1696.72 1292.05 C 1726.13 1292.05 1759.04 1292.77 1788.25 1292.04 C 1795.54 1290 1799.07 1286.41 1804.52 1281.43 C 1805.12 1272.4 1804.54 1262.01 1804.53 1252.73 L 1804.5 841.72 C 1804.5 804.991 1819.17 732.514 1772.27 732.322 L 264.594 732.228 C 253.261 734.147 251.235 735.842 245.001 745.288 z" fill="rgb(0,0,0)" transform="translate(0,0)"></path>
<path d="M 484.551 930.988 C 508.227 922.712 541.382 936.398 545.781 962.934 C 547.972 983.325 547.739 1004.95 547.432 1025.54 C 546.91 1060.48 554.933 1099.9 509.709 1107.9 L 507.276 1108.34 C 443.172 1119.44 442.445 1069.68 444.946 1022.85 C 446.934 985.609 431.843 936.026 484.551 930.988 z M 500.6 1080.97 C 525.826 1071.23 517.448 979.473 512.825 966.519 C 510.025 958.67 499.933 957.774 492.905 958.44 C 466.79 963.687 475.532 1053.36 479.365 1070.21 C 481.722 1080.56 491.893 1081.27 500.6 1080.97 z" fill="rgb(0,0,0)" transform="translate(0,0)"></path>
<path d="M 340.127 930.988 C 355.297 929.639 369.505 929.625 384.74 930.396 C 430.687 932.722 437.014 989.436 405.143 1013.75 C 434.803 1027.29 433.969 1067.57 418.734 1092.46 C 395.693 1114.76 355.414 1107.33 325.826 1107.9 L 325.823 988.586 C 325.808 971.983 324.66 946.434 325.826 930.988 L 340.127 930.988 z M 358 1080.97 C 369.402 1080.52 379.276 1080.88 389.328 1075.05 C 410.742 1046.14 390.133 1030.9 358 1029.2 C 357.946 1045.08 357.282 1065.46 358 1080.97 z M 358 1002.78 C 366.913 1003 380.987 1003.38 389.328 999.999 C 399.715 970.584 388.591 958.501 358 958.44 C 357.131 974.257 357.206 986.826 358 1002.78 z" fill="rgb(0,0,0)" transform="translate(0,0)"></path>
<path d="M 1313.01 930.988 L 1342.76 930.988 C 1341.11 987.668 1346.56 1050.87 1342.58 1106.34 C 1340.16 1108.17 1336.26 1107.8 1333.04 1107.9 C 1324.35 1107.73 1315.42 1107.87 1306.72 1107.9 C 1298.1 1071.45 1280.07 1032.1 1271.31 994.805 C 1270.88 1032.3 1271.53 1070.3 1271.31 1107.9 C 1261.19 1108.03 1250.71 1107.91 1240.56 1107.9 L 1240.56 930.988 L 1276.5 930.988 C 1290.02 965.41 1298.81 1005.28 1313.01 1037.49 C 1312.14 1003.39 1312.99 965.414 1313.01 930.988 z" fill="rgb(0,0,0)" transform="translate(0,0)"></path>
<path d="M 1439.02 930.988 L 1469 930.988 C 1468.98 989.017 1469.87 1048.57 1469.2 1106.4 C 1466.4 1108.2 1465.67 1107.71 1461.98 1107.9 C 1452.44 1107.73 1442.64 1107.87 1433.07 1107.9 C 1423.12 1069.74 1408.56 1032.92 1399 994.805 C 1399.86 1005.06 1399.09 1021.58 1399.07 1032.48 L 1399 1107.9 C 1389.09 1107.57 1378.95 1107.8 1369.02 1107.9 L 1369.02 930.988 L 1403.07 930.988 C 1413.51 964.252 1427.32 1004.59 1439.02 1037.49 C 1437.83 1004.87 1439 964.286 1439.02 930.988 z" fill="rgb(0,0,0)" transform="translate(0,0)"></path>
<path d="M 1566.99 930.988 L 1596.26 930.988 C 1594.75 985.233 1601.06 1053.57 1595.65 1105.88 C 1593.75 1107.8 1592.37 1107.36 1589.02 1107.9 L 1560.57 1107.9 C 1550.83 1072.29 1530.71 1023.05 1525.96 988.9 C 1525.33 1027.23 1524.04 1069.7 1525.96 1107.9 C 1514.78 1107.46 1506.93 1107.47 1495.77 1107.9 L 1495.77 930.988 L 1531.33 930.988 C 1542.03 967.662 1556.27 1003.57 1566.99 1041.49 C 1567.56 1005.28 1566.95 967.398 1566.99 930.988 z" fill="rgb(0,0,0)" transform="translate(0,0)"></path>
<path d="M 917.32 930.988 C 926.643 930.238 951.796 1024.52 954.918 1037.49 L 954.918 930.988 L 985.2 930.988 L 985.2 1107.9 C 973.74 1107.88 963.445 1107.65 951.843 1107.9 C 941.158 1070.89 923.347 1032.42 914.991 994.805 L 914.991 1107.9 C 904.481 1107.41 896.015 1107.58 885.581 1107.9 C 882.915 1052.34 884.548 986.609 885.581 930.988 C 896.375 930.304 906.528 930.713 917.32 930.988 z" fill="rgb(0,0,0)" transform="translate(0,0)"></path>
<path d="M 1147.55 930.988 L 1187.46 930.988 C 1196.64 987.704 1211.28 1051.43 1223.27 1107.9 C 1210.99 1107.24 1199.74 1107.61 1187.46 1107.9 C 1186.11 1097.92 1184.2 1087.91 1182.38 1078 L 1181.7 1076.71 C 1176.63 1074.1 1154.41 1074.99 1147.55 1075.05 C 1145.99 1086.16 1143.59 1096.5 1142.6 1107.9 C 1132.33 1107.63 1122.77 1107.26 1112.48 1107.9 C 1110.42 1085.81 1134.61 959.315 1147.55 930.988 z M 1150.48 1048.87 L 1168.25 1048.87 L 1182.38 1048.87 C 1172.49 1023.1 1172.51 995.283 1164 969.633 C 1161.38 994.318 1154.53 1023.63 1150.48 1048.87 z" fill="rgb(0,0,0)" transform="translate(0,0)"></path>
<path d="M 1659.81 927.269 C 1706.47 921.578 1714.87 950.351 1715.55 988.9 C 1706.18 989.167 1695.93 988.93 1686.49 988.9 C 1685.29 978.884 1687.57 959.089 1674.7 955.56 C 1666.98 953.443 1656.15 956.651 1654.65 965.486 C 1652.48 978.226 1651.42 1073.55 1657.34 1080.14 C 1662.95 1086.38 1676.48 1086.53 1682.27 1080.52 C 1689.75 1072.75 1686.64 1047.7 1686.49 1037.49 L 1666 1037.49 C 1665.49 1030.59 1665.9 1020.87 1666 1013.75 C 1666.66 1004.44 1705.98 1008.9 1715.55 1008.99 C 1715.36 1057.01 1727.25 1131.57 1648.12 1108.88 C 1613.51 1098.96 1625.05 1047.19 1623.11 1020.37 C 1624.53 982.85 1610.5 936.98 1659.81 927.269 z" fill="rgb(0,0,0)" transform="translate(0,0)"></path>
<path d="M 1080.98 930.988 L 1112.48 930.988 C 1109.73 943.432 1107.48 957.063 1105.26 969.633 C 1097.3 1001.6 1081.32 1078.48 1080.98 1107.9 L 1034.9 1107.9 C 1024.14 1049.11 1009.8 990.579 1001.14 930.988 C 1012.19 930.782 1023.8 930.965 1034.9 930.988 C 1040.64 963.444 1045.99 1039.28 1056.61 1066.89 C 1068.53 1028.02 1070.28 973.903 1080.64 932.331 L 1080.98 930.988 z" fill="rgb(0,0,0)" transform="translate(0,0)"></path>
<path d="M 776.008 930.988 L 862.045 930.988 L 862.045 960.989 L 807.108 960.989 C 807.039 974.017 806.974 986.97 807.108 999.999 C 822.104 1000.72 841.619 1000.09 856.998 999.999 L 856.998 1029.2 L 807.108 1029.2 C 807.735 1041.32 807.847 1048.32 807.108 1060.5 L 807.108 1078 L 862.045 1078 C 864.968 1092.13 865.163 1093.98 862.045 1107.9 C 838.423 1109.17 800.795 1107.94 776.008 1107.9 L 776.008 930.988 z" fill="rgb(0,0,0)" transform="translate(0,0)"></path>
<path d="M 660.039 930.988 C 692.082 930.311 729.931 930.561 761.993 930.988 L 761.993 960.989 C 750.416 960.9 738.842 960.738 727.268 960.989 L 727.268 1075.05 L 727.268 1107.9 L 695.017 1107.9 C 693.654 1062 694.993 1007.54 695.017 960.989 C 681.884 959.901 673.016 960.745 660.039 960.989 L 660.039 930.988 z" fill="rgb(0,0,0)" transform="translate(0,0)"></path>
<path d="M 558.999 930.988 L 654.633 930.988 L 654.633 960.989 C 642.251 960.057 636.106 960.145 623.586 960.989 L 623.586 1078 L 623.586 1107.9 C 612.919 1108.07 601.813 1107.91 591.106 1107.9 L 591.106 960.989 L 558.999 960.989 L 558.999 930.988 z" fill="rgb(0,0,0)" transform="translate(0,0)"></path>
<metadata><recraft-signature>{"signed_by": "recraft", "signature_b64": "021i44IZ7nRa/asZABp16LaVhOTrbQs5XvsHEjkNh4xo2dT9H2oKFezn9AtYqwohlXCpiH3NQ7mfm4SYKGOMAg==", "signing_algo": "Ed25519", "generation_timestamp": 1772998826, "identifier": "8415add8-cdf3-4cbb-84a9-76a45a995697"}</recraft-signature></metadata></svg>