<svg xmlns="http://www.w3.org/2000/svg" height="512" preserveAspectRatio="none" style="display: block;" version="1.1" viewBox="0 0 2048 2048" width="512">
<path d="M 981.155 340.998 C 1021.8 338.043 1079.52 341.165 1120.08 346.277 C 1469.78 390.352 1753.27 655.312 1821.81 1001.13 C 1829.4 1039.43 1835.78 1079.3 1835.58 1118.43 L 1835.06 1382.99 C 1835.1 1429.52 1840.52 1548.44 1828.8 1590.75 C 1799.41 1696.82 1715.42 1704.81 1626.28 1704.78 L 1072.25 1704.74 L 446.936 1704.77 C 417.156 1704.77 383.844 1706.08 354.522 1701.99 C 285.157 1692.32 229.473 1634.19 217.794 1565.97 C 212.931 1537.56 214.98 1498.43 214.982 1468.56 L 214.988 1183.66 C 214.94 1155.57 213.861 1126.14 215.803 1098.25 C 242.071 721.14 535.445 398.976 911.971 347.944 C 934.975 344.826 957.981 343.394 981.155 340.998 z M 395.492 1023 C 383.513 1078.03 381.984 1114.52 381.97 1170 L 381.996 1535.06 C 394.389 1535.95 408.809 1535.16 421.497 1535.09 L 717.5 1535.06 L 1662 1535.06 L 1662.01 1266.74 C 1662.01 1192.38 1666.44 1093.22 1648.98 1023 L 1323.99 1023 L 498.3 1023.01 C 465.649 1023.01 427.691 1023.98 395.492 1023 z M 457.827 855.282 C 477.112 856.333 501.457 855.308 521.364 855.291 L 1041.25 855.282 L 1407.08 855.262 C 1467.73 855.259 1531.16 854.283 1591.63 855.282 C 1489.12 643.296 1244.11 497.727 1008.29 509.544 C 775.791 518.251 563.586 648.025 457.827 855.282 z" fill="rgb(0,0,0)" transform="translate(0,0)"></path>
<metadata><recraft-signature>{"signed_by": "recraft", "signature_b64": "PYmke0AaI4iJNe5KgMgjDtG0w7uAYYzrHdWKkgyWyA6j/DzzEqmD7TrYN22K6nT2eOm7WMxorjzfg5H1kQMrAQ==", "signing_algo": "Ed25519", "generation_timestamp": 1772997106, "identifier": "4b0acbb9-15a7-4e25-9802-e43bd4b89c65"}</recraft-signature></metadata></svg>