<svg xmlns="http://www.w3.org/2000/svg" height="512" preserveAspectRatio="none" style="display: block;" version="1.1" viewBox="0 0 2048 2048" width="512">
<path d="M 590.124 426.998 C 610.862 426.088 638.806 426.95 660.184 426.971 L 1660.19 426.979 C 1692.09 426.965 1725.75 422.293 1753.66 439.315 C 1779.33 454.978 1796.84 488.169 1790.9 518.09 C 1770.69 619.712 1746.84 720.562 1724.23 821.623 L 1670.24 1056.7 C 1661.05 1096.46 1653.62 1137.12 1642.48 1176.64 C 1597.03 1337.85 1459.04 1416.59 1307.35 1450.75 C 1137.75 1495.59 964.027 1491.4 790.394 1491.41 L 423.282 1491.39 C 440.978 1631.37 268.684 1635.07 257.87 1525.47 C 256.552 1512.12 256.946 1499.4 256.955 1486.03 L 256.959 811.761 C 256.943 781.054 256.217 756.947 261.075 726.513 C 289.383 549.192 419.768 446.843 590.124 426.998 z M 427.75 1322.07 L 905.386 1322.08 C 1041.86 1322.06 1141.18 1314.12 1276.87 1280.47 C 1446.41 1238.89 1461.01 1202.12 1500.52 1037.84 C 1520.26 955.741 1537.36 873.499 1555.75 791.259 L 1587.55 645.622 C 1589.55 636.367 1606.1 586.157 1593.72 589.404 C 1538.37 595.902 1499.99 595.02 1444.34 595.022 L 680.716 594.976 C 645.673 594.966 602.8 592.901 569.44 600.273 C 500.178 615.578 437.633 682.176 426.494 752.191 C 421.011 786.651 423.203 833.404 423.229 869.546 L 423.31 1235.28 C 423.309 1247.69 417.825 1322.5 427.75 1322.07 z" fill="rgb(0,0,0)" transform="translate(0,0)"></path>
<metadata><recraft-signature>{"signed_by": "recraft", "signature_b64": "CIyshy4c3dkzaMvouHEf7LdnKdlJTmMrfJ8gZFuOEO/tlqBTxaJRmSZ5aVgKhU+vncrG6VHa7gwOEHSpapcIDQ==", "signing_algo": "Ed25519", "generation_timestamp": 1772995908, "identifier": "57c7e65a-a40d-4172-a302-12c02e6ded97"}</recraft-signature></metadata></svg>