<svg xmlns="http://www.w3.org/2000/svg" height="512" preserveAspectRatio="none" style="display: block;" version="1.1" viewBox="0 0 2048 2048" width="512">
<path d="M 490.467 300.002 C 547.615 299.187 607.085 299.984 664.431 299.986 L 1540.04 299.898 C 1598.22 301.311 1649.42 321.291 1689.79 362.755 C 1751.02 425.632 1749.12 484.227 1749.01 564.613 L 1748.98 1063.04 C 1749.1 1159.41 1626.84 1189.07 1588.23 1099.12 C 1580.82 1081.88 1582.96 1047.63 1582.97 1028.05 L 1583.09 550.799 C 1583.27 481.345 1591.43 466.916 1509.96 466.934 L 539.5 466.989 C 527.494 466.995 514.708 466.295 502.785 467.141 C 456.274 470.442 467.014 537.096 467.02 568.558 L 466.933 1375.65 C 466.933 1389.21 466.382 1402.97 467.757 1416.5 C 469.171 1465.07 553.36 1452.99 583.966 1452.97 L 905.758 1452.91 C 939.331 1452.87 960.704 1449.47 989.066 1470.76 C 1048.14 1515.1 1020.96 1610.88 949.278 1617.26 C 923.534 1617.92 897.496 1617.59 871.674 1617.58 L 569.08 1617.59 C 542.205 1617.67 503.415 1619.08 477.507 1615.26 C 382.494 1601.26 312.013 1518.92 303.797 1424.57 C 302.134 1405.47 302.963 1378.3 302.99 1358.46 L 302.992 529.398 C 302.998 509.193 302.204 488.086 305.015 468.36 C 318.699 372.314 397.139 308.008 490.467 300.002 z" fill="rgb(0,0,0)" transform="translate(0,0)"></path>
<path d="M 1224.5 1173.59 C 1489.56 1154.5 1729.38 1369.82 1744.62 1634.47 C 1747.79 1689.36 1734.92 1740.14 1671.4 1745.48 C 1650.88 1746.3 1631.14 1741.06 1614.6 1728.44 C 1575.77 1698.8 1586.75 1668.9 1580.69 1628.57 C 1556.52 1467.87 1426.75 1341.48 1262.67 1334.97 C 1234.14 1333.94 1203.47 1336.84 1179.92 1316.83 C 1123.52 1268.88 1151.27 1181.8 1224.5 1173.59 z" fill="rgb(0,0,0)" transform="translate(0,0)"></path>
<path d="M 1224.5 1453 C 1256.01 1447.67 1318.2 1471.8 1345.21 1489.48 C 1428.56 1543.01 1506.6 1719.66 1374.59 1745.48 C 1313.09 1748.53 1291.99 1714.34 1285.52 1661.56 C 1286.13 1643.6 1261.91 1618.87 1242.62 1618.69 C 1126.34 1617.59 1117.79 1468.28 1224.5 1453 z" fill="rgb(0,0,0)" transform="translate(0,0)"></path>
<metadata><recraft-signature>{"signed_by": "recraft", "signature_b64": "ITSeeXymVnURzyeScEK33bfXM3Fdr/X8vWdt1yRwtS7kNvrgni0SqRBMwds1KYSx1Y5/PkWsMVMInS6N4V5rCw==", "signing_algo": "Ed25519", "generation_timestamp": 1772999387, "identifier": "6fe2a98e-a678-4ce9-bf91-754d4c7a89de"}</recraft-signature></metadata></svg>