<svg xmlns="http://www.w3.org/2000/svg" height="512" preserveAspectRatio="none" style="display: block;" version="1.1" viewBox="0 0 2048 2048" width="512">
<path d="M 427.013 429.047 L 511.949 429.047 L 511.949 641.002 L 1535.03 641.002 L 1535.03 429.047 C 1548.22 430.547 1609.78 430.743 1621.04 429.047 L 1621.05 1037.28 C 1621.06 1056.56 1622.26 1091.28 1621.04 1109.07 C 1637.83 1109.89 1660.36 1109.11 1677.69 1109.1 L 1791.51 1109.07 C 1792.41 1180.54 1791.49 1254.35 1791.49 1325.98 L 1791.51 1618.12 L 1600.54 1618.08 C 1591.69 1618.08 1540.72 1618.71 1535.89 1617.37 L 1535.03 1615.25 C 1535.89 1552.93 1535.01 1488.75 1535 1426.21 L 1535.08 1365.14 C 1535.21 1350.53 1535.99 1336.6 1535.03 1321.98 L 511.949 1321.98 L 511.949 1618.12 C 507.712 1618.88 491.394 1618.33 486.388 1618.29 L 315.778 1618.14 C 295.772 1618.17 273.892 1618.73 254.063 1618.12 L 254.063 1109.07 L 427.013 1109.07 L 427.013 429.047 z M 511.949 1109.07 L 1535.03 1109.07 C 1536.54 1088.7 1534.88 1054.27 1534.94 1032.14 L 1535.03 850.123 L 511.949 850.123 L 511.949 1109.07 z" fill="rgb(0,0,0)" transform="translate(0,0)"></path>
<metadata><recraft-signature>{"signed_by": "recraft", "signature_b64": "pD1XTN4iyaDOnL6OFPuFIZXXI4qbwzSzLC5wM8I6TTTKwVa2E2EE740YNhImHR8IE2benHEOGwFByfa7iSCwAw==", "signing_algo": "Ed25519", "generation_timestamp": 1772996762, "identifier": "335cee64-9da8-4bab-8b4d-b4e20cb80b90"}</recraft-signature></metadata></svg>