<svg xmlns="http://www.w3.org/2000/svg" height="512" preserveAspectRatio="none" style="display: block;" version="1.1" viewBox="0 0 2048 2048" width="512">
<path d="M 803.306 170.447 C 886.602 164.094 884.453 240.532 884.505 295.403 L 884.51 399.157 L 1164.65 399.157 L 1164.65 288.3 C 1164.62 270.372 1162.55 244.48 1166.14 227.547 C 1181.64 154.12 1293.71 149.891 1309.56 224.7 C 1313.66 244.064 1311.77 275.336 1311.77 295.919 L 1311.76 419.312 C 1401.54 448.51 1465.49 526.914 1494.82 614.437 C 1518.81 603.422 1541.44 591.413 1564.89 579.467 L 1683.7 518.361 C 1779.06 468.992 1842.19 600.145 1755.6 650.425 C 1717.55 672.52 1669.83 699.422 1630.71 718.749 C 1546.56 656.539 1446.13 625.932 1341.29 639.774 C 1318.82 588.056 1269.45 550.43 1211.78 550.746 L 837.523 550.803 C 762.771 549.467 699.359 609.621 695.262 683.907 C 694.287 701.583 695.019 721.185 695.057 739.049 L 695.029 1073.7 C 695.027 1111.24 694.322 1151.55 695.043 1188.85 C 726.605 1294.94 780.577 1319.67 888.781 1317.26 C 905.958 1316.88 927.786 1318.47 944.247 1317.21 C 905.369 1365.98 876.275 1402.9 868.413 1469.52 C 734.788 1475.4 580.809 1370.81 553.642 1237.51 L 366.243 1339.41 C 300.264 1374.45 230.66 1319.42 252.591 1251.73 C 264.581 1214.72 293.555 1206.78 325.498 1190.67 L 400.48 1152.18 C 449.53 1127.12 497.342 1099.79 546.212 1074.53 L 546.212 786.237 C 477.736 749.417 408.733 713.27 340.662 675.814 C 321.766 664.322 300.338 656.574 281.902 644.401 C 226.233 607.644 239.067 520.069 306.252 506.497 C 339.433 499.794 390.561 535.374 421.625 551.862 L 506.811 597.858 C 520.776 605.353 544.152 616.593 556.668 625.177 C 579.075 526.635 641.528 456.142 735.014 419.312 C 734.206 361.756 735.46 303.734 734.952 246.122 C 734.588 204.879 761.936 174.659 803.306 170.447 z" fill="rgb(38,37,38)" transform="translate(0,0)"></path>
<path d="M 1600.16 789.476 C 1621.6 789.123 1639.66 792.369 1655.2 808.506 C 1768.79 926.354 1837.55 1141.78 1666.68 1240.01 C 1623.54 1264.81 1583.72 1265.55 1535.91 1265.59 L 1468.98 1265.56 L 1469.02 1731.73 C 1469.02 1754.12 1471.38 1788.76 1463.64 1809.04 C 1436.66 1879.62 1326.93 1868.38 1316.04 1791.93 C 1313.92 1777.03 1315.48 1756.08 1315.53 1740.65 L 1315.58 1265.56 C 1293.97 1265.26 1272.13 1265.49 1250.5 1265.56 C 1233.51 1265.59 1212.1 1266.13 1195.64 1264.32 C 1099.63 1253.79 1015.42 1172.07 1011.49 1074.05 C 1007.76 980.729 1060.23 887.202 1121.88 820.341 C 1174.68 763.073 1257.27 798.723 1259.07 862.105 C 1260.8 923.182 1161.97 959.947 1161.01 1067.62 C 1160.49 1125.31 1233.47 1118.92 1270.34 1118.94 L 1501.98 1118.98 C 1537.68 1118.97 1585.46 1126.5 1608.56 1095.88 C 1640.38 1053.73 1598.38 978.38 1571.09 942.875 C 1559.52 927.82 1543.88 915.277 1533.24 899.563 C 1506.76 844.68 1543.52 793.869 1600.16 789.476 z" fill="rgb(38,37,38)" transform="translate(0,0)"></path>
<path d="M 1167.52 1320.69 L 1183.01 1320.69 L 1183.01 1475.46 C 1136.55 1483.98 1137 1505.23 1137 1544.49 L 1137.03 1647.75 C 1137.06 1685.72 1134.56 1715.31 1183.01 1721.92 C 1182.98 1781.18 1181.17 1809.59 1206.69 1864.98 C 1167.85 1868.15 1130.11 1865.7 1093.74 1850.73 C 982.096 1802.41 988.887 1705.9 988.87 1607.45 L 988.815 1540.81 C 988.777 1415.15 1037.19 1341.68 1167.52 1320.69 z" fill="rgb(87,177,235)" transform="translate(0,0)"></path>
<path d="M 1604.4 1320.69 C 1676 1323.39 1730.82 1360.34 1768.38 1419.98 C 1803.14 1472.02 1798.5 1531.25 1797.78 1591.08 C 1796.51 1697.51 1810.04 1779.29 1704.55 1843.95 C 1660.91 1868.11 1628.88 1865.08 1580.89 1864.98 C 1597.29 1822.86 1603.39 1801.75 1604.13 1755.53 C 1604.23 1749.17 1603.19 1726.09 1604.4 1721.92 C 1618.48 1718.08 1643.01 1708.57 1645.75 1692.51 C 1652.29 1654.26 1649.71 1609.8 1649.59 1570.66 C 1649.43 1520.1 1661.65 1488.38 1604.4 1469.52 L 1604.4 1320.69 z" fill="rgb(87,177,235)" transform="translate(0,0)"></path>
<metadata><recraft-signature>{"signed_by": "recraft", "signature_b64": "lvKnQYbX1+o5H7E5a1SkfxEx+u3S/E5xkSCkxIw0d3HGnQD71Kjb9wJWblr8fdZH/xuOiN7ioN+HG+swXV5QDA==", "signing_algo": "Ed25519", "generation_timestamp": 1772999989, "identifier": "577ee245-d222-45bf-b052-8000da89e943"}</recraft-signature></metadata></svg>