<svg xmlns="http://www.w3.org/2000/svg" height="512" preserveAspectRatio="none" style="display: block;" version="1.1" viewBox="0 0 2048 2048" width="512">
<path d="M 654.501 289.517 L 1453 289.519 C 1528.6 289.417 1585.43 282.088 1644.98 340.285 C 1704.25 398.2 1696.3 458.905 1696.31 533.484 L 1696.59 1351.51 C 1696.72 1436.95 1634.05 1514.6 1550.74 1532.94 C 1523.62 1538.91 1493.22 1537.97 1465.31 1537.96 L 1087.43 1537.93 L 1087.43 1583.86 L 1087.46 1758.68 C 1087.46 1786.7 1088.72 1820.18 1085.58 1847.77 C 1080.85 1894.2 1001.41 1900.96 974.472 1872.63 C 956.542 1853.76 959.258 1833.89 959.358 1810.07 L 959.483 1537.93 L 580.93 1537.99 C 483.881 1538.04 395.249 1516.58 361.698 1408.69 C 348.45 1366.08 352.09 1319.06 352.129 1274.68 L 352.123 493.592 C 352.118 401.085 388.421 321.187 486.406 295.674 C 514.212 288.434 543.121 289.482 571.544 289.472 L 654.501 289.517 z M 609.016 961.273 L 1374.5 961.273 C 1396.21 961.284 1418.52 961.556 1440.18 961.273 L 1440.22 645.28 C 1440.22 580.744 1427.98 541.434 1354.82 541.839 L 694.282 541.887 C 690.226 541.878 678.241 541.564 674.751 541.997 C 611.748 551.055 608.987 595.508 608.973 643.978 L 609.016 961.273 z M 609.016 1410.01 L 1410.47 1409.94 C 1418.82 1409.93 1432.2 1409.49 1440.18 1410.01 C 1443.03 1391.65 1440.14 1361.54 1440.15 1342.08 L 1440.18 1167.5 L 1440.18 1153.91 L 1405.75 1153.91 C 1405.24 1183.7 1406.73 1213.67 1405.34 1243.29 C 1403.32 1286.09 1346.25 1274.05 1318.57 1275.05 C 1266.33 1276.94 1283.37 1188.8 1282.16 1153.91 L 768.919 1153.91 L 769.059 1209.12 C 769.14 1245.68 770.736 1278.16 723.061 1275.15 C 687.561 1272.91 642.798 1288.24 641.662 1235.68 C 641.069 1208.21 642.294 1180.86 641.608 1153.91 L 609.016 1153.91 C 608.255 1173.94 609.002 1197.53 609.012 1217.99 L 609.048 1345.97 C 609.056 1364.47 610.151 1392.73 609.016 1410.01 z" fill="rgb(0,0,0)" transform="translate(0,0)"></path>
<metadata><recraft-signature>{"signed_by": "recraft", "signature_b64": "8boaxQXxkT/R0yDJZe5n3B2f1eesjws9Yfo0S8Zm1lt6X7+WdAtoPxlt1kl529yMzbLg1wms7fSr/vMlfdqFCA==", "signing_algo": "Ed25519", "generation_timestamp": 1772998687, "identifier": "ae98a706-585e-4f0c-8278-67913de4225e"}</recraft-signature></metadata></svg>