<svg xmlns="http://www.w3.org/2000/svg" height="512" preserveAspectRatio="none" style="display: block;" version="1.1" viewBox="0 0 2048 2048" width="512">
<path d="M 360.968 363.001 C 361.451 362.942 361.934 362.884 362.418 362.826 L 1607.8 363.014 C 1657.7 363.008 1745.1 349.985 1749.5 423.599 C 1750.56 441.331 1750.06 462.164 1750.05 480.233 L 1750.03 1531.47 C 1750.03 1585.3 1764.08 1657.73 1689.25 1664.04 L 417.004 1664.07 C 330.576 1664.3 300.137 1661.85 300.409 1563.47 L 300.459 519.085 C 300.449 456.67 282.192 378.16 360.968 363.001 z M 427.512 1021.01 L 1108.81 1021.01 L 1108.81 1145.25 L 427.512 1145.25 C 426.973 1158.59 427.474 1175.18 427.485 1188.81 L 427.512 1535.94 C 438.679 1536.67 458.059 1536.01 469.689 1536 L 1621.81 1535.94 C 1622.74 1528.9 1621.95 1513.12 1621.91 1505.25 L 1621.81 490.001 C 1583.5 491.499 1534.81 490.007 1495.5 490.004 L 427.512 490.001 L 427.512 1021.01 z" fill="rgb(0,0,0)" transform="translate(0,0)"></path>
<path d="M 427.512 1021.01 L 1108.81 1021.01 L 1108.81 1145.25 L 427.512 1145.25 C 428.189 1104.57 427.542 1061.84 427.512 1021.01 z" fill="rgb(0,138,232)" transform="translate(0,0)"></path>
<metadata><recraft-signature>{"signed_by": "recraft", "signature_b64": "wVTT0DC7nGiMRJ/1AfuHkjZL0RX8mKPUcN6fHoX+dkl6oWQTr+b5jNSdx7Cf1kUBelFjy+sfE0ULSo4UrqRjCA==", "signing_algo": "Ed25519", "generation_timestamp": 1772998669, "identifier": "1a576c2d-4540-48f7-94a7-2ca8c2cdea11"}</recraft-signature></metadata></svg>