<svg xmlns="http://www.w3.org/2000/svg" height="512" preserveAspectRatio="none" style="display: block;" version="1.1" viewBox="0 0 2048 2048" width="512">
<path d="M 1832.98 1135.61 C 1833.68 1137.93 1832.61 1226.26 1832.79 1236.37 C 1833.46 1274.05 1794.32 1310.28 1758.05 1310.8 C 1732.9 1311.15 1707.6 1311.02 1682.44 1311.02 L 385.895 1311.01 C 326.335 1311.02 252.63 1326 221.795 1265.86 C 211.476 1241.15 214.931 1196.82 215.006 1168.39 C 237.268 1194.22 259.85 1209.59 294.705 1209.86 L 1684.35 1210.12 C 1759.94 1210.26 1791.15 1209.05 1832.98 1135.61 z" fill="rgb(0,0,0)" transform="translate(0,0)"></path>
<path d="M 911.911 703.001 C 957.059 698.891 961.24 758.244 971.671 792.249 L 1018.05 940.736 C 1036.69 883.818 1052.86 822.606 1070.95 764.634 C 1076.44 749.87 1078.89 730.005 1086.69 716.622 C 1098.31 696.682 1146.11 700.826 1152.47 723.427 C 1157.63 741.765 1159.95 765.186 1162.89 784.484 L 1182.99 917.473 C 1187.32 946.435 1211.63 1066.39 1195.73 1088.53 C 1178.24 1111.25 1139.47 1106.07 1131.98 1077.24 C 1121.53 1029.48 1115.65 962.909 1110.27 913.974 C 1109.38 900.009 1106.77 888.889 1106.61 874.136 C 1103.52 891.668 1098.11 910.4 1093.5 927.738 L 1054.93 1070.05 C 1050.9 1085.47 1045.59 1096.58 1028.63 1101.18 C 981.616 1113.92 975.528 1051.41 966.92 1021.02 C 953.692 974.311 939.741 926.819 928.708 879.554 C 921.892 924.173 915.152 1061.04 901.813 1084.67 C 888.169 1108.83 848.011 1108.76 837.566 1081.72 C 830.86 1064.15 850.524 951.844 853.477 928.338 L 869.471 810.367 C 874.93 771.151 869.844 712.591 911.911 703.001 z" fill="rgb(0,0,0)" transform="translate(0,0)"></path>
<path d="M 1274.54 703.001 L 1333.64 702.933 C 1374.41 702.93 1412.28 702.189 1444.48 731.378 C 1493.08 775.435 1495.66 863.887 1450.9 911.65 C 1413 952.089 1364.57 945.262 1315 947.023 L 1315 966.5 C 1315.03 995.567 1332.84 1138.44 1260.39 1097.5 C 1235.04 1083.18 1242.04 1051.98 1242.02 1027.52 L 1242.01 813.252 C 1242.03 770.818 1228.06 716.254 1274.54 703.001 z M 1315 874.136 C 1337.53 874.27 1379.59 878.981 1395.59 862.951 C 1410 841.262 1413.14 798.01 1388.28 783.161 C 1368.17 771.143 1337.46 777.69 1315 776.062 C 1314.97 804.398 1313.55 847.05 1315 874.136 z" fill="rgb(0,0,0)" transform="translate(0,0)"></path>
<path d="M 1605.8 698.011 C 1648.23 707.3 1653.63 759.863 1666.79 799.215 L 1736.72 1007.15 C 1742.66 1024.48 1749.36 1042.48 1753.95 1060.21 C 1759.3 1089.23 1726.78 1111.51 1700.54 1098.71 C 1677.7 1087.58 1670.63 1037.78 1662.13 1014.47 L 1613.5 1014.47 L 1551.84 1014.47 C 1546.15 1038.27 1534.67 1094.42 1509.16 1101.09 C 1478.45 1109.3 1454.46 1087.27 1464.06 1056.02 C 1496.22 951.347 1528 846.437 1565.58 743.539 C 1574.3 719.668 1577.9 703.548 1605.8 698.011 z M 1572.22 947.023 C 1584.37 947.551 1593.56 947.983 1605.8 947.023 C 1618.43 947.651 1626.6 947.512 1639.35 947.023 C 1631.35 922.68 1616.58 859.912 1605.8 840.632 C 1594.06 871.602 1582.71 914.396 1572.22 947.023 z" fill="rgb(0,0,0)" transform="translate(0,0)"></path>
<path d="M 660.197 703.001 C 672.419 700.3 692.316 707.477 696.492 720.241 L 805.285 1056.86 C 816.438 1091.92 762.811 1124.19 740.138 1085.48 C 728.479 1065.4 723.198 1036.84 716.8 1014.47 L 664.5 1014.47 L 608.094 1014.47 C 598.206 1040.91 588.986 1097.35 557.271 1102.78 C 536.604 1106.31 518.423 1089.45 516.802 1069.25 C 515.41 1051.89 542.296 982.42 548.571 963.866 L 608.072 791.652 C 619.263 759.586 624.977 707.257 660.197 703.001 z M 625.693 947.023 L 660.197 947.023 L 695.248 947.023 C 691.645 932.816 667.466 846.518 660.197 840.632 C 651.669 874.071 636.709 913.608 625.693 947.023 z" fill="rgb(0,0,0)" transform="translate(0,0)"></path>
<path d="M 363.142 698.011 C 409.56 693.773 460.22 713.47 488.938 750.693 C 512.488 781.217 472.284 825.781 439.69 804.225 C 425.375 794.757 411.795 777.854 393.63 774.555 C 285.488 754.917 282.834 1003.25 363.969 1027.73 C 413.635 1042.71 427.622 973.956 468.239 983.672 C 555.83 1010.36 414.765 1160.52 303.085 1079.71 C 250.88 1041.22 239.128 971.926 237.981 911.136 C 236.232 818.5 254.877 714.783 363.142 698.011 z" fill="rgb(0,0,0)" transform="translate(0,0)"></path>
<path d="M 1742.53 610.889 C 1837.43 603.572 1832.55 666.029 1833.05 735.324 C 1833.39 783.237 1831.01 831.673 1835.32 879.554 C 1832.07 868.497 1829 859.585 1825.06 848.775 C 1807.76 798.28 1788.66 748.216 1770.36 698.052 C 1758.86 666.494 1748.55 640.33 1719.47 621.055 C 1714.44 617.777 1708.41 616.525 1703.46 612.739 C 1709.64 609.768 1734.22 610.825 1742.53 610.889 z" fill="rgb(0,0,0)" transform="translate(0,0)"></path>
<metadata><recraft-signature>{"signed_by": "recraft", "signature_b64": "0juPoN2RVBC5ssCUGVVtQkrXZD2cS4BHgqwS1VxiqE81oVZd6jCWl64arlOD8y4wG7RXhaWSkZ7JldpqPNoyAA==", "signing_algo": "Ed25519", "generation_timestamp": 1772996886, "identifier": "fae4bdf4-985e-49a7-a2b7-1e7fe57404de"}</recraft-signature></metadata></svg>