<svg xmlns="http://www.w3.org/2000/svg" height="512" preserveAspectRatio="none" style="display: block;" version="1.1" viewBox="0 0 2048 2048" width="512">
<path d="M 1017.68 292.397 C 1043.42 290.108 1076.4 303.656 1089.9 326.393 C 1116.38 370.968 1140.19 417.511 1164.46 463.354 L 1519.52 1137.19 C 1578.59 1249.6 1639.21 1363.23 1695.84 1476.76 C 1724.59 1476.79 1754.75 1477.18 1783.52 1476.4 C 1863.79 1471.47 1912.69 1562.93 1854.51 1624 C 1821.69 1658.44 1770.58 1649.99 1727.53 1649.98 L 1035.25 1649.94 L 332.797 1649.98 C 305.076 1649.98 272.487 1651.64 245.91 1648.48 C 175.674 1640.15 141.815 1551.83 194.324 1501.33 C 224.479 1472.32 251.396 1476.69 289.055 1476.71 L 351.257 1476.76 L 939.494 358.628 C 958.501 322.624 972.44 295.867 1017.68 292.397 z M 548.687 1476.76 L 1028.81 1476.76 L 1503.08 1476.76 L 1053.08 632.471 C 1048.55 623.977 1027.48 583.327 1023.33 578.907 L 571.622 1433.82 C 564.75 1446.91 554.62 1463.83 548.687 1476.76 z" fill="rgb(0,0,0)" transform="translate(0,0)"></path>
<metadata><recraft-signature>{"signed_by": "recraft", "signature_b64": "lq/MA4qT/h+e5Zne5kJ1e1a5djHMULW+rp+nlUo6G6ePQabxoWC18CkA9FwGjNknf7EMw0y8puCmnYQYvL+rBA==", "signing_algo": "Ed25519", "generation_timestamp": 1772996682, "identifier": "52a432b2-6739-4583-ae29-babb7c6d2921"}</recraft-signature></metadata></svg>