<svg xmlns="http://www.w3.org/2000/svg" height="512" preserveAspectRatio="none" style="display: block;" version="1.1" viewBox="0 0 2048 2048" width="512">
<path d="M 1009.27 386.016 C 1092.6 385.096 1132.06 405.615 1181.66 467.479 C 1187.6 463.957 1193.49 459.859 1199.43 456.401 C 1291.31 402.915 1390.39 444.074 1440.33 531.544 C 1531.16 516.889 1622.21 565.535 1637.36 661.281 C 1643.97 681.468 1788.24 744.78 1789.02 891.484 L 1789.03 1142.11 C 1789.01 1252.12 1777.04 1323.29 1695.86 1405.17 C 1537.66 1564.76 1252.66 1624.7 1035.02 1625.15 C 775.952 1626.51 325.718 1541.62 265.286 1245.75 C 257.752 1208.86 258.416 1165.2 258.415 1127.63 L 258.403 936.079 C 258.338 822.814 281.965 747.603 383.012 678.709 C 380.909 544.261 495.681 481.04 617.04 514.518 C 669.34 428.532 784.034 416.082 865.909 467.479 C 899.416 419.043 951.343 391.844 1009.27 386.016 z M 1669.85 1299.52 C 1701.74 1246.85 1702.47 1210.24 1702.47 1151.91 L 1702.41 1079.91 C 1675.03 1101.15 1653.58 1122.85 1622.81 1140.78 C 1302.53 1327.43 744.271 1342.11 421.242 1138.59 C 389.922 1118.75 372.5 1097.27 345.224 1075.68 C 344.189 1099.48 345.844 1126.34 345.185 1149.8 C 341.365 1285.81 387.977 1344.94 498.04 1412.76 C 786.13 1590.27 1366.49 1588.1 1619.56 1359.24 C 1638.02 1342.53 1656.65 1320.36 1669.85 1299.52 z M 357.634 833.211 C 287.226 986.02 482.194 1089.66 599.675 1129.7 C 875.317 1223.66 1192.93 1223.35 1466.92 1123.26 C 1546.45 1094.13 1654.1 1035.54 1691.47 956.136 C 1725.4 884.019 1685.94 808.356 1626.8 762.849 C 1618.73 783.243 1611.15 795.093 1596.95 811.581 L 1597.01 811.587 C 1597.84 833.79 1599.14 853.363 1595.41 875.474 C 1578.86 973.762 1463.07 1035.97 1376.46 976.81 C 1329.55 1068.26 1212.17 1091.93 1137.7 1018.29 C 1127.61 1025.33 1119.48 1036.35 1109.21 1043.23 C 1041.44 1088.62 965.881 1077.23 912.138 1018.29 C 833.722 1083.3 722.914 1079.37 683.546 976.81 C 669.326 986.599 654.353 997.139 638.204 1003.09 C 520.27 1046.58 414.635 927.574 458.133 819.367 C 440.248 803.026 424.581 786.349 408.697 768.223 C 386.937 781.219 368.561 810.966 357.634 833.211 z M 937.01 632.465 C 970.441 612.33 996.241 607.075 1035.02 608.3 C 1064.96 610.829 1085.39 616.756 1111.13 632.465 C 1166.26 561.288 1097.1 451.006 1016.42 467.479 C 934.704 479.345 886.767 559.031 937.01 632.465 z M 493.523 735.393 C 510.394 720.875 521.768 711.839 542.835 702.89 C 577.97 689.206 608.021 688.229 644.277 699.05 C 658.231 646.65 608.603 585.08 550.575 587.32 C 479.912 598.691 444.123 678.402 493.523 735.393 z M 1171.35 694.021 C 1182.51 718.033 1184.36 722.587 1190.08 748.996 C 1216.51 743.693 1243.29 741.137 1269.5 748.996 C 1286.51 751.375 1294.13 754.971 1309.52 762.849 C 1316.94 749.043 1326.03 737.189 1335.31 724.627 C 1324.3 681.567 1293.41 649.33 1246.81 649.393 C 1211.93 653.385 1191.77 665.992 1171.35 694.021 z M 750.205 587.32 C 778.881 571.879 803.326 574.961 834.976 575.721 C 826.203 540.653 786.801 512.824 750.205 520.391 C 720.905 523.88 699.997 537.037 683.546 561.704 C 697.622 579.306 701.954 587.52 710.397 608.3 C 723.094 597.92 733.524 589.765 750.205 587.32 z M 1106.45 768.223 C 1102.35 721.078 1064.37 689.867 1016.42 691.369 C 972.905 696.326 941.3 723.231 937.01 768.223 C 969.217 756.367 993.462 746.998 1028.44 748.996 C 1064.32 749.327 1075.12 755.258 1106.45 768.223 z M 1213.55 557.732 C 1213.6 561.206 1213.8 565.674 1213.55 569.048 C 1249.15 562.487 1281.64 564.131 1316.23 575.721 C 1327.61 582.463 1334.68 587.156 1345.38 595.318 C 1353.32 586.684 1358.51 581.093 1367.37 573.283 C 1346.28 541.338 1320.18 516.902 1279.05 520.391 C 1253.92 521.381 1225.6 534.854 1213.55 557.732 z M 1467.74 620.041 C 1437.6 622.425 1422.1 630.531 1402.14 653.818 L 1397.65 659.149 C 1401.83 669.006 1404.02 673.877 1409.21 682.988 L 1410.58 683.151 C 1450.3 687.612 1479.79 672.232 1521.53 699.05 C 1535.56 701.927 1549.25 715.519 1560.97 724.627 C 1564.11 668.652 1528.56 609.946 1467.74 620.041 z M 791.403 740.99 C 815.625 740.823 829.289 739.352 851.837 748.996 C 857.294 724.055 861.417 712.89 875.517 691.369 C 861.139 669.116 826.712 646.98 799.801 659.149 C 739.191 656.892 706.363 744.014 731.567 754.323 C 756.093 748.306 764.231 743.594 791.403 740.99 z" fill="rgb(47,46,46)" transform="translate(0,0)"></path>
<path d="M 1022.37 825.869 C 1074.31 824.907 1117.24 866.135 1118.38 918.068 C 1119.52 970 1078.44 1013.07 1026.51 1014.39 C 974.329 1015.72 931 974.395 929.854 922.208 C 928.707 870.022 970.18 826.835 1022.37 825.869 z" fill="rgb(253,150,85)" transform="translate(0,0)"></path>
<path d="M 794.356 818.532 C 845.964 812.777 892.488 849.893 898.342 901.489 C 904.197 953.086 867.172 999.682 815.587 1005.64 C 763.86 1011.61 717.108 974.459 711.237 922.72 C 705.366 870.981 742.606 824.302 794.356 818.532 z" fill="rgb(253,150,85)" transform="translate(0,0)"></path>
<path d="M 579.554 765.629 C 631.249 759.949 677.729 797.332 683.268 849.042 C 688.806 900.752 651.298 947.13 599.572 952.528 C 548.046 957.905 501.885 920.572 496.368 869.06 C 490.851 817.549 528.058 771.286 579.554 765.629 z" fill="rgb(253,150,85)" transform="translate(0,0)"></path>
<path d="M 1228.91 821.829 C 1279.88 815.974 1326.03 852.337 1332.26 903.263 C 1338.49 954.19 1302.46 1000.6 1251.58 1007.2 C 1200.17 1013.87 1153.17 977.388 1146.88 925.933 C 1140.59 874.478 1177.41 827.745 1228.91 821.829 z" fill="rgb(253,150,85)" transform="translate(0,0)"></path>
<path d="M 1440.33 748.996 C 1550.46 735.004 1591.44 913.696 1467.74 943.502 C 1440.92 949.4 1415.46 941.974 1392.93 927.37 L 1393.63 916.614 C 1395.68 879.261 1385.27 839.816 1359.98 811.587 C 1374.71 773.44 1400.47 754.76 1440.33 748.996 z" fill="rgb(253,150,85)" transform="translate(0,0)"></path>
<metadata><recraft-signature>{"signed_by": "recraft", "signature_b64": "NVWBF+emFcLoeeFotU+vsl/J1w0x0MIMq9ihR+MVXEiBq9OxwtYD13fDJvtZvHoXdtVTG1g0zfo8s/XgGBqLBA==", "signing_algo": "Ed25519", "generation_timestamp": 1772996075, "identifier": "3bd287bf-6b0f-4f3e-901a-51c6f4d6cf27"}</recraft-signature></metadata></svg>