<svg xmlns="http://www.w3.org/2000/svg" height="512" preserveAspectRatio="none" style="display: block;" version="1.1" viewBox="0 0 2048 2048" width="512">
<path d="M 1475.31 295.133 C 1604.44 284.927 1730.04 390.429 1747.57 516.961 C 1750.14 535.508 1750.5 555.794 1750.67 574.597 L 1750.72 1136.77 C 1750.72 1172.14 1752.58 1211.67 1745.43 1246.23 C 1720.71 1365.75 1616.27 1454.1 1494.05 1455.18 L 1494.07 1622.99 C 1494.21 1657.45 1496.87 1684.53 1471.88 1711.46 C 1440.63 1746.08 1386.82 1748.3 1352.76 1715.71 C 1263.1 1629.9 1176.36 1540.76 1086.4 1455.18 L 857.054 1455.18 L 646.583 1455.18 C 604.712 1455.21 546.528 1458.5 506.727 1450.24 C 405.339 1429.17 323.567 1345.02 303.2 1243.79 C 295.298 1204.51 297.021 1166.27 297.054 1126.2 L 297.024 554.678 C 297.398 419.598 404.592 303.257 541.039 295.855 C 573.104 294.116 606.113 295.094 638.315 295.111 L 1475.31 295.133 z M 1325 1445.65 L 1325 1408.5 C 1324.8 1368.99 1320.28 1338.11 1350.41 1307.07 C 1415.04 1240.47 1579.1 1348.77 1579.05 1171.02 L 1579.01 611.588 C 1579.07 571.954 1585.69 526.852 1554.56 496.815 C 1517.62 461.176 1474.94 469.596 1428.38 469.551 L 689.63 469.472 L 603.02 469.423 C 480.768 469.414 471.208 495.311 471.475 612.606 L 471.373 1185.99 C 471.907 1265.88 520.044 1282.46 585.617 1282.19 L 1072.65 1282.02 C 1188.73 1281.97 1157.64 1288.07 1238.67 1360 C 1267.29 1388.12 1297.42 1417.2 1325 1445.65 z" fill="rgb(22,22,22)" transform="translate(0,0)"></path>
<path d="M 760.33 1005 C 764.339 1004.55 778.655 1004.86 783.038 1004.87 L 1253.32 1004.88 C 1282.64 1004.67 1302.13 1001.58 1328.54 1019.5 C 1386.08 1058.52 1374.59 1162.47 1291.17 1175.94 C 1257.25 1177.16 1217.87 1175.94 1183.27 1175.94 L 777.582 1175.93 C 657.66 1176.27 660.076 1023.31 760.33 1005 z" fill="rgb(22,22,22)" transform="translate(0,0)"></path>
<path d="M 1244.16 682.73 C 1254.81 680.872 1269.58 683.361 1280.44 682.776 C 1362.54 678.362 1412.36 711.464 1407.08 800.778 C 1405.33 869.914 1394.31 923.719 1313.54 934.895 C 1266.59 936.045 1219.83 940.574 1182.89 905.437 C 1127.07 852.334 1133.83 683.151 1244.16 682.73 z" fill="rgb(22,22,22)" transform="translate(0,0)"></path>
<path d="M 721.689 682.73 C 779.461 682.619 858.451 670.177 886.824 736.014 C 897.573 757.52 894.15 780.577 895.089 803.268 C 898.197 878.326 879.436 905.766 815.629 934.895 C 775.54 931.738 735.116 943.167 698.814 922.241 C 656.894 898.076 640.895 860.459 643.862 813.699 C 646.834 748.763 638.866 704.468 721.689 682.73 z" fill="rgb(22,22,22)" transform="translate(0,0)"></path>
<metadata><recraft-signature>{"signed_by": "recraft", "signature_b64": "DjdDcq1qSxKBF89uyuByI862AyBPCEMJeBQ5wlzymDLqPnC3EF8ZDBaxqHdgc+wsbmZ/fZQvWerm+4JPzZwXBA==", "signing_algo": "Ed25519", "generation_timestamp": 1773000036, "identifier": "489fd492-97df-4eb1-8b46-2f1edcb2c35e"}</recraft-signature></metadata></svg>