<svg xmlns="http://www.w3.org/2000/svg" height="512" preserveAspectRatio="none" style="display: block;" version="1.1" viewBox="0 0 2048 2048" width="512">
<path d="M 460.256 274.154 C 484.582 273.319 514.539 274.142 539.324 274.144 L 1534.84 274.098 C 1587.35 274.048 1624.2 272.975 1667.48 309.439 C 1726.61 359.255 1717.27 419.06 1717.25 488.551 L 1717.27 1583.27 C 1717.44 1677.52 1697.56 1763.21 1582.57 1771.55 C 1560.55 1772.65 1529.37 1771.58 1506.41 1771.56 L 513.901 1771.61 C 463.75 1771.65 426.149 1773.52 384.605 1739.65 C 327.266 1692.9 330.48 1635.62 330.471 1569.74 L 330.476 472.998 C 330.472 444.599 328.237 405.313 335.206 378.387 C 350.061 320.989 401.832 280.434 460.256 274.154 z M 491.054 1609.63 L 1551.3 1609.63 C 1552 1596.73 1551.44 1579.14 1551.39 1565.86 L 1551.3 435.287 L 491.054 435.287 C 489.708 437.337 491.045 460.178 491.063 464.538 L 491.054 1609.63 z" fill="rgb(33,32,32)" transform="translate(0,0)"></path>
<path d="M 783.195 603.68 L 893.004 603.68 C 891.092 628.453 893.011 669.531 893.027 695.565 L 893.004 885.037 L 727.5 885.037 L 616.181 885.037 L 616.085 640.646 C 615.995 628.316 614.922 615.889 616.181 603.68 L 783.195 603.68 z" fill="rgb(33,32,32)" transform="translate(0,0)"></path>
<path d="M 616.181 1160.62 C 644.975 1159.71 679.347 1160.6 708.471 1160.6 L 893.004 1160.62 L 893.004 1439.87 L 616.181 1439.87 L 616.181 1160.62 z" fill="rgb(33,32,32)" transform="translate(0,0)"></path>
<path d="M 1376.96 1095.91 C 1390.25 1104.9 1435.23 1153.24 1446 1165.42 L 1215.14 1394.27 C 1180.4 1429.33 1152.79 1454.74 1111.17 1412.63 C 1091.91 1393.14 1052.49 1360.46 1038.7 1338.5 C 1026.47 1329.61 988.371 1291.03 978.054 1278.46 C 989.552 1263.8 1034.78 1219.66 1050.1 1209.17 C 1069.54 1238.64 1127.86 1288.72 1155.06 1316.42 C 1168.12 1300.28 1196.76 1273.65 1212.43 1258.06 L 1321.48 1150.12 C 1332.61 1139.22 1366.46 1103.04 1376.96 1095.91 z" fill="rgb(33,32,32)" transform="translate(0,0)"></path>
<path d="M 1370.71 603.68 C 1389.55 626.213 1420.93 657.289 1442.13 678.781 C 1431.78 691.02 1414.2 706.523 1402.5 718.108 L 1219.4 898.243 C 1157.78 959.81 1156.77 949.579 1101.11 896.185 L 1038.7 836.707 C 1018.2 817.249 997.81 798.512 978.054 778.261 C 997.449 756.498 1029.15 726.065 1050.1 706.385 C 1086.09 741.732 1126.28 783.718 1161.03 820.628 C 1164.62 815.656 1169.79 810.756 1174.1 806.385 C 1230.21 749.453 1285.74 691.919 1341.78 634.91 C 1351.49 625.026 1362.37 614.679 1370.71 603.68 z" fill="rgb(33,32,32)" transform="translate(0,0)"></path>
<metadata><recraft-signature>{"signed_by": "recraft", "signature_b64": "dlNSJLKS/0iTyTSplxkx9v8mRlSUtn9vISUaKQrAM8iTTjJbG+K0fxwMfZGZql9kB1rArNVhDwOdUJfCXWe3Cg==", "signing_algo": "Ed25519", "generation_timestamp": 1772989793, "identifier": "b0954b81-abc2-465f-b78b-c29fa5d088ab"}</recraft-signature></metadata></svg>