<svg xmlns="http://www.w3.org/2000/svg" height="512" preserveAspectRatio="none" style="display: block;" version="1.1" viewBox="0 0 2048 2048" width="512">
<path d="M 598.178 311.895 C 602.144 311.33 618.465 311.742 623.154 311.763 L 1379.97 311.889 C 1419.28 311.865 1479 300.961 1493.1 350.276 C 1498.1 367.765 1495.56 451.052 1495.56 474.481 L 1495.48 1653.77 C 1495.19 1682.81 1477.88 1701.81 1450.25 1708.42 C 1442.05 1709.11 1423.08 1708.42 1413.84 1708.42 L 656.903 1708.43 C 573.903 1708.59 552.111 1712.49 552.396 1619.55 L 552.603 363.1 C 552.888 333.785 569.396 316.399 598.178 311.895 z M 657.927 1604.89 L 1391.66 1604.89 L 1391.69 1036.23 C 1391.68 1012.68 1391.15 988.123 1391.66 964.702 C 1371.97 980.181 1347.76 1002.39 1327.35 1019.21 L 713.413 1541.2 C 695.411 1556.37 674.959 1571.94 657.927 1588.03 C 657.787 1593.59 657.896 1599.31 657.927 1604.89 z M 657.927 850.111 L 972.991 850.111 L 972.991 416.887 L 657.927 416.887 L 657.927 850.111 z M 1077.49 850.111 C 1110.1 848.802 1147.73 850.106 1180.95 850.114 L 1391.66 850.111 L 1391.66 416.887 L 1077.49 416.887 L 1077.49 850.111 z" fill="rgb(32,31,31)" transform="translate(0,0)"></path>
<path d="M 657.927 955.934 L 1307.66 955.933 C 1321.63 955.936 1394.81 948.12 1391.66 964.702 C 1371.97 980.181 1347.76 1002.39 1327.35 1019.21 L 713.413 1541.2 C 695.411 1556.37 674.959 1571.94 657.927 1588.03 C 657.225 1583.7 657.94 1545.58 657.944 1538.59 L 657.927 955.934 z" fill="rgb(58,58,58)" transform="translate(0,0)"></path>
<metadata><recraft-signature>{"signed_by": "recraft", "signature_b64": "CQFMblKw3zAOMkHXcWy7aE+V/N+QMWLd2GUHxhq6HBfXcTnJU4qR7NIsX3M5A/XRN+vqShTGNz9uiNHzc8NNAA==", "signing_algo": "Ed25519", "generation_timestamp": 1773000691, "identifier": "830e1083-bb8b-4aca-9a06-b623269d5a27"}</recraft-signature></metadata></svg>