<?xml version="1.0" encoding="UTF-8"?>
<svg viewBox="0 0 500 500" xmlns="http://www.w3.org/2000/svg">
  <!-- Plate -->
  <ellipse cx="250" cy="380" rx="160" ry="25" fill="#FFFFFF" stroke="#000" stroke-width="3.5"/>
  
  <!-- Chocolate balls -->
  <circle cx="200" cy="280" r="45" fill="#8B5E2A" stroke="#000" stroke-width="3.5"/>
  <circle cx="300" cy="280" r="45" fill="#8B5E2A" stroke="#000" stroke-width="3.5"/>
  <circle cx="250" cy="340" r="45" fill="#8B5E2A" stroke="#000" stroke-width="3.5"/>
  
  <!-- Coconut flakes on top -->
  <ellipse cx="190" cy="260" rx="3" ry="6" fill="#FFFFFF" transform="rotate(20 190 260)"/>
  <ellipse cx="210" cy="265" rx="3" ry="6" fill="#FFFFFF" transform="rotate(-15 210 265)"/>
  <ellipse cx="200" cy="250" rx="2" ry="4" fill="#FFFFFF" transform="rotate(45 200 250)"/>
  
  <ellipse cx="290" cy="260" rx="3" ry="6" fill="#FFFFFF" transform="rotate(-20 290 260)"/>
  <ellipse cx="310" cy="265" rx="3" ry="6" fill="#FFFFFF" transform="rotate(30 310 265)"/>
  <ellipse cx="300" cy="255" rx="2" ry="4" fill="#FFFFFF" transform="rotate(-45 300 255)"/>
  
  <ellipse cx="240" cy="320" rx="3" ry="6" fill="#FFFFFF" transform="rotate(10 240 320)"/>
  <ellipse cx="260" cy="325" rx="3" ry="6" fill="#FFFFFF" transform="rotate(-25 260 325)"/>
  <ellipse cx="250" cy="310" rx="2" ry="4" fill="#FFFFFF" transform="rotate(60 250 310)"/>
  
  <!-- Paper cups -->
  <path d="M170 320 L180 340 L220 340 L230 320" fill="#FF66CC" stroke="#000" stroke-width="2"/>
  <path d="M270 320 L280 340 L320 340 L330 320" fill="#FF66CC" stroke="#000" stroke-width="2"/>
</svg>