<svg xmlns="http://www.w3.org/2000/svg" height="512" preserveAspectRatio="none" style="display: block;" version="1.1" viewBox="0 0 2048 2048" width="512">
<path d="M 454.175 430.003 C 464.262 429.336 480.92 429.934 491.478 429.946 L 1578.78 429.758 C 1629.57 429.369 1668.67 448.301 1704.48 483.424 C 1752.57 530.578 1749.77 586.681 1749.79 648.344 L 1749.79 1200.01 C 1823.89 1224.7 1798.77 1301.84 1801.05 1367.63 C 1805.25 1489.04 1711.92 1583.56 1591.61 1589.71 L 490.176 1589.77 C 377.004 1589.79 284.612 1546.76 252.45 1429.07 C 241.627 1389.46 247.655 1349.55 245.997 1309.09 C 248.31 1259.76 235.23 1215 300.048 1200.01 L 299.949 597.543 C 299.308 508.058 368.335 440.555 454.175 430.003 z M 433.972 1200.01 C 446.977 1201.04 461.26 1200.13 474.496 1200.05 L 1580.5 1200.01 L 1617.02 1200.01 L 1617.04 668.497 C 1617.04 577.345 1628.02 566.96 1524.44 566.965 L 472.058 566.874 C 471.639 566.919 471.221 566.963 470.802 567.007 C 418.392 577.69 433.899 644.746 433.934 688.375 L 433.953 1083.95 C 433.948 1120.65 432.858 1163.74 433.972 1200.01 z M 1643.12 1427.42 C 1671.93 1397.82 1671.22 1375.54 1671.03 1337.12 L 382.995 1337.12 C 382.371 1414.74 392.853 1452.78 479.672 1453.42 L 1542.57 1453.54 C 1580.94 1453.63 1613.51 1456.96 1643.12 1427.42 z" fill="rgb(0,0,0)" transform="translate(0,0)"></path>
<metadata><recraft-signature>{"signed_by": "recraft", "signature_b64": "yqN2odpZtx9PYKkNotFLW3AccjCG+rrg3IOVydfqmeRgXfx2WKuDKcY1tyO4Xv1b/DkV4vrkgZngLo8Mp4l9AA==", "signing_algo": "Ed25519", "generation_timestamp": 1772999301, "identifier": "439e2f67-a61b-4d1e-80ba-2fccf3c476ff"}</recraft-signature></metadata></svg>