<svg xmlns="http://www.w3.org/2000/svg" height="512" preserveAspectRatio="none" style="display: block;" version="1.1" viewBox="0 0 2048 2048" width="512">
<path d="M 294.982 1000.99 C 340.644 1001.56 387.872 999.951 433.221 1000.99 C 431.93 1252.93 567.105 1470.62 804.053 1566.68 C 1053.59 1667.85 1344.47 1581.68 1503.52 1367.25 C 1516.4 1349.77 1530.92 1330.32 1538.66 1310 C 1499.76 1311.04 1434.55 1317.19 1407.06 1290.34 C 1361.98 1246.31 1391.49 1172.77 1463.87 1172.71 L 1714.86 1172.81 C 1795.37 1172.87 1803.78 1202.5 1803.75 1276.52 L 1803.67 1331.97 L 1803.71 1424.47 C 1803.7 1442.44 1804.85 1470.9 1801.17 1488.03 C 1784.84 1564.23 1678.22 1548.07 1668.59 1487.92 C 1662.86 1452.09 1668.12 1405.17 1666.28 1367.95 C 1636.87 1431.15 1576.86 1499.37 1527.17 1547.28 C 1069.95 1988.22 275.592 1651.41 294.982 1000.99 z" fill="rgb(0,0,0)" transform="translate(0,0)"></path>
<path d="M 985.27 305.001 C 1159.27 293.145 1356.43 363.739 1488.89 474.074 C 1649.19 607.598 1763.67 830.625 1754.48 1042.54 C 1741.02 1043.21 1722.46 1042.57 1708.51 1042.56 L 1614.49 1042.54 C 1610.53 655.445 1263.73 375.631 886.213 457.249 C 738.084 486.877 574.587 601.847 501.163 736.725 C 517.199 735.714 534.287 736.412 550.505 736.673 C 593.016 737.356 631.739 730.634 652.935 777.92 C 671.82 820.049 640.127 871.592 593.804 872.896 C 571.327 873.529 549.087 873.043 526.863 873.045 L 336.301 873.02 C 283.639 873.007 242.861 865.645 242.952 801.893 C 243.033 745.146 234.882 615.283 245.693 565.067 C 257.371 510.828 324.505 491.744 363.186 531.321 C 387.306 556.054 383.965 581.487 383.905 612.655 L 383.83 665.146 C 389.648 656.238 394.72 646.738 400.551 637.768 C 536.502 428.615 744.373 326.896 985.27 305.001 z" fill="rgb(0,0,0)" transform="translate(0,0)"></path>
<metadata><recraft-signature>{"signed_by": "recraft", "signature_b64": "giBJq1Bnfl/oQ8Z3wuGMJdlUr2VUMv8hDwH4nkkPt5f6WEPSbNhSSI+2Ue3nJYX6xQltqVScCjBIB/VVHJbQBA==", "signing_algo": "Ed25519", "generation_timestamp": 1773000252, "identifier": "d8b51dd1-d462-4cda-ade0-5fe4938b9297"}</recraft-signature></metadata></svg>