<svg xmlns="http://www.w3.org/2000/svg" height="512" preserveAspectRatio="none" style="display: block;" version="1.1" viewBox="0 0 2048 2048" width="512">
<path d="M 486.275 290.871 C 496.27 289.957 510.768 290.787 521.298 290.815 L 1538.79 290.814 C 1601.8 290.835 1650.38 306.279 1696.54 350.864 C 1767.76 419.653 1759.63 496.813 1759.55 585.865 L 1759.73 1460.31 C 1759 1545.7 1633.46 1553.25 1621.37 1468.4 C 1619.8 1457.41 1620.53 1444.29 1620.57 1433.15 L 1620.56 804.948 C 1620.5 786.11 1619.82 767.717 1620.58 748.857 L 959.25 748.857 L 426.999 748.857 L 427.006 1462.7 C 426.953 1582.88 420.635 1615.79 545.661 1615.39 L 677.15 1615.31 C 701.269 1615.31 735.829 1613.76 759.228 1618.04 C 828.754 1630.75 828.88 1754.96 743.811 1754.93 L 540.719 1755.03 C 496.335 1755.06 466.105 1757.14 423.643 1739.22 C 292.254 1683.77 290.082 1579.88 290.075 1462.26 L 290.072 524.64 C 290.098 507.097 289.804 483.174 292.661 466.198 C 308.543 371.815 388.149 293.392 486.275 290.871 z M 426.999 613.956 C 449.751 613.24 474.694 613.942 497.696 613.95 L 1495.75 613.914 C 1512.72 613.893 1534.36 613.12 1550.75 613.956 L 1620.58 613.956 C 1621.11 580.006 1620.08 546.003 1620.75 511.846 C 1622.04 447.014 1587.92 426.131 1527.02 426 L 492.499 426.056 C 430.575 434.303 426.825 481.503 426.902 532.121 L 426.999 613.956 z" fill="rgb(0,0,0)" transform="translate(0,0)"></path>
<path d="M 1237.87 1197.01 C 1305.55 1194.48 1321.44 1257.76 1351.27 1309.28 L 1519.93 1600.72 C 1536.9 1629.54 1566.77 1663.61 1557.23 1699.56 C 1540.06 1764.28 1461.45 1771.85 1429.16 1714.33 C 1424.57 1706.16 1419.5 1697.27 1414.89 1689.32 L 1328.42 1541.02 C 1302.93 1496.5 1277.26 1452.09 1250.79 1408.13 C 1246.46 1400.91 1229.87 1435.31 1227.5 1439.23 C 1171.41 1532.18 1118.25 1623.24 1063.38 1717.36 C 1022.04 1788.28 881.666 1750.43 955.308 1627.96 L 983.726 1580.88 C 1053.9 1464.68 1120.32 1345.52 1189.15 1228.46 C 1200.02 1209.98 1217.77 1201.45 1237.87 1197.01 z" fill="rgb(0,0,0)" transform="translate(0,0)"></path>
<metadata><recraft-signature>{"signed_by": "recraft", "signature_b64": "MgH7EAqeR30C4NJJJqvlRI6w8h0IHwSE0c1zmpfV6Q3YOXpy2cNgw6eb/l5XghARIpnr0qshvFI611LQBrtqDQ==", "signing_algo": "Ed25519", "generation_timestamp": 1773000235, "identifier": "78a36162-80f0-4480-98bf-9f56914debed"}</recraft-signature></metadata></svg>