<svg xmlns="http://www.w3.org/2000/svg" height="512" preserveAspectRatio="none" style="display: block;" version="1.1" viewBox="0 0 2048 2048" width="512">
<path d="M 1668.69 546.693 C 1735.62 542.069 1799.96 561.827 1800.62 639.327 L 1800.5 1001.95 C 1800.4 1100.89 1781.07 1130.1 1678.57 1130.05 L 1293.5 1130 L 1255.01 1130 C 1254.71 1110.83 1255.01 1090.65 1255.01 1071.41 L 1669.2 1071.47 C 1688.64 1071.46 1716.39 1075.44 1733.71 1066.17 C 1748.38 1046.03 1742.55 983.704 1742.53 957.739 L 1742.54 701.538 C 1742.54 682.297 1745.91 642.215 1739.83 625.488 C 1727.99 591.918 1689.41 611.953 1664.98 602.611 C 1638.35 592.431 1644.74 555.598 1668.69 546.693 z" fill="rgb(0,0,0)" transform="translate(0,0)"></path>
<path d="M 863.034 430.603 C 902.197 429.843 905.572 471.818 917.435 504.309 L 1005.11 751.613 C 1011.89 771.078 1019.04 790.917 1024.6 810.788 C 1033.1 841.213 983.723 871.026 964.736 816.814 C 957.95 797.441 951.924 777.693 944.049 758.719 L 875.5 758.719 C 847.652 758.77 819.555 758.32 791.755 758.719 C 784.561 777.839 776.53 799.346 769.83 819.555 C 752.994 870.336 698.528 841.75 712.361 803.453 L 823.378 499.942 C 832.661 473.974 836.615 440.119 863.034 430.603 z M 870.067 702.512 C 888.966 702.51 908.255 702.317 927.122 702.512 C 910.549 658.82 894.904 614.826 879.263 570.794 C 877.92 567.012 870.931 543.255 870.067 541.715 C 850.747 582.105 826.79 658.221 812.145 702.512 L 870.067 702.512 z" fill="rgb(0,0,0)" transform="translate(0,0)"></path>
<path d="M 533.25 1309 C 565.959 1304.18 606.545 1321.03 630.053 1343.31 C 712.392 1421.36 679.196 1600.49 555.244 1600.49 C 393.602 1629.78 343.295 1333.85 533.25 1309 z M 551.072 1541.51 C 640.702 1535.02 623.68 1356.95 537.737 1370.38 C 450.562 1380 452.049 1551.85 551.072 1541.51 z" fill="rgb(0,0,0)" transform="translate(0,0)"></path>
<path d="M 985.212 906.349 C 1085.6 893.866 1157.28 997.533 1022.88 1061.8 C 1031.06 1072.84 1057.41 1099.63 1067.96 1110.32 C 1076.95 1098.52 1101.3 1068.59 1115.15 1065.25 C 1128.3 1062.07 1148.24 1078.57 1150.34 1090.83 C 1152.54 1103.65 1113.5 1136.96 1104.88 1148.3 L 1103.85 1149.67 C 1115.74 1159.12 1138.64 1178.39 1143.22 1192.45 C 1140.55 1206 1136.64 1210.54 1126.89 1219.4 C 1103.82 1234.17 1078.28 1208.16 1067.96 1188.96 C 1021.06 1218.82 983.259 1240.34 925.087 1217.82 C 842.219 1185.73 839.622 1080.88 927.122 1043.28 C 883.52 980.319 903.822 915.918 985.212 906.349 z M 985.212 1168.2 C 1002.52 1164.8 1009.18 1160.77 1022.88 1149.67 L 981.056 1104.74 C 975.792 1099.13 964.448 1086.46 958.974 1081.99 C 885.477 1119.41 940.67 1176.09 985.212 1168.2 z M 985.212 1022.47 C 990.972 1020.44 996.938 1018.5 1002.48 1015.96 C 1048.3 992.266 1051.44 950.68 993.747 954.427 C 949.515 958.714 963.939 1000.04 985.212 1022.47 z" fill="rgb(0,0,0)" transform="translate(0,0)"></path>
<path d="M 325.34 550.005 C 404.145 546.216 402.434 608.009 342.979 606.883 C 299.629 606.063 305.875 641.739 305.924 672.341 L 305.994 952.486 C 305.993 985.19 306.86 1021.45 305.997 1053.86 C 324.274 1078.62 348.069 1071.47 377.851 1071.46 L 456.312 1071.39 C 556.18 1071.37 659.602 1070 759.079 1071.41 L 759.079 1130 C 666.361 1131.5 568.67 1129.95 475.578 1130.01 L 374.18 1130.1 C 272.14 1129.99 247.503 1111.65 247.537 1003.71 L 247.521 721.673 C 247.526 653.254 232.116 563.656 325.34 550.005 z" fill="rgb(0,0,0)" transform="translate(0,0)"></path>
<path d="M 523.811 430.603 C 553.899 424.95 564.297 483.866 572.129 505.675 L 665.161 763.082 C 671.467 780.304 689.533 812.386 681.161 830.975 C 675.004 844.647 654.015 851.466 640.899 844.303 C 623.648 834.881 608.262 778.999 601.666 758.719 L 533.25 758.719 C 506.865 758.629 476.971 759.69 451.089 758.719 C 442.987 782.034 430.069 839.897 407.395 846.185 C 391.26 850.66 374.386 840.374 371.175 823.93 C 367.843 806.867 393.475 749.573 399.909 731.583 L 465.538 548.862 C 477.342 515.547 490.08 437.236 523.811 430.603 z M 528.5 702.512 C 546.286 702.536 564.477 702.763 582.228 702.512 C 573.073 675.187 540.526 566.546 528.5 546.693 C 518.751 563.572 477.53 683.229 475.001 702.512 C 492.936 703.047 510.6 702.436 528.5 702.512 z" fill="rgb(0,0,0)" transform="translate(0,0)"></path>
<path d="M 1423.78 430.603 C 1462.66 415.351 1454.21 501.147 1454.02 518.203 C 1453.64 554.733 1454.73 591.519 1453.99 627.972 C 1500.2 577.456 1551.04 501.506 1594.1 445.626 C 1621.65 409.884 1666.15 438.408 1646.8 472.211 C 1626.96 506.873 1560.92 589.682 1534.26 620.425 C 1571.22 663.538 1610.76 722.842 1645.47 769.493 C 1655.96 782.909 1674.97 803.218 1675.14 821.244 C 1675.34 842.993 1647.58 858.2 1630.24 843.084 C 1587.9 800.422 1537.75 718.373 1498.4 667.467 C 1489 680.473 1478.34 695.416 1467.93 707.601 C 1442.58 737.279 1457.46 783.198 1452.56 823.546 C 1449.9 845.473 1418.32 855.459 1406.69 841.664 C 1389.72 821.555 1396.07 769.852 1396.08 744.197 L 1396 509.069 C 1395.99 481.595 1386.8 431.273 1423.78 430.603 z" fill="rgb(0,0,0)" transform="translate(0,0)"></path>
<path d="M 1193.32 430.603 C 1305.08 420.035 1386.25 565.299 1317.66 572.177 C 1279.76 576.12 1277 475.624 1195.4 490.106 C 1091.9 508.476 1077.25 714.233 1158.44 770.658 C 1204.62 802.75 1247.39 785.949 1277.77 743.491 C 1287.35 730.579 1295.71 705.502 1313.22 702.793 C 1329.33 700.303 1345.14 714.24 1345.9 730.748 C 1349.45 807.326 1183.45 915.182 1092.48 788.338 C 1009.91 673.195 1042.8 441.436 1193.32 430.603 z" fill="rgb(0,0,0)" transform="translate(0,0)"></path>
<path d="M 1197.73 1313.99 L 1304.51 1314.33 C 1321.17 1314.52 1341.83 1311.05 1354.49 1322.74 C 1371.45 1338.4 1366.25 1367.08 1343.11 1372.43 C 1326.89 1376.18 1259.54 1373.37 1241 1373 L 1241 1424.99 C 1269.66 1425.09 1346.6 1412.12 1347.72 1453.57 C 1348.66 1488.53 1316.48 1484.25 1292.26 1484.15 L 1241 1484 L 1241 1521.5 L 1241 1541.51 C 1261.41 1539.94 1330.24 1539.94 1348.35 1543.2 C 1376.18 1547.76 1377.86 1586.12 1354.99 1597.54 C 1342.63 1603.72 1219.32 1600.63 1200.6 1600.65 C 1187.35 1600.66 1176.04 1586.42 1175.92 1573.68 C 1175.17 1496.29 1176.18 1418.87 1175.43 1341.47 C 1175.28 1325.53 1184.21 1319.43 1197.73 1313.99 z" fill="rgb(0,0,0)" transform="translate(0,0)"></path>
<path d="M 1490.91 1311.3 C 1522.86 1311.28 1600.68 1320.7 1592.73 1364.14 C 1584.84 1407.23 1535.39 1373.94 1520.55 1371.16 C 1407.19 1350.73 1421.07 1583.96 1531.3 1538.99 C 1551.55 1530.73 1574.64 1505.59 1594.06 1534.17 L 1594.79 1535.27 C 1623.07 1583.42 1496.18 1629.89 1429.01 1582.11 C 1337.86 1517.28 1354.02 1334.03 1490.91 1311.3 z" fill="rgb(0,0,0)" transform="translate(0,0)"></path>
<path d="M 302.507 1309 C 372.668 1297.73 440.662 1369.11 369.501 1387.27 C 355.303 1382.05 342.204 1372.84 327.281 1371.23 C 213.277 1358.95 225.908 1575.04 340.485 1538.27 C 361.877 1531.4 377.814 1508.09 397.812 1534.28 L 398.553 1535.27 C 420.269 1573.72 362.247 1596.29 333.638 1600.9 C 155.824 1629.5 123.228 1333.39 302.507 1309 z" fill="rgb(0,0,0)" transform="translate(0,0)"></path>
<path d="M 1626.23 1313.99 C 1634.85 1313.44 1648.2 1313.95 1657.26 1313.95 L 1771.49 1313.91 C 1781.8 1313.92 1792.76 1313.51 1802.88 1314.72 C 1825.04 1317.45 1835.38 1348.1 1818.77 1363.21 C 1802.33 1378.17 1764.5 1372.98 1742.52 1373 L 1742.52 1541.51 C 1748.29 1577.67 1735.74 1618.53 1692.29 1598.14 C 1663.39 1583.57 1678.01 1410.21 1677.02 1373 C 1660.93 1372.65 1627.71 1376 1615.12 1368.54 C 1591.42 1354.49 1597.59 1319.86 1626.23 1313.99 z" fill="rgb(0,0,0)" transform="translate(0,0)"></path>
<path d="M 732.478 1311.3 C 782.896 1305.37 768.52 1391.07 769.017 1422.09 C 768.144 1461.72 770.2 1501.96 768.999 1541.51 C 777.473 1540.83 789.036 1541.13 798.574 1541.57 C 831.219 1543.08 873.75 1532.73 870.067 1579.17 C 863.672 1593.89 855.403 1597.49 840.629 1600.49 L 775.257 1600.61 C 683.637 1600.7 702.584 1576.35 702.55 1502.92 L 702.555 1402.98 C 702.605 1371.17 693.019 1321.77 732.478 1311.3 z" fill="rgb(0,0,0)" transform="translate(0,0)"></path>
<path d="M 916.256 1311.3 C 948.988 1314.81 950.022 1330.02 950.271 1357.61 C 950.825 1418.89 949.546 1480.27 950.235 1541.51 C 970.135 1541.12 1025.12 1538.16 1040.61 1547.74 C 1066.26 1563.61 1051.71 1596.35 1025.25 1600.49 L 961.808 1600.56 C 898.013 1600.63 885.159 1597.08 885.134 1528.94 L 885.119 1387.65 C 885.125 1352.4 875.036 1319.76 916.256 1311.3 z" fill="rgb(0,0,0)" transform="translate(0,0)"></path>
<path d="M 1093.23 1311.3 L 1095.06 1311.2 C 1123.19 1309.46 1135.08 1324.48 1135.69 1350.46 C 1136.59 1388.8 1136.15 1427.25 1136.17 1465.61 L 1136.22 1536.51 C 1136.15 1563.4 1142.94 1588.51 1111.76 1600.49 C 1058.78 1607.76 1067.7 1558.82 1067.9 1523.72 L 1067.96 1344.94 C 1068.09 1324.67 1075.07 1317.71 1093.23 1311.3 z" fill="rgb(0,0,0)" transform="translate(0,0)"></path>
<metadata><recraft-signature>{"signed_by": "recraft", "signature_b64": "Dz1h1bHAGfwwl5eW+x5I5bmIdUUpr/p38qZ2eh7jvp2QhH7SK0V2Z6qkwShkge0m+7mrGxK4Ohsa9GfWlbZzBw==", "signing_algo": "Ed25519", "generation_timestamp": 1772998863, "identifier": "69ed0236-6062-440b-8ddb-f0aedf231ba6"}</recraft-signature></metadata></svg>