<svg xmlns="http://www.w3.org/2000/svg" height="512" preserveAspectRatio="none" style="display: block;" version="1.1" viewBox="0 0 2048 2048" width="512">
<path d="M 1011.58 416.521 C 1254.3 410.163 1460.71 574.94 1528.46 803.788 C 1726.44 828.469 1874.99 996.086 1877.06 1195.44 C 1879 1382.57 1742.52 1555.9 1559.02 1595.38 C 1522.36 1603.27 1489.07 1602.09 1451.98 1602.07 L 1037.75 1602.05 L 604.361 1602.08 C 565.123 1602.07 533.146 1603.48 494.291 1595.15 C 319.941 1557.77 191.811 1409.9 174.941 1232.94 C 155.271 1026.61 309.684 821.237 518.678 803.788 C 586.309 579.991 773.487 424.135 1011.58 416.521 z M 1037.75 1442.29 L 1443.71 1442.34 C 1471.63 1442.36 1499.4 1444.11 1527.09 1437.8 C 1791.96 1377.44 1768.38 988.936 1502.46 957.947 C 1407.42 947.906 1400.56 962.708 1379.35 858.826 C 1346.05 695.667 1187.38 577.702 1022.43 578.139 C 1018.7 578.149 1015.29 578.365 1011.58 578.763 C 848.904 581.57 708.188 703.002 668.294 857.913 C 656.689 901.486 654.85 956.049 588.512 953.975 C 449.115 949.617 329.699 1064.56 331.94 1204.64 C 333.132 1314.33 410.649 1412.48 517.542 1436.78 C 547.302 1443.54 582.643 1442.33 613.427 1442.32 L 1037.75 1442.29 z" fill="rgb(35,33,33)" transform="translate(0,0)"></path>
<metadata><recraft-signature>{"signed_by": "recraft", "signature_b64": "bfhcAsPFD4+AQZr75zJkVfNPaHxSLt56x3RIwCmdWxAEA0URGUIWofNaFvSIEEZIZD0zkTSp02r3lXlL0t9ZBA==", "signing_algo": "Ed25519", "generation_timestamp": 1773000100, "identifier": "024d2557-b142-4b40-bfdf-9951d1e5cb23"}</recraft-signature></metadata></svg>