<svg xmlns="http://www.w3.org/2000/svg" height="512" preserveAspectRatio="none" style="display: block;" version="1.1" viewBox="0 0 2048 2048" width="512">
<path d="M 888.8 742.057 C 1041.06 734.689 1160.15 866.527 1106 1014.2 C 1167.29 1019.21 1192.46 1015.13 1246.92 1059.85 C 1262.53 1046.92 1288.26 1020.28 1303.16 1005.86 L 1417.11 894.599 C 1437.09 874.84 1468.58 840.468 1491.41 826.282 C 1665.61 718.045 1887.95 950.621 1749.87 1124.2 C 1728.27 1150.93 1697.03 1179 1672.52 1203.49 L 1301.05 1576.76 C 1267.31 1610.92 1239.05 1641.72 1198.9 1668.79 C 1098.99 1736.58 971.024 1772.24 850.05 1759.74 C 801.72 1754.75 780.464 1688.04 811.936 1651.71 C 837.528 1622.18 872.931 1629.18 908.088 1629.02 C 1032.95 1629.01 1109.23 1583.63 1192.82 1500.82 L 1618.25 1077.62 C 1626.88 1069.23 1635.74 1061.06 1643.52 1052.16 C 1693.3 995.772 1638.94 913.966 1568.02 937.549 C 1548.23 944.132 1518.34 977.08 1502.39 992.47 L 1349.45 1141.67 C 1337.27 1153.26 1322.34 1166.5 1312.04 1179.3 C 1309.16 1232.13 1304.41 1261.3 1271.85 1304.54 C 1233.25 1351.46 1187.15 1373.79 1126.41 1373.99 L 855.649 1374.16 C 845.534 1374.15 831.547 1375.04 821.825 1373.38 C 756.407 1362.23 747.398 1270.49 809.947 1248.16 C 825.282 1242.69 842.578 1245.75 858.474 1245.52 L 1099.36 1245.69 C 1124.42 1245.84 1143.68 1249.53 1163.57 1231.08 C 1189.99 1206.58 1180.75 1156.69 1147.35 1144.44 C 1131.54 1138.64 1098.29 1140.77 1080.48 1140.78 L 860.05 1140.86 C 832.49 1141.03 807.241 1142.75 785.729 1121.5 C 761.991 1098.06 762.11 1056.33 785.845 1032.88 C 807.414 1011.58 831.698 1013.99 859.53 1014.1 L 907.162 1014.29 C 1021.43 1013.94 998.032 867.384 908.872 872.905 C 881.507 874.6 844.151 895.079 818.19 906.487 L 528.066 1033.62 C 491.053 1050.09 443.248 1065.11 415.591 1095.15 C 380.682 1133.07 368.502 1195.23 395.206 1240.91 C 407.146 1261.34 425.69 1276.77 442.485 1293.25 L 501.424 1350.36 C 531.743 1379.66 560.831 1410.24 591.691 1438.86 C 616.568 1462.83 640.865 1478.97 641.007 1516.86 C 641.414 1575.75 640.793 1633.36 641.068 1692.36 C 641.434 1771.12 533.265 1785.57 513.525 1711.19 C 509.456 1695.86 511.922 1665.58 511.987 1648.21 L 512.003 1542.58 C 499.825 1528.86 478.943 1509.34 465.487 1495.98 L 357.273 1389.71 C 334.343 1366.96 314.128 1349.5 295.439 1322.53 C 209.419 1198.37 258.873 1027.86 386.045 954.03 C 406.15 942.359 427.293 935.333 448.52 926.195 L 762.992 789.217 C 801.414 772.503 847.862 746.368 888.8 742.057 z" fill="rgb(0,0,0)" transform="translate(0,0)"></path>
<path d="M 1356.89 286.998 C 1475.73 274.904 1558.5 444.043 1465.49 539.971 C 1451.56 554.335 1436.81 567.882 1422.54 581.924 L 1341.44 662.205 C 1313.35 689.607 1291.07 723.217 1248.1 724.426 C 1206.58 725.594 1177.3 684.65 1149.79 658.084 C 1108.19 616.769 1067 575.286 1023.63 535.763 C 999.729 513.986 985.27 465.302 987.309 432.888 C 995.802 297.862 1152.47 234.161 1246.92 339.291 C 1276.13 306.948 1311.51 283.783 1356.89 286.998 z" fill="rgb(0,0,0)" transform="translate(0,0)"></path>
<metadata><recraft-signature>{"signed_by": "recraft", "signature_b64": "FpKQHgdcRtqLHKj2VZ+KbI9McF4INZ0/ZPyIiEnmc56Rt6FLHmJ5jQsQUNL83etznZBhc3Lud+cIAMaW92qWCA==", "signing_algo": "Ed25519", "generation_timestamp": 1773000792, "identifier": "d9f39d66-bc21-4c85-a11d-cda5ea765f3a"}</recraft-signature></metadata></svg>