<svg xmlns="http://www.w3.org/2000/svg" height="512" preserveAspectRatio="none" style="display: block;" version="1.1" viewBox="0 0 2048 2048" width="512">
<path d="M 550.346 510.205 L 551.343 510.174 C 573.957 509.658 598.706 510.185 621.528 510.187 L 1395.95 510.182 C 1437.59 510.171 1490.38 507.535 1530.53 514.649 C 1661.43 537.845 1743.95 647.949 1747.78 777.014 L 1748 1219.69 C 1748 1256.03 1749.99 1295.31 1741.98 1330.75 C 1716.44 1443.72 1612.86 1532.95 1495.72 1535.45 L 641.22 1535.47 C 601.57 1535.5 555.632 1537.64 516.899 1531.59 C 403.657 1513.89 309.058 1407.37 301.406 1293.51 C 298.974 1257.31 300.159 1218.39 300.169 1182.14 L 300.2 833.606 C 300.199 798.878 297.563 754.385 304.56 721.034 C 330.013 599.705 429.395 519.13 550.346 510.205 z M 1492.24 1366.13 C 1592.29 1344.69 1580.63 1261.54 1580.56 1185.54 L 1580.56 850.184 C 1580.56 820.071 1582.25 784.283 1577.86 754.688 C 1572.06 715.463 1526.58 683.766 1488.78 681.965 C 1453.57 680.287 1417.67 681.061 1382.35 681.08 L 558.454 681.084 C 459.417 694.792 468.58 768.662 468.613 842.399 L 468.584 1245.77 C 468.624 1303.19 488.416 1360.4 556.644 1365.29 C 575.628 1366.65 595.061 1366.18 614.088 1366.18 L 1439.48 1366.17 C 1454.18 1366.19 1478.52 1367.05 1492.24 1366.13 z" fill="rgb(30,29,29)" transform="translate(0,0)"></path>
<path d="M 1311.68 1062.99 L 1382.19 1062.87 C 1395.59 1062.87 1411.16 1062.17 1424.24 1063.94 C 1504.83 1074.81 1532.41 1202.72 1423.34 1234.92 C 1399.81 1237.23 1327.73 1235.99 1307.73 1232.64 C 1224.23 1218.66 1207.01 1089.05 1311.68 1062.99 z" fill="rgb(30,29,29)" transform="translate(0,0)"></path>
<metadata><recraft-signature>{"signed_by": "recraft", "signature_b64": "i7wZ5jUxKFLnGa0cVWqJD/14KDHfZUnVNvFtcsgAicUU/yoHJxZsIKWqXPhaRRzwSSYBKNVzkk2+LgCcA+kABQ==", "signing_algo": "Ed25519", "generation_timestamp": 1772999760, "identifier": "df82d43b-64c8-4714-85d2-944dbeca7bde"}</recraft-signature></metadata></svg>