<svg xmlns="http://www.w3.org/2000/svg" height="512" preserveAspectRatio="none" style="display: block;" version="1.1" viewBox="0 0 2048 2048" width="512">
<path d="M 459.137 296.51 L 1464.09 296.505 C 1559.03 296.47 1645.39 277.696 1713.97 355.878 C 1755.16 402.826 1751.14 445.427 1751.11 502.557 L 1751.06 831.707 C 1751.07 863.936 1752.78 897.027 1751.13 929.158 C 1747.86 992.727 1657.58 1010.61 1635.17 947.421 C 1629.61 931.758 1632.35 867.689 1632.35 847.382 L 1632.43 489.07 C 1632.68 462.642 1638.14 414.11 1596.31 414.059 L 514.255 414.758 C 445.038 414.581 414.457 399.751 415.345 485.08 L 415.276 1547.87 C 415.152 1646.78 441.606 1630.79 524.6 1630.72 L 806.355 1630.68 C 830.519 1630.57 857.115 1627.39 876.517 1644.66 C 917.317 1680.98 894.034 1748.06 838.497 1749.14 C 810.954 1749.67 783.106 1749.4 755.514 1749.39 L 501.564 1749.41 C 477.005 1749.43 449.975 1750.76 425.995 1746.21 C 354.624 1732.67 297.743 1667.66 296.424 1594.51 C 296.092 1566.48 296.337 1538.3 296.369 1510.25 L 296.382 487.185 C 296.562 381.333 341.489 300.206 459.137 296.51 z" fill="rgb(26,36,46)" transform="translate(0,0)"></path>
<path d="M 1442.97 1630.72 L 1506.3 1630.77 C 1560.55 1630.85 1607.71 1630.39 1631.66 1570.1 C 1636.84 1557.08 1637.04 1543.81 1646.34 1532.19 C 1662.3 1509.78 1711.28 1510.64 1731.05 1527.29 C 1773.48 1562.99 1734.88 1644.34 1707.16 1676.69 C 1644.89 1749.34 1582.26 1749.49 1497.93 1749.42 L 1246.58 1749.32 C 1231.84 1749.33 1216.95 1749.34 1202.29 1749.69 C 1097.38 1752.18 999.311 1660.83 993.299 1556.14 C 992.319 1539.06 992.764 1521.39 992.766 1504.32 L 992.761 1328.24 C 992.676 1296.46 990.768 1265.14 997.999 1234.21 C 1019.35 1142.88 1099.8 1075.19 1192.91 1067.34 C 1211.75 1065.75 1230.09 1068.01 1248.34 1066.69 L 1249.8 1066.58 C 1334.58 1088.6 1366.27 1116.96 1413.17 1183.91 C 1440.65 1239.89 1443.04 1260.71 1443 1322.74 L 1442.97 1630.72 z M 1111.23 1375.49 L 1223.5 1375.49 L 1320.13 1375.49 C 1322.38 1325.33 1327.55 1260.38 1292.09 1222.93 C 1268.36 1197.88 1243.04 1188.71 1209.31 1188.47 C 1130.35 1193.67 1111.15 1254.03 1111.17 1322.01 L 1111.23 1375.49 z M 1320.13 1630.72 L 1320.13 1495 C 1251.14 1495 1180.02 1494.04 1111.23 1495 C 1110.59 1586.28 1130.04 1630.53 1230.27 1630.77 L 1320.13 1630.72 z" fill="rgb(26,36,46)" transform="translate(0,0)"></path>
<path d="M 1249.8 1066.58 L 1251.16 1066.69 C 1267.24 1067.87 1306.53 1066.51 1324.32 1066.51 L 1545.34 1066.61 C 1640.87 1066.71 1727.89 1128.75 1747.38 1224.83 C 1765.63 1314.83 1682.95 1334.22 1646.8 1291.46 C 1634.34 1276.71 1635.76 1260.22 1630.83 1242.72 C 1615.28 1189.72 1571.84 1183.62 1526.41 1183.86 L 1475.83 1183.93 C 1465.92 1183.89 1420.92 1182.15 1413.17 1183.91 C 1366.27 1116.96 1334.58 1088.6 1249.8 1066.58 z" fill="rgb(72,169,248)" transform="translate(0,0)"></path>
<metadata><recraft-signature>{"signed_by": "recraft", "signature_b64": "UCxcKBNj1YgsnuU/qKIPnilSrqh3pDLiE4Ldgpgl3q6IUQtGarutyf4fL+U67tpvFfG+g6nmwNqqen6m3lE7CQ==", "signing_algo": "Ed25519", "generation_timestamp": 1772999887, "identifier": "62eb55e1-b7be-4ade-a4da-e55e1f2f3750"}</recraft-signature></metadata></svg>