<svg xmlns="http://www.w3.org/2000/svg" height="512" preserveAspectRatio="none" style="display: block;" version="1.1" viewBox="0 0 2048 2048" width="512">
<path d="M 1503.6 360.573 C 1511.63 362.722 1664.77 520.055 1682.79 538.268 L 1725.26 581.005 C 1775.3 630.942 1816.2 693.819 1749.6 757.716 C 1719.7 786.409 1694.39 786.097 1655.99 785.95 C 1654.87 799.043 1655.94 828.923 1655.96 843.475 L 1656.08 1337.02 C 1656.1 1354.67 1657.78 1378.66 1644.8 1392.14 C 1613.07 1425.46 1579.26 1458.28 1546.97 1490.99 C 1515 1523.36 1509.13 1516.9 1466.53 1516.79 L 1384.01 1516.72 L 1384.05 1601.39 C 1384.12 1683.38 1373.99 1677.96 1303.86 1678.26 C 1239.45 1678.54 1244.37 1661.5 1244.59 1603.04 L 1244.67 1516.72 L 802.998 1516.72 L 803.085 1599.36 C 803.111 1692.15 788.631 1678.45 706.857 1678.31 C 653.486 1678.93 660.927 1639.9 660.937 1600.64 L 661.026 1516.72 L 591.017 1516.75 C 518.875 1516.84 525.534 1510.83 475.87 1461.12 L 416.069 1401.83 C 386.485 1372.27 392.896 1354.47 392.933 1315.44 L 393.002 881.145 L 332.652 881.264 C 271.114 881.901 238.86 870.215 290.861 817.568 L 334.43 773.885 C 413.423 694.327 381.561 701.888 488.729 701.951 L 1157.98 701.998 C 1250.08 620.373 1338.17 520.305 1428.07 434.161 C 1452.7 410.56 1477.64 382.241 1503.6 360.573 z M 531.998 1328.43 C 545.667 1344.74 566.112 1363.12 581.435 1378.64 C 601.118 1379.78 633.535 1378.66 654.246 1378.65 L 1399.82 1378.62 C 1416.44 1378.61 1447.93 1377.5 1462.97 1378.64 C 1480.82 1362.38 1497.88 1344.19 1516.01 1328.43 L 1516.01 1261.5 L 1516 1020.48 C 1516.01 984.246 1517.55 937.63 1516.01 902.517 C 1504.79 912.145 1495.03 923.104 1483.91 932.61 C 1388.13 1014.52 1304.64 1021.88 1188.18 1021.88 L 866.011 1021.89 C 747.035 1021.97 664.828 1024.66 568.336 934.473 C 562.941 929.431 531.954 897.244 531.998 897.269 C 531.392 913.26 531.962 930.139 531.98 946.272 L 531.998 1328.43 z" fill="rgb(0,0,0)" transform="translate(0,0)"></path>
<metadata><recraft-signature>{"signed_by": "recraft", "signature_b64": "+4mSBc7tbgOyB2bN84brICS+A83P+UBhd8J6YVR+S4LvUlKDhdiypcPsZkU2Zz7gw45ujfKbOhQHY18+Aab2DA==", "signing_algo": "Ed25519", "generation_timestamp": 1772996551, "identifier": "f8f99747-34a8-40d9-8efb-a9fff2dac667"}</recraft-signature></metadata></svg>