<svg xmlns="http://www.w3.org/2000/svg" height="512" preserveAspectRatio="none" style="display: block;" version="1.1" viewBox="0 0 2048 2048" width="512">
<path d="M 810.722 640.428 C 877.231 632.664 898.232 700.348 919.178 746.168 L 1287.66 1551.21 C 1302.19 1583.35 1319.68 1617.41 1330.93 1650.72 C 1346.6 1709.16 1276.02 1759.24 1220.63 1738.45 C 1185.28 1725.19 1174.76 1697.02 1160.09 1665.42 L 1123.69 1586.44 C 1089.15 1511.45 1053.12 1436.65 1019.31 1361.31 L 819.75 1361.31 L 612.144 1361.31 C 602.103 1385.85 589.059 1412.09 577.887 1436.5 L 473.471 1663.2 C 458.813 1696 451.917 1725.12 414.572 1739.95 C 345.733 1767.27 276.972 1697.69 307.706 1629.52 L 711.933 749.635 C 735.305 699.652 745.231 645.367 810.722 640.428 z M 687.368 1197.95 L 816.472 1197.95 L 943.553 1197.95 C 914.523 1130.94 881.372 1062.41 850.02 996.406 C 844.403 984.583 822.695 932.376 816.472 924.713 C 793.149 969.399 773.807 1013.43 752.854 1058.8 L 687.368 1197.95 z" fill="rgb(0,0,0)" transform="translate(0,0)"></path>
<path d="M 1223.78 300.998 C 1229.97 300.482 1242.16 300.924 1248.99 300.941 L 1604.03 300.998 C 1627.56 300.985 1652.52 300.517 1675.89 301.402 C 1705.59 302.527 1739.27 335.869 1741.93 364.562 C 1744 386.993 1743.07 415.554 1743.05 438.808 L 1743.01 870.445 C 1743 927.777 1736.16 969.591 1669.23 978.892 C 1585.18 981.76 1581.02 916.508 1581.01 856.175 L 1581.02 465.697 C 1571.75 464.881 1557.95 465.584 1548.19 465.642 L 1304.92 465.727 C 1278.85 465.726 1242.86 467.609 1217.73 464.243 C 1130.88 452.613 1124.38 318.773 1223.78 300.998 z" fill="rgb(0,0,0)" transform="translate(0,0)"></path>
<metadata><recraft-signature>{"signed_by": "recraft", "signature_b64": "V0HDfZqtXK5oEQlh10weXbwmIxB2IOz2VbBbSCR48ExivXS6E/pnDs2Mdp2VKv0Oh6IXZ2sJ6LNxHZ6wEtwTBw==", "signing_algo": "Ed25519", "generation_timestamp": 1772989949, "identifier": "081fd090-ff9e-4025-9bea-dd131d365d42"}</recraft-signature></metadata></svg>