<svg xmlns="http://www.w3.org/2000/svg" height="512" preserveAspectRatio="none" style="display: block;" version="1.1" viewBox="0 0 2048 2048" width="512">
<path d="M 413.96 345.002 C 421.12 344.252 449.846 344.96 458.571 344.979 L 1546.48 344.978 C 1604.54 344.957 1683.78 330.53 1703.91 404.138 C 1708.54 421.054 1706.01 495.918 1706 519.147 L 1705.98 1529.36 C 1705.99 1602.45 1725.07 1679.57 1635.38 1703.07 C 1627.96 1703.95 1602.42 1703.15 1593.12 1703.12 L 511.356 1703.1 C 451.642 1703.14 355.669 1717.13 344.085 1634.45 C 342.258 1621.42 342.961 1598.67 342.964 1584.78 L 343.04 490.626 C 342.909 428.092 330.487 358.795 413.96 345.002 z M 512.89 941.186 L 628.719 941.136 C 693.29 941.135 709.883 931.801 756.581 980.937 C 795.466 1021.85 837.784 1059.43 876.199 1100.79 C 896.755 1122.91 894.203 1149.54 894.182 1176.92 L 894.077 1416.97 C 894.074 1454.55 892.853 1498.27 894.11 1535.01 L 1513.99 1535.1 C 1519.8 1535.14 1530.52 1535.63 1535.87 1535.01 C 1536.45 1519.12 1535.83 1498.54 1535.85 1482.3 L 1535.89 585.836 C 1535.88 559.073 1546.97 513.105 1515.7 512.459 C 1474.83 511.616 1433.9 512.035 1393.01 512.046 L 512.89 512.047 C 511.935 525.218 512.819 545.108 512.853 559.021 L 512.89 941.186 z M 512.89 1535.01 L 646.113 1534.99 C 654.621 1534.98 726.832 1536.27 727.549 1535.01 L 727.556 1318.79 C 727.564 1278.67 728.796 1231.48 727.549 1191.79 C 701.672 1165.99 667.034 1136.34 644.357 1108.99 L 512.89 1108.99 L 512.89 1535.01 z" fill="rgb(0,0,0)" transform="translate(0,0)"></path>
<metadata><recraft-signature>{"signed_by": "recraft", "signature_b64": "lLPejlXjagUweI8XJxpYyxdZZ48YNUv5KT56iw6AxDgq6VeOYJBReO9xs3jGV2c6b2ZMzOaICgC8fFgweOhVDQ==", "signing_algo": "Ed25519", "generation_timestamp": 1772989733, "identifier": "0647df10-4f80-4525-8db6-2325d0882acb"}</recraft-signature></metadata></svg>