<svg xmlns="http://www.w3.org/2000/svg" height="512" preserveAspectRatio="none" style="display: block;" version="1.1" viewBox="0 0 2048 2048" width="512">
<path d="M 715.512 306.003 L 843.413 306.003 C 844.182 322.428 843.447 341.521 843.439 358.258 L 843.418 783.411 C 843.417 834.29 842.008 891.246 843.413 941.51 C 868.655 942.131 896.4 941.526 921.897 941.525 L 1555.01 941.51 C 1553.97 917.029 1554.78 879.761 1554.93 854.721 L 1555.01 306.003 L 1681.53 306.003 L 1681.53 1716.76 C 1675.47 1716.58 1669.32 1716.71 1663.25 1716.76 C 1627.9 1716.79 1590.09 1715.93 1555.01 1716.76 L 1555.01 1067.11 L 843.413 1067.11 C 842.713 1090.63 843.39 1118.22 843.393 1142.03 L 843.413 1716.76 L 715.512 1716.76 L 715.512 1067.11 L 493.45 1067.11 C 494.995 1180.58 493.457 1297.93 493.474 1411.7 L 493.459 1615.64 C 493.452 1648.96 494.051 1683.62 493.45 1716.76 L 366.153 1716.76 L 366.153 306.003 C 388.88 308.619 470.24 307.771 493.45 306.003 C 494.312 330.217 493.487 358.991 493.465 383.702 L 493.45 941.51 C 515.206 942.482 545.406 941.55 567.75 941.544 L 715.512 941.51 C 716.234 925.256 715.612 905.185 715.563 888.639 L 715.503 360.999 C 715.492 342.96 714.85 323.818 715.512 306.003 z" fill="rgb(0,0,0)" transform="translate(0,0)"></path>
<metadata><recraft-signature>{"signed_by": "recraft", "signature_b64": "cmwLgszg2hS1yGExMj1DtpkyA3MhEBfv90hq5ADbk9TJtLenqTQFGqtxS/f4OWJYkVTD0V6LcZBDEDdIkveaDA==", "signing_algo": "Ed25519", "generation_timestamp": 1772996395, "identifier": "d78d0fbe-ece4-49bd-95df-1442c75f95db"}</recraft-signature></metadata></svg>