<svg xmlns="http://www.w3.org/2000/svg" height="512" preserveAspectRatio="none" style="display: block;" version="1.1" viewBox="0 0 2048 2048" width="512">
<path d="M 919.029 759.609 C 935.201 808.976 950.856 824.905 1001.73 816.083 C 1003.67 859.876 1036.17 867.249 1070.51 844.799 C 1082.61 886.308 1111.07 895.508 1147.67 869.632 C 1162.96 906.616 1183.22 910.444 1215.6 884.403 C 1239.83 909.799 1262.72 919.271 1285.64 884.403 C 1317.44 903.528 1337.61 908.519 1356.57 869.632 C 1386.6 888.748 1411.03 891.576 1427.57 854.952 C 1464.78 871.641 1478.15 871.634 1495.43 833.72 C 1568.45 840.907 1547.55 807.429 1560.99 794.174 C 1617.04 815.446 1600.62 788.854 1622.58 780.499 C 1640.14 773.816 1644.76 815.87 1622.48 820.189 C 1606.21 823.342 1593.18 813.71 1577.04 809.095 C 1578.49 839.235 1578.49 861.648 1543.3 869.632 C 1467.82 845.496 1517.43 907.123 1469.41 896.309 C 1448.68 891.641 1456.1 888.235 1434.15 890.012 C 1417.08 897.918 1414.91 923.127 1394.75 916.714 C 1381.99 912.655 1368.44 900.039 1354.07 906.604 C 1339.8 913.032 1338.64 942.047 1320.4 936.647 C 1304.3 931.88 1291.63 911.654 1273.89 921.172 C 1262.35 927.368 1253.8 950.203 1239.22 945.168 C 1223.94 939.889 1220.28 909.554 1193.81 920.866 C 1185.87 924.26 1167.56 942.47 1160.45 938.045 C 1143.62 927.573 1151.22 909.804 1124.44 902.819 C 1113.34 905.094 1087.91 921.092 1080.99 913.761 C 1068.39 900.407 1077.55 876.572 1050.75 876.551 C 1035.85 876.538 1020.1 894.711 1008.72 886.645 C 997.259 878.514 1006.42 846.435 983.189 845.968 C 973.248 844.911 957.63 858.89 949.164 851.697 C 934.939 839.611 940.69 798.506 921.33 794.242 C 910.182 791.787 910.335 813.802 911.394 821.46 C 916.784 860.422 930.482 885.429 973.117 877.716 C 983.686 918.054 1010.26 923.586 1045.3 908.609 C 1057.37 951.321 1083.17 949.416 1118.77 938.78 C 1147.37 971.147 1165.35 977.566 1202.07 951.577 C 1227.16 988.986 1259.34 982.883 1285.64 951.577 C 1312.58 974.08 1352.6 975.446 1368.41 938.78 C 1403.03 955.812 1422.92 951.283 1447.81 922.365 C 1480 935.791 1510.9 928.235 1525.2 894.108 C 1560.79 909.537 1590.56 885.751 1605.86 854.952 C 1638.73 849.119 1673.23 838.319 1665.65 796.019 C 1769.79 857.668 1776.35 1023.83 1776.35 1131.21 L 1776.21 1495.93 C 1776.12 1507.69 1773.82 1520.16 1773.49 1532.03 L 1770.98 1648.05 C 1770.6 1675.23 1780.49 1739.95 1747.63 1746.61 C 1717.28 1750.66 1685.71 1748.54 1655.15 1748.06 C 1620.29 1747.51 1625.88 1692.13 1623.81 1669.56 L 1607.24 1493.23 C 1599.44 1410.18 1595.85 1280.77 1527.34 1229.09 C 1516.98 1221.29 1502.25 1220.28 1490.04 1223.28 C 1337.17 1264.01 1176.75 1278.95 1019.43 1259.51 C 966.078 1254.06 890.736 1240.36 880.447 1316.89 C 864.412 1436.17 851.765 1555.95 837.306 1675.45 C 833.308 1697.13 837.701 1744.63 807.204 1747.62 C 776.157 1750.65 742.805 1748.76 711.493 1748.68 C 678.933 1748.59 688.761 1700.6 688.326 1681.07 L 691.247 1371.44 C 691.203 1226.43 688.204 1047.36 650.993 906.036 L 655.454 906.036 C 667.915 907.318 678.41 889.755 686.034 880.906 C 759.168 796.019 838.068 822.445 919.029 759.609 z" fill="rgb(215,19,28)" transform="translate(0,0)"></path>
<path d="M 433.049 310.253 C 450.201 280.194 473.196 306.423 490.685 320.215 C 521.248 344.317 550.737 370.204 582.558 392.689 C 589.509 397.601 630 398.324 641.164 402.206 C 786.719 426.963 897.856 565.908 977.701 681.645 C 947.778 691.639 913.088 742.752 881.712 758.739 C 802.733 798.981 697.835 791.023 650.993 890.012 L 646.561 894.108 C 628.587 828.627 607.855 776.53 537.992 754.023 C 514.038 758.98 391.315 801.081 385.549 808.869 C 359.609 843.905 353.57 865.548 298.46 862.791 C 251.731 860.454 199.363 764.759 201.712 729.685 C 214.913 675.638 352.527 552.415 394.204 511.179 C 414.232 491.362 436.35 468.869 457.666 452.032 C 450.278 416.689 431.69 344.397 433.049 310.253 z" fill="rgb(215,19,28)" transform="translate(0,0)"></path>
<path d="M 989.502 694.968 C 1096.45 818.722 1141.92 803.127 1291.4 791.635 C 1368.26 785.724 1467.79 779.932 1543.3 768.078 C 1546.26 770.366 1555.75 770.934 1560.11 771.614 C 1551.64 772.341 1537.2 771.727 1528.29 771.614 C 1525.37 827.199 1518.65 798.114 1484.74 797.774 C 1466.4 797.59 1467.76 822.487 1462.37 832.001 C 1457.35 840.864 1426.94 816.491 1418.62 821.594 C 1398.08 826.129 1404.48 841.124 1396.41 852.584 C 1390.09 861.569 1372.45 838.79 1359.72 838.909 C 1334.24 839.146 1338.45 848.975 1326.05 863.797 C 1313.06 875.241 1300.8 849.402 1286.51 850.366 C 1269.63 851.506 1263.21 867.896 1251.78 877.716 C 1242.4 869.583 1237.87 857.146 1225.42 851.998 C 1206.46 844.16 1194.96 864.744 1184.92 868.813 C 1177.22 867.412 1176.73 853.019 1168.55 845.566 C 1144.43 823.588 1130.63 851.145 1110.64 854.386 C 1101.14 855.926 1098.5 826.386 1090.82 820.223 C 1066.68 800.863 1056.57 828.703 1036.54 827.403 C 1024.09 826.594 1030.86 802.398 1022.19 792.638 C 1006.15 774.578 987.048 795.636 972.797 793.03 C 960.699 790.817 947.85 757.561 938.339 744.188 C 953.943 727.372 972.756 710.753 989.502 694.968 z" fill="rgb(215,19,28)" transform="translate(0,0)"></path>
<path d="M 1729.95 833.72 C 1790.44 858.688 1815.34 964.989 1822.78 1022.47 C 1831.92 1093.08 1847.34 1234.14 1839.79 1306.01 L 1833.46 1309.05 C 1821.65 1312.52 1809.06 1317.06 1797.04 1320.76 C 1796.23 1305.38 1796.99 1282.26 1797 1266.27 L 1797.05 1142.39 C 1797.07 1023.67 1799.64 933.747 1729.95 833.72 z" fill="rgb(76,36,33)" transform="translate(0,0)"></path>
<path d="M 1543.3 768.078 C 1558.23 768.263 1576.12 766.877 1590 767.639 L 1590.78 768.447 C 1584.92 772.054 1567.46 771.844 1560.11 771.614 C 1555.75 770.934 1546.26 770.366 1543.3 768.078 z" fill="rgb(232,22,23)" transform="translate(0,0)"></path>
<path d="M 650.993 890.012 C 651.119 897.382 651.552 899.78 655.454 906.036 L 650.993 906.036 L 646.561 894.108 L 650.993 890.012 z" fill="rgb(232,22,23)" transform="translate(0,0)"></path>
<metadata><recraft-signature>{"signed_by": "recraft", "signature_b64": "B3GuyhkvOnEgHmrTlHl9WKrgMODFy9BwuzKH0du6h32asUAN6jpMtcmYVPxchPxigAclX/cNKQIFdamL6FlvAw==", "signing_algo": "Ed25519", "generation_timestamp": 1772988232, "identifier": "70d4dc45-72ad-4819-b1ac-52ea9f3b2701"}</recraft-signature></metadata></svg>