<svg xmlns="http://www.w3.org/2000/svg" viewBox="55 120 520 560" width="500" height="500">
  <!-- Dalahäst v8 — real silhouette + enhanced kurbits with saddle contour -->
  
  <!-- Horse silhouette (from reference vector) -->
  <path fill="#D32F2F" stroke="#000" stroke-width="3.5" stroke-linecap="round" stroke-linejoin="round" d="
	M401.659,494.299c-20.207,2.543-41.652,2.681-61.173,0.688s-37.117-6.117-49.626-7.08c-12.51-0.962-19.934,1.237-26.395,15.947
	c-6.461,14.709-11.96,41.929-15.671,65.985c-3.712,24.058-5.637,44.953-6.736,62.274c-1.1,17.321-1.375,31.068-3.403,38.079
	c-2.028,7.012-5.81,7.287-13.063,7.407s-17.975,0.086-24.195-0.877c-6.22-0.962-7.937-2.853-8.657-20.02
	c-0.721-17.166-0.447-49.609-0.859-83.152c-0.412-33.543-1.512-68.186-3.986-101.315c-2.475-33.131-6.324-64.749-11.41-91.006
	s-11.41-47.152-16.771-60.074s-9.76-17.872-14.297-19.384s-9.21,0.412-21.858,5.499c-12.647,5.086-33.268,13.335-44.403,16.634
	s-12.785,1.649-16.909-3.712s-10.723-14.434-15.672-22.064c-4.949-7.629-8.249-13.815-9.486-19.314
	c-1.237-5.499-0.413-10.31,1.443-14.09c1.856-3.781,4.743-6.53,16.015-18.284c11.273-11.754,30.931-32.512,41.241-43.922
	c10.311-11.41,11.273-13.472,11.616-19.864c0.344-6.393,0.069-17.115-0.206-28.663c-0.275-11.547-0.55-23.92,0.619-30.725
	c1.168-6.805,3.78-8.042,6.461-7.905c2.681,0.137,5.43,1.65,12.579,8.317s18.696,18.489,26.807,24.47
	c8.111,5.98,12.785,6.117,21.72,6.598c8.936,0.481,22.133,1.306,32.925,2.887c10.791,1.581,19.177,3.918,27.013,6.874
	s15.122,6.53,23.576,13.472c8.455,6.942,18.078,17.252,27.426,29.487c9.348,12.234,18.421,26.395,25.638,38.492
	c7.217,12.097,12.578,22.132,17.39,29.418c4.812,7.286,9.073,11.822,14.984,15.74c5.911,3.917,13.472,7.217,29.074,7.698
	c15.604,0.481,39.249-1.856,58.774-3.406c19.525-1.55,34.932-2.313,49.365-1.763c14.435,0.55,27.897,2.413,39.716,8.293
	c11.817,5.881,21.99,15.778,29.964,26.364c7.973,10.585,13.747,21.858,17.459,32.718s5.36,21.308,6.117,48.39
	c0.756,27.082,0.618,70.798,0.961,117.478c0.344,46.679,1.169,96.322,0.447,121.385s-2.99,25.543-10.827,25.955
	c-7.835,0.412-21.238,0.757-28.353-0.446c-7.114-1.202-7.938-3.952-9.176-12.689c-1.237-8.738-2.887-23.464-6.599-46.636
	s-9.485-54.79-16.496-78.848s-15.26-40.554-22.958-48.252s-14.847-6.599-27.906-3.574
	C440.838,486.808,421.867,491.756,401.659,494.299z"/>
  
  <!-- Eye -->
  <circle cx="138" cy="237" r="7" fill="#000"/>
  <circle cx="136" cy="235" r="2.5" fill="#FFF"/>
  
  <!-- Nostril -->
  <ellipse cx="108" cy="275" rx="5" ry="4" fill="#B71C1C"/>
  
  <!-- === BRIDLE (layered harness) === -->
  <!-- Cheek strap -->
  <path d="M152 232 L148 272" fill="none" stroke="#FFF" stroke-width="4" stroke-linecap="round"/>
  <!-- Brow band -->
  <path d="M115 240 L155 234" fill="none" stroke="#FFF" stroke-width="4" stroke-linecap="round"/>
  <!-- Nose band -->
  <path d="M110 265 L148 270" fill="none" stroke="#FFF" stroke-width="4" stroke-linecap="round"/>
  <!-- Cheek rosette -->
  <circle cx="152" cy="252" r="6" fill="#FFCA28" stroke="#FFF" stroke-width="1.5"/>
  <circle cx="152" cy="252" r="2.5" fill="#FFF"/>
  <!-- Throat latch -->
  <path d="M148 272 Q155 285 158 300" fill="none" stroke="#FFF" stroke-width="3" stroke-linecap="round"/>
  
  <!-- === MANE (thick painted line down neck) === -->
  <path d="M186 178 C182 208 178 238 172 268 C168 288 164 308 160 328"
        fill="none" stroke="#1B5E20" stroke-width="11" stroke-linecap="round"/>
  <!-- Mane inner highlight -->
  <path d="M184 185 C180 215 176 245 170 275 C167 292 163 312 159 328"
        fill="none" stroke="#FFCA28" stroke-width="4" stroke-linecap="round"/>
  
  <!-- === SADDLE CONTOUR (kidney/crescent shape) === -->
  <!-- Outer saddle line -->
  <path d="M210 388 C220 370 250 358 300 358 C350 358 400 362 450 375 
           C480 385 500 400 505 420 C508 440 500 462 480 478 
           C460 490 430 495 390 492 C340 488 280 488 240 490 
           C210 492 195 480 190 462 C185 445 190 420 210 388 Z"
        fill="none" stroke="#FFF" stroke-width="3" stroke-linecap="round"/>
  <!-- Inner saddle line (second border) -->
  <path d="M222 393 C230 378 258 368 305 368 C348 368 392 372 438 382 
           C465 390 482 402 486 418 C490 435 484 455 468 468 
           C452 478 425 482 388 480 C342 477 285 477 248 480 
           C224 482 212 472 208 458 C204 442 208 418 222 393 Z"
        fill="none" stroke="#FFCA28" stroke-width="2" stroke-linecap="round"/>
  
  <!-- === KURBITS DECORATION (3 layers) === -->
  <!-- Central flower (large) -->
  <circle cx="365" cy="432" r="35" fill="#FF8F00" stroke="#FFF" stroke-width="2.5"/>
  <circle cx="365" cy="432" r="24" fill="#FFCA28" stroke="#FFF" stroke-width="2"/>
  <circle cx="365" cy="432" r="14" fill="#FF8F00" stroke="#FFF" stroke-width="1.5"/>
  <circle cx="365" cy="432" r="6" fill="#FFF"/>
  
  <!-- Primary leaves (8 directions) -->
  <ellipse cx="365" cy="388" rx="10" ry="20" fill="#1B5E20" stroke="#FFF" stroke-width="1.5"/>
  <ellipse cx="365" cy="476" rx="10" ry="20" fill="#1B5E20" stroke="#FFF" stroke-width="1.5"/>
  <ellipse cx="321" cy="432" rx="20" ry="10" fill="#1B5E20" stroke="#FFF" stroke-width="1.5"/>
  <ellipse cx="409" cy="432" rx="20" ry="10" fill="#1B5E20" stroke="#FFF" stroke-width="1.5"/>
  <!-- Diagonal leaves -->
  <ellipse cx="339" cy="406" rx="8" ry="15" fill="#1B5E20" stroke="#FFF" stroke-width="1" transform="rotate(-45 339 406)"/>
  <ellipse cx="391" cy="406" rx="8" ry="15" fill="#1B5E20" stroke="#FFF" stroke-width="1" transform="rotate(45 391 406)"/>
  <ellipse cx="339" cy="458" rx="8" ry="15" fill="#1B5E20" stroke="#FFF" stroke-width="1" transform="rotate(45 339 458)"/>
  <ellipse cx="391" cy="458" rx="8" ry="15" fill="#1B5E20" stroke="#FFF" stroke-width="1" transform="rotate(-45 391 458)"/>
  
  <!-- Secondary flowers (pairs, left and right) -->
  <!-- Left pair -->
  <circle cx="268" cy="412" r="15" fill="#FFCA28" stroke="#FFF" stroke-width="2"/>
  <circle cx="268" cy="412" r="8" fill="#FF8F00" stroke="#FFF" stroke-width="1"/>
  <circle cx="268" cy="412" r="3" fill="#FFF"/>
  <circle cx="268" cy="458" r="15" fill="#1B5E20" stroke="#FFF" stroke-width="2"/>
  <circle cx="268" cy="458" r="8" fill="#FFCA28" stroke="#FFF" stroke-width="1"/>
  <circle cx="268" cy="458" r="3" fill="#FFF"/>
  <!-- Right pair -->
  <circle cx="462" cy="412" r="15" fill="#1B5E20" stroke="#FFF" stroke-width="2"/>
  <circle cx="462" cy="412" r="8" fill="#FFCA28" stroke="#FFF" stroke-width="1"/>
  <circle cx="462" cy="412" r="3" fill="#FFF"/>
  <circle cx="462" cy="458" r="15" fill="#FFCA28" stroke="#FFF" stroke-width="2"/>
  <circle cx="462" cy="458" r="8" fill="#FF8F00" stroke="#FFF" stroke-width="1"/>
  <circle cx="462" cy="458" r="3" fill="#FFF"/>
  
  <!-- S-curve scrollwork (connecting flowers) -->
  <path d="M268 432 C285 415 310 408 330 415" fill="none" stroke="#FFF" stroke-width="2.5" stroke-linecap="round"/>
  <path d="M400 448 C420 458 445 455 462 438" fill="none" stroke="#FFF" stroke-width="2.5" stroke-linecap="round"/>
  <!-- Secondary scrollwork -->
  <path d="M240 400 C250 392 260 395 268 402" fill="none" stroke="#FFF" stroke-width="2" stroke-linecap="round"/>
  <path d="M268 468 C260 478 250 480 240 475" fill="none" stroke="#FFF" stroke-width="2" stroke-linecap="round"/>
  <path d="M462 422 C472 415 480 408 488 410" fill="none" stroke="#FFF" stroke-width="2" stroke-linecap="round"/>
  <path d="M462 468 C472 478 480 480 488 475" fill="none" stroke="#FFF" stroke-width="2" stroke-linecap="round"/>
  
  <!-- Teardrop flourishes -->
  <path d="M232 395 Q238 388 242 395 Q240 402 232 395 Z" fill="#FFF"/>
  <path d="M232 478 Q238 472 242 478 Q240 485 232 478 Z" fill="#FFF"/>
  <path d="M492 395 Q498 388 502 395 Q500 402 492 395 Z" fill="#FFF"/>
  <path d="M492 478 Q498 472 502 478 Q500 485 492 478 Z" fill="#FFF"/>
  
  <!-- Dot accents (3-dot clusters) -->
  <circle cx="232" cy="420" r="3" fill="#FFF"/>
  <circle cx="225" cy="430" r="2.5" fill="#FFF"/>
  <circle cx="232" cy="440" r="3" fill="#FFF"/>
  <circle cx="495" cy="420" r="3" fill="#FFF"/>
  <circle cx="502" cy="430" r="2.5" fill="#FFF"/>
  <circle cx="495" cy="440" r="3" fill="#FFF"/>
  
  <!-- === HARNESS LINE (chest to back) === -->
  <path d="M168 340 C166 355 165 370 166 382" fill="none" stroke="#FFF" stroke-width="4" stroke-linecap="round"/>
  <line x1="175" y1="385" x2="530" y2="385" stroke="#FFF" stroke-width="3"/>
  <!-- Back line (along spine) -->
  <path d="M190 360 L520 368" fill="none" stroke="#FFCA28" stroke-width="2" stroke-linecap="round"/>
  
  <!-- === LEG DECORATIONS (bands + small flowers) === -->
  <!-- Front left leg -->
  <line x1="178" y1="565" x2="210" y2="565" stroke="#FFF" stroke-width="3"/>
  <line x1="178" y1="585" x2="210" y2="585" stroke="#FFCA28" stroke-width="2"/>
  <circle cx="194" cy="545" r="5" fill="#FFCA28" stroke="#FFF" stroke-width="1"/>
  <!-- Front right leg -->
  <line x1="230" y1="565" x2="262" y2="565" stroke="#FFF" stroke-width="3"/>
  <line x1="230" y1="585" x2="262" y2="585" stroke="#FFCA28" stroke-width="2"/>
  <circle cx="246" cy="545" r="5" fill="#FFCA28" stroke="#FFF" stroke-width="1"/>
  <!-- Back left leg -->
  <line x1="458" y1="575" x2="490" y2="575" stroke="#FFF" stroke-width="3"/>
  <line x1="458" y1="595" x2="490" y2="595" stroke="#FFCA28" stroke-width="2"/>
  <circle cx="474" cy="555" r="5" fill="#FFCA28" stroke="#FFF" stroke-width="1"/>
  <!-- Back right leg -->
  <line x1="508" y1="575" x2="540" y2="575" stroke="#FFF" stroke-width="3"/>
  <line x1="508" y1="595" x2="540" y2="595" stroke="#FFCA28" stroke-width="2"/>
  <circle cx="524" cy="555" r="5" fill="#FFCA28" stroke="#FFF" stroke-width="1"/>
  
  <!-- === TAIL DECORATION (painted on rump) === -->
  <path d="M525 392 C542 408 545 432 538 458 C530 480 520 495 512 502"
        fill="none" stroke="#1B5E20" stroke-width="9" stroke-linecap="round"/>
  <path d="M527 400 C540 415 542 438 536 460 C530 478 522 490 515 496"
        fill="none" stroke="#FFCA28" stroke-width="4" stroke-linecap="round"/>
  <!-- Tail tip dot -->
  <circle cx="512" cy="502" r="4" fill="#FFF"/>
</svg>