<svg xmlns="http://www.w3.org/2000/svg" height="512" preserveAspectRatio="none" style="display: block;" version="1.1" viewBox="0 0 2048 2048" width="512">
<path d="M 506.313 298.858 L 1005.73 298.816 C 1025.56 298.812 1045.78 299.07 1065.51 298.833 C 1224.97 296.919 1269.89 437.191 1333.96 553.532 L 1563.75 976.628 C 1602.61 1048.3 1642.31 1119.82 1680.46 1191.8 C 1700.94 1230.93 1723.28 1266.22 1736.04 1308.98 C 1793.32 1501.02 1659.98 1707.21 1464.6 1741.62 C 1358.05 1760.39 1327.35 1601.42 1427.63 1577.55 C 1532.88 1561.93 1612.33 1455.87 1579.26 1350.79 C 1572.44 1329.13 1552.81 1299.37 1540.91 1278.41 C 1487.84 1186.52 1437.45 1092.1 1386.12 999.151 L 1326.53 890.721 C 1311.84 864.233 1294.72 834.844 1281.91 807.698 C 1281.67 821.584 1281.81 835.1 1281.87 848.978 L 1281.94 1237.29 C 1281.94 1266.93 1283.62 1297.02 1276.91 1326.08 C 1250.65 1439.91 1158.73 1491.99 1049.61 1492.25 L 565.522 1492.29 C 532.79 1492.28 493.952 1493.6 461.732 1486.57 C 356.917 1463.7 301.134 1377.56 301.005 1275.34 L 301.005 571.657 C 301.01 547.902 301.004 524.418 301.583 500.658 C 304.24 391.669 395.556 298.255 506.313 298.858 z M 1072.22 1322.48 C 1096.89 1313.87 1108.03 1298.62 1108.03 1272.25 L 1108.03 598.052 C 1108.06 556.779 1126.54 468.286 1067.81 466.948 C 1024.39 465.959 980.677 467.009 937.234 467.003 L 555.684 466.937 C 548 466.911 511.37 466.159 506.313 466.979 C 481.119 474.03 470.025 483.586 469.994 510.691 L 469.964 1254.02 C 469.947 1291.01 471.797 1320.32 514.839 1322.71 L 1000.7 1322.49 C 1019.37 1322.5 1054.98 1323.71 1072.22 1322.48 z" fill="rgb(0,0,0)" transform="translate(0,0)"></path>
<metadata><recraft-signature>{"signed_by": "recraft", "signature_b64": "EflWezV023VCDhifFN4yKSpltQ7s6eZEVkw1D058k108OgAyKjGXkDxLZJbWfyi2GjrKPukIW2dbUcuHMBvpBw==", "signing_algo": "Ed25519", "generation_timestamp": 1772989195, "identifier": "8f22d3f7-e1f2-470a-a5c9-19435b2c7762"}</recraft-signature></metadata></svg>