<svg xmlns="http://www.w3.org/2000/svg" height="512" preserveAspectRatio="none" style="display: block;" version="1.1" viewBox="0 0 2048 2048" width="512">
<path d="M 1149.38 807.541 L 1149.37 593.976 C 1149.34 495.942 1135.53 399.765 1227.5 334.89 C 1273.27 302.599 1303.22 300.328 1356.12 300.936 L 1571.52 300.38 C 1651.95 299.743 1727.71 365.471 1745.7 442.169 C 1752.01 469.079 1750.99 498.115 1750.98 525.972 L 1750.96 859.834 C 1748.58 980.118 1606.34 957.512 1607.02 868.054 L 1607.1 520.417 C 1607.25 435.446 1590.35 445.838 1508.96 446.015 L 1377.64 446.038 C 1304.81 445.904 1296.43 448.128 1296.69 518.045 L 1296.77 807.541 C 1331.08 807.378 1374.2 804.298 1401.06 830.195 C 1452.51 879.774 1416.96 953.892 1340.17 954.503 L 1004.38 954.626 C 912.221 955.193 897.327 929.969 897.294 840.927 L 897.328 536.722 C 912.569 442.594 828.784 442.984 762.661 442.95 L 551.69 442.955 C 449.032 443.022 436.726 463.087 436.726 564.469 L 436.754 1473.95 C 436.744 1580.23 443.212 1599.72 558.733 1599.87 L 821.047 1599.79 C 903.299 1599.56 897.355 1528.22 897.361 1471.16 L 897.161 1206.49 C 896.495 1066.45 1037.08 1101.15 1037.01 1180.43 C 1036.92 1289.4 1037.16 1398.46 1037.21 1507.44 C 1037.46 1635.04 969.797 1742.45 829.244 1743.53 L 557.13 1743.54 C 524.483 1743.54 493.648 1744.84 461.734 1736.37 C 363.812 1710.37 299.134 1626.14 298.905 1525.01 L 298.908 588.59 C 298.918 500.293 291.464 430.28 361.874 362.188 C 411.742 313.962 462.364 301.152 529.486 301.035 L 719.618 301.035 C 765.971 301.034 830.005 297.136 873.795 307.622 C 949.279 325.699 1009 385.485 1028.93 460.359 C 1040.57 504.087 1037 575.422 1037 622.119 L 1036.99 807.541 C 1069.26 809.079 1115.85 807.563 1149.38 807.541 z" fill="rgb(24,24,25)" transform="translate(0,0)"></path>
<path d="M 1607.02 868.054 C 1608.56 864.657 1610.84 856.599 1612.23 852.547 C 1631.59 797.346 1705.85 792.52 1739.75 838.165 C 1743.8 843.614 1747.39 853.426 1750.96 859.834 C 1748.58 980.118 1606.34 957.512 1607.02 868.054 z" fill="rgb(254,13,34)" transform="translate(0,0)"></path>
<path d="M 1462.67 1113.59 L 1538.75 1113.56 C 1557.46 1113.56 1577.31 1112.95 1595.86 1115 C 1696.57 1126.4 1750.48 1206.29 1750.97 1301.48 L 1750.98 1456.03 C 1751.01 1496.69 1752.16 1538.67 1749.26 1579.05 C 1743.15 1664.37 1666.63 1737.11 1582.41 1744.5 C 1563.71 1746.14 1544.32 1745.64 1525.57 1745.65 L 1440.5 1745.6 L 1371.09 1745.64 C 1354.26 1745.66 1336.71 1746.32 1319.73 1744.57 C 1205.84 1732.83 1150.05 1641.66 1149.39 1536.01 L 1149.35 1378.92 C 1149.34 1338.21 1146.55 1288.91 1155.26 1249.71 C 1170.28 1182.08 1231.77 1125.48 1300.2 1115.69 C 1321.72 1112.61 1348.87 1113.55 1370.97 1113.55 L 1462.67 1113.59 z M 1564.26 1596.51 C 1614.45 1594.69 1609.8 1560.61 1609.8 1523.66 L 1609.76 1358.48 C 1609.73 1329.7 1618.8 1261.6 1576.86 1257.45 C 1566.45 1256.42 1555.54 1256.82 1545.1 1256.87 L 1390.07 1256.93 C 1373.93 1256.91 1354.64 1256.33 1338.79 1256.96 C 1317.27 1257.02 1295.43 1268.38 1295.37 1293.19 L 1296.79 1486.2 C 1296.8 1512.74 1289.59 1568.45 1306.11 1585.04 C 1324.25 1603.24 1378.13 1596.54 1402.43 1596.5 L 1564.26 1596.51 z" fill="rgb(24,24,25)" transform="translate(0,0)"></path>
<metadata><recraft-signature>{"signed_by": "recraft", "signature_b64": "WiQ2PqWKKzMEVt4sYWcqd4ewtAscAhcGmeUq+31tiZtyf4lzM4hkqdbQLP8ZMP4GVHgweMBhYkwRpAvtgqw2Dg==", "signing_algo": "Ed25519", "generation_timestamp": 1773000083, "identifier": "48fade4d-fd81-4c78-94e6-b25df412b1cd"}</recraft-signature></metadata></svg>