<svg xmlns="http://www.w3.org/2000/svg" height="512" preserveAspectRatio="none" style="display: block;" version="1.1" viewBox="0 0 2048 2048" width="512">
<path d="M 1309.87 260.488 C 1485.52 259.258 1626.28 416.058 1587.27 590.209 C 1582.31 612.354 1576.04 629.65 1568.06 650.881 C 1684.41 647.868 1798.88 651.095 1830.56 795.771 C 1836.39 822.44 1835.13 843.758 1835.08 870.846 L 1835.46 1177.04 C 1836.15 1279.58 1779.44 1373.58 1669.66 1385.01 C 1651.36 1386.92 1631.23 1386.29 1612.71 1386.3 L 1532.19 1386.25 C 1533.02 1398.54 1532.32 1414.39 1532.27 1427.07 L 1532.24 1574.12 C 1532.24 1645.81 1524.2 1697 1463.17 1745.57 C 1408.99 1788.68 1362.74 1784.87 1298.47 1784.8 L 1094.54 1784.86 C 1044.09 1785 989.141 1779.4 997.636 1712.59 C 1001.81 1674.26 1032.27 1670.13 1056.53 1651.61 C 1147.71 1582.01 1167.29 1446.97 1097.62 1355.6 C 978.42 1199.27 745.564 1267.71 718.999 1467.41 C 717.928 1540.04 743.867 1611.47 806.166 1653.99 C 826.285 1666.94 844.311 1670.07 856.299 1692.84 C 878.423 1734.87 851.443 1784.21 803.034 1784.57 L 465.116 1784.77 C 370.81 1784.74 287.426 1785.4 235.641 1685.42 C 212.348 1640.45 215.864 1601.31 215.833 1553.06 L 215.821 1310.27 C 215.753 1205.67 223.323 1146.65 327.742 1093.08 C 314.019 1072.01 300.62 1054.85 290.074 1030.97 C 192.728 810.618 412.848 578.855 637.953 659.996 C 704.615 684.024 763.871 736.578 792.741 801.838 C 793.345 767.488 817.353 723.543 841.563 699.989 C 890.965 651.927 932.444 646.872 995.643 646.909 L 1063.63 646.97 C 989.385 464.583 1109.42 268.009 1309.87 260.488 z M 810.087 991.659 C 780.851 1075.04 751.323 1129.28 665.025 1170.68 C 612.302 1195.96 576.309 1194.11 520.952 1194.08 L 401.933 1193.75 C 375.418 1193.42 344.915 1212.67 335.604 1237.96 C 326.935 1261.51 330.94 1300.23 330.948 1326.91 L 331.008 1548.9 C 330.874 1594.35 324.115 1649.33 379.262 1667.31 C 396.748 1673.01 473.187 1670.31 495.149 1670.31 L 662.599 1670.28 C 561.353 1518.58 591.7 1316.38 745.528 1212.02 C 753.63 1206.52 763.643 1201.22 770.353 1193.99 L 772.015 1193.53 C 785.041 1189.8 797.745 1182.38 810.376 1177.51 C 1107.48 1063.09 1373.92 1392.21 1196.43 1670.28 C 1246.73 1670.95 1297.56 1670.13 1347.88 1670.05 C 1395.45 1669.97 1416.3 1631.82 1416.73 1588.47 L 1416.73 1403.15 C 1416.65 1293.26 1410.26 1269.77 1522.24 1270.07 L 1610.34 1270.32 C 1680.59 1270.46 1717.19 1256.57 1717.44 1182.26 L 1717.53 851.254 C 1717.47 798.063 1710.01 760.837 1646.32 760.895 C 1586.49 760.95 1527.81 761.239 1467.87 760.567 C 1431.06 761.992 1400.58 737.249 1400.87 698.906 C 1401.11 665.286 1436.37 646.079 1453.34 619.245 C 1525.61 504.981 1431.06 360.977 1303.13 374.581 C 1180.03 385.957 1116.26 518.546 1181.03 622.379 C 1200.23 653.642 1242.41 668.726 1233.95 712.575 C 1224.65 760.75 1186.09 761.094 1144.92 761.075 L 1014.27 760.926 C 921.386 760.838 902.953 771.276 903.28 860.18 L 903.591 919.58 C 904.05 990.542 877.88 1027.01 810.087 991.659 z M 561.487 1080.88 C 649.438 1071.43 713.092 992.499 703.7 904.542 C 694.308 816.585 615.422 752.874 527.459 762.204 C 439.406 771.543 375.618 850.525 385.019 938.571 C 394.421 1026.62 473.448 1090.35 561.487 1080.88 z" fill="rgb(0,0,0)" transform="translate(0,0)"></path>
<metadata><recraft-signature>{"signed_by": "recraft", "signature_b64": "B2GBeJIoSxpbpfQlEzpqe/9h1nQwGysE3cz6BPZVGMDtgq4GCZaa09oM7ijAxbOoBHaRqs+UpXYNJjSjigqZDg==", "signing_algo": "Ed25519", "generation_timestamp": 1772989411, "identifier": "8610448a-31ae-4452-ab14-7018ec5fae07"}</recraft-signature></metadata></svg>