<svg xmlns="http://www.w3.org/2000/svg" height="512" preserveAspectRatio="none" style="display: block;" version="1.1" viewBox="0 0 2048 2048" width="512">
<path d="M 1064.05 1064.88 C 1134.6 1063.94 1207.61 1064.87 1278.37 1064.87 L 1706 1064.88 C 1706 1111 1707.18 1573.65 1706 1576.28 L 1064.05 1576.28 L 1064.05 1216.26 C 1064.05 1167.37 1062.68 1113.1 1064.05 1064.88 z M 1151.49 1151.81 L 1151.49 1493.01 L 1500.5 1493.01 L 1622.11 1493.01 L 1622.11 1151.81 L 1271.99 1151.81 L 1151.49 1151.81 z" fill="rgb(0,0,0)" transform="translate(0,0)"></path>
<path d="M 511.988 469 L 1367.88 469 L 1367.88 854.996 L 589.5 854.996 L 511.988 854.996 C 511.653 825.593 511.98 795.554 511.988 766.1 L 1278 766.1 L 1278 553.49 L 511.988 553.49 L 511.988 469 z" fill="rgb(0,0,0)" transform="translate(0,0)"></path>
<path d="M 377.582 363.103 C 427.432 359.771 425.938 413.864 425.987 447.728 L 425.935 1626.63 C 425.801 1654.02 416.199 1671.6 387.933 1678.09 C 323.644 1683.39 338.591 1593.69 338.587 1551 L 338.64 416.584 C 338.76 385.929 347.108 370.818 377.582 363.103 z" fill="rgb(0,0,0)" transform="translate(0,0)"></path>
<metadata><recraft-signature>{"signed_by": "recraft", "signature_b64": "7zUT15oeN7UBWIxgdtwT9hKYvtQKqjt8FHSWUKi1cGnSaauiFu1IF/oMgWc/Smr1WbnOC17wtYIwBhb4cuS+DA==", "signing_algo": "Ed25519", "generation_timestamp": 1773000783, "identifier": "e155a488-6d11-41c1-9258-1cc064f81753"}</recraft-signature></metadata></svg>