<svg xmlns="http://www.w3.org/2000/svg" height="512" preserveAspectRatio="none" style="display: block;" version="1.1" viewBox="0 0 2048 2048" width="512">
<path d="M 709.344 237.803 C 711.362 237.568 713.473 237.36 715.504 237.347 L 1586.55 237.779 C 1668.27 237.85 1683.15 259.763 1683.16 339.733 L 1683.33 1392.4 C 1684.05 1466.93 1651.17 1484.85 1582 1484.22 L 1305.26 1484.15 L 1305.18 1669.8 C 1305.21 1741.69 1309.58 1811.83 1214.51 1811.96 L 860.093 1812.05 C 843.85 1812.05 824.058 1812.77 808.157 1810.42 C 734.264 1799.49 746.036 1716.07 746.072 1664.07 L 746.037 1484.15 L 465.08 1484.21 C 365.11 1484.29 364.919 1454.9 364.948 1365.78 L 364.96 1124.03 C 364.913 1102.52 363.139 1072.07 365.968 1051.63 C 385.376 911.426 491.738 798.037 639.087 816.964 L 639.087 958.016 C 588.549 956.738 552.543 967.178 524.435 1012.56 C 507.616 1041.79 508.926 1060.87 508.991 1093.14 L 509.041 1342.41 C 517.769 1342.75 527.677 1342.47 536.484 1342.46 L 795.212 1342.38 C 905.925 1342.47 888.992 1395.2 889.006 1480.01 L 888.999 1664 L 1159.02 1664 L 1159.01 1482.8 C 1158.96 1357.57 1146.86 1342.22 1291.31 1342.43 L 1442.99 1342.42 C 1555.05 1342.46 1537.99 1362.92 1538 1257.08 L 1538 380.293 L 984.434 380.293 C 1131.31 612.241 866.547 924.83 598.683 783.701 C 337.139 643.269 427.054 257.051 709.344 237.803 z M 739.516 671.409 C 819.913 668.134 882.404 600.256 879.038 519.863 C 875.671 439.47 807.723 377.056 727.333 380.514 C 647.073 383.966 584.78 451.782 588.142 532.046 C 591.503 612.31 659.248 674.68 739.516 671.409 z" fill="rgb(0,0,0)" transform="translate(0,0)"></path>
<metadata><recraft-signature>{"signed_by": "recraft", "signature_b64": "vLSJ+8SLid6k424VJ+IoAlXwytcipair7422/A76L54IcBgwS7CfvUUNajCFOfzxqV2ULV/CXVor76DMWd6zDQ==", "signing_algo": "Ed25519", "generation_timestamp": 1772990248, "identifier": "e81563d6-8b83-47f9-959e-a7fb9ddf5e00"}</recraft-signature></metadata></svg>