<svg xmlns="http://www.w3.org/2000/svg" height="512" preserveAspectRatio="none" style="display: block;" version="1.1" viewBox="0 0 2048 2048" width="512">
<path d="M 1639.84 278.999 C 1671.91 272.997 1701.09 304.236 1701.37 335.686 L 1701.05 1650.11 C 1701.07 1767.25 1690.08 1767.55 1588.79 1767.39 L 1071.75 1767.35 C 1043.82 1766.75 1014.25 1750.62 1014.3 1718.98 L 1014.4 1186.98 C 1014.32 1077.01 1016.1 1074.44 1117.38 1074.48 L 1586.37 1074.52 L 1586.35 414.678 C 1586.35 364.129 1571.19 285.774 1639.84 278.999 z M 1126.49 1653 L 1586.37 1653 C 1587.58 1650.89 1586.41 1624.66 1586.4 1620.44 L 1586.37 1188 L 1173.78 1187.99 C 1160.61 1187.98 1139.26 1188.67 1126.49 1188 C 1125.19 1225.13 1126.49 1271.69 1126.49 1309.45 L 1126.51 1535.25 C 1126.52 1573.93 1127.16 1614.5 1126.49 1653 z" fill="rgb(0,0,0)" transform="translate(0,0)"></path>
<path d="M 396.764 278.999 C 410.107 277.913 443.923 278.968 458.556 278.993 L 865 278.999 C 888.66 278.994 978.566 276.415 994.411 281.276 C 1048.29 297.802 1031.52 374.719 1031.51 421.634 L 1031.61 908.093 C 1031.69 941.502 1013.04 956.559 985.228 969.977 C 953.205 971.371 909.039 969.986 876.361 969.982 L 487.988 969.948 C 458.229 969.953 401.061 975.732 375.726 961.239 C 341.694 941.771 348.982 899.485 348.972 866.354 L 348.984 379.878 C 349 334.464 339.667 290.7 396.764 278.999 z M 461.995 856.512 L 915.501 856.512 L 917.402 855.65 C 918.92 848.852 918.323 820.331 918.293 811.82 L 918.266 391.211 L 461.995 391.211 C 461.187 407.893 461.961 427.087 461.98 444.138 L 461.995 856.512 z" fill="rgb(0,0,0)" transform="translate(0,0)"></path>
<path d="M 400.353 1074.52 C 421.959 1065.95 456.845 1090.55 459.798 1110.7 C 463.822 1138.14 462.011 1176.49 462.019 1204.42 L 462.014 1677.31 C 461.996 1721.53 463.149 1755.65 411.943 1767.35 C 337.371 1767.07 348.97 1703.37 348.98 1651.82 L 349.002 1248.85 C 348.999 1209.17 349.136 1169.42 348.703 1129.75 C 348.361 1098.3 367.537 1073.38 400.353 1074.52 z" fill="rgb(0,0,0)" transform="translate(0,0)"></path>
<metadata><recraft-signature>{"signed_by": "recraft", "signature_b64": "gOtgSjuiOWQwxQbngrd1/aliqoYOdIqGvg/4YAnA/GsdBlnkASYAJbgUa2V44QXmBHf8n/TDCv5l0sD48sr8Bg==", "signing_algo": "Ed25519", "generation_timestamp": 1772998225, "identifier": "4ae05500-9713-4aaa-b6f7-837e527c8d19"}</recraft-signature></metadata></svg>