<svg xmlns="http://www.w3.org/2000/svg" height="512" preserveAspectRatio="none" style="display: block;" version="1.1" viewBox="0 0 2048 2048" width="512">
<path d="M 979.181 290.532 C 1107.11 290.469 1236.03 291.514 1362.97 309.196 C 1494.37 327.501 1584.9 366.215 1659.88 486.717 C 1736.5 609.847 1746.87 940.607 1745.14 1080.32 C 1744.43 1137.12 1749.51 1201.12 1735.13 1256.01 C 1706.39 1365.75 1633.26 1438.38 1539.51 1494 C 1539.7 1531.54 1538.83 1635.13 1530.62 1670.11 C 1519.61 1710.17 1486.1 1736.67 1445.69 1740.54 C 1387.49 1746.13 1366.19 1718.78 1325.53 1685.9 C 1289.21 1656.54 1254.29 1625.27 1218.24 1595.67 C 1130.89 1518.98 1150.54 1533.95 1034.01 1534.06 L 700.485 1534.14 C 678.897 1534.14 652.141 1534.88 631.039 1532.37 C 471.232 1513.35 328.723 1379.45 307.462 1218.36 C 303.522 1188.5 303.202 1146.74 302.913 1116.03 C 301.44 959.567 304.79 678.924 366.083 531.33 C 403.848 440.39 477.794 367.073 570.981 334.045 C 671.901 298.276 872.792 291.265 979.181 290.532 z M 1143.5 1323 C 1215.71 1322.64 1218.8 1324.69 1275.38 1371.39 L 1316.89 1405.01 C 1324.37 1411.16 1334.05 1420.19 1341.35 1425.54 C 1338.32 1331.45 1398.02 1328.76 1458.62 1296.52 C 1492.66 1278.41 1527.49 1235.24 1531.62 1195.16 C 1547.22 1022.35 1535.63 828.85 1497.05 660.576 C 1489.05 625.661 1483.65 592.484 1455.67 567.194 C 1378.69 497.612 1345.4 572.173 1289.33 566.106 C 1267.45 563.738 1241.34 549.819 1218.4 542.66 C 1150.16 521.362 1070.64 505.59 998.596 510.967 C 929.844 520.414 879.8 524.029 811.629 550.646 C 734.342 578.802 757.853 566.557 684.062 535.814 C 633.165 514.61 569.986 559.505 558.854 609.125 C 521.049 777.629 510.204 948.435 512.99 1120.67 C 513.347 1142.62 511.682 1165.25 514.738 1187.06 C 526.081 1259.41 591.483 1316.65 663.923 1322.25 C 682.181 1323.66 700.98 1323.06 719.208 1323.04 L 1143.5 1323 z" fill="rgb(0,0,0)" transform="translate(0,0)"></path>
<metadata><recraft-signature>{"signed_by": "recraft", "signature_b64": "1QP+YTSMZhPCz9zmJzEyfLUv2Vmx9GH0c8hOfnkKFS5WX2o35OHLOH03B8ZgRWmDU1PjPigXps3v63uXUDWSDw==", "signing_algo": "Ed25519", "generation_timestamp": 1772999706, "identifier": "96935d1b-a946-4c9c-8577-9d779f79d023"}</recraft-signature></metadata></svg>