<svg xmlns="http://www.w3.org/2000/svg" height="512" preserveAspectRatio="none" style="display: block;" version="1.1" viewBox="0 0 2048 2048" width="512">
<path d="M 1442.73 298.353 C 1444.89 297.593 1454.06 296.394 1456.16 296.626 C 1530.7 304.81 1518.11 377.639 1517.99 433.393 C 1564.09 448.402 1595.29 460.648 1633.02 493.401 C 1826.61 661.462 1718.71 964.697 1465.25 982 C 1169.05 983.757 1061.42 603.175 1318.29 459.734 C 1339.06 448.14 1365.17 440.543 1388.04 433.393 C 1387.89 382.274 1374.41 307.609 1442.73 298.353 z M 1565.29 803.049 C 1630.48 729.159 1607.1 614.227 1517.99 574.006 C 1526.03 709.873 1386.28 681.099 1387.16 598.381 C 1387.25 590.763 1388.25 580.888 1388.04 574.006 C 1317.39 605.086 1283.87 691.267 1315.19 762.121 C 1360.12 863.742 1487.86 881.322 1565.29 803.049 z" fill="rgb(0,0,0)" transform="translate(0,0)"></path>
<path d="M 470.783 1067 C 566.324 1049.42 641.006 1178.74 570.628 1261.27 C 561.192 1272.33 552.142 1279.94 541.135 1288.91 C 554.407 1298.64 572.304 1308.49 586.78 1316.92 L 648.145 1352.81 C 661.355 1360.52 679.108 1369.28 690.264 1379.78 C 737.277 1424.01 692.758 1502.18 631.045 1486.47 C 605.474 1479.96 573.755 1458.74 549.56 1445.2 C 548.89 1455.01 549.304 1464.58 549.56 1474.39 C 577.816 1518.35 634.774 1611.72 655.144 1660.87 C 682.074 1725.85 593.29 1779.74 542.077 1724.28 C 535.863 1717.55 527.476 1699.95 522.933 1691.59 L 500.646 1650.99 C 495.783 1642.12 491.203 1632.83 484.25 1625.38 C 483.121 1622.26 483.185 1621.9 481.037 1619.27 L 479.227 1619.48 C 443.098 1665.65 427.971 1767.03 345.026 1744.32 C 311.684 1735.19 291.752 1694.63 304.503 1662.37 C 311.198 1645.96 322.474 1628.08 331.361 1612.35 L 382.964 1522.04 C 389.735 1510.44 403.97 1483.2 411.007 1474.39 L 411.007 1445.2 C 373.814 1463.58 337.294 1499.54 293.328 1486.33 C 252.218 1473.97 238.355 1426.65 258.641 1391.05 C 273.093 1365.68 393.703 1304.07 422.051 1288.91 C 318.66 1214.4 360.356 1075.07 470.783 1067 z" fill="rgb(0,0,0)" transform="translate(0,0)"></path>
<path d="M 1559.63 1067 C 1666.71 1047.99 1746.19 1226.74 1621.24 1288.91 C 1632.11 1295.68 1644.58 1301.69 1655.9 1308 L 1764.76 1369.54 C 1831.93 1406.08 1788.56 1512.96 1714.53 1484.63 C 1690.54 1475.45 1666.42 1456.01 1642.24 1445.91 L 1640.52 1445.2 C 1641.47 1464.8 1636.65 1469.25 1646.9 1488.49 C 1675.91 1542.93 1706.82 1596.23 1736.84 1650.11 C 1764 1698.88 1725.6 1759.15 1667.58 1745.84 C 1620.3 1736.88 1596.37 1659.91 1569.62 1620.57 L 1568.73 1619.27 L 1567.51 1618.31 C 1561.1 1622.91 1521.28 1709.78 1503.5 1728.29 C 1458.81 1774.77 1376.47 1734.15 1389.56 1670.58 C 1394.61 1646.03 1464.26 1538.7 1480.04 1513.45 C 1502.87 1476.91 1503.44 1485.06 1502.53 1440.62 C 1481.72 1449.74 1456.86 1464.53 1436.26 1475.89 C 1363.71 1515.9 1306.44 1422.68 1357.48 1376.84 C 1382.23 1354.61 1482.07 1305.22 1513.46 1288.91 C 1407 1224.53 1444.15 1072.86 1559.63 1067 z" fill="rgb(0,0,0)" transform="translate(0,0)"></path>
<path d="M 1009.73 1067 C 1082.05 1056.2 1148.2 1125.03 1138.47 1199.27 C 1132.79 1242.61 1110.7 1263.45 1078.14 1288.91 C 1113.06 1305.39 1149.76 1330.99 1183.85 1349.85 C 1210.79 1364.75 1241.03 1376.86 1249.63 1408.95 C 1258.46 1441.92 1237.41 1475.47 1204.7 1483.96 C 1164.95 1494.57 1126.76 1464.61 1094.13 1445.2 C 1093.59 1475.51 1091.03 1468.58 1105.71 1494.25 L 1190.49 1640.1 C 1226.82 1701.83 1186.77 1762.64 1121.81 1745.78 C 1085.62 1736.38 1049.76 1659.62 1029.95 1625.38 C 1027.92 1621.61 1024.89 1617.26 1022.5 1613.6 C 992.661 1657.3 963.015 1743.39 909.299 1747.73 C 860.171 1751.71 826.766 1702.42 846.939 1658.54 C 868.503 1611.64 909.384 1554.59 935.78 1508.52 C 955.096 1476.04 953.609 1484.26 953.026 1446.68 C 920.414 1463.6 885.723 1493.88 847.774 1485.25 C 793.756 1473.43 779.633 1397.14 829.346 1369.36 C 876.389 1343.07 924.084 1316.55 970.482 1288.91 C 963.699 1283.28 955.945 1278.52 948.966 1272.71 C 871.512 1208.24 905.383 1087.04 1009.73 1067 z" fill="rgb(0,0,0)" transform="translate(0,0)"></path>
<path d="M 854.816 298.353 C 907.082 291.414 948.293 347.732 919.174 394.278 C 912.978 404.182 900.115 415.446 891.619 423.94 L 734.611 581.416 C 723.157 592.763 711.482 603.957 700.668 615.913 C 702.071 615.822 703.594 615.707 704.998 615.711 L 977.714 615.906 C 994.288 615.924 1016.33 614.745 1032.21 618.308 C 1102.31 634.039 1102.19 728.825 1030.4 742.458 C 1013.98 745.576 993.349 744.059 976.554 744.048 L 579.684 744.001 C 561.788 760.125 542.846 779.29 525.376 796.169 L 365.341 954.978 C 297.727 1019.7 218.212 936.822 258.577 877.31 C 272.279 857.106 312.495 822.877 330.806 804.86 L 727.13 409.441 C 754.683 382.2 819.419 304.048 854.816 298.353 z" fill="rgb(0,0,0)" transform="translate(0,0)"></path>
<metadata><recraft-signature>{"signed_by": "recraft", "signature_b64": "KB9kcsOpCwBXBV/FRZb3gLtjKEdfyTpYWyHiRyD1AiW6KS7i/mDkq6MWeGxHyBg6iIIIqZUyQRGHa+U0ZbOICA==", "signing_algo": "Ed25519", "generation_timestamp": 1772995576, "identifier": "0744a5d8-6d97-4bab-826e-a8bfa9df7f47"}</recraft-signature></metadata></svg>