<svg xmlns="http://www.w3.org/2000/svg" height="512" preserveAspectRatio="none" style="display: block;" version="1.1" viewBox="0 0 2048 2048" width="512">
<path d="M 502.485 298.304 L 1262.98 298.267 C 1294.86 298.26 1336.36 296.465 1366.74 301.704 C 1443.84 314.999 1510.29 373.442 1529.19 450.017 C 1538.41 487.327 1535.87 539.759 1535.88 579.154 L 1535.84 730.999 C 1635.41 717.199 1742.7 816.982 1747.05 915.263 C 1749.47 969.669 1748.01 1025.16 1748.01 1079.04 L 1748.04 1621.28 C 1748.03 1634.1 1748.63 1648.08 1747 1661.33 C 1740.14 1717.22 1670.09 1749.33 1623.01 1719.26 C 1609.84 1710.85 1592.26 1693.49 1579.99 1682.58 L 1495.99 1606.68 C 1470.08 1584.52 1443.95 1560.09 1418.83 1537 C 1380 1536.14 1337.43 1536.97 1298.3 1536.97 L 976.717 1537.05 C 901.633 1537.1 851.531 1534 792.852 1477.59 C 715.226 1402.98 725.942 1328.81 726.029 1231.05 L 634.065 1231.05 C 619.366 1240.52 599.099 1257.75 584.684 1268.84 L 466.309 1360.46 C 452.95 1370.65 434.758 1387.59 420.425 1395.16 C 369.328 1422.16 304.718 1385.43 302.155 1327.44 C 301.318 1308.53 301.999 1288.65 302.025 1269.56 L 301.987 529.156 C 302.024 404.875 368.028 305.219 502.485 298.304 z M 467.071 1144.11 C 557.5 1090.25 523.699 1065.86 652.56 1065.94 L 726.029 1066.01 C 727.698 959.931 706.594 868.109 792.348 786.345 C 828.474 751.721 866.061 736.665 914.897 730.999 L 1368.02 730.999 L 1367.98 567.127 C 1367.99 545.736 1370.83 512.525 1367.11 492.991 C 1360.76 459.668 1327.62 464.864 1304 464.907 L 511.902 464.972 C 511.755 464.982 511.609 464.991 511.462 465.001 C 477.703 472.116 466.916 496.295 467.004 528.023 L 467.071 1144.11 z M 1561.58 1440.18 L 1583.02 1459.35 L 1583.09 978.867 C 1583.12 950.942 1591.8 897.493 1550.04 895.952 C 1520.32 894.855 1490.05 895.33 1460.32 895.334 L 976.14 895.284 C 966.759 895.262 946.023 894.136 937.629 895.37 C 882.717 906.071 897.112 965.576 897.075 1009.25 L 896.947 1273.96 C 896.922 1357.81 888.134 1369.23 983.739 1369.08 L 1405.72 1368.95 C 1497.97 1368.78 1491.52 1376.74 1561.58 1440.18 z" fill="rgb(0,0,0)" transform="translate(0,0)"></path>
<metadata><recraft-signature>{"signed_by": "recraft", "signature_b64": "5A48cJoa/YXTsqPfHyxZWN/1CArGMSYRoNMrfpkn7lJZSzwlkmjxVeAUlvirlo934uoGwf38PXC0TuA7gpOgAg==", "signing_algo": "Ed25519", "generation_timestamp": 1772998316, "identifier": "efb6423e-b3fa-4396-ba60-d9e6131bf080"}</recraft-signature></metadata></svg>