<svg xmlns="http://www.w3.org/2000/svg" height="512" preserveAspectRatio="none" style="display: block;" version="1.1" viewBox="0 0 2048 2048" width="512">
<path d="M 625.035 392.959 L 632.289 392.87 L 1246.09 392.955 C 1305.94 392.926 1360.9 388.992 1419.5 404.126 C 1592.15 448.718 1705.35 597.648 1706 774.738 L 1706.05 891.968 C 1706.04 916.621 1709.26 971.145 1698.76 991.081 C 1656.76 1070.86 1540.65 1041.12 1544.97 949.808 C 1545.45 939.702 1544.98 924.326 1544.99 913.612 L 1545.05 806.86 C 1545.06 778.795 1546.7 749.199 1541.34 721.671 C 1521.77 621.26 1435.52 551.253 1334.23 550.995 L 706.011 550.972 C 676.992 550.942 635.531 549.356 608.432 554.524 C 513.774 572.576 435.71 655.59 426.744 752.111 C 424.264 778.809 425.459 819.037 425.491 847.126 L 425.464 1051.12 C 425.428 1085.88 424.012 1137.04 427.595 1169.98 C 436.941 1255.94 505.397 1334.37 588.375 1358.22 C 624.592 1368.63 656.572 1366 694.151 1365.99 L 1051.08 1365.88 C 1078.55 1365.76 1098.69 1364.16 1121.94 1382.14 C 1156.58 1408.94 1159.86 1461.38 1133.13 1494.92 C 1103.57 1532.03 1058.21 1525.95 1016.22 1525.82 L 661.956 1525.87 C 645.426 1525.87 629.081 1526.19 612.58 1525.04 C 431.346 1512.46 286.611 1360.64 268.047 1182.07 C 265.435 1156.95 266.468 1129.51 266.518 1104.22 L 266.539 841.522 C 266.522 787.301 264.085 739.064 275.567 685.512 C 312.445 513.518 456.885 409.896 625.035 392.959 z" fill="rgb(0,0,0)" transform="translate(0,0)"></path>
<path d="M 1530.33 1154.34 C 1551.56 1151.24 1575.62 1161.73 1590.62 1176.65 C 1617.95 1203.85 1615.13 1230.97 1615.08 1266.7 L 1615 1326 L 1690.55 1325.91 C 1827.45 1326.03 1799.08 1484.36 1712.16 1485.84 C 1680.44 1486.39 1646.7 1486.88 1615 1486 C 1615.15 1549.02 1629.2 1651.73 1533.75 1649.19 C 1469.43 1647.89 1456.25 1589.83 1456.43 1537.74 L 1456.51 1486 C 1429.89 1485.61 1362.71 1489.58 1339.83 1483.7 C 1281.18 1468.61 1260.66 1390.76 1303 1348.07 C 1328.93 1321.93 1360.9 1325.91 1394.52 1325.93 L 1456.51 1326 C 1458.59 1260 1438.76 1164.75 1530.33 1154.34 z" fill="rgb(0,0,0)" transform="translate(0,0)"></path>
<metadata><recraft-signature>{"signed_by": "recraft", "signature_b64": "hxxkCeJvVhH7zvM+xJTsE1iXsFU8DB3CQp9MeBe+VUoYmxt3ZoJ+GZdYk4iW1n+keDd7QaFVGuiP3M51FbgXBA==", "signing_algo": "Ed25519", "generation_timestamp": 1772999569, "identifier": "af0f98df-1651-42b6-9283-610cffd4a661"}</recraft-signature></metadata></svg>