<svg xmlns="http://www.w3.org/2000/svg" height="512" preserveAspectRatio="none" style="display: block;" version="1.1" viewBox="0 0 2048 2048" width="512">
<path d="M 411.151 1057.23 C 428.623 1056.12 459.574 1057.19 478.35 1057.2 L 726.174 1057.16 C 817.594 1057.11 905.77 1070.07 930.925 1179.91 C 938.112 1211.29 935.978 1248.93 935.935 1281.48 L 935.966 1478.85 C 935.971 1497.95 936.741 1519.95 934.064 1538.65 C 921.873 1623.79 866.375 1662.87 790.005 1681.15 C 778.754 1682.17 753.68 1681.22 740.991 1681.19 L 486.826 1681.18 C 459.507 1681.2 424.536 1682.99 398.054 1679.12 C 290.211 1663.35 262.882 1576.54 262.994 1484.49 L 263.175 1268.66 C 263.337 1163.84 282.896 1071.49 411.151 1057.23 z M 780.3 1561.47 C 826.875 1550.64 818.603 1512.28 818.507 1475.7 L 818.484 1268.87 C 818.457 1173.67 819.154 1174.91 714.915 1174.96 L 473.929 1174.95 C 457.193 1174.94 430.479 1173.97 414.787 1175 C 367.074 1187.38 378.083 1236.62 378.135 1276.27 L 378.108 1478.58 C 378.077 1561.55 379.416 1561.62 471.374 1561.49 L 713.686 1561.5 C 734.876 1561.51 759.365 1562.14 780.3 1561.47 z" fill="rgb(0,0,0)" transform="translate(0,0)"></path>
<path d="M 1367.84 349.28 C 1436.99 346.606 1457.63 396.039 1479.76 447.523 L 1820.39 1243.73 C 1832.87 1273.18 1847.56 1301.5 1859.97 1331.57 C 1881.68 1384.2 1826.13 1433.11 1776.4 1409.66 C 1754.52 1399.34 1746.6 1372.61 1737.57 1351.53 L 1709.99 1286.9 C 1664.46 1185.29 1618.13 1082.4 1574.91 979.998 L 1328.91 979.985 C 1293.27 979.983 1250.2 982.835 1215.34 979.998 C 1206.64 973.949 1191.52 957.786 1183.18 949.48 L 1116.63 883.396 C 1108.46 875.249 1090.9 856.582 1082.66 850.109 L 1262.63 448.389 C 1287.02 393.921 1299.99 356.723 1367.84 349.28 z M 1209.96 859.915 L 1367.84 859.915 L 1522.07 859.915 C 1518.76 848.566 1512.24 833.908 1507.51 822.609 L 1480.5 758.551 C 1470.16 733.595 1376.93 504.673 1370.98 499.479 C 1361.48 521.603 1350.83 543.674 1341.01 565.73 L 1248.55 773.934 C 1235.81 802.674 1222.33 830.909 1209.96 859.915 z" fill="rgb(0,0,0)" transform="translate(0,0)"></path>
<path d="M 234.148 174.435 C 264.705 173.297 279.326 190.53 298.901 210.504 L 1707.16 1616.26 C 1735.83 1644.94 1857.57 1752.68 1862.71 1787.6 C 1867.92 1823.06 1846.28 1852.41 1811.05 1857.71 C 1767.59 1855.81 1753.6 1831.75 1724.99 1802.87 L 301.778 379.202 C 267.353 344.864 232.878 310.469 198.976 275.611 C 164.166 239.094 180.642 180.418 234.148 174.435 z" fill="rgb(0,0,0)" transform="translate(0,0)"></path>
<metadata><recraft-signature>{"signed_by": "recraft", "signature_b64": "WykfM/VgbBjO9wz2sDwbl0ugdhBTvhr6N2qsqPKUTDsYhPTdx4YlPu2CFcnRyJ9dkX+Sb+JYMvIG1fep265OAQ==", "signing_algo": "Ed25519", "generation_timestamp": 1772989520, "identifier": "40bc6d2f-a6a7-46c6-91e4-fd25ac23884a"}</recraft-signature></metadata></svg>