<svg xmlns="http://www.w3.org/2000/svg" height="512" preserveAspectRatio="none" style="display: block;" version="1.1" viewBox="0 0 2048 2048" width="512">
<path d="M 751.806 683.003 C 793.439 678.932 842.011 708.881 849.497 751.582 C 854.728 781.424 834.555 817.164 822.801 844.805 L 558.837 1466.86 C 543.413 1502.55 524.472 1543.4 512.116 1580.08 L 896.296 1580.08 C 967.222 1580.08 1039.22 1580.79 1110.03 1580.08 C 1106.01 1565.47 1096.44 1546.92 1090.19 1532.56 C 1042.46 1422.95 996.554 1312.18 947.985 1202.95 L 902.195 1101.78 C 859.879 1006.47 1013.23 920.681 1065.24 1048.57 C 1089.95 1109.3 1116.98 1169.22 1141.5 1230.02 C 1145.4 1237.27 1150.57 1249.92 1154.01 1257.8 L 1291.25 1573.9 C 1299.9 1593.68 1310.6 1615.31 1316.09 1635.18 C 1330.72 1690.03 1287.41 1746.2 1231 1747.75 C 1198.4 1748.64 1166.36 1748.35 1133.87 1748.34 L 448.568 1748.37 C 412.329 1748.4 371.418 1753.41 339.694 1734.31 C 303.645 1712.6 287.163 1666.79 304.06 1627.88 L 669.96 774.193 C 690.05 727.122 697.428 695.944 751.806 683.003 z" fill="rgb(0,0,0)" transform="translate(0,0)"></path>
<path d="M 1247 297.195 L 1653.27 297.229 C 1745.97 294.868 1746.69 367.053 1746.52 436.081 L 1746.69 947.258 C 1747.12 1028.62 1665.37 1022.11 1611.11 1022.03 L 1316.85 1021.98 C 1243.42 1022.01 1144.61 1032.25 1151.03 926.105 C 1168.27 864.207 1203.86 856.373 1263.78 856.337 L 1581.02 856.365 L 1581.02 465.48 C 1568.49 464.74 1551.45 465.441 1538.42 465.45 L 1109.56 465.526 C 1091.66 465.536 1075.4 466.05 1057.38 463.938 C 961.434 453.131 956.999 322.296 1048.29 300.373 C 1070.2 295.111 1106.41 297.165 1129.62 297.155 L 1247 297.195 z" fill="rgb(0,0,0)" transform="translate(0,0)"></path>
<metadata><recraft-signature>{"signed_by": "recraft", "signature_b64": "GR6/04vPYsbQstCObM+6h6IxEaqkAM667X9Mps/apdANHEJnkqh1eGxmE8X6zu3ko1sZB0ippbPW7fYJYucPAw==", "signing_algo": "Ed25519", "generation_timestamp": 1772989301, "identifier": "8c00c79f-ddfa-4915-a9a1-b0bed22311cf"}</recraft-signature></metadata></svg>