<svg xmlns="http://www.w3.org/2000/svg" height="512" preserveAspectRatio="none" style="display: block;" version="1.1" viewBox="0 0 2048 2048" width="512">
<path d="M 476.659 295.428 C 483.291 294.637 502.559 295.379 510.569 295.449 L 1556.52 295.216 C 1646.35 294.929 1686.29 362.385 1686.17 442.803 L 1686.12 1368.05 C 1653.81 1369.91 1620.2 1368.7 1587.85 1368.05 C 1586.49 1348.1 1587.82 1312.25 1587.84 1290.77 L 1587.82 499.409 C 1587.84 471.117 1599.47 395.208 1558.72 393.189 C 1529.98 391.765 1500.97 392.337 1472.19 392.339 L 783.75 392.322 L 519.853 392.252 C 494.897 392.248 459.972 387.769 460.118 424.13 L 460.248 1547.13 C 460.228 1616.23 453.257 1628.82 527.396 1628.66 L 885.032 1628.57 C 885.459 1661.71 885.041 1695.78 885.032 1729 L 532.236 1729.05 C 452.702 1729.05 379.609 1711.13 363.06 1616.42 C 360.107 1599.52 361.296 1576.14 361.319 1558.25 L 361.374 473.709 C 361.632 452.348 360.789 430.735 362.192 409.417 C 366.305 346.957 417.965 304.021 476.659 295.428 z" fill="rgb(47,53,66)" transform="translate(0,0)"></path>
<path d="M 989.889 1441.03 L 1059.28 1440.96 C 1168.8 1440.93 1204.22 1453.27 1204.23 1567.89 L 1204.16 1619.64 C 1203.8 1651.99 1202.73 1674.3 1178.96 1697.56 C 1142.79 1725.95 1106.64 1721.12 1063.4 1721.07 L 989.889 1721.02 L 989.889 1441.03 z M 1045.6 1674.99 C 1071.53 1674.99 1112.7 1681.13 1133.65 1666.67 C 1148.43 1652.18 1148.83 1639.54 1149.04 1619.59 L 1149.1 1565.82 C 1148.97 1477.19 1123.82 1488.85 1049.95 1489.23 L 1046.47 1489.68 C 1044.19 1492.94 1045.6 1656.16 1045.6 1674.99 z" fill="rgb(87,162,202)" transform="translate(0,0)"></path>
<path d="M 1540.59 1437.49 C 1607.61 1432.83 1663.29 1461.49 1661.98 1535.07 L 1602.97 1535.07 C 1602.38 1457.82 1516.89 1473.02 1513.11 1519.42 C 1512.75 1554.92 1507.23 1643.74 1524.06 1666.36 C 1541.7 1690.08 1598.43 1690.39 1602.97 1637.16 L 1602.97 1622.88 L 1661.98 1622.88 C 1663.11 1679.31 1639.09 1716.68 1579.62 1725.13 C 1477.24 1733.78 1458.15 1685.27 1458.94 1590.98 C 1459.55 1518.43 1447.95 1447.79 1540.59 1437.49 z" fill="rgb(87,162,202)" transform="translate(0,0)"></path>
<path d="M 1250.48 1441.03 C 1268.3 1441.18 1286.1 1440.74 1304 1441.03 C 1302.97 1517.85 1303.99 1597.95 1304 1674.99 L 1426.92 1674.99 C 1426.88 1689.67 1427.6 1706.55 1426.92 1721.02 L 1250.48 1721.02 L 1250.48 1441.03 z" fill="rgb(87,162,202)" transform="translate(0,0)"></path>
<metadata><recraft-signature>{"signed_by": "recraft", "signature_b64": "r9ZwHHqEMk8618NdB4R8oqB44LdrRf8uOLp085DfmKOtzCtqcITjv29FggO9eZzVzzeAEYCIdEDeG0vENvmeDg==", "signing_algo": "Ed25519", "generation_timestamp": 1772999961, "identifier": "9c8bf337-345c-442d-9df8-54310fa25905"}</recraft-signature></metadata></svg>