<svg xmlns="http://www.w3.org/2000/svg" height="512" preserveAspectRatio="none" style="display: block;" version="1.1" viewBox="0 0 2048 2048" width="512">
<path d="M 686.498 726.002 C 708.205 724.63 734.371 725.954 756.557 725.976 L 1575.69 725.969 C 1682.48 725.959 1707.08 763.516 1707.02 865.285 L 1707.06 1577.43 C 1707.17 1693.57 1671.71 1705.41 1563.33 1705.45 L 981.065 1705.47 C 978.783 1686.77 978.494 1679.99 981.065 1661.44 C 978.948 1633.97 978.4 1563.65 981.065 1536 C 1001.07 1536.91 1022.01 1536.02 1042.14 1536.01 L 1536 1536 L 1536 894.843 L 840.945 894.852 C 818.377 894.837 787.619 893.498 765.997 894.843 L 765.997 1021.46 C 747.604 1020.66 726.175 1021.41 707.394 1021.42 L 594.007 1021.46 L 594.004 886.123 C 593.786 814.105 590.411 739.063 686.498 726.002 z" fill="rgb(0,0,0)" transform="translate(0,0)"></path>
<path d="M 696.101 1062.48 C 728.444 1062.23 758.7 1072.27 781.136 1095.86 C 818.11 1134.72 815.17 1161.56 815.083 1209.12 L 815.001 1278.99 C 855.396 1279.75 937.872 1273.89 974.228 1281.51 C 1076.46 1302.93 1095.73 1438.72 1034.21 1501.22 C 985.515 1550.68 883.085 1535.09 815.001 1536 L 815.039 1630.47 C 815.107 1708.88 808.966 1776.52 710.215 1792.99 C 654.068 1800.22 596.747 1762.57 582.426 1707.79 C 575.913 1682.88 578.021 1649.39 578.032 1623.23 L 578.096 1536 C 513.273 1529.12 428.715 1555.26 377 1503.99 C 329.862 1457.26 329.589 1359.67 375.62 1312.79 C 412.906 1274.94 452.382 1278.91 500.463 1278.92 L 578.096 1278.99 L 578.008 1214 C 577.949 1133.46 604.265 1067.75 696.101 1062.48 z" fill="rgb(0,0,0)" transform="translate(0,0)"></path>
<path d="M 1055.82 253.001 C 1063.75 252.183 1076.2 252.922 1084.57 252.968 L 1416.63 252.992 C 1434.38 252.842 1456.63 251.508 1473.84 253.577 C 1551.09 265.464 1536.02 350.435 1536 403.619 L 1537.4 562.241 C 1537.83 636.321 1472.94 645.103 1415.5 644.805 L 1332.9 644.805 C 1329.96 650.275 1327.17 655.114 1323.85 660.369 C 1287.47 717.838 1218.6 700.808 1188.74 644.805 C 1179.38 644.202 1164.79 644.724 1154.98 644.768 L 1091.96 644.844 C 992.581 644.77 981.147 610.054 981.04 515.275 L 981.004 363.613 C 981.034 306.561 991.125 264.536 1055.82 253.001 z" fill="rgb(0,0,0)" transform="translate(0,0)"></path>
<metadata><recraft-signature>{"signed_by": "recraft", "signature_b64": "jeuI0HthHUt2jl4ylcMoWhxmCvu+Vr1rVdn2n7334RxA2hid79WYGNitz5giMW7ygqp3hreXfpNYCqMeoRdbCQ==", "signing_algo": "Ed25519", "generation_timestamp": 1772989082, "identifier": "ecb3108b-4d1a-4bcc-b5a6-ce2275e7e837"}</recraft-signature></metadata></svg>