<svg xmlns="http://www.w3.org/2000/svg" height="512" preserveAspectRatio="none" style="display: block;" version="1.1" viewBox="0 0 2048 2048" width="512">
<path d="M 310.853 382.951 C 345 382.36 380.6 382.903 414.907 382.934 L 1740.23 382.803 C 1791.16 382.972 1791.14 438.395 1791.06 472.477 L 1790.94 1601.62 C 1790.62 1637.08 1766.27 1656.42 1734.94 1665.24 C 1705.82 1665.79 1674.79 1665.22 1645.47 1665.22 L 373.942 1665.22 C 336.531 1665.27 264.01 1672.72 258.508 1617.64 C 255.456 1587.08 256.964 1551.94 256.988 1520.66 L 256.995 530.371 C 256.996 469.663 238.135 400.802 310.853 382.951 z M 830.962 1537 L 1663.4 1537 L 1663.4 1085.84 L 830.962 1085.84 L 830.962 1537 z M 382.999 513.02 L 382.999 958.936 L 705.758 958.936 L 705.675 568.098 C 705.559 549.034 704.665 532.122 705.758 513.02 L 490.128 513.014 C 457.356 513.006 415.099 511.748 382.999 513.02 z M 705.758 1085.84 L 382.999 1085.84 C 381.684 1133.74 383 1187.49 383.002 1235.92 L 382.999 1537 C 405.271 1537.76 431.136 1537.01 453.829 1537 L 669.511 1537.1 C 677.32 1537.12 699.455 1537.76 705.758 1537 L 705.758 1085.84 z M 830.962 513.02 L 830.962 958.936 L 1510.45 958.928 C 1522.06 958.93 1662.17 959.454 1663.4 958.936 L 1663.44 562.829 C 1663.47 548.48 1664.22 526.776 1663.4 513.02 C 1631.72 514.196 1593.37 513.139 1561.1 513.043 L 830.962 513.02 z" fill="rgb(0,0,0)" transform="translate(0,0)"></path>
<metadata><recraft-signature>{"signed_by": "recraft", "signature_b64": "tFD/kIejVTD2ctSqaTy2e2zJntrPg5l7rvY48D8Q4Rfgl8MxfnMJriuRhKIkZ4W/fJtRbuyg6Hl1D9n8VBGSDg==", "signing_algo": "Ed25519", "generation_timestamp": 1772997737, "identifier": "3ea6bb4c-9986-4494-83a3-a2c3b2d068cd"}</recraft-signature></metadata></svg>