<svg xmlns="http://www.w3.org/2000/svg" height="512" preserveAspectRatio="none" style="display: block;" version="1.1" viewBox="0 0 2048 2048" width="512">
<path d="M 352.714 299.003 C 364.902 298.085 394.513 298.962 407.906 298.969 L 1687.1 299.172 C 1754.68 298.475 1747.95 373.427 1747.9 416.991 L 1747.76 1679.44 C 1747.43 1715.62 1729.37 1735.35 1695.01 1746.53 C 1684.27 1747.62 1661.31 1746.6 1649.33 1746.57 L 473.517 1746.57 C 444.357 1746.57 355.279 1752.06 331.886 1738.5 C 297.172 1718.39 300.998 1682.53 301.039 1647.91 L 301.219 366.409 C 301.578 329.879 317.818 308.13 352.714 299.003 z M 955.996 429.977 L 955.996 918.003 L 1503.5 918.003 L 1617.98 918.003 C 1617.33 864.15 1617.99 808.874 1617.99 754.903 L 1617.98 429.977 L 1073.62 429.977 L 955.996 429.977 z M 431.51 429.977 L 431.486 863.485 C 431.485 880.441 430.875 901.425 431.51 918.003 L 746.009 918.003 L 746.009 429.977 L 465.126 429.942 C 454.936 429.937 441.322 429.382 431.51 429.977 z M 746.009 1129.44 L 437.693 1129.44 C 436.347 1129.63 433.161 1129.59 432.487 1130.78 C 429.975 1135.24 431.511 1572.56 431.51 1617.98 L 742.25 1617.98 L 744.913 1617.98 C 746.939 1614.77 745.949 1586.68 745.953 1581.03 L 745.979 1170.96 C 745.976 1158.05 745.483 1142.05 746.009 1129.44 z M 955.996 1617.98 L 1606.75 1617.98 C 1610.92 1617.81 1614.11 1618.41 1617.07 1616.34 C 1619.86 1607.65 1617.98 1512.59 1617.98 1496.71 L 1617.98 1129.44 L 962.624 1129.44 C 950.196 1131.05 956.103 1172.45 956.064 1186.17 L 955.996 1617.98 z" fill="rgb(0,0,0)" transform="translate(0,0)"></path>
<metadata><recraft-signature>{"signed_by": "recraft", "signature_b64": "JwGptKrcUZekZ2tMXIHNPDMASJEwzHR6u24SIvNE219xNuUFvcuERqsHhQk3A9FJ5v8HBAUvOUAw3FIqZ2OvDA==", "signing_algo": "Ed25519", "generation_timestamp": 1772996267, "identifier": "423fd8b0-53fe-484e-8d72-533320fc45a2"}</recraft-signature></metadata></svg>