<svg xmlns="http://www.w3.org/2000/svg" height="512" preserveAspectRatio="none" style="display: block;" version="1.1" viewBox="0 0 2048 2048" width="512">
<path d="M 1520 553.955 C 1580.93 553.959 1642.03 554.265 1703.03 553.528 C 1791.23 547.662 1791.97 630.433 1791.94 691.966 L 1792.61 1241.55 C 1792.55 1289.57 1740.58 1327.45 1708.44 1358.97 L 1617.03 1450.25 C 1563.18 1504.14 1533.69 1490.12 1460.1 1490.11 L 529.5 1490.09 L 397.166 1490.14 C 283.664 1490.15 254.879 1487.62 254.954 1358.51 L 254.988 739.508 C 254.939 677.468 238.209 587.389 307.913 559.273 C 327.984 551.178 351.476 553.925 372.64 553.927 L 1520 553.955 z M 424.999 1309.01 L 1514.6 1309.01 C 1532.1 1291.36 1549.46 1273.82 1567.3 1256.5 C 1591.4 1233.88 1620.64 1213.9 1620.88 1179.32 L 1621.02 724.009 C 1598 725.532 1557.54 723.985 1532.75 723.989 L 523.9 724.003 C 494.515 724.001 453.288 722.609 424.999 724.009 L 424.982 1247.9 C 424.974 1263.42 423.938 1294.68 424.999 1309.01 z" fill="rgb(0,0,0)" transform="translate(0,0)"></path>
<metadata><recraft-signature>{"signed_by": "recraft", "signature_b64": "OuMrEsOj4xGImpVeIzOUA7LYr4L6+0jem8bS2SINsemlEBMf0o9uT16DKoEpFb9NavRJJfeTtHLjr1yCpC49AA==", "signing_algo": "Ed25519", "generation_timestamp": 1772997386, "identifier": "ab212c45-b2b4-470d-bc66-d7ee81e3ff2f"}</recraft-signature></metadata></svg>