<svg xmlns="http://www.w3.org/2000/svg" height="512" preserveAspectRatio="none" style="display: block;" version="1.1" viewBox="0 0 2048 2048" width="512">
<path d="M 320.05 346 C 370.139 347.139 424.815 346 475.273 345.998 L 1728 346 L 1728 1253.02 L 1280.5 1253.02 L 422.999 1253.02 L 422.999 1698.99 L 320.05 1698.99 L 320.05 346 z M 855.992 1149 L 1621.21 1149 L 1623.22 1148.28 C 1624.67 1142.83 1623.95 1080.09 1623.95 1070.55 L 1624 850.102 C 1541.16 851.57 1453.04 850.097 1369.8 850.095 L 859.427 850.102 L 857.123 850.938 C 854.271 857.662 855.899 1118.98 855.992 1149 z M 855.992 746.46 L 1621.21 746.46 L 1623.42 746.066 C 1625.43 741.189 1624.29 478.183 1624 450.146 L 1114.11 450.144 C 1029.79 450.142 943.56 449.171 859.427 450.146 L 857.147 451.015 C 855.407 457.417 855.967 523.649 855.971 534.683 L 855.992 746.46 z M 634.38 450.146 L 492.376 450.181 C 471.971 450.187 442.641 451.126 422.999 450.146 L 422.999 746.46 C 461.593 747.271 502.69 746.448 541.5 746.46 L 679.005 746.487 C 701.631 746.492 726.328 747.002 748.765 746.46 L 748.765 450.146 L 634.38 450.146 z M 422.999 850.102 L 422.999 1149 C 450.412 1149 747.696 1149.51 748.765 1149 L 748.765 850.102 C 641.432 850.113 530.046 848.607 422.999 850.102 z" fill="rgb(0,0,0)" transform="translate(0,0)"></path>
<metadata><recraft-signature>{"signed_by": "recraft", "signature_b64": "oWKKC43StgerOoydGLHCv2YEG30b9LD9HjiXP5kfQmGvPjC9hOE+Zao/R9vtha3oc4P0eDf+F6ZD0mUwRzFjCw==", "signing_algo": "Ed25519", "generation_timestamp": 1772996377, "identifier": "a2c571d1-1f54-4064-974e-0756d185cd78"}</recraft-signature></metadata></svg>