<svg xmlns="http://www.w3.org/2000/svg" height="512" preserveAspectRatio="none" style="display: block;" version="1.1" viewBox="0 0 2048 2048" width="512">
<path d="M 326.398 1195.36 C 340.499 1194.37 369.139 1195.36 383.991 1195.36 L 670.929 1195.39 C 704.479 1195.39 773.702 1182.53 786.613 1219.77 C 791.971 1235.22 789.432 1314.04 789.435 1335.32 L 789.434 1637.82 C 789.468 1675.34 801.824 1725.3 759.535 1738.4 C 749.492 1739.37 721.008 1738.45 709.485 1738.44 L 336.446 1738.14 C 309.96 1737.92 295.166 1726 294.988 1698.2 L 294.958 1231.15 C 295.046 1211.09 308.127 1200.12 326.398 1195.36 z M 374.088 1659.03 L 710.116 1659.03 L 710.116 1275.95 C 698.198 1276.7 683.709 1276.04 671.457 1275.99 L 374.088 1275.95 L 374.086 1520.53 C 374.078 1564.5 372.746 1615.57 374.088 1659.03 z" fill="rgb(46,44,44)" transform="translate(0,0)"></path>
<path d="M 1292.68 289.029 L 1663.84 288.964 C 1756.84 288.817 1752.2 290.176 1752.18 373.385 L 1752.32 795.088 C 1752.44 815.82 1739.72 824.119 1720.99 829.014 L 1289.46 829.329 C 1248.34 829.091 1257.02 772.719 1257.02 746.219 L 1257.04 422.678 C 1257.05 377.045 1238.73 296.842 1292.68 289.029 z M 1335.65 366.437 L 1335.65 749.464 L 1607.5 749.464 L 1673.88 749.464 L 1673.88 366.437 L 1402.33 366.437 L 1335.65 366.437 z" fill="rgb(46,44,44)" transform="translate(0,0)"></path>
<path d="M 1182.07 1238.47 C 1320.31 1236.71 1368.45 1425.72 1244.13 1488.65 C 1208.17 1506.85 1176.28 1501.75 1136.99 1501.75 L 1136.99 1564.98 L 1230.4 1564.88 C 1246.55 1564.88 1265.01 1563.87 1280.86 1566.03 C 1321.7 1571.57 1322.04 1634.24 1284.61 1640.94 C 1267.34 1642.88 1249.11 1642.04 1231.66 1642.03 L 1121.77 1641.96 C 1061.82 1642.63 1059.42 1631.24 1059.42 1576.47 L 1059.45 1515.52 C 1059.46 1495.36 1058.88 1473.06 1059.71 1452.94 C 1067.66 1403.95 1157.08 1429.02 1192.42 1423.32 C 1262.41 1412.03 1248.2 1305.46 1174.59 1317.88 C 1128.52 1325.65 1139.47 1381.05 1102.24 1382.83 C 1081.14 1386.01 1060.56 1368.39 1059.74 1346.73 C 1057.52 1287.6 1127.42 1241.77 1182.07 1238.47 z" fill="rgb(46,44,44)" transform="translate(0,0)"></path>
<path d="M 598.001 289.029 C 624.414 289.251 650.901 288.652 677.303 288.979 C 717.743 289.48 718.915 312.668 718.897 346.927 L 718.852 590.998 C 735.999 590.817 761.885 587.535 775.173 599.524 C 795.941 618.262 792.238 660.156 761.617 666.254 C 749.758 668.615 737.073 667.59 724.997 667.523 L 679.5 667.408 C 653.149 667.456 616.845 669.033 590.866 665.998 C 563.039 659.011 556.826 619.131 576.431 601.158 C 592.565 586.367 617.54 590.84 638.555 590.998 L 638.555 366.437 C 611.331 366.598 569.833 370.753 563.819 335.726 C 559.455 310.306 573.631 292.896 598.001 289.029 z" fill="rgb(46,44,44)" transform="translate(0,0)"></path>
<metadata><recraft-signature>{"signed_by": "recraft", "signature_b64": "LKSbJ4LOK/RVjM13R714uPoOQ7+006LAiS+dWZ1KmiB7FQ2gUPSNVYgUPW+a0qF9+HRR4gWNp9qabtdn2VJxDA==", "signing_algo": "Ed25519", "generation_timestamp": 1772998435, "identifier": "09714a5f-82f7-44f9-ae96-8cd62c8bc86e"}</recraft-signature></metadata></svg>