<svg xmlns="http://www.w3.org/2000/svg" height="512" preserveAspectRatio="none" style="display: block;" version="1.1" viewBox="0 0 2048 2048" width="512">
<path d="M 480.502 381.51 L 1592.54 381.431 C 1603.4 381.403 1620.5 380.288 1630.78 381.525 C 1699.54 389.798 1702 449.472 1710.24 500.97 L 1819.78 1220.51 C 1824.64 1254.03 1832.76 1293.72 1831.72 1327.38 C 1827.09 1476.7 1709.14 1600.9 1566.94 1634.23 C 1544.53 1639.02 1524.49 1640.89 1501.63 1641.11 L 619.592 1641.15 C 574.742 1641.15 525.864 1643.93 481.58 1635.64 C 335.332 1608.25 221.994 1472.13 218.928 1324.02 C 218.194 1288.57 228.428 1240.75 233.505 1204.51 L 338.824 492.864 C 354.494 387.814 369.161 381.401 480.502 381.51 z M 499.517 548.46 C 494.958 572.888 491.957 602.495 488.37 627.534 L 397.068 1222.08 C 386.472 1289.47 370.655 1346.24 413.283 1407.1 C 472.227 1491.26 558.192 1480.54 647.967 1480.54 L 1423.08 1480.56 C 1460.51 1480.59 1504.98 1483.48 1540.77 1473.69 C 1588.85 1457.4 1622.5 1431.76 1646.39 1386.26 C 1675.01 1331.75 1659.62 1280.13 1651.3 1222.67 L 1576.59 711.327 C 1568.55 657.305 1562.92 601.853 1551.22 548.46 C 1514.92 549.483 1473.73 548.455 1436.95 548.452 L 510.496 548.46 L 499.517 548.46 z" fill="rgb(0,0,0)" transform="translate(0,0)"></path>
<path d="M 848.512 1239 L 1318.98 1238.96 C 1332.45 1238.96 1346.79 1239.35 1360.2 1238.99 C 1463.33 1236.19 1471.19 1385.35 1385.66 1401.58 C 1368.12 1404.92 1338.91 1403.48 1319.95 1403.48 L 1197.5 1403.41 L 728.233 1403.46 C 692.202 1403.46 657.627 1408.99 628.828 1383.02 C 580.298 1339.24 601.683 1255.88 666.007 1241.84 C 687.17 1237.22 717.423 1238.96 739.758 1238.96 L 848.512 1239 z" fill="rgb(0,0,0)" transform="translate(0,0)"></path>
<metadata><recraft-signature>{"signed_by": "recraft", "signature_b64": "F0ir70y+LevqGyWqSxhJfsk3TsAhQbWiSavljA15mmjaxYXibeOD2Vowrrsevi8tYjULrgj16+twCNRokQ0CBQ==", "signing_algo": "Ed25519", "generation_timestamp": 1772998898, "identifier": "7e54f3d8-3920-4cc5-937b-e5dff10a2b74"}</recraft-signature></metadata></svg>