<svg xmlns="http://www.w3.org/2000/svg" height="512" preserveAspectRatio="none" style="display: block;" version="1.1" viewBox="0 0 2048 2048" width="512">
<path d="M 579.974 292.993 C 585.45 292.309 609.039 292.903 615.668 292.934 L 1404.95 292.957 C 1461.49 292.945 1507.86 291.857 1555.99 328.174 C 1650.81 397.016 1627 521.404 1627.04 626.027 L 1627.06 1530.99 C 1627.21 1589.7 1631.36 1633.3 1591.42 1683.04 C 1555.36 1727.97 1517.14 1745.2 1461.25 1752.49 L 675.731 1752.45 C 641.873 1752.46 605.78 1754.14 572.257 1750.28 C 495.518 1741.44 435.767 1674.05 424.084 1599.83 C 421.384 1581.92 422.34 1554.25 422.385 1535.43 L 422.434 523.431 C 422.353 464.481 417.207 410.666 457.021 360.973 C 489.821 320.035 528.375 300.102 579.974 292.993 z M 1365.04 1372.04 L 1365.04 1496.97 C 1335.74 1496.39 1304.82 1496.97 1275.36 1496.97 L 554.951 1496.97 C 555.086 1529.69 547.153 1584.01 568.585 1609.08 C 589.015 1632.97 627.083 1626.08 656.308 1626.03 L 1398.18 1626 C 1444.59 1626.11 1494.44 1626.19 1494.78 1565.19 L 1495.08 513.495 C 1495.14 473.736 1500.55 421.159 1441.95 421.07 L 629.465 420.965 C 617.743 420.939 605.739 420.684 594.059 421.395 C 539.579 424.71 554.964 511.7 554.983 548.383 L 554.951 1372.04 L 1277.5 1372.07 C 1302.15 1372.08 1341.22 1373.4 1365.04 1372.04 z" fill="rgb(0,0,0)" transform="translate(0,0)"></path>
<path d="M 554.951 1372.04 L 1277.5 1372.07 C 1302.15 1372.08 1341.22 1373.4 1365.04 1372.04 L 1365.04 1496.97 C 1335.74 1496.39 1304.82 1496.97 1275.36 1496.97 L 554.951 1496.97 L 554.951 1372.04 z" fill="rgb(2,167,252)" transform="translate(0,0)"></path>
<metadata><recraft-signature>{"signed_by": "recraft", "signature_b64": "bwEJ7zdrG6qyICDIESXZcagO95PlqvYiKuyQeLYdv0sdnsM/y4gj/8xrbSC1Zz+9EXUpvIUT9vZ5IQRDFJfBDg==", "signing_algo": "Ed25519", "generation_timestamp": 1772999310, "identifier": "a1523ecf-ab4c-4afc-821a-4097b017a127"}</recraft-signature></metadata></svg>