<svg xmlns="http://www.w3.org/2000/svg" height="512" preserveAspectRatio="none" style="display: block;" version="1.1" viewBox="0 0 2048 2048" width="512">
<path d="M 355.914 342.942 C 393.448 342.385 432.031 342.918 469.687 342.935 L 1589.7 342.934 C 1636.82 342.924 1734.43 330.506 1743.8 395.58 C 1749.46 434.941 1746.98 483.481 1746.96 524.309 L 1747.01 1583.93 C 1747.06 1654.35 1747.94 1667.73 1687.74 1701.8 C 1678.91 1702.72 1650.81 1701.81 1640.26 1701.8 L 471.696 1701.81 C 411.483 1701.86 322.126 1717.63 302.603 1641.42 C 299.064 1627.61 300.324 1607.58 300.366 1592.96 L 300.308 409.031 C 300.462 373.525 323.052 351.499 355.914 342.942 z M 465.742 1535.02 L 1455.62 1535.01 C 1496.51 1535.01 1539.42 1534.34 1580.19 1535.02 C 1578.98 1514.87 1580.16 1488.33 1580.18 1467.41 L 1580.2 764.787 C 1580.2 742.666 1581 716.55 1580.19 694.819 C 1573.92 713.993 1563.6 749.623 1556.5 767.278 L 1380.26 1306.18 C 1375.36 1320.98 1365.43 1348.76 1362.23 1362.99 L 1189.23 1362.99 C 1223.35 1248.63 1261.98 1132.81 1299.06 1019.24 L 1433.27 606.734 C 1443.1 576.47 1455.57 541.711 1464.03 511.435 L 471.905 511.435 C 468.276 511.701 467.761 511.075 465.553 512.971 L 465.742 1535.02 z" fill="rgb(48,48,50)" transform="translate(0,0)"></path>
<metadata><recraft-signature>{"signed_by": "recraft", "signature_b64": "L/jlw9XDsyo8wSoaQTGJ/PWq5CouSJhWN3MTKTsy4JTcrHKqATsYzZmgh4f8wbupLYkz5T5oxELhTzRBRTMjAQ==", "signing_algo": "Ed25519", "generation_timestamp": 1772999751, "identifier": "a32ecad7-4a33-4d50-b79a-6582fe9ef78e"}</recraft-signature></metadata></svg>