<svg xmlns="http://www.w3.org/2000/svg" height="512" preserveAspectRatio="none" style="display: block;" version="1.1" viewBox="0 0 2048 2048" width="512">
<path d="M 431.001 487.159 C 442.475 486.152 474.643 487.097 487.387 487.108 L 1532.28 487.097 C 1593.86 487.09 1640.17 482.402 1695.02 517.405 C 1781.61 572.666 1790.11 633.8 1790.04 725.732 L 1790 1286.85 C 1790.05 1317.04 1791.95 1357.88 1788.84 1386.91 C 1777.92 1488.94 1702.46 1537.35 1612.22 1558 C 1586.53 1556.44 1544.68 1557.98 1517.22 1557.99 L 528.375 1558.03 C 496.63 1558.03 458.991 1559.11 427.821 1556.52 C 343.762 1549.53 273.457 1471.65 260.395 1391.4 C 256.462 1367.23 257.708 1350.15 257.763 1326.26 L 257.837 763.125 C 257.852 691.47 248.575 628.837 294.09 567.156 C 331.184 516.889 371.143 497.484 431.001 487.159 z M 1588.28 1382.91 C 1605.76 1380.29 1617.81 1368.89 1617.88 1350.8 L 1617.96 752.048 C 1617.98 721.479 1628.69 663.784 1584.66 663.229 C 1542.23 662.693 1499.72 663.043 1457.28 663.048 L 461.196 663.042 C 420.039 669.169 430.86 715.604 430.936 748.765 L 430.974 1288.1 C 430.96 1313.07 421.019 1386.49 464.278 1382.75 C 505.305 1383.23 546.502 1382.9 587.607 1382.9 L 1588.28 1382.91 z" fill="rgb(0,0,0)" transform="translate(0,0)"></path>
<metadata><recraft-signature>{"signed_by": "recraft", "signature_b64": "jZ+qpautjcwqJDVkfIgzvJ95h9WB/r2Nm4RxsOQUFa0Tv4jaPsiAcGEwgAae27YRT4PfGeoUbhhnEjvY0PzWAg==", "signing_algo": "Ed25519", "generation_timestamp": 1773000017, "identifier": "c5bdf994-47f5-4c9a-a1dd-cee5f732ca49"}</recraft-signature></metadata></svg>