<svg xmlns="http://www.w3.org/2000/svg" height="512" preserveAspectRatio="none" style="display: block;" version="1.1" viewBox="0 0 2048 2048" width="512">
<path d="M 1509.1 764.515 C 1566.43 762.542 1612.53 762.223 1659.94 800.531 C 1730.83 857.826 1726.68 913.214 1722.45 992.082 L 1717.12 1077.79 C 1710.91 1171.98 1686.88 1262.78 1573.7 1279.89 C 1545.22 1284.2 1503.3 1279.91 1473.95 1278.96 L 978.333 1261.13 C 928.516 1259.31 873.117 1256.16 823.433 1255.95 C 734.402 1259.69 644.455 1263.82 555.743 1271.97 C 488.852 1273.33 439.858 1283.15 383.671 1231.1 C 315.19 1167.66 328.553 1040.28 325.109 948.656 C 321.922 863.861 375.353 790.883 460.833 778.062 C 521.762 768.923 606.635 787.294 671.229 785.645 L 1509.1 764.515 z M 555.743 1230.11 C 575.053 1227.63 595.865 1226.92 615.357 1225.86 L 781.004 1216.72 C 826.41 1214.24 862.2 1214.82 907.847 1216.89 L 1515.86 1237.6 C 1586.05 1240.07 1651.7 1219.5 1668.06 1139.5 C 1672.69 1116.91 1672.67 1086.63 1674.29 1062.72 L 1679.71 981.506 C 1683.52 923.059 1685.25 874.575 1632.6 834.23 C 1590.02 801.607 1552.86 806.891 1502.33 807.038 C 1456.27 810.564 1402.2 809.475 1355.65 809.918 L 726.503 826.309 C 707.349 827.079 685.014 828.842 666.15 828.861 C 610.953 828.7 512.284 811.19 463.015 819.65 C 408.722 828.973 364.783 878.929 366.131 934.778 C 367.594 995.34 369.878 1056.78 372.867 1117.34 C 374.608 1150.8 391.279 1182.87 416.526 1204.45 C 459.529 1241.44 504.415 1230.89 555.743 1230.11 z" fill="rgb(0,0,0)" transform="translate(0,0)"></path>
<path d="M 799.015 921.027 C 912.241 909.338 908.52 1135.62 811.232 1132 L 806.053 1132.27 C 706.25 1137.75 682.994 940.71 799.015 921.027 z M 807.247 1086.74 C 849.322 1074.79 849.371 965.229 799.015 969.49 C 753.853 989.019 762.678 1085.24 807.247 1086.74 z" fill="rgb(0,0,0)" transform="translate(0,0)"></path>
<path d="M 961.778 921.027 C 995.536 918.145 1034.67 934.55 1040.62 970.576 C 1044.27 992.626 1011.51 1006.2 997.154 987.031 C 936.304 905.796 916.079 1102.88 981.985 1084.51 C 988.255 1082.75 996.774 1067.59 999.75 1061.34 C 993.642 1061.65 987.481 1061.44 981.362 1061.34 C 954.311 1046.76 959.739 1014.3 999.75 1015.19 C 1022.49 1014.93 1047.76 1012.84 1047.96 1043.88 C 1048.24 1088.62 1023.84 1126.75 978.335 1133.62 C 877.183 1134.7 855.521 941.063 961.778 921.027 z" fill="rgb(0,0,0)" transform="translate(0,0)"></path>
<path d="M 604.863 921.027 C 634.388 918.295 630.235 952.778 629.997 972.027 C 646.337 954.117 668.704 908.444 697.046 927.849 C 725.431 947.284 675.327 990.164 662.165 1009.49 C 681.07 1035.41 739.039 1096.5 716.367 1123.58 C 684.554 1146.13 655.412 1084.68 642.141 1061.34 C 637.738 1066.73 634.084 1071.44 629.997 1077.08 C 630.168 1089.17 631.99 1113.27 625.875 1122.47 C 615.478 1138.12 585.397 1132.41 583.061 1111.74 C 581.499 1097.91 581.742 1086.65 581.733 1073.15 L 581.669 972.146 C 581.42 948.791 574.898 923.91 604.863 921.027 z" fill="rgb(0,0,0)" transform="translate(0,0)"></path>
<path d="M 1319.94 921.027 C 1378.91 915.122 1424.16 1011.25 1357.68 1005.16 C 1337.48 1003.31 1356.45 974.499 1324.81 966.452 C 1314.08 968.815 1299.35 975.645 1301.88 989.623 C 1308.71 1020.96 1384.97 1019.01 1391.3 1069.55 C 1396.23 1108.94 1368.97 1132.1 1332.52 1137.23 C 1250.09 1142.29 1228.4 1065.03 1274.42 1058.89 C 1293.18 1057.29 1292.87 1076.73 1303.06 1086.69 C 1312.62 1096.01 1347.36 1094.09 1343.78 1076.03 C 1333.1 1061.7 1302.6 1053.63 1286.01 1042.76 C 1232.37 1007.59 1254.87 932.215 1319.94 921.027 z" fill="rgb(0,0,0)" transform="translate(0,0)"></path>
<path d="M 1502.33 924.253 C 1525.26 917.129 1521.66 977.798 1521.9 987.79 C 1533.11 970.381 1559.97 934.996 1577.08 924.253 C 1639.74 926.348 1579.44 987.469 1562.2 1005.6 C 1575.7 1034.25 1626.35 1097.37 1614.51 1123.58 C 1578.05 1155.64 1557.04 1081.7 1536.55 1058.04 L 1535.61 1056.97 C 1528.96 1063.23 1526.79 1066.38 1521.9 1073.89 C 1521.65 1087.38 1523.3 1100.51 1521.28 1113.97 C 1518.58 1138.97 1478.57 1136.02 1477.28 1114.09 C 1474.06 1059.27 1476.05 1002.9 1476.08 947.917 C 1476.09 930.363 1487.09 926.217 1502.33 924.253 z" fill="rgb(0,0,0)" transform="translate(0,0)"></path>
<path d="M 491.495 921.027 C 504.123 920.606 546.501 918.724 552.623 928.486 C 585.388 980.728 513.145 969.049 491.495 969.49 L 491.495 1009.49 C 504.116 1009.5 533.416 1005.68 545.109 1015.78 C 557.814 1026.76 555.25 1049.99 538.426 1055.27 C 528.429 1058.41 503.928 1057.08 491.495 1056.97 C 491.606 1066.91 491.543 1076.81 491.495 1086.74 C 503.895 1085.49 513.026 1083.43 526.393 1082.54 C 554.677 1079.88 573.195 1097.98 555.743 1123.58 C 551.736 1126.47 546.365 1129.83 541.229 1130.38 C 431.155 1142.08 443.613 1104.77 442.953 1015.17 C 444.814 972.407 434.494 929.163 491.495 921.027 z" fill="rgb(0,0,0)" transform="translate(0,0)"></path>
<path d="M 1083.53 924.253 C 1117.66 917.341 1109.86 974.39 1109.85 992.897 L 1109.79 1086.74 C 1121.98 1086.59 1152.21 1085.19 1161.23 1090.09 C 1178.55 1099.48 1174.77 1125.2 1154.77 1132 C 1137.08 1134.01 1067.32 1139.88 1064.2 1112.94 C 1060.28 1079.13 1063.12 1041.35 1062.24 1007.1 C 1062.4 977.636 1050.16 931.485 1083.53 924.253 z" fill="rgb(0,0,0)" transform="translate(0,0)"></path>
<path d="M 1434.26 924.253 C 1464.89 925.485 1455.98 979.941 1455.99 1002.47 L 1455.98 1117.2 C 1449.06 1126.66 1446.04 1129.44 1434.26 1132 C 1404.4 1131.27 1409.99 1095.55 1409.89 1074.1 L 1409.92 1016.21 C 1409.91 982.679 1396.49 928.946 1434.26 924.253 z" fill="rgb(0,0,0)" transform="translate(0,0)"></path>
<path d="M 1205.81 924.253 C 1225.62 923.426 1230.89 937.081 1230.76 954.006 C 1230.38 1003.35 1231.25 1052.77 1231.34 1102.11 C 1231.37 1118.27 1227.74 1126.9 1211.21 1132 C 1180.06 1127.45 1185 1106.82 1184.99 1082.72 L 1184.94 981.155 C 1184.72 959.006 1177.88 928.909 1205.81 924.253 z" fill="rgb(0,0,0)" transform="translate(0,0)"></path>
<metadata><recraft-signature>{"signed_by": "recraft", "signature_b64": "USVz8CxIYd8Y+sXq1yfI0mk+yAQRcVr5dToTH7rAIHXf4I9WygJeVDnNZ8mbzK+8coGMd3K12oaVwcvk3JOpDg==", "signing_algo": "Ed25519", "generation_timestamp": 1772999099, "identifier": "847e128a-3411-4fd9-b66d-7cad69fb01eb"}</recraft-signature></metadata></svg>