<svg xmlns="http://www.w3.org/2000/svg" height="512" preserveAspectRatio="none" style="display: block;" version="1.1" viewBox="0 0 2048 2048" width="512">
<path d="M 602.121 362.48 C 621.119 359.91 651.574 362.379 670.341 366.756 C 885.979 417.051 978.206 605.319 946.51 815.802 C 940.566 855.276 929.156 894.977 921.212 933.989 C 932.913 928.317 944.959 921.394 956.727 915.332 C 1059.75 862.263 1186.78 885.584 1283.22 785.116 C 1295.17 772.668 1301.7 747.352 1310.07 731.791 C 1331.84 685.92 1353.04 647.704 1388.96 611.324 C 1373.32 549.654 1401.02 465.353 1457.9 433.589 C 1487.36 456.603 1495.89 461.866 1517.23 492.174 C 1525.23 475.265 1551.96 441.631 1567.27 430.574 C 1616.92 469.898 1639.27 522.733 1636.95 585.344 C 1685 615.382 1722.52 649.73 1752.31 698.334 C 1761.22 710.258 1772.69 737.071 1781.59 747.434 C 1828.15 801.67 1834.15 842.451 1786.94 901.073 C 1742.92 955.75 1628.59 965.212 1562.29 971.81 C 1550.99 979.41 1512.81 1033.14 1520.12 1050.13 C 1521.13 1052.48 1637.88 1131.63 1667.13 1186.19 C 1724.31 1355.14 1589.66 1402.53 1548.35 1305.5 C 1537.33 1276.14 1552.59 1257.85 1516.79 1269.33 C 1494.31 1276.53 1472.42 1280.94 1449.07 1284.31 C 1434.99 1309.16 1418.57 1327.82 1403.52 1350.36 C 1367.24 1438.63 1358.55 1458.1 1287 1531.94 C 1336.58 1535.98 1373.04 1570.68 1376.96 1621.52 C 1382.73 1696.49 1297.4 1685.08 1249.56 1685 L 1027.68 1685.02 C 905.164 1685.06 860.844 1665.25 775.045 1579.05 C 772.095 1576.09 750.763 1572.04 746.175 1568.85 C 610.234 1512.5 530.266 1362.79 539.414 1218.5 C 545.16 1127.87 602.811 1029.31 599.224 954.291 C 592.726 818.365 426.954 831.124 369.18 940.573 C 362.225 953.749 357.633 970.432 348.548 982.188 C 339.526 991.537 317.539 992.789 308.751 982.058 C 191.743 839.18 206.453 611.972 335.659 481.63 C 395.227 421.538 514.376 362.894 602.121 362.48 z M 1426.62 643.753 C 1358.67 713.157 1353.73 802.149 1285.96 849.722 C 1183.85 921.405 1111.65 913.137 1007.75 949.249 C 844.438 1006.01 745.084 1163.72 746.71 1334.44 C 747.845 1453.62 810.366 1589.6 933.055 1624.3 C 967.703 1634.1 999.234 1632.07 1034.98 1632.09 L 1308.66 1632.05 C 1356.52 1631.97 1305.65 1588.13 1296.69 1584.75 C 1257.88 1570.09 1204.06 1575.76 1162.63 1575.51 C 1247.86 1510.58 1331.35 1318.22 1260.78 1221.45 C 1212.13 1159.7 1116.94 1151.68 1048.37 1182.91 C 1085.8 1149.06 1122.49 1126.18 1176.05 1128.96 C 1289.72 1134.85 1322.63 1247.81 1459.3 1227.75 C 1498.5 1222 1546.38 1194.35 1578.78 1231.22 C 1597.76 1252.83 1592.4 1302.01 1613.02 1302.16 C 1638.84 1302.36 1625.3 1225.65 1620.71 1211.21 C 1601.84 1151.87 1511.03 1121.43 1480.02 1082.2 C 1445.14 1038.06 1491.77 986.008 1510.02 949.939 C 1461.67 932.468 1434.11 872.268 1440.42 823.124 C 1458.22 871.733 1492.52 920.526 1549.48 919.757 C 1599.53 919.081 1693.67 906.589 1735.72 882.038 C 1715.25 876.581 1699.53 874.569 1694.43 850.793 C 1712.39 803.211 1750.65 867.46 1766.6 828.446 C 1774.79 808.406 1750.59 791.223 1742.23 775.522 C 1690.77 684.424 1637.8 628.046 1533.28 601.381 C 1532.27 611.402 1527.2 657.032 1512.28 656.437 C 1507.84 650.23 1509.11 623.86 1507.28 613.522 C 1502.37 585.856 1483.29 517.482 1457.9 500.674 C 1417.89 559.202 1429.69 596.768 1458.25 653.975 C 1468.2 673.905 1431.1 647.879 1426.62 643.753 z M 670.421 1450.89 C 668.067 1442.09 657.867 1423.27 653.867 1414 C 554.269 1183.11 816.216 917.115 689.746 767.672 C 647.14 717.327 566.149 712.444 516.288 754.581 C 507.429 762.067 482.498 791.993 481.686 802.258 L 484.769 803.002 C 575.329 797.528 644.648 857.678 650.711 948.724 C 654.702 1008.65 631.75 1067.15 612.092 1123.02 C 576.372 1224.55 585.606 1375.26 670.421 1450.89 z" fill="rgb(25,37,48)" transform="translate(0,0)"></path>
<path d="M 1605.38 693.464 C 1623.31 690.602 1640.21 702.719 1643.25 720.626 C 1646.29 738.533 1634.35 755.549 1616.47 758.77 C 1604.75 760.883 1592.79 756.537 1585.16 747.389 C 1577.53 738.241 1575.4 725.701 1579.58 714.546 C 1583.76 703.391 1593.61 695.342 1605.38 693.464 z" fill="rgb(25,37,48)" transform="translate(0,0)"></path>
<path d="M 325.459 916.143 C 243.491 772.031 274.027 560.683 422.413 475.381 C 502.172 429.53 588.237 395.82 681.064 420.436 C 834.986 461.255 911.621 612.573 901.366 763.452 C 896.644 828.331 878.206 892.697 862.295 955.545 C 855.4 982.781 847.346 984.853 828.509 1003.38 C 708.912 1121 664.118 1303.2 714.951 1462.97 C 718.143 1473 721.421 1484.47 723.987 1494.73 C 705.244 1482.03 686.16 1467.14 670.421 1450.89 C 668.067 1442.09 657.867 1423.27 653.867 1414 C 554.269 1183.11 816.216 917.115 689.746 767.672 C 647.14 717.327 566.149 712.444 516.288 754.581 C 507.429 762.067 482.498 791.993 481.686 802.258 L 484.769 803.002 C 482.461 804.172 482.612 803.73 480.429 804.044 C 416.382 813.252 354.551 858.495 325.459 916.143 z" fill="rgb(60,79,88)" transform="translate(0,0)"></path>
<metadata><recraft-signature>{"signed_by": "recraft", "signature_b64": "2SS5BHHbqhFqn1Pxsh2cBbmd/aH2dVG4zRR9u/vb/4JV2O8v3OJCTsgHga0AmceOWuhB0oEqs+EPhCW+zn6CBg==", "signing_algo": "Ed25519", "generation_timestamp": 1772997414, "identifier": "6cdc791f-6a34-4390-8b2c-7444df54c960"}</recraft-signature></metadata></svg>