<svg xmlns="http://www.w3.org/2000/svg" height="512" preserveAspectRatio="none" style="display: block;" version="1.1" viewBox="0 0 2048 2048" width="512">
<path d="M 721.605 612.994 L 674.419 613.201 C 582.482 613.476 609.987 542.647 650.006 542.222 C 705.174 541.635 760.358 542.122 815.533 541.988 C 840.717 541.927 872.051 542.9 872.382 576.882 C 870.04 618.476 833.922 613.32 804.399 612.994 C 809.318 630.78 827.817 677.171 835.727 694.304 C 842.421 715.452 856.464 749.605 865.382 770.88 L 962.29 1017.68 C 973.019 1044.53 990.083 1094.29 1002.71 1118.12 C 1020.55 1094.85 1039.43 1074.76 1058.49 1052.93 L 1164.02 933.284 C 1211.9 879.581 1258.71 821.949 1309.23 770.88 C 1313.8 769.537 1318.33 768.19 1322.94 766.963 C 1329.81 784.883 1342.24 817.036 1346.71 835.408 L 1051.16 1177.35 C 1040.71 1189.18 1015.48 1224.45 1001.25 1230.16 C 985.15 1236.62 886.064 1232.28 859.255 1233 C 858.411 1256.31 850.218 1290.45 842.264 1312.84 C 780.008 1488.08 584.764 1578.68 410.074 1515.69 C 234.049 1452.21 146.644 1256.44 210.483 1081.63 C 269.343 920.454 447.401 831.718 611.643 876.352 C 632.172 881.931 650.576 889.484 670.491 896.668 C 689.125 851.265 741.33 785.22 768.903 739.312 C 754.859 697.094 736.114 654.833 721.605 612.994 z M 609.635 993.32 C 580.663 980.336 544.822 973.98 513.009 974.174 C 498.656 977.2 484.496 978.422 470.153 981.828 C 354.35 1009.33 278.223 1129.57 303.241 1245.96 C 335.062 1394 511.421 1474.02 636.415 1395.71 C 701.704 1359.37 736.385 1303.96 751.643 1233 L 587.153 1233.05 C 562.356 1233.05 534.254 1235.8 509.877 1232.01 C 482.262 1227.37 469.768 1192.62 484.815 1169.94 C 491.999 1159.11 503.566 1151.88 510.648 1141.3 C 543.604 1092.05 577.903 1043.36 609.635 993.32 z M 731.363 935.053 C 804.945 991.012 846.609 1067.84 859.728 1157.42 C 859.891 1158.53 864.636 1158.2 865.382 1158.13 C 889.111 1158.17 913.431 1159.22 936.953 1158.13 L 874.154 1001.16 C 866.863 982.689 808.683 828.239 804.399 823.67 C 779.303 857.677 757.097 899.195 731.363 935.053 z M 586.366 1158.13 L 664.48 1158.13 C 691.472 1158.08 720.321 1157.43 747.119 1158.13 C 737.257 1112.12 710.067 1055.46 670.491 1028.45 L 586.366 1158.13 z" fill="rgb(0,0,0)" transform="translate(0,0)"></path>
<path d="M 1229.87 508.439 L 1417.61 508.419 C 1478.41 508.387 1543.08 498.079 1589.57 543.946 C 1643.37 597.016 1633.92 693.294 1563.91 727.271 C 1537.25 740.21 1487.72 746.677 1492.14 702.994 C 1495.39 667.339 1586.76 654.884 1541.74 598.588 C 1526.55 579.6 1504.82 582.94 1483.09 582.939 L 1369.83 582.926 C 1358.43 582.846 1345.47 582.124 1334.3 582.993 L 1433.3 856.661 C 1434.25 859.181 1439.05 872.351 1440.01 873.814 C 1734.22 803.91 1964.95 1122.21 1807.45 1379.42 C 1709.3 1539.7 1500.79 1583.75 1343.28 1483.72 C 1185.29 1383.38 1136.1 1175.08 1238.79 1016.93 C 1267.66 972.478 1322.12 921.906 1371.51 903.007 C 1370.52 895.774 1350.38 843.621 1346.71 835.408 C 1342.24 817.036 1329.81 784.883 1322.94 766.963 C 1318.33 768.19 1313.8 769.537 1309.23 770.88 C 1301.83 769.359 1282 770.727 1273.02 770.81 L 865.382 770.88 C 856.464 749.605 842.421 715.452 835.727 694.304 L 1245.55 694.333 C 1261.09 694.341 1282.92 695.145 1297.72 694.304 L 1251.13 568.823 C 1245.37 552.949 1233.95 523.981 1229.87 508.439 z M 1409.52 1006.56 C 1383.99 1016.49 1355.09 1045.94 1338.51 1067.29 C 1261.83 1165.99 1287.1 1307.47 1386.5 1380.14 C 1488.86 1454.97 1631.56 1432.77 1706.69 1331.59 C 1827.14 1169.39 1683.63 941.478 1478.67 978.383 L 1478.89 979.336 C 1482.62 994.816 1492.12 1016.19 1497.84 1031.8 L 1539.8 1145.27 C 1551.34 1176.22 1575.61 1213.91 1529.37 1231.87 C 1515.2 1236.11 1493.5 1226.15 1487.79 1212.7 C 1459.86 1146.85 1439.1 1069.75 1409.52 1006.56 z" fill="rgb(0,0,0)" transform="translate(0,0)"></path>
<path d="M 1229.87 508.439 L 1417.61 508.419 C 1478.41 508.387 1543.08 498.079 1589.57 543.946 C 1643.37 597.016 1633.92 693.294 1563.91 727.271 C 1537.25 740.21 1487.72 746.677 1492.14 702.994 C 1495.39 667.339 1586.76 654.884 1541.74 598.588 C 1526.55 579.6 1504.82 582.94 1483.09 582.939 L 1369.83 582.926 C 1358.43 582.846 1345.47 582.124 1334.3 582.993 L 1433.3 856.661 C 1434.25 859.181 1439.05 872.351 1440.01 873.814 C 1442.83 883.65 1475.63 976.663 1478.67 978.383 L 1478.89 979.336 C 1482.62 994.816 1492.12 1016.19 1497.84 1031.8 L 1539.8 1145.27 C 1551.34 1176.22 1575.61 1213.91 1529.37 1231.87 C 1515.2 1236.11 1493.5 1226.15 1487.79 1212.7 C 1459.86 1146.85 1439.1 1069.75 1409.52 1006.56 C 1406.96 986.991 1379.41 925.189 1371.51 903.007 C 1370.52 895.774 1350.38 843.621 1346.71 835.408 C 1342.24 817.036 1329.81 784.883 1322.94 766.963 C 1318.33 768.19 1313.8 769.537 1309.23 770.88 C 1301.83 769.359 1282 770.727 1273.02 770.81 L 865.382 770.88 C 856.464 749.605 842.421 715.452 835.727 694.304 L 1245.55 694.333 C 1261.09 694.341 1282.92 695.145 1297.72 694.304 L 1251.13 568.823 C 1245.37 552.949 1233.95 523.981 1229.87 508.439 z" fill="rgb(243,103,81)" transform="translate(0,0)"></path>
<metadata><recraft-signature>{"signed_by": "recraft", "signature_b64": "LZfYfkArKkCyObUL/M9zZVpJL2hr7lhakc6DBk1WkE0cPFQSfbN3barBuMDEldXhAK+ncWBIO7HcloN8FYR2Bw==", "signing_algo": "Ed25519", "generation_timestamp": 1772998534, "identifier": "edf44988-3b1f-4e45-a32a-33a2f462f0d4"}</recraft-signature></metadata></svg>