<svg xmlns="http://www.w3.org/2000/svg" height="512" preserveAspectRatio="none" style="display: block;" version="1.1" viewBox="0 0 2048 2048" width="512">
<path d="M 914.733 1017.93 C 920.345 1017.38 937.276 1017.84 943.93 1017.85 L 1082.88 1017.84 C 1184.15 1017.38 1172.8 1031.02 1205.09 1114.12 L 1415.74 1659.64 C 1432.55 1701.96 1399.61 1750.99 1354.13 1751.53 C 1293.71 1754.88 1281.59 1698.33 1264.56 1653.6 L 1221.28 1539.49 L 1136.5 1539.49 L 826.661 1539.49 C 815.116 1569.77 767.641 1704.99 752.605 1724.96 C 705.159 1787.98 607.147 1729.94 632.014 1661.5 C 640.007 1639.5 648.814 1617.74 657.268 1595.93 L 840.475 1123.63 C 856.417 1083.35 865.583 1025.25 914.733 1017.93 z M 881.001 1401.71 L 1071.56 1401.71 C 1099.57 1401.68 1140.06 1400.32 1166.76 1401.71 C 1157.7 1371.33 1139.06 1327.96 1127.05 1297.71 L 1071.56 1154.3 C 1041.53 1154.29 1005.92 1153.27 976.312 1154.3 C 969.909 1175.4 957.038 1205.29 948.588 1226.69 L 900.048 1351.33 C 893.942 1367.28 885.724 1385.67 881.001 1401.71 z" fill="rgb(0,0,0)" transform="translate(0,0)"></path>
<path d="M 504.783 293.265 C 570.613 286.024 611.276 358.683 565.598 407.756 C 557.774 415.669 548.775 422.522 540.45 429.875 C 337.307 609.304 349.152 956.432 552.611 1134.35 C 600.336 1176.08 591.317 1241.39 525.238 1259.22 C 480.372 1258.11 458.622 1232.49 428.715 1202.37 C 195.581 967.525 196.637 557.827 443.205 332.738 C 464.459 313.335 475.533 299.977 504.783 293.265 z" fill="rgb(0,0,0)" transform="translate(0,0)"></path>
<path d="M 1525.72 293.265 C 1556.64 284.218 1598.08 324.701 1618.54 344.936 C 1858.4 582.291 1845.36 997.306 1598.09 1224.46 C 1578.05 1242.88 1561.28 1258.8 1532.75 1259.22 C 1495.71 1261.19 1462.47 1231.72 1461.03 1194.44 C 1459.66 1158.61 1478.87 1145.03 1503.04 1123.61 C 1714.84 935.943 1707.88 585.545 1486.59 408.08 C 1442.74 372.876 1465.09 296.006 1525.72 293.265 z" fill="rgb(0,0,0)" transform="translate(0,0)"></path>
<path d="M 692.816 481.002 C 722.94 471.785 763.548 503.566 768.229 533.387 C 775.726 581.145 748.921 592.953 720.172 619.414 C 630.727 701.843 632.089 853.133 721.512 934.913 C 736.235 948.378 753.484 957.813 761.098 977.321 C 777.93 1020.45 751.34 1062.6 706.562 1071.54 C 666.493 1078.32 650.822 1054.84 625.434 1031.2 C 489.106 904.237 480.624 677.834 604.275 539.505 C 627.389 513.647 656.164 483.1 692.816 481.002 z" fill="rgb(0,0,0)" transform="translate(0,0)"></path>
<path d="M 1339.86 481.002 C 1377.27 479.324 1386.21 488.829 1412.93 512.497 C 1567.04 648.971 1568.13 903.525 1411.79 1039 C 1392.32 1055.86 1384.65 1063.92 1358.93 1071.54 C 1293.28 1066.59 1254.42 1003.38 1301.01 954.442 C 1309.96 945.609 1319.95 938.247 1329.14 929.608 C 1421.43 842.868 1413.69 692.443 1319.47 610.46 C 1313.02 603.85 1299.48 596.374 1294.58 588.683 C 1263.47 539.877 1286.35 492.093 1339.86 481.002 z" fill="rgb(0,0,0)" transform="translate(0,0)"></path>
<metadata><recraft-signature>{"signed_by": "recraft", "signature_b64": "luy7X3H6K+avD/thC073td7X8V4jbvxXQdqSAEtgEMjA1CJerEhtNnxU7s7bwMK5uQuk1Sm+jq4QFXohcLYBAw==", "signing_algo": "Ed25519", "generation_timestamp": 1772989146, "identifier": "3b102917-a9cb-47e7-9b78-6c1f316ab527"}</recraft-signature></metadata></svg>