<svg xmlns="http://www.w3.org/2000/svg" height="512" preserveAspectRatio="none" style="display: block;" version="1.1" viewBox="0 0 2048 2048" width="512">
<path d="M 475.298 352.002 L 1560.71 351.931 C 1645.76 351.571 1702.37 384.678 1702.72 475.991 L 1702.65 895.321 C 1702.75 1023.6 1664.62 1056.1 1538.43 1056.04 L 1088.88 1056 L 1088.88 1304.71 L 1088.89 1700.47 C 1089.01 1742.87 1094.67 1797.45 1034.06 1796.29 C 977.729 1795.21 960.623 1787.46 960.918 1728.19 L 961.007 1056 L 512.312 1056.04 C 490.857 1056.06 463.509 1057.65 442.772 1053.64 C 331.026 1032.05 347.92 921.939 347.934 837.947 L 347.914 511.474 C 347.884 492.736 346.08 470.931 348.483 453.063 C 357.961 382.582 411.291 354.098 475.298 352.002 z M 475.298 926.341 L 1567.25 926.341 L 1569.79 925.994 C 1571.27 922.463 1570.31 829.184 1570.31 817.046 L 1570.33 481.997 C 1530.75 482.562 1489.91 481.98 1450.23 481.978 L 475.298 481.997 L 475.298 926.341 z" fill="rgb(0,0,0)" transform="translate(0,0)"></path>
<metadata><recraft-signature>{"signed_by": "recraft", "signature_b64": "Dc9YSp2+C5cxxpqK5OinkkyVQadHf8CZXxN1muzUtdc5U2YwfPGlIY/nkuD+kJNSbc6ZCqIsLhArwvDWRG5UBg==", "signing_algo": "Ed25519", "generation_timestamp": 1772998696, "identifier": "477e2204-9cdd-47ef-9b40-b0501e762109"}</recraft-signature></metadata></svg>