<svg xmlns="http://www.w3.org/2000/svg" height="512" preserveAspectRatio="none" style="display: block;" version="1.1" viewBox="0 0 2048 2048" width="512">
<path d="M 396.845 243.031 C 494.626 244.457 596.627 243.035 694.664 243.033 L 1611.21 242.98 C 1693.62 242.691 1705.99 250.384 1706.01 335.583 L 1706.17 1744.84 C 1705.86 1776.74 1680.13 1796.71 1650.64 1800.51 L 457.167 1800.56 C 364.11 1800.66 342.712 1802.14 342.962 1708 L 342.31 297.948 C 342.526 266.23 368.431 248.071 396.845 243.031 z M 458.992 1682.18 L 965.05 1682.18 L 965.05 474.557 C 1004.21 475.522 1045.61 474.244 1085.07 474.557 L 1085.07 978.25 L 1085.08 1607.59 C 1085.08 1629.02 1086.19 1661.54 1085.07 1682.18 L 1588.04 1682.18 L 1588.04 360.99 L 583.643 360.979 C 544.497 360.978 497.675 359.748 458.992 360.99 L 458.992 1682.18 z" fill="rgb(0,0,0)" transform="translate(0,0)"></path>
<metadata><recraft-signature>{"signed_by": "recraft", "signature_b64": "O8pHdbhaUlh0w2dsUrga3r197CKTUpe606OdUZdD3eDw+b/0/8XesJFqcfUtW6Z8KbKRonycnFtW41TzA1/wBQ==", "signing_algo": "Ed25519", "generation_timestamp": 1772998150, "identifier": "16863819-e95a-4aff-b557-8c875bbaf325"}</recraft-signature></metadata></svg>