<svg xmlns="http://www.w3.org/2000/svg" height="512" preserveAspectRatio="none" style="display: block;" version="1.1" viewBox="0 0 2048 2048" width="512">
<path d="M 454.942 238.862 C 535.192 237.799 617.739 238.879 698.184 238.882 L 1545.24 238.814 C 1636.72 238.594 1628.04 244.987 1627.97 326.673 L 1627.97 1759.63 C 1627.9 1785.39 1621.14 1803.31 1593 1805.73 L 598.686 1805.75 C 553.478 1805.76 508.317 1805.91 463.08 1805.44 C 407.083 1815.14 421.439 1716.92 421.48 1685.82 L 421.433 312.771 C 421.233 278.615 413.831 249.995 454.942 238.862 z M 643.001 303.752 L 643.001 1740.93 C 723.27 1739.89 806.033 1740.94 886.5 1740.93 L 1488.03 1740.92 C 1509.1 1740.9 1541.13 1739.73 1561.03 1740.93 L 1561.03 303.752 L 1317.17 303.752 L 715.512 303.774 C 695.881 303.79 661.219 304.935 643.001 303.752 z M 488.001 1740.93 C 524.152 1740.52 560.82 1740.96 597.035 1740.93 C 598.11 1717.49 597.289 1692.43 597.066 1668.99 L 597.035 303.752 L 488.001 303.752 C 486.805 315.064 487.81 331.941 487.933 344 L 487.989 1625.01 C 487.989 1660.33 489.702 1706.9 488.001 1740.93 z" fill="rgb(1,1,1)" transform="translate(0,0)"></path>
<path d="M 898.611 677 C 900.721 676.604 918.639 676.951 921.763 676.959 L 1098.17 676.969 C 1219.68 676.983 1236.05 692.563 1260.78 814.035 L 1307.04 1040.73 C 1311.87 1063.92 1324.33 1106.18 1316.78 1128.35 C 1304.09 1165.59 1244.66 1163.2 1234.8 1135 C 1225.86 1105.74 1221.78 1075.07 1214.94 1045.18 C 1206.12 1006.63 1192.78 967.215 1185.02 928.619 C 1184.72 938.634 1185.35 950.706 1185.27 961.102 L 1185.06 1485.69 C 1185.07 1517.96 1190.68 1554.04 1166.43 1578.87 C 1128.99 1617.23 1060.05 1598.55 1052.59 1543.66 C 1050.56 1528.76 1050.91 1515.92 1050.95 1500.97 L 1051.03 1242.5 L 1051.03 1155.93 C 1035.74 1155.82 1020.31 1155.61 1005.03 1155.93 C 1002.94 1281.69 1006.73 1408.38 1004.88 1534.24 C 1003.79 1608.82 870.002 1642.62 869.967 1509.18 L 869.946 961.656 C 869.756 944.14 868.811 929.618 870.028 912.038 C 851.866 977.559 836.237 1048.21 820.222 1114.25 C 802.996 1185.29 717.735 1157.98 730.677 1100.75 L 797.24 812.514 C 811.9 748.321 815.686 689.234 898.611 677 z" fill="rgb(1,1,1)" transform="translate(0,0)"></path>
<path d="M 1013.48 451.281 C 1073.75 443.279 1129.04 485.787 1136.8 546.088 C 1144.56 606.389 1101.84 661.512 1041.51 669.032 C 981.514 676.509 926.769 634.073 919.052 574.113 C 911.335 514.152 953.551 459.237 1013.48 451.281 z" fill="rgb(1,1,1)" transform="translate(0,0)"></path>
<metadata><recraft-signature>{"signed_by": "recraft", "signature_b64": "UDoLKTTlfy8sX7qE+ol2yzeaDwME1XfN8AN25S6YAkrbpisIjAO1hRybARjcR0Ii4oHv+/V5FrP/6tNuzrIRDg==", "signing_algo": "Ed25519", "generation_timestamp": 1772998178, "identifier": "8952b3e1-784b-4095-8aea-bc9eae19e105"}</recraft-signature></metadata></svg>