<svg xmlns="http://www.w3.org/2000/svg" height="512" preserveAspectRatio="none" style="display: block;" version="1.1" viewBox="0 0 2048 2048" width="512">
<path d="M 985.154 254.914 L 986.39 254.856 C 1282.04 242.075 1531.99 453.562 1554.08 750.336 C 1557.49 796.154 1553.18 842.579 1554.98 888.466 C 1618.45 871.103 1704.52 833.003 1767.49 832.026 C 1841.18 830.882 1823.85 912.542 1811.98 955.393 C 1768.9 1110.81 1687.49 1273.45 1523.73 1324.96 C 1473.45 1504.71 1341.9 1692.81 1163.9 1763.03 C 1126.14 1777.93 1094.88 1783.38 1055.44 1789.51 C 1040.09 1789.29 1024.46 1790.27 1009.12 1789.49 C 781.393 1777.84 606.739 1570.82 537.06 1368.76 C 532.024 1354.15 527.841 1339.09 522.059 1324.96 C 351.613 1253.15 294.985 1138.12 239.365 963.935 C 230.176 935.16 215.438 893.946 230.978 866.173 C 242.752 844.48 271.362 828.706 294.944 832.99 C 354.666 843.838 439.926 866.652 493.013 895.459 L 492.981 804.687 C 492.992 551.619 641.079 336.878 891.837 271.72 C 924.158 263.321 952.633 259.939 985.154 254.914 z M 389.544 990.954 C 425.19 1099.54 502.194 1214.16 627.78 1213.36 C 666.331 1368.59 742.276 1527.89 884.418 1612.55 C 980.416 1669.72 1102.62 1663.96 1190.71 1595.23 C 1326.75 1494.75 1378.28 1368.44 1417.91 1213.36 C 1429.41 1213.5 1448.76 1214.12 1459.34 1212.5 C 1557.47 1197.41 1626.78 1072.85 1659.83 990.954 C 1622.56 1003.62 1583.99 1023.03 1548.36 1040.62 C 1515.67 1056.76 1488.39 1082.36 1448.76 1064.43 C 1374.57 1030.88 1440.44 895.143 1207.25 895.376 L 803.137 895.459 C 749.916 897.81 707.394 916.568 670.028 954.784 C 620.927 1005 621.301 1133.12 497.036 1040.52 C 475.183 1024.24 413.717 994.508 389.544 990.954 z M 627.78 819.008 C 674.4 784.355 742.071 766.404 799.51 766.348 L 1049.5 766.446 L 1182.22 766.371 C 1279.35 766.343 1332.99 765.102 1421 819.008 C 1421.31 789.246 1422.63 754.302 1418.56 725.098 C 1390.25 521.941 1202.09 374.495 999.236 385.984 C 883.71 399.024 789.249 440.861 714.348 535.024 C 643.565 624.008 623.875 708.057 627.78 819.008 z" fill="rgb(50,49,49)" transform="translate(0,0)"></path>
<metadata><recraft-signature>{"signed_by": "recraft", "signature_b64": "DKJe/nsu2EpPHnqx1kLr2jldxiSE9CjaEnHkAdC34TYmQLGmMoNPQfDvGWbUSqP/qMrZ1dRTxAAo2sXTXMVJCw==", "signing_algo": "Ed25519", "generation_timestamp": 1773000181, "identifier": "625dad4d-d6b9-43f9-bc91-f27b7e7f5315"}</recraft-signature></metadata></svg>