<svg xmlns="http://www.w3.org/2000/svg" height="512" preserveAspectRatio="none" style="display: block;" version="1.1" viewBox="0 0 2048 2048" width="512">
<path d="M 1281.1 594.675 C 1252.52 592.558 1162.67 598.848 1143.5 592.337 C 1110.73 581.202 1111.51 515.483 1160.73 511.959 C 1198.11 509.283 1273.46 508.806 1311.37 511.783 C 1346.14 514.513 1351.52 546.063 1361.55 573.298 L 1439.03 781.712 C 1455.79 827.526 1472.65 877.211 1490.59 922.321 C 1631.05 898.191 1765.91 952.968 1834.24 1083.06 C 1960.59 1323.59 1734.63 1600.83 1472.92 1525.12 C 1201.11 1446.49 1160.24 1085.65 1412.96 952.028 C 1403.44 930.539 1393.72 899.051 1385.11 875.718 C 1372.57 887.386 1359.53 901.337 1347.05 913.501 L 1211.48 1047.96 C 1168.75 1090.7 1120.24 1135.84 1079.34 1179.55 C 1167.42 1318.22 963.517 1447.92 875.547 1315.41 C 873.344 1312.1 866.2 1298.08 863.059 1296.96 C 844.355 1294.79 809.272 1291.38 791.605 1292 C 748.092 1490.66 535.744 1592.01 352.234 1506.92 C 197.162 1435.01 131.869 1244.85 206.271 1091.57 C 280.322 939.004 469.038 871.309 623.305 945.171 C 650.978 895.582 687.797 842.026 719.864 795.027 C 706.075 764.497 691.148 734.202 677.909 703.488 C 646.146 704.387 609.513 704.262 577.968 701.515 C 546.785 698.8 532.867 656.342 552.845 633.256 C 569.75 613.722 607.211 619.971 630.471 619.955 L 787.744 619.959 C 801.716 619.969 820.139 618.92 833.471 621.38 C 879.673 629.903 875.713 699.663 828.048 703.088 C 808.971 704.459 789.372 703.591 770.323 703.488 C 776.481 719.187 783.445 735.793 791.605 750.516 L 1280.68 750.522 C 1299.1 750.543 1320.57 751.689 1338.36 750.516 C 1330.78 728.193 1321.5 705.535 1313.3 683.372 L 1281.1 594.675 z M 959.844 1126.19 C 962.989 1130.52 1007.17 1130.83 1011.93 1128.51 C 1042.22 1107.18 1079.79 1062.72 1106.77 1035.17 L 1249.26 892.319 C 1269.04 872.794 1287.89 852.791 1308.29 833.894 L 828.678 833.894 C 872.749 930.063 918.669 1029.25 959.844 1126.19 z M 797.117 1204.45 C 809.054 1204.85 853.609 1206.21 863.059 1208.74 C 868.181 1190.68 874.553 1178.87 887.406 1165 C 877.688 1149.69 859.486 1106.82 851.087 1088.25 L 789.826 956.213 C 781.143 937.294 768.298 904.932 759.09 887.745 C 737.942 921.91 716.443 958.736 691.193 990.136 C 748.489 1041.26 798.84 1125.32 797.117 1204.45 z M 982.547 1292.34 C 1006.53 1289.17 1023.55 1267.37 1020.8 1243.33 C 1018.05 1219.3 996.542 1201.9 972.464 1204.23 C 956.51 1205.78 942.631 1215.81 936.161 1230.48 C 929.691 1245.14 931.639 1262.16 941.254 1274.98 C 950.87 1287.8 966.657 1294.44 982.547 1292.34 z M 712.525 1198.02 C 705.628 1143.14 686.162 1102.58 646.152 1063.7 C 620.075 1103.38 593.343 1143.96 570.552 1185.68 C 594.21 1188.42 618.431 1190.14 641.649 1192.93 C 663.696 1193.45 689.456 1196.87 712.525 1198.02 z M 482.492 999.608 C 272.5 1011.42 183.243 1259.2 339.075 1399.18 C 405.505 1458.86 504.793 1467.58 584.467 1431.97 C 644.392 1402.52 693.183 1347.36 708.434 1281.58 L 707.111 1281.32 C 694.174 1278.84 663.367 1277.48 649.334 1276.38 L 537.952 1267.11 C 506.293 1264.4 442.084 1263.35 455.348 1210.93 C 459.12 1196.02 478.079 1171.46 486.895 1157.73 L 542.505 1071.69 C 554.165 1053.84 567.848 1033.99 578.404 1015.8 C 545.489 1005.34 517.798 998.53 482.492 999.608 z M 1600.61 1240.11 C 1574.28 1248.55 1549.77 1255.14 1523.21 1262.62 C 1503.9 1194.14 1467.98 1097.51 1441.57 1032.83 C 1325.69 1095.55 1296.68 1241.76 1366.76 1350.55 C 1491.03 1522.83 1746.96 1466.73 1782.55 1259.78 C 1806.76 1119.03 1678.05 985.789 1539.04 999.608 C 1531.24 1000.37 1525.81 1000.89 1518.18 1002.51 C 1541.36 1064.42 1587.44 1177.84 1600.61 1240.11 z" fill="rgb(0,0,0)" transform="translate(0,0)"></path>
<path d="M 959.844 1126.19 C 962.989 1130.52 1007.17 1130.83 1011.93 1128.51 C 1030.76 1140.88 1050.13 1146.76 1065.19 1164.62 C 1067.81 1167.73 1076 1179.38 1079.34 1179.55 C 1167.42 1318.22 963.517 1447.92 875.547 1315.41 C 873.344 1312.1 866.2 1298.08 863.059 1296.96 C 860.662 1264.11 845.227 1248.41 863.059 1208.74 C 868.181 1190.68 874.553 1178.87 887.406 1165 C 908.989 1144.44 956.835 1129.56 959.844 1126.19 z M 982.547 1292.34 C 1006.53 1289.17 1023.55 1267.37 1020.8 1243.33 C 1018.05 1219.3 996.542 1201.9 972.464 1204.23 C 956.51 1205.78 942.631 1215.81 936.161 1230.48 C 929.691 1245.14 931.639 1262.16 941.254 1274.98 C 950.87 1287.8 966.657 1294.44 982.547 1292.34 z" fill="rgb(62,61,62)" transform="translate(0,0)"></path>
<path d="M 1460.15 576.057 C 1529.11 576.794 1599.36 576.075 1668.43 576.057 L 1668.47 684.473 C 1668.46 702.932 1667.85 723.057 1668.43 741.338 L 1592.22 741.338 C 1592.81 714.102 1592.22 684.606 1592.22 657.181 L 1460.15 657.181 L 1460.15 576.057 z" fill="rgb(100,164,223)" transform="translate(0,0)"></path>
<metadata><recraft-signature>{"signed_by": "recraft", "signature_b64": "sRiajWRRqIanf+v53SmWKcHGoLoFThbCSp1+LIM7Rs9EnyZ4pBOby6cNdgIPMfYCu8XGc0uO1805+INKB6AwCw==", "signing_algo": "Ed25519", "generation_timestamp": 1772998543, "identifier": "5f2bdd68-2cd6-4692-83ab-0f01b7690b39"}</recraft-signature></metadata></svg>