<svg xmlns="http://www.w3.org/2000/svg" height="512" preserveAspectRatio="none" style="display: block;" version="1.1" viewBox="0 0 2048 2048" width="512">
<path d="M 1009.4 255.599 C 1433.37 247.644 1783.62 584.706 1791.92 1008.67 C 1800.23 1432.64 1463.46 1783.17 1039.5 1791.83 C 615.039 1800.5 264.012 1463.24 255.695 1038.78 C 247.377 614.31 584.922 263.564 1009.4 255.599 z M 1054.51 1652.54 C 1401.77 1635.94 1669.72 1340.8 1652.78 993.556 C 1635.84 646.312 1340.43 378.653 993.205 395.936 C 646.461 413.195 379.255 708.101 396.173 1054.86 C 413.09 1401.62 707.734 1669.12 1054.51 1652.54 z" fill="rgb(26,25,25)" transform="translate(0,0)"></path>
<path d="M 792.769 1185.03 C 900.011 1183.68 1010.63 1185.01 1118.13 1185 L 1216.98 1185.01 C 1245.24 1185.01 1275.28 1180.75 1297.38 1200.36 C 1343.27 1241.07 1320.36 1314.62 1258.25 1319.84 L 839.536 1319.89 C 827.414 1319.9 798.363 1321.27 787.413 1319.11 C 710.017 1303.85 709.879 1195.68 792.769 1185.03 z" fill="rgb(26,25,25)" transform="translate(0,0)"></path>
<path d="M 775.39 767.708 C 836.71 762.978 890.253 808.858 894.975 870.178 C 899.697 931.499 853.81 985.036 792.489 989.75 C 731.179 994.463 677.654 948.587 672.933 887.277 C 668.212 825.968 714.081 772.437 775.39 767.708 z" fill="rgb(26,25,25)" transform="translate(0,0)"></path>
<path d="M 1249.45 769.444 C 1310.17 760.591 1366.57 802.639 1375.41 863.358 C 1384.26 924.076 1342.21 980.469 1281.49 989.31 C 1220.78 998.151 1164.39 956.104 1155.55 895.393 C 1146.7 834.683 1188.74 778.295 1249.45 769.444 z" fill="rgb(26,25,25)" transform="translate(0,0)"></path>
<metadata><recraft-signature>{"signed_by": "recraft", "signature_b64": "zJ7w0pB8/RfgjQ9YKDk76hUagOU5w+H/BemxU0xtETU/ffbgr2Qn8eZs5iGQU5tsBeYwRZwelcbFtZvYBb5XBA==", "signing_algo": "Ed25519", "generation_timestamp": 1772999498, "identifier": "7cd14776-8291-4aa5-a7a8-b26b89fcff82"}</recraft-signature></metadata></svg>