<svg xmlns="http://www.w3.org/2000/svg" height="512" preserveAspectRatio="none" style="display: block;" version="1.1" viewBox="0 0 2048 2048" width="512">
<path d="M 747.736 777.38 C 772.311 777.794 808.923 859.964 818.4 880.55 C 853.691 855.906 927.911 818.313 969.078 797.748 C 975.146 794.717 1078.32 796.072 1080.73 797.316 C 1123.73 819.461 1188.43 858.206 1229.04 880.55 C 1248.4 849.07 1263.36 785.139 1298.03 777.38 C 1313.79 782.017 1318.64 787.728 1322.24 803.471 C 1316.73 829.634 1288.72 871.852 1277 898.602 C 1255.11 930.744 1257.32 954.547 1209.47 929.162 C 1169.75 908.089 1129.54 881.453 1089.39 861.944 C 1088.94 889.818 1090.01 917.807 1089.39 945.78 C 1047.13 946.595 1000.85 946.024 958.414 945.78 C 957.66 917.959 959.301 889.842 958.414 861.944 C 934.618 876.113 834.775 935.383 810.132 941.108 C 799.794 938.938 792.846 936.618 786.914 927.22 C 772.242 903.857 730.099 830.545 722.174 803.471 C 726.737 786.454 729.804 780.864 747.736 777.38 z" fill="rgb(0,0,0)" transform="translate(0,0)"></path>
<path d="M 553.092 991.055 C 587.398 989.355 585.309 1020.74 585.305 1043.97 L 585.344 1174.98 C 585.39 1190.44 585.613 1205.96 585.235 1221.42 C 584.667 1244.59 556.024 1257.88 538.041 1242.37 C 497.754 1202.39 453.661 1145.9 417.199 1102.02 L 417.291 1183.76 C 417.336 1211.83 425.138 1244.29 389.317 1249.73 C 368.433 1247.94 360.955 1235.57 360.934 1216.1 L 360.788 1041.44 C 360.598 1022.47 355.509 992.913 385.879 992.052 C 405.189 992.35 508.2 1125.35 529.035 1146.86 C 532.978 1100.26 508.143 1005.05 553.092 991.055 z" fill="rgb(0,0,0)" transform="translate(0,0)"></path>
<path d="M 1142.96 994.51 C 1173.27 982.186 1239.11 1010.68 1253.75 1039.55 C 1260.85 1053.56 1235.31 1084.47 1216.77 1074.43 C 1204.48 1067.77 1196.41 1057.57 1183.64 1052.02 C 1092.05 1011.54 1040.43 1159.09 1125.99 1190.54 C 1163.63 1204.37 1204.23 1188.13 1218.94 1150.58 C 1203.36 1150.72 1175.23 1153.71 1162.45 1143.81 C 1144.44 1129.87 1153.41 1097.7 1183.25 1096.43 C 1201.01 1096.4 1232.67 1094.38 1248.61 1096.93 C 1304.25 1105.07 1267.49 1193.27 1241 1215.77 C 1107.7 1328.96 949.051 1148.92 1067.51 1026.14 C 1085.65 1007.34 1116.5 993.637 1142.96 994.51 z" fill="rgb(0,0,0)" transform="translate(0,0)"></path>
<path d="M 848.139 994.51 C 881.207 994.431 924.815 990.784 955.107 1002.51 C 1017.37 1026.62 1027.84 1116.01 951.033 1146.86 C 977.444 1173.44 1037.06 1231.87 974.183 1249.73 C 961.404 1246.27 958.904 1245.25 951.033 1234.58 C 927.111 1206.66 908.098 1174.35 883.969 1146.86 C 884.083 1173.4 885.65 1204.6 881.491 1229.99 C 877.154 1256.46 826.407 1258.04 826.507 1216.84 C 826.663 1152.41 825.947 1087.93 826.923 1023.51 C 827.179 1007.14 833.318 1000.22 848.139 994.51 z M 883.969 1105 C 903.594 1105.19 923.278 1108.68 938.26 1096.43 C 945.055 1090.08 946.483 1086.78 946.944 1077.65 C 948.789 1041.17 907.921 1046.25 883.969 1046.45 L 883.969 1105 z" fill="rgb(0,0,0)" transform="translate(0,0)"></path>
<path d="M 1730.65 994.51 C 1774.61 987.773 1768.13 1038.01 1768 1067.29 C 1780.01 1051.5 1792.96 1039.76 1807.66 1025.63 C 1830.32 1003.81 1865.49 965.289 1881.85 1019.23 C 1875.76 1040.93 1858.46 1053.83 1843.09 1069.54 L 1800.07 1114.34 L 1850.94 1168.05 C 1862.97 1180.53 1878.27 1194.66 1888.01 1208.56 C 1901.8 1231.8 1872.01 1261.21 1849.52 1246.03 C 1830.21 1233 1785.55 1178.24 1768 1159.59 C 1767.68 1182.56 1775.89 1230.55 1755.24 1244.79 C 1743.24 1253.07 1718.57 1250.35 1713.29 1234.98 C 1705.83 1213.23 1710.77 1051.57 1710.87 1017.21 C 1710.91 1003.8 1719.38 998.242 1730.65 994.51 z" fill="rgb(0,0,0)" transform="translate(0,0)"></path>
<path d="M 179.713 994.51 C 206.361 991.881 248.624 994.56 277.217 994.299 C 297.958 994.727 340.211 997.866 322.656 1032.42 C 313.359 1050.51 285.236 1046.61 268.516 1046.56 L 213.047 1046.45 L 213.047 1092.98 L 263.896 1092.81 C 341.772 1092.61 310.969 1139.04 296.692 1141.42 C 271.007 1145.68 241.047 1141.21 214.966 1142.85 L 213.047 1142.98 L 213.047 1169.25 L 213.047 1193.11 C 235.004 1193.06 293.876 1190.08 311.516 1196.95 C 333.482 1205.51 328.052 1239.65 307.212 1246.46 C 298.563 1249.28 199.228 1248.9 185.295 1247.83 C 145.733 1244.82 159.208 1198.54 159.132 1166.53 L 159.075 1075.93 C 159.088 1050.96 150.24 1000.22 179.713 994.51 z" fill="rgb(0,0,0)" transform="translate(0,0)"></path>
<path d="M 1475.53 994.51 C 1550.76 983.432 1590.4 1073.89 1534.67 1075.17 C 1512.15 1076.16 1507.14 1049.06 1486.04 1044.96 C 1474.3 1042.69 1455.54 1050.07 1455.97 1063.27 C 1456.76 1087.68 1505.55 1091.61 1523.24 1098.88 C 1615.93 1136.95 1564.91 1263.23 1470.83 1249.73 C 1390.3 1245.67 1367.13 1147.5 1428.63 1157.22 C 1441.8 1159.87 1445.68 1172.91 1451.43 1183.67 C 1462.81 1204.98 1512.73 1196.6 1514.59 1173.14 C 1518.02 1130.01 1389.9 1156.88 1399.05 1059.72 C 1402.55 1022.46 1436.99 990.215 1475.53 994.51 z" fill="rgb(0,0,0)" transform="translate(0,0)"></path>
<path d="M 669.5 994.51 L 731.148 994.42 C 742.459 994.41 758.157 993.441 768.572 995.732 C 797.291 1000.73 797.211 1042.5 768.296 1045.25 C 740.813 1047.86 708.635 1046.52 681.005 1046.45 L 681.005 1092.98 C 704.791 1092.87 731.445 1092.04 755.138 1093.52 C 788.065 1095.56 784.79 1143.69 754.06 1143.4 C 731.063 1143.17 704.084 1143.93 681.005 1142.98 L 681.005 1193.11 C 708.475 1196.12 741.731 1189.53 770.177 1194.72 C 803.296 1200.77 795.813 1243.89 769.997 1246.53 C 735.959 1250.01 699.416 1246.93 664.968 1248.04 C 616.908 1249.62 625.912 1217.6 625.948 1182.83 L 625.958 1102.36 C 625.964 1047.5 606.882 994.219 669.5 994.51 z" fill="rgb(0,0,0)" transform="translate(0,0)"></path>
<path d="M 1013.5 617.604 C 1053.52 611.561 1090.87 639.072 1096.96 679.081 C 1103.06 719.09 1075.6 756.476 1035.6 762.625 C 995.521 768.785 958.05 741.261 951.943 701.177 C 945.835 661.094 973.409 623.659 1013.5 617.604 z" fill="rgb(0,0,0)" transform="translate(0,0)"></path>
<path d="M 1329.77 994.51 C 1370.8 985.509 1359.93 1057.39 1360.08 1080.01 L 1360.07 1167.33 C 1360.07 1197.11 1370.03 1243.05 1334.24 1249.73 C 1296.86 1249.96 1302.95 1215.36 1302.96 1189.11 L 1302.95 1060.28 C 1302.97 1030.63 1294.26 999.778 1329.77 994.51 z" fill="rgb(0,0,0)" transform="translate(0,0)"></path>
<path d="M 1633.17 994.51 C 1663.98 989.985 1665.37 1012.53 1665.41 1035.89 C 1665.53 1098.71 1665.92 1161.56 1665.47 1224.37 C 1665.38 1237.3 1654.06 1245.95 1642.91 1249.73 C 1600.66 1248.43 1609.62 1209.5 1609.59 1176.62 L 1609.57 1109.92 C 1609.57 1074.88 1595.45 1002.49 1633.17 994.51 z" fill="rgb(0,0,0)" transform="translate(0,0)"></path>
<metadata><recraft-signature>{"signed_by": "recraft", "signature_b64": "ac2+uS6Nj+JcGuABqKLKHbop0h6T4SbOysZGjUFPT6+9WWOmMr6/r5753c1cRs3ErpOi23lefW9agKug9RxyBQ==", "signing_algo": "Ed25519", "generation_timestamp": 1773000748, "identifier": "0cbd36ee-c3ef-494a-8c83-53a722f2c852"}</recraft-signature></metadata></svg>