<svg xmlns="http://www.w3.org/2000/svg" height="512" preserveAspectRatio="none" style="display: block;" version="1.1" viewBox="0 0 2048 2048" width="512">
<path d="M 842.121 573.971 L 1786.08 573.51 C 1826.91 574.198 1829.37 589.931 1829.49 627.279 L 1829.54 1407.87 C 1829.54 1416.86 1829.89 1427.03 1829.17 1435.92 C 1825.47 1481.54 1757.09 1471.95 1725.91 1471.94 L 1209.5 1471.9 L 254.484 1472.62 C 235.154 1472.67 219.186 1449.35 219.116 1431.86 L 218.965 645.011 C 218.965 559.232 232.815 573.906 307.905 573.933 L 842.121 573.971 z M 271.032 1418.91 L 1777 1418.91 L 1777 627 L 271.032 627 L 271.032 1418.91 z" fill="rgb(2,1,2)" transform="translate(0,0)"></path>
<path d="M 1346.65 1038.67 C 1351.5 1041.65 1421.12 1148.27 1432.01 1163.09 L 1432.01 1038.67 C 1443.08 1037.95 1460.1 1038.57 1471.62 1038.67 C 1470.52 1102.4 1471.62 1169.5 1471.62 1233.48 L 1432.01 1233.48 L 1429.13 1233.07 C 1414.14 1219.76 1362.26 1132.47 1346.65 1109.43 C 1346.36 1149.68 1345.93 1193.33 1346.65 1233.48 L 1305.86 1233.48 C 1304.95 1214.93 1305.81 1188.02 1305.82 1168.74 L 1305.86 1038.67 C 1319.15 1038.36 1333.28 1038.63 1346.65 1038.67 z" fill="rgb(2,1,2)" transform="translate(0,0)"></path>
<path d="M 605.021 1038.67 L 652.26 1038.67 C 677.352 1076.01 704.648 1123.85 726.463 1163.09 C 725.693 1121.83 727.085 1079.98 726.463 1038.67 L 764.647 1038.67 C 763.297 1101.24 768.74 1171.71 764.607 1232.99 C 762.114 1234.44 759.297 1233.73 756.25 1233.48 C 745.555 1233.81 737.217 1233.85 726.463 1233.48 C 702.009 1190.85 672.969 1136.06 644.02 1098.7 C 644.954 1142.41 644.028 1189.47 644.02 1233.48 C 630.356 1234.09 618.63 1234.08 605.021 1233.48 L 605.021 1038.67 z" fill="rgb(2,1,2)" transform="translate(0,0)"></path>
<path d="M 472.147 1038.67 L 523.233 1038.67 C 526.18 1070.72 575.453 1200.12 587.708 1233.48 C 573.272 1233.54 558.823 1233.67 544.389 1233.48 C 540.077 1223.91 533.018 1186.23 523.233 1184.49 C 503.131 1184.25 482.397 1185.08 462.419 1184.49 L 446.628 1233.48 C 433.425 1234.81 418.578 1233.91 405.218 1233.48 C 409.849 1213.97 422.846 1181.69 429.753 1161 L 454.129 1086.74 C 459.422 1070.89 464.626 1053.49 472.147 1038.67 z M 472.147 1152.18 C 481.102 1152.36 489.324 1152.42 498.274 1152.18 L 518.006 1152.18 C 512.258 1135.47 500.292 1092.71 494.14 1079.62 C 486.961 1098.14 477.806 1132.17 472.147 1152.18 z" fill="rgb(2,1,2)" transform="translate(0,0)"></path>
<path d="M 482.455 798.993 C 492.365 798.587 499.84 798.177 509.785 798.993 C 514.549 809.374 521.782 837.561 524.592 848.819 L 538.264 902.5 C 546.567 864.8 554.362 836.059 565.694 798.993 C 582.982 799.574 598.78 799.528 616.034 798.993 L 616.034 951.797 C 603.818 951.309 593.774 951.458 581.561 951.797 C 581.492 914.753 582.728 875.961 582.448 839.511 L 581.561 839.606 C 568.63 872.538 560.385 916.747 549.092 951.797 C 540.676 951.541 531.695 951.749 523.233 951.797 C 512.689 914.881 499.739 874.441 491.011 837.434 C 489.981 873.852 490.978 915.03 491.011 951.797 L 457.997 951.797 L 457.997 798.993 C 466.175 798.904 474.277 798.939 482.455 798.993 z" fill="rgb(2,1,2)" transform="translate(0,0)"></path>
<path d="M 1130.77 798.993 L 1177.94 798.993 C 1177.1 814.027 1177.86 834.324 1177.89 849.947 L 1177.94 951.797 C 1168.14 952.219 1155.02 951.838 1145.02 951.797 L 1145.02 860.52 L 1145.02 839.606 C 1134.7 876.353 1121.57 915.17 1110.12 951.797 C 1100.45 950.733 1094.4 950.471 1084.84 951.797 L 1063.46 880.029 C 1060.09 869.068 1054.35 849.404 1049.92 839.606 C 1049.4 876.603 1049.98 914.685 1049.92 951.797 C 1040.42 952.069 1029.81 951.623 1019.91 951.797 L 1019.91 798.993 L 1066.97 798.993 C 1078.15 832.428 1088.32 863.675 1098.75 897.495 C 1108.95 861.37 1118.87 834.543 1130.77 798.993 z" fill="rgb(2,1,2)" transform="translate(0,0)"></path>
<path d="M 1471.62 798.993 C 1505.61 798.856 1547.35 793.768 1574.47 817.83 C 1605.7 845.537 1601.06 900.183 1574.93 929.792 L 1573.98 930.77 C 1546.85 958.172 1508.68 951.997 1471.62 951.797 L 1471.62 798.993 z M 1549.4 910.241 C 1578.09 870.94 1562.07 827.996 1504.72 828.994 L 1504.72 923.001 C 1522.47 923.545 1534.72 924.088 1548.66 910.953 L 1549.4 910.241 z" fill="rgb(2,1,2)" transform="translate(0,0)"></path>
<path d="M 1226.26 1038.67 C 1244.14 1038.59 1262.12 1038.4 1279.99 1038.67 C 1277.39 1055.65 1277.63 1057.56 1279.99 1074.82 C 1256.9 1074.85 1219.57 1071.85 1198 1074.82 C 1198.92 1089.02 1198.59 1100.77 1198 1115 C 1223.42 1115.28 1249.29 1115.02 1274.75 1115 C 1274.69 1126.69 1274.6 1138.36 1274.75 1150.05 C 1249.95 1150.66 1223 1150.08 1198 1150.05 L 1198 1197.51 C 1207.4 1197.86 1216.85 1197.63 1226.26 1197.51 L 1279.99 1197.51 L 1279.99 1233.48 L 1156.97 1233.48 C 1155.78 1221.92 1156.92 1186.74 1156.93 1172.68 L 1156.97 1038.67 L 1226.26 1038.67 z" fill="rgb(2,1,2)" transform="translate(0,0)"></path>
<path d="M 1504.72 1038.67 C 1540.66 1035.96 1590.27 1037.86 1626.5 1038.67 L 1626.5 1074.82 L 1546.51 1074.82 C 1545.8 1087.11 1546.37 1102.55 1546.51 1115 L 1618.03 1115 L 1618.03 1146.99 C 1594.88 1147.5 1569.81 1147.02 1546.51 1146.99 L 1546.51 1163.09 C 1546.8 1174.55 1546.61 1186.05 1546.51 1197.51 L 1630.2 1197.51 C 1630.46 1209.18 1630.22 1221.73 1630.2 1233.48 C 1618.77 1234.34 1599.13 1233.56 1587.04 1233.51 L 1504.72 1233.48 L 1504.72 1038.67 z" fill="rgb(2,1,2)" transform="translate(0,0)"></path>
<path d="M 1321.86 798.993 C 1334.9 798.78 1344.46 798.347 1357.64 798.993 C 1375.97 828.892 1393.11 859.643 1409.96 890.385 C 1408.51 866.598 1409.92 824.4 1409.96 798.993 C 1420.15 799.223 1430.78 799.031 1441 798.993 L 1441 951.797 L 1427.93 951.797 C 1422.18 951.321 1415.79 951.662 1409.96 951.797 C 1396.26 933.629 1363.15 869.709 1354.7 849.792 C 1353.82 862.353 1354.5 876.186 1354.59 888.93 L 1354.7 951.797 L 1321.86 951.797 C 1321.05 901.607 1321.88 849.392 1321.86 798.993 z" fill="rgb(2,1,2)" transform="translate(0,0)"></path>
<path d="M 797.27 798.993 C 812.002 798.161 823.049 798.399 837.673 798.993 C 856.226 849.586 872.215 901.559 890.981 951.797 C 879.976 952.499 863.508 951.875 852.18 951.797 C 846.213 938.778 845.203 932.466 842.121 918.52 L 793.315 918.52 C 789.265 929.559 786.52 940.329 782.093 951.797 L 744.916 951.797 C 748.849 935.131 762.915 898.067 768.994 880.122 L 786.785 828.422 C 789.547 820.352 793.718 806.327 797.27 798.993 z M 800.739 887.519 L 816.264 887.519 L 834.68 887.519 C 825.881 870.208 823.242 851.008 816.264 837.434 C 811.419 853.548 806.557 872.037 800.739 887.519 z" fill="rgb(2,1,2)" transform="translate(0,0)"></path>
<path d="M 834.68 1038.67 C 842.329 1034.65 860.217 1037.39 868.505 1038.67 L 868.505 1074.82 C 860.496 1072.95 846.922 1069.28 839.813 1070.01 C 776.141 1076.62 857.362 1133.73 866.827 1155.57 C 887.67 1203.66 862.212 1238.96 812.253 1237.29 C 800.242 1237.19 789.326 1234.6 778.003 1230.88 C 777.155 1221.52 777.887 1202.21 778.003 1192.13 C 828.397 1218.05 856.709 1193.79 811.576 1152.77 C 761.049 1106.86 764.141 1035.05 834.68 1038.67 z" fill="rgb(2,1,2)" transform="translate(0,0)"></path>
<path d="M 887.909 1038.67 C 926.1 1039.99 972.052 1038.61 1011.01 1038.67 L 1011.01 1074.82 C 996.162 1075.4 977.625 1074.84 962.49 1074.82 C 962.068 1113.54 962.486 1153.34 962.49 1192.13 L 962.49 1233.48 L 922.512 1233.48 C 921.639 1221.12 922.418 1198.43 922.404 1185.08 L 922.512 1074.82 L 878.007 1074.82 C 877.731 1060.03 871.592 1040.55 887.909 1038.67 z" fill="rgb(2,1,2)" transform="translate(0,0)"></path>
<path d="M 1019.91 1038.67 C 1031.94 1037.47 1049.84 1038.17 1061.99 1038.67 C 1061.17 1053.42 1061.93 1075.72 1061.94 1091.02 L 1061.99 1197.51 C 1088.54 1197.88 1115.89 1197.53 1142.49 1197.51 C 1142.58 1209.55 1142.67 1221.43 1142.49 1233.48 L 1019.91 1233.48 C 1019.9 1222.91 1019.43 1039.68 1019.91 1038.67 z" fill="rgb(2,1,2)" transform="translate(0,0)"></path>
<path d="M 691.132 796.469 C 711.004 796.167 726.103 800.034 744.916 806.982 C 739.503 817.553 735.88 823.718 733.354 835.209 C 687.397 813.654 657.806 839.814 698.234 857.728 C 765.028 887.326 753.958 951.61 683.032 953.569 C 666.831 952.65 650.298 948.805 635.493 942.118 C 638.638 931.214 641.381 921.304 644.02 910.241 C 700.499 940.91 721.128 905.42 681.952 890.625 C 621.684 867.865 630.231 801.428 691.132 796.469 z" fill="rgb(2,1,2)" transform="translate(0,0)"></path>
<path d="M 344.919 798.993 L 439.047 798.993 C 439.548 809.363 439.584 816.435 439.047 826.779 L 381.848 826.779 C 381.663 837.841 381.831 849.42 381.848 860.52 L 427.996 860.52 L 427.996 887.519 L 381.848 887.519 L 381.848 902.5 L 381.848 923.001 L 439.047 923.001 C 439.205 932.521 439.072 942.258 439.047 951.797 L 344.919 951.797 C 344.26 936.279 344.871 917.007 344.88 901.183 L 344.919 798.993 z" fill="rgb(2,1,2)" transform="translate(0,0)"></path>
<path d="M 1205.86 798.993 L 1297 798.993 L 1297 828.994 C 1277.89 829.223 1258.14 828.996 1238.99 828.994 L 1238.99 860.52 C 1257.12 860.522 1275.25 860.144 1293.37 860.52 C 1293.52 869.388 1293.35 878.604 1293.37 887.519 C 1273.85 888.74 1238.94 878.793 1238.99 897.495 L 1238.99 923.001 L 1297 923.001 C 1297.94 934.233 1298.07 940.636 1297 951.797 C 1273.45 953.964 1230.15 952.686 1205.86 951.797 C 1205.28 935.67 1205.8 916.57 1205.81 900.168 L 1205.86 798.993 z" fill="rgb(2,1,2)" transform="translate(0,0)"></path>
<path d="M 945.143 798.993 C 962.022 796.359 977.571 798.464 992.559 806.982 C 989.427 816.489 986.61 825.631 983.763 835.209 C 971.489 829.476 934.418 819.119 932.667 839.52 C 931.568 852.322 977.877 864.18 987.846 878.565 C 1019.57 916.425 981.211 960.386 929.763 953.569 C 913.847 951.972 903.357 946.58 887.909 942.118 C 890.526 931.547 894.784 920.554 898.49 910.241 C 909.356 914.629 958.782 939.193 961.659 909.231 C 964.338 881.334 883.187 894.535 898.241 831.159 C 903.577 808.695 923.728 798.799 945.143 798.993 z" fill="rgb(2,1,2)" transform="translate(0,0)"></path>
<path d="M 1630.2 801.104 L 1710.42 801.104 C 1707.82 813.583 1708.76 816.09 1710.42 828.994 C 1690.53 828.878 1672.01 830.037 1651.95 828.994 L 1651.95 860.52 L 1701.6 860.52 L 1701.6 890.385 C 1685.43 890.903 1668.51 889.943 1651.95 890.385 L 1651.95 918.52 C 1651.62 928.088 1699.83 922.893 1710.42 923.001 C 1710.3 932.558 1710.4 942.229 1710.42 951.797 C 1702.09 952.407 1687.17 951.92 1678.29 951.9 L 1618.03 951.797 C 1617.16 938.912 1617.97 915.111 1617.98 901.44 L 1618.03 801.104 L 1630.2 801.104 z" fill="rgb(2,1,2)" transform="translate(0,0)"></path>
<metadata><recraft-signature>{"signed_by": "recraft", "signature_b64": "hlbRs2xqNZh8TybcnAulZqrrTxa3hNmHRSw0QAfjt7t2IirGI6lYOga6i/oSUP14Uax/t5xXo1ce9B7XvTiFAA==", "signing_algo": "Ed25519", "generation_timestamp": 1773000609, "identifier": "0d827103-c5e4-4000-b0d9-7d6ee8e1b218"}</recraft-signature></metadata></svg>