<svg xmlns="http://www.w3.org/2000/svg" height="512" preserveAspectRatio="none" style="display: block;" version="1.1" viewBox="0 0 2048 2048" width="512">
<path d="M 233.586 414.001 L 1815 414.001 L 1814.98 1485.65 C 1814.99 1527.26 1813.18 1588.04 1816.21 1628.52 L 1815 1629.73 L 233.586 1629.73 L 233.574 549.729 C 233.576 505.159 232.898 458.399 233.586 414.001 z M 350.221 1513.98 C 363.65 1515 381.655 1514.02 395.719 1514 L 1696.34 1513.98 C 1697.2 1512.12 1696.34 1464.56 1696.33 1458.93 L 1696.31 1123.04 C 1696.3 1111.94 1695.62 1093.31 1696.34 1082.99 C 1679.96 1082.29 1662.74 1082.96 1646.2 1082.98 L 350.221 1082.99 C 349.167 1115.88 350.308 1154.13 350.306 1187.48 L 350.292 1472.76 C 350.352 1483.78 351.074 1503.59 350.221 1513.98 z M 350.221 962.999 L 967.01 962.999 L 967.01 530.954 L 350.221 530.954 C 349.61 582.453 350.225 635.25 350.223 686.873 L 350.221 962.999 z M 1081.95 962.999 L 1625.53 963.01 C 1647.06 963.036 1675.82 964.279 1696.34 962.999 L 1696.34 530.954 L 1081.95 530.954 L 1081.95 962.999 z" fill="rgb(0,0,0)" transform="translate(0,0)"></path>
<metadata><recraft-signature>{"signed_by": "recraft", "signature_b64": "XjdnW8uOsaeNHmp4Ae5NkYvL1o1rNYPv64AVGpvSo3rf1MSMaTkTsixNITJbiI1zGK+OBYIQdymGXc8F06GaDw==", "signing_algo": "Ed25519", "generation_timestamp": 1772997711, "identifier": "5f29b803-0944-49fc-967e-6871025d3b9a"}</recraft-signature></metadata></svg>