<svg xmlns="http://www.w3.org/2000/svg" height="512" preserveAspectRatio="none" style="display: block;" version="1.1" viewBox="0 0 2048 2048" width="512">
<path d="M 1035 981.965 C 1035.48 981.941 1035.95 981.918 1036.43 981.894 L 1476.75 981.924 C 1508.71 981.92 1540.84 980.291 1572.18 986.318 C 1686.19 1008.24 1761.41 1109.63 1761.47 1222.65 L 1761.57 1660.01 C 1761.7 1740.76 1760.31 1768.18 1671.62 1768.1 L 1389 1768.04 L 1389 1657.93 L 1650.51 1657.93 L 1650.56 1253.24 C 1650.56 1168.28 1629.72 1098.78 1526.75 1090.44 C 1513.39 1089.58 1491.61 1090.4 1477.35 1090.4 L 1078.68 1090.4 C 961.346 1090.8 935.369 1153.9 935.375 1258.98 L 935.403 1657.93 C 965.551 1656.89 1001.52 1657.9 1032.17 1657.91 L 1226 1657.93 C 1225.14 1693.46 1225.96 1732.25 1226 1768.04 L 919.223 1768.08 C 878.256 1768.11 827.022 1770.2 823.629 1712.54 C 821.268 1672.4 824.123 1630.73 823.743 1590.44 L 823.012 1243.08 C 822.98 1109.34 891.184 998.207 1035 981.965 z" fill="rgb(0,0,0)" transform="translate(0,0)"></path>
<path d="M 1128.78 278.999 C 1138.71 277.786 1157.22 278.837 1167.39 278.907 L 1337.56 278.96 C 1426.42 278.829 1508.72 291.496 1531.78 399.546 C 1537.31 425.426 1535.15 461.326 1535.09 488.486 L 1535.15 674.002 C 1535.78 771.53 1498.69 835.766 1397.23 858.003 L 1227.13 858.013 C 1195.82 858.053 1155.41 860.071 1125.51 855.024 C 1065.33 844.865 1008.06 792.104 996.651 731.608 C 992.068 707.312 993.794 683.431 993.902 658.686 L 993.93 471.802 C 993.904 371.296 1017.69 300.088 1128.78 278.999 z M 1382.54 750.932 C 1434.47 741.154 1424.97 687.379 1424.99 647.429 L 1424.99 474.734 C 1424.89 397.564 1420.63 386.941 1342.1 386.931 L 1182.23 386.941 C 1175.63 386.941 1154.43 386.361 1149.08 386.975 C 1097.64 396.756 1107.45 447.723 1107.44 487.352 L 1107.49 667.275 C 1107.54 717.424 1107.46 750.591 1166.56 750.851 L 1382.54 750.932 z" fill="rgb(0,0,0)" transform="translate(0,0)"></path>
<path d="M 339.867 1094 L 657.139 1094 C 657.181 1118.77 653.161 1185.38 657.139 1205.59 C 571.731 1205.61 483.328 1204.39 398.172 1205.59 L 398.172 1657.93 C 451.436 1658.76 507.052 1657.95 560.5 1657.93 L 657.139 1657.93 C 657.802 1668.32 657.174 1682.5 657.183 1693.32 L 657.139 1768.04 C 582.36 1766.62 502.725 1768.05 427.541 1768.03 L 374.997 1768.25 C 279.552 1769.01 286.986 1730.27 286.988 1648.49 L 286.957 1188.04 C 286.865 1144.8 282.724 1100.88 339.867 1094 z" fill="rgb(0,0,0)" transform="translate(0,0)"></path>
<metadata><recraft-signature>{"signed_by": "recraft", "signature_b64": "yfLQeT+qbRxK2NWULoKXNN8kKOJfDW4fGeCI/opcvNo4CBIdyQCBNeActAPV4S3rvT8L4pVyxdlV+YWIlJuHBw==", "signing_algo": "Ed25519", "generation_timestamp": 1772997975, "identifier": "16d115d6-ddb9-4135-9323-3902956e07c2"}</recraft-signature></metadata></svg>