<svg xmlns="http://www.w3.org/2000/svg" height="512" preserveAspectRatio="none" style="display: block;" version="1.1" viewBox="0 0 2048 2048" width="512">
<path d="M 515.737 449.4 C 566.497 443.051 586.931 505.475 607.168 541.709 L 667.8 649.48 C 674.13 660.999 684.057 683.778 692.514 692.519 C 698.154 698.35 872.877 774.726 897.314 785.082 C 978.284 740.811 1069.56 737.854 1150.48 785.082 C 1212.19 752.374 1294.39 720.188 1359.21 692.861 C 1380.69 646.192 1407.14 603.388 1431.83 558.708 L 1459.18 508.245 C 1468.57 490.892 1477.9 469.809 1495.48 459.675 C 1527.72 441.084 1570.17 455.673 1585.77 489.047 C 1601.74 523.188 1580.92 547.103 1564.92 576.03 L 1481.2 729.291 C 1468.42 752.314 1457.27 779.755 1432.86 791.969 C 1359.34 828.748 1280.93 858.843 1207.82 895.962 C 1207.09 913.502 1207.77 935.739 1207.78 953.736 L 1207.75 1141.64 C 1207.72 1153.14 1206.41 1189.64 1209.94 1198.56 C 1229.98 1248.99 1255.24 1297.42 1276.05 1347.48 C 1331.27 1480.31 1326.61 1448.98 1293.43 1583.1 L 1250.29 1757.71 C 1220.68 1843.79 1100.25 1824.56 1096.83 1737.27 C 1096.18 1720.67 1110.4 1675.27 1115.1 1656.92 L 1140.51 1554.96 C 1147.64 1526.45 1154.39 1502.69 1159.69 1473.54 C 1132.43 1407.15 1092.1 1319.03 1058.82 1255.78 C 1033.98 1255.87 1008.3 1255.04 983.612 1255.78 C 975.941 1308.45 966.117 1362.76 957.238 1415.31 L 925.148 1607.03 C 916.704 1656.19 910.691 1707.67 899.874 1756.44 C 880.018 1833.36 754.344 1827.28 749.537 1743.82 C 747.69 1711.76 764.923 1633.63 770.619 1600.18 L 828.281 1248.81 C 838.778 1188.56 837.668 1152.94 837.663 1091.54 L 837.699 895.962 L 629.301 801.001 C 590.631 783.145 577.617 750.36 558.171 714.882 L 464.154 546.823 C 439.633 502.797 468.179 455.515 515.737 449.4 z" fill="rgb(32,30,30)" transform="translate(0,0)"></path>
<path d="M 1007.5 383.59 C 1094.74 374.116 1173.17 437.074 1182.8 524.297 C 1192.42 611.52 1129.59 690.061 1042.39 699.831 C 954.971 709.625 876.2 646.616 866.554 559.184 C 856.909 471.752 920.051 393.088 1007.5 383.59 z" fill="rgb(32,30,30)" transform="translate(0,0)"></path>
<path d="M 1289.59 229.217 C 1336.5 226.593 1433.12 385.855 1370.61 407.447 C 1323.95 407.66 1355.34 340.323 1296.92 288.973 C 1279.3 273.494 1243.91 242.457 1289.59 229.217 z" fill="rgb(32,30,30)" transform="translate(0,0)"></path>
<path d="M 1231.33 291.006 C 1267.44 289.452 1343.07 405.256 1286.46 423.334 C 1251.35 425.12 1261.27 396.206 1250.68 374.215 C 1237.98 347.848 1174.15 309.477 1231.33 291.006 z" fill="rgb(32,30,30)" transform="translate(0,0)"></path>
<metadata><recraft-signature>{"signed_by": "recraft", "signature_b64": "VqU2CjFJDL66UfzDxZs4nfVe/BUICzguWp19XEyio7jQANE2FE+ZQPFYMUNvvZPEGhaR4QKp3yLWrW0Z+8WLAg==", "signing_algo": "Ed25519", "generation_timestamp": 1773000738, "identifier": "48c5b0f7-d96c-4e01-a61e-8bc20548b77d"}</recraft-signature></metadata></svg>