<svg xmlns="http://www.w3.org/2000/svg" height="512" preserveAspectRatio="none" style="display: block;" version="1.1" viewBox="0 0 2048 2048" width="512">
<path d="M 498.911 391.269 C 499.454 391.207 499.998 391.144 500.542 391.082 L 1500.14 391.218 C 1522.29 391.175 1543.07 390.33 1565.24 393.37 C 1678.16 408.853 1714.67 493.465 1719.1 592.551 L 1754.92 1308.48 C 1756.79 1351.63 1760.16 1394.62 1761.2 1437.94 C 1763.13 1518.51 1706.18 1597.5 1624.57 1611.14 C 1598 1615.58 1552.53 1614.05 1524.5 1614.05 L 1348.5 1614.03 C 1236.52 1614.06 1198.86 1599.4 1198.91 1478.43 L 1199 1409.89 L 848.999 1409.89 L 849.06 1476.37 C 849.26 1571.38 829.614 1614.42 725.681 1614.04 L 509.221 1613.97 C 488.026 1614.04 455.332 1615.33 435.012 1613 C 357.524 1604.13 296.26 1540.37 287.461 1463.16 C 285.002 1441.58 287.249 1420.09 288.277 1398.52 L 332.739 592.598 C 338.032 484.39 375.426 404.441 498.911 391.269 z M 530.265 589.512 C 526.562 622.202 525.934 662.95 524.186 696.138 L 492.43 1339.71 C 491.474 1363.11 489.869 1386.48 490.072 1409.89 L 639.699 1409.89 L 639.679 1337.2 C 639.634 1230.35 661.783 1198.65 771.938 1198.73 L 1283.66 1198.83 C 1296.05 1198.84 1320.88 1199.66 1332.3 1198.79 C 1399.71 1231.66 1405.15 1256.11 1405.07 1331.66 L 1405 1409.89 L 1562.07 1409.89 C 1563.64 1389.21 1560.56 1351.58 1559.29 1329.59 L 1522.15 647.984 C 1521.18 631.328 1518.87 605.477 1518.96 589.512 L 730.061 589.512 L 530.265 589.512 z" fill="rgb(0,0,0)" transform="translate(0,0)"></path>
<metadata><recraft-signature>{"signed_by": "recraft", "signature_b64": "Wqma1diX5KwnLd0ONiD57tUntxXFc/Zvq0ga5hBtUsycpC7XwkaRaMs67yIavN7rWrRkdVhbKRRlmD2sT/1aCw==", "signing_algo": "Ed25519", "generation_timestamp": 1772999832, "identifier": "badc94d4-82a4-41d2-94db-07759fc07371"}</recraft-signature></metadata></svg>