<svg xmlns="http://www.w3.org/2000/svg" height="512" preserveAspectRatio="none" style="display: block;" version="1.1" viewBox="0 0 2048 2048" width="512">
<path d="M 637.001 381.478 L 1524.08 381.503 C 1646.27 380.798 1746.7 476.697 1747.11 600.487 L 1747.13 1384.43 C 1747.14 1415.62 1748.94 1458.56 1743.82 1487.96 C 1728.99 1573.17 1659.39 1640.08 1576.76 1659.79 C 1549.27 1666.34 1527.89 1665.09 1500.17 1665.1 L 1243.36 1665.41 C 1191.18 1665.36 1150.65 1627.06 1150.82 1574.08 L 1150.82 1318.51 L 894.972 1318.51 L 895.014 1498.22 C 895.013 1528.8 898.253 1569.08 892.3 1597.82 C 883.975 1638 847.577 1665.29 807.254 1665.18 L 563.459 1665.12 C 530.893 1665.13 502.234 1666.35 470.027 1658.31 C 384.838 1637.03 317.148 1566.18 302.779 1479.14 C 297.81 1449.05 299.924 1411.3 299.953 1380.18 L 299.586 609.482 C 299.193 493.278 382.531 394.607 499.493 383.026 C 519.122 381.083 538.717 381.463 558.34 381.453 L 637.001 381.478 z M 724.372 1496.49 L 724.414 1345.39 C 724.404 1315.77 721.862 1277.24 727.609 1249.28 C 743.843 1170.29 810.302 1149.11 879.629 1149.1 L 1187.17 1149.13 C 1227.6 1149.33 1256.71 1160.36 1286.03 1188.78 C 1333.15 1234.46 1325.12 1290.43 1325 1351.5 L 1325 1496.49 L 1461.16 1496.44 C 1522.52 1496.43 1580.12 1506.46 1580.14 1422.66 L 1580.12 630.215 C 1580.71 559.224 1558.83 551.09 1492.53 551.195 L 746.687 551.263 C 673.876 551.261 599.323 550.333 526.716 551.261 C 460.306 558.88 470.903 613.869 470.914 662.671 L 470.902 1408.03 C 470.888 1460.36 476.881 1493.9 536.763 1496.13 C 598.822 1498.44 662.432 1494.52 724.372 1496.49 z" fill="rgb(0,0,0)" transform="translate(0,0)"></path>
<metadata><recraft-signature>{"signed_by": "recraft", "signature_b64": "vFRzn/GU2iTkww70ROp1XV8rxiGkVbDG9DxRD1J+8aPUES7Rn8Me3WR4pU2D6ZkSQGPIe26DyMjBejBR6wC5CQ==", "signing_algo": "Ed25519", "generation_timestamp": 1772989383, "identifier": "95681d18-3eb3-40ed-9336-57c0dc9b5596"}</recraft-signature></metadata></svg>