<svg xmlns="http://www.w3.org/2000/svg" height="512" preserveAspectRatio="none" style="display: block;" version="1.1" viewBox="0 0 2048 2048" width="512">
<path d="M 362.81 299.892 C 371.045 299.05 397.999 299.816 407.572 299.826 L 1677.25 300.144 C 1754.61 300.744 1749.11 375.104 1749.04 427.711 L 1749 1593.07 C 1749.02 1656.65 1765.68 1725.91 1687.23 1748 L 420.011 1748 C 327.168 1748.32 300.689 1742.67 300.808 1641.53 L 300.849 466.707 C 300.827 406.32 282.247 310.873 362.81 299.892 z M 1065.54 469.363 L 1065.54 939.284 L 1536.39 939.284 L 1579.44 939.284 C 1580.62 919.598 1579.45 886.323 1579.44 865.481 L 1579.45 550.927 C 1579.46 526.503 1580.64 492.798 1579.44 469.363 L 1107.99 469.363 L 1065.54 469.363 z M 470.997 1107.99 L 470.997 1580.07 C 483.91 1580.97 492.378 1580.69 505.25 1580.07 L 847.938 1580.11 C 863.605 1580.15 879.592 1580.76 895.187 1580.07 C 896.288 1527.72 895.18 1470.93 895.182 1418.25 L 895.187 1107.99 C 883.57 1107.39 875.046 1107.59 863.499 1107.99 L 470.997 1107.99 z M 1065.54 1107.99 L 1065.54 1580.07 C 1114.1 1582.2 1189.67 1583.72 1238.54 1580.07 L 1238.54 1240.43 C 1294.54 1240.92 1353.32 1239.18 1408.91 1240.43 L 1408.91 1401.75 L 1408.91 1580.07 C 1426.15 1579.24 1447.88 1580.05 1465.65 1580.06 L 1579.44 1580.07 L 1579.42 1265.8 C 1579.42 1213.7 1578.74 1159.99 1579.44 1107.99 L 1065.54 1107.99 z M 895.187 469.363 L 474.624 469.363 L 470.547 469.736 C 468.796 472.068 471.063 522.932 471.061 530.809 L 470.936 893.94 C 470.869 906.915 469.949 926.966 470.997 939.284 L 890.25 939.284 L 894.055 939.004 C 896.087 934.968 895.137 854.712 895.143 844.479 L 895.211 529.343 C 895.214 511.09 895.951 487.176 895.187 469.363 z" fill="rgb(0,0,0)" transform="translate(0,0)"></path>
<metadata><recraft-signature>{"signed_by": "recraft", "signature_b64": "dL4Zc8gIkAKKnXxmzEoJr2mPQ4VAv0yUXdSgIqc0050w0EGWiMa8TbaabB2Len4MXAqNvw42CwNyYsn3mH6+BA==", "signing_algo": "Ed25519", "generation_timestamp": 1772998799, "identifier": "3bfae651-9f58-475d-8e07-d5f722d5a6b3"}</recraft-signature></metadata></svg>