<svg xmlns="http://www.w3.org/2000/svg" height="512" preserveAspectRatio="none" style="display: block;" version="1.1" viewBox="0 0 2048 2048" width="512">
<path d="M 368.324 295.984 L 900.372 295.918 C 936.374 295.811 973.967 289.046 1001.74 316.938 C 1043.73 358.615 1022.16 434.883 962.542 444.305 C 949.449 446.374 925.944 445.003 911.973 445.007 L 446.02 444.996 L 446.02 1599 C 466.295 1600.12 497.747 1599.04 519.04 1599.03 L 669.5 1599 L 919.441 1598.96 C 931.444 1598.96 942.631 1598.75 954.769 1599.79 C 1044.08 1607.46 1036.32 1743.81 953.982 1748.68 C 924.451 1750.42 892.469 1749.59 862.73 1749.56 L 408.865 1749.6 C 301.482 1749.55 295.128 1723.2 295.202 1616.86 L 295.212 456.622 C 295.216 389.051 278.007 304.628 368.324 295.984 z" fill="rgb(0,0,0)" transform="translate(0,0)"></path>
<path d="M 1310.88 295.984 L 1639.02 295.962 C 1653.69 295.932 1668.29 295.68 1682.94 296.242 C 1766.14 299.435 1753.38 393.43 1753.32 449.802 L 1753.34 719.562 C 1753.35 740.403 1753.95 761.809 1753.17 782.543 C 1751.09 838.278 1692.82 865.881 1643.09 843.644 C 1599.55 818.945 1601.98 783.864 1602.02 739.775 L 1602.07 444.996 C 1491.79 444.735 1381.43 445.257 1271.15 445.009 C 1201.75 445.944 1161.02 365.257 1212.89 316.693 C 1240.86 290.504 1275.59 295.019 1310.88 295.984 z" fill="rgb(0,0,0)" transform="translate(0,0)"></path>
<path d="M 1670.81 1187.34 C 1710.76 1182.42 1749.65 1214.47 1753.4 1254.4 C 1757.29 1295.8 1732.6 1316.07 1706.28 1342.18 L 1337.02 1711.33 C 1315.77 1732.72 1307.75 1745.95 1275.56 1749.56 C 1213.31 1754.28 1171.22 1690.23 1202.27 1634.22 C 1206.15 1627.21 1221.43 1612.93 1227.66 1606.69 L 1613.99 1221.19 C 1635.75 1199.55 1639.73 1192.73 1670.81 1187.34 z" fill="rgb(0,0,0)" transform="translate(0,0)"></path>
<metadata><recraft-signature>{"signed_by": "recraft", "signature_b64": "e7P/Qkiub4h5S/gknuN7IxzUscTX3W3M743x8IgmwMOBIctrQ/rRkSawgNtmFlV0HHf9mKXBXQSxcnQD68oQBA==", "signing_algo": "Ed25519", "generation_timestamp": 1773000371, "identifier": "05b23a13-ccca-4146-8255-59c1c754b9dd"}</recraft-signature></metadata></svg>