<svg xmlns="http://www.w3.org/2000/svg" height="512" preserveAspectRatio="none" style="display: block;" version="1.1" viewBox="0 0 2048 2048" width="512">
<path d="M 1187.41 253.221 C 1187.78 253.207 1188.15 253.194 1188.52 253.181 L 1453.61 253.153 C 1489.45 253.153 1507.04 250.052 1533.92 277.25 C 1579.15 323.003 1623.1 369.834 1667.65 416.226 L 1718.72 469.469 C 1769.44 522.423 1762.42 513.896 1762.32 587.223 L 1762.58 984.888 C 1763 1072.69 1646.49 1083.3 1631.09 999.674 C 1628.11 983.462 1631.14 952.579 1631.11 934.75 L 1631.11 860.968 L 1259.08 860.968 C 1258.63 901.713 1259.4 942.541 1259.13 983.295 C 1256.72 1079.9 1143.15 1074.71 1129.01 1003.61 C 1127.2 994.504 1127.99 980.009 1127.99 970.613 L 1127.94 365.973 C 1127.94 314.756 1120.45 261.96 1187.41 253.221 z M 1259.08 732.044 L 1506.68 732.024 C 1547.07 732.02 1591 731.161 1631.11 732.044 L 1632.28 731.6 C 1633.22 718.822 1631.05 704.386 1631.04 691.35 L 1631.11 567.068 C 1623.15 557.363 1614.2 549.015 1605.6 539.939 C 1556.46 488.125 1504.99 430.731 1453.89 381.557 L 1262.38 381.557 L 1260.39 382.373 C 1257.28 391.79 1259.1 465.574 1259.1 481.909 L 1259.08 732.044 z" fill="rgb(21,20,21)" transform="translate(0,0)"></path>
<path d="M 517.921 1149.75 L 643.922 1149.71 C 671.252 1149.71 702.675 1148.4 729.51 1151.09 C 827.709 1160.91 918.321 1234.81 940.194 1332.3 C 947.153 1363.32 945.995 1389.67 946 1420.93 L 946.555 1733.1 C 946.662 1799 884.954 1794.91 840.175 1794.82 L 715.5 1794.86 L 349.943 1794.91 C 277.764 1795.23 287.144 1720.46 287.162 1671.73 L 287.178 1448.7 C 287.172 1414.27 286.349 1373.67 293.193 1339.93 C 314.788 1233.48 410.025 1155.08 517.921 1149.75 z M 416.969 1662.72 L 715.5 1662.72 L 817.612 1662.72 L 817.61 1474.52 C 817.624 1402.43 827.776 1297.69 728.256 1281.39 C 685.198 1274.34 567.427 1277.5 521.446 1279.27 C 430.821 1291.24 416.161 1357.67 416.912 1435.53 L 416.969 1662.72 z" fill="rgb(21,20,21)" transform="translate(0,0)"></path>
<path d="M 592.904 554.573 C 731.835 542.601 854.115 645.641 865.871 784.59 C 877.627 923.539 774.397 1045.66 635.429 1057.2 C 496.767 1068.71 374.974 965.759 363.244 827.115 C 351.514 688.471 454.279 566.518 592.904 554.573 z M 629.569 928.086 C 673.73 922.954 711.729 894.495 729.078 853.563 C 746.427 812.63 740.45 765.533 713.428 730.23 C 686.405 694.928 642.502 676.862 598.459 682.922 C 531.352 692.156 484.187 753.695 492.714 820.897 C 501.242 888.098 562.282 935.907 629.569 928.086 z" fill="rgb(21,20,21)" transform="translate(0,0)"></path>
<metadata><recraft-signature>{"signed_by": "recraft", "signature_b64": "mJNtGNCLCKBc4eBfN7BMOLbIsP8R5JRWtIFrOpCMT1Wcw6dKnlihce+Wb3JPWMvrQ9hmJugF69f+J/mebr6uAQ==", "signing_algo": "Ed25519", "generation_timestamp": 1772989364, "identifier": "892f3f30-cfe4-4088-aab9-c9b20b7e2e28"}</recraft-signature></metadata></svg>