<svg xmlns="http://www.w3.org/2000/svg" height="512" preserveAspectRatio="none" style="display: block;" version="1.1" viewBox="0 0 2048 2048" width="512">
<path d="M 305.802 251.265 C 353.539 246.922 424.17 335.888 457.841 369.394 L 1770.05 1679.58 C 1811.18 1720.58 1797.92 1782.04 1743.97 1793.71 C 1704.75 1802.77 1679.43 1768.26 1654.97 1743.66 L 310.678 397.216 C 291.451 378.377 259.213 353.413 254.002 327.028 C 246.154 287.286 267.97 259.023 305.802 251.265 z" fill="rgb(0,0,0)" transform="translate(0,0)"></path>
<path d="M 394.334 704.492 L 476.49 704.492 L 476.493 1467.67 C 476.496 1500.98 477.143 1536.12 476.49 1569.25 L 1311.14 1569.25 L 1311.14 1694.97 L 1275.33 1694.97 L 571.147 1695.01 C 504.019 1695.04 437.26 1706.33 386.814 1651.07 C 342.577 1602.61 351.987 1544.39 352.017 1484.53 L 351.97 766.461 C 351.955 746.495 351.147 724.175 351.981 704.492 L 394.334 704.492 z" fill="rgb(0,0,0)" transform="translate(0,0)"></path>
<path d="M 752.126 352.407 L 1489.6 352.368 C 1643.67 352.374 1697.01 378.12 1697.02 537.292 L 1696.99 1276.69 C 1697.01 1295.32 1704.07 1313.33 1686.84 1313.05 L 1571.02 1313.05 L 1571.02 477.006 C 1541.06 477.639 1508.86 477.018 1478.66 477.016 L 736.876 477.006 C 735.955 436.725 736.854 392.936 736.876 352.407 L 752.126 352.407 z" fill="rgb(0,0,0)" transform="translate(0,0)"></path>
<metadata><recraft-signature>{"signed_by": "recraft", "signature_b64": "oyu7zOt5inU9eGyex7DfvqS3UTu7J2RzOgTCbo44WY31XiEoM+S9WMn5E0Jpy1F+m+E0w4stVor0gVCrdaCGCg==", "signing_algo": "Ed25519", "generation_timestamp": 1773000849, "identifier": "ee8e7180-3bfa-4b55-94f4-a956182debc9"}</recraft-signature></metadata></svg>