<svg xmlns="http://www.w3.org/2000/svg" height="512" preserveAspectRatio="none" style="display: block;" version="1.1" viewBox="0 0 2048 2048" width="512">
<path d="M 457.407 302.003 C 492.738 301.023 532.366 301.978 568.074 301.991 L 896.082 301.972 C 935.976 301.979 967.161 295.806 998.463 324.288 C 1047.38 368.797 1024.16 447.281 961.318 461.58 C 948.351 464.531 923.129 463.09 909.214 463.071 L 583.765 463.003 C 544.392 463.006 502.79 462.227 463.684 463.007 C 462.395 500.472 463.679 546.475 463.681 584.522 L 463.684 1581 C 519.074 1582.38 580.376 1581 636.227 1580.99 L 1309.41 1580.99 C 1360.3 1580.98 1418.18 1582.45 1468.57 1581 C 1463.06 1574.1 1454.86 1566.14 1448.47 1559.73 C 1391.51 1502.55 1334.08 1445.77 1277 1388.71 C 1246.52 1358.24 1195.49 1322.02 1194.74 1276.77 C 1193.09 1233.48 1226.58 1196.91 1270.18 1195.17 C 1313.01 1193.46 1341.32 1231.18 1369.43 1258.81 L 1466.68 1354.32 C 1505.91 1394.49 1545.3 1433.01 1586.05 1471.64 L 1586.06 1174.36 C 1586.08 1146.5 1584.19 1121.4 1602.51 1098.21 C 1646.83 1042.08 1736 1068.63 1743.79 1139.34 C 1746.39 1162.99 1745.04 1188.06 1745.04 1211.71 L 1745.01 1512.72 C 1745.01 1543.15 1746.76 1581.64 1742.44 1611.05 C 1732.75 1676.98 1669.2 1734.89 1603.35 1741.59 C 1580.47 1743.92 1554.7 1743.07 1531.28 1743.02 L 521.348 1742.99 C 499.648 1743.04 474.916 1744.18 453.569 1742.26 C 377.586 1735.33 313.368 1669.15 306.143 1593.66 C 303.942 1570.67 304.992 1544.31 305.025 1520.97 L 305.025 513.841 C 305.026 497.878 304.968 481.895 305.145 465.937 C 306.136 376.43 369.393 311.411 457.407 302.003 z" fill="rgb(0,0,0)" transform="translate(0,0)"></path>
<path d="M 1540.5 302.003 C 1552.89 302.114 1565.26 301.585 1577.43 301.441 C 1673.36 300.308 1744.79 375.114 1745.02 470.368 L 1745.01 865.519 C 1745.01 869.808 1744.65 878.198 1744.99 882.05 C 1753.26 975.359 1637.78 1015.09 1593.42 930.124 C 1583.96 912.01 1586.08 890.236 1586.07 870.22 L 1586.05 801.398 C 1586.03 726.866 1584.71 648.304 1586.05 574.27 C 1527.35 626.221 1459.16 699.075 1402.98 755.662 C 1380.78 777.976 1358.26 800.534 1336.08 822.797 C 1284.02 874.85 1194.46 835.624 1197.7 762.005 C 1199.26 726.391 1230.11 703.717 1253.55 679.82 L 1394.11 535.87 C 1416.88 512.268 1442.37 484.814 1466.68 463.007 L 1300.18 463.034 C 1277.29 463.036 1230.87 465.625 1211.74 460.736 C 1130.27 439.913 1132.88 317.433 1218.23 303.518 C 1232.81 301.143 1246.16 301.985 1260.2 301.979 L 1540.5 302.003 z" fill="rgb(0,0,0)" transform="translate(0,0)"></path>
<metadata><recraft-signature>{"signed_by": "recraft", "signature_b64": "KW9GjP4hd4zq6btysbBUi9alV0kpfC1o7plwV9Gzk2YwQ+A76MmJ3HKm2CrX6FfzgD+u/dGXn1KEFWGNf4tXDQ==", "signing_algo": "Ed25519", "generation_timestamp": 1772999971, "identifier": "04e798f9-e987-4079-9e21-b79d5cc94529"}</recraft-signature></metadata></svg>