<svg xmlns="http://www.w3.org/2000/svg" height="512" preserveAspectRatio="none" style="display: block;" version="1.1" viewBox="0 0 2048 2048" width="512">
<path d="M 1098.13 350.981 C 1193.31 346.857 1219.79 404.33 1268.26 472.375 L 1797.75 1210.82 C 1805.56 1221.46 1815.6 1233.45 1821.57 1245.13 C 1865.59 1331.24 1747.96 1404.22 1688.86 1331.65 L 1124.42 552.623 C 1116.33 541.685 1103.71 525.836 1098.13 513.989 C 1037 514.664 971.887 511.251 911.345 513.989 C 915.483 525.926 923.032 538.377 929.055 549.66 L 955.693 599.752 C 995.072 673.079 1031.58 748.009 1069.51 822.08 L 1223.97 1125.01 C 1288.54 1237.51 1347.23 1367.43 1407.35 1484.09 C 1416.25 1501.36 1426.17 1518.36 1434.25 1535.99 L 1443.25 1535.68 C 1528.93 1533.25 1567.22 1618.76 1512.16 1674.3 C 1490.55 1696.1 1467.79 1697.06 1439.02 1697.26 L 506.195 1697.31 C 471.552 1697.33 426.145 1700.08 392.837 1694.78 C 265.441 1674.51 191.132 1542.78 230 1421.83 C 236.613 1401.25 246.893 1382.25 255.715 1362.89 L 641.273 509.674 C 676.176 432.484 700.1 376.991 796.893 356.26 C 835.081 348.081 884.805 350.983 924.323 350.983 L 1098.13 350.981 z M 857.5 1535.99 L 1252.21 1535.99 C 1245.46 1519.17 1234.3 1499.95 1225.81 1483.56 L 829.705 710.017 C 823.659 698.183 783.155 614.375 777.307 608.609 C 738.046 698.29 696.689 786.771 656.187 875.786 L 435.95 1358.61 C 422.129 1388.03 374.343 1475.77 385.103 1503.06 C 401.553 1544.78 443.013 1536.19 480.418 1536.04 L 857.5 1535.99 z" fill="rgb(0,0,0)" transform="translate(0,0)"></path>
<metadata><recraft-signature>{"signed_by": "recraft", "signature_b64": "rMwzyuoP/ToWq2ddD/NW7QSqvQsMiBaNa8jtzL8PH/WnsHVXQqcEfzCiL0BOfKVaOPDtKiHelxv4htla/GzpCA==", "signing_algo": "Ed25519", "generation_timestamp": 1772998129, "identifier": "283dd9b3-dd34-4e10-9d65-a2fd1d938184"}</recraft-signature></metadata></svg>