<svg xmlns="http://www.w3.org/2000/svg" height="512" preserveAspectRatio="none" style="display: block;" version="1.1" viewBox="0 0 2048 2048" width="512">
<path d="M 244.544 576.977 C 250.636 576.202 284.104 576.902 292.461 576.911 L 1679.57 576.964 C 1718.54 576.965 1757.58 576.729 1796.54 577.255 C 1854.78 578.042 1868.42 636 1868.02 682.311 L 1868.03 1338.85 C 1868.05 1393.9 1872.46 1454.2 1800.21 1468.36 C 1784.45 1469.57 1751.22 1468.38 1734.14 1468.38 L 365.022 1468.36 C 329.269 1468.38 293.854 1468.48 257.846 1468.02 C 190.853 1467.16 179.764 1414.81 179.94 1362.52 L 179.971 706.756 C 179.929 650.995 173.375 591.699 244.544 576.977 z M 1791.01 1417.3 C 1804.17 1413.01 1817.18 1405.2 1817.5 1389.55 C 1818.57 1336.28 1818.1 1282.87 1818.1 1229.57 L 1818.09 686.049 C 1818.08 663.355 1822.29 639.212 1800.21 624.988 L 426.25 624.975 C 369.466 624.975 311.039 624.271 254.413 624.988 C 236.571 627.512 230.312 635.78 230.246 653.495 L 230.527 1366.4 C 230.564 1388.59 228.613 1417.08 258.523 1417.29 L 1703.49 1417.31 C 1731.55 1417.31 1763.14 1418.01 1791.01 1417.3 z" fill="rgb(1,1,1)" transform="translate(0,0)"></path>
<path d="M 686.039 803.001 L 744.372 803.001 C 772.123 869.245 802.255 972.927 834.696 1032.6 C 823.139 1031.81 780.018 1032.08 767.745 1032.6 C 762.43 1019.16 758.822 1005.48 752.959 992.127 C 726.605 992.681 698.332 992.146 671.826 992.127 C 667.403 1005.97 663.011 1018.07 661.288 1032.6 L 535.589 1032.6 C 528.93 1018.69 525.802 1005.81 519.763 992.127 C 492.91 994.015 464.592 992.644 437.687 992.127 C 433.388 1001.46 426.947 1021.58 422.715 1032.6 C 410.317 1031.71 386.572 1032.52 373.265 1032.6 L 361.179 1032.6 C 386.847 955.657 416.648 879.375 442.572 803.001 C 465.26 802.953 494.263 804.025 516.043 803.001 C 517.018 809.241 518.338 814.608 520.396 820.599 C 542.96 886.274 569.642 963.243 596.742 1027.41 C 622.354 971.311 642.371 904.292 665.714 845.578 C 671.925 829.958 676.772 817.089 686.039 803.001 z M 714.836 943.192 C 723.739 943.513 730.71 943.788 739.658 943.192 C 733.834 925.409 721.42 876.307 714.836 862.608 C 705.25 878.527 691.981 922.686 686.039 943.192 C 697.161 944.109 703.793 943.628 714.836 943.192 z M 453.569 943.192 L 481.501 943.192 L 504.402 943.192 C 501.915 933.51 482.026 866.613 478.353 862.608 C 470.181 887.925 459.599 917.831 453.569 943.192 z" fill="rgb(1,1,1)" transform="translate(0,0)"></path>
<path d="M 992.783 803.001 L 1072.13 803.001 C 1061.27 816.217 1045.35 832.094 1033.4 844.711 L 988.591 892.945 C 1005.21 923.674 1026.5 952.619 1044.62 982.596 C 1055.41 999.368 1065.66 1015.31 1075.67 1032.6 C 1065.7 1031.67 1006.76 1035.69 1002.22 1029.77 C 982.378 1003.92 969.381 968.84 948.717 943.382 L 947.595 942.013 C 939.256 949.637 918.122 973.058 913.001 982.596 C 912.932 999.239 913.54 1015.97 913.001 1032.6 C 892.925 1032.68 870.821 1031.77 851.006 1032.6 L 851.006 803.001 L 913.001 803.001 L 913.001 897.729 C 937.244 870.058 968.177 826.68 992.783 803.001 z" fill="rgb(1,1,1)" transform="translate(0,0)"></path>
<path d="M 1293.54 803.001 C 1314.29 804.234 1347.51 803.044 1369.21 803.001 C 1378.39 861.523 1429.08 969.533 1448.32 1032.6 C 1427.28 1032.96 1405 1032.61 1383.88 1032.6 C 1377.82 1016.87 1378.72 992.497 1362.1 992.127 C 1337.1 992.088 1311.41 992.597 1286.49 992.127 C 1281.44 1006.47 1278.09 1017.85 1275.01 1032.6 L 1206.25 1032.6 C 1234.06 957.833 1262.94 876.197 1293.54 803.001 z M 1306.56 942.013 L 1329.75 942.013 L 1355.66 942.013 C 1351.38 929.943 1334.15 867.83 1329.75 862.608 C 1323.21 880.737 1308.59 924.047 1306.56 942.013 z" fill="rgb(1,1,1)" transform="translate(0,0)"></path>
<path d="M 1556.17 794.549 C 1620.2 791.388 1659.86 819.546 1669.56 883.916 C 1652.5 884.751 1628.75 883.968 1611.19 883.916 C 1601.06 850.599 1572.35 835.6 1540.91 854.144 C 1505.83 874.841 1509.15 969.738 1554.47 981.708 C 1587.37 988.078 1606.04 972.304 1611.19 942.013 C 1619.45 941.724 1625.82 941.665 1634.07 942.013 C 1647.74 941.102 1655.97 941.224 1669.56 942.013 C 1669.48 1057.4 1502.77 1065.58 1468.94 977.007 C 1440.59 902.776 1462.94 798.629 1556.17 794.549 z" fill="rgb(1,1,1)" transform="translate(0,0)"></path>
<path d="M 654.714 1145.45 C 712.057 1124.83 724.993 1283.65 633.001 1239.15 C 632.921 1244.4 632.992 1249.82 633.001 1255.1 L 633.001 1275.7 C 624.117 1275.59 615.373 1275.62 606.488 1275.7 C 606.022 1232.61 606.506 1188.6 606.488 1145.45 C 613.016 1145.52 626.189 1145.24 631.993 1146.65 C 635.285 1156.1 640.146 1146.47 653.304 1145.54 L 654.714 1145.45 z M 661.288 1224.28 C 682.59 1210.33 681.141 1160.88 643.619 1166.99 C 627.262 1175.18 622.244 1234.94 661.288 1224.28 z" fill="rgb(1,1,1)" transform="translate(0,0)"></path>
<path d="M 373.265 1109 L 471.017 1109 C 471.134 1117.14 471.047 1125.33 471.017 1133.48 L 401.526 1133.48 L 401.526 1161.06 L 467.49 1161.06 L 467.49 1186.97 L 413.25 1186.97 C 394.704 1186.54 401.757 1199.92 401.526 1221 L 471.017 1221 C 471.253 1229.32 471.09 1237.77 471.017 1246.09 L 373.265 1246.09 L 373.265 1109 z" fill="rgb(1,1,1)" transform="translate(0,0)"></path>
<path d="M 1435.18 1143.12 C 1491.83 1144.63 1477.28 1202.83 1477.17 1246.09 C 1445.77 1245.23 1464.76 1247.19 1451.26 1237.35 C 1431.65 1251.75 1411.7 1255.25 1396.62 1232.45 C 1368.24 1165.2 1481.83 1196.79 1449.09 1167.89 C 1438.42 1158.47 1428.6 1163.35 1420.9 1172.97 L 1396.62 1172.97 C 1403.61 1150.13 1412.59 1146.39 1435.18 1143.12 z M 1435.18 1229.44 C 1451.27 1225.85 1452.1 1218.1 1453.09 1202.89 C 1449.38 1202.79 1442.07 1202.31 1438.74 1202.89 C 1411.57 1204.69 1409.37 1226.74 1435.18 1229.44 z" fill="rgb(1,1,1)" transform="translate(0,0)"></path>
<path d="M 834.696 1143.12 C 874.297 1141.68 883.098 1170.23 882.987 1202.89 C 862.199 1203.3 840.94 1202.6 819.997 1202.89 C 823.237 1226.19 842.088 1238.63 856.843 1215.6 C 865.43 1217.26 869.658 1218.11 877.811 1221 C 888.474 1222.73 876.505 1232.76 872.907 1236.16 C 814.181 1294.51 748.046 1163.8 834.696 1143.12 z M 819.997 1183 L 841.5 1183 C 873.329 1183.3 852.581 1164.48 834.696 1165.04 C 824.095 1169.48 823.538 1172.59 819.997 1183 z" fill="rgb(1,1,1)" transform="translate(0,0)"></path>
<path d="M 1022.89 1143.12 C 1057.07 1148.63 1064.61 1172.02 1065.09 1202.89 C 1044.04 1203.2 1022.17 1202.91 1001.06 1202.89 C 1006.88 1251.98 1027.03 1214.4 1065.09 1215.6 C 1061.42 1230.24 1047.36 1244.79 1032.37 1247.72 C 969.363 1260.02 942.466 1153.84 1022.89 1143.12 z M 1001.06 1183 C 1008.69 1183.33 1015.24 1183.2 1022.89 1183 C 1053.8 1182.94 1034.2 1162.83 1019.07 1165.04 C 1006.92 1167.17 1005.34 1171.84 1001.06 1183 z" fill="rgb(1,1,1)" transform="translate(0,0)"></path>
<path d="M 490.643 1145.45 C 500.896 1145.03 509.573 1145.18 519.763 1145.45 C 525.733 1155.2 530.556 1165.57 535.589 1175.84 C 555.099 1147 542.241 1146.67 580.32 1145.45 C 572.501 1161.96 561.004 1177.39 555.161 1194.3 C 562.59 1209.14 576.829 1230.22 586.057 1244.75 L 585.342 1245.71 L 580.32 1246.09 C 571.921 1246.4 563.562 1246.21 555.161 1246.09 C 548.707 1237.01 541.827 1222.83 535.589 1212.55 C 528.441 1224.17 524.436 1234.47 516.043 1246.09 L 486.65 1246.09 C 492.277 1235.01 512.56 1203.46 519.763 1194.3 C 509.851 1179.51 500.896 1161.41 490.643 1145.45 z" fill="rgb(1,1,1)" transform="translate(0,0)"></path>
<path d="M 1114.47 1143.12 C 1139.82 1142.42 1152.7 1146.66 1158.45 1172.97 C 1152.15 1173.28 1144.51 1173.03 1138.09 1172.97 L 1129.45 1165.04 C 1122.71 1164.24 1105.09 1164.12 1106.29 1174.22 C 1117.5 1190.94 1146.86 1179.8 1162.88 1208.85 C 1164.27 1234.81 1151.15 1246.1 1126.25 1249.01 C 1100.81 1249.78 1086.04 1241.09 1080.72 1215.6 C 1087.12 1214.8 1094.3 1215.35 1100.8 1215.6 C 1110.71 1226.36 1137.43 1234.23 1138.17 1217.69 C 1130.43 1198.79 1063.64 1209.39 1086.67 1160.59 C 1091.82 1149.68 1103.43 1146.2 1114.47 1143.12 z" fill="rgb(1,1,1)" transform="translate(0,0)"></path>
<path d="M 1537.45 1105.25 C 1544.81 1105.51 1552.18 1107.26 1559.29 1109 C 1558.6 1116.87 1557.65 1122.32 1556.17 1130.13 C 1526.54 1128.99 1518.8 1149.55 1552.4 1145.45 C 1552.83 1152.55 1552.55 1159.86 1552.4 1166.99 L 1531.94 1166.99 C 1531.2 1191.59 1531.89 1219.32 1531.94 1244.1 L 1531.73 1245.43 C 1528.63 1247.05 1511.79 1246.15 1507.09 1246.09 L 1507.09 1166.99 C 1502.26 1166.68 1499.84 1166.66 1495.02 1166.99 L 1495.02 1145.45 C 1499.68 1145.05 1502.45 1145.22 1507.09 1145.45 C 1507.94 1121.56 1511.86 1109.52 1537.45 1105.25 z" fill="rgb(1,1,1)" transform="translate(0,0)"></path>
<path d="M 1625.01 1115.02 C 1632.81 1114.69 1642.09 1114.98 1650 1115.02 C 1650.4 1124.88 1650.09 1135.52 1650 1145.45 L 1667 1145.45 L 1667 1166.99 L 1650 1166.99 C 1649.84 1197.28 1638.94 1224.99 1669.56 1224.28 C 1669.66 1230.88 1669.59 1237.49 1669.56 1244.1 L 1669.62 1245.65 C 1665.97 1248.71 1655.59 1246.74 1651 1247.06 C 1596.26 1250.83 1651.06 1164.48 1611.19 1166.99 L 1611.19 1145.45 L 1625.01 1145.45 C 1624.25 1133.34 1624.07 1127.2 1625.01 1115.02 z" fill="rgb(1,1,1)" transform="translate(0,0)"></path>
<path d="M 1212 1119.53 C 1212.72 1120.39 1211.69 1141.22 1212 1145.45 C 1218.19 1145.75 1223.87 1145.59 1230.06 1145.45 L 1230.06 1166.99 L 1212 1166.99 C 1211.83 1190.5 1201.43 1231.6 1230.06 1224.28 C 1230.47 1232.44 1230.44 1237.91 1230.06 1246.09 C 1225.5 1246.62 1220.61 1246.26 1215.99 1246.09 C 1175.29 1248.11 1186.74 1197.32 1186.99 1166.99 C 1182.4 1166.78 1177.65 1166.93 1173.04 1166.99 C 1172.73 1153.1 1170.99 1145.25 1186.99 1145.45 C 1186.84 1136.63 1186.75 1128.38 1186.99 1119.53 C 1194.78 1119.17 1204.09 1119.47 1212 1119.53 z" fill="rgb(1,1,1)" transform="translate(0,0)"></path>
<path d="M 772.649 1143.12 C 785.811 1142.48 781.197 1157.6 780.999 1166.99 C 734.709 1169.65 748.745 1205.27 748.999 1246.09 C 740.141 1246.08 731.33 1246.45 722.463 1246.09 C 721.24 1215.19 722.426 1176.84 722.463 1145.45 C 758.466 1143.98 740.583 1147.21 748.449 1155.58 C 757.579 1146.59 760.112 1146.04 772.649 1143.12 z" fill="rgb(1,1,1)" transform="translate(0,0)"></path>
<path d="M 953.217 1145.45 C 958.147 1144.01 962.495 1144.8 967.475 1145.45 C 960.886 1191.72 937.358 1151.86 933.364 1187.29 C 931.248 1206.06 931.939 1226.45 931.99 1246.09 C 924.797 1246.29 916.996 1246.12 909.75 1246.09 C 904.281 1245.78 906.05 1234.76 906.056 1230.6 C 906.099 1202.21 906.428 1173.83 906.145 1145.45 C 914.779 1145.33 923.359 1145.39 931.99 1145.45 C 932.486 1162.08 938.115 1147 951.946 1145.57 L 953.217 1145.45 z" fill="rgb(1,1,1)" transform="translate(0,0)"></path>
<path d="M 1369.21 1145.45 C 1389.96 1141.2 1385.26 1151.89 1383.88 1166.99 C 1373.87 1167.27 1370.46 1167.53 1362.1 1172.97 C 1343.32 1184.68 1350.83 1224.18 1350.98 1246.09 C 1343.81 1246.43 1336.92 1246.23 1329.75 1246.09 C 1320.91 1246.5 1324.97 1217.28 1324.98 1208.71 L 1325.01 1145.45 C 1332.08 1145.62 1338.65 1145.86 1345.72 1145.45 L 1350.98 1161.06 C 1356.45 1150.03 1356.55 1147.28 1369.21 1145.45 z" fill="rgb(1,1,1)" transform="translate(0,0)"></path>
<path d="M 1293.54 1145.45 C 1300.31 1144.85 1304.04 1145.09 1310.81 1145.45 C 1308.95 1152.57 1306.64 1159.66 1306.56 1166.99 C 1264.92 1171.14 1274.95 1212.98 1275.01 1246.09 C 1267.1 1246.76 1258.01 1246.29 1249.98 1246.09 C 1249.48 1244.98 1249.98 1155.14 1249.98 1145.45 L 1275.01 1145.45 L 1275.01 1165.04 C 1281.15 1153.36 1281.56 1150.57 1293.54 1145.45 z" fill="rgb(1,1,1)" transform="translate(0,0)"></path>
<path d="M 1569 1145.45 C 1578.35 1146.46 1584.24 1146.21 1593.51 1145.45 C 1594.21 1178.16 1593.5 1213.11 1593.51 1246.09 C 1589.92 1246.66 1573.67 1246.12 1569 1246.09 L 1569 1145.45 z" fill="rgb(1,1,1)" transform="translate(0,0)"></path>
<path d="M 1572.5 1112.59 C 1579.67 1111.92 1586.33 1112.33 1593.51 1112.59 C 1593.3 1118.01 1594.14 1129.39 1591.94 1133.56 L 1589.25 1133.48 C 1581.5 1133.97 1576.79 1133.86 1569 1133.48 C 1568.33 1127.63 1566.32 1117.25 1569.57 1112.81 L 1572.5 1112.59 z" fill="rgb(1,1,1)" transform="translate(0,0)"></path>
<metadata><recraft-signature>{"signed_by": "recraft", "signature_b64": "pMAb+GVYEwilANp0pb9AQLg6XPDOBN+mPTnMqAHiE+uS3jv8aD2q0embBdjonrNoX8r6qdNk0+EaXPVDpl2jAw==", "signing_algo": "Ed25519", "generation_timestamp": 1772999017, "identifier": "32ae69c3-9ff0-463e-b3bc-09a814cbc62b"}</recraft-signature></metadata></svg>