<svg xmlns="http://www.w3.org/2000/svg" height="512" preserveAspectRatio="none" style="display: block;" version="1.1" viewBox="0 0 2048 2048" width="512">
<path d="M 1241.92 1119 C 1264.34 1116.6 1298.35 1119.02 1323.01 1119.03 L 1596.18 1118.99 C 1689.49 1118.73 1756.02 1136.87 1756.85 1246.17 L 1757.23 1612.09 C 1757.18 1624.35 1757.12 1636.57 1756.77 1648.82 C 1755.29 1700.99 1705.7 1753.71 1652.25 1755 C 1623.41 1755.78 1590.59 1755.02 1561.51 1755.01 L 1288.89 1755.05 C 1150.61 1755.17 1134.71 1712.31 1134.75 1580.26 L 1134.72 1291.21 C 1134.58 1203.92 1138.4 1136.6 1241.92 1119 z M 1269 1255.98 L 1269 1621 C 1281.1 1620.89 1293.14 1620.72 1305.25 1621 L 1620.51 1621 L 1620.51 1255.98 C 1609.04 1255.24 1601.98 1255.23 1590.49 1255.98 L 1269 1255.98 z" fill="rgb(0,0,0)" transform="translate(0,0)"></path>
<path d="M 400.876 290.351 C 402.63 290.266 404.241 290.188 406 290.172 L 690.236 290.279 C 710.748 290.254 731.258 289.348 751.481 293.257 C 827.893 308.026 838.021 372.804 838.007 435.946 L 837.979 835.923 C 837.974 881.991 841.325 918.123 805.617 954.088 C 786.617 973.225 759.563 986.051 732.25 986.003 L 433.561 986.08 C 419.439 986.103 398.063 987.097 384.925 984.112 C 308.898 966.834 293.986 910.05 293.949 844.313 L 293.929 453.293 C 293.748 374.533 299.859 298.16 400.876 290.351 z M 429.128 850.961 L 701.948 850.961 C 702.822 844.717 702.061 817.019 702.006 809.384 L 701.948 428.088 C 612.405 429.481 519.02 428.028 429.128 428.088 L 429.128 850.961 z" fill="rgb(0,0,0)" transform="translate(0,0)"></path>
<path d="M 356.482 1364.21 C 365.256 1363.62 377.474 1364.16 386.553 1364.18 L 770.153 1364.19 C 790.557 1364.19 810.927 1364.13 831.338 1364.45 C 931.606 1366.01 934.238 1492.79 846.25 1500.01 L 408.068 1500.02 C 389.65 1500.03 366.28 1501.27 348.272 1498.77 C 272.843 1488.32 267.916 1375.52 356.482 1364.21 z" fill="rgb(0,0,0)" transform="translate(0,0)"></path>
<path d="M 1192.8 541.002 C 1230.17 540.361 1268.95 540.983 1306.49 541.002 L 1634.73 540.966 C 1654.87 540.965 1675.16 540.194 1695.6 541.581 C 1773.12 546.843 1775.92 664.515 1697.23 674.49 C 1692.17 675.05 1679.43 674.648 1673.68 674.634 L 1229.56 674.414 C 1217.98 674.426 1206.05 674.811 1194.61 674.12 C 1122.13 669.741 1111.23 556.653 1192.8 541.002 z" fill="rgb(0,0,0)" transform="translate(0,0)"></path>
<metadata><recraft-signature>{"signed_by": "recraft", "signature_b64": "u4ndy3PLPumtVn7peQAAZRZQ1IfGPGemPHQ02yzz8dQBNzNA5+cvLcnrI/FyRppbXZ2Skge5CQD/UNpt/93IBA==", "signing_algo": "Ed25519", "generation_timestamp": 1772998398, "identifier": "58a567ef-456e-45a8-90ca-8d7ff29fa4b0"}</recraft-signature></metadata></svg>