<svg xmlns="http://www.w3.org/2000/svg" height="512" preserveAspectRatio="none" style="display: block;" version="1.1" viewBox="0 0 2048 2048" width="512">
<path d="M 249.406 445.991 C 268.06 444.792 303.636 445.955 323.218 445.963 L 1689.17 445.963 C 1754.92 445.949 1855.93 429.459 1873.17 515.205 C 1876.48 531.705 1875.62 549.582 1875.62 566.44 L 1875.61 1433.66 C 1875.62 1504.52 1887.53 1579.19 1796.02 1597.42 L 309.175 1597.46 C 205.326 1597.5 173.799 1586.82 173.97 1481.45 L 174.023 599.722 C 173.959 533.42 161.166 459.43 249.406 445.991 z M 1792.21 1537.35 C 1825.26 1526.04 1814.08 1483.17 1814.08 1450.98 L 1814.04 594.919 C 1814.07 575.32 1824.1 505.538 1791.69 509.206 L 291.906 508.943 C 282.829 508.934 260.897 508.25 252.923 509.006 C 237.613 513.394 235.821 524.045 235.814 538.605 L 235.819 1437.33 C 235.821 1529.56 215.658 1537.34 308.91 1537.37 L 1751.18 1537.41 C 1761.87 1537.45 1782.05 1538.1 1792.21 1537.35 z" fill="rgb(0,0,0)" transform="translate(0,0)"></path>
<path d="M 1093.31 692.001 C 1139.32 687.719 1185.49 694.238 1208.33 739.759 C 1234.26 791.471 1214.91 851.287 1162.18 877.006 C 1171.17 908.733 1262.66 1035.96 1169.07 1010.14 C 1156.78 1006.75 1140.7 962.445 1133.74 949.5 C 1129.03 933.981 1113.11 901.558 1105.3 886.058 C 1094.97 885.522 1087.82 885.508 1077.51 886.058 L 1077.51 1000.89 C 1067.98 1013.83 1062.25 1010.38 1048.79 1011.16 C 1009.59 1013.43 1019.96 986.153 1019.97 955.247 L 1020.02 761.138 C 1019.89 681.058 1009.48 691.588 1093.31 692.001 z M 1077.51 835.989 C 1102.74 836.066 1132.13 839.212 1153.61 825.305 C 1185.04 747.402 1145.35 740.537 1077.51 740.913 L 1077.51 835.989 z" fill="rgb(0,0,0)" transform="translate(0,0)"></path>
<path d="M 1354.21 689.001 C 1405.3 687.708 1400.98 724.38 1416.6 771.854 L 1477.72 955.721 C 1481.26 966.049 1488.2 984.069 1489.5 994.129 C 1486.93 1001.4 1486.06 1003.72 1480.9 1009.44 C 1423.61 1022.75 1433.21 982.854 1416.31 941.991 L 1380.5 941.991 L 1314.04 941.991 C 1295.1 993.213 1311.63 1013.65 1253.8 1009.44 C 1240.39 1001.66 1241.18 993.466 1245.92 979.896 C 1261.4 935.57 1326.73 710.9 1343.24 692.001 L 1354.21 689.001 z M 1328.32 894.002 L 1367.84 894.002 L 1400.4 894.002 C 1398.65 885.797 1364.72 777.87 1363.16 775.665 C 1353.56 813.912 1339.55 855.597 1328.32 894.002 z" fill="rgb(0,0,0)" transform="translate(0,0)"></path>
<path d="M 600.971 692.001 C 621.116 691.932 738.743 689.305 747.243 695.183 C 755.969 701.217 755.177 729.469 748.865 735.82 C 739.717 745.026 708.203 741.004 696.439 740.967 L 628.49 740.913 C 628.505 767.357 627.969 794.622 628.49 820.962 C 650.548 821.497 719.928 815.95 735.182 825.305 C 740.299 834.503 741.799 859.264 734.188 866.138 C 728.075 871.658 698.342 870.086 689.655 870.083 L 628.49 869.995 C 628.849 888.101 628.585 906.522 628.49 924.655 L 628.49 960.754 L 745.499 960.754 C 748.402 962.99 751.693 965.884 754.559 968.267 C 754.389 979.815 754.594 989.605 754.559 1000.89 C 751.723 1003.97 748.61 1006.64 745.499 1009.44 C 725.531 1009.43 594.294 1012 585.185 1007.08 C 572.612 1000.27 577.057 965.412 577.051 953.938 L 577.067 777.882 C 577.06 745.077 564.798 695.988 600.971 692.001 z" fill="rgb(0,0,0)" transform="translate(0,0)"></path>
<path d="M 1598.63 1125.02 C 1664.58 1123.92 1753.38 1114.21 1734.81 1216.85 C 1730.12 1242.81 1714.85 1251.43 1694.99 1265.26 C 1703.15 1280.61 1752.75 1348.8 1730.97 1356.03 C 1719.44 1359.87 1699.46 1360.18 1694.99 1346.52 C 1684.4 1333.15 1680.97 1325.09 1672.64 1310.23 L 1648.76 1268.04 C 1642.91 1268.4 1636.88 1268.15 1631 1268.04 C 1630.09 1286.65 1633.98 1333.8 1627.94 1352.32 C 1625.96 1358.39 1598.87 1359.01 1591.5 1352.93 C 1585.54 1338.12 1588.01 1140 1591.2 1131.39 C 1592.57 1127.67 1595.22 1126.44 1598.63 1125.02 z M 1631 1228.69 C 1651.58 1228.84 1673.44 1233.2 1688 1219.85 C 1702.43 1202.07 1697.05 1167.8 1670.41 1166.63 C 1657.34 1166.06 1644.09 1166.41 1631 1166.51 L 1631 1228.69 z" fill="rgb(0,0,0)" transform="translate(0,0)"></path>
<path d="M 796.997 692.001 C 841.14 687.744 908.245 691.78 954.567 692.108 C 992.795 692.379 994.067 723.908 975.578 740.913 L 910.006 740.913 C 909.436 763.567 909.965 788.715 909.971 811.537 L 910.006 949.5 C 909.946 959.666 912.778 999.526 906.111 1006.24 C 900.433 1011.96 864.716 1012.61 858.339 1004.92 C 851.745 996.963 854.954 920.878 854.954 907.06 L 855.007 740.913 C 820.193 740.622 767.313 753.829 779.978 705.211 C 782.79 694.42 787.026 693.304 796.997 692.001 z" fill="rgb(0,0,0)" transform="translate(0,0)"></path>
<path d="M 773.931 1125.02 C 806.861 1123.62 857.151 1120.08 881.473 1143.78 C 908.985 1170.6 906.839 1237.97 880.89 1264.87 C 861.937 1284.52 829.064 1281.95 803.75 1281.91 L 799.477 1282.01 C 791.837 1286.87 801.322 1339.61 795.923 1351.21 C 791.138 1361.49 757.808 1359.69 755.441 1350.4 C 753.204 1341.62 754.629 1281.7 754.637 1268.48 L 754.491 1187.46 C 754.444 1160.75 744.791 1128.41 773.931 1125.02 z M 796.997 1241.98 C 810.283 1242.09 833.767 1243.43 845.671 1238.45 C 853.936 1231.44 856.264 1224.09 856.954 1213.38 C 860.072 1164.92 845.307 1163.18 803.75 1166.51 C 790.415 1166.16 796.341 1228.78 796.997 1241.98 z" fill="rgb(0,0,0)" transform="translate(0,0)"></path>
<path d="M 939.147 1125.02 C 962.662 1125.02 1005.83 1123.04 1027.33 1128.74 C 1079.32 1142.54 1109.57 1280.7 985 1281.91 L 969.648 1281.91 C 969.721 1304.27 970.761 1327.66 968.421 1349.46 C 967.13 1361.48 928.127 1358.11 927.91 1351.03 C 925.737 1280.26 927.503 1208.76 926.969 1137.9 C 926.893 1127.83 930.897 1127.17 939.147 1125.02 z M 969.648 1166.51 L 969.648 1241.98 C 983.97 1241.35 1001.97 1242.73 1014.74 1238.45 C 1038.56 1225.16 1041.93 1154.91 985 1166.51 C 980.122 1166.55 974.455 1166.74 969.648 1166.51 z" fill="rgb(0,0,0)" transform="translate(0,0)"></path>
<path d="M 389.828 1125.02 C 424.03 1122.86 418.923 1133.48 428.08 1161.94 L 473.952 1303.43 C 489.946 1353.48 500.98 1355.88 447.814 1356.01 C 441.419 1344.02 434.441 1317.21 430.356 1303 L 405.319 1303 L 362.319 1303 C 358.736 1313.56 350.216 1347.5 344.512 1353.45 C 338.186 1356.13 311.676 1357.66 306.975 1350 C 307.327 1328.7 369.167 1138.15 374.931 1130.62 C 378.124 1126.45 385.023 1125.87 389.828 1125.02 z M 371.25 1265.26 C 379.789 1265.27 388.432 1265.35 396.96 1265.26 L 419.866 1265.26 C 414.572 1242.35 404.199 1198.73 396.96 1176.73 C 387.461 1197.83 379.447 1239.53 371.25 1265.26 z" fill="rgb(0,0,0)" transform="translate(0,0)"></path>
<path d="M 1153.61 1125.02 C 1195.1 1121.46 1190.98 1155.33 1203.2 1193.44 L 1228.99 1274.51 C 1235.12 1293.46 1241.6 1312.66 1247.07 1331.46 C 1253.63 1354.05 1251.24 1355.38 1228.33 1356.18 C 1201.93 1357.1 1204.35 1328.5 1197.83 1303 C 1187.11 1303.82 1180.38 1303.6 1169.58 1303 C 1155.8 1304.1 1141.6 1303.37 1127.74 1303 C 1120.86 1325.22 1121.42 1358.38 1094.88 1356.47 C 1088.12 1355.99 1079.13 1358.16 1074.91 1351.25 C 1074.2 1332.84 1104.03 1247.5 1111.18 1224.6 L 1128.31 1170.66 C 1133.93 1153.18 1136.24 1130.49 1153.61 1125.02 z M 1137.94 1265.26 C 1147.97 1264.14 1151.88 1263.73 1162.18 1265.26 C 1171.57 1264.73 1177.73 1264.83 1187.17 1265.26 C 1184.95 1254.61 1166.41 1181.04 1162.18 1176.73 C 1153.6 1205.79 1146.23 1235.92 1137.94 1265.26 z" fill="rgb(0,0,0)" transform="translate(0,0)"></path>
<path d="M 1480.9 1125.02 C 1487.86 1123.43 1497.57 1123.87 1503.01 1128.86 C 1507.15 1132.65 1566.5 1321.33 1567.97 1351.29 C 1564.42 1358.11 1553.4 1355.72 1547.25 1356.94 C 1525.42 1361.27 1521.41 1324.65 1516.64 1306.98 L 1489.5 1306.98 L 1451.84 1306.98 C 1449.27 1318.23 1444.33 1344.5 1436.52 1353.5 C 1432.46 1358.18 1406.44 1358.23 1401.55 1352.68 C 1400.84 1330.83 1458.83 1136.75 1465.22 1129.39 C 1469.27 1124.73 1475.26 1125.32 1480.9 1125.02 z M 1461.28 1268.04 L 1489.5 1268.04 L 1506.51 1268.04 C 1504.33 1259.8 1485 1183.46 1483.33 1181.71 C 1475.11 1209.46 1467.06 1239.58 1461.28 1268.04 z" fill="rgb(0,0,0)" transform="translate(0,0)"></path>
<path d="M 501.013 1125.02 C 537.536 1124.5 530.634 1122.57 547.025 1154.23 L 572.474 1203.58 C 584.349 1180.42 597.747 1145.21 610.737 1125.02 C 620.986 1125.36 644.581 1120.15 648.219 1134.05 C 650.398 1142.38 602.516 1224.28 594.173 1238.45 C 606.556 1268.24 625.278 1295.49 640.066 1324.15 C 645.193 1334.08 656.68 1347.31 645.341 1356.01 C 636.695 1357.19 622.142 1356.27 613.408 1355.01 C 604.422 1353.71 574.867 1288.01 569.346 1278.3 C 554.238 1302.23 542.135 1331.97 527.953 1356.01 C 513.571 1356.59 489.15 1357.96 498.762 1337.01 C 514.077 1303.63 533.706 1271.85 549.041 1238.45 C 531.659 1213.73 509.558 1169.36 494.246 1141.37 C 490.119 1133.83 494.229 1128.64 501.013 1125.02 z" fill="rgb(0,0,0)" transform="translate(0,0)"></path>
<path d="M 1320.08 1122.45 C 1356.32 1121.77 1414.57 1144.36 1363.16 1181.71 C 1350.12 1172.59 1342.07 1162.86 1324.42 1162.12 C 1311.92 1161.6 1296.96 1171.85 1298.11 1185.15 C 1301.17 1220.24 1394.38 1213.17 1391.27 1290.32 C 1389.96 1340.5 1362.36 1359.77 1314.04 1358.98 C 1282.44 1353.08 1224.64 1318.44 1282.52 1294.53 C 1297.28 1306.29 1305.21 1319.8 1326.64 1318.88 C 1343.21 1318.17 1353.88 1305.99 1351.28 1289.33 C 1344.94 1248.58 1265.31 1259.24 1259.36 1199.6 C 1255.02 1156.04 1276.49 1127.18 1320.08 1122.45 z" fill="rgb(0,0,0)" transform="translate(0,0)"></path>
<path d="M 685.012 1125.02 C 691.58 1124.83 712.242 1122.46 715.881 1130.07 C 722.441 1143.78 719.241 1347.17 717.062 1352.45 C 714.658 1355.34 712.305 1355.28 708.523 1356.01 C 679.364 1356.64 677.128 1359.91 676.668 1330.59 C 675.947 1284.64 676.407 1238.99 676.247 1192.99 C 676.178 1173.41 668.585 1135.02 685.012 1125.02 z" fill="rgb(0,0,0)" transform="translate(0,0)"></path>
<metadata><recraft-signature>{"signed_by": "recraft", "signature_b64": "jhuAu65VIVJ8PvkvN2JeZ2khTU8mhCUddtxbNzY4ZfUeOpGZvTvDqF5ECBs4XxAwNU9P8G8gflB7OkGQuUztDg==", "signing_algo": "Ed25519", "generation_timestamp": 1772998371, "identifier": "1b85f35b-4b0e-4e45-875c-5b0042d0e8aa"}</recraft-signature></metadata></svg>