<svg xmlns="http://www.w3.org/2000/svg" height="512" preserveAspectRatio="none" style="display: block;" version="1.1" viewBox="0 0 2048 2048" width="512">
<path d="M 583.409 468.662 L 1058.58 468.615 C 1085.58 468.615 1115.56 467.23 1141.95 472.048 C 1253.56 492.419 1340.87 583.07 1358.35 694.121 C 1404.64 670.908 1456.05 638.224 1501.55 611.916 C 1532.33 594.724 1560.74 571.803 1594.86 561.684 C 1675.64 537.723 1763.25 584.447 1785.04 666.548 C 1792.84 695.966 1790.95 727.525 1790.93 757.867 L 1790.93 1260.65 C 1790.95 1310.51 1796.91 1364.95 1770.86 1409.41 C 1741.41 1459.69 1691.94 1488.54 1633.43 1487.22 C 1590.68 1486.25 1565.33 1469.2 1529.88 1448.62 L 1459.4 1407.86 C 1431.66 1392.23 1387.13 1368.74 1361.93 1351.63 C 1337.29 1477.27 1238.59 1570.92 1107.03 1571.34 L 559.82 1571.35 C 527.949 1571.34 492.227 1573.02 461.198 1566.66 C 361.343 1546.22 283.492 1463.79 261.813 1365.08 C 254.023 1329.6 255.625 1293.34 255.629 1257.04 L 255.631 766.283 C 255.632 744.252 255.678 721.765 258.185 699.866 C 270.99 587.995 369.998 482.363 484.183 470.786 C 516.18 467.542 551.01 468.618 583.409 468.662 z M 1095.75 1446.52 C 1136.99 1444.59 1169.29 1429.94 1197.64 1399.79 C 1243.07 1351.48 1237.04 1304.64 1237.05 1243.78 L 1237.05 780.221 C 1237.11 692.999 1214.26 611.332 1111.7 594.914 C 1091.28 591.646 1063.58 593.459 1041.96 593.451 L 652.825 593.42 C 612.804 593.417 564.103 592.081 524.579 593.439 C 387.347 605.019 383.596 714.761 383.597 821.025 L 383.579 1208.36 C 383.569 1246.16 382.628 1286.29 384.572 1323.47 C 387.653 1382.4 442.214 1436.28 499.267 1445.16 C 517.811 1448.05 545.448 1446.6 565.001 1446.56 L 1095.75 1446.52 z M 1366.51 831.872 L 1366.49 1167.62 C 1366.49 1180.46 1365.97 1196.68 1366.51 1209.19 C 1402.23 1230.61 1443.73 1255.57 1480.6 1274.95 C 1516.68 1294.34 1612.65 1353.65 1642.72 1361.78 C 1659.75 1356.02 1665.01 1346.79 1665.05 1329.17 L 1664.98 902.693 C 1664.97 875.905 1666.89 704.802 1663.9 696.419 C 1659.78 684.856 1645.93 678.232 1634.34 680.167 C 1546 722.711 1454.89 785.117 1366.51 831.872 z" fill="rgb(31,30,33)" transform="translate(0,0)"></path>
<metadata><recraft-signature>{"signed_by": "recraft", "signature_b64": "9Vg7ZE8yIyfFt9nOddRlyQJrjw6uNNd+z3qGi7mynfYYy2Mn5Mj4w/hzU/baKwDqIU3OJwLrfIHgi+BvFL2CAw==", "signing_algo": "Ed25519", "generation_timestamp": 1772999670, "identifier": "3b4f2942-bc13-48e7-b32a-ab8303c99207"}</recraft-signature></metadata></svg>