<svg xmlns="http://www.w3.org/2000/svg" height="512" preserveAspectRatio="none" style="display: block;" version="1.1" viewBox="0 0 2048 2048" width="512">
<path d="M 796.028 211.682 L 1319.99 211.696 C 1470.4 213.107 1604.05 302.521 1602.98 465.907 C 1602.58 528.168 1603.17 590.157 1602.99 652.58 C 1602.75 736.109 1546.31 743.979 1482.02 743.896 L 1412.53 743.774 C 1287.98 743.599 1310.62 825.824 1310.76 920.539 L 1448.85 920.526 C 1492.76 920.458 1539 913.431 1573.67 945.977 C 1625.63 994.724 1601.97 1084.16 1533.33 1101.69 C 1510.92 1107.41 1474.34 1104.94 1450.37 1104.95 L 1310.76 1104.95 L 1310.76 1582.4 C 1295.62 1725.31 1201.28 1820.56 1054.44 1821.37 L 731.773 1821.52 C 705.055 1821.6 681.606 1822.59 655.021 1817.3 C 552.334 1796.86 469.211 1711.33 453.968 1607.46 C 447.987 1566.7 450.277 1519.09 450.273 1477.15 L 450.221 467.454 C 450.278 394.63 471.154 336.837 522.925 283.932 C 603.925 201.155 690.954 211.573 796.028 211.682 z M 1122.18 1155.76 L 1122.18 1104.95 L 1013.96 1104.91 C 991.904 1104.95 957.571 1107.52 937.083 1102.38 C 844.13 1079.08 843.184 946.182 936.381 923.16 C 956.916 918.087 991.688 920.502 1013.53 920.537 L 1122.18 920.539 C 1122.11 845.354 1114.86 774.889 1150.59 705.336 C 1206.72 596.058 1292.33 556.071 1408.47 556.232 L 1410.99 556.241 L 1411.1 490.78 C 1411.41 396.961 1384.34 399.238 1300.04 399.347 L 703.322 399.299 C 623.158 409.405 639.146 485.471 639.149 544.6 L 639.091 1540.11 C 639.037 1596.05 647.697 1635.08 712.108 1635.54 L 1018.5 1635.48 C 1106.73 1635.82 1122.48 1629.9 1122.26 1528.98 L 1122.18 1155.76 z" fill="rgb(30,29,29)" transform="translate(0,0)"></path>
<metadata><recraft-signature>{"signed_by": "recraft", "signature_b64": "3yqxPi8/VUTMTI68HQonunVGVUrJF4csK1Y99BX9Ki5a4jou//LviIv0r2c3exngss2ANlXSH/RGYeT23PIzBA==", "signing_algo": "Ed25519", "generation_timestamp": 1772999623, "identifier": "baa84b66-633b-4ac2-a8c1-00f98950ae11"}</recraft-signature></metadata></svg>