<svg xmlns="http://www.w3.org/2000/svg" height="512" preserveAspectRatio="none" style="display: block;" version="1.1" viewBox="0 0 2048 2048" width="512">
<path d="M 401.784 279.001 C 412.277 278.05 441.807 278.954 453.9 278.982 L 1556.29 278.974 C 1639.91 278.951 1733.54 272.849 1761.19 379.464 C 1768.54 407.804 1766.14 444.558 1766.09 474.106 L 1766.07 1565.73 C 1766.1 1661.88 1768.59 1733.07 1651.01 1765.01 C 1639.92 1766.21 1611.86 1765.08 1599.71 1765.04 L 483.929 1765.02 C 342.879 1765.06 283.948 1746.88 283.985 1594.09 L 284.034 482.933 C 283.993 384.412 281.843 300.941 401.784 279.001 z M 425.692 1625.99 C 468.371 1625.07 514.876 1625.99 557.832 1625.99 L 1623.88 1625.99 C 1624.66 1614.15 1624.03 1596.28 1623.97 1584.08 L 1623.88 418.001 L 425.692 418.001 L 425.692 1625.99 z" fill="rgb(0,0,0)" transform="translate(0,0)"></path>
<path d="M 640.979 629.288 C 657.071 627.535 693.388 639.322 710.206 643.841 L 925.06 700.975 C 963.862 711.116 1006.89 721.842 1045.2 733.544 C 1165.49 700.853 1306.59 754.051 1384.99 848.158 C 1512.76 1001.54 1489.24 1211.49 1338.68 1340.29 C 1192.93 1451.07 1025.01 1425.24 881.685 1320.48 C 723.921 1205.16 616.457 1025.09 584.078 832.769 C 577.041 790.973 577.174 744.597 576.427 702.405 C 575.719 662.43 601.836 634.829 640.979 629.288 z M 1281.9 1197.6 C 1388.01 1059.13 1287.08 866.579 1114.6 865.151 C 1113.04 874.275 1111.42 883.413 1110.11 892.573 C 1027.94 874.559 939.718 850.778 858.694 828.719 L 768.757 804.876 C 754.099 801.018 736.526 795.508 722.134 792.543 C 734.81 931.121 825.07 1096.15 929.168 1183.24 C 1029.03 1266.79 1182.98 1318.3 1278.86 1201.37 L 1281.9 1197.6 z" fill="rgb(0,0,0)" transform="translate(0,0)"></path>
<metadata><recraft-signature>{"signed_by": "recraft", "signature_b64": "USBi55M5/HLAk72fryiKc4ceAkVuW0siOfXnvVghKSdgOGqYT3Sdb9ZF80IIJJfDSO8GBYj+7ZpL10zTadZmCg==", "signing_algo": "Ed25519", "generation_timestamp": 1772999212, "identifier": "7f9d8d91-1593-4202-a6aa-fd542c3ebb36"}</recraft-signature></metadata></svg>