<svg xmlns="http://www.w3.org/2000/svg" height="512" preserveAspectRatio="none" style="display: block;" version="1.1" viewBox="0 0 2048 2048" width="512">
<path d="M 702.362 303.012 C 703.515 302.885 702.766 302.932 705.089 302.925 L 1510.08 302.93 C 1659.69 302.905 1635.1 451.937 1550.45 463.288 C 1541.11 464.539 1529.31 464.022 1519.72 464.023 L 966.268 464.001 C 909.954 464.005 851.095 464.968 795.001 464.001 L 795.001 869.927 L 1473.08 869.907 C 1498.31 869.909 1525.86 869.162 1550.82 871.031 C 1610.88 876.061 1637.48 957.588 1593.41 1002.37 C 1564.26 1031.99 1524.29 1025.2 1485.74 1025.2 L 1378.5 1025.13 L 795.001 1025.13 L 795.002 1691.31 C 794.962 1709.29 796.572 1748.07 790.629 1763.45 C 762.21 1836.98 650.396 1825.49 639.184 1749.22 C 637.189 1722.52 638.023 1694.66 638.031 1667.85 L 638.073 1185.5 C 638.067 1133.38 636.95 1076.93 638.065 1025.13 L 636.9 1025.16 C 599.4 1026.14 553.332 1023.3 516.472 1025.17 C 413.923 1030.38 394.465 901.113 489.088 872.523 C 504.599 867.836 536.137 869.863 553.91 869.865 L 638.065 869.927 L 638.031 426.91 C 638.036 369.895 634.51 317.561 702.362 303.012 z" fill="rgb(0,0,0)" transform="translate(0,0)"></path>
<metadata><recraft-signature>{"signed_by": "recraft", "signature_b64": "GkpCNfxc5AQEW5YEno9KNCTGEQFkze4Gb00gxmfJqdpeNTO4JSEjnusFZePWLiVLk+Y8TuHG12M8OdbaB6blAg==", "signing_algo": "Ed25519", "generation_timestamp": 1772995767, "identifier": "1e9dcc28-6e90-489b-be92-fccf289d4e27"}</recraft-signature></metadata></svg>