<svg xmlns="http://www.w3.org/2000/svg" height="512" preserveAspectRatio="none" style="display: block;" version="1.1" viewBox="0 0 2048 2048" width="512">
<path d="M 400.5 488.113 L 1766 488.113 L 1766 1558.99 L 1650.5 1558.99 L 281.014 1558.99 L 281.014 488.113 C 293.468 488.727 308.816 488.19 321.58 488.175 L 400.5 488.113 z M 768.49 1482 L 1688.5 1482 C 1689.29 1475.6 1688.65 1455.25 1688.62 1447.8 L 1688.5 1114 L 768.49 1114 L 768.47 1358.16 C 768.466 1398.92 767.861 1441.38 768.49 1482 z M 359.012 1114 C 360.47 1235.93 358.438 1359.82 359.012 1482 L 586.146 1482 L 586.146 1114 C 559.815 1114.87 528.964 1114.01 502.208 1114.01 L 359.012 1114 z M 359.012 563.751 L 359.012 930.998 L 561.512 930.847 C 567.944 930.795 580.143 930.306 586.146 930.998 C 589.306 914.065 586.093 865.883 586.101 846.568 L 586.118 657.597 C 586.108 629.631 584.902 590.808 586.146 563.751 C 561.34 563.104 534.248 563.745 509.218 563.751 L 359.012 563.751 z M 768.49 930.998 L 1688.5 930.998 C 1689.78 927.685 1688.57 595.649 1688.5 563.751 L 868.787 563.745 C 838.441 563.743 797.976 562.504 768.49 563.751 C 769.283 592.844 768.491 625.478 768.486 654.886 L 768.47 836.826 C 768.466 864.31 767.069 904.759 768.49 930.998 z" fill="rgb(0,0,0)" transform="translate(0,0)"></path>
<metadata><recraft-signature>{"signed_by": "recraft", "signature_b64": "ufdet2gPSWdSc6hLXcFZnBd7bVmYsRC7kNj8RGay2g7f7bhI+UJgeb0CEyJWsDfGJ5IIvG/HMomfI3LN8Q8ABA==", "signing_algo": "Ed25519", "generation_timestamp": 1772997908, "identifier": "6b2f9983-f62b-4520-8d87-3cf4d92d3d35"}</recraft-signature></metadata></svg>