<svg xmlns="http://www.w3.org/2000/svg" height="512" preserveAspectRatio="none" style="display: block;" version="1.1" viewBox="0 0 2048 2048" width="512">
<path d="M 475.751 292.896 L 1769.88 292.884 C 1785.45 292.867 1802.91 292.129 1818.14 292.896 L 1818.14 1753.52 C 1792.48 1754.49 1759.79 1753.56 1733.71 1753.55 L 1567.5 1753.52 L 230.99 1753.52 L 230.99 292.896 L 475.751 292.896 z M 361.997 1089.14 L 361.997 1623.9 C 378.303 1623.29 396.37 1623.87 412.885 1623.88 L 816.5 1623.9 L 958.059 1623.9 L 958.059 1089.14 C 913.079 1088.53 867.164 1089.26 822.063 1089.21 L 503.996 1089.14 L 361.997 1089.14 z M 1091 423.025 L 1090.98 900.379 C 1090.97 917.05 1090.07 941.307 1091 957.003 L 1685.61 957.003 C 1684.65 919.177 1685.65 878.337 1685.65 840.133 L 1685.56 483.256 C 1685.55 464.194 1684.84 441.662 1685.61 423.025 L 1091 423.025 z M 958.059 957.003 L 958.059 617.77 C 958.064 554.451 959.389 486.03 958.059 423.025 L 361.997 423.025 L 361.997 957.003 C 428.954 957.865 497.77 956.999 564.889 957 L 958.059 957.003 z M 1097.61 1089.14 L 1092.06 1089.76 C 1091.7 1090.29 1091.34 1090.83 1090.98 1091.36 L 1091 1623.9 L 1484.56 1623.89 C 1549.39 1623.89 1616.74 1622.88 1681.25 1623.9 L 1684.26 1623.31 C 1686.8 1618.78 1685.56 1566.39 1685.56 1557.73 L 1685.61 1089.14 L 1097.61 1089.14 z" fill="rgb(0,0,0)" transform="translate(0,0)"></path>
<metadata><recraft-signature>{"signed_by": "recraft", "signature_b64": "SuycpQW5OY/rW+5nvSZDmvWGNsV/MZ0rHMCWfRNrkXU3rtKvWBSKPEBQJhX4yzrWiKdQqvfR8UlXrf86+0OXCQ==", "signing_algo": "Ed25519", "generation_timestamp": 1772996285, "identifier": "c9a5fd3f-2175-4b95-bfc7-88e5734bbb9e"}</recraft-signature></metadata></svg>