<svg xmlns="http://www.w3.org/2000/svg" height="512" preserveAspectRatio="none" style="display: block;" version="1.1" viewBox="0 0 2048 2048" width="512">
<path d="M 978.058 714.77 L 978.013 337.346 C 977.99 321.61 976.874 302.613 978.969 287.197 C 986.078 234.884 1061.62 234.581 1071.1 285.979 C 1074.24 303.006 1072.97 324.954 1072.97 342.465 L 1072.97 708.644 C 1140.72 541.904 1248.46 385.979 1375.31 258.752 C 1423.65 222.491 1478.93 286.798 1436.52 331.089 C 1299.09 474.604 1155.99 687.926 1122.59 887.484 L 1122.39 888.77 C 1161.85 890.127 1209.37 888.796 1249.4 888.77 L 1251.07 881.918 C 1300.8 679.437 1422.16 517.32 1567.72 371.544 C 1638.33 300.827 1684.69 385.619 1654.38 420.84 C 1645.26 431.518 1635.31 440.863 1625.55 450.929 C 1479.48 599.823 1414.23 696.589 1350.37 888.77 C 1387.18 905.396 1406.74 907.98 1432.14 945.125 C 1453.39 981.592 1449.78 1005.65 1449.77 1046.27 L 1449.75 1638.77 C 1449.8 1673.83 1451.82 1695.33 1436.06 1728.07 C 1393.36 1816.76 1293.35 1798.61 1211.5 1798.61 L 814.576 1798.66 C 782.431 1798.68 748.374 1799.78 716.545 1797.9 C 578.131 1789.77 597.61 1641.18 597.6 1545.93 L 597.569 1102.39 C 597.57 998.597 583.315 925.786 698.81 888.77 C 660.922 742.823 557.885 601.211 457.327 489.833 C 436.975 467.26 414.729 446.31 394.767 423.414 C 364.649 388.871 400.695 297.061 480.687 376.219 C 600.856 495.134 766.377 715.815 797.833 888.77 C 838.59 890.399 885.732 889.943 926.287 888.77 C 881.058 668.791 756.192 487.27 605.985 325.093 C 579.046 296.008 599.686 253.068 642.042 247.372 C 710.101 253.52 891.393 540.722 922.416 597.632 C 943.288 635.922 959.762 675.404 978.058 714.77 z" fill="rgb(29,28,28)" transform="translate(0,0)"></path>
<path d="M 778.922 982.705 L 1263.36 982.691 C 1341.98 982.704 1354.41 966.442 1354.11 1045.04 L 1354 1547.58 C 1354 1587.6 1354.37 1628.08 1353.72 1668.11 C 1352.96 1715.03 1295.54 1702.37 1260.61 1702.36 L 778.922 1702.32 C 736.644 1702.41 693.34 1714.26 693.985 1658.72 C 694.546 1610.41 693.919 1561.28 693.913 1512.89 L 693.922 1078.76 C 693.935 982.325 679.921 982.248 778.922 982.705 z" fill="rgb(254,254,254)" transform="translate(0,0)"></path>
<path d="M 778.922 1702.32 C 736.644 1702.41 693.34 1714.26 693.985 1658.72 C 694.546 1610.41 693.919 1561.28 693.913 1512.89 L 693.922 1078.76 C 693.935 982.325 679.921 982.248 778.922 982.705 C 777.895 1029.39 778.929 1079.81 778.935 1126.92 L 778.921 1608.49 C 778.915 1635.37 777.504 1676.58 778.922 1702.32 z" fill="rgb(176,212,236)" transform="translate(0,0)"></path>
<metadata><recraft-signature>{"signed_by": "recraft", "signature_b64": "jREGZy7+VouXAJ3qlUE+2JKYIhErhKJg9GikJON45IA77Jg+b3gPNx2GqeMF6vx7UfZNLNxS2Qd/LXaxzTsyDw==", "signing_algo": "Ed25519", "generation_timestamp": 1772999377, "identifier": "2b2710d5-4366-4ac7-882e-2881644a5c83"}</recraft-signature></metadata></svg>