<svg xmlns="http://www.w3.org/2000/svg" height="512" preserveAspectRatio="none" style="display: block;" version="1.1" viewBox="0 0 2048 2048" width="512">
<path d="M 806.255 802.772 L 805.514 801.215 C 796.793 783.108 783.242 767.347 774.388 748.492 C 708.993 609.216 763.909 444.842 902.79 377.098 C 1154.15 254.488 1402.74 539.869 1257.14 775.586 C 1251.8 784.227 1243.7 794.496 1238.79 802.772 C 1240.51 840.906 1257.89 916.928 1280.91 949.709 C 1308.65 1007.83 1363.9 1071.25 1420.2 1103.35 C 1433.2 1110.76 1471.06 1126.41 1477.89 1131.92 C 1732.89 1081.16 1917.74 1358.16 1775.46 1571.73 C 1690.13 1699.81 1506.93 1734.89 1380.85 1645.8 C 1330.88 1610.48 1311.68 1582.3 1280.91 1530.58 C 1263.99 1521.33 1249.45 1506.86 1232.89 1496.55 C 1185.06 1466.8 1154.79 1471.22 1106.58 1461.47 L 1105.28 1461.2 C 1040.87 1471 1018.37 1471.5 951.067 1461.2 C 899.628 1465.6 857.317 1470.4 810.313 1497.34 C 796.402 1505.31 783.745 1517.99 770.293 1526.54 C 747.331 1570.32 723.848 1606.09 683.824 1636.47 C 545.504 1741.43 344.551 1699.28 260.049 1547.59 C 192.058 1425.99 225.009 1261.32 340.771 1180.71 C 418.967 1126.25 483.587 1118.36 575.097 1131.92 C 580.514 1127.91 593.798 1121.88 600.225 1118.41 C 723.239 1051.95 787.561 936.462 806.255 802.772 z M 1044.55 1375.83 C 1169.43 1365.4 1262.2 1255.69 1251.74 1130.81 C 1241.27 1005.92 1131.53 913.183 1006.65 923.682 C 881.822 934.177 789.122 1043.87 799.585 1168.7 C 810.047 1293.54 919.711 1386.26 1044.55 1375.83 z M 526.467 1600.82 C 632.244 1591.62 710.469 1498.31 701.077 1392.55 C 691.686 1286.79 598.242 1208.73 492.499 1218.31 C 387.021 1227.87 309.2 1321.03 318.568 1426.52 C 327.937 1532.01 420.957 1610 526.467 1600.82 z" fill="rgb(41,40,40)" transform="translate(0,0)"></path>
<path d="M 806.255 802.772 C 815.584 808.397 861.544 851.492 879.537 865.241 C 750.692 922.116 688.31 1074.61 711.813 1209.37 C 678.634 1171.89 623.949 1143.02 575.097 1131.92 C 580.514 1127.91 593.798 1121.88 600.225 1118.41 C 723.239 1051.95 787.561 936.462 806.255 802.772 z" fill="rgb(230,73,69)" transform="translate(0,0)"></path>
<path d="M 1280.91 949.709 C 1308.65 1007.83 1363.9 1071.25 1420.2 1103.35 C 1433.2 1110.76 1471.06 1126.41 1477.89 1131.92 C 1417 1145.85 1382.76 1168.51 1338.12 1209.37 C 1356.6 1117.33 1331.55 1030.01 1276.86 955.342 L 1280.91 949.709 z" fill="rgb(252,209,87)" transform="translate(0,0)"></path>
<path d="M 790.022 1363.54 C 852.735 1427.89 874.477 1431.19 950.05 1460.79 L 951.067 1461.2 C 899.628 1465.6 857.317 1470.4 810.313 1497.34 C 796.402 1505.31 783.745 1517.99 770.293 1526.54 C 771.276 1520.78 780.18 1499.09 782.381 1491.35 C 795.514 1445.2 796.782 1410.45 790.022 1363.54 z" fill="rgb(230,73,69)" transform="translate(0,0)"></path>
<path d="M 1254.93 1370.53 C 1253.5 1440.67 1253.22 1463.32 1280.91 1530.58 C 1263.99 1521.33 1249.45 1506.86 1232.89 1496.55 C 1185.06 1466.8 1154.79 1471.22 1106.58 1461.47 L 1105.28 1461.2 C 1164.72 1438.84 1212.62 1425.05 1254.93 1370.53 z" fill="rgb(252,209,87)" transform="translate(0,0)"></path>
<path d="M 1238.79 802.772 C 1240.51 840.906 1257.89 916.928 1280.91 949.709 L 1276.86 955.342 C 1242.54 916.865 1216.79 887.843 1167.44 865.241 C 1198.52 843.868 1212.43 831.835 1238.79 802.772 z" fill="rgb(230,73,69)" transform="translate(0,0)"></path>
<path d="M 1534.4 1219.31 C 1639.34 1216.89 1726.46 1299.81 1729.25 1404.73 C 1732.03 1509.66 1649.42 1597.07 1544.5 1600.22 C 1439.07 1603.38 1351.14 1520.28 1348.34 1414.83 C 1345.54 1309.39 1428.95 1221.75 1534.4 1219.31 z" fill="rgb(252,209,87)" transform="translate(0,0)"></path>
<path d="M 1004.45 443.577 C 1106.07 432.74 1197.23 506.352 1208.03 607.975 C 1218.83 709.598 1145.19 800.729 1043.56 811.498 C 941.984 822.261 850.906 748.661 840.108 647.087 C 829.31 545.513 902.88 454.41 1004.45 443.577 z" fill="rgb(167,210,223)" transform="translate(0,0)"></path>
<metadata><recraft-signature>{"signed_by": "recraft", "signature_b64": "cNI0cZ/RpcmV1uX4JMozDAhlbmO1aq54Ii/UvtTQ8vIq1bC/mhp9xO82JoFeIn4m6eUC2dJXno4+M2Zea9oQCw==", "signing_algo": "Ed25519", "generation_timestamp": 1772988261, "identifier": "6f9dc7ea-df3c-4c14-a363-047bf30fce0b"}</recraft-signature></metadata></svg>