<svg xmlns="http://www.w3.org/2000/svg" height="512" preserveAspectRatio="none" style="display: block;" version="1.1" viewBox="0 0 2048 2048" width="512">
<path d="M 596.795 297.001 C 786.535 287.982 985.264 417.723 1022.93 608.617 C 1075.66 406.713 1281.81 268.857 1488.39 301.452 C 1822.3 354.137 1955.88 773.074 1722.03 1006.64 C 1709.76 1018.9 1696.87 1031.6 1682.69 1041.56 C 1817.18 1219.29 1782.25 1465.11 1630.71 1619.87 C 1506.42 1745.98 1386.15 1747.04 1223.4 1747.01 L 819.08 1747.01 C 782.443 1747.01 743.834 1748.21 707.422 1746.63 C 376.129 1732.27 175.898 1364.36 342.437 1075.89 C 348.458 1065.46 356.489 1049.63 365.44 1041.56 C 349.133 1023.6 329.015 1006.83 312.092 988.034 C 76.6265 726.577 247.746 333.89 596.795 297.001 z M 498.698 1111.62 C 356.767 1288.49 448.61 1550.27 671.721 1593.56 C 715.491 1602.05 777.823 1599.52 823.839 1599.51 L 1034.25 1599.51 L 1219.77 1599.44 C 1341.33 1599.63 1435.15 1609.47 1530.13 1513.5 C 1628.62 1414.01 1650.59 1264.04 1577.6 1142.83 C 1570.86 1131.63 1563.61 1120.59 1554.02 1111.62 L 1552.29 1111.72 C 1538.97 1112.52 1525.22 1117.63 1512.31 1120.54 C 1305.06 1167.28 1102.96 1046.51 1031.7 848.323 C 1030.53 845.058 1024.97 829.49 1022.93 827.521 C 950.512 1060 732.696 1178.13 498.698 1111.62 z M 641.454 981.527 C 790.016 971.345 902.192 842.654 892.002 694.093 C 881.811 545.532 753.113 433.364 604.553 443.563 C 456.006 453.762 343.849 582.447 354.039 730.994 C 364.228 879.542 492.906 991.707 641.454 981.527 z M 1429.49 982.386 C 1578.06 979.465 1696.12 856.608 1693.12 708.03 C 1690.12 559.453 1567.2 441.464 1418.62 444.545 C 1270.16 447.623 1152.28 570.43 1155.28 718.895 C 1158.27 867.36 1281.02 985.306 1429.49 982.386 z" fill="rgb(0,0,0)" transform="translate(0,0)"></path>
<metadata><recraft-signature>{"signed_by": "recraft", "signature_b64": "cp6meYpkFZJbxK1uPnBZdY2KrJq5qRIP4CtqGyzx08AEUOfoK+ljL/JoUQ4Zqtw0sqU7I8lbAdOBsLG8TymFCA==", "signing_algo": "Ed25519", "generation_timestamp": 1772989617, "identifier": "dd68a0fd-a394-40bb-ac50-eae64adb3d0e"}</recraft-signature></metadata></svg>