<svg xmlns="http://www.w3.org/2000/svg" height="512" preserveAspectRatio="none" style="display: block;" version="1.1" viewBox="0 0 2048 2048" width="512">
<path d="M 1027.17 698.589 C 1053.06 700.845 1079.83 696.149 1106.08 695.246 C 1164.43 693.239 1248.42 694.181 1306.24 707.069 C 1309.59 707.362 1318.92 707.421 1322.26 707.069 C 1395.38 732.227 1515.83 746.842 1555.07 823.595 C 1567.37 847.667 1560.87 871.996 1560.93 896.104 C 1606.77 877.031 1656.15 866.377 1703.73 887.343 C 1801.65 930.488 1847.95 1047.6 1803.47 1145.17 C 1761.36 1237.54 1669.26 1269.83 1595.44 1327.69 C 1559.9 1355.54 1549.48 1410.38 1498.36 1429.06 L 1497.9 1430.87 C 1487.06 1474.14 1492.41 1494.82 1442.45 1522.33 C 1312.04 1594.13 1075.92 1604.03 934.196 1556.72 C 921.638 1603.36 904.032 1639.14 860.661 1664.13 C 750.838 1727.4 515.742 1708.4 393.331 1666.19 C 260.831 1620.51 198.419 1546.08 237.962 1404.52 C 291.755 1211.93 487.881 1097.11 681.448 1152.68 C 711.121 1161.2 738.601 1174.35 766.614 1187 L 766.679 1185.17 C 767.056 1173.11 765.145 1159.48 763.792 1147.37 L 740.307 912.264 C 738.815 896.279 732.97 854.748 735.727 840.496 C 750.131 766.041 854.776 749.455 909.51 721.657 C 912.617 722.006 918.367 721.716 921.705 721.657 C 940.787 716.253 972.664 711.006 993.191 707.069 C 1001.53 705.882 1021.47 703.981 1027.17 698.589 z M 1524.78 1253.94 C 1541.27 1253.11 1577.25 1235.88 1593.48 1227.99 C 1651.72 1198.06 1701.41 1162.76 1724.77 1097.99 C 1746.85 1036.79 1701.47 966.103 1633.94 975.279 C 1601.24 981.923 1575.8 996.873 1555.01 1023.81 C 1547.11 1034.05 1526.63 1216.3 1524.78 1253.94 z" fill="rgb(0,0,0)" transform="translate(0,0)"></path>
<path d="M 1427.25 959.248 C 1470.71 941.552 1516.69 924.315 1542.35 881.782 C 1542.56 904.144 1538.99 934.721 1536.66 957.527 L 1524.54 1072.64 C 1517.88 1136.25 1491.9 1446.57 1453.37 1486.33 C 1360.76 1581.88 1064.39 1577.1 938.036 1536.39 C 936.535 1509.38 940.165 1482.77 936.788 1455.65 C 926.318 1371.54 869.01 1242.99 789.233 1202 C 788.698 1194.59 787.87 1183.99 789.233 1176.62 C 782.36 1153.61 780.51 1118.86 778.132 1094.16 L 766.607 972.79 C 764.32 948.544 762.329 919.743 758.386 896.104 C 923.303 1024.56 1240.36 1023.84 1427.25 959.248 z" fill="rgb(173,78,44)" transform="translate(0,0)"></path>
<path d="M 1427.25 959.248 C 1470.71 941.552 1516.69 924.315 1542.35 881.782 C 1542.56 904.144 1538.99 934.721 1536.66 957.527 L 1524.54 1072.64 C 1517.88 1136.25 1491.9 1446.57 1453.37 1486.33 C 1360.76 1581.88 1064.39 1577.1 938.036 1536.39 C 936.535 1509.38 940.165 1482.77 936.788 1455.65 C 926.318 1371.54 869.01 1242.99 789.233 1202 C 788.698 1194.59 787.87 1183.99 789.233 1176.62 C 794.603 1178.33 809.364 1187.82 814.056 1190.93 C 920.983 1261.86 985.717 1380.44 995.924 1507.52 C 996.907 1519.76 996.868 1533.53 999.15 1545.66 C 1005.92 1551.44 1073.16 1547.05 1084.93 1546.4 C 1347.28 1531.71 1416.62 1346.99 1433.89 1114.6 C 1435.33 1095.19 1439.18 969.472 1427.25 959.248 z" fill="rgb(122,42,12)" transform="translate(0,0)"></path>
<path d="M 266.159 1571.2 C 210.233 1528.41 254.573 1380.44 282.771 1329.96 C 385.041 1146.88 599.021 1107.77 773.547 1207.15 C 931.151 1305.49 1016.21 1636.28 782.903 1678.93 C 650.714 1703.09 355.063 1692.03 266.159 1571.2 z" fill="rgb(227,140,73)" transform="translate(0,0)"></path>
<path d="M 852.2 1361.97 C 845.336 1451.9 764.573 1494.02 683.9 1511.39 C 593.154 1530.93 485.24 1522.96 405.332 1472.61 C 331.613 1426.16 323.839 1347.05 369.554 1276.72 C 454.162 1146.54 652.872 1149.27 773.547 1227.99 L 774.806 1229.28 C 814.434 1269.58 849.985 1298.21 852.2 1361.97 z" fill="rgb(0,0,0)" transform="translate(0,0)"></path>
<path d="M 566.642 1187 C 788.563 1167.46 948.078 1398.23 739.316 1478.07 C 695.74 1494.73 669.628 1499.21 622.755 1505.17 C 603.604 1504.08 583.086 1505.5 563.298 1504.93 C 276.475 1496.62 294.81 1216.94 566.642 1187 z" fill="rgb(184,93,29)" transform="translate(0,0)"></path>
<path d="M 566.642 1479.17 C 501.081 1479.96 376.452 1438.81 380.755 1355.02 C 382.724 1316.69 404.154 1288.17 431.007 1262.14 C 519.219 1177.52 682.216 1182.56 766.443 1268.56 C 873.66 1382.92 740.993 1481.63 610.377 1475.94 C 598.152 1491.78 581.691 1490.32 566.642 1479.17 z" fill="rgb(0,0,0)" transform="translate(0,0)"></path>
<path d="M 566.642 1479.17 C 501.081 1479.96 376.452 1438.81 380.755 1355.02 C 382.724 1316.69 404.154 1288.17 431.007 1262.14 C 519.219 1177.52 682.216 1182.56 766.443 1268.56 C 873.66 1382.92 740.993 1481.63 610.377 1475.94 C 618.263 1458.16 616.928 1438.05 597.256 1429.06 L 597.256 1426.67 C 740.928 1450.9 843.252 1303.21 692.993 1236.77 C 681.675 1231.33 686.941 1223.72 666.189 1219.46 C 658.541 1221.72 653.916 1222.8 647.604 1227.99 L 646.44 1227.87 C 578.879 1220.44 518.266 1223.91 461.721 1268.82 C 419.7 1302.2 400.356 1353.59 437.577 1398.58 C 468.311 1435.73 517.671 1446.64 563.317 1451.39 C 560.141 1463.33 559.521 1468.17 566.642 1479.17 z" fill="rgb(227,140,73)" transform="translate(0,0)"></path>
<path d="M 566.642 1419.47 C 548.109 1430.04 484.446 1399.02 469.782 1379.23 C 445.404 1346.33 472.332 1301.66 501.417 1281.9 C 542.486 1254 591.681 1245.51 640.454 1253.94 C 643.988 1279.01 666.452 1290.99 687.532 1273.14 C 693.695 1275.31 698.49 1279.05 702.154 1284.36 C 767.19 1378.62 571.933 1432.55 548.437 1344.26 C 562.473 1290.65 639.186 1312.95 622.755 1354.79 C 573.109 1344.03 598.696 1337.65 597.912 1325.46 C 585.961 1304.84 544.216 1365.04 631.789 1370.83 C 690.335 1374.7 688.276 1278.68 582.21 1281.64 C 491.473 1284.17 470.299 1379.94 566.642 1419.47 z" fill="rgb(227,140,73)" transform="translate(0,0)"></path>
<path d="M 693.831 1253.94 C 735.661 1274.35 768.391 1303.48 742.844 1354.49 C 685.757 1468.48 478.716 1401.87 523.158 1326.57 C 551.888 1274.79 681.478 1298.08 650.774 1347.93 C 644.553 1358.03 633.474 1356.69 622.755 1354.79 C 639.186 1312.95 562.473 1290.65 548.437 1344.26 C 571.933 1432.55 767.19 1378.62 702.154 1284.36 C 698.49 1279.05 693.695 1275.31 687.532 1273.14 C 691.354 1266.22 692.838 1261.85 693.831 1253.94 z" fill="rgb(184,93,29)" transform="translate(0,0)"></path>
<path d="M 571.335 1438.66 C 530.135 1433.49 491.5 1427.58 458.374 1399.27 C 422.224 1368.38 425.145 1325.77 456.573 1292.43 C 511.007 1234.69 572.007 1241.53 640.454 1239.02 L 640.454 1253.94 C 591.681 1245.51 542.486 1254 501.417 1281.9 C 472.332 1301.66 445.404 1346.33 469.782 1379.23 C 484.446 1399.02 548.109 1430.04 566.642 1419.47 C 577.971 1422.54 585.686 1424.57 597.256 1426.67 L 597.256 1429.06 C 585.544 1428.88 579.61 1429.71 571.335 1438.66 z" fill="rgb(184,93,29)" transform="translate(0,0)"></path>
<path d="M 773.547 1207.15 C 931.151 1305.49 1016.21 1636.28 782.903 1678.93 C 650.714 1703.09 355.063 1692.03 266.159 1571.2 C 271.476 1571.96 278.479 1575.17 283.336 1577.59 C 412.583 1641.96 669.285 1694.73 791.202 1601.67 C 843.423 1561.8 862.538 1494.93 863.234 1431.74 C 863.426 1414.35 863.15 1375.67 852.2 1361.97 C 849.985 1298.21 814.434 1269.58 774.806 1229.28 L 773.547 1227.99 C 775.256 1222.44 773.539 1213.98 773.547 1207.15 z" fill="rgb(184,93,29)" transform="translate(0,0)"></path>
<path d="M 338.897 1282.81 C 341.089 1295.98 316.18 1338.9 310.944 1355.11 C 287.929 1426.36 295.67 1521.57 367.79 1561.77 C 393.149 1575.91 438.212 1594.36 375.767 1587.7 C 206.576 1567.21 250.151 1368.42 338.897 1282.81 z" fill="rgb(254,184,113)" transform="translate(0,0)"></path>
<path d="M 1027.17 721.657 C 1163.26 698.167 1383.63 720.405 1495.98 792.889 C 1542.17 822.685 1545.53 852.517 1509.12 892.026 C 1451.8 853.869 1389.28 832.394 1322.26 817.461 C 1323.67 822.076 1339.93 828.786 1348.1 836.128 C 1374.45 831.938 1476.88 881.554 1504.75 896.104 C 1460.27 924.955 1381.87 958.771 1328 964.345 C 1324.14 964.316 1320.33 964.3 1316.47 964.345 C 1316 964.539 1315.53 964.733 1315.06 964.927 C 1153.86 993.735 965.133 985.272 815.575 912.241 C 837.631 888.556 871.075 866.928 900.468 852.669 L 903.654 844.262 C 864.768 855.342 832.144 875.942 805.77 906.248 C 781.456 887.343 738.947 852.99 766.778 821.33 C 825.038 755.055 945.314 733.336 1027.17 721.657 z" fill="rgb(122,42,12)" transform="translate(0,0)"></path>
<path d="M 1027.17 721.657 C 1163.26 698.167 1383.63 720.405 1495.98 792.889 C 1542.17 822.685 1545.53 852.517 1509.12 892.026 C 1451.8 853.869 1389.28 832.394 1322.26 817.461 C 1320.14 816.979 1318.69 817.304 1316.47 817.461 C 1309.42 815.401 1306.4 814.031 1298.92 813.197 C 1290.79 816.139 1285.52 809.189 1274.88 813.197 C 1265.48 808.436 1254.47 805.62 1248.02 802.105 L 1248.02 802.105 C 1193.49 784.772 1160.6 795.065 1111.02 790.769 L 1111.38 789.958 C 1093.61 772.281 1025.74 797.723 1027.17 721.657 z" fill="rgb(198,186,177)" transform="translate(0,0)"></path>
<path d="M 1248.02 802.105 C 1268.5 802.465 1280.4 804.576 1298.92 813.197 C 1290.79 816.139 1285.52 809.189 1274.88 813.197 C 1265.48 808.436 1254.47 805.62 1248.02 802.105 z" fill="rgb(0,0,0)" transform="translate(0,0)"></path>
<path d="M 1298.92 813.197 C 1306.4 814.031 1309.42 815.401 1316.47 817.461 C 1318.69 817.304 1320.14 816.979 1322.26 817.461 C 1323.67 822.076 1339.93 828.786 1348.1 836.128 C 1374.45 831.938 1476.88 881.554 1504.75 896.104 C 1460.27 924.955 1381.87 958.771 1328 964.345 C 1324.14 964.316 1320.33 964.3 1316.47 964.345 C 1316 964.539 1315.53 964.733 1315.06 964.927 C 1153.86 993.735 965.133 985.272 815.575 912.241 C 837.631 888.556 871.075 866.928 900.468 852.669 C 881.546 994.525 1322.29 954.88 1317.94 868.376 C 1316.71 843.977 1293.84 828.285 1277.52 813.197 L 1274.88 813.197 C 1285.52 809.189 1290.79 816.139 1298.92 813.197 z" fill="rgb(122,42,12)" transform="translate(0,0)"></path>
<path d="M 1348.1 836.128 C 1374.45 831.938 1476.88 881.554 1504.75 896.104 C 1460.27 924.955 1381.87 958.771 1328 964.345 C 1367.11 925.148 1421.66 896.831 1354.24 841.002 L 1348.1 836.128 z" fill="rgb(122,42,12)" transform="translate(0,0)"></path>
<path d="M 1354.24 841.002 C 1421.66 896.831 1367.11 925.148 1328 964.345 C 1324.14 964.316 1320.33 964.3 1316.47 964.345 C 1322.08 953.1 1373.37 938.08 1380.19 898.007 C 1384.21 874.413 1366.45 857.942 1354.24 841.002 L 1354.24 841.002 z" fill="rgb(198,186,177)" transform="translate(0,0)"></path>
<path d="M 1316.47 817.461 C 1318.69 817.304 1320.14 816.979 1322.26 817.461 C 1323.67 822.076 1339.93 828.786 1348.1 836.128 L 1354.24 841.002 L 1354.24 841.002 C 1346.05 836.752 1322.92 823.378 1316.47 817.461 z" fill="rgb(172,128,102)" transform="translate(0,0)"></path>
<path d="M 805.77 906.248 C 781.456 887.343 738.947 852.99 766.778 821.33 C 825.038 755.055 945.314 733.336 1027.17 721.657 C 1025.74 797.723 1093.61 772.281 1111.38 789.958 L 1111.02 790.769 C 1085.07 799.554 1059.44 799.016 1035.59 805.133 C 1019.82 808.772 927.117 827.509 921.705 841.002 C 867.196 958.719 1235 953.493 1308.7 878.543 C 1326.19 860.756 1288.23 826.308 1274.88 817.461 L 1277.52 813.197 C 1293.84 828.285 1316.71 843.977 1317.94 868.376 C 1322.29 954.88 881.546 994.525 900.468 852.669 L 903.654 844.262 C 864.768 855.342 832.144 875.942 805.77 906.248 z" fill="rgb(182,161,147)" transform="translate(0,0)"></path>
<path d="M 921.705 841.002 C 927.117 827.509 1019.82 808.772 1035.59 805.133 L 1035.75 806.245 C 1015.7 816.283 978.798 819.375 956.991 829.098 C 953.151 830.81 925.35 841.897 923.068 841.857 L 921.705 841.002 z" fill="rgb(0,0,0)" transform="translate(0,0)"></path>
<path d="M 1248.02 802.105 L 1248.02 802.105 C 1254.47 805.62 1265.48 808.436 1274.88 813.197 L 1277.52 813.197 L 1274.88 817.461 C 1266.13 811.614 1257.15 807.825 1248.02 802.105 z" fill="rgb(172,128,102)" transform="translate(0,0)"></path>
<path d="M 1158.93 896.104 C 1143.27 896.879 1070.44 893.453 1084.83 862.616 C 1115.68 803.919 1282.46 849.411 1169.9 892.026 C 1165.18 892.539 1162.94 893.248 1158.93 896.104 z" fill="rgb(198,186,177)" transform="translate(0,0)"></path>
<path d="M 1101.96 856.589 C 1118.35 840.909 1155.18 839.707 1176.16 841.002 L 1176.16 841.002 C 1198.2 843.437 1215.14 862.939 1191 877.009 C 1139.27 907.166 1068.03 877.761 1101.96 859.436 C 1102.73 857.621 1102.68 858.569 1101.96 856.589 z" fill="rgb(122,42,12)" transform="translate(0,0)"></path>
<path d="M 1101.96 856.589 C 1118.35 840.909 1155.18 839.707 1176.16 841.002 C 1168.56 860.924 1121.97 858.671 1101.96 856.589 z" fill="rgb(122,42,12)" transform="translate(0,0)"></path>
<path d="M 1176.16 841.002 L 1176.16 841.002 C 1173.58 868.256 1123.29 859.899 1101.96 859.436 C 1102.73 857.621 1102.68 858.569 1101.96 856.589 C 1121.97 858.671 1168.56 860.924 1176.16 841.002 z" fill="rgb(182,161,147)" transform="translate(0,0)"></path>
<path d="M 1016.3 904.331 C 941.119 852.787 1151.69 761.093 1229.23 829.93 C 1281.06 875.942 1196.06 896.238 1158.93 896.104 C 1162.94 893.248 1165.18 892.539 1169.9 892.026 C 1199.88 892.076 1265.77 875.251 1223.94 836.7 C 1154.68 772.861 961.791 852.78 1016.3 904.331 L 1016.3 904.331 z" fill="rgb(182,161,147)" transform="translate(0,0)"></path>
<path d="M 1016.3 904.331 C 1021.29 906.872 1025.55 908.64 1029.67 912.419 L 1029.99 913.678 C 1026.2 913.468 1018.99 907.061 1016.3 904.331 L 1016.3 904.331 z" fill="rgb(172,128,102)" transform="translate(0,0)"></path>
<path d="M 1560.93 920.437 C 1689.74 840.421 1829.33 972.159 1795.34 1108.24 C 1767.19 1234.02 1631.13 1253 1569.21 1324.28 C 1546.21 1350.75 1532.73 1384.62 1501.7 1405.3 C 1507.2 1372.54 1512.23 1311.49 1520.7 1282.81 C 1529.25 1276.45 1560.46 1263.28 1569.71 1261.36 C 1635.46 1231.85 1695.68 1196.57 1732.42 1131.33 C 1781.39 1042.14 1716.67 930.006 1621.85 959.248 C 1588.44 964.212 1577.99 975.307 1552.6 994.183 C 1554.62 976.527 1557.69 936.204 1560.93 920.437 z" fill="rgb(122,42,12)" transform="translate(0,0)"></path>
<path d="M 1621.85 959.248 C 1621.56 955.899 1622.96 953.644 1625.54 951.129 C 1743.14 836.42 1852.44 1082.44 1702.12 1206.06 C 1685.94 1225.67 1588.92 1272.55 1569.71 1261.36 C 1635.46 1231.85 1695.68 1196.57 1732.42 1131.33 C 1781.39 1042.14 1716.67 930.006 1621.85 959.248 z" fill="rgb(173,78,44)" transform="translate(0,0)"></path>
<path d="M 1306.24 707.069 L 1308.45 705.824 C 1309.25 702.521 1308.99 703.005 1309.27 699.83 C 1313.51 634.939 1420.57 610.724 1424.6 529.319 C 1429.18 436.587 1319.61 390.03 1316.2 374.552 C 1331.91 363.925 1470.92 446.659 1446.62 550.674 C 1431.92 626.982 1346.72 646.213 1322.26 707.069 C 1318.92 707.421 1309.59 707.362 1306.24 707.069 z" fill="rgb(151,149,148)" transform="translate(0,0)"></path>
<path d="M 1061.21 364.684 C 1106.07 365.811 1160.73 433.572 1159.53 481.667 C 1157.47 563.747 1077.87 604.062 1042.72 670.908 C 1037.23 681.353 1036.88 686.57 1029.35 695.542 L 1027.24 698.064 L 1027.17 698.589 C 1021.47 703.981 1001.53 705.882 993.191 707.069 C 1012.78 607.17 1238.33 514.884 1085.8 387.256 C 1076.22 379.238 1065.81 372.389 1056.19 364.684 L 1057.12 363.775 L 1061.21 364.684 z" fill="rgb(219,218,218)" transform="translate(0,0)"></path>
<path d="M 1248.02 349.177 C 1248.97 348.701 1248.27 348.978 1250.27 348.962 C 1382.09 426.763 1194.79 524.297 1180.55 599.352 C 1172.58 641.349 1187.87 652.948 1207.86 682.819 L 1207.26 683.362 L 1203.47 680.652 C 1180.71 665.652 1162.63 650.137 1160.98 620.67 C 1155.25 517.915 1295.78 484.252 1286.51 400.966 C 1283.27 372.482 1267.26 365.344 1248.02 349.177 z" fill="rgb(198,186,177)" transform="translate(0,0)"></path>
<path d="M 997.275 432.085 C 999.122 433.618 1000.42 435.137 1002.54 435.691 C 1055.36 502.88 899.178 586.95 887.915 658.06 C 888.889 700.636 910.54 700.436 921.705 721.657 C 918.367 721.716 912.617 722.006 909.51 721.657 C 885.791 703.363 880.605 687.069 881.035 658.06 C 876.506 570.84 1039.4 517.685 997.275 432.085 z" fill="rgb(219,218,218)" transform="translate(0,0)"></path>
<path d="M 1056.19 364.684 C 1039.06 352.731 1051.25 359.086 1061.21 364.684 L 1057.12 363.775 L 1056.19 364.684 z" fill="rgb(198,186,177)" transform="translate(0,0)"></path>
<path d="M 997.275 432.085 C 986.089 413.922 998.217 429.335 1002.54 435.691 C 1000.42 435.137 999.122 433.618 997.275 432.085 z" fill="rgb(198,186,177)" transform="translate(0,0)"></path>
<metadata><recraft-signature>{"signed_by": "recraft", "signature_b64": "KKFeeAaz+JH5jJMhQOpAxyI1miY3CO8JzYSfyRs+0TSbhn+7F1J/0p7whHpHfnTJzqvL5OFezpmyhhxxzsJbDg==", "signing_algo": "Ed25519", "generation_timestamp": 1772988252, "identifier": "1776a054-fdca-48b5-b9fc-bc8e63fcbcd3"}</recraft-signature></metadata></svg>