<svg xmlns="http://www.w3.org/2000/svg" height="512" preserveAspectRatio="none" style="display: block;" version="1.1" viewBox="0 0 2048 2048" width="512">
<path d="M 985.424 359.112 C 1137.32 354.894 1580.94 393.14 1697.46 511.894 C 1752.02 567.489 1778.17 643.908 1780.89 720.776 C 1781.99 751.26 1763.73 766.358 1753.25 792.2 C 1749.82 801.671 1746.49 828.366 1744.3 839.449 L 1615.96 1460.81 C 1594.72 1560.99 1553.47 1654.73 1438.66 1677.88 C 1390.14 1687.66 1326.9 1684.92 1276.57 1684.92 L 1064.18 1684.9 C 951.955 1684.93 839.476 1685.43 727.274 1684.35 C 690.597 1683.83 652.643 1687.6 616.295 1681.48 C 477.024 1658.03 445.655 1556.49 421.816 1441.13 L 391.242 1293.27 C 359.536 1137.63 326.509 982.223 296.445 826.267 C 293.246 809.673 289.785 789.638 285.485 773.479 C 280.63 758.087 271.441 748.177 270.344 731.377 C 263.505 626.653 316.553 523.206 406.685 469.109 C 503.759 410.845 815.167 367.14 923.121 362.413 C 943.57 361.517 965.048 360.973 985.424 359.112 z M 1584.54 1115.02 C 1557.22 1116.5 1516.13 1115.02 1487.43 1115.02 L 505.383 1115.01 C 498.348 1115 458.471 1113.89 454.289 1115.02 C 459.154 1142.12 465.848 1171.33 471.357 1198.45 L 523.418 1451.4 C 546.959 1565.68 586.842 1587.11 693.092 1587.06 L 1338.13 1587.03 C 1491.8 1587.26 1497.21 1534.7 1525.67 1400.56 L 1584.54 1115.02 z M 374.917 737.742 C 396.116 739.365 420.198 736.029 441.598 735.014 C 523.846 731.001 604.736 735.976 683.059 763.386 C 716.039 774.928 744.348 791.13 776.366 803.86 C 863.685 838.576 970.451 856.574 1064.18 841.752 C 1123.67 833.497 1160.89 821.887 1217.51 801.555 C 1296.16 773.31 1385.95 766.317 1468.8 766.943 C 1518.35 767.432 1656.71 770.679 1681.61 715.151 C 1661.93 581.759 1626.17 562.533 1509.32 527.423 C 1333.88 474.705 1162.39 456.061 979.577 458.061 C 828.519 464.748 682.023 481.565 536.947 526.307 C 513.257 533.613 483.374 539.318 461.76 550.99 C 405.41 581.419 346.422 674.393 374.917 737.742 z" fill="rgb(29,28,28)" transform="translate(0,0)"></path>
<path d="M 966.831 517.305 C 1020 513.881 1037.44 572.101 985.424 590.761 C 923.178 596.447 909.611 531.403 966.831 517.305 z" fill="rgb(29,28,28)" transform="translate(0,0)"></path>
<path d="M 1365.49 622.27 C 1425.76 617.482 1433.88 675.052 1383.06 686.45 C 1321.99 689.903 1311.17 631.904 1365.49 622.27 z" fill="rgb(29,28,28)" transform="translate(0,0)"></path>
<path d="M 1139.17 647.221 C 1199.05 643.805 1210.02 694.071 1160.59 706.26 C 1103.69 713.868 1086.41 661.998 1139.17 647.221 z" fill="rgb(29,28,28)" transform="translate(0,0)"></path>
<path d="M 691.729 586.424 C 737.124 582.475 752.676 629.575 703.401 637.862 C 652.254 642.455 639.59 592.016 691.729 586.424 z" fill="rgb(29,28,28)" transform="translate(0,0)"></path>
<path d="M 929.296 686.45 C 972.325 687.065 986.06 723.505 936.917 737.742 C 918.383 737.415 902.905 734.997 896.705 715.151 C 900.245 694.973 909.251 688.679 929.296 686.45 z" fill="rgb(29,28,28)" transform="translate(0,0)"></path>
<path d="M 396.706 833.954 C 474.583 821.97 594.786 830.178 665.511 858.263 C 689.173 867.364 711.711 880.173 734.748 890.569 C 880.351 956.273 1044.87 960.324 1196.65 913.427 C 1294.29 883.258 1341.93 868.492 1449.74 864.402 C 1520.1 862.856 1570.38 867.276 1639.72 851.136 C 1635.19 877.102 1629.09 903.195 1623.71 928.993 L 1584.54 1115.02 C 1557.22 1116.5 1516.13 1115.02 1487.43 1115.02 L 505.383 1115.01 C 498.348 1115 458.471 1113.89 454.289 1115.02 C 441.049 1057.79 429.233 994.612 417.245 936.788 L 404.916 878.59 C 401.972 864.904 397.928 847.72 396.706 833.954 z" fill="rgb(252,217,117)" transform="translate(0,0)"></path>
<metadata><recraft-signature>{"signed_by": "recraft", "signature_b64": "erXF/NZWsPawOUGIdcN4dJrsPl4ObRs3trPRZFnljcVQ3u/+/Ihi2rXKnbZeAAuuTYJK4vwB0QS+sRQUDX3hAg==", "signing_algo": "Ed25519", "generation_timestamp": 1772995650, "identifier": "0b850ac4-d85e-412f-afbc-4b04fe83c2b5"}</recraft-signature></metadata></svg>