<svg xmlns="http://www.w3.org/2000/svg" height="512" preserveAspectRatio="none" style="display: block;" version="1.1" viewBox="0 0 2048 2048" width="512">
<path d="M 347.7 417.066 C 357.982 416.069 394.861 417.043 407.281 417.067 L 1614.65 417.041 C 1687.47 417.002 1786.76 407.573 1799.63 508.972 C 1801.4 522.907 1800.11 536.44 1800.01 550.52 L 1800.02 1462.37 C 1800.13 1537.08 1801.37 1612.46 1701.25 1626.95 C 1679.25 1628.23 1644.53 1626.99 1621.29 1626.98 L 420.8 1626.99 C 353.019 1626.99 260.768 1632.29 249.235 1538.69 C 246.64 1517.63 247.231 1493.17 247.415 1471.95 L 247.342 575.379 C 247.318 494.947 253.684 429.225 347.7 417.066 z M 1697.65 1546.03 C 1723.36 1528.49 1718.56 1506.91 1718.51 1478.77 L 1718.44 584.133 C 1718.44 500.465 1733.12 496.959 1649.9 496.999 L 351.221 497.063 C 342.423 500.762 336.145 504.764 332.304 514.141 C 328.377 523.726 330.658 816.419 330.658 854.08 L 330.501 1511.09 C 330.353 1559.33 383.382 1546.03 419.452 1546.03 L 1667.51 1546.11 C 1675.7 1546.15 1690.06 1546.87 1697.65 1546.03 z" fill="rgb(30,29,29)" transform="translate(0,0)"></path>
<path d="M 1384.44 1065.51 L 1483.98 1065.46 C 1524.62 1065.34 1576.95 1058.3 1577.17 1115.91 L 1577.2 1377.16 C 1577.16 1451.98 1556.28 1447.9 1487.11 1447.9 L 1389.5 1447.85 L 1288.91 1447.89 C 1248.8 1447.93 1195.05 1457.41 1194.91 1400.4 L 1194.97 1139.76 C 1194.96 1057.51 1220.99 1065.5 1287.08 1065.48 L 1384.44 1065.51 z M 1278.72 1366.27 L 1493.45 1366.27 L 1493.45 1146.87 L 1278.72 1146.87 L 1278.72 1366.27 z" fill="rgb(30,29,29)" transform="translate(0,0)"></path>
<path d="M 597.387 634.489 C 621.725 632.096 646.161 631.273 656.581 657.291 L 719.161 813.614 C 729.159 839.09 740.582 864.278 749.322 889.974 C 758.684 917.015 727.976 939.225 703.929 928.247 C 684.235 919.256 675.076 881.124 667.826 861.344 L 627.5 861.344 C 604.001 861.288 579.505 861.942 556.146 861.344 C 550.17 877.565 543.641 895.287 536.425 910.89 C 522.32 940.843 481.484 935.292 474.199 904.476 C 470.994 890.919 487.676 857.108 493.037 843.917 L 558.657 683.015 C 567.182 661.68 571.363 638.941 597.387 634.489 z M 574.865 809.606 L 610.75 809.606 L 647.879 809.606 C 644.721 800.305 613.735 712.916 610.75 710.425 C 598.385 743.536 587.669 776.386 574.865 809.606 z" fill="rgb(30,29,29)" transform="translate(0,0)"></path>
<metadata><recraft-signature>{"signed_by": "recraft", "signature_b64": "u1KnjQIv9qAYbefEMS22+BA4y0x3f/kq41FMfS5FqSBRNKejckc1uBuY0EuEjcM8r71/DqbJ4OTy5zmbZnYTAA==", "signing_algo": "Ed25519", "generation_timestamp": 1772989912, "identifier": "ccb4622a-7701-40c2-a5ac-00993f1a8117"}</recraft-signature></metadata></svg>