<svg xmlns="http://www.w3.org/2000/svg" height="512" preserveAspectRatio="none" style="display: block;" version="1.1" viewBox="0 0 2048 2048" width="512">
<path d="M 399.626 299.003 L 1705.24 299.003 L 1705.24 896.909 L 1829.99 896.909 L 1829.99 1065.53 C 1807.37 1064.7 1780.35 1065.5 1757.24 1065.5 L 1169.79 1065.53 C 1186 1105.09 1211.12 1145.63 1231.52 1183.45 L 1500.06 1693.53 C 1508.8 1710.3 1519.78 1731.64 1530.25 1746.99 C 1474.21 1742.9 1394.13 1745.94 1337.2 1746.99 C 1313.81 1689.25 1269.15 1619.42 1239.91 1561.44 C 1213.87 1508.76 1184.68 1455.61 1157.35 1403.49 L 1024.48 1151.07 C 1016.58 1162.7 1001.19 1195.47 993.301 1210.29 L 783.331 1607.96 C 758.679 1654.39 733.553 1700.16 709.751 1746.99 L 520.191 1746.99 C 550.817 1686.11 584.619 1625.36 616.467 1565.02 L 829.737 1159.15 C 846.742 1127.62 863.265 1097.93 879.07 1065.53 L 214.412 1065.53 C 213.726 1044.82 214.385 1020.61 214.404 999.704 L 214.412 896.909 L 342.271 896.909 L 342.271 299.003 C 358.207 299.942 383.103 299.075 399.626 299.003 z M 509 896.909 L 1530.25 896.909 C 1541.88 896.405 1536.06 859.588 1536.05 847.104 L 1536.08 466.955 L 520.191 466.955 C 515.939 466.99 512.906 466.23 509.991 468.335 C 507.27 477.625 508.984 562.245 508.982 577.245 L 509 896.909 z" fill="rgb(0,0,0)" transform="translate(0,0)"></path>
<metadata><recraft-signature>{"signed_by": "recraft", "signature_b64": "4VZJyfwVU+1jenowr3b8Vwfn2l4HwGdrTv9ItlYPPr/YICRBj8ZQBsDeEP8cP15dcjvfPEKAcBFnqadPIVsrAQ==", "signing_algo": "Ed25519", "generation_timestamp": 1772996700, "identifier": "445a522a-c439-4239-a44f-8c054cb9dad5"}</recraft-signature></metadata></svg>