<svg xmlns="http://www.w3.org/2000/svg" height="512" preserveAspectRatio="none" style="display: block;" version="1.1" viewBox="0 0 2048 2048" width="512">
<path d="M 1299.76 379.193 C 1348.2 376.866 1358.39 406.416 1382.19 441.607 L 1779.99 1042.55 C 1800.61 1073.49 1822.5 1104.89 1842.08 1135.5 C 1872.74 1183.43 1842.42 1241.79 1784.85 1240.02 C 1772.67 1239.65 1758.8 1240.06 1746.63 1240.05 L 1324.5 1240 L 886.58 1240.05 C 858.022 1240.07 824.02 1244.04 799.241 1228.22 C 731.581 1185.03 794.501 1114.01 822.322 1071.57 L 1247.57 417.283 C 1262.65 393.844 1272.11 385.219 1299.76 379.193 z M 948.168 1112.85 L 1314.09 1112.85 L 1675.11 1112.85 C 1658.96 1084.41 1638.56 1055.67 1620.38 1028.29 L 1324.52 577.453 C 1320.51 571.248 1314.03 560.258 1309.41 555.002 C 1302.29 569.255 1287.89 590.16 1278.79 604.125 L 998.535 1034.78 C 982.769 1058.89 962.729 1088.26 948.168 1112.85 z" fill="rgb(0,0,0)" transform="translate(0,0)"></path>
<path d="M 447.375 446.514 L 883.34 446.351 C 952.664 446.039 985.13 513.151 940.222 557.826 C 917.897 580.034 891.121 576.37 862.208 576.513 L 455.725 576.64 C 339.825 576.435 318.472 609.193 318.568 722.088 L 318.583 1305.96 C 318.334 1445.63 342.692 1473.08 481.838 1472.98 L 1140.25 1473 C 1117.78 1449.78 1051.99 1397.05 1045.21 1368.26 C 1035.66 1327.76 1065.84 1288.54 1108.13 1289.65 C 1145.54 1290.63 1184.67 1341.05 1211.05 1367.41 L 1310.46 1465.46 C 1322.35 1477.39 1338.37 1492.14 1348.54 1505.17 C 1383.05 1549.37 1336.02 1588.95 1308.57 1616.13 L 1178.19 1746.38 C 1167.81 1756.82 1157.57 1768.13 1146.37 1777.54 C 1110.18 1807.95 1051.41 1782.14 1044.72 1736.48 C 1036.7 1681.73 1108.85 1643.29 1140.25 1600.99 C 1085.23 1601.65 1028.57 1600.97 973.378 1600.97 L 492.261 1601 C 454.99 1601.04 414.423 1603.12 377.757 1596.2 C 287.288 1579.12 200.704 1486.07 194.64 1393.27 C 190.15 1324.56 192.078 1251.54 192.077 1182.81 L 192.058 740.188 C 192.029 706.088 190.642 664.924 196.544 632.007 C 219.792 502.349 326.324 446.72 447.375 446.514 z" fill="rgb(0,0,0)" transform="translate(0,0)"></path>
<metadata><recraft-signature>{"signed_by": "recraft", "signature_b64": "rEgAZTy0H9p1m5WAIpjGi4MbwPjrzXQ1vXYkFc3sOshwYOiPYfoi55bA0SKArWzClzaBdFsCowe8U+pbDZwLAQ==", "signing_algo": "Ed25519", "generation_timestamp": 1772989531, "identifier": "9bb2068f-2068-4597-8987-9f142bd7e150"}</recraft-signature></metadata></svg>