<svg xmlns="http://www.w3.org/2000/svg" height="512" preserveAspectRatio="none" style="display: block;" version="1.1" viewBox="0 0 2048 2048" width="512">
<path d="M 300.988 300.976 L 467.49 300.976 L 467.47 1266.61 C 467.816 1302.32 509.616 1329.87 534.369 1355.08 L 716.686 1537.2 C 792.427 1611.38 914.043 1585.23 937.679 1482.85 C 943.572 1457.33 941.603 1411.46 941.603 1383.24 L 941.582 1245.51 C 941.373 1132.66 958.963 1112.43 1073.37 1112.43 L 1580.54 1112.45 L 1580.54 466.061 C 1553.53 464.612 1513.16 466.055 1484.84 466.059 L 686.094 466.061 C 684.913 412.021 686.589 355.338 686.094 300.976 L 1484.5 300.976 L 1615.91 300.904 C 1718.23 300.883 1748.19 308.816 1748.22 417.981 L 1748.2 1745.04 L 1580.54 1745.04 L 1580.54 1435.19 C 1580.54 1384.67 1581.67 1329.71 1580.54 1279.58 L 1253.3 1279.59 C 1204.76 1279.58 1154.39 1278.85 1106.01 1279.58 L 1106.53 1442.35 C 1107.56 1683.07 849.996 1833.82 651.066 1696.95 C 630.523 1682.81 612.593 1662.63 595.048 1644.79 L 319.117 1368.27 C 295.727 1344.82 300.927 1334.01 300.936 1302.44 L 300.988 300.976 z" fill="rgb(0,0,0)" transform="translate(0,0)"></path>
<metadata><recraft-signature>{"signed_by": "recraft", "signature_b64": "w0znmc3n2ZFsiG30OrvRPl2l10+z6Gqh/8jEqwRVULvRWlsr3ZU3/EJy2/MEhAAHljmPSAuI68kFyxlBz3qjBg==", "signing_algo": "Ed25519", "generation_timestamp": 1772995956, "identifier": "156e9e72-2b78-4034-8d2e-e7d5503b8c44"}</recraft-signature></metadata></svg>