<svg xmlns="http://www.w3.org/2000/svg" height="512" preserveAspectRatio="none" style="display: block;" version="1.1" viewBox="0 0 2048 2048" width="512">
<path d="M 574.445 426.971 C 585.537 426.052 612.234 426.912 624.492 426.925 L 1430.46 426.92 C 1508.03 426.921 1565.3 433.165 1631.4 481.108 C 1721.38 546.368 1748.16 634.202 1748.16 738.646 L 1748.12 1262.48 C 1748.13 1297.73 1750.79 1338.84 1745.4 1373.32 C 1727.82 1485.81 1639.07 1578.45 1531.05 1609.98 C 1513.33 1615.16 1492.46 1616.6 1474.13 1619.59 C 1451.72 1618.72 1423.31 1619.58 1400.35 1619.58 L 641.748 1619.56 C 610.89 1619.58 574.958 1621.69 544.638 1616.9 C 417.86 1596.88 315.351 1489.28 301.469 1361.67 C 296.902 1319.69 298.86 1274.82 298.857 1232.56 L 298.886 801.439 C 298.878 758.104 295.828 706.333 303.089 664.431 C 327.656 522.664 439.407 443.176 574.445 426.971 z M 1404.32 595.463 L 614.604 595.435 C 538.042 594.949 470.801 625.84 470.671 713.443 L 470.979 1271.43 C 470.962 1326.87 464.971 1373.55 508.485 1415.1 C 556.753 1461.18 617.569 1452.85 679.089 1452.79 L 1444.03 1452.8 C 1507.64 1450.64 1567.44 1411.18 1576.72 1344.83 C 1580.01 1321.36 1578.74 1290.63 1578.74 1266.34 L 1578.63 713.574 C 1578.73 660.021 1547.05 619.854 1497.15 601.782 C 1468.56 593.258 1434.44 595.391 1404.32 595.463 z" fill="rgb(0,0,0)" transform="translate(0,0)"></path>
<metadata><recraft-signature>{"signed_by": "recraft", "signature_b64": "O9S4xa7jDafzXrkRxYZyecD/jkurYxjgbbowi+b7ulAqVQrDfQHgII60muRmZfAbB21ycMeWgOQFRdF0dlIhDA==", "signing_algo": "Ed25519", "generation_timestamp": 1772995823, "identifier": "e1569031-8673-426a-9c61-5e66e1c9af7a"}</recraft-signature></metadata></svg>