<svg xmlns="http://www.w3.org/2000/svg" height="512" preserveAspectRatio="none" style="display: block;" version="1.1" viewBox="0 0 2048 2048" width="512">
<path d="M 518.666 313.49 L 519.559 313.456 C 541.803 312.796 567.03 313.477 589.513 313.481 L 1490.66 313.448 C 1530.24 313.288 1567.77 310.01 1567.62 360.787 L 1567.51 911.217 C 1567.54 942.127 1578.77 1001.48 1532.75 1001.07 L 626.802 1001.03 C 590.6 1001.04 554.419 1001.34 518.199 1000.98 C 469.512 1000.48 480.084 936.671 480.106 904.605 L 480.151 403.31 C 480.121 366.765 470.563 321.346 518.666 313.49 z M 565 915.988 C 665.963 914.792 769.681 915.986 870.804 915.988 L 1483.01 915.988 L 1483.01 398.019 L 599.583 398.037 C 589.358 398.054 574.827 398.544 565 398.019 C 563.965 411.615 564.963 438.05 564.98 452.623 L 565 915.988 z" fill="rgb(0,0,0)" transform="translate(0,0)"></path>
<path d="M 1558.27 1081.22 C 1644.22 1077.55 1716.94 1144.12 1720.86 1230.06 C 1724.78 1316 1658.43 1388.91 1572.5 1393.09 C 1486.21 1397.29 1412.92 1330.59 1408.99 1244.29 C 1405.05 1157.99 1471.96 1084.9 1558.27 1081.22 z M 1574.57 1307.03 C 1613.1 1301.62 1640.18 1266.31 1635.42 1227.7 C 1630.65 1189.08 1595.8 1161.42 1557.11 1165.54 C 1531.51 1168.27 1509.36 1184.59 1499.18 1208.25 C 1489 1231.9 1492.37 1259.21 1507.99 1279.68 C 1523.62 1300.15 1549.07 1310.6 1574.57 1307.03 z" fill="rgb(0,0,0)" transform="translate(0,0)"></path>
<path d="M 470.492 1082.29 C 555.96 1075.06 631.091 1138.51 638.269 1223.99 C 645.447 1309.46 581.949 1384.55 496.474 1391.68 C 411.067 1398.8 336.046 1335.37 328.875 1249.97 C 321.703 1164.57 385.094 1089.51 470.492 1082.29 z M 492.548 1307.4 C 531.653 1302.84 559.7 1267.5 555.274 1228.38 C 550.847 1189.26 515.613 1161.09 476.477 1165.38 C 437.144 1169.69 408.799 1205.14 413.248 1244.45 C 417.697 1283.77 453.247 1311.99 492.548 1307.4 z" fill="rgb(0,0,0)" transform="translate(0,0)"></path>
<path d="M 891.5 1394.54 C 904.53 1393.64 926.999 1394.51 941.072 1394.52 L 1113.62 1394.49 C 1130.88 1394.4 1149.68 1393.46 1166.66 1395.79 C 1239.58 1405.82 1247.07 1465.04 1247.02 1522.46 L 1247.11 1660.54 C 1247.21 1694.18 1244.38 1749.31 1191.78 1730.31 C 1157.54 1717.93 1163.94 1679.14 1163.94 1649.04 L 1164.07 1540.94 C 1164.11 1524.4 1170.1 1488.94 1156.53 1477.55 C 1150.09 1476.6 1136.27 1477.43 1129.06 1477.49 L 958.787 1477.55 C 890.519 1477.46 885.854 1462.43 885.916 1530.53 L 886.068 1638.25 C 886.188 1658.33 890.291 1701.4 877.795 1717.19 C 853.712 1747.63 804.85 1733.38 802.864 1693.14 C 802.273 1681.16 802.439 1668.91 802.471 1656.73 L 802.437 1521.09 C 802.274 1458.38 813.754 1401.49 891.5 1394.54 z" fill="rgb(0,0,0)" transform="translate(0,0)"></path>
<path d="M 1594.14 1429 L 1660.62 1428.93 C 1759.36 1427.93 1784.88 1462.34 1784.63 1556.5 L 1784.92 1619.74 C 1785.13 1652.16 1797.21 1750.72 1733.28 1732.77 C 1693.54 1721.62 1699.56 1686.01 1699.77 1655 L 1700.05 1571 C 1700.22 1500 1707.46 1512.9 1638.08 1512.96 L 1548.85 1512.98 C 1518.3 1512.95 1487.7 1512.75 1457.18 1513.05 C 1429.31 1513.32 1438.57 1547.41 1438.64 1569.7 L 1438.78 1658.74 C 1438.79 1671.47 1440.03 1691.21 1437.14 1702.46 C 1423.98 1748.97 1356.23 1746.97 1356.09 1678 C 1355.86 1633.4 1356.17 1588.77 1356.06 1544.18 C 1354.69 1439.13 1399.57 1428.9 1491.92 1428.92 L 1594.14 1429 z" fill="rgb(0,0,0)" transform="translate(0,0)"></path>
<path d="M 353.997 1429 C 402.61 1427.46 460.108 1428.94 509.275 1428.95 L 567.689 1428.96 C 581.646 1428.97 595.533 1428.51 609.415 1430.21 C 680.946 1438.95 691.162 1495.8 691.046 1553.41 L 691.213 1681.55 C 691.467 1723.75 661.114 1750.59 623.046 1725.52 C 604.15 1711.49 607.893 1680.88 607.914 1660.45 L 607.997 1564.96 C 607.956 1553.96 611.323 1519.43 602.788 1512.98 C 597.563 1512.25 580.675 1512.92 574.43 1512.95 L 409.245 1512.94 C 394.874 1512.94 363.732 1512.16 350.889 1514.16 C 333.112 1546.52 380.164 1732.41 315.244 1733.97 C 264.946 1735.18 265.777 1701.49 265.86 1665.01 L 265.895 1546.73 C 265.84 1482.62 282.353 1437.66 353.997 1429 z" fill="rgb(0,0,0)" transform="translate(0,0)"></path>
<metadata><recraft-signature>{"signed_by": "recraft", "signature_b64": "3lw6K1CrG0UY4e/rFukclrb23XbSRLXG5laX87FZC/QIVJ6A8kLUv8RT9yUMbL6ry5STDtAj+0FU498odqnTCQ==", "signing_algo": "Ed25519", "generation_timestamp": 1772998215, "identifier": "c3fa4c55-feb0-4fd8-8192-b0e1663ec8f1"}</recraft-signature></metadata></svg>