<svg xmlns="http://www.w3.org/2000/svg" height="512" preserveAspectRatio="none" style="display: block;" version="1.1" viewBox="0 0 2048 2048" width="512">
<path d="M 714.017 385.282 C 795.303 381.075 809.929 425.152 809.733 489.433 L 809.642 547.536 C 845.78 550.734 886.856 557.175 924.022 561.18 L 1514.89 629.436 C 1558.99 634.233 1604.18 630.665 1635.73 664.518 C 1699.86 733.315 1656.14 819.067 1558.78 805.717 C 1511.97 799.299 1464.61 795.049 1417.68 789.79 L 886.212 726.554 C 864.142 723.91 831.108 718.933 809.642 717.854 L 809.642 1023.94 L 1632.27 1023.96 C 1659.36 1023.96 1689.21 1023 1715.82 1023.94 C 1760.4 1025.51 1789.13 1067.5 1788.74 1108.88 C 1789.31 1157.1 1788.92 1205.32 1788.99 1253.54 L 1789.08 1318.75 C 1789.11 1362.27 1791.25 1390.73 1759.42 1425.03 L 1570.15 1608.68 C 1533.76 1643.36 1528.23 1664.06 1472.18 1663.78 L 382.129 1664.06 C 287 1664.06 259.854 1646.09 255.651 1554.01 L 255.488 1143.17 C 255.46 1125.68 254.709 1105.51 256.856 1088.39 C 266.817 1008.98 369.134 1023.95 424.592 1023.97 L 640.25 1023.94 L 640.263 805.631 C 640.26 771.364 639.162 731.903 640.25 698.237 C 629.575 698.032 616.509 695.472 605.701 694.2 L 531.501 685.437 C 505.343 682.299 459.449 679.51 436.563 671.771 C 382.358 653.443 363.43 577.76 404.467 537.122 C 443.002 498.962 496.649 513.599 543.206 519.474 L 640.25 531.085 C 644.898 462.016 617.933 396.044 714.017 385.282 z M 426.996 1493 L 1361.15 1493.04 C 1486.01 1493.09 1438.16 1494.24 1533.43 1407.73 C 1647.54 1295.45 1621.48 1349.38 1623.51 1193.11 C 1607.6 1193.82 1592.38 1193.16 1576.5 1193.13 L 434 1193.11 C 421.125 1194.82 426.949 1217.07 426.949 1231.31 L 426.996 1493 z" fill="rgb(0,0,0)" transform="translate(0,0)"></path>
<metadata><recraft-signature>{"signed_by": "recraft", "signature_b64": "q+KVP/OfpOBAjO9LJvYLMmi104PfQOTt8/ylNxTL12oUZzahNfDHiwaOvQ7gC+9P3evmMGVaJNRx2zbKtKNDDw==", "signing_algo": "Ed25519", "generation_timestamp": 1772997187, "identifier": "e29196bb-ac67-4466-9996-faf7eabab96e"}</recraft-signature></metadata></svg>