<svg xmlns="http://www.w3.org/2000/svg" height="512" preserveAspectRatio="none" style="display: block;" version="1.1" viewBox="0 0 2048 2048" width="512">
<path d="M 490.432 290.997 C 498.122 290.347 514.049 290.884 522.418 290.902 L 1428.05 290.828 C 1663.83 290.778 1806.23 550.67 1686.29 742.719 C 1665.55 775.942 1639.7 798.679 1612.75 826.225 L 1124.97 1315.65 C 1107.2 1334.6 1088.87 1352.46 1070.55 1370.73 C 1033.16 1408 1026.33 1420.59 998.784 1466.82 L 927.243 1585.77 C 912.97 1609.79 898.273 1637.92 882.113 1660.06 C 807.883 1761.74 654.754 1779.18 555.135 1704.4 C 521.171 1678.9 502.995 1655.28 481.617 1619.02 L 371.927 1435.27 C 328.705 1362.87 322.021 1351.11 322.033 1269.84 L 322.039 513.408 C 322.056 492.453 321.632 467.765 324.061 446.99 C 334.607 356.777 405.571 302.894 490.432 290.997 z M 575.12 1221.01 L 798.25 1221.01 L 889.019 1221.1 C 938.873 1221.11 954.28 1227.39 991.862 1189.92 L 1478.01 700.546 C 1512.92 665.327 1540.67 645.529 1541.09 590.112 C 1541.56 527.647 1489.68 475.099 1427.3 475.253 L 1321.62 475.51 C 1259.4 533.306 1196.98 599.404 1136.62 659.623 L 575.12 1221.01 z M 509.563 475.51 C 510.256 499.618 509.358 523.281 509.421 547.362 L 509.601 940.023 C 509.606 963.37 510.921 1003.51 509.563 1025.7 C 577.781 963.122 650.317 887.884 714.343 820.876 C 726.9 807.313 741.973 793.385 755.271 780.097 L 1058.88 475.51 L 645.987 475.51 L 509.563 475.51 z M 758.252 1509.53 C 779.539 1474.06 803.143 1439.92 823.664 1403.86 L 650.584 1403.86 C 625.591 1403.85 589.336 1402.64 565.235 1403.86 C 596.277 1449.65 623.619 1498.63 653.849 1545.05 C 702.442 1619.66 729.722 1550.08 758.252 1509.53 z" fill="rgb(0,0,0)" transform="translate(0,0)"></path>
<metadata><recraft-signature>{"signed_by": "recraft", "signature_b64": "Q/vj58LLcbDWoF/LXQyg+CqijzDlDILhb6Ju2YyebiWmnZLvJDpDWjYwGnjmQ8zQPH5WtofzOhd1nF13Shn5AQ==", "signing_algo": "Ed25519", "generation_timestamp": 1772989222, "identifier": "83b34666-bb7a-44a7-9286-c00b73d6fee0"}</recraft-signature></metadata></svg>