<svg xmlns="http://www.w3.org/2000/svg" height="512" preserveAspectRatio="none" style="display: block;" version="1.1" viewBox="0 0 2048 2048" width="512">
<path d="M 966.502 590.51 L 1761.01 590.461 C 1771.89 590.442 1781.88 590.228 1792.78 591.06 C 1854.85 595.799 1885.22 673.962 1841.4 719.053 C 1813.17 748.102 1784.14 742.999 1746.91 743.883 C 1730.21 764.74 1714.42 788.272 1699.18 810.336 L 1623.91 920.426 C 1531.12 1055.63 1492.61 1077.35 1319.01 1077.41 L 1185.94 1077.38 C 1196.91 1105.41 1206.49 1133.35 1216.97 1161.5 L 1322.84 1447.51 C 1334.26 1477.27 1347.57 1501.04 1334.88 1532.98 C 1308.22 1600.15 1215.53 1596.98 1191.09 1529.41 L 1048.49 1138.58 C 1041.38 1118.68 1033.93 1096.56 1025.51 1077.38 C 1004.97 1078.44 973.671 1077.41 952.274 1077.4 L 699.826 1077.42 C 632.717 1077.46 603.568 1079.36 542.777 1045.42 C 486.329 1009.1 469.287 976.352 431.471 923.974 L 347.507 809.41 C 331.115 787.29 315.736 765.252 298.226 743.883 C 266.819 744.202 232.747 744.819 209.108 721.838 C 155.321 669.548 192.238 590.58 273.217 590.532 L 600.034 590.477 C 613.375 590.483 633.753 589.474 646.433 591.858 C 724.048 606.449 729.057 722.166 650.03 740.845 C 629.395 745.722 599.575 743.933 577.661 743.933 L 484.628 743.883 C 510.714 777.222 535.19 811.326 560.571 845.171 C 621.141 920.951 601.823 926.857 713.41 926.747 L 1363.67 926.835 C 1444.73 926.979 1446.34 895.953 1491.37 835.251 C 1513.87 804.93 1535.78 774.181 1558.36 743.883 C 1548.31 742.63 1540.74 743.582 1530.84 743.609 L 1021.09 743.918 C 997.803 743.95 973.629 745.138 950.36 742.421 C 863.57 732.289 853.973 590.428 966.502 590.51 z" fill="rgb(0,0,0)" transform="translate(0,0)"></path>
<metadata><recraft-signature>{"signed_by": "recraft", "signature_b64": "ckKY8ge3HVWhU0wnHnFS0bdQ+7Cl7AGyGdaFX8jXYviqw971SSP4bAUbE0mhtsDMxhbAE4g3QipTOtqyg2iPAg==", "signing_algo": "Ed25519", "generation_timestamp": 1772995983, "identifier": "439d53e6-87ee-49ca-98ea-5948a2599536"}</recraft-signature></metadata></svg>