<svg xmlns="http://www.w3.org/2000/svg" height="512" preserveAspectRatio="none" style="display: block;" version="1.1" viewBox="0 0 2048 2048" width="512">
<path d="M 242.373 838.909 C 261.39 836.791 281.859 839.891 300.934 840.581 L 953.634 867.755 C 1024.89 871.082 1029.53 987.106 948.094 987.067 C 896.42 987.041 840.159 979.08 789.321 980.923 C 782.555 997.628 776.384 1016.4 769.971 1033.51 L 733.852 1127.24 C 739.988 1138.39 750.868 1164.14 756.155 1176.22 L 790.271 1254.51 C 811.371 1303.83 834.531 1353.91 857.21 1402.59 C 908.178 1511.5 796.178 1535.22 766 1488.19 C 748.551 1461 730.646 1413.48 717.288 1383.3 C 690.735 1326.59 657.727 1260.78 635.737 1202.45 C 616.483 1202.68 597.369 1202.14 578.101 1202.45 L 460.358 1472.68 C 425.687 1550.86 322.543 1506.61 342.706 1435.19 C 348.567 1414.43 359.568 1392.69 368.296 1372.57 L 504.367 1058.97 C 516.891 1029.92 529.49 997.779 542.467 969.5 C 524.634 965.986 492.038 965.725 472.232 964.933 L 320.506 958.688 C 294.682 957.69 263.797 957.561 238.538 954.426 C 176.384 946.713 175.968 846.054 242.373 838.909 z" fill="rgb(0,0,0)" transform="translate(0,0)"></path>
<path d="M 1777.63 838.909 C 1845.96 837.766 1882.28 896.693 1836.89 942.842 C 1817.95 962.091 1790.3 958.912 1764.51 959.869 L 1676.39 962.865 C 1620.68 964.717 1557.86 970.099 1502.95 969.5 L 1685.76 1386.84 C 1691.95 1404.21 1708.72 1431.06 1709.17 1449.68 C 1710.21 1492.64 1666.7 1521.53 1627.12 1508.32 C 1593.3 1497.04 1582.83 1455.44 1569.48 1425.55 L 1485.71 1236.13 C 1464.02 1186.66 1466.39 1218.97 1412.13 1202.45 C 1404.18 1223.32 1392.94 1247.13 1383.67 1267.6 L 1340.01 1363.78 C 1329.54 1395.88 1305.91 1434.51 1293.15 1468.28 C 1263.5 1546.73 1159.89 1504.46 1178.65 1437.03 C 1183.45 1419.78 1193.98 1398.74 1201.35 1381.97 L 1288.51 1185.28 C 1296.59 1166.98 1305.8 1144.78 1314.89 1127.24 C 1296.21 1079.06 1274.7 1029.29 1255.59 980.923 C 1204.37 981.861 1152.86 985.607 1101.33 986.838 C 1029.42 988.556 1017.73 882.158 1087.2 869.215 C 1105.8 865.752 1133.41 866.43 1152.98 865.776 L 1722.55 842.254 C 1740.38 841.429 1760.1 840.946 1777.63 838.909 z" fill="rgb(0,0,0)" transform="translate(0,0)"></path>
<path d="M 1308.41 536.187 C 1381.15 530.755 1444.61 585.119 1450.41 657.833 C 1456.2 730.547 1402.16 794.281 1329.48 800.447 C 1256.27 806.657 1191.98 752.142 1186.14 678.907 C 1180.3 605.672 1235.14 541.657 1308.41 536.187 z" fill="rgb(0,0,0)" transform="translate(0,0)"></path>
<path d="M 721.112 535.532 C 793.934 529.859 857.558 584.315 863.193 657.14 C 868.828 729.964 814.34 793.56 741.512 799.158 C 668.738 804.752 605.198 750.312 599.567 677.54 C 593.936 604.768 648.343 541.201 721.112 535.532 z" fill="rgb(0,0,0)" transform="translate(0,0)"></path>
<metadata><recraft-signature>{"signed_by": "recraft", "signature_b64": "/jcZlFf5RtF+jzXHJYL7ZT24OAvbScJ4jMuq1kTXESXsoLwcUm9e2peLT++AKwUB1nTiADKjyebP4y4R0+fRBA==", "signing_algo": "Ed25519", "generation_timestamp": 1772997044, "identifier": "91a0f164-2699-4f71-a514-cbd84a993497"}</recraft-signature></metadata></svg>