<svg xmlns="http://www.w3.org/2000/svg" height="512" preserveAspectRatio="none" style="display: block;" version="1.1" viewBox="0 0 2048 2048" width="512">
<path d="M 300.301 350.36 C 316.489 351.239 342.076 350.373 359.027 350.371 L 1447.54 350.358 C 1546.88 350.359 1650.5 351.864 1749.52 350.36 L 1749.52 1678.88 L 1749.46 1681.84 C 1746.26 1684.26 1588.26 1683.26 1572.17 1683.26 L 300.301 1683.27 L 300.253 397.494 C 300.205 384.696 299.373 362.54 300.301 350.36 z M 437.881 1546 C 508.252 1544.82 582.3 1546.01 653.053 1546.01 L 1084.25 1546 L 1087.87 1545.65 C 1089.83 1542.46 1089.05 1457.56 1089.05 1448.13 L 1089.02 1080 L 515.015 1080.02 C 496.102 1080.04 464.867 1081.11 446.738 1080 C 430.446 1081.01 437.883 1106.29 437.876 1124.29 L 437.881 1546 z M 1226.38 484.989 L 1226.41 797.162 C 1226.46 843.962 1227.4 894.395 1226.38 941.005 L 1611.08 941.005 C 1611.91 934.59 1611.1 905.465 1611.09 897.389 L 1611.07 797.879 C 1611.06 694.332 1612.29 588.354 1611.08 484.989 L 1226.38 484.989 z M 437.881 484.989 L 437.881 941.005 L 1089.02 941.005 L 1089.02 484.989 L 437.881 484.989 z M 1226.38 1546 L 1482.34 1545.99 C 1524.63 1545.99 1568.94 1545.29 1611.08 1546 L 1611.08 1080 L 1268.71 1079.98 C 1255.58 1079.97 1239.16 1079.39 1226.38 1080 L 1226.38 1546 z" fill="rgb(0,0,0)" transform="translate(0,0)"></path>
<metadata><recraft-signature>{"signed_by": "recraft", "signature_b64": "TBjZps8zSxISt1yXtZK2+MDJSJP7htubffokh6Q6y5iuBHdvi0fHbJCp86kR+7ImT5BvUVjOHmzLMD9vBrQ3Bg==", "signing_algo": "Ed25519", "generation_timestamp": 1772996618, "identifier": "c909fe98-fa75-4b64-984b-b19afe4d8fd7"}</recraft-signature></metadata></svg>