<svg xmlns="http://www.w3.org/2000/svg" height="512" preserveAspectRatio="none" style="display: block;" version="1.1" viewBox="0 0 2048 2048" width="512">
<path d="M 829.001 495.978 L 1629.73 495.98 C 1659.98 495.962 1698.87 493.882 1728.09 498.286 C 1823.77 512.704 1870.22 588.924 1870.96 678.897 L 1871.03 1312.77 C 1871.03 1340.8 1872.78 1377.78 1867.85 1404.59 C 1856.12 1468.26 1802.86 1529.94 1738.62 1543.83 C 1715.18 1548.9 1686.99 1547.61 1662.66 1547.61 L 1216.75 1547.58 L 432.288 1547.61 C 335.338 1547.68 257.616 1553.91 200.557 1456.88 C 177.927 1418.41 177.478 1388.34 177.24 1345.33 L 177.218 719.839 C 177.217 692.441 175.868 659.639 179.978 633.009 C 190.408 568.779 244.62 513.352 308.002 500.056 C 334.958 494.402 362.531 495.935 389.854 495.951 L 829.001 495.978 z M 386.5 1479.89 L 1660.54 1479.97 C 1678.2 1479.99 1700.12 1481.05 1717.31 1478.08 C 1809.76 1462.11 1802.61 1375.05 1802.6 1306.64 L 1802.64 666.984 C 1802.05 606.136 1754.54 564.665 1694.93 565.623 L 1665.49 565.997 L 388.528 565.961 C 280.55 565.942 245.634 589.481 245.928 700.262 L 245.966 1311.11 C 245.822 1428.11 258.132 1477.64 386.5 1479.89 z" fill="rgb(0,0,0)" transform="translate(0,0)"></path>
<path d="M 1518.15 813.191 C 1548.11 803.965 1602.34 828.403 1623.79 849.311 C 1686.8 910.728 1670.83 985.171 1671.21 1065.91 C 1673.76 1147.22 1619.69 1222.87 1534.97 1224.99 C 1498.67 1229.85 1455.13 1211.11 1429.55 1185.28 C 1383.79 1139.09 1384.5 1099.11 1384.53 1038.75 L 1384.25 963.658 C 1384.51 888.003 1437.99 812.441 1518.15 813.191 z M 1541.19 1152.82 C 1624.51 1132.49 1596.55 1047.75 1601.7 984.749 C 1605.97 932.531 1575.22 871.83 1518.15 883.206 C 1485.97 889.087 1460.53 911.847 1454.98 944.573 C 1452.48 959.326 1452.77 1080.24 1455.2 1093.46 C 1463.16 1136.78 1500.1 1155.83 1541.19 1152.82 z" fill="rgb(0,0,0)" transform="translate(0,0)"></path>
<path d="M 1194.17 813.191 C 1249.61 805.117 1313.45 842.755 1332.23 896.151 C 1341.24 921.763 1315.02 951.021 1289.91 940.341 C 1267.46 930.79 1262.81 904.37 1237.02 891.093 C 1200.12 872.098 1159.15 890.319 1139.92 925.275 C 1130.3 945.204 1129.3 1053.79 1132.33 1086.12 C 1138.71 1154.47 1208.9 1161.03 1259.09 1144.65 L 1259.09 1080 C 1228.8 1080.18 1184.89 1086.22 1186.41 1039.67 C 1186.83 1026.5 1196.65 1016.11 1206.35 1008.15 C 1224.53 1006 1281.55 1007.44 1300.4 1009.76 C 1347.29 1015.54 1331.03 1117.67 1331.15 1154.28 C 1331.44 1241.78 1165.37 1242.4 1105.68 1183.92 C 1052.51 1131.83 1062.22 1070.9 1061.47 1003.83 C 1060.85 948.366 1058.38 903.266 1099.35 859.482 C 1123.15 834.049 1158.74 814.133 1194.17 813.191 z" fill="rgb(0,0,0)" transform="translate(0,0)"></path>
<path d="M 865.75 813.191 C 901.518 815.304 904.961 851.577 914.388 879.118 L 996.494 1121.59 C 1003.56 1142.42 1011.32 1163.96 1017.5 1185.07 C 1025.16 1211.24 995.142 1234.7 970.508 1224.51 C 945.897 1214.33 938.673 1163.79 928.533 1139.58 C 917.239 1140.77 879.778 1139.6 865.75 1139.58 C 850.335 1140.53 818.142 1141.28 803.961 1139.58 C 797.396 1162.45 782.084 1219.47 760.074 1225.24 C 728.398 1233.53 705.156 1204.88 715.406 1174.81 L 827.378 855.356 C 836.053 829.579 836.261 818.685 865.75 813.191 z M 829.001 1071 L 865.75 1071 L 903.733 1071 C 900.984 1060.62 869.277 968.201 865.75 965.448 C 854.125 991.547 838.489 1042.62 829.001 1071 z" fill="rgb(0,0,0)" transform="translate(0,0)"></path>
<path d="M 523.851 813.191 C 560.948 808.899 568.265 862.758 576.922 888.349 L 660.825 1136.77 C 666.174 1152.64 672.361 1168.39 676.72 1184.54 C 686.278 1219.97 631.161 1243.5 614.069 1209.47 C 603.364 1188.15 597.308 1162.18 589.234 1139.58 L 528.5 1139.58 C 507.316 1139.61 486.176 1139.19 464.984 1139.58 C 457.83 1159.78 445.72 1211.03 429.052 1222.28 C 407.617 1236.75 368.98 1214.23 375.733 1187.99 C 381.238 1166.61 389.817 1146.08 396.74 1125.12 L 482.372 871.927 C 491.761 843.785 491.477 820.953 523.851 813.191 z M 489.869 1071 L 528.5 1071 L 564.349 1071 C 561.393 1059.93 531.016 967.511 528.5 965.448 C 518.367 981.637 497.196 1049.1 489.869 1071 z" fill="rgb(0,0,0)" transform="translate(0,0)"></path>
<metadata><recraft-signature>{"signed_by": "recraft", "signature_b64": "2YXAYXnGlWa57sOpFJV4XBrFuvPTIobduNhnyI0B9jKEAXTGDzYTC8FdFVdT0FdWZpBgS8J0mDSjAGANOyqEBw==", "signing_algo": "Ed25519", "generation_timestamp": 1773000307, "identifier": "8855dc68-d610-4da1-a93e-8b6a871d78c1"}</recraft-signature></metadata></svg>