<svg xmlns="http://www.w3.org/2000/svg" height="512" preserveAspectRatio="none" style="display: block;" version="1.1" viewBox="0 0 2048 2048" width="512">
<path d="M 401.503 446.913 L 1723.05 446.865 C 1754.92 446.857 1783.02 444.918 1812.83 457.051 C 1900.54 492.751 1892.13 569.103 1892.03 644.945 L 1892.06 1415.86 C 1892.11 1547.1 1850.62 1580.02 1720.79 1580.06 L 1643.5 1580 L 292.069 1580.19 C 200.709 1580.42 156.533 1519.79 156.916 1435.45 L 156.934 582.208 C 156.913 469.463 224.689 446.805 323.605 446.839 L 401.503 446.913 z M 1770.32 1525 C 1850.94 1509.04 1837.03 1439.35 1837.04 1376.9 L 1837.03 663.029 C 1837.05 608.622 1851.76 497.999 1763.97 502.473 L 341.535 502.234 C 323.36 502.209 291.962 501.085 275.159 502.256 C 204.405 508.45 211.84 569.919 211.977 620.187 L 211.967 1410.53 C 211.966 1427.25 211.584 1444.09 212.748 1460.75 C 218.31 1540.39 321.933 1525.02 376.566 1525.01 L 1701.08 1525 C 1720.16 1525.01 1752.81 1526.25 1770.32 1525 z" fill="rgb(0,0,0)" transform="translate(0,0)"></path>
<path d="M 615.836 1038.37 C 711.611 1029.84 713.815 1104.65 715.311 1175.74 C 716.383 1226.72 690.508 1263.34 639.237 1270.77 C 588.461 1275.75 545.491 1253.46 538.372 1198.87 C 531.44 1131.43 529.652 1047.89 615.836 1038.37 z M 635.768 1234.09 C 680.646 1224.33 676.144 1181.36 675.62 1145.46 C 675.096 1109.55 666.558 1068.23 620.752 1075.32 C 578.919 1082.04 578.171 1108.2 576.912 1143.42 C 575.449 1184.33 573.843 1245.08 635.768 1234.09 z" fill="rgb(0,0,0)" transform="translate(0,0)"></path>
<path d="M 1542.59 1042.57 C 1581.52 1040.34 1648.49 1036.31 1678.23 1063.38 C 1716.67 1098.37 1714.52 1209.96 1680.54 1246.3 C 1650.44 1277.02 1583.97 1267.55 1542.59 1268.01 C 1541.63 1245.97 1542.55 1216.22 1542.56 1193.47 L 1542.59 1042.57 z M 1583.06 1230 C 1605.7 1230.13 1631.37 1233.36 1649.7 1219.76 C 1668.76 1194.58 1672.97 1106.56 1646.34 1088.01 C 1631.35 1077.57 1601.85 1080.54 1583.06 1078.04 C 1583.59 1128.54 1584.44 1179.52 1583.06 1230 z" fill="rgb(0,0,0)" transform="translate(0,0)"></path>
<path d="M 998.712 752.011 C 1070.64 742.133 1087.54 800.576 1089.92 858.106 C 1092.23 913.996 1075.8 966.715 1010.25 966.987 C 919.826 973.21 916.226 912.666 917.784 840.489 C 918.846 791.242 945.343 749.471 998.712 752.011 z M 1010.25 933.318 C 1051.02 925.463 1047.1 892.78 1049.17 860.815 C 1051.41 826.168 1044.92 781.79 998.712 787.997 C 945.124 793.238 956.179 851.133 957.791 891.003 C 959.046 922.079 981.84 933.011 1010.25 933.318 z" fill="rgb(0,0,0)" transform="translate(0,0)"></path>
<path d="M 590.794 752.011 C 615.634 746.941 640.488 750.622 660.033 767.497 C 703.546 804.424 707.336 962.899 620.752 966.987 C 562.879 978.961 519.078 939.728 521.6 881.529 C 523.759 831.707 515.162 752.753 590.794 752.011 z M 612.504 933.318 C 653.762 924.988 647.489 883.752 648.071 852.034 C 648.637 821.161 641.452 771.271 597.505 787.997 C 562.963 790.543 560.71 818.958 560.477 846.531 C 560.146 885.693 554.94 939.436 612.504 933.318 z" fill="rgb(0,0,0)" transform="translate(0,0)"></path>
<path d="M 1496.03 752.011 C 1536.21 749.911 1601.38 746.346 1630.13 776.501 C 1661.59 809.484 1664.67 911.732 1631.49 944.9 C 1597.77 973.959 1538.19 967.098 1496.03 966.987 C 1494.64 945.563 1495.96 917.305 1495.99 895.104 L 1496.03 752.011 z M 1537.06 929.275 C 1557.67 929.448 1583.81 932.683 1599.75 918.447 C 1615.71 899.125 1612.3 858.495 1610.79 834.375 C 1607.8 786.649 1572.68 788.785 1537.06 789.011 L 1537.06 929.275 z" fill="rgb(0,0,0)" transform="translate(0,0)"></path>
<path d="M 744.879 752.011 C 792.234 751.868 877.505 740.475 883.057 808.693 C 885.932 844.02 873.918 863.834 841.771 878.185 C 852.372 900.554 880.098 948.031 893.868 966.987 C 881.952 967.442 852.603 972.252 845.2 962.067 C 831.548 936.801 813.317 907.572 798.637 882.589 C 789.038 883.687 783.029 883.355 773.488 882.589 L 773.488 966.987 L 733.048 966.987 L 733.047 824.384 C 733.04 800.872 732.403 775.283 733.048 752.011 L 744.879 752.011 z M 773.488 847.003 C 793.014 850.722 818.496 853.554 835.899 841.719 C 848.357 827.476 848.616 806.18 834.134 793.677 C 821.241 782.544 789.255 785.68 773.488 787.997 C 773.334 806.288 772.766 828.888 773.488 847.003 z" fill="rgb(0,0,0)" transform="translate(0,0)"></path>
<path d="M 1388.64 1042.57 C 1403.02 1042.67 1417.38 1042.4 1431.96 1042.57 C 1436.65 1058.6 1448.52 1085.69 1454.76 1102.51 L 1517.46 1268.01 C 1503.2 1267.67 1485.8 1266.77 1471.9 1268.01 C 1465.86 1251.65 1460.65 1235.78 1453.67 1219.76 L 1431.96 1219.76 L 1362.62 1219.76 C 1355.88 1235.84 1352.33 1250.78 1344.43 1268.01 C 1330.77 1268.42 1315.18 1268.03 1301.36 1268.01 C 1331.26 1195.25 1362.58 1116.75 1388.64 1042.57 z M 1376.49 1182.54 C 1387.82 1182.84 1397.39 1182.89 1408.75 1182.54 C 1418.45 1182.45 1429.89 1182.06 1439.45 1182.54 C 1434.75 1166.35 1415.28 1103.94 1408.75 1091.5 C 1398.2 1109.91 1384.66 1159.75 1376.49 1182.54 z" fill="rgb(0,0,0)" transform="translate(0,0)"></path>
<path d="M 1001.64 1042.57 L 1044.44 1042.57 C 1075.29 1112.05 1101.02 1195.81 1129 1268.01 C 1114.1 1269.22 1099.07 1268.52 1084.15 1268.01 C 1077.8 1250.6 1071.78 1233.03 1064.67 1215.92 L 1044.44 1215.92 L 980.534 1215.92 C 975.155 1228.96 967.582 1257.45 960.923 1268.01 L 917.367 1268.01 C 939.625 1201.14 973.271 1105.27 1001.64 1042.57 z M 994.054 1178.94 L 1027.25 1178.94 L 1051.89 1178.94 C 1047.82 1165.5 1028.8 1101.25 1021.56 1094.52 C 1011.28 1122.07 1001.97 1150.65 994.054 1178.94 z" fill="rgb(0,0,0)" transform="translate(0,0)"></path>
<path d="M 1347.73 752.011 C 1358.27 752.849 1380.83 752.055 1392.27 752.011 C 1396.73 766.202 1403.22 781.904 1408.38 796.077 L 1449.71 909.178 C 1456.13 927.191 1464.35 948.652 1468.86 966.987 C 1455.26 966.923 1441.68 966.833 1428.07 966.987 L 1414 924.988 L 1399.32 924.988 L 1330.67 924.988 L 1330.16 926.018 C 1325.36 935.42 1318.99 955.702 1314.68 966.987 L 1274.43 966.987 C 1292.61 895.732 1326.35 823.189 1347.73 752.011 z M 1344.43 887.981 C 1355.11 888.247 1365.81 888.074 1376.49 887.981 C 1383.93 887.941 1391.93 887.751 1399.32 887.981 C 1396.16 878.147 1372.89 805.38 1369.7 802.579 C 1362.07 821.721 1348.84 860.881 1345.59 880.876 L 1344.43 887.981 z" fill="rgb(0,0,0)" transform="translate(0,0)"></path>
<path d="M 1243.93 752.011 C 1257.7 751.693 1271.68 751.504 1285.44 752.011 C 1279.99 769.965 1273.39 788.85 1267.49 806.751 C 1248.79 857.861 1232.37 914.901 1214.15 966.987 C 1201.57 966.825 1189.26 966.859 1176.67 966.987 C 1168.65 948.754 1157.28 910.811 1150.17 890.398 L 1117.02 795.048 C 1114.4 787.537 1102.36 758.814 1103.81 752.914 L 1106.3 752.011 C 1118.2 751.63 1132.01 751.985 1144.05 752.011 C 1157.42 797.465 1186.06 857.707 1193.03 902.679 C 1211.71 859.095 1228.33 798.894 1243.93 752.011 z" fill="rgb(0,0,0)" transform="translate(0,0)"></path>
<path d="M 359.022 1042.57 L 509.49 1042.57 C 509.627 1054.41 509.212 1066.19 509.49 1078.04 L 398.999 1078.04 L 398.999 1138.49 C 426.725 1139.76 462.898 1138.46 491.393 1138.49 C 491.622 1145.39 491.436 1152.9 491.393 1159.86 C 491.136 1164.67 491.287 1169.07 491.393 1173.88 L 398.999 1173.88 C 401.247 1202.12 398.996 1238.99 398.999 1268.01 C 385.471 1268.28 372.554 1268.2 359.022 1268.01 C 360.011 1193.98 361.465 1115.97 359.022 1042.57 z" fill="rgb(0,0,0)" transform="translate(0,0)"></path>
<path d="M 359.022 752.011 L 498.993 752.011 L 498.993 787.997 C 466.776 788.875 431.555 787.836 398.999 787.997 C 399.108 808.052 397.409 826.932 398.999 847.003 L 478.741 847.003 L 478.741 865.455 L 478.741 882.589 C 452.465 883.079 425.371 882.463 398.999 882.589 C 397.588 910.258 397.825 939.384 398.999 966.987 L 359.022 966.987 C 358.204 944.891 358.985 917.3 358.988 894.689 L 359.022 752.011 z" fill="rgb(0,0,0)" transform="translate(0,0)"></path>
<path d="M 1151.63 1042.57 C 1165.62 1041.89 1179.04 1042.29 1193.03 1042.57 L 1193.03 1167.59 C 1193.05 1188.18 1193.73 1210.72 1193.03 1231.04 L 1282.48 1231.04 C 1282.36 1237.74 1284.61 1264.19 1282.48 1268.01 C 1271.73 1268.94 1251.27 1268.12 1239.62 1268.09 L 1151.63 1268.01 L 1151.66 1133.15 C 1151.72 1105.7 1152.8 1070.22 1150.17 1043.64 L 1151.63 1042.57 z" fill="rgb(0,0,0)" transform="translate(0,0)"></path>
<path d="M 762.03 1042.57 C 774.735 1042.95 789.272 1042.46 802.3 1042.57 L 802.3 1231.04 C 829.978 1231.57 871.638 1233.75 898.042 1231.04 L 898.042 1268.01 C 860.598 1265.25 799.955 1266.6 762.03 1268.01 L 762.03 1042.57 z" fill="rgb(0,0,0)" transform="translate(0,0)"></path>
<metadata><recraft-signature>{"signed_by": "recraft", "signature_b64": "LpiDbvVLDGzp4GVR5gLoP3PPToAgXu44+E/8NUO9Ee93d2EzWs7tAbCUWIQavU7jlnUjl1t1sfl8Lkn5nc7tCQ==", "signing_algo": "Ed25519", "generation_timestamp": 1773000590, "identifier": "6ef08f26-2adb-47fe-8232-3091157e2ce5"}</recraft-signature></metadata></svg>