<svg xmlns="http://www.w3.org/2000/svg" height="512" preserveAspectRatio="none" style="display: block;" version="1.1" viewBox="0 0 2048 2048" width="512">
<path d="M 1008.96 342.822 L 1294.42 342.79 C 1431.45 342.811 1446.99 398.679 1447 523.756 L 1446.96 626.319 L 1628.16 626.384 C 1700.41 626.425 1765.8 615.177 1765.87 709.002 L 1765.92 1503.53 C 1765.92 1556.58 1775.8 1626.95 1732.35 1667.06 C 1700.22 1696.71 1674.4 1702.7 1632.74 1702.91 L 1376.16 1702.94 C 1253.44 1702.86 1262.6 1578.76 1338.53 1558.99 C 1346.19 1556.99 1365.76 1557.95 1374.51 1557.95 L 1432.56 1557.97 C 1493.68 1557.99 1559.19 1556.78 1620 1558 C 1619.42 1529.06 1619.99 1498.35 1619.99 1469.22 L 1620 767.43 L 1445.38 767.46 C 1309.49 767.461 1297.9 768.1 1297.93 640.116 L 1297.96 491.534 L 787.125 491.534 L 429.918 491.534 C 428.247 524.479 429.906 571.417 429.908 605.891 L 429.918 1558 L 431.193 1557.96 C 468.963 1556.88 512.34 1557.99 550.744 1557.99 L 911.722 1558.04 C 927.885 1558 950.249 1556.3 965.392 1558.24 C 1043.85 1568.29 1057.24 1701.8 940.236 1702.9 L 440.703 1702.94 C 425.586 1702.95 410.123 1703.01 395.367 1702.73 C 326.525 1701.45 281.337 1648.23 281.011 1582.53 L 280.981 481.602 C 280.87 361.89 324.886 342.772 436.506 342.79 L 1008.96 342.822 z" fill="rgb(0,0,0)" transform="translate(0,0)"></path>
<metadata><recraft-signature>{"signed_by": "recraft", "signature_b64": "naXWeBSl+0hVZ9yJiI0k+T3N2KlKmOlO0xcOJNO/VfRh6RSWp9uShjgR5Q5S4qKtVOoH14g6k6TCZBcurHcKCQ==", "signing_algo": "Ed25519", "generation_timestamp": 1772998334, "identifier": "54b171b0-7650-4c4d-8470-8f5123b023e8"}</recraft-signature></metadata></svg>