<svg xmlns="http://www.w3.org/2000/svg" height="512" preserveAspectRatio="none" style="display: block;" version="1.1" viewBox="0 0 2048 2048" width="512">
<path d="M 852.769 403.286 C 886.847 398.825 926.211 426.31 929.719 461.031 C 931.485 478.51 931.026 496.149 931.033 513.713 L 931.055 602.766 C 931.069 714.787 929.754 829.221 931.003 941.05 C 936.835 955.166 949.359 969.95 958.634 982.353 L 1125.99 1200.54 C 1150.23 1232.14 1174.15 1265.39 1199.5 1296.01 L 1382.85 1295.98 C 1417.32 1295.97 1451.29 1295.15 1485.88 1297.34 C 1545.48 1301.13 1572.61 1374.22 1531.62 1416.71 C 1503.78 1445.56 1462.6 1439.87 1425.83 1439.9 L 1217.61 1439.91 C 1113.59 1439.83 1125.81 1442.4 1064.13 1360.42 C 1020.39 1302.28 975.481 1238.37 931.003 1180.91 L 931.041 1750.41 C 931.06 1797.06 936.66 1875.99 865.719 1877.06 C 781.857 1878.43 790.063 1805.39 790.078 1748.31 L 790.119 1180.91 C 779.892 1191.37 758.303 1222.18 747.977 1235.79 L 661.181 1351.05 C 589.262 1446.66 607.412 1440.03 481.625 1439.9 L 271.027 1439.93 C 237.137 1440.2 216.037 1444.56 188.659 1419.27 C 148.252 1381.95 166.304 1311.53 220.563 1300.66 C 233.434 1298.08 248.274 1298.86 261.439 1298.85 L 522.949 1298.88 C 543.283 1273.46 563.202 1245.91 582.542 1219.72 L 751.598 992.453 C 763.672 976.324 779.324 957.559 790.119 941.05 C 789.387 933.24 789.976 921.186 790.052 913.001 L 790.074 491.04 C 790.169 440.85 794.575 413.595 852.769 403.286 z" fill="rgb(0,0,0)" transform="translate(0,0)"></path>
<path d="M 1521.63 146.827 C 1525.38 147.929 1615.67 228.887 1624.98 237.49 C 1582.29 269.783 1536.07 314.144 1498.37 353.08 C 1538.71 424.932 1584.38 498.688 1626.09 570.334 L 1838.4 928.621 C 1854.79 955.703 1870.52 983.237 1887.19 1010.19 C 1851.45 1040.85 1806.64 1060.07 1770.1 1089.59 L 1721.68 1009.58 C 1708.28 987.107 1694.74 962.81 1680.54 941.05 C 1668.09 918.321 1630.86 866.49 1624.98 844.998 C 1587.97 846.02 1545.55 845.015 1508.03 845.008 L 1164.19 845.08 C 1120.81 845.115 1076.07 853.075 1050.32 809.156 C 1030.8 775.847 1050.47 730.156 1064.34 697.138 C 1140.81 515.02 1277.49 356.666 1422.46 224.879 C 1448.87 200.874 1492.39 163.808 1521.63 146.827 z M 1362.25 706.475 L 1543.41 706.475 C 1526.57 675.114 1418.9 480.231 1397.71 458.796 C 1334.59 527.109 1259.76 624.608 1214.28 706.475 L 1362.25 706.475 z" fill="rgb(0,0,0)" transform="translate(0,0)"></path>
<metadata><recraft-signature>{"signed_by": "recraft", "signature_b64": "SbGA/U/a1SiiMRY+OxXi/UIR3JF3d4cAcf/0ed6VFYkprB5rnnRXjBFLuFVhH2kSIU9LPEq4GlyEzGPoqspRBw==", "signing_algo": "Ed25519", "generation_timestamp": 1773000208, "identifier": "93fda46c-057a-4fff-bef4-e0014ed24c3b"}</recraft-signature></metadata></svg>