<svg xmlns="http://www.w3.org/2000/svg" height="512" preserveAspectRatio="none" style="display: block;" version="1.1" viewBox="0 0 2048 2048" width="512">
<path d="M 324.917 479.505 C 341.854 478.467 370.326 479.458 388.326 479.473 L 1716.02 479.492 C 1807.36 479.74 1791.99 574.309 1791.98 637.51 L 1792.01 1428.8 C 1792.09 1484.65 1802.68 1549.33 1729.18 1565.8 C 1706.69 1566.95 1673.52 1565.81 1649.92 1565.81 L 410.767 1565.84 C 355.32 1565.9 266.889 1577.58 258.618 1499.09 C 256.616 1480.09 257.011 1459.59 256.994 1440.47 L 256.976 603.999 C 256.881 547.054 252.119 488.661 324.917 479.505 z M 821.5 1518.21 L 1615.34 1518.23 C 1632.66 1518.22 1726.68 1522.92 1736.69 1511.64 C 1750.86 1495.66 1745.04 1465.43 1745.05 1443.07 L 1745.08 587.982 C 1745 513.428 1729.01 526.326 1664.76 526.541 L 1229.39 526.581 L 445.372 526.563 C 410.87 526.566 376.163 526.039 341.701 527.265 C 306.008 528.535 307.41 538.892 304.692 568.017 L 304.336 1419.52 C 304.344 1446.9 294.621 1516.09 332.048 1517.73 C 351.536 1518.52 371.104 1518.25 390.619 1518.24 L 821.5 1518.21 z" fill="rgb(4,3,4)" transform="translate(0,0)"></path>
<path d="M 705.79 711.001 C 852.291 697.415 865.63 955.849 729.248 971.918 C 606.86 984.562 575.421 801.683 652.303 734.048 C 669.49 718.928 683.722 714.948 705.79 711.001 z M 729.248 923.435 C 780.852 912.886 796.654 752.959 708.961 757.14 C 649.383 773.321 639.528 932.617 729.248 923.435 z" fill="rgb(4,3,4)" transform="translate(0,0)"></path>
<path d="M 621.022 1112.51 C 664.564 1111.18 736.631 1106.15 768.679 1134.32 C 818.967 1178.53 817.703 1287.88 775.407 1336.09 C 744.331 1364.59 649.118 1372.71 623.743 1359.69 C 613.919 1325.34 621.385 1177.13 620.625 1130.79 C 620.522 1124.5 619.469 1118.65 621.022 1112.51 z M 670.389 1319.03 C 699.473 1316.23 712.43 1321.47 737.697 1305.21 C 758.424 1276.41 757.301 1239.07 752.849 1205.42 C 745.999 1153.65 710.156 1156.98 670.389 1157.9 C 672.929 1209.52 669.746 1266.7 670.389 1319.03 z" fill="rgb(4,3,4)" transform="translate(0,0)"></path>
<path d="M 880.472 715.436 C 918.824 711.158 976.017 708.259 1003.2 739.664 C 1037.25 779.019 1023.22 825.667 988.213 857.288 C 993.752 868.793 1030.28 958.352 1029.31 966.883 C 1022.36 970.756 1003.3 968.301 994.711 969.389 C 975.138 971.869 974.189 957.057 969.036 942.291 C 960.535 919.185 951.034 896.541 941.185 873.982 C 929.394 873.182 921.077 873.29 909.296 873.982 C 909.194 887.334 914.935 963.086 905.111 967.959 C 900.7 970.146 861.798 971.075 860.157 966.896 C 856.578 957.783 856.443 723.763 859.816 716.445 C 865.284 714.323 874.412 715.163 880.472 715.436 z M 909.296 827.003 C 927.395 827.342 946.259 829.302 961.154 817.86 C 992.281 780.304 956.309 755.344 909.296 762.984 C 909.071 784.285 909.24 805.693 909.296 827.003 z" fill="rgb(4,3,4)" transform="translate(0,0)"></path>
<path d="M 1110.01 715.436 C 1184.18 704.404 1249.85 751.823 1213.84 829.289 C 1208.9 839.896 1198.41 848.931 1189.47 857.288 C 1195.17 869.606 1228.39 958.691 1227.09 966.574 C 1226.07 967.528 1224.94 968.47 1223.41 968.566 C 1173.81 971.711 1172.58 971.649 1161.73 923.435 C 1156.4 913.718 1147.07 885.614 1142.9 873.982 L 1110.01 873.982 C 1110.84 884.405 1110.99 958.751 1108.22 966.562 C 1102.97 970.03 1069.62 970.143 1064.76 967.612 C 1057.24 959.249 1061.85 897.598 1061.85 883.531 L 1061.85 717.52 C 1075.7 714.893 1096.13 712.989 1110.01 715.436 z M 1110.01 827.003 C 1130.39 827.245 1145.42 830.456 1161.73 817.86 C 1191.11 779.654 1159.29 755.457 1112.43 762.607 L 1110.01 762.984 C 1110.04 784.261 1110.23 805.745 1110.01 827.003 z" fill="rgb(4,3,4)" transform="translate(0,0)"></path>
<path d="M 1094.59 1112.51 C 1104.36 1112.08 1124.8 1111.11 1133.97 1112.51 C 1162.95 1162.14 1198.49 1213.66 1225.01 1264.23 L 1225 1164.06 C 1224.98 1148.27 1224.09 1127.62 1225.01 1112.51 C 1265.24 1111.52 1272.74 1102.72 1272.71 1138.2 L 1272.62 1310.64 C 1272.62 1331.07 1281.15 1361.16 1259.06 1362.32 C 1249.12 1362.19 1230.02 1364.44 1224.95 1355.29 C 1196.34 1303.55 1161.34 1253.14 1133.97 1200.87 C 1135.16 1215.96 1134.83 1353.22 1131.75 1358.36 C 1127.12 1366.08 1092.88 1363.32 1087.36 1359.55 C 1084.78 1354.43 1085.98 1315.75 1085.98 1307.35 L 1086.01 1215.13 C 1086.01 1195.69 1078.1 1115.7 1094.59 1112.51 z" fill="rgb(4,3,4)" transform="translate(0,0)"></path>
<path d="M 472.401 1112.51 C 538.317 1110.83 523.942 1107.07 543.43 1173.34 L 570.922 1269.55 C 575.374 1285.57 592.575 1344.48 592.947 1357.84 C 588.13 1365.17 553.119 1363.34 547.807 1361.13 C 540.738 1358.2 533.908 1319.33 530.924 1310.08 L 530.542 1308.93 C 524.547 1309.07 518.501 1308.97 512.5 1308.93 L 458.046 1308.93 C 453.377 1320.85 445.856 1356.81 439.93 1361.84 C 431.456 1364.61 399.192 1365.25 393.649 1358.03 C 393.136 1336.19 448.528 1150.69 456.637 1123.17 C 459.525 1113.37 462.64 1112.64 472.401 1112.51 z M 466.791 1264.23 C 478.386 1265.82 481.664 1265.78 493.25 1264.23 C 503.918 1264.82 509.2 1264.73 519.662 1264.23 C 518.073 1257.38 494.005 1165.92 493.25 1164.79 C 481.896 1199.76 477.084 1230.56 466.791 1264.23 z" fill="rgb(4,3,4)" transform="translate(0,0)"></path>
<path d="M 1531.63 1112.51 C 1547.46 1111.42 1567.24 1111.95 1583.21 1112.51 C 1588.5 1124.86 1598.8 1165.14 1603.43 1180.31 C 1619.7 1234.38 1636.04 1288.52 1651.37 1342.86 C 1658.41 1367.79 1646.89 1361.67 1627.29 1361.83 C 1591.87 1362.13 1599.45 1346.9 1589.25 1308.93 L 1573.75 1308.93 C 1555.69 1308.87 1536.95 1309.25 1519 1308.93 C 1515.31 1321.88 1509.3 1349.49 1501.44 1359.9 C 1497.31 1365.37 1460.4 1364.47 1455.01 1358.74 C 1454.48 1332.58 1523.36 1115.59 1531.63 1112.51 z M 1527 1264.23 C 1536.4 1263.79 1544.52 1263.32 1553.94 1264.23 C 1561.68 1264.22 1569.69 1264.1 1577.41 1264.23 C 1572.13 1241.48 1562.38 1193.37 1553.94 1172.53 C 1544.56 1199.96 1537.17 1240.08 1527 1264.23 z" fill="rgb(4,3,4)" transform="translate(0,0)"></path>
<path d="M 1329.09 711.001 C 1360.52 710.008 1378.4 716.11 1406.16 727.96 C 1399.09 741.277 1394.05 755.767 1388.88 769.933 C 1324.76 736.605 1250.42 783.544 1353.63 821.401 C 1427.28 848.418 1425.19 964.108 1324.98 971.918 C 1305.42 972.65 1274.37 969.165 1256.76 959.866 C 1250.56 956.591 1251.25 919.821 1256.19 913.446 C 1265.53 909.456 1359.8 951.306 1355.6 893.309 C 1352.44 875.866 1322.24 865.909 1307.66 860.202 C 1235.92 832.128 1227.23 726.637 1329.09 711.001 z" fill="rgb(4,3,4)" transform="translate(0,0)"></path>
<path d="M 927.459 1112.51 C 946.662 1112.52 1029.82 1109.82 1042.22 1114.8 C 1045.19 1118.72 1044.76 1147.79 1045 1155.52 C 1018.61 1158.53 991.878 1153.93 965.03 1157.9 L 965.03 1209 L 1034.66 1209 C 1035.02 1223.48 1034.71 1238.93 1034.66 1253.49 C 1011.99 1253.93 987.832 1253.46 965.03 1253.49 C 964.369 1269.3 964.979 1289.1 965.03 1305.21 C 965.109 1309.78 965.043 1314.45 965.03 1319.03 C 973.86 1319.04 1042.61 1316.19 1044.13 1322.96 C 1045.82 1330.53 1045.82 1351.62 1044.48 1358.42 C 1038.34 1366.39 922.127 1361.99 918.769 1359.73 C 913.495 1347.49 915.927 1144.75 916.013 1112.51 C 919.982 1112.39 923.488 1112.41 927.459 1112.51 z" fill="rgb(4,3,4)" transform="translate(0,0)"></path>
<path d="M 466.791 715.436 L 552.406 715.412 C 593.254 715.01 597.506 706.596 588.782 762.984 C 571.724 762.234 523.691 760.813 507.97 762.984 L 507.97 824.337 C 519.911 823.802 567.301 823.089 577.172 826.572 C 583.146 832.168 582.126 861.12 578.891 868.338 C 573.679 872.186 565.195 871.078 558.5 871.003 L 507.97 871.003 C 508.653 884.104 509.4 959.767 504.706 966.984 C 497.865 969.652 464.097 971.095 459.664 965.667 C 456.721 949.61 457.057 725.018 460.227 717.777 C 462.666 715.543 463.456 715.833 466.791 715.436 z" fill="rgb(4,3,4)" transform="translate(0,0)"></path>
<path d="M 1426 715.436 C 1436.13 716.049 1454.11 715.482 1464.61 715.462 L 1541.1 715.349 C 1595.11 715.306 1587.72 707.073 1586.98 762.984 C 1567.04 763.266 1546.95 763.062 1527 762.984 C 1526.17 776.766 1526.93 795.813 1526.95 810.176 L 1527 905.5 L 1527 968.996 C 1509.92 969.475 1496.68 967.856 1477.02 968.996 C 1473.16 907.716 1475.69 824.84 1477.02 762.984 L 1426 762.984 L 1426 715.436 z" fill="rgb(4,3,4)" transform="translate(0,0)"></path>
<path d="M 1294.51 1112.51 C 1319.24 1113.24 1448.6 1109.5 1461.86 1114.83 C 1464.81 1120.41 1464.58 1145.32 1463.72 1151.95 C 1457.39 1157.69 1417.85 1155.26 1406.16 1155.52 C 1405.59 1171.14 1406.13 1190.36 1406.14 1206.34 L 1406.16 1308.93 C 1406.43 1319.78 1407.83 1351.3 1403.79 1359.76 C 1398.43 1363.78 1365.2 1363.22 1359.38 1359.33 C 1355.61 1353.91 1356.98 1294.78 1356.99 1284.14 L 1357.05 1155.52 C 1337.3 1155.33 1313.63 1156.53 1294.51 1155.52 C 1293.84 1142.25 1294.35 1125.88 1294.51 1112.51 z" fill="rgb(4,3,4)" transform="translate(0,0)"></path>
<path d="M 849.824 1112.51 C 856.693 1112.84 891.851 1108.43 893.699 1116.07 C 894.671 1120.09 870.844 1219.59 867.825 1223.01 C 852.701 1223.57 836.705 1223.17 821.5 1223.01 C 823.751 1208.73 844.735 1120.04 849.824 1112.51 z" fill="rgb(4,3,4)" transform="translate(0,0)"></path>
<metadata><recraft-signature>{"signed_by": "recraft", "signature_b64": "HrLkXFBcho+UG2ba+ZPP+4tQY+gyRvGMgqcmfwMKWAZciNdP5vZqUUz13Rdhyq63i2cVtKacicEQicegrHtbAg==", "signing_algo": "Ed25519", "generation_timestamp": 1772996196, "identifier": "221858c4-5f2b-4b50-81a3-d93a6de30fe9"}</recraft-signature></metadata></svg>