<svg xmlns="http://www.w3.org/2000/svg" height="512" preserveAspectRatio="none" style="display: block;" version="1.1" viewBox="0 0 2048 2048" width="512">
<path d="M 749.015 1085.99 L 1861.94 1085.99 L 1861.94 1739.52 C 1825.06 1740.9 1777.39 1739.53 1739.9 1739.53 L 749.015 1739.52 L 749.015 1085.99 z M 800.999 1689 L 1809.89 1689 L 1809.85 1200.86 C 1809.8 1180.01 1808.67 1158.65 1809.89 1138 L 800.999 1138 L 800.999 1689 z" fill="rgb(0,0,0)" transform="translate(0,0)"></path>
<path d="M 1300.79 1264.01 C 1314.65 1263.23 1336.51 1263.99 1351 1264.01 L 1351 1563.48 C 1333.22 1563.72 1314.98 1563.52 1297.16 1563.48 L 1297.16 1473.75 L 1297.16 1333.1 C 1277.39 1349.09 1254.83 1363.89 1235.88 1380.45 C 1226.36 1367.89 1210.33 1351.14 1202.49 1339.47 L 1263.46 1292.12 C 1274.12 1283.79 1289.84 1270.73 1300.79 1264.01 z" fill="rgb(0,0,0)" transform="translate(0,0)"></path>
<path d="M 1300.79 305.995 C 1300.84 306.085 1300.78 899.058 1300.79 954.029 C 1260.71 954.665 1218.67 954.042 1178.49 954.041 L 185.628 954.029 C 184.527 951.686 185.878 356.559 185.628 305.995 L 1300.79 305.995 z M 237.121 902.998 L 1247.01 902.998 C 1246.22 880.012 1247 853.493 1247.01 830.104 L 1247.02 686.279 C 1247.02 577.507 1245.6 465.504 1247.01 356.991 L 237.121 356.991 L 237.198 841.544 C 237.272 859.651 238.423 885.942 237.121 902.998 z" fill="rgb(0,0,0)" transform="translate(0,0)"></path>
<path d="M 723.792 473.296 C 776.25 466.346 831.367 509.349 831.325 563.332 C 831.29 608.417 794.406 638.971 765.588 668.707 L 709.72 726.014 L 791.504 726.05 C 804.316 726.09 822.827 726.817 835.085 726.014 L 835.085 776.872 L 702.071 776.872 C 677.96 776.954 653.592 776.342 629.544 776.872 L 629.544 732.408 C 672.396 691.149 712.297 646.832 753.827 604.173 C 813.68 542.691 733.528 496.061 690.618 547.092 C 673.191 547.862 653.778 546.656 635.853 547.092 C 646.765 501.232 678.392 479.444 723.792 473.296 z" fill="rgb(0,0,0)" transform="translate(0,0)"></path>
<path d="M 1569.45 463.758 L 1570.69 464.327 C 1568.66 479.514 1569.53 514.586 1569.45 531.36 C 1552.88 552.067 1525.15 573.319 1506.44 596.51 L 1717.49 596.51 C 1717.03 612.965 1717.15 632.972 1717.49 649.448 C 1699.8 650.417 1672.95 649.498 1654.41 649.488 L 1510.99 649.448 C 1522.41 660.677 1534.31 671.688 1545.99 682.666 C 1553.89 690.453 1561.23 697.418 1569.45 704.857 C 1569.65 729.007 1568.75 752.679 1569.45 776.872 C 1521.89 738.278 1450.35 665.973 1408.14 621.245 C 1419.71 606.879 1449.24 579.981 1462.81 566.501 L 1524.49 505.684 C 1536.21 494.017 1556.45 472.362 1569.45 463.758 z" fill="rgb(0,0,0)" transform="translate(0,0)"></path>
<path d="M 476.936 1257.55 C 482.803 1261.5 516.472 1296 524.056 1303.56 L 639.881 1419.51 C 585.26 1471.26 532.614 1525.75 476.936 1576.41 C 478.117 1555.05 478.608 1530.73 476.936 1509.45 C 483.853 1502.25 491.037 1495.56 498.289 1488.71 C 512.058 1476.59 530.591 1455.63 543.474 1441.78 L 333.342 1441.78 L 333.342 1389.17 C 354.629 1390 380.741 1389.21 402.529 1389.2 L 539.718 1389.17 C 518.704 1367.99 498.48 1348.39 476.936 1327.75 C 475.991 1306.8 476.89 1278.99 476.936 1257.55 z" fill="rgb(0,0,0)" transform="translate(0,0)"></path>
<metadata><recraft-signature>{"signed_by": "recraft", "signature_b64": "6V2pvZusQZdvZ1CUDCvYdYJ6qKdBtp3P8Lj7BLwp+fLR1Lz+wzZ50lm0mPFrpC+8pLpMs2l6dFJ3ujf8Xa3bCg==", "signing_algo": "Ed25519", "generation_timestamp": 1772988358, "identifier": "c344f45d-91ea-4958-96b3-2f480a27bf2f"}</recraft-signature></metadata></svg>