<svg xmlns="http://www.w3.org/2000/svg" height="512" preserveAspectRatio="none" style="display: block;" version="1.1" viewBox="0 0 2048 2048" width="512">
<path d="M 408.063 297.002 L 1592.1 296.935 C 1705.87 296.785 1745.96 328.652 1746.01 448.038 L 1746.05 1557.12 C 1746.06 1651.89 1753.41 1728.28 1637.25 1748.89 L 451.453 1748.95 C 328.425 1749.08 302.138 1711.57 302.182 1589.54 L 302.208 475.407 C 302.205 387.535 297.562 310.12 408.063 297.002 z M 1466.5 1650.51 L 1583.03 1650.47 C 1608.46 1650.47 1645.82 1661.04 1647.06 1629.19 C 1647.84 1608.92 1647.59 1588.68 1647.59 1568.41 L 1647.56 483.472 C 1647.55 373.494 1666.04 394.134 1551.36 394.124 L 580.147 394.138 C 551.968 395.11 417.172 390.807 402.58 396.838 C 400.29 407.01 401.125 465.867 401.123 480.251 L 401.295 1579.31 C 401.368 1596.79 400.611 1614.86 401.175 1632.32 C 403.817 1657.86 431.889 1650.76 451.153 1650.62 L 1466.5 1650.51 z" fill="rgb(0,0,0)" transform="translate(0,0)"></path>
<path d="M 1387.77 798.288 C 1453.8 789.659 1446.02 855.552 1446.03 896.157 L 1446.04 1138.87 C 1446.1 1175 1457.08 1237.18 1405.76 1243 C 1339.48 1261.4 1346.01 1185.08 1345.99 1145.3 L 1345.99 908.516 C 1346 866.146 1333.59 807.777 1387.77 798.288 z" fill="rgb(0,0,0)" transform="translate(0,0)"></path>
<path d="M 916.354 1144.15 L 1044.47 1144.08 C 1062.82 1144.08 1099.44 1142.38 1115.44 1145.94 C 1170.46 1158.2 1166.41 1242.35 1103.4 1243 C 1046.8 1244.68 988.81 1241.63 932.038 1243.12 C 837.746 1241.65 853.863 1149.68 916.354 1144.15 z" fill="rgb(0,0,0)" transform="translate(0,0)"></path>
<metadata><recraft-signature>{"signed_by": "recraft", "signature_b64": "2gMVgr8MIhfqYpfdJ1BluCi9hnCGAFVRnP+o7PX64PHMyN7Zc8pcjokI42AQdJl13RixLoXC3jJtgyyKb0TYAA==", "signing_algo": "Ed25519", "generation_timestamp": 1772998625, "identifier": "d2bfe97a-a0a7-4642-b41a-dfa8e8440985"}</recraft-signature></metadata></svg>