<svg xmlns="http://www.w3.org/2000/svg" height="512" preserveAspectRatio="none" style="display: block;" version="1.1" viewBox="0 0 2048 2048" width="512">
<path d="M 855.751 320.003 L 1653.83 320.004 C 1694.63 319.979 1757.79 311.073 1789.53 339.665 C 1824.79 371.429 1816.83 416.109 1816.83 459.231 L 1816.91 1403.41 C 1816.9 1478.04 1813.48 1535.81 1720.28 1536.38 L 1447.9 1536.69 C 1432.59 1536.69 1414.62 1537.84 1399.13 1534.71 C 1312.59 1517.22 1309.61 1394.13 1393.93 1371.45 C 1415.47 1365.66 1455.28 1368.35 1479.89 1368.36 L 1611.5 1368.41 L 1649.54 1368.41 L 1649.54 483.683 C 1557.55 482.618 1463.33 483.67 1371.2 483.672 L 817.393 483.683 L 817.479 786.205 C 817.572 948.748 652.575 913.011 653.002 812.696 L 652.916 416.271 C 652.911 325.634 699.295 319.975 777.904 319.942 L 855.751 320.003 z" fill="rgb(0,0,0)" transform="translate(0,0)"></path>
<path d="M 392.844 967 C 457.142 958.954 526.258 1002.22 559.235 1055.57 C 597.858 1054.57 641.6 1055.56 680.568 1055.56 L 1048.1 1055.54 C 1070.61 1055.52 1096.72 1054.73 1118.74 1057 C 1155.52 1060.8 1189.34 1095.79 1189.32 1133.27 L 1189.2 1588.2 C 1189.21 1609.35 1190.31 1631.4 1187.85 1652.37 C 1177.17 1742.41 1025.76 1754.97 1023.7 1625.5 L 1023.7 1218.25 C 989.295 1216.87 943.546 1218.22 908.404 1218.22 L 602 1218.25 C 590.065 1218.27 575.314 1218.96 563.8 1218.25 C 513.64 1316.65 397.928 1349.06 305.265 1287.42 C 173.356 1199.68 217.871 996.269 392.844 967 z" fill="rgb(0,0,0)" transform="translate(0,0)"></path>
<metadata><recraft-signature>{"signed_by": "recraft", "signature_b64": "25r2ttDpPHR6jlNFaKOIs6sOlctvNPxHEVCUZKhwmyGhDgSG7JWuNkXycYtpxeo2RVj5D2XSLI90FI7xbZ1mCw==", "signing_algo": "Ed25519", "generation_timestamp": 1772989847, "identifier": "59fbbeb8-aa64-47a2-b504-42c3c2678fee"}</recraft-signature></metadata></svg>