<svg xmlns="http://www.w3.org/2000/svg" height="512" preserveAspectRatio="none" style="display: block;" version="1.1" viewBox="0 0 2048 2048" width="512">
<path d="M 196.586 550.132 C 216.364 550.781 239.552 550.187 259.6 550.167 L 1851 550.132 C 1850.14 573.755 1850.99 603.119 1850.99 627.274 L 1850.98 1470.02 C 1850.97 1476.61 1851.35 1490.23 1850.53 1496.19 L 1848.25 1497.05 L 196.586 1497.05 C 195.609 1482.82 196.544 1456.3 196.558 1441.19 L 196.548 599.115 C 196.468 586.724 195.516 561.672 196.586 550.132 z M 233.997 589.702 L 233.993 1151.88 C 233.996 1253.42 232.94 1356.68 233.997 1458.04 L 465.5 1458.04 L 1812.93 1458.04 L 1812.94 685.485 C 1812.94 654.763 1813.8 619.984 1812.93 589.702 L 1582.57 589.702 L 233.997 589.702 z" fill="rgb(0,0,0)" transform="translate(0,0)"></path>
<path d="M 555.534 795.402 C 616.766 788.406 672.179 832.11 679.644 893.287 C 687.108 954.464 643.83 1010.21 582.712 1018.14 C 520.929 1026.16 464.443 982.308 456.898 920.466 C 449.352 858.623 493.635 802.475 555.534 795.402 z M 581.238 966.002 C 639.662 971.536 648.695 832.463 557.092 845.777 C 479.952 860.332 502.673 990.283 581.238 966.002 z" fill="rgb(0,0,0)" transform="translate(0,0)"></path>
<path d="M 1361.86 799.691 C 1374.49 798.761 1396.6 799.605 1409.91 799.691 C 1438.72 832.5 1483.76 892.03 1504.94 926.963 L 1504.92 845.059 C 1504.89 830.151 1504.32 814.46 1504.94 799.691 L 1557.02 799.691 C 1554.58 855.26 1552.72 953.965 1558.38 1010 L 1557.02 1011.05 L 1509.06 1011.05 C 1471.03 973.29 1447 923.357 1413 885 L 1413 1011.05 L 1361.86 1011.05 C 1361.26 988.194 1361.82 963.057 1361.83 939.957 L 1361.86 799.691 z" fill="rgb(0,0,0)" transform="translate(0,0)"></path>
<path d="M 977.325 1097.51 C 990.961 1096.81 1005.38 1097.14 1019.02 1097.51 L 1019.02 1318.49 L 971.19 1318.49 C 949.637 1281.33 897.017 1210.24 869.992 1178.15 L 870.025 1264.3 C 870.011 1284.76 878.138 1317.98 858.8 1318.49 C 846.59 1318.42 834.204 1318.24 822.009 1318.49 C 817.867 1251.32 820.443 1165.13 822.009 1097.51 C 837.76 1098.05 854.009 1097.05 869.992 1097.51 C 875.662 1103.18 883.748 1115.02 888.663 1121.85 L 916.232 1160.51 C 932.418 1183.46 957.46 1216.63 971.19 1239.61 C 975.032 1193.34 968.864 1145.98 971.29 1099.58 C 973.192 1097.28 973.328 1098.01 977.325 1097.51 z" fill="rgb(0,0,0)" transform="translate(0,0)"></path>
<path d="M 709 799.691 C 765.196 799.785 860.07 787.235 853.941 873.489 C 851.742 904.44 834.006 913.643 812.503 932.001 C 830.328 958.789 854.635 984.796 872.787 1011.05 C 859.16 1012.7 854.285 1012.09 840.75 1011.05 C 828.39 1012.96 824.913 1012.53 812.503 1011.05 C 799.757 1000.46 773.888 956.363 757.49 939.65 C 757.614 961.236 756.262 990.486 757.49 1011.05 C 751.248 1012.09 717.825 1011.07 709 1011.05 L 709 799.691 z M 757.49 892.975 C 770.477 893.147 784.274 895.058 794.208 885 C 822.008 856.043 781.521 846.838 757.49 845.777 C 757.744 861.763 758 877.007 757.49 892.975 z" fill="rgb(0,0,0)" transform="translate(0,0)"></path>
<path d="M 1128.11 1097.51 C 1141.35 1098.48 1168.23 1097.52 1182.5 1097.51 C 1206.9 1170.83 1242.59 1245.56 1264.63 1318.49 L 1214.18 1318.49 C 1208.1 1305.4 1202.66 1288.03 1197.35 1273.99 L 1182.5 1273.99 L 1112.49 1273.99 C 1106.75 1288.31 1102.09 1303.79 1096.37 1318.49 C 1080.99 1318.32 1059.59 1317.7 1044.48 1318.49 C 1055.32 1281.42 1076.89 1232.48 1090.82 1195.19 C 1101.1 1167.63 1116.43 1121.92 1128.11 1097.51 z M 1156.5 1231 L 1182.5 1231 C 1179.19 1222.32 1157.82 1157.38 1156.5 1155.67 C 1144.09 1181.02 1136.69 1204.01 1128.11 1231 L 1156.5 1231 z" fill="rgb(0,0,0)" transform="translate(0,0)"></path>
<path d="M 1112.49 797.005 L 1114.4 796.963 C 1141.24 796.438 1166.93 803.06 1186.63 822.092 C 1179.92 832.561 1166.46 848.574 1158.18 858.438 C 1142.08 845.252 1129.52 839.995 1108.92 845.777 C 1069.87 892.871 1180.08 873.386 1187.64 939.483 C 1193.59 991.51 1158.79 1011.47 1112.49 1016.96 C 1078.76 1012.67 1065.08 1010.23 1040.59 986.096 C 1048.34 972.923 1059.19 958.31 1072.1 949.884 C 1090.29 964.559 1144.16 983.863 1135.94 950.559 C 1130.76 929.578 1091.51 929.106 1073.53 915.385 C 1026.81 879.735 1044.11 807.778 1112.49 797.005 z" fill="rgb(0,0,0)" transform="translate(0,0)"></path>
<path d="M 945.377 797.005 C 969.963 795.188 1003.67 800.717 1019.02 822.092 C 1011.68 835.21 1003.85 846.294 995.028 858.438 C 977.749 843.746 934.217 835.792 935.931 862.482 C 936.953 878.398 988.519 889.747 1003.45 902.613 C 1028.86 921.81 1032.12 964.636 1012.23 989.123 C 994.336 1011.17 972.124 1014.04 945.377 1016.96 C 911.864 1012.06 901.793 1008.83 876.55 986.096 C 881.717 977.384 900.788 958.293 908.73 949.884 C 926.677 965.856 953.831 983.151 972.889 958.204 C 992.084 933.077 896.846 933.845 885.981 879.427 C 877.397 836.437 903.91 804.31 945.377 797.005 z" fill="rgb(0,0,0)" transform="translate(0,0)"></path>
<path d="M 1214.18 799.691 C 1254.25 798.451 1294.95 798.931 1335.01 799.691 C 1332.41 819.213 1332.85 824.611 1335.01 844.003 C 1312.72 844.649 1286.92 844.382 1264.63 844.003 L 1264.63 881.643 L 1326.91 881.643 L 1326.91 926.963 L 1264.63 926.963 C 1264.54 934.569 1264.62 942.269 1264.63 949.884 L 1264.63 966.002 L 1335.01 966.002 L 1335.01 1011.05 L 1214.18 1011.05 C 1215.18 989.24 1214.23 961.461 1214.21 939.027 L 1214.18 799.691 z" fill="rgb(0,0,0)" transform="translate(0,0)"></path>
<path d="M 374.505 799.691 C 394.946 799.745 415.585 799.246 435.993 799.691 L 435.993 845.777 C 413.553 845.672 390.316 846.524 368.037 845.777 C 368.427 859.957 368.548 870.751 368.037 885 L 432.49 885 C 432.726 900.425 432.445 916.486 432.49 932.001 C 423 931.957 375.053 930.807 369.041 933.395 L 368.037 936.251 C 367.109 956.216 365.988 992.011 368.037 1011.05 C 352.334 1010.88 333.77 1013.03 319.02 1011.05 L 319.02 799.691 L 374.505 799.691 z" fill="rgb(0,0,0)" transform="translate(0,0)"></path>
<path d="M 1684.39 799.691 C 1699.18 800.458 1710.09 800.515 1724.64 799.691 L 1724.64 844.003 L 1674 844.003 L 1674 1011.05 C 1657.22 1011.04 1624.38 1018.51 1623.02 1002.94 L 1623.02 844.003 C 1606.51 843.564 1590.54 843.304 1574.03 844.003 C 1573.75 829.487 1574 814.263 1574.03 799.691 C 1582.38 800.484 1601.11 799.787 1610.36 799.772 L 1684.39 799.691 z" fill="rgb(0,0,0)" transform="translate(0,0)"></path>
<path d="M 709 1213.93 C 727.879 1214.95 757.81 1213.95 777.522 1213.93 L 777.522 1259.14 L 709 1259.14 C 710.51 1241.41 710.099 1231.86 709 1213.93 z" fill="rgb(0,0,0)" transform="translate(0,0)"></path>
<path d="M 1303.56 1261.84 C 1320.08 1258.45 1336.25 1269.02 1339.77 1285.52 C 1343.29 1302.01 1332.84 1318.26 1316.37 1321.9 C 1299.73 1325.59 1283.26 1315 1279.71 1298.33 C 1276.15 1281.65 1286.86 1265.27 1303.56 1261.84 z" fill="rgb(0,0,0)" transform="translate(0,0)"></path>
<metadata><recraft-signature>{"signed_by": "recraft", "signature_b64": "E3UwVXk6KVoPLeSP64OAFtuFhDbV18vCQUpfYy+E+Hi9O8rXCGKA1OLYLBivTcSvmYOZpM0fCu6INabvufSmCw==", "signing_algo": "Ed25519", "generation_timestamp": 1773000398, "identifier": "7e5e0957-b873-4d98-80cf-0f79d7acdb86"}</recraft-signature></metadata></svg>