<svg xmlns="http://www.w3.org/2000/svg" height="512" preserveAspectRatio="none" style="display: block;" version="1.1" viewBox="0 0 2048 2048" width="512">
<path d="M 833.558 649.973 C 848.779 649.179 869.325 649.899 885.11 649.918 L 1128 649.934 C 1172.09 649.919 1258.15 637.27 1260.83 702.485 C 1261.56 720.25 1260.97 740.354 1260.97 758.468 L 1260.92 1198.99 C 1260.71 1223.03 1240.43 1250.11 1215.34 1252.92 C 1181.6 1256.69 1114.47 1255.74 1079.69 1254.05 L 1079.69 1544.5 C 1079.72 1571.8 1082.22 1611.69 1078.12 1637.04 C 1069.02 1693.28 978.07 1693.6 970.276 1634.44 C 968.113 1618.02 968.974 1602.37 969.012 1586.26 L 969.073 1254.05 L 879.74 1254.12 C 863.644 1254.12 846.348 1254.68 830.513 1252.9 C 778.818 1247.08 786.466 1183.2 786.478 1147.88 L 786.465 741.287 C 786.262 701.786 782.514 659.47 833.558 649.973 z M 899.095 761.439 L 899.095 1141 L 1138.23 1141 L 1148.53 1141 L 1148.54 892.356 C 1148.54 849.158 1149.21 804.459 1148.53 761.439 L 910.494 761.439 L 899.095 761.439 z" fill="rgb(0,0,0)" transform="translate(0,0)"></path>
<path d="M 1448.69 358.773 C 1449.08 358.731 1451.1 358.498 1451.41 358.5 L 1786.07 358.706 C 1866.19 358.179 1881.25 359.967 1881.09 443.535 L 1880.96 860.253 C 1881.02 899.547 1893.5 964.601 1835.25 967.133 C 1810.45 968.007 1779.7 967.161 1754.52 967.154 L 1502.58 967.204 C 1484.37 967.299 1466.18 967.837 1448.62 966.657 C 1386.67 962.49 1398.02 887.656 1398.02 845.894 L 1398.03 443.429 C 1398.04 404.066 1398.32 363.573 1448.69 358.773 z M 1510.49 851.992 L 1763.02 851.992 L 1764.64 851.355 C 1766.67 840.012 1766.08 817.925 1766.07 805.833 L 1766.05 471.517 L 1510.49 471.517 C 1509.44 513.774 1510.49 560.46 1510.49 603.171 L 1510.49 851.992 z" fill="rgb(0,0,0)" transform="translate(0,0)"></path>
<path d="M 224.632 358.773 C 240.002 357.498 261.797 358.683 277.953 358.726 L 518.527 358.734 C 665.842 358.507 650.992 371.076 651.002 498.687 L 651.276 908.835 C 647.689 943.487 638.462 965.868 596.057 967.133 L 221.388 967.142 C 159.293 966.958 169.355 909.084 169.343 866.735 L 169.359 412.836 C 169.321 381.2 192.109 356.749 224.632 358.773 z M 282.51 857.979 L 536.012 857.979 C 536.654 856.494 535.927 812.732 535.914 807.873 L 536.012 471.517 C 454.251 469.27 363.837 469.257 282.51 471.517 L 282.51 857.979 z" fill="rgb(0,0,0)" transform="translate(0,0)"></path>
<path d="M 1570.79 1073.22 C 1581.3 1073.92 1595.51 1073.32 1606.37 1073.27 L 1673.49 1073.27 C 1745.49 1073.77 1750.25 1086.72 1764.21 1159.92 L 1789.4 1284.6 C 1792.55 1299.19 1795.85 1314.45 1797.56 1329.29 C 1803.19 1378.12 1758.73 1447.73 1705.73 1450.01 C 1681.62 1458.72 1604.62 1457.71 1578.73 1453.29 C 1534.81 1445.8 1497.31 1412.81 1484.69 1369.97 C 1471.83 1326.3 1489.37 1281.02 1498.51 1238.38 L 1515.18 1158.4 C 1523.88 1118.15 1524.59 1085.68 1570.79 1073.22 z M 1592 1335.93 L 1654.73 1335.93 C 1664.54 1335.89 1676.44 1335.52 1686.09 1335.93 L 1665.98 1245.1 C 1661.89 1226.4 1656.17 1204.94 1654.73 1186.17 C 1644.5 1186.35 1635.05 1186.45 1624.8 1186.17 C 1612.12 1232.14 1604.1 1287.96 1592 1335.93 z" fill="rgb(0,0,0)" transform="translate(0,0)"></path>
<path d="M 347.341 1073.22 L 432.361 1073.1 C 511.623 1073.07 516.761 1078.67 532.501 1150.76 C 554.326 1250.73 618.367 1423.6 466.706 1450.01 C 412.997 1451.15 336.735 1458.86 294.432 1426.85 C 238.889 1383.84 245.64 1333.39 258.721 1272.92 L 274.927 1199.35 C 286.01 1148.52 284.097 1080.78 347.341 1073.22 z M 361.058 1335.93 C 381.849 1336.23 402.962 1335.99 423.779 1335.93 L 453.431 1335.93 C 441.42 1283.25 434.657 1232.27 423.779 1180.94 C 414.798 1181.03 402.311 1181.49 393.574 1180.94 C 382.484 1213.5 367.471 1298.86 361.058 1335.93 z" fill="rgb(0,0,0)" transform="translate(0,0)"></path>
<metadata><recraft-signature>{"signed_by": "recraft", "signature_b64": "JI2t/7X/WFU2UuFw5G461EnLkFhhLnGq//ASczALNTzyBP3zsj5d0Sy3w03a3xua8dNvfBffOk5d5PHxJBbJCg==", "signing_algo": "Ed25519", "generation_timestamp": 1772990025, "identifier": "897e3d80-c4a8-412f-a617-a056e1f5ed92"}</recraft-signature></metadata></svg>