<svg xmlns="http://www.w3.org/2000/svg" height="512" preserveAspectRatio="none" style="display: block;" version="1.1" viewBox="0 0 2048 2048" width="512">
<path d="M 659.225 477.978 C 805.499 469.102 936.583 561.727 977.981 701.749 C 991.671 748.054 989.101 788.083 989.069 835.505 L 989.066 1097.09 C 989.081 1225.03 982.39 1337.66 861.538 1417.2 C 750.311 1493.56 682.929 1353.44 742.601 1298.97 C 765.857 1277.74 791.769 1263.61 807.271 1233.73 C 830.268 1189.39 826.968 1161.04 826.961 1112.66 L 827.005 853.683 C 827.019 822.42 829.944 777.399 822.565 748.092 C 791.364 624.16 611.655 603.951 546.291 723.684 C 535.784 744.711 529.112 777.49 530.229 800.852 C 679.331 887.736 677.584 1063.59 533.345 1150.64 C 533.679 1238.04 558.493 1248.21 614.822 1294.18 C 664.861 1334.95 651.123 1409.48 593.353 1434.86 C 550.488 1453.69 510.126 1420.29 479.031 1394.55 C 401.763 1330.58 374.34 1246.53 366.79 1150.64 C 260.974 1092.71 215.412 970.438 286.264 865.635 C 303.681 839.871 337.768 806.999 370.034 800.852 C 368.35 622.104 487.06 497.342 659.225 477.978 z M 456.439 1007.23 C 471.924 1002.86 480.895 986.726 476.431 971.268 C 471.967 955.811 455.773 946.941 440.344 951.503 C 425.052 956.024 416.278 972.042 420.703 987.363 C 425.127 1002.68 441.091 1011.56 456.439 1007.23 z" fill="rgb(0,0,0)" transform="translate(0,0)"></path>
<path d="M 1261 349.758 L 1680.15 349.672 C 1728.67 349.602 1791.27 351.929 1791.1 418.417 L 1791 1143 C 1791 1151.99 1791.61 1164.42 1790.34 1173.19 C 1777.92 1259.24 1627.14 1283.95 1626.59 1135.6 L 1626.54 1086.5 L 1626.54 510.613 L 1065.9 510.652 C 1049.49 510.657 1024.29 512.464 1008.77 510.176 C 923.927 497.663 922.241 371.051 1004.04 352.806 C 1029.52 347.122 1072.46 349.729 1099.6 349.726 L 1261 349.758 z" fill="rgb(0,0,0)" transform="translate(0,0)"></path>
<path d="M 1352.81 1045.26 C 1394.18 1042.87 1432.22 1065.27 1444.17 1106.73 C 1453.22 1138.14 1446.24 1251.64 1446.94 1289.98 L 1547.68 1289.98 C 1565.09 1289.91 1583.2 1289.28 1600.18 1289.82 C 1671.88 1292.09 1702.19 1379.47 1651.89 1428.92 C 1622.97 1457.34 1587.08 1450.68 1550.97 1450.87 L 1446.94 1451.32 C 1445.63 1491.99 1447.86 1536.05 1447.02 1577.07 C 1443.8 1630.52 1452.11 1687.16 1373.25 1697.77 C 1279.53 1706.33 1279.59 1624.36 1279.63 1561.46 L 1279.6 1451.32 L 1178.65 1451.37 C 1140.34 1451.44 1102.97 1457.74 1073.39 1428.89 C 1028.53 1385.12 1047.09 1305.55 1109.79 1292.45 C 1130.4 1288.14 1156.26 1289.98 1177.63 1289.98 L 1279.6 1289.98 L 1279.56 1179.22 C 1279.48 1117.44 1276.06 1057.85 1352.81 1045.26 z" fill="rgb(0,0,0)" transform="translate(0,0)"></path>
<metadata><recraft-signature>{"signed_by": "recraft", "signature_b64": "6O+PdMJInGQGn8PYPZHwPJ0qaZJdwwTpFq1+egmb0P/03Bf0w64WAOkAA+xWKsjGtQ2hlL1epyT5HX6gBCzGAg==", "signing_algo": "Ed25519", "generation_timestamp": 1772990091, "identifier": "36c08a91-efe8-482d-a9a0-3bc45bf8358d"}</recraft-signature></metadata></svg>