<svg xmlns="http://www.w3.org/2000/svg" height="512" preserveAspectRatio="none" style="display: block;" version="1.1" viewBox="0 0 2048 2048" width="512">
<path d="M 661.751 420.443 L 1324.96 420.478 C 1391.26 420.479 1445.85 416.057 1510.86 433.815 C 1701.6 485.911 1820.31 653.561 1821.98 848.295 L 1822.02 1453.26 C 1822.15 1521.65 1825.43 1594.44 1743.65 1623.32 C 1723.1 1630.58 1698.54 1629.03 1676.93 1629 L 1389.5 1628.94 L 373.148 1628.94 C 293.343 1628.51 227.527 1603.7 226.96 1512.55 L 226.976 899.931 C 226.969 844.08 224.281 795.954 237.158 741.679 C 276.128 577.429 413.694 444.007 582.95 423.02 C 608.593 419.841 635.796 420.428 661.751 420.443 z M 1426.87 1571 L 1679.53 1571.02 C 1703.27 1571.01 1728.39 1573.73 1745.56 1555.01 C 1772.76 1525.35 1764.13 1484.62 1764.05 1445.65 L 1764.23 833.044 C 1762.93 667.015 1638.85 520.307 1478.01 485.506 C 1425.9 474.233 1373.92 476.996 1321 477.003 L 796.125 476.981 C 737.278 476.978 676.3 475.555 617.642 476.995 C 438.065 496.563 293.649 628.008 285.779 814.865 C 285.057 832.012 285.446 849.878 285.447 867.143 L 285.388 1489.52 C 284.642 1566.71 302.827 1571.56 374.442 1571.05 L 1426.87 1571 z" fill="rgb(0,0,0)" transform="translate(0,0)"></path>
<path d="M 670.741 871.391 C 795.938 858.642 810.644 1065.89 693.764 1071.13 C 569.013 1095.2 548.755 888.959 670.741 871.391 z M 693.764 1037.49 C 739.755 1020.68 750.062 902.183 670.741 909.565 C 615.682 923.853 616.506 1053.12 693.764 1037.49 z" fill="rgb(0,0,0)" transform="translate(0,0)"></path>
<path d="M 404.009 795.873 L 573.49 795.873 C 573.405 809.458 573.049 824.255 573.49 837.731 C 533.038 837.749 490.195 836.895 450.073 837.731 C 449.991 860.095 451.186 888.036 450.073 909.565 C 483.666 908.399 525.129 909.563 559.505 909.565 C 559.783 920.68 559.538 932.841 559.505 944.031 C 560.012 953.535 535.227 949.101 525.757 949.09 L 450.073 949.007 L 450.073 1068.02 L 404.009 1068.02 L 404.009 795.873 z" fill="rgb(0,0,0)" transform="translate(0,0)"></path>
<path d="M 875.015 1170.98 L 1037 1170.98 L 1037 1212.99 L 921 1212.99 C 920.946 1235.42 922.044 1264.24 921 1286 L 1019 1286 L 1019 1326.36 L 921 1326.36 C 919.762 1362.3 920.969 1405.51 921 1441.98 L 875.015 1441.98 L 875.015 1170.98 z" fill="rgb(0,0,0)" transform="translate(0,0)"></path>
<path d="M 1223.12 871.391 C 1264.22 864.398 1312.5 881.442 1315.35 928.989 L 1273.48 928.989 C 1257.47 895.276 1207.43 900.946 1207.7 925.962 C 1208.05 958.396 1324.01 939.904 1321.03 1010.25 C 1319.11 1055.47 1278.38 1070.88 1239.43 1071.13 C 1192.47 1071.57 1160.21 1052.9 1153.58 1004.15 L 1196.21 1004.15 C 1212.03 1054.18 1279.1 1037.1 1274.6 1010.57 C 1270.82 988.316 1204.24 986.368 1180.97 966.491 C 1143.63 937.249 1167.5 874.463 1223.12 871.391 z" fill="rgb(0,0,0)" transform="translate(0,0)"></path>
<path d="M 1048.01 871.391 C 1090.32 866.653 1125.98 884.092 1132.59 928.989 C 1118.81 929.389 1107.72 928.219 1093 928.989 C 1069.4 889.725 1010.91 904.154 1029.08 936.492 C 1062.32 959.207 1135.41 948.597 1136.86 1007.04 C 1138.06 1055.23 1094.73 1070.86 1053.96 1071.13 C 1022.32 1070.87 992.906 1062.46 978.992 1030.83 C 964.818 998.62 986.248 1007.32 1015.79 1007 C 1039.42 1061.09 1114.56 1030.31 1082.8 999.148 C 1064.85 981.538 979.248 994.976 983.172 924.5 C 985.215 893.067 1016.52 868.422 1048.01 871.391 z" fill="rgb(0,0,0)" transform="translate(0,0)"></path>
<path d="M 864.038 871.391 C 906.557 864.274 940.841 887.706 951.317 928.989 C 935.835 929.817 923.443 928.797 908.587 928.989 C 881.791 878.559 816.426 924.208 850.153 940.25 C 877.734 953.369 915.113 951.048 938.273 973.56 C 980.479 1014.59 935.468 1070.66 875.015 1071.13 C 829.287 1071.08 798.809 1055.35 792.658 1007 L 834.833 1007 C 849.131 1051.32 911.634 1039.51 908.102 1010.98 C 905.142 987.078 836.647 986.797 814.65 966.841 C 775.633 931.374 810.453 873.496 864.038 871.391 z" fill="rgb(0,0,0)" transform="translate(0,0)"></path>
<path d="M 1536.76 871.391 C 1548.39 869.173 1552.71 871.074 1563.07 875.464 C 1562.95 894.051 1559.25 907.488 1563.07 926.163 C 1475.27 882.814 1497.03 1016.2 1495.89 1068.02 C 1485.19 1068.47 1472.67 1068.1 1461.85 1068.02 L 1449.46 1068.02 C 1448.04 1005.6 1449.21 934.29 1449.46 871.391 C 1464.28 871.844 1478.14 871.651 1492.98 871.391 C 1492.78 880.464 1492.66 888.643 1492.98 897.751 C 1508.54 882.518 1513.99 874.027 1536.76 871.391 z" fill="rgb(0,0,0)" transform="translate(0,0)"></path>
<path d="M 1285.88 1170.98 C 1300.31 1169.9 1310.28 1170.16 1324.49 1170.98 C 1325.21 1235.21 1324.46 1301.12 1324.5 1365.53 L 1324.38 1412.08 C 1324.36 1415.29 1324.61 1441.65 1324.49 1441.98 L 1280.01 1441.98 C 1279.69 1353.62 1278.97 1260.85 1280.18 1172.67 C 1282.18 1170.48 1281.86 1171.21 1285.88 1170.98 z" fill="rgb(0,0,0)" transform="translate(0,0)"></path>
<path d="M 1132.59 1246.59 C 1141.95 1242.61 1147.68 1244.22 1156.89 1246.59 L 1156.89 1300.48 C 1094.48 1266.76 1092.91 1324.83 1092.94 1372.99 L 1093 1441.98 L 1053.96 1441.98 C 1051.64 1442 1051.79 1441.96 1049.65 1441.03 C 1045.71 1430.74 1048.24 1270.89 1048.01 1246.59 C 1062.45 1246.68 1078.71 1247.13 1093 1246.59 C 1093.94 1257.18 1093.85 1265.99 1093 1276.53 C 1104.9 1258.56 1109.23 1248.06 1132.59 1246.59 z" fill="rgb(0,0,0)" transform="translate(0,0)"></path>
<path d="M 1355.02 871.391 C 1368.52 871.224 1388 870.445 1401.02 871.391 C 1404.18 934.603 1400.67 1002.69 1402.16 1067.06 L 1401.02 1068.02 L 1355.02 1068.02 L 1353.57 872.544 L 1355.02 871.391 z" fill="rgb(0,0,0)" transform="translate(0,0)"></path>
<path d="M 1185 1246.59 C 1199.96 1246.41 1214.93 1246.83 1229.92 1246.59 L 1229.92 1378.56 C 1229.9 1395.88 1228.68 1425.77 1229.92 1441.98 C 1216.27 1441.44 1198.59 1441.43 1185 1441.98 L 1185 1246.59 z" fill="rgb(0,0,0)" transform="translate(0,0)"></path>
<path d="M 1598.51 875.464 C 1610.56 875.291 1623 874.9 1635 875.464 L 1635 1014.53 C 1635 1029.66 1642.07 1068.69 1627.75 1068.02 L 1590.07 1068.02 L 1590.01 942.725 C 1589.98 924.187 1581.78 877.076 1598.51 875.464 z" fill="rgb(0,0,0)" transform="translate(0,0)"></path>
<path d="M 1185 1170.98 C 1200.81 1169.88 1214.22 1170.19 1229.92 1170.98 C 1231.17 1189.18 1230.96 1202.29 1229.92 1220.49 L 1185 1220.49 L 1185 1170.98 z" fill="rgb(0,0,0)" transform="translate(0,0)"></path>
<path d="M 1604.7 798.031 C 1618.59 794.345 1632.86 802.559 1636.65 816.428 C 1640.44 830.297 1632.34 844.627 1618.5 848.522 C 1604.51 852.459 1589.99 844.246 1586.16 830.229 C 1582.33 816.211 1590.65 801.757 1604.7 798.031 z" fill="rgb(0,0,0)" transform="translate(0,0)"></path>
<path d="M 1372.59 794.632 C 1386.32 791.279 1400.17 799.728 1403.47 813.477 C 1406.77 827.227 1398.28 841.043 1384.51 844.295 C 1370.82 847.53 1357.09 839.084 1353.81 825.406 C 1350.52 811.727 1358.92 797.967 1372.59 794.632 z" fill="rgb(0,0,0)" transform="translate(0,0)"></path>
<metadata><recraft-signature>{"signed_by": "recraft", "signature_b64": "KKda3oU11BkXqWdI9LmeHkD2Y/oaEBpHrssREzX66LdIv2xwuuEbQvGsKxJ/9VxQbfaUGav3EqhcGXLeQLKECA==", "signing_algo": "Ed25519", "generation_timestamp": 1772999128, "identifier": "e5156edb-2790-4b13-8873-3425821224c6"}</recraft-signature></metadata></svg>