<svg xmlns="http://www.w3.org/2000/svg" height="512" preserveAspectRatio="none" style="display: block;" version="1.1" viewBox="0 0 2048 2048" width="512">
<path d="M 1223.31 421.644 L 1742.85 421.59 C 1788.6 421.576 1856.61 412.84 1853.97 482.445 L 1854.04 1528.3 C 1854.07 1605.87 1851.65 1627.37 1768.83 1627.36 L 824.671 1627.34 C 793.387 1627.05 771.459 1627.46 747.719 1603.56 L 227.226 1080.94 C 166.192 1019.85 184.111 1008.02 235.723 953.754 C 270.963 916.703 308.444 881.267 344.465 844.889 L 737.323 453.026 C 773.737 416.594 786.666 421.575 836.702 421.596 L 1223.31 421.644 z M 340.035 1020.32 C 484.877 1168.61 634.727 1312.92 779.84 1461.05 C 793.936 1475.44 809.927 1492.08 824.671 1505.49 C 870.269 1504.91 917.125 1505.5 962.852 1505.5 L 1239.75 1505.49 L 1730.02 1505.49 C 1730.92 1493.75 1730.16 1480.05 1730.07 1468.04 L 1730.02 544.025 L 827.264 544.025 C 823.355 544.418 822.044 543.861 819.363 546.486 L 392.029 970.085 C 374.842 987.14 358.179 1004.22 340.035 1020.32 z" fill="rgb(0,0,0)" transform="translate(0,0)"></path>
<metadata><recraft-signature>{"signed_by": "recraft", "signature_b64": "NXKXYxlsk1agUDk2+dCADizGH98oNgeBG82N5MGTfJ9s3JfJxnUkXwcDNqkpHXjKXiuypWQEFBQcJAR6jEN6Cg==", "signing_algo": "Ed25519", "generation_timestamp": 1772999008, "identifier": "b2d2ed60-1900-49e3-ac59-8619185b1a71"}</recraft-signature></metadata></svg>