<svg xmlns="http://www.w3.org/2000/svg" height="512" preserveAspectRatio="none" style="display: block;" version="1.1" viewBox="0 0 2048 2048" width="512">
<path d="M 301.232 289.012 C 403.188 287.872 507.766 289.016 609.859 289.017 L 1684.96 289.011 C 1710.82 289.017 1762.89 278.229 1762.92 312.105 L 1762.95 1683.91 C 1762.96 1699.64 1763.96 1721.67 1762.94 1736.41 C 1756.34 1742.55 1754.9 1743.73 1746.26 1745.99 L 339.917 1746.06 C 306.52 1746.32 285.867 1756.24 285.813 1715.44 L 285.864 312.366 C 285.896 299.847 289.188 293.513 301.232 289.012 z M 335.795 1695.51 L 491.75 1695.51 L 1713.01 1695.51 L 1713.01 338.852 C 1663.18 337.857 1609.87 338.861 1559.78 338.852 L 378.931 338.842 C 365.867 338.841 348.341 338.236 335.795 338.852 L 335.795 1695.51 z" fill="rgb(3,3,3)" transform="translate(0,0)"></path>
<path d="M 1603.64 807 C 1620.44 804.827 1623.44 804.437 1639.9 807 C 1638.54 826.55 1639.87 864.019 1639.88 885.237 L 1639.9 1048.97 C 1628.75 1048.23 1620.9 1047.63 1609.79 1048.97 C 1609.25 1044.63 1609.63 1039.68 1609.79 1035.25 C 1586.2 1055.28 1562.84 1052.51 1534.38 1048.97 C 1519.02 1041.11 1501.62 1028.41 1497.09 1011.38 C 1474.43 926.242 1507.33 833.717 1603.64 879.01 C 1602.81 856.703 1603.54 829.61 1603.64 807 z M 1572.53 1018.47 C 1581.78 1017.56 1594.37 1015.1 1600.26 1007.13 C 1604.85 1000.91 1605.47 925 1602.97 916.373 C 1598.96 902.515 1570.78 900.643 1559.78 901.162 C 1516.39 914.313 1508.92 1024.34 1572.53 1018.47 z" fill="rgb(3,3,3)" transform="translate(0,0)"></path>
<path d="M 757.5 865.289 L 758.895 865.201 C 779.291 864.014 803.263 867.687 818.803 881.884 C 842.387 903.43 830.987 1014.27 832.955 1048.97 L 803.046 1048.97 C 799.903 1041.71 799.125 1035.33 798.031 1027.62 C 768.651 1061.07 710.058 1060.16 688.955 1018.47 C 669.525 941.545 745.279 943.593 798.031 940.993 C 798.272 925.918 800.594 906.401 783.625 899.533 C 761.823 890.709 735.496 897.387 726.441 920.067 C 710.13 923.242 709.405 923.214 693.059 920.067 C 699.058 884.496 724 869.471 757.5 865.289 z M 726.441 1011.45 C 730.842 1015.88 732.133 1015.95 737.629 1018.47 C 784.395 1026.71 796.32 1007.2 798.031 967.506 C 793.108 967.45 787.517 967.25 782.657 967.506 C 756.513 969.063 706.604 969.479 726.441 1011.45 z" fill="rgb(3,3,3)" transform="translate(0,0)"></path>
<path d="M 575.114 802.538 C 575.994 804.216 575.151 836.086 575.114 840.467 C 537.267 841.999 492.446 840.003 453.511 840.467 L 453.511 903.978 C 484.645 903.925 518.272 904.905 549.036 903.978 C 549.059 916.12 548.52 928.949 549.036 940.993 L 453.511 940.993 L 453.511 990.999 L 453.511 1048.97 L 413.566 1048.97 C 412.364 1026.33 413.53 991.469 413.537 967.625 L 413.566 802.538 L 575.114 802.538 z" fill="rgb(3,3,3)" transform="translate(0,0)"></path>
<path d="M 1195.73 807 C 1208.42 805.871 1220.31 806.053 1233 807 L 1233 940.993 C 1255.02 919.833 1272.06 892.074 1292.29 868.898 C 1300.97 870.514 1329.72 868.254 1334.14 870.363 C 1332.05 876.913 1280.71 934.068 1273.06 940.993 C 1284.18 960.701 1307.04 990.894 1320.46 1011.45 C 1328.06 1024.01 1337.62 1035.7 1344.54 1048.97 C 1330.05 1048.77 1315.06 1048.97 1300.53 1048.97 C 1284.97 1024.95 1267.3 996.892 1250.49 974.242 C 1244.34 980.002 1237.18 986.259 1233 993.556 L 1233 1048.97 L 1195.73 1048.97 C 1194.43 1027.52 1195.71 991.983 1195.71 969.03 L 1195.73 807 z" fill="rgb(3,3,3)" transform="translate(0,0)"></path>
<path d="M 1093 865.289 C 1129.95 865.905 1165.94 875.118 1167.22 920.067 L 1136.93 920.067 C 1098.56 856.443 1019.25 929.284 1102.02 938.376 C 1201.54 949.307 1193.37 1056.58 1096.5 1052.22 C 1055.62 1051.39 1030.54 1031.02 1028.44 990.999 C 1034.98 990.909 1053.86 990.008 1060.55 991.971 C 1070.99 1023.24 1117.17 1034.61 1136.93 1006.6 L 1136.93 993.556 C 1116.56 962.875 1037.13 981.413 1031.55 928.551 C 1026.78 883.321 1053.56 869.16 1093 865.289 z" fill="rgb(3,3,3)" transform="translate(0,0)"></path>
<path d="M 940.415 865.289 C 1003.8 856.894 1004.69 915.323 1005.06 959.694 C 1005.31 989.531 1004.18 1019.14 1004.99 1048.97 C 993.378 1049.14 983.065 1048.62 970.997 1048.97 C 971.042 1013.09 991.947 858.776 917.128 903.978 C 895.736 918.528 901.354 947.095 901.4 970.33 L 901.483 1048.97 C 888.732 1048.98 878.076 1048.04 865.021 1048.97 C 864.133 1031.91 864.968 1007.14 864.975 989.294 L 865.021 868.898 C 877.98 868.487 888.533 868.436 901.483 868.898 C 901.127 871.905 901.458 883.426 901.483 887.057 C 912.623 870.824 921.975 868.106 940.415 865.289 z" fill="rgb(3,3,3)" transform="translate(0,0)"></path>
<path d="M 1122.51 1117.59 C 1133.8 1117.18 1141.79 1117.07 1153.13 1117.59 L 1153.13 1208.2 C 1170.86 1194.93 1185.67 1176.11 1200.61 1165 L 1245.53 1165 C 1227.02 1181.19 1202.59 1201.9 1186.08 1219.58 C 1199.55 1236.57 1213.86 1252.29 1227.82 1270.17 C 1236.29 1279.75 1241.6 1285.05 1250.49 1294 L 1209.54 1294 C 1194.71 1279.79 1178.11 1255.53 1163.06 1239.6 L 1153.13 1249.77 L 1153.13 1294 L 1122.51 1294 L 1122.43 1178.19 C 1122.41 1158.26 1123.17 1137.28 1122.51 1117.59 z" fill="rgb(3,3,3)" transform="translate(0,0)"></path>
<path d="M 848.83 1159.26 C 881.114 1157.29 903.807 1164.98 913.565 1199.24 C 902.015 1198.47 895.259 1198.69 883.801 1199.24 C 870.11 1173.74 835.726 1181.39 835.856 1196.18 C 844.839 1219.84 917.491 1207.49 917.575 1251.52 C 917.641 1286.21 894.578 1295.93 865.021 1297.75 C 829.284 1296.74 809.413 1288.63 803.046 1249.77 C 812.047 1249.67 821.055 1249.74 830.057 1249.77 C 850.266 1295.95 911.948 1263.22 877.051 1247.27 C 860.649 1240.48 842.31 1239.45 826.615 1230.71 C 789.06 1211.22 808.176 1168.64 848.83 1159.26 z" fill="rgb(3,3,3)" transform="translate(0,0)"></path>
<path d="M 1427.07 807 C 1439.42 806.719 1452.63 806.858 1465 807 C 1463.28 830.578 1464.99 861.156 1465.01 885.722 L 1465 1048.97 L 1427.07 1048.97 L 1427.07 881.332 C 1427.05 857.436 1426.34 830.612 1427.07 807 z" fill="rgb(3,3,3)" transform="translate(0,0)"></path>
<path d="M 667.81 865.289 C 670.745 865.085 675.936 865.278 679.054 865.289 C 679.864 878.729 679.266 893.568 679.054 907.197 C 621.524 900.056 626.927 943.116 626.942 984.229 L 626.999 1048.97 L 589.597 1048.97 L 589.597 1035.25 C 589.603 981.575 588.225 922.18 589.597 868.898 L 626.999 868.898 C 626.517 879.781 627.056 890.281 626.999 901.162 C 636.362 878.455 641.469 870.988 667.81 865.289 z" fill="rgb(3,3,3)" transform="translate(0,0)"></path>
<path d="M 1358.78 868.898 L 1394.8 868.898 L 1394.8 1048.97 C 1385.9 1049.62 1368.33 1049.01 1358.78 1048.97 C 1357.83 1032.45 1358.74 1007.34 1358.75 989.893 L 1358.78 868.898 z" fill="rgb(3,3,3)" transform="translate(0,0)"></path>
<path d="M 1062.05 1117.59 C 1072.64 1117.95 1082.42 1117.78 1093 1117.59 L 1093 1294 L 1062.05 1294 L 1062.05 1117.59 z" fill="rgb(3,3,3)" transform="translate(0,0)"></path>
<path d="M 940.415 1117.59 C 950.89 1117.18 960.547 1117.38 970.997 1117.59 C 970.994 1135.66 972.307 1291.33 970.997 1294 C 959.915 1294.48 951.416 1294.35 940.415 1294 L 940.415 1117.59 z" fill="rgb(3,3,3)" transform="translate(0,0)"></path>
<path d="M 1001.03 1165 C 1014.92 1166.31 1018.85 1166.31 1033 1165 C 1032.17 1176.68 1032.82 1189.34 1032.89 1201.15 L 1033.16 1263.93 C 1033.2 1272.77 1033.63 1285.4 1033 1294 C 1022.67 1294.26 1011.37 1294.07 1001.03 1294 C 1000.38 1251.68 1001.02 1207.47 1001.03 1165 z" fill="rgb(3,3,3)" transform="translate(0,0)"></path>
<path d="M 1358.78 807 L 1394.8 807 C 1394.43 820.116 1394.66 833.176 1394.8 846.295 C 1386.78 847.089 1367.44 846.392 1358.78 846.295 C 1358.96 833.27 1358.82 820.042 1358.78 807 z" fill="rgb(3,3,3)" transform="translate(0,0)"></path>
<path d="M 1001.03 1117.59 C 1011.66 1117.36 1022.37 1117.23 1033 1117.59 L 1033 1145.52 L 1001.03 1145.52 L 1001.03 1117.59 z" fill="rgb(3,3,3)" transform="translate(0,0)"></path>
<metadata><recraft-signature>{"signed_by": "recraft", "signature_b64": "Ho8x5r8FEDqJBWYd7FUJ+QfBakzmVT5+IfUDQJL8cJCoYX/Lt6LNGcd5+pScoRQ1muAUz6LS3Gr4L9I2NjnvDQ==", "signing_algo": "Ed25519", "generation_timestamp": 1773000599, "identifier": "001a4e4c-cee3-45d1-b615-27b12baa7f2a"}</recraft-signature></metadata></svg>