<svg xmlns="http://www.w3.org/2000/svg" height="512" preserveAspectRatio="none" style="display: block;" version="1.1" viewBox="0 0 2048 2048" width="512">
<defs>
	<linearGradient gradientUnits="userSpaceOnUse" id="Gradient1" x1="1186.17" x2="1186.89" y1="1150.12" y2="1159.65">
		<stop class="stop0" offset="0" stop-color="rgb(205,207,205)" stop-opacity="1"></stop>
		<stop class="stop1" offset="1" stop-color="rgb(235,230,245)" stop-opacity="1"></stop>
	</linearGradient>
	<linearGradient gradientUnits="userSpaceOnUse" id="Gradient2" x1="1045.32" x2="1041.5" y1="1147.25" y2="1164.59">
		<stop class="stop0" offset="0" stop-color="rgb(209,210,211)" stop-opacity="1"></stop>
		<stop class="stop1" offset="1" stop-color="rgb(228,222,237)" stop-opacity="1"></stop>
	</linearGradient>
</defs>
<path d="M 1218.77 538.003 C 1252.53 536.599 1297.97 537.972 1332.4 537.975 L 1684.6 538.002 C 1705.83 537.989 1739.19 531.231 1751.6 548.233 L 1751.67 827.91 C 1751.71 839.739 1752.87 853.112 1751.6 864.63 C 1737.44 881.913 1679.49 874.938 1656.19 874.953 L 1487.02 874.957 C 1486.9 884.085 1486.69 893.112 1487.02 902.241 C 1494.7 905.6 1510.24 908.956 1519.21 911.6 C 1534.83 914.92 1610.54 925.445 1603 943.968 C 1593.9 949.669 1495.26 916.044 1473.11 918.333 C 1433.38 922.437 1396.25 934.427 1356.97 940.341 C 1353.33 940.89 1352.07 934.214 1352.65 931.105 C 1357.42 925.939 1453.3 904.935 1466.43 902.241 C 1466.79 893.833 1466.47 883.506 1466.43 874.957 L 1301.42 874.994 C 1274.68 874.998 1246.92 875.594 1220.22 874.144 C 1200.34 873.065 1208.6 798.451 1208.61 781.623 L 1208.59 579.211 C 1208.6 563.535 1203.47 546.616 1218.77 538.003 z M 1714.08 848.05 C 1731.19 841.07 1730.18 817.435 1695.16 818.015 C 1675.11 826.799 1678.72 852.103 1714.08 848.05 z M 1323.26 844.997 C 1321.74 833.684 1246.61 838.481 1232.65 838.995 C 1237.39 850.107 1313.26 846.974 1323.26 844.997 z" fill="rgb(0,0,0)" transform="translate(0,0)"></path>
<path d="M 1037.15 953.626 C 1099.08 975.414 1132.72 997.734 1150.94 1064.59 C 1137.45 1086.35 1138.42 1109.86 1158.11 1128.67 C 1128.87 1128.32 1099.99 1128.75 1070.8 1128.67 C 1123.6 1044.01 962.066 1005.41 995.636 1128.67 C 967.044 1128.46 932.611 1129.7 904.646 1128.67 C 950.182 1082.09 884.568 1015.09 838.795 1061.88 C 821.886 1079.16 825.698 1100.44 832.917 1121 C 829.368 1121.9 824.41 1122.98 821.108 1124.29 C 818.717 1131.48 816.331 1138.63 814.051 1145.86 C 828.024 1145.86 952.786 1145.18 955.226 1147 C 955.417 1152.5 953.37 1154.36 949.41 1157.67 C 937.825 1167.36 931.275 1221.88 923.408 1229.73 C 891.131 1229.41 852.429 1231.16 821.108 1229.73 C 822.918 1214.23 887.879 1187.42 904.646 1179.39 C 902.967 1176.11 903.357 1177.96 904.646 1173.47 C 879.531 1181.64 845.95 1205.85 821.108 1213.23 C 818.097 1205.14 816.156 1189.17 814.051 1179.39 C 817.777 1177.52 824.29 1175.11 828.344 1173.47 L 825.116 1169.86 C 821.941 1171.12 817.406 1172.4 814.051 1173.47 C 812.737 1168.51 811.526 1163.54 810.295 1158.57 L 810.295 1153 L 808.142 1153.02 C 796.343 1168.62 780.818 1225.61 765.434 1252.03 C 763.033 1256.15 760.123 1260.31 758.013 1264.51 C 762.719 1279.03 764.735 1296.26 767.37 1311.5 L 778.862 1375.49 C 786.71 1420.84 812.102 1487.04 751.72 1506.71 C 723.388 1515.95 688.479 1492.53 683.452 1464.06 C 673.945 1410.21 663.913 1354.91 656.101 1300.65 C 654.147 1287.08 655.306 1235.22 648.477 1226.85 L 646.685 1226.54 C 640.175 1235.52 643.283 1280.17 640.001 1292.96 C 625.334 1350.13 610.092 1407.73 593.701 1464.43 C 571.506 1541.2 470.88 1507.71 487.23 1438.23 C 499.805 1384.8 517.975 1316.83 536.711 1264.51 C 527.207 1241.76 515.966 1207.17 506.375 1187.6 C 501.319 1188.48 491.795 1194.93 485.292 1188.29 C 461.468 1163.97 436.548 1048.54 484.491 1028.7 L 498.939 1032.06 C 512.857 986.864 544.141 970.033 586.287 957.132 C 636.821 999.851 668.475 989.189 717.763 957.132 C 787.691 977.025 789.781 1000.64 814.051 1057.18 C 818.948 1050.23 819.833 1050.27 828.344 1048.35 L 841.744 1048.35 C 868.318 984.741 888.492 973.405 947.728 953.626 C 977.933 975.488 1006.46 970.435 1037.15 953.626 z" fill="rgb(0,0,0)" transform="translate(0,0)"></path>
<path d="M 828.344 1173.47 C 872.681 1146.87 884.945 1163.44 929.933 1158.57 C 926.226 1160.92 906.073 1172.21 904.646 1173.47 C 879.531 1181.64 845.95 1205.85 821.108 1213.23 C 818.097 1205.14 816.156 1189.17 814.051 1179.39 C 817.777 1177.52 824.29 1175.11 828.344 1173.47 z" fill="rgb(0,0,0)" transform="translate(0,0)"></path>
<path d="M 810.295 1153 C 823.912 1153.12 944.968 1152.28 947.714 1154.32 C 943.327 1158.14 911.626 1175.83 904.646 1179.39 C 902.967 1176.11 903.357 1177.96 904.646 1173.47 C 906.073 1172.21 926.226 1160.92 929.933 1158.57 C 884.945 1163.44 872.681 1146.87 828.344 1173.47 L 825.116 1169.86 C 821.941 1171.12 817.406 1172.4 814.051 1173.47 C 812.737 1168.51 811.526 1163.54 810.295 1158.57 L 810.295 1153 z" fill="rgb(245,244,247)" transform="translate(0,0)"></path>
<path d="M 810.295 1158.57 C 814.633 1154.62 842.012 1158.71 850.469 1158.57 C 841.886 1162.38 831.861 1164.34 825.116 1169.86 C 821.941 1171.12 817.406 1172.4 814.051 1173.47 C 812.737 1168.51 811.526 1163.54 810.295 1158.57 z" fill="rgb(0,0,0)" transform="translate(0,0)"></path>
<path d="M 1726.27 981.966 C 1834.66 973.006 1811.47 1010.4 1803.87 1093.21 L 1787.43 1297.42 C 1784.58 1334.37 1787.33 1351.99 1767.23 1383.67 C 1769.95 1409.16 1772.49 1450.76 1771.97 1475.49 C 1754.47 1475.71 1736.83 1475.54 1719.32 1475.49 C 1718.16 1463.54 1716.36 1450.72 1714.08 1438.96 C 1690.94 1436.03 1657.75 1438.99 1633.25 1438.96 L 1545.3 1438.91 C 1534.36 1438.88 1513.58 1437.65 1504.09 1438.96 C 1513.31 1419.94 1510.59 1390.99 1510.58 1369.5 L 1510.51 1275.65 L 1526.63 1259.54 C 1556.55 1230.2 1585.37 1229.84 1624.49 1229.69 L 1675.84 1229.73 C 1676.88 1189.14 1682.74 1142.12 1686.03 1101 L 1690.21 1047.92 C 1692.3 1019.14 1688.62 985.362 1726.27 981.966 z" fill="rgb(0,0,0)" transform="translate(0,0)"></path>
<path d="M 267.88 981.966 C 337.191 979.906 357.074 970.944 362.546 1050.36 L 372.527 1175.93 C 374.152 1193.56 376.673 1216.95 376.222 1234.5 C 426.729 1220.04 460.108 1221.93 511.854 1222.01 C 514.636 1234.58 523.023 1251.28 527.727 1264.51 C 508.098 1321.39 498.039 1381.76 479.349 1438.96 L 465.25 1438.96 L 329.992 1438.96 L 329.992 1482.79 L 274.724 1482.79 C 272.926 1450.26 277.876 1411.33 274.855 1380.31 C 274.241 1374.01 267.085 1359.1 266.073 1352.29 C 264.164 1339.45 263.342 1325.13 262.287 1312.12 L 243.512 1093.22 C 240.549 1057.73 221.562 990.034 267.88 981.966 z" fill="rgb(0,0,0)" transform="translate(0,0)"></path>
<path d="M 1224.39 1288.68 L 1327.05 1288.68 L 1326.97 1371.22 C 1326.97 1393.45 1324.3 1418.83 1334.1 1438.96 L 880.129 1438.96 L 798.296 1438.96 L 797.687 1436.73 C 785.984 1395.17 777.897 1331.89 770.694 1288.68 L 1224.39 1288.68 z" fill="rgb(0,0,0)" transform="translate(0,0)"></path>
<path d="M 1493.25 1057.18 C 1545.57 1064.35 1601.07 1103.99 1627.85 1148.91 C 1637.9 1165.77 1656.11 1195.9 1632.36 1210.05 C 1597.25 1229.14 1591.76 1179.88 1580.74 1159.63 C 1567.6 1135.47 1537.26 1111.1 1510.51 1104.32 C 1510.55 1134.38 1506.33 1175.18 1510.51 1203.23 C 1446.48 1172.72 1433.17 1256.24 1427.32 1260.32 C 1410.8 1271.85 1401.91 1255.66 1401.81 1286.29 C 1401.74 1308.23 1401.84 1332.55 1401.89 1355.5 C 1402.03 1380.57 1410.58 1440.83 1380.9 1450.13 C 1311.03 1472.04 1335.29 1332.51 1334.07 1290.97 C 1332.52 1247.38 1352.25 1213.72 1396.03 1203.23 C 1397.86 1172.29 1394.14 1135.73 1396.03 1104.32 C 1321.12 1126.51 1313.29 1116.97 1245.35 1118.9 C 1235.88 1130.04 1232.58 1128.44 1218.77 1128.67 C 1236.53 1112.43 1237.16 1101.78 1237.04 1078.9 C 1312.69 1078.76 1320.76 1090.66 1401.89 1057.18 C 1433.22 1058.38 1415.62 1090.52 1493.25 1057.18 z" fill="rgb(0,0,0)" transform="translate(0,0)"></path>
<path d="M 821.108 1229.73 C 852.429 1231.16 891.131 1229.41 923.408 1229.73 C 918.876 1232.38 918.866 1231.38 917.316 1235.21 L 917.763 1238.34 L 1128.26 1238.34 C 1151 1238.87 1175.98 1238.62 1198.78 1238.34 C 1241.81 1239.78 1293.47 1238.34 1337.13 1238.34 C 1331.83 1253.57 1328.27 1264.44 1327.05 1280.47 C 1307.57 1281.6 1276.93 1280.51 1256.67 1280.49 L 886.508 1280.47 C 848.416 1280.47 808.603 1281.14 770.694 1280.47 C 768.684 1274.24 767.58 1270.99 766.507 1264.51 C 770.016 1253.97 773.949 1247.75 779.884 1238.34 L 798.296 1238.34 C 804.385 1232.4 823.547 1243.46 821.108 1229.73 z" fill="rgb(0,0,0)" transform="translate(0,0)"></path>
<path d="M 821.108 1229.73 C 852.429 1231.16 891.131 1229.41 923.408 1229.73 C 918.876 1232.38 918.866 1231.38 917.316 1235.21 L 917.763 1238.34 L 798.296 1238.34 C 804.385 1232.4 823.547 1243.46 821.108 1229.73 z" fill="rgb(245,244,247)" transform="translate(0,0)"></path>
<path d="M 644.593 811.685 C 690.172 807.486 730.455 841.199 734.352 886.805 C 738.25 932.41 704.271 972.469 658.641 976.065 C 613.435 979.628 573.829 946.034 569.968 900.853 C 566.107 855.671 599.438 815.844 644.593 811.685 z" fill="rgb(0,0,0)" transform="translate(0,0)"></path>
<path d="M 986.709 801.898 C 1029.35 798.952 1066.31 831.121 1069.28 873.761 C 1072.24 916.401 1040.09 953.375 997.448 956.358 C 954.783 959.342 917.782 927.165 914.815 884.499 C 911.849 841.833 944.042 804.846 986.709 801.898 z" fill="rgb(0,0,0)" transform="translate(0,0)"></path>
<path d="M 1484.09 1203.23 C 1501.21 1202.25 1514.97 1214.93 1518.16 1231.02 C 1521.65 1248.61 1503.83 1259.87 1503.93 1275.49 C 1504.2 1317.61 1503.75 1359.78 1504.57 1401.9 C 1505.09 1429.03 1499.08 1447.8 1470.23 1452.93 C 1423.71 1450.68 1435.93 1394.84 1435.95 1362.13 L 1435.97 1303.12 C 1436 1263.97 1435.06 1213.55 1484.09 1203.23 z" fill="rgb(0,0,0)" transform="translate(0,0)"></path>
<path d="M 1447.33 946.152 C 1479.44 945.714 1505.95 971.166 1506.81 1003.27 C 1507.68 1035.38 1482.58 1062.22 1450.49 1063.51 C 1429.35 1064.36 1409.38 1053.77 1398.23 1035.78 C 1387.08 1017.8 1386.47 995.209 1396.64 976.651 C 1406.8 958.093 1426.17 946.441 1447.33 946.152 z" fill="rgb(0,0,0)" transform="translate(0,0)"></path>
<path d="M 964.721 1145.86 L 1084.25 1145.73 C 1098.89 1145.62 1111.19 1147.5 1125.83 1145.86 C 1092.41 1165.18 1090.1 1190.69 1082.97 1229.73 L 978.211 1229.73 L 978.211 1218.7 C 997.556 1209.52 1032.33 1193.48 1049.8 1182.27 L 1054.3 1179.39 L 1053.16 1177.78 C 1053.58 1176.35 1053.96 1174.93 1054.3 1173.47 C 1030.57 1185.25 999.527 1199.97 978.211 1213.23 C 974.047 1201.84 964.95 1179.48 978.211 1173.47 L 975.604 1169.86 L 971.49 1170.81 C 967.259 1167.85 966.123 1151.56 964.721 1145.86 z" fill="rgb(0,0,0)" transform="translate(0,0)"></path>
<path d="M 1003.95 1156 C 1006.4 1157.18 1006.26 1156.78 1008.06 1158.57 C 1031.38 1157.61 1060.58 1161.9 1082.97 1158.57 L 1084.41 1159.94 C 1079.16 1164.05 1060.86 1170.36 1054.3 1173.47 C 1030.57 1185.25 999.527 1199.97 978.211 1213.23 C 974.047 1201.84 964.95 1179.48 978.211 1173.47 L 975.604 1169.86 C 978.038 1167.17 994.471 1160.47 998.82 1158.57 L 1003.95 1156 z" fill="rgb(0,0,0)" transform="translate(0,0)"></path>
<path d="M 1003.95 1156 C 1006.4 1157.18 1006.26 1156.78 1008.06 1158.57 C 999.005 1162.94 986.648 1168.47 978.211 1173.47 L 975.604 1169.86 C 978.038 1167.17 994.471 1160.47 998.82 1158.57 L 1003.95 1156 z" fill="rgb(245,244,247)" transform="translate(0,0)"></path>
<path d="M 1013.74 1153 C 1039.57 1152.99 1069.02 1152.25 1094.53 1153 C 1089.22 1153.75 1084.74 1153.13 1082.97 1158.57 C 1060.58 1161.9 1031.38 1157.61 1008.06 1158.57 C 1006.26 1156.78 1006.4 1157.18 1003.95 1156 C 1005.12 1153.03 1010.84 1154.86 1013.74 1153 z" fill="url(#Gradient2)" transform="translate(0,0)"></path>
<path d="M 1094.53 1153 L 1105.58 1153 C 1091.78 1163.24 1071.33 1175.84 1054.3 1179.39 L 1053.16 1177.78 C 1053.58 1176.35 1053.96 1174.93 1054.3 1173.47 C 1060.86 1170.36 1079.16 1164.05 1084.41 1159.94 L 1082.97 1158.57 C 1084.74 1153.13 1089.22 1153.75 1094.53 1153 z" fill="rgb(245,244,247)" transform="translate(0,0)"></path>
<path d="M 998.82 1158.57 C 989.574 1158.55 987.877 1159.71 978.836 1157.35 L 978.147 1155.6 L 977.226 1155.97 L 978.794 1157.27 L 976.956 1156.41 L 977.441 1155.58 C 986.739 1152.6 1003.49 1153.09 1013.74 1153 C 1010.84 1154.86 1005.12 1153.03 1003.95 1156 L 998.82 1158.57 z" fill="rgb(188,186,192)" transform="translate(0,0)"></path>
<path d="M 1125.83 1145.86 L 1274.05 1145.86 C 1269.3 1153.25 1263.79 1157.36 1258.11 1163.63 C 1248.8 1181.18 1244.79 1208.93 1237.04 1229.73 L 1218.77 1229.73 C 1210.06 1239.52 1179.74 1230.42 1171.6 1235.91 C 1177.4 1235.92 1193.9 1235.08 1198.52 1236.77 L 1198.78 1238.34 C 1175.98 1238.62 1151 1238.87 1128.26 1238.34 C 1134.35 1234.47 1143.64 1241.85 1140.65 1229.73 C 1139.34 1228 1137.63 1221.84 1139.49 1220.69 C 1176.57 1197.88 1223.65 1180.23 1258.21 1154.39 L 1258.11 1153 C 1253.34 1154 1241.25 1151.7 1242.1 1158.57 C 1214.04 1176.2 1167.08 1200.81 1137.67 1213.23 C 1134.44 1198.46 1125.43 1178.56 1140.65 1173.47 L 1137.67 1169.86 C 1124.47 1173.8 1128.7 1154.51 1125.83 1145.86 z" fill="rgb(0,0,0)" transform="translate(0,0)"></path>
<path d="M 1242.1 1158.57 C 1215.56 1153.24 1155.07 1165.6 1131.77 1154.59 L 1132.31 1153.65 C 1157.47 1149.51 1230.86 1152.47 1258.11 1153 C 1253.34 1154 1241.25 1151.7 1242.1 1158.57 z" fill="url(#Gradient1)" transform="translate(0,0)"></path>
<path d="M 1140.65 1229.73 C 1162.06 1229 1197.12 1229.02 1218.77 1229.73 C 1210.06 1239.52 1179.74 1230.42 1171.6 1235.91 C 1177.4 1235.92 1193.9 1235.08 1198.52 1236.77 L 1198.78 1238.34 C 1175.98 1238.62 1151 1238.87 1128.26 1238.34 C 1134.35 1234.47 1143.64 1241.85 1140.65 1229.73 z" fill="rgb(245,244,247)" transform="translate(0,0)"></path>
<path d="M 1137.67 1169.86 C 1144.38 1165.34 1156.62 1164.55 1164.81 1163.63 C 1157.01 1166.67 1148.12 1169.89 1140.65 1173.47 L 1137.67 1169.86 z" fill="rgb(245,244,247)" transform="translate(0,0)"></path>
<path d="M 1181.57 1049.97 C 1204.14 1045.81 1225.83 1060.61 1230.19 1083.13 C 1234.56 1105.65 1219.96 1127.48 1197.47 1132.05 C 1174.7 1136.68 1152.52 1121.85 1148.1 1099.03 C 1143.68 1076.22 1158.72 1054.18 1181.57 1049.97 z" fill="rgb(0,0,0)" transform="translate(0,0)"></path>
<path d="M 415.53 1139.75 C 437.425 1135.6 458.535 1149.99 462.675 1171.89 C 466.814 1193.79 452.412 1214.89 430.514 1219.02 C 408.63 1223.15 387.542 1208.76 383.406 1186.87 C 379.269 1164.99 393.65 1143.9 415.53 1139.75 z" fill="rgb(0,0,0)" transform="translate(0,0)"></path>
<path d="M 868.58 1053.63 C 890.444 1050.74 910.54 1066.05 913.547 1087.9 C 916.554 1109.75 901.342 1129.92 879.508 1133.04 C 857.518 1136.18 837.169 1120.84 834.14 1098.83 C 831.111 1076.82 846.559 1056.55 868.58 1053.63 z" fill="rgb(0,0,0)" transform="translate(0,0)"></path>
<path d="M 1026.95 1057.58 C 1048.5 1053.07 1069.64 1066.85 1074.2 1088.39 C 1078.76 1109.93 1065.03 1131.1 1043.5 1135.71 C 1021.9 1140.34 1000.65 1126.55 996.072 1104.94 C 991.495 1083.33 1005.33 1062.11 1026.95 1057.58 z" fill="rgb(0,0,0)" transform="translate(0,0)"></path>
<path d="M 646.015 1296.6 C 650.173 1300.16 668.117 1420.3 671.749 1438.96 L 635.332 1438.96 C 626.456 1438.83 617.99 1438.76 609.095 1438.96 C 620.094 1392.69 637.801 1342.39 646.015 1296.6 z" fill="rgb(0,0,0)" transform="translate(0,0)"></path>
<path d="M 1427.99 1273.23 L 1428.58 1273.09 C 1429.82 1274.19 1427.86 1338.6 1427.93 1345.31 C 1428.26 1376.45 1426.51 1408.18 1430.36 1438.96 C 1422.75 1438.65 1415.74 1438.8 1408.12 1438.96 L 1405.72 1437.75 C 1405.44 1436.9 1408.09 1407.26 1408.1 1403.01 L 1408.14 1320.54 C 1408.19 1304.6 1408.89 1289.19 1408.12 1273.23 C 1415.17 1273.44 1420.95 1273.49 1427.99 1273.23 z" fill="rgb(0,0,0)" transform="translate(0,0)"></path>
<metadata><recraft-signature>{"signed_by": "recraft", "signature_b64": "hj9BUfxy1/OOFq2Ppz7X5zPtRQzJ6UjwKV+oRhgOZUbo/UJzMxCSlxh79lt16mbxWm2bgmhM6GUxb/QbFBfaCA==", "signing_algo": "Ed25519", "generation_timestamp": 1773009073, "identifier": "41157f93-5c1f-4dc1-9e13-879e4462664a"}</recraft-signature></metadata></svg>