<svg xmlns="http://www.w3.org/2000/svg" height="512" preserveAspectRatio="none" style="display: block;" version="1.1" viewBox="0 0 2048 2048" width="512">
<path d="M 1189.86 297.899 C 1288.18 296.475 1390.24 297.911 1488.83 297.901 L 1575.59 297.854 C 1585.81 297.838 1596.23 297.889 1606.48 297.518 C 1699.48 294.151 1747.71 366.559 1748.35 451.388 L 1748.42 1575.13 C 1748.63 1688.92 1703.5 1745.45 1586.15 1745.52 L 1225.12 1745.42 C 1215.42 1745.41 1193.08 1744.72 1184.51 1745.46 L 470.321 1745.49 C 352.229 1745.48 300.988 1707.41 300.985 1584.64 L 300.99 447.978 C 301.074 402.193 311.106 367.521 343.625 334.19 C 386.16 290.592 432.154 297.975 485.9 297.92 L 1009.75 297.913 C 1069.53 297.91 1130.19 297.303 1189.86 297.899 z M 414.584 1613.92 C 434.458 1640.7 471.345 1631.94 503.277 1631.86 L 1193.04 1631.89 C 1223.51 1630.65 1264.2 1631.85 1295.34 1631.86 L 1569.08 1631.96 C 1587.19 1632 1631.26 1637.3 1632.4 1610.26 C 1634.41 1562.09 1632.62 1513.24 1633.16 1464.93 L 1467.9 1464.83 C 1429.79 1464.75 1359.21 1477.83 1361.01 1421.1 L 1360.99 1085.96 C 1360.98 1065.28 1355.41 1017.99 1385.62 1014.02 C 1412.56 1010.47 1441.76 1011.94 1469.07 1011.94 L 1633.16 1011.97 C 1631.81 968.468 1633.14 917.244 1633.14 873.234 L 1633.21 492.37 C 1633.26 450.321 1644.91 407.602 1587.64 410.157 C 1560.27 411.378 1532.56 410.936 1505.18 410.931 L 1296.38 410.897 C 1264.42 410.898 1223.85 412.224 1193.04 410.903 C 1141.91 409.694 1085.98 410.905 1034.33 410.907 L 469.662 410.902 C 402.275 410.982 414.576 426.285 414.561 485.919 L 414.327 1609 C 414.319 1610.57 414.47 1612.35 414.584 1613.92 z M 1433.98 1204.98 C 1470.43 1205 1506.87 1204.96 1543.32 1204.91 C 1563.99 1205.04 1585.87 1196.28 1602.47 1213.18 C 1622.8 1233.89 1611.8 1273.08 1582.85 1276.97 C 1567.57 1279.02 1547.83 1278.03 1531.97 1278.03 L 1433.98 1277.95 C 1433.95 1313.7 1432.66 1357.5 1433.98 1392.6 L 1633.16 1392.6 C 1633.17 1291.02 1632.09 1187.44 1633.16 1086.03 L 1433.98 1086.03 L 1433.98 1204.98 z" fill="rgb(80,73,244)" transform="translate(0,0)"></path>
<path d="M 1007.25 1011.97 C 1048.68 1011.37 1137.92 1007.74 1171.65 1020.18 C 1291.34 1064.34 1297.11 1223.84 1176.94 1280.61 C 1182.2 1289.4 1191.13 1301.69 1197.07 1310.34 L 1241.52 1373.9 C 1248.46 1383.66 1255.96 1394.62 1263.15 1404.61 C 1292.87 1445.86 1225 1508.21 1184.51 1422.44 C 1169.29 1404.08 1153.46 1380.12 1140.06 1360.17 L 1086.78 1280.61 L 1048.17 1280.61 L 1048.21 1378.85 C 1048.22 1395.19 1048.36 1411.05 1048.04 1427.82 C 1047.75 1474.44 979.462 1476.54 974.267 1438.08 C 971.453 1417.26 972.517 1392.18 972.508 1370.91 L 972.546 1067.49 C 972.434 1038.26 970.927 1016.01 1007.25 1011.97 z M 1171.99 1191.74 C 1195.38 1166.1 1194.72 1128.16 1168.8 1104.31 C 1136.1 1074.22 1087.67 1091.08 1048.17 1086.03 C 1045.71 1123.28 1047.76 1171.21 1048.17 1208.99 C 1082.31 1209.07 1147.39 1216.53 1171.18 1192.57 L 1171.99 1191.74 z" fill="rgb(20,21,31)" transform="translate(0,0)"></path>
<path d="M 674.564 1011.97 L 804.402 1011.88 C 824.295 1011.87 851.311 1010.28 870.224 1013.16 C 907.592 1018.87 905.164 1079.04 868.617 1084.92 C 851.98 1087.59 830.317 1086.09 813.046 1086.08 L 701.055 1086.03 L 701.055 1204.98 L 804.327 1204.91 C 821.515 1204.89 862.137 1201.93 875.387 1211.4 C 903.434 1231.45 894.215 1275.37 857.25 1280.61 L 701.055 1280.61 L 701.094 1383.49 C 701.151 1403.84 705.555 1436.43 692.169 1452.15 C 669.627 1478.64 626.856 1463 626.958 1420.62 L 627.003 1089.26 C 627.015 1046.11 618.487 1012.25 674.564 1011.97 z" fill="rgb(20,21,31)" transform="translate(0,0)"></path>
<path d="M 1184.51 1745.46 L 470.321 1745.49 C 352.229 1745.48 300.988 1707.41 300.985 1584.64 L 300.99 447.978 C 301.074 402.193 311.106 367.521 343.625 334.19 C 386.16 290.592 432.154 297.975 485.9 297.92 L 1009.75 297.913 C 1069.53 297.91 1130.19 297.303 1189.86 297.899 L 1190.75 298.539 C 1203.14 307.268 1211.02 308.08 1220.03 321.972 C 1248.27 365.504 1218.45 386.786 1193.04 410.903 C 1141.91 409.694 1085.98 410.905 1034.33 410.907 L 469.662 410.902 C 402.275 410.982 414.576 426.285 414.561 485.919 L 414.327 1609 C 414.319 1610.57 414.47 1612.35 414.584 1613.92 C 434.458 1640.7 471.345 1631.94 503.277 1631.86 L 1193.04 1631.89 C 1197.75 1635.45 1202.66 1639.07 1207.14 1642.69 C 1248.83 1676.32 1228.23 1725.77 1184.51 1745.46 z" fill="rgb(20,21,31)" transform="translate(0,0)"></path>
<path d="M 1633.16 1011.97 L 1633.27 1060.82 C 1633.28 1067.33 1633.68 1079.91 1633.16 1086.03 L 1433.98 1086.03 L 1433.98 1204.98 C 1470.43 1205 1506.87 1204.96 1543.32 1204.91 C 1563.99 1205.04 1585.87 1196.28 1602.47 1213.18 C 1622.8 1233.89 1611.8 1273.08 1582.85 1276.97 C 1567.57 1279.02 1547.83 1278.03 1531.97 1278.03 L 1433.98 1277.95 C 1433.95 1313.7 1432.66 1357.5 1433.98 1392.6 L 1633.16 1392.6 C 1633.22 1415.35 1633.97 1442.52 1633.16 1464.93 L 1467.9 1464.83 C 1429.79 1464.75 1359.21 1477.83 1361.01 1421.1 L 1360.99 1085.96 C 1360.98 1065.28 1355.41 1017.99 1385.62 1014.02 C 1412.56 1010.47 1441.76 1011.94 1469.07 1011.94 L 1633.16 1011.97 z" fill="rgb(20,21,31)" transform="translate(0,0)"></path>
<metadata><recraft-signature>{"signed_by": "recraft", "signature_b64": "ZPV/l7yyoHRBxV0hrKH6+rwgOXhwgZdFsRRhbTmmL4evvc36gwElfc79ZCeCqPCLwFn0nRQ+EUAW4CBKm3g9Cw==", "signing_algo": "Ed25519", "generation_timestamp": 1772999934, "identifier": "0abd056f-1496-47ec-9003-cd70eee85292"}</recraft-signature></metadata></svg>