<svg xmlns="http://www.w3.org/2000/svg" height="512" preserveAspectRatio="none" style="display: block;" version="1.1" viewBox="0 0 2048 2048" width="512">
<path d="M 457.661 342.136 C 465.714 341.296 492.624 342.045 502.17 342.058 L 1508.01 342.107 C 1587.55 342.102 1676.59 337.235 1701.28 439.206 C 1707.24 463.839 1705.59 492.331 1705.58 517.567 L 1705.57 1497.39 C 1705.57 1599.85 1702.93 1676.25 1584.26 1705.72 C 1500.84 1707.04 1413.72 1705.74 1329.99 1705.74 L 514.995 1705.77 C 467.201 1705.82 432.78 1704.73 393.325 1672.25 C 338.612 1627.2 341.969 1570.01 342.042 1507.1 L 342.117 471.26 C 341.446 403.488 389.03 348.698 457.661 342.136 z M 511.083 512.537 L 511.083 1534.4 C 540.915 1535.27 574.511 1534.41 604.724 1534.4 L 1359.03 1534.4 L 1475.98 1534.35 C 1494.38 1534.34 1517.1 1533.68 1535.07 1534.4 L 1535.14 548.032 C 1535.16 537.809 1535.72 522.348 1535.07 512.537 L 690.726 512.537 L 571.428 512.553 C 553.154 512.566 528.533 513.393 511.083 512.537 z" fill="rgb(0,0,0)" transform="translate(0,0)"></path>
<metadata><recraft-signature>{"signed_by": "recraft", "signature_b64": "yLRU4iDawi+p1yAp5+oOoiOTuIanyL2KKHlcU44JvNSzFjHLVLWZz08MTTB5dkOSBCq5dHt46poZ9SGZqgo7Bg==", "signing_algo": "Ed25519", "generation_timestamp": 1772996736, "identifier": "3b4abb5a-519a-4a6f-a744-bb2542d13ba6"}</recraft-signature></metadata></svg>