<svg xmlns="http://www.w3.org/2000/svg" height="512" preserveAspectRatio="none" style="display: block;" version="1.1" viewBox="0 0 2048 2048" width="512">
<path d="M 374.851 673.001 C 472.502 671.799 572.695 672.999 670.542 673.001 L 1624.41 672.932 C 1677.26 672.632 1716.28 670.792 1759.54 707.947 C 1820.36 760.189 1809.86 835.749 1809.85 907.5 L 1809.67 1229.04 C 1809.1 1308.22 1748.35 1367.63 1671.49 1371.51 C 1651.14 1372.81 1615.79 1371.54 1594.29 1371.53 L 435.814 1371.53 C 412.929 1371.57 388.044 1372.79 365.378 1370.8 C 299.633 1365.04 245.648 1312.47 238.694 1246.71 C 235.681 1218.21 237.012 1188.7 237.016 1160.29 L 237.018 826.825 C 236.305 741.922 290.903 683.227 374.851 673.001 z M 1671.49 1302.98 C 1727.78 1292.56 1743.37 1259.61 1743.03 1206.52 L 1742.89 821.101 C 1743.18 738.979 1664.7 739.962 1607.83 739.954 L 380.78 740.001 C 296.258 748.141 305.4 819.129 305.401 880.177 L 305.458 1158.5 C 305.468 1290.61 311.193 1302.99 434.881 1303 L 1587.66 1302.98 C 1614.15 1302.99 1645.51 1303.85 1671.49 1302.98 z" fill="rgb(0,0,0)" transform="translate(0,0)"></path>
<path d="M 1244.97 849.001 C 1271.62 848.553 1299.99 848.304 1326.63 849.345 C 1433.15 853.509 1422.28 990.575 1420.06 1065.01 C 1418.89 1104 1414.44 1146.8 1383.85 1173.59 C 1348.85 1199.06 1280.5 1195.46 1236.19 1194 C 1232.49 1190.57 1230.24 1187.77 1227.01 1183.94 C 1226.4 1166.84 1227 1145.32 1226.99 1127.95 L 1226.96 920.131 C 1226.96 895.761 1217.54 853.357 1244.97 849.001 z M 1297.22 1137.01 C 1313.32 1137.16 1325.25 1136.28 1336.5 1122.8 C 1359.58 1090.46 1351.12 988.736 1347.97 947.93 C 1345.5 915.924 1325.48 907.879 1297.22 910.682 C 1295.99 932.075 1297.29 963.535 1297.3 985.726 L 1297.22 1137.01 z" fill="rgb(0,0,0)" transform="translate(0,0)"></path>
<path d="M 621.281 849.001 C 650.095 848.606 685.012 847.268 713.343 849.728 C 812.984 858.38 824.147 991.144 756.676 1043.5 C 764.21 1064.29 800.572 1162.02 800.821 1174.24 C 801.366 1200.99 762.715 1194 745.599 1194 C 734.389 1186.84 730.125 1170.75 724.988 1158.25 C 715.069 1126.15 702.708 1092.02 692.058 1059.72 C 684.594 1059.2 679.352 1059.41 671.842 1059.72 C 671.663 1078.99 674.836 1175.35 668.852 1185.74 C 661.273 1198.9 615.698 1196.3 607.301 1191.06 C 595.839 1183.92 600.965 1146.89 600.964 1134.93 L 601.005 936.812 C 600.998 907.46 589.159 854.335 621.281 849.001 z M 671.842 997.684 C 686.852 998.006 704.683 999.896 717.157 990.741 C 725.204 977.765 724.602 970.493 725.542 956.155 C 728.469 911.509 709.923 908.386 671.842 910.682 C 671.699 938.308 673.129 970.863 671.842 997.684 z" fill="rgb(0,0,0)" transform="translate(0,0)"></path>
<path d="M 1541.79 843.114 C 1604.61 839.946 1644.61 860.462 1649.74 927.37 C 1641.05 949.016 1621.67 943.261 1601.02 942.906 C 1580.18 943.026 1586.82 919.495 1576.21 908.675 C 1560.84 892.994 1528.32 905.37 1530.87 928.273 C 1537.57 988.509 1653.43 1011.43 1653.97 1100.48 C 1654.34 1161.15 1612 1198.28 1553.02 1198.49 C 1462.11 1195.07 1414.8 1080.31 1495.04 1083.76 C 1534.76 1085.47 1511.17 1112.94 1536.11 1131.99 C 1565.09 1152.6 1595.8 1116.22 1577.14 1089.58 C 1555.79 1059.09 1519.21 1037.78 1493.88 1009.64 C 1437.23 946.68 1454.04 860.388 1541.79 843.114 z" fill="rgb(0,0,0)" transform="translate(0,0)"></path>
<path d="M 450.037 849.001 C 482.626 850.005 515.882 847.782 548.541 849.333 C 572.35 850.464 566.963 881.327 566.505 898.725 C 554.698 919.488 498.66 910.338 474.999 910.682 C 473.27 936.834 473.887 964.629 474.999 990.741 C 523.057 990.408 540.966 977.163 546.294 1020.22 C 551.589 1063.01 507.837 1052.43 474.999 1052.32 L 474.999 1075.53 L 475.117 1164.96 C 474.891 1203.02 449.075 1197.16 414.114 1194 C 395.487 1174.7 404.304 1027.7 404.288 993.293 L 404.516 874.405 C 404.52 845.43 427.973 849.546 450.037 849.001 z" fill="rgb(0,0,0)" transform="translate(0,0)"></path>
<path d="M 839.306 849.001 C 859.561 847.336 985.67 848.191 991.866 853.148 C 1002.16 861.38 1003.01 900.42 990.006 907.063 C 980.969 911.679 960.476 910.098 946.771 910.682 C 945.205 933.521 946.738 967.671 946.76 991.972 L 946.771 1158.25 C 946.608 1195.09 943.306 1193.6 905.991 1194.17 C 889.869 1194.41 885.795 1195.53 874.089 1183.94 C 869.241 1096.68 875.165 999.153 874.089 910.682 C 861.297 911.045 831.735 915.113 827.038 900.874 C 821.475 884.012 819.12 855.897 839.306 849.001 z" fill="rgb(0,0,0)" transform="translate(0,0)"></path>
<path d="M 1045.75 849.001 C 1085.24 847.435 1127.18 849.582 1166.87 849.384 C 1193.3 849.253 1187.84 868.561 1189.12 886.622 C 1191.17 915.759 1167.39 910.994 1146.49 910.682 C 1145.33 936.731 1146.49 969.72 1146.5 996.532 L 1146.49 1166.25 C 1148.09 1196.55 1137.04 1193.9 1112.03 1194.36 C 1076.46 1195.02 1077.21 1188.13 1077.57 1156.9 C 1078.51 1074.98 1076.21 992.54 1077.54 910.682 C 1069.69 910.711 1042.97 911.688 1037.34 908.022 C 1027.67 901.725 1019.74 855.114 1045.75 849.001 z" fill="rgb(0,0,0)" transform="translate(0,0)"></path>
<metadata><recraft-signature>{"signed_by": "recraft", "signature_b64": "RPaXlNjyLeX0sWEid2ZBmzI3QvBAO5+wJI0Xq6OU4doFrnHGaUn78xtw4+urrGeBwerdC5kCWnzabC+whZ4dDA==", "signing_algo": "Ed25519", "generation_timestamp": 1772996514, "identifier": "5f9187cc-07eb-454b-821a-32033c00b477"}</recraft-signature></metadata></svg>