<svg xmlns="http://www.w3.org/2000/svg" height="512" preserveAspectRatio="none" style="display: block;" version="1.1" viewBox="0 0 2048 2048" width="512">
<path d="M 372.088 871.974 C 396.608 898.554 412.672 907.765 446.474 918.037 C 446.896 925.29 446.396 935.802 446.474 943.576 C 428.754 932.586 403.53 915.034 385.212 907.413 C 346.859 891.458 308.365 952.899 338.333 980.69 C 372.747 1008.66 416.786 1027.06 453.039 1052.45 L 454.094 1053.2 C 446.504 1072.26 441.291 1157.33 438.973 1181.95 C 463.185 1182.03 506.992 1182.8 528.947 1194.01 C 586.182 1223.26 550.901 1304.41 540.154 1353.6 L 521.262 1438.36 C 517.786 1454.02 513.835 1480.13 507.019 1493.27 C 488.519 1516.35 448.708 1513.37 432.488 1488.5 C 414.14 1463.17 460.124 1319.39 467.513 1282.77 C 397.81 1282.83 271.278 1319.87 228.524 1252.63 C 205.379 1216.23 218.681 1152.48 227.623 1112.12 C 248.064 1019.83 289.286 924.125 372.088 871.974 z" fill="rgb(0,0,0)" transform="translate(0,0)"></path>
<path d="M 1723.47 935.515 C 1778.61 945.953 1789.54 1121.37 1791.07 1165.38 C 1796.78 1171.85 1803.99 1177.52 1809.5 1184.16 C 1837.24 1217.59 1833.22 1267.82 1786.71 1281.42 C 1751.72 1291.65 1636.18 1307.18 1610.04 1272.36 C 1601.14 1274.84 1598.02 1277.53 1590.51 1282.77 C 1615.19 1340.05 1649.46 1398.44 1672.46 1456.77 C 1686.35 1491.99 1627.33 1520.87 1609.69 1493.21 C 1595.38 1471.98 1583.28 1446.35 1571.28 1423.73 C 1547.44 1381.74 1511.13 1324.16 1491.97 1281.78 C 1476.75 1245.57 1519.7 1229.03 1544.76 1216.05 C 1570.24 1202.84 1595.12 1191.68 1619.64 1176 C 1619.99 1168.97 1619.81 1162.67 1619.64 1155.63 C 1648.4 1123.64 1758.48 1041.83 1749 997.874 C 1739.18 952.4 1691.23 950.585 1665.78 984.717 C 1650.75 1004.88 1633.43 1022.17 1619.64 1043.01 C 1628.84 1013.97 1636.54 979.89 1645.87 950.337 C 1689.97 951.943 1685.45 948.492 1723.47 935.515 z" fill="rgb(0,0,0)" transform="translate(0,0)"></path>
<path d="M 1009.42 722.793 C 1017.36 721.757 1072.38 767.771 1117.32 722.793 L 1119.71 723.36 C 1166.7 734.806 1200.71 773.62 1226.72 812.743 C 1251.88 850.58 1238.54 899.04 1228.09 941.29 C 1212.27 937.658 1202.51 936.776 1186.51 935.515 C 1191.25 849.755 1226.96 876.341 1152.7 794.754 C 1149.22 831.569 1161.22 903.97 1166.31 941.29 C 1147.12 941.654 1127 941.319 1107.75 941.29 L 945.205 941.839 C 940.315 941.904 938.076 942.431 935.141 939.571 L 935.392 938.002 C 939.778 936.093 955.966 936.897 961.843 937.002 C 968.349 895.731 974.453 836.816 976.163 794.754 C 956.151 807.619 931.65 832.28 923.039 855.233 C 919.693 877.792 928.377 906.676 932.719 929.76 C 919.826 932.976 905.748 935.301 892.567 937.002 C 845.371 839.015 915.885 751.403 1009.42 722.793 z" fill="rgb(0,0,0)" transform="translate(0,0)"></path>
<path d="M 699.339 1184.3 L 1394.89 1184.3 C 1395.58 1209.98 1394.63 1238.36 1394.89 1264.41 C 1384.44 1261.9 1374.57 1259.64 1364.02 1257.51 C 1297.9 1236.42 1243.54 1245.47 1178.13 1253.74 C 1078.53 1266.34 978.654 1243.6 878.812 1245.14 C 816.655 1246.1 751.06 1250.79 690.212 1264.41 C 690.832 1244.74 681.507 1185.89 699.339 1184.3 z" fill="rgb(0,0,0)" transform="translate(0,0)"></path>
<path d="M 460.621 677.368 C 524.452 671.002 581.351 717.605 587.684 781.44 C 594.018 845.274 547.385 902.149 483.547 908.449 C 419.756 914.744 362.932 868.153 356.604 804.366 C 350.275 740.578 396.837 683.73 460.621 677.368 z" fill="rgb(0,0,0)" transform="translate(0,0)"></path>
<path d="M 1644.63 711.911 C 1706.54 702.631 1764.19 745.433 1773.23 807.374 C 1782.27 869.315 1739.24 926.804 1677.26 935.595 C 1615.63 944.338 1558.53 901.601 1549.54 840.003 C 1540.56 778.406 1583.07 721.139 1644.63 711.911 z" fill="rgb(0,0,0)" transform="translate(0,0)"></path>
<path d="M 1060.74 511.222 C 1079.71 507.924 1084.39 517.361 1100.24 521.743 C 1163.04 539.112 1160.27 551.161 1166.55 608.464 C 1168.73 628.341 1190.43 655.124 1152.7 668.655 C 1133.93 698.345 1114.47 719.216 1080.25 729.597 C 1032.53 739.135 1004.92 703.974 982.966 668.655 C 951.742 650.381 964.701 635.964 970.797 608.824 C 984.477 547.915 990.213 525.321 1060.74 511.222 z" fill="rgb(0,0,0)" transform="translate(0,0)"></path>
<path d="M 791.764 978.874 C 803.833 977.108 814.712 981.505 821.558 991.346 C 844.314 1024.05 792.953 1063.61 765.746 1019 C 745.686 1019.99 720.064 1019.05 699.339 1019 C 671.32 1060.39 637.28 1107.01 607.402 1147 L 1398.26 1147 C 1420.98 1147 1450.16 1149.95 1471.75 1147 C 1477.44 1147.38 1483.56 1148.94 1489.19 1150.15 C 1488.84 1158.41 1489.12 1167.66 1489.19 1176 C 1466.63 1176.87 1437.92 1176.02 1414.81 1176.02 L 631.88 1175.88 C 607.724 1175.89 594.688 1184.7 595.034 1155.63 C 597.882 1150.14 618.527 1123.61 623.809 1116.16 L 668.958 1051.92 C 706.124 999.168 697.999 1015.07 765.746 1015 L 765.959 1009.52 C 766.662 990.725 773.618 982.672 791.764 978.874 z" fill="rgb(0,0,0)" transform="translate(0,0)"></path>
<path d="M 659.948 889.837 C 678.806 889.943 676.948 904.453 675.204 918.037 C 688.397 914.223 739.529 886.071 740.814 916.025 C 741.011 920.601 737.851 922.784 734.761 925.637 L 742.828 935.515 C 755.814 934.86 880.21 933.255 883.647 937.504 C 864.79 946.556 782.773 938.348 751.177 940.861 C 741.568 941.625 738.541 949.32 730.421 953.05 C 724.839 955.615 675.277 976.136 673.605 980.31 C 663.506 1005.53 676.943 995.865 644.921 1008.69 L 602.052 1026.02 C 578.031 1035.72 535.038 1055.09 511.836 1062 C 511.479 1062.05 511.123 1062.11 510.766 1062.16 L 508.98 1062.41 C 485.433 1065.79 369.918 990.625 348.705 973.677 C 324.955 954.702 352.931 908.222 380.372 917.874 C 403.127 925.878 483.508 979.086 503.545 993.106 C 518.806 988.311 542.703 977.294 558.31 970.663 L 639.247 937.002 C 645.619 925.122 654.343 896.486 659.948 889.837 z" fill="rgb(0,0,0)" transform="translate(0,0)"></path>
<path d="M 1699.34 970.833 C 1724.81 973.537 1749.96 998.763 1734.59 1020.04 C 1717.25 1044.03 1633.66 1133.65 1610.04 1141.86 C 1556.5 1146.8 1501.6 1135.53 1447.79 1138.88 C 1389.12 1128 1400.06 1073.67 1457.26 1076.79 C 1498.68 1079.05 1558.31 1084.54 1599.17 1081.34 L 1600.76 1081.2 C 1622.13 1057.41 1681.93 979.751 1699.34 970.833 z" fill="rgb(0,0,0)" transform="translate(0,0)"></path>
<path d="M 627.778 1184.3 C 645.468 1184.09 663.299 1184.25 681 1184.3 L 681.106 1481.24 C 681.171 1497.33 685.232 1519.03 671.296 1528.98 C 655.635 1530.13 633.848 1531.29 621.952 1519.7 C 620.332 1507.95 621.588 1490.37 621.763 1478.08 C 623.139 1380.99 620.673 1283.51 621.837 1186.46 C 623.684 1184.11 623.739 1184.86 627.778 1184.3 z" fill="rgb(0,0,0)" transform="translate(0,0)"></path>
<path d="M 1404.05 1184.3 C 1417.77 1183.14 1447.72 1184.21 1462.51 1184.3 L 1462.62 1479.87 C 1462.73 1493.78 1467.06 1514.23 1457.68 1525.49 C 1447.67 1530.72 1415.95 1532.06 1407.08 1523.43 C 1402.56 1512.31 1404.03 1469.79 1404.02 1456.19 L 1404 1366.39 C 1404 1307.02 1402.74 1243.13 1404.05 1184.3 z" fill="rgb(0,0,0)" transform="translate(0,0)"></path>
<path d="M 1619.64 993.106 C 1621.38 1004.03 1605.45 1061.01 1594.65 1069.87 C 1545.88 1076.25 1447.47 1064.54 1397.86 1059.99 C 1388.83 1059.16 1383.27 1051.81 1378.41 1044.99 C 1367.34 1027.19 1380.7 1002.24 1401.76 1002.56 C 1413.47 1002.73 1425.66 1004.41 1437.3 1005.77 L 1501.04 1013.57 C 1527.64 1016.8 1565.45 1019.42 1590.51 1023.93 C 1597.49 1012.12 1608.51 1001.11 1619.64 993.106 z" fill="rgb(0,0,0)" transform="translate(0,0)"></path>
<path d="M 203.688 1272.36 C 268.883 1311.48 334.152 1306.6 407.71 1298.63 C 419.888 1297.31 444.05 1296.08 454.094 1292 C 452.571 1303.14 448.659 1318.93 446.474 1330.73 L 445.325 1333.27 C 420.891 1351.43 268.836 1338.25 236.539 1330.32 C 226.769 1327.93 198.401 1322.99 199.08 1309.54 C 199.712 1297.01 195.6 1282.59 203.688 1272.36 z" fill="rgb(0,0,0)" transform="translate(0,0)"></path>
<path d="M 1827.83 1272.36 C 1843.33 1271.96 1837.35 1307.86 1837.19 1317.76 C 1799.28 1341.87 1679.16 1343.4 1633.01 1342.98 L 1625.01 1327.51 C 1618.5 1314.46 1614.29 1305.92 1610.04 1292 C 1662.29 1316.51 1777.64 1311.29 1827.83 1272.36 z" fill="rgb(0,0,0)" transform="translate(0,0)"></path>
<path d="M 1247.43 964.535 C 1338.6 962.56 1320.32 954.388 1320.18 1044.99 L 1293.5 1044.99 L 1222.96 1044.99 C 1222.99 1022.81 1221.57 984.863 1222.96 964.535 L 1247.43 964.535 z" fill="rgb(0,0,0)" transform="translate(0,0)"></path>
<path d="M 562.673 1305.67 L 563.482 1306.61 C 565.075 1316.99 569.727 1332.86 572.361 1343.69 L 590.518 1418.49 C 593.102 1429.09 597.57 1445.44 598.785 1455.71 L 599.002 1457.64 C 600.955 1474.34 577.935 1490.6 562.673 1493.27 L 561.472 1493.26 C 543.488 1493.13 535.359 1490.85 522.693 1477.98 L 547.986 1367.2 C 552.085 1348.76 556.618 1322.47 562.673 1305.67 z" fill="rgb(0,0,0)" transform="translate(0,0)"></path>
<path d="M 747.788 1043.01 C 760.268 1042.37 833.774 1041.27 840.025 1046.27 C 842.45 1053.24 843.089 1115.88 841.997 1124.02 C 831.461 1125.45 756.785 1124.83 749.66 1121.52 C 746.483 1113.86 747.762 1054.88 747.788 1043.01 z" fill="rgb(0,0,0)" transform="translate(0,0)"></path>
<path d="M 1799.18 1347.38 L 1800.43 1347.56 C 1804.48 1365.73 1801.15 1460.29 1801.11 1482.62 C 1801.09 1493.87 1798.76 1498.24 1791.07 1505.75 C 1779.19 1509.4 1771.1 1508.38 1759.12 1505.75 C 1748.57 1500.31 1753.07 1371.43 1753.08 1351.29 C 1769.28 1349.35 1782.76 1347.1 1799.18 1347.38 z" fill="rgb(0,0,0)" transform="translate(0,0)"></path>
<path d="M 1331.74 1058.43 C 1341.52 1056.94 1356.6 1070.32 1364.1 1075.99 C 1397.88 1101.5 1428.4 1114.85 1363.49 1122.92 C 1350.43 1124.54 1334.43 1128.39 1320.18 1129.53 C 1290.96 1129.57 1233.54 1093.82 1246 1078.75 C 1251.53 1072.07 1319.85 1059.71 1331.74 1058.43 z M 1394.89 1110.95 L 1396.3 1108.94 C 1395.03 1104.83 1368.65 1086.31 1363.72 1085.19 C 1357.24 1093.7 1294.65 1100.87 1287.33 1097.19 C 1291.26 1090.06 1350.21 1085.11 1364.02 1081.2 L 1362.64 1080.5 C 1354.38 1076.23 1340.21 1061.89 1331.74 1065.01 C 1321.21 1065.75 1251.05 1075.84 1251.61 1085.76 C 1281.46 1135.12 1349.28 1123.65 1394.89 1110.95 z" fill="rgb(0,0,0)" transform="translate(0,0)"></path>
<path d="M 234.046 1342.98 C 251.33 1348.52 260.299 1349.37 278.072 1351.29 L 278.135 1442.04 C 278.247 1456 281.932 1487.78 273.817 1497.89 C 241.96 1511.33 234.257 1495.9 233.97 1465.74 C 233.578 1424.59 234.709 1383.82 234.046 1342.98 z" fill="rgb(0,0,0)" transform="translate(0,0)"></path>
<path d="M 1799.18 787.075 C 1872.89 784.16 1824.03 900.596 1880.58 887.248 C 1890.34 884.944 1879.55 904.635 1864.01 909.711 C 1819.58 916.271 1799.84 871.417 1789.1 835.891 C 1783.54 817.518 1762.21 798.474 1799.18 787.075 z" fill="rgb(0,0,0)" transform="translate(0,0)"></path>
<path d="M 998.245 997.095 C 1008.27 996.809 1013.77 1000.19 1023.69 1001.21 C 1054.11 1004.34 1084.83 992.623 1105.49 1011.38 C 1105.81 1022.14 1105.66 1032.26 1105.49 1043.01 C 1087.6 1040.7 1083.99 1040.25 1065.75 1043.01 C 1050.23 1039.15 1036.27 1045.7 1020.99 1046.27 C 1004.77 1046.24 947.558 1043.5 965.695 1017.47 C 969.367 1012.21 977.302 1012.04 982.966 1011.38 C 988.482 1003.17 989.102 1000.87 998.245 997.095 z M 988.397 1023.93 C 1006.19 1029.43 1015.57 1031.5 1033.55 1027.34 C 1037.33 1026.47 1041.26 1026.02 1044.1 1023.54 L 1044.18 1021.68 C 1036.78 1016.79 1011.36 1017.07 1002.77 1019 C 996.438 1020.56 994.307 1021.41 988.397 1023.93 z M 1080.25 1027.34 C 1085.64 1027.3 1091.04 1027.22 1096.43 1027.34 L 1099.86 1015 C 1096.79 1014.81 1092.49 1014.28 1089.68 1015 C 1078.64 1016.4 1059.99 1020.1 1080.25 1027.34 z" fill="rgb(0,0,0)" transform="translate(0,0)"></path>
<path d="M 1122.34 1050.11 C 1136.95 1048.25 1195.21 1047.57 1201.08 1066.56 C 1207.07 1068.55 1211.22 1071.44 1216.57 1074.74 C 1215.54 1078.7 1214.21 1082.42 1212.9 1086.3 C 1197.98 1088.8 1190.6 1089.06 1174.76 1093.09 C 1146.56 1099.8 1112.24 1099.63 1086 1086.05 C 1081.94 1073.4 1096.16 1067.16 1105.49 1065.01 C 1111.03 1056.21 1112.61 1052.96 1122.34 1050.11 z M 1117.32 1074.74 C 1131.05 1081.2 1143.29 1084.78 1158.23 1079.26 C 1164.3 1078.16 1169.56 1077.68 1174.94 1074.78 L 1176.03 1073.09 C 1172 1069.26 1147.26 1069.32 1136.41 1066.56 C 1128.71 1069 1124.35 1070.45 1117.32 1074.74 z" fill="rgb(0,0,0)" transform="translate(0,0)"></path>
<path d="M 438.973 1347.38 C 449.737 1363.32 396.663 1447.41 425.592 1497.89 C 419.961 1498.43 417.691 1498.83 411.968 1497.89 C 389.574 1489.86 396.854 1459.99 396.869 1438.47 L 396.957 1353.48 C 407.439 1352.45 429.113 1349.51 438.973 1347.38 z" fill="rgb(0,0,0)" transform="translate(0,0)"></path>
<path d="M 1537.17 1386.69 C 1539.67 1389.08 1561.26 1429.99 1563.4 1435.2 C 1572.14 1456.42 1591.41 1467.99 1571.28 1485.32 C 1515.31 1508.93 1529.86 1416.54 1537.17 1386.69 z" fill="rgb(0,0,0)" transform="translate(0,0)"></path>
<path d="M 1268.74 906.063 C 1306.63 905.008 1315.13 952.206 1280.05 959.446 C 1238.27 960.294 1233.29 916.627 1268.74 906.063 z" fill="rgb(0,0,0)" transform="translate(0,0)"></path>
<path d="M 1186.51 941.29 C 1193.74 941.636 1214.7 945.474 1222.96 946.76 C 1216.55 962.653 1220.37 1020.74 1203.04 1006.72 C 1199.55 999.232 1201.08 980.085 1201.08 970.833 C 1199.87 975.928 1198.91 981.658 1197.93 986.85 C 1196.76 993.574 1194.92 1002.16 1186.89 1003.4 L 1184.94 1001.91 C 1180.03 991.776 1184.49 976.113 1186.51 964.535 C 1183.11 969.615 1171.53 993.976 1163.99 978.775 C 1163.67 968.799 1179.78 951.95 1186.51 941.29 z" fill="rgb(0,0,0)" transform="translate(0,0)"></path>
<path d="M 923.039 941.29 C 937.155 936.183 950.314 976.473 949.353 986.561 C 937.948 999.638 929.541 971.433 926.671 964.535 C 926.099 977.769 931.973 998.645 915.255 1002 C 912.362 988.489 913.764 984.261 915.255 970.833 C 912.993 978.356 908.895 999.138 901.502 1001.84 C 894.636 996.614 899.129 963.021 892.567 946.76 C 905.745 942.396 908.922 942.102 923.039 941.29 z" fill="rgb(0,0,0)" transform="translate(0,0)"></path>
<path d="M 1357.87 950.337 C 1370.3 953.893 1364.31 972.657 1357.87 978.874 C 1341.25 980.091 1350.45 956.872 1357.87 950.337 z" fill="rgb(0,0,0)" transform="translate(0,0)"></path>
<metadata><recraft-signature>{"signed_by": "recraft", "signature_b64": "PIRyGa6Z0/E6XGUg/WGA8y6BM9S79m0/CXpJmAktF4X99ciTpVGsbcG0ah9bTsdIyXsxrEkGfF5YK9SFMl91AQ==", "signing_algo": "Ed25519", "generation_timestamp": 1772988377, "identifier": "c4c53cca-95f8-4a89-a03b-03526c7ef85f"}</recraft-signature></metadata></svg>