<svg xmlns="http://www.w3.org/2000/svg" height="512" preserveAspectRatio="none" style="display: block;" version="1.1" viewBox="0 0 2048 2048" width="512">
<path d="M 288.941 290.995 C 342.356 291.832 398.006 290.994 451.612 290.993 L 1759.49 290.995 C 1760.84 335.413 1759.5 386.944 1759.5 431.972 L 1759.49 1754.4 L 288.941 1754.4 L 288.941 290.995 z M 835.992 1630 L 1545.78 1629.99 C 1573.6 1629.99 1605.36 1630.83 1632.87 1630 L 1632.87 1216.99 L 924.231 1216.98 C 896.411 1216.97 863.175 1216.04 835.992 1216.99 C 836.91 1261.59 835.993 1309.58 835.991 1354.42 L 835.992 1630 z M 835.992 414.691 C 835.282 463.036 835.994 513.192 835.992 561.717 L 835.992 826.527 C 918.614 827.578 1003.91 826.526 1086.75 826.525 L 1589.5 826.527 C 1603.79 826.554 1618.63 826.787 1632.87 826.527 C 1633.93 742.449 1632.87 655.716 1632.87 571.405 L 1632.89 468.894 C 1632.92 452.048 1633.58 431.233 1632.87 414.691 L 877.827 414.691 C 865.094 414.812 848.144 414.193 835.992 414.691 z M 417.281 1630 L 708.561 1630 L 708.579 1356.11 C 708.582 1310.32 709.256 1262.65 708.561 1216.99 C 613.038 1216.59 512.612 1215.72 417.281 1216.99 L 417.318 1507.88 C 417.318 1547.72 418.086 1590.34 417.281 1630 z M 417.281 414.691 L 417.281 826.527 C 437.241 827.198 459.858 826.543 480.111 826.533 L 603.75 826.527 C 638.438 826.494 673.941 826.061 708.561 826.527 L 708.514 462.187 C 708.478 448.405 707.792 428.13 708.561 414.691 L 521.995 414.691 L 417.281 414.691 z M 417.281 954.995 C 416.382 967.431 417.23 989.445 417.251 1002.52 L 417.281 1089 L 708.561 1089 C 709.491 1076.72 708.631 1056.47 708.604 1043.37 L 708.561 954.995 C 612.343 956.115 513.667 955.037 417.281 954.995 z M 835.992 954.995 L 835.933 1043.42 C 835.931 1056.12 835.12 1077.22 835.992 1089 L 1632.87 1089 L 1632.87 954.995 L 920.787 954.975 C 898.042 954.961 857.128 953.599 835.992 954.995 z" fill="rgb(0,0,0)" transform="translate(0,0)"></path>
<metadata><recraft-signature>{"signed_by": "recraft", "signature_b64": "f8jJUUnSp2oOZzlvZlaajKDdo/ebU0VoQ80ZH9e78WSugtSF34fvPxNdV/0HkmH1jDwAR3OfpKiwAjdIsdklBQ==", "signing_algo": "Ed25519", "generation_timestamp": 1772996646, "identifier": "89739e69-780d-4b98-b73c-aebb2a3a3527"}</recraft-signature></metadata></svg>