<svg xmlns="http://www.w3.org/2000/svg" height="512" preserveAspectRatio="none" style="display: block;" version="1.1" viewBox="0 0 2048 2048" width="512">
<path d="M 856.5 198.443 C 911.581 194.149 932.641 242.512 958.474 282.014 L 1301.43 819.806 C 1412.7 998.38 1489.25 1098.38 1462.51 1326.36 C 1428.25 1618.34 1162.07 1856.27 867.25 1852.56 C 454.065 1847.68 142.581 1443.27 291.854 1044.23 C 307.989 1001.1 329.577 969.838 354.218 931.336 L 780.968 263.015 C 802.257 230.596 814.502 203.082 856.5 198.443 z M 474.741 1480.83 C 508.26 1449.33 543.181 1414.17 575.51 1381.13 C 605.411 1350.16 636.717 1320.96 667.035 1290.39 L 1070.83 887.675 C 1087.67 870.928 1113.04 846.734 1128.53 829.599 C 1107.28 800.914 1080.6 754.312 1060.65 722.844 L 936.127 527.475 C 913.369 492.316 887.803 451.762 863.244 417.64 L 506.833 965.554 C 481.024 1005.41 459.778 1037.14 441.658 1080.86 C 389.038 1207.83 395.868 1365.59 474.741 1480.83 z M 575.51 1592.48 C 612.097 1624.1 663.049 1654.83 708.549 1671.04 C 739.133 1681.75 769.466 1690.81 801.395 1695.62 C 1147.04 1747.71 1424.65 1376.92 1276.28 1067.43 C 1268.12 1050.56 1224.34 975.406 1210.63 960.703 C 1156.17 1019.57 1097.16 1074.74 1040.33 1131.35 L 622.442 1546.66 C 609.605 1559.26 586.388 1580.2 575.51 1592.48 z" fill="rgb(0,0,0)" transform="translate(0,0)"></path>
<path d="M 722.802 912.387 C 759.189 906.485 799.766 938.315 805.29 974.667 C 812.147 1019.8 785.017 1038.99 756.321 1067.54 C 726.917 1096.79 708.026 1129.75 665.991 1136.63 C 588.167 1145.96 552.758 1053.24 619.393 990.533 C 650.33 961.419 677.521 917.744 722.802 912.387 z" fill="rgb(0,0,0)" transform="translate(0,0)"></path>
<path d="M 1562.57 378.337 C 1609.17 369.685 1660.32 448.204 1683.75 481.576 C 1728.85 545.831 1781.67 624.645 1789.37 704.521 C 1801.54 830.702 1705.11 939.082 1580.25 948.002 C 1438.7 957.074 1328.55 825.898 1351.83 688.755 C 1370.85 598.484 1440.68 494.713 1498.18 425.719 C 1515.96 404.39 1533.27 382.272 1562.57 378.337 z M 1568.97 798.288 C 1692.99 792.708 1612.33 639.82 1568.97 589.087 C 1542.47 618.786 1498.25 692.355 1500.5 732.622 C 1502.66 771.321 1529.59 796.84 1568.97 798.288 z" fill="rgb(0,0,0)" transform="translate(0,0)"></path>
<metadata><recraft-signature>{"signed_by": "recraft", "signature_b64": "qTP1bT9fBymh2mbqwZpZGYU5C0MX9S3FA1ahFYTvqrag++5QS5z4/prBEAfBD46RDN9OAaNeQ2j57IdfRMpNCA==", "signing_algo": "Ed25519", "generation_timestamp": 1772989127, "identifier": "c34f9a30-5b06-4442-9130-edfc9971663a"}</recraft-signature></metadata></svg>