<svg xmlns="http://www.w3.org/2000/svg" height="512" preserveAspectRatio="none" style="display: block;" version="1.1" viewBox="0 0 2048 2048" width="512">
<path d="M 392.901 897.188 C 397.434 896.614 415.579 897.071 421.45 897.092 L 1124.6 897.147 C 1227.55 897.151 1279.31 904.175 1279.08 1024.61 L 1279.02 1549.4 C 1279.03 1583.23 1279.91 1619.65 1278.89 1653.04 C 1277.4 1701.44 1231.19 1738.2 1185.75 1746 C 1172.25 1746.9 1147.91 1746.06 1133.76 1746.04 L 431.486 1746.04 C 420.241 1746.04 401.632 1746.85 390.888 1745.08 C 313.459 1732.38 298.305 1671.3 298.329 1606.77 L 298.235 1031.55 C 298.11 964.624 311.164 906.672 392.901 897.188 z M 424.003 1622 L 1151.06 1622 C 1152.28 1605.43 1151.07 1578.07 1151.06 1560.14 L 1151.06 1025.92 L 424.003 1025.92 L 424.003 1622 z" fill="rgb(0,0,0)" transform="translate(0,0)"></path>
<path d="M 993.278 299.002 L 1591.29 299.03 C 1612.87 299.004 1639.84 297.4 1660.79 299.891 C 1757.47 311.382 1750.09 403.365 1749.99 473.012 L 1750.09 1313.5 C 1750.11 1373.26 1738.8 1429.6 1668.01 1445.21 C 1643.32 1450.65 1608.58 1448.57 1582.16 1448.57 L 1468.59 1448.51 C 1448.25 1448.47 1427.25 1447.92 1407.02 1448.49 C 1407.03 1409.26 1405.98 1365.72 1407.02 1326.99 L 1592.25 1326.99 C 1602.6 1326.86 1612.65 1326.72 1623.02 1326.99 L 1623.02 423.685 C 1602.57 422.919 1577.21 423.665 1556.25 423.668 L 1022.32 423.685 L 1022.32 762.122 C 983.124 762.134 936.418 760.804 898.014 762.122 L 897.952 429.261 C 897.921 356.493 912.601 310.737 993.278 299.002 z" fill="rgb(0,0,0)" transform="translate(0,0)"></path>
<metadata><recraft-signature>{"signed_by": "recraft", "signature_b64": "f1UKne2PD6ZkxpuZCl5zTeLLujzRO1qdi/YHn0Y86LSIBj/mmkvlmxCL1vvmd5+KqmpLZJK92UE5q+PWqCvBBA==", "signing_algo": "Ed25519", "generation_timestamp": 1772998479, "identifier": "4f30f984-d9c2-43d5-97bf-493297ad76bc"}</recraft-signature></metadata></svg>