<svg xmlns="http://www.w3.org/2000/svg" height="512" preserveAspectRatio="none" style="display: block;" version="1.1" viewBox="0 0 2048 2048" width="512">
<path d="M 914.503 255.51 L 1667.16 255.514 C 1707.99 255.739 1756.44 271.456 1759.25 319.565 C 1761.69 361.084 1761.03 404.902 1761 446.432 L 1760.97 1407.59 C 1759.04 1487.2 1696.58 1485.09 1639.63 1485.04 L 1375.65 1485 C 1346.32 1485 1315.15 1485.67 1286.02 1485 C 1305.71 1529.65 1347.07 1589.89 1373.12 1633.55 C 1399.26 1677.35 1435.67 1723.95 1383.7 1771.55 C 1353.63 1800.55 1310.83 1793.72 1272.43 1793.71 L 1143.25 1793.75 L 765.941 1793.78 C 748.647 1793.77 731.601 1794.15 714.214 1793.12 C 663.531 1790.77 628.284 1739.33 642.747 1691.22 C 649.374 1669.18 669.261 1641.4 681.413 1621.3 L 726.667 1544.76 C 738.296 1525.44 751.92 1504.67 762.42 1485 C 730.744 1487.18 659.509 1487.22 629.911 1483.74 C 389.312 1455.56 229.43 1204.57 310.885 974.352 C 339.267 894.133 382.722 841.991 448.077 789.262 L 448.009 365.514 C 447.771 273.466 460.195 255.382 553.68 255.462 L 914.503 255.51 z M 952.823 412.176 C 929.399 413.647 892.761 412.183 868.155 412.167 L 690.656 412.141 C 663.686 412.141 629.21 411.057 602.902 412.176 L 602.902 721.354 C 802.876 686.112 1005.94 818.881 1043.21 1020.77 C 1056.19 1091.06 979.902 1143.24 920.832 1098.32 C 888.442 1073.7 891.315 1034.46 875.16 1000.78 C 759.707 760.044 408.482 884.373 444.132 1129.78 C 459.188 1233.43 536.172 1312.33 639.299 1327.52 C 659.434 1330.48 675.655 1327.09 695.041 1327.1 C 767.32 1327.17 840.156 1325.16 912.387 1327.34 C 961.568 1328.81 999.817 1379.21 981.849 1427.08 C 976.325 1441.8 965.76 1457.52 957.47 1471.08 C 924.201 1525.49 891.522 1580.49 858.445 1635 L 1025.5 1635 L 1189.98 1635 L 1103.16 1487.04 C 1075.81 1440.22 1028.78 1377.35 1101.44 1336.6 C 1122.38 1324.86 1147.25 1327.05 1170.5 1327.05 L 1560.01 1327.16 C 1573.27 1327.22 1586.89 1328.24 1600.01 1327.12 C 1601.47 1273.38 1600 1211.62 1600 1157.33 L 1600.02 456.217 C 1600.02 442.724 1600.58 425.273 1600.01 412.176 L 1229.72 412.176 C 1332.58 628.503 1033.18 747.598 948.984 558.357 C 924.885 503.97 932.571 465.799 952.823 412.176 z" fill="rgb(0,0,0)" transform="translate(0,0)"></path>
<metadata><recraft-signature>{"signed_by": "recraft", "signature_b64": "9CY1BNbiPQKDHeuOofjqf/H0Dj84svrrHYnHrD2z9mrwiccU5aJCS8z3fcvzcPbNI8Kw7rKsfrq2qXeak1kXDw==", "signing_algo": "Ed25519", "generation_timestamp": 1772989997, "identifier": "b0d9a8a7-9ac3-48c2-b54e-a8eccfdfec91"}</recraft-signature></metadata></svg>