<svg xmlns="http://www.w3.org/2000/svg" height="512" preserveAspectRatio="none" style="display: block;" version="1.1" viewBox="0 0 2048 2048" width="512">
<path d="M 1067.38 346.902 C 1116.18 346.98 1158.3 341.957 1204.41 361.313 C 1283.44 393.132 1300.97 453.465 1333.92 521.727 L 1715.98 1331.39 C 1724.77 1350.34 1734.47 1368.95 1742.68 1388.24 C 1789.25 1497.62 1741.65 1634.81 1629.96 1681.87 C 1584.22 1701.15 1541.01 1698.96 1492.73 1698.99 L 1274.91 1699.01 C 1241.8 1699 1208.09 1702.37 1176.98 1688.74 C 1124.87 1665.91 1105.08 1603.26 1128.36 1552.69 C 1160.87 1482.07 1247.23 1498.04 1310.24 1498.04 L 1490.49 1497.88 C 1518.06 1497.89 1550.37 1507.78 1561.82 1482.05 C 1553.26 1458.6 1532.58 1419.56 1521.23 1395.87 L 1259.23 838.417 C 1212.82 741.221 1165.93 645.311 1121.04 547.337 C 1077.66 548.411 1029.7 547.355 985.997 547.337 L 927.117 547.337 L 517.698 1421.03 C 508.457 1441.1 497.823 1461.05 490.971 1482.05 L 495.898 1491.49 C 509.268 1501.21 529.757 1498.1 545.866 1498 L 822.61 1498.05 C 956.278 1498.35 959.996 1674.77 847.368 1697.26 C 831.8 1700.37 808.006 1699.19 791.667 1699.06 L 577.406 1698.98 C 488.899 1698.98 415.107 1704.56 346.812 1631.44 C 293.003 1573.83 266.665 1483.72 298.229 1408.75 C 316.692 1364.9 338.914 1322.21 359.051 1279.14 L 725.455 494.565 C 762.601 415.305 803.78 352.473 904.47 347.341 C 954.41 344.796 1016.33 345.241 1067.38 346.902 z" fill="rgb(0,0,0)" transform="translate(0,0)"></path>
<metadata><recraft-signature>{"signed_by": "recraft", "signature_b64": "zSl29WOgNLO+06GU7vYDq/SiYv21mNtL8IWJ6t5ywsRCcr0u2aUOuG2oP3mH0mRcOdXiWqmhMOz1fcVNA9N+DQ==", "signing_algo": "Ed25519", "generation_timestamp": 1772999841, "identifier": "94aa8013-b4ff-4933-a700-aea7e686caa6"}</recraft-signature></metadata></svg>