<svg xmlns="http://www.w3.org/2000/svg" height="512" preserveAspectRatio="none" style="display: block;" version="1.1" viewBox="0 0 2048 2048" width="512">
<path d="M 409.786 344.995 C 501.01 343.789 594.886 345.014 686.35 345.016 L 1595.31 344.955 C 1656.51 344.97 1705.82 358.702 1705.84 431.11 L 1705.85 1415.99 C 1705.8 1451.33 1708.61 1481.43 1681.42 1508.52 C 1629.72 1560.01 1543.91 1528.82 1535.89 1456.84 C 1534.61 1445.27 1535.28 1432.9 1535.33 1421.21 L 1535.51 512.999 C 1505.26 514.231 1466.08 513.005 1434.95 513 L 617.25 512.999 C 581.833 513.069 545.323 513.487 509.997 512.999 C 509.344 526.361 509.887 542.07 509.958 555.578 L 509.997 1535 L 1200.43 1534.97 C 1228.9 1534.97 1258.4 1534.23 1286.62 1535.54 C 1382.41 1539.97 1394.35 1681.51 1302.28 1703.2 C 1289.88 1706.12 1270.5 1705.06 1257.51 1705.05 L 490.198 1705.04 C 380.382 1705.07 342.114 1701.07 342.081 1586.79 L 342.085 523.296 C 342.008 454.344 322.235 360.632 409.786 344.995 z" fill="rgb(0,0,0)" transform="translate(0,0)"></path>
<metadata><recraft-signature>{"signed_by": "recraft", "signature_b64": "GIoztD/IfODneH7uhSBmH2eY9nef6agrG0OCDMY34RKFGth0+GH5uFpE1Yq25eZlml2PTcIwKrltCmMbXQ+kDQ==", "signing_algo": "Ed25519", "generation_timestamp": 1772998990, "identifier": "ef61e735-dc50-4f09-8f48-8cb95bb98ee4"}</recraft-signature></metadata></svg>