<svg xmlns="http://www.w3.org/2000/svg" height="512" preserveAspectRatio="none" style="display: block;" version="1.1" viewBox="0 0 2048 2048" width="512">
<path d="M 1332.53 294.014 C 1388.06 289.917 1439.04 317.339 1472.75 359.581 C 1476.57 363.021 1483.76 375.392 1487.19 377.599 C 1537.14 409.815 1594.81 434.943 1645.14 465.798 C 1669.28 482.768 1652.11 526.281 1628.06 532.751 C 1588.01 542.421 1467.07 540.326 1421.62 541.918 C 1331.45 545.078 1302.42 560.886 1305.97 655.571 C 1309.15 740.608 1329.97 823.946 1357.16 904.202 C 1384.24 986.889 1430.2 1069.68 1423.31 1158.83 C 1409.16 1334.53 1241.7 1443.64 1089.49 1494.03 C 1089.36 1515.47 1084.32 1562.62 1097.43 1579.7 C 1120.67 1590.73 1194.71 1613.18 1208.8 1625.46 C 1226.5 1640.89 1219.1 1673.09 1204.48 1687.91 C 1190.44 1702.15 1167.92 1699.29 1149.69 1699.11 C 1147.07 1719.34 1140.41 1737.73 1119.78 1746.16 C 1089.74 1758.42 977.703 1729.5 946.596 1716.83 C 898.926 1692.49 932.873 1654.05 936.771 1623.4 C 938.431 1610.34 938.066 1597.32 938.076 1584.18 L 938.016 1526.72 C 840.767 1526.56 748.484 1515.26 667.648 1454.4 C 618.316 1417.25 594.026 1364.79 558.233 1315.43 C 534.733 1283.03 512.588 1256.17 485.457 1226.54 C 455.789 1193.38 364.179 1145.8 411.063 1092.38 C 438.052 1061.62 489.177 1072.4 525.343 1073.61 C 623.81 1076.91 664.613 1047.02 746.535 1016.69 C 817.624 990.382 896.358 972.39 972.654 975.066 C 1026.18 976.943 1107.26 991.211 1144.97 942.407 C 1159.13 924.082 1165.88 903.644 1158.33 880.936 C 1109.76 734.685 1109.4 487.863 1206.03 367.167 C 1239.8 325.957 1278.58 299.267 1332.53 294.014 z" fill="rgb(0,0,0)" transform="translate(0,0)"></path>
<path d="M 1106.93 1007.73 C 1160.23 995.652 1211.05 935.252 1195.23 879.424 C 1158.34 749.254 1139.87 543.559 1212.48 420.979 C 1273.24 316.29 1386.94 296.136 1457.83 396.426 C 1438.52 446.398 1425.06 463.971 1398.52 506.184 C 1290.46 509.737 1266.13 565.551 1270.25 664.471 C 1274.48 766.132 1302.77 867.715 1339.6 962.342 C 1373.23 1048.74 1406.41 1126.03 1373.84 1219.4 C 1295.65 1443.6 863.084 1587.12 676.228 1415.49 C 642.685 1384.68 619.826 1341.75 594.187 1304.47 C 564.193 1260.87 530.726 1219.97 492.434 1183.39 C 469.812 1161.79 380.062 1101.98 479.221 1109.91 C 545.725 1115.22 586.868 1144.19 638.129 1182.58 C 772.136 1282.92 926.69 1326.63 1067.78 1207.49 C 1079.38 1197.7 1186.97 1098.05 1114.02 1105.39 C 1110.77 1103.61 1118.09 1082.13 1118.29 1077.19 C 1119.34 1050.87 1116.19 1031.74 1106.93 1007.73 z" fill="rgb(241,239,237)" transform="translate(0,0)"></path>
<path d="M 1366.27 372.398 C 1373.54 370.954 1381.02 373.544 1385.85 379.173 C 1390.67 384.803 1392.08 392.597 1389.54 399.561 C 1387 406.525 1380.9 411.576 1373.58 412.774 C 1362.53 414.583 1352.07 407.199 1350.07 396.181 C 1348.08 385.163 1355.28 374.58 1366.27 372.398 z" fill="rgb(0,0,0)" transform="translate(0,0)"></path>
<path d="M 592.706 1105.39 C 625.947 1104.83 680.423 1087.2 710.241 1072.73 C 778.61 1038.54 851.503 1019.66 927.493 1013.37 C 987.468 1008.4 1047.69 1018.48 1106.93 1007.73 C 1116.19 1031.74 1119.34 1050.87 1118.29 1077.19 C 1118.09 1082.13 1110.77 1103.61 1114.02 1105.39 C 1112.1 1106.12 1109.62 1107.96 1108.45 1109.64 C 1012.74 1246.85 877.211 1280.8 729.228 1198.66 C 753.529 1191.29 851.65 1163.16 864.591 1145.68 C 875.734 1130.63 861.766 1113.33 844.814 1118.02 C 829.361 1122.29 814.311 1131.27 799.218 1137.02 C 761.214 1151.49 722.558 1163.04 682.676 1171.04 C 651.864 1149.49 624.913 1126.52 592.706 1105.39 z" fill="rgb(162,161,161)" transform="translate(0,0)"></path>
<path d="M 990.27 1521.71 L 992.25 1521.53 C 997.497 1530.26 989.54 1618.74 996.856 1634.54 C 1008.55 1669.8 1080.27 1681.1 1114.02 1699.11 C 1109.55 1719.32 1100.41 1714.58 1082.4 1712.72 C 1061.65 1710.21 968.921 1693.72 958.641 1681.67 C 952.736 1674.75 968.833 1646.25 971.182 1636.32 C 977.468 1609.76 974.522 1551.98 974.468 1521.71 L 990.27 1521.71 z" fill="rgb(250,164,57)" transform="translate(0,0)"></path>
<path d="M 1486.1 421.285 C 1493.77 425.71 1505.61 431.28 1513.83 435.584 L 1578.44 469.288 C 1588.54 474.506 1611.47 485.542 1619.59 492.37 L 1619.52 494.197 C 1612.77 500.786 1584.72 499.269 1574.25 499.209 C 1530.55 503.246 1484.93 503.908 1441.04 503.86 C 1460.51 476.91 1474.47 452.757 1486.1 421.285 z" fill="rgb(250,164,57)" transform="translate(0,0)"></path>
<path d="M 1055 1506.32 C 1062.03 1522.83 1042.84 1574.22 1068.15 1601.75 C 1084.35 1619.38 1245.1 1659.81 1157.54 1662.18 C 1122.19 1663.72 1055.85 1647.78 1033.55 1626.33 C 1025.11 1618.2 1029 1590.02 1029.01 1579.55 L 1029.11 1511.88 L 1055 1506.32 z" fill="rgb(203,103,20)" transform="translate(0,0)"></path>
<metadata><recraft-signature>{"signed_by": "recraft", "signature_b64": "ayanWhcK2lGrQil3qcO20V4o34Z1kC/2/Ut5/9p3IcH/52WylTlj8h0VNRAG4ZpY8q8IG3z6UGiqXfpr5uQmDQ==", "signing_algo": "Ed25519", "generation_timestamp": 1772997567, "identifier": "254a48c1-5120-4815-bd81-187fb87305b5"}</recraft-signature></metadata></svg>