<svg xmlns="http://www.w3.org/2000/svg" height="512" preserveAspectRatio="none" style="display: block;" version="1.1" viewBox="0 0 2048 2048" width="512">
<path d="M 975.706 854.287 C 1013.41 849.07 1054.47 884.116 1049.32 920.977 C 1046.32 942.476 1015.34 986.046 1003.2 1006.66 L 892.617 1191.98 C 852.481 1258.22 860.367 1277.68 776.693 1276.99 L 438.999 1276.93 L 438.999 1602.76 L 760.892 1602.7 C 779.078 1602.53 810.232 1599.93 826.273 1606.2 C 884.686 1629.03 885.98 1704.18 819.619 1725.98 L 379.018 1725.89 C 308.525 1725.5 313.047 1668.82 313.023 1615.17 L 313.176 1214.47 C 313.429 1149.34 362.837 1150.88 412.899 1150.97 L 686.751 1151.03 C 714.188 1151.04 747.224 1150.12 774.197 1151 C 786.607 1131.59 800.425 1106.11 812.473 1085.67 L 892.021 951.814 C 911.829 918.724 935.377 860.255 975.706 854.287 z" fill="rgb(0,0,0)" transform="translate(0,0)"></path>
<path d="M 1314.73 1025 C 1367.79 1018.35 1382 1061.18 1400.96 1099.27 L 1635.72 1562.3 L 1658.81 1605.84 C 1664.24 1615.9 1670.3 1625.98 1674.48 1636.45 C 1699.97 1700.18 1621.15 1759.62 1569.99 1708.38 C 1550.54 1688.89 1479 1532.01 1459.06 1496.01 L 1331.22 1496.01 C 1316.57 1496.77 1296.39 1496.06 1281.27 1496.05 L 1185.34 1496.01 C 1171.71 1525.75 1153.21 1558.62 1138.49 1588.78 L 1102.53 1661.03 C 1095.23 1675.86 1085.45 1701.38 1073.58 1712.88 C 1024.85 1760.06 949.698 1700 970.273 1641.21 C 978.295 1618.29 995.841 1588.92 1007.2 1566.59 L 1250.52 1091.06 C 1268.86 1055.83 1271.67 1034.18 1314.73 1025 z M 1248.92 1369.93 L 1322.29 1369.93 C 1346.27 1369.95 1371.84 1370.42 1395.68 1369.93 C 1389.43 1354.06 1330.06 1233.68 1322.29 1224.63 C 1308.57 1250.05 1295.64 1278.25 1282.34 1304.31 L 1259.74 1348.98 C 1256.78 1354.76 1251.32 1364.28 1248.92 1369.93 z" fill="rgb(0,0,0)" transform="translate(0,0)"></path>
<path d="M 609.583 532.357 C 745.398 524.83 861.535 628.969 868.803 764.798 C 876.071 900.627 771.711 1016.57 635.869 1023.57 C 500.392 1030.57 384.833 926.547 377.585 791.084 C 370.336 655.62 474.134 539.864 609.583 532.357 z M 635.541 896.203 C 701.471 889.863 749.676 831.12 743.026 765.22 C 736.376 699.32 677.408 651.392 611.54 658.352 C 546.108 665.265 498.566 723.758 505.172 789.222 C 511.778 854.685 570.047 902.501 635.541 896.203 z" fill="rgb(0,0,0)" transform="translate(0,0)"></path>
<path d="M 1441.39 310.456 C 1515.02 306.125 1509.04 378.957 1509.03 427.244 L 1509.02 538.642 C 1553.84 540.185 1643.59 532.458 1683.6 540.824 C 1733.58 551.277 1752.02 612.703 1716.71 649.131 C 1694.3 672.256 1657.77 666.084 1627.84 665.997 L 1509.02 666.008 C 1508.4 716.838 1508.82 768.444 1509.16 819.32 C 1509.43 860.778 1491.51 887.521 1448.77 895.75 C 1375.67 880.483 1385.25 840.581 1384.15 780.513 C 1383.45 742.491 1384.96 704.082 1384.2 666.008 L 1267.12 666.048 C 1222.91 666.195 1168.37 675.32 1154.32 618.999 C 1145.65 583.954 1166.68 546.563 1203.16 540.322 C 1222.01 537.097 1247.99 538.636 1267.48 538.641 L 1384.2 538.642 L 1384.17 421.227 C 1384.16 373.214 1375.17 318.108 1441.39 310.456 z" fill="rgb(0,0,0)" transform="translate(0,0)"></path>
<metadata><recraft-signature>{"signed_by": "recraft", "signature_b64": "hmpWBT3MrE6gRDCwomejXSI11daWpMoPG+4LXsYmf9/FKJRo9NO2PkGajWdGwUaKBcGgj6X6v86J7L2xLdOiAA==", "signing_algo": "Ed25519", "generation_timestamp": 1772990138, "identifier": "770d8830-878f-4350-bf8f-fb5fa0d62c9b"}</recraft-signature></metadata></svg>