<svg xmlns="http://www.w3.org/2000/svg" height="512" preserveAspectRatio="none" style="display: block;" version="1.1" viewBox="0 0 2048 2048" width="512">
<path d="M 1544.38 300.85 C 1563.09 300.891 1583.35 301.278 1601.75 300.327 C 1670.49 296.531 1733.63 348.655 1744.94 416.056 C 1747.33 430.28 1746.97 453.934 1747 468.483 L 1747.41 1604.58 C 1747.51 1670.65 1697.12 1733.96 1630.65 1744.11 C 1615.72 1746.39 1598.3 1745.85 1583 1745.82 L 506.25 1745.73 C 442.926 1745.9 392.238 1752.27 342.364 1703.64 C 304.154 1666.38 300.923 1629.78 300.948 1580.82 L 300.43 435.36 C 299.778 359.574 365.252 299.11 439.868 300.834 C 448.741 301.04 458.001 300.797 466.93 300.803 L 1544.38 300.85 z M 465.468 466.49 C 464.529 481.157 465.44 501.906 465.453 517.356 L 465.468 940.765 L 916.5 940.765 L 1096.86 940.765 L 1191.49 619.834 C 1205.82 570.616 1223.23 515.614 1236.03 466.49 C 1189.36 465.041 1133.72 466.503 1086.42 466.506 L 783.996 466.49 L 465.468 466.49 z M 465.468 1104.49 C 464.436 1204.37 465.473 1306.3 465.467 1406.32 L 465.448 1523.07 C 465.441 1540.94 464.664 1563.66 465.468 1580.94 L 671.5 1580.94 L 907.382 1580.94 C 935.265 1494.99 960.129 1403.24 985.981 1316.4 L 1029.22 1171.6 C 1035.55 1150.06 1043.38 1125.89 1048.72 1104.49 C 1026.96 1103.71 1001.98 1104.48 979.801 1104.49 L 842.491 1104.49 L 591.999 1104.51 C 551.351 1104.51 505.68 1105.55 465.468 1104.49 z M 1409.89 466.49 C 1405.09 477.603 1396.71 508.731 1393.03 521.398 L 1300.34 831.055 C 1289.89 866.504 1277.63 905.352 1267.85 940.765 L 1442.75 940.765 L 1583.01 940.765 L 1583.01 466.49 L 1409.89 466.49 z M 1225.73 1104.49 C 1224.25 1104.63 1221.75 1104.41 1220.71 1105.55 C 1220.01 1106.3 1091 1537.86 1081.57 1580.94 L 1439.5 1580.94 L 1583.01 1580.94 L 1583.01 1104.49 C 1544.25 1103.73 1503.25 1104.49 1464.24 1104.49 L 1225.73 1104.49 z" fill="rgb(0,0,0)" transform="translate(0,0)"></path>
<metadata><recraft-signature>{"signed_by": "recraft", "signature_b64": "V0QyIX/WlPOmp/YGBlJwovDQ5A09doPdxJoepHMkPamRHj4nVrFnu06De0m5i/He9pyzvaNMvy7nx5lXgMptCA==", "signing_algo": "Ed25519", "generation_timestamp": 1772997993, "identifier": "e80591f2-550a-41aa-8722-add60ae8491a"}</recraft-signature></metadata></svg>