<svg xmlns="http://www.w3.org/2000/svg" height="512" preserveAspectRatio="none" style="display: block;" version="1.1" viewBox="0 0 2048 2048" width="512">
<path d="M 807.261 244.029 C 876.38 239.268 943.435 264.712 993.644 311.006 C 1002.42 319.097 1009.45 326.387 1020.77 330.59 C 1047.12 327.066 1058.06 306.425 1078.69 291.872 C 1229.51 185.43 1438.57 271.291 1463.34 454.003 C 1519.76 455.905 1615.33 447.215 1665.54 459.121 C 1719.95 472.021 1770.22 522.876 1776.46 579.364 C 1779.73 608.979 1777.98 648.402 1777.99 679.194 L 1778.06 756.325 C 1778.11 825.94 1770.72 874.26 1707.49 911.562 C 1711.48 955.08 1707.27 1000.51 1707.51 1044.31 L 1707.51 1607.46 C 1707.72 1777.91 1652.93 1800.12 1492.43 1800.14 L 1325.5 1800.11 L 558.8 1800.15 C 493.2 1800.18 434.723 1808.74 384.333 1758.68 C 333.148 1707.84 340.065 1661.33 340.103 1596.32 L 340.138 907.88 C 266.769 857.663 270.475 815.069 270.483 735.685 L 270.554 619.056 C 271.016 517.847 329.894 452.68 432.978 453.987 C 483.428 454.626 533.757 453.437 583.996 454.003 C 590.434 341.557 700.564 256.698 807.261 244.029 z M 473.943 929.643 L 473.908 1571.67 C 473.89 1600.01 473.522 1628.41 475.2 1656.71 C 476.183 1673.29 520.811 1667.09 533.724 1667.04 L 853.5 1667 L 959.003 1667 L 959.003 929.643 L 583.996 929.643 L 473.943 929.643 z M 1570.21 1661.84 C 1578.26 1648.05 1574.34 1588.55 1574.34 1569.46 L 1574.3 929.643 L 1091 929.643 L 1091 1667 L 1503.21 1667.02 C 1518.78 1667.02 1558.21 1670.89 1570.21 1661.84 z M 406.49 788.799 C 420.801 802.124 452.336 796.647 472.49 796.586 L 944.64 796.547 L 959.003 796.547 L 959.003 588.223 C 852.383 586.891 742.688 588.229 635.873 588.228 L 491.487 588.215 C 468.519 588.21 442.627 587.508 419.94 588.223 C 397.736 593.659 406.472 644.937 406.481 665.234 L 406.49 788.799 z M 1091 588.223 L 1090.97 729.822 C 1090.96 747.088 1089.74 781.331 1091 796.547 L 1476.5 796.547 L 1639.02 796.547 L 1639.02 588.223 C 1622.38 588.971 1606.07 588.338 1589.44 588.249 L 1254.5 588.223 L 1091 588.223 z M 1208.56 380.39 C 1163.97 386.07 1128 412.15 1110.94 454.003 L 1235.5 454.003 L 1330.39 454.003 C 1310.9 412.202 1256.42 368.419 1208.56 380.39 z M 813.751 380.39 C 768.442 386.974 737.441 412.037 719.347 454.003 L 848.5 454.003 L 940.385 454.003 C 921.13 408.931 863.016 371.565 813.751 380.39 z" fill="rgb(0,0,0)" transform="translate(0,0)"></path>
<metadata><recraft-signature>{"signed_by": "recraft", "signature_b64": "09W58ZDnyiEPYgsyfuDX+D9s5w0n11Ki7Nb2IBixG3l5SNd5iL4ZkrK9j+UfWPj/yCniUjOLvIt0FhQWAUo+DA==", "signing_algo": "Ed25519", "generation_timestamp": 1772999165, "identifier": "68e4f4f8-de2a-4db9-bed4-ce6a8ec74ecb"}</recraft-signature></metadata></svg>