<svg xmlns="http://www.w3.org/2000/svg" height="512" preserveAspectRatio="none" style="display: block;" version="1.1" viewBox="0 0 2048 2048" width="512">
<path d="M 1389.84 554.629 C 1485.06 550.25 1463.71 581.02 1458.17 660.494 L 1419.89 1148.85 C 1414.99 1207.26 1413.31 1270.76 1401.48 1328.06 C 1375.88 1452.02 1271.76 1560.06 1149.25 1591.22 C 1127.25 1596.86 1108.04 1598.77 1086.81 1603.25 L 1086.81 1695 L 1217.18 1694.93 C 1238.06 1694.92 1260.6 1694 1281.24 1696.01 C 1318.51 1699.63 1316.22 1760.22 1279.18 1763.67 C 1254.65 1764.78 1229.05 1764.45 1204.5 1764.46 L 912.057 1764.47 C 884.572 1764.46 857.002 1764.94 829.5 1763.71 C 785.377 1761.74 783.205 1697.93 823.937 1695.29 C 842.228 1694.1 864.276 1695 883.368 1694.99 L 1019.01 1695 C 1019.41 1664.56 1018.98 1633.74 1019.01 1603.25 C 847.681 1582.26 713.422 1462.58 693.875 1285.71 L 610.951 1285.76 C 538.171 1285.75 476.489 1280.44 421.367 1222.69 C 373.666 1172.72 358.346 1123.91 358.356 1057.03 L 358.401 958.905 C 358.39 936.112 357.663 911.924 359.638 889.503 C 368.331 790.791 452.839 701.718 552.821 693.418 C 585.031 691.267 618.435 692.072 650.649 692.125 L 645.643 622.492 C 643.671 596.951 634.075 554.915 673.058 554.652 L 1001.52 554.629 L 1128.52 554.629 C 1166.92 554.641 1213.6 553.286 1251.33 554.629 C 1259.19 555.642 1284.68 554.72 1294.31 554.697 L 1389.84 554.629 z M 1251.33 893.298 C 1277.81 897.49 1303.97 901.695 1330.26 906.987 C 1312.03 962.216 1308.52 1034.01 1304.27 1091.77 L 1295 1205.15 C 1292.34 1242.02 1291.73 1279.99 1281.32 1315.54 C 1214.71 1543.04 883.034 1540.83 820.946 1308.54 C 812.984 1278.75 812.019 1252.83 809.88 1222.33 L 803.76 1128.49 C 799.852 1067.52 794.393 1005.99 791.485 945.014 C 900.306 947.831 974.545 913.449 1078.23 895.494 C 1088.12 893.781 1098.66 893.092 1108.3 890.432 L 1116.96 888.008 C 1122.08 876.404 1126.36 863.415 1131.17 851.531 L 1204.86 673.797 C 1211.65 657.663 1219.69 639.404 1225.16 622.971 L 715.04 622.971 C 715.121 649.452 719.918 690.993 721.891 718.662 L 754.362 1179.33 C 757.485 1222.49 758.217 1279.57 769.448 1320.11 C 848.514 1605.47 1244.68 1610.66 1332.19 1328.08 C 1347.12 1279.85 1346.52 1225.04 1350.78 1174.19 L 1383.82 722.704 C 1385.71 694.944 1390.09 651.85 1389.88 625.407 L 1389.84 622.971 L 1358.44 622.971 C 1328.99 712.093 1275.93 807.287 1251.33 893.298 z M 557.5 1218.98 C 599.089 1217.86 646.08 1219.02 688.229 1218.98 L 660.178 814.462 C 659.112 797.806 658.013 775.371 655.729 759.214 C 625.866 759.32 589.599 757.968 560.602 759.214 C 456.207 773.804 425.523 847.91 425.668 939.537 L 425.76 999.831 C 425.794 1103.76 433.579 1198.81 557.5 1218.98 z" fill="rgb(33,28,28)" transform="translate(0,0)"></path>
<path d="M 1116.96 888.008 C 1129.83 890.408 1140.66 889.311 1153.58 888.454 C 1185.98 886.305 1219.2 888.995 1251.33 893.298 C 1277.81 897.49 1303.97 901.695 1330.26 906.987 C 1312.03 962.216 1308.52 1034.01 1304.27 1091.77 L 1295 1205.15 C 1292.34 1242.02 1291.73 1279.99 1281.32 1315.54 C 1214.71 1543.04 883.034 1540.83 820.946 1308.54 C 812.984 1278.75 812.019 1252.83 809.88 1222.33 L 803.76 1128.49 C 799.852 1067.52 794.393 1005.99 791.485 945.014 C 900.306 947.831 974.545 913.449 1078.23 895.494 C 1088.12 893.781 1098.66 893.092 1108.3 890.432 L 1116.96 888.008 z" fill="rgb(168,18,21)" transform="translate(0,0)"></path>
<path d="M 1225.16 622.971 C 1266.7 621.278 1316.32 621.571 1358.44 622.971 C 1328.99 712.093 1275.93 807.287 1251.33 893.298 C 1219.2 888.995 1185.98 886.305 1153.58 888.454 C 1140.66 889.311 1129.83 890.408 1116.96 888.008 C 1122.08 876.404 1126.36 863.415 1131.17 851.531 L 1204.86 673.797 C 1211.65 657.663 1219.69 639.404 1225.16 622.971 z" fill="rgb(52,52,54)" transform="translate(0,0)"></path>
<path d="M 1001.52 554.629 C 1010.05 461.933 1042.69 393.8 1119.74 336.22 C 1146.17 317.808 1180.32 290.685 1214.34 295.675 C 1248.13 300.63 1273.01 329.699 1267.07 364.497 C 1256.77 424.734 1149.37 420.052 1128.52 554.629 L 1001.52 554.629 z" fill="rgb(231,63,41)" transform="translate(0,0)"></path>
<path d="M 1378.98 261.466 C 1412.7 277.588 1454.98 294.393 1489.79 307.191 C 1471.59 357.29 1445.75 413.501 1425.27 463.601 C 1416.6 484.798 1393.71 533.451 1389.84 554.629 L 1294.31 554.697 C 1284.68 554.72 1259.19 555.642 1251.33 554.629 C 1283.49 483.565 1313.06 410.519 1344.33 339.092 C 1353.37 318.447 1368.97 278.943 1378.98 261.466 z" fill="rgb(52,52,54)" transform="translate(0,0)"></path>
<metadata><recraft-signature>{"signed_by": "recraft", "signature_b64": "dfp0ZgmiqVtwSzvcgM369kR2rpzoM/RbRjjmxmTomhH9J+sl3kjPuNHDyTu4jAE+GRWjYBaFH2ujFCnl0njyAQ==", "signing_algo": "Ed25519", "generation_timestamp": 1772995722, "identifier": "a239bfa9-75bf-4918-a842-4408e9e9a2a2"}</recraft-signature></metadata></svg>