<svg xmlns="http://www.w3.org/2000/svg" height="512" preserveAspectRatio="none" style="display: block;" version="1.1" viewBox="0 0 2048 2048" width="512">
<path d="M 518.3 420.448 C 541.621 419.71 569.253 420.438 592.982 420.44 L 1495.71 420.398 C 1512.46 420.376 1535.7 419.913 1552.01 422.513 C 1649.83 438.106 1732.67 518.099 1741.89 618.572 C 1743.61 637.258 1743.01 660.689 1743 679.833 L 1743.03 1355.93 C 1743.05 1488.26 1672.74 1593.03 1530.96 1605.04 L 607.258 1605.06 C 571.801 1605.06 528.474 1607.05 493.848 1602.57 C 394.038 1589.67 308.253 1497.19 304.816 1396.37 C 302.892 1339.91 304.077 1281.44 304.076 1224.62 L 304.038 720.989 C 304.036 692.156 303.354 663.147 304.552 634.354 C 309.515 515.088 400.182 425.932 518.3 420.448 z M 464.983 713.875 C 464.307 763.414 464.98 814.618 464.983 864.262 L 464.973 1310.44 C 464.92 1364.07 451.413 1443.89 530.361 1443.69 L 1479.21 1443.59 C 1585.89 1443.62 1585.05 1407.29 1585.04 1310 L 1585.02 713.875 L 1583.51 714.733 C 1535.35 742.506 1478.12 788.921 1433.09 822.193 L 1170.86 1014.64 C 1145.96 1032.66 1121.47 1051.51 1096.6 1069.24 C 1017.39 1125.68 1005.82 1105.53 935.165 1056.67 C 889.172 1024.87 844.707 990.34 799.256 957.751 L 613.25 823.032 C 564.977 788.094 511.784 750.458 464.983 713.875 z M 538.399 580.286 C 579.87 609.092 621.531 638.115 662.341 667.855 L 966.672 889.846 C 981.883 900.853 1008.46 920.929 1024.17 929.044 C 1039.05 921 1065.34 899.861 1080.04 889.115 L 1422.19 640.989 C 1448.11 622.287 1484.44 599.192 1508.16 580.286 L 633.5 580.286 C 602.088 580.739 569.87 580.338 538.399 580.286 z" fill="rgb(26,25,26)" transform="translate(0,0)"></path>
<path d="M 464.983 713.875 C 463.308 701.836 465.198 684.469 465.028 671.95 C 465.288 590.762 480.866 580.242 561.406 580.24 L 633.5 580.286 C 602.088 580.739 569.87 580.338 538.399 580.286 C 579.87 609.092 621.531 638.115 662.341 667.855 L 966.672 889.846 C 981.883 900.853 1008.46 920.929 1024.17 929.044 C 1039.05 921 1065.34 899.861 1080.04 889.115 L 1422.19 640.989 C 1448.11 622.287 1484.44 599.192 1508.16 580.286 C 1530.59 580.06 1551.02 577.015 1568.61 594.796 C 1592.15 618.582 1585.41 678.954 1585.02 713.875 L 1583.51 714.733 C 1535.35 742.506 1478.12 788.921 1433.09 822.193 L 1170.86 1014.64 C 1145.96 1032.66 1121.47 1051.51 1096.6 1069.24 C 1017.39 1125.68 1005.82 1105.53 935.165 1056.67 C 889.172 1024.87 844.707 990.34 799.256 957.751 L 613.25 823.032 C 564.977 788.094 511.784 750.458 464.983 713.875 z" fill="rgb(37,140,248)" transform="translate(0,0)"></path>
<metadata><recraft-signature>{"signed_by": "recraft", "signature_b64": "P7cgts6wnCbqefgHnYzlIY+afIge1xnWuygSG7Eeel/TNnV88LnYJdxbprKrIcauXXVTUuvpfuBO4ZYvj1BPBw==", "signing_algo": "Ed25519", "generation_timestamp": 1772999724, "identifier": "485ac752-c4ec-4660-93cf-af3c5e818c1e"}</recraft-signature></metadata></svg>