<svg xmlns="http://www.w3.org/2000/svg" height="512" preserveAspectRatio="none" style="display: block;" version="1.1" viewBox="0 0 2048 2048" width="512">
<path d="M 673.438 281.993 C 685.846 281.315 703.966 281.903 716.712 281.932 L 1332.08 281.964 C 1432.33 281.882 1512.54 315.634 1550.54 416.942 C 1560.71 444.073 1562.31 474.536 1565.79 503.04 L 1625.43 1008.98 C 1639.23 1124.37 1654.97 1239.82 1667.57 1355.38 C 1692.81 1536.41 1588.25 1714.74 1404.08 1754.92 C 1393.68 1757.19 1381 1759.24 1371.23 1762.93 C 1350.49 1761.8 1332.68 1762.87 1312 1762.92 L 758.627 1762.97 C 719.401 1762.97 681.048 1764.11 642.588 1755.55 C 502.573 1724.36 394.406 1601.52 376.731 1459.73 C 369.891 1404.85 378.345 1364.64 384.725 1310.78 L 482.88 522.224 C 486.072 495.791 487.657 467.262 493.212 441.352 C 512.714 350.397 582.642 293.117 673.438 281.993 z M 520.648 1279 L 716.5 1279 L 1529.48 1279 C 1511.6 1150.15 1496.85 1018.73 1481.68 889.506 L 1433.24 492.438 C 1425.41 427.114 1401.8 406.347 1334.99 409.882 L 744.569 409.895 C 705.555 409.845 625.977 404.143 618.982 461.296 C 585.699 733.212 549.757 1006.73 520.648 1279 z M 1474.66 1572.68 C 1516.17 1523.86 1539.76 1475.61 1539.01 1408.98 L 507.505 1408.98 C 508.149 1476.44 525.886 1526.24 574.106 1574.7 C 642.99 1643.94 717.045 1638.04 806.066 1637.95 L 1325.31 1637.9 C 1381.51 1638.19 1435.48 1612.41 1474.66 1572.68 z" fill="rgb(0,0,0)" transform="translate(0,0)"></path>
<metadata><recraft-signature>{"signed_by": "recraft", "signature_b64": "atJQlhVJZkV8TU+df4CJ+3dzISXXqSctj/4qgurQfazQvJwont+BVWPFkOr6NVckAiAgWPeA6kdZUpOKzZM7BQ==", "signing_algo": "Ed25519", "generation_timestamp": 1772999425, "identifier": "99ed90f8-8aab-42ab-aa77-4e005a98cb9d"}</recraft-signature></metadata></svg>