<svg xmlns="http://www.w3.org/2000/svg" height="512" preserveAspectRatio="none" style="display: block;" version="1.1" viewBox="0 0 2048 2048" width="512">
<path d="M 1726.52 294.296 C 1770.28 291.855 1791.21 322.179 1791.3 361.784 L 1791.39 1396.67 C 1791.43 1480.96 1795.83 1479.72 1718.08 1517.65 L 1330.02 1707.26 C 1261.71 1741.16 1264.93 1751.66 1193.01 1715.81 L 789.107 1515.15 C 749.712 1536.87 701.265 1559.18 660.142 1579.56 L 464.735 1676.97 C 432.692 1692.69 365.028 1731.81 334.004 1738.76 C 301.829 1743.77 263.72 1720.76 258.743 1687.38 C 256.432 1671.88 257.038 1654.41 257.036 1638.65 L 256.992 669.081 C 256.972 640.236 256.62 611.063 257.28 582.556 C 258.384 534.842 310.736 521.795 346.493 504.102 L 477.64 439.185 C 566.807 395.619 655.189 351.022 745.995 310.877 C 792.211 290.445 797.19 294.482 840.287 315.501 L 894.744 342.06 C 1009.75 397.576 1123.69 455.726 1239.32 509.919 C 1264.59 521.763 1307.85 494.261 1331.35 482.588 L 1636.65 334.063 C 1657.77 323.872 1707.3 297.246 1726.52 294.296 z M 383.001 630.209 L 383.014 1334.95 C 383.014 1359.28 380.888 1560.78 384.603 1570.31 L 385.963 1570.91 L 388.269 1569.88 C 403.204 1564.37 421.824 1554.67 436.509 1547.62 L 671.72 1430.78 C 690.363 1421.26 708.959 1412.34 727.336 1402.26 L 727.33 501.495 C 727.311 490.578 727.59 473.237 726.445 462.537 L 724.614 462.083 C 611.316 515.232 494.868 573.424 383.001 630.209 z M 1321.67 630.209 C 1322.65 695.129 1321.67 762.739 1321.68 827.929 L 1321.79 1531.5 C 1321.79 1543.99 1320.82 1557.55 1321.67 1569.88 C 1343.79 1560.42 1365.48 1548.44 1387.26 1538.06 L 1579.31 1444.39 C 1604.38 1432.1 1641.08 1411.71 1665.62 1402.26 C 1666.36 1376.13 1665.62 1346.81 1665.62 1320.38 L 1665.64 508.936 C 1665.65 502.589 1666.58 465.266 1665.62 462.083 C 1650.11 467.784 1633.35 476.693 1618.4 484.135 L 1321.67 630.209 z M 855.149 1406.83 C 961.443 1453.51 1068.29 1512.16 1174.24 1562.13 C 1179.31 1564.52 1186.81 1568.34 1192.03 1569.88 C 1193.47 1467.19 1192.01 1360.43 1192.01 1257.48 L 1192.03 630.209 C 1168.47 619.406 1145.56 607.253 1122.29 595.834 L 930.21 501.35 C 905.57 489.452 880.288 475.747 855.149 465.122 L 855.149 1406.83 z" fill="rgb(0,0,0)" transform="translate(0,0)"></path>
<metadata><recraft-signature>{"signed_by": "recraft", "signature_b64": "W3nlbVd5Aro4YKOy7QxHZHYtegxXDSqmqRlwYn3VfvJndEfBkk5kkZn7p+liwnHgalf+GoZUQjYk3swN94IHCg==", "signing_algo": "Ed25519", "generation_timestamp": 1772999506, "identifier": "49e4de8e-53fd-4ea9-8e37-197f17c5da81"}</recraft-signature></metadata></svg>