<svg xmlns="http://www.w3.org/2000/svg" height="512" preserveAspectRatio="none" style="display: block;" version="1.1" viewBox="0 0 2048 2048" width="512">
<path d="M 391.698 269.362 C 450.344 264.593 497.333 347.88 531.21 388.001 L 723.704 615.75 C 1011.63 958.864 1301.97 1300.4 1584.66 1647.92 C 1624.42 1696.8 1595 1758.53 1535.57 1770.93 C 1473.03 1773.12 1451.76 1725.16 1415.28 1681.81 L 340.873 394.983 C 299.719 345.643 329.244 278.148 391.698 269.362 z" fill="rgb(14,14,14)" transform="translate(0,0)"></path>
<path d="M 1169 319.101 L 1461.88 319.043 C 1598.98 319.769 1721.74 418.656 1725.81 560.562 C 1726.28 576.763 1726.02 593.026 1726.02 609.181 L 1725.94 911.113 C 1725.52 1031.84 1626.2 1156.14 1500.53 1160.53 C 1467.11 1161.69 1429 1161.64 1395.08 1160.98 C 1333.64 1141.77 1296.99 1081.11 1342.97 1027.91 C 1375.62 990.132 1443.64 1004.11 1489.86 1001.61 C 1528.09 999.534 1565.32 963.945 1571.08 926.564 C 1574.3 905.661 1572.95 878.581 1572.94 857.028 L 1572.96 626.654 C 1573 566.358 1578.92 508.05 1506.26 483.678 C 1490.09 478.254 1450.03 480.298 1430.52 480.307 L 1165.96 479.899 C 1071.87 479.248 1052.38 330.651 1169 319.101 z" fill="rgb(14,14,14)" transform="translate(0,0)"></path>
<path d="M 630.699 1035.4 C 687.785 1029.46 710.353 1090.3 731.184 1129.52 L 935.012 1519.46 C 941.533 1531.88 950.717 1546.55 954.977 1559.43 C 982.041 1641.24 872.016 1699.01 822.115 1638.38 C 805.773 1618.52 792.584 1585.98 780.482 1562.28 L 730.849 1467.28 L 646.75 1467.28 L 544.552 1467.28 C 512.793 1521.83 469.979 1654.07 407.508 1662.39 C 348.505 1670.26 300.317 1607.73 323.097 1552.72 C 333.536 1527.51 348.854 1501.59 361.267 1477.33 L 549.066 1110.34 C 569.403 1069.77 582.542 1042.08 630.699 1035.4 z M 615.854 1323.98 C 622.696 1323.88 629.957 1323.65 636.75 1323.98 L 658.157 1323.98 C 655.346 1317.31 640.685 1286.47 636.75 1281.55 C 629.993 1293.33 620.327 1311.26 615.854 1323.98 z" fill="rgb(14,14,14)" transform="translate(0,0)"></path>
<path d="M 1200.1 720.369 C 1228.62 720.409 1298.37 717.264 1321.72 723.635 C 1402.75 745.746 1394.88 870.283 1300.38 873.811 L 1238.72 873.866 C 1222.75 873.859 1195.21 874.992 1180.51 870.587 C 1096.36 845.359 1108.34 725.349 1200.1 720.369 z" fill="rgb(14,14,14)" transform="translate(0,0)"></path>
<metadata><recraft-signature>{"signed_by": "recraft", "signature_b64": "SLIKnL07rFCZJlvpUOVmq115AjbbjsSHkJwYUpJfOMmGl/U8GK66Fno9FobbWxQZYJLYoc5O/L7govEm7WCFCw==", "signing_algo": "Ed25519", "generation_timestamp": 1772990071, "identifier": "b4d3c3d1-394c-4bf6-8522-7cbac01a46a4"}</recraft-signature></metadata></svg>