<svg xmlns="http://www.w3.org/2000/svg" height="512" preserveAspectRatio="none" style="display: block;" version="1.1" viewBox="0 0 2048 2048" width="512">
<path d="M 1408.38 562.949 L 1756.43 562.843 C 1814.21 562.466 1870.11 574.083 1869.58 645.296 L 1869.94 1381.12 C 1870.07 1454.77 1810.54 1462.65 1752.99 1462.65 L 646.5 1462.62 L 261.975 1462.74 C 225.634 1462.82 184.95 1435.77 181.687 1396.96 C 179.3 1368.58 180.087 1337.19 180.128 1308.51 L 180.259 652.5 C 180.484 570.5 221.281 562.942 292.214 562.93 L 1324.26 562.94 C 1351.83 562.932 1380.96 562.331 1408.38 562.949 z M 1799.71 1417.04 C 1841.76 1397.06 1824.75 1307.33 1824.73 1263.52 L 1824.71 808.451 C 1824.71 778.866 1839.06 612.557 1802.33 609.84 C 1770.13 607.459 1718.44 608.546 1687.71 608.547 L 377.164 608.555 C 338.642 608.554 291.732 607.294 253.73 608.564 C 217.186 610.849 225.929 653.144 225.954 678.795 L 225.991 1255.08 C 225.977 1290.49 208.509 1417.55 258.645 1417.27 L 1746.16 1417.08 C 1759.92 1417.08 1787.04 1418.66 1799.71 1417.04 z" fill="rgb(0,0,0)" transform="translate(0,0)"></path>
<path d="M 704.401 1053.04 C 734.327 1052.97 768.066 1051.49 797.453 1054.34 C 870.838 1061.48 879.895 1163.33 826.619 1203 C 831.476 1226.72 876.236 1295.94 847.958 1305.77 C 820.581 1315.29 814.478 1294.55 807.059 1274.44 C 796.537 1256.45 786.813 1231.11 777.245 1211.72 L 725.982 1211.72 C 724.799 1229.03 729.743 1285.49 722.706 1297 C 713.908 1311.38 684.112 1311.15 681.095 1292.56 C 679.206 1280.92 679.978 1268.45 679.964 1256.67 L 679.938 1120.39 C 679.956 1089.85 669.947 1057.59 704.401 1053.04 z M 725.982 1166.58 C 748.63 1166.76 789.013 1172.62 807.059 1158 C 812.141 1151.82 814.77 1147.88 814.963 1139.49 C 816.361 1083.91 769.084 1098.98 725.982 1098.78 L 725.982 1166.58 z" fill="rgb(0,0,0)" transform="translate(0,0)"></path>
<path d="M 814.999 728.527 C 854.07 728.172 895.087 733.021 897.576 784.446 C 899.33 820.697 898.888 843.057 864.451 862.996 C 874.536 885.007 928.12 958.156 867.877 952.299 C 850.836 950.643 836.231 906.164 827.58 891.799 L 826.619 890.222 C 823.583 881.311 821.53 877.382 814.999 870.866 C 804.793 871.299 791.432 870.896 780.99 870.866 C 781.081 891.415 784.588 930.197 775.182 946.124 C 769.395 955.923 732.321 956.06 734.451 931.449 C 734.997 925.14 734.024 902.096 734.017 894.012 L 734.023 773.737 C 734.069 711.839 750.85 728.314 814.999 728.527 z M 780.99 826.998 C 795.924 827.081 834.046 829.343 846.019 823.593 C 878.62 765.21 810.663 773.27 780.99 773.003 L 780.99 826.998 z" fill="rgb(0,0,0)" transform="translate(0,0)"></path>
<path d="M 988.08 1053.04 C 1021.74 1052.19 1019.88 1059.5 1030.84 1090.19 L 1075.11 1218.07 C 1082.79 1239.89 1092.02 1263.42 1098.15 1285.69 C 1101.26 1297 1063.1 1344.81 1040.5 1253.49 C 1029.39 1253.82 1017 1253.53 1005.79 1253.49 C 987.777 1253.7 970.275 1253.74 952.262 1253.49 C 948.512 1265.44 940.041 1301.37 926.478 1306.55 C 917.283 1310.76 895.418 1302.53 895.356 1291.34 C 895.265 1274.98 906.331 1249.99 911.571 1234.21 L 961.391 1088.21 C 968.171 1069.03 967.416 1059.3 988.08 1053.04 z M 966.806 1209.04 L 997.161 1209.04 L 1025.01 1209.04 C 1023.18 1203.36 996.985 1123.51 997.161 1123.76 C 984.904 1152.64 977.569 1180.17 966.806 1209.04 z" fill="rgb(0,0,0)" transform="translate(0,0)"></path>
<path d="M 1185.92 1152.91 C 1214.83 1123.29 1239.27 1087.74 1268.84 1058.49 C 1286.23 1041.29 1315.82 1055.28 1306.42 1079.11 C 1300.46 1094.2 1252.21 1143.08 1239 1160.58 L 1238.36 1161.44 C 1261.91 1188.15 1297.36 1244.11 1316.1 1274.44 C 1319.35 1278.42 1319.39 1278.86 1321.19 1283.79 C 1317.61 1299.61 1311.53 1304.22 1296.76 1308.64 C 1269.32 1299.98 1230.15 1223.64 1208.27 1198.39 C 1200.01 1204.49 1190.89 1213.98 1185.92 1223 C 1186.03 1252.91 1196.59 1300.43 1163.96 1308.64 C 1151.58 1306.42 1148.89 1305.38 1140.01 1297.13 C 1139.34 1289.02 1139.95 1275.29 1139.97 1266.71 L 1139.99 1121.63 C 1139.93 1095.43 1130.68 1059.9 1158.98 1051.88 C 1199.79 1048.09 1185.45 1121.62 1185.92 1152.91 z" fill="rgb(0,0,0)" transform="translate(0,0)"></path>
<path d="M 562.808 728.527 C 726.716 717.941 690.247 823.527 641.372 798.159 C 638.76 794.126 632.675 775.144 630.729 774.828 C 616.474 772.509 569.137 769.559 559.764 781.397 C 557.402 789.62 548.531 904.73 568.815 904.709 C 624.765 904.65 637.804 921.883 637.002 873.513 C 611.823 873.838 587.149 874.987 595.992 839.97 C 607.036 819.255 663.322 824.463 674.286 829.885 C 690.025 837.669 684.688 912.446 678.516 923.94 C 658.766 960.724 591.429 956.854 557.789 950.138 C 501.001 938.8 512.962 875.763 512.92 833.55 C 512.871 784.815 505.171 742.925 562.808 728.527 z" fill="rgb(0,0,0)" transform="translate(0,0)"></path>
<path d="M 1447.31 725.535 C 1464.05 725.199 1482.19 725.114 1497.99 730.958 C 1524.68 740.826 1543.89 770.565 1532.99 798.159 C 1500.38 827.73 1495.75 778.122 1482.76 772.899 C 1470.22 767.857 1440.26 767.977 1426.96 773.003 C 1418.69 780.858 1417.88 785.167 1415.26 795.719 C 1426.44 838.847 1477.62 803.057 1515.21 834.959 C 1560.08 873.039 1538.79 947.095 1467.25 951.999 L 1463.98 952.023 C 1436.57 952.203 1411.13 954.132 1390.35 933.132 C 1368.46 910.715 1360.59 873.071 1404.54 877.241 C 1417.84 884.946 1413.72 892.282 1421.92 902.278 C 1430.18 912.357 1495.56 914.579 1492.28 884.185 C 1488.04 854.047 1452.06 866.037 1430.84 861.716 C 1350.52 848.587 1341.05 729.804 1447.31 725.535 z" fill="rgb(0,0,0)" transform="translate(0,0)"></path>
<path d="M 1025.01 725.535 C 1034.94 725.261 1049.95 727.296 1054.31 737.75 C 1080.26 800.001 1103.25 863.688 1126.89 926.865 C 1129.04 937.019 1123.3 947.456 1114 951.136 C 1083.16 963.345 1075.22 919.933 1068.88 899.991 L 1040.5 899.991 L 997.161 899.991 C 990.808 915.905 984.675 944.325 968.545 951.363 C 953.468 957.942 932.953 944.153 938.575 926.592 C 942.89 913.111 948.105 900.167 952.806 886.833 L 989.16 786.524 C 997.239 764.739 1001.5 730.773 1025.01 725.535 z M 1012.22 854.866 L 1035.88 854.866 L 1052.28 854.866 C 1049.51 846.266 1035.68 800.448 1031.4 795.719 C 1024.22 815.222 1019.03 835.577 1012.22 854.866 z" fill="rgb(0,0,0)" transform="translate(0,0)"></path>
<path d="M 1215.41 818.353 L 1217.81 814.752 C 1234.83 789.573 1256.16 766.902 1274.51 742.69 C 1287.92 725.007 1301.75 719.965 1321.19 733.124 C 1331.35 753.094 1313.96 765.763 1301.71 780.532 L 1266.02 823.593 C 1284 856.8 1306.91 889.074 1328.28 920.153 C 1330.93 925.271 1331.94 929.044 1333.67 934.492 C 1328.2 954.412 1309.58 958.907 1292.59 946.217 C 1282.99 939.046 1244.19 874.148 1238.36 862.996 C 1227.93 872.334 1222.21 878.032 1215.41 890.222 C 1215.46 905.352 1218.77 937.269 1207.94 947.052 C 1195.22 958.548 1179.45 951.783 1170.15 940.272 C 1169.59 931.629 1170.09 919.697 1170.1 910.773 L 1170.2 747.104 C 1170.27 731.66 1180.07 728.061 1193.49 725.535 C 1221.04 728.718 1215.57 750.279 1215.47 771.6 L 1215.41 818.353 z" fill="rgb(0,0,0)" transform="translate(0,0)"></path>
<path d="M 499.623 1053.04 L 580.756 1052.92 C 598.863 1052.9 642.906 1045.83 642.188 1074.92 C 641.449 1104.9 607.268 1098.97 586.426 1098.9 L 526.879 1098.78 C 527.144 1118.94 525.504 1137.88 526.879 1158 C 542.27 1158.49 604.309 1154.52 613.406 1161.86 C 625.415 1171.57 622.709 1188.22 613.141 1198.39 C 596.852 1207.45 547.097 1203.04 526.879 1203 C 526.897 1228.25 526.929 1253.56 526.808 1278.8 C 526.694 1302.82 518.813 1307.13 495.925 1305.81 C 483.341 1298.44 481.237 1292.82 481.187 1278.34 C 480.956 1210.44 480.746 1142.49 481.268 1074.6 C 481.366 1061.76 487.306 1056 499.623 1053.04 z" fill="rgb(0,0,0)" transform="translate(0,0)"></path>
<path d="M 1456.78 1051.88 C 1493.16 1048.53 1554.59 1050.79 1591.14 1052.88 C 1606.57 1052.79 1645.3 1099.3 1543 1098.78 L 1543 1262.25 L 1543 1292.1 C 1536.01 1304.13 1532.3 1305.58 1519.25 1308.64 C 1498.02 1302.65 1496.63 1295.56 1496.59 1274.76 L 1496.62 1098.78 C 1473.51 1095.29 1416.68 1102.92 1442.64 1057.36 C 1448.72 1053.7 1449.76 1053.22 1456.78 1051.88 z" fill="rgb(0,0,0)" transform="translate(0,0)"></path>
<path d="M 1372.79 1051.88 C 1395.04 1049.92 1399.28 1060.68 1400.28 1079.82 C 1401.55 1104.14 1402.22 1287.26 1398.79 1295.9 C 1396.08 1302.72 1389.5 1305.85 1383.26 1308.64 C 1371.56 1310.38 1360.5 1303.46 1356.44 1292.39 C 1353.57 1284.57 1354.21 1097.42 1355.26 1074.69 C 1355.88 1061.33 1360.02 1056.5 1372.79 1051.88 z" fill="rgb(0,0,0)" transform="translate(0,0)"></path>
<metadata><recraft-signature>{"signed_by": "recraft", "signature_b64": "qT05XgVQh7ibgUEGKtc8WjRUlfv8TzhHcHutt60ThDir6zIhhvutvQBADPsTUM1NRpxgUcqp9bCJthumvuPLDw==", "signing_algo": "Ed25519", "generation_timestamp": 1772999035, "identifier": "cd3a3e5d-6e64-4ee0-98e9-a8202e3f2658"}</recraft-signature></metadata></svg>