<?xml version="1.0" encoding="UTF-8"?>
<svg viewBox="0 0 500 500" xmlns="http://www.w3.org/2000/svg">
  <!-- Plate -->
  <ellipse cx="250" cy="380" rx="180" ry="25" fill="#FFFFFF" stroke="#000" stroke-width="3.5"/>
  
  <!-- Gravlax slices -->
  <ellipse cx="200" cy="280" rx="50" ry="20" fill="#FF8800" stroke="#000" stroke-width="3.5"/>
  <ellipse cx="280" cy="290" rx="50" ry="20" fill="#FF8800" stroke="#000" stroke-width="3.5"/>
  <ellipse cx="240" cy="320" rx="45" ry="18" fill="#FF8800" stroke="#000" stroke-width="3.5"/>
  
  <!-- Dill garnish -->
  <path d="M170 260 Q175 250 180 260 Q185 250 190 260" 
        fill="none" stroke="#66AA00" stroke-width="2"/>
  <path d="M172 255 Q177 245 182 255" 
        fill="none" stroke="#66AA00" stroke-width="1"/>
  
  <path d="M250 270 Q255 260 260 270 Q265 260 270 270" 
        fill="none" stroke="#66AA00" stroke-width="2"/>
  <path d="M252 265 Q257 255 262 265" 
        fill="none" stroke="#66AA00" stroke-width="1"/>
  
  <path d="M320 300 Q325 290 330 300 Q335 290 340 300" 
        fill="none" stroke="#66AA00" stroke-width="2"/>
  <path d="M322 295 Q327 285 332 295" 
        fill="none" stroke="#66AA00" stroke-width="1"/>
  
  <!-- Mustard sauce dots -->
  <circle cx="220" cy="300" r="3" fill="#FFD700"/>
  <circle cx="260" cy="310" r="3" fill="#FFD700"/>
  <circle cx="200" cy="320" r="3" fill="#FFD700"/>
  
  <!-- Lemon slice -->
  <circle cx="350" cy="300" r="25" fill="#FFD700" stroke="#000" stroke-width="3.5"/>
  <path d="M325 300 L375 300 M350 275 L350 325 M338 288 L362 312 M338 312 L362 288" 
        stroke="#FFFFFF" stroke-width="2"/>
</svg>