<svg xmlns="http://www.w3.org/2000/svg" height="512" preserveAspectRatio="none" style="display: block;" version="1.1" viewBox="0 0 2048 2048" width="512">
<path d="M 721.952 634.152 C 815.957 628.836 928.129 657.248 1019.03 681.255 C 1099.15 702.414 1190.94 744.522 1273.06 708.981 C 1288.64 668.704 1318.54 666.688 1351.41 688.251 C 1383.23 680.107 1428.74 680.606 1460.84 688.251 C 1481.03 665.854 1508.05 611.917 1542.85 651.354 C 1561.1 672.033 1567.33 714.348 1564.55 740.7 C 1614.38 788.381 1632.38 810.991 1657.63 872.188 C 1671.33 905.384 1707.32 946.69 1733.97 969.785 C 1746.85 980.949 1770.37 988.297 1762.65 1009.93 C 1756.59 1026.92 1708.85 1053.72 1691.81 1058.02 C 1636.47 1071.99 1525.08 1024.65 1462.29 1022.9 C 1414.31 1021.55 1378.06 1034.67 1335.11 1054.03 C 1327.18 1087.99 1325.13 1115.38 1309.06 1148.96 C 1281.41 1206.71 1255.05 1225.53 1276.89 1300.22 C 1372.56 1349.15 1289.64 1353.41 1235.96 1354.58 C 1169.02 1356.03 1171.03 1284.8 1157.17 1273.45 C 1149.7 1285.06 1152.51 1326.47 1156.88 1340.42 C 1175.41 1349.65 1203.25 1353.26 1212.9 1374.4 C 1220.05 1415.34 1147.81 1405.11 1122.89 1404.74 C 1040.09 1403.54 1030.55 1337.3 1004.31 1275.34 C 994.874 1253.06 969.743 1220.43 953.02 1201.05 C 897.956 1202.47 842.68 1207.5 786.768 1209.04 C 755.876 1209.9 723.417 1204.74 692.674 1205.8 C 685.001 1221.2 667.831 1251.05 658.565 1264.62 C 694.911 1273.8 723.858 1312.43 671.341 1320 C 639.363 1324.6 580.208 1328.08 557.072 1302.71 C 540.906 1284.98 530.56 1220.39 531.027 1195.41 C 492.279 1215.46 439.628 1281.26 433.881 1322.14 C 432.747 1327.76 447.354 1333.17 451.91 1334.14 C 481.253 1340.36 485.585 1382.79 452.677 1386.01 C 380.676 1391.03 320.173 1383.45 305.964 1300.97 C 298.246 1256.17 319.691 1212.46 317.228 1167.85 C 316.294 1150.92 305.112 1129.29 301.307 1112.44 C 280.681 1039.58 276.743 958.277 300.759 885.857 C 355.409 721.057 558.903 632.965 721.952 634.152 z M 431.935 1264.62 C 494.828 1149.62 503.434 1145.28 619.406 1161.81 C 697.327 1172.91 774.927 1178.63 853.64 1180.05 C 872.291 1180.38 898.114 1178.26 915.909 1180.02 C 928.827 1178.43 945.823 1179.3 958.853 1180.02 C 914.271 1069.78 1090.61 940.803 1169.98 1088.28 C 1178.5 1104.11 1183.21 1118.2 1189.21 1134.79 C 1225.33 1083.58 1349.83 1012.31 1407.82 1001.78 C 1480.17 988.635 1555.54 1023.08 1625.11 1039.21 C 1670.2 1049.66 1678.82 1055.06 1719.6 1033.94 C 1681.04 1015.43 1690.75 989.4 1724.91 973.454 L 1723.82 972.568 C 1675.18 932.147 1630.86 851.421 1592.46 801.699 C 1537.86 731.003 1465.26 707.283 1380.42 708.981 C 1425.63 780.84 1429.98 760.593 1490.67 811.617 C 1525.44 840.855 1548.23 879.331 1579.08 912.441 C 1595.2 929.741 1604.95 953.676 1580.06 970.316 C 1557.9 985.133 1525 968.447 1502.97 959.166 L 1447.74 936.237 C 1417.41 923.977 1372.35 909.769 1345.63 894.732 C 1302.44 870.426 1270.65 788.682 1269.49 740.7 C 1255.19 742.597 1243.02 746.123 1229.09 748.721 C 1160.84 761.445 1099.28 744.882 1033.78 726.296 C 933.152 697.739 826.916 672.669 721.937 673.975 C 469.089 677.122 276.705 834.237 314.286 1098.2 C 322.286 1154.39 333.455 1161.17 322.971 1223.82 C 355.941 1255.37 386.305 1266.52 431.935 1264.62 z M 1509.21 898.507 C 1505.55 899.614 1502.77 902.618 1501.96 906.356 C 1501.15 910.095 1502.42 913.981 1505.29 916.51 C 1508.16 919.039 1512.18 919.816 1515.78 918.538 C 1521.18 916.626 1524.07 910.754 1522.28 905.312 C 1520.5 899.87 1514.69 896.849 1509.21 898.507 z M 1516.53 670.198 C 1501.88 673.034 1493.41 686.638 1485.76 698.588 C 1500.2 703.288 1507.21 705.626 1520.69 713.064 C 1526.93 716.525 1531.77 719.239 1538.32 722.025 C 1537.53 707.615 1535.44 672.358 1516.53 670.198 z M 1307.73 722.025 C 1336.61 693.398 1364.2 746.845 1371.99 749.244 C 1379.16 734.203 1339.14 694.773 1315.36 698.588 C 1276.39 707.863 1293.61 773.592 1311.65 796.65 L 1311.49 794.973 C 1309.22 771.842 1295.49 744.071 1307.73 722.025 z" fill="rgb(40,38,39)" transform="translate(0,0)"></path>
<path d="M 958.853 1180.02 C 914.271 1069.78 1090.61 940.803 1169.98 1088.28 C 1178.5 1104.11 1183.21 1118.2 1189.21 1134.79 C 1147.5 1176.16 1128.51 1252.82 1127.38 1310.79 C 1126.28 1366.87 1149.34 1361.33 1189.21 1379.1 C 1161.32 1384.07 1107.39 1385.62 1083.26 1368.22 C 1043.01 1339.2 1033.59 1228.01 966.954 1180.02 C 958.09 1180.42 923.952 1181.1 915.909 1180.02 C 928.827 1178.43 945.823 1179.3 958.853 1180.02 z" fill="rgb(53,52,52)" transform="translate(0,0)"></path>
<path d="M 1729.38 983.572 C 1746.41 985.038 1763.58 1008.99 1733.37 1018.65 C 1705.59 1017.76 1706.21 994.253 1729.38 983.572 z" fill="rgb(53,52,52)" transform="translate(0,0)"></path>
<metadata><recraft-signature>{"signed_by": "recraft", "signature_b64": "TouVMZOrbKmx/MsPJy2pVdNCXg22/K5JucD0/gfLCZC5hZYSzboSXr0ODqcPX6rKzW18xN5x7Xbl/LGLAhToBQ==", "signing_algo": "Ed25519", "generation_timestamp": 1772997349, "identifier": "b741b90d-9f10-477e-9301-707e3c5a41b1"}</recraft-signature></metadata></svg>