<svg xmlns="http://www.w3.org/2000/svg" height="512" preserveAspectRatio="none" style="display: block;" version="1.1" viewBox="0 0 2048 2048" width="512">
<path d="M 744.665 613.004 C 910.338 609.108 1079.25 646.152 1241.46 675.964 C 1341.98 695.911 1443.73 706.446 1544.64 723.666 C 1644.25 736.181 1659.65 787.933 1689.92 866.864 C 1716.61 936.444 1737.53 1007.93 1760.04 1078.85 L 1788.2 1169.18 C 1813.45 1250.17 1828.1 1317.6 1747.43 1375.65 C 1720.94 1394.71 1691.36 1398.89 1660.65 1407.32 C 1515.85 1445.27 1391.55 1438.34 1246.8 1413.93 C 984.92 1362.57 763.463 1299.42 501.791 1410.15 C 419.725 1444.88 326.943 1432.63 293.637 1337.59 C 284.017 1310.02 285.723 1278.21 282.317 1249.39 C 274.578 1150.6 262.863 1051.79 248.256 953.829 C 240.948 904.81 233.083 867.377 258.052 821.341 C 312.241 721.43 560.28 639.47 661.85 622.3 C 689.999 617.514 716.26 616.051 744.665 613.004 z M 423.512 1349.51 C 449.961 1349.07 469.386 1332.62 495.778 1327.71 C 498.867 1317.42 504.315 1307.62 509.129 1297.94 C 540.268 1235.36 538.734 1186.01 553.909 1120.44 C 595.484 944.955 752.974 797.606 901.17 702.551 C 875.222 697.579 851.725 697.34 825.755 692.947 C 823.247 694.12 783.683 731.294 777.418 736.907 C 696.333 809.572 576.568 911.611 539.106 1014.95 C 516.715 1076.72 520.877 1130.68 510.662 1191.77 C 498.846 1262.43 471.053 1301.77 423.512 1349.51 z M 963.193 1279.77 C 979.474 1279.4 989.929 1281.18 1005.84 1283.48 C 1015.7 1265.08 1032.33 1247.07 1041.62 1228.55 C 1119.98 1072.32 1147.4 1052.44 1273.9 947.972 C 1328.26 903.084 1392.98 847.143 1436.58 791.556 C 1427.12 790.092 1417.56 788.814 1408.08 787.478 C 1373.34 821.162 1293.47 874.413 1251.17 903.63 C 1164.55 963.457 1072.04 1034.86 1040.08 1140.58 C 1033.96 1160.85 1030.79 1174.53 1022.61 1194.05 C 1015.58 1210.84 964.311 1274.14 963.193 1279.77 z M 1198.72 1319.46 C 1207.71 1321.83 1220.49 1324.9 1229.19 1327.71 C 1240.81 1295.98 1260.15 1260.45 1275.74 1230.61 C 1364.35 1061.04 1476.28 1004.26 1615.47 896.483 L 1607.81 878.23 C 1402.61 934.548 1243.53 1112.65 1198.72 1319.46 z M 610.053 1289.73 C 628.079 1285.8 644.87 1282.85 663.015 1279.77 C 694.606 1212.76 699.16 1213.84 716.277 1138.38 C 752.524 979.042 906.225 824.701 1032.03 720.694 C 1019.73 718.442 1006.53 716.901 993.963 714.752 C 961.204 748.713 899.964 785.003 861.922 823.188 C 797.888 885.768 734.512 951.999 703.023 1037.4 C 684.68 1087.14 686.097 1138.02 671.406 1186.07 C 662.24 1216.04 626.825 1261.53 610.053 1289.73 z M 1391.46 1349.51 C 1400.65 1350.68 1411.06 1352.27 1420.2 1353.07 C 1438.89 1352.64 1494.91 1286.05 1506.36 1269.87 C 1557.61 1197.49 1603.99 1147.94 1686.22 1110.5 C 1681.94 1099.24 1679.19 1085.8 1674.43 1073.31 C 1508.97 1121.16 1502.25 1226.71 1409.25 1329.26 C 1403.69 1335.38 1396.42 1343.16 1391.46 1349.51 z M 1176.39 746.02 C 1143.17 773.785 1105.64 798.084 1071.9 825.392 C 960.655 915.428 902.991 970.092 872.535 1109.52 C 867.926 1131.04 867.497 1155.18 858.336 1175.91 C 848.151 1198.97 794.475 1263.8 793.143 1268.27 C 813.127 1266.67 827.985 1267.46 848.027 1268.27 C 897.986 1210.79 895.749 1149.47 922.392 1082.63 C 962.859 981.114 1045.87 904.837 1120.27 828.161 L 1166.25 781.099 C 1176.02 771.126 1187.95 758.193 1198.72 749.785 C 1191.52 748.974 1183.58 747.34 1176.39 746.02 z M 670.793 702.551 C 656.197 704.736 629.775 709.759 615.986 714.752 C 486.922 839.735 395.486 938.707 352.936 1124.18 C 352.583 1145.14 354.891 1173.45 359.654 1193.9 C 401.194 1124.33 416.983 1091.97 443.08 1015.15 C 476.578 916.553 531.256 830.376 608.608 760.361 C 613.664 755.784 669.47 705.134 670.793 702.551 z" fill="rgb(55,54,54)" transform="translate(0,0)"></path>
<path d="M 1436.58 791.556 C 1460.74 795.92 1485.19 798.636 1509.22 802.436 C 1573.73 812.636 1588.78 815.862 1607.81 878.23 C 1402.61 934.548 1243.53 1112.65 1198.72 1319.46 C 1142.35 1301.54 1066 1293.44 1005.84 1283.48 C 1015.7 1265.08 1032.33 1247.07 1041.62 1228.55 C 1119.98 1072.32 1147.4 1052.44 1273.9 947.972 C 1328.26 903.084 1392.98 847.143 1436.58 791.556 z" fill="rgb(244,121,89)" transform="translate(0,0)"></path>
<path d="M 1198.72 749.785 C 1267.93 767.276 1341.32 771.497 1408.08 787.478 C 1373.34 821.162 1293.47 874.413 1251.17 903.63 C 1164.55 963.457 1072.04 1034.86 1040.08 1140.58 C 1033.96 1160.85 1030.79 1174.53 1022.61 1194.05 C 1015.58 1210.84 964.311 1274.14 963.193 1279.77 C 927.639 1272.4 884.448 1270.36 848.027 1268.27 C 897.986 1210.79 895.749 1149.47 922.392 1082.63 C 962.859 981.114 1045.87 904.837 1120.27 828.161 L 1166.25 781.099 C 1176.02 771.126 1187.95 758.193 1198.72 749.785 z" fill="rgb(244,121,89)" transform="translate(0,0)"></path>
<path d="M 1615.47 896.483 C 1632.52 940.62 1665.98 1028.47 1674.43 1073.31 C 1508.97 1121.16 1502.25 1226.71 1409.25 1329.26 C 1403.69 1335.38 1396.42 1343.16 1391.46 1349.51 C 1355.49 1350.15 1266.12 1335.23 1229.19 1327.71 C 1240.81 1295.98 1260.15 1260.45 1275.74 1230.61 C 1364.35 1061.04 1476.28 1004.26 1615.47 896.483 z" fill="rgb(244,121,89)" transform="translate(0,0)"></path>
<path d="M 1032.03 720.694 C 1070.67 726.858 1141.22 735.159 1176.39 746.02 C 1143.17 773.785 1105.64 798.084 1071.9 825.392 C 960.655 915.428 902.991 970.092 872.535 1109.52 C 867.926 1131.04 867.497 1155.18 858.336 1175.91 C 848.151 1198.97 794.475 1263.8 793.143 1268.27 C 746.015 1269.24 709.484 1273.53 663.015 1279.77 C 694.606 1212.76 699.16 1213.84 716.277 1138.38 C 752.524 979.042 906.225 824.701 1032.03 720.694 z" fill="rgb(244,121,89)" transform="translate(0,0)"></path>
<path d="M 670.793 702.551 C 720.841 688.953 774.698 695.662 825.755 692.947 C 823.247 694.12 783.683 731.294 777.418 736.907 C 696.333 809.572 576.568 911.611 539.106 1014.95 C 516.715 1076.72 520.877 1130.68 510.662 1191.77 C 498.846 1262.43 471.053 1301.77 423.512 1349.51 C 392.963 1348.69 367.759 1322.94 366.732 1292.66 C 365.657 1260.96 358.947 1225.24 359.654 1193.9 C 401.194 1124.33 416.983 1091.97 443.08 1015.15 C 476.578 916.553 531.256 830.376 608.608 760.361 C 613.664 755.784 669.47 705.134 670.793 702.551 z" fill="rgb(244,121,89)" transform="translate(0,0)"></path>
<path d="M 901.17 702.551 C 930.072 704.394 964.797 711.017 993.963 714.752 C 961.204 748.713 899.964 785.003 861.922 823.188 C 797.888 885.768 734.512 951.999 703.023 1037.4 C 684.68 1087.14 686.097 1138.02 671.406 1186.07 C 662.24 1216.04 626.825 1261.53 610.053 1289.73 C 574.673 1299.23 527.644 1310.08 495.778 1327.71 C 498.867 1317.42 504.315 1307.62 509.129 1297.94 C 540.268 1235.36 538.734 1186.01 553.909 1120.44 C 595.484 944.955 752.974 797.606 901.17 702.551 z" fill="rgb(244,121,89)" transform="translate(0,0)"></path>
<path d="M 1420.2 1353.07 C 1438.89 1352.64 1494.91 1286.05 1506.36 1269.87 C 1557.61 1197.49 1603.99 1147.94 1686.22 1110.5 C 1704.05 1163.28 1770.32 1297.19 1682.67 1317.26 C 1627.16 1332.83 1476.43 1365.1 1420.2 1353.07 z" fill="rgb(244,121,89)" transform="translate(0,0)"></path>
<path d="M 352.936 1124.18 C 343.67 1097.71 337.031 1011.35 332.903 978.586 C 327.568 936.237 310.563 886.637 338.035 848.782 C 366.208 809.96 554.061 724.587 615.986 714.752 C 486.922 839.735 395.486 938.707 352.936 1124.18 z" fill="rgb(244,121,89)" transform="translate(0,0)"></path>
<metadata><recraft-signature>{"signed_by": "recraft", "signature_b64": "Cr3WfNQMKRH09TSwr40RF5U5sjBwhag/LKD7rpNVQhwZcmMOdxo7dyf08q5ULS8RsSbxSIYKd7TedMQklBgxBg==", "signing_algo": "Ed25519", "generation_timestamp": 1772995740, "identifier": "ad49223a-22b7-4f28-96a3-03bcd88ebb60"}</recraft-signature></metadata></svg>