<svg xmlns="http://www.w3.org/2000/svg" height="512" preserveAspectRatio="none" style="display: block;" version="1.1" viewBox="0 0 2048 2048" width="512">
<defs>
	<linearGradient gradientUnits="userSpaceOnUse" id="Gradient1" x1="1213.42" x2="688.211" y1="892.741" y2="343.95">
		<stop class="stop0" offset="0" stop-color="rgb(52,182,50)" stop-opacity="1"></stop>
		<stop class="stop1" offset="1" stop-color="rgb(96,213,78)" stop-opacity="1"></stop>
	</linearGradient>
</defs>
<path d="M 681.773 201.134 C 697.965 200.396 759.756 222.907 777.63 228.619 L 1068.88 320.043 C 1097.65 328.797 1130.52 337.184 1157.55 349.726 C 1275.87 404.639 1364.12 541.997 1363.84 672.443 C 1363.55 815.19 1298.24 925.664 1200.07 1021.86 L 1120.38 1098.92 C 1102.09 1116.32 1084.24 1132.04 1066.49 1150.32 C 1067.86 1184.4 1066.52 1229.68 1066.52 1264.6 L 1066.49 1481.82 L 1237.61 1481.82 C 1272.79 1439.28 1329.66 1384.23 1370.38 1346.6 L 1370.33 1278.79 C 1370.35 1262.33 1370.09 1239.84 1372.64 1223.93 C 1387.94 1128.67 1466.75 1069.19 1558.9 1059.36 C 1562.42 1058.98 1619.57 1060.59 1621.84 1060.96 L 1621.86 750.5 C 1621.85 738.379 1621.32 726.323 1622.2 714.23 C 1625.94 662.566 1703.65 672.762 1706.47 710.665 C 1708.87 742.847 1708.02 775.999 1708.03 808.275 L 1708.05 1146.33 C 1708.1 1211.43 1713.59 1270.27 1670.54 1325.79 C 1593.81 1424.73 1530.54 1387.49 1440.97 1399.02 C 1428.33 1408.58 1402.36 1435.73 1390.73 1447.51 L 1317.68 1520.86 C 1268.81 1570.03 1281.44 1564.97 1212.23 1564.93 L 1115.1 1564.78 C 1100.74 1564.73 1083.98 1563.46 1070.02 1564.83 L 1067.96 1564.62 C 1063.11 1573.44 1068.55 1707.63 1066.52 1730.25 C 1064.02 1758.11 1079.23 1819.47 1024.32 1821.89 C 970.295 1824.27 980.97 1756.57 980.983 1719.58 L 981.018 1564.83 C 920.304 1564.82 859.571 1564.76 798.861 1564.85 C 767.019 1564.9 753.042 1543.74 732.045 1522.71 L 675.397 1465.04 C 654.167 1443.31 632.686 1423.22 611.363 1400.99 C 586.408 1401.41 559.958 1400.15 535.216 1401.03 C 439.855 1405.51 351.328 1330.51 342.068 1235.23 C 339.249 1206.22 340.993 1168.96 340.983 1139.22 L 340.97 799.056 C 340.978 770.044 340.554 741.026 341.586 712.078 C 342.295 676.365 390.702 663.717 413.52 687.896 C 428.151 703.4 424.978 730.171 424.972 749.935 L 424.999 1060.96 C 502.441 1060.77 555.035 1055.32 617.41 1112.7 C 690.663 1180.09 673.234 1257.73 675.005 1346.6 C 721.941 1387.38 764.592 1439.15 810.847 1481.82 L 981.018 1481.82 C 982.424 1449.9 981.046 1405.43 981.042 1372.38 L 981.018 1150.32 C 970.384 1135.23 961.082 1128.33 947.839 1115.77 L 912.328 1081.79 C 773.631 949.256 655.734 862.747 641.401 654.068 C 639.616 628.091 640.594 601.14 640.606 575.054 L 640.606 310.059 C 640.591 265.34 627.304 214.178 681.773 201.134 z" fill="rgb(0,0,0)" transform="translate(0,0)"></path>
<path d="M 724.949 297.254 C 730.059 298.736 735.323 300.462 740.418 302.06 C 775.88 312.9 810.361 324.685 845.485 336.176 L 1058.76 403.013 C 1149.98 431.92 1197.78 462.033 1247 550.921 C 1317.91 678.984 1262.79 835.245 1168.03 934.343 C 1138.66 965.134 1097.37 1007.28 1066.49 1035.12 C 1067.78 978.331 1066.49 915.849 1066.51 858.692 L 1066.54 797.92 C 1066.55 787.364 1067.16 776.363 1066.09 765.848 C 1062.07 726.162 981.669 694.085 980.902 793.353 C 980.281 873.784 982.16 954.732 981.018 1035.12 L 979.814 1033.63 C 969.23 1020.74 952.321 1005.73 940.32 993.663 C 832.69 885.443 739.452 820.647 726.16 648.809 C 719.565 563.55 723.577 448.779 724.949 362.301 C 724.411 341.593 724.942 318.168 724.949 297.254 z" fill="url(#Gradient1)" transform="translate(0,0)"></path>
<path d="M 724.949 297.254 C 730.059 298.736 735.323 300.462 740.418 302.06 C 718.687 303.229 727.441 344.002 724.949 362.301 C 724.411 341.593 724.942 318.168 724.949 297.254 z" fill="rgb(97,208,77)" transform="translate(0,0)"></path>
<path d="M 424.999 1142.07 C 575.332 1135.77 591.435 1182.11 591.187 1318.39 C 535.372 1318.54 482.538 1324.79 445.427 1273.7 C 423.799 1243.93 419.616 1178.97 424.999 1142.07 z" fill="rgb(21,165,43)" transform="translate(0,0)"></path>
<path d="M 1568.59 1142.07 L 1621.84 1142.07 L 1621.93 1188.9 C 1621.97 1257.22 1591.29 1317.79 1513.48 1318.39 L 1456.71 1318.39 C 1450.73 1230.55 1466.63 1151.45 1568.59 1142.07 z" fill="rgb(21,165,43)" transform="translate(0,0)"></path>
<metadata><recraft-signature>{"signed_by": "recraft", "signature_b64": "ix+y8M1F4o76GqmnBiEuHjfnl4V3DsSdyvaFCIMm7xt01uz6zIjGVHB5UR8Z4dAhXFlSAU6jZX+Ysikzs79kBw==", "signing_algo": "Ed25519", "generation_timestamp": 1773000244, "identifier": "99e0af4b-72ec-4b03-b637-5bc6f32dc7f3"}</recraft-signature></metadata></svg>