<svg xmlns="http://www.w3.org/2000/svg" height="512" preserveAspectRatio="none" style="display: block;" version="1.1" viewBox="0 0 2048 2048" width="512">
<path d="M 1421.5 427.976 C 1529.3 427.994 1637.16 428.394 1744.94 427.39 C 1799.33 426.884 1833.95 467.235 1834.12 520.11 L 1834.04 953.597 C 1834.04 989.9 1835.92 1025.34 1827.56 1061.1 C 1800.76 1175.83 1701.73 1265.89 1583.95 1277.64 C 1561.15 1279.91 1536.14 1278.97 1512.89 1278.93 L 1461.03 1493.15 C 1455.28 1516.08 1448.13 1556.68 1439.06 1575.78 C 1411.51 1633.81 1328.25 1637 1294.83 1583.95 C 1266.93 1539.65 1292.48 1487.45 1302.34 1442.34 C 1314.45 1386.95 1329.31 1333.35 1341.27 1278.93 C 1316.04 1277.96 1283.47 1278.91 1257.71 1278.92 L 838.574 1278.93 C 796.548 1278.93 753.105 1278.32 711.193 1278.93 C 714.583 1300.22 721.538 1326.14 726.222 1347.79 C 728.44 1360.64 733.416 1379.19 736.508 1392.28 L 755.598 1472.38 C 760.368 1491.71 768.068 1516.55 768.32 1535.87 C 770.99 1632.72 617.824 1661.5 596.927 1541.53 C 592.864 1518.21 585.12 1491.11 579.703 1468.81 L 533.537 1278.93 C 509.567 1278.99 482.417 1279.96 458.742 1276.9 C 348.52 1262.68 253.342 1178.26 224.604 1071.14 C 212.852 1027.33 215.077 987.074 215.034 942.499 L 214.888 522.456 C 214.894 440.596 268.447 428.088 337.39 427.979 L 1421.5 427.976 z M 383.721 768.54 C 429.334 769.58 479.353 768.54 525.334 768.539 L 1659.25 768.54 L 1663.65 768.317 C 1665.79 764.953 1664.99 730.38 1665 723.455 L 1664.99 594.269 L 425.649 594.212 C 414.911 594.198 393.312 593.42 383.721 594.269 C 382.162 596.108 381.949 739.065 383.721 768.54 z M 1630.03 1074.62 C 1669.41 1033.57 1669.28 989.05 1664.99 935.51 C 1646.21 934.614 1622.64 935.499 1603.24 935.509 L 461.876 935.499 C 436.994 935.498 408.224 934.746 383.721 935.51 L 383.8 936.771 C 386.98 993.66 376.98 1035.04 426.604 1080.38 C 463.891 1114.45 501.064 1111.58 547.452 1111.57 L 1472.79 1111.57 C 1532.59 1111.72 1583.46 1121.1 1630.03 1074.62 z" fill="rgb(0,0,0)" transform="translate(0,0)"></path>
<metadata><recraft-signature>{"signed_by": "recraft", "signature_b64": "lmsmcQdMqTRAlrfyy9nEJltKk8Pxjw1mmJK9GZSlQC4iYHHUrKEKLy6L1JNGZe4JG7hqjBtj+k6qdMdKRN6hBw==", "signing_algo": "Ed25519", "generation_timestamp": 1772996874, "identifier": "e5e79d1b-d8f0-4d02-b473-084c9818a02e"}</recraft-signature></metadata></svg>