<svg xmlns="http://www.w3.org/2000/svg" height="512" preserveAspectRatio="none" style="display: block;" version="1.1" viewBox="0 0 2048 2048" width="512">
<path d="M 1279.38 414.62 L 1669.51 414.574 C 1685.86 414.49 1706.45 413.049 1722 415.752 C 1782.01 426.192 1809.36 474.235 1809.72 530.493 L 1809.79 1493.56 C 1810.3 1589.91 1776.26 1631.13 1678.51 1630.57 L 769.933 1630.47 L 380.994 1630.56 C 298.484 1630.79 238.495 1611.21 238.035 1516.03 L 238.001 551.127 C 238.001 454.72 273.215 414.638 371.349 414.593 L 1279.38 414.62 z M 741.722 1085.45 L 741.722 1506.65 C 772.051 1507.42 805.455 1506.66 836.107 1506.66 L 1594.5 1506.65 L 1683.05 1506.65 L 1683.05 1085.45 C 1652.05 1084.92 1619.92 1085.45 1588.79 1085.46 L 831.997 1085.45 L 741.722 1085.45 z M 741.722 540.627 C 740.763 555.877 741.691 576.525 741.708 592.523 L 741.733 696.209 C 741.731 782.012 740.199 872.667 741.722 957.991 L 1136.5 957.991 L 1628.05 957.943 C 1640.68 957.928 1672.29 956.943 1683.05 957.991 L 1683.05 540.627 L 1288 540.627 L 923.821 540.644 C 864.247 540.647 800.745 541.903 741.722 540.627 z M 375.873 540.627 C 371.9 540.609 367.94 540.583 363.966 540.627 C 362.772 627.06 363.973 716.815 363.967 803.537 L 363.936 904.437 C 363.905 920.22 363.141 942.744 363.966 957.991 L 603.268 957.991 L 614.732 957.991 L 614.732 540.627 L 375.873 540.627 z M 370.888 1085.45 C 357.274 1086.74 363.956 1115.77 363.968 1130.87 L 363.966 1506.65 L 609.25 1506.65 L 612.774 1506.01 C 616.102 1500.26 614.67 1460.75 614.673 1451.13 L 614.732 1085.45 L 370.888 1085.45 z" fill="rgb(0,0,0)" transform="translate(0,0)"></path>
<metadata><recraft-signature>{"signed_by": "recraft", "signature_b64": "XHjp9m7tNGxRJIcobPs5fhz+Wlue05DVPuWMRr1Bg/ekHltrZiUuqarEADWVrDPwq3TX5+wx0oZt0n1B8yICDQ==", "signing_algo": "Ed25519", "generation_timestamp": 1772997773, "identifier": "bc1af6da-a95d-4f9a-9da4-d2172d2d5cc8"}</recraft-signature></metadata></svg>