<svg xmlns="http://www.w3.org/2000/svg" height="512" preserveAspectRatio="none" style="display: block;" version="1.1" viewBox="0 0 2048 2048" width="512">
<path d="M 1018.63 188.406 C 1038.09 186.919 1051.41 191.509 1065.98 204.679 C 1108.36 242.992 1100.86 390.489 1102.89 451.717 C 1120.39 436.591 1179.66 386.428 1201.04 380.341 C 1237.97 369.433 1279.43 396.67 1280.24 436.037 C 1280.63 454.332 1270.34 478.607 1265.44 496.618 C 1230.21 626.086 1219.99 738.912 1335.96 828.244 C 1550.47 970.137 1667.84 1232.18 1529.54 1471.17 C 1450.25 1608.18 1329.32 1687.52 1178.3 1729.85 C 1226.95 1777.99 1207.64 1847.63 1143.83 1848.15 C 1105.9 1848.46 1053.67 1785.58 1025.95 1757.67 L 1013.08 1769.69 C 993.395 1789.27 973.811 1809.41 953.667 1828.4 C 885.528 1891.96 791.828 1795.58 871.761 1729.85 C 866.47 1727.91 860.106 1726.21 854.67 1724.65 C 427.387 1601.85 316.571 1115.19 676.898 855.64 C 808.814 760.62 831.779 670.732 785.725 510.176 C 781.126 489.491 771.958 469.848 768.693 448.905 C 758.355 404.614 816.418 361.493 854.531 383.268 C 890.643 403.9 934.493 443.088 967.814 469.586 C 984.693 392.097 970.497 334.119 961.571 260.96 C 956.799 221.847 979.698 192.406 1018.63 188.406 z M 1153.24 1608.32 C 1453.43 1532.62 1583.31 1191.79 1325.89 974.564 C 1300.36 953.022 1272.34 934.472 1246.59 913.239 C 1141.71 825.099 1110.8 735.841 1114.01 605.303 C 1043.32 669.219 1023.42 686.301 949.539 617.463 C 946.285 614.431 936.973 606.931 932.991 605.303 C 932.506 634.31 933.706 660.907 930.851 689.999 C 918.508 815.789 840.308 890.64 745.512 960.184 C 569.402 1089.38 524.169 1323.77 681.685 1484.13 C 802.767 1606.28 988.119 1654.27 1153.24 1608.32 z" fill="rgb(55,40,35)" transform="translate(0,0)"></path>
<metadata><recraft-signature>{"signed_by": "recraft", "signature_b64": "nVfFnkfKZMSyQpLnW/GY/vXrkhPM9Btcic+tW3JfBLyqWCA0fCvdVTRJvMwdK/H93hFQ1q6iWd+/np0nZ4uDCg==", "signing_algo": "Ed25519", "generation_timestamp": 1772997747, "identifier": "c6d3cf33-c401-4512-b1a5-50858a824fa3"}</recraft-signature></metadata></svg>