<svg xmlns="http://www.w3.org/2000/svg" height="512" preserveAspectRatio="none" style="display: block;" version="1.1" viewBox="0 0 2048 2048" width="512">
<path d="M 1609.08 254.415 C 1668 251.908 1694.23 297.435 1694.65 350.89 L 1695.03 1161.13 C 1695.03 1231.58 1699.42 1300.91 1682.55 1369.38 C 1649.31 1504.33 1560.26 1605.79 1445.17 1678.2 C 1168.37 1852.37 728.372 1825.1 491.644 1594.73 C 412.159 1517.38 355.368 1407.33 353.948 1294.98 C 353.566 1264.72 350.083 1137.84 356.016 1114.57 C 371.292 1054.64 418.481 1057.69 465.277 1057.69 L 882.789 1057.72 L 1171.65 1057.66 C 1185.9 1057.65 1205.98 1056.59 1219.47 1059.72 C 1303.56 1079.27 1297.6 1202.44 1211.52 1214.53 C 1188.25 1217.15 1161.17 1216.16 1137.13 1216.17 L 512.054 1216.16 C 511.89 1342.4 514.306 1420.46 629.121 1507.5 C 871.406 1691.16 1323.24 1680.91 1501.93 1415.96 C 1543.6 1354.17 1536 1294.63 1535.99 1224.42 L 1535.97 379.59 C 1535.76 322.382 1532.18 263.184 1609.08 254.415 z" fill="rgb(0,0,0)" transform="translate(0,0)"></path>
<metadata><recraft-signature>{"signed_by": "recraft", "signature_b64": "acLWZ1nKTzWWnJ3OQiJ+DYU9Pja4CYbxMuQNRzeCJge7y1QIB77Q3/eeFlPVwIa77glzCm7ZDpQHKSEddHuMCA==", "signing_algo": "Ed25519", "generation_timestamp": 1772996340, "identifier": "4cc81da9-8c80-45e2-8588-ed12ba4e00fa"}</recraft-signature></metadata></svg>