<svg xmlns="http://www.w3.org/2000/svg" height="512" preserveAspectRatio="none" style="display: block;" version="1.1" viewBox="0 0 2048 2048" width="512">
<path d="M 511.665 297 C 516.276 296.378 539.432 296.947 545.299 296.985 L 743.964 297.013 C 768.937 296.96 799.136 295.388 823.346 298.733 C 906.669 310.247 975.762 382.003 978.497 466.998 C 979.121 486.377 978.025 507.89 977.996 527.578 L 978.035 737.764 C 978.918 849.481 930.169 915.471 817.25 935.908 C 796.972 934.728 764.581 935.88 743.048 935.887 L 591.857 935.909 C 550.652 935.954 510.615 938.957 470.919 925.939 C 408.303 907.049 354.61 842.599 349.131 776.793 C 345.695 735.523 348.063 685.284 348.036 642.36 L 347.994 523.191 C 347.987 495.636 346.44 464.446 351.363 437.768 C 366.458 355.979 432.742 305.881 511.665 297 z M 604.687 816.511 L 731.796 816.549 C 778.527 816.54 855.85 826.847 855.534 757.119 L 855.007 552.766 C 855.15 479.983 876.572 414.539 776.873 417.404 C 759.907 417.801 742.526 417.681 725.479 417.665 L 597.551 417.64 C 567.878 417.643 513.564 411.439 491.009 430.863 C 464.23 453.924 470.983 486.3 470.979 518.188 L 470.944 713.08 C 470.946 793.084 472.434 817.606 556.429 816.707 L 604.687 816.511 z" fill="rgb(0,0,0)" transform="translate(0,0)"></path>
<path d="M 674.522 1110.95 L 762.747 1110.87 C 830.14 1110.58 875.357 1109.02 928.921 1160.75 C 966.683 1197.22 977.789 1241.87 977.989 1292.65 L 978.046 1540.87 C 978.066 1636.75 944.33 1714.6 840.472 1741.26 C 814.401 1747.95 776.548 1746.03 748.801 1746.03 L 650.5 1746 C 606.007 1746.02 561.223 1746.24 516.768 1745.92 C 436.337 1745.35 368.456 1683.74 351.828 1606.99 C 346.96 1584.52 347.989 1561.28 347.986 1538.27 L 348.289 1287.32 C 346.878 1184.57 422.728 1108.54 525.284 1110.9 C 574.678 1112.03 625.039 1109.7 674.522 1110.95 z M 804.249 1626 C 864.943 1617.43 855.022 1557.93 855.046 1512.7 L 855.031 1325.01 C 854.977 1248.8 849.397 1232.69 768.777 1232.92 L 707.52 1233.04 C 646.217 1233.04 582.855 1232.13 521.739 1233 C 460.039 1242.98 470.79 1292.62 470.931 1340.33 L 470.913 1536.45 C 470.691 1612.4 479.377 1626.19 553.906 1626.11 L 617.472 1626.02 C 679.214 1625.94 742.716 1626.87 804.249 1626 z" fill="rgb(0,0,0)" transform="translate(0,0)"></path>
<path d="M 1423.38 472.782 C 1555.3 463.698 1669.69 563.097 1679.1 694.995 C 1688.51 826.892 1589.4 941.526 1457.52 951.265 C 1325.18 961.039 1210.06 861.499 1200.61 729.137 C 1191.17 596.775 1290.99 481.898 1423.38 472.782 z M 1454.63 830.034 C 1519.18 821.478 1564.52 762.149 1555.83 697.617 C 1547.15 633.085 1487.72 587.862 1423.21 596.682 C 1358.88 605.478 1313.82 664.69 1322.48 729.035 C 1331.14 793.38 1390.26 838.565 1454.63 830.034 z" fill="rgb(0,0,0)" transform="translate(0,0)"></path>
<path d="M 1437.82 1105.28 C 1493.22 1100.78 1506 1153.3 1523.57 1193.9 C 1546.08 1245.88 1569.61 1297.45 1591.74 1349.6 C 1601.68 1373 1619.68 1423.37 1633.25 1443.45 C 1643.47 1458.56 1698.78 1445.99 1700.06 1515.05 C 1700.71 1550.16 1704.65 1668.72 1698.45 1697.97 C 1685.87 1757.29 1595.51 1762.25 1578.67 1704.94 C 1572.33 1683.36 1575.59 1600.97 1575.51 1573.1 C 1541.85 1574.59 1496.06 1573.13 1461.5 1573.1 L 1320.06 1573.1 C 1319.17 1612.39 1322.57 1657.77 1319.28 1696.26 C 1315.52 1740.29 1255.99 1760 1221.51 1734.01 C 1191.86 1711.65 1196.89 1682.43 1196.88 1649.4 L 1196.8 1533.03 C 1196.49 1489.33 1197.92 1454.24 1251.1 1448.03 C 1265.73 1418.82 1277.5 1388.66 1290.87 1358.91 L 1379.8 1163.92 C 1394.13 1131.41 1398.76 1112.42 1437.82 1105.28 z M 1388.77 1448.03 C 1406.07 1449.06 1428.58 1447.91 1446.5 1448.03 L 1502.08 1448.03 L 1455.54 1341.95 C 1452.68 1335.44 1447.98 1320.8 1446.5 1317.65 C 1431.54 1342.01 1399.35 1418.5 1388.77 1448.03 z" fill="rgb(0,0,0)" transform="translate(0,0)"></path>
<metadata><recraft-signature>{"signed_by": "recraft", "signature_b64": "2rqvZoL5WiVVAK5uR8h5Oyp/XB/ew9N38ePG7r+pfnyBdrVGNtiFcGmZ+VGhlE1Bh7Om+b4PWhkTsrxv4uU+Bw==", "signing_algo": "Ed25519", "generation_timestamp": 1772990159, "identifier": "aab31e33-8939-4154-856a-66de51fa4862"}</recraft-signature></metadata></svg>