<svg xmlns="http://www.w3.org/2000/svg" height="512" preserveAspectRatio="none" style="display: block;" version="1.1" viewBox="0 0 2048 2048" width="512">
<path d="M 1521.15 831.27 C 1573.58 832.794 1593.35 868.131 1611.93 911.105 C 1659.07 1020.13 1716.24 1131.23 1766.6 1239.71 C 1774.73 1257.2 1782.87 1275 1788.92 1293.3 C 1833.71 1433.85 1734.9 1598.7 1586.22 1616.41 C 1533.42 1622.7 1470.79 1611.79 1417.68 1605.92 L 1230.74 1586.71 C 1136.25 1579.48 1123.83 1474.16 1193.27 1445.4 C 1223.83 1432.75 1428.74 1457.59 1467.95 1461.7 C 1530.26 1470.95 1596.95 1489.97 1637.85 1425.58 C 1670.13 1374.78 1649.4 1338.62 1627.33 1291.14 L 1492.92 1002.23 C 1475.42 964.641 1446.66 925.374 1459.31 882.615 C 1468.03 853.126 1491.87 836.637 1521.15 831.27 z" fill="rgb(0,0,0)" transform="translate(0,0)"></path>
<path d="M 1067.56 705.288 C 1093.36 697.784 1128.15 724.373 1138.66 745.772 C 1151.51 771.9 1144.59 792.04 1135.36 817.318 C 1109.8 887.364 1078.99 956.462 1054.12 1026.63 C 1097.71 1042.41 1141.5 1059.95 1184.79 1076.43 C 1222.72 1092.25 1271.64 1098.21 1279.77 1147.09 C 1287.72 1194.88 1251.23 1221.28 1221.17 1250.88 L 1058.02 1410.87 C 1018.16 1449.67 983.883 1487.09 927.028 1445.59 C 876.399 1399.33 898.8 1356.02 939.718 1315.4 L 985.367 1270.53 C 1013.01 1243.61 1039.7 1216.16 1067.56 1189.32 C 1030.26 1175.41 999.741 1162.3 963.206 1147.11 L 860.399 1104.67 C 840.768 1096.44 813.358 1087.58 796.071 1076.59 C 767.118 1058.18 757.916 1009.66 780.227 983.116 C 795.204 965.295 812.036 948.617 827.987 932.379 L 989.016 764.657 C 1014.09 738.063 1030.53 710.291 1067.56 705.288 z" fill="rgb(0,0,0)" transform="translate(0,0)"></path>
<path d="M 1007.84 238.998 C 1133.17 225.999 1201.36 314.39 1267.12 403.016 L 1423.63 610.167 C 1433.19 622.738 1449.96 640.465 1456.04 654.645 C 1484.69 721.468 1407.29 782.996 1347.45 746.098 C 1326.72 733.32 1301.24 692.431 1286.68 672.564 L 1216.18 577.894 C 1189.42 541.792 1163.67 505.043 1135.35 470.113 C 1103.02 430.229 1095.39 407.023 1046.37 385.479 L 1045.27 385.004 C 977.659 392.288 977.621 383.93 930.412 447.118 L 761.15 671.73 C 748.132 689.013 735.515 706.744 722.049 723.945 C 682.545 774.926 600.4 755.667 590.958 690.778 C 585.874 655.842 602.998 640.144 622.13 614.363 L 832.213 332.044 C 875.796 273.927 938.406 247.873 1007.84 238.998 z" fill="rgb(0,0,0)" transform="translate(0,0)"></path>
<path d="M 509.78 831.27 C 581.045 827.096 611.099 897.153 579.121 954.012 C 568.573 978.326 556.006 1001.66 544.695 1025.57 L 419.109 1289.07 C 411.755 1304.33 403.145 1320.36 398.223 1336.22 C 381.515 1389.64 414.133 1454.51 469.457 1468.37 C 496.351 1475.11 529.779 1470.51 557.553 1468.79 L 686.037 1461.21 C 726.439 1458.8 769.218 1448.62 798.252 1483.83 C 836.703 1530.46 811.691 1595.21 752.765 1605.7 C 727.489 1608.87 694.361 1608.93 668.688 1610.64 L 565.659 1617.1 C 487.646 1621.89 432.708 1626.64 362.927 1581.28 C 269.361 1520.45 225.497 1406.08 254.593 1298.33 C 261.035 1274.48 273.14 1253.72 283.631 1231.62 L 411.393 967.294 C 436.031 916.555 453.055 842.707 509.78 831.27 z" fill="rgb(0,0,0)" transform="translate(0,0)"></path>
<metadata><recraft-signature>{"signed_by": "recraft", "signature_b64": "MlKzyd1V6WEwgQ9mX1VNfYa1SEzxGuqpQ2ZV9unwhBWWuDx4A65T+EOM4dhMBs8cDl7QNzADTNlVmP4/EWGjAw==", "signing_algo": "Ed25519", "generation_timestamp": 1773000216, "identifier": "4356d0f4-7f81-4f36-a0ec-2c113fac5ede"}</recraft-signature></metadata></svg>