<svg xmlns="http://www.w3.org/2000/svg" height="512" preserveAspectRatio="none" style="display: block;" version="1.1" viewBox="0 0 2048 2048" width="512">
<path d="M 243.001 675.972 C 273.512 673.467 315.132 675.97 346.932 675.974 L 1744.67 675.964 C 1813.97 675.972 1872.49 671.177 1872.92 760.058 L 1873.05 1255.2 C 1873.06 1316.47 1877.7 1367.41 1801.41 1367.35 L 280.229 1367.39 C 184.85 1367.49 175.013 1360.62 175.634 1267.79 L 175.614 807.336 C 175.479 755.065 165.699 677.888 243.001 675.972 z M 1451.08 1323 L 1774.6 1323.03 C 1800.63 1323.05 1828.87 1332.16 1828.88 1301.02 L 1828.77 811.981 C 1828.84 727.195 1843.2 718.988 1750.85 719.355 L 602.993 719.413 L 283.916 719.399 C 266.427 719.422 239.1 716.114 226.337 728.615 C 215.273 739.451 219.942 820.454 219.949 837.506 L 220.002 1201.8 C 220.001 1235.18 219.761 1269.01 220.452 1302.41 C 221.076 1332.63 251.78 1323.03 277.642 1323.03 L 1451.08 1323 z" fill="rgb(0,0,0)" transform="translate(0,0)"></path>
<path d="M 1089.52 881.975 L 1141.98 881.975 C 1141.34 904.93 1141.93 930.692 1141.98 953.851 C 1238.3 883.169 1302.3 1033.2 1234.57 1097.72 C 1201.87 1124.86 1162.55 1115.75 1139.04 1081.99 C 1139.23 1091.05 1139.06 1100.58 1139.04 1109.68 C 1123.31 1110.12 1105.43 1109.69 1089.52 1109.68 C 1087.52 1035.75 1088.12 956.355 1089.52 881.975 z M 1179.4 1067.41 C 1225.69 1055.31 1201.55 965.602 1170.56 982.919 C 1127.44 984.7 1130.74 1070.62 1179.4 1067.41 z" fill="rgb(0,0,0)" transform="translate(0,0)"></path>
<path d="M 609.796 881.975 C 624.492 880.99 636.494 881.225 651.003 881.975 L 651.003 1109.68 L 595.018 1109.68 L 595.018 1014.52 C 566.473 1014.56 535.233 1013.7 507.035 1014.52 C 507.028 1023.59 507.622 1108.36 507.035 1109.68 C 488.505 1109.72 470.205 1109.33 451.631 1109.68 L 451.631 881.975 L 507.035 881.975 L 507.035 963.522 L 595.018 963.522 L 595.018 881.975 L 609.796 881.975 z" fill="rgb(0,0,0)" transform="translate(0,0)"></path>
<path d="M 756.76 936.996 C 887.221 924.624 841.699 1018.13 858.646 1109.68 C 846.558 1110.38 817.763 1110.36 806.129 1109.68 C 804.769 1104.24 802.596 1097.65 800.95 1092.18 C 774.055 1116.69 731.744 1123.45 702.872 1097.72 C 683.312 1077.38 682.78 1034.58 711.413 1021.76 C 731.087 1012.96 794.681 1007.82 798.628 996.514 C 805.392 966.024 754.813 963.428 747.784 992.708 L 747.49 993.973 L 697.477 993.973 C 699.765 954.122 721.377 942.476 756.76 936.996 z M 752.357 1072.17 C 780.584 1082.39 802.657 1066.51 799.494 1036.15 L 798.245 1034.9 L 797.501 1034.97 C 790.566 1036.94 716.449 1045.92 752.357 1072.17 z" fill="rgb(0,0,0)" transform="translate(0,0)"></path>
<path d="M 1351.12 936.996 C 1366.1 933.364 1401.19 936.491 1416.25 943.464 C 1468.28 967.561 1433.34 1061.7 1451.08 1109.68 C 1433.97 1110.08 1415.71 1109.73 1398.51 1109.68 C 1397.09 1103.43 1394.6 1098.1 1392.15 1092.18 C 1372.68 1119.03 1324.8 1123.21 1302.68 1097.72 C 1293.84 1091.28 1288.89 1082.43 1287.83 1071.65 C 1281.32 1005.32 1349.5 1007.49 1392.15 1003.68 C 1391.1 960.25 1351.34 965.161 1342.42 990.04 C 1328.26 989.298 1307.52 990.008 1292.86 990.04 C 1292.73 955.013 1319.72 938.722 1351.12 936.996 z M 1351.12 1076.97 C 1381.4 1077.59 1392.09 1070.63 1392.15 1039.84 L 1392.15 1034.97 C 1390.17 1034.94 1384.42 1034.76 1382.75 1034.97 C 1359.92 1038.95 1313.66 1054.85 1351.12 1076.97 z" fill="rgb(0,0,0)" transform="translate(0,0)"></path>
<path d="M 992.944 881.975 L 1045.72 881.975 C 1044.15 937.39 1047.03 996.106 1045.6 1051.78 C 1045.23 1066.31 1047.21 1097.15 1045.72 1109.68 L 992.944 1109.68 L 992.944 881.975 z" fill="rgb(0,0,0)" transform="translate(0,0)"></path>
<path d="M 896.4 881.975 L 949.004 881.975 C 949.003 903.508 949.702 1108.01 949.004 1109.68 L 896.4 1109.68 L 896.4 881.975 z" fill="rgb(0,0,0)" transform="translate(0,0)"></path>
<path d="M 1574.78 936.996 C 1581.51 935.447 1587.19 936.182 1593.88 936.996 L 1593.88 982.919 C 1521.45 983.42 1541.87 1047.53 1542 1109.68 C 1535.42 1109.88 1494.34 1110.35 1490.05 1109.16 L 1489.06 1106.75 L 1489.06 938.505 L 1537.06 938.505 L 1537.06 963.522 C 1548.05 947.237 1554.19 939.603 1574.78 936.996 z" fill="rgb(0,0,0)" transform="translate(0,0)"></path>
<metadata><recraft-signature>{"signed_by": "recraft", "signature_b64": "jhlyphTgNm1XWd153701jwsuFDaGiyR/pT+7N0YQIAXDAODE5GhtMvoUI/JOZV2C+kNer4S8FimtCZOd5aBqDg==", "signing_algo": "Ed25519", "generation_timestamp": 1772999221, "identifier": "38c06861-ecd0-4670-8cc8-5aed4b396cbb"}</recraft-signature></metadata></svg>