<svg xmlns="http://www.w3.org/2000/svg" height="512" preserveAspectRatio="none" style="display: block;" version="1.1" viewBox="0 0 2048 2048" width="512">
<path d="M 235.429 609.467 L 1762.2 609.438 C 1780.67 609.44 1800.42 608.902 1818.74 610.01 C 1863.46 612.713 1902.65 656.685 1902.98 700.922 L 1903.05 1267.41 C 1903.09 1337.65 1907.78 1418.93 1807.46 1421.53 L 293.894 1421.57 C 274.065 1421.63 250.587 1422.86 231.047 1420.88 C 155.576 1413.23 146.156 1350.12 146.072 1291.08 L 146.016 730.846 C 145.998 667.083 162.071 616.388 235.429 609.467 z M 1816.24 1376.77 C 1868.57 1367.29 1860.56 1322.13 1860.48 1282.26 L 1860.54 770.968 C 1860.57 732.699 1871.06 652.804 1809.71 654.01 L 295.174 653.901 C 282.262 653.877 247.05 652.873 235.429 653.916 C 185.519 661.852 189.908 702.045 189.507 739.837 L 189.272 1245.75 C 189.27 1276.01 188.154 1306.93 191.424 1336.96 C 196.713 1385.54 265.732 1376.85 299.33 1376.84 L 1816.24 1376.77 z" fill="rgb(2,2,2)" transform="translate(0,0)"></path>
<path d="M 877.942 874.939 C 916.974 876.317 991.322 865.385 1019.36 892.567 C 1036.69 909.367 1034.18 930.855 1034.03 952.579 L 1034.12 986.379 C 1034.24 1049.22 999.506 1055.95 944.311 1055.69 L 924.003 1055.69 C 923.979 1084.03 924.96 1117.12 924.003 1144.99 L 877.942 1144.99 L 877.938 955.341 C 877.93 929.412 877.186 900.576 877.942 874.939 z M 924.003 1013 C 940.825 1013.13 967.833 1015.43 981.721 1008.03 C 988.435 1001.4 987.567 992.975 987.556 983.9 C 987.464 911.922 993.722 916.445 924.003 918.448 C 925.949 944.767 923.917 984.931 924.003 1013 z" fill="rgb(2,2,2)" transform="translate(0,0)"></path>
<path d="M 1310.5 874.939 C 1327.02 874.596 1348.81 874.278 1365.15 874.939 C 1370.8 899.391 1378.82 926.229 1385.47 950.744 L 1415.25 1061.49 C 1423 1089.47 1431.48 1116.58 1437.45 1144.99 C 1421.29 1144.77 1405.2 1144.9 1389.05 1144.99 C 1384.52 1130.57 1379.68 1108.74 1375.81 1093.49 L 1365.15 1093.49 L 1298.69 1093.49 C 1293.62 1109.28 1288.95 1128.69 1284.92 1144.99 L 1239.26 1144.99 L 1290.68 947.791 C 1295.57 929.769 1304.51 889.343 1310.5 874.939 z M 1310.5 1050.99 L 1340.25 1050.99 L 1365.15 1050.99 C 1364.37 1044.03 1339.66 944.721 1340.25 945.393 C 1329.62 962.899 1313.67 1030.35 1310.5 1050.99 z" fill="rgb(2,2,2)" transform="translate(0,0)"></path>
<path d="M 542.56 874.939 C 556.177 875.882 580.694 875.006 595.101 874.939 C 599.817 894.633 606.092 915.562 611.294 935.43 L 636.714 1035.13 C 646.237 1071.99 656.048 1107.68 664.451 1144.99 L 616.124 1144.99 C 613.208 1134.21 608.438 1092.71 598.25 1093.49 C 585.72 1093.53 539.681 1092.31 531.676 1093.49 C 527.21 1110.42 522.372 1128.3 517.297 1144.99 L 471.902 1144.99 C 483.607 1075.56 510.711 989.107 529.097 919.599 C 532.104 908.232 534.436 894.583 538.884 883.795 L 542.56 874.939 z M 542.56 1050.99 C 555.612 1049.38 558.321 1049.27 571.25 1050.99 C 581.682 1048.66 584.454 1049.45 595.101 1050.99 C 592.653 1035.79 575.569 958.223 571.25 945.393 C 563.324 960.89 543.596 1032.69 542.56 1050.99 z" fill="rgb(2,2,2)" transform="translate(0,0)"></path>
<path d="M 283.259 874.939 C 297.591 875.126 311.666 875.07 325.999 874.939 C 325.971 909.275 327.168 949.665 325.999 983.465 L 394.842 983.465 C 394.415 951.73 393.623 906.098 394.842 874.939 C 410.075 875.438 425.593 875.108 440.854 874.939 L 440.902 1118.03 C 440.924 1136.07 446.895 1145.32 430.5 1144.99 L 394.842 1144.99 L 394.842 1029.08 L 325.999 1029.08 C 325.273 1039.44 325.912 1056.4 325.926 1067.32 L 325.999 1144.99 L 280.04 1144.99 C 279.939 1120.84 278.685 881.01 280.809 875.721 L 283.259 874.939 z" fill="rgb(2,2,2)" transform="translate(0,0)"></path>
<path d="M 1691.11 870.58 C 1747.71 866.469 1778.61 895.823 1777.99 950.046 L 1733.22 950.046 C 1732.17 898.153 1663.63 901.574 1665.03 943.903 C 1666.24 980.458 1731.42 987.68 1759.18 1013.83 C 1812.76 1064.17 1774.17 1147.25 1691.11 1146.97 C 1637 1142.18 1610.63 1112.81 1611.04 1058.15 L 1656.44 1058.15 C 1664.95 1131.3 1738.1 1106.02 1733.87 1066.59 C 1730.2 1032.45 1666.98 1023.71 1641.62 1000.69 C 1593.75 962.909 1615.15 875.624 1691.11 870.58 z" fill="rgb(2,2,2)" transform="translate(0,0)"></path>
<path d="M 1433.54 874.939 L 1535.71 874.918 C 1549.37 874.896 1571.02 873.748 1583.49 874.939 C 1583.43 889.386 1583.26 904.02 1583.49 918.448 C 1566.29 918.491 1549.22 917.994 1532 918.448 C 1533.45 937.857 1532.09 957.656 1532.04 977.298 L 1532 1093.49 L 1532 1144.99 L 1486.72 1144.99 L 1486.72 918.448 C 1468.8 918.7 1451.46 918.68 1433.54 918.448 C 1433.44 904.277 1433.08 889.004 1433.54 874.939 z" fill="rgb(2,2,2)" transform="translate(0,0)"></path>
<path d="M 694.451 874.939 L 740.606 874.939 L 740.606 1101.3 L 843.437 1101.3 C 843.461 1106.49 844.411 1142.64 843.437 1144.99 L 694.451 1144.99 L 694.451 874.939 z" fill="rgb(2,2,2)" transform="translate(0,0)"></path>
<path d="M 1074.34 874.939 L 1119.49 874.939 L 1119.49 1101.3 C 1152.44 1101.32 1186.14 1100.8 1218.99 1101.3 L 1218.99 1144.99 C 1211.55 1145.8 1182.99 1145.07 1174.47 1145.07 L 1074.34 1144.99 C 1073.75 1115.63 1074.31 1084.08 1074.32 1054.57 L 1074.34 874.939 z" fill="rgb(2,2,2)" transform="translate(0,0)"></path>
<metadata><recraft-signature>{"signed_by": "recraft", "signature_b64": "/9HkifHkgpRDJxP0Jzg94IFfndukQwAw1mYFhzr0Ml152Lme7DEL0FtwL4j8QlvAKSfJt2KUEzv8R4b0j+xCCg==", "signing_algo": "Ed25519", "generation_timestamp": 1772998678, "identifier": "b20e5a98-dd76-4458-8c4c-7bf4f899562e"}</recraft-signature></metadata></svg>