<svg xmlns="http://www.w3.org/2000/svg" height="512" preserveAspectRatio="none" style="display: block;" version="1.1" viewBox="0 0 2048 2048" width="512">
<path d="M 343.004 474.011 C 397.582 472.501 455.13 475.171 510.001 474.011 L 510.001 766.145 L 685.021 766.145 C 683.94 736.386 685.002 699.916 685.007 669.608 L 685.021 474.011 L 853 474.011 C 851.775 502.524 852.974 541.053 852.98 570.206 L 853 766.145 L 1703.29 766.145 L 1703.29 937.003 L 853 937.003 L 853 1114.99 L 1329.5 1114.99 L 1706 1114.99 L 1705.98 1224.27 C 1705.97 1239.95 1705.02 1264.27 1706 1278.99 C 1679.23 1280.22 1641.01 1279 1613.23 1278.99 L 853 1278.99 L 853 1576.89 C 800.464 1577.56 736.153 1572.89 685.021 1576.89 C 684.447 1477.79 686.022 1377.97 685.021 1278.99 L 510.001 1278.99 L 510.001 1576.89 L 398.909 1576.88 C 382.122 1576.86 359.267 1575.98 343.004 1576.89 L 343.004 474.011 z M 510.001 1114.99 L 627.252 1114.96 C 645.471 1114.91 667.049 1114.32 685.021 1114.99 L 685.021 937.003 L 510.001 937.003 L 510.001 1114.99 z" fill="rgb(0,0,0)" transform="translate(0,0)"></path>
<metadata><recraft-signature>{"signed_by": "recraft", "signature_b64": "zKOpwiar9GGP2GLuXy006DRgMH+wUQbytic7MjWd8rOWsz8INIt3ttwSQoPpDqQ/g0e7oJkWJbyPsBh4uctOAw==", "signing_algo": "Ed25519", "generation_timestamp": 1772997765, "identifier": "c306893b-87f1-4e7c-9b71-cb912015c5cc"}</recraft-signature></metadata></svg>