<svg xmlns="http://www.w3.org/2000/svg" height="512" preserveAspectRatio="none" style="display: block;" version="1.1" viewBox="0 0 2048 2048" width="512">
<path d="M 1399.47 655.457 C 1551.49 644.401 1687.29 772.182 1700.21 922.201 C 1709.27 1027.48 1668.17 1086.94 1606.16 1160.85 C 1719.67 1207.13 1806.92 1358.14 1808.04 1477.07 L 1808.04 1533.43 C 1807.92 1611.2 1784.73 1693.41 1697.77 1715.43 C 1663.45 1724.12 1614.6 1721.09 1578.38 1721.09 L 1429.5 1721.05 L 1255.42 1721.04 C 1229.51 1721.06 1189.59 1723.66 1166.12 1720.69 C 1071.13 1708.65 1018.12 1627.14 1023.55 1535.76 C 1026.61 1484.29 1022.26 1454.09 1035.23 1403.43 C 1064.28 1290.02 1125.39 1219.59 1223.23 1160.85 C 1030.26 993.848 1139.31 676.378 1399.47 655.457 z M 1449.99 1604.99 L 1581.54 1605.05 C 1637.67 1605.05 1694.32 1613.12 1694.26 1539.21 C 1694.18 1452.19 1680.51 1376.26 1615.46 1312.78 C 1559.69 1258.36 1469.06 1221.95 1390.39 1230.95 C 1235.01 1250.39 1137.11 1363.55 1142.91 1519.93 C 1145.62 1593.1 1141.58 1604.97 1217.97 1605.02 L 1449.99 1604.99 z M 1425.54 1110.55 C 1517.67 1104.39 1587.4 1024.77 1581.34 932.631 C 1575.28 840.494 1495.72 770.684 1403.58 776.649 C 1311.3 782.622 1241.37 862.318 1247.44 954.588 C 1253.51 1046.86 1333.27 1116.71 1425.54 1110.55 z" fill="rgb(0,0,0)" transform="translate(0,0)"></path>
<path d="M 410.503 321.382 L 1351.74 321.372 C 1406.92 321.057 1441.75 325.832 1442 396.824 L 1442.04 497.213 C 1442.04 515.649 1443.85 546.716 1439.49 563.363 C 1427.77 608.177 1370.79 622.043 1339.18 587.952 C 1315.73 562.675 1321.75 477.885 1322.95 440.909 L 656.687 440.924 C 557.365 440.921 455.141 439.651 356.001 440.909 L 356.001 644.747 C 374.407 639.86 391.844 630.413 410.731 626.162 C 561.163 592.305 694.377 687.342 729.821 832.339 C 775.136 826.694 853.448 814.681 882.978 851.311 C 920.705 898.426 879.757 960.047 823.563 954.361 C 792.378 951.205 760.955 949.251 729.821 945.773 C 715.043 977.654 712.822 996.906 689.581 1029.33 C 638.816 1100.16 583.227 1129.03 500.742 1144.48 C 435.981 1146.61 412.664 1138.05 356.001 1117.96 C 358.612 1181.53 357.295 1255.33 356.001 1320.01 L 869.186 1319.98 C 890.735 1319.96 913.299 1319.52 934.735 1320.49 C 1004.45 1326.08 1005.63 1431.15 936.451 1436.9 C 923.76 1437.96 909.144 1437.22 896.27 1437.21 L 327.978 1437.14 C 226.052 1438.04 237.519 1395.41 237.547 1307.97 L 237.557 1034.24 C 237.53 989.069 227.878 935.889 291.603 931.905 C 337.369 929.044 341.609 962.345 369.162 987.831 C 429.613 1042.63 522.396 1039.49 577.03 977.064 C 707.606 827.862 467.231 626.356 336.769 813.257 C 311.275 849.779 235.99 831.052 237.586 770.753 L 237.539 418.906 C 237.315 331.056 251.92 321.355 338.841 321.336 L 410.503 321.382 z" fill="rgb(0,0,0)" transform="translate(0,0)"></path>
<metadata><recraft-signature>{"signed_by": "recraft", "signature_b64": "FUfOE0fHm/Rc9yqgZCygqgxgX1i+Hw4vvMXhyCz6mS4AH34swmQrtsbgm0yIeDcahyhJRr8eKubjxm6sFMPeDQ==", "signing_algo": "Ed25519", "generation_timestamp": 1772990199, "identifier": "11f4d554-9700-44f4-b6c1-3f097f54c09f"}</recraft-signature></metadata></svg>