<svg xmlns="http://www.w3.org/2000/svg" height="512" preserveAspectRatio="none" style="display: block;" version="1.1" viewBox="0 0 2048 2048" width="512">
<path d="M 1336.45 248.365 C 1362.44 245.493 1378.77 265.962 1391.22 285.439 C 1462.91 397.603 1489.1 575.721 1458.46 706.942 C 1559.49 728.02 1634.93 809.36 1686.24 893.913 C 1706.29 926.973 1721.52 947.71 1721.73 988.488 C 1722.03 1047.56 1689.42 1095.51 1639.89 1125.63 C 1595.04 1153.8 1561.64 1154.15 1511.23 1153.96 C 1501.95 1260.39 1459.02 1368.59 1377.54 1439.8 C 1339.38 1473.15 1391.54 1563.72 1422.77 1581.94 C 1429.29 1585.77 1437.57 1587.04 1444.86 1588.46 C 1536.18 1606.25 1527.69 1735.74 1432.9 1735.9 C 1405.85 1735.95 1340.13 1739.12 1316.76 1734.18 C 1225.32 1713.94 1186.49 1558.06 1144.79 1553.02 C 1140.39 1552.49 1109.45 1563.49 1102.18 1565.61 C 1009.19 1592.66 948.626 1591.57 856.776 1593.02 C 932.053 1619.17 918.512 1731.29 839.668 1735.52 C 795.136 1737.91 723.914 1740.51 685.577 1722.22 C 646.83 1702.82 606.239 1684.46 567.331 1665.05 C 523.715 1643.3 498.304 1640.71 472.36 1597.44 C 460.474 1597.25 447.769 1597.13 436.128 1594.64 C 315.013 1568.21 279.616 1412.24 388.741 1341.32 C 421.18 1016.87 781.198 881.288 1068.94 929.404 C 1111.03 936.443 1144.35 954.2 1179.5 920.166 C 1180.52 890.678 1182.38 877.504 1191.59 848.994 C 1084.47 750.177 1000.4 680.51 953.105 532.66 C 937.174 482.858 907.558 377.959 942.061 329.475 C 956.8 308.764 991.843 319.416 1012.95 325.545 C 1096.42 349.786 1162.62 400.46 1223.33 460.812 C 1237.72 400.846 1269.77 256.764 1336.45 248.365 z M 546.271 1566.61 C 608.498 1592.97 665.954 1631.3 730.015 1653.51 C 740.287 1657.07 791.887 1654.89 804.993 1655 C 770.983 1639.29 678.285 1619.26 665.333 1584.8 C 655.054 1557.46 671.497 1537.49 696.079 1528.15 C 806.633 1486.14 841.13 1372.51 761.306 1286.7 C 752.755 1277.44 744.695 1270.29 736.2 1261.56 C 827.914 1283.22 897.263 1345.01 874.599 1447.3 C 867.801 1477.98 854.008 1489.14 841.309 1514.15 C 924.89 1507.84 975.091 1519.55 1066.53 1493.88 C 1092.88 1486.48 1120.21 1473.85 1147.74 1474.12 C 1246.92 1477.25 1279.67 1633.34 1332.56 1653.7 C 1340.94 1656.92 1379.2 1654.87 1391.43 1655 C 1344.42 1633.41 1316.12 1584.63 1297.81 1537.98 C 1272.14 1472.59 1279.3 1420.18 1332.41 1371.37 C 1398.08 1311.02 1424.48 1211.18 1432.15 1124.88 C 1438.49 1053.49 1467.22 1073.03 1516.59 1074.26 C 1564.68 1077.57 1615.14 1061.52 1637.77 1015.59 C 1656.39 977.79 1632.03 956.997 1614.78 927.56 C 1553.27 822.615 1463.83 761.319 1336.45 790.591 C 1327.81 774.484 1320.82 756.921 1313.12 740.295 C 1257.67 620.542 1143.36 446.889 1007.26 409.09 C 1022.25 590.565 1158.17 726.365 1293.59 833.064 C 1254.44 878.607 1260.11 910.321 1251.38 957.63 C 1246.5 984.087 1173.14 1022.47 1147.78 1019.97 C 1116.71 1022.67 1086.95 1012.25 1056.99 1007.31 C 828.087 969.493 491.699 1073.47 469.807 1339.77 C 467.387 1369.2 478.582 1393.91 442.585 1405.99 C 376.997 1428.01 401.145 1522.32 467.506 1515.93 C 492.768 1513.5 512.663 1482.14 542.003 1504.98 C 563.888 1521.72 559.26 1547.2 546.271 1566.61 z M 1293.59 538.524 C 1320.05 585.384 1345.78 621.57 1367.84 673.303 C 1372.77 685.153 1374.54 688.963 1381.75 699.326 C 1386.91 592.81 1399.74 507.156 1359.02 401.05 C 1353.73 387.253 1348.13 366.487 1336.45 356.721 C 1313.7 426.328 1298.8 459.142 1293.59 538.524 z" fill="rgb(39,39,39)" transform="translate(0,0)"></path>
<path d="M 1468.5 863.442 C 1493 859.656 1515.95 876.385 1519.84 900.867 C 1523.73 925.349 1507.1 948.37 1482.64 952.367 C 1458.02 956.388 1434.83 939.634 1430.91 915.003 C 1427 890.372 1443.85 867.251 1468.5 863.442 z" fill="rgb(39,39,39)" transform="translate(0,0)"></path>
<metadata><recraft-signature>{"signed_by": "recraft", "signature_b64": "PqOykyv3YdCL46nMT6uk8SPULZuafCa6CbTTxkoyCxIrU92CIJKUabxi7sVDtwxeRw3zPv0psPQh7ALmNC4mCA==", "signing_algo": "Ed25519", "generation_timestamp": 1772997405, "identifier": "017d3702-e011-4185-9450-4510d7e7bde6"}</recraft-signature></metadata></svg>