<svg xmlns="http://www.w3.org/2000/svg" height="512" preserveAspectRatio="none" style="display: block;" version="1.1" viewBox="0 0 2048 2048" width="512">
<path d="M 1275.44 374.998 C 1500.56 360.517 1718.24 500.266 1779.99 720.832 C 1839.83 934.572 1747.83 1155.31 1573.37 1285.04 C 1519.63 1325 1472.21 1341.91 1413.42 1370.93 L 994.966 1572.96 C 928.408 1605.58 865.269 1634.35 791.531 1647.16 C 783.156 1648.61 774.966 1650.75 766.766 1653 C 754.042 1650.78 743.263 1652.22 730.472 1652.77 C 482.052 1663.5 276.634 1472.58 251.902 1228.23 C 230.672 1018.49 336.164 824.897 509.215 710.268 C 571.423 669.06 636.351 640.364 703.384 608.372 L 983.837 472.91 C 1092.88 420.587 1146.24 388.947 1275.44 374.998 z M 827.725 713.959 C 979.464 870.337 1108.28 1106.69 1189.06 1305.01 C 1189.58 1306.29 1190.56 1308.07 1191.82 1308.74 L 1280.34 1266.13 C 1295.57 1258.76 1311.36 1250.49 1326.79 1243.91 C 1252.1 1057.98 1153.04 878.033 1027.16 721.821 C 1020.1 713.056 968.98 647.399 963.32 647.855 C 919.195 668.124 869.832 690.095 827.725 713.959 z M 561.91 862.239 C 693.62 997.677 852.69 1260.12 917.608 1445.77 L 926.209 1441.66 C 967.375 1421.39 1010.48 1398.82 1051.03 1377.12 C 1039.07 1338.85 1015.23 1291.63 997.651 1254.93 C 925.671 1104.66 837.271 959.981 730.786 831.582 C 725.23 824.892 691.644 785.022 684.788 782.791 C 650.451 800.714 589.701 835.508 561.91 862.239 z M 1487.34 577.481 C 1542.64 650.149 1588.37 731.845 1632.25 811.931 C 1635.38 817.646 1643.55 836.476 1646.82 840.162 C 1649.59 775.262 1606.95 683.122 1562.19 636.886 C 1547.24 621.433 1506.93 582.077 1487.34 577.481 z M 458.058 977.611 C 429.224 1023.08 411.916 1089.9 405.509 1142.93 L 406.054 1143.8 C 410.911 1151.39 417.176 1158.7 422.489 1166.04 C 483.685 1250.59 568.392 1380.82 600.072 1481.17 C 637.32 1495.86 682.298 1505.64 722.5 1505 C 739.361 1505.13 758.46 1503.09 775.044 1500.1 C 766.132 1473.53 750.762 1442.58 739.124 1416.89 C 678.146 1282.3 577.612 1107.15 478.497 1000.47 C 471.702 993.158 464.448 985.33 458.058 977.611 z M 1249.19 527.616 C 1198.15 534.214 1148.92 550.276 1105.05 577.481 C 1146.33 618.746 1211.43 709.81 1244.57 760.132 C 1322.45 878.382 1398.83 1020.06 1453.53 1151.26 C 1456.67 1159.21 1459.78 1167.17 1463.04 1175.08 C 1511.41 1145.71 1545.59 1108.7 1576.37 1062.04 C 1514.31 888.556 1385.09 687.522 1274.36 542.116 C 1270.64 537.208 1266.72 532.274 1262.69 527.616 C 1258.4 527.506 1253.39 527.225 1249.19 527.616 z" fill="rgb(0,0,0)" transform="translate(0,0)"></path>
<metadata><recraft-signature>{"signed_by": "recraft", "signature_b64": "J0smq7gPS7pJYYjf7kNc2afN6Z37QPZGsuaPmNhJDW0lad3Op1Cta+i2mhVh6Nce/Ax6gy8dpP6JprKTeL9XAg==", "signing_algo": "Ed25519", "generation_timestamp": 1772995992, "identifier": "0008210f-3ebd-4d90-89a1-b9939e59f1f4"}</recraft-signature></metadata></svg>