<svg xmlns="http://www.w3.org/2000/svg" height="512" preserveAspectRatio="none" style="display: block;" version="1.1" viewBox="0 0 2048 2048" width="512">
<path d="M 357.424 321.044 C 411.729 321.687 467.566 321.032 521.999 321.044 C 520.893 338.852 521.95 368.241 521.972 386.991 L 521.999 918.999 L 1526.05 918.999 L 1526.06 388.181 C 1526.07 367.218 1526.9 341.57 1526.05 321.044 C 1542.52 321.745 1563.97 321.11 1580.65 321.095 L 1690.01 321.044 C 1690.54 334.377 1690.04 349.509 1690.03 363.051 L 1690.01 1482.68 C 1690.01 1505.36 1692.38 1686.49 1688.46 1690.78 L 1683.25 1690.99 L 1526.05 1690.99 C 1523.94 1663.47 1525.94 1629.87 1526.05 1602 L 1526.01 1122.81 C 1525.95 1109.3 1525.37 1094.57 1526.05 1081.25 L 521.999 1081.25 L 521.999 1690.99 L 357.424 1690.99 C 356.786 1679.04 357.407 1662.71 357.411 1650.27 L 357.425 440.359 C 357.424 401.301 358.17 359.921 357.424 321.044 z" fill="rgb(0,0,0)" transform="translate(0,0)"></path>
<metadata><recraft-signature>{"signed_by": "recraft", "signature_b64": "qoZ/v+hpBxO83y+JLrmxdGN0u7rx6UTbUlAJC4tatx4NLCTkMDAFnHNYdWiNhHNXoKzmShdW0W/DDnXWoZ9hCw==", "signing_algo": "Ed25519", "generation_timestamp": 1772997468, "identifier": "a74ef189-f5b1-499a-acfa-67c3295ede59"}</recraft-signature></metadata></svg>