<svg xmlns="http://www.w3.org/2000/svg" height="512" preserveAspectRatio="none" style="display: block;" version="1.1" viewBox="0 0 2048 2048" width="512">
<path d="M 477.419 459.974 C 503.849 459.293 533.057 459.942 559.738 459.946 L 1531.75 459.955 C 1633.33 459.979 1721.32 497.71 1747.67 607.125 C 1754.81 636.793 1753.05 673.91 1753.03 704.967 L 1753.03 1307.37 C 1753.04 1336.93 1753.49 1367.1 1752.85 1396.44 C 1750.58 1501.55 1669.33 1578.78 1567.35 1584.82 L 515.85 1584.89 C 498.611 1584.9 480.578 1585.47 463.491 1583.15 C 377.772 1571.56 304.417 1501.22 295.468 1414.01 C 293.383 1393.69 293.956 1371.93 293.963 1351.43 L 293.883 677.076 C 293.338 622.285 297.624 579.094 335.388 534.319 C 376.169 485.967 416.132 466.603 477.419 459.974 z M 1557.25 1433.42 C 1611.37 1423.82 1601.22 1368.98 1601.15 1328.39 L 1601.11 723.063 C 1601.12 607.136 1607.29 609.719 1477.61 609.721 L 537.369 609.706 C 525.562 609.692 502.973 608.883 492.291 609.757 C 438.306 623.255 447.53 674.81 447.634 717.769 L 447.681 1302.04 C 447.661 1346.77 432.919 1432.57 495.42 1433.27 L 1510.47 1433.48 C 1523.98 1433.49 1544.25 1434.21 1557.25 1433.42 z" fill="rgb(28,28,28)" transform="translate(0,0)"></path>
<metadata><recraft-signature>{"signed_by": "recraft", "signature_b64": "wi5TSKDhjnN40t6xdKWNfRy50XAfxzDCR7PiQ5OSLrVyFNg4O/vqYo9mt5kQBs1+usMejKwik88IHnCtM+42DQ==", "signing_algo": "Ed25519", "generation_timestamp": 1772999578, "identifier": "4297aaae-6de8-4d02-a078-4bc915cef8d8"}</recraft-signature></metadata></svg>