<svg xmlns="http://www.w3.org/2000/svg" height="512" preserveAspectRatio="none" style="display: block;" version="1.1" viewBox="0 0 2048 2048" width="512">
<path d="M 406.001 985.234 C 404.444 938.518 405.646 887.235 411.029 840.993 C 449.245 512.731 735.562 268.377 1063.27 289.761 C 1384.7 310.737 1630.21 578.048 1636.83 898.165 C 1637.38 924.661 1637.7 958.703 1636.96 985.234 C 1726.06 1001.65 1797.88 1085.74 1805.29 1175.93 C 1806.72 1218.04 1810.19 1305.79 1802.53 1342.9 C 1779.52 1454.4 1689.02 1526.86 1577.08 1529.59 C 1560.5 1603.33 1529.02 1659.68 1463.61 1701.51 C 1407.07 1737.68 1367.19 1736.05 1304.69 1736.01 L 1215.78 1735.91 C 1206.05 1735.9 1181.63 1735.16 1172.81 1735.98 C 1164.39 1739.09 1124.45 1734.61 1112.64 1735.87 C 979.915 1750.1 1016.17 1611.93 1073.33 1616.96 C 1097.71 1619.11 1152.23 1613.18 1172.81 1616.89 L 1288.2 1616.93 C 1376.75 1616.89 1462.09 1608.5 1462.21 1496.05 L 1462.1 1085.71 C 1461.99 1045.54 1459.53 979.236 1518.48 979.873 L 1520.4 979.911 C 1520.43 939.086 1522.11 895.62 1517.29 855.234 C 1493.79 658.191 1358.82 487.726 1169.14 427.507 C 876.609 334.633 580.25 537.089 531.885 833.389 C 523.638 883.915 524.645 929.159 524.711 979.911 C 594.122 982.232 587.028 1034.54 587.038 1083.67 L 587.033 1382.41 C 587.073 1431.04 603.405 1515 542.847 1528.62 C 528.056 1531.94 509.497 1528.49 495.008 1529.7 C 366.749 1540.41 257.234 1454.28 243.272 1325.21 C 240.47 1283.37 240.816 1221.92 243.32 1180.11 C 248.295 1097.05 320.391 995.718 406.001 985.234 z" fill="rgb(13,22,36)" transform="translate(0,0)"></path>
<path d="M 1172.81 1735.98 C 1164.39 1739.09 1124.45 1734.61 1112.64 1735.87 C 979.915 1750.1 1016.17 1611.93 1073.33 1616.96 C 1097.71 1619.11 1152.23 1613.18 1172.81 1616.89 L 1172.07 1617.66 C 1234.47 1648.41 1228.07 1716.4 1167.91 1735.19 C 1169.96 1735.61 1170.73 1735.79 1172.81 1735.98 z" fill="rgb(80,194,233)" transform="translate(0,0)"></path>
<path d="M 446.598 1094.96 C 452.644 1094.54 462.177 1094.91 468.484 1094.96 C 468.481 1199.58 469.579 1306.22 468.484 1410.62 C 440.042 1409.79 427.02 1407.04 403.065 1391.4 C 378.974 1374.24 362.619 1347.22 358.322 1317.96 C 355.239 1296.96 355.696 1192.85 359.901 1173.1 C 369.062 1130.09 403.248 1101.05 446.598 1094.96 z" fill="rgb(80,194,233)" transform="translate(0,0)"></path>
<path d="M 1577.08 1094.96 C 1681.67 1093.13 1686.52 1172.33 1686.91 1252.94 C 1687.16 1303.7 1691.43 1335.03 1656.09 1375.38 C 1631.34 1398.31 1610.28 1404.75 1577.08 1406.52 L 1577.08 1094.96 z" fill="rgb(80,194,233)" transform="translate(0,0)"></path>
<metadata><recraft-signature>{"signed_by": "recraft", "signature_b64": "O/GPEUFhS0ZUTJGtQqrvRtVWg/NEDrp/Lrk5VjUqyBsKfXr8wA2XzKxgjGcd6bHXBkqJEChPu+Q3cnv+aa80DA==", "signing_algo": "Ed25519", "generation_timestamp": 1772999769, "identifier": "df424fa5-f587-4093-9032-b51951257fbb"}</recraft-signature></metadata></svg>