<svg xmlns="http://www.w3.org/2000/svg" height="512" preserveAspectRatio="none" style="display: block;" version="1.1" viewBox="0 0 2048 2048" width="512">
<path d="M 805.375 1206.51 L 1654.52 1206.52 C 1685.58 1206.52 1727.44 1207.83 1757.9 1206.51 C 1757.15 1226.4 1757.86 1246.79 1757.89 1266.79 L 1757.95 1381.97 C 1757.95 1416.06 1759.16 1486.62 1739.77 1516.52 C 1727.57 1535.32 1713.89 1499.91 1697.48 1546.07 C 1678.42 1587.37 1693.26 1637.07 1670.41 1676.59 C 1660.25 1690.24 1642.59 1704.31 1625.38 1704.45 L 745.755 1704.19 C 744.714 1690.38 745.703 1660.65 745.721 1646.12 L 745.755 1314.59 C 745.752 1278.87 745.216 1242.11 745.755 1206.51 C 765.201 1207.31 785.817 1206.69 805.375 1206.51 z" fill="rgb(0,0,0)" transform="translate(0,0)"></path>
<path d="M 745.755 524.205 C 807.937 547.166 841.713 616.914 884.828 628.315 C 920.993 637.877 950.594 620.859 987.108 619.424 C 1024.7 617.946 1045.82 632.1 1083 631.099 C 1109.32 630.391 1131.16 621.732 1155.63 619.385 C 1199.58 615.489 1249.39 621.977 1292.06 629.746 C 1329.33 636.53 1340.7 636.271 1363.92 666.032 C 1366.92 669.88 1394.72 675.736 1402.26 679.03 C 1428.59 690.541 1428.13 720.249 1445.16 739.876 C 1458.48 758.622 1492.77 765.331 1504.63 782.731 C 1513.88 796.282 1507.77 812.064 1525.42 825.491 C 1538.26 835.258 1611.43 883.355 1621.39 888.235 C 1679.61 918.433 1685.17 900.703 1720.59 969.825 C 1726.05 980.478 1735.4 991.467 1738.99 1004.5 C 1743.31 1020.17 1744.2 1033.02 1750.07 1048.6 C 1753.26 1054.88 1755.34 1059.19 1757.9 1065.71 L 745.755 1065.71 L 745.74 582.807 C 745.73 564.453 744.921 541.993 745.755 524.205 z" fill="rgb(0,0,0)" transform="translate(0,0)"></path>
<path d="M 359.858 343.291 C 399.94 338.078 422.085 372.148 454.331 384.568 C 499.14 401.826 526.456 375.972 603.155 421.357 L 603.162 997.031 C 603.167 1017.68 604.295 1046.15 603.155 1065.71 L 534.5 1065.71 L 288.604 1065.71 L 287.993 417.674 C 288.35 372.682 317.863 349.659 359.858 343.291 z" fill="rgb(0,0,0)" transform="translate(0,0)"></path>
<path d="M 288.604 1206.51 L 603.155 1206.51 C 603.883 1215.62 603.298 1226.61 603.229 1235.9 L 603.153 1622.82 C 603.161 1643.31 604.565 1685.39 603.155 1704.19 L 602.37 1704.87 L 380.481 1704.32 C 294.179 1704.58 288.445 1677.21 288.553 1597.5 L 288.604 1206.51 z" fill="rgb(0,0,0)" transform="translate(0,0)"></path>
<metadata><recraft-signature>{"signed_by": "recraft", "signature_b64": "lqD3r0oUIEBI4t86/LPE6hPAcYAnVoimSBHTJ4yl0ZQOoHbZsi62+DJvFr6y5NjRf7hcfYNWvbi+/21qBpekDg==", "signing_algo": "Ed25519", "generation_timestamp": 1772996572, "identifier": "a0a872f0-df37-435d-8906-67d00b5cc8f8"}</recraft-signature></metadata></svg>