<svg xmlns="http://www.w3.org/2000/svg" height="512" preserveAspectRatio="none" style="display: block;" version="1.1" viewBox="0 0 2048 2048" width="512">
<path d="M 520.487 824.49 L 1573.9 824.459 C 1662.95 824.499 1741.66 864.282 1750.48 963.721 C 1751.54 975.593 1751.05 993.48 1751.03 1005.76 L 1751.08 1063.65 C 1750.96 1153.82 1685.61 1221.84 1594.63 1221.03 L 544.494 1221.08 C 534.403 1221.08 524.362 1221.07 514.293 1220.87 C 432.623 1220.13 360.748 1147.8 361.621 1065.97 C 361.977 1032.63 360.718 995.573 362.648 962.677 C 367.577 878.653 440.448 825.665 520.487 824.49 z M 1594.63 1109.51 C 1639.98 1105.8 1641.21 1064.25 1638.99 1029.83 C 1633.64 946.607 1641.47 937.997 1548.28 937.993 L 745.455 938.014 C 670.501 938.016 591.337 936.689 516.767 937.999 C 478.095 946.641 470.998 978.036 471.881 1012.85 C 472.662 1043.68 464.825 1081.71 495.957 1101.07 C 517.676 1114.58 555.255 1109.54 580.086 1109.54 L 1529.33 1109.52 C 1549.33 1109.52 1575.03 1110.27 1594.63 1109.51 z" fill="rgb(0,0,0)" transform="translate(0,0)"></path>
<path d="M 471.964 286.157 L 1691.24 285.903 C 1765.9 286.622 1770.09 395.172 1693 398.108 C 1666.29 399.126 1639.78 398.72 1613.06 398.705 L 510.574 398.565 C 450.014 398.434 410.522 408.833 410.044 478.454 L 409.968 550.674 C 410.007 658.718 445.898 658.067 546.815 658.026 L 696.5 657.987 L 1657.75 657.911 C 1671.11 657.903 1684.28 657.75 1697.53 658.411 C 1751.59 661.108 1770.46 729.261 1729.4 761.632 C 1706.23 779.903 1650.89 773.513 1621.61 773.506 L 528.551 773.519 C 507.139 773.518 482.327 774.621 461.313 771.963 C 374.877 761.028 303.463 685.787 298.233 598.591 C 293.979 517.773 286.682 411.193 342.002 348.853 C 377.669 308.66 418.576 289.915 471.964 286.157 z" fill="rgb(0,0,0)" transform="translate(0,0)"></path>
<path d="M 462.199 1267 C 467.437 1266.32 491.653 1266.9 498.012 1266.92 L 1693.65 1266.88 C 1761.06 1267.3 1774.53 1357.34 1713.74 1378.74 C 1701.82 1382.94 1649.68 1380.98 1633.17 1380.97 L 514.048 1380.88 C 440.61 1380.73 404.97 1397.04 410.144 1483.55 C 413.591 1541.2 390.414 1618.97 463.811 1641.97 C 481.367 1647.47 529.282 1645.05 549.085 1645.05 L 686.5 1645 L 1579 1644.99 C 1618.3 1644.97 1656.92 1644.61 1696.73 1645.66 C 1740.2 1645.42 1769.58 1695.3 1744.61 1732.37 C 1724.05 1762.9 1694.19 1757.25 1662.98 1757.07 L 555.931 1757.06 C 525.972 1757.08 493.692 1758.25 464.352 1756.18 C 380.362 1750.24 310.517 1680.41 298.898 1597.94 C 293.852 1562.14 294.84 1448.11 300.07 1414.31 C 316.448 1328.96 380.22 1279.99 462.199 1267 z" fill="rgb(0,0,0)" transform="translate(0,0)"></path>
<metadata><recraft-signature>{"signed_by": "recraft", "signature_b64": "M3Sm7J9951Rd8LWZOaarE/URpFYR1coEuIMLLujSKt+8i6ptShKvyc9QkjOnjAarKRVtGXRS9cXLW36xdf5xAw==", "signing_algo": "Ed25519", "generation_timestamp": 1772997937, "identifier": "fa91bcf4-42a1-44b1-9be6-479d4bb1f9e5"}</recraft-signature></metadata></svg>