<svg xmlns="http://www.w3.org/2000/svg" height="512" preserveAspectRatio="none" style="display: block;" version="1.1" viewBox="0 0 2048 2048" width="512">
<path d="M 514.502 1147.02 L 976.886 1147.01 C 1065.11 1146.98 1085.3 1146.07 1084.99 1240.27 L 1085.36 1595.62 C 1085.44 1656.34 1035.03 1653.33 990.208 1653.3 L 892.5 1653.23 L 426.114 1653.27 C 391.266 1653.26 343.241 1662.06 327.234 1621.91 C 320.247 1604.39 324.686 1537.06 324.683 1513.98 L 324.606 1413.22 C 324.194 1349.89 326.709 1286.19 323.56 1222.96 C 316.137 1144.86 363.11 1146.99 425.243 1146.97 L 514.502 1147.02 z M 439.001 1537.51 L 784.582 1537.52 C 839.229 1537.52 901.737 1539.05 955.94 1537.51 C 969.034 1537.94 964.645 1529.85 964.393 1518.83 C 963.884 1496.6 963.994 1474.37 963.987 1452.14 L 964.045 1325.97 C 964.061 1311.01 965.143 1279.14 964.013 1265.52 C 945.617 1264.79 925.668 1265.5 907.015 1265.51 L 448.06 1265.52 C 433.473 1266.35 438.974 1347.58 438.968 1363.59 L 438.973 1473.3 C 438.976 1483.23 439.979 1532.26 439.001 1537.51 z" fill="rgb(0,0,0)" transform="translate(0,0)"></path>
<path d="M 1016.79 393.004 C 1021.68 392.436 1039.03 392.876 1044.6 392.89 L 1626.08 392.974 C 1729.54 392.615 1722.35 409.711 1722.01 495.099 L 1721.97 784.176 C 1722.02 831.068 1735.13 892.113 1671.23 900.578 L 1084.01 900.589 C 960.13 900.643 963.678 895.225 963.996 784.587 L 964.048 519.429 C 963.95 468.495 949.658 404.765 1016.79 393.004 z M 1084.91 781.213 L 1605.55 781.213 L 1605.52 600.801 C 1605.52 572.135 1604.59 537.588 1605.55 509.289 L 1084.91 509.289 C 1083.57 534.37 1084.93 571.567 1084.92 597.419 L 1084.91 781.213 z" fill="rgb(0,0,0)" transform="translate(0,0)"></path>
<path d="M 1658.38 1088.39 C 1721.86 1079.53 1722.02 1143.47 1722.02 1183.8 L 1721.95 1596.95 C 1721.92 1628.22 1704.95 1653.85 1671.23 1653.23 C 1644.1 1662.87 1610.24 1636.77 1608.71 1609.25 C 1607.13 1580.87 1607.87 1551.59 1607.87 1523.06 L 1607.9 1356.08 C 1607.92 1281.47 1607.27 1206.77 1608.08 1132.22 C 1608.36 1106.93 1635.54 1090.65 1658.38 1088.39 z" fill="rgb(0,0,0)" transform="translate(0,0)"></path>
<path d="M 374.841 393.004 C 396.871 386.402 429.558 406.61 434.856 427.016 C 441.621 453.067 438.998 498.095 439.001 525.595 L 439.117 900.794 C 436.49 931.897 424.228 950.163 391.011 957.845 C 313.475 969.463 324.661 881.857 324.658 835.12 L 324.621 526.848 C 324.621 477.596 309.104 399.842 374.841 393.004 z" fill="rgb(0,0,0)" transform="translate(0,0)"></path>
<metadata><recraft-signature>{"signed_by": "recraft", "signature_b64": "AClemL5I5FnowwHBOc5DrtSw1u6p9CYiqBhlTpdUoVaH3PAWfOgNavhbZ+6Iwa18qOw2t9gYjDG0n/6hNRq7BA==", "signing_algo": "Ed25519", "generation_timestamp": 1772998872, "identifier": "79937f1e-5ed8-4641-98fa-0952cfa20748"}</recraft-signature></metadata></svg>