<svg xmlns="http://www.w3.org/2000/svg" height="512" preserveAspectRatio="none" style="display: block;" version="1.1" viewBox="0 0 2048 2048" width="512">
<path d="M 553.002 222.515 C 652.158 214.216 638.514 325.168 638.509 387.194 L 638.49 1187.01 L 1219.12 1186.99 C 1311.11 1186.98 1280.94 1182.42 1331.69 1274.92 L 1535.83 1652.67 C 1554.59 1687.18 1579.05 1720.56 1568.39 1761.12 C 1555.93 1809.33 1502.97 1836.04 1457.97 1811.55 C 1431.7 1797.26 1427.02 1782.09 1413.38 1757.12 L 1384.3 1703.89 C 1354.84 1648.81 1325.31 1593.93 1294.71 1539.48 C 1262.97 1473.16 1219.9 1407.91 1186.41 1341.45 C 1146.59 1342.87 1096.54 1341.48 1055.84 1341.47 L 789.515 1341.41 C 740.783 1341.34 686.774 1340.2 638.49 1341.45 C 639.723 1434.4 638.476 1530.38 638.473 1623.57 L 638.524 1713.35 C 638.668 1740.77 643.748 1764.34 626.671 1788.7 C 600.043 1826.67 546.736 1832.14 509.903 1805.15 C 473.024 1778.13 479.068 1732.93 479.062 1692.02 L 479.08 403.409 C 479.048 334.379 459.47 233.361 553.002 222.515 z" fill="rgb(0,0,0)" transform="translate(0,0)"></path>
<path d="M 815.155 639.996 C 822.776 639.462 835.462 639.909 843.476 639.918 L 901.799 639.965 C 1001.22 640.015 1065.86 638.715 1155.34 697.423 C 1235.88 750.263 1287.57 831.613 1306.74 925.55 C 1316.12 990.023 1324.28 1067.67 1241.25 1082.99 C 1145.66 1085.09 1161.12 1009.65 1152.33 949.933 C 1140.78 871.572 1071.65 806.854 993.4 797.226 C 974.056 794.845 951.324 795.962 931.508 795.974 L 843.95 796.015 C 820.765 795.919 791.034 796.555 772.808 781.002 C 716.574 733.015 741.568 649.421 815.155 639.996 z" fill="rgb(0,0,0)" transform="translate(0,0)"></path>
<metadata><recraft-signature>{"signed_by": "recraft", "signature_b64": "O6DXo0M3/7vUd9FWakgageM9HH7IU7y4EZMVve1G8ziLREwjyAsThwb9nOhPjnHF4r4e5hLP9GnQcqXsbKfrCQ==", "signing_algo": "Ed25519", "generation_timestamp": 1772989967, "identifier": "d018709f-d0ba-47eb-8beb-01557d612995"}</recraft-signature></metadata></svg>