<svg xmlns="http://www.w3.org/2000/svg" height="512" preserveAspectRatio="none" style="display: block;" version="1.1" viewBox="0 0 2048 2048" width="512">
<path d="M 1155.5 156.315 C 1172.04 153.379 1191.51 161.879 1199.93 175.949 C 1223.85 215.925 1189.33 236.69 1168.65 260.704 C 1132.83 302.29 1090.84 361.767 1081.46 416.422 C 1098.62 412.774 1113.08 407.094 1131.15 405.135 C 1194.5 398.268 1241.32 425.34 1288.02 462.992 C 1314.84 461.401 1336.2 460.797 1362.82 467.219 C 1468.98 492.828 1548.33 611.364 1522.33 718.481 C 1603.14 760.179 1643.29 867.772 1621.41 954.583 C 1618.28 966.964 1611.95 982.208 1607.59 994.771 C 1701.26 1129.72 1658.12 1315.84 1504.89 1385.42 C 1486.32 1393.85 1467.67 1397.37 1449.03 1404.77 C 1438.45 1421.55 1429.42 1437.66 1417.24 1453.35 C 1328.36 1567.87 1188.83 1595.12 1057.9 1544.24 C 1057.37 1624.81 1086.87 1715.71 1123.13 1787.98 C 1140.87 1823.34 1156.73 1866.94 1101.87 1878.76 C 1061.76 1883.54 1050.52 1855.86 1035.84 1826.15 C 994.759 1743.04 968.785 1642.46 963.813 1550.13 C 949.146 1554.27 934.72 1558.66 919.819 1561.91 C 798.864 1588.27 651.298 1517.94 598.979 1404.77 C 409.181 1361 334.018 1155.38 439.849 994.771 C 399.735 915.743 421.359 811.998 485.189 752.243 C 499.08 739.239 512.35 730.232 526.911 718.481 C 490.056 593.604 605.997 460.897 737.213 462.738 C 745.074 462.849 752.991 462.809 760.876 462.992 C 768.078 457.425 774.941 450.289 781.891 444.244 C 842.151 391.827 912.536 393.883 981.808 421.08 C 1006.49 321.211 1055.43 228.463 1137.72 162.239 C 1142.11 158.701 1150 157.097 1155.5 156.315 z M 791.799 565.263 C 711.778 517.113 589.468 605.981 619.267 713.815 C 625.257 735.492 634.426 747.549 645.434 766.135 C 611.848 775.651 582.423 783.739 556.695 808.69 C 501.196 862.516 503.233 947.759 555.791 1002.65 C 546.112 1012.57 536.608 1021.82 527.51 1032.29 C 424.969 1150.32 525.678 1332.98 663.831 1316.45 C 690.465 1461.69 879.659 1521.27 996.193 1426.82 C 1004.77 1419.86 1012.57 1411.42 1021.08 1404.77 C 1152.33 1522.35 1327.57 1489.83 1386.19 1316.45 C 1487.87 1323.25 1571.3 1236.65 1564.09 1135.92 C 1559.03 1084.28 1532.92 1034.92 1491.9 1002.65 C 1572.8 904.344 1518.73 782.148 1405.47 766.135 C 1478.12 644.729 1397.35 523.598 1259.34 565.263 C 1215.27 513.439 1150.37 464.284 1086.59 519.009 C 1045.46 554.299 1057.51 587.197 1062.33 635.393 C 1145.53 650.953 1226.31 714.864 1244.1 800.056 C 1218.25 811.655 1187.34 826.968 1161.63 837.2 C 1144.23 791.198 1126.91 757.041 1079.26 735.976 C 983.98 693.853 913.225 746.247 879.407 834.121 C 852.74 821.327 823.154 811.686 796.476 800.056 C 819.772 716.66 878.133 655.038 963.813 635.393 C 960.114 593.136 958.076 562.838 963.813 520.62 C 939.684 501.243 918.502 493.797 887.577 495.179 C 845.748 503.482 820.081 535.001 791.799 565.263 z" fill="rgb(26,19,18)" transform="translate(0,0)"></path>
<metadata><recraft-signature>{"signed_by": "recraft", "signature_b64": "ktnn5IL0oS/keM2wnfKuT+uZg+10s3VGOD6ItXnpElkCOWvrqQm348T7qXnG75dMEbFJYbYFp7w+ebsLtby9DQ==", "signing_algo": "Ed25519", "generation_timestamp": 1772997286, "identifier": "5197a91d-5645-4b8c-b5cf-b7de87517447"}</recraft-signature></metadata></svg>