<svg xmlns="http://www.w3.org/2000/svg" height="512" preserveAspectRatio="none" style="display: block;" version="1.1" viewBox="0 0 2048 2048" width="512">
<path d="M 1174.72 419.049 C 1313.9 411.371 1451.08 477.445 1543.4 579.697 C 1710.25 764.503 1705.35 1039.92 1530.3 1217.05 C 1511.65 1235.92 1491.79 1249.04 1472.06 1266.14 C 1481.93 1278 1490.32 1291.22 1499.35 1303.73 L 1704 1584.66 C 1722.47 1609.61 1747.97 1636.47 1745.07 1669.5 C 1738.96 1739.12 1656.05 1767.6 1610.24 1713.79 C 1598.15 1699.59 1586.57 1681.41 1575.51 1666.03 L 1311.09 1304.03 C 1257.58 1230.77 1201.79 1159 1149.19 1085.03 C 1144.14 1077.93 1138.6 1070.95 1134.27 1063.34 C 1103.16 1008.63 1139.74 939.851 1205.1 946.128 C 1244.11 950.099 1258.72 980.461 1280.13 1007.96 C 1312.28 1053.01 1347.64 1096.27 1378.69 1141.99 C 1475.63 1067.11 1525.31 966.815 1507.2 841.613 C 1483.06 674.791 1324.7 548.27 1155.23 573.38 C 963.73 601.754 837.885 793.426 894.679 980.138 C 909.419 1028.6 928.642 1057.02 958.06 1096.67 C 974.519 1119.58 997.516 1136.7 1001.65 1166.34 C 1010.98 1233.26 930.011 1279.74 877.856 1236.16 C 797.655 1169.14 740.608 1028.47 731.825 928.045 C 712.581 697.251 866.4 477.721 1094.6 429.022 C 1124.96 422.543 1144.32 421.637 1174.72 419.049 z" fill="rgb(0,0,0)" transform="translate(0,0)"></path>
<path d="M 371.827 1093.3 C 474.143 1084.52 460.098 1189.01 459.935 1254.01 L 619.589 1253.97 C 699.436 1253.96 724.569 1239.33 771.969 1310.75 C 840.665 1414.32 911.822 1516.29 985.329 1616.53 C 1047.57 1701.39 938.413 1780.84 870.776 1721.69 C 850.455 1703.93 785.774 1600.29 768.504 1574.47 C 753.647 1549.59 732.827 1522.43 716.544 1497.93 L 680.073 1442.5 C 672.486 1431.01 661.715 1414.32 652.668 1404.28 L 525.492 1404.29 C 504.537 1404.31 480.556 1405.05 459.935 1404.28 L 458.714 1580.95 C 458.775 1640.84 476.363 1718.69 397.083 1739.16 C 360.233 1748.68 315.809 1717.46 308.565 1682.11 C 304.005 1659.86 306.017 1615.95 306.011 1592.14 L 306.007 1253.34 C 306.011 1191.43 289.804 1106.95 371.827 1093.3 z" fill="rgb(0,0,0)" transform="translate(0,0)"></path>
<path d="M 371.827 303.28 C 452.178 292.905 459.503 367.16 459.975 425.76 L 459.959 777.063 C 459.952 845.229 479.262 933.516 394.215 952.82 C 304.421 962.338 306.023 880.417 306.016 817.345 L 306.013 474.698 C 306.01 407.769 287.336 321.369 371.827 303.28 z" fill="rgb(0,0,0)" transform="translate(0,0)"></path>
<metadata><recraft-signature>{"signed_by": "recraft", "signature_b64": "U/dqEuWxgJ3UIpKlLn76UViE6o7kgljJ15WLr+Hk4QSYSsiwEpceNXDqEP2NyA5CNcuBSbgWyafO0gFJaDGECg==", "signing_algo": "Ed25519", "generation_timestamp": 1772989231, "identifier": "027636fb-2343-471e-884c-d9fd32e54e37"}</recraft-signature></metadata></svg>