<svg xmlns="http://www.w3.org/2000/svg" height="512" preserveAspectRatio="none" style="display: block;" version="1.1" viewBox="0 0 2048 2048" width="512">
<path d="M 1007.8 315 C 1031.08 312.264 1071.49 319.615 1091.24 331.595 L 1588.65 638.314 C 1688.7 699.903 1741.73 715.342 1742 848.357 L 1742.03 1481.07 C 1742.07 1511.96 1743.89 1547.97 1738.46 1577.71 C 1724.88 1652.15 1662.9 1711.13 1589.3 1725.42 C 1568.11 1729.54 1541.22 1728.06 1519.3 1728.03 L 1038.75 1727.97 L 536.034 1727.99 C 527.407 1727.99 516.142 1727.42 507.827 1727.94 C 412.219 1733.96 328.91 1674.14 311.93 1578.06 C 307.173 1551.15 307.501 1523.36 307.488 1494.66 L 307.469 856.881 C 306.142 714.214 369.341 695.156 470.525 631.916 L 922.753 350.891 C 957.05 329.414 966.715 322.73 1007.8 315 z M 1033.08 1586.57 L 1509.52 1586.6 C 1608.3 1586.63 1602.04 1584.09 1601.97 1477.89 L 1601.73 846.861 C 1601.38 791.937 1557.95 779.5 1518.67 755.23 L 1119.93 508.601 C 1093.68 492.731 1048.18 453.911 1016.78 457.104 C 1001.01 461.232 939.014 502.071 921.574 512.882 L 554.124 739.201 C 524.523 757.436 494.452 774.809 465.367 794.045 C 438.898 811.55 446.944 854.086 446.943 883 L 446.956 1478.1 C 446.786 1574.64 434.806 1586.68 545.933 1586.58 L 1033.08 1586.57 z" fill="rgb(0,0,0)" transform="translate(0,0)"></path>
<metadata><recraft-signature>{"signed_by": "recraft", "signature_b64": "6aEuqMdhOCP7BXGodm9h8DSc5fcgcFpNmNHkn8GSwjAC5Ev6ywITIlcIpZyjGal1ypiPUPWCZFP1VNslIU2fDA==", "signing_algo": "Ed25519", "generation_timestamp": 1772999452, "identifier": "a0f44ed2-8b2e-4a57-a5ae-7df0c550b91e"}</recraft-signature></metadata></svg>