<svg xmlns="http://www.w3.org/2000/svg" height="512" preserveAspectRatio="none" style="display: block;" version="1.1" viewBox="0 0 2048 2048" width="512">
<path d="M 912.812 225.001 C 979.788 223.892 1069.46 220.891 1135.56 225.227 C 1198.68 229.368 1252.31 285.419 1255.62 348.246 C 1256.4 363.006 1255.21 377.137 1255.1 391.551 L 1255 474.775 C 1255.03 520.307 1258.71 573.399 1255.05 617.704 L 1054 617.704 L 1054 832.02 C 1063.39 832.66 1076.53 832.064 1086.28 832.057 L 1334.99 832.019 C 1364.45 832.014 1397.67 831.151 1426.74 832.02 L 1426.74 1215.08 L 1054 1215.08 L 1054 1421.24 L 1255.05 1421.24 C 1255.6 1465.49 1255.07 1511 1255.07 1555.33 L 1255.05 1818.49 L 1137.5 1818.49 L 907.428 1818.48 C 870.026 1818.48 828.998 1819.52 792.051 1818.49 L 792.051 1421.24 L 993.42 1421.24 C 993.414 1352.88 994.131 1283.36 993.42 1215.08 L 734.841 1215.06 C 697.073 1215.07 657.575 1215.77 620.011 1215.08 C 619.242 1192.95 619.966 1169.91 619.99 1147.63 L 620.003 896.427 C 619.992 875.761 619.277 852.346 620.011 832.02 L 993.42 832.02 L 993.407 695.925 C 993.389 669.404 992.03 644.167 993.42 617.704 C 929.585 614.794 856.142 616.596 792.051 617.704 C 795.087 593.208 792.192 581.902 792.072 558.918 L 792.048 424.821 C 791.965 329.654 793.828 237.996 912.812 225.001 z M 1364.1 1154.15 L 1364.1 893.369 L 908.738 893.362 C 834.97 893.36 755.32 891.861 682.016 893.369 L 682.022 1066.59 C 682.043 1093.96 683.305 1127.58 682.016 1154.15 L 1364.1 1154.15 z M 1193.07 1756.9 L 1193.07 1482.96 L 854.997 1482.96 L 854.839 1717.42 C 854.718 1729.66 853.882 1744.89 854.997 1756.9 L 1193.07 1756.9 z M 854.997 556.988 L 1125.5 556.988 L 1193.07 556.988 L 1193.04 404.453 C 1193.01 315.041 1187.39 284.256 1087.29 284.923 L 925.099 284.996 C 844.529 294.452 854.986 360.87 854.967 420.835 L 854.997 556.988 z" fill="rgb(0,0,0)" transform="translate(0,0)"></path>
<path d="M 854.997 930.486 L 912.812 930.486 L 912.812 994.854 C 934.003 994.44 955.766 994.756 976.999 994.854 L 976.999 1053.43 C 955.73 1053.03 934.11 1053.33 912.812 1053.43 C 911.577 1071.42 913.218 1098.09 912.812 1117.55 C 906.573 1119.09 863.631 1117.57 854.997 1117.55 L 854.997 1053.43 L 790.992 1053.43 C 790.623 1034.27 790.969 1014.09 790.992 994.854 L 854.997 994.854 C 855.105 977.685 853.596 945.932 854.997 930.486 z" fill="rgb(0,0,0)" transform="translate(0,0)"></path>
<path d="M 1170.77 930.486 C 1184.12 928.586 1197.51 931.446 1204.51 944.387 C 1212.19 958.603 1209.33 1084.97 1205.88 1093.34 C 1201.72 1103.44 1193.42 1109.26 1183.63 1113.21 C 1169.82 1116.15 1152.58 1108.63 1148.31 1094.39 C 1144.58 1081.93 1144.71 971.3 1146.76 955.095 C 1148.51 941.316 1157.62 933.884 1170.77 930.486 z" fill="rgb(0,0,0)" transform="translate(0,0)"></path>
<path d="M 993.42 1532.52 L 1054 1532.52 C 1054.06 1552.34 1054.21 1572.19 1054 1592.01 C 1075.52 1592.3 1097.38 1591.82 1119.01 1592.01 L 1119.01 1653.99 C 1101.4 1655.28 1072.9 1653.81 1054 1653.99 C 1053.64 1675.52 1055.92 1687.1 1054 1709.88 C 1053.17 1710.55 999.66 1709.88 993.42 1709.88 C 993.188 1691.4 993.406 1672.5 993.42 1653.99 L 932.016 1653.99 L 932.016 1592.01 L 993.42 1592.01 C 993.416 1572.3 993.871 1552.18 993.42 1532.52 z" fill="rgb(0,0,0)" transform="translate(0,0)"></path>
<metadata><recraft-signature>{"signed_by": "recraft", "signature_b64": "raxT1uEKDAnz2lj0y0OXQA7iMro9hCxB2x4U4WwGgQLnbui0LZFVIsxggAhxW7PPBXgoZUTAQyWttEd073LLAg==", "signing_algo": "Ed25519", "generation_timestamp": 1772997169, "identifier": "0c000bc4-56a8-4537-b57e-162712de3d85"}</recraft-signature></metadata></svg>