<svg xmlns="http://www.w3.org/2000/svg" height="512" preserveAspectRatio="none" style="display: block;" version="1.1" viewBox="0 0 2048 2048" width="512">
<path d="M 239.526 326.043 C 285.736 324.953 336.488 326.044 383.012 326.043 L 383.012 783.005 C 392.033 783.721 404.328 783.098 413.667 783.058 L 657.584 783.005 L 657.58 376.731 C 657.573 360.032 657.037 342.6 657.584 326.043 C 690.27 328.379 766.799 328.676 799.547 326.043 L 799.547 783.005 L 1809.88 783.005 L 1809.88 926.17 L 799.547 926.17 C 798.381 938.741 799.504 974.679 799.512 989.118 L 799.547 1122 L 1809.63 1120.76 L 1809.88 1122 L 1809.88 1263.21 L 799.547 1263.21 C 800.235 1279.09 799.581 1298.93 799.564 1315.06 L 799.547 1718.99 L 657.584 1718.99 L 657.584 1263.21 L 383.012 1263.21 C 382.311 1277.63 382.985 1297.78 382.987 1312.75 L 383.012 1718.99 L 239.526 1718.99 L 239.526 1122 L 498.519 1122 C 550.945 1122 605.352 1121.21 657.584 1122 C 658.597 1104.35 657.627 1077.22 657.614 1058.55 L 657.584 926.17 L 239.526 926.17 C 238.92 900.276 239.508 872.361 239.513 846.249 L 239.526 326.043 z" fill="rgb(0,0,0)" transform="translate(0,0)"></path>
<metadata><recraft-signature>{"signed_by": "recraft", "signature_b64": "5M9te61LJ9JnEO6CWuuSXxKNPeEGmvUf6WdzZHBgQ1SIJm91UvP8n2MRhDecVpT9+chjREAQcVD4/Pc8vkNWDA==", "signing_algo": "Ed25519", "generation_timestamp": 1772997494, "identifier": "2f3c1a60-6390-4d17-ace0-3ab35e7cb62d"}</recraft-signature></metadata></svg>