<svg xmlns="http://www.w3.org/2000/svg" height="512" preserveAspectRatio="none" style="display: block;" version="1.1" viewBox="0 0 2048 2048" width="512">
<path d="M 1004.47 260.091 C 1010.46 259.723 1016.29 259.663 1022.3 259.672 C 1337.06 260.137 1612.65 482.599 1680.94 787.926 C 1694.84 850.088 1698.17 919.565 1696.98 983.103 C 1764.12 1039.65 1813.29 1101.91 1822.04 1194.03 C 1825.67 1232.31 1826.33 1324.64 1822.43 1362.99 C 1810.01 1484.82 1708.33 1596.42 1588.06 1619.7 C 1565.95 1623.98 1548.13 1625.19 1526.13 1627.25 C 1545.99 1658.08 1572.91 1669.32 1571.23 1712.86 C 1569.11 1767.65 1513.55 1803.07 1463.26 1781.19 C 1436.63 1769.6 1402.51 1717.95 1382.38 1693.65 L 874.025 1087.03 C 848.971 1057.42 823.497 1025.4 798.34 996.5 L 598.411 759.281 C 584.075 742.385 570.602 725.705 555.743 709.189 C 525.204 781.118 504.33 845.411 505.866 925.004 C 525.206 922.404 539.595 925.654 557.835 925.059 C 680.076 921.077 670.191 967.009 670.01 1067.96 L 670.068 1515.7 C 670.099 1538 672.601 1560.6 662.99 1581.25 C 639.479 1640.41 539.167 1627.24 488.458 1623.05 C 340.081 1610.79 221.214 1475.49 226.022 1327.04 C 227.358 1285.78 223.223 1243.9 226.799 1202.8 C 235.98 1110.92 281.938 1040.74 350.378 983.103 C 343.655 791.184 403.744 609.998 537.757 468.566 C 656.133 343.637 831.344 262.437 1004.47 260.091 z M 646.214 586.512 L 1290.36 1349.33 C 1313.97 1378.26 1355.55 1421.78 1375.37 1451.52 C 1376.76 1417.93 1375.37 1374.52 1375.37 1339.86 L 1375.32 1045.87 C 1375.34 952.65 1392.93 924.833 1488.61 924.913 L 1541.07 925.004 C 1541.6 646.274 1281.74 396.867 1004.47 413.977 C 877.611 423.585 725.606 483.1 646.214 586.512 z M 1535.35 1467.41 C 1573.45 1465.11 1601.49 1454.78 1629.82 1428.75 C 1671.25 1386.69 1671.05 1355.94 1671.03 1302.54 L 1670.99 1231.82 C 1670.42 1152.74 1618.77 1082.55 1535.35 1079.63 L 1535.32 1419.78 C 1535.31 1434.55 1534.76 1453 1535.35 1467.41 z M 422.955 1428.75 C 460.686 1455.49 464.113 1456.84 509.114 1467.41 C 510.14 1433.72 509.099 1394.58 509.093 1360.33 L 509.111 1144.65 C 509.114 1138.56 509.699 1084.39 509.114 1083.4 C 446.607 1092.26 401.144 1129.29 385.943 1192.73 C 379.022 1221.61 383.669 1254.15 382.361 1283.73 C 381.391 1350.43 380.27 1372.65 422.955 1428.75 z" fill="rgb(34,32,33)" transform="translate(0,0)"></path>
<metadata><recraft-signature>{"signed_by": "recraft", "signature_b64": "GYKdm03qXbTPJbXeXAA8+DOqwrRreAVOtVsZsnSWuGHxhLKEPpmIldG/wIUTaxeCLTBHkM+ldh0BVu/bFTfzDA==", "signing_algo": "Ed25519", "generation_timestamp": 1772989595, "identifier": "84ca02e7-31e8-4f24-978c-e712c61045d7"}</recraft-signature></metadata></svg>