<svg xmlns="http://www.w3.org/2000/svg" height="512" preserveAspectRatio="none" style="display: block;" version="1.1" viewBox="0 0 2048 2048" width="512">
<path d="M 413.349 386.003 C 432.168 384.764 468.839 385.961 488.647 385.973 L 1576.41 385.948 C 1596.88 385.94 1623.4 385.139 1643.06 387.617 C 1728.25 398.351 1803.59 470.339 1810.48 557.494 C 1812.05 577.33 1811.49 603.642 1811.49 623.94 L 1811.49 1426.93 C 1811.43 1482.33 1807.91 1522.72 1769.84 1568.18 C 1732.84 1612.36 1690.54 1633.04 1633.25 1638 C 1603.27 1636.78 1564.59 1638.01 1534.01 1638.02 L 450.749 1638.1 C 436.6 1638.22 418.501 1638.93 404.936 1637.11 C 323.275 1626.12 248.229 1555.75 238.528 1472.89 C 236.347 1454.26 236.967 1434.57 236.995 1415.64 L 237.01 617.658 C 237.016 498.24 277.419 403.141 413.349 386.003 z M 427.035 1454.96 L 1618.25 1454.96 L 1620.92 1454.4 C 1621.64 1448.55 1621.27 1433.86 1621.29 1427.39 L 1621.45 571.917 L 434.824 571.917 C 431.852 572.11 429.172 571.692 427.307 573.186 C 425.934 604.485 427 642.035 427.02 673.884 L 427.035 1454.96 z" fill="rgb(0,0,0)" transform="translate(0,0)"></path>
<path d="M 618.116 1131.28 C 664.788 1128.23 754.295 1124.82 787.447 1152.43 C 852.818 1206.88 819.938 1311.15 735.25 1317.98 L 655.227 1318.07 C 639.041 1318.08 617.644 1319.38 602.179 1315.98 C 505.914 1294.83 500.275 1146.4 618.116 1131.28 z" fill="rgb(0,0,0)" transform="translate(0,0)"></path>
<path d="M 1371.51 1131.28 L 1372.78 1131.27 C 1414.84 1131.06 1456.72 1127.22 1488.43 1159.22 C 1524.65 1195.77 1522.88 1256.06 1487.15 1292.12 C 1456.91 1322.63 1410.98 1318.09 1371.51 1317.98 C 1329.03 1318.14 1287.37 1323.38 1254.64 1291.41 C 1200.34 1238.36 1229.26 1145.56 1304.11 1133.64 C 1324.86 1130.33 1350.39 1131.21 1371.51 1131.28 z" fill="rgb(0,0,0)" transform="translate(0,0)"></path>
<path d="M 1009.5 1131.18 C 1061.54 1123.25 1110.07 1159.24 1117.59 1211.34 C 1125.12 1263.44 1088.75 1311.69 1036.6 1318.81 C 985.01 1325.86 937.396 1289.98 929.953 1238.44 C 922.511 1186.91 958.026 1139.02 1009.5 1131.18 z" fill="rgb(0,0,0)" transform="translate(0,0)"></path>
<metadata><recraft-signature>{"signed_by": "recraft", "signature_b64": "K8bTxKquBrKTOEo720zsrDDzY3U/374B/X1sYMHnR8kWBRy23V18uy6RFdJoUxj32vn3dQizfox5IQEC6QmkBA==", "signing_algo": "Ed25519", "generation_timestamp": 1772989885, "identifier": "23a90cb6-7716-46dc-8df2-91b30e0d82ff"}</recraft-signature></metadata></svg>