<svg xmlns="http://www.w3.org/2000/svg" height="512" preserveAspectRatio="none" style="display: block;" version="1.1" viewBox="0 0 2048 2048" width="512">
<path d="M 1617.83 1173.23 C 1663.42 1159.16 1702.35 1210.82 1702.54 1255.91 L 1702.53 1518 C 1702.53 1600.62 1675.11 1679.42 1581.83 1698.92 C 1543 1707.03 1486.82 1703.89 1445.49 1703.87 L 1247.13 1703.9 C 1141.24 1699.29 1141.49 1572.12 1220.07 1551.74 C 1234.24 1548.07 1254.58 1549.12 1269.45 1549.13 L 1324.41 1549.19 C 1397.35 1549.29 1474.57 1550.52 1546.99 1549.18 L 1546.92 1271.57 C 1546.89 1223.47 1555.37 1175.22 1617.83 1173.23 z" fill="rgb(0,0,0)" transform="translate(0,0)"></path>
<path d="M 413.768 1173.23 C 516.704 1165.01 500.461 1271.03 500.431 1336.88 L 500.409 1549.18 L 778.57 1549.15 C 803.251 1549.14 827.126 1546.79 848.318 1561.41 C 911.113 1604.73 889.094 1688.94 816.471 1703.9 C 796.545 1702.51 758.099 1703.89 736.215 1703.9 L 569.163 1703.93 C 539.13 1703.97 503.713 1705.56 474.374 1701.22 C 412.624 1692.09 360.013 1634.84 350.068 1574.42 C 347.083 1554.08 348.345 1529.75 348.351 1508.94 L 348.36 1294.72 C 348.351 1237.85 345.747 1184.75 413.768 1173.23 z" fill="rgb(0,0,0)" transform="translate(0,0)"></path>
<path d="M 1234.97 341.011 C 1247.13 340.077 1273.83 340.952 1287.2 340.96 L 1496.06 340.968 C 1662.65 340.69 1702.73 402.452 1702.48 563.868 L 1702.53 744.224 C 1702.53 796.396 1700.32 856.898 1629.85 862.289 C 1565.38 866.751 1546.72 818.246 1546.88 765.696 L 1546.99 495.675 L 1268.54 495.742 C 1243.42 495.756 1217.75 498.309 1197.07 482.053 C 1137.77 435.454 1160.54 352.126 1234.97 341.011 z" fill="rgb(0,0,0)" transform="translate(0,0)"></path>
<path d="M 497.768 341.011 C 513.96 339.405 541.178 340.976 558.141 340.978 L 767.241 340.999 C 803.158 340.987 836.623 336.278 863.635 364.765 C 906.12 407.424 883.335 482.157 824.667 493.11 C 797.687 498.146 755.287 495.658 727.043 495.653 L 576.408 495.665 C 551.909 495.661 524.607 494.924 500.409 495.675 C 499.597 504.106 500.327 529.431 500.336 538.99 L 500.409 628.5 L 500.438 741.61 C 500.436 758.593 502.272 794.854 498.385 809.09 C 476.05 890.898 359.981 883.695 348.81 798.863 C 346.898 784.347 348.263 767.129 348.289 752.87 L 348.343 549.165 C 348.084 437.468 370.853 357.038 497.768 341.011 z" fill="rgb(0,0,0)" transform="translate(0,0)"></path>
<metadata><recraft-signature>{"signed_by": "recraft", "signature_b64": "oBjOlyHfU580dVO+VIHwSL7oN5Vemc5G8J8ccGUANIaW/WjAwrMnyn29/DDhqRRwvWWJbdKzKgtxsUm8Z0UiCg==", "signing_algo": "Ed25519", "generation_timestamp": 1772989354, "identifier": "3150216f-1ea9-4033-b48e-d048c3eb7cf9"}</recraft-signature></metadata></svg>