<svg xmlns="http://www.w3.org/2000/svg" height="512" preserveAspectRatio="none" style="display: block;" version="1.1" viewBox="0 0 2048 2048" width="512">
<path d="M 1233.8 255.314 C 1365.53 236.786 1506.45 342.241 1530.58 472.947 C 1545.86 473.583 1564.72 472.98 1580.4 472.963 L 1661.69 472.986 C 1699.04 472.737 1730.39 467.175 1761.48 492.095 C 1813.85 533.017 1793.55 621.979 1728.7 635.647 C 1707.15 640.189 1672.8 638.108 1649.96 638.1 L 1515.39 638.08 C 1502.13 674.067 1483.89 697.161 1458.43 724.937 C 1292.23 886.255 1019.06 800.27 986.256 570.519 C 962.718 405.649 1074.5 277.13 1233.8 255.314 z M 1269.53 639.433 C 1329.3 635.252 1374.38 583.446 1370.26 523.676 C 1366.15 463.905 1314.39 418.765 1254.62 422.812 C 1194.75 426.866 1149.52 478.72 1153.64 538.586 C 1157.76 598.451 1209.67 643.62 1269.53 639.433 z" fill="rgb(0,0,0)" transform="translate(0,0)"></path>
<path d="M 1177.71 1276.17 C 1252.11 1272.02 1270.46 1331.13 1302.54 1385.52 C 1324.95 1423.49 1373.12 1480.87 1362.79 1524.63 C 1348.07 1587 1267.04 1608.64 1221.3 1566.57 C 1204.53 1551.14 1162.62 1471.76 1148.02 1447 L 817.798 1446.93 C 798.993 1446.92 779.077 1445.99 760.668 1449.27 C 669.785 1465.47 665.355 1599.15 754.723 1621.31 C 789.694 1629.98 902.108 1623.59 943.012 1624.17 C 963.781 1624.5 985.675 1633.21 999.921 1648.74 L 1000.78 1649.7 C 1055.03 1715.79 1007.12 1790.99 922.019 1791.38 L 824.382 1791.36 C 731.623 1791.59 669.366 1787.06 597.042 1714.91 C 458.23 1577.69 524.088 1332.06 717.009 1286.13 C 755.867 1276.88 805.734 1279.81 846.45 1279.82 L 990.063 1279.84 C 1053.05 1279.84 1115.75 1275.99 1177.71 1276.17 z" fill="rgb(0,0,0)" transform="translate(0,0)"></path>
<path d="M 708.786 255.314 C 756.984 250.934 805.681 296.168 798.727 345.303 C 796.774 359.101 794.526 372.123 792 385.838 L 763.368 539.218 C 745.613 637.583 745.6 638.725 645 675.909 L 537.021 715.815 C 554.072 747.805 585.534 793.868 605.957 824.779 C 667.345 917.695 654.933 940.279 573.101 1001.5 L 493.58 1061.28 C 462.308 1084.62 379.436 1157.67 342.968 1159.03 L 341.542 1158.86 C 294.397 1153.06 246.697 1111.36 254.824 1060.39 C 261.684 1007.27 337.739 970.114 378.453 937.713 C 401.458 919.405 425.414 902.026 448.857 884.25 C 443.707 876.99 435.643 862.546 430.873 854.574 L 394.664 793.537 C 366.197 745.614 324.108 700.841 345.418 643.309 C 362.262 597.834 402.34 588.586 443.499 573.614 L 532.119 541.672 C 551.29 534.852 577.757 525.922 596.255 517.699 C 602.842 481.464 611.075 444.866 617.837 408.132 L 628.415 351.548 C 638.603 297.36 648.181 265.495 708.786 255.314 z" fill="rgb(0,0,0)" transform="translate(0,0)"></path>
<path d="M 1251.04 980.563 C 1327.1 974.036 1416.45 1013.49 1470.26 1065.72 C 1495.47 1090.19 1508.51 1116.68 1525.92 1146.51 C 1598.61 1271.08 1673 1396.24 1743.86 1521.57 C 1755.4 1542 1768.46 1561.75 1779.36 1582.41 C 1809.55 1638.07 1773.46 1708.71 1706.75 1709.15 C 1662.71 1709.99 1648.41 1685.74 1628.86 1653.24 L 1605.01 1614.24 C 1566.23 1550.63 1532.51 1488.85 1496.29 1424.13 L 1390.09 1238.43 C 1306.06 1090.26 1262.12 1185.42 1202 1133.53 C 1142.29 1082 1169.22 987.726 1251.04 980.563 z" fill="rgb(0,0,0)" transform="translate(0,0)"></path>
<metadata><recraft-signature>{"signed_by": "recraft", "signature_b64": "Is7RI8b1r0uB/X2WpPGHPh1DtVdaaEQunDohIaMMsrQAfqTBSRnZ4PAc127EywNDHLg6G3odGP5tlC99v1vyDw==", "signing_algo": "Ed25519", "generation_timestamp": 1772989511, "identifier": "74daedb6-3e38-4d11-95d4-42753f419519"}</recraft-signature></metadata></svg>