<svg xmlns="http://www.w3.org/2000/svg" height="512" preserveAspectRatio="none" style="display: block;" version="1.1" viewBox="0 0 2048 2048" width="512">
<path d="M 338.615 313.181 C 357.264 312.271 384.613 313.127 403.827 313.145 L 1611.62 313.183 C 1643.38 313.185 1675.08 313.044 1706.88 313.494 C 1740.38 313.968 1732.15 348.086 1731.96 371.339 L 1731.88 1598.28 C 1731.88 1633.46 1730.46 1679.06 1731.88 1713.13 C 1725.21 1722.6 1722.75 1724.98 1711.25 1726.85 L 338.692 1726.81 C 303.969 1726.62 316.818 1667.47 316.828 1638.59 L 316.756 369.666 C 316.581 347.16 309.265 318.26 338.615 313.181 z M 357.995 353.099 C 356.936 400.772 357.997 452.561 358 500.539 L 357.995 1686.01 C 402.205 1687 450.587 1686.02 495.049 1686.01 L 1602.5 1686.01 C 1631.7 1685.95 1661.46 1685.09 1690.49 1686.01 L 1690.49 353.099 C 1646.04 354.016 1598.22 353.099 1553.49 353.097 L 448.997 353.099 L 357.995 353.099 z" fill="rgb(0,0,0)" transform="translate(0,0)"></path>
<path d="M 531.587 1038.98 L 575.526 1038.98 C 596.421 1097.95 625.466 1175.95 651.344 1231.95 L 604.943 1231.95 C 601.451 1219.45 594.584 1185.15 581.249 1183.4 C 560.674 1183.36 539.163 1183.93 518.696 1183.4 C 512.231 1197.42 505.686 1217.16 500.687 1231.95 C 485.457 1231.2 474.742 1231.08 459.781 1231.95 C 465.311 1212.55 479.259 1178.89 486.91 1158.75 L 531.587 1038.98 z M 531.587 1150.97 C 539.548 1151.07 547.289 1151.08 555.25 1150.97 L 575.526 1150.97 C 572.944 1128.73 560.707 1106.83 555.25 1084.63 C 543.818 1100.66 533.353 1131.53 531.587 1150.97 z" fill="rgb(0,0,0)" transform="translate(0,0)"></path>
<path d="M 484.593 707.001 L 524.93 707.001 C 523.902 730.553 523.211 756.558 524.93 779.998 L 597.021 779.998 L 597.021 707.001 L 637.894 707.001 C 637.895 728.331 639.047 891.74 636.461 896.882 L 632.23 897.542 C 620.381 897.336 608.867 897.413 597.021 897.542 C 597.866 871.354 597.089 844.344 597.021 817.991 L 524.93 817.991 L 524.93 897.542 L 484.593 897.542 L 484.593 707.001 z" fill="rgb(0,0,0)" transform="translate(0,0)"></path>
<path d="M 830.154 755.001 C 895.488 752.125 896.037 785.997 895.994 834.76 L 895.935 897.542 C 883.838 897.902 870.241 897.579 858.037 897.542 L 858.037 881.091 C 836.685 902.52 789.01 914.15 774.325 881.091 C 763.093 869.109 766.006 843.872 775.409 832.18 C 795.885 806.719 893.853 820.311 846.024 785.939 C 830.644 783.033 820.061 782.523 812.398 795.023 C 808.497 801.386 782.63 799.129 774.325 798.999 C 782.701 766.995 797.435 756.043 830.154 755.001 z M 814.291 869.536 C 855.367 879.912 863.855 831.084 852.413 835.001 C 836.531 836.287 781.005 846.81 814.291 869.536 z" fill="rgb(0,0,0)" transform="translate(0,0)"></path>
<path d="M 943.015 1089.01 C 999.324 1082.72 1018.92 1120.33 1017.7 1170.27 C 1005.43 1170.44 931.507 1168.92 925.301 1171.15 C 919.19 1184.44 954.617 1232.02 980.424 1180.26 C 991.312 1183.64 995.745 1183.57 1007.08 1183.4 L 1017.7 1189.98 C 1001.31 1231.47 951.143 1248.73 914.639 1225.17 C 871.108 1197.06 869.836 1102.49 943.015 1089.01 z M 961.5 1145.05 L 980.424 1145.05 C 972.836 1121.45 968.244 1117.36 943.015 1119.13 C 933.706 1123 925.089 1132.72 925.078 1143.13 C 927.526 1146.2 955.811 1145.06 961.5 1145.05 z" fill="rgb(0,0,0)" transform="translate(0,0)"></path>
<path d="M 1316.79 1089.01 C 1421.37 1088.15 1379.8 1155.66 1391.85 1231.95 C 1380.31 1232.58 1366.37 1232.18 1354.7 1231.95 C 1352.54 1226.2 1351.49 1222.64 1349.93 1216.76 C 1325.56 1235.05 1300.1 1244.18 1275.35 1220.07 C 1269.7 1212.6 1266.88 1205.15 1266.38 1195.74 C 1263.06 1133.28 1335.83 1156.65 1349.06 1138.25 C 1358.05 1125.77 1325.28 1098.43 1306.62 1135.23 C 1294.28 1133.45 1283.07 1133.61 1270.34 1130.97 C 1278.27 1103.38 1288.67 1094.73 1316.79 1089.01 z M 1313.22 1203.24 C 1336.83 1211.62 1353.65 1193.25 1348.71 1170.18 L 1347.57 1169.37 L 1345.42 1170.27 C 1327.31 1171.02 1289.03 1178.88 1313.22 1203.24 z" fill="rgb(0,0,0)" transform="translate(0,0)"></path>
<path d="M 1349.93 755.001 C 1395.76 749.977 1420.25 768.019 1419.4 813.172 C 1418.88 841.249 1420.27 869.51 1419.41 897.542 L 1381.98 897.542 C 1380.89 893.347 1379.96 888.907 1379 884.664 C 1356.27 903.621 1324.23 910.481 1303.08 884.664 C 1294.99 873.191 1293.2 849.678 1301.09 837.769 C 1315.09 816.651 1344.22 818.925 1366.13 814.766 C 1407.25 806.962 1351.19 760.122 1335.8 798.999 C 1328.58 799.045 1304.03 802.453 1300.1 796.356 C 1300.97 768.352 1327 759.138 1349.93 755.001 z M 1340.61 869.536 C 1365.56 882.725 1382.62 859.076 1379 835.001 C 1363.56 837.023 1316.57 844.431 1340.61 869.536 z" fill="rgb(0,0,0)" transform="translate(0,0)"></path>
<path d="M 974.152 755.001 C 1026.83 750.174 1049.65 787.33 1049 835.001 L 957.647 835.001 C 960.499 873.313 987.967 889.292 1009.54 854.075 C 1018.62 853.571 1023.86 853.365 1032.84 854.075 L 1049 854.075 C 1040.54 878.828 1029.72 893.564 1002.94 899.589 C 907.754 921.003 882.754 773.288 974.152 755.001 z M 991.053 813.075 L 1007.08 813.075 C 1007.27 789.917 995.55 783.444 974.152 785.939 C 964.316 789.753 951.696 812.299 961.889 813.016 C 971.41 813.686 981.431 813.247 991.053 813.075 z" fill="rgb(0,0,0)" transform="translate(0,0)"></path>
<path d="M 1081.78 1089.01 C 1104.85 1086.91 1134.34 1090.03 1146.96 1112.45 C 1161.2 1137.74 1135.8 1131.12 1117.21 1130.97 C 1104.74 1114.39 1075.55 1109.77 1072.14 1128.62 C 1075.96 1147.97 1155.64 1136.07 1157.71 1177.81 C 1159.71 1218.13 1141.4 1230.11 1104.85 1234.98 C 1070.35 1235.57 1038.33 1230.98 1032.84 1189.98 L 1072.54 1189.98 C 1079.64 1228.93 1146.71 1193.06 1103.12 1179.07 C 1080.11 1171.68 1041.01 1172.65 1035.76 1142.25 C 1030 1105.31 1050.68 1094.08 1081.78 1089.01 z" fill="rgb(0,0,0)" transform="translate(0,0)"></path>
<path d="M 740.506 1092.4 C 753.241 1092.66 767.556 1092.79 780.233 1092.4 C 767.865 1128.18 750.714 1166.49 740.506 1203.24 C 717.936 1251.47 728.918 1288.55 662.009 1282.84 C 661.375 1273.8 661.915 1259.7 662.009 1250.32 C 681.425 1253.01 686.851 1249.73 693.373 1231.95 C 679.073 1189.76 652.16 1133.27 641.79 1092.4 C 648.323 1092.58 655.426 1092.42 662.009 1092.4 L 682.065 1092.4 C 688.252 1114.17 703.634 1165.49 712.822 1183.4 C 717.72 1158.71 732.024 1115.9 740.506 1092.4 z" fill="rgb(0,0,0)" transform="translate(0,0)"></path>
<path d="M 1117.21 755.001 C 1151.78 752.145 1176.64 763.988 1182.26 798.999 C 1166.87 797.414 1162.14 797.714 1146.82 798.999 C 1133.48 774.422 1101.47 780.788 1103.28 793.377 C 1107.23 820.87 1184.49 801.877 1182.83 855.105 C 1181.61 894.029 1149.51 901.887 1117.21 900.944 C 1088.33 900.102 1062.75 885.824 1060.59 854.075 L 1097.24 854.075 C 1110.39 882.845 1149.73 874.942 1146.68 859.287 C 1141.96 834.99 1068.3 850.371 1065.12 803.716 C 1062.77 769.41 1086.44 755.812 1117.21 755.001 z" fill="rgb(0,0,0)" transform="translate(0,0)"></path>
<path d="M 1504.86 755.001 C 1548.45 754.352 1562.92 771.595 1573.83 810.49 C 1561.2 810.32 1549.09 810.254 1536.47 810.49 C 1527.1 778.133 1496.44 776.222 1485.64 801.382 C 1462.24 855.901 1514.23 902.418 1536.47 844.815 C 1539.56 845.004 1544.8 844.819 1548.07 844.815 C 1556.57 844.633 1565.31 844.778 1573.83 844.815 C 1563.16 898.027 1513.87 917.665 1468.64 890.261 C 1430.22 866.979 1422.59 767.011 1504.86 755.001 z" fill="rgb(0,0,0)" transform="translate(0,0)"></path>
<path d="M 1210.88 1054.33 C 1215.27 1054 1221.92 1054.28 1226.49 1054.33 C 1225.98 1067.75 1225.68 1081.61 1226.49 1095 L 1249.49 1095 C 1250.01 1104.54 1249.06 1114.27 1249.49 1124 C 1241.58 1124.35 1234.37 1124.9 1226.49 1124 C 1225.65 1148.8 1215.21 1206.74 1247 1200.16 L 1247 1231.95 C 1243.35 1232.15 1237.91 1231.96 1234.11 1231.95 C 1170.2 1239.34 1186.5 1170.87 1186.44 1124 C 1182.11 1124.3 1173.65 1124.01 1169.01 1124 L 1169.01 1095 L 1186.44 1095 C 1188.02 1079.95 1187.65 1073.64 1186.44 1058.7 C 1195.32 1056.78 1201.91 1055.44 1210.88 1054.33 z" fill="rgb(0,0,0)" transform="translate(0,0)"></path>
<path d="M 1543.75 1054.33 C 1557.14 1055.17 1551.01 1081.08 1550.88 1095 C 1557.62 1095.45 1566.37 1094.78 1573.83 1095 C 1574.3 1103.49 1574.22 1115.69 1573.83 1124 C 1567.24 1124.68 1557.76 1124.17 1550.88 1124 C 1550.9 1136.66 1549.36 1188.88 1552.36 1196.87 C 1557.82 1201.34 1566.53 1200.18 1573.83 1200.16 L 1573.83 1231.95 C 1564.34 1233 1557.5 1232.76 1548.07 1231.95 C 1494.87 1236.2 1513.87 1161.94 1512.03 1124 L 1493.02 1124 L 1493.02 1095 L 1512.03 1095 L 1512.03 1058.7 C 1523.13 1057.45 1532.73 1056.16 1543.75 1054.33 z" fill="rgb(0,0,0)" transform="translate(0,0)"></path>
<path d="M 1249.49 718.403 C 1260.64 717.202 1257.19 751.351 1257.43 761.002 L 1282.47 761.002 L 1282.47 790.817 C 1274.35 790.644 1265.61 790.814 1257.43 790.817 C 1257.47 806.39 1255.09 857.083 1261.34 867.465 C 1266.59 871.46 1275.64 869.889 1282.47 869.536 C 1281.32 880.517 1280.14 886.658 1282.47 897.542 C 1273.7 899.034 1266.36 900.354 1257.43 900.944 C 1203.66 894.851 1220.1 837.327 1220 790.817 L 1200.01 790.817 L 1200.01 761.002 L 1220 761.002 C 1219.78 723.951 1211.59 724.133 1249.49 718.403 z" fill="rgb(0,0,0)" transform="translate(0,0)"></path>
<path d="M 1448.88 1058.7 C 1452.31 1058.4 1457.42 1058.65 1461 1058.7 C 1461.24 1070.83 1460.55 1082.84 1461 1095 L 1482.92 1095 C 1483.67 1105.18 1483.26 1113.86 1482.92 1124 C 1475.84 1124.69 1468.09 1124.62 1461 1124 C 1460.88 1159.31 1447.05 1200.91 1482.92 1200.16 C 1482.79 1210.63 1482.92 1221.45 1482.92 1231.95 C 1474.57 1232.97 1469.36 1232.54 1461 1231.95 L 1457.52 1232.18 C 1406.56 1235.7 1422.47 1159.8 1422.07 1124 L 1405.05 1124 C 1404.54 1115.74 1404.99 1103.55 1405.05 1095 C 1411.77 1094.5 1415.38 1094.66 1422.07 1095 C 1422.73 1084.48 1421.88 1072.56 1422.07 1061.58 C 1432.73 1059.03 1438.07 1059.15 1448.88 1058.7 z" fill="rgb(0,0,0)" transform="translate(0,0)"></path>
<path d="M 864.813 1089.01 C 895.43 1089.68 880.729 1109.43 874.433 1127.91 C 832.274 1118.29 834.846 1145.79 834.85 1176.52 L 834.912 1231.95 C 823.96 1232.67 809.935 1232.1 798.75 1231.95 L 795.323 1231.51 C 793.195 1228.13 794.111 1104.91 794.11 1092.4 C 808.202 1091.99 820.803 1092.09 834.912 1092.4 C 834.222 1098.1 834.653 1106.42 834.912 1112.19 C 842.007 1096.67 848.292 1092.35 864.813 1089.01 z" fill="rgb(0,0,0)" transform="translate(0,0)"></path>
<path d="M 740.506 755.001 C 767.701 754.2 757.232 770.264 757.396 794.445 C 725.628 792.433 715.328 797.96 715.58 832.27 C 715.738 853.779 714.339 875.952 715.184 897.542 L 676.956 897.542 C 675.363 896.023 676.963 772.491 676.956 757.978 L 712.822 757.978 C 712.981 764.053 712.84 770.629 712.822 776.749 C 721.411 762.467 725.327 760.102 740.506 755.001 z" fill="rgb(0,0,0)" transform="translate(0,0)"></path>
<metadata><recraft-signature>{"signed_by": "recraft", "signature_b64": "WLtF4ImSz4gr9owP24QzElUNYO7r/RuH81m3q0/X/aqtXdLyLhe/RL9rgOXxig8RhU7dUl78KPuCQfJKDBABBw==", "signing_algo": "Ed25519", "generation_timestamp": 1772998732, "identifier": "b43b2b6f-b770-458f-ac65-2737439cbacd"}</recraft-signature></metadata></svg>