<svg xmlns="http://www.w3.org/2000/svg" height="512" preserveAspectRatio="none" style="display: block;" version="1.1" viewBox="0 0 2048 2048" width="512">
<path d="M 274.968 359.429 L 1815.15 359.429 L 1815.15 1689.98 L 1773.5 1689.98 L 232.214 1689.98 L 232.214 359.429 C 245.842 359.847 261.209 359.466 274.968 359.429 z M 785.364 1084.34 L 785.364 1565.99 L 1649.5 1565.99 L 1690.59 1565.99 L 1690.59 1084.34 L 826.184 1084.34 L 785.364 1084.34 z M 785.364 481.14 L 785.364 959.973 L 1679.13 959.973 L 1690.59 959.973 L 1690.59 481.14 L 794.547 481.14 L 785.364 481.14 z M 358.069 481.14 L 358.069 959.973 C 457.342 961.436 561.349 959.961 661.016 959.973 C 661.68 941.75 661.111 920.83 661.067 902.298 L 661.016 481.14 L 358.069 481.14 z M 389.633 1084.34 C 379.35 1084.45 368.28 1084.79 358.069 1084.34 L 358.069 1565.99 L 634.25 1565.99 L 661.016 1565.99 L 661.016 1084.34 L 389.633 1084.34 z" fill="rgb(0,0,0)" transform="translate(0,0)"></path>
<metadata><recraft-signature>{"signed_by": "recraft", "signature_b64": "zTQ1gAVIRDTr3+4h1zBJPSXPxcBqlUG96Mxwpmd9zptKCbNaXpkacVDnugG0vC9S1H4SwPmrF6hvgHGPTLfMBg==", "signing_algo": "Ed25519", "generation_timestamp": 1772996542, "identifier": "485ac4f8-a0fc-42a1-8451-5fb40a2b975d"}</recraft-signature></metadata></svg>