<svg xmlns="http://www.w3.org/2000/svg" height="512" preserveAspectRatio="none" style="display: block;" version="1.1" viewBox="0 0 2048 2048" width="512">
<path d="M 1129.84 495.321 C 1175.13 489.779 1175.16 524.035 1185.75 554.371 C 1227.47 543.52 1269.5 538.522 1312.57 537.312 C 1364.33 535.858 1365.63 566.201 1365.93 608.074 C 1403.21 610.633 1439.41 612.526 1476.21 620.569 C 1529.06 632.122 1561.63 645.221 1536.55 702.59 C 1575.98 717.167 1736.32 766.839 1657.7 828.795 C 1696.08 853.747 1841.91 956.703 1761.57 1002.98 C 1787.81 1035.93 1806.69 1072.45 1818.72 1112.9 C 1830.12 1151.28 1842.72 1186.23 1790.91 1200.33 C 1807.33 1232.06 1843.29 1325.69 1825.73 1356.56 C 1806.34 1390.63 1775.52 1379.29 1748.96 1363.51 C 1748.37 1398.35 1768.98 1472.29 1732.93 1493.73 C 1706.14 1509.66 1671.68 1476.56 1645.93 1464.84 C 1607.15 1447.18 1574.2 1437.23 1533.18 1427.29 C 1532.05 1437.18 1531.93 1447.11 1530.86 1456.98 C 1519.71 1559.61 1418.88 1549.27 1345.51 1548.7 C 1260.01 1548.03 1225.55 1455.42 1281.28 1388.75 C 1207.42 1364.88 1110.76 1366.08 1036.04 1380.58 C 1002.99 1384.3 964.172 1393.04 929.993 1398.06 C 929.118 1462.75 928.358 1532.73 846.125 1547.34 C 827.693 1550.61 741.955 1550.34 724.13 1546.77 C 659.508 1533.83 630.48 1456.3 668.772 1403.94 C 602.499 1382.2 538.337 1355.84 477.238 1321.8 C 441.786 1298.15 363.9 1323.2 323.177 1306.64 C 296.719 1295.87 269.958 1259.42 247.212 1242.04 C 183.437 1193.33 214.759 1086.57 291.509 1070.76 C 375.934 1052.69 334.806 1077.72 392.229 1008.38 C 410.279 986.583 428.047 969.024 446.991 948.837 C 443.633 851.811 473.156 765.786 532.766 689.559 C 561.926 652.269 589.6 622.399 628.109 672.187 C 658.246 629.21 765.472 480.991 808.98 584.234 C 854.68 552.601 969.959 440.804 994.044 542.635 C 1031.78 521.135 1087.43 503.447 1129.84 495.321 z M 964.286 682.076 C 941.92 655.739 929.398 633.523 909.586 608.074 C 867.198 640.193 835.315 681.931 813.516 730.711 C 793.943 718.206 758.755 678.432 745.394 658.899 C 711.228 694.204 676.268 760.756 659.959 807.138 C 638.023 790.39 610.799 776.007 588.419 757.058 C 565.561 791.066 538.045 849.267 532.978 889.414 L 534.181 888.976 C 630.968 852.89 679.038 828.125 793.113 841.717 C 819.397 844.202 901.15 849.583 886.837 895.37 C 872.98 939.485 852.505 981.482 835.171 1024.34 C 812.499 1080.39 743.156 1051.14 753.839 1007.31 C 760.667 979.301 774.288 952.422 784.594 925.457 C 643.575 913.059 541.023 958.921 450.205 1070.93 C 410.95 1119.34 408.989 1142.54 341.776 1149.04 C 284.924 1154.54 290.057 1166.52 323.492 1198.95 C 337.401 1212.44 345.678 1227.63 366.716 1228.33 C 442.004 1230.83 461.088 1215.09 532.259 1255.04 C 583.568 1283.84 641.499 1304.05 697.503 1321.22 C 726.65 1330.15 793.124 1335.35 791.557 1377.23 C 789.953 1420.09 699.037 1468.41 761.5 1466.22 C 786.999 1466.35 825.725 1472.14 846.002 1456.05 C 846.239 1432.45 842.693 1375.53 847.171 1354.88 C 854.863 1319.41 900.649 1318.42 929.147 1312.72 C 997.291 1299.08 1077.1 1282.64 1146.53 1283.21 C 1190.54 1283.57 1362.39 1306.91 1389.94 1334.6 C 1435.82 1380.74 1331.52 1439.03 1335.91 1462.38 C 1344.07 1470.13 1406.97 1464.39 1421.59 1466.21 C 1483.21 1473.9 1410.76 1336.19 1482.28 1328.88 C 1528.22 1329.87 1581.22 1349.12 1625.17 1362.86 C 1632.39 1365.19 1657.54 1376.13 1661.02 1376.56 C 1664.83 1364.44 1635.98 1290.71 1630.69 1275.34 C 1663.2 1271.46 1697.79 1268.97 1730.58 1270.49 C 1716.35 1244.71 1709.45 1227.1 1692.56 1201.02 C 1676.34 1175.97 1656.85 1155.31 1641.53 1132.76 C 1665.74 1118.33 1703.38 1108.03 1730.58 1101.61 C 1702.66 1060.44 1639.26 1018.87 1596.46 994.599 C 1619.39 964.323 1637.47 951.911 1673.31 942.02 C 1635.25 911.437 1580.96 881.072 1533.18 867.472 C 1543.83 843.985 1553.37 821.495 1575.67 807.138 C 1524.63 777.979 1466.9 781.764 1411.97 780.183 C 1418.42 752.412 1432 718.314 1435.9 692.993 C 1365.14 693.777 1343.21 693.364 1273.42 721.096 C 1268.49 686.981 1268.3 658.316 1268.53 623.791 C 1199.66 627.974 1170.44 653.824 1117.93 686.634 C 1113.43 666.684 1099.33 591.933 1098.86 591.367 L 1097.51 591.072 C 1043.36 608.315 1001.63 639.947 964.286 682.076 z" fill="rgb(1,1,1)" transform="translate(0,0)"></path>
<path d="M 566.538 1050.61 C 589.203 1046.07 611.238 1060.83 615.66 1083.52 C 620.082 1106.21 605.203 1128.17 582.491 1132.47 C 559.949 1136.74 538.193 1121.99 533.804 1099.47 C 529.415 1076.95 544.043 1055.12 566.538 1050.61 z" fill="rgb(1,1,1)" transform="translate(0,0)"></path>
<metadata><recraft-signature>{"signed_by": "recraft", "signature_b64": "b1Wb6EUkCMWhXD+nKjrF0r82mc7ZZ1o7EFekSbY2yJm6Rb4rA/s77Wm29OjdctEZs7LHYf545HEQpwsPApWsAA==", "signing_algo": "Ed25519", "generation_timestamp": 1772997358, "identifier": "edd0770c-6e26-4e9c-a2b0-a14815516c95"}</recraft-signature></metadata></svg>