<svg xmlns="http://www.w3.org/2000/svg" height="512" preserveAspectRatio="none" style="display: block;" version="1.1" viewBox="0 0 2048 2048" width="512">
<path d="M 557.538 344.93 C 577.04 344.155 601.184 344.882 621.182 344.908 L 1443.66 344.883 C 1458.96 344.883 1477.39 344.371 1492.52 345.746 C 1614.49 356.825 1720.92 452.298 1742.09 573.407 C 1749.36 614.958 1746.96 665.431 1746.95 708.521 L 1747.01 1082.03 C 1747.09 1222.65 1736.97 1296.78 1621.41 1391.21 C 1620.45 1433.45 1628.52 1596.1 1617.26 1626.01 C 1599.63 1672.82 1551.38 1693.63 1504.74 1676.65 C 1467.53 1661.34 1311.05 1543.98 1271.03 1515.41 L 1212.19 1473.83 C 1195.81 1462.12 1175.25 1446.9 1158.31 1436.89 C 1142.73 1436.29 1124.71 1436.85 1108.87 1436.86 L 626.925 1436.92 C 596.933 1436.93 565.344 1438.05 536.265 1432.25 C 431.343 1411 345.37 1336.4 313.549 1233.61 C 296.221 1177.64 301.007 1124.46 301.01 1066.78 L 301.037 687.375 C 301.032 651.292 298.562 609.268 304.771 574.239 C 327.198 447.711 430.425 357.609 557.538 344.93 z M 474.711 582.893 C 464.01 612.574 467.62 684.123 467.625 718.249 L 467.613 1064.22 C 467.581 1142.33 455.403 1231.48 547.616 1263.44 C 573.368 1272.48 606.775 1270.08 634.195 1270.04 L 1115.68 1269.97 C 1220.57 1269.9 1212.47 1267.07 1298.42 1326.86 L 1384.47 1387 C 1403.46 1400.44 1438.27 1422.37 1453.03 1436.89 L 1453.03 1272.24 C 1569.63 1264.51 1581.85 1188.87 1581.69 1091.1 L 1581.7 665.093 C 1581.73 640.112 1583.91 605.666 1572.95 582.893 C 1514.2 584.293 1449.77 582.895 1390.4 582.893 L 656.563 582.89 C 597.6 582.891 533.059 584.293 474.711 582.893 z" fill="rgb(5,5,5)" transform="translate(0,0)"></path>
<path d="M 474.711 582.893 C 505.92 505.453 558.178 508.832 625.916 508.823 L 1411.27 508.832 C 1484.63 508.847 1537.5 506.482 1572.95 582.893 C 1514.2 584.293 1449.77 582.895 1390.4 582.893 L 656.563 582.89 C 597.6 582.891 533.059 584.293 474.711 582.893 z" fill="rgb(0,162,254)" transform="translate(0,0)"></path>
<metadata><recraft-signature>{"signed_by": "recraft", "signature_b64": "Xm6Y3UBIoxvDz2Dpr4wu+0SwbAM+mw+lqjT7k4DUT78XsjU9fHVzWqR1xSlGSGY5hMl/bYMeHiFhXNHldzs/AA==", "signing_algo": "Ed25519", "generation_timestamp": 1772999660, "identifier": "84a1f9a2-2df1-4f28-add6-71fb89c4a379"}</recraft-signature></metadata></svg>