<svg xmlns="http://www.w3.org/2000/svg" height="512" preserveAspectRatio="none" style="display: block;" version="1.1" viewBox="0 0 2048 2048" width="512">
<path d="M 793.645 341.927 C 957.688 332.384 1098.43 457.591 1108.04 621.63 C 1117.66 785.668 992.513 926.461 828.479 936.15 C 664.341 945.845 523.44 820.605 513.818 656.463 C 504.196 492.321 629.499 351.476 793.645 341.927 z M 825.606 766.743 C 895.979 758.903 946.656 695.475 938.77 625.107 C 930.883 554.739 867.423 504.104 797.06 512.037 C 726.762 519.962 676.184 583.351 684.063 653.654 C 691.942 723.957 755.299 774.577 825.606 766.743 z" fill="rgb(0,0,0)" transform="translate(0,0)"></path>
<path d="M 644.438 1110.51 L 969.849 1110.49 C 1057.66 1110.5 1070.15 1117.27 1103.2 1202.46 L 1136.91 1287.27 L 1256.59 1576.82 C 1298.85 1680.1 1160.59 1748.38 1105.65 1660.27 C 1098.36 1648.59 1094.25 1634.08 1089.1 1621.36 L 1057.07 1542.15 C 1025.94 1464.59 991.907 1385.03 961.976 1307.28 L 950.941 1278.19 L 720.298 1278.28 C 710.544 1278.36 696.251 1278.97 687.044 1278.19 C 681.477 1289.5 675.58 1305.01 670.714 1316.87 L 546.831 1626.01 C 539.65 1643.8 534.969 1659.54 521.891 1674.07 C 470.991 1731.2 374.19 1699.37 372.984 1621.21 C 372.5 1589.83 390.728 1554.23 402.434 1524.7 L 547.295 1161.99 C 564.943 1119.05 601.261 1110.55 644.438 1110.51 z" fill="rgb(0,0,0)" transform="translate(0,0)"></path>
<path d="M 1522.75 344.735 C 1580.89 345.152 1661.07 338.513 1662.57 425.002 C 1663.39 471.577 1662.99 518.206 1662.98 564.824 L 1663.05 1154.44 C 1663.28 1249.22 1649.5 1278.14 1544.03 1278.21 L 1374.42 1278.21 C 1357.29 1278.2 1340 1278.65 1322.9 1277.9 C 1261.89 1275.22 1231.77 1222.02 1247.81 1166.59 C 1279.61 1099.26 1338.32 1110.48 1402.97 1110.47 L 1496.04 1110.51 L 1496.16 575.759 C 1496.21 559.075 1497.33 527.555 1496.04 512.384 L 1379.6 512.377 C 1337.88 512.4 1297.64 519.088 1265.43 487.492 C 1219.68 444.464 1241.95 362.289 1302.48 347.531 C 1324.43 342.179 1365.01 344.748 1389.1 344.776 L 1522.75 344.735 z" fill="rgb(0,0,0)" transform="translate(0,0)"></path>
<metadata><recraft-signature>{"signed_by": "recraft", "signature_b64": "cCLJ18RtYjKTakdZrfK1KXCrmnv0XoUWND1qnLBFG3Nhr+QQp+sZhxB4+B+5oGAMkNYDiY8mpvRbZi3V/avADA==", "signing_algo": "Ed25519", "generation_timestamp": 1772990434, "identifier": "1c81591b-1ed7-4319-b263-f849b928af2c"}</recraft-signature></metadata></svg>