<svg xmlns="http://www.w3.org/2000/svg" height="512" preserveAspectRatio="none" style="display: block;" version="1.1" viewBox="0 0 2048 2048" width="512">
<path d="M 336.769 257.283 C 395.597 250.441 429.566 300.211 466.524 336.945 L 1711.01 1582.53 C 1731.2 1602.65 1752.46 1622.28 1771.77 1642.91 C 1842.55 1718.57 1733.01 1837.05 1649.05 1776.71 C 1629.85 1762.92 1609.45 1739.54 1592.42 1722.11 L 1185.69 1312.27 C 1175.36 1301.86 1161.59 1285.83 1151.32 1276.94 L 1150.01 1275.81 C 1153.68 1325.59 1150.45 1393.14 1150.36 1444.32 C 1150.14 1549.65 996.454 1574.63 964.216 1473.4 C 957.391 1451.97 959.989 1411.66 960 1388.39 L 960.135 1173.16 C 960.142 1130.95 963.779 1116.59 916.367 1117 L 540.833 1117.08 C 464.345 1116.95 446.832 1169.1 446.936 1234 L 447.02 1440.97 C 446.929 1502.16 435.366 1571.2 509.158 1596.47 C 526.241 1602.32 568.78 1600.52 588.967 1600.51 L 781.579 1600.5 C 809.296 1600.51 861.401 1597.81 886.866 1603.44 C 994.247 1627.17 979.043 1791.21 860.984 1791.36 L 580.785 1791.01 C 539.524 1790.99 500.151 1792.34 460.212 1780.71 C 316.352 1738.83 255.156 1616.96 254.996 1477.21 L 254.987 1306.4 C 254.977 1271.96 253.903 1235.67 255.683 1201.49 C 262.029 1079.64 343.21 966.409 464.487 937.073 C 509.3 926.232 567.921 929.993 614.964 929.997 L 797.963 929.998 C 753.265 883.526 704.743 836.35 659.047 790.562 L 322.886 452.423 C 298.401 427.937 262.723 399.325 257.197 363.646 C 248.467 307.285 281.918 266.963 336.769 257.283 z" fill="rgb(0,0,0)" transform="translate(0,0)"></path>
<path d="M 1475.83 305.249 C 1548.96 298.578 1577.89 378.581 1611.29 431.879 L 1725.99 615.06 C 1744.53 644.745 1769.82 679.859 1786.17 709.685 C 1828.73 787.354 1711.28 881.838 1637.7 811.254 C 1617.07 791.459 1594.44 749.697 1578.12 723.693 L 1487.5 579.551 L 1481.98 570.317 L 1364.56 757.082 C 1342.77 792.771 1328.29 827.002 1282.62 834.268 C 1206.61 846.362 1151.78 769.173 1183.5 700.635 C 1188.44 689.954 1194.98 681.064 1201.32 671.239 L 1387.49 377.79 C 1414.26 336.083 1422.5 311.653 1475.83 305.249 z" fill="rgb(0,0,0)" transform="translate(0,0)"></path>
<metadata><recraft-signature>{"signed_by": "recraft", "signature_b64": "PAwwo3AOkv+sbxEgGQ1pxT0sAgniUMnqhy/zeEV1cl65JPHQ2MuhDCjjTveb7c7lAH/Pob9Nz39qfbMXLNBrAQ==", "signing_algo": "Ed25519", "generation_timestamp": 1772989585, "identifier": "6f9b08a7-2307-46d5-8ca3-6973f3e31c75"}</recraft-signature></metadata></svg>