<svg xmlns="http://www.w3.org/2000/svg" height="512" preserveAspectRatio="none" style="display: block;" version="1.1" viewBox="0 0 2048 2048" width="512">
<path d="M 554.784 380.424 C 597.158 375.301 642.759 395.395 668.188 429.13 C 685.233 451.742 739.642 592.896 751.823 623.457 C 783.424 632.327 816.511 645.63 848.344 655.31 C 895.339 672.853 892.079 664.173 934.186 694.604 C 1016.3 753.952 1133.63 757.931 1220.04 705.28 C 1233.24 697.237 1244.08 687.868 1256.78 679.675 L 1257.85 678.995 L 1268.67 678.943 C 1317.42 679.002 1342.73 692.918 1383.04 716.416 L 1430.26 743.577 C 1459.6 760.316 1492.51 777.211 1520.52 795.061 C 1598.15 844.533 1628.47 957.245 1592.53 1040.84 C 1584.8 1058.82 1573.42 1074.84 1562.45 1091.13 L 1522.66 1149.56 C 1475.24 1219.11 1459.55 1250.22 1363.7 1249 C 1372.65 1303.97 1391.24 1325.65 1416.17 1375.62 L 1507.31 1560.55 C 1519.15 1584.21 1539.26 1616.01 1544.63 1641.2 C 1572.52 1772.15 1437.05 1872.63 1321.06 1798.08 C 1274.97 1765.26 1215.06 1620.8 1186.98 1563.25 L 1124.02 1434.59 C 1117.52 1481.1 1109.61 1527.83 1102.68 1574.46 C 1095.81 1620.73 1091.5 1680.33 1078.18 1724.33 C 1034.36 1869.11 802.217 1846.15 798.206 1684.86 C 797.733 1666.57 801.011 1650.37 803.911 1632.5 L 814.834 1567.85 C 830.52 1474.17 852.98 1371.62 852.606 1276.97 L 852.525 946.929 C 832.2 941.098 811.826 932.972 791.619 926.487 C 647.153 879.389 564.559 857.29 506.403 710.986 L 478.998 641.685 C 466.082 609.262 441.574 559.403 437.88 526.47 C 429.803 454.473 481.281 388.014 554.784 380.424 z M 1431.31 1626.58 C 1388.14 1542.62 1345.57 1455.14 1304.48 1370.17 C 1260.42 1279.06 1264.59 1305.84 1264.91 1203.52 C 1264.99 1178.02 1264.29 1176.93 1253.37 1154.35 C 1226.13 1098.02 1259.02 1078.19 1263.51 1040.32 C 1267.72 1004.77 1259.01 930.356 1265.76 904.615 C 1283.82 835.665 1364.39 898.295 1394.69 916.228 C 1417.53 929.75 1452.1 944.561 1438.33 980.602 C 1425.39 1014.47 1357.32 1067.74 1344.44 1096.25 C 1335.36 1116.33 1345.71 1141.54 1365.93 1149.83 C 1405.15 1165.9 1425.34 1120.96 1443.4 1095.08 C 1483.07 1038.21 1533.49 988.504 1498.87 914.925 C 1478.37 871.377 1381.76 828.26 1338.39 802.913 C 1322.42 793.582 1309.06 780.499 1291.28 774.383 C 1265.05 765.361 1017.76 769.463 971.532 769.971 C 908.164 770.667 916.407 776.556 851.233 756.035 L 780.115 733.638 C 685.59 703.897 677.656 694.939 642.818 610.628 L 611.763 536.965 C 600.567 510.443 594.051 476.099 558.448 479.103 C 519.141 492.117 536.664 526.694 547.946 553.343 L 593.184 663.898 C 630.242 756.347 645.791 772.091 745.467 808.312 C 797.968 827.391 851.307 844.715 904.3 862.557 C 934.253 872.642 948.415 886.956 948.831 919.936 C 949.369 957.426 949.042 995.043 949.009 1032.6 L 949.034 1294.36 C 949.05 1313.87 949.856 1339.1 946.761 1357.78 L 898.688 1643.03 C 893.437 1673.03 884.893 1701.88 917.938 1719.97 C 940.387 1732.26 971.647 1724.03 983.432 1700.76 C 992.547 1682.76 998.044 1619.57 1001.66 1596.1 L 1033.47 1387.85 C 1036.07 1369.9 1036.49 1351.93 1038.97 1334.18 C 1045.83 1285.06 1101.56 1263.64 1143.1 1287.21 C 1169.29 1302.07 1176.12 1323.82 1189.35 1349.98 L 1329.32 1630.33 C 1347.97 1668.26 1367.26 1738.51 1417.89 1722.31 C 1471.13 1705.28 1447.15 1658.46 1431.31 1626.58 z" fill="rgb(0,0,0)" transform="translate(0,0)"></path>
<path d="M 1071.32 211.336 C 1199.79 203.567 1310.22 301.41 1317.99 429.874 C 1325.76 558.337 1227.91 668.773 1099.45 676.536 C 970.987 684.298 860.557 586.456 852.791 457.997 C 845.025 329.538 942.864 219.105 1071.32 211.336 z M 1171.85 549.979 C 1105.55 540.262 1047.15 513.118 1027.38 442.714 C 1015.32 399.735 1017.87 354.437 1039.81 315.204 C 988.785 333.601 953.486 380.45 949.871 434.568 C 946.256 488.686 975.011 539.814 1023.13 564.834 C 1071.26 589.854 1129.63 584.024 1171.85 549.979 z" fill="rgb(0,0,0)" transform="translate(0,0)"></path>
<path d="M 1039.81 315.204 C 1102.55 292.579 1172.46 318.59 1205.16 376.727 C 1237.86 434.863 1223.77 508.112 1171.85 549.979 C 1105.55 540.262 1047.15 513.118 1027.38 442.714 C 1015.32 399.735 1017.87 354.437 1039.81 315.204 z" fill="rgb(251,133,2)" transform="translate(0,0)"></path>
<metadata><recraft-signature>{"signed_by": "recraft", "signature_b64": "md70QkJ6TvpOls+wpfgRC3GuT1kKkS56Xn5w5b7gPW6AudT6V7/zbReCdU+/fgeuIlMl+BxZYPGA8s7Sb4ndAA==", "signing_algo": "Ed25519", "generation_timestamp": 1773000709, "identifier": "88f2e62f-9e75-4dae-a4b9-7cb7d38924f2"}</recraft-signature></metadata></svg>