<svg xmlns="http://www.w3.org/2000/svg" height="512" preserveAspectRatio="none" style="display: block;" version="1.1" viewBox="0 0 2048 2048" width="512">
<path d="M 535.363 428.173 L 1425.69 428.144 C 1461.07 428.115 1505.16 425.914 1539.49 431.277 C 1672.03 451.986 1745.45 558.331 1745.88 686.527 L 1745.94 1061.4 C 1745.94 1150.57 1724.18 1196.14 1627.88 1196.12 L 1582.19 1196.05 L 1582.25 714.973 C 1582.26 656.052 1584.75 592.219 1500.59 591.65 L 577.919 591.884 C 495.655 591.743 465.877 618.931 465.966 701.296 L 466.08 747.75 L 466.027 1239.46 C 466.009 1368.32 500.937 1371.1 619.017 1371.06 L 1329.71 1371.02 L 1329.83 1431.01 C 1329.99 1525.34 1302.12 1535.94 1207.81 1535.93 L 630.322 1535.95 C 527.485 1536.02 465.38 1543.81 381.382 1472.08 C 287.302 1391.73 302.21 1288.11 302.213 1179.1 L 302.229 745.625 C 302.228 707.745 299.423 663.825 306.246 627.004 C 327.825 510.555 419.981 434.858 535.363 428.173 z" fill="rgb(36,35,35)" transform="translate(0,0)"></path>
<path d="M 1513.32 1327.83 L 1618.34 1327.79 C 1665.61 1327.69 1745.48 1320.77 1745.95 1392.26 C 1746.29 1437.8 1745.6 1483.65 1745.91 1529.17 C 1746.21 1574.34 1726.55 1596.87 1685.2 1611.04 C 1676.64 1611.86 1663.49 1611.3 1654.65 1611.22 L 1551.32 1611.06 C 1438.29 1611.3 1455.21 1560.08 1451.97 1467.75 C 1453.67 1411.33 1436.02 1340.12 1513.32 1327.83 z" fill="rgb(60,106,245)" transform="translate(0,0)"></path>
<metadata><recraft-signature>{"signed_by": "recraft", "signature_b64": "C5BHeRd4GqJgfhrdzmzm5GLG09dr7/t7ccYKTNVZOXEvWdkUTb8PpSNn3RaYE3pkXHbe+kEXLf92Xn8d+FCpAg==", "signing_algo": "Ed25519", "generation_timestamp": 1772999943, "identifier": "dfbc6bb2-29a7-4641-b680-876163fa8a54"}</recraft-signature></metadata></svg>