<svg xmlns="http://www.w3.org/2000/svg" height="512" preserveAspectRatio="none" style="display: block;" version="1.1" viewBox="0 0 2048 2048" width="512">
<path d="M 468.751 839.854 L 941.752 839.806 C 1068.98 839.794 1084.96 868.049 1083.92 989.998 L 1084.32 1608.14 C 1084.85 1696.15 1017.43 1707.12 946.484 1707.06 L 873.5 1706.99 L 401.404 1707.05 C 326.829 1707.08 256.254 1696.96 255.962 1598.76 L 255.968 996.79 C 255.919 874.625 266.558 839.662 396.642 839.779 L 468.751 839.854 z M 986.023 1618.9 C 999.607 1611.66 994.115 1580.05 994.094 1564.39 L 993.998 955.417 C 993.939 915.558 946.948 929.969 910.044 929.97 L 352.929 930.001 C 350.078 931.079 348.333 931.175 347.022 934.281 C 346.627 935.217 340.959 1599.13 348.489 1616.04 C 365.381 1620.2 405.617 1618.91 424.589 1618.92 L 986.023 1618.9 z" fill="rgb(0,0,0)" transform="translate(0,0)"></path>
<path d="M 346.015 338.309 C 346.435 338.273 348.768 338.066 349.098 338.069 L 1644.4 338.283 C 1711.95 338.27 1791.94 344.665 1792.42 437.541 L 1792.36 1564.01 C 1792.42 1634.02 1781.92 1707.2 1688.94 1707.04 L 1339.54 1706.93 C 1283.05 1706.99 1225.59 1699.97 1209.01 1632 C 1205.15 1616.15 1206.52 1600.53 1206.42 1584.51 L 1206.52 1419.5 L 1206.48 977.494 C 1206.22 907.121 1213.2 839.93 1308.11 840.218 L 1663.5 839.887 C 1675.9 840.006 1689.88 841.067 1702.03 839.854 L 1701.93 449.308 C 1701.9 445.075 1700.99 437.515 1699.59 433.743 C 1692.69 425.744 1607.43 429.067 1594.54 429.069 L 436.171 429.16 C 406.917 429.213 362.019 419.06 346.015 442.1 C 346.945 454.075 346.081 470.611 346.06 483.16 L 346.009 645.275 C 346.032 658.166 346.473 671.61 345.973 684.385 C 344.05 733.522 265.525 736.647 257.772 685.833 C 255.387 669.295 255.993 651.503 255.99 634.672 L 255.993 484.121 C 256.048 417.653 261.945 350.344 346.015 338.309 z M 1297.08 1608.86 C 1309.36 1624.58 1332.7 1619.01 1350.74 1618.97 L 1688.81 1618.9 C 1698.74 1615.31 1702.05 1609.05 1702.07 1598.8 L 1701.96 963.807 C 1701.94 954.981 1701.26 938.071 1702.03 930.001 L 1310.76 930.001 C 1300.72 933.271 1297.11 937.496 1297.05 948.314 L 1297.08 1608.86 z" fill="rgb(0,0,0)" transform="translate(0,0)"></path>
<metadata><recraft-signature>{"signed_by": "recraft", "signature_b64": "ovut9a5kdb5r4eudpZwgE6CXeRikUIrxkysgZ+h0zJDS+eQDobCqZGN8UU7wk0j5SyUSIqkidbMfyP91wpQEDQ==", "signing_algo": "Ed25519", "generation_timestamp": 1772998243, "identifier": "437fda4a-0fa7-4edb-8fcc-4ad78f903138"}</recraft-signature></metadata></svg>