<svg xmlns="http://www.w3.org/2000/svg" height="512" preserveAspectRatio="none" style="display: block;" version="1.1" viewBox="0 0 2048 2048" width="512">
<path d="M 955.021 1099.59 L 1062.56 1099.55 C 1093.88 1099.55 1125.21 1099.25 1156.4 1101.93 C 1372.77 1120.52 1571.78 1258 1653.87 1460.51 C 1670.95 1502.65 1699.13 1584.87 1698.82 1627.29 C 1698.18 1717.3 1630.37 1797 1542.65 1815.31 C 1516.08 1820.85 1491.21 1819.69 1464.6 1819.68 L 1093.5 1819.64 L 583.26 1819.67 C 562.112 1819.66 530.33 1820.68 510.076 1816.88 C 417.23 1799.46 354.285 1714.7 352.617 1622.09 C 351.19 1604.51 357.901 1589.61 361.007 1572.56 C 405.596 1327.74 608.203 1145.54 850.877 1106.21 C 885.699 1100.57 920.104 1100.23 955.021 1099.59 z M 1116.78 1666.02 L 1460.45 1666.05 C 1532.76 1666.08 1548.47 1661.09 1528.53 1577.85 C 1498.47 1452.33 1412.94 1349.74 1296.31 1295.63 C 1209.37 1255.29 1144.71 1253.96 1051.6 1253.94 L 928.163 1254 C 717.122 1266.55 532.078 1412.03 509.614 1629.83 C 504.893 1675.61 588.673 1666.04 612.6 1666.05 L 1116.78 1666.02 z" fill="rgb(31,36,42)" transform="translate(0,0)"></path>
<path d="M 997.254 209.986 C 1234.54 194.98 1439.06 375.186 1454.04 612.474 C 1469.02 849.762 1288.8 1054.26 1051.51 1069.22 C 814.252 1084.18 609.784 903.987 594.803 666.73 C 579.821 429.474 759.999 224.989 997.254 209.986 z M 1037.48 915.501 C 1190 908.341 1307.87 778.953 1300.83 626.426 C 1293.78 473.898 1164.48 355.925 1011.95 362.854 C 859.256 369.79 741.129 499.258 748.181 651.949 C 755.233 804.64 884.789 922.668 1037.48 915.501 z" fill="rgb(31,36,42)" transform="translate(0,0)"></path>
<metadata><recraft-signature>{"signed_by": "recraft", "signature_b64": "wsBBLPp5+38eksDmChPV5EZAYoqt5HuQftIuZVFA4sk+h0wHQ7jgO4pEe7PkIc+ylgy/tVL1GLy44TwlASOmCg==", "signing_algo": "Ed25519", "generation_timestamp": 1772999869, "identifier": "1e510906-6519-4c95-867c-39142f36d1d8"}</recraft-signature></metadata></svg>