<svg xmlns="http://www.w3.org/2000/svg" height="512" preserveAspectRatio="none" style="display: block;" version="1.1" viewBox="0 0 2048 2048" width="512">
<path d="M 382.375 382.431 L 1335.32 382.415 C 1403.06 382.475 1448.51 405.674 1448.92 479.682 L 1449.05 889.892 C 1449.14 927.491 1454.25 966.834 1425.91 996.133 C 1388.03 1035.19 1325.87 1030.35 1294.8 985.495 C 1276.72 959.39 1280.11 933.839 1280.13 903.826 L 1280.12 555.12 C 1247.89 554.291 1212.26 555.102 1179.66 555.104 L 447.475 555.12 L 447.475 763.215 L 447.465 1287.21 C 447.459 1308.57 446.873 1331.9 447.475 1353.06 L 884.985 1353 C 904.997 1353 929.967 1352.03 949.471 1355.29 C 1048.2 1371.78 1043.4 1532.88 936.352 1533.37 L 393.141 1533.38 C 340.411 1533.39 257.926 1540.26 257.366 1460.82 L 257.589 493.136 C 257.881 394.593 289.046 382.264 382.375 382.431 z" fill="rgb(0,0,0)" transform="translate(0,0)"></path>
<path d="M 1411.5 1229.39 L 1589.46 1229.35 C 1617.18 1229.35 1644.71 1229.08 1672.55 1229.83 C 1770.96 1232.46 1814.78 1404.93 1647.9 1405.04 L 1408.89 1405 C 1407.8 1424.94 1408.85 1451.09 1408.87 1471.85 L 1408.89 1604.25 C 1408.9 1647.46 1415.8 1694.38 1383.41 1728.53 C 1322.89 1792.34 1218.04 1751.97 1217.06 1652.07 L 1216.98 1350.01 C 1216.92 1249.9 1249.12 1229.3 1345.84 1229.32 L 1411.5 1229.39 z" fill="rgb(0,0,0)" transform="translate(0,0)"></path>
<metadata><recraft-signature>{"signed_by": "recraft", "signature_b64": "HMqmBdBD1u6HPKxqRWdHiXUbfoJ+bytNIuXzGMy30Wg1uqvSy+5Mc3l4TIrTzUXW0AC4pLWde6vv0XW2jBnODg==", "signing_algo": "Ed25519", "generation_timestamp": 1773000878, "identifier": "8fd8c4e3-c3e8-4d23-aadf-09b6df37fdca"}</recraft-signature></metadata></svg>