<svg xmlns="http://www.w3.org/2000/svg" height="512" preserveAspectRatio="none" style="display: block;" version="1.1" viewBox="0 0 2048 2048" width="512">
<path d="M 307.751 249.149 C 353.073 246.949 373.011 277.406 402.309 306.875 L 591.733 496.159 C 614.589 518.652 645.123 546.79 666.045 570.594 C 665.89 536.708 661.835 494.304 687.268 468.393 C 725.736 429.204 793.855 451.758 805.825 503.433 C 809.707 520.191 807.999 556.119 808.004 574.53 L 807.963 702.843 C 847.674 744.158 887.541 783.094 928.003 823.579 L 1181.08 1075.92 C 1201.21 1096.05 1221.22 1115.02 1241.02 1135.67 L 1241.02 879.439 C 1217.3 876.003 1149.87 878.256 1125.93 879.439 C 1086.39 833.303 1032.33 782.192 988.63 739.006 C 1014.03 740.006 1046.11 739.023 1072.12 739.016 L 1241.02 739.006 C 1242.86 671.3 1240.87 603.175 1241.01 535.429 C 1241.03 523.458 1240.63 510.988 1243.68 499.285 C 1257.19 447.345 1324.94 430.192 1361.52 469.658 C 1392.18 502.699 1383.63 547.635 1383.64 590.913 L 1383.6 739.006 L 1693.16 739.002 C 1777.68 739.352 1797.01 755.33 1797.04 839.544 L 1797.21 1231.93 C 1797.29 1301.67 1758.65 1312.54 1697.82 1312.12 L 1414.41 1311.99 C 1434.13 1338.79 1482.75 1380.25 1507.5 1405.25 L 1765.08 1661.82 C 1822.77 1718.22 1798.05 1795.48 1719.48 1795.19 C 1679.92 1793.63 1631.35 1730.54 1603.93 1703.35 L 1482.56 1582.97 C 1449.21 1549.57 1417.57 1516.99 1383.6 1484.07 C 1381.34 1519.01 1391.22 1548.12 1363.84 1576.84 C 1321.45 1621.3 1242.53 1592.26 1240.95 1530.48 C 1240.49 1512.9 1240.97 1494.16 1240.98 1476.14 L 1241.02 1332.98 C 1217.76 1308.15 1193.8 1286.01 1169.66 1262.26 L 807.963 901.308 L 807.963 1169.72 L 930.843 1169.72 C 977.94 1212.59 1030.46 1266.26 1074.82 1311.99 C 987.463 1310.67 895.675 1311.98 807.963 1311.99 C 806.932 1327.56 807.907 1351.77 807.92 1368.23 L 807.956 1480.9 C 807.979 1498.67 809.909 1530.77 805.615 1547 C 788.352 1612.27 665.844 1634.65 666.006 1501.5 L 666.045 1311.99 C 657.215 1311.37 645.429 1311.91 636.321 1311.93 L 403.568 1312.04 C 373.288 1312.02 339.71 1312.76 309.793 1309.47 C 236.274 1301.4 251.017 1204.59 251.004 1152.65 L 251.099 853.31 C 251.281 820.317 245.778 785.132 269.306 758.917 C 296.314 728.825 354.157 737.128 393.205 737.172 L 557.231 737.148 C 581.723 737.15 616.089 738.458 639.334 737.155 C 614.454 714.518 584.545 683.401 560.807 659.475 L 316.708 413.431 C 300.452 396.98 284.067 381.761 268.102 364.647 C 229.185 322.928 252.233 261.793 307.751 249.149 z M 393.997 1169.72 L 666.045 1169.72 L 666.045 881.942 L 393.997 881.942 L 394.012 1073.4 C 394.016 1104.95 394.591 1138.32 393.997 1169.72 z M 1383.6 1169.72 L 1625.54 1169.67 C 1633.22 1169.65 1647.23 1169.17 1654.15 1169.72 L 1654.15 879.439 C 1625.23 880.193 1593.1 879.444 1563.9 879.44 L 1383.6 879.439 L 1383.6 1169.72 z" fill="rgb(0,0,0)" transform="translate(0,0)"></path>
<metadata><recraft-signature>{"signed_by": "recraft", "signature_b64": "Hopjg1oE03V98VdN90YOOk8eZ0knaprwi3Y63hZkTAsRt34/s+0eN/s3MNhFNb1e3H7SqXS9U5TQwFLFFMhBCg==", "signing_algo": "Ed25519", "generation_timestamp": 1772989439, "identifier": "976ff505-c6e3-45d5-a216-bd6a2ca1aaf6"}</recraft-signature></metadata></svg>