<svg xmlns="http://www.w3.org/2000/svg" height="512" preserveAspectRatio="none" style="display: block;" version="1.1" viewBox="0 0 2048 2048" width="512">
<path d="M 467.311 291 C 487.663 289.865 519.45 290.959 540.883 290.976 L 1534.08 290.945 C 1550.92 290.928 1570.62 289.877 1586.88 291.921 C 1662.33 301.405 1722.93 362.054 1724.32 439.407 C 1724.87 470.102 1725.02 500.173 1725 530.751 L 1725.05 1570.23 C 1725.07 1588.74 1725.94 1609.29 1723.8 1627.52 C 1715.79 1697.84 1650.1 1753.15 1580.37 1754.9 C 1548.59 1755.7 1515.76 1755.08 1483.84 1755.08 L 1187.04 1755.11 C 1143.74 1755.13 1082.6 1760.51 1081.04 1698.44 L 1081.02 1697.11 L 1081.07 1579.44 C 1081.07 1557.84 1081.95 1535.15 1079.74 1513.78 C 1071.73 1436.17 958.156 1434.16 942.249 1507.89 C 938.946 1523.97 939.95 1544.46 939.957 1561.16 L 940.11 1654.49 C 940.514 1746.71 932.181 1755.26 832.817 1755.04 L 546.301 1755.03 C 490.82 1755.01 436.155 1762.01 389.068 1726.47 C 321.861 1675.74 322.412 1619.25 322.374 1540.38 L 322.385 1232.11 C 322.411 1140.02 308.902 1089.79 419.164 1089.92 L 504.851 1090.06 C 570.088 1090.18 581.617 1093.32 578.468 1023 C 575.727 961.778 576.161 958.837 513.405 958.924 L 428.932 959.075 C 349.307 959.212 322.783 950.593 322.325 868.152 L 322.405 515.781 C 322.353 398.67 329.598 311.654 467.311 291 z M 446.995 834.82 L 526.576 834.775 C 647.235 834.61 699.717 871.615 700.066 997.225 L 700.173 1062.01 C 699.278 1179.18 633.998 1217.59 524.702 1217.28 L 450.001 1217.16 L 449.95 1559.49 C 449.883 1623.42 447.697 1631.86 515.645 1631.84 L 817.02 1631.8 L 816.96 1556.29 C 816.959 1546.96 817.116 1537.45 816.972 1528.13 C 814.406 1362.01 1014.26 1262.51 1141.38 1378.63 C 1224.82 1450.85 1206.24 1536.71 1208.09 1631.8 L 1525.17 1631.85 C 1582.92 1631.91 1599.14 1633.23 1599.26 1572.02 L 1599.23 485.542 C 1599.23 453.871 1607.58 416.469 1563.65 415.678 C 1528.2 415.04 1492.85 415.21 1457.41 415.21 L 608.996 415.215 L 520.773 415.216 C 448.245 415.307 446.444 414.385 446.84 480.804 L 446.995 834.82 z" fill="rgb(0,0,0)" transform="translate(0,0)"></path>
<metadata><recraft-signature>{"signed_by": "recraft", "signature_b64": "9jREiruJE0Pt95jtpRnLE1X7gNr9B1Pa+5Q6sTit1A+C6F+/gSmc8QEaKwbx+QT1KyKl7Sk04ROiUfWNgSUyAg==", "signing_algo": "Ed25519", "generation_timestamp": 1772990452, "identifier": "ebbea1a3-8d66-4861-8f29-2c37804a36e4"}</recraft-signature></metadata></svg>