<svg xmlns="http://www.w3.org/2000/svg" height="512" preserveAspectRatio="none" style="display: block;" version="1.1" viewBox="0 0 2048 2048" width="512">
<path d="M 388.568 322.279 C 431.819 318.338 449.512 342.609 477.201 370.56 L 777.079 671.585 L 776.993 418.147 C 776.973 396.555 775.162 378.957 786.132 359.487 C 805.846 324.5 851.805 311.987 886.867 330.928 C 937.219 358.129 927.004 409.208 927.009 457.8 L 927.041 769.276 C 927.052 834.319 943.662 906.671 864.231 928.002 C 829.418 928.6 792.606 928.023 757.66 928.026 L 445.628 928.028 C 426.817 928.025 399.37 929.701 381.4 926.184 C 305.192 911.267 301.191 795.87 378.599 778.723 C 398.242 774.372 440.272 776.984 462.154 776.992 L 598.959 776.973 C 622.053 776.974 646.589 777.532 669.527 776.966 C 654.521 759.941 628.627 736.671 611.551 718.946 C 550.716 655.801 488.467 593.248 426.514 531.16 L 372.288 476.784 C 352.009 456.431 327.779 437.527 323.989 407.705 C 318.321 363.1 344.093 328.584 388.568 322.279 z" fill="rgb(0,0,0)" transform="translate(0,0)"></path>
<path d="M 1183.78 1121.63 C 1220.69 1121.04 1259.17 1121.59 1296.19 1121.61 L 1606.8 1121.61 C 1639.37 1121.6 1673.27 1116.27 1698.65 1140.04 C 1748.69 1186.91 1719.24 1268.44 1649.85 1270.01 C 1560.84 1272.02 1470.91 1268.27 1382.04 1270.2 C 1405.29 1298.7 1444.66 1335.39 1470.84 1361.85 L 1679.44 1571.84 C 1688.7 1581.05 1701.91 1592.62 1709.1 1603.02 C 1744.99 1654.95 1718.61 1714.29 1657.25 1722.98 C 1608.79 1723.92 1585.13 1689.99 1554.38 1659.11 L 1469.44 1574.21 C 1404.63 1508.26 1336.62 1443.12 1272 1376.9 C 1271.05 1397.67 1271.96 1426.25 1271.97 1447.57 L 1271.97 1585.91 C 1271.97 1611.46 1276.45 1664.81 1263.61 1685.91 C 1240.57 1723.75 1193.6 1737.16 1155.24 1712.26 C 1111.3 1683.73 1120.91 1633.16 1120.93 1588.17 L 1120.93 1273.78 C 1120.92 1212.62 1105.27 1138.18 1183.78 1121.63 z" fill="rgb(0,0,0)" transform="translate(0,0)"></path>
<path d="M 388.568 1121.63 C 412.35 1115.94 438.988 1128.3 455.569 1144.73 C 481.305 1170.24 477.962 1202.84 477.975 1235.99 L 477.953 1570 L 811.08 1569.94 C 835.238 1569.93 859.683 1567.16 882.029 1577.24 C 946.919 1605.82 942.886 1692.18 864.231 1719.84 C 829.554 1718.49 785.211 1719.83 749.574 1719.83 L 437.167 1719.91 C 320.687 1720.05 321.884 1692.47 321.981 1594.81 L 322.052 1282.32 C 322.029 1218.91 304.879 1134.8 388.568 1121.63 z" fill="rgb(0,0,0)" transform="translate(0,0)"></path>
<metadata><recraft-signature>{"signed_by": "recraft", "signature_b64": "OobYzaokYiofvGrTAnno+U5YnnByahFqdavMyv5hOB+2jmDAKYn7yhe3tb/QaGTOBMK6d4mnZDdT12Th3YX5AA==", "signing_algo": "Ed25519", "generation_timestamp": 1773000838, "identifier": "ae3be8b3-3e27-475a-8e47-ecca882239ff"}</recraft-signature></metadata></svg>