<svg xmlns="http://www.w3.org/2000/svg" height="512" preserveAspectRatio="none" style="display: block;" version="1.1" viewBox="0 0 2048 2048" width="512">
<path d="M 273.012 275.192 L 1608.87 275.195 C 1661.8 275.198 1721.5 276.561 1774 275.192 L 1774 1768.03 C 1764.16 1768.91 1737.14 1768.12 1726.17 1768.1 L 273.012 1768.03 L 273.012 275.192 z M 968.739 957.017 L 438.437 957.029 C 417.609 957.031 393.513 957.707 373.06 957.017 L 373.06 1064.38 L 902.702 1064.37 C 923.206 1064.36 948.606 1063.64 968.739 1064.38 L 968.708 1598.46 C 968.632 1621.16 967.448 1646.64 968.739 1669 L 1079.9 1669 L 1079.91 1261.14 C 1079.89 1196.05 1079.05 1129.29 1079.9 1064.38 L 1675.01 1064.38 L 1675.01 957.017 L 1079.9 957.017 L 1079.9 375.597 L 968.739 375.597 L 968.739 957.017 z M 1675.01 1165.76 L 1215.99 1165.76 C 1205.36 1165.63 1193.53 1165.21 1183 1165.76 L 1183 1669 L 1643.5 1669 L 1675.01 1669 L 1675.01 1165.76 z M 479.993 1165.76 L 373.06 1165.76 L 373.06 1669 L 762.5 1669 L 866.942 1669 C 866.06 1618.03 866.971 1565.39 866.984 1514.2 L 866.942 1165.76 L 479.993 1165.76 z M 1675.01 857.001 L 1675.01 375.597 L 1237.55 375.574 C 1220.42 375.572 1199.75 374.968 1183 375.597 C 1181.76 426.714 1182.99 483.639 1183 535.137 L 1183 857.001 L 1675.01 857.001 z M 373.06 375.597 L 373.06 857.001 L 718.5 857.001 L 866.942 857.001 L 866.942 375.597 C 830.54 374.554 788.934 375.606 751.98 375.608 L 521.996 375.597 L 373.06 375.597 z" fill="rgb(0,0,0)" transform="translate(0,0)"></path>
<metadata><recraft-signature>{"signed_by": "recraft", "signature_b64": "NZuKh1QNCbdKVqdgkZB4G6AOsMx8GpCDOk1ppPizJOL1xlvKw7CibUf0LsnxLlNzL47HtMEM928xKU7p9V4PAA==", "signing_algo": "Ed25519", "generation_timestamp": 1772996049, "identifier": "05b63c01-8a4d-49a4-89bb-6bbb7aaf5957"}</recraft-signature></metadata></svg>