<svg xmlns="http://www.w3.org/2000/svg" height="512" preserveAspectRatio="none" style="display: block;" version="1.1" viewBox="0 0 2048 2048" width="512">
<path d="M 579.249 271.065 L 715.671 271.084 C 807.446 271.035 822.114 254.086 857.355 349.737 L 1107.03 1018.62 C 1110.68 1028.11 1116.61 1041.08 1118.06 1050.51 C 1126.55 1105.71 1066.14 1145.38 1017.27 1121.97 C 984.158 1106.11 980.914 1086.93 969.162 1056.19 L 903.637 881.118 C 869.483 882.191 829.548 881.152 794.971 881.118 L 464.434 881.118 C 448.446 922.313 404.136 1065.11 384.06 1095.72 C 349.434 1148.5 269.822 1134.55 256.684 1072.3 C 250.409 1042.57 306.858 907.469 319.012 874.463 L 515.346 342.479 C 530.047 301.656 530.874 280.171 579.249 271.065 z M 517.937 741.04 L 729.988 741.04 L 851.274 741.04 L 766.042 506.609 C 754.995 476.427 736.776 438.166 729.988 407.836 L 639.747 407.836 L 517.937 741.04 z" fill="rgb(35,35,35)" transform="translate(0,0)"></path>
<path d="M 1396.23 972.406 C 1498.08 965.487 1528.95 1039.16 1561.41 1118.9 L 1773.03 1638.87 C 1778.12 1651.41 1785.21 1667.48 1788.65 1680.29 C 1800.69 1733.55 1741.5 1779.29 1691.76 1757.02 C 1656.1 1741.04 1646.98 1697.83 1633.92 1664.22 L 1598.3 1574.68 L 1418.75 1574.68 L 1215.01 1574.68 C 1211.55 1585.01 1206.09 1596.77 1201.92 1607.03 L 1176.34 1669.94 C 1169.8 1685.77 1157.8 1723.58 1147.75 1735.73 C 1098.87 1794.78 1001.94 1746.19 1029.04 1670.12 C 1041.35 1635.55 1057.15 1601.7 1070.62 1567.5 L 1253.35 1116.74 C 1284.12 1044.03 1302.64 980.325 1396.23 972.406 z M 1271.93 1434.1 L 1407.04 1434.1 L 1494.04 1434.15 C 1507.54 1434.16 1525.35 1434.73 1538.5 1434.1 C 1523.53 1393.29 1506.48 1356.17 1490.38 1316.37 L 1450.25 1216.44 C 1444.69 1202.39 1413.13 1119.2 1407.04 1112.5 C 1377.41 1179.19 1349.92 1248.24 1321.42 1315.51 L 1288.48 1393.09 C 1282.78 1406.62 1276.41 1420.15 1271.93 1434.1 z" fill="rgb(35,35,35)" transform="translate(0,0)"></path>
<metadata><recraft-signature>{"signed_by": "recraft", "signature_b64": "eY5ioYQvD/ECgKnDxGLDJp6GmD+tUoweDg9FSng5xMJmZlTJRsG1qXyYMFO5/YHxKZZE0/1SFi1epuDFlFLTBg==", "signing_algo": "Ed25519", "generation_timestamp": 1772998470, "identifier": "2550cd66-fa47-4a4d-9646-28d7829c0f26"}</recraft-signature></metadata></svg>