<svg xmlns="http://www.w3.org/2000/svg" height="512" preserveAspectRatio="none" style="display: block;" version="1.1" viewBox="0 0 2048 2048" width="512">
<path d="M 454.75 540.51 L 1717.1 540.481 C 1765.9 540.468 1798.27 541.247 1836.57 578.047 C 1881.38 621.092 1875.05 674.745 1875.04 731.581 L 1875.32 1374.6 C 1875.5 1432.79 1829.1 1486.88 1772.46 1499.66 C 1754.21 1503.78 1725.33 1502.06 1705.69 1502.06 L 1599.22 1502 L 336.427 1502.04 C 319.56 1502.06 299.031 1502.98 282.712 1500.6 C 214.1 1490.6 174.552 1429.67 173.995 1364.39 L 174.049 724.001 C 173.775 582.39 201.394 540.48 348.132 540.466 L 454.75 540.51 z M 1452.92 1443.03 L 1719.42 1443.16 C 1811.74 1444.1 1817.04 1409.51 1816.98 1325.15 L 1816.96 737.008 C 1817.03 687.162 1825.68 604.831 1753.72 598.663 C 1741.9 597.649 1728.39 598.063 1716.35 598.069 L 599.483 598.139 L 399.74 598.171 C 352.161 598.158 243.855 583.569 234.486 651.647 C 232.105 675.221 233.141 702.631 233.145 726.746 L 233.079 1361.82 C 233.477 1431.32 272.031 1443.3 333.638 1443.14 L 1452.92 1443.03 z" fill="rgb(0,0,0)" transform="translate(0,0)"></path>
<path d="M 1154.54 713.505 L 1229.78 713.448 C 1287.32 713.429 1323.24 712.931 1370.02 756.315 C 1442.91 823.909 1427.03 925.393 1361.01 992.335 C 1292.21 1041.5 1242.07 1025.89 1162.23 1027.81 C 1153.48 1028.02 1136.33 1019.1 1135.98 1009.7 C 1132.58 920.238 1135.38 829.892 1134.55 740.197 C 1134.42 726.193 1143.53 717.188 1154.54 713.505 z M 1191.03 770.524 L 1191.03 971.022 C 1234.68 971.018 1279.71 979.01 1316.85 954.451 C 1363.96 916.187 1377.83 857.791 1338.79 805.649 C 1310.33 767.632 1260.75 766.218 1217.86 770.524 C 1207.84 770.041 1201.05 770.042 1191.03 770.524 z" fill="rgb(0,0,0)" transform="translate(0,0)"></path>
<path d="M 525.572 713.505 C 546.3 711.246 553.275 729.265 564.976 743.117 C 614.907 802.229 661.394 864.46 710.956 923.822 L 711.041 796.031 C 711.041 777.93 708.041 741.944 713.939 725.039 C 719.572 708.893 761.272 707.17 765.27 730.299 C 768.473 748.834 767.453 768.638 767.465 788.121 L 767.498 959.473 C 767.49 988.454 776.242 1024.52 741.224 1031.07 C 724.121 1032.85 716.367 1023.15 706.678 1011.25 L 591.701 867.843 C 580.588 854.144 565.437 833.636 553.914 822.028 C 554.551 879.097 553.715 936.393 553.779 993.464 C 553.843 1049.89 498.957 1034.94 497.557 1007.38 C 496.512 986.811 496.882 967.242 496.872 947.021 L 496.88 772.059 C 496.893 745.157 490.011 715.086 525.572 713.505 z" fill="rgb(0,0,0)" transform="translate(0,0)"></path>
<path d="M 838.455 713.505 C 850.935 712.07 862.077 712.305 870.207 722.917 C 921.295 789.603 978.117 851.937 1029.02 918.644 L 1029.02 795.091 C 1029.02 780.819 1026.88 738.615 1031.85 725.744 C 1042.62 705.908 1079.44 710.74 1083.03 732.56 C 1086.47 753.512 1085.12 776.099 1085.11 796.883 L 1085.16 968.719 C 1085.52 998.649 1093.89 1023.74 1057.81 1031.07 C 1033.8 1029.46 1014.77 994.138 1000.74 976.807 L 915.263 869.747 C 902.162 853.62 889.629 837.432 875.688 822.028 C 874.818 833.278 875.645 849.164 875.571 860.956 L 875.783 962.934 C 875.81 977.532 877.178 1001.43 873.759 1014.21 C 866.01 1043.19 818.773 1035.3 818.363 1002.69 C 817.755 954.289 818.034 905.854 818.043 857.452 L 818.03 778.564 C 817.915 752.89 809.278 724.672 838.455 713.505 z" fill="rgb(0,0,0)" transform="translate(0,0)"></path>
<path d="M 1484.49 713.505 L 1576.42 713.401 C 1597.47 713.353 1654.53 706.3 1652.35 742.403 C 1649.7 786.34 1544.88 770.149 1509.99 770.524 L 1509.99 840.024 L 1583.07 839.969 C 1596.45 839.96 1615.92 838.658 1628.56 841.403 C 1659.63 848.144 1659.87 892.461 1626.07 896.574 C 1614.21 898.018 1600.86 897.137 1588.85 897.109 L 1509.99 896.993 L 1509.99 918.644 L 1509.99 971.022 L 1582.08 970.915 C 1602.52 970.896 1646.26 965.711 1650.74 992.017 C 1657.51 1031.77 1621.46 1028.5 1596.04 1028.17 L 1545.03 1028.01 C 1470.39 1027.78 1452.69 1047.08 1452.9 966.936 L 1452.91 787.855 C 1452.81 754.359 1442 715.168 1484.49 713.505 z" fill="rgb(0,0,0)" transform="translate(0,0)"></path>
<path d="M 1197.09 1134.22 C 1217.23 1133.7 1238.21 1133.56 1258.16 1134.2 C 1346.96 1137.06 1356.87 1246.4 1306.96 1291.35 C 1286 1306.17 1195.3 1315.56 1187.17 1302.47 C 1180.18 1291.24 1180.34 1170.02 1182.05 1146.09 C 1187.32 1139.41 1189.41 1137.83 1197.09 1134.22 z M 1228 1268.96 C 1248.5 1270.43 1263.57 1273.23 1280.29 1258.27 C 1310.63 1217 1291.59 1162.61 1228 1172.98 C 1228.49 1204.71 1227.97 1237.13 1228 1268.96 z" fill="rgb(0,0,0)" transform="translate(0,0)"></path>
<path d="M 878.814 1134.22 C 899.311 1132.75 924.811 1134.44 945.373 1134.27 C 995.091 1133.85 1024.68 1181.25 978.64 1215.85 C 1009 1225.28 1014.86 1263.91 996.997 1287.79 C 968.267 1317.31 918.082 1305.06 879.759 1305.65 C 856.352 1306.01 866.842 1170.81 866.862 1149.95 C 866.868 1141.56 871.093 1136.72 878.814 1134.22 z M 910.995 1268.96 C 924.313 1269.27 949.063 1271.63 960.135 1265.41 C 975.698 1230.04 930.917 1234.78 910.995 1234.95 L 910.995 1268.96 z M 910.995 1201.06 C 922.126 1201.46 943.649 1203.36 953.308 1198.89 C 978.282 1167.39 928.843 1168.68 910.995 1168.99 C 911.17 1179.88 911.323 1190.16 910.995 1201.06 z" fill="rgb(0,0,0)" transform="translate(0,0)"></path>
<path d="M 408.756 1134.22 C 442.925 1134.08 501.186 1126.37 505.29 1175.3 C 506.744 1192.64 495.681 1203.98 484.965 1215.85 C 513.492 1240.31 518.488 1277.35 484.965 1298.37 C 458.825 1310.53 430.693 1306.41 402.729 1307.12 C 381.255 1307.66 370.917 1306.95 371.039 1283.02 C 371.255 1240.86 370.244 1198.72 371.472 1156.6 C 372.199 1131.67 389.751 1134.51 408.756 1134.22 z M 413.992 1268.96 C 428.278 1271.28 434.291 1271.6 448.668 1268.96 C 477.868 1266.1 469.598 1231.51 432.681 1237.44 L 413.992 1237.44 C 414.024 1247.96 414.364 1258.46 413.992 1268.96 z M 413.992 1201.06 C 422.823 1201.16 444.498 1202.31 451.27 1198.89 C 467.139 1189.03 466.884 1179.16 451.27 1168.99 C 440.981 1169.24 432.098 1169.29 421.757 1168.99 C 408.666 1170.49 414.09 1191.2 413.992 1201.06 z" fill="rgb(0,0,0)" transform="translate(0,0)"></path>
<path d="M 1467.03 1227.25 C 1467.04 1209.31 1464.31 1161.02 1469.09 1146.17 C 1475.24 1127.11 1505.32 1129.94 1511.73 1147.3 C 1515.18 1156.63 1515.72 1289 1512.27 1296.14 C 1509.39 1302.11 1503.21 1304.99 1497.24 1306.91 C 1464.48 1310.85 1427.02 1239 1407.94 1212.33 C 1407.15 1239.91 1410.42 1270.16 1405.57 1296.64 C 1402.88 1311.33 1365.93 1310.04 1365.02 1295.16 C 1362.25 1249.95 1364.19 1202.43 1364.2 1157.02 C 1364.21 1141.85 1369.77 1137.8 1382.51 1134.22 C 1411.62 1130.19 1448.32 1203.98 1467.03 1227.25 z" fill="rgb(0,0,0)" transform="translate(0,0)"></path>
<path d="M 790.586 1227.25 C 791.239 1211.14 787.124 1149.83 793.728 1140.18 C 800.278 1130.61 819.596 1132.07 827.748 1138.05 C 839.905 1146.96 833.998 1201.41 833.991 1215.95 C 833.979 1244.62 847.145 1304.93 812.197 1306.91 C 784.99 1304 747.715 1237.27 728.999 1212.33 L 729.151 1263.7 C 729.179 1274.76 732.535 1297.84 721.849 1305.26 C 715.301 1309.82 695.755 1309.25 691.669 1300.84 C 684.483 1286.06 687.583 1153.52 691.277 1145.65 C 694.407 1138.99 700.875 1136.41 707.423 1134.22 C 739.515 1130.56 775.263 1201.49 790.586 1227.25 z" fill="rgb(0,0,0)" transform="translate(0,0)"></path>
<path d="M 421.757 713.505 C 455.403 707.626 451.259 751.528 451.276 772.465 L 451.299 952.561 C 451.287 982.856 461.861 1023.88 426.249 1031.07 C 384.38 1032.17 394.319 986.774 394.322 958.053 L 394.347 782.388 C 394.354 752.203 384.407 715.955 421.757 713.505 z" fill="rgb(0,0,0)" transform="translate(0,0)"></path>
<path d="M 1562.09 1134.22 C 1594.03 1132.79 1668.44 1120.4 1678.32 1153.03 C 1671.9 1184.19 1619.03 1173.06 1591.99 1172.98 C 1592.52 1183.69 1592.46 1190.39 1591.99 1201.06 C 1612.01 1200.96 1633.34 1200.28 1652.99 1203.28 C 1671.17 1206.05 1673.83 1235.31 1656.19 1237.5 C 1641.49 1239.33 1592.92 1231.15 1591.99 1244.75 L 1591.99 1268.96 C 1613.91 1269.53 1676.33 1260.05 1678.65 1287.32 C 1678.45 1299.96 1668.79 1306.86 1657.37 1306.82 C 1632.3 1306.75 1546.16 1319.3 1546.27 1289.03 C 1546.44 1241.87 1544.54 1193.13 1545.86 1146.09 C 1550.91 1138.48 1553.35 1136.61 1562.09 1134.22 z" fill="rgb(0,0,0)" transform="translate(0,0)"></path>
<path d="M 553.914 1134.22 C 563.625 1134.81 691.212 1123.55 657.647 1164.65 C 645.805 1179.15 600.12 1170.7 582.517 1172.79 L 581.08 1172.98 C 580.733 1181.83 581.034 1192.1 581.08 1201.06 C 591.388 1201.09 639.429 1198.48 644.614 1205.58 C 673.549 1245.22 600.444 1236.41 581.08 1237.44 L 581.08 1253.25 L 581.08 1268.96 C 601.349 1269.26 666.002 1259.93 663.351 1288.91 C 660.603 1318.97 572.776 1307.58 550.18 1305.53 C 527.225 1303.45 536.859 1165.06 538.15 1146.55 C 538.559 1140.69 549.415 1136.23 553.914 1134.22 z" fill="rgb(0,0,0)" transform="translate(0,0)"></path>
<path d="M 1048.61 1134.22 L 1103.69 1134.15 C 1120.99 1134.15 1140.47 1129.68 1150.93 1146.09 L 1151.01 1148.49 C 1152.21 1186.04 1112.82 1173.16 1079.08 1172.98 C 1079.46 1182.27 1079.2 1191.75 1079.08 1201.06 C 1091.59 1201.48 1134.01 1198.77 1139.23 1205.7 C 1170.82 1247.66 1088.25 1237.19 1079.08 1237.44 L 1079.08 1262.25 L 1079.28 1266.99 C 1088.23 1276.66 1156.11 1255.12 1155.7 1285.27 C 1155.21 1320.89 1077.75 1306.43 1048.61 1306.91 C 1042.01 1303.08 1035 1299.79 1034.55 1291.04 C 1032.37 1248.59 1031.17 1189.23 1033.79 1146.09 C 1038.09 1139.44 1041.09 1136.09 1048.61 1134.22 z" fill="rgb(0,0,0)" transform="translate(0,0)"></path>
<metadata><recraft-signature>{"signed_by": "recraft", "signature_b64": "rM+G+6pQCr4o+fzE9WWpfGwVQ2BjNbEOXjVNzfSqUTQy2c6l7G/DzR+XWom33ae5GLpXoyllkd0kZB1tUMtEBA==", "signing_algo": "Ed25519", "generation_timestamp": 1772998769, "identifier": "7d8082bd-de32-4071-a750-66cf1dbcaeec"}</recraft-signature></metadata></svg>