<svg xmlns="http://www.w3.org/2000/svg" height="512" preserveAspectRatio="none" style="display: block;" version="1.1" viewBox="0 0 2048 2048" width="512">
<path d="M 851.375 664.747 L 1680.16 664.729 C 1739.45 664.698 1795.55 654.655 1841.04 701.424 C 1866.11 727.187 1874.28 755.705 1874.5 790.989 L 1874.37 1228.64 C 1874.44 1292.34 1867.32 1365.53 1784.86 1377.1 C 1766.27 1379.7 1739.63 1378.53 1720.28 1378.53 L 1197.98 1378.49 L 281.668 1378.72 C 189.046 1379.22 174.765 1300.76 174.961 1226.64 L 174.433 780.439 C 173.718 749.241 186.292 720.46 207.824 698.04 C 244.72 659.62 289.542 664.697 338.144 664.712 L 851.375 664.747 z M 625.5 1320.95 L 1723.64 1320.98 C 1817.53 1321.01 1817.17 1310.8 1817.06 1210.74 L 1816.96 787.657 C 1816.5 734.918 1784.9 722.334 1738.72 722.612 L 1426.02 722.702 L 322.662 722.642 C 234.231 722.492 232.487 741.494 232.629 824.513 L 232.645 1259.73 C 232.626 1321.72 274.33 1321.01 323.891 1321.01 L 625.5 1320.95 z" fill="rgb(0,0,0)" transform="translate(0,0)"></path>
<path d="M 999.18 912.518 C 1126.89 899.838 1135.2 1148.75 998.461 1135.39 C 974.153 1133.02 960.244 1120.24 945.27 1102.29 C 945.869 1119.1 945.398 1138.56 945.27 1155.5 C 946.7 1223.08 896.05 1206.32 890.405 1190.42 C 885.188 1175.72 886.986 1141.58 886.977 1125.88 L 887.023 948.362 C 884.924 907.203 927.782 899.398 945.27 939.311 L 947.37 936.671 C 959.775 921.358 980.131 914.412 999.18 912.518 z M 1002.25 1087 C 1062.78 1075.26 1057.13 953.971 987.277 961.508 C 943.805 969.467 947.457 995.528 944.95 1026.42 C 941.777 1065.5 960.582 1087.83 1002.25 1087 z" fill="rgb(0,0,0)" transform="translate(0,0)"></path>
<path d="M 1690.82 846.216 C 1712.88 837.205 1719.81 860.843 1719.88 877.519 C 1720.19 951.298 1719.85 1025.05 1720.27 1098.83 C 1721.16 1133.6 1681.59 1149.39 1665.61 1106.53 C 1642.38 1143.96 1589.65 1142.47 1555.75 1121.33 C 1478.04 1062.73 1504.3 910.229 1605 911.953 C 1631.71 912.41 1647.12 920.69 1665.61 939.311 C 1665.69 908.657 1652.85 847.519 1690.82 846.216 z M 1625.77 1087 C 1679.73 1071.94 1678.81 989.73 1639.77 969.412 C 1632.38 965.568 1615.15 961.829 1607.75 966.998 C 1546.74 967.88 1546.39 1094.46 1625.77 1087 z" fill="rgb(0,0,0)" transform="translate(0,0)"></path>
<path d="M 1362.81 912.518 C 1499.02 901.994 1485.25 1006.22 1480.68 1103.62 C 1479.01 1139.17 1437.35 1147.64 1427.81 1106.53 C 1393.72 1141.57 1332.78 1147.23 1300.89 1106.53 C 1295.17 1098.13 1291.11 1089.32 1290.08 1078.87 C 1279.88 983.723 1483.04 1012.39 1401.73 961.838 C 1367.19 940.369 1345.81 988.063 1325.94 994.597 C 1289.25 1006.66 1268.14 933.717 1362.81 912.518 z M 1354.22 1087 C 1375.68 1099.34 1407.47 1092.17 1420.63 1070.6 C 1426.41 1061.12 1426.25 1043.38 1426.94 1031.96 L 1426.02 1030.3 C 1407.93 1033.72 1311.68 1050.48 1354.22 1087 z" fill="rgb(0,0,0)" transform="translate(0,0)"></path>
<path d="M 744.908 912.518 C 796.563 903.189 869.209 951.026 835.377 977.333 C 805.717 1000.4 790.794 960.816 762.993 958.984 C 730.975 954.21 698.974 984.009 776.996 994.267 C 887.131 1008.75 886.259 1134.66 760.51 1134.9 C 676.617 1129.33 640.448 1057.91 693.24 1050.14 C 709.013 1047.82 716.506 1065.58 727.913 1073.86 C 771.814 1105.73 847.527 1064.05 760.561 1043.13 C 727.462 1035.16 679.194 1025.65 673.751 984.751 C 668.145 938.415 703.856 916.323 744.908 912.518 z" fill="rgb(0,0,0)" transform="translate(0,0)"></path>
<path d="M 551.61 912.518 C 657.297 903.688 627.845 1037.14 630.983 1101.25 C 632.335 1128.87 576.12 1161 577.612 1077.98 C 577.678 1042.73 590.537 963.277 545.296 961.142 C 530.135 960.427 521.083 962.427 509.507 972.913 L 508.527 973.814 C 487.652 997.306 494.2 1052.57 494.128 1082.24 C 493.943 1158.32 438.799 1134.93 438.849 1102.51 C 438.931 1049.58 438.701 996.494 438.791 943.554 C 438.849 909.085 481.74 903.696 494.007 939.311 C 511.898 918.527 524.456 913.062 551.61 912.518 z" fill="rgb(0,0,0)" transform="translate(0,0)"></path>
<path d="M 1231.82 912.518 C 1254.86 912.202 1278.06 922.395 1269.49 951.11 C 1261.97 976.289 1225.12 961.091 1209.87 972.66 C 1162.29 1008.73 1224.34 1153.8 1150.93 1132.67 C 1143.55 1129.2 1136.67 1124.49 1134.26 1116.27 C 1130.76 1104.35 1128.04 941.291 1135.44 928.16 C 1148.02 905.834 1178.85 909.104 1186.8 939.311 C 1200.5 922.864 1210.98 917.088 1231.82 912.518 z" fill="rgb(0,0,0)" transform="translate(0,0)"></path>
<path d="M 358.341 922.124 C 371.386 921.628 377.975 923.757 387.35 932.909 C 395.117 954.299 393.231 1102.35 388.234 1114.86 C 385.438 1121.86 377.349 1129.64 370.462 1132.67 C 347.102 1130.81 337.953 1122.73 336.637 1100.12 C 335.563 1081.68 335.086 945.862 338.697 937.847 C 342.548 929.298 349.875 925.192 358.341 922.124 z" fill="rgb(0,0,0)" transform="translate(0,0)"></path>
<path d="M 356.357 846.43 C 366.196 843.929 376.62 846.914 383.644 854.243 C 390.668 861.573 393.206 872.114 390.289 881.838 C 387.371 891.561 379.449 898.964 369.55 901.215 C 354.511 904.637 339.516 895.331 335.905 880.336 C 332.294 865.342 341.409 850.23 356.357 846.43 z" fill="rgb(0,0,0)" transform="translate(0,0)"></path>
<metadata><recraft-signature>{"signed_by": "recraft", "signature_b64": "ASt4Eo1e944uu+xGKpvS9/SCWVJWjRHAOZHPbGuXOak7i+n9eWH6z8Wjz5nSlUY55A8teQO26oeg5v4mCgW6Aw==", "signing_algo": "Ed25519", "generation_timestamp": 1773000719, "identifier": "a870ca40-a3cb-40fc-98d9-e0bf7b7ec305"}</recraft-signature></metadata></svg>