<svg xmlns="http://www.w3.org/2000/svg" height="512" preserveAspectRatio="none" style="display: block;" version="1.1" viewBox="0 0 2048 2048" width="512">
<path d="M 359.375 564.624 L 1707.32 564.558 C 1779.85 564.504 1850.52 579.49 1851.09 671.742 L 1851.04 1291.01 C 1851.05 1430.36 1826.9 1461.39 1685.5 1460.83 L 358.272 1460.86 C 269.654 1460.83 197.071 1443.51 196.989 1336.99 L 197.055 733.459 C 197.657 595.859 220.179 564.337 359.375 564.624 z M 1740.25 1410.02 C 1815.63 1407.47 1802.17 1328.32 1802.08 1277.04 L 1802.08 725.348 C 1802.13 689.578 1808.68 617.857 1755.74 615.424 C 1738.59 614.636 1720.53 614.957 1703.34 614.965 L 309.544 615.001 C 239.848 625.087 247.027 673.858 247.028 727.458 L 247.054 1272.87 C 246.998 1317.6 235.113 1409 304.569 1410.08 C 321.263 1410.34 337.98 1410.07 354.644 1410.05 L 1740.25 1410.02 z" fill="rgb(0,0,0)" transform="translate(0,0)"></path>
<path d="M 582.088 868.925 C 595.764 868.383 617.357 868.131 630.721 868.925 L 630.644 1077.19 C 630.6 1091.41 631.514 1149.58 629.325 1160.25 L 627.23 1161.12 L 579.41 1161.12 C 563.834 1136.5 544.4 1098.12 529.964 1072.02 L 492.795 1003.73 C 483.835 987.231 474.704 971.8 466.998 954.661 C 467.957 1022.61 466.997 1092.97 466.998 1161.12 C 450.596 1161.42 434.418 1161.27 418.024 1161.12 C 417.124 1130.3 418 1094.58 418.004 1063.49 L 418.024 868.925 C 430.545 869.036 465.777 867.434 474.32 868.925 C 509.51 926.834 555.511 1010.64 582.088 1070.13 C 583.234 1048.55 582.128 1024.49 582.103 1002.45 L 582.088 868.925 z" fill="rgb(0,0,0)" transform="translate(0,0)"></path>
<path d="M 1122.74 868.925 C 1137.29 869.094 1163.82 867.407 1176.07 868.925 C 1183.06 884.484 1188.43 902.722 1194 919.086 L 1223.71 1005.97 C 1241.44 1057.62 1262.32 1109.37 1278.94 1161.12 C 1261.16 1161.75 1241.68 1161.25 1223.77 1161.12 C 1214.58 1136.79 1207.83 1111.12 1198.45 1087.04 L 1183.5 1087.04 L 1100.54 1087.04 C 1093.13 1111.82 1085.86 1136.9 1076.85 1161.12 C 1058.87 1161.08 1040.75 1161.57 1022.79 1161.12 C 1027.04 1144.48 1033.28 1127.86 1038.9 1111.57 L 1070.06 1022.41 C 1086.56 973.979 1102.89 915.255 1122.74 868.925 z M 1114.32 1042 C 1126.41 1042.55 1138.41 1041.95 1150.5 1042 L 1183.5 1042 C 1182.95 1036.38 1151.99 936.376 1150.5 934.54 C 1134.87 966.249 1124.33 1007.88 1114.32 1042 z" fill="rgb(0,0,0)" transform="translate(0,0)"></path>
<path d="M 741.788 865.251 C 772.986 863.005 798.836 865.505 825.942 881.947 C 826.715 894.163 825.978 914.84 825.942 927.701 C 801.856 918.832 782.606 907.408 755.632 910.145 C 736.779 910.715 712.975 926.012 718.447 948.57 C 729.326 993.41 790.585 987.726 822.905 1015.86 C 888.91 1073.32 842.963 1158.67 753.25 1166.95 C 720.816 1167.55 698.323 1163.31 668.076 1150.9 C 667.242 1139.01 667.758 1112.77 668.076 1100.5 C 703.527 1114.47 719.17 1125.87 761.536 1120.19 C 796.614 1119.14 816.009 1072.87 784.979 1051.34 C 758.547 1033 727.388 1029.67 700.998 1011.74 C 644.551 973.402 656.683 878.413 741.788 865.251 z" fill="rgb(0,0,0)" transform="translate(0,0)"></path>
<path d="M 852.725 868.925 C 917.681 867.701 986.654 868.911 1051.93 868.925 L 1051.93 916.08 C 1027.86 916.422 1003.05 916.107 978.926 916.08 L 978.926 1090.25 L 978.926 1161.12 L 926.05 1161.12 L 926.05 916.08 C 908.011 917.367 871.886 916.105 852.725 916.08 C 852.244 901.046 852.671 884.1 852.725 868.925 z" fill="rgb(0,0,0)" transform="translate(0,0)"></path>
<path d="M 1489.01 868.925 L 1691.79 868.925 L 1691.79 916.08 L 1617.78 916.08 C 1616.68 926.918 1617.72 958.39 1617.73 971.21 L 1617.78 1090.25 L 1617.78 1161.12 C 1601.85 1161.54 1583.01 1161.39 1567.1 1161.12 L 1567.09 994.603 C 1567.11 973.098 1568.68 935.446 1567.1 916.08 C 1545.9 917.193 1510.71 916.504 1489.01 916.08 C 1488.88 901.123 1490.1 883.337 1489.01 868.925 z" fill="rgb(0,0,0)" transform="translate(0,0)"></path>
<path d="M 1310.02 868.925 C 1318.92 869.35 1354.31 869.841 1361.28 868.925 C 1362.55 889.843 1361.31 925.848 1361.31 948.27 L 1361.28 1113.03 C 1403.49 1113.06 1446.89 1113.55 1489.01 1113.03 L 1489.01 1161.12 L 1310.02 1161.12 L 1310.02 868.925 z" fill="rgb(0,0,0)" transform="translate(0,0)"></path>
<path d="M 321.023 868.925 C 339.808 866.578 354.277 867.685 373.005 868.925 L 373.014 1064.48 C 373.01 1095.69 372.146 1130.26 373.005 1161.12 C 361.599 1162.08 333.689 1161.15 321.023 1161.12 L 321.023 868.925 z" fill="rgb(0,0,0)" transform="translate(0,0)"></path>
<metadata><recraft-signature>{"signed_by": "recraft", "signature_b64": "gpIB8gqXdRqVi+NhDCn/c+G0Kz27JS4jBHZcBbEJbKIQ08trdkHM2Bp8Kn2bGofHk5jXYPzBLi+u/HF2Se4FBg==", "signing_algo": "Ed25519", "generation_timestamp": 1772998635, "identifier": "d26d7782-f5c0-4cf1-b645-939b39c1109b"}</recraft-signature></metadata></svg>