<svg xmlns="http://www.w3.org/2000/svg" height="512" preserveAspectRatio="none" style="display: block;" version="1.1" viewBox="0 0 2048 2048" width="512">
<path d="M 640.863 315.066 C 657.098 314.408 678.13 315.043 694.762 315.045 L 1312.89 315.055 C 1356.84 315.03 1401.56 312.751 1444.91 319.996 C 1589.58 344.171 1710.4 471.215 1721.41 618.414 C 1722.96 639.078 1722.34 660.923 1722.29 681.827 L 1722.22 1291.67 C 1722.23 1406.72 1729.57 1492.84 1647.15 1587.24 C 1580.86 1663.16 1504.65 1702.32 1404.09 1709.11 L 714.597 1709.11 C 678.338 1709.14 640.818 1710.96 605.15 1705.07 C 452.707 1679.87 338.706 1546.72 324.271 1394.92 C 320.454 1354.78 322.02 1310.59 322.022 1269.5 L 322.042 786.346 C 322.041 655.9 311.248 546.674 401.094 439.673 C 468.007 359.984 538.468 325.698 640.863 315.066 z M 1264.5 1561.13 L 1351.27 1561.18 C 1369.12 1561.18 1387.74 1561.77 1405.29 1560.45 C 1512.88 1552.4 1576.36 1457.57 1575.67 1356.06 L 1575.45 709.745 C 1575.47 685.79 1576.17 660.467 1574.74 636.699 C 1569.88 555.886 1504.89 481.235 1425.26 465.91 C 1394.68 460.027 1359.96 461.464 1328.71 461.464 L 787.46 461.507 L 711.843 461.473 C 640.389 461.509 586.625 466.377 533.204 519.549 C 469.628 582.829 471.734 643.766 471.717 724.638 L 471.729 1344.05 C 471.907 1445.68 518.375 1534.99 626.785 1556.86 C 657.293 1563.01 691.299 1561.17 722.338 1561.16 L 1264.5 1561.13 z" fill="rgb(25,25,25)" transform="translate(0,0)"></path>
<metadata><recraft-signature>{"signed_by": "recraft", "signature_b64": "UKavqB4JjWj/18cn+cJSniHhqjgz+xw53HRhXwT1kUilvQETqmsQVonj0WAuwJVS3qHJVlGiirYvcMMqr/YOAg==", "signing_algo": "Ed25519", "generation_timestamp": 1772999614, "identifier": "dff4f60b-2649-49a7-b1c4-2ee5477a43d3"}</recraft-signature></metadata></svg>