<svg xmlns="http://www.w3.org/2000/svg" height="512" preserveAspectRatio="none" style="display: block;" version="1.1" viewBox="0 0 2048 2048" width="512">
<path d="M 1015.29 181.341 C 1073.59 174.545 1086.69 224.634 1111.12 265.406 C 1135.37 305.859 1156.75 348.568 1180.02 389.462 L 1821.4 1530.53 C 1837.04 1557.68 1857.46 1590.72 1871.59 1618.08 C 1865.08 1618.67 1853.46 1618.17 1846.63 1618.15 L 1496.66 1618.09 C 1481.64 1618.1 1445.19 1619.36 1432.81 1618.08 C 1421.25 1601.03 1374.1 1514.71 1366.6 1493.29 L 1655.37 1493.29 C 1647.49 1478.22 1637.25 1461.45 1628.69 1446.44 L 1053.9 427.001 C 1044.44 410.079 1032.9 390.561 1024.98 373.234 C 1012.92 392.354 1002.91 411.918 992.09 431.723 L 438.282 1413.2 C 424.685 1437.37 406.124 1467.07 394.165 1490.93 C 413.162 1490.28 435.244 1490.89 454.564 1490.89 L 574.303 1490.93 C 578.41 1539.41 591.047 1575.32 613.504 1618.08 L 178.074 1618.08 C 182.51 1604.68 200.389 1576.91 208.229 1562.72 L 949.748 242.903 C 968.424 209.498 974.885 189.297 1015.29 181.341 z" fill="rgb(41,40,40)" transform="translate(0,0)"></path>
<path d="M 978.635 849.133 C 1123.35 837.678 1181.52 1033.65 1024.98 1091.67 L 1024.98 1318.92 C 1090.2 1318.93 1160.12 1317.61 1224.88 1318.92 C 1242.97 1355.81 1262.63 1390.73 1281.89 1426.9 L 1360.87 1576.82 C 1373.66 1601.04 1387.67 1624.75 1399.99 1649.09 C 1438.97 1731.84 1332.12 1787.31 1289.98 1726.12 C 1260.31 1683.04 1233.86 1612.89 1205.7 1564.12 C 1183.23 1525.2 1161.65 1483.99 1142.81 1443.15 L 979.515 1443.15 C 955.346 1443.16 922.137 1444.26 898.854 1443.15 C 898.218 1426.45 898.805 1405.91 898.813 1388.91 L 898.854 1281.38 C 834.014 1293.66 785.279 1333.38 760.531 1394.75 C 711.683 1504.86 803.134 1636.41 927.253 1639.01 C 987.798 1640.28 1024.82 1620.13 1067.25 1579.58 C 1083.6 1595.17 1132.33 1656.43 1146.22 1677.27 C 1028.74 1781.92 861.352 1798.8 736.702 1695.1 C 528.965 1522.27 622.652 1180.36 898.854 1155.09 L 898.854 1063.06 C 831.89 980.497 872.718 865.4 978.635 849.133 z" fill="rgb(41,40,40)" transform="translate(0,0)"></path>
<metadata><recraft-signature>{"signed_by": "recraft", "signature_b64": "eDyv4osK0vGruqzUDsQ3+4qy7S1kRAO9Wo+mZhrGieBQtnk4YyY8pM2Zx5VBoYZwh0AK9iXPuOpgNzKjhjfmAw==", "signing_algo": "Ed25519", "generation_timestamp": 1772990322, "identifier": "439091a0-3b7d-49ac-ae1d-488e37938617"}</recraft-signature></metadata></svg>