<svg xmlns="http://www.w3.org/2000/svg" height="512" preserveAspectRatio="none" style="display: block;" version="1.1" viewBox="0 0 2048 2048" width="512">
<path d="M 525.225 263.768 C 532.09 262.877 554.008 263.661 562.18 263.683 L 1460.51 263.759 C 1572.47 263.676 1609.45 273.745 1609.3 397.116 L 1609.27 1599.55 C 1609.33 1673.68 1625.8 1766.7 1524.88 1782.06 L 562.193 1782.1 C 505.596 1782.14 445.783 1770.87 439.84 1698.95 C 438.039 1677.15 438.944 1653.23 438.975 1631.23 L 438.897 433.062 C 438.871 363.694 427.288 273.517 525.225 263.768 z M 533.873 1625.49 L 1515.54 1625.49 L 1515.54 355.002 L 533.873 355.002 C 533.152 370.091 533.835 387.493 533.856 402.91 L 533.873 1625.49 z M 1025.48 1748.13 C 1049.2 1747.27 1067.73 1727.34 1066.86 1703.62 C 1065.99 1679.9 1046.05 1661.38 1022.33 1662.26 C 998.626 1663.15 980.125 1683.07 980.995 1706.77 C 981.865 1730.47 1001.78 1748.99 1025.48 1748.13 z" fill="rgb(31,47,65)" transform="translate(0,0)"></path>
<metadata><recraft-signature>{"signed_by": "recraft", "signature_b64": "1SUuLT3bQVDKUxeMKPk90p+MNtXE/4KLOWHHvIrTZkY7pS1e6f3vIFLGstqrMf8pNDePN+JbU0ysaXoJzww+Cw==", "signing_algo": "Ed25519", "generation_timestamp": 1772999284, "identifier": "0149eeb7-c2f6-4074-a5d1-46275a1052c2"}</recraft-signature></metadata></svg>