<svg xmlns="http://www.w3.org/2000/svg" height="512" preserveAspectRatio="none" style="display: block;" version="1.1" viewBox="0 0 2048 2048" width="512">
<path d="M 967.5 291.291 L 1291.04 291.249 C 1386.21 291.072 1470.49 321.876 1471.06 436.963 L 1471.05 1595.79 C 1471.03 1667.33 1449.7 1735.36 1367.22 1751.01 C 1336.26 1756.89 1293.87 1754.03 1261.05 1754.01 L 1074.75 1754.04 L 740.332 1754.38 C 726.266 1754.49 706.652 1755.21 693.24 1752.81 C 624.499 1740.51 577.449 1682.94 577.47 1613.2 L 577.487 465.514 C 577.472 448.792 576.856 431.055 578.868 414.52 C 590.182 321.545 664.111 291.807 745.196 291.295 C 819.238 290.826 893.469 292.063 967.5 291.291 z M 670.49 1534.32 L 1336.69 1534.32 C 1349.8 1534.3 1364.15 1533.97 1377.15 1534.32 L 1377.18 468.259 C 1377.25 371.409 1360.49 383.936 1278.23 383.975 L 712.374 383.787 C 710.873 383.784 710.235 383.816 708.756 384.026 C 666.142 389.08 670.396 422.112 670.494 455.615 L 670.49 1534.32 z M 1028.48 1692.68 C 1056.84 1690.73 1078.33 1666.3 1076.67 1637.93 C 1075 1609.55 1050.79 1587.81 1022.4 1589.19 C 993.602 1590.6 971.485 1615.23 973.176 1644.01 C 974.867 1672.79 999.717 1694.66 1028.48 1692.68 z" fill="rgb(0,0,0)" transform="translate(0,0)"></path>
<metadata><recraft-signature>{"signed_by": "recraft", "signature_b64": "o0b9/n6MGpTcyb1UMBNPQhCQpx9a4bSnKYPBglY857m3Tw2eJwHVlpi1WOlQeBozAxAWS6S0gJnGHE8k7m4ZDQ==", "signing_algo": "Ed25519", "generation_timestamp": 1772999266, "identifier": "623ef9a9-2819-4f1f-abc3-afbfdbcb0d86"}</recraft-signature></metadata></svg>