<svg xmlns="http://www.w3.org/2000/svg" height="512" preserveAspectRatio="none" style="display: block;" version="1.1" viewBox="0 0 2048 2048" width="512">
<path d="M 368.165 554.011 C 387.692 552.814 423.189 553.972 443.716 553.984 L 1601.33 553.996 C 1695.34 553.881 1786.14 559.502 1825.23 667.196 C 1839.54 706.633 1834.99 761.915 1834.98 804.605 L 1834.97 1288.07 C 1834.95 1303.99 1835.34 1323.94 1833.2 1339.82 C 1822.32 1420.59 1755.11 1473.09 1678.24 1485.21 L 415.781 1485.31 C 403.505 1485.35 382.239 1485.95 371.073 1484.95 C 292.699 1477.92 225.417 1412.96 216.333 1334.73 C 214.105 1315.55 214.42 1300.8 214.409 1281.76 L 214.376 762.548 C 213.251 654.375 245.177 570.251 368.165 554.011 z M 1661.75 1420.46 C 1720.34 1415.03 1771.45 1374.7 1768.99 1311.56 C 1768.77 1306.14 1769.05 1299.78 1769.06 1294.2 L 1769.07 762.074 C 1769.21 638.867 1727.42 619.036 1613.39 619.004 L 661.995 619.012 C 569.976 619.009 473.612 617.555 381.915 619.023 C 293.549 628.417 279.871 680.889 279.918 754.008 L 279.872 1287.4 C 279.833 1299.92 279.141 1315.07 280.676 1326.99 C 292.031 1415.15 364.088 1420.6 432.146 1420.48 L 1661.75 1420.46 z" fill="rgb(0,0,0)" transform="translate(0,0)"></path>
<path d="M 1354.92 840.023 C 1388.41 839.977 1444.28 836.501 1475.62 844.645 C 1557.36 865.887 1579.38 980.232 1515.14 1033.28 C 1503.43 1042.95 1493.23 1047.54 1480.03 1054.57 C 1502.4 1087.36 1530.96 1122.39 1552.07 1155.75 C 1569.89 1183.93 1520.83 1221.76 1495.7 1190.84 C 1485.87 1178.75 1477.27 1165.53 1468.25 1152.44 C 1448.73 1125.05 1418.38 1088.72 1402.94 1060.32 C 1389.39 1060.14 1366.77 1061.4 1354.92 1060.32 L 1354.99 1131.55 C 1355 1148.01 1357.51 1173.93 1348.5 1188.69 C 1336.26 1208.74 1296.12 1202.85 1291.53 1181.44 C 1287.69 1163.55 1289.5 1132.73 1289.5 1113.2 L 1289.48 915.504 C 1289.45 845.147 1283.88 841.699 1354.92 840.023 z M 1354.92 998.132 L 1409.13 998.257 C 1433.2 998.302 1452.62 1001.42 1471.91 983.836 C 1498.82 956.115 1489.83 917.284 1451.48 905.94 C 1440.2 902.604 1421.64 903.851 1409.5 903.876 L 1354.92 904.001 C 1353.87 913.312 1354.74 928.527 1354.84 938.574 L 1354.92 998.132 z" fill="rgb(0,0,0)" transform="translate(0,0)"></path>
<path d="M 1068.8 840.023 C 1105.26 832.214 1113.64 867.754 1125.69 894.588 L 1207.58 1080.13 C 1219.34 1106.65 1231.33 1133.9 1240.88 1161.29 C 1252.15 1193.59 1199.13 1216.06 1180.85 1187.15 C 1171.2 1171.89 1163.6 1148.63 1156.2 1131.45 C 1133.8 1131.2 1110.93 1131.42 1088.5 1131.45 L 1000.52 1131.45 C 993.174 1150.23 980.467 1196.72 958.148 1200.76 C 929.787 1205.89 906.65 1181.66 919.022 1152.79 L 1010.1 934.624 C 1023.3 903.618 1035.9 844.744 1068.8 840.023 z M 1023.05 1068.96 L 1080.5 1068.96 L 1130.95 1068.96 C 1126.29 1054.2 1082.12 948.521 1075.35 940.699 C 1059.04 981.032 1035.39 1028.94 1023.05 1068.96 z" fill="rgb(0,0,0)" transform="translate(0,0)"></path>
<path d="M 732.893 836.095 C 797.817 831.266 860.406 855.113 871.955 927.534 C 877.798 964.173 856.528 959.555 828.535 962.023 C 787.179 965.668 835.687 894.717 740.631 899.78 C 730.991 900.361 706.017 908.061 701.219 916.605 C 652.21 1003.86 868.315 958.562 874.84 1083.43 C 878.316 1149.94 832.549 1197.62 766.742 1201.31 C 686.689 1210.03 624.883 1164.13 626.068 1082.7 C 627.976 1080.36 630.438 1077.94 632.565 1075.72 C 716.807 1054.89 676.713 1100.17 705.843 1122.77 C 750.428 1156.77 853.209 1114.85 792.925 1067.36 C 768.511 1048.13 701.955 1045.04 663.606 1014.46 C 592.42 958.835 630.673 847.288 732.893 836.095 z" fill="rgb(0,0,0)" transform="translate(0,0)"></path>
<path d="M 522.787 840.023 C 550.927 833.505 562.011 852.267 562.095 876.409 L 562.211 1127.94 C 562.291 1156.41 570.389 1189.47 536.836 1201.31 C 486.188 1202.74 496.986 1153.1 496.971 1118.16 L 496.968 915.12 C 496.969 885.75 486.312 843.489 522.787 840.023 z" fill="rgb(0,0,0)" transform="translate(0,0)"></path>
<metadata><recraft-signature>{"signed_by": "recraft", "signature_b64": "GdLAz9djwhKNfaOW8yAz1ATcZV1ZAN7bxOvdO5/j6gDH41i8kCwamjOaKOM+6cQMZ/HC17x7kgltI97w56E2Dg==", "signing_algo": "Ed25519", "generation_timestamp": 1772997835, "identifier": "856d24b3-6d74-4c61-b0f3-80ca3fb6d412"}</recraft-signature></metadata></svg>