<svg xmlns="http://www.w3.org/2000/svg" height="512" preserveAspectRatio="none" style="display: block;" version="1.1" viewBox="0 0 2048 2048" width="512">
<path d="M 717.004 473.512 L 1771 473.512 C 1770.44 481.659 1770.96 496.206 1770.96 504.801 L 1770.97 569.764 C 1770.97 649.601 1772.36 733.656 1771 813.007 L 1735.75 813.007 L 678.924 813.007 L 678.924 473.512 L 717.004 473.512 z" fill="rgb(0,0,0)" transform="translate(0,0)"></path>
<path d="M 1330.38 1236.85 L 1624.44 1236.84 C 1672.37 1236.84 1723.34 1235.94 1771 1236.85 L 1771 1570 C 1753.91 1568.69 1722.67 1569.96 1703.99 1569.98 L 1115.36 1570 L 678.924 1570 L 678.935 1347.28 C 678.931 1313.01 677.588 1270.11 678.924 1236.85 C 693.185 1235.6 728.408 1236.81 744.808 1236.83 L 1330.38 1236.85 z" fill="rgb(0,0,0)" transform="translate(0,0)"></path>
<path d="M 678.924 919 L 1771 919 L 1771 1125.88 L 678.924 1125.88 L 678.924 919 z" fill="rgb(0,0,0)" transform="translate(0,0)"></path>
<path d="M 300.004 473.512 L 570.886 473.512 C 569.943 493.157 570.664 512.222 570.848 531.832 L 570.886 813.007 L 545.5 813.007 L 274.021 813.007 L 274.021 473.512 L 300.004 473.512 z" fill="rgb(0,0,0)" transform="translate(0,0)"></path>
<path d="M 274.021 1236.85 L 570.886 1236.85 C 570.891 1346.77 569.388 1460.44 570.886 1570 L 373.029 1570 C 341.23 1570 305.573 1569.15 274.021 1570 L 273.966 1286.45 C 273.836 1271.1 272.949 1251.81 274.021 1236.85 z" fill="rgb(0,0,0)" transform="translate(0,0)"></path>
<path d="M 274.021 919 L 570.886 919 L 570.886 1125.88 C 561.046 1125.17 545.843 1125.72 535.571 1125.78 L 274.021 1125.88 L 274.021 919 z" fill="rgb(0,0,0)" transform="translate(0,0)"></path>
<metadata><recraft-signature>{"signed_by": "recraft", "signature_b64": "/R17zzTf//i2YTJsome6W0Q4kDuHI7i3MVfOnHmjAML/wPphoWokPuo97pF7JZ0oj9A+ViQDL4vMMWYani11Bg==", "signing_algo": "Ed25519", "generation_timestamp": 1772997014, "identifier": "6f015469-a9d2-42e7-bd2a-616c3bc9af67"}</recraft-signature></metadata></svg>