<svg xmlns="http://www.w3.org/2000/svg" height="512" preserveAspectRatio="none" style="display: block;" version="1.1" viewBox="0 0 2048 2048" width="512">
<path d="M 1672.78 287.316 C 1717.26 282.505 1756.77 310.972 1756.5 357.466 L 1756.26 1629.8 C 1756.52 1664.25 1762.54 1708.28 1736.11 1734.14 C 1678.08 1790.94 1632.25 1741.02 1592.89 1701.44 L 1293.16 1401.62 C 1265.85 1374.24 1237.13 1347.15 1210.15 1319.51 L 876.852 1649.87 C 786.992 1737.66 700.206 1635.53 744.093 1564.64 C 750.184 1554.8 761.481 1544.79 769.741 1536.4 L 814.412 1491.45 C 842.314 1463.88 873.222 1431.79 901.575 1405.43 L 725.25 1405.43 L 543.418 1405.43 C 468.23 1405.45 400.027 1415.93 342.338 1357.47 C 293.684 1308.17 294.998 1266.2 294.981 1202.65 L 294.704 812 C 294.291 716.215 367.405 639.207 464.739 642.457 C 475.813 642.827 488.021 642.4 499.331 642.407 L 905.662 642.438 C 892.818 627.096 871.58 606.904 857.021 592.373 L 788.234 522.772 C 762.196 496.371 736.093 478.032 734.61 437.709 C 732.43 378.415 799.299 335.412 848.522 371.548 C 890.293 408.841 929.092 450.541 968.662 490.243 L 1206.45 724.758 C 1223.32 709.674 1241.74 690.49 1258.02 674.301 L 1539.94 396.204 C 1576.35 360.908 1624.17 296.918 1672.78 287.316 z M 446.08 806.639 C 446.84 832.169 446.187 855.414 446.098 880.838 L 446.074 990.653 C 446.076 1072.84 447.362 1158.63 446.08 1240.54 C 460.65 1256.89 498.608 1250.4 521.131 1250.38 L 908.294 1250.33 C 954.643 1250.33 1007.43 1249.08 1053.35 1250.35 C 1068.37 1235.44 1082.89 1220.36 1098.11 1205.61 C 1084.71 1192.21 1067.28 1173.83 1053.35 1161.62 C 1003.85 1113.35 893.666 1033.01 968.696 959.432 C 1007.33 921.548 1055.82 865.361 1098.11 834.149 C 1080.69 822.663 1072.67 810.964 1057.63 797.996 L 459.775 797.996 C 452.402 800.355 451.283 801.02 446.08 806.639 z M 1129.93 1022.22 C 1137.87 1032.38 1151.16 1043.84 1160.48 1053.2 L 1366.07 1259.64 L 1511.89 1404.57 C 1540.71 1433.69 1571.23 1467.41 1600.61 1495.12 C 1601.41 1470.77 1600.61 1442.59 1600.6 1417.8 L 1600.58 786.686 C 1600.58 771.508 1601.01 554.786 1600.61 553.929 C 1580.99 570.457 1554.2 599.212 1535.15 618.286 L 1202.66 949.662 C 1179.34 973.239 1152.32 998.407 1129.93 1022.22 z" fill="rgb(0,0,0)" transform="translate(0,0)"></path>
<metadata><recraft-signature>{"signed_by": "recraft", "signature_b64": "Xm/uamGjC5Q6kxYKhEemh9Bt4CCLNQsZOO0T7PT7Fg9tmOcd65Ru45F0kOBAEPZPPKmaJTbu/p9IQjMVWxLeBQ==", "signing_algo": "Ed25519", "generation_timestamp": 1772997005, "identifier": "767d46c6-f95a-48a0-b16d-9a4eb29dce10"}</recraft-signature></metadata></svg>