<svg xmlns="http://www.w3.org/2000/svg" height="512" preserveAspectRatio="none" style="display: block;" version="1.1" viewBox="0 0 2048 2048" width="512">
<path d="M 518.75 544.459 L 1704.01 543.758 C 1756.63 543.27 1769.47 573.584 1769.86 620.621 L 1770 1422.53 C 1770.03 1513.43 1723.43 1502.75 1650.54 1502.76 L 1511.5 1502.72 L 363.941 1502.77 C 273.417 1502.8 249.424 1482.34 269.127 1388.28 L 365.195 897.855 C 383.967 797.797 405.287 696.171 421.495 596.163 C 431.904 543.595 476.001 544.521 518.75 544.459 z M 538.431 671.408 C 534.886 698.42 528.272 726.023 523.242 752.792 L 403.275 1377 L 1223.5 1377 L 1642.87 1377 L 1642.87 671.408 C 1613.33 670.761 1581.75 671.401 1552.01 671.405 L 826.997 671.408 L 538.431 671.408 z" fill="rgb(0,0,0)" transform="translate(0,0)"></path>
<metadata><recraft-signature>{"signed_by": "recraft", "signature_b64": "7y6ICOh0ZGSbBMtuJemGVaUUisSzj96MCQAAf04F1x/lTq+zSwc/h12T7W9FXD6esneGjzpS4Qe6SBgGIt2dCQ==", "signing_algo": "Ed25519", "generation_timestamp": 1772997863, "identifier": "d2ebf19d-7fe3-4ecd-bc63-121ea923aff8"}</recraft-signature></metadata></svg>