<svg xmlns="http://www.w3.org/2000/svg" height="512" preserveAspectRatio="none" style="display: block;" version="1.1" viewBox="0 0 2048 2048" width="512">
<path d="M 230.11 478.003 C 245.34 478.922 270.086 478.059 286.222 478.046 L 1818.89 478.003 L 1818.89 1566.75 L 1818.74 1569.27 C 1815.66 1571.18 1780.71 1570 1774.09 1570 L 230.11 1570 C 231.136 1532.37 230.124 1489.06 230.122 1450.99 L 230.11 478.003 z M 365.998 1433 L 1678.25 1433 L 1681.21 1432.45 C 1684.23 1427.38 1682.98 1330.8 1682.99 1315.34 L 1683.01 1090.27 L 374.717 1090.27 C 358.893 1091.23 365.93 1113.61 365.943 1130.93 L 365.998 1433 z M 365.998 952.58 L 1683.01 952.58 C 1684.8 944.106 1683.02 891.532 1683.01 880.613 L 1682.97 646.208 C 1682.93 635.947 1682.35 624.081 1683.01 614.001 C 1633.93 615.087 1580.03 614.006 1530.65 614.004 L 365.998 614.001 L 365.998 952.58 z" fill="rgb(0,0,0)" transform="translate(0,0)"></path>
<metadata><recraft-signature>{"signed_by": "recraft", "signature_b64": "MOaAQZXbKb0VEWupEX29RjjBVAUczQAOyZJLIkQvoWtwbVc2UoNa4jvAJNC+C7TOF1PoF8kXHOSijxLembwZAA==", "signing_algo": "Ed25519", "generation_timestamp": 1772995965, "identifier": "6b3d28c5-290e-46f6-9450-7d4d09f283ec"}</recraft-signature></metadata></svg>