<svg xmlns="http://www.w3.org/2000/svg" height="512" preserveAspectRatio="none" style="display: block;" version="1.1" viewBox="0 0 2048 2048" width="512">
<path d="M 879.375 290.49 L 1616.81 290.509 C 1644.89 290.507 1675.04 289.337 1702.73 291.166 C 1773.07 295.813 1758.85 390.954 1758.85 440.157 L 1758.84 1636.85 C 1758.87 1657.65 1760.15 1681.52 1758.94 1701.49 C 1754.99 1766.89 1685.05 1756 1640.33 1755.99 L 412.554 1756.01 C 302.943 1756.01 290.247 1764.89 290.364 1635.86 L 290.345 954.227 C 290.358 928.261 287.664 901.354 307.462 881.804 C 333.066 857.199 374.61 858.177 399.302 883.743 C 421.567 906.796 416.663 937.989 416.61 967.91 L 416.532 1354.75 L 416.532 1630.94 L 607.028 1630.94 L 607.02 1002.8 C 607.019 975.026 606.235 947.895 608.276 920.118 C 613.011 846.396 723.619 845.458 734.061 916.441 C 737.124 937.263 734.987 968.139 734.982 989.763 L 734.999 1630.94 C 764.005 1632.1 802.531 1630.95 832.291 1630.94 L 1630.9 1630.94 L 1630.9 414.312 L 851.885 414.346 C 841.689 414.347 830.692 414.849 820.785 413.783 C 771.092 408.421 749.943 342.359 785.916 307.88 C 809.731 285.052 848.6 290.415 879.375 290.49 z" fill="rgb(0,0,0)" transform="translate(0,0)"></path>
<metadata><recraft-signature>{"signed_by": "recraft", "signature_b64": "Y76uRmQ5oZBYI10ApTTsVX/bFogOhZx7xGgSAoPSfsD3VVVswYbHmSMktuUQb+XpTOcxf8+QRreBZWH4WLudAg==", "signing_algo": "Ed25519", "generation_timestamp": 1772998048, "identifier": "0bc5c552-f499-4491-bd70-5ccd96807f17"}</recraft-signature></metadata></svg>