<svg xmlns="http://www.w3.org/2000/svg" height="512" preserveAspectRatio="none" style="display: block;" version="1.1" viewBox="0 0 2048 2048" width="512">
<path d="M 1459.31 470.937 C 1507.52 468.868 1546.06 469.109 1572.24 517.567 C 1591.65 553.5 1575.48 585.078 1563.65 620.272 L 1525.08 733.028 C 1507.03 785.368 1490.46 841.332 1473.04 894.373 C 1479.93 895.15 1491.78 894.554 1499.08 894.475 L 1694.65 894.367 C 1734.48 894.341 1774.45 888.629 1805.69 918.574 C 1840.29 951.748 1841.97 1007.55 1807.55 1041.55 C 1781.65 1067.66 1754.51 1064.13 1720.59 1064.14 L 1422.16 1064.12 C 1418.24 1072.16 1414.95 1083.72 1411.98 1092.53 C 1365.24 1233.48 1319.17 1374.78 1274.97 1516.56 C 1254.3 1590.28 1153.47 1600.14 1116.98 1533.63 C 1096.96 1497.14 1111.58 1468.11 1123.67 1432.42 L 1199.99 1206.53 C 1215.67 1159.82 1232.44 1111.31 1246.56 1064.12 L 937.572 1064.12 L 937.662 1474.7 C 937.828 1549.71 924.149 1575.56 845.234 1575.07 L 803.146 1575.16 C 721.472 1575.72 727.36 1508.95 727.162 1449.67 L 727.068 1304.5 L 727.068 1064.12 L 315.822 1064.11 C 286.745 1063.91 260.345 1063.5 239.269 1041.16 C 207.278 1007.04 209.151 951.07 243.347 919.073 C 272.375 891.912 295.806 894.2 332.78 894.283 L 1223.12 894.366 C 1247.25 894.36 1273.13 893.774 1297.08 894.373 C 1301.33 883.701 1304.94 870.958 1308.56 859.911 L 1332.34 786.595 C 1346.61 742.868 1367.57 683.96 1378.15 640.194 C 1345.5 640.847 1310.54 640.206 1277.69 640.206 L 481.952 640.194 C 489.191 616.567 532.42 484.557 540.966 472.814 C 550.363 468.936 770.727 470.911 793.865 470.911 L 1459.31 470.937 z" fill="rgb(0,0,0)" transform="translate(0,0)"></path>
<metadata><recraft-signature>{"signed_by": "recraft", "signature_b64": "Ho/3GRpFqWyvElWtF2mUmiQGR8id/rYQzPZneIIExiOFqWd73P+v8v8+soS04SkbF8/JzjtFU9vguZgBKMYPDA==", "signing_algo": "Ed25519", "generation_timestamp": 1772995794, "identifier": "57e0e6e5-cb0d-4daf-b445-446f2d4a31ac"}</recraft-signature></metadata></svg>