<svg xmlns="http://www.w3.org/2000/svg" height="512" preserveAspectRatio="none" style="display: block;" version="1.1" viewBox="0 0 2048 2048" width="512">
<path d="M 586.685 717.51 L 1751.05 717.462 C 1790.27 717.46 1857.05 712.914 1862.3 768.416 C 1863.79 784.14 1863.06 802.501 1863.04 818.477 L 1863.12 1250.34 C 1863.31 1319.36 1833.95 1327.41 1771.9 1327.23 L 1459.5 1327.15 L 286.002 1327.19 C 187.951 1327.83 184.712 1312.53 184.836 1226.48 L 184.319 783.625 C 184.001 721.287 238.715 717.464 286.189 717.476 L 586.685 717.51 z M 226.012 1274.37 C 241.718 1291.84 277.442 1285.03 301.403 1285.02 L 1802.61 1285 C 1818.57 1281.2 1820.81 1272.1 1820.94 1256.64 L 1821.02 881.325 C 1821.02 862.012 1827.82 769.634 1811.87 762.923 C 1803.04 759.207 1537.76 761.257 1496.06 761.264 L 363.509 761.235 C 326.294 761.233 281.28 759.98 244.618 761.241 C 217.591 767.771 225.813 795.117 225.938 819.402 L 226.033 1231.84 C 226.046 1245.72 226.819 1260.71 226.012 1274.37 z" fill="rgb(0,0,0)" transform="translate(0,0)"></path>
<path d="M 772.803 922.004 C 816.364 924.461 885.39 906.655 890.956 970.44 C 892.48 987.899 883.017 1001.19 872.29 1013.51 C 903.594 1025.67 900.949 1064.67 888.132 1090.33 C 864.839 1124.47 809.215 1116.85 772.803 1116.74 C 772.81 1052.32 772.014 986.245 772.803 922.004 z M 849.939 1076.79 C 871.124 1043.89 845.269 1027.14 812.996 1030 C 813.001 1039.05 811.691 1075.23 812.462 1080.99 C 820.728 1086.19 841.592 1082.83 849.939 1076.79 z M 812.996 998.241 C 825.479 998.623 836.604 1000.46 846.528 992.322 C 866.342 961.429 837.82 953.578 812.996 953.991 L 812.996 998.241 z" fill="rgb(0,0,0)" transform="translate(0,0)"></path>
<path d="M 629.026 922.004 C 663.563 925.276 709.761 911.903 735.754 942.958 C 757.006 968.348 749.173 994.088 725.653 1013.51 C 755.171 1028.36 755.309 1063.7 743.807 1090.33 C 720.875 1125.71 666.563 1115.81 629.026 1116.74 L 629.026 922.004 z M 668.035 1082.07 C 680.709 1083.23 693.119 1084.78 703.916 1076.79 C 728.181 1043.88 698.807 1029.52 668.035 1030 C 668.643 1048.37 668.192 1063.85 668.035 1082.07 z M 668.035 998.241 C 678.107 997.767 692.938 998.659 700.447 992.322 C 720.601 962.114 691.712 955.55 668.035 956.988 C 667.914 970.034 667.436 985.32 668.035 998.241 z" fill="rgb(0,0,0)" transform="translate(0,0)"></path>
<path d="M 1120.18 922.004 L 1161.53 922.004 L 1161.53 956.988 L 1161.55 1026.91 C 1161.78 1078.1 1166.37 1119.31 1098.05 1121.2 C 1031.8 1125.4 1036.92 1066.27 1036.95 1022.74 L 1037.01 922.004 L 1077.41 922.004 L 1077.36 1016.41 C 1077.36 1034.56 1076.63 1052.95 1078.88 1070.96 C 1081.34 1090.66 1116.69 1090.03 1119.08 1071.43 C 1121.28 1054.41 1120.27 1035.41 1120.25 1018.1 L 1120.18 922.004 z" fill="rgb(0,0,0)" transform="translate(0,0)"></path>
<path d="M 1492.76 922.004 C 1508.75 921.754 1524.03 921.751 1540.01 922.004 C 1547.23 980.826 1574.55 1055.19 1587.77 1116.74 L 1549.22 1116.74 C 1545.54 1104.93 1542.78 1091.24 1540.01 1079.07 C 1525.2 1078.5 1507.79 1078.97 1492.76 1079.07 C 1489.04 1090.23 1485.78 1104.98 1482.51 1116.74 C 1469.73 1117.22 1456.88 1116.91 1444.09 1116.74 C 1463.34 1058.75 1475.17 983.459 1492.76 922.004 z M 1498.82 1044.27 C 1504.71 1044.33 1511.69 1044.56 1517.5 1044.27 L 1532.08 1044.27 C 1528.85 1025.14 1520.78 985.752 1514.24 967.74 C 1509.16 991.853 1504.54 1020.95 1498.82 1044.27 z" fill="rgb(0,0,0)" transform="translate(0,0)"></path>
<path d="M 1306.76 922.004 L 1345.97 922.004 L 1345.97 1005.92 C 1360.86 977.516 1375.15 949.542 1391.9 922.004 L 1433.58 922.004 C 1424.15 942.466 1395.78 988.697 1383.14 1005.92 C 1396.69 1030.35 1412.41 1057.31 1424.63 1082.07 C 1430.92 1095.72 1436.03 1104.39 1444.09 1116.74 L 1397.28 1116.74 C 1391.02 1103.54 1366.36 1052.31 1357.97 1044.27 C 1339.06 1063.45 1346.72 1092.01 1345.97 1116.74 C 1333 1116.64 1319.69 1116.36 1306.76 1116.74 L 1306.76 922.004 z" fill="rgb(0,0,0)" transform="translate(0,0)"></path>
<path d="M 560.037 922.004 C 572.452 921.705 585.972 921.985 598.473 922.004 C 597.805 935.902 598.374 953.673 598.473 967.74 C 595.085 1021.64 625.693 1144.39 508.161 1112.83 C 492.914 1108.74 478.409 1080.57 479.862 1065.85 C 481.81 1046.11 475.698 933.052 480.265 923.008 L 483.37 922.004 L 519.043 922.004 L 519.035 1020.05 C 519.017 1036.53 518.311 1055.74 519.043 1071.86 C 525.959 1078.68 527.742 1079.49 536.742 1082.07 C 563.489 1078.35 559.7 1066.82 560.034 1042.6 C 560.587 1002.45 559.57 962.167 560.037 922.004 z" fill="rgb(0,0,0)" transform="translate(0,0)"></path>
<path d="M 415.364 922.004 C 427.376 922.199 438.989 922.153 451.001 922.004 L 451.063 1021.84 C 451.069 1043.44 454.53 1083.63 441.279 1101.32 C 424.962 1123.1 382.828 1122.9 361.879 1106.67 C 347.661 1091.64 344.882 1070.66 348.288 1050.95 C 358.505 1050.36 373.338 1050.86 383.898 1050.95 C 384.178 1061.7 383.821 1069.98 389.336 1079.07 L 390.428 1079.66 C 419.581 1095.23 411.586 1036.93 411.585 1020.54 L 411.614 946.048 C 411.655 940.118 408.919 924.218 415.364 922.004 z" fill="rgb(0,0,0)" transform="translate(0,0)"></path>
<path d="M 1662.76 922.004 L 1695.99 922.004 L 1695.99 956.988 C 1684.12 957.36 1670.55 957.021 1658.56 956.988 C 1659.48 972.491 1658.61 993.637 1658.6 1009.76 L 1658.56 1116.74 L 1619.02 1116.74 C 1620.36 1066.96 1621.35 1007.03 1619.02 956.988 L 1583.58 956.988 C 1583.47 945.252 1583.43 933.743 1583.58 922.004 C 1609.93 922.067 1636.44 921.584 1662.76 922.004 z" fill="rgb(0,0,0)" transform="translate(0,0)"></path>
<path d="M 1186.17 922.004 L 1225.23 922.004 L 1225.23 1082.07 C 1239.98 1083.14 1276.25 1082.67 1290.96 1082.07 C 1290.88 1093.45 1290.61 1105.41 1290.96 1116.74 L 1186.17 1116.74 C 1187.32 1101.08 1186.21 1070.4 1186.2 1053.55 L 1186.17 922.004 z" fill="rgb(0,0,0)" transform="translate(0,0)"></path>
<path d="M 919.018 922.004 C 931.926 921.778 945.389 921.985 958.343 922.004 C 958.333 974.677 959.195 1029.58 958.343 1082.07 L 1020.91 1082.07 C 1020.82 1087.5 1022.62 1114.37 1020.91 1116.74 L 919.018 1116.74 C 917.773 1054.06 918.872 985.098 919.018 922.004 z" fill="rgb(0,0,0)" transform="translate(0,0)"></path>
<metadata><recraft-signature>{"signed_by": "recraft", "signature_b64": "o+0WZhc8HRNOysPEPWP+TeF61ItjdXHwF8PuhxU1ICzG4r0z5t/6W5VwzaH+9ekpO2UeQkDVQXB5o+gGeVrbCw==", "signing_algo": "Ed25519", "generation_timestamp": 1772997900, "identifier": "c4fac862-d8b4-4c44-af89-6224f80537fb"}</recraft-signature></metadata></svg>