<svg xmlns="http://www.w3.org/2000/svg" height="512" preserveAspectRatio="none" style="display: block;" version="1.1" viewBox="0 0 2048 2048" width="512">
<path d="M 667.568 487.948 C 695.556 486.477 669.882 524.153 721.329 546.804 C 731.71 544.733 747.275 537.593 759.608 534.18 C 766.864 536.934 776.268 539.235 783.891 541.32 C 812.546 530.18 811.603 533.31 826.605 557.112 C 840.765 564.375 858.013 559.362 874.163 557.112 C 875.077 571.193 874.465 585.357 874.316 599.49 L 874.163 863.797 L 1638.85 863.797 C 1639.02 879.329 1646.8 875.531 1659.77 876.75 L 1659.77 963.505 L 1699 963.505 L 1699 996.703 C 1716.09 996.962 1714.75 1010.57 1715.08 1024.99 L 1753.95 1024.99 C 1752.68 1051.85 1753.78 1090.54 1753.95 1118.12 C 1747.12 1118.66 1745 1118.79 1738.06 1118.12 L 1738.06 1143.29 C 1745.11 1142.61 1746.89 1142.55 1753.95 1143.29 C 1754.88 1176.84 1753.99 1214.64 1753.95 1248.49 C 1739.04 1249.47 1715.14 1248.4 1699 1248.49 C 1700.19 1241.07 1699.89 1234.4 1699 1226.99 L 1684.08 1226.99 C 1683.78 1211.92 1684.04 1196.13 1684.08 1181.01 L 874.163 1181.01 L 874.154 1406.99 C 874.149 1457.64 874.796 1509.24 874.163 1559.76 L 726.5 1559.76 C 707.33 1559.68 686.519 1560.49 667.568 1559.76 L 667.568 1181.01 L 569.003 1181.01 L 569.003 1559.76 C 478.707 1558.74 382.441 1558.91 292.112 1559.76 L 292.112 487.948 L 476.847 487.953 C 504.774 487.947 541.721 486.756 569.003 487.948 C 567.883 502.36 568.817 517.776 568.91 532.343 L 569.003 863.797 L 667.568 863.797 C 668.107 854.141 667.603 841.549 667.599 831.628 L 667.571 570.096 C 667.569 560.332 665.747 490.921 667.568 487.948 z" fill="rgb(0,0,0)" transform="translate(0,0)"></path>
<metadata><recraft-signature>{"signed_by": "recraft", "signature_b64": "6To1mp8v4miMyGQmZENjMRmYGFliwAd2UpByrYVlpC9WMU3V0m3hHn35BzzG0tVOxSl9FvPxtkHzzdxNqwpXCA==", "signing_algo": "Ed25519", "generation_timestamp": 1772997513, "identifier": "b5f0e3a3-770a-4180-88c0-280074000a8e"}</recraft-signature></metadata></svg>