<svg xmlns="http://www.w3.org/2000/svg" height="512" preserveAspectRatio="none" style="display: block;" version="1.1" viewBox="0 0 2048 2048" width="512">
<path d="M 328.782 503.07 C 347.356 502.014 375.202 503.084 394.734 503.085 L 1701.83 503.224 C 1796.52 502.975 1809.35 577.863 1809.26 649.885 L 1809.22 1394.2 C 1809.5 1473.14 1805.95 1513.77 1719.76 1541.99 C 1707.04 1541.38 1692.67 1541.91 1679.76 1541.94 L 378.716 1542.04 C 319.325 1542.57 258.856 1534.63 242.344 1462.89 C 238.488 1446.14 239.843 1429.1 239.593 1412.07 L 239.082 653.122 C 239.062 578.18 242.438 522.181 328.782 503.07 z M 1699.32 1484.6 C 1759.82 1478.41 1750.85 1442.68 1751.46 1392.55 L 1752.04 647.972 C 1751.99 567.22 1747.45 558.072 1657.14 558.302 L 352.075 558.354 C 297.766 560.254 296.953 588.657 296.93 633.075 L 296.916 1375.8 C 296.878 1478.56 294.012 1484.57 390.645 1484.62 L 1590.12 1484.59 C 1625.31 1484.59 1664.41 1483.74 1699.32 1484.6 z" fill="rgb(0,0,0)" transform="translate(0,0)"></path>
<path d="M 1065.84 853.436 C 1092.53 851.651 1163.84 850.853 1188.37 853.995 C 1295.16 867.673 1306.5 1023.08 1209.51 1059.2 C 1224.47 1081.38 1239.78 1102.9 1256.21 1124.01 C 1300.27 1180.65 1233.4 1206.07 1209.51 1177.8 C 1187.42 1160.45 1149.22 1092.91 1128.66 1067.12 L 1111 1067.12 C 1110.85 1084.75 1113.87 1167.83 1107.81 1177.36 C 1097.91 1192.95 1060.2 1189.83 1047.35 1182.01 C 1038.12 1168.5 1041 1157.37 1040.99 1141.5 L 1041.13 886.05 C 1041.31 867.967 1046.71 857.382 1065.84 853.436 z M 1111 1007.97 C 1136.41 1008.1 1172.68 1014.06 1192.69 995.727 C 1214.76 968.947 1207.92 921.56 1168.65 914.989 C 1152.46 912.28 1128.04 913.893 1111 913.994 L 1111 1007.97 z" fill="rgb(0,0,0)" transform="translate(0,0)"></path>
<path d="M 830.987 853.436 C 847.07 848.586 872.805 849.453 880.659 867.304 C 898.844 908.636 914.284 951.425 930.447 993.622 L 970.391 1098.14 C 986.915 1140.84 1024.57 1199.89 936.353 1184.87 C 921.03 1182.25 912.016 1144.64 905.953 1130.98 L 856.5 1130.98 L 783.103 1130.98 C 765.816 1170.59 775.021 1191.94 719.484 1186.75 C 668.095 1181.95 714.783 1107.19 725.76 1078.74 L 787.341 919.926 C 797.951 892.94 801.093 857.877 830.987 853.436 z M 805.268 1067.12 L 846.571 1067.12 L 882.739 1067.12 L 859.708 1004.13 C 856.323 994.83 848.167 971.528 843.039 963.596 C 829.963 998.309 818.874 1031.8 805.268 1067.12 z" fill="rgb(0,0,0)" transform="translate(0,0)"></path>
<path d="M 1550.32 849.073 C 1571.49 848.274 1590.96 848.405 1597.23 872.392 C 1593.94 887.412 1589.13 899.179 1583.96 913.602 L 1495.44 1157.29 C 1491.59 1167.59 1486.7 1180.91 1475.53 1184.14 C 1411.01 1202.8 1408.84 1162.75 1389.96 1115.09 L 1337.05 978.781 C 1327.06 949.721 1310.8 917.297 1303.81 887.219 C 1296.96 848.971 1354.82 838.277 1370.03 864.129 C 1374.13 871.09 1379.99 885.277 1382.94 893.573 C 1404.87 955.185 1429.28 1016.18 1450.52 1078 L 1502.91 925.879 C 1513.96 894.77 1517.27 858.056 1550.32 849.073 z" fill="rgb(0,0,0)" transform="translate(0,0)"></path>
<path d="M 614.673 853.436 C 633.078 844.027 659.444 857.036 659.11 883.101 C 658.261 949.427 665.773 1057.67 655.345 1118.46 C 643.15 1195.73 532.53 1211.41 482.606 1162.33 C 465.636 1144.32 433.242 1081.85 476.654 1078.09 C 545.845 1072.11 516.569 1102.79 536.566 1118.72 C 549.936 1129.37 576.107 1123.4 582.739 1107.5 C 589.575 1091.12 587.063 1062.13 587.063 1044.17 L 586.983 931.606 C 586.94 898.978 575.253 856.071 614.673 853.436 z" fill="rgb(0,0,0)" transform="translate(0,0)"></path>
<metadata><recraft-signature>{"signed_by": "recraft", "signature_b64": "Xx7Dsw0MHtCRbqlgvVUUVxPQf4nH3Eje3y/BGsRmw6vnNYxjiyO86s/gcjYz1i7+zTLflwlrSEHjybMpW7hcAQ==", "signing_algo": "Ed25519", "generation_timestamp": 1772997322, "identifier": "5e7ae4f7-68b6-4204-957e-550926e2dba9"}</recraft-signature></metadata></svg>