<svg xmlns="http://www.w3.org/2000/svg" height="512" preserveAspectRatio="none" style="display: block;" version="1.1" viewBox="0 0 2048 2048" width="512">
<path d="M 694.546 337.208 C 751.948 332.454 774.374 366.948 775.779 417.51 L 1275.02 417.51 C 1273.58 307.716 1411.39 308.189 1410 417.51 L 1482.82 417.476 C 1499.44 417.418 1517.29 416.55 1533.74 417.862 C 1653.87 427.448 1749.39 525.341 1750.02 647.471 L 1750.02 1409.2 C 1750.03 1500.34 1753.77 1564.83 1683.45 1636.97 C 1608.49 1713.89 1532.77 1702.68 1435.75 1702.54 L 598.973 1702.57 C 561.956 1702.56 517.169 1704.62 481.534 1698.5 C 391.704 1683.06 313.808 1605.34 299.969 1514.96 C 295.094 1483.13 296.878 1447.22 296.897 1414.89 L 296.462 648.232 C 296.549 537.822 379.121 437.958 488.717 420.525 C 510.305 417.091 536.259 417.465 558.167 417.476 L 634.361 417.51 C 636.096 375.266 649.999 346.233 694.546 337.208 z M 1620.33 904.728 C 1592.81 952.893 1517.12 948.419 1469.68 941.638 C 1392.45 930.598 1384.56 819.183 1461.7 803.799 C 1475.93 800.963 1558.92 800.378 1573.77 802.976 C 1595.46 806.772 1608.21 819.699 1620.33 837.096 L 1620.33 723.918 C 1615.42 724.592 1596.04 724.034 1589.92 724.017 L 430.49 723.918 L 430.51 1409.25 C 430.506 1435.65 429.453 1464.93 431.691 1490.81 C 437.558 1558.64 497.775 1570.36 551.559 1570.47 L 1506.58 1570.41 C 1608.54 1569.66 1620.49 1509.89 1620.35 1422.71 L 1620.33 904.728 z" fill="rgb(0,0,0)" transform="translate(0,0)"></path>
<path d="M 775.779 550.72 L 1275.02 550.72 C 1308.02 624.603 1397.62 615.348 1410 550.72 L 1476.21 550.647 C 1573.41 550.42 1620.19 570.185 1620.36 675.958 L 1620.33 723.918 C 1615.42 724.592 1596.04 724.034 1589.92 724.017 L 430.49 723.918 L 430.418 671.52 C 430.539 571.025 470.262 550.581 564.028 550.664 L 634.361 550.72 C 667.288 622.611 757.638 617.933 775.779 550.72 z" fill="rgb(251,32,36)" transform="translate(0,0)"></path>
<path d="M 1620.33 904.728 C 1592.81 952.893 1517.12 948.419 1469.68 941.638 C 1392.45 930.598 1384.56 819.183 1461.7 803.799 C 1475.93 800.963 1558.92 800.378 1573.77 802.976 C 1595.46 806.772 1608.21 819.699 1620.33 837.096 C 1620.15 856.398 1619.33 886.195 1620.33 904.728 z" fill="rgb(251,32,36)" transform="translate(0,0)"></path>
<metadata><recraft-signature>{"signed_by": "recraft", "signature_b64": "pcu/slpYXhJg1oFM05/Ap5A4RGCBo+z8PZM8st7wy//yIpeCQ/KUr8s44u2CR1LcLp8bUpNaNrqi0+uMmxmCBw==", "signing_algo": "Ed25519", "generation_timestamp": 1772996204, "identifier": "7386ed5e-09d0-47c5-b177-78dfc200c7e9"}</recraft-signature></metadata></svg>