<svg xmlns="http://www.w3.org/2000/svg" height="512" preserveAspectRatio="none" style="display: block;" version="1.1" viewBox="0 0 2048 2048" width="512">
<path d="M 258.022 566.998 C 275.344 567.689 297.73 567.056 315.374 567.038 L 1791 566.998 L 1791 1455.89 L 258.022 1455.89 L 258.022 566.998 z M 894.014 963.009 L 1689.4 963.009 L 1689.4 666.074 C 1665.48 667.524 1629.35 666.099 1604.1 666.087 L 894.014 666.074 L 894.014 963.009 z M 894.014 1354.99 L 1689.4 1354.99 C 1691.25 1347.35 1689.4 1295.6 1689.4 1284.45 L 1689.4 1061.99 L 894.014 1061.99 L 894.014 1354.99 z M 357.917 1061.99 L 357.936 1259.38 C 357.927 1288.11 356.145 1327.73 357.917 1354.99 L 794.425 1354.99 L 794.425 1061.99 L 357.917 1061.99 z M 373.925 666.074 L 357.917 666.074 L 357.917 963.009 L 781.25 963.009 L 794.425 963.009 L 794.425 666.074 L 373.925 666.074 z" fill="rgb(0,0,0)" transform="translate(0,0)"></path>
<metadata><recraft-signature>{"signed_by": "recraft", "signature_b64": "ZqyLI2fEDPlbcKeYwqO4tTEamIQNNmEIUPNOGn6n4Xdbq7N6XIMdgRw3ZVuMRqne07QhZLIGczEaGjV2ft4fBw==", "signing_algo": "Ed25519", "generation_timestamp": 1772995785, "identifier": "694b00dc-f3a6-4b53-95e2-bfb77790db53"}</recraft-signature></metadata></svg>