<svg xmlns="http://www.w3.org/2000/svg" height="512" preserveAspectRatio="none" style="display: block;" version="1.1" viewBox="0 0 2048 2048" width="512">
<path d="M 1507.61 998.591 C 1567.45 991.944 1624.5 1022.85 1624.67 1089.06 L 1624.86 1271.01 C 1625.06 1290.24 1627.99 1305.53 1621.3 1324.08 C 1599.48 1384.61 1526.51 1409.25 1467.96 1391.69 C 1456.19 1388.16 1445.08 1383.32 1433.42 1379.37 C 1382.29 1393.25 1365.99 1415.64 1308.77 1372.25 C 1271.17 1414.81 1232.27 1405.87 1190.81 1379.37 C 1138.38 1425.09 1072.51 1413.65 1026.49 1364.98 C 988.467 1416.58 938.879 1418.16 891.038 1383.19 C 857.955 1422.49 796.897 1410.86 773.992 1368.69 C 755.129 1384.73 749.322 1393.07 726.575 1403.06 C 700.569 1412.84 675.621 1410.66 651.345 1396.99 C 636.496 1398.46 626.688 1398.09 611.922 1396.99 C 609.883 1397.39 599.911 1402.64 597.017 1403.82 C 556.822 1420 511.975 1409.77 482.965 1377.47 C 456.701 1348.23 457.417 1320.85 457.44 1284.55 L 457.451 1233.47 C 457.462 1163.59 440.152 1052.55 524.954 1027.22 C 528.832 1026.06 538.308 1023.47 542.138 1023.51 C 680.002 1024.97 817.755 1021.21 955.589 1017.17 L 1425.53 1000.62 C 1450.43 999.532 1483.15 997.207 1507.61 998.591 z M 569.548 1221.27 C 589.647 1198.39 660.543 1135.97 670.047 1115.4 C 665.23 1104.08 655.746 1093.26 642.278 1097.75 C 634.466 1100.36 575.49 1164.25 567.171 1174.5 C 570.602 1151.87 574.645 1097.95 545.016 1097.07 C 529.698 1100.8 528.411 1106.31 528.126 1122.29 C 526.865 1193.27 525.708 1265.35 527.462 1336.21 C 527.757 1348.13 560.405 1353.21 563.601 1337.4 C 569.825 1315.47 565.201 1292.21 567.171 1269.72 L 611.438 1312.03 C 620.569 1320.85 630.399 1331.27 640.401 1338.78 C 654.069 1349.05 697.072 1330.93 642.566 1291.5 C 620.351 1268.29 595.004 1240.83 569.548 1221.27 z M 1461.97 1097.07 C 1458.12 1084.08 1457.65 1079.75 1445.27 1073.09 C 1441.42 1073.02 1437.24 1072.84 1433.42 1073.09 C 1429.3 1076.06 1422.3 1080.49 1421.85 1086.03 C 1416.83 1148.1 1419.25 1242.94 1422.49 1304.64 C 1423.28 1319.86 1442.41 1328.18 1453.97 1317.82 C 1464.88 1308.04 1452.1 1216.47 1477.08 1259.8 C 1488.6 1276.16 1512.55 1318.47 1527.74 1325.45 C 1581.96 1327.74 1515.45 1245.76 1507.61 1229.4 C 1511.01 1225.61 1517.99 1217.02 1521.59 1214.17 C 1553.15 1189.24 1588.46 1058.72 1515.82 1067.34 C 1486.89 1072.6 1484.11 1080.47 1461.97 1097.07 z M 1067.67 1166.34 C 1074.95 1199.14 1094.97 1315.5 1111.31 1337.36 C 1125.44 1342.07 1147.77 1347.19 1153.2 1328.97 L 1201.35 1168.83 C 1207.36 1148.93 1217.15 1122.61 1217.59 1102.65 C 1214.82 1088.8 1208.95 1084.24 1194.37 1085.15 C 1168.92 1093.91 1147.4 1218.06 1138.21 1249.47 C 1135.92 1257.26 1133.94 1272.14 1130.77 1278.53 L 1129.69 1278.09 C 1118.36 1218.31 1112.4 1160.52 1094.91 1100.81 C 1091.25 1088.31 1067.93 1082.4 1061.27 1095.25 C 1052.43 1112.34 1064.97 1147.18 1067.67 1166.34 z M 944.479 1282.9 C 927.336 1225.23 924.156 1163.61 907.915 1105.74 C 902.506 1086.46 879.817 1092.13 869.272 1108.12 C 873.2 1129.04 875.542 1148.86 878.643 1169.78 C 886.886 1219.64 898.462 1271.88 913.037 1319.94 C 919.917 1342.62 952.786 1345.52 961.685 1327.46 C 978.175 1294 989.639 1247.73 1000.3 1212.18 L 1017.91 1152 C 1023.06 1134.31 1042.95 1086.58 1004.58 1091.2 C 991.607 1093.23 990.107 1100.81 987.268 1112.64 C 974.794 1164.59 948.565 1230.59 944.479 1282.9 z M 773.992 1091.2 C 767.227 1093.16 765.603 1093.77 759.327 1097.07 C 754.931 1104.72 748.035 1128.72 745.138 1137.96 L 718.662 1224.69 C 714.808 1237.62 685.657 1322.7 689.238 1329.96 C 693.108 1337.82 707.912 1346.02 716.233 1340.4 C 730.499 1330.75 736.096 1298.82 740.515 1282.9 L 770.258 1282.9 C 783.35 1282.4 793.931 1282.97 806.623 1282.9 C 810.81 1304.09 813.377 1335.19 836.048 1340.41 C 851.535 1336.84 859.011 1330.92 855.124 1314.21 C 840.103 1249.62 827.858 1184.29 812.14 1119.9 C 806.737 1097.77 798.048 1089.48 773.992 1091.2 z M 1281.66 1272.92 L 1308.77 1272.92 C 1319.78 1270.88 1331.31 1270.44 1342.51 1269.72 C 1345.44 1351.42 1395.08 1330.68 1390.56 1308.34 C 1377.16 1242.11 1365.68 1174.72 1347.81 1109.52 C 1341.75 1087.45 1333.88 1073.14 1308.77 1079.7 C 1304.34 1080.4 1299.4 1080.62 1296.24 1084.21 C 1286.58 1095.16 1228.39 1304.51 1231.01 1318.53 C 1232.84 1328.27 1245.38 1336.78 1255.12 1334.09 C 1272.44 1329.31 1276.44 1287.14 1281.66 1272.92 z" fill="rgb(0,0,0)" transform="translate(0,0)"></path>
<path d="M 1511.95 1102.65 L 1515.28 1103.5 C 1533.46 1122.52 1507.77 1189.58 1473.05 1198.19 C 1447.59 1201.71 1476.03 1121.77 1511.95 1102.65 z" fill="rgb(0,0,0)" transform="translate(0,0)"></path>
<path d="M 1313.54 1152.63 C 1318.68 1157.5 1329.66 1223.21 1331.59 1234.89 C 1324.88 1234.74 1315.62 1236.64 1308.77 1237.8 C 1301.78 1237.95 1298.62 1236.9 1290.52 1237.8 C 1297.11 1208.55 1304.91 1181.31 1313.54 1152.63 z" fill="rgb(0,0,0)" transform="translate(0,0)"></path>
<path d="M 777.563 1152.63 C 780.831 1155.73 796.334 1234.27 798.555 1244.83 C 788.978 1245.05 779.705 1246.56 770.258 1247.97 C 762.317 1247.51 757.797 1247.18 749.951 1247.97 C 759.248 1216.31 769.103 1184.47 777.563 1152.63 z" fill="rgb(0,0,0)" transform="translate(0,0)"></path>
<path d="M 1526.7 635.077 C 1612.36 627.285 1598.95 716.816 1577.36 770.729 C 1572.81 782.096 1565.12 792.881 1561.18 804.464 C 1566.67 830.17 1594.81 863.464 1592.22 883.074 C 1588.88 908.369 1560.45 904.161 1546.04 875.282 C 1537.55 858.586 1532.7 843.978 1523 826.702 C 1521.42 843.612 1525.62 861.917 1521.18 878.523 C 1515.7 899.038 1490.63 898.163 1484.09 879.225 C 1480.95 870.142 1492.42 700.775 1494.89 681.12 C 1498.01 656.262 1500.33 641.921 1526.7 635.077 z M 1533.95 760.879 C 1538 758.305 1542.51 755.691 1546.04 752.525 C 1552.48 733.885 1563.81 683.988 1533.95 679.729 C 1535.53 708.619 1532.5 733.896 1533.95 760.879 z" fill="rgb(0,0,0)" transform="translate(0,0)"></path>
<path d="M 463.32 641.211 C 475.03 640.239 490.92 641.591 493.818 655.052 C 502.99 697.659 504.114 745.248 507.483 788.425 L 512.199 854.771 C 512.997 866.728 514.235 879.948 513.971 891.856 C 513.512 912.613 477.213 917.443 473.758 894.672 C 471.307 878.518 471.59 862.235 470.138 845.936 C 464.724 845.622 459.808 845.799 454.411 845.936 C 452.716 846.532 443.528 847.707 441.363 847.994 C 440.381 859.541 440.167 896.07 427.031 901.74 C 415.547 906.696 400.664 901.239 396.282 889.26 C 389.236 869.999 430.535 682.045 443.487 655.816 C 447.819 647.045 454.677 644.308 463.32 641.211 z M 454.411 804.464 L 466.835 804.464 C 466.951 794.485 465.843 746.812 463.32 738.996 C 459.741 750.9 449.734 791.221 450.983 802.345 L 452.146 804.233 L 454.411 804.464 z" fill="rgb(0,0,0)" transform="translate(0,0)"></path>
<path d="M 1346.42 639.035 C 1387.97 639.696 1385.19 712.473 1386.95 740.004 L 1391.57 805.136 L 1395.93 854.155 C 1397.03 865.721 1400.82 885.359 1395.03 895.283 C 1390.37 903.265 1374.1 907.849 1366.96 901.287 C 1354.28 889.639 1356.93 862.769 1354.74 845.936 C 1348.98 846.66 1337.87 849.391 1331.59 850.633 L 1319.65 855.14 C 1313.75 869.231 1310.98 911.189 1286.94 902.746 C 1262.79 894.263 1275.52 862.494 1280.48 844.617 C 1298.11 781.105 1304.57 713.473 1326.94 651.496 C 1329.35 644.833 1340.27 640.956 1346.42 639.035 z M 1331.59 808.491 C 1337.51 807.304 1345.36 805.961 1351.04 804.464 C 1351.08 792.614 1351.36 742.873 1347.5 732.596 L 1346.42 731.587 C 1344.06 740.132 1327.51 804.556 1329.46 808.705 L 1331.59 808.491 z" fill="rgb(0,0,0)" transform="translate(0,0)"></path>
<path d="M 594.029 641.211 C 604.863 640.761 622.075 643.357 624.499 656.001 C 636.636 719.309 645.826 821.96 645.458 889.216 C 645.385 902.597 623.01 911.01 612.944 902.112 C 601.902 891.805 604.387 862.326 602.198 847.124 L 602.018 845.936 L 588.24 845.936 L 574.307 845.936 C 571.346 859.434 572.194 878.089 566.547 890.143 C 559.393 905.415 533.621 901.032 528.827 886.088 C 522.283 865.691 562.87 676.924 576.21 653.218 C 580.415 645.746 586.294 643.53 594.029 641.211 z M 588.24 804.464 L 598.667 804.464 C 598.506 790.675 598.126 750.995 594.029 738.996 C 592.115 750.487 577.27 801.705 588.24 804.464 z" fill="rgb(0,0,0)" transform="translate(0,0)"></path>
<path d="M 936.368 635.077 C 959.996 633.682 980.2 661.271 978.636 683.682 C 976.456 714.912 950.984 706.129 935.565 684.446 L 933.943 684.948 C 910.785 721.056 1013.76 806.674 954.778 876.367 C 936.086 898.453 910.083 898.513 888.617 879.046 C 867.879 850.184 869.84 775.66 912.079 786.113 C 936.804 792.231 917.993 821.732 914.595 835.763 C 921.058 863.595 933.119 816.825 923.31 791.984 C 902.079 747.907 873.33 710.833 902.721 659.806 C 911.399 644.738 919.934 639.7 936.368 635.077 z" fill="rgb(0,0,0)" transform="translate(0,0)"></path>
<path d="M 811.316 641.211 C 866.506 636.294 888.324 686.05 827.204 683.019 C 825.218 700.457 822.283 735.07 821.955 752.525 C 829.611 752.789 845.064 752.419 851.131 756.974 C 859.706 763.305 861.887 781.844 854.642 789.492 C 847.948 796.559 826.515 794.544 817.056 794.556 C 816.47 808.608 817.052 833.219 817.056 847.994 C 832.206 844.543 847.708 837.284 862.451 843.367 C 891.793 880.047 814.987 899.194 788.148 891.375 C 764.624 884.521 786.556 695.48 788.427 670.809 C 789.783 653.013 794.259 646.236 811.316 641.211 z" fill="rgb(0,0,0)" transform="translate(0,0)"></path>
<path d="M 1117.82 639.035 C 1145.59 632.809 1172.68 663.071 1146.61 687.493 C 1140.89 687.851 1138.51 687.902 1132.75 687.493 C 1128.89 685.343 1124.13 682.14 1120.31 679.729 C 1105.41 707.066 1082.38 831.691 1117.82 855.14 C 1124.79 842.743 1126.52 840.773 1140.04 835.763 C 1154.92 840.598 1157.18 844.491 1161.67 858.803 C 1160.86 862.357 1159.49 866.439 1158.41 869.966 C 1146.73 897.6 1107.53 902.043 1085.47 884.692 C 1049.87 856.697 1057.56 790.246 1061.31 750.598 C 1064.74 714.473 1071.65 644.719 1117.82 639.035 z" fill="rgb(0,0,0)" transform="translate(0,0)"></path>
<path d="M 1190.81 639.035 C 1201.5 637.421 1218.2 642.741 1218.42 655.362 C 1219.5 718.596 1212.91 782.767 1213 845.936 C 1221.59 845.234 1233.24 843.104 1242.57 841.325 C 1270.41 836.017 1281.55 868.593 1243.26 881.407 C 1158.69 906.296 1170.46 893.93 1172.64 820.818 L 1177.23 691.406 C 1178.02 673.066 1172.63 648.137 1190.81 639.035 z" fill="rgb(0,0,0)" transform="translate(0,0)"></path>
<path d="M 689.826 641.211 C 698.443 640.3 710.949 643.613 711.434 653.758 C 714.325 714.24 706.665 781.079 707.571 843.367 C 733.034 843.278 759.694 826.609 759.327 864.806 C 754.791 869.785 746.392 874.699 740.515 879.046 C 708.525 891.207 669.491 908.382 666.634 862.609 C 665.091 837.895 666.485 666.56 675.074 649.563 C 677.718 644.33 684.668 642.751 689.826 641.211 z" fill="rgb(0,0,0)" transform="translate(0,0)"></path>
<path d="M 1445.27 635.077 C 1454.81 634 1458.73 634.864 1465.98 641.211 C 1474.51 662.818 1461.92 869.535 1457.5 879.365 C 1454.97 884.982 1451.02 888.777 1445.27 890.903 C 1424.59 892.798 1418.54 882.7 1418.31 864.485 C 1417.99 839.44 1427.44 658.34 1433.26 645.031 C 1435.77 639.278 1439.61 637.254 1445.27 635.077 z" fill="rgb(0,0,0)" transform="translate(0,0)"></path>
<path d="M 689.826 553.011 C 699.612 553.946 738.199 555.212 736.645 569.334 C 728.212 575.052 705.289 555.012 675.199 570.619 C 663.369 574.01 661.232 575.398 651.345 582.503 C 633.992 575.072 630.987 565.104 652.444 569.357 C 657.332 570.326 684.74 555.147 689.826 553.011 z" fill="rgb(0,0,0)" transform="translate(0,0)"></path>
<path d="M 1663.11 897.84 C 1675.3 903.201 1659.46 927.766 1654.18 934.435 C 1643.94 933.722 1642.09 942.87 1636.71 951.248 C 1642.23 955.877 1646.53 962.381 1636.71 963.136 C 1631.46 960.007 1626.3 956.752 1621.12 953.516 C 1627.77 945.55 1638.1 940.702 1645.05 931.994 C 1652.69 922.424 1656.36 906.698 1663.11 897.84 z" fill="rgb(0,0,0)" transform="translate(0,0)"></path>
<path d="M 401.486 985.826 C 442.175 988.278 436.568 988.741 417.275 1018.45 C 412.279 1021.61 408.744 1020.52 407.19 1014.69 C 408.414 1009.7 414.086 1003.23 417.275 998.591 C 409.553 996.611 396.796 996.154 401.486 985.826 z" fill="rgb(0,0,0)" transform="translate(0,0)"></path>
<path d="M 1337.14 557.01 C 1342.64 556.764 1363.83 555.313 1357.97 565.507 C 1351.17 569.529 1332.23 568.077 1319.65 570.619 C 1288.28 582.742 1299.23 563.081 1337.14 557.01 z" fill="rgb(0,0,0)" transform="translate(0,0)"></path>
<path d="M 1448.21 553.011 C 1493.95 553.206 1499.8 583.315 1480.56 570.619 C 1460.93 561.698 1426.3 569.818 1434.73 556.514 C 1438.98 553.978 1443.24 553.791 1448.21 553.011 z" fill="rgb(0,0,0)" transform="translate(0,0)"></path>
<path d="M 1190.81 557.01 C 1199.26 557.3 1220.12 555.33 1225.15 561.828 C 1225.72 569.456 1221.02 569.775 1214.91 570.619 C 1205.83 568.92 1183.79 570.223 1178.78 565.771 C 1178.18 558.932 1185.5 558.315 1190.81 557.01 z" fill="rgb(0,0,0)" transform="translate(0,0)"></path>
<path d="M 553.703 566.124 C 570.857 565.276 539.57 592.927 529.583 586.224 C 524.677 583.153 520.704 582.241 520.756 576.126 C 525.733 570.987 531.957 576.659 534.99 575.158 C 541.064 572.151 547.291 568.881 553.703 566.124 z" fill="rgb(0,0,0)" transform="translate(0,0)"></path>
<path d="M 1248.71 570.619 C 1255.21 571.48 1287.37 584.874 1277.67 599.256 C 1275.05 601.281 1243.6 582.227 1248.71 570.619 z" fill="rgb(0,0,0)" transform="translate(0,0)"></path>
<path d="M 1428.48 1461.15 C 1428.85 1461.18 1429.21 1461.21 1429.57 1461.24 C 1449.2 1473.09 1411.89 1480.13 1407.31 1481.34 C 1402.37 1481.19 1399.81 1479.29 1400.54 1473.92 C 1404.2 1468.37 1421.56 1463.6 1428.48 1461.15 z" fill="rgb(0,0,0)" transform="translate(0,0)"></path>
<path d="M 1663.11 652.922 L 1665.04 652.872 C 1678.57 652.61 1681.11 679.923 1680.8 689.716 C 1664.4 693.061 1664.8 667.651 1663.11 652.922 z" fill="rgb(0,0,0)" transform="translate(0,0)"></path>
<path d="M 1124.24 553.011 C 1128.17 553.181 1173.25 556.819 1152.6 566.124 C 1147.81 566.108 1102.08 564.46 1124.24 553.011 z" fill="rgb(0,0,0)" transform="translate(0,0)"></path>
<path d="M 1089.81 560.166 C 1093.35 560.205 1094.03 560.736 1095.96 562.538 L 1095.95 564.718 C 1092.65 569.254 1074.33 578.274 1067.67 582.503 C 1066.9 582.64 1064.53 583.043 1064.07 582.761 C 1047.29 572.52 1085.65 561.479 1089.81 560.166 z" fill="rgb(0,0,0)" transform="translate(0,0)"></path>
<path d="M 319.57 890.903 L 322.613 890.886 C 326.798 894.528 333.072 923.596 330.583 928.609 C 318.098 927.448 311.86 900.312 319.57 890.903 z" fill="rgb(0,0,0)" transform="translate(0,0)"></path>
<path d="M 1613.03 1442.21 C 1615.37 1444.1 1616.24 1447.28 1617.53 1450.28 C 1605.03 1457.84 1597.64 1460.38 1585.38 1466.82 C 1583.7 1465.31 1581.51 1460.53 1580.3 1458.24 C 1590.97 1453.78 1601.83 1447.09 1613.03 1442.21 z" fill="rgb(0,0,0)" transform="translate(0,0)"></path>
<path d="M 878.643 1473.21 C 884.286 1472.75 886.844 1474.04 885.843 1480.38 C 881.759 1486.33 870.327 1487.84 862.451 1490.25 C 835.238 1485.28 869.56 1475.09 878.643 1473.21 z" fill="rgb(0,0,0)" transform="translate(0,0)"></path>
<path d="M 936.368 553.011 C 941.745 553.319 945.189 553.36 947.414 558.639 L 946.178 560.852 C 939.763 564.937 928.479 564.989 920.224 566.124 C 900.951 570.999 902.967 558.355 936.368 553.011 z" fill="rgb(0,0,0)" transform="translate(0,0)"></path>
<path d="M 803.863 557.01 C 812.487 556.683 824.026 555.244 831.071 560.904 L 830.325 563.613 C 826.191 566.088 821.772 565.912 817.056 566.124 C 791.26 569.174 781.598 560.96 803.863 557.01 z" fill="rgb(0,0,0)" transform="translate(0,0)"></path>
<path d="M 1532.1 553.011 C 1558.2 550.688 1569.51 563.299 1550.32 562.99 C 1541.36 562.759 1494.79 560.956 1532.1 553.011 z" fill="rgb(0,0,0)" transform="translate(0,0)"></path>
<path d="M 642.566 1473.21 C 653.257 1472.93 679.415 1473.93 670.047 1490.25 C 660.319 1489.52 639.143 1486.08 642.566 1473.21 z" fill="rgb(0,0,0)" transform="translate(0,0)"></path>
<path d="M 1650.49 778.647 C 1667.09 781.082 1651.41 804.663 1646.78 812.522 L 1644.57 812.759 C 1633.32 807.035 1646.27 786.359 1650.49 778.647 z" fill="rgb(0,0,0)" transform="translate(0,0)"></path>
<path d="M 588.24 557.01 C 593.965 556.506 631.495 553.039 620.999 566.124 C 616.17 566.061 575.257 569.505 588.24 557.01 z" fill="rgb(0,0,0)" transform="translate(0,0)"></path>
<path d="M 1693.28 1032.35 C 1702.21 1034.53 1706.53 1062.29 1695.02 1073.09 C 1692.91 1071 1683.85 1040.25 1693.28 1032.35 z" fill="rgb(0,0,0)" transform="translate(0,0)"></path>
<path d="M 1668.16 717.209 C 1683.96 721.915 1672.21 742.065 1668.16 752.525 C 1651.24 755.761 1666.22 724.69 1668.16 717.209 z" fill="rgb(0,0,0)" transform="translate(0,0)"></path>
<path d="M 473.233 557.01 C 478.568 556.863 514.909 559.439 501.14 570.619 C 495.221 569.637 457.424 569.176 473.233 557.01 z" fill="rgb(0,0,0)" transform="translate(0,0)"></path>
<path d="M 521.59 1481.34 C 534.046 1481.12 554.205 1477.72 553.703 1493.99 C 541.219 1494.04 519.928 1498.22 521.59 1481.34 z" fill="rgb(0,0,0)" transform="translate(0,0)"></path>
<path d="M 1165.9 1473.21 C 1182.58 1472.27 1166.23 1486.74 1146.61 1490.25 C 1129.56 1479.34 1158 1475.38 1165.9 1473.21 z" fill="rgb(0,0,0)" transform="translate(0,0)"></path>
<path d="M 1234.49 1476.25 C 1243.82 1476.41 1271.25 1469.97 1263.75 1486.73 C 1252.73 1489.9 1233.7 1491.73 1234.49 1476.25 z" fill="rgb(0,0,0)" transform="translate(0,0)"></path>
<path d="M 1029.7 1461.15 C 1039.43 1461.06 1061.32 1466.98 1055.25 1481.34 C 1046.38 1480.88 1022.48 1473.1 1029.7 1461.15 z" fill="rgb(0,0,0)" transform="translate(0,0)"></path>
<path d="M 914.595 1473.21 C 923.23 1473.5 947.863 1473.93 944.479 1486.73 C 933.284 1489.72 911.669 1488.81 914.595 1473.21 z" fill="rgb(0,0,0)" transform="translate(0,0)"></path>
<path d="M 969.526 560.166 C 981.393 561.003 1004.85 568.052 1004.58 582.503 C 998.447 582.498 968.208 573.35 969.526 560.166 z" fill="rgb(0,0,0)" transform="translate(0,0)"></path>
<path d="M 466.835 1458.24 C 478.155 1462.48 499.797 1468.07 492.671 1481.34 C 481.728 1478.56 459.712 1471.91 466.835 1458.24 z" fill="rgb(0,0,0)" transform="translate(0,0)"></path>
<path d="M 1632.45 594.365 C 1642.47 597.291 1659.29 616.77 1656.38 627.608 C 1646.43 626.188 1629.6 605.385 1632.45 594.365 z" fill="rgb(0,0,0)" transform="translate(0,0)"></path>
<path d="M 1695.02 1097.07 C 1710.06 1097.72 1703.94 1123.34 1703.49 1136.22 C 1688.68 1138.51 1694.89 1110.91 1695.02 1097.07 z" fill="rgb(0,0,0)" transform="translate(0,0)"></path>
<path d="M 997.517 1466.82 C 1016.79 1469.86 985.206 1484.76 978.291 1486.73 C 958.805 1482.92 993.49 1468.51 997.517 1466.82 z" fill="rgb(0,0,0)" transform="translate(0,0)"></path>
<path d="M 1550.32 1466.82 C 1570.69 1475.96 1524.6 1481.18 1523 1481.34 L 1520.77 1480.04 C 1518.27 1467.73 1541.86 1468.75 1550.32 1466.82 z" fill="rgb(0,0,0)" transform="translate(0,0)"></path>
<path d="M 1401.63 566.124 C 1419.38 567.65 1399.81 585.156 1389.57 582.503 C 1362.4 566.939 1392.2 571.584 1401.63 566.124 z" fill="rgb(0,0,0)" transform="translate(0,0)"></path>
<path d="M 1084.14 1476.25 C 1093.21 1476.75 1116.05 1476.89 1111.31 1490.25 C 1098.66 1491.59 1080.51 1493.24 1084.14 1476.25 z" fill="rgb(0,0,0)" transform="translate(0,0)"></path>
<path d="M 343.727 951.248 C 351.272 953.516 375.644 968.523 371.081 979.902 C 362.696 978.036 338.447 963.927 343.727 951.248 z" fill="rgb(0,0,0)" transform="translate(0,0)"></path>
<path d="M 417.275 1417.49 C 424.325 1418.12 445.256 1437.21 441.363 1447.16 C 430.793 1446.74 413.933 1428.9 417.275 1417.49 z" fill="rgb(0,0,0)" transform="translate(0,0)"></path>
<path d="M 1308.77 1461.15 C 1329.16 1458.92 1318.85 1471.65 1299.14 1476.25 C 1288.64 1481.16 1284.22 1468.84 1308.77 1461.15 z" fill="rgb(0,0,0)" transform="translate(0,0)"></path>
<path d="M 1342.51 1466.82 C 1350.45 1468.19 1378.43 1468.79 1372.07 1481.34 C 1360.5 1484.61 1340.77 1481.99 1342.51 1466.82 z" fill="rgb(0,0,0)" transform="translate(0,0)"></path>
<path d="M 803.863 1473.21 C 814.863 1474.82 832.678 1475.67 827.204 1490.25 C 817.934 1490.39 796.38 1485.62 803.863 1473.21 z" fill="rgb(0,0,0)" transform="translate(0,0)"></path>
<path d="M 1658.87 979.902 C 1671.17 979.338 1684.97 998.752 1683.55 1009.95 C 1672.56 1011.07 1659.5 988.714 1658.87 979.902 z" fill="rgb(0,0,0)" transform="translate(0,0)"></path>
<path d="M 607.529 1478.65 L 609.482 1478.23 C 629.221 1484.69 593.925 1490.13 588.24 1490.25 L 585.959 1490.77 C 582.276 1489.73 583.484 1490.79 581.703 1488.15 L 582.195 1485.63 C 587.303 1479.76 599.876 1479.3 607.529 1478.65 z" fill="rgb(0,0,0)" transform="translate(0,0)"></path>
<path d="M 1687.85 1353.01 C 1700.99 1359.27 1687.49 1380.25 1680.8 1387.35 C 1668.18 1381.33 1682.66 1363.62 1687.85 1353.01 z" fill="rgb(0,0,0)" transform="translate(0,0)"></path>
<path d="M 857.658 562.99 C 866.464 563.588 892.734 570.355 888.617 582.503 C 881.172 582.022 850.37 575.783 857.658 562.99 z" fill="rgb(0,0,0)" transform="translate(0,0)"></path>
<path d="M 374.026 1174.5 C 389.513 1174.88 383.432 1197.81 383.452 1208.75 C 367.705 1209.39 373.321 1187.51 374.026 1174.5 z" fill="rgb(0,0,0)" transform="translate(0,0)"></path>
<path d="M 1656.38 835.763 C 1672.04 835.027 1671.7 859.582 1668.16 869.966 C 1659.6 869.772 1657.1 843.299 1656.38 835.763 z" fill="rgb(0,0,0)" transform="translate(0,0)"></path>
<path d="M 726.575 1476.25 L 728.421 1476.58 C 738.037 1489.95 714.57 1490.04 707.571 1490.25 C 703.902 1489.71 701.88 1489.29 699.945 1486.13 L 700.56 1484.37 C 705.274 1479.24 719.347 1477.67 726.575 1476.25 z" fill="rgb(0,0,0)" transform="translate(0,0)"></path>
<path d="M 343.727 707.833 L 347.57 708.11 C 353.828 713.113 346.857 733.125 343.727 738.996 C 328.996 738.815 339.231 714.333 343.727 707.833 z" fill="rgb(0,0,0)" transform="translate(0,0)"></path>
<path d="M 1469.95 1466.82 C 1478.88 1468.81 1502.11 1467.69 1494.96 1481.34 C 1486.67 1484.93 1466.14 1480.64 1469.95 1466.82 z" fill="rgb(0,0,0)" transform="translate(0,0)"></path>
<path d="M 1695.02 1291.5 C 1711.18 1293.81 1705.24 1317.35 1701.35 1328.29 C 1688.48 1326.73 1695.35 1304.33 1695.02 1291.5 z" fill="rgb(0,0,0)" transform="translate(0,0)"></path>
<path d="M 1695.02 1162.91 L 1700.08 1164.23 C 1705.52 1169.25 1704.54 1195.45 1701.35 1201.44 C 1689.78 1200.06 1694.06 1172.35 1695.02 1162.91 z" fill="rgb(0,0,0)" transform="translate(0,0)"></path>
<path d="M 1585.38 562.99 C 1596.72 566.277 1616.79 571.346 1613.03 586.224 C 1601.83 581.725 1578.71 575.024 1585.38 562.99 z" fill="rgb(0,0,0)" transform="translate(0,0)"></path>
<path d="M 377.767 1108.12 C 390.431 1110.68 385.072 1131.01 383.452 1141.59 L 378.548 1141.41 C 371.425 1136.68 374.151 1114.8 377.767 1108.12 z" fill="rgb(0,0,0)" transform="translate(0,0)"></path>
<path d="M 433.637 566.124 C 457.098 564.056 420.764 581.137 417.275 582.503 L 413.448 582.937 C 397.75 575.651 428.751 567.708 433.637 566.124 z" fill="rgb(0,0,0)" transform="translate(0,0)"></path>
<path d="M 393.415 1044.42 C 402.706 1049.2 392.692 1072.47 389.086 1079.7 C 373.666 1075.05 387.412 1052.04 393.415 1044.42 z" fill="rgb(0,0,0)" transform="translate(0,0)"></path>
<path d="M 330.583 766.375 L 335.516 767.256 C 342.736 773.805 335.229 791.771 330.583 798.522 C 318.82 797.987 328.36 772.68 330.583 766.375 z" fill="rgb(0,0,0)" transform="translate(0,0)"></path>
<path d="M 1695.02 1229.4 C 1708.85 1231.4 1705.98 1255.49 1703.49 1265.69 C 1691.67 1266.1 1693.47 1237.12 1695.02 1229.4 z" fill="rgb(0,0,0)" transform="translate(0,0)"></path>
<path d="M 319.57 826.702 C 335.071 826.99 327.412 849.685 323.254 858.803 C 309.655 856.207 317.865 836.042 319.57 826.702 z" fill="rgb(0,0,0)" transform="translate(0,0)"></path>
<path d="M 377.767 1237.8 C 386.889 1241.68 384.459 1266.81 377.767 1272.92 L 373.883 1271.84 C 370.693 1266.2 372.924 1242.36 377.767 1237.8 z" fill="rgb(0,0,0)" transform="translate(0,0)"></path>
<path d="M 1656.38 1406.82 C 1669.83 1413.28 1648.42 1427.47 1642.06 1431.99 C 1628.5 1423.21 1649.02 1412.33 1656.38 1406.82 z" fill="rgb(0,0,0)" transform="translate(0,0)"></path>
<path d="M 356.648 647.432 L 360.602 648.255 C 366.367 654.183 360.189 673.626 356.648 679.729 C 343.079 673.098 351.524 658.14 356.648 647.432 z" fill="rgb(0,0,0)" transform="translate(0,0)"></path>
<path d="M 383.452 599.256 C 397.179 601.565 379.348 619.089 374.026 627.608 C 359.405 619.585 375.93 605.858 383.452 599.256 z" fill="rgb(0,0,0)" transform="translate(0,0)"></path>
<path d="M 374.026 1304.37 C 388.093 1304.43 385.861 1327.78 383.452 1337.36 C 371.422 1337.2 373.403 1312.95 374.026 1304.37 z" fill="rgb(0,0,0)" transform="translate(0,0)"></path>
<path d="M 1036.79 590.591 C 1048.96 587.099 1037.77 608.582 1029.7 606.648 C 1014.26 593.406 1020.57 591.294 1036.79 590.591 z" fill="rgb(0,0,0)" transform="translate(0,0)"></path>
<path d="M 389.086 1364.98 C 394.984 1366.01 407.446 1387.49 401.486 1396.99 L 398.451 1396.24 C 392.114 1391.4 383.125 1372.32 389.086 1364.98 z" fill="rgb(0,0,0)" transform="translate(0,0)"></path>
<path d="M 1190.81 1466.82 C 1201.55 1466.51 1220.01 1474.44 1201.92 1478.65 C 1195.24 1477.98 1166.2 1473.89 1190.81 1466.82 z" fill="rgb(0,0,0)" transform="translate(0,0)"></path>
<path d="M 770.258 1458.24 C 785.164 1465.75 767.32 1474.91 759.327 1478.65 C 744.685 1472.35 764.284 1462.12 770.258 1458.24 z" fill="rgb(0,0,0)" transform="translate(0,0)"></path>
<path d="M 746.787 575.824 C 753.29 575.907 777.304 575.48 766.65 586.224 C 757.286 592.361 748.364 587.032 746.787 575.824 z" fill="rgb(0,0,0)" transform="translate(0,0)"></path>
<metadata><recraft-signature>{"signed_by": "recraft", "signature_b64": "7vwneMulPhFgFsq75GkoC9ugs9stBBUK0rDMLK/WtRamtp3zTQ+UY0PdE5mIaBd/GJ9mWgUWAwhQGiTSHIxZCw==", "signing_algo": "Ed25519", "generation_timestamp": 1772995916, "identifier": "32ba215a-9428-4fb0-a8f1-ed5f1f56432d"}</recraft-signature></metadata></svg>