<svg xmlns="http://www.w3.org/2000/svg" height="512" preserveAspectRatio="none" style="display: block;" version="1.1" viewBox="0 0 2048 2048" width="512">
<path d="M 643.107 317.495 L 1659.49 317.309 C 1740.77 317.548 1728.97 410.593 1728.9 466.114 L 1728.92 1590.22 C 1728.92 1639.49 1741.53 1731.33 1664.25 1726.25 L 1663.36 1726.31 C 1610.23 1729.43 1600.32 1683.7 1600.44 1643.52 L 1600.53 484.431 C 1600.61 471.867 1601.19 458.627 1600.49 446.19 L 1598.64 446.3 C 1582.02 447.215 1555.15 446.244 1537.51 446.224 L 671.541 446.196 C 646.197 446.193 614.714 449.859 596.767 430.141 C 554.699 383.925 580.395 319.779 643.107 317.495 z" fill="rgb(0,0,0)" transform="translate(0,0)"></path>
<path d="M 372.15 581.162 C 441.322 575.794 446.333 626.458 446.235 679.509 L 446.192 1532.79 C 446.187 1554.06 446.786 1577.1 446.18 1598.18 C 461.359 1599.4 496.024 1598.22 513.013 1598.21 L 1217.41 1598.13 C 1239.18 1598.12 1260.18 1597.8 1282.3 1598.89 C 1353.7 1602.44 1366.39 1708.35 1288.38 1726.25 L 415.244 1726.31 C 376.299 1726.54 336.983 1728.19 323.353 1682.55 C 317.803 1663.97 320.553 1593.52 320.565 1569.07 L 320.575 729.174 C 320.513 669.89 303.318 601.085 372.15 581.162 z" fill="rgb(0,0,0)" transform="translate(0,0)"></path>
<metadata><recraft-signature>{"signed_by": "recraft", "signature_b64": "boL8FAgShG+Xp+pTjTB+56jclqXY4woDGpEZuu9ZI1GMd4sZurg47kqTM94b848MRQ8O1jpHvAGZpuuCiyo5DA==", "signing_algo": "Ed25519", "generation_timestamp": 1772999146, "identifier": "8306e512-d560-4e1d-aaad-b5380523b9fc"}</recraft-signature></metadata></svg>