<svg xmlns="http://www.w3.org/2000/svg" height="512" preserveAspectRatio="none" style="display: block;" version="1.1" viewBox="0 0 2048 2048" width="512">
<path d="M 555.888 605.001 C 595.273 604.999 622.406 617.718 650.184 643.758 C 691.296 678.851 767.373 680.427 810.581 649.318 C 836.044 630.986 912.345 630.134 937.98 649.318 C 973.092 676.274 1016.36 668.271 1057.53 668.837 C 1078.15 669.056 1092.51 655.099 1109.37 647.503 C 1189.92 611.209 1281.69 663.094 1304.31 745.745 C 1308.58 761.351 1309.6 781.42 1311.29 797.106 L 1340.38 1047.37 C 1348.62 1115.49 1371.48 1188.96 1316.56 1242.33 C 1274.25 1283.44 1237.84 1279.9 1183.25 1279.9 L 317.699 1279.9 L 445.201 744.676 C 464.002 669.998 470.1 624.126 555.888 605.001 z" fill="rgb(0,0,0)" transform="translate(0,0)"></path>
<path d="M 582.375 1344.44 L 1796.06 1344.44 C 1742.86 1478.8 1607.93 1537.05 1471.8 1537.04 L 624.775 1537.07 C 518.629 1537.11 439.144 1542.28 348.965 1470.07 C 313.814 1441.93 270.548 1388.16 257.727 1344.44 L 582.375 1344.44 z" fill="rgb(0,0,0)" transform="translate(0,0)"></path>
<path d="M 1471.8 605.001 C 1558.21 597.662 1582.32 662.259 1599.53 731.975 L 1624.02 832.767 C 1661 981.242 1696.52 1130.47 1729.55 1279.9 C 1721.65 1279.25 1705.44 1279.79 1696.85 1279.8 L 1629.5 1279.9 C 1467.49 1280.27 1432.04 1268.67 1411.93 1101.71 L 1389.78 905.354 C 1385.45 866.832 1367.32 755.334 1371.13 720.435 C 1377.82 659.249 1410.72 614.72 1471.8 605.001 z" fill="rgb(0,0,0)" transform="translate(0,0)"></path>
<metadata><recraft-signature>{"signed_by": "recraft", "signature_b64": "8EJYTmxQw1SEekTnVpDR1w8MRf6DwAugXxwfGyMG7YClAYlvWE+RskigAknabK3lPoC1UcBw2K1sjiPdq8rBBQ==", "signing_algo": "Ed25519", "generation_timestamp": 1772996022, "identifier": "eeaa807b-f3ef-49e4-8bca-a66c11ec52ad"}</recraft-signature></metadata></svg>