<svg xmlns="http://www.w3.org/2000/svg" height="512" preserveAspectRatio="none" style="display: block;" version="1.1" viewBox="0 0 2048 2048" width="512">
<path d="M 1395.5 300.85 L 1669.4 300.336 C 1745.14 299.612 1746.98 345.902 1747.01 407.494 L 1747.29 1672.94 C 1747.36 1738.42 1704.76 1747.03 1650.25 1747.02 L 650.5 1746.99 L 370.417 1746.9 C 299.831 1746.73 300.034 1687.68 300.006 1637.87 L 299.96 415.955 C 299.888 328.272 304.393 300.861 395.387 300.83 L 1395.5 300.85 z M 425.743 1623.67 L 1622.52 1623.67 C 1623.34 1613.75 1622.71 1596.93 1622.64 1586.61 L 1622.51 521.643 C 1622.51 490.713 1621.7 455.621 1622.52 424.995 L 425.743 424.995 L 425.743 1623.67 z" fill="rgb(0,0,0)" transform="translate(0,0)"></path>
<path d="M 1038.08 597.806 C 1059.28 596.19 1088.45 597.819 1110.35 597.812 L 1348.99 597.834 C 1391.2 597.637 1446.92 594.512 1446.96 656.827 C 1446.99 722.396 1451.35 802.294 1445.95 866.809 C 1443.45 895.736 1402.88 927.053 1375.11 916.665 C 1365.14 913.253 1355.02 906.247 1345.16 902.981 C 1227.15 863.891 1127.69 1024.49 1230.94 1118.02 C 1256.67 1142.99 1309.76 1155.8 1343.7 1142.29 C 1445.69 1101.68 1447.39 1160.81 1447.07 1242.14 L 1447.58 1384.02 C 1448.17 1462.86 1358.98 1448 1304.98 1448 L 1117.5 1447.98 C 1070.96 1448.03 991.547 1462.29 980.471 1400.54 C 974.417 1366.79 994.85 1356.68 1011.2 1333.17 C 1082.14 1231.12 958.325 1086.83 841.498 1155.43 C 824.063 1166.56 809.21 1184.06 787.565 1187.18 C 647.581 1207.31 552.484 1047.53 631.947 928.192 C 668.348 873.525 750.867 837.478 812.618 868.261 C 820.361 872.195 830.688 884.076 838.912 888.97 C 954.541 957.791 1078.55 821.259 1013.54 719.394 C 1003.87 704.25 986.638 695.996 983.749 676.466 C 975.978 639.188 1001.02 605.245 1038.08 597.806 z" fill="rgb(0,0,0)" transform="translate(0,0)"></path>
<metadata><recraft-signature>{"signed_by": "recraft", "signature_b64": "aayJhxMYFstWZJsGfcm4HgalpoPv+Cg1TTcPSXiDSzQbqsmbsWtfWS0qUXYt7u83qq21MTP1FHQjuB6870lyCw==", "signing_algo": "Ed25519", "generation_timestamp": 1772989576, "identifier": "2be1b333-5067-4a32-9614-2c62b81568af"}</recraft-signature></metadata></svg>