<svg xmlns="http://www.w3.org/2000/svg" height="512" preserveAspectRatio="none" style="display: block;" version="1.1" viewBox="0 0 2048 2048" width="512">
<path d="M 1377.15 214.6 C 1435.31 207.717 1495.05 255.563 1495.01 315.434 L 1495.01 1682 C 1495.01 1728.52 1498.64 1762.86 1463.3 1799.63 C 1403.28 1862.06 1295.69 1824.82 1281.79 1741.56 C 1277.78 1717.54 1279.07 1692.79 1279.09 1668.45 L 1279.14 1202.84 C 1217.05 1246.7 1153.26 1288.39 1090.72 1331.5 L 690.396 1607.5 C 637.799 1641.71 594.536 1685.86 527.481 1651.06 C 459.222 1615.63 470.101 1553.72 470.162 1488.87 L 470.122 541.523 C 470.11 506.856 465.682 462.089 482.013 431.205 C 504.611 388.473 562.722 361.579 609.077 381.538 C 633.7 395.124 661.433 415.721 684.681 432.183 L 1255.23 826.186 C 1260.56 829.856 1272.12 838.152 1277.45 840.951 L 1279.14 841.819 L 1279.1 374.054 C 1279.1 301.317 1285.03 223.54 1377.15 214.6 z M 681.082 1355.18 C 696.311 1347.07 709.46 1337.63 723.735 1327.99 L 787.28 1284.65 C 849.218 1242.34 911.293 1200.55 972.5 1157.14 L 1110.75 1062.17 C 1129.8 1048.97 1151.78 1034.81 1170.11 1021.09 L 723.94 714.864 C 715.474 709.154 688.232 690.003 681.082 686.383 L 681.082 1355.18 z" fill="rgb(0,0,0)" transform="translate(0,0)"></path>
<metadata><recraft-signature>{"signed_by": "recraft", "signature_b64": "WzOfT89MUZqdQV6OP95INGkPrlLOP15Mhhkl84wcEJRbLTjymOoRA7iX8F/DLTRzUG69Fbu20Qp6szhC7nTxAw==", "signing_algo": "Ed25519", "generation_timestamp": 1772997097, "identifier": "b1d08106-b130-4110-858d-aeea768a4e43"}</recraft-signature></metadata></svg>