<svg xmlns="http://www.w3.org/2000/svg" height="512" preserveAspectRatio="none" style="display: block;" version="1.1" viewBox="0 0 2048 2048" width="512">
<path d="M 1408.73 300.97 C 1581.96 287.892 1741.85 420.485 1743.42 596.035 L 1743.5 683.006 C 1743.55 837.659 1713.25 876.992 1555.75 877.005 L 1469.75 876.958 C 1454.68 876.172 1433.94 876.896 1418.3 876.915 L 1317.15 877.005 C 1269.74 877.023 1227.23 880.402 1187.78 850.384 C 1122.6 800.788 1137.36 743.168 1134.74 673.302 C 1135.02 576.37 1129.53 506.719 1194.46 422.369 C 1249.11 351.365 1320.29 312.525 1408.73 300.97 z M 1270 742.96 L 1454.75 742.96 C 1505 742.951 1559.71 741.796 1609.56 742.96 C 1608.98 696.695 1610.19 650.344 1609.33 604.075 C 1607.53 506.731 1525.63 429.278 1428.13 434.797 C 1425.5 434.945 1427.56 434.673 1425.51 434.996 C 1349.95 446.185 1288.33 489.475 1272.69 569.01 C 1268.48 590.417 1269.92 618.952 1269.93 641.215 L 1270 742.96 z" fill="rgb(0,0,0)" transform="translate(0,0)"></path>
<path d="M 430.87 360.993 C 430.972 360.985 431.073 360.977 431.174 360.968 L 697.825 360.935 C 853.886 360.912 858.183 437.056 858.019 575.267 L 858.232 744.944 C 858.667 815.479 808.043 876.555 735.667 876.958 C 717.933 878.091 692.38 877.008 673.794 876.987 L 473.354 877.184 C 347.37 878.461 305.864 845.648 305.99 715.295 L 305.921 532.435 C 305.538 442.269 322.621 375.146 430.87 360.993 z M 438.999 742.96 L 723.018 742.96 L 723.018 496.006 L 468.075 496.046 C 460.628 496.06 445.855 496.572 438.999 496.006 C 438.195 503.258 438.771 516.928 438.859 524.662 L 438.999 742.96 z" fill="rgb(0,0,0)" transform="translate(0,0)"></path>
<path d="M 1340.73 979.522 C 1363.34 979.665 1383.71 979.792 1406.41 982.39 C 1574.73 1001.65 1714.05 1140.05 1739.26 1306.88 C 1770.59 1514.34 1624.19 1710.92 1415.49 1739.26 C 1208.84 1767.33 1017.55 1612.27 986.738 1408.66 C 979.397 1360.15 987.185 1310.14 1044.49 1302.56 L 1045.75 1302.4 C 1109.53 1296.69 1115.91 1348.7 1122.29 1395.5 C 1141.12 1529.55 1265.49 1622.99 1399.23 1604.02 C 1532.68 1586.74 1630.85 1457.55 1608.24 1324.05 C 1577.52 1142.7 1358.1 1047.45 1211.83 1167.95 C 1117.61 1245.57 1064.21 1132.13 1107.27 1083.68 C 1166.43 1017.13 1254.88 988.801 1340.73 979.522 z" fill="rgb(0,0,0)" transform="translate(0,0)"></path>
<path d="M 550.428 1266 C 641.413 1260.98 730.56 1286.92 804.749 1339.67 C 817.436 1348.69 835.226 1359.15 843.979 1372.32 C 885.156 1434.3 820.868 1504.85 755.467 1470.34 C 698.677 1437.18 685.226 1413.09 608.314 1401.63 C 545.555 1395.07 488.715 1408.25 436.723 1446.05 C 417.679 1459.94 404.644 1474.71 379.862 1477.36 C 335.647 1482.06 297.544 1443.94 303.576 1399.38 C 309.449 1356 362.956 1326.73 398.482 1307.87 C 447.958 1281.61 495.042 1271.42 550.428 1266 z" fill="rgb(0,0,0)" transform="translate(0,0)"></path>
<metadata><recraft-signature>{"signed_by": "recraft", "signature_b64": "yrYkhNztRy8+G23JCkQ2lA5LwoaTGHJm1bNt+PjxHjd68XNUWcbMiJEI3PswjEKkv6yohlbdiE+wB/869bhFCQ==", "signing_algo": "Ed25519", "generation_timestamp": 1772989475, "identifier": "d1f0871a-69d0-4b63-a8d1-cc193fcb4177"}</recraft-signature></metadata></svg>