<svg xmlns="http://www.w3.org/2000/svg" height="512" preserveAspectRatio="none" style="display: block;" version="1.1" viewBox="0 0 2048 2048" width="512">
<path d="M 920.869 222.997 C 1017.13 212.321 1109.17 283.233 1125.19 378.379 C 1129.45 403.669 1127.06 439.302 1127.03 465.748 L 1127 1221.19 C 1134.91 1225.8 1140.64 1229.89 1147.54 1235.92 C 1369.46 1429.73 1261.46 1800.16 958.748 1821.72 C 648.129 1834.76 493.186 1453.33 717.146 1249.17 C 727.888 1239.38 738.574 1229.16 751.026 1221.19 L 750.994 414.155 C 751.046 310.838 821.283 239.42 920.869 222.997 z M 890.419 1305.8 C 675.367 1374.88 726.414 1688.48 947.751 1685.92 C 1124.35 1674.1 1192.85 1461.44 1060.98 1346.11 C 1040.94 1328.58 1013.02 1316.7 988.815 1305.8 L 988.832 444.228 C 988.82 404.449 988.467 359.056 931.521 362.136 C 873.985 374.307 890.681 463.136 890.497 513.995 L 890.419 1305.8 z" fill="rgb(0,0,0)" transform="translate(0,0)"></path>
<path d="M 1258.03 943.875 L 1321.62 943.813 C 1337.86 943.731 1367.43 942.033 1382.51 946.506 C 1435.12 962.109 1450.14 1027.72 1412.31 1067.25 C 1386.4 1092.93 1353.58 1088.34 1319.99 1088.18 L 1258.03 1088.09 L 1258.03 943.875 z" fill="rgb(0,0,0)" transform="translate(0,0)"></path>
<path d="M 1258.03 709.141 C 1293.8 709.46 1329.88 708.288 1365.56 709.505 C 1428.08 711.64 1453.68 778.945 1412.31 829.43 C 1376.59 862.988 1305.35 850.11 1258.03 850.352 C 1254.94 809.121 1256.8 750.64 1258.03 709.141 z" fill="rgb(0,0,0)" transform="translate(0,0)"></path>
<path d="M 1258.03 473.997 L 1323.77 473.907 C 1339.46 473.796 1367.06 471.759 1381.26 475.953 C 1434.76 491.755 1450.88 551.574 1412.31 592.922 C 1374.86 627.551 1307.14 614.198 1258.03 614.51 L 1258.03 473.997 z" fill="rgb(0,0,0)" transform="translate(0,0)"></path>
<metadata><recraft-signature>{"signed_by": "recraft", "signature_b64": "v1D+YtUEO7AdwD1mOlCSrsHDOyLgw1P2O2VTOQWfCehV5eE5y+sACftNG1et6ZQqEQsa0XhCQbd4hZPuY82aAQ==", "signing_algo": "Ed25519", "generation_timestamp": 1772989876, "identifier": "0d75bfb2-d169-42a1-b21e-90c437ccd87f"}</recraft-signature></metadata></svg>