<svg xmlns="http://www.w3.org/2000/svg" height="512" preserveAspectRatio="none" style="display: block;" version="1.1" viewBox="0 0 2048 2048" width="512">
<path d="M 1181.38 290.522 L 1654.52 290.47 C 1695.53 290.352 1766 284.261 1765.43 348.08 L 1765.14 1643.92 C 1765.15 1718.88 1768.43 1757.08 1681.47 1757.04 L 871.5 1756.99 L 390.268 1757.05 C 314.574 1757.08 285.512 1755.93 285.519 1671.2 L 285.352 827.974 C 284.762 753.35 322.285 743.792 387.989 743.858 L 707.563 743.914 L 707.525 388.73 C 707.49 304.692 716.423 290.353 801.939 290.466 L 1181.38 290.522 z M 846.773 428.791 C 845.806 443.449 846.627 461.997 846.72 477.005 L 846.773 1618.54 C 893.099 1619.6 943.468 1616.89 989.115 1618.54 L 989.087 1429.74 C 989.083 1398.24 988.449 1364.88 989.115 1333.62 C 1013.32 1334.14 1038.79 1333.58 1063.11 1333.62 L 1399.49 1333.62 L 1399.49 1618.54 C 1472.53 1618.52 1550.42 1617.04 1623.04 1618.54 L 1623.04 428.791 C 1599.53 428.078 1574.8 428.805 1551.07 428.8 L 1403.76 428.791 L 1031.79 428.808 C 971.225 428.812 907.015 430 846.773 428.791 z M 1130.34 1473.98 C 1129.68 1521.97 1131.07 1570.62 1130.34 1618.54 L 1219.51 1618.47 C 1229.94 1618.46 1253.25 1617.74 1262.93 1618.54 L 1262.93 1473.98 L 1130.34 1473.98 z M 423.997 881.478 L 423.997 1618.54 C 451.969 1619.3 482.478 1618.51 510.75 1618.54 L 702.002 1618.54 C 701.856 1580.41 707.522 1547.32 707.565 1510.03 L 707.581 1080.55 C 707.581 1014.77 706.771 947.142 707.563 881.478 C 678.623 881.096 649.472 881.53 620.499 881.478 L 423.997 881.478 z" fill="rgb(0,0,0)" transform="translate(0,0)"></path>
<path d="M 1136.1 881.478 C 1145.4 880.72 1163.83 881.372 1174 881.404 L 1495.49 881.478 C 1496.39 927.546 1495.43 976.191 1495.49 1022.5 L 1264 1022.51 C 1222.14 1022.5 1177.62 1023.39 1136.1 1022.5 C 1135.53 975.913 1136.07 928.157 1136.1 881.478 z" fill="rgb(0,0,0)" transform="translate(0,0)"></path>
<path d="M 1143.29 605.103 C 1225.98 603.559 1313.57 605.097 1396.65 605.11 L 1460.43 605.143 C 1471.41 605.168 1484.82 605.714 1495.49 605.103 C 1495.24 618.202 1496.74 740 1494.02 745.596 L 1489.08 746.059 L 1136.1 746.059 C 1134.94 710.931 1132.93 639.885 1137.32 606.525 C 1139.27 604.899 1140.19 605.39 1143.29 605.103 z" fill="rgb(0,0,0)" transform="translate(0,0)"></path>
<metadata><recraft-signature>{"signed_by": "recraft", "signature_b64": "Qr5v/gAqFLl6Anqqtmwco+qHLVFTnj1IXywJ+8HwHC1Ps2ZTLFuR6u1xUTL3MyIdPH7laXK5QgGDcZOCEOxNDA==", "signing_algo": "Ed25519", "generation_timestamp": 1772998111, "identifier": "0d350518-5798-437c-bdc4-3f6333db057d"}</recraft-signature></metadata></svg>