<svg xmlns="http://www.w3.org/2000/svg" height="512" preserveAspectRatio="none" style="display: block;" version="1.1" viewBox="0 0 2048 2048" width="512">
<path d="M 703.001 343.002 C 758.23 335.783 859.669 353.322 912.833 371.901 C 953.438 386.09 986.396 400.745 1031.61 402.988 C 1071.83 404.985 1090.76 387.219 1128.46 379.302 C 1307.72 335.753 1514.19 308.844 1661.63 446.468 C 1780.95 557.838 1750.41 782.302 1562.29 782.996 C 1521.68 807.464 1480.28 827.922 1440.76 855.038 C 1295.09 954.997 1192.67 1110.23 1177.13 1288.01 C 1168.78 1397.27 1161.54 1480.32 1126.5 1588.12 C 1110.48 1634.66 1076.12 1721.48 1047.99 1763.23 C 976.096 1869.91 811.984 1854.36 773.494 1727.34 C 752.282 1657.33 786.21 1588.24 792.561 1518.27 C 809.655 1329.94 755.765 923.45 564.257 822.497 C 484.094 780.24 423.14 814.817 353.405 730.579 C 322.716 693.508 310.695 642.668 315.237 595.331 C 330.026 441.218 500.027 364.288 635.181 346.763 C 657.511 343.868 680.495 340.812 703.001 343.002 z M 742.616 621.539 C 785.581 643.662 807.876 672.544 845.091 694.301 C 937.028 748.048 1067.71 743.099 1167.25 714.825 C 1255.18 689.033 1301.01 625.281 1404.04 632.572 C 1475.62 636.023 1538.9 696.487 1583.02 682.851 C 1690.81 649.537 1587.46 418.087 1356.95 434.983 C 1281.14 444.301 1211.67 455.981 1138.85 482.129 C 985.017 537.368 961.011 483.459 816.681 453.242 C 710.649 431.043 525.769 453.537 453.07 543.42 C 430.903 570.825 410.785 617.553 445.075 644.13 C 520.443 702.548 599.049 549.858 742.616 621.539 z M 916.507 1729.62 C 954.528 1720.49 967.768 1681.78 983.247 1649.82 C 1055.76 1500.11 1052.44 1407.03 1072.14 1252.67 C 1065.1 1260.81 1060.45 1272.46 1054.07 1281.41 C 1020.63 1328.33 974.61 1347.3 926.188 1308.84 C 910.778 1296.6 904.228 1283.44 892.86 1268.92 C 898.055 1391.71 916.976 1474.81 887.073 1605.36 C 876.625 1650.97 854.199 1711.74 916.507 1729.62 z" fill="rgb(0,0,0)" transform="translate(0,0)"></path>
<path d="M 549.593 683.699 C 603.049 655.956 643.158 632.447 704.11 652.371 C 817.068 689.296 855.749 800.542 885.082 903.607 C 886.217 907.593 890.023 917.904 892.59 920.656 L 894.234 920.53 C 911.199 888.564 875.338 778.304 861.719 745.553 C 940.587 778.266 1025.15 781.289 1108.64 769.472 C 1078.77 810.66 1036.91 883.244 1038.54 934.771 L 1039.54 933.679 C 1051.22 920.863 1062.26 896.764 1071.91 880.946 C 1097.89 837.687 1144.51 764.546 1194.1 748.58 C 1254.91 729.003 1301.56 679.976 1369.47 679.286 C 1409.86 678.876 1453.16 680.297 1488.85 702.862 C 1274.9 810.63 1110.79 991.949 1075.05 1236.65 C 1074.44 1240.85 1073.34 1248.78 1072.14 1252.67 C 1065.1 1260.81 1060.45 1272.46 1054.07 1281.41 C 1020.63 1328.33 974.61 1347.3 926.188 1308.84 C 910.778 1296.6 904.228 1283.44 892.86 1268.92 C 888.465 1249.21 884.79 1219.29 880.546 1197.49 C 841.371 984.616 760.645 782.082 545.455 694.156 L 535.707 690.208 L 549.593 683.699 z" fill="rgb(254,207,138)" transform="translate(0,0)"></path>
<path d="M 535.707 690.208 L 549.593 683.699 C 553.222 691.01 554.804 691.952 545.455 694.156 L 535.707 690.208 z" fill="rgb(255,215,131)" transform="translate(0,0)"></path>
<metadata><recraft-signature>{"signed_by": "recraft", "signature_b64": "wpCA8iaN3+LGDpFuP/+IRzE73MOGvRvbFHUrceU8oty0S8uGjRSQIMuY8Dc6GL8neMt0G5+zpP5/2r/kzBSfBQ==", "signing_algo": "Ed25519", "generation_timestamp": 1772997258, "identifier": "b5c8bdf9-608a-467f-8136-5fc3ab904962"}</recraft-signature></metadata></svg>