<svg xmlns="http://www.w3.org/2000/svg" height="512" preserveAspectRatio="none" style="display: block;" version="1.1" viewBox="0 0 2048 2048" width="512">
<path d="M 341.573 405.999 C 358.775 404.884 390.633 405.946 408.67 405.958 L 1625.27 405.983 C 1675 405.949 1755.65 392.452 1768.85 459.008 C 1771.06 470.124 1770.4 487.726 1770.37 499.246 L 1769.99 1505.64 C 1770.07 1564.49 1786.15 1626.34 1708.25 1641 L 391.163 1641.08 C 297.849 1641.35 276.738 1629.49 277 1531.49 L 276.991 550.159 C 276.955 493.92 263.865 416.155 341.573 405.999 z M 348.966 879.51 L 1697.25 879.51 L 1699.37 878.92 C 1701.63 872.353 1700.42 809.397 1700.42 796.598 L 1700.52 510.931 C 1700.5 500.68 1699.96 484.903 1700.57 474.996 C 1630.6 474.24 1559.21 474.994 1489.12 474.996 L 351.772 474.996 C 344.862 482.409 348.966 610.851 348.966 631.472 L 348.966 879.51 z M 1055.99 950.75 L 348.966 950.75 L 348.966 1097.66 L 996.234 1097.66 L 1700.57 1097.66 C 1701.37 1050.84 1701.14 997.781 1700.57 950.75 L 1055.99 950.75 z M 1586.28 1169 L 348.966 1169 C 349.952 1257.99 348.912 1349.18 348.916 1438.36 L 348.933 1513.43 C 348.937 1522.61 347.447 1562.94 352.205 1567.85 C 365.175 1571.77 447.424 1570.55 466.5 1570.52 L 1700.57 1570.52 C 1701.73 1528.3 1700.57 1480.14 1700.57 1437.45 L 1700.57 1169 C 1687.89 1168.08 1673.06 1168.92 1660.06 1168.96 L 1586.28 1169 z" fill="rgb(0,0,0)" transform="translate(0,0)"></path>
<metadata><recraft-signature>{"signed_by": "recraft", "signature_b64": "txX8nuZ6/9omHRcTEwHMvHASdbKW5KyK0PRFutlEaNs8APHkhrEmPfLCJwwkSqkiJAlvaYH26rtyOpi51IVjCg==", "signing_algo": "Ed25519", "generation_timestamp": 1772995851, "identifier": "500cca20-fa62-4901-8911-a0a1c45d21b2"}</recraft-signature></metadata></svg>