<svg xmlns="http://www.w3.org/2000/svg" height="512" preserveAspectRatio="none" style="display: block;" version="1.1" viewBox="0 0 2048 2048" width="512">
<path d="M 1024.57 497.405 C 1043.12 470.867 1070.19 443.079 1094.93 422.146 C 1416.1 150.485 1897.29 426.43 1857.44 843.236 C 1834.06 1087.85 1541.59 1394.82 1347.29 1555.79 C 1305.48 1592.13 1082.88 1776.17 1031.43 1785.06 C 1001.94 1788.44 976.863 1769.25 955.223 1754.08 C 692.018 1569.66 215.122 1167.27 190.384 821.959 C 173.258 544.237 381.078 329.817 655.282 315.505 C 807.945 308.108 929.706 386.683 1024.57 497.405 z M 372.712 796.093 C 361.143 766.796 354.792 735.579 339.026 706.821 C 263.522 984.731 622.516 1304.69 805.244 1462.16 C 870.417 1518.32 951.11 1585.53 1024.57 1631.54 C 1042.47 1615.8 1063.66 1603.63 1082.86 1589.52 C 1290.69 1436.8 1542.32 1202.61 1665.85 981.74 C 1715.54 892.884 1735.51 794.933 1707.35 695.517 C 1666.39 550.927 1522.12 453.579 1374.24 457.506 C 1145.67 463.574 1109.1 660.53 1038.89 679.171 C 992.669 691.443 972.301 652.764 949.545 622.382 C 918.179 580.502 880.865 538.927 835.102 512.547 C 813.665 509.373 794.87 503.928 772.623 501.62 C 600.893 483.8 438.185 613.436 382.066 770.169 C 379.102 778.448 376.528 788.327 372.712 796.093 z" fill="rgb(0,0,0)" transform="translate(0,0)"></path>
<path d="M 339.026 706.821 C 340.334 698.834 346.199 682.556 349.171 674.933 C 418.493 495.237 632.576 400.551 808.259 495.605 C 816.395 500.007 828.758 506.237 835.102 512.547 C 813.665 509.373 794.87 503.928 772.623 501.62 C 600.893 483.8 438.185 613.436 382.066 770.169 C 379.102 778.448 376.528 788.327 372.712 796.093 C 361.143 766.796 354.792 735.579 339.026 706.821 z" fill="rgb(252,120,89)" transform="translate(0,0)"></path>
<metadata><recraft-signature>{"signed_by": "recraft", "signature_b64": "5fN4WGcgDku6ZEWhJIkKuIs8X5/56RTXOLrBgyQr2153QZ1oNFB9aK1syacyMJLSuWRitMKYNidsVIZNfMiqCw==", "signing_algo": "Ed25519", "generation_timestamp": 1773000553, "identifier": "ed187519-4645-4136-8e78-a82d56ab7b28"}</recraft-signature></metadata></svg>