<svg xmlns="http://www.w3.org/2000/svg" height="512" preserveAspectRatio="none" style="display: block;" version="1.1" viewBox="0 0 2048 2048" width="512">
<path d="M 1443.65 685.102 C 1514.2 686.722 1632.32 669.969 1667.52 754.497 C 1693.94 817.935 1716.53 885.374 1740.82 949.547 L 1798.33 1102.93 C 1816.49 1152.78 1849.08 1213.39 1777.5 1244.46 C 1751.36 1255.8 1731.16 1248.81 1706 1239.1 C 1711.25 1259.59 1716.05 1284.06 1720.43 1304.88 L 1747.77 1437.71 C 1720.9 1436.19 1657.21 1434.35 1629.95 1437.71 C 1628.97 1487.37 1637.81 1618.61 1627.19 1660.08 C 1611.26 1722.34 1504.31 1736.71 1503.96 1622.57 L 1503.97 1437.71 C 1492.74 1438.04 1481.72 1437.85 1470.49 1437.71 C 1470.08 1442.54 1470.25 1446.9 1470.3 1451.72 L 1470.52 1583.3 C 1470.54 1606.98 1471.97 1636.54 1468.49 1659.12 C 1458.82 1721.77 1362.07 1720.74 1351.99 1662.5 C 1348.47 1642.17 1349.98 1607.46 1349.98 1585.47 L 1350.04 1437.71 C 1343.67 1438.43 1323.7 1437.83 1316.43 1437.81 L 1243.29 1437.71 C 1250.57 1386.5 1263.14 1336.16 1269.87 1284.86 C 1258.55 1298.94 1250.37 1306.82 1232.65 1311.35 C 1204.68 1304.93 1159.05 1254.49 1137.73 1234.06 C 1134.81 1286.9 1138.05 1346.66 1137.69 1400.22 C 1137.59 1414.25 1132.67 1426.56 1132.28 1439.58 C 1131.48 1465.75 1131.85 1492.77 1131.88 1518.98 L 1131.95 1616.32 C 1131.96 1632.13 1133.17 1652.71 1131.04 1667.97 C 1123.94 1719 1050.03 1717.85 1040.27 1671.74 C 1037.31 1646.98 1038.33 1620.99 1038.33 1596 L 1038.35 1453.87 C 1028.27 1453.34 1021.87 1452.87 1011.73 1453.87 L 1011.75 1599.6 C 1011.79 1621.04 1013.28 1649.01 1010.94 1669.07 C 1007.03 1702.62 957.093 1720.66 933.162 1694.9 C 910.484 1670.49 918.477 1629.78 918.489 1596.99 L 918.672 1438.29 C 918.611 1422.4 911.231 1422.52 911.142 1405.73 C 910.849 1350.26 911.073 1294.54 911.018 1239.1 C 848.071 1282.72 823.365 1366.22 768.229 1253.55 L 739.922 1195.38 C 735.03 1185.05 731.149 1175.65 726.856 1165.07 C 729.349 1212.22 736.651 1250.21 705.988 1284.86 L 706.07 1610.33 C 706.151 1640.98 709.111 1664.28 686.241 1688.31 C 650.177 1726.2 583.989 1705.43 576.184 1654 C 573.64 1637.23 574.127 1620.63 574.12 1603.72 L 574.127 1302.92 C 563.603 1303.29 552.088 1302.99 541.49 1302.92 L 541.569 1605.09 C 541.625 1620.48 542.961 1640.06 539.763 1654.75 C 528.686 1705.62 467.837 1724.91 430.327 1688.62 C 406.265 1665.33 409.899 1632.77 409.941 1602.65 L 409.995 1280.33 C 379.577 1254.6 385.65 1198.53 388.003 1159.33 C 380.042 1173.47 375.915 1190.01 368.3 1205.09 C 338.333 1265.1 249.673 1257.59 229.233 1194.27 C 219.413 1163.85 233.144 1129.11 239.521 1098.68 L 271.451 948.562 C 280.723 905.636 298.234 783.857 315.956 750.573 C 348.778 688.448 405.522 687.731 465.38 687.57 L 646.822 687.499 C 721.12 687.732 791.883 705.111 810.088 788.533 C 827.739 869.413 844.493 950.514 863.305 1031.15 C 872.785 1071.8 878.59 1115.44 889.826 1155.5 C 896.721 1148.02 903.083 1137.84 909.744 1129.96 C 935.695 1099.28 985.315 1108.31 1021 1108.28 C 1046.13 1108.66 1071.29 1107.37 1096.36 1109.29 C 1129.23 1111.81 1140.39 1140.43 1162.22 1159.33 C 1174.28 1131.94 1182.66 1102.08 1193.28 1074.01 L 1278.26 849.474 C 1316.22 750.18 1320.4 689.625 1443.65 685.102 z M 1322.63 1372.34 L 1526.75 1372.34 L 1665.9 1372.34 C 1649.25 1292.86 1632.93 1213.22 1615.71 1133.88 C 1603.41 1077.18 1585.34 1009.27 1578.24 952.047 C 1640.16 950.239 1630.51 953.705 1658.29 1011 L 1705.85 1109.9 C 1710.45 1119.58 1741.05 1197.2 1754.78 1182.09 C 1759.39 1170.11 1744.99 1147.63 1740.71 1136.54 L 1636.53 861.259 C 1623.84 828.345 1612.93 773.247 1576.59 759.21 C 1543.85 746.562 1459.83 756.667 1420.41 753.296 C 1370.51 754.353 1356.43 833.625 1341.48 873.864 L 1236.74 1156.01 C 1230.97 1171.98 1221.78 1195.63 1217.1 1211.55 C 1220.27 1214.29 1223.38 1217.02 1226.64 1219.65 L 1227.18 1218.61 C 1269.29 1135.99 1306.15 1045.63 1348.51 961.015 C 1354.46 949.133 1391.13 949.636 1401.16 953.526 C 1401.32 953.724 1339.6 1308.32 1322.63 1372.34 z M 402.309 941.223 L 455.51 941.223 L 455.495 1140.68 C 455.485 1170.93 454.813 1203.96 455.51 1234.06 L 657.902 1234.06 C 656.497 1212.12 657.984 1178.72 657.902 1155.5 C 656.414 1088.84 654.292 1007.69 657.902 941.223 C 672.848 941.237 691.441 940.6 705.988 941.223 C 746.576 1025.7 780.598 1135.94 824.825 1214.72 C 826.895 1211.23 829.549 1207.05 831.21 1203.44 C 819.237 1159.19 809.035 1104.46 799.781 1059.08 L 752.487 836.693 C 746.027 807.101 733.524 757.116 693.664 756.967 C 603.514 756.632 512.631 755.317 422.493 756.49 C 364.734 760.545 364.118 824.258 355.259 869.624 L 332 986.341 C 318.974 1048.82 301.07 1111.29 292.199 1174.51 C 295.935 1189.21 307.734 1178.27 312.084 1168.04 C 342.198 1092.99 369.616 1015.12 402.309 941.223 z M 1068.9 1176 C 1044.02 1175.98 1001.62 1174.41 978.256 1176 C 979.32 1242.03 981 1316.33 978.256 1382.12 L 1068.9 1382.12 L 1068.9 1176 z" fill="rgb(0,0,0)" transform="translate(0,0)"></path>
<path d="M 1473.53 338.979 C 1568.26 330.745 1651.74 400.83 1660.04 495.553 C 1668.33 590.277 1598.3 673.802 1503.58 682.154 C 1408.77 690.513 1325.16 620.405 1316.86 525.598 C 1308.56 430.791 1378.72 347.22 1473.53 338.979 z M 1498.53 613.805 C 1555.66 608.421 1597.66 557.821 1592.44 500.674 C 1587.21 443.527 1536.73 401.384 1479.57 406.449 C 1422.18 411.534 1379.83 462.259 1385.08 519.633 C 1390.32 577.006 1441.17 619.211 1498.53 613.805 z" fill="rgb(0,0,0)" transform="translate(0,0)"></path>
<path d="M 535.587 339.912 C 630.075 328.922 715.583 396.609 726.576 491.096 C 737.57 585.584 669.887 671.094 575.4 682.092 C 480.907 693.09 395.391 625.402 384.396 530.909 C 373.402 436.416 441.093 350.902 535.587 339.912 z M 568.601 613.851 C 625.705 606.993 666.393 555.077 659.405 497.988 C 652.418 440.9 600.41 400.33 543.338 407.446 C 486.447 414.54 446.034 466.346 452.999 523.252 C 459.965 580.159 511.679 620.688 568.601 613.851 z" fill="rgb(0,0,0)" transform="translate(0,0)"></path>
<path d="M 1014.66 831.034 C 1087.7 825.933 1151.07 880.947 1156.29 953.979 C 1161.5 1027.01 1106.58 1090.47 1033.56 1095.79 C 960.376 1101.13 896.75 1046.07 891.526 972.877 C 886.302 899.687 941.461 836.146 1014.66 831.034 z M 1032.54 1028.29 C 1068.33 1023.42 1093.29 990.307 1088.13 954.555 C 1082.96 918.804 1049.64 894.118 1013.93 899.584 C 978.641 904.986 954.306 937.831 959.414 973.165 C 964.523 1008.5 997.165 1033.11 1032.54 1028.29 z" fill="rgb(0,0,0)" transform="translate(0,0)"></path>
<metadata><recraft-signature>{"signed_by": "recraft", "signature_b64": "jitk/OvjvTZ6GF77lMRK9LWa+Y05PHIVTd0qwMLrKW7v9MwVQO5lvgKsvXF3JynpCVk4QIn4O3lXPpfulLpVAg==", "signing_algo": "Ed25519", "generation_timestamp": 1773000490, "identifier": "d41123c2-a75a-4e55-bd7f-ad8c5791b460"}</recraft-signature></metadata></svg>