<svg xmlns="http://www.w3.org/2000/svg" height="512" preserveAspectRatio="none" style="display: block;" version="1.1" viewBox="0 0 2048 2048" width="512">
<path d="M 407.618 319.428 C 427.384 318.367 457.937 319.404 478.95 319.41 L 1589.65 319.41 C 1676.92 319.328 1719.06 310.915 1719.05 423.542 L 1719.03 1555.61 C 1719.03 1626.76 1737.92 1710.46 1645.25 1725 L 443.598 1725.07 C 397.695 1725.17 336.592 1725.81 329.629 1662.8 C 327.589 1644.33 329.006 1624.46 329.024 1605.83 L 329.031 477.897 C 329.011 409.504 313.29 328.438 407.618 319.428 z M 477.997 468.981 L 477.997 1578.9 L 514.5 1578.9 L 1453.61 1578.89 C 1491.58 1578.89 1532.21 1578.16 1570.02 1578.9 C 1571.35 1449.94 1570.02 1318.79 1570.02 1189.56 L 1570.02 468.981 C 1557.68 468.597 1547.88 468.465 1535.55 468.981 C 1499.32 468.17 1459.94 468.98 1423.43 468.984 L 477.997 468.981 z" fill="rgb(0,0,0)" transform="translate(0,0)"></path>
<metadata><recraft-signature>{"signed_by": "recraft", "signature_b64": "qGKfnzP2wpzP7ehOa/71HxKumArIlFPUIyFrt6K977pjYjnCAC1//8qji+A2D/1KksiOo9NpRdxkzDsfbwIHBw==", "signing_algo": "Ed25519", "generation_timestamp": 1772998926, "identifier": "b689b334-3c76-4b48-9229-05ff4a46d8b3"}</recraft-signature></metadata></svg>