<svg xmlns="http://www.w3.org/2000/svg" height="512" preserveAspectRatio="none" style="display: block;" version="1.1" viewBox="0 0 2048 2048" width="512">
<path d="M 244.59 429.004 L 1803.67 429.004 L 1803.73 1592.32 C 1803.76 1597.86 1804.43 1614.43 1803.67 1618.99 C 1762.32 1617.93 1715.51 1618.98 1673.83 1618.98 L 374.526 1618.99 C 331.673 1618.99 287.29 1619.64 244.59 1618.99 L 244.59 429.004 z M 857.001 1508 L 1605.24 1507.98 C 1629.57 1507.97 1669.67 1506.64 1692.62 1508 C 1693.54 1499.95 1692.72 1475.78 1692.67 1466.51 L 1692.62 1098.96 L 857.001 1098.96 L 857.017 1372.1 C 857.022 1414.69 858.4 1466.1 857.001 1508 z M 363.191 538.012 L 356.498 538.591 C 352.908 543.257 355.517 594.827 355.519 604.538 L 355.5 946.789 L 702.25 946.789 L 706.154 946.366 C 710.113 940.373 708.52 836.378 708.523 822.968 L 708.544 606.612 C 708.505 583.27 707.261 561.295 708.544 538.012 L 402.072 537.99 C 390.693 537.976 374.229 537.459 363.191 538.012 z M 1692.62 538.012 L 857.001 538.012 L 857.001 946.789 L 1664.86 946.85 C 1672.07 946.864 1686.19 947.316 1692.62 946.789 C 1693.17 896.719 1692.63 845.668 1692.63 795.496 L 1692.62 538.012 z M 355.5 1508 L 708.544 1508 C 709.949 1458.23 708.542 1402.13 708.541 1351.64 L 708.544 1098.96 L 355.5 1098.96 C 354.678 1124.49 355.494 1154.35 355.503 1180.28 L 355.503 1452.42 C 355.471 1468.48 354.47 1492.98 355.5 1508 z" fill="rgb(0,0,0)" transform="translate(0,0)"></path>
<metadata><recraft-signature>{"signed_by": "recraft", "signature_b64": "fGn2G0/RZKnkdlt59zJeIOLY3yVCYexeJngDjHiDRqky3k+5C4ocaYPsTXLEWvaMW4s3T98hJUitAP8YgL9uAA==", "signing_algo": "Ed25519", "generation_timestamp": 1772997504, "identifier": "18eedf71-d119-42da-97ee-f1955c6dcbc9"}</recraft-signature></metadata></svg>