<svg xmlns="http://www.w3.org/2000/svg" height="512" preserveAspectRatio="none" style="display: block;" version="1.1" viewBox="0 0 2048 2048" width="512">
<path d="M 368.803 448.998 C 376.509 448.15 409.728 448.935 419.08 448.943 L 1588.69 449.004 C 1616.8 449 1646.21 448.402 1674.13 449.408 C 1744.39 454.197 1797.27 517.199 1798.53 586.279 C 1798.85 603.535 1798.96 620.91 1798.93 638.358 L 1798.95 1366.28 C 1798.93 1464.54 1809 1569.94 1680.25 1594.11 C 1669.29 1595.32 1641.82 1594.15 1628.89 1594.13 L 460.109 1594.15 C 430.866 1594.17 399.33 1595.1 370.371 1593.49 C 273.204 1588.09 249.95 1506.9 249.993 1427.59 L 249.877 625.334 C 250.016 536.715 264.723 464.798 368.803 448.998 z M 681.001 532.848 L 681.001 897.993 L 1430.5 897.993 L 1715.33 897.993 L 1715.36 611.719 C 1715.4 522.283 1683.65 532.774 1604.49 532.807 L 965.01 532.848 L 681.001 532.848 z M 681.001 1512.62 L 1623.97 1512.65 C 1651.62 1512.65 1677.47 1516.83 1699.81 1497.95 C 1719.87 1476.89 1715.53 1455.84 1715.44 1428.87 L 1715.34 1218.22 C 1715.36 1197.2 1716.81 1170.58 1715.33 1150.17 L 681.001 1150.17 L 681.001 1512.62 z M 333.524 897.993 L 559.5 897.993 L 597.044 897.993 C 597.841 858.435 597.034 816.321 597.031 776.484 L 597.044 532.848 L 446.732 532.836 C 423.637 532.834 395.208 532.011 372.491 532.848 C 328.224 542.774 333.501 579.182 333.494 613.933 L 333.524 897.993 z M 339.86 980.004 L 334.534 980.76 C 332.222 984.241 333.54 1058.13 333.524 1068.16 L 505.016 1068.17 C 533.497 1068.18 563.915 1068.74 592.25 1068.16 L 595.793 1068.18 C 598.276 1064.38 597.005 991.275 597.044 980.004 L 339.86 980.004 z M 681.001 980.004 C 679.971 1007.35 681.036 1040.24 681.001 1068.16 C 718.124 1068.95 758.026 1068.15 795.428 1068.15 L 1715.33 1068.16 C 1716.65 1042.48 1715.2 1006.54 1715.33 980.004 L 681.001 980.004 z M 390.039 1150.17 C 372.227 1150.21 351.056 1150.82 333.524 1150.17 L 333.406 1431.63 C 332.844 1518.68 353.889 1512.7 433.848 1512.68 L 540.5 1512.62 C 558.53 1512.66 579.232 1513.22 597.044 1512.62 L 597.044 1150.17 L 390.039 1150.17 z" fill="rgb(0,0,0)" transform="translate(0,0)"></path>
<metadata><recraft-signature>{"signed_by": "recraft", "signature_b64": "eKWu1Fqa0RWA2NzPE1XIKN4ydNojyhcKqZQtJwrRedlC8nR7uWkQo0kw8JfvQZ0mOuFxaFPfmFeTNnm0nqYLDQ==", "signing_algo": "Ed25519", "generation_timestamp": 1772995833, "identifier": "7111f485-a5d1-43e7-99ba-a7bc5628bd2a"}</recraft-signature></metadata></svg>