<svg xmlns="http://www.w3.org/2000/svg" height="512" preserveAspectRatio="none" style="display: block;" version="1.1" viewBox="0 0 2048 2048" width="512">
<path d="M 276.18 503.51 C 280.161 502.701 292.014 503.385 296.521 503.42 L 1665.18 503.511 C 1738.63 503.461 1841.73 488.485 1854.37 590.666 C 1856.28 606.109 1855.55 623.934 1855.53 639.645 L 1855.51 1397.21 C 1855.5 1459.32 1854.72 1532.68 1771.24 1542.51 C 1764.2 1543.98 1729.06 1542.55 1719.59 1542.54 L 390.226 1542.54 C 317.458 1542.57 208.058 1558.59 193.586 1458.14 C 191.364 1442.72 192.052 1424.22 192.053 1408.42 L 192.076 650.605 C 192.092 583.81 187.633 515.595 276.18 503.51 z M 1771.24 1495.53 C 1802.06 1484.03 1812.09 1465.45 1812.36 1433.44 L 1812.46 614.695 C 1810.71 532.376 1746.62 548.938 1683.3 548.975 L 575.24 548.994 C 476.275 548.993 374.857 547.679 276.18 548.995 C 225.759 559.189 235.946 619.634 235.981 657.767 L 236.032 1345.35 C 236.065 1399.88 220.266 1494.14 292.692 1495.72 L 1712.56 1495.53 C 1728.32 1495.53 1757.16 1496.67 1771.24 1495.53 z" fill="rgb(0,0,0)" transform="translate(0,0)"></path>
<path d="M 889.409 734.998 C 936.393 734.339 933.489 733.119 933.47 779.722 L 933.408 830.435 C 933.395 853.473 944.599 956.617 919.955 958.202 C 871.11 961.343 882.994 933.761 883.031 892.895 L 883.031 827.184 C 831.94 881.68 841.256 918.979 778 827.184 C 778.877 841.853 779.53 942.689 776.164 950.757 C 770.57 964.167 731.188 962.822 728.396 951.058 C 725.31 938.056 726.62 922.435 726.604 909.052 L 726.578 784.472 C 726.585 761.526 718.976 740.124 742.255 734.998 C 786.576 734.235 798.838 779.283 827.023 816.303 C 841.1 796.973 874.15 746.752 889.409 734.998 z" fill="rgb(0,0,0)" transform="translate(0,0)"></path>
<path d="M 1399.46 1089.98 C 1426.13 1087.75 1472.18 1087.63 1494.94 1097.59 C 1548.26 1120.91 1549.93 1202.12 1483.91 1227.06 C 1493.62 1241.81 1530.03 1285.64 1531.43 1299.52 C 1533.89 1323.95 1493.98 1320.8 1478.57 1305.39 C 1472.15 1294.5 1433.04 1229.37 1423.66 1229.82 C 1422.58 1236.67 1422.97 1250.28 1422.97 1257.75 L 1423 1305.39 C 1413.84 1320.69 1406.06 1316.24 1390.21 1316.98 C 1365.39 1318.13 1371.56 1276.6 1371.55 1259.19 L 1371.59 1141.69 C 1371.61 1114.92 1365.35 1090.52 1399.46 1089.98 z M 1423 1189.05 C 1441.77 1189.24 1463.45 1192.3 1478.57 1181.82 C 1488.07 1163.93 1486.24 1148.04 1470.86 1133.99 C 1454.92 1133.78 1438.94 1133.92 1423 1133.99 C 1422.95 1150.45 1421.62 1173.6 1423 1189.05 z" fill="rgb(0,0,0)" transform="translate(0,0)"></path>
<path d="M 1199.09 1089.98 C 1228.76 1089.89 1266.97 1086.59 1294.7 1096.31 C 1348.81 1115.26 1358.08 1199.14 1290.95 1227.06 C 1308.25 1254.01 1377.6 1328.11 1298.5 1316.73 C 1292.79 1313.24 1291.16 1312.13 1286.02 1307.71 C 1279.93 1296.6 1242.52 1230.89 1233.16 1229.13 C 1223.01 1236.78 1232.66 1292.29 1226.78 1307.9 C 1221.42 1322.12 1185.37 1321.43 1180.23 1304.82 C 1178.03 1297.71 1178.19 1128.92 1179.42 1111.08 C 1180.29 1098.24 1186.86 1093 1199.09 1089.98 z M 1228.8 1133.99 C 1228.41 1153.02 1227.92 1169.99 1228.8 1189.05 C 1243.6 1190.2 1251.38 1191.42 1266.09 1189.05 C 1302.22 1178.83 1293.01 1129.7 1249.47 1133.99 C 1242.6 1134.01 1235.67 1134.08 1228.8 1133.99 z" fill="rgb(0,0,0)" transform="translate(0,0)"></path>
<path d="M 1138.94 734.998 L 1157.62 734.772 C 1164.07 734.758 1174 734.895 1178.68 740.111 C 1187.75 750.221 1248.66 913.436 1255.15 933.874 C 1264.41 963 1233.21 963.632 1219.5 957.478 C 1207.87 952.255 1203.05 929.884 1199.09 918.748 L 1173.75 918.748 L 1111.61 918.748 C 1097.3 948.109 1103.85 965.872 1062.37 957.39 C 1042.25 953.278 1063.64 914.86 1067.7 903.817 L 1119.71 765.609 C 1124.93 751.717 1125.37 742.153 1138.94 734.998 z M 1129.32 875.06 L 1156.75 875.06 L 1183.2 875.06 C 1181.1 869.304 1156.43 800.33 1156.75 800.737 C 1147.75 820.34 1135.6 854.368 1129.32 875.06 z" fill="rgb(0,0,0)" transform="translate(0,0)"></path>
<path d="M 362.475 734.998 C 417.07 732.216 399.315 759.186 398.996 816.303 C 422.127 791.305 441.56 759.691 467.761 738.032 C 473.251 733.493 515.068 732.33 520.111 740.474 C 518.629 755.608 453.791 816.644 442.5 836.752 C 461.369 866.083 485.928 889.526 504.848 918.748 C 554.415 961.734 509.903 959.501 474.163 957.991 C 454.604 935.106 433.244 900.549 411.348 879.943 C 405.581 884.23 403.125 887.332 398.996 892.895 C 398.453 911.486 401.977 934.606 395.907 952.101 C 392.006 963.345 351.059 961.273 350.241 950.732 C 348.108 923.237 348.965 894.349 348.968 866.588 L 349.005 791.982 C 349.009 775.182 342.195 737.465 362.475 734.998 z" fill="rgb(0,0,0)" transform="translate(0,0)"></path>
<path d="M 1298.5 734.998 C 1340.68 733.169 1335.08 736.644 1335.53 778.528 C 1335.66 790.879 1335.48 803.95 1335.49 816.303 C 1344.3 802.161 1390.19 739.012 1404.09 735.002 C 1408.85 733.631 1429.94 734.841 1435.8 734.998 C 1442.03 738.548 1451.41 744.623 1445.25 752.685 C 1423.81 780.771 1400.51 807.861 1380.09 836.752 C 1396.4 862.617 1424.48 900.833 1442.99 925.644 C 1469.68 963.688 1436.75 958.478 1405.6 957.991 C 1383.37 936.685 1365.12 895.145 1344.94 869.698 C 1341.12 873.238 1338.81 876.023 1335.49 879.943 C 1335.01 901.705 1337.99 931.533 1333.78 953.071 C 1332.35 960.384 1286.56 964.064 1286.84 946.805 C 1285.64 932.9 1285.98 919.153 1285.97 905.297 L 1286.05 774.419 C 1286.07 761.088 1281.37 736.666 1298.5 734.998 z" fill="rgb(0,0,0)" transform="translate(0,0)"></path>
<path d="M 518.256 1089.98 C 548.455 1089.18 591.939 1087.77 621.668 1089.78 C 647.225 1091.5 644.272 1123.52 636.815 1130.71 C 630.244 1137.04 568.455 1133.99 554.921 1133.99 L 554.921 1175 C 574.156 1175.15 605.601 1171.79 623.304 1178.23 C 633.328 1181.87 632.462 1207.9 627.227 1215.74 C 616.425 1223.19 570.464 1220.05 554.921 1220.96 C 554.174 1233.62 554.611 1245.18 554.921 1257.84 L 554.921 1271 C 572.514 1271.69 613.998 1268.24 628.11 1271.69 C 645.849 1276.02 648.919 1307.68 635.599 1314.12 C 627.009 1318.27 522.004 1318.31 512.361 1314.23 C 497.506 1307.95 504.015 1133.44 504.606 1108.02 C 504.862 1096.99 507.002 1093.19 518.256 1089.98 z" fill="rgb(0,0,0)" transform="translate(0,0)"></path>
<path d="M 1018.39 1089.98 L 1087.49 1089.93 C 1100.4 1089.93 1137.3 1083.84 1139.21 1102.6 C 1144.31 1152.73 1096.9 1132.22 1053 1133.99 C 1052.66 1147.86 1052.99 1163.02 1053 1177 C 1066.22 1177.01 1123 1173.57 1130.83 1181.73 C 1137.25 1188.42 1136.71 1211 1130.17 1217.06 C 1122.75 1223.93 1065.43 1221.01 1053 1220.96 C 1052.71 1231.73 1052.92 1242.71 1053 1253.5 L 1053 1271 C 1069.3 1271.04 1123.03 1268.49 1134.89 1272.44 C 1149.9 1277.44 1148.16 1309.98 1133.06 1315.93 C 1128.62 1317.68 1011.15 1326.43 1005.02 1305.98 C 1001.05 1292.76 1003.59 1128.75 1004.51 1109.9 C 1005.05 1098.8 1006.85 1093.05 1018.39 1089.98 z" fill="rgb(0,0,0)" transform="translate(0,0)"></path>
<path d="M 1579.67 1089.98 C 1610.6 1087.78 1654.01 1089.13 1684.93 1090.06 C 1697.03 1090.33 1701.85 1097.16 1702.28 1108.51 C 1703.81 1148.84 1651.75 1131.89 1618.01 1133.9 L 1616.69 1133.99 C 1616.29 1147.76 1616.63 1163.11 1616.69 1177 C 1636.45 1176.92 1675.19 1173.59 1691.08 1182.14 C 1697.17 1185.42 1701.79 1219.6 1681.36 1221.68 C 1659.76 1223.88 1637.98 1221.76 1616.69 1222.47 C 1615.91 1231.99 1616.3 1239.03 1616.69 1248.5 C 1616.32 1256.2 1616.52 1263.29 1616.69 1271 C 1639.19 1271.03 1686.45 1263.59 1701 1279.47 C 1701.24 1293.03 1704.13 1316.9 1683.66 1316.88 C 1659.2 1316.85 1569.11 1328.61 1567.17 1298.35 C 1567.59 1233.16 1565.41 1167.4 1568.04 1102.4 C 1568.25 1097.21 1575.61 1092.08 1579.67 1089.98 z" fill="rgb(0,0,0)" transform="translate(0,0)"></path>
<path d="M 564.591 734.998 C 578.611 735.002 676.683 732.521 682.367 737.31 C 692.446 745.8 690.228 776.795 676.036 779.482 C 660.678 782.39 619.395 780.276 601.321 780.195 L 601.321 821.293 C 613.716 820.401 662.649 818.769 670.711 825.402 C 678.38 831.711 676.037 856.234 670.221 862.227 C 663.128 869.537 613.069 866.374 601.321 866.329 L 601.321 900.25 L 601.321 913.99 L 651.553 913.873 C 668.834 913.841 689.316 907.977 689.542 931.533 C 689.61 938.653 690.752 949.729 684.995 955.097 C 679.631 960.097 579.64 958.247 564.591 957.991 C 553.821 952.257 552.511 949.106 552.13 937.176 C 551.478 916.816 550.189 751.481 553.426 743.542 C 555.495 738.468 559.94 737.041 564.591 734.998 z" fill="rgb(0,0,0)" transform="translate(0,0)"></path>
<path d="M 358.117 1089.98 C 372.961 1089.64 465.035 1087.63 471.595 1092.77 C 479.097 1098.65 478.337 1124.81 473.164 1130.8 C 467.975 1136.81 405.477 1134.37 394.999 1133.99 L 394.999 1177 C 411.178 1179.15 469.377 1167.11 469.118 1192.78 C 468.86 1218.49 470.634 1223.7 442.5 1222.47 C 429.564 1223.27 408.332 1222.54 394.999 1222.47 C 395.075 1249.8 396.274 1278.15 393.366 1305.22 C 391.814 1319.67 345.354 1330.45 345.184 1294.23 C 344.898 1233.16 344.831 1172.2 345.233 1111.14 C 345.315 1099.14 346.811 1094.39 358.117 1089.98 z" fill="rgb(0,0,0)" transform="translate(0,0)"></path>
<path d="M 1489.06 734.998 C 1500.3 735.012 1519.96 732.485 1528.22 739.048 C 1534.17 751.738 1530.65 886.554 1531.02 913.99 C 1555.28 913.302 1581.53 914.034 1605.93 913.608 C 1626.96 913.241 1622.7 946.236 1611.69 957.991 C 1605.54 959.053 1584.17 958.102 1576.31 958.077 L 1492.16 957.991 C 1488.6 955.645 1487.09 954.175 1483.91 951.26 C 1478.71 936.904 1480.99 830.585 1480.98 806.595 L 1480.95 765.815 C 1480.86 752.864 1477.01 742.374 1489.06 734.998 z" fill="rgb(0,0,0)" transform="translate(0,0)"></path>
<path d="M 695.275 1089.98 L 698.07 1089.78 C 738.88 1087.06 726.578 1126.57 726.621 1162.57 L 726.591 1271 C 741.867 1271.86 795.051 1267.21 805.148 1273.89 C 813.191 1279.2 818.953 1315.03 792.25 1316.73 C 758.931 1316.26 723.856 1317.9 690.53 1315.78 C 670.189 1314.48 676.586 1268.77 676.6 1253.76 L 676.696 1125.8 C 676.56 1105.79 670.722 1090.44 695.275 1089.98 z" fill="rgb(0,0,0)" transform="translate(0,0)"></path>
<path d="M 860.98 1089.98 L 862.79 1089.91 C 902.442 1088.35 889.376 1129.69 889.392 1165.2 L 889.409 1271 C 913.112 1270.92 943.783 1268.77 966.341 1274.35 C 970.203 1275.3 986.623 1312.2 954.216 1316.73 C 937.256 1316.31 854.935 1320.21 846.264 1312.61 C 837.43 1304.88 841.02 1279.33 841.011 1268.95 L 840.988 1210.47 C 840.989 1176.05 840.58 1141.53 841.649 1107.13 C 842.11 1092.29 848.019 1090.83 860.98 1089.98 z" fill="rgb(0,0,0)" transform="translate(0,0)"></path>
<path d="M 986.293 734.998 C 1003.1 734.978 1013.25 731.07 1025.97 743.494 C 1025.85 775.886 1037.09 949.09 1014.93 957.991 C 1005.7 958.184 983.885 961.241 978.095 951.633 C 971.235 940.249 975.109 746.761 976.635 743.227 C 978.601 738.671 982.117 737.173 986.293 734.998 z" fill="rgb(0,0,0)" transform="translate(0,0)"></path>
<path d="M 1662.79 734.998 C 1674.66 734.87 1687.24 732.422 1696 741.567 C 1701.18 757.835 1699.22 911.261 1698.51 942.521 C 1698.29 951.872 1695.71 955.263 1686.99 957.991 C 1663.31 958.299 1649.11 962.857 1649.58 935.895 C 1650.61 876.497 1649.51 817.053 1650.18 757.651 C 1650.33 744.665 1649.88 739.515 1662.79 734.998 z" fill="rgb(0,0,0)" transform="translate(0,0)"></path>
<metadata><recraft-signature>{"signed_by": "recraft", "signature_b64": "YdguTkBjUo5VYwBWmKiTukQp70htJDabkjZmqGc5ouQOxHOKgICH5hBKJdlwXNubYI8xwddLtLt/I/MhS/WzDg==", "signing_algo": "Ed25519", "generation_timestamp": 1772999156, "identifier": "76a71239-f438-49cc-98b6-2affdd7c6e71"}</recraft-signature></metadata></svg>