<svg xmlns="http://www.w3.org/2000/svg" height="512" preserveAspectRatio="none" style="display: block;" version="1.1" viewBox="0 0 2048 2048" width="512">
<path d="M 1063.26 291.785 L 1439.26 291.738 C 1532.25 291.676 1614.28 316.936 1640.09 421.716 C 1646.95 449.554 1644.94 488.774 1644.93 518.211 L 1644.75 1496.26 C 1644.84 1528.64 1647.25 1572.83 1642.7 1603.77 C 1632.8 1671.02 1575.89 1731.87 1510.47 1748.6 C 1480.79 1756.19 1451.4 1754.62 1421.46 1754.6 L 987.75 1754.55 L 596.631 1754.61 C 577.752 1754.63 554.706 1756.1 536.521 1752.1 C 456.588 1734.54 401.117 1661.42 400.79 1580.36 L 400.902 489.715 C 400.902 396.441 436.591 316.154 538.762 295.075 C 562.399 290.199 590.475 291.684 614.872 291.715 L 1063.26 291.785 z M 945.75 1615.09 L 1423.18 1615.13 C 1499.98 1615.16 1505.73 1618.61 1505.66 1539.62 L 1505.76 472.708 C 1505.86 424.854 1466.35 426.544 1429.87 426.57 L 1102.1 426.64 L 630.057 426.608 C 540.849 426.579 542.842 427.958 542.832 507.56 L 542.888 1566.07 C 542.955 1619.97 585.734 1615.53 622.772 1615.21 L 945.75 1615.09 z" fill="rgb(23,23,23)" transform="translate(0,0)"></path>
<path d="M 769.302 1320.09 L 1246.15 1320.03 C 1278.73 1320.03 1315.37 1315.29 1339.91 1339.85 C 1388.16 1388.13 1349.23 1451.46 1275.15 1449.14 L 803.985 1449.16 C 784.302 1449.16 763.917 1449.94 744.327 1448.33 C 677.003 1442.78 645.414 1326.25 769.302 1320.09 z" fill="rgb(53,147,244)" transform="translate(0,0)"></path>
<metadata><recraft-signature>{"signed_by": "recraft", "signature_b64": "UPZzK4UpD6QXAtf4OiZEJTftFuo21V96HNq2BSgofwN6dJDWJ+Pg9Urs1nwyzXPHbYbb/GXp1HxzZQQ+AQcNBg==", "signing_algo": "Ed25519", "generation_timestamp": 1772999320, "identifier": "c6dd3ca6-dd9f-484c-b1b2-89ff5e3a29fd"}</recraft-signature></metadata></svg>