<svg xmlns="http://www.w3.org/2000/svg" height="512" preserveAspectRatio="none" style="display: block;" version="1.1" viewBox="0 0 2048 2048" width="512">
<path d="M 995.356 253.984 C 1279.97 238.738 1488.22 521.94 1377.15 787.932 C 1330.24 900.291 1248.4 962.503 1140.04 1005.22 C 1144.52 1006.13 1149.4 1006.73 1154 1007.54 C 1417.51 1053.69 1636.98 1268.98 1687.86 1531.46 C 1693.71 1557.2 1702.04 1578.49 1702.17 1605.3 C 1702.59 1696.08 1636.64 1768.27 1549.51 1786.98 C 1526.48 1791.92 1499.6 1790.53 1475.6 1790.52 L 1049.01 1790.48 L 568.188 1790.51 C 548.058 1790.51 522.703 1791.79 503.167 1788.99 C 383.266 1771.81 340.455 1668.18 356.952 1560.49 C 402.132 1265.57 626.176 1055.67 914.453 1005.22 C 767.438 953.207 663.262 842.955 641.835 683.14 C 612.163 461.828 780.721 279.118 995.356 253.984 z M 511.917 1625.08 L 1042.37 1625.08 L 1479.96 1625.12 C 1494.97 1625.15 1519.74 1626 1534.07 1625.08 C 1534 1599.31 1530.01 1575.54 1524.73 1550.46 C 1473.35 1306.23 1248.63 1146.61 1004.16 1152.11 C 765.369 1169.31 562.103 1328.67 517.851 1570.47 C 514.925 1586.46 511.671 1608.92 511.917 1625.08 z M 1043.54 859.052 C 1165.23 848.579 1255.51 741.626 1245.4 619.908 C 1235.29 498.19 1128.61 407.594 1006.86 417.336 C 884.595 427.12 793.529 534.354 803.68 656.591 C 813.831 778.827 921.338 869.571 1043.54 859.052 z" fill="rgb(0,0,0)" transform="translate(0,0)"></path>
<metadata><recraft-signature>{"signed_by": "recraft", "signature_b64": "oQXfpnPrCmRR/jm/RM78Y4RUJhDYm7KvcgafaMph1ANQhr2Xe+H7UDNuVBEj8pHpmIEbyUbrFb03joFy2pewDA==", "signing_algo": "Ed25519", "generation_timestamp": 1773000425, "identifier": "fc36ba0d-81b8-4481-82be-4ba73ebe3a02"}</recraft-signature></metadata></svg>