<svg xmlns="http://www.w3.org/2000/svg" height="512" preserveAspectRatio="none" style="display: block;" version="1.1" viewBox="0 0 2048 2048" width="512">
<path d="M 338.375 601.999 L 1718.99 602.001 C 1774.89 600.811 1787.63 643.45 1787.62 689.819 L 1787.51 1374.51 C 1786.81 1420.2 1756.07 1446.62 1711.25 1444.49 L 381.704 1444.41 C 278.236 1444.23 259.913 1440.59 259.984 1332.56 L 259.917 708.982 C 259.344 641.682 262.737 605.299 338.375 601.999 z M 1725.76 1401 C 1743.44 1395.22 1745.21 1386.91 1745.24 1369.38 L 1745.16 675.449 C 1745.07 645.764 1730.63 644.925 1704.95 644.974 L 322.518 644.991 C 306.95 650.63 303.252 656.664 303.32 672.786 L 303.485 1145.45 C 303.485 1170.07 301.435 1376.05 305.079 1385.76 C 315.449 1413.39 450.604 1401.03 481.47 1401.02 L 1725.76 1401 z" fill="rgb(0,0,0)" transform="translate(0,0)"></path>
<path d="M 976.177 796.97 L 1035.91 796.97 C 1034.96 813.955 1060.67 902.978 1071.87 925.447 C 1082.43 882.55 1092.95 839.724 1104.33 796.97 L 1162.96 796.97 L 1162.96 981.01 C 1149.89 981.72 1137.61 981.54 1124.56 981.01 C 1124.15 952.344 1124.52 922.874 1124.56 894.145 L 1124.56 851.374 C 1114.34 888.663 1099.79 945.825 1086.61 981.01 L 1053.04 981.01 C 1037.26 947.576 1024.32 888.837 1011.95 851.374 C 1011.23 889.742 1008.96 943.128 1011.95 981.01 L 976.177 981.01 L 976.177 796.97 z" fill="rgb(0,0,0)" transform="translate(0,0)"></path>
<path d="M 896.18 1069.9 L 954.997 1069.9 L 954.997 1249.96 C 942.986 1250.12 928.289 1250.64 916.559 1249.96 C 917.34 1219.44 916.6 1185.58 916.559 1154.75 C 916.617 1142.02 916.241 1129.84 916.559 1117 C 904.934 1153.18 888.428 1211.76 882.999 1249.96 L 843.645 1249.96 C 833.472 1210.2 820.379 1168.12 809.019 1128.59 C 807.633 1167.93 810.24 1210.32 809.019 1249.96 C 797.05 1250.41 782.513 1250 770.35 1249.96 C 771.027 1234.84 770.406 1217.06 770.391 1201.62 L 770.319 1109.68 C 770.311 1104.34 769.569 1073.13 770.35 1069.9 C 786.676 1070.74 810.527 1069.93 827.452 1069.9 C 838.555 1109.61 854.203 1153.31 861.993 1193.64 C 874.5 1153.82 884.193 1110.6 896.18 1069.9 z" fill="rgb(0,0,0)" transform="translate(0,0)"></path>
<path d="M 1157.18 1069.9 C 1196.85 1069.93 1277.76 1058.24 1282.73 1115.95 C 1284.88 1140.88 1275.32 1153.94 1255.85 1167.07 C 1268.4 1180.43 1284.38 1231.34 1287.52 1249.96 C 1281.16 1249.99 1249.29 1251.66 1246.09 1249.96 C 1234.76 1214.9 1240.11 1183.12 1198.98 1181.02 C 1198.05 1201.7 1198.92 1228.85 1198.98 1249.96 C 1185.05 1249.39 1171.12 1249.69 1157.18 1249.96 C 1157.81 1229.38 1157.24 1207.73 1157.22 1187 L 1157.18 1069.9 z M 1198.98 1148.02 C 1211.51 1148.19 1224.21 1150.59 1233.64 1141.32 C 1253.39 1111.39 1227.44 1100.58 1198.98 1104.99 L 1198.98 1148.02 z" fill="rgb(0,0,0)" transform="translate(0,0)"></path>
<path d="M 1233.64 796.97 L 1287.52 796.97 C 1303.44 853.784 1321.05 927.003 1341.89 981.01 L 1300.05 981.01 C 1295.64 967.298 1291.6 952.818 1287.52 938.955 L 1233.64 938.955 C 1229.13 952.16 1226.03 966.919 1221.26 981.01 C 1206.79 981.29 1195.7 981.525 1181.18 981.01 C 1194.96 925.717 1215.05 851.605 1233.64 796.97 z M 1246.09 904.414 C 1252.85 904.872 1257.12 904.716 1263.91 904.414 L 1279.17 904.414 C 1277.14 896.116 1263.05 834.608 1260.72 832.83 C 1255.76 850.18 1245.14 887.855 1246.09 904.414 z" fill="rgb(0,0,0)" transform="translate(0,0)"></path>
<path d="M 1396.26 796.97 L 1451.15 796.97 C 1452.21 812.512 1459.49 832.904 1464.16 848.375 L 1488.22 927.002 C 1493.32 943.098 1501.09 965.091 1504.47 981.01 C 1490.1 981.762 1477.02 981.914 1462.69 981.01 C 1458.57 968.213 1454.62 952.131 1451.15 938.955 C 1437.15 938.312 1410.01 938.351 1396.26 938.955 C 1389.41 955.497 1387.16 963.645 1382.99 981.01 C 1368.28 981.547 1356.56 981.909 1341.89 981.01 C 1356.52 921.63 1379.78 857.649 1396.26 796.97 z M 1404.09 904.414 C 1411.72 904.409 1419.65 904.283 1427.25 904.414 L 1441.08 904.414 C 1438.5 895.196 1425.45 840.213 1423 836.666 C 1414.27 855.758 1410.22 883.361 1404.09 904.414 z" fill="rgb(0,0,0)" transform="translate(0,0)"></path>
<path d="M 1028.51 1069.9 C 1044.59 1069.48 1062.2 1069.87 1078.39 1069.9 C 1099.64 1125.88 1120.73 1192.84 1136.43 1249.96 C 1127.56 1249.09 1105.2 1249.88 1095.35 1249.96 C 1093.16 1242.72 1084.87 1214.01 1081.77 1209.53 L 1028.51 1209.53 C 1021.48 1224.77 1018.77 1233.67 1014.47 1249.96 C 1001.16 1250.28 986.76 1249.99 973.363 1249.96 C 990.781 1189.77 1009.19 1129.52 1028.51 1069.9 z M 1035.91 1174.87 C 1042.62 1174.89 1049.57 1175 1056.25 1174.87 C 1061.4 1174.85 1066.74 1174.76 1071.87 1174.87 C 1069.21 1164.3 1058.14 1125.32 1053.04 1117 C 1046.53 1134.2 1040.72 1156.96 1035.91 1174.87 z" fill="rgb(0,0,0)" transform="translate(0,0)"></path>
<path d="M 558.229 796.97 L 559.02 796.828 L 559.997 798.005 C 553.197 814.002 511 866.791 498.51 884.633 C 515.995 914.158 543.621 952.079 558.229 981.01 L 515.046 981.01 C 494.788 959.861 480.767 924.87 461.997 901.819 L 461.997 953.5 L 461.997 981.01 C 448.061 980.401 434.911 980.433 420.996 981.01 L 420.996 796.97 C 434.83 796.788 448.165 796.745 461.997 796.97 L 461.997 870.026 C 473.005 859.168 506.437 811.292 515.046 796.97 C 529.767 796.706 543.514 796.655 558.229 796.97 z" fill="rgb(0,0,0)" transform="translate(0,0)"></path>
<path d="M 679.606 1067.34 C 700.841 1065.27 722.716 1072.95 741.447 1082.23 C 736.806 1093.63 732.073 1105.92 726.847 1117 C 663.259 1080.99 635.062 1122.01 689.533 1140.81 C 773.137 1169.65 764.369 1246.48 682.845 1252.47 C 658.732 1253.42 637.328 1247.23 617.995 1233.02 C 621.861 1221.78 626.731 1209.91 631.966 1199.25 C 650.605 1212.52 704.4 1235.37 702.998 1193.64 C 680.191 1166.91 585.247 1158.63 631.904 1087.38 C 641.316 1073 662.725 1069.47 679.606 1067.34 z" fill="rgb(0,0,0)" transform="translate(0,0)"></path>
<path d="M 1494.84 796.97 C 1538.17 796.957 1584.18 797.764 1627.26 796.97 C 1625.82 809.382 1625.11 820.369 1622.96 832.83 L 1586 832.83 L 1586 941.5 L 1586 981.01 C 1577.5 981.837 1555.04 981.088 1545.59 981.01 C 1544.69 968.303 1545.51 945.632 1545.54 932.064 L 1545.59 832.83 C 1527.89 832.929 1512.87 831.89 1494.84 832.83 C 1494.62 821.071 1494.81 808.774 1494.84 796.97 z" fill="rgb(0,0,0)" transform="translate(0,0)"></path>
<path d="M 751.017 796.97 L 882.999 796.97 L 882.999 830.553 C 870.535 831.306 850.365 830.546 837.187 830.553 L 837.187 938.955 L 837.187 981.01 C 823.327 981.293 810.379 981.672 796.51 981.01 C 797.74 933.577 796.858 878.309 796.51 830.553 C 781.291 830.443 766.234 830.364 751.017 830.553 L 751.017 796.97 z" fill="rgb(0,0,0)" transform="translate(0,0)"></path>
<path d="M 1303.56 1069.9 L 1423 1069.9 L 1423 1104.99 L 1382.99 1104.99 L 1382.99 1209.53 L 1382.99 1249.96 L 1341.89 1249.96 C 1341.02 1238.79 1341.83 1215.94 1341.84 1203.89 L 1341.89 1104.99 L 1303.56 1104.99 C 1303.01 1094.65 1303.42 1080.38 1303.56 1069.9 z" fill="rgb(0,0,0)" transform="translate(0,0)"></path>
<path d="M 650.65 796.97 L 691.035 796.97 L 691.035 945.996 C 712.932 946.28 735.493 946.005 757.441 945.996 C 757.457 957.785 757.266 969.155 757.441 981.01 L 650.65 981.01 C 651.267 920.024 650.671 858.036 650.65 796.97 z" fill="rgb(0,0,0)" transform="translate(0,0)"></path>
<path d="M 576.976 796.97 L 617.995 796.97 C 617.382 815.616 617.921 836.758 617.954 855.622 L 617.995 981.01 L 576.976 981.01 C 576.048 963.51 576.933 938.163 576.94 919.817 L 576.976 796.97 z" fill="rgb(0,0,0)" transform="translate(0,0)"></path>
<path d="M 904.038 796.97 C 917.224 796.443 931.797 796.43 945 796.97 L 945 981.01 C 932.142 981.834 916.88 981.564 904.038 981.01 L 904.034 858.534 C 904.023 839.024 903.237 816.026 904.038 796.97 z" fill="rgb(0,0,0)" transform="translate(0,0)"></path>
<metadata><recraft-signature>{"signed_by": "recraft", "signature_b64": "nTN6g2p2RxRR7fs0zU+V1Vu0ydL2ox2KiN5TVvsHCIRg5geoqEtt9enjJlH851658XVMedS/NYl/o89BbwGvDg==", "signing_algo": "Ed25519", "generation_timestamp": 1772999240, "identifier": "c1117cad-ebe6-4832-a1cd-acbef12b0e8c"}</recraft-signature></metadata></svg>