<svg xmlns="http://www.w3.org/2000/svg" height="512" preserveAspectRatio="none" style="display: block;" version="1.1" viewBox="0 0 2048 2048" width="512">
<path d="M 1459 299.685 L 1682.61 299.382 C 1723.68 299.718 1749.74 338.618 1749.37 376.387 L 1749.51 1602.58 C 1749.52 1651.69 1760.61 1740.86 1688.09 1744.92 C 1672.23 1745.81 1656.22 1745.56 1640.31 1745.55 L 593.261 1745.51 L 421.432 1745.52 C 373.755 1745.53 299.924 1756.15 300.035 1681.84 L 299.975 407.3 C 299.895 318.929 307.384 299.691 400.013 299.66 L 1459 299.685 z M 429.999 1618.05 L 1620.02 1618.05 C 1621.2 1600.27 1620.05 1573.86 1620.03 1555.22 L 1620.01 877.567 C 1620 856.884 1619.15 830.056 1620.02 809.932 L 429.999 809.932 L 429.999 1618.05 z M 429.999 682.049 L 1572.52 682.106 C 1584.92 682.125 1603.19 682.722 1615.25 682.049 L 1617.76 682.119 C 1621.1 677.175 1620.07 452.251 1620.02 427.155 L 437.489 427.155 C 424.553 429.049 429.987 445.591 429.982 459.648 L 429.999 682.049 z" fill="rgb(0,0,0)" transform="translate(0,0)"></path>
<metadata><recraft-signature>{"signed_by": "recraft", "signature_b64": "vn/HEHYfIBeB/d7BWWsV7k/PSLbDB7zox+gB+Se+OQQuaJ0yAo/41tVO8X3X4pYjYPE4vRguRgkVk/ThwwiOCg==", "signing_algo": "Ed25519", "generation_timestamp": 1772996780, "identifier": "0307ba94-ae5a-4cff-bafc-5134a69b5cb4"}</recraft-signature></metadata></svg>