<svg xmlns="http://www.w3.org/2000/svg" height="512" preserveAspectRatio="none" style="display: block;" version="1.1" viewBox="0 0 2048 2048" width="512">
<path d="M 1535.01 344.514 L 1598.61 344.402 C 1717.77 344.34 1705.34 391.541 1705.34 494.85 L 1705.37 1572.82 C 1705.38 1592.43 1705.85 1614.48 1704.48 1633.81 C 1698.46 1718.86 1596.1 1705.41 1537.85 1705.34 L 465.48 1705.24 C 449.696 1705.19 430.234 1705.6 414.713 1704.55 C 373.059 1701.74 343.34 1662.05 343.035 1622.35 L 342.976 463.556 C 342.848 406.332 337.941 346.592 418.446 344.514 L 1277.64 344.514 L 1277.63 455.503 C 1277.62 471.449 1276.63 496.065 1277.64 510.987 L 510.18 510.987 L 510.18 1535 C 521.343 1535.55 536.45 1535.02 547.998 1535.01 L 1535.01 1535 L 1535.01 689.5 L 1535.01 344.514 z" fill="rgb(0,0,0)" transform="translate(0,0)"></path>
<metadata><recraft-signature>{"signed_by": "recraft", "signature_b64": "6m6tZEYRT6MC+5RMB+k1Zd4atsgP+DDChJa8+YpGEXJ6ep2c4ETWdO4tUFKk32gfZJ7Q1eMenqHALTwSr+PIBQ==", "signing_algo": "Ed25519", "generation_timestamp": 1772997586, "identifier": "54bc0c22-be67-4844-93e7-7df295b97789"}</recraft-signature></metadata></svg>