<svg xmlns="http://www.w3.org/2000/svg" height="512" preserveAspectRatio="none" style="display: block;" version="1.1" viewBox="0 0 2048 2048" width="512">
<path d="M 1210.35 292.526 L 1581.45 292.466 C 1651.77 292.099 1711.55 296.095 1746.55 372.014 C 1773.45 430.351 1752.82 474.414 1733.59 530.426 L 1367.15 1586.52 C 1345.47 1650.34 1333.72 1712.45 1263.33 1740.46 C 1184.15 1771.97 1084.49 1707.81 1007.55 1677.21 C 957.452 1654.55 906.307 1633.08 855.889 1611.12 L 693.642 1539.13 C 650.938 1520.23 608.437 1502.72 566.537 1481.77 C 530.638 1463.83 482.175 1449.31 448.508 1429.24 C 362.144 1377.74 384.786 1302.48 410.455 1229.15 L 668.105 493.91 C 695.936 415.861 711.607 315.548 805.783 295.817 C 825.488 291.689 850.765 292.455 871.14 292.473 L 1210.35 292.526 z M 1110.6 1646.76 L 1480.41 588.384 C 1511.17 502.23 1480.99 509.799 1411.39 509.928 L 913.464 509.966 C 875.198 516.927 858.13 603.671 845.896 639.618 L 591.18 1372.53 C 556.834 1473.48 550.18 1461.29 642.281 1501.71 L 816.298 1578.62 C 888.25 1610.56 962.043 1638.22 1034.57 1668.84 C 1078.31 1687.31 1093.49 1701.79 1110.6 1646.76 z" fill="rgb(0,0,0)" transform="translate(0,0)"></path>
<metadata><recraft-signature>{"signed_by": "recraft", "signature_b64": "3HnCjnDSFX0XZ8nhzb8w6BrB0U2oFBteHA8Q16DQyvP7tFvZPkfTOyKMIeHjJuJL7Fh9iMjvTf1RR8+RwoVoCA==", "signing_algo": "Ed25519", "generation_timestamp": 1772997889, "identifier": "88755393-9105-43c4-9f26-bca82c63c2b6"}</recraft-signature></metadata></svg>