<svg xmlns="http://www.w3.org/2000/svg" height="512" preserveAspectRatio="none" style="display: block;" version="1.1" viewBox="0 0 2048 2048" width="512">
<path d="M 367.448 286.013 C 397.608 285.309 430.319 286.022 460.66 286.028 L 1626.86 285.97 C 1644.25 285.958 1663.55 285.214 1680.61 286.529 C 1776.81 293.948 1760.48 407.799 1760.48 474.417 L 1760.47 1634.19 C 1760.54 1685.2 1757.49 1757.03 1685.25 1759.1 C 1665.41 1760.3 1632.25 1759.13 1611.12 1759.12 L 435.421 1759.14 C 380.895 1759.19 296.185 1766.46 289.419 1687.26 C 287.455 1664.26 288.035 1639.14 288.052 1615.87 L 288.025 450.763 C 288.023 385.537 276.122 296.57 367.448 286.013 z M 342.997 1685.51 C 363.811 1719.92 412.274 1707.04 452.136 1706.98 L 1564.72 1706.95 C 1601.88 1706.94 1641.24 1706.27 1678.23 1706.95 C 1717.33 1700.48 1706.18 1650.51 1706.15 1620.51 L 1706.15 396.315 C 1706.1 326.746 1680.03 338.302 1621.81 338.372 L 375.679 338.395 C 330.979 345.532 342.487 401.106 342.833 434.083 L 342.997 1685.51 z" fill="rgb(0,0,0)" transform="translate(0,0)"></path>
<path d="M 1308.34 800.1 C 1326.35 799.557 1346.8 800.07 1365 800.1 L 1365 1242.48 C 1345.62 1243.16 1322.63 1242.54 1303.03 1242.48 C 1301.86 1228.29 1302.17 1218 1303.03 1204.03 C 1257.48 1249.15 1206.41 1268.92 1147.3 1230.26 C 1085.31 1193.74 1075.21 1086.87 1092.91 1024.47 C 1121.99 921.993 1252.12 885.422 1303.03 979.385 C 1303.04 958.05 1300.61 807.672 1304.98 800.777 L 1308.34 800.1 z M 1233.23 1193.9 C 1338.07 1178.01 1322.78 969.981 1219.73 979.385 C 1120.45 992.49 1117.94 1198.76 1233.23 1193.9 z" fill="rgb(0,0,0)" transform="translate(0,0)"></path>
<path d="M 923.97 800.1 C 949.857 799.715 976.118 800.857 1001.9 800.1 C 979.783 840.418 885.882 929.762 851.973 971.742 C 868.553 999.778 888.212 1026.28 906.302 1053.4 C 946.371 1113.38 992.218 1180.75 1028.67 1242.48 L 947.162 1242.48 C 938.785 1226.32 929.889 1213.72 920.049 1198.49 L 888.527 1149.02 C 861.009 1106.28 833.549 1061.51 804.988 1019.8 C 794.862 1030.63 784.674 1041.44 775.335 1052.96 C 767.472 1061.68 755.769 1074.02 749 1083.04 C 750.117 1097.07 749.088 1119.09 749.092 1134.18 L 749 1242.48 C 728.867 1243.22 707.163 1241.99 686.639 1242.48 L 686.647 947.894 C 686.646 899.353 685.818 848.432 686.639 800.1 L 749 800.1 L 748.816 927.263 C 748.91 945.33 750.369 982.625 749 999.086 L 855.699 873.043 C 867.664 858.883 908.984 803.025 923.97 800.1 z" fill="rgb(0,0,0)" transform="translate(0,0)"></path>
<path d="M 475.02 1374 C 511.552 1373.59 556.684 1371.93 592.258 1376.52 C 661.993 1385.52 665.453 1488.81 586.24 1495.52 C 620.158 1516.79 642.067 1555.47 662.807 1589.09 C 652.005 1588.61 637.809 1589.05 626.75 1589.09 C 608.453 1589.29 582.472 1521.45 549.356 1502.63 C 541.925 1498.4 521.037 1499.35 512.005 1499.51 C 511.412 1528.88 510.18 1559.82 512.005 1589.09 L 475.02 1589.09 C 476.07 1567.2 475.056 1539.42 475.042 1516.81 L 475.02 1374 z M 512.005 1404.99 C 512.016 1426.52 512.365 1449.07 512.005 1470.51 C 535.136 1470.64 569.471 1472.86 590.095 1464.45 C 597.337 1460.06 604.233 1455.73 606.106 1446.89 C 616.334 1398.57 549.513 1403.8 521.4 1404.99 C 518.302 1404.99 515.091 1404.94 512.005 1404.99 z" fill="rgb(0,0,0)" transform="translate(0,0)"></path>
<path d="M 855.853 452.303 C 954.014 423.454 963.868 665.175 876.239 670.49 C 819.533 690.114 797.654 622.455 796.773 578.195 C 795.902 534.429 796.275 453.46 855.853 452.303 z M 870.508 644.255 C 916.857 629.04 905.801 461.544 863.302 483.111 C 843.572 482.9 835.599 495.967 834.965 515.464 C 834.019 544.575 820.076 652.177 870.508 644.255 z" fill="rgb(0,0,0)" transform="translate(0,0)"></path>
<path d="M 1216.14 452.303 C 1280.03 450.804 1311.69 515.594 1262.05 557.1 C 1317.65 590.155 1296.32 673.693 1227.24 670.49 C 1148.74 678.963 1125.05 591.791 1185.49 557.1 C 1131.84 526.999 1158.01 458.128 1216.14 452.303 z M 1233.23 644.255 C 1272.4 626.94 1266.08 571.724 1216.14 575.041 C 1164.79 590.886 1182.51 648.607 1233.23 644.255 z M 1228.45 541.304 C 1244.19 537.765 1254.17 522.252 1250.86 506.467 C 1247.56 490.682 1232.2 480.47 1216.37 483.534 C 1205.91 485.558 1197.36 493.058 1193.98 503.159 C 1190.61 513.26 1192.94 524.396 1200.08 532.298 C 1207.22 540.2 1218.06 543.641 1228.45 541.304 z" fill="rgb(0,0,0)" transform="translate(0,0)"></path>
<path d="M 1160.3 1379 C 1167.48 1378.19 1177.03 1377.21 1182.9 1381.58 C 1188.06 1390.79 1185.95 1570.51 1185.49 1589.09 L 1151.6 1589.09 C 1152.34 1582.08 1152.18 1574.91 1151.6 1567.9 C 1136.28 1598.2 1104.26 1597.77 1077.17 1586.19 C 1018.19 1535.58 1039.79 1408.81 1125.83 1435.03 C 1140.44 1439.46 1144.98 1445.86 1151.6 1458.21 C 1151.74 1442.08 1144.24 1381.23 1160.3 1379 z M 1122.22 1563.81 C 1168.43 1556.23 1164.55 1458.79 1110.97 1460.99 C 1064.04 1475.65 1068.49 1571.06 1122.22 1563.81 z" fill="rgb(0,0,0)" transform="translate(0,0)"></path>
<path d="M 756.577 1430.4 C 854.636 1422.46 875.296 1580.31 771.392 1593.93 C 653.281 1598.86 664.034 1438.97 756.577 1430.4 z M 766.763 1567.9 C 826.217 1555.41 812.715 1452.29 760.772 1458.21 C 701.338 1466.51 709.342 1575.8 766.763 1567.9 z" fill="rgb(0,0,0)" transform="translate(0,0)"></path>
<path d="M 1386.44 1430.4 C 1471.82 1417.52 1509.5 1569.35 1402.68 1593.93 C 1293.37 1600.9 1284.76 1442.31 1386.44 1430.4 z M 1397.73 1567.9 C 1456.28 1545.4 1439.55 1450.89 1386.44 1458.21 C 1332.23 1468.33 1335.85 1567.46 1397.73 1567.9 z" fill="rgb(0,0,0)" transform="translate(0,0)"></path>
<path d="M 1044.65 452.303 C 1077.8 446.552 1067.09 499.413 1067.08 522.677 L 1067.04 639 C 1078.96 639.634 1096.05 636.053 1105.73 642.523 C 1117.52 650.393 1112.52 670.153 1097.3 670.308 C 1080.02 670.485 999.65 674.82 988.406 665.457 C 974.514 633.572 1012.75 638.739 1031.57 639 C 1032.92 597.639 1031.43 547.774 1031.57 505.691 C 1018.31 517.889 988.944 553.125 985.819 509.788 C 985.478 505.054 1037.85 456.08 1044.65 452.303 z" fill="rgb(0,0,0)" transform="translate(0,0)"></path>
<path d="M 1537.42 1379 C 1541.56 1379.07 1545.77 1379.02 1549.91 1379 C 1550.47 1395.53 1549.84 1416.94 1549.91 1433.98 C 1565.04 1432.29 1569.72 1432.38 1585 1433.98 L 1585 1460.99 L 1549.91 1460.99 C 1549.86 1487.07 1549.61 1513.19 1550.01 1539.27 C 1550.43 1566.26 1566.11 1560.69 1585 1558.73 C 1586.87 1569.61 1590.6 1579.65 1580.38 1586.19 C 1522.01 1604.69 1515.99 1573.32 1516.01 1523.46 L 1516.06 1460.99 L 1495.03 1460.99 L 1495.03 1433.98 L 1516.06 1433.98 L 1516.06 1392.83 L 1537.42 1379 z" fill="rgb(0,0,0)" transform="translate(0,0)"></path>
<path d="M 882.471 1379 C 890.028 1378.87 905.265 1377.79 911.441 1380.84 C 913.106 1384.73 916.31 1580.26 913.035 1588.66 L 909.75 1589.09 C 898.89 1589.44 890.446 1589.45 879.563 1589.09 C 879.045 1579.08 879.519 1564.9 879.52 1554.6 L 879.522 1485.88 C 879.524 1472.17 876.568 1384.01 882.471 1379 z" fill="rgb(0,0,0)" transform="translate(0,0)"></path>
<path d="M 967.036 1433.98 C 979.724 1434.5 989.209 1434.46 1001.9 1433.98 C 1000.78 1448.15 1001.84 1471.83 1001.86 1487.14 L 1001.9 1589.09 C 989.722 1589.58 979.199 1589.38 967.036 1589.09 C 967.668 1571.87 967.105 1552.77 967.085 1535.32 L 967.036 1433.98 z" fill="rgb(0,0,0)" transform="translate(0,0)"></path>
<path d="M 1239.03 1433.98 C 1250.14 1433.79 1261.84 1433.97 1273 1433.98 C 1273.93 1485.07 1271.64 1538.36 1273 1589.09 L 1239.03 1589.09 L 1239.03 1433.98 z" fill="rgb(0,0,0)" transform="translate(0,0)"></path>
<path d="M 1239.03 1379 C 1269.57 1377.47 1277.37 1377.95 1273 1413.95 C 1264.89 1414.63 1247.76 1414.04 1239.03 1413.95 C 1239.17 1402.76 1237.91 1389.65 1239.03 1379 z" fill="rgb(0,0,0)" transform="translate(0,0)"></path>
<path d="M 967.036 1379 C 978.919 1378.66 990.022 1378 1001.9 1379 C 1001.62 1390.88 1001.72 1402.08 1001.9 1413.95 L 967.036 1413.95 C 968.97 1399.14 968.545 1393.75 967.036 1379 z" fill="rgb(0,0,0)" transform="translate(0,0)"></path>
<metadata><recraft-signature>{"signed_by": "recraft", "signature_b64": "DsnLfT4tHs8lMniTll9UWcghZTkt7ObjxG5dCa4pnikQWbWlgt6iC/MVWiBmXlyev3TterAK5wuAs6+gDaReAQ==", "signing_algo": "Ed25519", "generation_timestamp": 1772999137, "identifier": "d58f05ee-84db-4907-b31d-66462c8ecd90"}</recraft-signature></metadata></svg>