<svg xmlns="http://www.w3.org/2000/svg" height="512" preserveAspectRatio="none" style="display: block;" version="1.1" viewBox="0 0 2048 2048" width="512">
<path d="M 868.434 284.998 C 1233.06 265.247 1426.66 718.03 1149.95 958.479 C 1365.35 1072.82 1523.36 1293.46 1500.67 1545.26 C 1492.38 1637.2 1422.06 1724.1 1330.41 1743.79 C 1304.07 1749.45 1277.37 1748.69 1250.47 1748.64 L 926.25 1748.56 L 552.575 1748.6 C 529.048 1748.61 492.179 1749.52 469.966 1744.06 C 352.8 1714.06 289.49 1615.38 294.048 1497.87 C 302.545 1278.79 410.267 1092.44 602.713 980.394 C 615.682 972.85 629.293 966.493 642.15 958.479 C 408.156 751.085 504.602 379.282 800.246 296.903 C 823.833 290.33 844.463 288.356 868.434 284.998 z M 929.5 1597 L 1247.31 1597.05 C 1303.15 1597.08 1350.01 1588.23 1349.71 1515.92 C 1348.63 1254.79 1130.39 1044.15 868.434 1054.82 C 648.907 1077.28 465.931 1244.29 448.212 1469.09 C 440.379 1568.47 461.768 1597.14 560.694 1597.05 L 929.5 1597 z M 907.527 899.45 C 1035.14 893.528 1133.97 785.582 1128.63 657.945 C 1123.3 530.308 1015.81 430.984 888.146 435.731 C 759.652 440.509 659.538 548.855 664.907 677.326 C 670.276 805.796 779.082 905.411 907.527 899.45 z" fill="rgb(30,30,30)" transform="translate(0,0)"></path>
<path d="M 1349.5 503.5 C 1579.21 539.185 1710.35 789.604 1600.21 997.631 C 1590.44 1016.09 1577.1 1033.32 1564.85 1050.29 C 1640.14 1125.86 1775.54 1337.32 1750.5 1444.44 C 1746.32 1462.29 1727.78 1478.92 1711.48 1487.28 C 1679.06 1501.78 1639.64 1493.61 1620.95 1461.8 C 1609.38 1442.11 1609.07 1421.68 1604.3 1399.83 C 1573.84 1260.18 1493.54 1104.46 1385.52 1007.07 C 1544.23 928.533 1524.41 706.453 1380.24 659.628 C 1381.47 607.012 1372.85 550.906 1349.5 503.5 z" fill="rgb(91,183,218)" transform="translate(0,0)"></path>
<metadata><recraft-signature>{"signed_by": "recraft", "signature_b64": "GlBBkZcspLfYRFaLrK+0QvCODZV347vrtTWtXZMbmcuFaSH67AHwARqdQsfQJPXY0X8Gf6WGC+Fs5LEhbqTuBw==", "signing_algo": "Ed25519", "generation_timestamp": 1773000446, "identifier": "dc14ffe6-8e2b-4dfc-84b2-b5d7e234302a"}</recraft-signature></metadata></svg>