<svg xmlns="http://www.w3.org/2000/svg" height="512" preserveAspectRatio="none" style="display: block;" version="1.1" viewBox="0 0 2048 2048" width="512">
<path d="M 335.75 660.49 L 1864 660.668 C 1886.82 660.789 1876.64 711.565 1876.62 733.493 L 1876.99 1383.98 L 1717.58 1383.98 L 172.8 1383.98 L 172.821 701.248 C 172.78 646.809 167.113 660.476 235.391 660.463 L 335.75 660.49 z M 214.997 702.569 L 214.997 1342.35 L 1811.5 1342.35 L 1834.51 1342.35 L 1834.51 702.569 C 1778.2 703.928 1715.63 702.565 1658.69 702.563 L 236.716 702.569 L 214.997 702.569 z" fill="rgb(0,0,0)" transform="translate(0,0)"></path>
<path d="M 552.984 798.114 C 577.459 795.676 630.211 795.748 648.388 809.101 C 671.059 825.756 668.399 862.371 667.131 887.363 C 665.225 924.91 677.114 984.239 624.052 989.371 C 618.932 990.536 559.308 990.975 554.12 990.593 C 504.137 984.613 506.711 936.893 507.991 899.924 C 509.438 858.114 497.651 807.361 552.984 798.114 z M 552.984 941.726 C 563.117 955.881 598.087 952.393 613.067 950.08 C 634.74 939.47 624.078 850.745 620.531 845.041 C 612.569 832.238 576.468 837.996 563.911 837.079 C 544.379 847.262 553.063 919.005 552.984 941.726 z" fill="rgb(0,0,0)" transform="translate(0,0)"></path>
<path d="M 1108.5 1057.01 C 1114.06 1057.25 1118.06 1057.21 1123.57 1057.01 C 1147.85 1109.35 1170.34 1189.71 1191.39 1246 L 1142.99 1246 C 1139.4 1233.45 1137.15 1225.46 1131.15 1213.99 C 1119.49 1213.56 1105.35 1213.96 1093.5 1213.99 L 1067.64 1213.99 C 1063.6 1225.62 1061.25 1233.93 1059.04 1246 L 1008.6 1246 C 1015.68 1219.71 1027.38 1193.9 1036.26 1168.08 L 1058.43 1103.08 C 1063.35 1088.59 1069.01 1070.68 1075.43 1057.01 C 1087.38 1058.05 1096.64 1057.55 1108.5 1057.01 z M 1101.2 1174.21 C 1107.3 1174.31 1113.37 1174.47 1119.47 1174.21 C 1115.55 1161.53 1105.59 1121.3 1101.2 1112.63 C 1089.85 1135.52 1087.64 1151.4 1079.82 1174.21 C 1088.23 1174.83 1092.73 1174.7 1101.2 1174.21 z" fill="rgb(0,0,0)" transform="translate(0,0)"></path>
<path d="M 772.25 1057.01 C 780.128 1057.36 788.68 1057.1 796.623 1057.01 C 818.659 1115.27 843.802 1186.07 861.72 1246 L 812.82 1246 C 809.558 1234.6 806.711 1224.8 801.809 1213.99 C 789.879 1213.6 784.452 1213.14 772.25 1213.99 C 760.341 1213.52 752.532 1213.47 740.672 1213.99 C 736.001 1224.56 732.838 1235.03 729.289 1246 L 682.119 1246 C 698.452 1187.15 725.073 1114.48 746.435 1057.01 C 755.486 1057.3 763.194 1057.27 772.25 1057.01 z M 772.25 1174.21 L 790.673 1174.21 C 788.254 1164.62 776.512 1119.38 772.25 1112.63 C 765.594 1125.88 755.848 1158.26 750.51 1174.21 L 772.25 1174.21 z" fill="rgb(0,0,0)" transform="translate(0,0)"></path>
<path d="M 319.014 798.114 C 335.823 796.714 345.978 796.798 362.49 798.114 C 361.349 822.981 362.451 855.011 362.49 880.547 C 375.81 860.481 411.264 817.104 428.237 798.114 L 482.049 798.114 C 462.285 826.45 438.74 852.528 418.326 880.547 C 433.211 903.056 447.802 924.475 462.5 947.382 C 471.981 960.684 481.277 975.578 490.207 989.371 C 474.849 990.238 453.69 989.474 437.993 989.371 C 420.919 964.064 405.412 939.99 389.633 913.748 C 359.326 947.547 361.1 945.024 362.49 989.371 C 348.326 989.014 333.338 989.463 319.014 989.371 L 319.014 798.114 z" fill="rgb(0,0,0)" transform="translate(0,0)"></path>
<path d="M 1423.02 798.114 C 1438.11 798.437 1451.89 798.458 1466.98 798.114 C 1467.03 825.513 1465.84 858.437 1466.98 885.131 C 1486.84 858.087 1517.01 825.03 1534.54 798.114 C 1542.63 798.734 1583.01 796.125 1586.12 800.596 C 1580.76 812.944 1538.02 858.891 1527.03 874.997 C 1541.44 896.303 1557.02 924.703 1569.97 947.382 C 1576.58 957.666 1588.95 978.935 1593.8 989.371 L 1545.08 989.371 C 1528.26 962.096 1512.6 936.21 1496.57 908.506 C 1486.59 920.372 1477.6 930.444 1466.98 941.726 L 1466.98 989.371 C 1452.77 988.753 1437.18 988.061 1423.02 989.371 L 1423.02 798.114 z" fill="rgb(0,0,0)" transform="translate(0,0)"></path>
<path d="M 1015.24 798.114 C 1026.82 797.389 1045.86 798.045 1057.99 798.055 L 1142.99 798.114 L 1142.99 837.079 L 1059.04 837.079 C 1059.54 849.812 1059.24 862.262 1059.04 874.997 C 1084.47 875.363 1110.53 875.05 1136 874.997 L 1136 913.748 C 1130.01 913.387 1060.01 913.317 1059.04 913.748 L 1059.04 950.08 C 1070.08 951.312 1132.14 951.705 1142.99 950.08 C 1142.88 963.155 1142.64 976.306 1142.99 989.371 L 1058.4 989.403 C 1045.03 989.432 1028.08 990.234 1015.24 989.371 L 1015.32 855.801 C 1015.32 838.954 1014.18 814.242 1015.24 798.114 z" fill="rgb(0,0,0)" transform="translate(0,0)"></path>
<path d="M 1254.15 1057.01 C 1312.7 1055.5 1351.2 1046.79 1357 1120.52 C 1346.09 1121.4 1324.69 1120.46 1312.51 1120.52 C 1311.25 1111.72 1311.44 1102.34 1301.28 1099.34 C 1293.68 1097.1 1258.58 1096.15 1252.24 1100.21 C 1243.72 1105.66 1245 1194.72 1249.3 1199.96 C 1251.66 1202.84 1317.36 1225.43 1311.11 1177.67 L 1312.51 1176.51 C 1327.36 1176.43 1342.15 1176.35 1357 1176.51 C 1357.92 1252.53 1318.71 1246.43 1258.99 1246.16 C 1215.95 1245.97 1200.92 1223.85 1201.98 1182.43 C 1203.43 1125.64 1184.85 1067.7 1254.15 1057.01 z" fill="rgb(0,0,0)" transform="translate(0,0)"></path>
<path d="M 1593.8 798.114 L 1638.36 798.114 L 1681.58 947.382 C 1693.3 900.667 1706.96 842.977 1721.94 798.114 C 1736.7 799.282 1752.48 799.332 1767.17 798.114 C 1764.42 810.725 1761.11 822.201 1757.59 834.61 C 1748.33 883.312 1727.3 940.39 1714.51 989.371 L 1651.19 989.371 C 1636.02 939.582 1599.09 847.42 1593.8 798.114 z" fill="rgb(0,0,0)" transform="translate(0,0)"></path>
<path d="M 1176.86 798.114 L 1257.1 798.156 C 1272.36 798.214 1290.98 798.831 1306 798.114 L 1306 837.079 L 1259.92 837.079 L 1259.92 955.25 L 1259.92 989.371 C 1245.29 989.447 1230.69 989.556 1216.05 989.371 L 1216.05 837.079 C 1198.68 838.001 1184.44 837.709 1167.02 837.079 L 1167.02 798.114 L 1176.86 798.114 z" fill="rgb(0,0,0)" transform="translate(0,0)"></path>
<path d="M 883.001 798.114 C 892.248 797.609 897.488 797.535 906.691 798.114 L 906.691 950.08 C 933.32 950.014 961.641 950.806 988.015 950.08 L 988.015 989.371 L 971.186 989.371 L 861.72 989.371 C 861.713 926.041 862.46 861.279 861.72 798.114 C 868.763 797.774 875.938 798 883.001 798.114 z" fill="rgb(0,0,0)" transform="translate(0,0)"></path>
<path d="M 716.884 798.114 C 728.795 797.512 738.623 797.281 750.51 798.114 C 749.583 847.734 750.734 900.173 750.51 950.08 L 831.897 950.08 C 831.943 963.736 837.677 989.081 824.25 989.371 C 785.191 989.39 744.881 988.736 705.946 989.371 C 705.959 927.617 704.442 859.219 705.946 798.114 L 716.884 798.114 z" fill="rgb(0,0,0)" transform="translate(0,0)"></path>
<path d="M 883.001 1057.01 L 927.001 1057.01 L 927.001 1207.34 L 1005.01 1207.34 C 1005.16 1220.34 1005.19 1233 1005.01 1246 L 883.001 1246 L 883.001 1057.01 z" fill="rgb(0,0,0)" transform="translate(0,0)"></path>
<path d="M 1334.99 798.114 C 1339.01 798.889 1372.34 798.144 1379.1 798.114 L 1379.1 989.371 L 1334.99 989.371 C 1335.04 931.924 1329.83 853.834 1334.99 798.114 z" fill="rgb(0,0,0)" transform="translate(0,0)"></path>
<metadata><recraft-signature>{"signed_by": "recraft", "signature_b64": "JmA10C5SDjATXOr0CChX++TVua21ppXy+ImPLX+uueoh8thJ7VbgjiBCBB21kfBZUXQO31c0HYczRgjGk0mgCg==", "signing_algo": "Ed25519", "generation_timestamp": 1772998779, "identifier": "298db8a6-31e9-42b2-a1c0-c6d4ed78cefa"}</recraft-signature></metadata></svg>