<svg xmlns="http://www.w3.org/2000/svg" height="512" preserveAspectRatio="none" style="display: block;" version="1.1" viewBox="0 0 2048 2048" width="512">
<path d="M 1600.88 297.858 C 1667.34 298.184 1748.41 290.872 1749.01 387.481 L 1749.1 1621.81 C 1749.56 1724.02 1723.09 1749.06 1620.81 1749.03 L 446.75 1748.99 L 405.259 1749.1 C 355.241 1749.16 301.545 1730.36 301.069 1670.02 L 300.908 421.232 C 300.624 322.109 316.49 297.817 417.865 297.825 L 1600.88 297.858 z M 470.984 466.539 C 469.572 503.12 470.989 550.172 470.989 587.703 L 470.984 1577.95 L 1136.5 1577.95 L 1579.06 1577.95 L 1579.07 588.314 C 1579.07 550.785 1580.42 503.484 1579.06 466.539 L 916.998 466.539 L 470.984 466.539 z" fill="rgb(0,0,0)" transform="translate(0,0)"></path>
<path d="M 668.724 599.217 C 707.968 592.771 755.52 620.153 763.241 659.824 C 767.991 684.234 765.981 720.773 765.982 746.196 L 765.93 894.714 C 771.882 902.525 797.056 925.829 805.745 934.461 L 1013.43 1141.07 C 1024.89 1152.51 1057.59 1186.1 1069.3 1194.02 L 1327.69 1193.99 C 1340.52 1193.99 1352.79 1193.9 1365.74 1194.67 C 1456.41 1200.04 1485.74 1329.75 1379.11 1362.99 C 1366.73 1364.05 1339.18 1363.06 1325.56 1363.04 L 1099.62 1363.03 C 1001.57 1363.01 1006.85 1369.8 933.225 1296.86 L 686.787 1051.34 C 620.994 985.679 596.547 987.275 596.936 892.03 L 596.988 716.783 C 596.978 657.877 600.884 612.239 668.724 599.217 z" fill="rgb(0,0,0)" transform="translate(0,0)"></path>
<metadata><recraft-signature>{"signed_by": "recraft", "signature_b64": "nxnu3aT1mtW+dCTeq0b+DAqFJVhO/b3aXB2kEhzAxbhca39tq3jCdxlThAJPzfRuCOylJCchR5an2qgBaUUSDg==", "signing_algo": "Ed25519", "generation_timestamp": 1772998561, "identifier": "f0bf24b5-f63d-407b-87dc-2d530ffd542a"}</recraft-signature></metadata></svg>