<svg xmlns="http://www.w3.org/2000/svg" height="512" preserveAspectRatio="none" style="display: block;" version="1.1" viewBox="0 0 2048 2048" width="512">
<path d="M 233.933 301.994 L 1759.92 302.015 C 1776.1 302.03 1799.39 302.91 1814.93 301.994 L 1814.93 1734.04 L 233.933 1734.04 L 233.913 351.432 C 233.893 336.809 232.964 315.763 233.933 301.994 z M 354.998 960.003 L 1647.75 959.944 C 1659.27 959.931 1682.47 959.157 1692.9 960.003 L 1692.9 418.076 L 354.998 418.076 C 353.034 428.897 354.745 463.427 354.84 476.222 L 354.998 960.003 z M 354.998 1081.49 L 354.998 1613.55 L 1580.25 1613.55 C 1617.18 1613.55 1656.16 1612.87 1692.9 1613.55 L 1692.9 1081.49 C 1649.58 1080.42 1601.21 1081.49 1557.53 1081.49 L 472.998 1081.49 L 354.998 1081.49 z" fill="rgb(0,0,0)" transform="translate(0,0)"></path>
<metadata><recraft-signature>{"signed_by": "recraft", "signature_b64": "IQVoINnRLuGAFYksqV/oP9gAYhzkuV6SR5wvjQSsh4oxT+TrHJ04WVI4gr979RoKb/kCwurnxF9Ie/MZ79NcBQ==", "signing_algo": "Ed25519", "generation_timestamp": 1772996496, "identifier": "f0d890f2-549d-48b0-b484-2ade3397a515"}</recraft-signature></metadata></svg>