<svg xmlns="http://www.w3.org/2000/svg" height="512" preserveAspectRatio="none" style="display: block;" version="1.1" viewBox="0 0 2048 2048" width="512">
<path d="M 1241.4 967.644 C 1257.67 966.853 1278.82 967.594 1295.5 967.62 L 1481.54 967.606 C 1565.97 967.091 1638.84 975.097 1697.9 1045.74 C 1752.71 1111.29 1753.5 1163.41 1753.52 1241.96 L 1753.52 1472.71 C 1753.53 1506.73 1754.95 1539.67 1748.93 1573.33 C 1729.33 1682.89 1640.85 1750.47 1533.75 1759 L 1359.44 1759.01 C 1259.82 1759.02 1178.87 1770.57 1099.41 1697.15 C 1020.89 1624.6 1022.03 1548.69 1022.06 1451.87 L 1022.03 1241.43 C 1022.02 1209.27 1020.62 1179.86 1027.21 1148.03 C 1048.57 1044.86 1136.33 972.251 1241.4 967.644 z M 1530.25 1643.98 C 1633 1626.8 1639 1562.97 1639.04 1475.02 L 1639.04 1238.74 C 1639.03 1215.85 1640.62 1187.29 1636.73 1164.58 C 1623.87 1089.52 1556.86 1080.92 1497.16 1080.94 L 1298.48 1080.95 C 1283.44 1080.94 1258.98 1080.12 1244.63 1081 C 1148.93 1094.54 1138.53 1152.52 1138.49 1235.14 L 1138.48 1471.15 C 1138.49 1619.37 1173.26 1643.99 1314.51 1644.02 L 1460.29 1643.97 C 1480.24 1643.96 1511.66 1642.68 1530.25 1643.98 z" fill="rgb(0,0,0)" transform="translate(0,0)"></path>
<path d="M 404.063 289.998 C 426.887 288.811 460.385 289.976 484.105 289.986 L 819.127 289.969 C 849.946 289.968 881.166 288.832 911.92 290.408 C 991.438 294.482 973.015 388.061 973.019 442.872 L 973.001 759.423 C 972.993 808.698 990.667 904.054 916.25 905.996 L 456.674 906.037 C 419.895 906.065 348.25 913.52 346.634 858.269 C 345.625 823.782 346.077 789.056 346.069 754.529 L 346.078 420.153 C 346.095 368.206 332.041 293.953 404.063 289.998 z M 464.51 790 L 723.522 789.99 C 763.86 789.986 811.832 788.59 851.25 790 L 853.656 789.602 C 856.093 784.184 854.833 748.376 854.822 739.637 L 854.88 403.083 L 467.421 403.083 L 465.558 404.05 C 463.7 411.793 464.482 436.162 464.526 445.196 L 464.51 790 z" fill="rgb(0,0,0)" transform="translate(0,0)"></path>
<path d="M 630.804 976.411 C 685.349 970.066 700.464 1034.9 721.761 1072.75 C 738.596 1102.66 754.304 1134.45 770.344 1164.93 L 970.221 1543.54 C 1011.25 1621.43 910.157 1665.08 875.801 1613.77 C 861.566 1592.51 850.907 1567.51 838.972 1544.94 L 795.392 1461.26 C 783.097 1438.06 770.028 1415.09 758.871 1391.37 L 639.5 1391.37 L 514.774 1391.37 C 493.998 1434.27 470.543 1477.61 448.791 1520.44 L 418.557 1579.05 C 412.124 1591.28 405.732 1604.21 397.879 1615.47 C 373.287 1650.71 315.542 1645.61 298.092 1605.67 C 284.68 1574.97 299.839 1554.4 313.601 1528.09 L 343.246 1471 C 409.867 1340.97 481.289 1212.41 547.078 1081.97 L 573.822 1029.4 C 588.061 1001.46 595.102 980.174 630.804 976.411 z M 576.434 1278.91 L 639.5 1278.91 C 659.234 1278.9 680.147 1278.58 699.798 1278.91 C 695.048 1268.96 639.986 1162.91 639.5 1162.48 C 618.456 1192.32 592.891 1245.88 576.434 1278.91 z" fill="rgb(0,0,0)" transform="translate(0,0)"></path>
<metadata><recraft-signature>{"signed_by": "recraft", "signature_b64": "VkirhvwB/+43z2CiarvthwzN7fkTc1Cr0j2yDqjE1eM8yTvDNVsIyrAjVIM6wo4xbFqvtvLMGKtUzjgkwo6eAQ==", "signing_algo": "Ed25519", "generation_timestamp": 1772990006, "identifier": "42476317-4122-4306-b2e9-40e808975cd8"}</recraft-signature></metadata></svg>