<svg xmlns="http://www.w3.org/2000/svg" height="512" preserveAspectRatio="none" style="display: block;" version="1.1" viewBox="0 0 2048 2048" width="512">
<path d="M 370.411 387.001 C 416.598 388.619 466.379 386.997 512.835 386.991 L 1636.34 386.952 C 1703.04 386.881 1751.93 394.171 1751.99 472.468 L 1752.05 1602.63 C 1752.06 1660.2 1748.11 1717.16 1670.1 1717.7 C 1636.05 1714.62 1623.98 1697.87 1601.22 1674.96 L 1367.91 1441.55 C 1334.58 1408.18 1295.24 1364.9 1259.4 1334.87 C 1235.17 1333.77 1202.74 1334.86 1177.6 1334.87 L 438.442 1334.9 C 351.245 1335.03 295.844 1346.69 296.418 1238.19 L 296.469 518.854 C 296.449 456.341 288.562 398.903 370.411 387.001 z M 448.978 1181.95 L 1213.31 1181.95 C 1332.99 1181.83 1309.56 1172.47 1398.2 1257.6 C 1467.96 1324.6 1532.2 1400.38 1601.87 1467.13 L 1601.87 537.115 L 595.434 537.103 C 548.378 537.101 495.712 535.921 448.978 537.115 C 447.505 561.352 448.896 586.603 448.956 610.999 L 448.978 1181.95 z" fill="rgb(0,0,0)" transform="translate(0,0)"></path>
<metadata><recraft-signature>{"signed_by": "recraft", "signature_b64": "sIMpjZ3gX+TOxFnH7g+SzaqwlUd0xHhQvp8bZhnCJyBHENAkksF5mt7WWdUYDwx8OGVWwJHDA9l1qI8H6f6NBg==", "signing_algo": "Ed25519", "generation_timestamp": 1772996627, "identifier": "ddeaa571-7be0-4989-a172-300873b768b8"}</recraft-signature></metadata></svg>