<svg xmlns="http://www.w3.org/2000/svg" height="512" preserveAspectRatio="none" style="display: block;" version="1.1" viewBox="0 0 2048 2048" width="512">
<path d="M 849.754 385.016 C 883.308 384.192 918.534 382.368 938.767 407.939 C 991.787 474.949 938.306 547.276 858.491 538.907 C 743.282 546.302 638.834 599.127 555.633 677.697 C 562.836 693.889 572.196 711.329 579.885 727.8 L 656.753 890.353 C 671.176 920.278 685.69 949.647 699.569 980.106 C 720.253 1021.06 687.838 1075.95 645.112 1085.38 C 622.226 1090.43 583.557 1088.51 558.832 1088.51 L 420.509 1088.46 C 419.588 1104.62 422.023 1115.6 425.68 1131.3 C 470.583 1324.04 662.853 1504.04 865.029 1505.07 C 866.648 1454.37 853.002 1371.05 889.69 1335.46 C 918.821 1307.19 944.636 1309.78 981.038 1309.69 L 1037.63 1309.51 C 1087.59 1309.67 1093.93 1335.88 1124.11 1368.44 C 1203.76 1454.39 1325.78 1372.34 1371.14 1451.54 C 1383.86 1473.56 1381.94 1492.85 1381.99 1517.23 C 1382.06 1550.17 1384.08 1585.78 1377.29 1617.72 C 1333.79 1823.16 1050.88 1881.65 912.043 1710.93 C 900.545 1696.79 892.226 1683.67 882.49 1668.39 C 853.81 1662.36 819.872 1662.44 788.786 1655.91 C 506.205 1596.57 291.436 1378.04 258.996 1086.27 C 218.115 718.581 491.277 418.09 849.754 385.016 z M 420.509 926.992 L 467.5 926.992 C 478.156 927.002 489.173 927.148 499.797 926.992 C 494.569 915.824 456.916 832.308 453.233 828.641 C 438.033 865.66 428.575 887.76 420.509 926.992 z" fill="rgb(0,0,0)" transform="translate(0,0)"></path>
<path d="M 1476.36 233.993 C 1641.69 222.39 1790.7 346.533 1791.62 515.456 L 1791.54 819.552 C 1791.55 834.332 1792.54 849.968 1790.07 864.568 C 1775.93 948.368 1658.09 954.933 1636.71 877.031 C 1631 856.23 1633.96 789.266 1634.02 763.94 L 1530.5 763.94 L 1373 763.94 L 1373.08 819.524 C 1373.26 848.961 1378.24 875.493 1359.21 901.087 C 1325.27 946.139 1255.5 940.578 1228.72 891.019 C 1214.4 864.514 1218.12 839.933 1218.14 810.583 L 1218.18 576.153 C 1218.17 536.96 1215.6 494.184 1223.79 456 C 1250.82 329.963 1351.31 249.887 1476.36 233.993 z M 1373 609.995 L 1512.5 609.995 L 1634.02 609.995 L 1634.08 546.31 C 1634.07 473.786 1613.7 408.748 1531.01 391.028 C 1519.42 388.544 1507.42 387.504 1495.68 385.016 C 1356.72 417.195 1374.01 492.307 1373 609.995 z" fill="rgb(0,0,0)" transform="translate(0,0)"></path>
<metadata><recraft-signature>{"signed_by": "recraft", "signature_b64": "d+2rQSNY6Wv9K8grnJR20Kxvl88tv6Mnpgj5FSmxw1KRkbYZNGsLQP+tMU0BPrgJ0XHBi8TkoWGGo2gkJutBDQ==", "signing_algo": "Ed25519", "generation_timestamp": 1772989678, "identifier": "1468ec93-c29e-4f93-83c3-3a85d997b812"}</recraft-signature></metadata></svg>