<svg xmlns="http://www.w3.org/2000/svg" height="512" preserveAspectRatio="none" style="display: block;" version="1.1" viewBox="0 0 2048 2048" width="512">
<path d="M 669.231 295.011 C 855.611 279.935 1013.6 465.467 979.027 649.496 C 974.373 674.274 967.199 695.457 958.671 719.001 L 1089.82 719.001 C 977.407 477.151 1240.11 201.947 1493.05 323.778 C 1642.83 395.923 1710.64 572.558 1637.64 724.171 C 1739.76 732.7 1815.08 814.282 1811.41 916.935 C 1810.74 935.727 1811.37 956.474 1811.35 975.427 L 1811.41 1502.89 C 1811.69 1566.22 1809.63 1611.05 1769.84 1664.52 C 1714.45 1737.48 1645.24 1748.63 1560.01 1746.83 C 1481.08 1745.17 1401.89 1746.98 1322.85 1746.99 L 778.004 1746.97 C 711.626 1746.97 645.355 1747.55 578.998 1745.92 C 499.008 1743.96 403.683 1762.46 333.288 1714.13 C 254.568 1660.42 235.992 1596.94 235.993 1509.06 L 236.015 999.815 C 235.961 929.629 227.779 866.884 268.98 805.34 C 304.578 752.165 349.958 730.997 409.273 719.001 C 317.548 527.279 462.617 293.554 669.231 295.011 z M 984.49 1011.89 C 1267.36 1084.92 1267.52 1449.51 1011.69 1523.94 C 1004.57 1526.01 997.214 1527.64 989.998 1529.62 C 989.328 1605.78 1022.58 1610.9 1093.02 1610.92 L 1425.75 1610.9 L 1548.55 1610.93 C 1658.11 1610.89 1677.08 1601.13 1677 1486.93 L 1676.98 969.31 C 1677.02 928.208 1684.27 866.094 1631.27 855.054 C 1597.74 848.068 1553.1 850.206 1517.44 850.277 C 1510.19 857.529 1499.83 863.235 1490.67 867.719 C 1394.75 914.626 1296.57 903.388 1206.94 850.277 L 1065.38 850.277 C 968.707 856.859 981.909 938.394 984.49 1011.89 z M 670.433 431.827 C 580.359 439.502 513.594 518.792 521.366 608.857 C 529.137 698.922 608.498 765.603 698.555 757.735 C 788.476 749.879 855.034 670.664 847.274 580.735 C 839.514 490.805 760.37 424.163 670.433 431.827 z M 859.019 1610.9 C 845.02 1567.08 848.645 1504.19 850.713 1458.41 C 858.048 1396.87 904.976 1401.69 945.915 1397.6 C 1092.66 1382.95 1098 1163.41 950.013 1143.63 C 908.7 1138.11 854.619 1151.42 850.918 1079.94 C 849.99 1020.35 839.736 901.527 865.352 850.277 C 860.069 849.98 855.851 849.51 850.591 850.277 C 832.763 856.509 813.761 869.845 794.19 877.301 C 720.317 905.444 638.268 905.023 566.011 871.736 C 559.158 868.627 537.918 856.396 532.325 855.911 C 482.415 851.699 372.208 840.127 371.064 915.319 C 370.589 946.581 370.945 978.523 370.964 1009.99 L 371.01 1421.39 C 370.975 1482.18 350.728 1600.49 435.002 1609.63 C 451.048 1611.41 468.719 1610.94 484.951 1610.95 L 561.5 1610.9 L 760.585 1610.88 C 791.649 1610.87 828.701 1609.81 859.019 1610.9 z M 1348.49 431.641 C 1258.42 439.922 1192.11 519.648 1200.38 609.723 C 1208.65 699.797 1288.36 766.118 1378.44 757.861 C 1468.53 749.603 1534.87 669.868 1526.6 579.776 C 1518.33 489.684 1438.58 423.358 1348.49 431.641 z" fill="rgb(0,0,0)" transform="translate(0,0)"></path>
<metadata><recraft-signature>{"signed_by": "recraft", "signature_b64": "CbdjWTed+tw9tizQ7bT31OLrYMETwqCMs6SmJbMXDsoTDpGBBvvp27RUfPDrT0b2JQP8JcQ3OLNxi08Bg6GcBA==", "signing_algo": "Ed25519", "generation_timestamp": 1772990407, "identifier": "dfab2062-6c54-46d7-a4dc-05a45696b6b5"}</recraft-signature></metadata></svg>