<svg xmlns="http://www.w3.org/2000/svg" height="512" preserveAspectRatio="none" style="display: block;" version="1.1" viewBox="0 0 2048 2048" width="512">
<path d="M 1718.77 297.297 C 1781.52 291.207 1826.32 352.912 1793.73 406.255 C 1778.87 430.578 1724.52 477.782 1702.54 500.107 L 477.43 1724.66 C 465.309 1736.53 452.7 1741.32 436.518 1744.91 C 394.766 1747.04 363.596 1732.52 353.003 1689.35 C 342.789 1647.71 369.753 1623.87 395.844 1597.65 L 1680.29 315.802 C 1691.79 304.582 1703.31 300.255 1718.77 297.297 z" fill="rgb(0,0,0)" transform="translate(0,0)"></path>
<path d="M 1698.59 897.244 C 1756.09 887.984 1785.44 932.499 1785.83 984.234 L 1785.8 1502.7 C 1785.79 1613.09 1769.28 1624.18 1658.74 1624.14 L 1112.18 1624.11 C 1000.09 1632.94 995.813 1490.03 1084.27 1479.65 C 1103.81 1477.36 1125.08 1478.43 1144.52 1478.44 L 1636.01 1478.48 L 1636 1018.49 C 1635.95 965.461 1630.3 909.928 1698.59 897.244 z" fill="rgb(0,0,0)" transform="translate(0,0)"></path>
<path d="M 313.856 599.784 C 318.485 599.05 333.641 599.541 338.764 599.605 L 914.557 599.733 C 940.074 599.628 968.802 595.898 989.931 611.334 C 1048.7 654.266 1025.68 732.932 956.361 746.009 C 943.133 746.543 926.958 746.024 913.43 746.024 L 393.531 746.038 C 366.118 746.036 337.872 746.764 310.613 745.265 C 232.488 740.969 215.153 611.581 313.856 599.784 z" fill="rgb(0,0,0)" transform="translate(0,0)"></path>
<metadata><recraft-signature>{"signed_by": "recraft", "signature_b64": "idkZmRziwHYdAaZiEtgvXuZTtF9Q4tdr/y+WYuwfKoJ4QBKvYY8QKijcjaDuQqZwQsTFzfjm7ZLX+a0JdluxCA==", "signing_algo": "Ed25519", "generation_timestamp": 1772998443, "identifier": "d17c438f-8e88-405f-a6a5-c892619bd500"}</recraft-signature></metadata></svg>