<svg xmlns="http://www.w3.org/2000/svg" height="512" preserveAspectRatio="none" style="display: block;" version="1.1" viewBox="0 0 2048 2048" width="512">
<path d="M 996.851 252.978 C 1137.12 237.088 1276.94 342.488 1303.64 480.931 C 1365.53 480.252 1428.59 480.953 1490.58 480.941 L 1539.18 480.863 C 1558.92 480.672 1577.5 479.312 1596.99 483.211 C 1674.06 498.633 1734.53 561.7 1742.24 641.123 C 1744.03 659.634 1743.54 678.04 1743.54 696.511 L 1743.62 1353.22 C 1744.16 1449.61 1709.46 1536.63 1604.6 1561.44 C 1577.55 1567.84 1550.37 1566.02 1522.59 1566 L 1326.6 1566.03 C 1304.79 1565.93 1298.14 1560.21 1291.97 1584.27 C 1263.33 1696.04 1166.07 1780.51 1050.77 1792.01 C 898.467 1800.68 786.715 1708.83 748.339 1566.01 C 661.848 1566 574.775 1565.15 488.458 1567.04 C 385.535 1569.29 304.666 1486.33 304.012 1384.52 L 303.994 713.305 C 303.926 642.813 299.599 585.995 353.729 530.517 C 412.306 470.481 479.605 480.955 554.957 480.966 L 751.82 480.931 C 777.122 351.436 868.86 270.995 996.851 252.978 z M 457.729 728.987 C 724.254 727.998 856.393 1045.67 674.744 1223.64 C 612.193 1284.46 543.569 1308.59 457.729 1307.92 C 457.621 1347.13 442.98 1413.82 496.168 1414.08 L 796.984 1413.91 C 847.005 1413.47 900.446 1425.41 901.129 1489.64 C 901.253 1501.36 900.491 1512.85 901.211 1524.52 C 914.808 1661.29 1115.01 1679.75 1146.83 1538.43 C 1151.3 1518.57 1147.64 1499.73 1149.34 1480.59 C 1152.56 1444.23 1186.52 1413.52 1223.03 1413.7 L 1483.79 1413.93 C 1513.03 1413.8 1544.74 1414.62 1574.14 1413.32 C 1596.43 1412.33 1587.57 1356.22 1587.56 1337.52 L 1587.57 1212.71 L 1587.63 789.591 C 1587.66 778.998 1588.86 757.33 1587.57 748.277 C 1570.02 767.424 1548.61 785.563 1530.03 803.827 L 1358.43 974.865 C 1337.21 996.287 1310.65 1024.63 1288.49 1044.24 L 1288.49 1179.05 C 1288.52 1203.54 1290.91 1246.12 1285.41 1268.78 C 1271.31 1326.93 1196.61 1345.87 1155.6 1302.11 C 1128 1273.42 1135.99 1236.07 1135.5 1199.98 C 1105.16 1226.02 1043.37 1299.64 1014.83 1315.92 C 959.602 1347.43 892.571 1304.39 897.764 1241.12 C 900.6 1206.57 931.562 1184.42 954.729 1161.4 L 1351.28 761.923 C 1389.27 723.657 1439.8 666.962 1480.5 633.959 L 1481.71 632.977 C 1461.57 632.409 1440.19 632.968 1419.87 632.985 L 1298.38 633.009 C 1254.56 632.997 1204.43 640.944 1170.77 606.813 C 1145.88 581.576 1152.4 551.146 1150.24 519.927 C 1145.79 455.541 1086.71 405.338 1023.69 406.104 C 958.926 406.571 898.003 460.935 898.993 525.429 C 900.044 593.879 882.896 632.352 806.259 633.026 L 517.643 632.915 C 502.072 632.849 464.339 628.486 459.702 650.358 C 455.251 671.36 456.277 706.362 457.729 728.987 z M 457.729 1153.95 C 499.972 1153.44 532.371 1144.77 563.919 1115.4 C 573.391 1104.58 582.925 1094.08 589.596 1081.22 C 639.392 985.247 563.321 885.823 457.729 886.937 L 457.704 1066.15 C 457.698 1091.32 456.435 1129.71 457.729 1153.95 z" fill="rgb(0,0,0)" transform="translate(0,0)"></path>
<metadata><recraft-signature>{"signed_by": "recraft", "signature_b64": "fee444VLmFwmBf+kk1WXUadBdh8hJWBQtkM+cm9zaAoXxFbpQ/J7r0dxIsLkhiDKlivWCLBBs9sDV5yrMvoBDQ==", "signing_algo": "Ed25519", "generation_timestamp": 1772995558, "identifier": "eee44e66-a386-4135-8f44-4323505866a9"}</recraft-signature></metadata></svg>