<svg xmlns="http://www.w3.org/2000/svg" height="512" preserveAspectRatio="none" style="display: block;" version="1.1" viewBox="0 0 2048 2048" width="512">
<path d="M 496.476 480.177 C 497.907 480.078 499.534 479.945 500.964 479.951 L 1509.54 480.15 C 1612.11 480.377 1695.15 525.707 1695.73 637.484 L 1695.73 987.77 C 1695.73 1012.37 1696.94 1039.71 1691.65 1063.08 C 1667.31 1170.58 1579.99 1183.21 1490.49 1183.23 L 1073.33 1183.22 L 1073.36 1255 C 1073.41 1268.6 1074.06 1283.88 1073.33 1297.22 C 1078.47 1301.47 1083.43 1305.96 1088.17 1310.66 C 1190.48 1411.92 1291.81 1514.26 1392.76 1616.86 C 1420.14 1644.7 1403.69 1692.11 1364.47 1697.12 C 1334.97 1700.89 1323.64 1683.88 1304.8 1665.22 C 1263.84 1623.58 1223.14 1581.72 1180.92 1541.28 C 1144.85 1505.8 1109.67 1469.58 1073.33 1434.3 L 1073.35 1584.84 C 1073.36 1628.3 1086.48 1695.47 1024.01 1698.43 C 964.104 1701.26 975.574 1622.68 975.569 1585.38 L 975.598 1434.3 C 949.772 1455.82 914.805 1493.22 890.292 1517.97 L 777.888 1629.64 C 760.361 1647.11 743.054 1664.66 725.924 1682.44 C 694.361 1713.27 638.212 1697.52 639.686 1648.81 C 640.519 1621.27 672.749 1599.73 690.758 1581.77 L 919.669 1352.96 C 937.991 1334.68 956.781 1314.69 975.598 1297.22 L 975.598 1183.22 C 942.134 1184.12 904.138 1183.25 870.412 1183.24 L 552.281 1183.26 C 385.113 1183.26 353.968 1123.9 354.077 963.821 L 354.064 685.111 C 354.132 627.388 350.009 581.533 390.261 534.232 C 417.869 501.79 454.477 484.198 496.476 480.177 z M 864.037 1088.51 L 1185 1088.51 L 1185.03 631.361 C 1185.03 613.083 1185.55 592.036 1185 574.001 L 864.037 574.001 L 864.037 1088.51 z M 1281 1088.51 L 1514.3 1088.67 C 1542.89 1088.94 1558.96 1090.5 1581.54 1070.82 C 1607.19 1041.62 1600.87 1010.23 1600.89 973.357 L 1600.9 723.147 C 1600.88 670.326 1615.6 587.704 1546.26 575.542 C 1520.46 571.016 1487.79 574.024 1460.75 574.029 L 1281 574.001 C 1280.05 630.231 1281 689.562 1281 746.012 L 1281 1088.51 z M 707.804 1088.51 L 769.024 1088.51 C 769.975 1032.64 769.019 973.646 769.018 917.583 L 769.024 574.001 L 510.696 574.001 C 445.978 580.973 450.98 632.377 450.981 679.378 L 450.987 955.343 C 450.831 1085.47 448.536 1088.56 567.575 1088.47 L 707.804 1088.51 z" fill="rgb(0,0,0)" transform="translate(0,0)"></path>
<path d="M 1022.15 738.705 C 1073.96 737.018 1117.34 777.612 1119.1 829.419 C 1120.86 881.226 1080.32 924.668 1028.52 926.498 C 976.614 928.332 933.069 887.701 931.307 835.793 C 929.545 783.885 970.235 740.395 1022.15 738.705 z" fill="rgb(0,242,123)" transform="translate(0,0)"></path>
<path d="M 1429.76 736.643 C 1482.12 729.699 1530.23 766.416 1537.35 818.753 C 1544.47 871.091 1507.92 919.328 1455.61 926.626 C 1403.04 933.959 1354.52 897.191 1347.37 844.603 C 1340.21 792.015 1377.15 743.621 1429.76 736.643 z" fill="rgb(1,196,0)" transform="translate(0,0)"></path>
<path d="M 599.309 739.616 C 650.669 734.427 696.539 771.788 701.849 823.136 C 707.159 874.483 669.905 920.44 618.57 925.871 C 567.065 931.319 520.921 893.915 515.594 842.397 C 510.266 790.878 547.779 744.823 599.309 739.616 z" fill="rgb(246,212,31)" transform="translate(0,0)"></path>
<metadata><recraft-signature>{"signed_by": "recraft", "signature_b64": "quevUcxJpUhrshFH7e/DjRrvafjzcZ6QGcF4s4V2P0FpFLxDN04ra+RkGNj4IgL0z/ExGYPW4fS9U6GsjeTICg==", "signing_algo": "Ed25519", "generation_timestamp": 1772989212, "identifier": "1f0908af-7173-4f1e-b455-3e5537b97ab9"}</recraft-signature></metadata></svg>