<svg xmlns="http://www.w3.org/2000/svg" height="512" preserveAspectRatio="none" style="display: block;" version="1.1" viewBox="0 0 2048 2048" width="512">
<path d="M 444.411 300.011 C 465.688 298.863 497.906 299.972 520.249 299.988 L 1543.19 299.959 C 1564.89 299.945 1586.78 299.323 1608.38 301.582 C 1678.92 308.96 1739.99 370.707 1747.58 440.99 C 1749.85 462.004 1749.05 484.013 1749.04 505.202 L 1749.03 1524.73 C 1749.03 1547.33 1750.14 1573.39 1748.34 1595.71 C 1742.07 1673.27 1680.62 1737.1 1603.24 1746.59 C 1579.04 1747.58 1548.91 1746.6 1524.24 1746.6 L 499.413 1746.64 C 413.51 1746.66 333.819 1731.7 306.416 1632.55 C 298.635 1604.39 300.86 1578.78 300.898 1550 L 300.913 501.317 C 300.911 489.074 301.336 474.894 300.861 462.779 C 297.432 375.231 359.845 309.458 444.411 300.011 z M 467.981 467.446 C 467.346 507.998 467.976 550.247 467.978 590.945 L 467.981 1580.99 L 1326.5 1580.99 L 1581.01 1580.99 C 1581.7 1540.63 1581.02 1498.26 1581.01 1457.73 L 1581.01 467.446 L 724.371 467.446 L 551.077 467.459 C 528.851 467.468 488.55 468.898 467.981 467.446 z" fill="rgb(0,0,0)" transform="translate(0,0)"></path>
<path d="M 1014.29 557.541 C 1161.58 550.288 1295.04 663.2 1318.52 807.532 C 1333.65 900.48 1309.58 974.068 1256.1 1048.8 C 1370.8 1123.06 1454.52 1215.56 1485.85 1353.11 C 1490.82 1373.56 1494.48 1393.72 1493.93 1414.89 C 1491.5 1507.43 1357.56 1523.88 1333.6 1438.1 C 1326.32 1412.06 1325.82 1384.09 1315.93 1356.89 C 1273.78 1240.99 1162.59 1160.42 1039.24 1154.57 C 898.174 1148.78 771.227 1235.15 728.327 1370.75 C 721.638 1391.89 721.708 1413.43 715.55 1432.98 C 683.479 1534.78 539.445 1499.29 555.991 1394.78 C 578.185 1251.75 656.28 1117.67 787.697 1048.8 C 639.056 850.712 766.426 571.099 1014.29 557.541 z M 1037.49 990.854 C 1112.71 983.734 1167.99 917.094 1161.09 841.85 C 1154.2 766.606 1087.72 711.127 1012.46 717.8 C 936.876 724.502 881.112 791.319 888.038 866.879 C 894.965 942.44 961.947 998.005 1037.49 990.854 z" fill="rgb(0,0,0)" transform="translate(0,0)"></path>
<metadata><recraft-signature>{"signed_by": "recraft", "signature_b64": "t28gNr+D9xcpNMCkayQEpZy1gEd89ilWndULRF+HafjW/KTH6Z84w+/ZUPOJW5jYvtMJ0tKXaoy7BJ3TT3NUCg==", "signing_algo": "Ed25519", "generation_timestamp": 1772990190, "identifier": "b2347b22-9689-4ed1-91ac-4ed820171f54"}</recraft-signature></metadata></svg>