<svg xmlns="http://www.w3.org/2000/svg" height="512" preserveAspectRatio="none" style="display: block;" version="1.1" viewBox="0 0 2048 2048" width="512">
<path d="M 340.322 352.778 L 778.684 352.724 C 799.777 352.707 829.876 350.064 848.829 358.608 C 925.34 393.099 906.599 509.756 819.186 509.291 L 417.49 509.514 C 416.13 542.843 417.48 587.554 417.482 621.625 L 417.49 1535.1 L 952.5 1535.1 L 1051.47 1535.08 C 1074.54 1535.07 1097.19 1534.5 1120.26 1536.44 C 1219.95 1544.84 1217.3 1696.74 1109.19 1695.49 C 1056.67 1694.88 1003.88 1695.11 951.357 1695.11 L 344.663 1695.12 C 269.193 1694.77 256.928 1647.29 256.958 1582.72 L 256.322 431.003 C 255.693 378.052 290.02 352.584 340.322 352.778 z" fill="rgb(0,0,0)" transform="translate(0,0)"></path>
<path d="M 1070.85 352.778 C 1117.74 341.171 1143.22 383.624 1161.09 417.243 L 1711.43 1450.36 C 1733.11 1491.41 1753.99 1532.99 1777.08 1573.28 C 1814.92 1646.32 1758.81 1715.27 1688.38 1693.33 C 1651.89 1681.97 1643.07 1659.41 1626.83 1628.88 L 1216.17 857.098 L 1139.59 714.261 C 1120 677.558 1100.03 639.367 1078.99 603.497 C 1057.63 639.413 1037.27 679.021 1017.78 716.001 L 674.536 1348.12 C 653.162 1387.86 633.29 1440.69 581.425 1445.2 C 518.643 1450.66 475.044 1386.23 504.652 1329.75 C 540.639 1261.11 578.196 1193.11 614.89 1124.74 L 992.108 424.006 C 1011.98 387.145 1022.63 355.352 1070.85 352.778 z" fill="rgb(0,0,0)" transform="translate(0,0)"></path>
<metadata><recraft-signature>{"signed_by": "recraft", "signature_b64": "kVdCpTwqEq2HkhUaaIQgA+v6Q9wxBMsBQCRzgOb8CumWox0ScUKuwJ/vz2/uwkOJO7y2jUPuSDF2DdLUbkKtDg==", "signing_algo": "Ed25519", "generation_timestamp": 1772998945, "identifier": "234e669a-0864-4dd7-a77a-33c6572dee49"}</recraft-signature></metadata></svg>