<svg xmlns="http://www.w3.org/2000/svg" height="512" preserveAspectRatio="none" style="display: block;" version="1.1" viewBox="0 0 2048 2048" width="512">
<path d="M 633.652 255.819 C 649.344 254.392 672.651 255.75 688.828 255.78 L 1326.03 255.83 C 1359.62 255.778 1399.74 253.975 1432.43 257.795 C 1489.76 264.498 1536.04 322.933 1536.72 379.501 C 1537.12 413.506 1536.97 447.537 1536.96 481.53 L 1536.97 773.734 C 1536.97 788.955 1537.05 804.459 1536.84 819.41 C 1535.87 888.858 1483.85 937.395 1416.4 940.01 L 699.628 939.997 C 647.201 939.97 601.164 947.965 557.166 911.505 C 501.679 865.523 511.313 802.932 511.317 738.788 L 511.367 386.486 C 511.332 314.806 561.858 261.156 633.652 255.819 z M 1251.5 853.054 L 1371.64 853.101 C 1443.49 853.158 1449.68 860.456 1449.6 777.033 L 1449.74 385.29 C 1449.29 329.048 1391.03 342.492 1350.41 342.505 L 798.774 342.512 L 682.571 342.47 C 594.602 342.476 597.734 340.921 597.992 426.629 L 598.047 710.922 C 597.991 745.621 597.64 780.58 598.407 815.282 C 599.539 866.564 660.832 853.168 698.484 853.121 L 1251.5 853.054 z" fill="rgb(35,43,47)" transform="translate(0,0)"></path>
<path d="M 853.932 456.33 C 879.379 453.496 886.78 480.157 895.65 498.54 C 915.914 540.542 976.104 654.057 985.649 695.367 C 980.499 713.765 965.804 727.144 945.592 718.653 C 930.882 712.474 924.068 688.996 918.939 674.571 L 867.5 674.571 L 798.774 674.571 C 776.908 752.598 723.082 714.002 734.805 683.853 C 740.949 668.053 749.686 651.087 756.804 635.23 L 812.735 513.866 C 822.882 492.313 829.443 460.69 853.932 456.33 z M 859.5 619.539 L 893.619 619.539 L 867.755 564.182 C 865.992 560.33 860.685 546.545 859.5 544.479 C 846.741 564.271 832.711 596.81 824.042 619.539 L 859.5 619.539 z" fill="rgb(35,43,47)" transform="translate(0,0)"></path>
<path d="M 1192.06 456.33 C 1216.84 454.394 1263.81 455.37 1288.71 457.037 C 1321.77 459.25 1325.32 501.907 1295.91 510.339 C 1278.55 515.317 1209.6 510.596 1187.41 511.653 C 1162.16 537.768 1175.15 610.1 1173.86 649.988 C 1200.11 679.103 1259.03 658.956 1298.18 664.714 C 1324.43 682.11 1320.1 716.345 1288.32 718.812 C 1263.56 720.734 1235.23 717.419 1210.29 719.05 C 1125.87 724.575 1117.88 657.984 1119.02 593.08 C 1120.05 534.105 1113.04 465.188 1192.06 456.33 z" fill="rgb(35,43,47)" transform="translate(0,0)"></path>
<path d="M 1500.51 1023.01 C 1732.71 1007.94 1796.34 1351.23 1541.47 1407.01 C 1654.59 1412.22 1792.11 1386.76 1793.51 1549.68 L 1793.59 1685.05 C 1793.62 1709.74 1794.9 1737.21 1791.95 1761.7 C 1788.27 1792.37 1724.32 1812.45 1706.62 1762.6 C 1702.89 1750.91 1704.29 1725 1704.29 1711.5 L 1704.29 1581.28 C 1704.24 1482.79 1700.46 1493.58 1611.82 1493.61 L 1475.5 1493.66 L 1406.59 1493.56 C 1320.82 1493.49 1335.56 1508.09 1315.88 1580.01 C 1299.47 1639.96 1284.17 1700.49 1268.47 1760.58 C 1263.64 1780.5 1236.5 1797.98 1216.99 1792.25 C 1164.27 1776.79 1183.04 1729.4 1193.44 1693.09 L 1234.69 1540.84 C 1251.81 1475.7 1278.78 1403.32 1363.44 1406.39 C 1403.19 1407.84 1444.42 1405.47 1484.3 1407.01 C 1445.75 1394.96 1427.77 1393.82 1393.28 1367.6 C 1252.24 1260.37 1317.17 1048.11 1500.51 1023.01 z M 1524.5 1321.02 C 1582.88 1315.29 1625.6 1263.4 1620.01 1205.01 C 1614.42 1146.63 1562.64 1103.78 1504.24 1109.22 C 1445.63 1114.68 1402.6 1166.69 1408.21 1225.28 C 1413.82 1283.87 1465.93 1326.77 1524.5 1321.02 z" fill="rgb(35,43,47)" transform="translate(0,0)"></path>
<path d="M 519.223 1404.95 C 344.031 1393.67 280.471 1179.19 410.372 1067.66 C 541.622 954.989 742.383 1061.65 726.444 1234.74 C 718.653 1319.35 643.45 1399.68 556.919 1404.95 C 549.802 1404.21 527.163 1404.91 519.223 1404.95 z M 546.475 1320.7 C 604.579 1313.93 646.288 1261.47 639.802 1203.34 C 633.315 1145.2 581.072 1103.23 522.904 1109.43 C 464.329 1115.68 422.003 1168.37 428.534 1226.91 C 435.066 1285.45 487.965 1327.52 546.475 1320.7 z" fill="rgb(35,43,47)" transform="translate(0,0)"></path>
<path d="M 519.223 1404.95 C 527.163 1404.91 549.802 1404.21 556.919 1404.95 L 556.919 1407.01 L 630.283 1406.96 C 698.039 1406.96 756.779 1406.81 790.169 1480.33 C 809.391 1522.66 829.332 1613.21 842.295 1659.88 L 858.708 1720.18 C 878.162 1793.05 810.54 1812.17 783.709 1773.67 C 769.51 1753.29 720.407 1554.42 710.266 1518.71 C 701.258 1486.98 667.585 1493.56 641.605 1493.64 L 445.332 1493.66 C 369.054 1493.67 345.023 1477.01 345.078 1565.97 L 345.187 1696.5 C 345.219 1719.75 350.592 1762.31 334.31 1779.06 C 304.511 1809.72 257.219 1788.66 257.299 1746.08 L 257.839 1558.07 C 257.746 1433.65 313.214 1406.78 427.992 1406.96 L 511.306 1407.01 L 519.223 1404.95 z" fill="rgb(35,43,47)" transform="translate(0,0)"></path>
<path d="M 519.223 1404.95 C 527.163 1404.91 549.802 1404.21 556.919 1404.95 L 556.919 1407.01 C 542.507 1407.46 526.408 1406.69 511.306 1407.01 L 519.223 1404.95 z" fill="rgb(137,138,147)" transform="translate(0,0)"></path>
<metadata><recraft-signature>{"signed_by": "recraft", "signature_b64": "PM8aIF43onIpnVX25HvsLwmxNGakKAJdyl02gfc7LRZLTB6unXbtyX5zJaYj2Ok6MkTNiMjLNkb55XWuqkauAg==", "signing_algo": "Ed25519", "generation_timestamp": 1772998206, "identifier": "5c9aaa31-5fcd-4ad6-93d7-6167a55f9f6f"}</recraft-signature></metadata></svg>