<svg xmlns="http://www.w3.org/2000/svg" height="512" preserveAspectRatio="none" style="display: block;" version="1.1" viewBox="0 0 2048 2048" width="512">
<path d="M 339.012 283.883 L 1711 283.883 L 1711 1759.97 L 1570.05 1759.97 L 1570.05 710.544 L 1260.96 710.542 C 1205.66 710.544 1149.18 709.939 1093.98 710.544 L 1093.98 1149.5 L 1093.98 1556.34 C 1093.98 1623.75 1093.22 1692.68 1093.98 1759.97 C 1082.44 1760.85 1060.33 1760.04 1047.89 1760.03 L 954.623 1759.97 L 954.623 710.544 L 477.828 710.544 L 477.828 1759.97 L 339.012 1759.97 L 339.015 447.131 C 339.013 393.078 338.316 337.779 339.012 283.883 z M 477.828 573.249 C 513.151 573.98 550.923 573.254 586.485 573.251 L 1458.5 573.249 L 1570.05 573.249 L 1570.05 421.715 L 594.478 421.715 L 477.828 421.715 L 477.828 573.249 z" fill="rgb(0,0,0)" transform="translate(0,0)"></path>
<metadata><recraft-signature>{"signed_by": "recraft", "signature_b64": "8GXe05ceh1csuH/X+03NqcpjmEcsjml6DF10JhzRV+B0o5wVoee2BCwrPF5SFe7oMic2pWACofOj1jj4TeoVBw==", "signing_algo": "Ed25519", "generation_timestamp": 1772998789, "identifier": "1404eb3f-40ca-4681-8700-fd2a05220b08"}</recraft-signature></metadata></svg>