<svg xmlns="http://www.w3.org/2000/svg" height="512" preserveAspectRatio="none" style="display: block;" version="1.1" viewBox="0 0 2048 2048" width="512">
<path d="M 396.788 471.009 C 403.503 470.221 434.035 470.927 442.497 470.937 L 1547.08 470.987 C 1646.29 470.989 1756.22 463.406 1787.53 589.429 C 1794.39 617.024 1792.09 647.954 1792.01 676.344 L 1792.06 1386.16 C 1792.14 1397.13 1793.01 1410.55 1792.24 1421.24 C 1786.23 1504.43 1727.86 1548.62 1654.2 1568.03 C 1647.58 1567.53 1630.68 1568.06 1623.44 1568.06 L 499.407 1568.05 C 436.34 1568.05 380.176 1576.84 325.386 1540.18 C 265.52 1500.13 256.753 1449.81 256.903 1385.14 L 256.875 662.711 C 256.406 558.109 282.939 491.047 396.788 471.009 z M 418.001 1406.02 L 1629.02 1406.02 L 1629.02 995.991 L 418.001 995.991 L 418.05 1360.88 C 418.102 1373.69 418.888 1393.9 418.001 1406.02 z M 418.001 836.993 L 1625.25 836.993 L 1628.06 836.546 C 1629.78 833.591 1629.03 651.686 1629.02 632.49 L 428.577 632.49 C 425.035 632.615 421.211 632.245 418.33 633.745 C 417.102 655.19 417.941 684.225 417.945 706.122 L 418.001 836.993 z" fill="rgb(0,0,0)" transform="translate(0,0)"></path>
<path d="M 511.028 1151.31 C 520.942 1150.63 535.588 1151.24 545.951 1151.26 L 833.024 1151.31 C 833.016 1204.97 833.58 1259.5 833.024 1313.07 L 511.028 1313.07 L 511.028 1151.31 z" fill="rgb(0,0,0)" transform="translate(0,0)"></path>
<metadata><recraft-signature>{"signed_by": "recraft", "signature_b64": "PR40yVHqoTeUowaIUVFYdzI2Rc3Wkxi0aVR4wZdQ9/kiYmx1d18JqaSpbnvLJb5ex9z6k/Cml/XFd0vEYVB7Dg==", "signing_algo": "Ed25519", "generation_timestamp": 1772998935, "identifier": "54357871-22a4-42db-be4b-4372ec5b7403"}</recraft-signature></metadata></svg>