<svg xmlns="http://www.w3.org/2000/svg" height="512" preserveAspectRatio="none" style="display: block;" version="1.1" viewBox="0 0 2048 2048" width="512">
<path d="M 580.619 621 C 585.472 620.391 607.452 620.904 613.985 620.919 L 1416.54 620.964 C 1439.5 620.962 1466.49 619.668 1488.9 622.9 C 1603.73 639.462 1700.95 733.422 1721.2 847.799 C 1726.4 877.146 1725.27 902.004 1725.14 931.001 L 1725.16 1105.79 C 1725.22 1139.39 1726.6 1168.91 1719.55 1202.05 C 1692.34 1329.92 1592.49 1404.09 1469.76 1425.03 C 1460.54 1425.94 1434.98 1425.1 1424.41 1425.09 L 629.383 1425.11 C 607.968 1425.19 585.821 1426.09 564.706 1423.38 C 443.228 1407.79 341.908 1308.47 326.458 1186.41 C 324.06 1167.47 324.514 1145.95 324.487 1126.5 L 324.477 942.666 C 324.479 860.159 326.298 795.185 381.829 726.444 C 435.354 660.188 496.894 630.746 580.619 621 z" fill="rgb(0,0,0)" transform="translate(0,0)"></path>
<path d="M 445.911 1149.43 C 458.613 1148.61 477.699 1149.32 490.85 1149.38 L 1601.86 1149.43 C 1599.82 1194.58 1584.94 1233.05 1551.18 1263.85 C 1502.01 1308.7 1464.82 1307.04 1403.82 1307.04 L 1316.26 1307 L 673.204 1307.03 C 578.813 1307.03 483.779 1306.19 448.793 1192.01 C 446.407 1184.23 439.833 1157 443.661 1149.82 L 445.911 1149.43 z" fill="rgb(230,229,229)" transform="translate(0,0)"></path>
<path d="M 445.911 1149.43 C 458.613 1148.61 477.699 1149.32 490.85 1149.38 L 1601.86 1149.43 C 1599.82 1194.58 1584.94 1233.05 1551.18 1263.85 C 1502.01 1308.7 1464.82 1307.04 1403.82 1307.04 L 1316.26 1307 C 1320.28 1304.62 1326.98 1306.33 1333.08 1304.98 L 1330.78 1304.2 C 1341.28 1298.75 1354.27 1295.22 1365.48 1291 C 1427.18 1267.75 1483.33 1213.45 1503.05 1149.43 C 1486.44 1150.53 1454.1 1149.48 1436.66 1149.47 L 487.748 1149.48 C 477.228 1149.52 454.925 1150.51 445.911 1149.43 z" fill="rgb(201,200,200)" transform="translate(0,0)"></path>
<path d="M 614.217 739.306 L 1369.8 739.287 C 1438.05 739.238 1499.34 730.963 1552.41 785.084 C 1601.94 835.58 1601.95 874.497 1601.93 940.494 L 1601.86 1029.66 L 1377.54 1029.66 C 1377.33 1025.24 1377.49 1020.38 1377.54 1015.92 L 1436.77 1016.03 C 1452.78 1016.06 1469.37 1017.18 1484.68 1013.68 C 1537.49 1001.49 1548.52 928.831 1502.45 900.409 C 1479.81 886.439 1455.03 889.983 1429.25 890.082 L 1340.52 890.082 C 1327.28 880.666 1318.27 869.437 1302.74 859.452 C 1253.64 827.879 1195.75 835.982 1138.8 836.048 L 851.889 835.907 C 845.086 835.859 832.804 826.991 825.707 823.506 C 741.645 782.225 654.271 817.062 607.049 894.325 C 583.64 893.621 561.306 891.535 541.544 906.73 C 513.731 928.116 511.814 964.617 532.978 991.519 C 550.043 1013.21 568.97 1013.11 594.176 1015.92 L 594.176 1029.66 L 495.17 1029.64 C 478.411 1029.61 459.249 1029.03 442.696 1029.66 L 442.671 939.681 C 442.611 898.731 438.206 867.459 457.936 829.681 C 493.394 761.789 543.413 742.087 614.217 739.306 z" fill="rgb(214,124,81)" transform="translate(0,0)"></path>
<path d="M 748.103 929.292 C 773.546 926.24 788.711 936.911 805.329 954.062 L 1181.37 954.012 C 1194.05 953.933 1213.99 952.519 1225.79 954.236 C 1273.38 961.163 1269.68 1031.06 1218.79 1029.66 L 805.313 1029.75 C 788.519 1029.77 770.875 1030.32 754.149 1029.4 C 693.076 1026.04 684.299 940.066 748.103 929.292 z" fill="rgb(205,29,31)" transform="translate(0,0)"></path>
<metadata><recraft-signature>{"signed_by": "recraft", "signature_b64": "kKkpjEQJz4nKQqLwK/QwS+SuNfKkAYMznhCXcMG7jRi2oE2qA6TbUfq49mloo02M26Gf7029dSuCh3pqDqDmAg==", "signing_algo": "Ed25519", "generation_timestamp": 1772995974, "identifier": "af6e492e-0732-4525-8ebd-4a061be7a75c"}</recraft-signature></metadata></svg>