<svg xmlns="http://www.w3.org/2000/svg" height="512" preserveAspectRatio="none" style="display: block;" version="1.1" viewBox="0 0 2048 2048" width="512">
<defs>
	<linearGradient gradientUnits="userSpaceOnUse" id="Gradient1" x1="1507.42" x2="1192.82" y1="923.56" y2="694.872">
		<stop class="stop0" offset="0" stop-color="rgb(175,110,49)" stop-opacity="1"></stop>
		<stop class="stop1" offset="1" stop-color="rgb(220,150,87)" stop-opacity="1"></stop>
	</linearGradient>
	<linearGradient gradientUnits="userSpaceOnUse" id="Gradient2" x1="757.804" x2="477.789" y1="1045.26" y2="810.364">
		<stop class="stop0" offset="0" stop-color="rgb(179,113,52)" stop-opacity="1"></stop>
		<stop class="stop1" offset="1" stop-color="rgb(213,142,79)" stop-opacity="1"></stop>
	</linearGradient>
	<linearGradient gradientUnits="userSpaceOnUse" id="Gradient3" x1="1037.42" x2="742.188" y1="1308.03" y2="1057.96">
		<stop class="stop0" offset="0" stop-color="rgb(173,108,46)" stop-opacity="1"></stop>
		<stop class="stop1" offset="1" stop-color="rgb(217,146,82)" stop-opacity="1"></stop>
	</linearGradient>
</defs>
<path d="M 990.93 398.012 C 1218.58 392.221 1480.78 459.218 1657.84 608.575 C 1763.09 697.358 1847.18 820.434 1858.31 960.879 C 1871.17 1123.22 1841.55 1243.51 1729.74 1370.26 C 1599.06 1518.38 1398.35 1600.41 1206.7 1630.47 C 1155.05 1638.57 1106.91 1640.93 1055.25 1644.83 C 986.531 1645.15 928.056 1642.36 859.795 1633.38 C 529.165 1589.87 160.45 1371.14 188.237 992.833 C 197.555 642.71 575.77 441.174 884.048 405.886 C 918.781 401.91 955.279 400.56 990.93 398.012 z" fill="rgb(1,0,0)" transform="translate(0,0)"></path>
<path d="M 985.541 418.939 C 1205.26 407.509 1480.72 485.893 1647.61 627.068 C 1747.89 710.895 1828.44 835.561 1836.33 968.992 C 1855.12 1286.84 1515.38 1482.87 1243.48 1534.14 C 1182.68 1545.6 1124.25 1550.94 1063.25 1555.08 C 1024.64 1554.74 986.412 1556.49 947.78 1553.58 C 748.239 1538.54 546.792 1479.54 392.38 1347.9 C 284.254 1257.57 206.718 1122.27 212.488 978.624 C 223.762 697.973 502.901 515.962 750.027 452.751 C 832.681 431.61 901.492 426.078 985.541 418.939 z" fill="rgb(238,237,237)" transform="translate(0,0)"></path>
<path d="M 743.469 629.078 C 774.004 579.238 777.062 582.916 831.586 558.743 C 855.529 548.3 878.906 535.03 906.045 538.757 C 937.584 543.089 1020.49 565.316 1045.15 580.874 C 1118.72 627.295 1137.37 693.259 1137.04 773.399 C 1152.65 706.829 1186.93 667.109 1241.8 629.712 C 1263.07 615.218 1319.91 597.643 1344.67 606.479 C 1375.53 617.492 1403.35 635.64 1438.52 642.56 C 1513.5 668.257 1572.1 798.691 1554 874.554 C 1541.54 926.774 1491.04 973.091 1440.13 986.897 C 1642.72 1250.82 1258.99 1421.88 1102.53 1226.56 C 1088.93 1281.45 1069.49 1310.88 1020.6 1341.34 C 846.069 1450.04 630.382 1319.96 689.885 1116.63 C 612.895 1129.54 558.461 1130.31 491.987 1082.92 C 441.733 1047.09 403.105 983.753 414.891 920.395 C 419.345 896.452 454.274 810.283 467.956 791.411 C 483.35 770.181 582.91 732.19 609.074 732.953 C 614.725 704.472 714.092 635.285 743.469 629.078 z" fill="rgb(1,0,0)" transform="translate(0,0)"></path>
<path d="M 609.074 732.953 C 614.725 704.472 714.092 635.285 743.469 629.078 C 717.687 675.494 707.671 699.036 707.142 754.004 C 670.862 742.981 648.585 731.55 609.074 732.953 z" fill="rgb(219,218,217)" transform="translate(0,0)"></path>
<path d="M 870.849 1002.17 C 906.184 1000.87 961.99 1004.35 992.104 1023.72 C 1071.13 1074.54 1120.16 1187.78 1067.38 1273.94 C 1032.42 1330.99 976.341 1348.66 915.228 1363.11 C 903.778 1362.5 887.846 1364 874.915 1363.61 C 713.081 1361.12 639.731 1163.81 744.626 1053.47 C 785.607 1010.37 816.075 1004.88 870.849 1002.17 z" fill="url(#Gradient3)" transform="translate(0,0)"></path>
<path d="M 855.077 1158.56 C 843.118 1190.26 765.557 1239.66 733.979 1202.43 C 677.287 1135.61 760.964 1018.47 848.631 1019.52 C 876.699 1019.85 880.065 1012.19 895.984 1032.4 C 926.407 1035.63 966.222 1072.45 937.114 1093.88 C 922.783 1104.43 904.361 1101.01 887.833 1100.32 C 886.251 1125.61 881.832 1147.97 855.077 1158.56 z" fill="rgb(1,0,0)" transform="translate(0,0)"></path>
<path d="M 855.077 1158.56 C 843.118 1190.26 765.557 1239.66 733.979 1202.43 C 677.287 1135.61 760.964 1018.47 848.631 1019.52 C 876.699 1019.85 880.065 1012.19 895.984 1032.4 C 869.24 1028.75 848.712 1039 839.466 1064.61 C 804.037 1048.88 760.579 1080.71 745.913 1112.35 C 730.222 1146.2 763.46 1165.65 798.336 1145.51 C 819.531 1157.14 829.742 1163.51 855.077 1158.56 z" fill="rgb(225,163,108)" transform="translate(0,0)"></path>
<path d="M 843.496 1072.5 C 866.754 1025.53 918.772 1031.02 934.127 1071.92 C 946.479 1104.83 892.041 1092.36 877.104 1091.47 C 877.483 1109.2 878.868 1126.46 865.088 1139.96 C 841.335 1163.23 819.849 1143.14 798.336 1136.24 C 777.312 1145.75 738.788 1153.09 757.471 1116.63 C 761.274 1106.02 773.702 1083.52 785.157 1100.32 L 788.811 1097.01 L 788.09 1095.95 C 784.26 1090.41 784.295 1089.98 777.641 1089.48 L 777.444 1088.16 C 796.132 1070.16 818.605 1064.28 843.496 1072.5 z" fill="rgb(136,4,7)" transform="translate(0,0)"></path>
<path d="M 757.471 1116.63 C 761.274 1106.02 773.702 1083.52 785.157 1100.32 C 785.369 1104.88 785.748 1108.84 785.157 1113.37 C 777.182 1123.39 765.442 1135.68 757.862 1117.59 L 757.471 1116.63 z" fill="rgb(199,69,64)" transform="translate(0,0)"></path>
<path d="M 788.811 1097.01 C 792.567 1108.81 788.423 1118.17 785.157 1130.37 C 785.325 1125.86 785.937 1117.48 785.157 1113.37 C 785.748 1108.84 785.369 1104.88 785.157 1100.32 L 788.811 1097.01 z" fill="rgb(81,0,0)" transform="translate(0,0)"></path>
<path d="M 1086.42 1107.98 C 1105.21 1031.34 1162.06 952.536 1243.58 938.282 C 1265.76 934.404 1318.91 940.677 1339.53 947.686 C 1428.47 945.932 1540.56 1131.16 1443.73 1228.73 C 1361.89 1311.2 1218.39 1317.64 1133.03 1238.23 C 1119.77 1225.52 1104.98 1207.92 1105.59 1188.65 C 1104.18 1155.44 1098.11 1137.9 1086.42 1107.98 z" fill="rgb(202,133,71)" transform="translate(0,0)"></path>
<path d="M 1105.59 1188.65 C 1113.35 1195.35 1120.07 1205.42 1127.72 1212.65 C 1260.35 1338 1535.68 1081.5 1344.72 956.578 C 1339.09 952.897 1318.95 945.838 1317.62 944.555 C 1321.06 941.712 1334.26 948.746 1339.53 947.686 C 1428.47 945.932 1540.56 1131.16 1443.73 1228.73 C 1361.89 1311.2 1218.39 1317.64 1133.03 1238.23 C 1119.77 1225.52 1104.98 1207.92 1105.59 1188.65 z" fill="rgb(177,111,50)" transform="translate(0,0)"></path>
<path d="M 1230.58 1091.47 C 1209.81 1141 1124.44 1158.23 1112.29 1092.05 C 1101.63 1033.96 1188.44 964.334 1239.22 953.975 C 1257.67 950.493 1305 951.078 1309.31 975.436 C 1348.08 990.256 1349.57 1033.42 1320.31 1043.3 C 1308.73 1047.21 1295.83 1047.22 1283.85 1050.07 C 1275.73 1080.19 1263.34 1092.04 1230.58 1091.47 z" fill="rgb(1,0,0)" transform="translate(0,0)"></path>
<path d="M 1230.58 1091.47 C 1209.81 1141 1124.44 1158.23 1112.29 1092.05 C 1101.63 1033.96 1188.44 964.334 1239.22 953.975 C 1257.67 950.493 1305 951.078 1309.31 975.436 C 1266.16 969.456 1241.62 986.689 1211.43 1015.63 C 1184.85 993.181 1147.96 1023.29 1152.01 1053.84 C 1155.59 1080.89 1183.38 1088.67 1205.73 1078.12 C 1213.49 1083.4 1221.62 1088.49 1230.58 1091.47 z" fill="rgb(225,163,108)" transform="translate(0,0)"></path>
<path d="M 1248.27 996.235 C 1313.38 958.363 1351.96 1012.89 1313.21 1035.15 C 1304.23 1040.31 1283.14 1041.35 1271.5 1041.86 C 1274.56 1086.62 1219.85 1096.72 1205.73 1064.61 C 1175.92 1085.99 1151.09 1060.92 1164.36 1047.05 L 1164.53 1045.92 C 1167.23 1023.32 1199.69 1006.47 1201.03 1032.4 C 1201.88 1035.53 1202.61 1039.78 1204.73 1041.95 L 1205.73 1041.86 C 1216.21 1023.4 1229 1006.05 1248.27 996.235 z" fill="rgb(136,4,7)" transform="translate(0,0)"></path>
<path d="M 1164.53 1045.92 C 1167.23 1023.32 1199.69 1006.47 1201.03 1032.4 C 1188.79 1046.24 1172.79 1068.78 1164.53 1045.92 z" fill="rgb(199,69,64)" transform="translate(0,0)"></path>
<path d="M 1248.27 996.235 C 1254.43 1003.69 1220.67 1058.74 1205.73 1041.86 C 1216.21 1023.4 1229 1006.05 1248.27 996.235 z" fill="rgb(165,26,26)" transform="translate(0,0)"></path>
<path d="M 604.66 749.188 C 633.765 745.139 684.167 762.798 711.448 774.227 C 764.208 796.332 799.911 849.828 819.41 902.366 C 813.02 932.202 814.046 966.964 806.445 992.719 C 740 1024.07 735.511 1034.95 697.076 1094.8 C 681.291 1103.13 664.881 1106.11 647.247 1107.98 C 539.784 1117.35 404.027 1035.48 433.713 916.44 C 438.951 893.539 473.723 812.304 487.059 797.477 C 497.336 785.527 586.464 749.726 604.66 749.188 z" fill="url(#Gradient2)" transform="translate(0,0)"></path>
<path d="M 568.388 902.366 C 526.134 976.713 428.454 1009.61 454.939 889.689 C 472.207 811.505 535.683 768.382 612.996 768.071 C 615.721 768.095 658.601 779.457 637.224 777.438 L 634.539 782.637 L 636.726 784.156 L 634.621 782.533 C 637.505 785.922 639.742 783.348 643.559 786.424 L 642.033 786.763 C 723.997 826.248 677.584 872.148 620.154 848.545 C 616.434 878.087 602.092 903.886 568.388 902.366 z" fill="rgb(1,0,0)" transform="translate(0,0)"></path>
<path d="M 568.388 902.366 C 526.134 976.713 428.454 1009.61 454.939 889.689 C 472.207 811.505 535.683 768.382 612.996 768.071 C 615.721 768.095 658.601 779.457 637.224 777.438 L 634.539 782.637 L 636.726 784.156 L 634.621 782.533 C 637.505 785.922 639.742 783.348 643.559 786.424 L 642.033 786.763 C 610.583 779.602 595.225 790.46 575.724 814.045 C 542.536 799.536 474.186 846.863 487.094 883.78 C 497.817 907.95 522.311 895.937 536.977 887.248 C 544.443 891.743 560.055 899.323 568.388 902.366 z" fill="rgb(225,163,108)" transform="translate(0,0)"></path>
<path d="M 580.18 822.677 C 645.895 746.498 711.726 847.754 650.434 846.14 C 634.51 846.18 623.867 840.497 609.074 837.185 C 610.778 894.63 582.807 901.115 536.977 877.76 C 533.301 879.807 528.233 882.379 524.876 884.729 C 503.551 899.653 484.619 879.618 499.579 858.506 C 510.086 833.091 541.596 823.581 525.734 858.506 C 531.505 855.445 535.706 842.3 534.656 836.114 L 530.409 830.682 C 534.209 819.904 569.788 818.621 580.18 822.677 z" fill="rgb(136,4,7)" transform="translate(0,0)"></path>
<path d="M 499.579 858.506 C 510.086 833.091 541.596 823.581 525.734 858.506 C 513.291 862.43 509.294 876.103 499.579 858.506 z" fill="rgb(199,69,64)" transform="translate(0,0)"></path>
<path d="M 1315.87 623.36 C 1336.89 621.06 1414.8 649.377 1439.06 660.836 C 1507.08 692.968 1565.12 818.763 1531.67 890.436 C 1510.13 936.577 1471.32 958.341 1426.38 975.436 C 1412.78 963.761 1403.32 956.337 1387.79 947.686 C 1335.97 922.663 1270.96 912.206 1214.91 928.365 C 1200.8 883.035 1173.14 852.283 1141.68 818.865 C 1152.06 723.33 1216.87 638.008 1315.87 623.36 z" fill="url(#Gradient1)" transform="translate(0,0)"></path>
<path d="M 1271.5 770.106 C 1248.01 812.788 1149.36 836.032 1182.38 747.873 C 1203.53 691.388 1236.85 644.783 1303.63 649.794 C 1316.3 650.745 1325.39 652.08 1330.98 665.229 C 1383.14 637.117 1437.93 736.063 1339.53 732.953 C 1347.39 781.671 1304.36 793.29 1271.5 770.106 z" fill="rgb(1,0,0)" transform="translate(0,0)"></path>
<path d="M 1271.5 770.106 C 1248.01 812.788 1149.36 836.032 1182.38 747.873 C 1203.53 691.388 1236.85 644.783 1303.63 649.794 C 1316.3 650.745 1325.39 652.08 1330.98 665.229 C 1314.42 669.46 1304.98 678.762 1297.68 694.036 C 1273.56 692.775 1255.13 689.746 1235.38 707.59 C 1205.69 734.409 1205.2 776.26 1264.76 761.659 C 1266.93 764.312 1269.56 767.35 1271.5 770.106 z" fill="rgb(225,163,108)" transform="translate(0,0)"></path>
<path d="M 1309.31 701.035 C 1314.79 677.045 1329.23 662.785 1353.93 669.963 C 1407.55 685.55 1376.39 744.775 1327.94 721.384 C 1329.91 733.18 1331.76 741.936 1330.98 754.004 C 1307.38 789.736 1284.43 766.342 1264.76 749.188 C 1252.98 754.798 1239.64 762.68 1230.58 749.188 C 1220.06 731.122 1244.71 711.674 1259.46 705.357 C 1271.47 700.159 1295.58 701.065 1309.31 701.035 z" fill="rgb(136,4,7)" transform="translate(0,0)"></path>
<path d="M 1259.46 705.357 C 1261.28 708.651 1263.24 712.027 1264.76 715.448 C 1258.87 730.906 1247.36 745.339 1230.58 749.188 C 1220.06 731.122 1244.71 711.674 1259.46 705.357 z" fill="rgb(165,26,26)" transform="translate(0,0)"></path>
<path d="M 723.612 761.659 C 726.609 712.956 747.585 618.511 796.324 593.783 C 906.95 537.655 885.398 552.807 1002.29 580.731 C 1090.29 605.262 1135.89 710.916 1115.43 796.704 C 1073.57 775.052 1033.99 760.826 985.541 773.399 C 973.162 774.339 968.099 775.57 956.28 779.714 C 885.379 804.572 859.965 815.655 827.309 882.67 C 813.194 826.904 769.043 791.001 723.612 761.659 z" fill="rgb(202,133,71)" transform="translate(0,0)"></path>
<path d="M 1002.29 580.731 C 1090.29 605.262 1135.89 710.916 1115.43 796.704 C 1073.57 775.052 1033.99 760.826 985.541 773.399 C 988.815 764.101 1013.5 740.564 1022.24 728.535 C 1073.29 658.252 1004.51 606.568 1002.29 580.731 z" fill="rgb(177,111,50)" transform="translate(0,0)"></path>
<path d="M 855.077 705.357 C 840.496 725.393 777.495 772.567 757.962 732.049 C 735.388 687.467 771.279 614.193 813.955 595.491 C 853.355 578.225 897.253 563.476 939.066 580.677 C 944.563 582.939 942.092 590.592 938.303 593.432 C 993.986 612.54 1006.82 666.011 938.303 665.229 C 933.235 715.02 893.707 721.372 855.077 705.357 z" fill="rgb(1,0,0)" transform="translate(0,0)"></path>
<path d="M 855.077 705.357 C 840.496 725.393 777.495 772.567 757.962 732.049 C 735.388 687.467 771.279 614.193 813.955 595.491 C 853.355 578.225 897.253 563.476 939.066 580.677 C 944.563 582.939 942.092 590.592 938.303 593.432 C 904.66 590.718 878.409 597.823 861.624 629.078 C 775.335 599.572 762.862 738.596 843.496 696.801 C 847.352 699.696 851.16 702.538 855.077 705.357 z" fill="rgb(225,163,108)" transform="translate(0,0)"></path>
<path d="M 827.309 639.255 C 833.918 637.646 860.26 633.713 863.403 631.158 C 954.124 557.39 1018.04 654.475 937.567 654.51 C 921.264 654.517 918.493 653.907 931.296 668.832 C 905.316 722.542 882.639 709.77 839.466 687.065 C 815.968 701.47 790.686 693.423 802.597 665.229 C 807.9 651.595 813.258 645.058 827.309 639.255 z" fill="rgb(136,4,7)" transform="translate(0,0)"></path>
<path d="M 827.309 639.255 C 838.333 649.16 814.127 689.205 802.597 665.229 C 807.9 651.595 813.258 645.058 827.309 639.255 z" fill="rgb(199,69,64)" transform="translate(0,0)"></path>
<path d="M 825.612 986.897 C 832.549 910.888 836.658 843.017 922.798 811.131 C 972.842 792.606 984.283 783.303 1040.21 786.763 C 1117.61 794.556 1171.54 869.559 1201.03 935.195 C 1170.26 949.064 1138.05 977.16 1115.43 1002.17 C 1091.37 1035.8 1087.24 1046.26 1074.51 1085.17 C 1006.06 974.69 937.602 992.281 825.612 986.897 z" fill="rgb(202,133,71)" transform="translate(0,0)"></path>
<path d="M 1040.21 786.763 C 1117.61 794.556 1171.54 869.559 1201.03 935.195 C 1170.26 949.064 1138.05 977.16 1115.43 1002.17 C 1117.53 980.61 1127.4 964.257 1127.66 939.742 C 1128.96 815.074 1045.53 809.545 1040.21 786.763 z" fill="rgb(177,111,50)" transform="translate(0,0)"></path>
<path d="M 870.849 932.138 C 862.152 962.132 836.016 970.891 838.467 952.396 C 846.599 889.877 895.861 819.018 964.476 814.802 C 976.998 814.032 993.63 807.338 1002.29 818.865 C 1055.56 811.749 1104.92 890.804 1015.02 890.294 C 1015.52 944.781 972.32 954.564 931.296 932.138 C 911.733 944.179 887.867 956.2 870.849 932.138 z" fill="rgb(1,0,0)" transform="translate(0,0)"></path>
<path d="M 870.849 932.138 C 862.152 962.132 836.016 970.891 838.467 952.396 C 846.599 889.877 895.861 819.018 964.476 814.802 C 976.998 814.032 993.63 807.338 1002.29 818.865 C 972.52 821.251 952.98 834.679 944.35 864.082 C 902.235 856.417 862.088 886.929 870.849 932.138 z" fill="rgb(225,163,108)" transform="translate(0,0)"></path>
<path d="M 951.541 873.707 C 962.797 761.012 1132.44 885.419 1016.08 882.74 C 984.522 882.013 1010.39 891.964 1004.46 909.798 C 990.618 951.408 950.727 927.784 925.744 921.201 C 904.046 943.951 872.615 946.363 883.421 910.196 C 887.547 895.314 890.22 888.191 905.271 882.67 C 910.397 877.648 912.341 875.941 919.15 873.707 C 932.735 871.874 937.796 872.268 951.541 873.707 z" fill="rgb(136,4,7)" transform="translate(0,0)"></path>
<path d="M 905.271 882.67 C 922.245 887.944 913.703 905.749 905.271 914.837 C 893.135 922.906 887.484 925.674 883.421 910.196 C 887.547 895.314 890.22 888.191 905.271 882.67 z" fill="rgb(199,69,64)" transform="translate(0,0)"></path>
<path d="M 905.271 882.67 C 910.397 877.648 912.341 875.941 919.15 873.707 C 920.478 883.506 921.909 918.025 905.271 914.837 C 913.703 905.749 922.245 887.944 905.271 882.67 z" fill="rgb(81,0,0)" transform="translate(0,0)"></path>
<path d="M 221.281 1151.85 C 300.096 1327.52 443.097 1438.8 622.742 1505.98 C 889.233 1605.65 1199.69 1602.17 1461.35 1489.16 C 1606.42 1425.37 1750.69 1319.28 1819.83 1173.18 C 1820.51 1171.73 1820.23 1172.24 1821.63 1171.1 C 1821.98 1175.11 1816.49 1188.65 1814.82 1193.2 C 1730.16 1423.52 1481 1556.7 1253.09 1602.1 C 1062.39 1640.09 858.356 1630.1 674.821 1568.63 C 492.59 1506.61 301.914 1384.71 232.447 1197.53 C 227.559 1184.36 222.479 1167.08 221.418 1153.67 L 221.281 1151.85 L 221.281 1151.85 z" fill="rgb(56,58,59)" transform="translate(0,0)"></path>
<path d="M 221.281 1151.85 C 213.88 1132.4 215.788 1133.17 221.281 1151.85 L 221.281 1151.85 z" fill="rgb(56,58,59)" transform="translate(0,0)"></path>
<metadata><recraft-signature>{"signed_by": "recraft", "signature_b64": "c1pt+VzPORJRRYpaM1LKDg0cZ/nOwZA3LdKhjFE0HAxQhJL5vkE10EAU2ieBF6WbKj8I0dkc0yNhQVrwJwBFCg==", "signing_algo": "Ed25519", "generation_timestamp": 1772988395, "identifier": "bc1878f0-7b77-4db7-bcba-85bf319f0c0c"}</recraft-signature></metadata></svg>