<svg xmlns="http://www.w3.org/2000/svg" height="512" preserveAspectRatio="none" style="display: block;" version="1.1" viewBox="0 0 2048 2048" width="512">
<path d="M 423.733 365.995 C 451.093 364.508 483.198 365.953 510.832 365.969 L 1575.08 365.945 C 1629.83 365.91 1678.71 363.808 1679.18 434.117 L 1679.31 1570.58 C 1679.39 1603.06 1684.64 1633.3 1661.05 1658.58 C 1622.73 1699.63 1552.64 1677.42 1545.86 1621.9 C 1544.19 1608.17 1545.01 1592.55 1545.01 1578.61 L 1545.04 496.987 L 865.5 496.987 L 502.27 496.987 L 502.27 1545.34 L 1119.4 1545.32 C 1147.33 1545.31 1175.49 1544.79 1203.4 1546.28 C 1279.42 1551.14 1285.82 1667.75 1213.01 1677.95 C 1188.44 1681.38 1150.34 1679.4 1124.56 1679.37 L 494.444 1679.45 C 399.958 1679.55 368.936 1679.23 368.933 1581.08 L 368.987 423.081 C 369.259 394.089 396.013 369.61 423.733 365.995 z" fill="rgb(43,41,42)" transform="translate(0,0)"></path>
<metadata><recraft-signature>{"signed_by": "recraft", "signature_b64": "MJGjKnFUoB9n7cbcdaHNyjJupfIyVOLbj3qaPa8NvPX1hFJIZZqpxaKqUAKuWw07UA6JAOWq6ZynbqRbsgTGBQ==", "signing_algo": "Ed25519", "generation_timestamp": 1772995860, "identifier": "c8ccba3a-c4b1-45cd-9f31-355429923d19"}</recraft-signature></metadata></svg>