<svg xmlns="http://www.w3.org/2000/svg" height="512" preserveAspectRatio="none" style="display: block;" version="1.1" viewBox="0 0 2048 2048" width="512">
<path d="M 535.502 417.444 L 1576.69 417.426 C 1634.59 417.476 1670.64 421.479 1714.8 464.451 C 1766.21 514.478 1762.09 565.598 1762.07 631.804 L 1762.1 1405.27 C 1762.11 1429.68 1763.54 1455.55 1757.78 1479.23 C 1734.32 1575.82 1660.05 1610.05 1570.25 1610.07 L 1509.5 1610.02 L 469.991 1610.14 C 370.389 1610.48 285.508 1548.75 284.993 1442.53 L 284.995 656.692 C 284.94 583.585 276.617 523.075 333.442 466.41 C 392.154 407.863 460.055 417.336 535.502 417.444 z M 1481.34 1489.82 L 1546.34 1489.87 C 1575.78 1489.86 1603.41 1494.23 1624.61 1471.1 C 1651.06 1442.24 1642.06 1382.33 1642.05 1344.05 L 1642.1 588.577 C 1642.22 537.858 1606.43 538.519 1566.2 538.484 L 568.495 538.49 L 495.027 538.418 C 463.248 538.427 413.489 533.703 407.337 575.66 C 405.503 610.605 405.964 646.514 405.961 681.467 L 405.867 1437.81 C 406.184 1492.01 452.236 1489.87 494.086 1489.88 L 1481.34 1489.82 z" fill="rgb(0,0,0)" transform="translate(0,0)"></path>
<path d="M 1134.58 816.615 C 1245.48 808.446 1364.32 887.78 1431.78 970.365 C 1442.01 982.886 1467.53 1009.89 1455.23 1026.59 C 1279.46 1265.77 1064.11 1249.07 827.118 1102.58 L 811.843 1092.31 C 797.716 1104.17 664.785 1182.15 651.268 1185.58 C 623.293 1192.69 589.873 1171.29 583.34 1143.62 C 579.032 1125.37 581.048 1104.06 581.075 1085.32 L 581.045 935.513 C 580.652 849.225 609.615 819.296 687.686 864.327 L 736.232 892.698 C 762.295 908.163 786.168 920.531 811.843 937.215 C 897.996 880.316 1030.34 821.025 1134.58 816.615 z" fill="rgb(0,0,0)" transform="translate(0,0)"></path>
<metadata><recraft-signature>{"signed_by": "recraft", "signature_b64": "ZHlLXuPYn7xgk+i+eJL2CSzjBjNisnF9woN8xrZEOPwlsUdqYjDHDEt1AeYQpXZ566k0CB2pbNxO6i7fUXhPAw==", "signing_algo": "Ed25519", "generation_timestamp": 1772997216, "identifier": "3edb7875-cd99-43bb-89b4-d4368d97533f"}</recraft-signature></metadata></svg>