<svg xmlns="http://www.w3.org/2000/svg" height="512" preserveAspectRatio="none" style="display: block;" version="1.1" viewBox="0 0 2048 2048" width="512">
<path d="M 251.905 486.999 C 259.54 486.234 280.014 486.876 289.082 486.914 L 1744 486.942 C 1765.25 486.883 1789.45 484.987 1809.96 490.932 C 1902.64 517.808 1880.06 639.723 1880.02 716.267 L 1880.04 1394.3 C 1880.08 1451.88 1888.77 1513.98 1827.05 1545.85 C 1816.88 1551.1 1806.18 1555.19 1796 1560.46 C 1722.76 1564.6 1636.21 1560.48 1561.62 1560.48 L 365.059 1560.5 C 327.25 1560.52 253.125 1566.91 220.636 1547.65 C 165.131 1514.74 169.015 1470.23 169 1413.79 L 168.978 638.546 C 168.876 564.831 169.38 507.127 251.905 486.999 z M 1789.44 1513.65 C 1816.91 1502.32 1834.32 1484.15 1834.49 1453.93 L 1834.45 589.407 C 1834.17 532.051 1790.75 532.871 1747.86 532.935 L 309.369 532.94 C 291.899 532.887 274.039 532.201 256.674 532.993 C 201.65 544.592 214.922 606.922 214.954 651.183 L 214.972 1379.31 C 214.95 1432.94 200.081 1513.17 273.102 1513.51 L 1734.1 1513.68 C 1748.47 1513.69 1776.87 1514.82 1789.44 1513.65 z" fill="rgb(1,1,1)" transform="translate(0,0)"></path>
<path d="M 1081.53 714.999 L 1154.6 714.999 C 1158.68 733.016 1167.41 754.998 1174.15 772.507 C 1205.27 853.311 1234.92 935.489 1267.78 1015.52 C 1245.38 1017.33 1220.4 1016.49 1198 1015.52 C 1189.81 995.689 1181.15 969.524 1173.61 948.992 C 1166.24 949.327 1157 949.029 1149.5 948.992 L 1054.86 948.992 C 1049.33 967.273 1038.83 997.919 1031.14 1015.52 C 1010.15 1016.15 985.615 1015.51 964.326 1015.52 C 974.39 978.625 997.196 930.888 1011.6 894.701 C 1035.16 835.517 1057.1 773.781 1081.53 714.999 z M 1075.36 895.002 C 1089.08 895.544 1101.49 895.291 1115.23 895.002 L 1154.6 895.002 C 1144.39 866.615 1128.79 817.324 1115.23 791.728 C 1100.35 825.81 1089.8 862.864 1075.36 895.002 z" fill="rgb(1,1,1)" transform="translate(0,0)"></path>
<path d="M 874.292 714.999 C 899.864 713.423 926.844 714.117 952.402 714.999 C 945.201 724.076 921.214 747 912.258 756.041 L 838.037 831.626 C 870.001 885.281 923.18 966.886 960.124 1015.52 C 952.12 1014.69 939.594 1015.33 931.225 1015.4 L 882.952 1015.52 C 855.404 973.513 822.278 914.667 792.157 877.292 C 784.753 883.679 781.789 887.394 775.635 895.002 C 764.953 902.938 759.696 909.075 750.998 919.054 C 750.429 950.626 750.977 983.822 750.998 1015.52 L 689.51 1015.52 L 689.51 714.999 L 750.998 714.999 L 750.998 842.339 L 833.449 755.967 C 841.107 747.942 866.057 720.724 874.292 714.999 z" fill="rgb(1,1,1)" transform="translate(0,0)"></path>
<path d="M 1417.31 709.536 C 1485.96 705.006 1547.9 739.54 1562 810.011 L 1494.49 810.011 C 1484.64 790.376 1475.64 773.529 1454.06 765.87 C 1358.27 731.879 1340.78 865.277 1368.33 930.699 C 1392.32 987.651 1471.58 979.828 1494.49 910.526 L 1495.37 906.996 C 1500.83 902.267 1551.22 905.002 1562 905.007 C 1552.7 1016.54 1410.45 1052.06 1339.35 992.381 C 1257.25 923.455 1269.82 721.5 1417.31 709.536 z" fill="rgb(1,1,1)" transform="translate(0,0)"></path>
<path d="M 602.713 714.999 C 618.726 715.987 645.995 714.72 663.48 714.999 C 620.971 814.003 585.304 917.198 542.767 1015.52 C 521.577 1015.45 499.901 1015.15 478.751 1015.52 C 487.107 989.978 497.641 965.808 507.866 941.041 L 557.817 821.854 C 571.209 789.913 587.157 743.438 602.713 714.999 z" fill="rgb(1,1,1)" transform="translate(0,0)"></path>
<path d="M 451.52 1134.52 C 459.837 1135.29 481.237 1134.22 491.916 1134.52 C 495.624 1150.77 508.23 1178.58 515.075 1195.1 L 550.46 1282.02 C 556.949 1298.32 564.601 1316.32 569.84 1332.85 C 555.455 1332.14 546.941 1332.34 532.697 1332.85 C 525.27 1317.4 519.467 1295.81 511.128 1280.77 L 491.916 1280.77 L 430.191 1280.77 C 423.983 1297.82 416.595 1315.71 410.081 1332.85 C 397.681 1333.09 385.378 1332.49 372.918 1332.85 C 393.591 1272.9 425.566 1191.49 451.52 1134.52 z M 440.954 1251.99 L 473.5 1251.99 L 501.055 1251.99 C 495.682 1236.74 476.907 1186.08 468.862 1173.45 C 461.49 1191.85 446.421 1233.44 440.954 1251.99 z" fill="rgb(1,1,1)" transform="translate(0,0)"></path>
<path d="M 640.631 1179.31 C 710.603 1189.83 710.565 1195.96 710.575 1270.02 L 710.49 1332.85 C 701.049 1333.18 690.325 1332.89 680.787 1332.85 L 675.009 1316 C 651.638 1344.49 610.749 1342.7 586.782 1316 C 559.869 1238.16 642.033 1252.72 675.009 1239.74 C 675.926 1202.06 637.433 1196.58 622.576 1229.2 C 598.771 1227.98 581.103 1238.47 593.042 1209.76 C 600.818 1191.06 622.392 1183.55 640.631 1179.31 z M 619.11 1283.9 C 619.034 1288.8 618.851 1293.88 619.11 1298.76 C 621.742 1302.3 622.914 1304.32 626.347 1306.99 C 657.57 1321.5 684.294 1285.61 675.684 1265.49 L 675.009 1265.43 C 656.366 1268.02 630.718 1268.01 619.11 1283.9 z" fill="rgb(1,1,1)" transform="translate(0,0)"></path>
<path d="M 1585.87 1179.31 C 1655.59 1173.49 1655.09 1213.49 1655.06 1263.75 L 1655 1332.85 C 1643.6 1332.5 1634.6 1332.42 1623.18 1332.85 C 1622.53 1327.13 1622.93 1321.73 1623.18 1316 C 1593.68 1338.23 1543.31 1350.34 1527.42 1306.99 C 1509.89 1221.42 1636.17 1267.46 1621.05 1219.81 C 1613.76 1196.87 1574.94 1194.58 1562 1226.05 C 1555.34 1226 1536.21 1227.47 1532.37 1223.96 C 1527.99 1193.07 1562.05 1182.24 1585.87 1179.31 z M 1566.74 1306.99 C 1610.87 1327.29 1630.58 1268.87 1619.02 1261.18 C 1601.98 1266.56 1536.6 1275.95 1566.74 1306.99 z" fill="rgb(1,1,1)" transform="translate(0,0)"></path>
<path d="M 747.028 1134.52 C 759.354 1134.96 769.342 1134.9 781.676 1134.52 C 780.384 1168.75 782.909 1205.46 781.676 1239.74 C 798.855 1223.37 822.938 1194.03 841.373 1183.03 C 854.337 1183.62 869.866 1183.13 882.952 1183.03 C 867.167 1201.96 840.608 1218.39 823.223 1239.74 C 837.999 1261.04 854.732 1281.98 869.788 1303.62 C 876.684 1312.89 883.442 1322.82 889.158 1332.85 L 844.657 1332.85 C 829.192 1310.96 816.003 1286.17 801.173 1265.43 C 791.215 1273.59 788.94 1276.27 781.676 1287.01 C 779.184 1302.38 780.052 1317.52 781.676 1332.85 C 770.827 1332.65 757.67 1332.05 747.028 1332.85 L 747.025 1202.18 C 747.038 1179.86 747.628 1156.7 747.028 1134.52 z" fill="rgb(1,1,1)" transform="translate(0,0)"></path>
<path d="M 1024.93 1179.31 C 1059.02 1175.09 1085.96 1188.34 1095.99 1222.6 C 1084.75 1222.81 1074.08 1222.77 1062.85 1222.6 C 1038.94 1181.11 982.092 1221.79 1014.1 1234.78 C 1038.91 1244.61 1066.42 1239.69 1088.77 1257.35 C 1105.28 1270.39 1101.77 1303.25 1089.1 1317.9 C 1076.95 1331.94 1056 1333.91 1038.23 1334.99 C 1013.8 1334.31 984.233 1331.28 972.92 1305.52 C 961.678 1279.92 981.07 1287.24 999.757 1287.01 C 1008.52 1314.95 1053.69 1313.03 1062.77 1301.72 C 1093.25 1263.73 983.725 1286.63 974.445 1234.21 C 968.257 1199.25 994.638 1183.62 1024.93 1179.31 z" fill="rgb(1,1,1)" transform="translate(0,0)"></path>
<path d="M 1477.86 1183.03 L 1513.05 1183.03 C 1509.23 1194.42 1503.26 1205.71 1498.97 1218.75 C 1487.77 1252.83 1469.38 1300.25 1454.86 1332.85 L 1423.52 1332.85 C 1415.14 1315.16 1366.33 1188.48 1367.28 1184.01 L 1370.41 1183.03 L 1401.27 1183.03 C 1413.82 1219.02 1428.12 1255.61 1438.55 1292.32 C 1452.58 1263.32 1465.82 1215.13 1477.86 1183.03 z" fill="rgb(1,1,1)" transform="translate(0,0)"></path>
<path d="M 1135.02 1145.04 C 1145.45 1145.46 1158.47 1145.1 1169.08 1145.04 C 1169.24 1157.86 1169.35 1170.21 1169.08 1183.03 L 1198 1183.03 L 1198 1210.49 C 1189.16 1210.93 1178.08 1210.55 1169.08 1210.49 C 1168.36 1232.49 1161.57 1295.99 1179.49 1306.99 L 1198 1306.99 C 1197.84 1312.03 1197.96 1317.2 1198 1322.25 C 1200.25 1346.94 1144.63 1332.42 1139.78 1312.05 C 1132.2 1280.24 1135.2 1243.42 1135.02 1210.49 C 1129.97 1210.8 1124.13 1210.56 1119.01 1210.49 C 1118.47 1200.26 1118.62 1193.19 1119.01 1183.03 L 1135.02 1183.03 C 1134.2 1168.21 1134.16 1159.68 1135.02 1145.04 z" fill="rgb(1,1,1)" transform="translate(0,0)"></path>
<path d="M 913.51 1183.03 C 923.526 1183.88 929.083 1183.94 938.998 1183.03 L 939.063 1279.82 C 939.094 1295.86 946.332 1332.62 931.25 1332.85 L 904.964 1332.85 C 903.156 1290.61 902.558 1227.13 905.335 1185.27 C 908.013 1183.21 909.655 1183.63 913.51 1183.03 z" fill="rgb(1,1,1)" transform="translate(0,0)"></path>
<path d="M 1309.51 1183.03 L 1342.72 1183.03 C 1341.5 1230.71 1342.69 1284.65 1342.72 1332.85 C 1330.35 1332.88 1322.69 1332.06 1309.51 1332.85 L 1309.51 1183.03 z" fill="rgb(1,1,1)" transform="translate(0,0)"></path>
<path d="M 1228.56 1183.03 C 1242.17 1183.93 1247.41 1184.18 1261.21 1183.03 C 1260.08 1232.78 1263.93 1283.22 1261.21 1332.85 C 1250.71 1333.06 1239.2 1332.8 1228.56 1332.85 L 1228.56 1183.03 z" fill="rgb(1,1,1)" transform="translate(0,0)"></path>
<path d="M 1309.51 1130 L 1342.72 1130 C 1343.02 1141.18 1342.88 1151.85 1342.72 1163.02 L 1309.51 1163.02 C 1308.95 1150.66 1308.97 1142.19 1309.51 1130 z" fill="rgb(1,1,1)" transform="translate(0,0)"></path>
<path d="M 904.964 1130 C 920.733 1132.23 922.877 1131.97 938.998 1130 C 938.099 1143.31 938.013 1149.55 938.998 1163.02 C 924.042 1164.77 919.955 1164.82 904.964 1163.02 C 904.385 1151.38 904.564 1141.55 904.964 1130 z" fill="rgb(1,1,1)" transform="translate(0,0)"></path>
<path d="M 1228.56 1130 C 1239.49 1129.91 1250.27 1129.83 1261.21 1130 C 1261.18 1141.11 1261.53 1150.83 1262.47 1161.89 L 1261.21 1163.02 L 1228.56 1163.02 C 1228.98 1150.05 1229.19 1142.92 1228.56 1130 z" fill="rgb(1,1,1)" transform="translate(0,0)"></path>
<metadata><recraft-signature>{"signed_by": "recraft", "signature_b64": "i6K/kKdCZBfnWGDVAkHss++qncHed9KsNIhJ4cpAnzSdCpbV3Kl7l1iEskdcyJYsu5QOI56K7t4JfXjdzEmYBA==", "signing_algo": "Ed25519", "generation_timestamp": 1772996138, "identifier": "8f8767f6-53a6-487a-8558-76638e492f03"}</recraft-signature></metadata></svg>