<svg xmlns="http://www.w3.org/2000/svg" height="512" preserveAspectRatio="none" style="display: block;" version="1.1" viewBox="0 0 2048 2048" width="512">
<path d="M 455.774 401.948 C 456.479 401.85 457.365 401.709 458.043 401.714 L 1634.51 401.94 C 1671.28 401.937 1701.73 396.08 1729.96 424.68 C 1757.99 453.078 1758.33 499.753 1730.34 528.202 C 1705.63 553.306 1677.18 550.495 1644.95 550.511 L 649.989 550.49 C 659.651 563.87 682.153 583.881 694.84 596.199 L 862.56 764.096 C 873.904 775.41 894.984 797.722 906.28 806.986 L 1616.46 806.983 C 1728.25 806.925 1753.89 817.499 1753.79 934.937 L 1753.73 1011.25 L 1753.76 1522.69 C 1753.77 1540.64 1754.84 1563.31 1752.92 1580.65 C 1738.65 1666.27 1642.4 1648.5 1577.29 1648.72 L 420.707 1649.01 C 384.479 1649.03 351.017 1653.35 323.166 1624.96 C 305.042 1606.49 297.67 1590.19 297.68 1564.36 L 297.804 940.211 C 297.79 848.342 295.489 806.831 401.053 806.931 L 689.923 806.986 C 669.08 781.608 649.265 765.459 627.1 742.361 C 571.265 684.176 512.937 628.598 457.075 570.564 C 437.293 549.56 414.309 530.653 396.585 507.85 C 359.857 460.595 404.948 405.898 455.774 401.948 z M 448.747 1498.54 L 1595.25 1498.54 L 1598.03 1498.06 C 1600.47 1491.47 1598.99 1383.78 1598.99 1367.81 L 1599.03 955.005 L 448.747 955.005 L 448.718 1434.63 C 448.681 1455 447.887 1478.51 448.747 1498.54 z" fill="rgb(0,0,0)" transform="translate(0,0)"></path>
<metadata><recraft-signature>{"signed_by": "recraft", "signature_b64": "ILmd1TNYCN0tXelSYlO85+V3iaK/rVYtwimWhcJEOQXjzLG67520F6CbSSGNxbqNh4x2eoAD14TB/6KbyZIeBg==", "signing_algo": "Ed25519", "generation_timestamp": 1772996430, "identifier": "771dc8ec-acfa-4b5b-aeef-c42dba101be2"}</recraft-signature></metadata></svg>