<svg xmlns="http://www.w3.org/2000/svg" height="512" preserveAspectRatio="none" style="display: block;" version="1.1" viewBox="0 0 2048 2048" width="512">
<path d="M 391.5 510.997 C 395.941 510.39 422.722 510.917 428.993 510.925 L 1606.57 510.766 C 1673.04 510.726 1663.92 582.752 1663.9 626.957 L 1663.88 1603.61 C 1663.89 1622.96 1664.88 1647.28 1663.88 1665.93 L 1534.43 1665.93 L 1534.43 638.149 L 769.5 638.149 L 489.863 638.158 C 437.905 638.221 382.797 652.763 382.955 718.6 L 382.966 1279.27 C 382.777 1371.77 379.305 1408.14 479.455 1409.01 L 1277.19 1408.94 L 1277.27 1495.81 C 1277.27 1508.76 1276.6 1524.42 1277.19 1536.99 L 483.763 1536.98 C 453.073 1536.99 416.86 1538.63 387.031 1535.81 C 286.467 1526.31 255.97 1441.63 256.048 1355.75 L 256.048 697.832 C 256.314 597.416 280.981 528.151 391.5 510.997 z" fill="rgb(0,0,0)" transform="translate(0,0)"></path>
<metadata><recraft-signature>{"signed_by": "recraft", "signature_b64": "oL1RC8X9lVGf0MaAjLekSqd0Y7HEl/P1AgxWbd1BSZz0SE4k9EzhX54VXmiLCEE0fKo/3r/yxfrilLm1V0EbAQ==", "signing_algo": "Ed25519", "generation_timestamp": 1772997630, "identifier": "83eeeb50-bb55-4be4-aebe-b2a761d4c3a8"}</recraft-signature></metadata></svg>