<svg xmlns="http://www.w3.org/2000/svg" height="512" preserveAspectRatio="none" style="display: block;" version="1.1" viewBox="0 0 2048 2048" width="512">
<path d="M 1597.5 293.971 C 1656.98 290.004 1713.8 320.245 1738.98 374.76 C 1752.58 404.191 1751.04 428.316 1751.05 459.715 L 1751.46 1610.51 C 1751.35 1679.14 1702.88 1740.37 1633.7 1750.6 C 1620.21 1752.59 1600.71 1752.02 1586.65 1752 L 453.954 1751.92 C 356.548 1749.39 297.314 1704.73 297.049 1602.89 L 296.983 459.271 C 296.951 381.574 321.39 310.314 411.084 295.937 C 427.485 293.308 447.948 293.966 464.665 293.955 L 1597.5 293.971 z M 437.45 1612.52 L 1571.93 1612.61 C 1579.47 1612.64 1597.52 1613.42 1603.85 1612.52 C 1615.89 1598.86 1611.12 1576.67 1611.07 1557.82 L 1611.01 432.991 L 437.45 432.991 L 437.446 1483.44 C 437.445 1523.13 435.991 1573.44 437.45 1612.52 z" fill="rgb(0,0,0)" transform="translate(0,0)"></path>
<path d="M 1365.86 537.31 C 1420.58 529.436 1464.4 598.374 1432.26 645.151 C 1420.74 661.911 1396.42 683.954 1381.58 698.813 L 1109.83 969.939 C 1089.84 989.763 1072.06 1008.15 1051.43 1027.78 C 1063.5 1037.66 1086.43 1062.94 1099.02 1075.31 L 1417.03 1393.59 C 1422.39 1398.99 1437.58 1415.4 1440.16 1422.04 C 1466.87 1490.68 1383.59 1554.91 1331.01 1503.1 L 1058.7 1232.16 C 1025.24 1199.45 985.589 1161.39 953.69 1127.14 C 916.264 1163.13 875.831 1203.52 839.074 1240.5 L 750.209 1329.59 C 736.001 1343.76 720.889 1363.08 703.905 1373.09 C 658.542 1399.8 604.854 1362.92 604.845 1313.19 L 604.86 763.887 C 604.839 728.919 598.582 689.113 625.291 662.294 C 665.012 622.409 733.157 648.206 742.868 701.474 C 745.334 714.998 744.104 736.042 744.078 750.216 L 743.997 1133.96 C 753.98 1125.56 768.114 1109.55 778.115 1099.71 L 1283.47 596.855 C 1308.84 571.408 1328.54 543.498 1365.86 537.31 z" fill="rgb(0,0,0)" transform="translate(0,0)"></path>
<metadata><recraft-signature>{"signed_by": "recraft", "signature_b64": "AQG8RUloSkgNv65I/FLTmR/nuam8WcNB4r3mMoHSjESUwS1zaB05Rt0dkSFP8O3/vZgPoVA+oyWLocC1Z+fcDw==", "signing_algo": "Ed25519", "generation_timestamp": 1772995596, "identifier": "23d6cd4b-0ca4-432c-9d42-0e47632fdc63"}</recraft-signature></metadata></svg>