<svg xmlns="http://www.w3.org/2000/svg" height="512" preserveAspectRatio="none" style="display: block;" version="1.1" viewBox="0 0 2048 2048" width="512">
<path d="M 453.501 581.5 L 1727.55 581.463 C 1795.32 581.191 1841.58 591.055 1842.02 670.958 L 1842.04 1343.78 C 1841.96 1451.94 1820.11 1464.97 1715.95 1464.94 L 1598.09 1464.87 L 322.432 1464.9 C 259.809 1464.89 206.53 1456.96 206.214 1380.5 L 206.075 727.246 C 206.031 603.901 206.497 581.477 336.678 581.46 L 453.501 581.5 z M 1767.53 1421.51 C 1793.01 1415.09 1800.64 1402.02 1800.81 1376.58 L 1800.98 734.89 C 1800.99 705.415 1814.34 621.636 1765 622.18 C 1732.38 621.808 1699.72 621.998 1667.08 622.001 L 316.343 621.94 C 306.401 621.914 285.812 621.208 276.932 622.001 C 262.744 625.291 247.246 637.153 247.296 653.045 L 247.543 1369.5 C 247.737 1408.46 250.118 1417.72 287.441 1421.43 L 1767.53 1421.51 z" fill="rgb(0,0,0)" transform="translate(0,0)"></path>
<path d="M 720.007 737.958 C 782.888 738.05 891.8 720.736 892.95 813.945 C 893.466 855.696 883.786 875.814 848.999 897.766 C 865.589 925.669 886.141 979.575 897.901 1010.55 C 877.236 1010.1 855.708 1010.8 834.826 1010.55 C 820.412 976.25 810.195 939.039 793.993 904.055 L 778.994 904.055 L 778.994 1010.55 C 765.065 1011.63 735.251 1010.6 720.007 1010.55 L 720.014 828.488 C 720.01 799.097 719.267 767.1 720.007 737.958 z M 778.994 856.253 C 793.698 856.886 816.168 858.835 827.85 848.876 C 836.98 835.44 838.708 805.478 822.961 795.837 C 811.182 788.625 792.588 790.608 778.994 790.998 C 778.574 811.058 778.474 836.203 778.994 856.253 z" fill="rgb(0,0,0)" transform="translate(0,0)"></path>
<path d="M 1195.46 737.958 L 1261.41 737.958 C 1264.02 780.243 1301.04 887.035 1313.68 930.453 C 1318.87 948.29 1333.37 993.878 1335.45 1010.55 C 1317.35 1011.31 1291.87 1010.79 1273.53 1010.55 C 1267.33 994.474 1264.95 982.919 1261.41 966.213 C 1239.84 966.586 1217.12 966.234 1195.46 966.213 C 1192.31 976.129 1188.09 999.268 1185.65 1010.55 C 1166 1010.81 1140.22 1009.35 1121.63 1010.55 C 1129.12 963.241 1146.78 913.844 1159.15 867.47 L 1180.7 787.582 C 1184.64 772.822 1189.16 750.964 1195.46 737.958 z M 1205 915.004 L 1228.5 915.004 L 1247.48 915.004 C 1244.11 899.954 1232.93 842.546 1228.5 832.598 C 1217.87 847.424 1213.88 891.661 1205 915.004 z" fill="rgb(0,0,0)" transform="translate(0,0)"></path>
<path d="M 496.904 737.958 C 512.345 736.919 540.909 737.699 556.999 737.958 C 553.009 765.431 557.102 818.189 556.999 848.876 C 573.187 816.611 605.675 767.626 625.541 737.958 C 647.277 737.435 668.101 738.155 689.416 737.958 C 665.328 769.609 646.101 807.302 622.937 838.16 C 642.565 879.783 663.723 930.293 681.263 973.026 C 687.208 985.367 692.381 997.887 698.607 1010.55 C 680.503 1009.79 653.726 1010.32 635.253 1010.55 C 624.454 987.407 593.899 910.329 590.769 890.847 C 548.28 934.141 557.543 954.58 556.999 1010.55 C 537.219 1010.84 516.767 1010.48 496.904 1010.55 L 496.731 766.437 C 496.642 759.4 495.982 744.334 496.904 737.958 z" fill="rgb(0,0,0)" transform="translate(0,0)"></path>
<path d="M 1435.81 733.001 C 1502.11 726.01 1539 762.745 1537.01 827.001 L 1483.43 827.001 C 1479.95 770.265 1417.59 781.002 1415.72 812.756 C 1413.72 846.722 1412.52 904.568 1415.76 938.265 C 1418.47 966.511 1481.79 979.266 1483.43 923.497 C 1492.64 923.851 1502.64 923.575 1511.91 923.497 C 1520.38 923.202 1528.56 923.363 1537.01 923.497 C 1537.89 1015.77 1449.38 1040.68 1386.91 997.364 C 1347 969.684 1355 924.376 1354.51 882.158 C 1353.67 809.139 1346.04 746.141 1435.81 733.001 z" fill="rgb(0,0,0)" transform="translate(0,0)"></path>
<path d="M 931.021 737.958 L 1085.99 737.958 L 1085.99 790.998 L 992.026 790.998 C 992.036 809.744 990.783 834.966 992.026 852.91 C 1020.54 853.196 1049.36 852.952 1077.89 852.91 L 1077.89 904.055 L 1068.09 904.055 C 1043.16 903.928 1016.66 905.001 992.026 904.055 C 993.476 934.928 992.058 978.72 992.026 1010.55 C 974.596 1011.42 948.833 1010.59 931.021 1010.55 C 931.737 1000.3 931.107 983.092 931.067 972.363 L 931.021 737.958 z" fill="rgb(0,0,0)" transform="translate(0,0)"></path>
<path d="M 1618.43 1134.46 C 1651.29 1135.1 1687.7 1129.22 1714.39 1152.75 C 1744.85 1179.6 1743.87 1225.14 1717.36 1254.51 C 1698.44 1273.7 1679.02 1274.1 1654.01 1274.07 L 1618.43 1273.94 C 1619.72 1229.98 1618.43 1178.99 1618.43 1134.46 z M 1649.04 1245 C 1668.02 1247.08 1679.47 1247.13 1695 1234.68 C 1724.27 1196.87 1697.99 1159.57 1649.04 1163.91 C 1648.68 1190.72 1648.93 1218.15 1649.04 1245 z" fill="rgb(0,0,0)" transform="translate(0,0)"></path>
<path d="M 883.349 1134.46 C 893.185 1134.07 901.394 1134.21 911.184 1134.46 C 919.027 1157.43 931.98 1192.69 931.021 1216 C 942.486 1191.63 948.393 1161.11 954.661 1134.46 C 965.29 1134.17 974.004 1134.09 984.691 1134.46 C 990.831 1179.97 997.938 1228.72 1003.11 1273.94 C 992.915 1273.75 983.139 1273.81 972.964 1273.94 C 970.044 1257.27 969.386 1233.53 967.933 1216 C 967.045 1210.04 967.677 1201.99 967.933 1195.78 C 956.049 1221.07 953.516 1249.19 941.526 1273.94 C 936.163 1274.22 928.919 1273.97 923.406 1273.94 C 916.348 1242.93 909.801 1227.08 901.531 1198.4 C 898.202 1222.94 896.991 1249.86 892.998 1273.94 C 885.393 1274.49 872.585 1274 864.602 1273.94 C 875.346 1227.96 873.921 1180.31 883.349 1134.46 z" fill="rgb(0,0,0)" transform="translate(0,0)"></path>
<path d="M 602.489 1134.46 C 612.082 1134.06 618.98 1134.02 628.56 1134.46 C 636.4 1172.31 644.884 1234.22 649.497 1273.94 C 640.819 1274.11 631.658 1273.95 622.937 1273.94 C 617.164 1257.91 615.991 1240.95 613.752 1223.95 C 613.148 1217.59 611.277 1209.52 610.491 1202.12 C 605.246 1224.06 596.937 1251.89 590.769 1273.94 L 570.945 1273.94 C 565.512 1254.88 552.629 1216.04 549.782 1198.4 C 545.887 1221.42 543.169 1250.34 540.371 1273.94 C 530.473 1273.65 522.07 1273.69 512.21 1273.94 C 517.158 1227.75 522.526 1180.11 531.377 1134.46 C 540.433 1134.09 547.917 1134.2 556.999 1134.46 C 561.24 1143.76 565.004 1158.74 567.871 1168.98 L 581.301 1216 C 587.457 1189.64 594.832 1160.48 602.489 1134.46 z" fill="rgb(0,0,0)" transform="translate(0,0)"></path>
<path d="M 1408 1134.46 C 1417.54 1135.52 1430.12 1134.76 1439.94 1134.46 C 1454.47 1180.12 1476.03 1227.09 1491.58 1273.94 C 1480.48 1274.28 1471.3 1274.24 1460.22 1273.94 C 1455.89 1260.47 1456.37 1245.48 1439.94 1245 L 1395.14 1245 C 1391.76 1254.83 1388.61 1264.42 1384.4 1273.94 C 1375.29 1274.47 1363.83 1274.04 1354.53 1273.94 L 1408 1134.46 z M 1408 1216 C 1414.6 1216.23 1419.66 1216.28 1426.25 1216 C 1430.8 1216.02 1435.4 1216.07 1439.94 1216 C 1437.7 1209.77 1424.83 1171.19 1422.53 1168.69 C 1418.47 1184.54 1410.81 1201.02 1408 1216 z" fill="rgb(0,0,0)" transform="translate(0,0)"></path>
<path d="M 1506 1134.46 C 1539.16 1134.35 1605.58 1130.95 1591.05 1187 C 1586.98 1202.82 1576.38 1208.27 1563.54 1216 C 1567.55 1226.96 1590.51 1261.84 1598.09 1273.94 L 1581.23 1273.94 C 1575.47 1274.06 1569.33 1273.95 1563.54 1273.94 C 1554.73 1260.4 1545.77 1241.66 1537.01 1227.05 C 1536.85 1243.29 1536.81 1257.75 1534.61 1273.94 L 1506 1273.94 C 1504.97 1264.04 1505.85 1237.32 1505.89 1226.4 L 1506 1134.46 z M 1537.01 1195.78 C 1544.36 1194 1549.1 1192.94 1555.76 1188.93 C 1569.45 1168.24 1554.42 1164.85 1537.01 1163.91 C 1536.56 1174.39 1536.88 1185.26 1537.01 1195.78 z" fill="rgb(0,0,0)" transform="translate(0,0)"></path>
<path d="M 319.011 1134.46 C 329.515 1134 338.543 1134.2 348.999 1134.46 L 348.999 1188.93 L 408.968 1188.93 L 408.968 1134.46 C 419.171 1134.02 428.109 1134.22 438.276 1134.46 C 438.281 1145.53 440.057 1271.67 438.276 1273.94 C 428.443 1273.83 418.795 1273.85 408.968 1273.94 L 408.968 1216 L 348.999 1216 L 348.999 1273.94 L 319.011 1273.94 L 319.011 1134.46 z" fill="rgb(0,0,0)" transform="translate(0,0)"></path>
<path d="M 1071.05 1134.46 C 1096.89 1135.06 1124.98 1134.49 1151 1134.46 L 1151 1163.91 C 1137.29 1164.72 1115.41 1163.9 1101.05 1163.91 C 1100.82 1171.93 1101.03 1180.84 1101.05 1188.93 L 1147.17 1188.93 C 1147.54 1198.28 1147.37 1206.68 1147.17 1216 L 1101.05 1216 L 1101.05 1227.05 C 1100.73 1232.14 1101 1239.74 1101.05 1245 L 1151 1245 L 1151 1273.94 C 1124.94 1273.31 1097.32 1273.97 1071.05 1273.94 L 1071.05 1134.46 z" fill="rgb(0,0,0)" transform="translate(0,0)"></path>
<path d="M 749.766 1134.46 C 770.81 1130.59 787.523 1142.04 799.798 1157.82 C 792.388 1164.14 786.922 1168.53 778.994 1174.15 C 740.965 1141.33 727.569 1182.63 765.413 1191.44 C 825.549 1219.56 806.856 1273.42 753.145 1276.17 C 729.124 1274.73 714.257 1266.3 707.828 1242.15 C 714.241 1238.44 725.284 1233.97 732.358 1230.86 C 758.295 1273.74 794.769 1234.69 750.155 1217.47 C 702.238 1198.97 699.388 1143.42 749.766 1134.46 z" fill="rgb(0,0,0)" transform="translate(0,0)"></path>
<path d="M 1174.09 1134.46 C 1185.29 1134.91 1193.85 1134.82 1205 1134.46 L 1205 1245 L 1254.68 1245 L 1254.68 1273.94 L 1174.09 1273.94 C 1173.59 1227.73 1175.06 1180.38 1174.09 1134.46 z" fill="rgb(0,0,0)" transform="translate(0,0)"></path>
<path d="M 1273.53 1134.46 C 1284.34 1134.91 1292.65 1134.79 1303.39 1134.46 C 1302.81 1170 1304.86 1210.13 1303.39 1245 L 1348.99 1245 L 1348.99 1273.94 C 1324 1273.92 1298.44 1274.42 1273.53 1273.94 C 1272.79 1228.13 1273.48 1180.42 1273.53 1134.46 z" fill="rgb(0,0,0)" transform="translate(0,0)"></path>
<path d="M 462.875 1134.46 C 474.022 1134.01 482.513 1134.1 493.606 1134.46 L 493.606 1273.94 L 462.875 1273.94 L 462.875 1134.46 z" fill="rgb(0,0,0)" transform="translate(0,0)"></path>
<path d="M 663.025 1134.46 C 673.596 1134.05 682.473 1134.19 693 1134.46 C 692.399 1180.44 692.97 1227.84 693 1273.94 L 663.025 1273.94 C 663.036 1227.99 662.265 1180.19 663.025 1134.46 z" fill="rgb(0,0,0)" transform="translate(0,0)"></path>
<path d="M 1017.04 1134.46 L 1046.46 1134.46 L 1046.46 1273.94 C 1038.03 1274.38 1027.32 1273.45 1017.04 1273.94 L 1017.04 1134.46 z" fill="rgb(0,0,0)" transform="translate(0,0)"></path>
<path d="M 819.574 1134.46 C 829.984 1134.01 838.654 1134.17 848.999 1134.46 L 848.999 1273.94 C 839.406 1273.57 829.218 1273.84 819.574 1273.94 C 822.841 1229.62 817.562 1179.64 819.574 1134.46 z" fill="rgb(0,0,0)" transform="translate(0,0)"></path>
<metadata><recraft-signature>{"signed_by": "recraft", "signature_b64": "ooK/L/y63ozuC+4hs4utXnCew3GNwXVDzjgLFJM/HxUk86CWzxKIKcbtCQncaEh4MdrGuzsL15Vr6fjk5HR/Ag==", "signing_algo": "Ed25519", "generation_timestamp": 1772996321, "identifier": "674bc691-85ee-41ac-846a-c9f576a81aae"}</recraft-signature></metadata></svg>