<svg xmlns="http://www.w3.org/2000/svg" height="512" preserveAspectRatio="none" style="display: block;" version="1.1" viewBox="0 0 2048 2048" width="512">
<path d="M 291.661 614.52 C 300.525 613.607 329.261 614.468 339.583 614.477 L 1424.83 614.519 C 1532.65 614.512 1640.69 613.092 1748.5 614.467 C 1827.7 615.478 1803.95 737.8 1803.92 792.21 L 1803.71 1367.83 C 1803.41 1399.27 1784.33 1422.78 1754.25 1431.08 C 1729.67 1432.18 1696.03 1431.09 1670.51 1431.08 L 379.569 1431.08 C 333.19 1431.15 250.135 1443.98 244.053 1377.19 C 241.823 1352.7 242.991 1322.7 243.008 1297.69 L 243.008 726.253 C 243.022 681.612 233.278 624.61 291.661 614.52 z M 281.996 1380 C 290.895 1389.3 294.385 1391.87 307.6 1391.94 L 1728.92 1392.01 C 1753.48 1392.29 1765.57 1393.61 1765.66 1365.05 L 1765.63 788.713 C 1765.62 774.533 1767.9 661.388 1763.66 656.174 C 1755.26 645.837 1700.94 649.992 1687.64 649.991 L 320.534 650.003 C 270.641 651.915 281.994 661.401 281.993 708.941 L 281.983 1323.63 C 281.974 1338.8 280.104 1366.43 281.996 1380 z" fill="rgb(0,0,0)" transform="translate(0,0)"></path>
<path d="M 506.713 876.018 L 507.935 875.807 C 578.998 863.932 586.504 970.412 527.954 978.001 C 475.694 1005.75 431.716 891.258 506.713 876.018 z M 518.895 962.176 C 545.364 953.088 548.623 915.223 527.954 898.588 C 524.855 897.515 522.152 896.376 518.895 896.033 C 477.63 900.511 489.188 959.481 518.895 962.176 z" fill="rgb(0,0,0)" transform="translate(0,0)"></path>
<path d="M 645.704 1067 C 667.745 1067.43 697.586 1062.36 715.983 1076.79 C 739.73 1095.42 737.753 1135.59 720.458 1157.7 C 701.584 1175.54 670.931 1171.14 645.704 1170.96 L 645.704 1067 z M 670.49 1149.97 C 681.565 1149.81 690.274 1149.96 700.17 1144.12 C 720.14 1113.91 708.339 1086.12 670.49 1087 C 670.43 1104.51 669.385 1133.54 670.49 1149.97 z" fill="rgb(0,0,0)" transform="translate(0,0)"></path>
<path d="M 679.025 876.018 C 703.05 875.585 738.021 871.568 755.408 890.936 C 773.892 911.525 770.167 946.619 750.556 964.83 C 735.018 982.925 701.046 978.256 679.025 978.001 L 679.025 876.018 z M 703.978 958.175 C 714.114 959.118 720.297 960.378 729.369 955.019 C 748.659 935.947 745.652 890.618 709.156 896.033 C 699.695 899.076 703.926 946.945 703.978 958.175 z" fill="rgb(0,0,0)" transform="translate(0,0)"></path>
<path d="M 1022.01 876.018 C 1061.75 875.215 1104.83 869.455 1106.85 924.003 C 1107.44 939.808 1104.31 952.362 1093.93 964.83 C 1075.35 982.725 1047.26 978.198 1022.01 978.001 C 1021.96 944.904 1022.93 908.758 1022.01 876.018 z M 1046.49 958.175 C 1055.34 958.621 1065.79 959.117 1073.93 955.019 C 1089.25 921.401 1086.21 894.943 1046.49 896.033 L 1046.49 958.175 z" fill="rgb(0,0,0)" transform="translate(0,0)"></path>
<path d="M 1237.03 876.018 C 1246.29 874.813 1252.25 874.757 1261.34 876.018 L 1261.34 976.053 L 1260.93 976.808 C 1257.91 977.879 1237.12 977.851 1232.2 978.001 C 1221.36 957.403 1210.84 937.799 1197.49 918.746 C 1198.35 935.393 1197.51 960.51 1197.49 978.001 C 1189.5 978.244 1181.14 978.057 1173.12 978.001 C 1172.55 947.577 1170.59 905.908 1173.12 876.018 C 1183.49 876.273 1190.16 875.103 1201.81 876.018 C 1209.46 885.144 1230.37 929.326 1237.03 941.075 C 1237.37 919.529 1236.34 897.491 1237.03 876.018 z" fill="rgb(0,0,0)" transform="translate(0,0)"></path>
<path d="M 1543.02 874.311 C 1549.98 873.727 1558.85 874.158 1565.99 874.311 C 1566.04 904.94 1564.53 946.399 1565.99 976.053 L 1565.54 977.126 C 1561.98 978.689 1543.43 978.088 1538.31 978.001 C 1525.27 958.786 1511.65 933.723 1497.99 912.909 L 1497.99 978.001 C 1490.39 978.318 1481.84 978.066 1474.14 978.001 C 1473.1 945.546 1474.14 907.19 1474.14 874.311 C 1483.81 874.536 1494.66 874.316 1504.4 874.311 C 1511.98 892.676 1531.85 923.177 1543.02 941.075 C 1543.29 918.897 1542.68 896.572 1543.02 874.311 z" fill="rgb(0,0,0)" transform="translate(0,0)"></path>
<path d="M 928.94 876.018 C 937.08 875.833 944.854 875.901 952.998 876.018 L 952.998 978.001 L 928.94 978.001 C 919.731 967.648 893.6 927.077 888.081 914.964 L 888.081 978.001 L 865.927 978.001 C 864.912 945.262 865.904 909.144 865.927 876.018 C 873.215 876.246 880.277 875.694 888.081 876.018 C 903.952 895.898 913.107 917.202 928.94 937.019 L 928.94 876.018 z" fill="rgb(0,0,0)" transform="translate(0,0)"></path>
<path d="M 511.537 1067 C 542.58 1066.75 595.389 1059.81 581.208 1110.92 C 579.001 1118.88 574.016 1122.24 567.027 1125.82 C 575.236 1140.65 582.556 1155.73 589.99 1170.96 C 582.431 1170.46 571.364 1170.89 563.549 1170.96 C 557.677 1162.8 547.469 1131.02 539.304 1128.19 L 537.757 1129.24 C 533.629 1137.39 535.165 1160.62 535.253 1170.96 C 526.854 1170.27 519.898 1170.64 511.537 1170.96 C 511.57 1138.29 510.336 1099.13 511.537 1067 z M 535.253 1111.13 C 541.951 1111.12 548.692 1111.46 554.991 1108.92 C 566.371 1089.51 551.223 1086.07 535.253 1087 L 535.253 1111.13 z" fill="rgb(0,0,0)" transform="translate(0,0)"></path>
<path d="M 586.02 876.018 C 614.929 875.482 665.814 867.757 657.386 914.699 C 655.533 925.019 649.995 930.04 641.7 935.418 L 644.465 939.001 C 654.486 951.798 658.005 962.584 663.288 978.001 L 637.566 978.001 C 629.989 968.78 626.531 936.112 611.802 938.516 C 609.497 941.67 610.377 972.195 610.432 978.001 C 602.539 978.206 593.971 978.018 586.02 978.001 C 585.417 968.373 585.939 953.657 585.951 943.667 L 586.02 876.018 z M 610.432 918.746 C 620.011 918.912 621.906 919.224 630.751 914.964 C 640.917 896.567 623.92 894.994 610.432 896.033 C 610.62 903.907 610.779 910.89 610.432 918.746 z" fill="rgb(0,0,0)" transform="translate(0,0)"></path>
<path d="M 1369.84 1067 L 1398.27 1067 L 1420.44 1133.46 C 1423.92 1144.08 1429.73 1160.4 1431.89 1170.96 C 1423.61 1171.66 1418.56 1171.39 1410.17 1170.96 C 1406.88 1164.73 1403.44 1153.98 1398.27 1149.97 L 1364.79 1149.97 C 1358.81 1158.56 1357.37 1161.49 1353.54 1170.96 L 1332.46 1170.96 C 1337.81 1148.14 1359.33 1087.5 1369.84 1067 z M 1369.84 1129.79 L 1382.98 1129.79 C 1386.13 1129.61 1390.02 1129.76 1392.65 1128.48 C 1391.91 1124.72 1384.39 1096.35 1382.98 1094.64 C 1376.37 1107.79 1373.91 1115.58 1369.84 1129.79 z" fill="rgb(0,0,0)" transform="translate(0,0)"></path>
<path d="M 1410.17 874.311 C 1414.01 874.169 1418.46 874.298 1422.35 874.311 C 1434.2 889.258 1454.59 956.645 1460.94 978.001 L 1436.19 978.001 L 1428.7 958.175 L 1418.25 958.175 C 1410.75 957.912 1402.62 958.12 1395.06 958.175 C 1393.17 965.016 1391.35 971.258 1389.15 978.001 C 1381.02 978.237 1372.91 978.09 1364.79 978.001 C 1372.1 948.587 1384.89 900.7 1398.27 876.018 C 1402.02 875.294 1406.35 874.821 1410.17 874.311 z M 1401 937.019 L 1418.25 937.019 L 1422.7 936.685 C 1422.43 932.718 1412.82 900.927 1410.17 898.588 C 1407.81 911.61 1404.33 924.212 1401 937.019 z" fill="rgb(0,0,0)" transform="translate(0,0)"></path>
<path d="M 1632.67 871.288 C 1641.79 869.691 1692.01 875.57 1657.01 898.588 C 1617.04 871.075 1595.48 927.081 1618.95 954.118 C 1631.57 968.65 1649.58 963.755 1648.96 937.019 L 1632.67 937.019 C 1632.3 930.54 1632.48 925.221 1632.67 918.746 L 1653.41 918.746 L 1673 918.746 L 1673 968.65 C 1584.07 1022.81 1544.34 884.861 1632.67 871.288 z" fill="rgb(0,0,0)" transform="translate(0,0)"></path>
<path d="M 1485.94 1067 C 1499.22 1063.39 1517.24 1069.74 1529.56 1075.04 C 1524.6 1082.26 1522.2 1085.67 1515.72 1091.52 C 1461.05 1061.56 1438.69 1158.93 1504.4 1149.97 C 1504.85 1142.51 1504.71 1137.29 1504.4 1129.79 L 1490.43 1129.79 C 1488.93 1122.17 1489.39 1118.52 1490.43 1111.13 L 1515.72 1111.13 L 1529.56 1111.13 C 1529.66 1127.52 1530.06 1144.52 1529.56 1160.85 C 1439.59 1217.46 1405.15 1071.64 1485.94 1067 z" fill="rgb(0,0,0)" transform="translate(0,0)"></path>
<path d="M 435.584 876.018 C 442.406 875.843 449.978 876.013 456.865 876.018 C 450.712 888.503 431.675 913.529 422.847 926.266 C 432.532 936.719 452.341 965.545 459.522 978.001 C 447.939 978.823 441.984 978.907 430.421 978.001 C 419.533 966.953 415.526 950.601 398.553 935.418 C 398.443 939.213 398.541 943.33 398.553 947.155 L 398.553 978.001 C 389.371 978.539 382.789 978.361 373.544 978.001 C 372.578 947.686 373.044 906.624 373.544 876.018 C 383.066 876.503 389.049 876.555 398.553 876.018 L 398.553 921.239 C 406.708 910.493 421.669 877.554 435.584 876.018 z" fill="rgb(0,0,0)" transform="translate(0,0)"></path>
<path d="M 842.993 1067 C 860.689 1065.36 889.552 1063.78 903.16 1077.28 C 927.096 1101.03 902.466 1130.4 865.927 1129.79 L 864.654 1130.16 C 862.108 1134.47 862.973 1164.39 862.996 1170.96 L 838.761 1170.96 C 838.107 1157.68 837.683 1076.35 840.829 1067.92 L 842.993 1067 z M 862.996 1111.13 C 869.545 1110.61 873.989 1110.34 880.416 1108.92 C 891.877 1092.88 881.135 1085.94 865.927 1087 C 862.094 1090.15 862.759 1105.87 862.996 1111.13 z" fill="rgb(0,0,0)" transform="translate(0,0)"></path>
<path d="M 750.556 1067 C 756.731 1066.97 768.797 1067.49 775.86 1066.83 C 833.275 1061.52 841.468 1131.65 778.909 1129.79 L 775.531 1130.29 C 772.551 1134.67 773.908 1163.55 773.991 1170.96 L 750.556 1170.96 C 749.261 1138.93 750.91 1100.05 750.556 1067 z M 793.686 1105.53 C 805.35 1087.97 785.226 1087.22 773.991 1087 C 774.07 1103.44 773.831 1118.67 793.686 1105.53 z" fill="rgb(0,0,0)" transform="translate(0,0)"></path>
<path d="M 1203.81 1067 C 1218.4 1063.71 1228.78 1067.19 1240.93 1075.04 C 1237.89 1082.06 1236.23 1084.99 1232.2 1091.52 C 1223.01 1086.4 1198.29 1078.11 1195.94 1094.36 C 1200.38 1108.73 1248.72 1106.91 1246.47 1137.33 C 1244.36 1165.79 1227.12 1171.65 1201.81 1170.96 C 1185.93 1170.37 1177.91 1168.27 1165.67 1157.7 C 1168.72 1151.95 1172.89 1146.17 1176.58 1140.73 C 1185.33 1146.36 1222.54 1161.89 1221.64 1139.94 C 1215.56 1128.93 1189.63 1127.4 1179.35 1118.06 C 1161.39 1101.74 1170.51 1068.98 1203.81 1067 z" fill="rgb(0,0,0)" transform="translate(0,0)"></path>
<path d="M 1318.97 874.311 C 1332.32 872.579 1343.68 876.79 1353.54 885.65 C 1350.66 892.46 1349.31 894.725 1345.34 900.969 C 1334.91 895.67 1310.19 885.925 1307.69 904.77 C 1311.6 919.291 1367.18 914.38 1356.86 950.845 C 1350.45 973.49 1333.98 982.556 1311.77 978.001 C 1296.43 978.15 1285.33 975.337 1276.16 962.176 C 1279.7 956.686 1281.9 954.513 1286.36 949.763 C 1296.16 954.705 1322.49 965.848 1330.32 954.882 C 1340.46 940.688 1296.9 932.076 1287.56 926.939 L 1286.36 926.266 C 1275.95 897.305 1288.31 877.087 1318.97 874.311 z" fill="rgb(0,0,0)" transform="translate(0,0)"></path>
<path d="M 1117.7 1064.35 C 1131.93 1063.63 1139.29 1065.47 1149.72 1075.04 C 1148.45 1081.25 1147.85 1085.93 1144.84 1091.52 C 1107.98 1072.91 1092.31 1101.55 1128.02 1107.34 C 1171.37 1114.37 1163.65 1179.6 1106.25 1170.96 C 1082.23 1169.15 1073.24 1164.6 1086.79 1140.73 C 1097.64 1146.98 1117.45 1158.3 1128.72 1147.25 C 1138.3 1122.91 1087 1132.69 1083.47 1102.3 C 1080.56 1077.26 1094.85 1066.97 1117.7 1064.35 z" fill="rgb(0,0,0)" transform="translate(0,0)"></path>
<path d="M 1582.4 1067 C 1598.4 1065.08 1604.14 1067.17 1617.65 1075.04 C 1614.4 1081.99 1611.44 1085.75 1606.75 1091.52 C 1597.74 1086.81 1573.37 1079.86 1569.55 1093.6 C 1573.57 1113.39 1608.93 1106.05 1616.68 1121.96 C 1631.96 1153.31 1605.5 1177.47 1574.99 1170.96 C 1564.67 1172 1551.32 1167 1543.02 1160.85 C 1546.16 1156.47 1550.34 1148.95 1553.19 1144.12 C 1564.2 1149.72 1583.69 1157.7 1594.66 1148.29 C 1606.82 1125.69 1546.47 1132.74 1547.21 1100.21 C 1547.73 1077.13 1559.99 1067.55 1582.4 1067 z" fill="rgb(0,0,0)" transform="translate(0,0)"></path>
<path d="M 784.999 876.018 L 846.91 876.018 C 846.395 881.41 846.628 890.601 846.91 896.033 L 809.102 896.033 C 808.832 902.487 808.977 908.514 809.102 914.964 L 842.993 914.964 C 843.409 921.923 843.163 928.459 842.993 935.418 C 831.705 935.663 820.394 935.502 809.102 935.418 C 808.992 939.269 809.079 943.291 809.102 947.155 L 809.102 958.175 L 846.91 958.175 L 846.91 978.001 C 826.205 977.85 805.712 977.715 784.999 978.001 L 784.999 876.018 z" fill="rgb(0,0,0)" transform="translate(0,0)"></path>
<path d="M 928.94 1067 L 989.942 1067 C 989.456 1073.05 989.76 1080.91 989.942 1087 L 952.998 1087 C 952.69 1092.48 952.945 1099.87 952.998 1105.53 C 963.181 1105.38 972.943 1105.21 983.142 1105.53 L 983.142 1125.82 L 952.998 1125.82 C 952.768 1131.28 952.813 1135.31 952.998 1140.73 C 952.934 1158.64 969.122 1150.27 989.942 1152.1 L 989.942 1170.96 L 928.94 1170.96 L 928.94 1067 z" fill="rgb(0,0,0)" transform="translate(0,0)"></path>
<path d="M 435.584 1067 L 494.964 1067 L 494.964 1087 L 459.522 1087 C 459.892 1093.26 459.566 1102.44 459.522 1108.92 L 490.963 1108.92 C 490.722 1117.04 494.863 1127.15 485.25 1129.79 C 474.649 1128.82 469.982 1128.55 459.522 1129.79 L 459.522 1170.96 C 451.022 1170.64 444.098 1170.69 435.584 1170.96 C 433.314 1136.67 435.984 1101.42 435.584 1067 z" fill="rgb(0,0,0)" transform="translate(0,0)"></path>
<path d="M 1006.93 1067 L 1031 1067 L 1031 1149.97 C 1046.05 1149.04 1055.82 1149.12 1070.66 1149.97 C 1070.98 1157.76 1071.04 1163.19 1070.66 1170.96 C 1051.42 1171.7 1026.56 1170.98 1006.93 1170.96 L 1006.93 1067 z" fill="rgb(0,0,0)" transform="translate(0,0)"></path>
<path d="M 1268.76 1067 L 1286.36 1067 C 1286.41 1094.61 1285.99 1122.38 1286.36 1149.97 C 1299.39 1150.06 1311.97 1149.72 1325.17 1149.97 C 1325.03 1158.48 1329.78 1169.4 1318.97 1170.96 C 1299.69 1170.99 1280.68 1170.63 1261.34 1170.96 L 1261.29 1107.08 C 1261.28 1092.62 1255.4 1068.27 1268.76 1067 z" fill="rgb(0,0,0)" transform="translate(0,0)"></path>
<path d="M 601.195 1067 L 625.636 1067 C 626.288 1100.8 625.643 1136.95 625.636 1170.96 C 617.276 1170.78 609.553 1170.77 601.195 1170.96 C 600.643 1160.29 601.131 1145.48 601.157 1134.56 L 601.195 1067 z" fill="rgb(0,0,0)" transform="translate(0,0)"></path>
<path d="M 1132.7 876.018 C 1136.55 875.698 1145.49 876.002 1149.72 876.018 C 1148.57 893.068 1155.43 975.271 1144.84 978.001 L 1125.03 978.001 L 1124.99 915.534 C 1124.97 900.791 1118.91 876.909 1132.7 876.018 z" fill="rgb(0,0,0)" transform="translate(0,0)"></path>
<path d="M 975.542 876.018 C 984.368 875.662 990.682 875.611 999.484 876.018 L 999.484 978.001 C 991.87 978.288 983.235 978.043 975.542 978.001 C 975.561 945.977 974.436 907.617 975.542 876.018 z" fill="rgb(0,0,0)" transform="translate(0,0)"></path>
<path d="M 1410.17 843.013 C 1422.03 842.551 1426.35 849.987 1432.75 849.515 C 1451.52 833.859 1448.52 869.38 1431.89 863.836 L 1413.21 855.577 L 1407.9 859.841 C 1391.5 872.812 1384.21 851.046 1410.17 843.013 z" fill="rgb(0,0,0)" transform="translate(0,0)"></path>
<metadata><recraft-signature>{"signed_by": "recraft", "signature_b64": "FmfbZL34ybc+KhkheISwpYZsZs7/iE4mI4U+3q9tEEovF2xsEKu97cROzjjsTNZ/LO+jIcqVpt5Ntfw3pPwYAw==", "signing_algo": "Ed25519", "generation_timestamp": 1772996359, "identifier": "ac676a77-545b-404b-87c7-a895ab29832c"}</recraft-signature></metadata></svg>