<svg xmlns="http://www.w3.org/2000/svg" height="512" preserveAspectRatio="none" style="display: block;" version="1.1" viewBox="0 0 2048 2048" width="512">
<path d="M 321.447 281.475 L 1638.65 281.463 C 1721.42 281.452 1759.73 260.114 1759.82 354.671 L 1759.8 1651.69 C 1759.82 1692.86 1772.72 1744.06 1732.28 1765 C 1709.37 1768.11 1668.47 1764.98 1643.67 1764.98 L 445.589 1764.98 C 405.4 1764.99 365.168 1765.3 324.999 1764.8 C 275.852 1764.18 288.989 1679.68 288.996 1647.46 L 288.936 361.318 C 288.916 327.568 280.719 291.301 321.447 281.475 z M 752.151 1087.86 C 753.247 1145.4 752.135 1207.1 752.132 1264.91 L 752.151 1618.97 L 1238.5 1618.97 L 1611 1618.97 L 1611 1087.86 L 1123.99 1087.86 L 752.151 1087.86 z M 435.997 427.515 L 435.997 939.014 L 603.124 939.014 L 603.142 598.83 C 603.145 542.446 604.014 483.751 603.124 427.515 C 547.612 425.985 491.515 426.912 435.997 427.515 z M 603.124 1087.86 C 589.186 1086.74 565.697 1087.82 550.621 1087.84 L 442.534 1087.86 C 428.022 1088.77 436.055 1121.54 436.053 1137.63 L 435.975 1498.11 C 435.969 1538.09 435.391 1579.11 435.997 1618.97 L 597.25 1618.97 L 601.384 1618.71 C 604.294 1614.95 603.045 1554.68 603.059 1545.97 L 603.177 1135.33 C 603.197 1123.46 604.063 1098.67 603.124 1087.86 z M 752.151 427.515 C 751.361 483.291 752.16 541.246 752.161 597.16 L 752.151 939.014 L 1447.83 939.005 C 1459.97 939.006 1608.93 939.812 1611 939.014 L 1611 427.515 C 1553.83 426.022 1488.66 427.528 1430.82 427.532 L 785.987 427.435 C 777.131 427.412 760.354 426.776 752.151 427.515 z" fill="rgb(0,0,0)" transform="translate(0,0)"></path>
<metadata><recraft-signature>{"signed_by": "recraft", "signature_b64": "uU6n+ERqlj4qBVRpe3SYxw/z3HhtwV2zzV8LCIUj/z7Ur0vWy04wLF5RMYyPTdgzf2s7WCER2JcgWqdmsaYfCg==", "signing_algo": "Ed25519", "generation_timestamp": 1772997376, "identifier": "751f360f-9e58-4bae-a13c-38618c3ddc09"}</recraft-signature></metadata></svg>