<svg xmlns="http://www.w3.org/2000/svg" height="512" preserveAspectRatio="none" style="display: block;" version="1.1" viewBox="0 0 2048 2048" width="512">
<path d="M 664.236 414.563 C 760.501 410.569 854.386 443.841 925.702 509.041 C 946.155 527.74 960.092 550.124 978.779 568.138 C 993.952 582.764 1018.82 594.541 1036.72 609.907 C 1056.64 594.49 1082.37 578.304 1099.92 560.892 C 1117.08 543.868 1131.54 523.654 1148.69 505.566 C 1257.86 390.428 1455.33 390.527 1578.45 483.458 C 1615.09 511.11 1633.61 537.747 1662.28 572.026 C 1672.89 584.714 1701.04 602.812 1714.96 614.542 C 1811.2 695.627 1827.06 856.413 1752.73 957.242 C 1706.63 1019.78 1628.13 1038.31 1555.1 1048.26 C 1591.94 1081.64 1599.49 1107.56 1645.51 1141.33 C 1774.07 1235.68 1781.16 1447.2 1651.44 1542.71 C 1613.21 1570.86 1519.11 1592.85 1469.24 1599.43 C 1334.74 1624.11 1029.46 1617.59 938.548 1504.97 C 844.159 1388.04 881.626 1225.76 994.428 1134.48 C 1005.99 1122.4 1027.8 1113.93 1038.79 1102.56 C 1062.13 1078.42 1079.71 1055.08 1106.24 1033.73 C 1079.56 1025.46 1068.24 1019.84 1043.67 1007.04 C 889.65 1079.18 671.156 1085.72 503.601 1058.67 C 441.506 1048.65 373.542 1036.45 325.49 992.024 C 224.785 898.915 226.193 711.919 329.079 620.586 C 349.216 602.71 372.054 589.142 392.076 571.221 C 405.568 559.096 416.567 543.873 429.046 530.7 C 484.492 468.41 579.607 417.996 664.236 414.563 z" fill="rgb(56,55,53)" transform="translate(0,0)"></path>
<path d="M 1302.7 1008.82 C 1366.9 1000.21 1454.64 1030.44 1505.17 1067.85 C 1535.33 1088.31 1551.83 1119.56 1574.83 1145.89 C 1584.86 1157.36 1609.43 1174.68 1622.48 1184.42 C 1734.05 1267.74 1723.47 1475.59 1583.54 1522.89 C 1552.71 1533.31 1492.55 1549.96 1460.68 1551.25 C 1345.85 1577.7 1063.95 1561.6 987.073 1487.26 C 899.47 1402.56 926.285 1252.84 1018.22 1177.73 C 1034.12 1164.74 1052.28 1154.83 1067.76 1141.34 C 1084.04 1127.16 1095.83 1108.7 1110.83 1093.26 C 1162.28 1040.26 1228.66 1009.92 1302.7 1008.82 z" fill="rgb(251,252,242)" transform="translate(0,0)"></path>
<path d="M 1302.7 1008.82 C 1366.9 1000.21 1454.64 1030.44 1505.17 1067.85 C 1535.33 1088.31 1551.83 1119.56 1574.83 1145.89 C 1584.86 1157.36 1609.43 1174.68 1622.48 1184.42 C 1734.05 1267.74 1723.47 1475.59 1583.54 1522.89 C 1552.71 1533.31 1492.55 1549.96 1460.68 1551.25 C 1511.22 1528.45 1570.07 1488.6 1590.92 1435.48 C 1660.12 1259.09 1453.41 1074.16 1302.7 1008.82 z" fill="rgb(253,232,127)" transform="translate(0,0)"></path>
<path d="M 1476.89 1230.19 C 1502.46 1226.93 1577.18 1289.14 1530.31 1315.51 C 1509.55 1320.68 1503.13 1306.98 1491.31 1293.51 C 1476.08 1276.15 1437.9 1249.33 1476.89 1230.19 z" fill="rgb(56,55,53)" transform="translate(0,0)"></path>
<path d="M 1110.96 1265.19 C 1130.41 1263.32 1146.11 1272.31 1140.93 1294.95 C 1138.7 1304.69 1111.03 1352.58 1101.76 1357.59 C 1042.12 1364.89 1085.94 1277.61 1110.96 1265.19 z" fill="rgb(56,55,53)" transform="translate(0,0)"></path>
<path d="M 1292.65 1116.32 C 1311.65 1116.23 1322.48 1135.48 1314.19 1150.64 C 1306.58 1164.54 1270.93 1172.67 1256.23 1176.86 C 1227.55 1179.95 1205.35 1126.91 1292.65 1116.32 z" fill="rgb(56,55,53)" transform="translate(0,0)"></path>
<path d="M 1340.05 465.494 C 1419.66 451.122 1516.96 486.588 1573.66 541.17 C 1593.31 560.088 1608.34 583.202 1626.74 603.198 C 1640.27 617.919 1657.25 629.171 1672.59 641.842 C 1760.21 709.038 1781.1 832.92 1718.23 923.466 C 1682.9 974.363 1609.91 997.254 1549.84 1000.05 C 1538.12 1002.59 1522.67 1009.75 1511.31 1014.58 C 1437.73 962.308 1322.31 949.64 1235.52 969.048 C 1214.89 969.425 1179.21 991.771 1162.73 993.493 C 1133.48 996.548 1073.92 975.697 1053.92 957.379 C 979.747 889.44 980.704 744.274 1044.94 670.093 C 1069.75 641.45 1097.07 625.611 1125.74 602.105 C 1144.21 586.834 1158.16 563.582 1175.06 546.554 C 1217.36 499.167 1277.08 471.692 1340.05 465.494 z" fill="rgb(251,252,242)" transform="translate(0,0)"></path>
<path d="M 1340.05 465.494 C 1419.66 451.122 1516.96 486.588 1573.66 541.17 C 1593.31 560.088 1608.34 583.202 1626.74 603.198 C 1640.27 617.919 1657.25 629.171 1672.59 641.842 C 1760.21 709.038 1781.1 832.92 1718.23 923.466 C 1682.9 974.363 1609.91 997.254 1549.84 1000.05 C 1663.24 932.22 1674.74 841.668 1633.34 718.342 C 1619.11 675.955 1599.34 655.778 1569.9 623.737 C 1503.7 551.094 1449.82 500.792 1355.59 471.064 C 1350.25 469.38 1345.05 468.126 1340.05 465.494 z" fill="rgb(253,232,127)" transform="translate(0,0)"></path>
<path d="M 1535.43 687.093 C 1559.99 685.905 1630.3 753.883 1580.28 773.31 C 1560.61 769.507 1482.37 714.159 1535.43 687.093 z" fill="rgb(56,55,53)" transform="translate(0,0)"></path>
<path d="M 1177.6 721.218 C 1231.14 720.201 1180.58 804.838 1160.76 809.619 C 1104.21 806.648 1155.37 723.38 1177.6 721.218 z" fill="rgb(56,55,53)" transform="translate(0,0)"></path>
<path d="M 1349.59 575.56 C 1371.88 572.271 1383.68 598.045 1371.32 613.543 C 1363.1 623.839 1330.24 624.697 1316.8 626.036 C 1292.42 626.862 1275.31 605.698 1290.05 589.151 C 1302.44 575.257 1331.46 577.055 1349.59 575.56 z" fill="rgb(56,55,53)" transform="translate(0,0)"></path>
<path d="M 674.733 460.673 C 754.221 456.886 838.36 494.171 896.096 546.666 C 917.833 566.43 925.369 581.513 943.317 600.891 C 955.554 614.103 988.699 633.649 1004.72 646.258 C 980.24 677.849 966.556 702.867 957.67 742.767 C 946.034 806.596 949.722 855.891 970.761 917.373 C 979.794 940.172 989.226 954.526 1004.72 973.809 C 966.119 987.132 909.667 1006.15 868.331 1008.82 C 853.051 1013.82 837.54 1015.07 821.713 1017.33 C 712.202 1032.95 437.185 1034.57 351.038 950.063 C 272.855 873.372 284.335 721.102 367.687 649.904 C 384.079 635.911 404.908 624.5 420.402 609.668 C 441.556 589.418 460.856 566.506 481.075 544.965 C 522.834 500.474 613.626 460.74 674.733 460.673 z" fill="rgb(251,252,242)" transform="translate(0,0)"></path>
<path d="M 674.733 460.673 C 754.221 456.886 838.36 494.171 896.096 546.666 C 917.833 566.43 925.369 581.513 943.317 600.891 C 955.554 614.103 988.699 633.649 1004.72 646.258 C 980.24 677.849 966.556 702.867 957.67 742.767 C 901.721 607.145 815.086 512.865 674.733 460.673 z" fill="rgb(253,232,127)" transform="translate(0,0)"></path>
<path d="M 970.761 917.373 C 979.794 940.172 989.226 954.526 1004.72 973.809 C 966.119 987.132 909.667 1006.15 868.331 1008.82 C 874.631 1003.93 897.715 991.213 907.613 984.027 C 940.07 960.463 947.487 945.509 970.761 917.373 z" fill="rgb(253,232,127)" transform="translate(0,0)"></path>
<path d="M 477.285 721.218 C 532.818 717.161 487.773 804.177 463.839 813.871 C 403.308 818.13 457.731 727.996 477.285 721.218 z" fill="rgb(56,55,53)" transform="translate(0,0)"></path>
<path d="M 851.36 692.21 C 872.83 690.577 943.122 752.222 894.041 773.31 C 873.518 776.523 799.939 709.713 851.36 692.21 z" fill="rgb(56,55,53)" transform="translate(0,0)"></path>
<path d="M 651.535 575.56 C 664.943 576.724 675.181 582.172 678.295 596.363 C 684.383 624.104 636.132 629.014 616.13 633.628 C 584.392 637.024 577.619 593.265 610.656 586.326 C 623.312 583.668 638.776 578.902 651.535 575.56 z" fill="rgb(56,55,53)" transform="translate(0,0)"></path>
<metadata><recraft-signature>{"signed_by": "recraft", "signature_b64": "c27eEmF0TPUa1UKwIhkfrGKxQFOZabdLiXnpxuIYR7iitmI5TV5CaIqpdUSPvX5WKs4vWZ2O8w9zLplx5H3lCg==", "signing_algo": "Ed25519", "generation_timestamp": 1772995668, "identifier": "221198ad-55c4-4604-bd0d-b45ad5824293"}</recraft-signature></metadata></svg>