<svg xmlns="http://www.w3.org/2000/svg" height="512" preserveAspectRatio="none" style="display: block;" version="1.1" viewBox="0 0 2048 2048" width="512">
<path d="M 256.172 341.421 C 291.82 342.024 329.357 341.429 365.153 341.428 L 1731.9 341.427 C 1751.06 341.451 1773.53 342.66 1791.99 341.421 L 1791.98 1374.55 C 1791.91 1482.31 1798.53 1540.21 1715.22 1629.13 C 1662.71 1680.49 1595.22 1708.38 1521.72 1709 L 612.197 1709.01 C 567.905 1709.04 517.446 1711.9 474.457 1704.36 C 361.587 1684.55 268.803 1586.06 258.017 1471.51 C 254.329 1432.34 256.137 1389.57 256.168 1349.85 L 256.172 341.421 z M 940.355 1660.07 C 941.719 1597.43 940.32 1528.65 940.332 1465.65 L 940.355 1108 C 770.158 1110.07 597.874 1106.09 427.598 1108 L 427.575 1284.85 C 427.568 1393.59 418.713 1489.24 504.21 1572.93 C 560.162 1627.7 635.386 1660.95 714.104 1660.61 L 940.355 1660.07 z M 1109.58 512.001 C 1108.79 558.663 1109.58 607.677 1109.58 654.553 L 1109.58 938.773 L 1562.27 938.786 C 1579.5 938.79 1601.43 939.536 1618.2 938.773 L 1620.37 938.636 C 1622.72 930.8 1621.05 846.881 1621.04 834.287 L 1621.04 512.001 L 1109.58 512.001 z M 1109.58 1660.07 L 1259.04 1660.1 C 1357.45 1660.08 1433.65 1665.38 1516.44 1596.41 C 1621.95 1514.4 1621.06 1417.31 1621.04 1300.19 L 1621.04 1108 L 1150.99 1108 C 1137.06 1108.47 1123.52 1108.97 1109.58 1108 L 1109.59 1598.23 C 1109.6 1617.81 1110.18 1640.77 1109.58 1660.07 z M 434.794 512.001 C 420.428 513.284 427.582 534.561 427.596 550.706 L 427.598 938.773 C 483.505 939.46 541.028 938.775 597.054 938.773 L 936.25 938.773 L 939.415 938.527 C 942.439 930.688 940.364 664.355 940.363 637.474 L 940.374 556.937 C 940.397 542.712 940.985 525.97 940.355 512.001 L 490.032 511.971 C 473.99 511.96 450.382 511.172 434.794 512.001 z" fill="rgb(0,0,0)" transform="translate(0,0)"></path>
<metadata><recraft-signature>{"signed_by": "recraft", "signature_b64": "DN1zCNcvv82Vd0YQlb0gzXQD7YA3QI5+eTl45pJ2kHpxjQznv4CFf8lg22onIVIFfWWxHvVaNiRXSZXtPn3kAQ==", "signing_algo": "Ed25519", "generation_timestamp": 1772997133, "identifier": "ac172fbc-4ab6-43a5-9428-5e9f92961b00"}</recraft-signature></metadata></svg>