<svg xmlns="http://www.w3.org/2000/svg" height="512" preserveAspectRatio="none" style="display: block;" version="1.1" viewBox="0 0 2048 2048" width="512">
<path d="M 1454.56 275.451 C 1510.42 273.173 1553.33 293.813 1591.77 334.2 C 1598.02 339.735 1609.96 360.371 1616.89 363.321 C 1643.4 374.598 1665.84 372.559 1688.62 394.057 C 1729.96 433.056 1731.68 489.375 1693.45 531.218 C 1676.64 507.998 1679.85 482.904 1641.8 481.032 C 1608.66 479.401 1535.12 483.889 1510.48 507.53 C 1429.39 588.143 1507.77 751.433 1502.82 853.112 C 1495.93 994.697 1436.93 1122.92 1334.16 1220.71 C 1324.66 1229.75 1304.95 1408.19 1246.55 1463.01 C 1260.51 1497.36 1273.06 1533.78 1286.85 1567.01 C 1340.95 1567.12 1380.94 1555.52 1416.17 1613.86 C 1429.92 1636.63 1419.3 1678.24 1413.33 1702.71 C 1404.24 1680.95 1404.56 1676.69 1380.96 1663.85 C 1382.19 1694.4 1378.62 1724.36 1350.82 1742.29 C 1351.38 1734.66 1351.76 1720.32 1347.64 1713.95 C 1330.38 1687.29 1241.37 1672.97 1204.75 1661.24 C 1205.42 1692.27 1206.49 1713.5 1184.71 1736.74 C 1186.19 1707.69 1178.66 1703.97 1154.84 1689.37 C 1155.78 1723.19 1149.83 1743.84 1121.87 1764.44 C 1123.26 1754.78 1125.58 1743.61 1120.25 1734.78 C 1097.77 1697.6 987.727 1686.32 944.485 1673.38 L 943.462 1673.07 C 921.324 1680.35 915.879 1684.22 901.197 1702.71 C 899.882 1648.25 906.765 1594.28 973.68 1593.2 C 958.209 1551.52 941.956 1506.82 925.852 1465.19 C 923.924 1460.2 905.09 1439.97 900.07 1432.6 L 898.935 1430.91 L 894.474 1434 C 861.972 1456.18 824.65 1459.01 786.811 1451.87 C 780.449 1465.91 769.762 1483.61 762.26 1498.08 C 728.708 1542.98 702.91 1585.3 653.247 1616.79 C 644.602 1621.22 621.199 1637 611.928 1633.91 C 586.773 1625.52 623.761 1583.36 632.798 1563.74 C 628.511 1568.14 615.851 1587.99 610.198 1594.93 C 592.343 1616.86 514.583 1674.72 486.852 1658.02 C 463.328 1643.86 516.816 1596.48 527.434 1581 L 527.181 1579.85 C 524.759 1581.47 506.706 1599.38 502.666 1603.24 C 483.222 1621.8 404.502 1666.36 379.778 1647.14 C 358.835 1630.87 430.994 1566.63 444.543 1553 C 415.228 1569.64 390.057 1584.56 356.625 1592.54 C 338.554 1596.85 325.668 1581.98 336.301 1569.63 C 397.796 1498.15 470.78 1429.42 536.729 1362.7 C 514.676 1359.2 334.011 1316.02 329.822 1292.25 C 327.243 1277.61 348.283 1273.06 359.031 1269.3 C 536.086 1207.43 658.853 1062.77 782.782 929.982 C 870.496 835.999 911.858 790.247 1038.48 752.613 C 1050.54 747.815 1071.17 746.997 1082.16 740.944 C 1186.37 683.554 1226.25 544.523 1269.5 438.335 C 1306.64 347.158 1343.26 284.294 1454.56 275.451 z M 671.641 1101.91 C 714.276 1103.26 733.245 1103.74 773.358 1085.31 C 759.573 1110.25 751.255 1121.86 731.459 1143.1 C 775.53 1160.55 819.123 1155.64 860.07 1132.74 C 844.56 1161.15 835.034 1172.64 813.859 1195.28 C 839.685 1200.99 850.279 1200.85 876.248 1199.38 C 906.063 1193.32 919.04 1185.58 943.462 1168.64 C 926.65 1206.59 922.333 1205.81 898.935 1236.07 C 954.614 1242.33 977.92 1235.94 1021.56 1201.14 L 1023.77 1199.38 C 1013.94 1231.84 1012.02 1238.42 992.389 1265.7 C 1158.24 1235.55 1283.78 1000.78 1261.52 848.173 C 1251.87 782.014 1204.03 771.892 1148.05 772.011 C 928.386 783.536 860.546 901.834 720.154 1049.56 C 705.241 1066.03 683.262 1083.75 671.641 1101.91 z M 1360.98 1023.48 C 1325.21 1077.39 1300.37 1090.95 1294.47 1015.2 C 1285.83 1028.69 1268.77 1051.24 1257.37 1063.06 C 1211.36 1146.63 1185.74 1193.6 1107.83 1259.2 C 1110.04 1263.36 1125.86 1294.16 1127.69 1295.58 C 1271.05 1253.08 1373.07 1150.32 1433.39 1015.2 L 1432.26 1016.07 C 1384.11 1053.71 1390.13 1083.47 1360.98 1023.48 z M 1133.2 1580.99 C 1149.8 1580.88 1168.27 1580.42 1184.71 1580.99 C 1164.25 1543.35 1153.94 1500.84 1135.68 1465.32 C 1133.95 1461.97 1101.6 1429.26 1094.87 1423.71 C 1076.35 1451.86 1067.69 1466.71 1043.18 1490.11 C 1053.47 1514.57 1069.94 1555.55 1078.12 1580.99 L 1133.2 1580.99 z M 893.201 1380.98 L 881.393 1366.49 C 812.245 1379.02 774.397 1381.16 705.377 1380.98 C 695.749 1392.33 634.202 1473.21 669.396 1481.35 C 700.331 1488.51 734.878 1455.15 752.797 1433.35 C 766.297 1416.93 765.53 1404.5 787.58 1413.64 C 827.681 1430.27 871.937 1419.38 893.201 1380.98 z M 1561.49 427.532 C 1568.37 409.772 1574.68 398.034 1584.19 381.593 C 1574.99 369.208 1565.95 356.178 1554.71 345.549 C 1483.46 278.166 1361.66 312.907 1324.13 399.697 C 1292.32 473.27 1265.14 548.536 1232.48 621.726 C 1263.7 592.627 1303.88 485.242 1338.11 442.51 C 1365.03 408.908 1414.28 388.673 1454.4 411.202 C 1498.61 436.025 1503.25 452.318 1561.49 427.532 z" fill="rgb(59,55,54)" transform="translate(0,0)"></path>
<path d="M 1232.48 621.726 C 1263.7 592.627 1303.88 485.242 1338.11 442.51 C 1365.03 408.908 1414.28 388.673 1454.4 411.202 C 1498.61 436.025 1503.25 452.318 1561.49 427.532 C 1559.83 436.984 1559.96 440.347 1561.49 450.329 C 1493.65 467.113 1464.63 487.696 1447.2 558.185 C 1433.86 612.18 1435.12 662.571 1449.58 716.275 C 1478.43 824.954 1468.68 908.333 1433.39 1015.2 L 1432.26 1016.07 C 1384.11 1053.71 1390.13 1083.47 1360.98 1023.48 C 1325.21 1077.39 1300.37 1090.95 1294.47 1015.2 C 1285.83 1028.69 1268.77 1051.24 1257.37 1063.06 C 1259.11 1052.9 1269.8 1029.48 1274.02 1017.49 C 1318.23 891.744 1321.67 731.371 1151.42 735.927 C 1178.08 698.89 1199.79 683.823 1223.81 636.653 C 1226.05 632.246 1229.41 625.421 1232.48 621.726 z" fill="rgb(236,165,77)" transform="translate(0,0)"></path>
<path d="M 1454.56 365.328 C 1489.18 363.756 1523.53 369.593 1557.16 368.635 C 1548.98 374.167 1544.02 376.172 1534.74 378.988 C 1534.84 378.818 1534.79 387.412 1534.74 388.355 C 1528.09 420.174 1484.81 417.56 1487.09 378.988 C 1476.44 376.022 1464.13 370.819 1454.56 365.328 z" fill="rgb(59,55,54)" transform="translate(0,0)"></path>
<path d="M 881.393 1366.49 C 967.548 1353.74 1040.42 1312.61 1107.83 1259.2 C 1110.04 1263.36 1125.86 1294.16 1127.69 1295.58 C 1112.75 1300.31 1059.11 1446.88 1016.46 1461.23 C 950.232 1483.52 923.238 1366.23 893.201 1380.98 L 881.393 1366.49 z" fill="rgb(236,165,77)" transform="translate(0,0)"></path>
<path d="M 1289.86 1252.99 C 1290.04 1270.13 1253.43 1383.85 1247 1400.11 C 1224.04 1458.18 1183.01 1456.33 1140.61 1419.78 C 1131.28 1411.6 1121.24 1399.5 1113.61 1389.77 C 1129.15 1364.95 1135.91 1353.28 1148.05 1326.3 C 1199.78 1307.83 1244.53 1283.56 1289.86 1252.99 z" fill="rgb(236,165,77)" transform="translate(0,0)"></path>
<path d="M 970.583 1490.11 C 984.615 1493.47 994.505 1496.46 1009 1498.08 C 1016.57 1522.49 1041.32 1587.87 1052.42 1606.64 C 1070.51 1637.22 1125.39 1587.07 1169.8 1654.31 C 1150.19 1647.65 1138.82 1635.17 1124.11 1630.49 C 1072.17 1613.97 1069.05 1653.59 1103.75 1661.24 C 1118.9 1659.76 1119.54 1674.48 1121.87 1685.89 C 1094.16 1669.88 1075.91 1667.81 1045.12 1660.69 L 980.991 1645.89 C 969.28 1643.28 957.7 1641.36 946.102 1638.28 C 977.996 1614.65 1005.94 1640.32 1016.2 1612.59 C 1012.13 1587.13 983.097 1513.95 970.583 1490.11 z" fill="rgb(236,165,77)" transform="translate(0,0)"></path>
<path d="M 1214.96 1479.69 C 1220.49 1481.68 1250.92 1578.74 1261.89 1591.71 C 1277.28 1609.91 1326.23 1598.87 1349 1600.92 L 1350.82 1601.1 C 1363.98 1608.09 1380.42 1623.38 1391.19 1634.06 C 1302.19 1584.07 1281.37 1630.15 1308.55 1640.67 C 1322.79 1646.18 1330.26 1645.15 1343.88 1654.31 C 1349.97 1656.71 1359.1 1665.33 1356.27 1671.62 L 1354.62 1671.76 C 1334.46 1654.79 1307.64 1651.02 1282.56 1645.22 L 1220.66 1630.52 C 1202.69 1626.19 1191.84 1626.72 1178.75 1612.59 C 1200.27 1612.82 1218.21 1617.61 1224.57 1593.2 C 1218.02 1564.06 1191.44 1508.04 1178.75 1479.69 C 1191.46 1480.43 1202.34 1480.33 1214.96 1479.69 z" fill="rgb(236,165,77)" transform="translate(0,0)"></path>
<path d="M 1611.85 396.74 C 1659.43 409.097 1678.71 412.435 1687.78 465.5 C 1683.68 462.301 1679.51 459.334 1675.3 456.294 C 1632.64 428.353 1562.49 481.844 1611.85 396.74 z" fill="rgb(236,165,77)" transform="translate(0,0)"></path>
<metadata><recraft-signature>{"signed_by": "recraft", "signature_b64": "dXTbfQrhy4HuQb6NgbXXmfa91nHtu5dDwMWmPs8REB3q/QVN2XTLAE+s3fbZjHSNqpa98ns8vUgpTkjcx2zPDQ==", "signing_algo": "Ed25519", "generation_timestamp": 1772997477, "identifier": "609d74e4-0957-4ea9-b2e3-dda7edcb0a64"}</recraft-signature></metadata></svg>