<svg xmlns="http://www.w3.org/2000/svg" height="512" preserveAspectRatio="none" style="display: block;" version="1.1" viewBox="0 0 2048 2048" width="512">
<path d="M 270.488 1021.05 L 1728.4 1021.01 C 1794.94 1020.8 1810 1005.45 1810.03 1078.31 L 1809.84 1326.96 C 1809.74 1348.87 1799.39 1357.62 1777.25 1356.31 L 292.68 1356.41 C 269.729 1356.48 240.873 1362.89 239.919 1331 L 239.928 1052 C 239.971 1027.81 247.974 1022.8 270.488 1021.05 z M 549.401 1304.96 C 659.002 1308.1 646.788 1066.48 535.974 1085.44 C 429.299 1098.89 436.061 1321.14 544.478 1305.71 L 549.401 1304.96 z M 1258.67 1096.13 L 1258.64 1224.75 C 1258.64 1234.51 1256.32 1296.79 1261.02 1301.66 C 1275.14 1316.31 1352.6 1294.3 1369.5 1282.78 C 1395.9 1255.07 1403.98 1228.32 1403.55 1190.02 C 1402.57 1103.69 1347.34 1085.86 1272.04 1087.16 C 1263.46 1088.56 1263.55 1089.2 1258.67 1096.13 z M 883.615 1282.78 C 926.547 1241.79 936.946 1159.76 894.161 1116.78 C 861.923 1084.39 833.943 1088.45 792.879 1087.16 C 769.91 1092.33 777.919 1115.75 777.93 1138.17 L 777.982 1213.17 C 777.993 1233.56 776.574 1279.08 778.267 1297.49 C 791.68 1318.95 864.753 1298.76 883.615 1282.78 z M 1479.04 1268.98 C 1488.28 1268.88 1522.13 1264.59 1523.19 1274.19 C 1527.59 1296.55 1521.7 1307.93 1550.82 1305.91 C 1558.45 1305.38 1576.3 1308.19 1581.74 1301.84 C 1583.73 1295.91 1544.62 1116.6 1537.08 1094.01 C 1533.95 1084.64 1489.44 1086.59 1479.04 1087.16 C 1457.29 1091.19 1461.55 1105.96 1457.7 1124.9 C 1449.34 1165.98 1419.92 1263.48 1420.66 1301.44 C 1427.39 1306.95 1438.42 1304.69 1446.49 1305.22 C 1481.73 1307.55 1473.69 1299.2 1479.04 1268.98 z M 1174.58 1175.01 C 1174.52 1163.19 1174.18 1149.71 1174.58 1138.04 C 1185.63 1139.43 1214.19 1142.85 1223.25 1136.78 C 1229.77 1127.14 1228.49 1090.24 1220.66 1088.73 C 1203.32 1085.38 1154.26 1087.23 1137.52 1087.16 C 1122.69 1088.55 1120.51 1092.95 1119.84 1107.9 C 1118.32 1141.87 1119.35 1176.1 1119.25 1210.13 L 1118.99 1262.27 C 1118.93 1277.73 1113.61 1304.36 1135.94 1304.96 C 1147.56 1305.27 1222.24 1307.5 1224.56 1300.99 C 1233.39 1276.1 1233.16 1254.54 1204.75 1253.17 L 1174.58 1253.17 L 1174.58 1219 C 1185.35 1218.96 1201.16 1219.93 1210.73 1215.54 C 1221.02 1210.82 1218.1 1183.65 1211.2 1177.65 C 1205.57 1172.75 1182.55 1175.13 1174.58 1175.01 z M 324.004 1300.16 C 338.962 1304.69 365.534 1304.56 380.217 1300.16 C 380.841 1288.87 376.172 1215.38 384.925 1215.51 C 410.18 1215.59 431.171 1225.23 431.371 1191.78 C 431.587 1155.54 412.159 1166.9 380.217 1166.51 C 380.771 1155.68 380.754 1148.83 380.217 1138.04 C 422.676 1137.98 434.502 1148.24 431.07 1099.64 C 430.777 1095.49 431.045 1092.66 428.546 1089.04 C 422.073 1086.64 344.457 1086.25 334.918 1087.16 C 315.13 1090.52 323.952 1154.57 323.962 1175 L 324.004 1300.16 z M 745.722 1304.96 C 763.979 1299.77 757.3 1255.37 752.017 1250.75 C 742.457 1247.14 716.48 1249.45 704.046 1249 C 703.295 1227.8 706.884 1097.61 701.303 1091.22 C 697.483 1086.85 671.944 1087.41 665.501 1087.16 C 639.572 1091.4 650.931 1157.33 650.946 1183.68 L 650.98 1250.21 C 650.905 1326.59 658.604 1305.14 745.722 1304.96 z M 1047.05 1149.11 C 1058.01 1140.94 1087.78 1125.92 1071.54 1109.4 C 1055.99 1093.29 1036.08 1084.56 1013.72 1085.44 C 940.496 1092.99 938.362 1172.51 943.372 1229.99 C 952.915 1339.48 1096.93 1343.07 1089.34 1199.93 C 1086.51 1181.11 1075.1 1188.36 1059.46 1186.88 C 1038.47 1184.88 1005.49 1189.37 1024.95 1219 C 1028.75 1221.59 1032.57 1224.31 1036.55 1226.6 C 1032 1284.31 983.467 1262.85 994.444 1179.59 C 997.524 1156.23 1002.05 1144.84 1024.95 1138.04 C 1032.24 1141.36 1040.12 1145.09 1047.05 1149.11 z M 1662.78 1087.16 C 1570.34 1095.23 1560.83 1321.06 1681.89 1308.6 C 1741.76 1302.43 1760.32 1190.43 1729.25 1187.47 L 1688.49 1187.5 C 1681.85 1187.46 1673.86 1186.88 1667.51 1187.47 C 1664.43 1223.48 1663.25 1217.46 1693.94 1226.6 C 1690.58 1236.39 1686.05 1255.38 1674.38 1257.57 C 1625.8 1266.7 1639.72 1085.49 1693.94 1158.54 C 1709.24 1150.56 1721.87 1139.56 1733.39 1126.74 C 1719.19 1101.18 1693.08 1082.58 1662.78 1087.16 z" fill="rgb(1,1,0)" transform="translate(0,0)"></path>
<path d="M 545.223 1138.04 C 580.763 1141.59 583.092 1246.97 545.223 1253.17 C 505.031 1255.3 513.661 1176.64 523.202 1154 C 527.624 1143.5 535.333 1141.5 545.223 1138.04 z" fill="rgb(1,1,0)" transform="translate(0,0)"></path>
<path d="M 1311.91 1149.11 C 1357.43 1143.18 1366.53 1204.89 1342 1232.34 C 1334.58 1241.78 1322.83 1241.85 1311.91 1242.64 C 1311.04 1219.31 1309.21 1172.17 1311.91 1149.11 z" fill="rgb(1,1,0)" transform="translate(0,0)"></path>
<path d="M 830.766 1142.81 C 876.809 1142.9 878.964 1207.26 855.744 1235.4 C 847.773 1243.02 840.893 1245.79 830.766 1249 L 830.766 1142.81 z" fill="rgb(1,1,0)" transform="translate(0,0)"></path>
<path d="M 1501.17 1166.51 C 1503.25 1168.35 1524.4 1218.4 1506.25 1219 L 1489.94 1219 C 1492.11 1203.3 1496.68 1181.45 1501.17 1166.51 z" fill="rgb(1,1,0)" transform="translate(0,0)"></path>
<path d="M 188.819 687.284 C 229.208 693.113 216.708 739.755 217.535 772.189 C 231.379 753.512 256.123 709.186 270.417 695.048 C 289.705 675.969 326.765 697.819 315.448 723.954 C 307.132 743.159 265.946 799.073 252.551 817.36 C 264.038 832.274 322.421 911.135 324.004 924.275 C 325.957 944.393 318.679 948.606 300.651 954.08 C 265.965 944.568 237.087 891.043 217.535 860.904 C 217.645 878.241 221.103 924.432 213.646 938.135 C 201.467 960.517 168.755 959.655 162.877 932.614 C 160.019 919.469 161.516 903.632 161.518 890.172 L 161.442 758.81 C 161.125 728.342 152.687 695.099 188.819 687.284 z" fill="rgb(1,1,0)" transform="translate(0,0)"></path>
<path d="M 569.025 823.114 C 568.923 801.105 567.452 777.123 570.642 755.512 C 571.455 750.003 622.212 735.536 621.741 768.146 C 620.963 822.084 621.881 876.273 621.301 930.222 C 621.099 948.69 613.838 949.026 598.25 950.843 C 589.039 950.582 570.468 953.503 566.248 943.07 C 555.872 917.417 548.147 892.296 535.974 867.26 C 536.121 880.67 541.577 942.923 530.052 949.007 C 524.034 952.183 490.181 953.751 486.633 945.231 C 482.715 935.823 480.424 765.99 485.704 755.304 C 488.068 750.521 492.901 749.625 497.571 748.2 C 556.25 747.596 544.271 764.581 569.025 823.114 z" fill="rgb(1,1,0)" transform="translate(0,0)"></path>
<path d="M 1113.84 741.23 C 1217.93 730.327 1218.68 943.598 1133.01 950.843 C 1038.31 974.334 1013.55 764.413 1113.84 741.23 z M 1128.33 898.083 C 1152.08 885.607 1150.03 792.738 1119.16 792.689 C 1091.91 814.417 1098.99 913.263 1128.33 898.083 z" fill="rgb(1,1,0)" transform="translate(0,0)"></path>
<path d="M 1232.85 743.1 C 1352.11 731.44 1374.12 875.873 1305.13 934.089 C 1283.73 949.153 1239.47 958.95 1216.08 947.708 C 1207.3 943.487 1209.95 915.18 1209.99 905.52 L 1209.99 802.215 C 1209.73 773.277 1200.64 749.113 1232.85 743.1 z M 1280.37 886.051 C 1298.52 857.544 1298.27 803.487 1260.88 792.689 C 1259.47 800.733 1260.95 893.627 1262.44 897.154 C 1269.22 899.066 1276.8 891.188 1280.37 886.051 z" fill="rgb(1,1,0)" transform="translate(0,0)"></path>
<path d="M 1532.45 743.1 C 1582.87 743.641 1583.08 735.404 1590.41 784.971 C 1597.74 834.623 1612.69 882.619 1620.51 931.986 C 1622.41 943.963 1598.92 955.459 1587.45 953.755 C 1561.94 949.965 1571.64 927.258 1559.74 912.718 C 1512.65 895.93 1530.7 946.335 1507.39 952.884 C 1495.66 956.182 1474.04 949.519 1471.13 935.949 C 1467.55 919.218 1498.36 775.064 1514.93 748.2 C 1522.22 744.78 1524.59 744.589 1532.45 743.1 z M 1548.13 867.26 C 1562.47 867.567 1551.66 821.714 1543.02 813.5 C 1537.47 832.408 1524.3 865.555 1548.13 867.26 z" fill="rgb(1,1,0)" transform="translate(0,0)"></path>
<path d="M 1698.55 741.23 C 1778.46 741.799 1766.4 850.518 1715.13 812.224 C 1707.4 806.45 1703.58 795.749 1693.94 788.955 C 1646.42 838.77 1702.29 940.192 1710.39 888.179 C 1712.68 873.527 1685.31 882.164 1693.94 832 C 1710.37 831.192 1740.31 831.374 1756.47 832 C 1761.2 841.272 1764.26 916.939 1755.76 927.809 C 1734.02 955.611 1687.36 962.758 1659.16 940.855 C 1616.12 907.642 1617.95 803.311 1648.91 764.208 C 1663.03 746.766 1677.76 743.591 1698.55 741.23 z" fill="rgb(1,1,0)" transform="translate(0,0)"></path>
<path d="M 343.346 748.2 C 391.878 749.466 385.125 748.512 385.001 796.763 L 384.906 862.387 C 384.918 871.5 383.958 890.33 390.268 896.624 C 428.958 910.96 395.164 778.033 411.735 753.45 C 417.399 745.048 453.128 747.883 458.438 753.381 C 464.075 759.217 461.494 803.501 461.435 813.5 C 461.556 850.375 467.951 889.947 447.68 921.584 C 419.39 973.695 349.449 951.19 334.027 903.193 C 325.066 875.304 334.777 800.137 331.067 767.682 C 330.009 758.429 334.474 750.894 343.346 748.2 z" fill="rgb(1,1,0)" transform="translate(0,0)"></path>
<path d="M 934.114 694.648 C 954.748 695.001 1048.84 684.567 1049.74 707.728 C 1050.64 740.414 1055.69 749.769 1018.46 748.379 C 982.052 748.853 968.66 739.742 972.839 783.526 C 975.574 812.191 1029.13 766.793 1033.4 814.014 C 1036.72 850.712 1018.18 843.053 989.07 842.967 C 988.735 843.061 988.399 843.155 988.064 843.249 L 986.491 843.72 C 962.302 850.847 976.029 912.474 973.078 939.305 C 971.817 951.111 957.451 951.051 948.478 951.922 C 914.291 955.241 921.017 928.01 921.029 904.352 L 920.945 713.347 C 920.962 700.882 922.701 698.877 934.114 694.648 z" fill="rgb(1,1,0)" transform="translate(0,0)"></path>
<path d="M 1393.06 743.1 C 1424.62 743.523 1479.07 735.714 1457.25 788.936 C 1451.8 802.235 1389.88 783.861 1410.04 820.231 C 1428.09 833.187 1457.38 803.697 1455.55 850.38 C 1454.42 879.322 1435.14 869.705 1409.67 869.917 C 1405.43 905.851 1415.58 897.916 1446.3 898.083 C 1461.88 906.919 1457.46 943.748 1451.7 947.548 C 1443.76 952.787 1378.57 951.824 1367.81 948.823 C 1345.39 942.567 1354.95 761.784 1358.45 751.951 C 1366.62 743.714 1381.4 744.124 1393.06 743.1 z" fill="rgb(1,1,0)" transform="translate(0,0)"></path>
<path d="M 659.864 748.2 C 670.079 746.739 732.351 746.787 737.285 750.585 C 745.116 757.007 744.962 783.803 738.768 790.333 C 730.789 798.744 706.633 794.733 694.455 795.783 L 694.455 823.114 C 725.28 821.113 742.093 811.042 739.973 850.219 C 738.102 884.779 708.343 860.644 695.59 871.849 C 694.062 876.863 694.512 892.262 694.455 898.083 C 703.338 898.537 710.697 898.344 719.533 898.083 C 757.264 898.138 753.769 933.49 738.208 950.843 C 730.002 952.177 651.749 951.307 647.457 948.39 C 638.574 927.963 642.927 792.049 643.486 763.819 C 643.749 750.557 648.188 749.309 659.864 748.2 z" fill="rgb(1,1,0)" transform="translate(0,0)"></path>
<path d="M 1830.8 741.23 C 1857.91 736.209 1919.96 786.782 1857.9 806.742 C 1851.34 803.082 1839.78 789.261 1834.26 789.503 C 1826.05 800.85 1850.62 821.99 1858.73 828.978 C 1899.04 863.712 1902.62 953.487 1830.8 954.08 C 1796.83 953.59 1752.13 923.435 1782.15 892.106 C 1800.15 873.316 1835.51 925.761 1831.14 891.09 C 1826.94 857.805 1779.28 848.866 1777.21 808.152 C 1775.31 770.927 1790.75 743.235 1830.8 741.23 z" fill="rgb(1,1,0)" transform="translate(0,0)"></path>
<path d="M 807.82 743.1 C 828.296 745.614 849.279 748.747 862.747 765.85 C 871.475 776.934 875.007 789.286 862.049 797.896 C 836.804 817.165 814.422 779.277 813.401 802.907 C 826.6 828.448 875.039 839.809 876.751 888.01 C 877.978 922.561 855.076 952.216 819.466 954.08 C 772.223 956.964 734.951 904.923 781.038 885.342 C 795.576 879.165 812.174 917.817 825.215 898.228 C 836.354 873.785 735.084 845.943 767.868 772.989 C 774.865 757.418 791.874 748.331 807.82 743.1 z" fill="rgb(1,1,0)" transform="translate(0,0)"></path>
<metadata><recraft-signature>{"signed_by": "recraft", "signature_b64": "YD3QfAhcTYJV0chEVz1fYUJHaW3OfMSeEKKkjIyFrHH29vTtciAZ5qUWvw5cIJTkt87POXN+p/F/vSWhQPk1DA==", "signing_algo": "Ed25519", "generation_timestamp": 1772996369, "identifier": "db19e40e-ef12-45e1-8c22-43abd9a225a3"}</recraft-signature></metadata></svg>