<svg xmlns="http://www.w3.org/2000/svg" height="512" preserveAspectRatio="none" style="display: block;" version="1.1" viewBox="0 0 2048 2048" width="512">
<path d="M 566.006 941.51 L 1588.66 941.436 C 1622.36 941.291 1650.01 937.825 1677.41 962.815 C 1727.4 1008.4 1705.92 1091.07 1638.84 1103.72 C 1623.63 1106.59 1603.12 1105.35 1587.06 1105.34 L 1270.75 1105.3 C 1232.9 1105.3 1191.11 1104.3 1153.76 1105.29 C 1161.91 1119.98 1181.07 1145.59 1191.17 1160.64 L 1428.54 1510.64 C 1467.47 1567.78 1506.19 1625.59 1546.5 1681.78 C 1631.46 1796.69 1499.69 1871 1434.81 1802.69 C 1422.99 1790.25 1412.03 1771.65 1402.3 1757.26 L 1210.83 1474.16 C 1148.33 1383.54 1088.52 1289.13 1025.58 1198.37 C 1014.56 1205.46 992.004 1243.97 983.211 1257.06 L 647.592 1755.02 C 627.104 1785.49 608.77 1822.49 569.574 1828.69 C 525.506 1835.66 484.8 1808.14 477.086 1763.99 C 468.986 1717.62 499.515 1686.73 523.259 1651.56 L 801.875 1241.6 C 832.753 1196 863.338 1150.14 895.3 1105.29 L 464.004 1105.33 C 447.57 1105.33 419.655 1107.05 404.964 1103.59 C 322.839 1084.3 320.443 962.902 404.559 944.319 C 426.013 939.58 451.473 941.488 472.871 941.489 L 566.006 941.51 z" fill="rgb(0,0,0)" transform="translate(0,0)"></path>
<path d="M 1402.38 214.607 C 1457.44 214.964 1536.05 213.35 1535.87 292.439 L 1535.74 759.763 C 1535.85 777.879 1538.33 811.386 1534.59 827.61 C 1514.66 914.092 1384.16 910.906 1368.62 823.444 C 1365.21 804.245 1366.59 782.926 1366.6 763.973 L 1366.65 376.02 L 680.996 376.02 L 680.996 413.5 L 681.019 778.012 C 681.018 797.002 683.143 814.091 676.312 832.064 C 641.489 923.677 510.994 898.944 510.473 806.506 L 510.84 299.097 C 511.625 207.87 597.5 214.551 659.249 214.614 L 1402.38 214.607 z" fill="rgb(0,0,0)" transform="translate(0,0)"></path>
<metadata><recraft-signature>{"signed_by": "recraft", "signature_b64": "zSIAYr2zD/Pc3nq0DfkFoNPb8IzclCi2gsgh85mayGz3UMI7tKIdnicfn4Tm9PxdeZLJOfnXV7qcPBsX+TBjAA==", "signing_algo": "Ed25519", "generation_timestamp": 1772990219, "identifier": "9baf7d25-2383-4da7-8fcf-d3708d56ef3d"}</recraft-signature></metadata></svg>