<svg xmlns="http://www.w3.org/2000/svg" height="512" preserveAspectRatio="none" style="display: block;" version="1.1" viewBox="0 0 2048 2048" width="512">
<path d="M 445.001 651.52 L 1728.13 651.495 C 1792.21 651.495 1843.2 655.902 1843.81 734.544 L 1843.84 1271.44 C 1843.83 1377.12 1832.77 1391.26 1726.59 1391.21 L 1607.5 1391.15 L 313.978 1391.23 C 260.222 1391.53 204.96 1387.26 204.925 1317.47 L 204.939 776.418 C 204.744 655.795 220.338 651.49 337.542 651.479 L 445.001 651.52 z M 1776.69 1356.84 C 1816.67 1350.05 1809.04 1309.56 1809 1278.98 L 1809.04 794.53 C 1809.05 767.017 1819.65 686.478 1774.56 689.611 L 352.116 689.482 C 327.868 689.48 299.284 688.677 275.436 689.49 C 229.3 694.026 239.875 740.989 239.912 776.905 L 239.931 1264.91 C 239.814 1352.25 229.58 1356.9 330.082 1356.89 L 1776.69 1356.84 z" fill="rgb(1,1,1)" transform="translate(0,0)"></path>
<path d="M 1646.82 961.892 C 1657.4 949.97 1668.44 940.734 1685.61 941.919 C 1728.17 944.857 1721.87 994.232 1721.86 1024.42 L 1721.77 1107.51 C 1706.68 1109.13 1700.06 1108.58 1685.03 1107.51 L 1685.07 1032.04 C 1685.1 1010.61 1691.96 944.929 1650.84 983.781 L 1650.84 1095.25 L 1650.84 1107.51 C 1637.82 1108.6 1626.98 1108.05 1614.03 1107.51 C 1613.39 1067.47 1615.14 1027.31 1613.53 987.307 C 1612.59 963.933 1582 975.89 1581.13 987.891 C 1580.33 998.878 1580.54 1015.93 1580.51 1027.46 L 1580.47 1107.51 C 1566.79 1108.21 1557.21 1108.14 1543.74 1107.51 L 1543.73 1001.23 C 1543.7 982.871 1542.92 963.12 1543.74 944.987 C 1555.76 943.534 1565.03 944.235 1577 944.987 L 1577 958.732 C 1588.7 948.485 1591.7 945.049 1607.5 942.482 C 1627.28 940.226 1636.07 945.839 1646.82 961.892 z" fill="rgb(1,1,1)" transform="translate(0,0)"></path>
<path d="M 413.645 889.991 L 454.931 889.991 C 442.083 921.523 420.569 951.421 408.717 980.97 C 425.504 1014.42 437.415 1051.94 454.931 1085 C 456.95 1092.15 460.665 1100.5 463.557 1107.51 L 421.106 1107.51 C 410.425 1083.47 392.227 1034.86 380.626 1015.07 C 365.985 1037.64 372.075 1080.03 372.104 1107.51 C 361.007 1108.1 344.556 1107.54 333.055 1107.51 L 333.055 889.991 L 372.104 889.991 C 371.947 918.041 372.454 945.852 372.104 974.003 C 386.859 949.191 400.742 916.289 413.645 889.991 z" fill="rgb(1,1,1)" transform="translate(0,0)"></path>
<path d="M 1459.96 942.482 C 1512.17 937.055 1523.93 979.89 1521.23 1020.79 C 1518.51 1061.83 1526.09 1101.11 1475.25 1111 C 1396.6 1112.59 1404.03 1041.68 1411.12 983.021 C 1414.15 958.02 1436.7 945.27 1459.96 942.482 z M 1469.94 1081.83 C 1487.71 1073.3 1499.64 970.305 1459.96 974.003 C 1440.88 983.942 1435.98 1090.54 1469.94 1081.83 z" fill="rgb(1,1,1)" transform="translate(0,0)"></path>
<path d="M 734.805 942.482 C 806.267 942.638 803.078 966.955 803.049 1026.5 L 802.999 1107.51 C 790.732 1106.94 781.489 1107.09 769.231 1107.51 L 765.07 1095.25 C 745.358 1116.79 716.349 1117.42 701.275 1090.56 C 672.278 1004.45 761.431 1008.74 764.699 999.399 C 769.393 985.983 765.333 979.699 753.475 974.003 C 734.479 971.91 731.543 976.473 730.461 995.065 C 715.013 997.322 712.612 997.309 697.092 995.065 C 695.808 965.232 706.084 950.561 734.805 942.482 z M 739.406 1078.49 C 772.411 1095.7 766.797 1031.46 765.07 1028.36 C 736.898 1033.69 717.565 1056.32 739.406 1078.49 z" fill="rgb(1,1,1)" transform="translate(0,0)"></path>
<path d="M 477.012 944.987 L 514.281 944.987 L 514.247 1024.83 C 514.275 1038.57 514.168 1052.62 515.385 1066.24 C 517.014 1084.47 544.658 1081.1 546.348 1060.28 C 547.491 1046.2 547.12 1032.52 547.11 1018.55 L 547.019 944.987 C 559.64 944.774 573.148 945.023 585.858 944.987 L 585.858 988.25 L 585.858 1107.51 L 550.623 1107.51 C 550.004 1104.09 549.802 1100.62 547.474 1098.56 C 521.568 1116.34 484.012 1116.81 478.389 1079.1 C 475.971 1062.88 476.93 1045.78 476.933 1029.37 L 477.012 944.987 z" fill="rgb(1,1,1)" transform="translate(0,0)"></path>
<path d="M 906.155 944.987 L 942.984 944.987 C 943.005 955.159 928.181 1118.07 971.292 1076.21 C 981.176 1066.61 976.792 964.362 977.012 944.987 C 989.127 944.741 1001.6 944.937 1013.75 944.987 L 1013.75 983.781 L 1013.75 1107.51 L 977.012 1107.51 C 976.886 1103.48 976.984 1099.3 977.012 1095.25 C 959.436 1110.72 934.667 1117.52 915.693 1100.97 C 902.626 1089.57 906.128 1047.66 906.13 1030.49 L 906.155 944.987 z" fill="rgb(1,1,1)" transform="translate(0,0)"></path>
<path d="M 1327.93 942.482 C 1369.19 935.386 1387.56 959.39 1393.69 995.065 L 1358.07 995.065 C 1352.39 959.287 1317.7 967.074 1322.01 988.812 C 1325.07 1004.27 1360.81 1015 1375 1024.4 C 1410.29 1047.8 1395.77 1106.2 1346.25 1111 C 1306.24 1111.86 1280.52 1101.45 1280.94 1055.44 C 1291.83 1055.1 1304.57 1055.42 1315.6 1055.44 C 1322.89 1114.93 1384.39 1066.62 1341.08 1048.54 C 1319.24 1039.42 1289.48 1028 1285.56 1001.31 C 1281 970.273 1296.06 947.77 1327.93 942.482 z" fill="rgb(1,1,1)" transform="translate(0,0)"></path>
<path d="M 1084.12 942.482 C 1123.66 936.875 1141.22 960.803 1146.51 995.065 C 1133.18 994.56 1122.36 994.646 1109.01 995.065 C 1104.97 949.951 1055.11 977.674 1080.09 999.013 C 1087.65 1004.51 1098.69 1009.18 1107.24 1013 C 1166.64 1039.52 1153.19 1107.66 1096.25 1111 C 1062.52 1111.7 1039.29 1099.87 1035.13 1063.53 C 1033.83 1052.22 1059.84 1055.09 1068.29 1055.44 C 1076.36 1113.73 1147.25 1062.72 1078.04 1041.85 C 1021.19 1024.7 1022.1 949.151 1084.12 942.482 z" fill="rgb(1,1,1)" transform="translate(0,0)"></path>
<path d="M 1204.69 942.482 C 1243.73 940.921 1263.44 955.567 1270.34 995.065 C 1258.38 995.422 1245.02 995.112 1232.95 995.065 C 1226.6 959.655 1193.9 965.818 1197.25 991.531 C 1199.66 1010.03 1261.06 1011.44 1267.14 1052.22 C 1271.14 1083.28 1254.81 1106.73 1223.25 1111 C 1182.55 1114.57 1160.21 1097.69 1158.39 1055.44 C 1171.19 1056.44 1177.78 1056.51 1190.61 1055.44 C 1204.59 1102.25 1232.72 1079.15 1230.83 1064.66 C 1226.76 1038.6 1168.19 1046.76 1161.75 1000.94 C 1157.24 968.852 1171.75 947.072 1204.69 942.482 z" fill="rgb(1,1,1)" transform="translate(0,0)"></path>
<path d="M 830.147 906.866 C 842.587 907.092 855.509 906.899 867.991 906.866 C 867.885 920.409 867.185 931.303 867.991 944.987 C 875.271 945.914 883.282 945.304 890.667 944.987 L 890.667 974.003 L 867.991 974.003 L 867.898 1036.87 C 867.881 1064.41 859.663 1082.08 890.667 1078.49 C 890.656 1088.93 890.603 1093.53 893.544 1103.52 C 878.837 1110.65 851.336 1112.53 839.124 1100.67 C 827.437 1089.33 830.088 1055.93 830.086 1040.06 L 830.147 974.003 C 824.012 973.827 817.254 973.985 811.065 974.003 L 811.065 944.987 C 818.335 945.422 822.844 945.33 830.147 944.987 L 830.147 906.866 z" fill="rgb(1,1,1)" transform="translate(0,0)"></path>
<path d="M 677.553 942.482 C 693.678 941.618 687.103 965.489 686.998 980.97 C 671.449 980.794 662.082 982.453 652.027 995.065 C 654.632 1028.44 652.607 1073.5 652.027 1107.51 C 646.038 1107.43 615.246 1108.77 613.217 1107.41 L 613.017 1103.52 C 613.03 1050.89 612.484 997.54 613.017 944.987 C 624.391 945.383 638.173 944.999 649.735 944.987 C 649.401 951.327 649.652 958.542 649.735 964.977 C 658.466 954.985 665.025 947.612 677.553 942.482 z" fill="rgb(1,1,1)" transform="translate(0,0)"></path>
<metadata><recraft-signature>{"signed_by": "recraft", "signature_b64": "xw3hikh7E1wVDWe9rmgHi6r6fDNl5BztXMSUjENGp2TZ7twQT714SR/4dn7vjjhSfrafrjwdgvreZpmrJuCWBA==", "signing_algo": "Ed25519", "generation_timestamp": 1772998140, "identifier": "268db8f5-2244-479b-8f10-9721306b542a"}</recraft-signature></metadata></svg>