<svg xmlns="http://www.w3.org/2000/svg" height="512" preserveAspectRatio="none" style="display: block;" version="1.1" viewBox="0 0 2048 2048" width="512">
<path d="M 446.764 285.001 C 452.31 284.422 469.249 284.908 475.483 284.916 L 1314.35 284.994 C 1339.33 284.945 1372.14 282.482 1396.03 288.067 C 1445.21 299.571 1486.22 353.597 1477.89 404.605 C 1473.46 431.704 1461.81 459.462 1456.09 486.478 C 1430.97 590.942 1403.51 694.978 1376.23 798.931 L 1178.99 1566.76 C 1162.94 1633.73 1151.97 1747.66 1066.42 1756.85 C 1035.93 1760.13 1000.57 1758.56 968.945 1758.52 L 487.961 1758.54 C 420.003 1758.5 357.085 1741.82 343.901 1660.77 C 340.767 1641.5 342.018 1614.08 342.025 1594.13 L 342.019 460.561 C 341.983 374.456 339.811 299.76 446.764 285.001 z M 466.963 411.782 C 464.297 453.52 466.995 496.056 466.981 537.921 L 466.963 1634.51 L 642.5 1634.51 L 990.854 1634.48 C 1003.43 1634.48 1021.4 1633.85 1033.46 1634.51 C 1041.96 1604.08 1050.29 1566.11 1057.84 1534.86 L 1322.01 502.411 C 1329.13 475.109 1339.34 439 1344.83 411.782 L 1167.5 411.782 L 701.996 411.768 C 624.206 411.766 544.625 410.899 466.963 411.782 z" fill="rgb(0,0,0)" transform="translate(0,0)"></path>
<path d="M 997.421 866.467 C 1067.96 858.629 1154.54 993.681 1048.77 1021.28 C 1011.73 1027.04 993.885 1003.29 971.056 979.135 C 931.865 937.673 937.338 878.601 997.421 866.467 z" fill="rgb(0,0,0)" transform="translate(0,0)"></path>
<path d="M 693.234 866.467 C 752.024 864.036 777.714 933.793 736.06 973.483 C 715.038 993.515 698.545 1019.93 666.412 1021.28 C 555.627 1021.24 613.996 871.173 693.234 866.467 z" fill="rgb(0,0,0)" transform="translate(0,0)"></path>
<path d="M 1487.02 460.305 C 1502.07 464.316 1535.93 482.043 1551.71 489.311 L 1628.38 524.761 C 1660.41 539.706 1706.74 554.35 1706.86 597.467 L 1706.89 1194.05 C 1706.96 1233.16 1715.54 1271.79 1686.37 1302.24 C 1657.91 1328.42 1630.99 1322.06 1594.79 1322.04 L 1487.02 1321.99 L 1487.01 552.875 C 1487.02 524.951 1488.4 487.13 1487.02 460.305 z" fill="rgb(0,0,0)" transform="translate(0,0)"></path>
<metadata><recraft-signature>{"signed_by": "recraft", "signature_b64": "suft0SXjbzfxlqaSJVzF2Lh7DeN5DvzhSxiFS6Q1fyUCAevkE9N+5W9bbzDHc4a7dJ7OkCHl8us1Lle68DAeAQ==", "signing_algo": "Ed25519", "generation_timestamp": 1772997142, "identifier": "f746656b-8785-4ee9-b3c5-c0a200ee28d5"}</recraft-signature></metadata></svg>