<svg xmlns="http://www.w3.org/2000/svg" height="512" preserveAspectRatio="none" style="display: block;" version="1.1" viewBox="0 0 2048 2048" width="512">
<path d="M 423.962 309.001 C 424.35 308.958 424.738 308.915 425.126 308.873 L 1565.06 308.947 C 1700.51 308.748 1733.28 341.905 1733.01 479.354 L 1733.04 1528.06 C 1733.04 1552.38 1732.83 1576.26 1732.23 1600.58 C 1730.91 1654.5 1679.09 1708.56 1625.24 1713.23 C 1612.79 1714.58 1582.8 1713.23 1568.77 1713.2 L 497.718 1713.25 C 473.411 1713.29 446.382 1713.87 422.253 1712.7 C 368.871 1710.09 323.156 1660.17 315.987 1609.28 C 314.05 1595.54 314.978 1569.5 315.017 1554.49 L 315.007 498.716 C 315.003 409.472 310.947 324.988 423.962 309.001 z M 585.064 1572.21 C 598.667 1572.16 616.748 1571.57 630.156 1572.21 L 1482.89 1572.21 C 1517.87 1572.21 1554.21 1572.79 1589.02 1572.21 L 1589.02 452.995 C 1579.61 453.627 1563.65 453.076 1553.84 453.061 L 585.064 452.995 C 586.77 468.212 585.23 480.348 585.125 495.486 L 585.064 1572.21 z" fill="rgb(0,0,0)" transform="translate(0,0)"></path>
<path d="M 458.308 452.995 L 585.064 452.995 C 586.77 468.212 585.23 480.348 585.125 495.486 L 585.064 1572.21 C 598.667 1572.16 616.748 1571.57 630.156 1572.21 C 621.968 1573.45 579.471 1572.38 569.438 1572.3 L 458.308 1572.21 L 458.308 452.995 z" fill="rgb(60,129,208)" transform="translate(0,0)"></path>
<metadata><recraft-signature>{"signed_by": "recraft", "signature_b64": "9URQR3pKNUHh+VkrtlE/+nPr5uR3766+GV9gfgySwAgKxwK06n3mjXkS8puON4dUmGUTIBgYWSIDEr/ojtniDQ==", "signing_algo": "Ed25519", "generation_timestamp": 1773000527, "identifier": "9261778f-c05b-496e-a9e5-04d12e4b8c12"}</recraft-signature></metadata></svg>