<svg xmlns="http://www.w3.org/2000/svg" height="512" preserveAspectRatio="none" style="display: block;" version="1.1" viewBox="0 0 2048 2048" width="512">
<path d="M 356.802 557.001 C 370.551 555.807 408.71 557.005 424.118 557.015 L 1684.52 556.833 C 1775.1 557.014 1791.94 630.159 1791.78 705.045 L 1791.82 1331 C 1791.92 1397.43 1775.16 1457.7 1694.36 1464.28 L 406.365 1464.28 C 341.002 1464.41 270.547 1459.8 257.948 1375.25 C 255.964 1361.94 256.753 1346.4 256.786 1332.8 L 256.806 699.884 C 256.591 623.529 270.202 569.682 356.802 557.001 z M 806.036 1318 L 1643 1318 L 1643 703.998 L 806.036 703.998 L 806.036 1318 z M 403.877 1318 C 484.495 1316.49 570.242 1318.01 651.25 1318 L 654.117 1317.58 C 656.583 1312.94 655.03 1271.8 655.018 1263.33 L 655.033 703.998 L 412.542 703.998 C 396.087 705.629 403.881 737.599 403.876 756.011 L 403.877 1318 z" fill="rgb(0,0,0)" transform="translate(0,0)"></path>
<metadata><recraft-signature>{"signed_by": "recraft", "signature_b64": "pB5rNs31Jvaw2mUkZmLoGwds1chQJ+fPs3rt1hBpp+17mVWH6A8UKiDh47vVed7qXKbgqL5bBrJNExokqyYcCQ==", "signing_algo": "Ed25519", "generation_timestamp": 1772998999, "identifier": "351b39d7-b43b-4b30-9e59-6931d500794f"}</recraft-signature></metadata></svg>