<svg xmlns="http://www.w3.org/2000/svg" height="512" preserveAspectRatio="none" style="display: block;" version="1.1" viewBox="0 0 2048 2048" width="512">
<path d="M 1718.8 527.272 C 1775.03 520.406 1762.67 605.572 1761.95 635.054 C 1759.89 719.197 1861.17 816.793 1788.23 902.912 C 1749.82 944.792 1656.1 863.574 1604.69 976.989 C 1592.59 1003.69 1567.95 1161.37 1505.7 1082.86 C 1490.35 1063.67 1339.97 1071.05 1312.6 1071.05 L 927.25 1071.07 C 926.705 1088.09 927.232 1108.26 927.236 1125.48 L 927.25 1233.05 C 949.468 1235.66 969.028 1235.05 991.122 1233.05 C 916.989 1265.82 949.635 1343.39 854.254 1357.21 C 779.69 1368.03 754.748 1305.06 708.014 1304.06 C 684.304 1303.54 667.17 1323.67 643.08 1326.49 C 623.388 1328.8 605.686 1326.67 586.483 1331.48 C 446.151 1364.18 488.061 1494.26 409.385 1515.64 C 380.204 1523.57 371.646 1498.74 346.621 1492.64 C 330.655 1488.75 312.943 1492.08 296.603 1490.87 C 244.684 1487.9 239.862 1421.83 239.957 1383.67 L 240.022 1322.59 C 240.012 1296.76 238.123 1256.79 240.007 1233.05 L 390.25 1233.05 L 738.4 1233.05 L 738.4 1071.07 C 722.391 1070.34 700.177 1071.05 683.585 1071.05 L 240.007 1071.07 C 239.929 1049.13 238.663 1018.83 241.708 997.548 C 242.789 992.946 315.413 904.65 321.592 900.824 C 348.326 883.654 374.563 905.137 402.663 908.975 C 461.521 917.012 487.991 847.061 546.968 858.829 C 600.467 869.504 643.005 922.456 701.045 910.148 C 753.781 898.964 735.124 834.943 760.881 800.27 C 829.933 703.526 881.687 790.583 945.98 772.569 C 986.965 761.086 1007.28 717.338 1055.47 718.038 C 1102.04 718.364 1144.01 761.079 1190.96 750.823 C 1228 742.732 1234.41 696.807 1258.73 673.43 C 1282.45 650.624 1310.32 651.39 1340.03 645.488 C 1397.8 634.012 1365.36 544.302 1423.24 530.723 C 1484.1 516.859 1540.72 638.655 1636.09 574.66 C 1665.44 555.166 1682.66 535.537 1718.8 527.272 z" fill="rgb(0,0,0)" transform="translate(0,0)"></path>
<metadata><recraft-signature>{"signed_by": "recraft", "signature_b64": "8OZ/cfKxHT96/xLjX8MV/zYQxOJWEtZ4yNHHSW9yA2JORolpsynGWG+iHEr1nZQ4vyaSRXv57kmnfAdc3dQYBQ==", "signing_algo": "Ed25519", "generation_timestamp": 1772996293, "identifier": "8fc40bfa-bad7-4142-91a9-c675b423fe8e"}</recraft-signature></metadata></svg>