<svg xmlns="http://www.w3.org/2000/svg" height="512" preserveAspectRatio="none" style="display: block;" version="1.1" viewBox="0 0 2048 2048" width="512">
<path d="M 210.022 498.998 L 1840.82 498.998 C 1842.23 595.285 1840.81 695.932 1840.81 792.519 L 1840.82 1384.27 C 1840.82 1399.52 1841.86 1532.49 1840.82 1534.59 C 1830.8 1535.59 1799.86 1534.64 1787.95 1534.63 L 331.972 1534.59 C 291.752 1534.6 250.096 1535.21 210.022 1534.59 C 211.183 1520.25 210.264 1507.8 210.113 1493.49 L 210.022 498.998 z M 269.889 560.08 L 269.889 1475 L 1719.5 1475 L 1779.48 1475 L 1779.48 560.08 C 1762.09 560.638 1743.38 560.107 1725.81 560.095 L 334.72 560.08 C 318.671 560.125 284.415 561.288 269.889 560.08 z" fill="rgb(0,0,0)" transform="translate(0,0)"></path>
<path d="M 1072.14 681.078 C 1088.73 680.788 1110.35 683.773 1124.43 681.078 C 1133.06 710.495 1146.53 743.734 1157.45 772.859 L 1214.01 925.284 C 1227.06 960.098 1243.89 1001.96 1254.32 1036.93 C 1231.81 1037.04 1197.2 1035.04 1176.4 1036.93 L 1155.29 973.51 L 1101.75 973.51 L 1020.52 973.51 C 1013.25 994.783 1006.11 1015.88 998.206 1036.93 L 921.109 1036.93 L 921.321 1035.59 C 923.557 1021.82 927.202 1012.44 931.927 999.242 C 969.542 894.184 1014 786.484 1048.49 681.078 C 1057.08 682.49 1063.6 682.405 1072.14 681.078 z M 1042.96 909.616 L 1087.75 909.616 C 1101.15 909.771 1114.52 910.048 1127.91 909.616 C 1125.92 898.39 1088.49 792.547 1084.4 789.418 C 1071.06 829.312 1057.44 870.156 1042.96 909.616 z" fill="rgb(0,0,0)" transform="translate(0,0)"></path>
<path d="M 1419.51 681.078 C 1419.74 681.03 1419.97 680.982 1420.2 680.934 C 1504.84 674.479 1562.72 718.709 1570.94 802.209 C 1546.6 803.107 1520.24 801.537 1495.56 802.209 C 1481.43 726.76 1399.92 732.144 1384.36 783.069 C 1379.83 797.863 1379.74 908.511 1381.73 926.96 C 1386.31 969.283 1432.93 988.149 1469.04 966.043 C 1496.68 949.116 1487.41 922.197 1501.49 920.486 L 1570.94 920.486 C 1559.06 1037.83 1434.61 1076.52 1350 1012.97 C 1299.91 975.353 1304.98 918.827 1305.15 863.28 C 1305.42 772.446 1309.36 695.463 1419.51 681.078 z" fill="rgb(0,0,0)" transform="translate(0,0)"></path>
<path d="M 481.022 681.078 C 505.174 681.134 530.972 681.621 554.992 681.078 L 554.992 964.119 C 566.634 963.389 586.476 964.012 598.657 964.022 L 675.477 964.199 C 690.522 964.375 704.601 965.12 719.674 964.119 C 719.637 986.872 720.624 1014.72 719.674 1036.93 C 715.684 1037.44 703.686 1037.07 699.184 1037.04 L 541.433 1036.91 C 521.769 1036.91 500.541 1036.38 481.022 1036.93 L 481.022 681.078 z" fill="rgb(0,0,0)" transform="translate(0,0)"></path>
<path d="M 666.994 1167.51 L 700.69 1167.51 C 713.902 1191.54 730.616 1231.95 742.746 1258.54 C 757.773 1289.76 770.995 1321.52 787.026 1352.49 C 772.518 1351.9 761.531 1352.01 747.11 1352.49 C 742.054 1339.71 733.047 1323.13 726.527 1311 L 641.091 1311 C 634.09 1324.25 627.539 1338.88 620.682 1352.49 C 568.022 1353.94 511.652 1350.89 459.024 1352.49 C 458.937 1333.18 457.168 1175.99 459.609 1168.24 L 462.452 1167.51 C 473.975 1167.22 486.031 1166.63 497.483 1167.51 L 497.483 1316.32 L 582.509 1316.32 C 583.063 1326.53 583.252 1342.57 582.509 1352.49 C 584.555 1347.3 585.887 1341.22 588.209 1336.17 L 666.994 1167.51 z M 656.863 1276.84 L 684.437 1276.84 C 693.048 1276.8 701.93 1276.65 710.516 1276.84 L 691.033 1230.55 C 690.118 1228.4 685.147 1215.85 684.437 1214.72 C 675.128 1232.56 665.548 1257.68 656.863 1276.84 z" fill="rgb(0,0,0)" transform="translate(0,0)"></path>
<path d="M 796.04 1167.51 C 834.513 1166.09 911.018 1159.72 933.783 1189.89 C 950.363 1211.87 941.632 1239.02 921.109 1254.42 C 951.226 1268.8 959.964 1296.3 943.668 1325.39 C 919.961 1356.9 883.84 1352.7 848.845 1352.56 L 796.04 1352.49 L 796.04 1167.51 z M 907.578 1311 C 913.911 1302.44 913.506 1298.72 912.882 1287.97 C 899.727 1270.34 855.362 1276.74 835.129 1276.84 C 835.071 1289.69 834.769 1303.56 835.129 1316.32 C 851.223 1316.39 895.983 1319.23 907.578 1311 z M 835.129 1242.97 C 848.433 1243.2 886.983 1244.61 897.37 1240.02 C 899.802 1238.06 901.924 1236.43 904.185 1234.26 C 905.52 1229.79 906.665 1226.12 907.578 1221.51 C 897.646 1191.68 867.777 1203.41 842.574 1202.94 C 829.2 1203.01 835.421 1227.63 835.129 1242.97 z" fill="rgb(0,0,0)" transform="translate(0,0)"></path>
<path d="M 984.452 1167.51 C 1011.75 1167.6 1041.6 1164.34 1068.27 1169.24 C 1128.45 1180.31 1138.79 1253.64 1077.61 1291.9 C 1089.7 1305.21 1114.88 1337.57 1124.43 1352.49 C 1111.61 1352.14 1100.57 1352.11 1087.75 1352.49 C 1074.29 1351.79 1043.52 1304.99 1030.52 1291.9 C 1025.46 1291.68 1019.61 1291.86 1014.49 1291.9 C 1013.53 1309.64 1014.68 1333.91 1014.49 1352.49 C 1003.42 1353.3 985.645 1352.62 974.067 1352.49 C 973.282 1330.55 974.025 1303.66 974.042 1281.38 L 974.067 1167.51 L 984.452 1167.51 z M 1014.49 1258.54 C 1029.83 1258.71 1059.47 1260.7 1072.14 1254.42 C 1101.71 1196.63 1051.97 1203.43 1014.49 1202.94 C 1014.01 1218.67 1013.7 1242.87 1014.49 1258.54 z" fill="rgb(0,0,0)" transform="translate(0,0)"></path>
<path d="M 1226.22 1167.51 C 1233.3 1167.38 1239.97 1167.39 1247.04 1167.51 C 1252.65 1182.84 1262.35 1203.09 1269.13 1218.51 L 1306.86 1304.1 C 1313.6 1319.04 1322.47 1337.42 1328.04 1352.49 C 1319.68 1353.29 1298.04 1352.54 1288.74 1352.49 C 1283.05 1343.03 1274.55 1321.53 1270.17 1311 L 1232.43 1311 L 1184.42 1311 C 1178.84 1323.12 1171.02 1341.42 1164.56 1352.49 C 1153.08 1352.36 1139.12 1351.64 1127.91 1352.49 C 1141 1303.54 1185.5 1214.57 1207.61 1167.51 C 1213.82 1167.39 1220.01 1167.47 1226.22 1167.51 z M 1199.73 1276.84 C 1211.1 1275.56 1214.79 1275.22 1226.22 1276.84 C 1237.79 1275.48 1242.71 1275.48 1254.32 1276.84 C 1249.36 1265.45 1231.99 1221.15 1226.22 1214.72 C 1216.89 1231.72 1205.62 1258.38 1199.73 1276.84 z" fill="rgb(0,0,0)" transform="translate(0,0)"></path>
<path d="M 1462.74 1167.51 C 1473.26 1168.22 1492.48 1167.6 1503.35 1167.59 L 1587.06 1167.51 L 1587.06 1202.94 L 1501.49 1202.94 L 1501.49 1242.97 C 1527.42 1243.48 1555.06 1242.98 1581.13 1242.97 L 1581.13 1279.03 L 1506.75 1279.03 L 1504.53 1279.22 C 1501.38 1282.68 1501.74 1309.08 1501.49 1316.32 C 1529.76 1316.37 1558.93 1315.77 1587.06 1316.32 C 1588.46 1331.22 1588.69 1337.66 1587.06 1352.49 C 1579.01 1353.36 1557.21 1352.57 1547.72 1352.56 L 1462.74 1352.49 C 1461.65 1339.36 1462.69 1307.34 1462.7 1292.73 L 1462.74 1167.51 z" fill="rgb(0,0,0)" transform="translate(0,0)"></path>
<path d="M 1419.51 1167.51 L 1444.99 1167.51 C 1445.74 1177.52 1445.12 1192.58 1444.99 1202.94 L 1390.09 1202.94 L 1390.09 1352.49 C 1374.94 1351.35 1367.01 1351.63 1351.98 1352.49 L 1351.98 1316.32 L 1351.98 1202.94 L 1295.5 1202.94 C 1295 1191.97 1295.15 1178.4 1295.5 1167.51 C 1335.05 1168.48 1379.6 1167.52 1419.51 1167.51 z" fill="rgb(0,0,0)" transform="translate(0,0)"></path>
<path d="M 822.006 964.119 L 864.799 964.119 L 864.799 1036.93 C 854.467 1037.47 840.004 1037 829.385 1036.93 L 787.026 1036.93 L 787.026 964.119 C 799.479 964.673 809.545 964.482 822.006 964.119 z" fill="rgb(0,0,0)" transform="translate(0,0)"></path>
<metadata><recraft-signature>{"signed_by": "recraft", "signature_b64": "ervoU8WTurrVtJ1nr0FaEywvBPL9dOzHCh1VKk4go0wj2XPCLpmkdTErhTfptv8CB5FfZIJHeXOVaEo1lZCvAg==", "signing_algo": "Ed25519", "generation_timestamp": 1772998280, "identifier": "0afe4620-bc4f-4992-9c67-a1a807639f95"}</recraft-signature></metadata></svg>