<svg xmlns="http://www.w3.org/2000/svg" height="512" preserveAspectRatio="none" style="display: block;" version="1.1" viewBox="0 0 2048 2048" width="512">
<path d="M 1418.19 279.199 C 1446.29 279.225 1474.48 279.445 1502.56 278.693 C 1561.51 274.851 1551.77 334.469 1551.78 373.809 L 1551.74 1646.44 C 1551.75 1680.1 1566.42 1765.71 1516.76 1765.46 C 1483.72 1765.17 1394.64 1779.63 1384.32 1739.77 C 1375.74 1706.61 1382.85 1609.64 1381.49 1570.86 C 1356.78 1570.07 1327.48 1570.84 1302.42 1570.85 L 667.134 1570.86 L 667.153 1685.61 C 667.203 1719.77 676.752 1765.32 626.654 1765.01 L 563.242 1765.14 C 543.812 1765.18 501.091 1767.37 498.572 1739.07 C 495.7 1706.8 497 1673.12 496.996 1640.64 L 497.156 309.294 C 498.212 265.179 590.248 279.756 621.242 279.159 C 665.255 278.313 666.865 299.898 667.169 339.175 L 667.134 479.915 L 1381.49 479.915 L 1381.4 365.533 C 1381.38 333.679 1371.63 280.757 1418.19 279.199 z M 667.134 1143.01 L 1381.49 1143.01 L 1381.49 901.695 L 667.134 901.695 L 667.134 1143.01 z M 673.063 575.968 C 660.535 577.863 667.141 639.495 667.143 654.802 L 667.134 805.473 L 1377.25 805.473 L 1380.02 805.437 C 1383.08 799.829 1381.11 603.578 1381.49 575.968 L 673.063 575.968 z M 667.134 1240.29 C 667.116 1316.65 665.568 1398.12 667.134 1474.04 L 1296.25 1474.04 L 1381.49 1474.04 L 1381.49 1240.29 L 755.319 1240.29 L 667.134 1240.29 z" fill="rgb(44,60,73)" transform="translate(0,0)"></path>
<metadata><recraft-signature>{"signed_by": "recraft", "signature_b64": "IU7gy0QWRro976DetTx51qewNqwa0xFJUTK7mHQNA9a5EkhO+8uROMoy9BYvxsRlT6BCOowMYgl3mUB6IbtnCA==", "signing_algo": "Ed25519", "generation_timestamp": 1773000190, "identifier": "9f11c17b-b8f6-421f-a75f-818a412cf594"}</recraft-signature></metadata></svg>