<svg xmlns="http://www.w3.org/2000/svg" height="512" preserveAspectRatio="none" style="display: block;" version="1.1" viewBox="0 0 2048 2048" width="512">
<path d="M 506.731 547.104 C 538.064 542.255 664.106 569.605 707.296 574.068 C 722.765 575.667 766.715 627.751 779.857 640.85 L 846.724 707.793 C 857.655 718.922 870.656 731.319 880.487 743.11 C 893.319 742.87 917.228 739.276 930.983 737.576 L 1040.67 723.31 C 1072.57 719.455 1100.42 711.845 1126.63 736.847 C 1159.25 767.96 1142.97 822.721 1099.56 832.039 C 1077.12 836.855 1053.8 839.617 1031.01 843.232 L 956.334 855.152 C 829.944 875.282 830.402 862.482 746.866 774.228 C 744.208 797.506 741.483 820.62 738.226 843.833 C 671.762 831.032 673.747 836.573 654.371 779.653 L 621.384 681.856 C 618.901 674.496 606.369 622.099 595.754 626.421 C 590.348 634.334 599.482 650.563 602.582 659.443 L 626.506 729.537 C 662.728 837.552 636.562 827.153 738.537 855.339 L 841.455 884.84 C 855.971 889.039 870.5 892.945 884.955 897.417 C 930.938 911.645 940.456 959.217 909.591 994.197 C 930.083 1010.9 954.347 1035.06 975.328 1053.54 C 1106.55 982.787 1143.55 1187.83 1092.82 1219.21 C 1064.74 1236.59 906.024 1194.09 956.156 1075.74 C 932.326 1054.22 908.957 1028.75 885.968 1008.36 C 857.455 1012.32 839.461 1003.47 812.235 995.272 L 659.119 950.408 C 569.694 924.119 557.264 907.758 529.266 826.664 C 522.076 805.837 487.388 685.932 472.169 683.749 L 470.723 685.405 C 469.41 695.536 514.695 816.632 521.786 836.761 C 565.661 960.821 609.498 938.463 720.229 979.046 C 714.213 1057.93 704.009 1142.49 695.664 1221.69 C 707.101 1249.67 748.312 1307.66 765.8 1335.89 C 811.755 1410.09 810.466 1413.43 811.176 1505.39 C 811.701 1573.4 808.898 1641.99 812.087 1709.86 C 814.236 1755.6 825.045 1795.03 780.845 1825.69 C 735.527 1857.12 675.555 1834.34 658.288 1782.96 C 652.795 1758.65 657.285 1730.81 657.391 1706.32 C 657.51 1675.71 662.903 1469.8 651.763 1450.72 C 636.16 1424 565.527 1286.39 543.945 1283.38 L 542.421 1283.18 C 542.976 1324.48 549.117 1367.04 548.996 1408.97 C 548.683 1516.99 545.645 1631.03 522.751 1736.48 C 513.095 1781.31 502.344 1839.58 444.549 1839.23 C 406.771 1839 353.778 1811.74 355.243 1768.2 C 357.426 1744.03 364.08 1719.27 368.628 1695.34 C 393.222 1565.98 396.794 1435.66 389.746 1304.6 C 388.867 1288.27 386.923 1271.97 387.123 1255.52 C 354.939 1251.42 317.27 1243.09 324.258 1199.53 L 402.046 719.756 C 414.384 644.818 415.523 565.439 506.731 547.104 z" fill="rgb(0,0,0)" transform="translate(0,0)"></path>
<path d="M 921.061 1330.55 L 1723.03 1330.55 L 1723.03 1364 C 1720.72 1364.42 1639.56 1364.47 1637.52 1364 L 1637.52 1743.49 C 1573.62 1744.75 1504.83 1743.5 1440.61 1743.5 L 997.005 1743.49 C 995.712 1703.55 996.979 1657.55 996.985 1617 L 997.005 1364 C 972.266 1364.74 945.777 1365.65 921.061 1364 L 921.061 1330.55 z" fill="rgb(0,0,0)" transform="translate(0,0)"></path>
<path d="M 921.061 1330.55 L 1723.03 1330.55 L 1723.03 1364 C 1720.72 1364.42 1639.56 1364.47 1637.52 1364 C 1632.34 1363.59 1619.43 1364.06 1613.78 1364.05 L 1131.04 1364.03 C 1087.54 1364.03 1040.15 1362.94 997.005 1364 C 972.266 1364.74 945.777 1365.65 921.061 1364 L 921.061 1330.55 z" fill="rgb(45,44,45)" transform="translate(0,0)"></path>
<path d="M 644.64 205.823 C 730.961 193.984 810.481 254.51 822.06 340.866 C 833.639 427.222 772.874 506.559 686.484 517.879 C 600.46 529.151 521.532 468.699 510.002 382.71 C 498.472 296.721 558.686 217.611 644.64 205.823 z" fill="rgb(0,0,0)" transform="translate(0,0)"></path>
<path d="M 1212.4 1166.53 C 1227.13 1165.6 1249.87 1166.49 1265.41 1166.5 L 1484.43 1166.56 C 1502.36 1166.54 1523.51 1165.59 1540.9 1166.53 L 1540.9 1181.6 L 1515.02 1181.6 C 1515.82 1210.59 1518.34 1254.79 1505.56 1279.35 C 1489.17 1303.57 1472.74 1314.3 1442.27 1314.3 C 1398.69 1314.31 1354.86 1314.5 1311.27 1314.36 C 1248.59 1314.16 1236.49 1284.33 1236.57 1225.21 L 1236.59 1181.6 C 1227.85 1181.01 1221.21 1181.27 1212.4 1181.6 C 1212.11 1176.3 1212.25 1171.79 1212.4 1166.53 z" fill="rgb(0,0,0)" transform="translate(0,0)"></path>
<path d="M 1596.2 991.139 C 1617.86 989.103 1637.88 1003.52 1627.61 1028.03 C 1624.24 1036.07 1607.38 1048.76 1600.23 1055.27 L 1540.2 1110.2 C 1528.72 1120.73 1504.88 1139.45 1500.69 1153.73 L 1264.17 1153.73 C 1225.4 1154.57 1234.12 1143.82 1265.47 1138.61 C 1333.68 1127.27 1412.23 1127.15 1480.07 1138.5 C 1498.5 1116.59 1579.15 999.517 1596.2 991.139 z" fill="rgb(0,0,0)" transform="translate(0,0)"></path>
<metadata><recraft-signature>{"signed_by": "recraft", "signature_b64": "U6MJokRCAOdkdxZJP6drUOaeTUbe9wMc7Gh+rs+M6F8hxG/TpkMnU2mPMlxCNx8F55RjII4lo7bFduoEfV59CA==", "signing_algo": "Ed25519", "generation_timestamp": 1773009083, "identifier": "9677beb7-2836-4e11-98ce-aac9737c2276"}</recraft-signature></metadata></svg>