<svg xmlns="http://www.w3.org/2000/svg" height="512" preserveAspectRatio="none" style="display: block;" version="1.1" viewBox="0 0 2048 2048" width="512">
<path d="M 1100.77 367.001 C 1180.42 362.398 1194.01 420.385 1193.86 481.589 L 1193.87 1497.55 C 1193.87 1532.89 1200.26 1613.41 1180.79 1642.6 C 1136.01 1709.75 1077.49 1672.82 1030.8 1641.16 L 647.205 1378.36 C 607.852 1355.08 617.163 1362.7 567.451 1362.69 L 407.5 1362.65 C 353.893 1362.7 269.068 1374.13 257.772 1298.9 C 253.412 1269.86 255.134 1236.03 255.171 1206.34 L 255.159 861.386 C 255.148 803.86 240.381 700.389 317.462 685.797 C 344.715 680.638 383.195 682.939 411.817 682.946 L 562.248 682.941 C 638.856 683.336 632.231 672.308 697.501 628.729 L 1028.51 404.783 C 1055.59 386.43 1067.77 373.678 1100.77 367.001 z M 725.171 814.001 L 725.182 1182.5 C 725.207 1197.27 725.727 1215.03 725.171 1229.58 C 762.42 1257.64 809.136 1286.17 848.515 1311.46 C 904.618 1350.17 966.228 1393.91 1023.96 1429.51 L 1023.91 638.723 C 1023.9 634.728 1025.73 617.997 1023.96 615.963 C 1005.61 625.276 988.004 638.355 970.78 649.92 L 893.029 702.2 C 837.976 739.435 779.093 776.148 725.171 814.001 z M 426.993 1193 L 557.021 1193 L 557.021 852.981 L 426.993 852.981 L 426.975 1079.13 C 426.971 1115.4 425.94 1157.27 426.993 1193 z" fill="rgb(0,0,0)" transform="translate(0,0)"></path>
<path d="M 1396.85 682.999 C 1480.82 693.814 1493.97 718.042 1494.01 805.446 L 1494.02 1213.95 C 1494.02 1279.09 1505.43 1340.87 1424 1362.63 C 1381.19 1369.37 1326.01 1335.65 1325.22 1288.99 C 1324.69 1256.87 1324.96 1224.72 1324.99 1192.6 L 1324.99 844.666 C 1324.99 770.366 1308.83 710.98 1396.85 682.999 z" fill="rgb(0,0,0)" transform="translate(0,0)"></path>
<path d="M 1695.85 763.287 C 1784.68 754.272 1791.06 839.424 1791.03 903.33 L 1791.04 1145.31 C 1791.04 1201.88 1795.51 1272.09 1716.25 1280.9 C 1623.36 1288.98 1619.44 1212.43 1619.5 1143.14 L 1619.49 900.178 C 1619.34 835.329 1615.57 776.27 1695.85 763.287 z" fill="rgb(0,0,0)" transform="translate(0,0)"></path>
<metadata><recraft-signature>{"signed_by": "recraft", "signature_b64": "s+YvBrSsitxk63VLTGv3bLrG2SMExXnyzkLmrBemLutRzdyEQhqbB/oYCG4t3E2cLlYn2gIe5SfylO26MlOSAQ==", "signing_algo": "Ed25519", "generation_timestamp": 1772989241, "identifier": "5a7bd09c-aa16-436a-9fc1-285dc746e3a0"}</recraft-signature></metadata></svg>