<svg xmlns="http://www.w3.org/2000/svg" height="512" preserveAspectRatio="none" style="display: block;" version="1.1" viewBox="0 0 2048 2048" width="512">
<path d="M 1369.5 729.991 L 1748 729.959 C 1799.33 729.966 1859.55 730.566 1859.1 803.376 L 1859.06 1196.33 C 1859.19 1278.28 1848.8 1306.2 1761.13 1306.07 L 676.5 1306 L 271.93 1306.4 C 198.947 1306.22 188.595 1258.52 188.569 1198.01 L 188.691 811.029 C 187.552 733.069 232.764 730.06 296.832 729.986 L 1287.15 729.982 C 1314.16 729.973 1342.65 729.377 1369.5 729.991 z M 1415.73 1263.8 L 1753.87 1263.84 C 1827.1 1263.85 1819.07 1257.52 1818.58 1186.33 L 1818.6 1095.66 C 1818.61 997.758 1819.24 899.023 1817.86 801.084 C 1817.35 764.945 1771.49 770.547 1747.58 770.617 L 635.989 770.696 L 300.872 770.657 C 227.742 770.595 229.23 765.596 229.574 845.637 L 229.525 1213.48 C 230.027 1271.08 248.327 1264 299.815 1263.9 L 1415.73 1263.8 z" fill="rgb(0,0,0)" transform="translate(0,0)"></path>
<path d="M 984.832 929.042 C 1106.34 914.277 1114.65 1100.73 1005.09 1105.61 C 892.665 1124.86 876.312 936.049 984.832 929.042 z M 1005.09 1080.99 C 1073.02 1063.4 1059.69 946.892 990.722 954.428 C 929.779 960.357 919.097 1082.5 1005.09 1080.99 z" fill="rgb(0,0,0)" transform="translate(0,0)"></path>
<path d="M 1372.01 930.992 C 1394.32 930.978 1416.66 930.819 1438.99 931 C 1500.04 931.495 1515 999.15 1462.97 1030.25 C 1479.48 1054.79 1491.33 1076.17 1505.21 1102.54 C 1494.35 1102.07 1479.72 1103.96 1469.44 1102.54 C 1457.64 1083.21 1444.68 1052.41 1430.86 1035 C 1419.89 1035.72 1414.18 1035.6 1403.1 1035 C 1403.05 1057.46 1402.85 1080.1 1403.1 1102.54 C 1392.24 1102.96 1382.83 1102.8 1372.01 1102.54 C 1371.31 1045.96 1371.95 987.687 1372.01 930.992 z M 1403.1 1010.02 C 1418.65 1010.61 1437.27 1012.68 1451.56 1006.38 C 1462.37 995.559 1466.91 976.719 1455.48 964.254 C 1445.83 953.733 1422.01 957.031 1408.21 957.967 L 1404.84 958.753 C 1401.78 964.512 1403.04 1001.07 1403.1 1010.02 z" fill="rgb(0,0,0)" transform="translate(0,0)"></path>
<path d="M 1525.54 930.992 C 1551.11 930.904 1578.15 929.789 1603.28 932.075 C 1655.51 936.826 1664.07 1000.96 1618.17 1030.25 C 1632.75 1048.36 1649.52 1081.62 1660.82 1102.54 C 1653.62 1102.49 1627.48 1104.42 1623.68 1102.54 C 1617.2 1087.12 1596.28 1049.86 1586.69 1035 C 1578.05 1034.48 1565.92 1034.91 1557 1035 L 1557 1102.54 C 1546.77 1102.74 1535.83 1102.55 1525.54 1102.54 C 1523.75 1047.55 1526.3 986.747 1525.54 930.992 z M 1557 1010.02 C 1572.87 1010.12 1592.52 1010.9 1607.73 1006.38 C 1642.52 963.111 1591.71 955.622 1557 957.967 C 1556.44 974.988 1556.17 993.001 1557 1010.02 z" fill="rgb(0,0,0)" transform="translate(0,0)"></path>
<path d="M 503.807 929.042 C 511.072 931.384 527.426 930.894 535.656 930.992 C 554.147 963.669 587.629 1062.53 601.797 1102.54 C 590.904 1102.22 579.958 1102.43 569.057 1102.54 C 563.336 1087.31 558.376 1072.97 553.261 1057.52 L 539.855 1057.52 L 489.404 1057.52 C 484.341 1071.94 480.342 1087.56 475.084 1102.54 C 462.519 1102.07 453.626 1101.81 441.039 1102.54 C 458.395 1043.52 488.207 986.025 503.807 929.042 z M 498.141 1033 L 522.5 1033 L 544.237 1033 C 537.763 1011.05 526.572 989.033 523.269 966.004 C 523.028 964.321 523.297 964.998 522.5 963.766 C 511.465 982.972 504.432 1011.17 498.141 1033 z" fill="rgb(0,0,0)" transform="translate(0,0)"></path>
<path d="M 752.796 930.992 L 753.66 931.782 C 733.74 957.064 708.939 983.619 689.965 1010.02 C 706.69 1038.41 741.18 1074.12 761.766 1102.54 C 747.838 1101.36 736.132 1102.02 722.192 1102.54 C 705.212 1077.58 675.086 1037.74 654.614 1014.31 L 654.614 1054.56 L 654.614 1102.54 C 642.973 1102.04 636.504 1101.93 624.626 1102.54 L 624.626 930.992 C 634.172 930.604 644.97 930.921 654.614 930.992 L 654.614 1014.31 C 665.351 995.196 705.369 944.743 722.192 930.992 L 752.796 930.992 z" fill="rgb(0,0,0)" transform="translate(0,0)"></path>
<path d="M 820.768 929.042 C 844.142 926.631 859.787 930.027 880.846 939.448 C 878.472 948.056 874.709 958.192 873.483 966.769 C 818.667 928.839 766.94 985.831 842.152 1004 C 908.753 1020.08 907.408 1101.67 824.87 1105.61 C 805.11 1105.36 785.645 1104.4 769.849 1090.97 C 771.933 1082.11 773.415 1074.56 775.853 1065.6 C 795.502 1078.91 838.94 1090.03 854.637 1066.3 C 871.715 1040.48 826.22 1031.94 810.187 1026.34 C 750.844 1005.61 758.03 940.834 820.768 929.042 z" fill="rgb(0,0,0)" transform="translate(0,0)"></path>
<path d="M 1241.09 930.992 C 1255.37 930.962 1332.46 929.735 1341.11 932.59 C 1343.48 937.601 1342.6 952.098 1342.49 957.967 L 1272.99 957.967 C 1273.12 973.649 1271.98 991.062 1272.99 1006.38 C 1293.28 1006.97 1316.46 1006.39 1336.99 1006.38 L 1336.99 1030.25 C 1336.52 1035.97 1281.33 1033.04 1272.99 1033 L 1272.99 1102.54 C 1261.99 1103.02 1252.07 1102.78 1241.09 1102.54 L 1241.09 930.992 z" fill="rgb(0,0,0)" transform="translate(0,0)"></path>
<path d="M 1091.51 930.992 L 1217.52 930.992 L 1217.52 957.967 C 1201.64 958.013 1185.69 958.133 1169.81 957.967 L 1169.81 1054.56 C 1169.89 1069.8 1168.98 1087.62 1169.81 1102.54 C 1158.72 1102.87 1149.2 1102.81 1138.15 1102.54 C 1138.72 1056.67 1139.07 1003.78 1138.15 957.967 C 1122.81 957.74 1106.74 958.739 1091.51 957.967 C 1091.06 949.474 1091.38 939.57 1091.51 930.992 z" fill="rgb(0,0,0)" transform="translate(0,0)"></path>
<path d="M 339.017 930.992 L 368.982 930.992 C 368.392 978.885 368.962 1028 368.982 1075.99 C 388.148 1074.93 414.168 1075.95 433.93 1075.99 C 434.108 1084.64 433.938 1093.84 433.93 1102.54 C 422.747 1101.53 410.31 1102.4 398.914 1102.46 L 339.017 1102.54 L 339.017 930.992 z" fill="rgb(0,0,0)" transform="translate(0,0)"></path>
<path d="M 1681.31 930.992 C 1691.9 930.907 1702.41 930.787 1713 930.992 L 1713.01 1048.33 C 1713.02 1061.08 1714.03 1090.95 1713 1102.54 C 1702.61 1102.71 1691.75 1102.55 1681.31 1102.54 C 1680.67 1084.62 1681.28 1062.18 1681.29 1043.89 L 1681.31 930.992 z" fill="rgb(0,0,0)" transform="translate(0,0)"></path>
<metadata><recraft-signature>{"signed_by": "recraft", "signature_b64": "ekJzfM0aXcvF33eBmnfCdiOMK4is3QszdbrNMfkrsWho1DIhi2cu8lOswfuHFMiUUEfF4lagROcxGY4k8ZkeAQ==", "signing_algo": "Ed25519", "generation_timestamp": 1772999062, "identifier": "e5c7a718-ef3a-43c8-ad8a-3daca3b52f9a"}</recraft-signature></metadata></svg>