<svg xmlns="http://www.w3.org/2000/svg" height="512" preserveAspectRatio="none" style="display: block;" version="1.1" viewBox="0 0 2048 2048" width="512">
<path d="M 1054.83 573.096 C 1109.37 566.105 1159.37 592.647 1183.98 642.011 C 1187.22 648.511 1192.34 669.116 1196.11 673.353 C 1232.12 713.813 1313.02 785.815 1355.27 820.573 C 1358.94 823.588 1400.76 828.746 1408.8 829.894 L 1504.33 843.472 C 1520.25 845.746 1545.14 848.77 1560.48 852.178 L 1561.52 852.416 C 1563.81 842.906 1565.34 835.226 1566.96 825.573 C 1575.86 827.038 1582.24 828.318 1590.97 830.555 C 1589.48 839.733 1589.2 846.06 1586.99 855.513 C 1630.83 872.219 1630.97 923.107 1590.41 941.648 C 1566.96 952.366 1570.31 934.325 1566.96 968.781 C 1558.13 967.542 1549.36 966.022 1540.57 964.548 C 1541.49 955.443 1542.97 948.182 1544.86 939.233 C 1527.47 938.171 1507.65 934.941 1490.35 932.395 L 1413.75 920.935 C 1381.24 916.025 1325.77 913.734 1300.85 893.242 C 1257.82 857.859 1217.94 817.158 1175.81 780.667 C 1171.15 789.361 1166.97 799.204 1162.28 808.179 L 1047.18 1028.62 C 1040.02 1042.28 1031.88 1055.04 1025.11 1069.07 C 1059.63 1093.37 1107.02 1135.66 1140.95 1164.34 L 1189.06 1205.4 C 1255.04 1262.44 1245.54 1287.96 1206.59 1356.1 L 1113.25 1521.27 C 1100.67 1543.74 1083.54 1581.08 1065.19 1597.22 C 1223.07 1631.05 1382.56 1659.16 1540.37 1693.42 C 1598.92 1706.14 1588.71 1703.64 1645.95 1686.52 L 1783.84 1644.28 C 1793.69 1628.08 1843.43 1554.52 1854.81 1545.64 C 1869.44 1534.23 1890.08 1550.14 1886.18 1567.03 C 1884.49 1574.38 1815.76 1672.44 1804.96 1679.4 C 1792.36 1687.53 1736.45 1702.12 1717.13 1708.04 L 1630.62 1734.42 C 1615.28 1739.1 1597.21 1747.47 1581.59 1744.38 L 1335.78 1693.24 C 1310.98 1686.82 1274.11 1680.49 1248 1675 L 318.141 1484.54 C 290.827 1478.78 250.753 1481.3 243.427 1453.39 C 247.109 1441.02 248.941 1439.21 260.335 1434.01 C 269.488 1434.37 308.803 1442.94 319.232 1445 L 447.992 1470.43 C 432.331 1407.91 462.812 1390.17 514.211 1366.98 L 585.536 1335.23 C 629.035 1315.81 679.627 1289.83 723.793 1273.07 C 739.296 1208.69 754.854 1137.85 768.755 1073.2 L 783.928 1000.19 C 792.581 956.991 796.774 926.08 818.709 886.014 C 799.566 888.111 734.874 909.709 717.139 919.026 C 697.501 947.441 665.336 968.456 634.338 939.233 C 628.428 940.726 622.118 942.68 616.344 944.726 C 480.262 992.934 328.079 1041.8 187.931 1079.89 C 188.291 1087.49 189.948 1093.23 183.788 1098.11 C 162.025 1100.19 159.493 1010.66 184.737 1065.14 L 543.439 942.736 C 564.842 935.286 600.004 920.983 620.978 919.026 C 610.463 879.742 634.682 855.629 654.26 823.956 L 704.552 742.095 C 713.924 727.108 760.525 640.912 773.385 637.162 C 794.248 631.079 815.923 626.686 837.092 621.807 L 948.936 596.582 C 980.558 589.706 1024.36 577.66 1054.83 573.096 z M 795.225 1541.77 C 849.193 1553.56 908.127 1564.93 962.565 1575.36 C 948.73 1535.45 967.357 1517.8 986.083 1484.44 L 1095.52 1289.85 L 919.467 1150.12 C 911.814 1144.01 901.593 1136.78 894.56 1130.67 L 861.708 1260.95 C 841.855 1341.39 854.441 1354.13 776.385 1389.63 L 679.325 1435.02 C 638.119 1454.76 596.628 1472.96 555.726 1493.4 C 629.044 1512.24 720.802 1528.57 795.225 1541.77 z M 825.004 719.065 C 818.454 725.982 723.228 878.467 721.626 884.972 C 723.008 886.161 722.252 885.894 723.793 886.014 C 756.363 875.085 805.515 857.8 837.69 849.278 C 858.536 805.716 885.353 766.446 912.065 726.319 C 915.902 720.554 930.099 702.196 931.838 696.94 L 930.832 696.069 L 929.67 696.26 C 896.801 702.691 857.186 710.833 825.004 719.065 z" fill="rgb(0,0,0)" transform="translate(0,0)"></path>
<path d="M 1168.6 305.651 C 1241.29 294.792 1309.03 344.87 1319.96 417.545 C 1330.9 490.22 1280.89 558.013 1208.23 569.023 C 1135.46 580.049 1067.54 529.952 1056.59 457.17 C 1045.64 384.388 1095.81 316.525 1168.6 305.651 z" fill="rgb(0,0,0)" transform="translate(0,0)"></path>
<metadata><recraft-signature>{"signed_by": "recraft", "signature_b64": "7jojVcBAcTjWfCKKP0/B5AB31mzSWLXblSTAz0ENSgRKklyBPDoIRVC93/0DdG//pVZtq3z2AxenU+VPo2goAA==", "signing_algo": "Ed25519", "generation_timestamp": 1773008850, "identifier": "35de958b-6196-46cb-9ee4-ea543a96d00d"}</recraft-signature></metadata></svg>