<svg xmlns="http://www.w3.org/2000/svg" height="512" preserveAspectRatio="none" style="display: block;" version="1.1" viewBox="0 0 2048 2048" width="512">
<path d="M 870.432 265.984 C 890.011 264.538 915.461 265.93 935.649 265.951 L 1704 265.925 C 1777.34 265.867 1841.6 293.566 1842.12 376.927 L 1842.01 1156.38 C 1842.05 1184.94 1843.4 1217.82 1840.92 1245.97 C 1837.23 1287.67 1795.12 1330.25 1753.61 1334.79 C 1723.11 1338.13 1689.72 1336.74 1659 1336.72 L 880.597 1336.84 C 783.046 1336.65 774.169 1256.11 774.346 1179.6 C 822.046 1155.08 865.931 1122.88 913.328 1097.51 C 911.686 1113.86 911.512 1180.42 913.328 1197.18 L 1703 1197.18 L 1703 402.025 L 1283.5 402.025 L 913.328 402.025 C 912.536 415.584 913.256 436.544 913.288 450.706 L 913.328 829.083 C 982.18 832.38 1017.48 908.517 968.4 953.069 C 955.363 964.902 937.543 974.418 922.253 983.779 L 745.348 1092.45 C 727.64 1103.45 709.997 1115.25 692.044 1125.71 L 692.028 1317.5 C 692.014 1350.35 690.624 1394.89 693.821 1426.55 C 703.801 1505.21 719.851 1593.27 734.179 1671.49 C 755.461 1787.68 612.495 1820.13 573.404 1732.85 C 554.325 1688.91 536.021 1528.87 525.832 1475.02 C 515.396 1474.92 504.774 1475.02 494.322 1475.02 C 493.805 1484.65 491.123 1499.15 489.511 1508.97 L 478.562 1571.84 C 470.957 1615.29 464.476 1662.21 457.817 1705.91 C 445.624 1785.92 347.235 1811.67 300.517 1744.98 C 279.842 1715.46 286.341 1685.05 291.235 1652 C 301.671 1588.77 310.215 1524.31 321.188 1461.18 C 282.091 1480.21 240.448 1477.72 215.726 1436.95 C 204.72 1418.8 206.902 1396.45 206.987 1375.89 L 207.029 1320.86 C 207.02 1272.89 205.399 1222.6 208.531 1175.26 C 215.573 1068.85 302.601 981.836 406.804 966.914 C 431.338 963.4 453.804 964.908 478.174 964.941 L 585.245 964.982 C 593.946 964.987 651.566 966.135 655.446 964.374 C 689.108 949.103 742.294 913.482 774.346 895.939 L 774.29 416.409 C 774.095 341.561 781.401 280.359 870.432 265.984 z" fill="rgb(0,0,0)" transform="translate(0,0)"></path>
<path d="M 492.589 550.049 C 594.595 540.825 684.673 616.261 693.499 718.303 C 702.325 820.344 626.539 910.127 524.463 918.556 C 422.949 926.938 333.767 851.659 324.989 750.178 C 316.211 648.697 391.143 559.222 492.589 550.049 z" fill="rgb(0,0,0)" transform="translate(0,0)"></path>
<path d="M 1160.24 640.351 C 1194.67 633.283 1210.52 717.579 1219.72 743.241 L 1291.21 942.128 C 1304.22 972.238 1275.87 998.267 1253.61 983.232 C 1238.12 972.774 1218.43 903.659 1213.09 885.375 C 1197.9 885.996 1179.66 885.451 1164.25 885.375 L 1108.92 885.375 C 1095.32 920.035 1084.64 1006.15 1038.66 982.386 C 1024.45 975.042 1023.91 957.26 1029.26 942.984 C 1061.55 856.889 1090.21 769.339 1123.76 683.687 C 1131.85 663.034 1135.15 644.37 1160.24 640.351 z M 1122.7 836.553 C 1135.16 836.551 1147.8 836.427 1160.24 836.553 L 1197.35 836.553 C 1193.16 823.34 1164.38 733.15 1160.24 728.643 C 1147.99 764.722 1135.76 800.754 1122.7 836.553 z" fill="rgb(0,0,0)" transform="translate(0,0)"></path>
<path d="M 1488.79 640.351 C 1521.13 632.474 1621.38 659.53 1574.64 703.078 C 1551.9 724.268 1503.05 667.296 1443.63 718.43 C 1381.43 770.191 1390.71 899.132 1473.96 924.346 C 1527.06 940.432 1555.94 895.479 1581.28 926.798 L 1582.05 927.769 C 1602.51 959.254 1566.35 973.1 1541.73 980.108 C 1313.09 1045.21 1261.14 652.578 1488.79 640.351 z" fill="rgb(0,0,0)" transform="translate(0,0)"></path>
<metadata><recraft-signature>{"signed_by": "recraft", "signature_b64": "MON7RTXVQEx0MQLVgXKn3O6Q3d0s9QszPc8Tw+XqXnjYWq0OHtPE1RJgNJzc7w9+ueUbIi5pMxVw1YbYkwmiCg==", "signing_algo": "Ed25519", "generation_timestamp": 1772998187, "identifier": "b922bc9b-861e-42d1-a8f8-3a96709b730a"}</recraft-signature></metadata></svg>