<svg xmlns="http://www.w3.org/2000/svg" height="512" preserveAspectRatio="none" style="display: block;" version="1.1" viewBox="0 0 2048 2048" width="512">
<path d="M 287.146 832.49 L 1708.38 832.444 C 1730.83 832.439 1770.79 826.882 1788.71 842.281 C 1821.67 870.593 1801.49 922.45 1759.56 922.936 L 327.905 922.954 C 316.739 922.969 290.467 924.524 281.162 923.037 C 227.614 914.484 225.664 836.121 287.146 832.49 z" fill="rgb(31,31,31)" transform="translate(0,0)"></path>
<path d="M 287.146 1408.17 L 1712.73 1408.14 C 1730.71 1408.12 1749.14 1407.94 1767.09 1408.38 C 1824.65 1412.13 1817.66 1494.45 1765.22 1498.43 L 331.512 1498.45 C 308.072 1498.48 277.905 1504.59 258.677 1488.21 C 229.172 1463.06 243.528 1412.63 287.146 1408.17 z" fill="rgb(31,31,31)" transform="translate(0,0)"></path>
<path d="M 1299.61 542.991 L 1712.71 542.99 C 1729.46 542.99 1746.61 542.544 1763.09 543.31 C 1824.82 546.176 1810 631.015 1771.21 633.795 C 1745.35 635.649 1717.64 634.821 1691.7 634.82 L 1021.25 634.801 L 603.342 634.753 C 566.461 634.928 517.027 643.426 512.85 590.083 C 508.164 530.259 595.109 542.971 631.042 542.964 L 1299.61 542.991 z" fill="rgb(31,31,31)" transform="translate(0,0)"></path>
<path d="M 559.722 1121.59 C 641.414 1120.16 728.135 1121.59 810.108 1121.59 L 1708.55 1121.54 C 1727.11 1121.54 1745.9 1121.3 1764.44 1122.08 C 1816.08 1123.23 1821.66 1208.61 1765.22 1212.91 L 606.402 1212.93 C 591.855 1212.95 576.951 1213.35 562.442 1212.95 C 506.252 1211.38 499.744 1129.4 559.722 1121.59 z" fill="rgb(31,31,31)" transform="translate(0,0)"></path>
<path d="M 320.148 542.991 C 328.182 545.004 362.192 542.919 374.25 542.991 C 388.154 588.053 413.893 639.392 430.765 685.158 C 436.577 700.923 447.831 722.233 451.78 737.975 L 401.489 737.975 C 396.835 727.029 392.244 714.422 387.906 703.229 L 374.25 703.229 L 303.208 703.229 C 297.782 719.04 296.813 724.184 287.146 737.975 L 240.891 737.975 C 265.185 673.323 297.084 606.801 320.148 542.991 z M 315.467 663.006 L 346.444 663.006 L 374.25 663.006 C 369.017 651.966 347.152 598.749 342.21 593.715 C 333.625 617.924 324.805 639.274 315.467 663.006 z" fill="rgb(31,31,31)" transform="translate(0,0)"></path>
<path d="M 259.005 1050.18 L 339.591 1050.09 C 398.408 1049.94 434.867 1052.21 438.448 1119.19 C 425.566 1119.55 411.23 1119.23 398.265 1119.19 C 384.567 1080.27 341.552 1092.82 303.208 1092.96 L 303.208 1196.4 L 352.92 1196.4 C 382.713 1196.51 394.896 1193.23 398.265 1161.16 L 438.448 1161.16 C 436.592 1233.63 403.468 1237.34 341.058 1237.26 L 259.005 1237.22 L 259.005 1050.18 z" fill="rgb(254,46,65)" transform="translate(0,0)"></path>
<metadata><recraft-signature>{"signed_by": "recraft", "signature_b64": "xw/QsX7LBNsyURQD4v+YPQEaTXtJxX/pGQK8mUuyamowZB4dxZuRulJ0GgW2kkDg84RvCukuyDQd7iLsjB/GDw==", "signing_algo": "Ed25519", "generation_timestamp": 1772998426, "identifier": "adf5bb6a-97b9-4c76-9646-584d2ecce606"}</recraft-signature></metadata></svg>