<svg xmlns="http://www.w3.org/2000/svg" height="512" preserveAspectRatio="none" style="display: block;" version="1.1" viewBox="0 0 2048 2048" width="512">
<path d="M 380.813 426.45 L 382.076 426.434 C 482.31 425.748 468.039 532.988 468.036 598.295 L 468.014 1451.51 L 1529.67 1451.53 C 1573.62 1451.52 1626.14 1449.21 1669.3 1452.95 C 1766.68 1461.39 1774.55 1603.46 1670.75 1618 C 1652.34 1619.18 1617.86 1618.05 1598.31 1618.03 L 439.209 1618.05 C 388.318 1618.12 305.081 1626.26 301.345 1550.37 C 300.312 1529.39 300.992 1507.15 301.02 1486.13 L 300.963 552.331 C 300.923 490.464 301.943 432.103 380.813 426.45 z" fill="rgb(0,0,0)" transform="translate(0,0)"></path>
<path d="M 1023.03 766.624 L 1135.47 766.624 C 1180.46 812.72 1227.49 857.77 1273.02 903.482 L 1593.23 1225.5 C 1604.97 1237.1 1637.97 1267.36 1646.32 1280.49 L 1490.54 1280.49 C 1471.29 1280.49 1432.32 1281.91 1414.98 1280.49 C 1404.95 1272.42 1392.54 1258.56 1383.18 1248.93 L 1082.57 948.026 C 1063.52 929.009 1040.96 908.3 1023.03 888.959 L 1022.99 803.343 C 1022.96 795.028 1022.06 773.147 1023.03 766.624 z" fill="rgb(0,0,0)" transform="translate(0,0)"></path>
<metadata><recraft-signature>{"signed_by": "recraft", "signature_b64": "AS8UUNmvfymjv/fi0L2bapPk9rajsTU0e3LHOLxnPIQ0ZZkNG2GmcUTElqQ/z7iEh1pprwTn67bAyf1fRg2MDQ==", "signing_algo": "Ed25519", "generation_timestamp": 1772997657, "identifier": "6219b25f-7cba-4479-9f3f-59a4ae04ea88"}</recraft-signature></metadata></svg>