<svg xmlns="http://www.w3.org/2000/svg" viewBox="0 0 500 500" width="500" height="500">
  <!-- Playground -->
  <!-- Ground -->
  <rect x="0" y="380" width="500" height="120" fill="#7CB342"/>
  <!-- Slide -->
  <rect x="60" y="180" width="12" height="200" fill="#795548" stroke="#000" stroke-width="2.5"/>
  <rect x="100" y="180" width="12" height="200" fill="#795548" stroke="#000" stroke-width="2.5"/>
  <rect x="55" y="175" width="62" height="12" rx="3" fill="#795548" stroke="#000" stroke-width="2.5"/>
  <path d="M112 185 L220 370" fill="none" stroke="#E53935" stroke-width="14" stroke-linecap="round"/>
  <path d="M112 185 L220 370" fill="none" stroke="#000" stroke-width="3" stroke-linecap="round"/>
  <!-- Ladder steps -->
  <line x1="66" y1="220" x2="106" y2="220" stroke="#795548" stroke-width="4"/>
  <line x1="66" y1="260" x2="106" y2="260" stroke="#795548" stroke-width="4"/>
  <line x1="66" y1="300" x2="106" y2="300" stroke="#795548" stroke-width="4"/>
  <line x1="66" y1="340" x2="106" y2="340" stroke="#795548" stroke-width="4"/>
  <!-- Swing set -->
  <rect x="290" y="140" width="8" height="240" fill="#795548" stroke="#000" stroke-width="2"/>
  <rect x="420" y="140" width="8" height="240" fill="#795548" stroke="#000" stroke-width="2"/>
  <rect x="285" y="135" width="148" height="12" rx="4" fill="#795548" stroke="#000" stroke-width="2.5"/>
  <!-- Swing 1 -->
  <line x1="330" y1="147" x2="320" y2="320" stroke="#333" stroke-width="2.5"/>
  <line x1="350" y1="147" x2="340" y2="320" stroke="#333" stroke-width="2.5"/>
  <rect x="315" y="320" width="30" height="8" rx="3" fill="#2196F3" stroke="#000" stroke-width="2"/>
  <!-- Swing 2 -->
  <line x1="385" y1="147" x2="395" y2="310" stroke="#333" stroke-width="2.5"/>
  <line x1="405" y1="147" x2="415" y2="310" stroke="#333" stroke-width="2.5"/>
  <rect x="390" y="310" width="30" height="8" rx="3" fill="#FF9800" stroke="#000" stroke-width="2"/>
  <!-- Child on swing -->
  <circle cx="405" cy="290" r="12" fill="#F5DEB3" stroke="#000" stroke-width="2"/>
  <rect x="399" y="302" width="12" height="15" rx="2" fill="#E91E63" stroke="#000" stroke-width="1.5"/>
  <!-- Sandbox -->
  <rect x="170" y="360" width="100" height="30" rx="5" fill="#FFE082" stroke="#000" stroke-width="2.5"/>
  <!-- Sun -->
  <circle cx="430" cy="70" r="35" fill="#FFD700" stroke="#000" stroke-width="2.5"/>
</svg>