<svg xmlns="http://www.w3.org/2000/svg" height="512" preserveAspectRatio="none" style="display: block;" version="1.1" viewBox="0 0 2048 2048" width="512">
<path d="M 604.359 339.177 L 1346.52 339.16 C 1378.84 339.157 1411.55 338.966 1443.4 339.754 C 1505.56 341.294 1514.79 414.173 1531.08 462.468 L 1713.96 994.991 C 1736.91 1062.04 1760.75 1126.92 1781.91 1195 C 1872.3 1190.27 1878.83 1223.84 1878.66 1298.22 L 1878.58 1363.38 L 1537.04 1363.38 L 1537.04 1195 C 1556.93 1194.33 1580 1194.94 1600.1 1195 C 1583.63 1125.18 1544.62 1031.13 1520.5 960.163 L 1451 757.937 C 1449.81 791.033 1450.99 829.078 1451 862.732 L 1451 1706.97 L 1280.78 1706.97 L 1280.78 1526.43 L 1280.78 1363.38 L 823.78 1363.37 C 805.667 1363.36 784.667 1362.6 767.001 1363.38 C 766.471 1374.03 766.965 1389.09 766.967 1400.06 L 767.001 1706.97 L 597.023 1706.97 C 597.671 1681.33 597.051 1653.07 597.049 1627.16 L 596.936 828.5 C 597.044 805.958 596.04 785.959 597.023 762.9 C 588.305 782.843 581.776 805.444 574.844 826.243 L 480.963 1101.14 C 470.246 1132.38 458.889 1163.53 448.815 1195 L 511.168 1195 L 511.168 1363.38 L 170.804 1363.38 C 172.306 1320.18 158.629 1243.9 191.49 1213.08 C 213.079 1192.84 237.825 1194.64 264.931 1195 L 519.934 459.406 C 537.778 407.498 541.505 347.314 604.359 339.177 z M 767.001 1195 L 1188.84 1194.99 C 1198.29 1194.98 1279.24 1196.8 1280.78 1195 L 1280.78 509.119 L 767.001 509.119 L 767.001 1195 z" fill="rgb(0,0,0)" transform="translate(0,0)"></path>
<metadata><recraft-signature>{"signed_by": "recraft", "signature_b64": "CdZbGkEAExLzKsVY7vdJthmqqop5SgXe20ikBRk9MX9XxcrKwlzmi/W33Ra9YF8+7czFyhihaKkPXr8pE2hZCA==", "signing_algo": "Ed25519", "generation_timestamp": 1772996504, "identifier": "b3d5dabf-10c2-4c11-ae97-f32698d16812"}</recraft-signature></metadata></svg>