<svg xmlns="http://www.w3.org/2000/svg" height="512" preserveAspectRatio="none" style="display: block;" version="1.1" viewBox="0 0 2048 2048" width="512">
<path d="M 847.649 364.832 C 852.868 364.467 886.892 386.141 894.383 390.633 L 967.791 434.98 C 1032.84 474.927 1099.88 516.023 1166 554.243 L 1166 642.254 C 1152.06 635.346 1116.7 614.172 1104 605.246 C 1102.69 659.064 1104.03 717.703 1104 771.996 C 1153.52 772.907 1204.36 771.326 1253.99 771.93 C 1367.08 773.304 1388.06 771.733 1443.37 867.373 L 1727.76 1362.14 C 1761.38 1421.7 1785.12 1462.95 1861.76 1473.23 C 1879.58 1475.62 1903.47 1469.42 1914.9 1487.45 C 1928.18 1508.41 1935.92 1609.52 1901.93 1632 C 1789.34 1626.48 1723.8 1619.3 1642.61 1523.13 C 1609.99 1483.55 1589.21 1434.68 1563.13 1390.69 C 1497.83 1280.55 1434.69 1167.4 1370.6 1056.36 C 1361.49 1040.58 1353.99 1024.85 1343.08 1010.06 C 1343.81 1051.41 1343.08 1094.95 1343.08 1136.45 L 1343.08 1550.71 C 1343.08 1575.61 1344.18 1608 1343.08 1632 C 1323.2 1633.83 1290.99 1632.91 1271.01 1632 L 1271.01 846.645 L 1104 846.645 L 1104 913.5 L 1104 1632 L 1032.05 1632 L 1032.05 1207.01 L 681.78 1207.01 L 681.78 1632 L 609.975 1632 L 609.996 1286.34 C 610.007 1230.71 608.749 1172.35 609.975 1117.14 C 584.609 1134.06 569.153 1176.67 556.109 1203.52 L 415.408 1492.36 C 392.602 1539.59 370.115 1588.51 346.677 1635.2 C 320.525 1631.18 276.781 1620.84 284.176 1583.26 C 286.077 1573.61 308.597 1551.39 317.094 1533.8 L 485.319 1180.39 C 516.551 1114.08 550.407 1059.68 583.59 995.967 C 607.268 950.503 610.394 957.457 610.065 906.034 L 609.975 605.246 C 594 611.202 559.824 632.693 543.57 642.254 C 544.154 611.831 543.535 580.305 543.57 549.731 C 563.096 538.367 582.606 525.201 602.117 513.379 L 757.9 419.005 C 786.01 401.82 819.187 379.991 847.649 364.832 z M 681.78 945.044 L 1032.05 945.044 C 1032.95 907.319 1032.04 866.624 1032.03 828.619 L 1032.05 597.097 L 681.78 597.097 L 681.78 945.044 z M 681.78 1133.12 L 1032.05 1133.12 C 1032.7 1131.98 1032.59 1027.44 1032.05 1016 L 720.997 1015.96 C 708.275 1015.94 694.308 1015.37 681.78 1016 C 680.504 1019.85 681.693 1044.15 681.72 1050.37 L 681.78 1133.12 z" fill="rgb(0,0,0)" transform="translate(0,0)"></path>
<path d="M 260.844 951.24 C 332.908 945.143 377.443 1037.34 304.246 1091.46 C 305.013 1110.93 304.292 1135.46 304.284 1155.4 L 304.246 1279.99 L 272.5 1279.99 L 230.022 1279.99 C 229.26 1219.9 229.028 1151.23 230.022 1091.46 C 167.544 1058.77 178.199 963.917 260.844 951.24 z" fill="rgb(0,0,0)" transform="translate(0,0)"></path>
<metadata><recraft-signature>{"signed_by": "recraft", "signature_b64": "WV2OvfZdRa+2XPsc92xfbe6Q5CVzU9O2kptQZld1KnEs+FkkcYghVP2t7s6ShRuKv4+cpBYRSOpT+76FI1+5Bg==", "signing_algo": "Ed25519", "generation_timestamp": 1772988338, "identifier": "633bb700-1319-415e-8691-2611b414313d"}</recraft-signature></metadata></svg>