<svg xmlns="http://www.w3.org/2000/svg" height="512" preserveAspectRatio="none" style="display: block;" version="1.1" viewBox="0 0 2048 2048" width="512">
<path d="M 399.751 302.517 L 1741.85 302.517 L 1741.89 1149.29 C 1741.87 1183.1 1740.86 1221 1741.85 1254.49 L 1646.5 1254.49 L 351.481 1254.47 C 338.229 1254.46 318.905 1253.61 306.49 1254.49 C 305.562 1197.33 306.492 1137.2 306.493 1079.79 L 306.481 444.653 C 306.478 398.657 305.355 348 306.49 302.517 C 336.519 303.244 369.485 302.536 399.751 302.517 z M 427.097 1133.97 C 458.66 1133.14 493.537 1133.97 525.428 1133.97 L 1600.14 1134 C 1602.96 1134 1620.13 1134.24 1621.7 1133.97 C 1622.27 1115.31 1621.73 1094.73 1621.72 1075.89 L 1621.71 600.96 C 1621.71 543.236 1620.54 481.215 1621.7 423.852 L 463.603 423.786 C 454.247 423.76 435.467 422.917 427.097 423.852 L 427.078 1036.14 C 427.076 1068.24 426.549 1101.96 427.097 1133.97 z" fill="rgb(0,0,0)" transform="translate(0,0)"></path>
<path d="M 1437.87 1567.04 L 1446.71 1566.96 C 1498.91 1566.89 1542.38 1574.92 1581.37 1613.59 C 1618.47 1650.39 1614.09 1691.07 1614 1738.86 L 1463.99 1738.86 L 1288.04 1738.86 C 1284.52 1624.03 1320.92 1579.35 1437.87 1567.04 z" fill="rgb(0,0,0)" transform="translate(0,0)"></path>
<path d="M 568.398 1567.04 C 622.828 1566.5 681.145 1568.55 721.432 1610.2 C 761.015 1651.12 757.216 1687.6 757.002 1738.86 C 717.258 1740.32 664.923 1738.87 624.201 1738.86 L 433.001 1738.86 C 432.867 1698.37 428.578 1664.97 453.536 1629.91 C 485.892 1584.47 518.573 1576.73 568.398 1567.04 z" fill="rgb(0,0,0)" transform="translate(0,0)"></path>
<path d="M 997.728 1567.04 C 1048.69 1564.02 1107.14 1569.11 1145.09 1607.42 C 1187.43 1650.17 1182.99 1683.65 1182.98 1738.86 L 1049.5 1738.86 L 864.707 1738.86 C 865.619 1691.54 858.035 1659.03 891.335 1618.17 C 920.784 1582.03 953.896 1572.21 997.728 1567.04 z" fill="rgb(0,0,0)" transform="translate(0,0)"></path>
<path d="M 1008.56 1380.39 C 1058.24 1372.31 1105.09 1405.96 1113.29 1455.62 C 1121.5 1505.28 1087.96 1552.22 1038.32 1560.54 C 988.506 1568.9 941.372 1535.22 933.139 1485.38 C 924.905 1435.55 958.702 1388.5 1008.56 1380.39 z" fill="rgb(0,0,0)" transform="translate(0,0)"></path>
<path d="M 585.248 1380.03 C 635.244 1375.96 679.099 1413.13 683.288 1463.12 C 687.477 1513.1 650.42 1557.05 600.444 1561.36 C 550.292 1565.69 506.156 1528.47 501.952 1478.31 C 497.749 1428.15 535.075 1384.11 585.248 1380.03 z" fill="rgb(0,0,0)" transform="translate(0,0)"></path>
<path d="M 1446.09 1381.05 C 1495.7 1376.6 1539.65 1412.89 1544.66 1462.44 C 1549.67 1511.99 1513.88 1556.35 1464.39 1561.92 C 1431.87 1565.58 1399.9 1551.48 1380.67 1525.01 C 1361.45 1498.53 1357.93 1463.77 1371.47 1433.98 C 1385 1404.19 1413.5 1383.98 1446.09 1381.05 z" fill="rgb(0,0,0)" transform="translate(0,0)"></path>
<metadata><recraft-signature>{"signed_by": "recraft", "signature_b64": "PZ0bTu3fUuUbu4EIUxsCHtMgQQn2BB7wz6QP8RZBu3Nti703pC1n5wdGiBgw9Yuv3jxwmSgrSPSNY8/Ew+q7Dg==", "signing_algo": "Ed25519", "generation_timestamp": 1772998085, "identifier": "1d492e33-eb79-426b-aa7c-46d12ddde5bb"}</recraft-signature></metadata></svg>