<svg xmlns="http://www.w3.org/2000/svg" height="512" preserveAspectRatio="none" style="display: block;" version="1.1" viewBox="0 0 2048 2048" width="512">
<path d="M 241.856 611.075 C 249.081 610.284 284.774 611.059 293.289 611.073 L 1794.72 611.255 C 1890.9 611.113 1873.11 701.83 1873.03 770.267 L 1873.05 1310.71 C 1873.18 1365.26 1877.23 1415.76 1809.77 1433.33 C 1801.67 1434.5 1774.12 1433.37 1763.54 1433.34 L 250.873 1433.16 C 159.429 1432.77 175.748 1329.63 175.609 1271.1 L 174.986 727.33 C 175 668.983 175.592 623.802 241.856 611.075 z M 1559.01 1387 L 1773.36 1387.08 C 1825.35 1387.2 1827.17 1375.95 1827.04 1330.55 L 1826.82 685.923 C 1826.59 647.392 1777.51 657.42 1750.01 657.459 L 492.065 657.472 L 321.829 657.473 C 298.601 657.473 224.042 647.075 221.302 679.552 C 219.833 708.954 219.953 738.66 219.946 768.072 L 220.052 1355.48 C 220.135 1381.55 237.441 1385.02 257.263 1386.92 L 1559.01 1387 z" fill="rgb(0,0,0)" transform="translate(0,0)"></path>
<path d="M 1006.59 792.825 C 1062.19 792.954 1163.68 777.348 1148.36 868.912 C 1145.61 885.351 1130.62 895.512 1117.31 903.314 C 1147.84 927.887 1144.23 959.13 1157.27 994.712 C 1145.89 994.786 1113.05 998.692 1107.95 989.298 C 1089.85 949.964 1104.6 918.152 1045.99 917.991 L 1045.99 994.712 C 1030.83 994.698 1014.63 994.202 999.567 994.712 C 996.256 933.072 998.571 856.713 999.348 794.242 C 1001.3 792.656 1003.5 793.079 1006.59 792.825 z M 1045.99 829.992 L 1045.99 884.971 C 1059.8 883.23 1076.58 883.935 1088.16 879.449 C 1121.63 856.336 1100.21 828.319 1055.33 829.992 L 1045.99 829.992 z" fill="rgb(0,0,0)" transform="translate(0,0)"></path>
<path d="M 1496 792.825 C 1517.65 791.088 1577.11 790.481 1595.27 793.23 C 1669.86 805.329 1663.78 925.826 1573.75 925.051 L 1543 925.051 L 1543 994.712 C 1528.01 995.18 1511.14 994.761 1496 994.712 L 1495.98 857.997 C 1495.94 838.297 1494.34 811.456 1496 792.825 z M 1543 884.971 C 1557.18 885.121 1578.92 886.767 1591.25 879.449 C 1619.17 836.655 1576.88 829.651 1543 829.992 C 1542.91 848.503 1541.69 866.616 1543 884.971 z" fill="rgb(0,0,0)" transform="translate(0,0)"></path>
<path d="M 627.76 1064.03 L 649.616 1064.03 C 670.83 1129.06 696.915 1199.37 716.174 1264.37 L 668.903 1264.37 C 664.29 1250.6 658.939 1233.06 653.43 1220.02 L 616.967 1220.02 L 589.089 1220.02 C 583.711 1234.72 579.967 1249.34 574.137 1264.37 C 559.121 1264.15 544.089 1264.29 529.071 1264.37 C 543.862 1202.46 572.558 1124.79 593.276 1064.03 C 604.87 1065.19 616.162 1064.52 627.76 1064.03 z M 599.575 1181.04 C 608.93 1181.82 618.369 1181.32 627.76 1181.04 C 632.549 1181.14 636.952 1181.25 641.756 1181.04 C 638.851 1169.36 624.036 1113.28 616.967 1107.83 C 615.636 1128.18 605.369 1160.32 599.575 1181.04 z" fill="rgb(0,0,0)" transform="translate(0,0)"></path>
<path d="M 949.696 1064.03 C 1097.84 1053.03 1076.95 1197.12 986.502 1198.03 C 974.082 1198.16 953.907 1193.43 953.722 1205.75 L 953.722 1264.37 C 938.389 1264.1 923.914 1264.11 908.58 1264.37 C 907.712 1244.63 908.536 1218.25 908.548 1198.09 L 908.58 1066.98 C 924.446 1064.84 933.573 1063.91 949.696 1064.03 z M 955.025 1161 C 969.511 1161.24 986.457 1162.45 999.567 1155.53 C 1032.31 1122.21 994.834 1098.34 955.025 1103.02 L 953.697 1103.93 C 955.321 1123.73 955.051 1141.14 955.025 1161 z" fill="rgb(0,0,0)" transform="translate(0,0)"></path>
<path d="M 777.276 1064.03 C 920.978 1049.32 901.831 1188.03 817.769 1198.62 C 810.537 1199.53 787.3 1197.78 783.025 1200.26 L 782.996 1205.75 L 782.996 1264.37 C 767.397 1264.14 752.508 1263.94 736.923 1264.37 L 736.923 1066.98 C 750.019 1064.63 763.997 1064.01 777.276 1064.03 z M 782.996 1161 C 794.969 1160.4 813.501 1160.64 823.868 1155.53 C 852.875 1133.11 831.895 1098.38 791.131 1103.02 C 775.271 1103.98 782.92 1144.2 782.996 1161 z" fill="rgb(0,0,0)" transform="translate(0,0)"></path>
<path d="M 492.065 792.825 L 616.967 792.825 L 616.967 832.973 L 533.49 832.973 C 533.53 845.88 533.674 858.977 533.49 871.866 C 539.885 870.811 603.803 870.402 609.933 871.866 L 609.933 908.686 C 585.18 909.338 558.59 908.46 533.49 908.686 L 533.49 925.051 C 533.725 935.115 533.706 943.956 533.49 953.995 C 561.14 954.282 589.278 954.003 616.967 953.995 C 617.943 968.676 617.706 980.248 616.967 994.712 C 576.299 994.977 526.594 993.076 487.029 994.712 C 487.014 970.78 482.416 797.355 492.065 792.825 z" fill="rgb(0,0,0)" transform="translate(0,0)"></path>
<path d="M 838.258 792.825 C 880.599 792.84 923.673 792.323 965.913 792.825 L 965.913 832.973 C 946.352 834.23 906.708 833.179 885.831 832.973 C 885.562 845.635 885.81 859.139 885.831 871.866 L 955.025 871.866 C 956.265 887.19 956.402 896.56 955.025 911.847 L 885.831 911.847 L 885.831 928.75 L 885.831 953.995 L 971.49 953.995 C 971.098 966.954 971.456 981.623 971.49 994.712 C 927.9 995.445 882.025 994.724 838.258 994.712 L 838.265 863.489 C 838.251 841.73 837.189 813.865 838.258 792.825 z" fill="rgb(0,0,0)" transform="translate(0,0)"></path>
<path d="M 1396.52 1064.03 L 1524.17 1064.03 L 1524.17 1103.02 L 1442.99 1103.02 L 1442.99 1141.99 C 1469.2 1141.49 1497.91 1141.87 1524.17 1141.99 C 1521.64 1158.45 1519.8 1164.33 1524.17 1181.04 C 1497.2 1181.09 1469.91 1180.61 1442.99 1181.04 L 1442.99 1193.5 L 1442.99 1226 C 1469.69 1225.13 1502.53 1225.77 1529.51 1226 C 1529.93 1238.25 1529.39 1251.88 1529.51 1264.37 L 1396.52 1264.37 L 1396.55 1125.59 C 1396.56 1110.95 1395.21 1076.8 1396.52 1064.03 z" fill="rgb(0,0,0)" transform="translate(0,0)"></path>
<path d="M 1088.16 1064.03 L 1209.62 1064.03 L 1209.62 1103.02 L 1129.86 1103.02 L 1129.86 1141.99 L 1203 1141.99 L 1203 1181.04 C 1178.77 1181.31 1154.13 1181.07 1129.86 1181.04 C 1129.46 1186.71 1129.76 1193.22 1129.86 1198.96 C 1129.25 1209.33 1129.3 1215.56 1129.86 1226 L 1209.62 1226 C 1212.15 1244.07 1212.67 1245.98 1209.62 1264.37 C 1171.38 1267.97 1121.53 1263.42 1081.82 1264.37 L 1081.86 1130.97 C 1081.85 1117.15 1075.44 1065.35 1088.16 1064.03 z" fill="rgb(0,0,0)" transform="translate(0,0)"></path>
<path d="M 728.682 937.398 C 744.085 892.034 758.721 839.713 771.453 792.825 C 786.498 792.748 805.008 793.694 819.658 792.825 C 814.434 808.571 809.544 824.174 804.647 840.027 C 786.526 883.362 768.586 948.95 754.806 994.712 L 702.133 994.712 L 630.982 792.825 L 683.246 792.825 C 695.476 841.593 714.259 889.193 728.682 937.398 z" fill="rgb(0,0,0)" transform="translate(0,0)"></path>
<path d="M 1236.32 789.005 C 1261.23 785.881 1286.65 792.934 1308.86 803.63 C 1306.43 813.306 1299.87 831.629 1294.9 840.027 C 1278.95 831.636 1216.74 815.281 1224.15 848.163 C 1228.71 868.399 1272.42 879.977 1288.13 892.965 C 1334.59 931.379 1307.18 992.169 1245.75 997.385 C 1234.02 998.477 1182.47 994.699 1173.97 980.079 C 1171.38 975.62 1181.22 952.044 1183.94 944.927 C 1197.78 950.831 1275.33 971.27 1263.81 934.803 C 1254.51 905.36 1187.9 909.769 1178.33 863.118 C 1169.67 822.436 1199.43 796.703 1236.32 789.005 z" fill="rgb(0,0,0)" transform="translate(0,0)"></path>
<path d="M 1324.5 792.825 C 1367.69 789.279 1433.42 792.049 1477.51 792.825 L 1477.51 832.973 C 1458.55 832.236 1440.94 832 1422 832.973 L 1422 944.927 L 1422 994.712 C 1405.98 994.391 1391.05 994.41 1375.02 994.712 L 1375.02 832.973 C 1356.2 832.957 1338.16 832.412 1319.27 832.973 C 1318.95 825.33 1314.77 793.585 1324.5 792.825 z" fill="rgb(0,0,0)" transform="translate(0,0)"></path>
<path d="M 1227.06 1064.03 L 1375.02 1064.03 L 1375.02 1103.02 L 1324.5 1103.02 L 1324.5 1220.02 C 1324.57 1234.79 1324.72 1249.61 1324.5 1264.37 C 1310.16 1265.02 1291.57 1264.43 1277.05 1264.37 C 1276.12 1211.25 1277.44 1156.39 1277.05 1103.02 C 1267.38 1101.99 1238.16 1102.99 1227.06 1103.02 L 1227.06 1064.03 z" fill="rgb(0,0,0)" transform="translate(0,0)"></path>
<path d="M 329.614 792.825 L 376.277 792.825 L 376.277 953.995 C 404.484 954.312 433.276 954.004 461.53 953.995 C 461.847 967.522 461.018 981.179 461.53 994.712 L 329.614 994.712 L 329.614 792.825 z" fill="rgb(0,0,0)" transform="translate(0,0)"></path>
<path d="M 467.018 1064.03 L 512.011 1064.03 C 511.958 1108.78 511.941 1153.65 512.447 1198.39 C 512.92 1240.32 494.3 1265.81 450.274 1264.37 C 433.622 1265.52 426.542 1262.77 412.336 1255.09 C 415.86 1243.43 422.137 1230.84 427.749 1220.02 C 477.479 1247.09 467.215 1185.14 467.096 1156.85 L 467.018 1064.03 z" fill="rgb(0,0,0)" transform="translate(0,0)"></path>
<path d="M 1562.43 1064.03 C 1575.99 1063.66 1592.53 1063.75 1605.99 1064.03 C 1606 1083.08 1606.91 1259.69 1604.99 1263.66 L 1601.75 1264.37 L 1559.01 1264.37 L 1559.07 1122.71 C 1559.07 1114.12 1558.27 1069.22 1559.61 1064.68 L 1562.43 1064.03 z" fill="rgb(0,0,0)" transform="translate(0,0)"></path>
<path d="M 1700.75 792.825 C 1708.54 791.194 1714.74 791.934 1722.49 792.825 C 1721.44 812.258 1722.44 841.465 1722.47 861.593 L 1722.49 994.712 C 1715.3 994.796 1707.96 994.714 1700.75 994.712 C 1692.73 994.906 1684.19 994.734 1676.13 994.712 C 1675.09 976.845 1676.09 947.345 1676.09 928.424 L 1676.13 792.825 C 1684.68 791.483 1692.14 792.296 1700.75 792.825 z" fill="rgb(0,0,0)" transform="translate(0,0)"></path>
<metadata><recraft-signature>{"signed_by": "recraft", "signature_b64": "19aztwzlL1tRPu7CDBzJJIQmFmS0AR4K6J/HyW8thGO4JicFOysTOCoE7Zf6oKEi24NVsMJ7Y3C9yc9lT61YCA==", "signing_algo": "Ed25519", "generation_timestamp": 1772995926, "identifier": "d5ae0a8f-9aad-4902-b16a-52f0a70c726e"}</recraft-signature></metadata></svg>