<svg xmlns="http://www.w3.org/2000/svg" height="512" preserveAspectRatio="none" style="display: block;" version="1.1" viewBox="0 0 2048 2048" width="512">
<path d="M 1559.77 284.983 C 1584.73 283.425 1701.09 279.986 1702.49 318.632 C 1710.73 547.027 1496.5 790.59 1277.86 837.643 L 1293.59 865.518 C 1582.56 760.503 1850.35 1072.57 1693.27 1338.78 C 1595.93 1503.76 1390.24 1544.78 1229.92 1448.37 C 1187.29 1815.07 702.503 1851.61 602.341 1515.77 C 588.947 1463.61 586.475 1427.03 595.401 1374.03 C 393.457 1375.46 256.054 1159.98 336.29 975.677 C 392.407 846.777 536.041 770.773 672.743 814.15 C 688.287 819.082 701.94 825.145 716.849 831.632 C 775.715 736.963 876.093 690.428 983.906 681.257 C 915.45 581.459 793.917 507.187 677.906 479.944 C 633.009 469.401 648.836 396.157 699.667 407.749 C 859.15 444.119 970.607 532.17 1062.04 662.272 C 1069.28 646.701 1075.24 630.532 1082.75 614.796 C 1175.87 419.677 1349.02 306.572 1559.77 284.983 z M 1018.51 1273.12 C 1160.53 1260.97 1265.8 1135.98 1253.62 993.968 C 1241.44 851.952 1116.42 746.713 974.41 758.934 C 832.454 771.149 727.266 896.11 739.442 1038.07 C 751.618 1180.03 876.549 1285.25 1018.51 1273.12 z M 1200.45 754.17 C 1206.69 759.129 1216.22 767.172 1222.63 771.302 C 1426.41 751.391 1592.76 555.054 1625.32 359.003 C 1608.67 359.092 1585.33 358.099 1569.72 359.003 C 1551.14 361.227 1532.61 362.777 1514.14 365.889 C 1346.17 394.181 1172.48 542.166 1128.16 709.653 C 1160.28 725.501 1171.97 731.874 1200.45 754.17 z M 550.242 1292.64 C 573.779 1297.86 594.693 1300.4 618.891 1300.01 C 641.12 1254.7 670.912 1219.08 710.476 1187.94 C 658.379 1092.49 645.83 1007.96 682.377 901.294 C 648.093 885.003 615.297 876.376 576.776 880.019 C 354.826 907.128 310.991 1218.85 550.242 1292.64 z" fill="rgb(0,0,0)" transform="translate(0,0)"></path>
<path d="M 1388.56 921.97 C 1692.93 912.31 1758.31 1301.5 1501.35 1406.78 C 1483.64 1414.04 1465.38 1418.23 1447.23 1424.05 C 1434.36 1422.99 1421.68 1424.45 1408.93 1424.56 C 1310.74 1425.42 1233.33 1375.02 1185.35 1292.64 C 1301.17 1213.87 1354.86 1073.6 1320.21 937.789 C 1342.14 929.61 1365.31 924.426 1388.56 921.97 z" fill="rgb(220,30,47)" transform="translate(0,0)"></path>
<path d="M 758.373 1249.79 C 760.917 1250.43 775.113 1265.03 778.266 1267.78 C 876.152 1353.01 1009.84 1370.3 1128.16 1322.08 C 1185.05 1430.24 1144.66 1561.21 1046.81 1630.12 C 969.199 1683.47 869.448 1685.89 788.079 1639.51 C 643.112 1556.87 620.34 1351.04 758.373 1249.79 z" fill="rgb(220,30,47)" transform="translate(0,0)"></path>
<metadata><recraft-signature>{"signed_by": "recraft", "signature_b64": "u5iOEeA2/toU2kGDHADPH1tEXdwdQRB0pgnX9PAaFBp2H4e9BNGkiksI07IM1HbKXsmnXWaeOuL4AuHnbNMbDQ==", "signing_algo": "Ed25519", "generation_timestamp": 1772997268, "identifier": "7bbbfe0b-898d-4f36-b234-c43674893fe1"}</recraft-signature></metadata></svg>