<svg xmlns="http://www.w3.org/2000/svg" height="512" preserveAspectRatio="none" style="display: block;" version="1.1" viewBox="0 0 2048 2048" width="512">
<path d="M 515.518 290 C 632.46 286.137 734.586 350.146 753.236 471.364 C 758.576 506.069 756.234 551.496 756.207 587.987 L 756.217 1534.39 L 628.016 1534.39 L 628.146 537.972 C 628.189 525.355 628.537 512.487 627.747 500.061 C 620.777 390.457 450.656 390.877 447.907 503.588 C 446.497 561.393 447.11 620.235 447.11 678.309 L 447.09 1467.86 C 447.08 1497.02 444.16 1546.22 452.582 1573.45 C 469.445 1627.95 536.23 1618.96 580.916 1618.93 L 1473.5 1618.91 C 1573.25 1619.05 1602.27 1625.28 1601.95 1520.8 L 1601.79 1087.84 C 1601.91 999.018 1605.55 947.673 1571.3 863.726 C 1520.95 745.938 1401.04 651.145 1271.79 641.311 C 1232.67 638.334 1188.27 639.976 1148.72 639.977 L 936.49 639.989 C 936.48 600.76 941.276 547.964 936.49 510.923 L 1145.43 510.929 C 1183.7 510.925 1223.36 509.76 1261.54 511.459 C 1514.02 522.698 1721.34 742.426 1728.92 992.83 C 1730.02 1029.19 1729.06 1066.88 1729.06 1103.48 L 1729.05 1479.17 C 1729.1 1527.54 1733.05 1577.38 1715.71 1623.46 C 1675.38 1730.63 1592.81 1745.99 1495.36 1745.97 L 562.124 1745.99 C 537.507 1745.99 511.097 1746.68 486.679 1744.01 C 401.123 1734.49 329.066 1661.92 322.121 1575.74 C 320.184 1551.71 320.922 1527.47 320.948 1503.39 L 320.922 542.873 C 320.823 526.333 320.284 509.588 320.934 493.071 C 325.11 386.91 411.457 300.702 515.518 290 z" fill="rgb(0,0,0)" transform="translate(0,0)"></path>
<path d="M 1166.35 806.383 C 1278.46 798.248 1386.99 876.95 1413.24 985.987 C 1421.65 1020.91 1419.82 1057.47 1419.81 1093.1 L 1419.78 1534.39 C 1380.3 1535.97 1329.99 1534.42 1289.74 1534.39 L 1289.6 1094.09 C 1289.62 1071.55 1291.13 1044.7 1287.23 1022.84 C 1279.24 978.154 1236.6 940.265 1191.25 937.118 C 1131.43 933.861 1078.01 967.001 1067.19 1028.69 C 1064.74 1042.67 1065.92 1065.93 1065.92 1080.88 L 1065.95 1534.39 L 936.49 1534.39 C 937.036 1521.43 936.525 1505.22 936.522 1491.94 L 936.456 1076.92 C 936.467 1053.57 935.554 1028.96 939.976 1006 C 961.523 894.106 1052.81 813.979 1166.35 806.383 z" fill="rgb(0,0,0)" transform="translate(0,0)"></path>
<metadata><recraft-signature>{"signed_by": "recraft", "signature_b64": "2Ns0jWTgvX56GNP+nJ+nlAzURy14wQP/gMwVm6h+pvuQ5JqpEpn5Gv/aYYu5bAN8WRzHWv4NrSknIthybsA3Bg==", "signing_algo": "Ed25519", "generation_timestamp": 1772999642, "identifier": "09227f5f-af61-46fd-8961-43e293c0c9d2"}</recraft-signature></metadata></svg>