<svg xmlns="http://www.w3.org/2000/svg" height="512" preserveAspectRatio="none" style="display: block;" version="1.1" viewBox="0 0 2048 2048" width="512">
<path d="M 1361.47 1389.79 C 1359.29 1498.16 1379.03 1589.23 1293.24 1676.51 C 1246.3 1724.25 1193.6 1746.1 1126.6 1746.5 L 559.911 1746.53 C 524.703 1746.57 487.713 1748.43 453.577 1741.56 C 331.836 1717.06 256.404 1613.69 256.087 1492.92 L 256.086 988.524 C 256.089 950.74 254.331 916.541 262.168 879.249 C 281.551 787.016 357.228 710.942 449.089 690.447 C 483.174 682.842 521.192 684.951 556.149 684.953 L 1105.78 684.915 C 1230.79 684.968 1339.51 762.835 1359.05 890.674 C 1362.67 914.398 1361.51 942.234 1361.47 966.664 C 1361.61 970.045 1361.36 973.429 1362.85 976.348 C 1462.87 864.086 1614.18 1183.43 1448.86 1373.31 C 1420.15 1406.28 1393.66 1395.15 1361.47 1389.79 z M 1361.47 1218.98 C 1380.49 1196.21 1372.21 1148.65 1361.47 1123.72 C 1361.1 1138.4 1361.69 1154.08 1361.47 1169.03 L 1361.47 1218.98 z M 1113.75 1578.38 C 1199.83 1578.06 1198.88 1517.13 1198.89 1451.28 L 1198.86 948.482 C 1198.8 853.573 1146.44 851.392 1067.05 851.433 L 511.161 851.478 C 423.504 853.643 424.954 911.382 424.95 980.397 L 424.974 1468.1 C 424.849 1570.93 452.221 1578.52 547.872 1578.39 L 1113.75 1578.38 z" fill="rgb(22,22,22)" transform="translate(0,0)"></path>
<path d="M 1361.47 966.664 C 1361.61 970.045 1361.36 973.429 1362.85 976.348 C 1462.87 864.086 1614.18 1183.43 1448.86 1373.31 C 1420.15 1406.28 1393.66 1395.15 1361.47 1389.79 C 1360.8 1333.29 1361.43 1275.58 1361.47 1218.98 C 1380.49 1196.21 1372.21 1148.65 1361.47 1123.72 C 1361.1 1138.4 1361.69 1154.08 1361.47 1169.03 C 1360.7 1162.05 1361.2 1148.88 1361.27 1141.4 L 1361.52 1094.49 C 1361.53 1055.22 1359.9 1004.9 1361.47 966.664 z" fill="rgb(97,58,186)" transform="translate(0,0)"></path>
<path d="M 1183.19 298.919 C 1354.97 297.462 1495.27 343.061 1619.24 470.261 C 1629.8 480.81 1641.26 490.408 1649.45 503.084 C 1683.34 555.678 1644.5 630.079 1579.43 622.528 C 1544.92 618.524 1490.53 554.758 1455.09 529.173 C 1350.13 457.377 1234.08 433.252 1110.68 468.577 C 1083.01 476.5 1046.73 498.922 1025.27 502.324 C 957.606 513.051 906.448 434.696 949.767 378.115 C 986.06 330.712 1118.72 307.664 1183.19 298.919 z" fill="rgb(97,58,186)" transform="translate(0,0)"></path>
<path d="M 1601.14 801.371 C 1647.66 796.472 1668 818.118 1693.67 852.995 C 1828.89 1036.71 1820.03 1307.87 1685.83 1489.61 C 1667.95 1513.82 1654.8 1526.12 1624.25 1530.64 C 1558.16 1535.91 1513.64 1460.28 1549.06 1415.23 C 1662.09 1271.63 1666.51 1062.37 1549.68 919.486 C 1511.01 872.184 1545.32 812.896 1601.14 801.371 z" fill="rgb(97,58,186)" transform="translate(0,0)"></path>
<metadata><recraft-signature>{"signed_by": "recraft", "signature_b64": "ZLuT/azVJqVlpP0TJdWDh7rEZjvF1Mb7zQ1+HWhErJehaTVkw5qmZzNpPIhKiQ8b0plF536a62qJntViGfwyCg==", "signing_algo": "Ed25519", "generation_timestamp": 1772999850, "identifier": "101ecf08-775d-49b0-8d39-6d6f0ea0f81e"}</recraft-signature></metadata></svg>