<svg xmlns="http://www.w3.org/2000/svg" height="512" preserveAspectRatio="none" style="display: block;" version="1.1" viewBox="0 0 2048 2048" width="512">
<path d="M 1007.02 506.89 C 1010.04 506.393 1032.84 506.657 1037.97 506.746 C 1345.36 512.073 1480.67 891.688 1263.54 1091.61 C 1205.01 1145.5 1190.35 1237.57 1235.75 1305.09 C 1251.72 1328.72 1274.25 1346.3 1289.22 1370.8 C 1355.76 1474.58 1352.63 1612.12 1281.36 1713.3 C 1176.05 1864.3 954.931 1883.01 830.129 1744.38 C 802.175 1713.33 753.086 1647.29 729.708 1610.22 C 688.774 1543.1 766.439 1473.09 831.386 1519.93 C 870.214 1552.49 903.227 1632.69 947.202 1665.35 C 1088.99 1770.67 1270.6 1597.53 1174.65 1450.58 C 1165.64 1436.93 1152.02 1424.32 1141.57 1412.07 C 1035.7 1287.95 1051.6 1088.99 1175.9 983.272 C 1263.41 897.845 1247.27 754.41 1150.47 682.57 C 1047.69 607.86 922.55 644.186 857.279 746.618 C 810.831 819.508 674.758 746.493 765.554 633.55 C 830.201 551.876 907.859 519.294 1007.02 506.89 z" fill="rgb(0,0,0)" transform="translate(0,0)"></path>
<path d="M 1007.02 191.974 C 1530.21 174.4 1859.12 751.524 1579.77 1189.48 C 1562.46 1213.08 1540.62 1250.92 1517.09 1268.36 C 1477.13 1297.98 1415.29 1270.98 1406.93 1222.79 C 1400.04 1183.05 1427.55 1164.7 1447.15 1136.34 C 1447.3 1136.17 1447.44 1136 1447.58 1135.82 C 1739.16 737.007 1321.72 198.773 876.05 355.961 C 854.732 363.051 835.085 375.003 812.463 377.778 C 735.281 387.244 701.986 287.166 769.078 248.724 C 782.278 241.161 797.222 237.302 811.51 231.999 C 884.332 204.975 932.815 199.279 1007.02 191.974 z" fill="rgb(0,0,0)" transform="translate(0,0)"></path>
<path d="M 432.584 787.222 C 501.331 779.986 509.983 842.557 510.026 891.353 L 510.041 1036.39 C 510.012 1082.61 510.329 1132.04 450.239 1141.77 C 377.032 1151.17 368.89 1088.54 368.992 1035.66 L 368.977 888.507 C 368.959 836.018 372.24 798.946 432.584 787.222 z" fill="rgb(0,0,0)" transform="translate(0,0)"></path>
<path d="M 563.613 1203.24 C 611.576 1195.19 649.612 1260.81 674.321 1294.09 C 695.236 1322.91 724.018 1348.08 720.714 1387.16 C 717.68 1423.04 694.185 1444.24 660.25 1450.96 C 610.763 1452.35 601.472 1428.2 573.187 1394.32 C 553.142 1370.31 505.929 1318.25 500.959 1288.83 C 492.153 1242.97 521.206 1210.98 563.613 1203.24 z" fill="rgb(0,0,0)" transform="translate(0,0)"></path>
<metadata><recraft-signature>{"signed_by": "recraft", "signature_b64": "+5YN6JBsitTvtmDBRFV4iVsX0qeZ8xLDfkZdrP8cJMinSHZyANBnAWyYOk4nh2exJ/aIVuLUTGN2wacZzfzPAw==", "signing_algo": "Ed25519", "generation_timestamp": 1772989070, "identifier": "48a3604f-804e-430a-91fc-aa04559bc9d0"}</recraft-signature></metadata></svg>