<svg xmlns="http://www.w3.org/2000/svg" height="512" preserveAspectRatio="none" style="display: block;" version="1.1" viewBox="0 0 2048 2048" width="512">
<path d="M 1666.74 1031 L 1670.02 1030.89 C 1731.7 1029.17 1765.39 1071.69 1765.44 1130.79 L 1765.6 1551.12 C 1765.78 1652.16 1743.96 1680.04 1641.29 1679.87 L 1220.29 1679.79 C 1173.05 1679.73 1135.12 1655.32 1122.05 1608.52 C 1105.32 1548.63 1151.43 1515.89 1188.13 1478.88 L 1589.65 1079.23 C 1617.87 1051.83 1626.51 1039.37 1666.74 1031 z M 1303.8 1552 L 1594.68 1551.94 C 1608.73 1551.88 1626.16 1551.34 1640.04 1552 C 1639.37 1522.58 1640.04 1492.14 1640.04 1462.57 L 1640 1289.17 C 1640.01 1278.51 1641.82 1221.33 1640.04 1213.97 C 1612.29 1239.58 1587.24 1265.24 1560.45 1291.71 L 1326.89 1525.6 C 1322.73 1529.76 1304.69 1547.21 1302.24 1550.88 L 1302.77 1551.91 L 1303.8 1552 z" fill="rgb(0,0,0)" transform="translate(0,0)"></path>
<path d="M 1702.12 276.364 C 1755.82 275.177 1791.04 337.943 1753.01 378.993 C 1728.9 405.02 1702.28 430.404 1677.11 455.476 L 383.598 1749.5 C 373.766 1759.27 360.804 1763.47 347.1 1764.33 C 291.163 1761.66 258.47 1709.17 293.758 1660.41 C 302.247 1648.69 319.468 1635.02 330.19 1624.19 L 1567.57 388.275 C 1598.99 357.267 1660.04 280.601 1702.12 276.364 z" fill="rgb(0,0,0)" transform="translate(0,0)"></path>
<path d="M 951.791 1339.26 C 1016.97 1335.05 1026.7 1381.56 1026.64 1435.13 L 1026.59 1512.91 C 1026.59 1563.27 1038.88 1623.77 973.904 1638.74 C 881.491 1651.9 896.116 1550.13 896.12 1492.92 L 895.952 1432.45 C 895.822 1387.07 897.257 1350.95 951.791 1339.26 z" fill="rgb(0,0,0)" transform="translate(0,0)"></path>
<path d="M 347.1 932.192 L 461.137 932.138 C 478.378 932.105 512.813 930.259 527.936 933.886 C 600.035 951.182 592.192 1061.02 514.084 1060.99 L 398.849 1061.06 C 378.175 1061.07 351.584 1062.7 331.805 1058.96 C 258.611 1045.1 263.446 937.587 347.1 932.192 z" fill="rgb(0,0,0)" transform="translate(0,0)"></path>
<path d="M 1400.45 932.192 C 1431.85 930.818 1580.88 926.044 1605.69 940.988 C 1658.82 972.986 1647.55 1048.23 1577.1 1060.99 C 1562.85 1060.42 1545.82 1060.94 1531.39 1060.97 L 1454.63 1060.98 C 1434.7 1061.03 1412.75 1062.11 1393.19 1058.86 C 1324.59 1047.44 1318.65 941.477 1400.45 932.192 z" fill="rgb(0,0,0)" transform="translate(0,0)"></path>
<path d="M 522.852 504.37 C 561.351 506.212 579.85 535.9 605.234 561.583 L 680.015 636.45 C 684.139 640.588 688.207 644.704 692.029 649.148 C 728.143 691.131 695.791 751.532 643.502 751.017 C 610.829 750.479 599.183 731.186 578.14 709.878 L 529.136 660.187 C 512.621 643.229 478.943 614.6 468.464 595.445 C 443.505 549.826 475.475 507.3 522.852 504.37 z" fill="rgb(0,0,0)" transform="translate(0,0)"></path>
<path d="M 959.72 346.447 C 992.551 344.572 1025.49 373.449 1025.99 406.954 C 1026.81 461.211 1027.12 516.057 1026.21 570.313 C 1025.76 597.761 994.35 620.602 967.715 622.155 C 932.415 622.429 900.714 603.216 898.335 565.004 C 894.936 510.391 894.12 452.336 898.559 397.828 C 901.054 367.199 931.53 348.848 959.72 346.447 z" fill="rgb(0,0,0)" transform="translate(0,0)"></path>
<metadata><recraft-signature>{"signed_by": "recraft", "signature_b64": "7gFxy3yT8FwktS1h2sXPRNSN9kAZ9dfut277oawq3ApK7/J7phdJSrQVzN3K78yGD0ObKB5Hf05hCUmYPsAUDw==", "signing_algo": "Ed25519", "generation_timestamp": 1772989061, "identifier": "9ab5f65b-f771-47bf-ba81-6be605884c71"}</recraft-signature></metadata></svg>