<svg xmlns="http://www.w3.org/2000/svg" height="512" preserveAspectRatio="none" style="display: block;" version="1.1" viewBox="0 0 2048 2048" width="512">
<path d="M 317.333 573.618 C 332.461 572.988 352.006 573.606 367.591 573.608 L 1735.91 573.618 C 1737.02 635.515 1735.91 701.473 1735.9 763.724 L 1735.95 1409.5 C 1735.95 1423.34 1741.46 1449.65 1728.25 1450.69 L 311.892 1450.69 C 311.379 1445.71 311.739 1432.57 311.762 1427.14 L 311.931 734.241 C 311.94 719.656 310.753 579.088 312.965 574.213 L 317.333 573.618 z M 829.997 1395.97 L 1584.78 1395.96 C 1614.82 1395.94 1651.3 1394.93 1681 1395.97 L 1681 1098 C 1592.08 1098.95 1501.15 1097.99 1412.1 1097.99 L 829.997 1098 L 829.997 1395.97 z M 374.342 1098 C 359.839 1098.01 365.9 1113.71 365.927 1129.53 L 365.996 1395.97 L 651.25 1395.97 L 653.891 1395.67 C 657.428 1389.92 655.929 1293.54 655.895 1279.06 L 656.001 1098 L 374.342 1098 z M 365.996 627.616 C 364.916 663.83 366.016 706.573 366.023 743.202 L 365.996 924.851 L 656.001 924.851 L 656.001 627.616 L 461.412 627.594 C 433.221 627.589 392.741 626.152 365.996 627.616 z M 837.849 627.616 C 823.711 628.463 829.926 648.881 829.937 664.181 L 829.997 924.851 L 1673.25 924.851 C 1687.32 924.875 1681.04 903.899 1681.04 888.818 L 1681 627.616 L 837.849 627.616 z" fill="rgb(0,0,0)" transform="translate(0,0)"></path>
<path d="M 858.478 978.047 L 1681 978.047 L 1681 1043.28 L 858.478 1043.28 L 858.478 978.047 z" fill="rgb(244,200,4)" transform="translate(0,0)"></path>
<path d="M 709.775 627.616 C 730.943 627.604 754.031 627.132 775.043 627.616 L 775.043 978.047 C 754.113 977.55 730.88 978.042 709.775 978.047 L 709.75 745.002 C 709.746 708.081 708.589 663.938 709.775 627.616 z" fill="rgb(244,200,4)" transform="translate(0,0)"></path>
<path d="M 709.775 978.047 C 730.88 978.042 754.113 977.55 775.043 978.047 C 801.882 978.67 831.488 978.214 858.478 978.047 L 858.478 1043.28 L 775.043 1043.28 L 775.043 1119.42 L 709.775 1119.42 C 710.559 1095.65 709.796 1067.41 709.775 1043.28 C 684.292 1043.24 640.691 1046.31 617.263 1043.28 L 617.263 978.047 C 626.577 978.66 639.673 978.149 649.301 978.129 L 709.775 978.047 z" fill="rgb(63,105,225)" transform="translate(0,0)"></path>
<path d="M 775.043 1119.42 L 775.043 1395.97 L 709.775 1395.97 L 709.775 1119.42 L 775.043 1119.42 z" fill="rgb(244,200,4)" transform="translate(0,0)"></path>
<path d="M 365.996 978.047 L 617.263 978.047 L 617.263 1043.28 C 534.499 1044.36 448.969 1043.29 365.996 1043.28 L 365.996 978.047 z" fill="rgb(244,200,4)" transform="translate(0,0)"></path>
<metadata><recraft-signature>{"signed_by": "recraft", "signature_b64": "Ys1oEG+CKV+hXa0MtXLBUQKl+DsFLDtuP2Os5QLyXyrP1vY4bbw+yIQFTbSpJY52darnesRYAXe5KY9Mm4u4Cw==", "signing_algo": "Ed25519", "generation_timestamp": 1772997313, "identifier": "4ffc7700-46bb-4977-a1db-d0f3b40e79ee"}</recraft-signature></metadata></svg>