<svg xmlns="http://www.w3.org/2000/svg" height="512" preserveAspectRatio="none" style="display: block;" version="1.1" viewBox="0 0 2048 2048" width="512">
<path d="M 1291.34 799.543 C 1483.31 788.999 1631.83 995.626 1553.27 1178.81 C 1538.21 1213.91 1517.67 1239.34 1491.95 1267.78 C 1610.57 1334.5 1700.65 1450.63 1702.07 1591.76 L 1702.08 1650 C 1702.59 1728.86 1699.16 1751.87 1613.84 1752.01 L 1310.79 1752 L 1017.36 1752.05 C 975.472 1752.1 924.489 1760.41 902.255 1714.88 C 883.235 1675.94 902.514 1531.9 916.398 1493.86 C 948.049 1402.94 1019.45 1310.58 1108.07 1267.78 C 1095.43 1252.34 1081.35 1236.05 1070.6 1219.34 C 957.044 1042.75 1079.07 813.875 1291.34 799.543 z M 1017.99 1624.98 C 1113.84 1626.53 1214.48 1624.98 1310.79 1624.98 L 1574.99 1624.98 C 1582.39 1590.29 1574.95 1559.48 1563.85 1526.47 C 1526.14 1414.4 1402.77 1334.84 1284.84 1344.02 C 1139.38 1359.09 1015.79 1475.07 1017.99 1624.98 z M 1314.44 1218.32 C 1395.55 1210.96 1455.31 1139.21 1447.88 1058.11 C 1440.46 977.008 1368.65 917.307 1287.56 924.806 C 1206.56 932.296 1146.95 1003.99 1154.37 1084.99 C 1161.79 1166 1233.43 1225.67 1314.44 1218.32 z" fill="rgb(0,0,0)" transform="translate(0,0)"></path>
<path d="M 394.59 296.988 C 450.877 296.026 510.254 296.97 566.732 296.974 L 1129.36 296.96 C 1173.72 296.977 1214.05 306.593 1214.04 363.208 L 1214.13 637.929 C 1214.43 770.632 1098.05 732.654 1090.72 677.277 C 1087.26 651.154 1088.97 617.748 1088.97 591.054 L 1089.02 419.249 L 559.258 419.281 C 531.713 419.47 497.182 420.281 469.998 419.249 L 469.998 649.5 L 469.998 1044.13 L 848.369 1044.05 C 871.641 1044.02 902.546 1039.78 924.201 1050.27 C 974.762 1074.74 965.747 1148.2 914.727 1164.87 C 901.199 1169.3 819.303 1166.85 798.981 1166.84 L 457.593 1166.89 C 414.081 1166.96 345.874 1171.83 346.286 1106.06 L 346.209 421.535 C 346.212 371.039 333.637 312.877 394.59 296.988 z" fill="rgb(0,0,0)" transform="translate(0,0)"></path>
<path d="M 760.786 619.331 C 859.82 604.668 954.896 694.922 957.673 794.467 C 958.297 816.855 960.717 846.486 952.464 867.176 C 940.588 896.948 900.688 915.837 870.952 901.086 C 798.595 868.071 874.704 777.969 797.751 746.771 C 788.36 743.848 778.333 741.573 768.583 743.949 C 692.857 759.904 739.58 835.658 711.69 879.726 C 682.069 926.894 608.774 905.383 603.597 853.221 C 591.792 734.271 633.448 639.027 760.786 619.331 z" fill="rgb(0,0,0)" transform="translate(0,0)"></path>
<metadata><recraft-signature>{"signed_by": "recraft", "signature_b64": "zTxi85AN4oRIrIiip0wzgCAyVsNDpvgPIksIXFVAnVSMxTDIUKoOZ8qeqKIaIrYzFZd7xT1bXHpE5yhEECeDAQ==", "signing_algo": "Ed25519", "generation_timestamp": 1772990147, "identifier": "c689562c-c9d6-4e9c-bc04-9291de5ea415"}</recraft-signature></metadata></svg>