<svg xmlns="http://www.w3.org/2000/svg" height="512" preserveAspectRatio="none" style="display: block;" version="1.1" viewBox="0 0 2048 2048" width="512">
<path d="M 802.375 534.448 L 1682.39 534.304 C 1718.1 534.078 1760.49 543.015 1761.17 589.543 L 1761.84 1371.14 C 1761.84 1411.27 1771.2 1462.05 1742.53 1492.13 C 1719.98 1515.79 1690.53 1511.1 1660.22 1511.07 L 1247.5 1510.99 L 377.189 1511.03 C 324.724 1511.01 286.797 1497.25 286.756 1437.5 L 286.712 622.265 C 286.506 535.617 316.372 534.468 387.735 534.422 L 802.375 534.448 z M 701.089 1074.01 C 700.014 1179.39 700.757 1287.53 701.089 1393.01 L 763.5 1393.01 L 1641.01 1393.01 L 1641.01 1074.01 C 1621.71 1072.91 1598.83 1074.15 1578.98 1074.01 L 701.089 1074.01 z M 406.999 650.957 L 406.999 957.771 L 583.008 957.771 L 582.998 752.405 C 582.99 721.974 581.623 680.5 583.008 650.957 L 465.872 650.934 C 448.043 650.92 424.264 650.069 406.999 650.957 z M 406.999 1074.01 L 406.999 1393.01 L 524.785 1392.95 C 542.028 1392.95 566.397 1392.16 583.008 1393.01 L 583.008 1074.01 L 406.999 1074.01 z M 1641.01 957.771 L 1641.04 752.698 C 1641.04 721.275 1642.25 681.375 1641.01 650.957 C 1615.87 652.45 1586.86 650.98 1561.11 650.969 L 779.157 650.943 C 754.113 650.94 725.864 650.254 701.089 650.957 C 698.931 748.595 708.469 862.697 701.089 957.771 L 1641.01 957.771 z" fill="rgb(0,0,0)" transform="translate(0,0)"></path>
<metadata><recraft-signature>{"signed_by": "recraft", "signature_b64": "wX4hzWEq0ogq6ztnHSc1UOkWjnrqgElONvgNh7RJqEIi9VMU3WaK2ghPY4tzYmqx6mY9RjU7zo/cib4mY94sCg==", "signing_algo": "Ed25519", "generation_timestamp": 1772996066, "identifier": "13f85ac5-aa13-451d-960b-b544b9a47cc5"}</recraft-signature></metadata></svg>