<svg xmlns="http://www.w3.org/2000/svg" height="512" preserveAspectRatio="none" style="display: block;" version="1.1" viewBox="0 0 2048 2048" width="512">
<path d="M 475.738 867.538 C 467.846 855.802 452.534 839.182 442.803 826.094 C 273.037 604.28 432.34 256.082 719.204 241.423 C 1054.72 224.278 1239.08 614.644 1012.22 867.538 C 1140.82 891.251 1239.63 1000.13 1239.68 1132.81 C 1239.71 1187.56 1245.95 1319.96 1234.79 1365.45 C 1196.78 1513.54 1060.16 1497.47 944.558 1497.62 C 887.56 1497.7 864.289 1438.3 899.388 1405.18 C 953.2 1354.4 1127.37 1452.31 1128.9 1307.9 L 1128.98 1196.52 C 1128.97 1158.33 1131.85 1122.17 1120.65 1085.16 C 1101.08 1020.53 1032.27 970.377 963.583 971.803 C 878.541 973.569 834.179 878.32 896.771 817.809 C 905.896 808.988 917.628 801.395 926.957 792.351 C 1026.42 695.923 1026.53 528.184 928.289 430.694 C 828.91 326.985 667.116 324.938 563.323 424.095 C 465.84 517.224 452.47 685.455 551.003 783.544 C 582.604 815.003 624.328 830.966 623.52 883.409 C 622.059 978.325 542.399 962.503 491.784 976.618 C 415.205 997.973 367.417 1060.1 366.801 1140.76 L 366.734 1258.12 C 366.769 1368.81 369.812 1390.93 485.341 1390.89 L 570.921 1390.84 C 576.966 1395.03 583.269 1397.79 589.543 1401.54 C 632.126 1427.01 616.478 1469.63 584.749 1495.87 C 570.566 1498.44 551.973 1497.76 537.245 1497.69 L 477.948 1497.5 C 422.399 1497.54 391.573 1504.6 342.128 1472.43 C 267.477 1424.16 252.486 1353.04 256.508 1269.93 C 258.84 1221.73 254.326 1169.6 256.919 1120.83 C 263.51 996.908 354.657 892.22 475.738 867.538 z" fill="rgb(28,28,28)" transform="translate(0,0)"></path>
<path d="M 1596.92 1263 C 1601.05 1262.55 1613.32 1262.97 1618.2 1262.97 L 1710.01 1262.84 C 1719.3 1262.73 1730.79 1261.94 1739.97 1262.99 C 1780.52 1267.26 1805.02 1311.03 1785.88 1347.38 C 1755.51 1401.74 1641.22 1365.73 1585.23 1380.15 C 1548.65 1389.57 1537.21 1448.17 1569.7 1472.43 C 1595.47 1491.68 1620.38 1482.76 1650.61 1485.4 C 1819.58 1505.46 1846.76 1734.79 1684.76 1796.81 C 1640.04 1812.36 1627.6 1803.03 1585.36 1806.5 C 1544.31 1809.88 1505.72 1808.78 1494.95 1760.04 C 1492.05 1746.95 1497.18 1728.95 1505.56 1717.86 C 1530.55 1684.81 1597.12 1700.29 1634.79 1696.49 C 1694.29 1690.49 1697.26 1607.24 1644.59 1594.4 C 1622.41 1590.52 1601.41 1592.16 1578.73 1589.41 C 1404.23 1568.29 1379.74 1296.97 1596.92 1263 z" fill="rgb(28,28,28)" transform="translate(0,0)"></path>
<path d="M 1173.85 1520.36 C 1225.42 1514.19 1234.72 1563.92 1234.86 1603.15 L 1234.63 1659.2 C 1234.49 1670.63 1233.87 1684.2 1234.69 1695.46 L 1234.81 1697.02 L 1330.2 1697.13 C 1352.14 1697.18 1378.85 1693.18 1396.69 1707.24 C 1438.31 1740.02 1418.25 1800.84 1367.25 1806.58 C 1355.7 1807.16 1339.25 1806.63 1327.3 1806.63 L 1182.3 1806.72 C 1124.19 1806.42 1122.43 1758.48 1122.4 1713.59 L 1122.41 1646.86 C 1122.39 1596.63 1106.8 1527.83 1173.85 1520.36 z" fill="rgb(28,28,28)" transform="translate(0,0)"></path>
<path d="M 570.921 1390.84 L 709.157 1390.78 C 730.953 1390.77 753.803 1389.78 775.367 1392.15 C 825.619 1402.76 839.073 1495.52 751.789 1495.84 C 699.866 1496.04 635.213 1499.14 584.749 1495.87 C 616.478 1469.63 632.126 1427.01 589.543 1401.54 C 583.269 1397.79 576.966 1395.03 570.921 1390.84 z" fill="rgb(3,94,236)" transform="translate(0,0)"></path>
<metadata><recraft-signature>{"signed_by": "recraft", "signature_b64": "5qoZ+YHPpgJKC3NLI6XBLYlOT37Bc4ZQJaNODbJFftzjEwMC0q9veApBwavWbUOwvmPaipyA+klTJ0upbL7pBg==", "signing_algo": "Ed25519", "generation_timestamp": 1772990168, "identifier": "88cadd83-b92a-4b57-a5ec-737edee07f70"}</recraft-signature></metadata></svg>