<svg xmlns="http://www.w3.org/2000/svg" height="512" preserveAspectRatio="none" style="display: block;" version="1.1" viewBox="0 0 2048 2048" width="512">
<path d="M 1004.1 257.009 C 1187.93 248.305 1327.1 331.938 1441.15 467.294 C 1473.59 441.093 1500.95 390.022 1544.7 384.987 C 1582.4 380.651 1619.25 413.309 1622.35 450.648 C 1626 494.67 1587.2 515.571 1561.63 545.123 C 1588.57 543.039 1617.98 540.669 1640.75 558.81 C 1672.71 584.282 1675.64 630.161 1650.08 661.602 C 1623.55 694.232 1590.73 685.69 1554.15 689.417 C 1566.11 734.598 1573.69 780.106 1576.54 826.691 C 1583.14 934.893 1588.63 998.865 1634.69 1104.42 C 1644.43 1127.2 1659.37 1148.71 1667.39 1172.1 C 1687.97 1232.16 1691.48 1295.44 1697.72 1357.99 L 1508.02 1357.99 C 1498.85 1383.72 1492.95 1409.86 1482.82 1435.86 C 1409.6 1623.76 1253.81 1780.56 1043.25 1790 C 969.679 1790.34 921.144 1783.28 852.497 1754.03 C 687.618 1683.78 582.997 1525.97 537.243 1357.99 C 475.097 1357.99 411.78 1358.65 349.713 1357.99 C 351.319 1296.06 362.434 1219.46 382.931 1160.56 C 390.351 1141.74 402.252 1125.09 410.503 1106.62 C 440.538 1039.38 463.399 965.885 469.45 892.24 C 476.065 811.742 476.411 769.609 498.12 685.996 L 496.842 686.046 C 465.967 687.135 426.967 690.04 403.477 667.114 C 375.03 639.35 374.583 593.228 402.151 564.69 C 424.331 541.73 452.421 545.128 481.478 545.123 C 455.346 517.117 419.84 496.839 423.332 453.517 C 426.75 411.122 461.785 381.634 504.073 385.481 C 536.069 388.392 585.858 441.422 607.49 467.294 C 613.021 455.057 615.805 451.948 624.791 441.532 C 726.369 323.792 852.982 268.623 1004.1 257.009 z M 613.663 818.986 L 844.818 818.974 C 881.024 818.968 923.683 817.858 959.49 818.986 L 959.568 903.411 C 959.596 914.201 959.251 925.878 959.736 936.522 C 966.441 1071.83 785.762 1110.43 734.301 987.819 C 730.863 979.626 730.323 968.903 726.123 960.971 C 724.272 957.868 617.759 959.398 607.49 959.495 C 599.889 1014.38 572.577 1092.59 551.052 1142.18 C 540.256 1167.05 523.203 1192.63 516.26 1218.44 L 614.981 1218.4 C 627.424 1218.39 651.712 1217.46 662.974 1218.44 C 675.216 1360.12 717.472 1474.98 829.89 1571.42 C 961.996 1684.74 1131.8 1668.46 1249.24 1544.33 C 1254.39 1538.88 1267.71 1525.39 1271.22 1519.49 C 1335.05 1441.01 1386.87 1320.88 1387.14 1218.44 L 1530.03 1218.44 C 1491.4 1130.05 1460.87 1057.56 1444.52 959.495 C 1422.81 958.17 1341.88 956.44 1320.59 959.495 C 1282.52 1110.73 1106.65 1079.65 1091.32 967.075 C 1085.3 922.894 1090.81 864.793 1089.34 818.986 L 1433.7 818.986 C 1431.58 773.132 1420.61 728.683 1403.87 685.996 C 1350.6 685.366 1296.11 686 1242.72 686.003 L 734.914 685.991 C 709.181 685.988 669.7 684.611 645.245 685.996 C 629.779 716.215 617.657 786.235 613.663 818.986 z M 1004.1 397.019 C 890.801 407.505 795.238 452.876 723.597 545.123 L 1047.25 545.123 L 1324.32 545.123 C 1259.65 447.756 1117.35 392.079 1004.1 397.019 z" fill="rgb(0,0,0)" transform="translate(0,0)"></path>
<metadata><recraft-signature>{"signed_by": "recraft", "signature_b64": "LMpd4tOXv0+KKjB1eSv1OXRe+uYA3JLTQcc1+6BGpVvOaLcnDHAcl2XcGnmzo32Vhr+uVJ+SRO9Tcxg4IyMJAA==", "signing_algo": "Ed25519", "generation_timestamp": 1772996129, "identifier": "d20ac9f8-df32-483e-afe4-2f57bd47666d"}</recraft-signature></metadata></svg>