<svg xmlns="http://www.w3.org/2000/svg" height="512" preserveAspectRatio="none" style="display: block;" version="1.1" viewBox="0 0 2048 2048" width="512">
<path d="M 1024.65 207.465 C 1028.03 208.066 1075.45 267.523 1032.87 273.722 C 1032.82 289.462 1033.16 304.937 1032.87 320.727 C 1045.98 324.565 1047.69 325.122 1058.56 333.463 C 1066.37 328.906 1074.51 324.415 1081.73 319.015 C 1088.91 307.667 1092.02 295.409 1096.25 282.621 C 1067.09 269.711 1096.55 241.881 1113.77 231.717 C 1118.43 239.929 1130.99 268.672 1127.26 278.315 C 1121.14 294.17 1108.65 262.614 1100.83 320.727 C 1108.29 328.506 1112.93 332.846 1118.83 341.932 C 1134.31 337.567 1150.26 337.549 1155.55 320.727 C 1134.05 303.879 1144.49 298.18 1161.45 282.233 C 1190.68 249.673 1184.29 292.084 1186.71 314.353 C 1187.9 325.335 1177.86 325.262 1170.29 325.065 C 1165.92 348.37 1155.54 373.087 1150.8 397.466 C 1170.25 409.492 1164.8 414.187 1150.87 423.161 C 1149.85 445.694 1156.41 478.897 1155.55 507.699 C 1173.6 531.358 1163.67 551.283 1155.55 576.244 C 1155.14 589.098 1179.94 724.607 1188.07 733.35 C 1224.75 772.791 1256 813.683 1285.78 858.235 C 1310.93 822.655 1347.25 775.257 1383.17 750.572 C 1382.67 727.483 1378.83 722.121 1396.55 704.939 C 1350.58 692.275 1347.52 686.452 1402.98 685.001 L 1402.93 595.787 C 1402.74 555.386 1390.26 538.783 1428.26 542.192 C 1387.69 497.93 1406.13 509.027 1425.71 459.628 C 1427.8 454.344 1425.12 442.672 1429.53 437.661 L 1432.08 437.52 C 1448.26 447.077 1465.87 500.502 1449.38 519.431 C 1440.01 530.192 1438.23 528.769 1432.74 542.192 C 1440.55 541.793 1453.56 539.92 1459.47 544.559 C 1462.05 551.612 1460.42 671.5 1460.44 685.001 C 1510.49 684.972 1525.48 691.37 1469.35 704.939 C 1497.11 716.729 1450.46 761.864 1440.52 773.131 C 1453.66 805.86 1448.24 812.577 1430.24 840.96 C 1403.6 882.936 1351.38 962.93 1302.59 982.078 C 1285.48 988.281 1267.31 979.342 1251.95 972.235 C 1259.24 1012.16 1258.61 1049.72 1237.43 1085.22 C 1244.95 1048.8 1244.48 1035.27 1231.17 999.639 C 1235.15 1036.49 1226.65 1086.9 1202.35 1115.7 C 1204.48 1132.47 1207.98 1149.09 1210.48 1165.82 C 1234.44 1326.38 1223.3 1502.33 1273.46 1657.18 C 1276.33 1666.01 1288.65 1686.86 1283.92 1695.67 C 1270.77 1720.14 1154.77 1734.11 1126.15 1741.76 L 1124.29 1742.27 C 1125.7 1767.17 1124.31 1807.37 1124.29 1833.1 C 1108.63 1839.37 1064.48 1843.63 1052.24 1832.21 C 1049.49 1823.45 1050.94 1759.48 1050.97 1745.45 C 1044.93 1745.31 1038.9 1745.4 1032.87 1745.45 L 1001 1745.45 C 1001.07 1771.31 1002.62 1805.03 999.464 1829.86 C 997.719 1843.58 939.243 1838.57 927.009 1833.1 C 925.881 1823.03 926.699 1806.78 926.838 1796.27 L 927.009 1742.27 C 882.887 1728.37 789.513 1728.43 758.456 1690.44 C 793.866 1574.48 809.572 1499.6 820.524 1376.75 L 832.665 1235.82 C 836.134 1196.95 839.387 1157.34 847.323 1119.05 C 817.107 1084.97 815.938 1043.27 816.028 999.639 C 802.569 1029.31 802.349 1047 809.478 1078.06 L 808.614 1078.61 C 791.676 1064.66 792.238 991.986 797.385 972.235 C 783.858 978.188 765.265 986.282 749.852 980.867 C 705.828 965.401 589.01 837.174 604.373 781.196 C 593.586 762.504 577.451 746.184 568.276 727.027 C 569.233 717.848 568.82 708.198 568.276 699.002 C 515.343 698.026 553.882 686.927 586.146 687.001 L 586.134 592.518 C 586.105 577.837 585.276 559.724 586.146 545.569 C 595.15 543.123 602.322 542.867 611.611 542.192 C 606.627 530.062 596.972 519.357 593.701 508.188 C 589.131 492.585 606.864 475.947 612.044 462.346 C 614.313 456.387 614.669 444.047 617.745 439.032 C 631.143 437.899 642.521 477.013 643.91 488.45 C 647.399 517.186 626.66 523.577 611.611 542.192 C 621.076 543.204 636.592 541.554 643.509 545.63 C 646.628 553.213 645 671.004 644.998 687.001 C 695.323 686.291 688.071 703.408 659.223 699.002 C 657.252 706.131 655.902 710.903 653.172 717.745 C 659.773 729.441 664.888 737.626 668.867 750.572 C 688.642 761.851 741.659 835.597 758.456 858.235 L 758.902 857.074 C 772.342 822.583 812.12 780.642 838.139 753.903 C 872.878 718.202 863.16 733.788 875.318 681.366 C 883.109 647.777 889.497 612.859 900.198 580.131 C 865.461 530.449 893.948 524.168 890.865 479.587 C 890.136 469.045 897.685 429.211 894.364 422.583 C 885.96 414.573 870.039 418.237 900.198 393.83 C 893.537 371.892 889.383 362.867 874.549 345.567 C 878.518 343.285 881.88 341.027 885.674 338.502 L 880.308 325.065 C 875.927 325.644 864.918 327.366 862.93 321.642 C 860.403 314.368 864.48 276.9 870.214 274.199 C 873.1 274.519 918.876 300.091 893.879 320.727 C 896.127 326.523 896.735 328.096 900.198 333.463 C 909.754 334.963 919.53 336.797 929.075 338.502 C 937.111 334.516 941.627 331.287 948.103 325.065 C 945.416 312.025 941.028 300.879 938.703 287.142 C 903.127 280.859 938.957 231.921 939.858 231.562 C 949.846 236.052 971.582 269.149 965.555 279.074 C 964.29 281.157 954.067 285.807 951.272 287.142 L 964.879 319.015 C 977.416 325.108 987.914 328.783 1001 333.463 C 1009.22 327.468 1012.31 324.842 1021.64 320.727 C 1022.06 305.558 1021.35 289.363 1021.64 273.722 C 1017.51 273.446 1009.4 273.217 1006.34 271.36 C 991.497 262.357 1014.46 216.161 1024.65 207.465 z M 858.321 915.366 C 858.732 910.168 858.95 874.918 869.931 882.147 C 870.296 883.043 862.873 1068.34 862.157 1083.82 C 860.528 1119.1 846.68 1158.37 845.616 1194.5 C 835.285 1338.63 827.813 1483.85 793.025 1624.65 C 876.931 1663.4 1063.56 1660.29 1150.8 1649.35 C 1185.82 1643.6 1218.95 1637.94 1251.95 1624.65 C 1219.23 1484.1 1215.74 1338.6 1204.93 1195.28 C 1202.14 1158.28 1189.03 1120.67 1186.77 1084.66 C 1183 1024.6 1184.99 963.467 1179.52 903.312 C 1178.92 896.736 1174.89 881.758 1182.62 880.945 C 1191.09 886.065 1188.95 905.286 1191.19 915.366 C 1212.93 932.643 1260.52 972.463 1288.21 973.071 C 1337.35 974.15 1417.91 843.21 1440.52 803.049 C 1431.02 769.074 1395.73 746.2 1369.32 773.584 C 1338.53 805.511 1311.74 840.85 1285.78 876.63 L 1284.68 875.178 C 1225.54 796.38 1209.04 747.353 1108.68 699.002 C 1078.8 768.795 975.808 766.518 942.055 699.915 C 941.681 699.178 939.378 698.999 938.703 699.002 C 861.835 734.873 797.382 801.766 758.456 876.63 C 744.51 854.545 688.282 781.081 668.867 761.422 C 650.041 758.595 612.332 770.54 612.259 790.534 C 614.712 836.107 710.43 964.312 756.981 970.89 C 783.135 974.586 840.321 934.274 858.321 915.366 z M 1029.4 653.34 C 1094.94 650.411 1133.21 582.022 1124.29 521.529 C 1065.2 503.396 1041.77 487.664 1021.64 429.626 C 995.494 479.27 983.604 502.288 927.009 518.062 C 907.754 582.815 959.255 655.5 1029.4 653.34 z M 1053.05 717.745 C 1068.13 713.582 1070.72 710.155 1081.73 699.002 C 1062.63 688.043 1058.07 681.359 1053.05 660.215 C 1029.22 665.221 1018.04 663.599 993.706 660.215 C 986.643 679.682 983.443 684.183 968.793 699.002 C 988.009 721.618 1027.04 736.814 1053.05 717.745 z M 936.527 379.066 L 939.336 378.092 C 940.934 373.082 937.731 360.945 936.527 355.612 C 929.582 353.258 901.067 345.985 893.879 345.567 C 899.686 361.463 907.206 374.821 912.973 390.404 C 922.317 384.761 926.041 382.532 936.527 379.066 z M 634.125 553.993 L 597.007 553.993 C 597.058 595.576 598.408 646.096 597.007 687.001 L 634.125 687.001 L 634.125 553.993 z M 1122.26 381.804 C 1128.7 384.856 1131.64 387.524 1137 390.404 C 1142.64 382.892 1153.98 353.729 1150.8 345.567 C 1139.81 348.937 1129.39 351.183 1118.83 355.612 C 1116.42 363.466 1114.14 370.783 1113.77 379.066 L 1122.26 381.804 z M 1449.99 553.993 C 1444.53 553.892 1438.11 553.579 1432.74 553.993 C 1426.09 554.407 1420.63 554.202 1413.98 553.993 C 1412.56 594.289 1414 643.856 1413.98 685.001 L 1432.74 685.001 L 1449.99 685.001 L 1449.99 553.993 z M 611.611 773.131 C 616.932 767.81 619.011 765.574 625.316 761.422 C 628.312 760.123 631.44 758.952 634.125 757.134 C 630.247 748.797 626.264 740.422 622.64 731.979 C 615.826 732.032 588.734 732.784 583.686 731.979 C 592.565 747.039 602.577 754.82 611.611 773.131 z M 1053.05 368.791 C 1053.09 361.053 1053.15 353.302 1053.05 345.567 C 1046.58 340.102 1043.41 337.344 1035.83 333.463 C 1035.82 345.109 1035.65 357.185 1035.83 368.791 C 1040.7 369.098 1048.35 369.733 1053.05 368.791 z M 1081.73 333.463 C 1061.88 342.67 1058.93 369.531 1066.58 368.791 C 1084.93 373.271 1085.91 344.818 1084.1 334.352 L 1081.73 333.463 z M 1096.25 338.502 C 1093.04 350.183 1090.3 362.162 1088.1 374.078 C 1091.56 374.004 1097.6 373.691 1100.83 374.078 L 1102.54 373.53 C 1105.19 363.374 1104.92 355.404 1108.68 345.567 C 1104.48 342.347 1101.37 340.198 1096.25 338.502 z M 993.706 368.791 C 994.394 360.403 995.134 353.967 993.706 345.567 C 984.862 340.673 977.968 337.546 968.793 333.463 C 971.125 344.672 976.139 357.749 979.89 368.791 L 993.706 368.791 z M 956.191 374.078 C 972.715 370.876 964.585 352.051 957.579 338.672 L 956.191 338.502 C 952.641 340.756 948.655 343.153 945.263 345.567 C 947.532 350.99 949.37 375.807 956.191 374.078 z M 938.703 1742.27 C 938.633 1747.19 938.377 1753.26 938.703 1758.07 C 956.423 1762.07 971.762 1763.32 989.965 1761.16 L 989.965 1745.45 C 973.849 1744.49 954.475 1743.92 938.703 1742.27 z M 634.125 731.979 C 637.222 738.966 639.497 745.101 644.998 750.572 C 649.663 750.567 654.585 750.474 659.223 750.572 C 655.521 743.008 653.466 737.133 646.658 732.148 L 644.998 731.979 C 639.495 732.909 639.252 732.476 634.125 731.979 z M 1113.77 1758.07 C 1113.81 1754.28 1115.01 1744.6 1113.77 1742.27 L 1063.04 1745.45 C 1062.9 1749.98 1060.69 1760.05 1066.58 1761.16 C 1080.76 1763.73 1099.79 1761.24 1113.77 1758.07 z M 880.308 297.464 C 877.335 309.713 876.183 314.724 890.54 310.693 C 890.097 308.85 881.818 298.937 880.308 297.464 z M 1024.65 231.717 C 1017.84 245.883 1006.62 261.923 1029.4 263.263 C 1046.02 259.729 1030.81 239.847 1024.65 231.717 z M 1005.52 345.567 C 1005.54 349.47 1004.01 367.759 1008.12 368.791 L 1024.65 368.791 C 1024.65 363.13 1025.35 337.114 1022.77 333.795 L 1021.64 333.463 C 1014.97 337.022 1010.96 340.302 1005.52 345.567 z M 945.263 258.578 C 939.586 269.506 935.798 275.509 951.272 273.722 C 952.643 269.446 948.101 261.673 945.263 258.578 z M 1396.55 717.745 C 1389.03 725.784 1392.43 754.967 1396.55 750.572 C 1400.69 743.486 1401.91 740.475 1402.98 731.979 C 1402.48 726.459 1402.5 722.71 1398.66 718.618 L 1396.55 717.745 z M 1108.68 273.722 C 1116.67 271.037 1112.77 265.492 1109.76 259.214 L 1108.68 258.578 C 1100.72 265.647 1094.62 270.945 1108.68 273.722 z M 1170.29 297.464 C 1166.12 300.217 1162.58 302.098 1159.47 305.973 L 1159.07 308.426 C 1160.84 310.28 1160.02 309.911 1162.22 310.693 C 1173.38 312.73 1174.58 308.426 1170.29 297.464 z M 1465.68 713.833 C 1450.08 737.982 1435.35 723.591 1420.28 757.134 L 1428.26 761.422 L 1435.42 768.309 C 1440.56 759.566 1473.72 722.395 1465.68 713.833 z M 1137 518.062 C 1137.13 539.565 1136.64 554.857 1132.11 576.244 C 1136.79 573.407 1139.87 571.774 1143.97 568.064 C 1155.48 555.019 1166.45 516.616 1139 517.973 L 1137 518.062 z M 900.198 513.804 C 884.491 531.831 894.278 563.697 912.973 576.244 L 915.487 577.094 L 916.497 575.933 C 914.387 557.6 914.365 539.746 912.973 521.529 C 908.373 518.343 905.393 516.078 900.198 513.804 z" fill="rgb(0,0,0)" transform="translate(0,0)"></path>
<path d="M 989.965 597.81 C 995.201 599.92 997.753 609.986 1010 615.022 C 1039.65 627.219 1070.9 580.713 1063.04 608.321 C 1019.67 647.823 975.88 612.849 989.965 597.81 z" fill="rgb(0,0,0)" transform="translate(0,0)"></path>
<path d="M 1066.58 530.244 C 1084.33 526.873 1090.8 543.339 1077.18 553.993 C 1060.41 560.327 1055.38 540.063 1066.58 530.244 z" fill="rgb(0,0,0)" transform="translate(0,0)"></path>
<path d="M 976.475 530.387 C 983.049 529.493 989.138 533.999 990.206 540.548 C 991.274 547.096 986.932 553.303 980.414 554.544 C 976.041 555.378 971.561 553.771 968.713 550.35 C 965.865 546.928 965.099 542.231 966.712 538.081 C 968.325 533.932 972.064 530.986 976.475 530.387 z" fill="rgb(0,0,0)" transform="translate(0,0)"></path>
<path d="M 1435.42 474.68 C 1449.6 492.555 1442.03 514.87 1428.26 530.244 C 1408.91 511.822 1423.84 492.14 1435.42 474.68 z" fill="rgb(205,180,25)" transform="translate(0,0)"></path>
<path d="M 622.64 479.799 C 632.424 492.367 625.971 525.409 611.611 530.244 C 599.442 500.483 607.479 504.65 622.64 479.799 z" fill="rgb(205,180,25)" transform="translate(0,0)"></path>
<path d="M 1005.52 379.066 C 1026.3 378.86 1130.94 382.309 1143.58 402.462 C 1119.97 399.788 1091.15 384.973 1053.05 381.804 C 1003.08 378.254 956.746 386.361 909.386 401.776 C 928.892 386.702 981.024 381.107 1005.52 379.066 z" fill="rgb(222,222,227)" transform="translate(0,0)"></path>
<metadata><recraft-signature>{"signed_by": "recraft", "signature_b64": "9qDnxsFFO8pOR4OSB83fLs7PgJbLfXsvWgGM2jNkY+J55SoEWVuT0jfin89qnAAHALZX7XkuCHnVaiXVKuCDDQ==", "signing_algo": "Ed25519", "generation_timestamp": 1772988329, "identifier": "aca97ebc-8eb0-4299-9a57-f82b2371f2ac"}</recraft-signature></metadata></svg>