<svg xmlns="http://www.w3.org/2000/svg" height="512" preserveAspectRatio="none" style="display: block;" version="1.1" viewBox="0 0 2048 2048" width="512">
<path d="M 468.728 353.042 C 469.091 353.015 469.454 352.988 469.817 352.961 L 1534.47 352.986 C 1631.84 352.989 1723.12 394.762 1726.01 507.119 C 1726.81 538.409 1726.81 570.237 1726.8 602.03 L 1726.84 1621.58 C 1727.03 1721.63 1714 1735.08 1615 1730.9 C 1545.11 1727.94 1475.07 1729.04 1405.09 1729.04 L 938.763 1729.04 C 862.075 1729.05 783.198 1728.11 706.676 1729.05 L 706.676 1600.05 L 1527.5 1600.05 L 1599.99 1600.05 L 1600.07 551.353 C 1600.19 521.266 1605.64 479.39 1560.45 479.402 L 532.906 479.378 C 462.704 478.974 446.933 482.969 446.938 557.019 L 446.973 1407.98 L 320.215 1407.98 C 319.492 1389.35 320.194 1365.13 320.196 1346.12 L 320.196 540.928 C 320.239 441.607 359.764 368.325 468.728 353.042 z" fill="rgb(26,26,26)" transform="translate(0,0)"></path>
<metadata><recraft-signature>{"signed_by": "recraft", "signature_b64": "qlSUEALKlgPS3tLrYOjaOfvlakw5qk70cOKHck6WW37fUE0Q5sNdbvf3QW45YYuUtbASSQ2VFUADz5tKfNWJDg==", "signing_algo": "Ed25519", "generation_timestamp": 1772989894, "identifier": "e1d3ba31-eac7-42c5-93ba-1faf88947762"}</recraft-signature></metadata></svg>