<svg xmlns="http://www.w3.org/2000/svg" height="512" preserveAspectRatio="none" style="display: block;" version="1.1" viewBox="0 0 2048 2048" width="512">
<path d="M 1501.85 1137 C 1618.45 1124.68 1652.78 1210.8 1660.38 1310.6 C 1667.97 1410.37 1676.38 1605.68 1543.23 1623.04 C 1374.47 1648.96 1376.91 1453.13 1380.98 1336.06 C 1385.42 1245.85 1398.5 1153.06 1501.85 1137 z M 1530.01 1557.53 C 1562.63 1548.61 1578.3 1520.6 1583.77 1488.85 C 1594.33 1427.51 1613.19 1190.8 1515.49 1200.26 C 1430.13 1215.65 1447.35 1432.5 1458.46 1490.76 C 1466.59 1533.36 1483.16 1561.76 1530.01 1557.53 z" fill="rgb(0,0,0)" transform="translate(0,0)"></path>
<path d="M 445.903 1137 C 493.684 1139.58 496.061 1181.59 511.369 1220.02 C 532.141 1272.17 550.06 1325.64 570.704 1377.81 L 629.798 1217.47 C 635.574 1202.22 641.883 1186.05 647.388 1170.36 C 664.124 1122.65 720.469 1136.47 724.849 1167.35 C 728.495 1193.05 729.193 1220.77 731.166 1246.61 L 752.525 1530.41 C 754.04 1550.41 756.696 1573.89 757.003 1592.93 C 757.653 1633.18 689.282 1635.29 686.294 1594.32 C 680.72 1517.86 678.354 1440.69 672.02 1364.25 C 670.722 1343.63 669.537 1324.84 667.404 1304.24 L 619.877 1437.74 C 613.316 1455.99 607.769 1476.53 599.737 1492.68 C 589.414 1513.44 549.209 1511.54 541.442 1491.35 C 518.162 1430.85 500.364 1362.58 473.345 1304.24 C 472.829 1325.53 470.617 1349.16 469.059 1370.54 L 456.813 1564.35 C 455.632 1586.51 458.154 1612.64 434.222 1623.71 C 415.715 1632.27 395.588 1623.05 387.446 1604.92 C 380.332 1589.09 390.655 1506.25 392.065 1486.44 L 409.239 1235.75 C 412.012 1193.86 403.562 1156.12 445.903 1137 z" fill="rgb(0,0,0)" transform="translate(0,0)"></path>
<path d="M 1622.08 735.373 C 1621.89 642.085 1622.09 548.788 1622.1 455.501 C 1622.19 410.423 1690.16 409.132 1691.56 455.546 C 1692.38 483.068 1691.98 510.526 1691.98 537.961 L 1692 827.519 C 1692.03 871.789 1705.08 927.942 1640.24 919.199 C 1620.7 910.963 1618.11 896.527 1610.01 879.104 L 1502.42 653.347 C 1491.45 631.035 1481.41 609.11 1469.54 587.206 C 1478.45 656.045 1475.75 730.331 1475.75 799.612 L 1475.82 857.087 C 1475.87 868.179 1475.96 878.856 1475.5 890.06 C 1473.88 929.296 1409.22 927.769 1405.47 893.72 C 1403.31 874.149 1404.65 846.302 1404.67 825.913 L 1404.69 545.558 C 1404.7 505.095 1389.96 433.567 1434.31 421.021 C 1475.9 420.322 1485.19 464.607 1502.25 498.811 L 1602.38 695.97 C 1609.27 709.563 1616.38 721.186 1622.08 735.373 z" fill="rgb(0,0,0)" transform="translate(0,0)"></path>
<path d="M 704.756 421.021 C 755.82 410.571 744.208 498.282 744.204 526.26 L 744.566 701.266 C 744.735 728.833 742.834 756.926 745.837 784.261 C 757.147 881.774 875.179 878.225 881.232 770.262 C 882.951 739.582 882.129 706.872 882.129 675.719 L 882.144 502.487 C 882.156 482.582 878.155 450.768 890.201 433.599 C 905.474 411.831 948 418.798 952.883 445.556 C 956.903 467.581 953.768 495.145 954.799 518.75 L 954.837 669.826 C 954.89 753.345 964.054 875.764 868.684 913.075 C 822.938 930.973 766.435 925.203 726.912 895.001 C 667.678 849.737 671.94 779.293 672.009 712.861 L 671.97 502.39 C 671.957 472.229 662.865 425.155 704.756 421.021 z" fill="rgb(0,0,0)" transform="translate(0,0)"></path>
<path d="M 1176.25 421.021 C 1273.6 405.916 1368.6 528.736 1287.67 541.731 C 1248.27 547.805 1242.98 475.689 1173.53 488.052 C 1075.7 505.471 1084.51 719.113 1109.83 788.235 C 1133.24 852.163 1216.01 882.308 1249 829.556 C 1248.94 802.424 1251.91 760.66 1249 735.373 C 1227.48 735.585 1171.37 741.476 1158.61 721.709 C 1147.04 703.785 1153.12 684.668 1170.01 672.692 C 1181.43 668.364 1222.95 669.015 1237.59 670.11 C 1266.98 672.307 1320.75 656.723 1321.32 700.534 C 1322.05 756.696 1331.97 839.066 1294.91 880.828 C 1243.54 938.72 1146.36 934.188 1090.86 885.298 C 975.49 783.688 999.194 429.712 1176.25 421.021 z" fill="rgb(0,0,0)" transform="translate(0,0)"></path>
<path d="M 386.203 421.021 C 432.158 419.452 428.907 454.759 429.113 489.637 L 429.014 853.027 L 582.732 853.236 C 623.772 853.159 630.638 907.55 591.989 919.199 L 459.444 919.224 C 364.583 919.292 358.691 937.005 358.959 841.009 L 359.007 537.715 C 359.003 500.667 346.064 433.554 386.203 421.021 z" fill="rgb(0,0,0)" transform="translate(0,0)"></path>
<path d="M 1206.3 1137 C 1256.82 1135.49 1249.04 1180.42 1249.04 1215.6 L 1249 1557.53 C 1272.6 1558.39 1331.9 1552.7 1349.04 1563.46 C 1374.55 1579.47 1365.5 1617.51 1337.25 1623.04 C 1311.82 1623.68 1286.26 1623 1260.81 1623.07 C 1236.49 1623.14 1192.8 1631.97 1182.44 1602.11 C 1177.56 1588.04 1180.12 1444.63 1180.13 1419.67 L 1180.08 1268.64 C 1180.07 1232.16 1167.03 1150.65 1206.3 1137 z" fill="rgb(0,0,0)" transform="translate(0,0)"></path>
<path d="M 1032.1 1137 C 1086.19 1134.44 1075.25 1186.54 1075.24 1223.67 L 1075.36 1589.89 C 1075.28 1607.52 1067.19 1618.69 1050.03 1623.04 C 1022.31 1633.34 1006.15 1610.22 1006.01 1584.52 L 1005.91 1174.91 C 1005.99 1154.99 1013.65 1144.86 1032.1 1137 z" fill="rgb(0,0,0)" transform="translate(0,0)"></path>
<path d="M 874.537 1281.38 C 922.912 1280.8 913.086 1322.45 913.065 1355.76 L 913.172 1545.32 C 913.138 1573.75 921.994 1619.81 882.1 1623.04 C 839.675 1629.04 842.945 1586.91 842.959 1557.1 L 842.963 1328.62 C 843.049 1300.11 841.945 1285.57 874.537 1281.38 z" fill="rgb(0,0,0)" transform="translate(0,0)"></path>
<path d="M 874.537 1137 C 910.498 1141.63 913.272 1159.43 913.366 1189.3 C 913.447 1214.88 917.396 1233.51 886.019 1239.85 C 844.443 1242.19 841.339 1225.43 841.324 1189.63 C 841.311 1158.54 842.108 1147.02 874.537 1137 z" fill="rgb(0,0,0)" transform="translate(0,0)"></path>
<metadata><recraft-signature>{"signed_by": "recraft", "signature_b64": "0mjgavzlFvFe9EdQi216mBKoeS6t1/f4R25BhaRoEyMX59Chlg2p7bFsbYpr8Q60KIyX1bON3iYJqVL0lByJDQ==", "signing_algo": "Ed25519", "generation_timestamp": 1772998515, "identifier": "eeac5b4f-8b8f-4380-84df-76beaa00f0dc"}</recraft-signature></metadata></svg>