<svg xmlns="http://www.w3.org/2000/svg" height="512" preserveAspectRatio="none" style="display: block;" version="1.1" viewBox="0 0 2048 2048" width="512">
<defs>
	<linearGradient gradientUnits="userSpaceOnUse" id="Gradient1" x1="1001.15" x2="989.628" y1="1069.02" y2="939.746">
		<stop class="stop0" offset="0" stop-color="rgb(96,86,71)" stop-opacity="1"></stop>
		<stop class="stop1" offset="1" stop-color="rgb(105,106,89)" stop-opacity="1"></stop>
	</linearGradient>
	<linearGradient gradientUnits="userSpaceOnUse" id="Gradient2" x1="1005.76" x2="1057.23" y1="1270.29" y2="741.427">
		<stop class="stop0" offset="0" stop-color="rgb(9,10,18)" stop-opacity="1"></stop>
		<stop class="stop1" offset="1" stop-color="rgb(40,35,12)" stop-opacity="1"></stop>
	</linearGradient>
</defs>
<path d="M 1052.2 770.511 C 1156.22 768.697 1279.78 804.009 1373.08 849.366 C 1454.46 819.797 1535.32 796.739 1622.47 794.482 C 1605.01 825.278 1578.94 864.825 1554.46 890.444 C 1558.64 899.161 1561.27 901.588 1568.22 907.78 L 1568.88 908.182 C 1595.59 923.988 1642.39 929.703 1646.39 967.663 C 1693.58 973.445 1964.67 1033.37 1875.19 1123.78 C 1772.76 1227.28 1262.38 1251.08 1118.47 1250.92 C 907.581 1250.98 694.782 1249.94 485.668 1219.54 C 439.083 1212.77 98.1165 1166.86 162.911 1063.75 C 195.18 1012.4 336.426 981.383 395.764 967.663 C 419.447 896.834 658.583 858.848 726.788 849.623 C 760.278 845.093 759.787 845.214 789.899 830.574 C 871.111 791.091 962.246 772.343 1052.2 770.511 z M 330.261 1151.22 C 562.913 1212.99 895.442 1216.48 1133.5 1211.16 C 1249.5 1208.57 1777.9 1188.81 1855.12 1089.15 C 1832.44 1045.79 1689.25 1014.67 1642.36 1004.38 C 1633.78 1083.15 1619.51 1080.47 1549.09 1096.01 C 1261.23 1159.49 884.915 1156.05 598.411 1115.09 C 545.246 1107.49 490.986 1096.05 439.5 1081.02 C 411.849 1072.95 409.896 1032.82 401.643 1008.6 C 368.108 1012.72 203.015 1051.77 195.226 1087.62 C 199.588 1114.91 304.776 1144.61 330.261 1151.22 z M 1554.46 1008.6 C 1545.32 1003.92 1537.06 1000.61 1527.23 997.504 C 1466.36 978.291 1420.91 950.616 1366.27 921.808 C 1297.04 925.231 1251.8 932.212 1179.43 919.581 C 1102.49 906.153 1087.11 895.385 1005.41 896.961 C 936.429 898.292 867.544 895.063 799.716 881.73 C 729.496 867.927 748.326 869.485 673.778 882.143 C 645.597 887.759 389.699 936.13 419.279 983.202 C 509.742 1038.7 903.723 1046.09 1008.66 1044.96 C 1185.16 1043.04 1355.4 1034.4 1531.12 1010.42 C 1535.7 1009.8 1551.61 1009.67 1554.46 1008.6 z M 1608.02 995.135 C 1612.75 992.324 1617.92 989.396 1622.47 986.367 C 1637.62 961.314 1601.02 947.675 1582.61 941.394 C 1589.35 957.271 1599.18 980.231 1608.02 995.135 z" fill="url(#Gradient2)" transform="translate(0,0)"></path>
<path d="M 576.539 941.488 C 585.015 940.062 593.035 945.8 594.421 954.282 C 595.808 962.765 590.032 970.757 581.543 972.104 C 573.11 973.441 565.183 967.712 563.805 959.286 C 562.428 950.86 568.12 942.905 576.539 941.488 z" fill="rgb(0,0,0)" transform="translate(0,0)"></path>
<path d="M 419.279 983.202 C 509.742 1038.7 903.723 1046.09 1008.66 1044.96 C 1185.16 1043.04 1355.4 1034.4 1531.12 1010.42 C 1535.7 1009.8 1551.61 1009.67 1554.46 1008.6 C 1560.53 1009.24 1562.3 1009.47 1568.22 1011.16 C 1211.52 1061.11 909.078 1070.88 550.269 1026.44 C 526.06 1023.44 425.614 1008.6 419.279 983.202 z" fill="url(#Gradient1)" transform="translate(0,0)"></path>
<metadata><recraft-signature>{"signed_by": "recraft", "signature_b64": "HCT4zUNbgmc6iLflrCyab++00lYCoke0f2UJKsNczUFaWDsP8ZNVFuMLWTwmgw3uWJ6R9QOMoq+Zw/x12C+vAA==", "signing_algo": "Ed25519", "generation_timestamp": 1773009114, "identifier": "c13173e1-512e-4af5-97c2-e69e57635130"}</recraft-signature></metadata></svg>