<svg xmlns="http://www.w3.org/2000/svg" height="512" preserveAspectRatio="none" style="display: block;" version="1.1" viewBox="0 0 2048 2048" width="512">
<path d="M 780.152 1497.48 L 477.831 1497.52 C 451.207 1497.55 427.425 1498.82 401.177 1492.67 C 324.798 1474.79 263.246 1412.51 250.365 1334.32 C 245.366 1303.98 246.953 1263.79 246.971 1232.26 L 246.967 534.979 C 247.431 440.685 310.065 355.483 405.953 340.441 C 423.335 337.714 444.426 338.458 462.175 338.45 L 1615.52 338.272 C 1703.08 338.456 1786.92 412.204 1799.61 498.72 C 1804.86 534.443 1802.59 582.793 1802.4 619.861 L 1802.8 1316.58 C 1802.66 1403.19 1729.73 1476.18 1648.24 1493.41 C 1624.16 1498.5 1600.98 1497.55 1576.46 1497.53 L 1271 1497.48 L 1271 1597.62 L 1322.48 1597.46 C 1333.82 1597.33 1347.81 1596.28 1358.98 1597.86 C 1419.04 1606.25 1423.69 1688.82 1365.95 1704.76 C 1351.32 1708.8 1327.11 1707 1311.14 1707 L 718.595 1707.04 C 613.589 1707.17 631.502 1610.69 683.098 1599.13 C 696.462 1596.13 711.112 1597.42 724.865 1597.47 L 780.152 1597.62 C 781.678 1564.61 780.656 1530.54 780.152 1497.48 z M 886.014 1597.62 C 895.323 1597.62 979.071 1597.17 979.745 1597.62 L 1125.25 1597.62 C 1127.61 1596.51 1154.22 1597.59 1159.05 1597.62 C 1159.6 1564.77 1159.09 1530.46 1159.05 1497.48 L 886.014 1497.48 C 883.896 1529.82 886.096 1565 886.014 1597.62 z M 495.5 1384.79 L 1576.27 1384.82 C 1642.61 1384.82 1691.18 1374.16 1691.9 1295.62 L 1691.9 542.804 C 1691.79 448.629 1632.03 448.314 1557.01 447.836 L 473.964 447.766 C 357.957 447.035 358.821 493.289 358.823 594.968 L 358.702 1298.59 C 358.966 1382.78 427.39 1385.12 491.619 1384.81 L 495.5 1384.79 z" fill="rgb(19,19,19)" transform="translate(0,0)"></path>
<path d="M 780.152 1497.48 L 886.014 1497.48 C 883.896 1529.82 886.096 1565 886.014 1597.62 C 895.323 1597.62 979.071 1597.17 979.745 1597.62 L 1125.25 1597.62 C 1127.61 1596.51 1154.22 1597.59 1159.05 1597.62 C 1159.6 1564.77 1159.09 1530.46 1159.05 1497.48 L 1271 1497.48 L 1271 1597.62 L 1322.48 1597.46 C 1333.82 1597.33 1347.81 1596.28 1358.98 1597.86 C 1419.04 1606.25 1423.69 1688.82 1365.95 1704.76 C 1351.32 1708.8 1327.11 1707 1311.14 1707 L 718.595 1707.04 C 613.589 1707.17 631.502 1610.69 683.098 1599.13 C 696.462 1596.13 711.112 1597.42 724.865 1597.47 L 780.152 1597.62 C 781.678 1564.61 780.656 1530.54 780.152 1497.48 z" fill="rgb(19,19,19)" transform="translate(0,0)"></path>
<path d="M 1159.05 1497.48 L 1271 1497.48 L 1271 1597.62 C 1224.33 1597.66 1171.37 1598.97 1125.25 1597.62 C 1127.61 1596.51 1154.22 1597.59 1159.05 1597.62 C 1159.6 1564.77 1159.09 1530.46 1159.05 1497.48 z" fill="rgb(203,231,242)" transform="translate(0,0)"></path>
<path d="M 780.152 1497.48 L 886.014 1497.48 C 883.896 1529.82 886.096 1565 886.014 1597.62 C 895.323 1597.62 979.071 1597.17 979.745 1597.62 C 960.158 1598.5 933.031 1597.65 912.946 1597.65 L 780.152 1597.62 C 781.678 1564.61 780.656 1530.54 780.152 1497.48 z" fill="rgb(203,231,242)" transform="translate(0,0)"></path>
<path d="M 474.813 1134.53 L 584.503 1134.5 C 604.399 1134.5 633.717 1132.98 652.588 1136.78 C 708.194 1148 712.191 1238.77 632.99 1241.45 L 471.519 1241.49 C 400.629 1241.18 392.942 1137.71 474.813 1134.53 z" fill="rgb(54,184,231)" transform="translate(0,0)"></path>
<metadata><recraft-signature>{"signed_by": "recraft", "signature_b64": "bZHcP2/RFRgoX3lZci/DzMBYmKdBYCkZHr6mpSnw6TY1vdpCDLaH2dvlQlOCxDknEPdkL4fRpkliQ938FcsuDg==", "signing_algo": "Ed25519", "generation_timestamp": 1772999293, "identifier": "8fbda772-fabd-4f71-a875-d342bde010f4"}</recraft-signature></metadata></svg>