<svg xmlns="http://www.w3.org/2000/svg" height="512" preserveAspectRatio="none" style="display: block;" version="1.1" viewBox="0 0 2048 2048" width="512">
<path d="M 864.001 279.835 L 1553.6 279.825 C 1630.84 279.749 1709.93 274.014 1741.93 366.277 C 1751.48 393.797 1750.07 411.343 1750.07 439.744 L 1750.26 1624.56 C 1750.76 1734.43 1676.73 1766.02 1579.34 1765.94 L 1186.5 1765.89 L 495.17 1765.91 C 467.153 1765.94 433.81 1767.48 406.672 1763.65 C 333.476 1753.3 297.499 1686.9 297.017 1618.77 L 296.948 444.738 C 296.898 370.176 315.774 299.725 402.936 282.541 C 422.33 278.717 446.62 279.786 466.679 279.796 L 864.001 279.835 z M 1643.09 1077.09 L 1562.5 1077.09 C 1552.56 1077.02 1540.79 1076.64 1530.99 1077.09 L 1531.05 1410.68 C 1531.06 1464.87 1522.89 1519.27 1458.4 1535.74 C 1423.76 1544.74 1330.48 1539.45 1292.13 1539.56 C 1236.42 1539.73 1212.32 1479.83 1249.72 1447.44 C 1270.99 1429.02 1301.03 1434 1327.29 1433.97 L 1423.11 1434.01 C 1424.57 1402.97 1423.11 1364.41 1423.1 1332.59 L 1423.03 1058.7 C 1422.78 963.335 1447.18 972.005 1526.66 972.013 L 1643.09 972.056 L 1643.11 471.568 C 1643.13 400.874 1659.49 384.898 1581.03 385.311 L 617.999 385.397 L 492.786 385.361 C 469 385.363 408.931 376.454 406.309 410.412 L 406.48 1558.27 C 406.478 1600.03 390.221 1659.27 440.611 1659.45 L 1568.34 1659.55 C 1656.62 1659.58 1643.18 1653.73 1643.13 1575.43 L 1643.09 1077.09 z" fill="rgb(0,0,0)" transform="translate(0,0)"></path>
<path d="M 602.562 506.769 C 640.123 502.081 712.492 507.771 755.401 506.539 C 806.966 505.058 833.924 562.354 799.561 598.298 C 779.505 619.276 743.885 613.189 717.058 613.091 L 625.627 613.052 C 624.8 620.877 625.497 636.413 625.462 645.087 L 625.627 975.748 C 625.468 997.996 629.791 1039.58 619.804 1058.43 C 605.262 1085.87 569.443 1093.04 543.22 1077.07 C 510.625 1057.21 520.576 992.222 520.575 955.366 L 520.562 637.625 C 520.515 573.824 520.188 522.696 602.562 506.769 z" fill="rgb(0,0,0)" transform="translate(0,0)"></path>
<path d="M 564.093 1198.22 C 632.469 1193.67 625.691 1249.23 625.673 1296.1 L 625.627 1434.01 L 719.387 1433.92 C 733.931 1433.92 755.527 1432.64 769.053 1434.52 C 829.731 1442.94 832.334 1523.92 771.607 1539.51 C 727.055 1541.95 678.679 1537.68 633.735 1539.62 C 543.722 1542.63 520.388 1489.69 520.522 1407.23 L 520.536 1280.57 C 520.547 1242.89 519.141 1207.62 564.093 1198.22 z" fill="rgb(0,0,0)" transform="translate(0,0)"></path>
<path d="M 1354.38 506.769 L 1416.12 506.616 C 1464.86 506.512 1516.72 515.307 1527.84 574.528 C 1533.64 605.36 1532.82 694.163 1529.23 727.849 C 1523.65 777.265 1459.71 786.29 1431.11 746.457 C 1421.34 727.695 1423.36 709.754 1423.16 689.112 L 1423.11 613.052 L 1321.55 613.128 C 1289.13 613.145 1252.71 619.282 1235.79 583.389 C 1220.76 555.97 1239.99 514.11 1270.98 508.838 C 1294.62 504.818 1329.45 506.682 1354.38 506.769 z" fill="rgb(0,0,0)" transform="translate(0,0)"></path>
<metadata><recraft-signature>{"signed_by": "recraft", "signature_b64": "W5MfrAImjirvZR+wHl9f4VhWrGHv9Sm9qG5sk/qg4JE9tcJpa0XkPx6X2N2hgkgRKfTldpLWBspkuMszUrlvCw==", "signing_algo": "Ed25519", "generation_timestamp": 1773000063, "identifier": "4db72c39-ae24-4b39-9461-219b157495de"}</recraft-signature></metadata></svg>