<svg xmlns="http://www.w3.org/2000/svg" height="512" preserveAspectRatio="none" style="display: block;" version="1.1" viewBox="0 0 2048 2048" width="512">
<path d="M 739.375 1298.14 L 1261.69 1298.09 C 1268.67 1298.09 1278.09 1298.57 1284.82 1298.09 C 1390.13 1290.59 1485.3 1364.61 1492.04 1472.23 C 1494.22 1502.01 1490.75 1532.65 1492.13 1562.44 C 1497.17 1671.39 1417.62 1756.34 1309.3 1763.6 C 1269.4 1764.77 1223.05 1763.62 1182.81 1763.61 L 802.072 1763.65 C 775.365 1763.64 740.978 1764.73 715.041 1760.82 C 630.776 1748.13 562.376 1671.31 557.888 1586.41 C 556.224 1554.93 554.61 1501.31 557.462 1470.11 C 566.519 1371 641.218 1304.3 739.375 1298.14 z M 1309.3 1626.36 C 1369.01 1615.59 1355.22 1560.96 1357.75 1520.22 C 1359.64 1413.18 1305.73 1433.09 1218.77 1433.04 L 839.419 1432.99 C 812.384 1432.99 769.213 1431.57 743.135 1432.99 C 680.132 1442.01 697.016 1514.43 695.579 1560.51 C 693.403 1638.9 755.208 1626.38 812.479 1626.34 L 1191.14 1626.34 C 1229.19 1626.35 1271.74 1627.44 1309.3 1626.36 z" fill="rgb(0,0,0)" transform="translate(0,0)"></path>
<path d="M 1000.72 403 C 1231.1 387.513 1446.26 567.743 1478.77 795.346 C 1500.67 948.625 1365.62 930.713 1346.43 860.959 C 1341.54 833.042 1343.06 807.784 1335.8 779.713 C 1299.8 640.688 1189.05 558.089 1049.29 539.993 C 879.738 534.862 724.423 644.032 707.311 820.461 C 705.763 842.229 706.206 863.645 693.148 882.493 C 670.864 914.535 627.514 920.845 596.739 897.264 C 563.913 872.078 568.098 835.738 571.976 799.311 C 593.495 597.152 759.25 436.057 958.467 407.393 C 972.357 405.395 986.655 404.925 1000.72 403 z" fill="rgb(0,0,0)" transform="translate(0,0)"></path>
<path d="M 327.746 279.003 C 429.979 275.826 407 381.658 406.998 450.6 L 407.066 1016.09 C 407.234 1068.44 410.01 1104 350.759 1121.83 C 316.244 1128.56 282.116 1107.3 272.119 1073.61 C 266.829 1055.79 270.015 1006.75 270.009 985.508 L 270.09 350.122 C 272.152 311.008 286.249 288.287 327.746 279.003 z" fill="rgb(0,0,0)" transform="translate(0,0)"></path>
<path d="M 1700.77 279.003 C 1785.1 268.437 1775.56 354.858 1775.51 405.774 L 1775.52 998.998 C 1775.55 1047.72 1784.37 1109.11 1721.01 1121.83 C 1654.63 1133.01 1641.13 1077.77 1641.12 1027.12 L 1641.05 388.653 C 1641.04 340.237 1638.22 285.67 1700.77 279.003 z" fill="rgb(0,0,0)" transform="translate(0,0)"></path>
<metadata><recraft-signature>{"signed_by": "recraft", "signature_b64": "pEM+tbtPHS2MQfHRB4n0WE1qYmoO0TFv5SqS1lHKq7pB7EhL1ahIs0oe/7AqkkrmNJVKDlPAIhsMDH7wgd3lDA==", "signing_algo": "Ed25519", "generation_timestamp": 1772989156, "identifier": "dd92ca9d-aea4-4eb6-b42f-457b992adeb7"}</recraft-signature></metadata></svg>