<svg xmlns="http://www.w3.org/2000/svg" height="512" preserveAspectRatio="none" style="display: block;" version="1.1" viewBox="0 0 2048 2048" width="512">
<path d="M 521.888 306.47 L 1610.79 306.364 C 1694.17 305.843 1766.57 331.814 1787.72 424.836 C 1792.81 447.213 1791 481.311 1791.01 504.915 L 1791.18 1043.77 C 1791.46 1092.89 1782.12 1128.26 1747.01 1164.14 C 1698.23 1214.01 1651.33 1211.03 1588.14 1211.02 L 999.5 1210.98 L 383.001 1210.98 L 383.101 1636.78 C 383.152 1672.26 387.728 1712.65 350.47 1732.68 C 309.082 1754.92 257.064 1725.85 256.774 1677.96 L 256.927 482.768 C 256.909 402.044 280.922 326.133 374.108 309.744 C 398.154 305.515 418.683 306.428 442.887 306.427 L 521.888 306.47 z M 383.001 454.01 L 383.001 1081.77 L 1614.18 1081.9 C 1620.34 1081.93 1641.8 1082.5 1646.59 1081.77 C 1675.21 1058.31 1664.54 1013.61 1664.53 976.931 L 1664.53 585.73 C 1664.53 545.078 1664.91 504.383 1664.11 463.737 C 1663.34 424.398 1615.43 433.274 1589.06 433.429 L 409.731 433.49 C 396 435.3 389.652 442.817 383.001 454.01 z" fill="rgb(0,0,0)" transform="translate(0,0)"></path>
<metadata><recraft-signature>{"signed_by": "recraft", "signature_b64": "WrZXOQp7NQ3XRNfQIlYfPQsdfobzDAAnDKNk3gtMCiJDFv3QGK8/xwSTpzGUr41692WvN5oL7U5gVV9wKAJMBQ==", "signing_algo": "Ed25519", "generation_timestamp": 1772996421, "identifier": "fda38e27-6b81-4c41-b4b6-71ff20918882"}</recraft-signature></metadata></svg>