<svg xmlns="http://www.w3.org/2000/svg" height="512" preserveAspectRatio="none" style="display: block;" version="1.1" viewBox="0 0 2048 2048" width="512">
<path d="M 441.506 345.205 L 1590.8 345.106 C 1677.08 345.017 1704.92 370.605 1704.58 457.486 L 1704.48 1367.29 C 1635.96 1368.41 1564.33 1367.31 1495.56 1367.29 L 1495.56 550.49 C 1457.52 551.057 1417.91 550.518 1379.74 550.514 L 1152.5 550.49 L 752.047 550.49 C 685.914 550.488 618.139 549.639 552.18 550.49 C 551.187 585.105 552.166 624.417 552.169 659.554 L 552.183 1734.38 C 552.187 1764.69 553.225 1800.32 552.18 1829.99 L 347.009 1829.99 C 346.391 1796.59 346.998 1760.92 346.999 1727.36 L 346.949 479.43 C 346.803 407.664 352.854 347.808 441.506 345.205 z" fill="rgb(0,0,0)" transform="translate(0,0)"></path>
<metadata><recraft-signature>{"signed_by": "recraft", "signature_b64": "N/0MkuWVA8aE6C0+psO8mMjC+oeCUuJcZmY/S2goPLKxM3JoErPEFwTIQfIL/6ioZBkapiDEZHO/PXY9BA+4BQ==", "signing_algo": "Ed25519", "generation_timestamp": 1773000562, "identifier": "28b2bad4-7053-4134-a955-56f538e40171"}</recraft-signature></metadata></svg>