<svg xmlns="http://www.w3.org/2000/svg" height="512" preserveAspectRatio="none" style="display: block;" version="1.1" viewBox="0 0 2048 2048" width="512">
<path d="M 364.41 353.142 L 1553.98 353.089 C 1569.96 353.084 1586.16 352.639 1601.85 354.423 C 1666.07 361.723 1662.71 454.132 1611.12 461.352 C 1586.37 464.817 1557.57 463.088 1532.43 463.067 L 381.935 462.792 C 342.156 462.454 354.942 507.729 354.97 538.998 L 354.954 1515.36 C 354.965 1598.37 361.972 1582.94 436.976 1582.95 L 574.5 1582.98 L 1556.17 1582.91 C 1569.21 1582.91 1582.2 1582.55 1595.42 1583.27 C 1661.79 1586.84 1664.31 1678.01 1602.49 1690.08 C 1588.17 1692.88 1561.76 1691.06 1545.91 1691.06 L 450.826 1691.02 C 424.048 1691.05 393.62 1692.18 367.335 1690.15 C 308.753 1685.61 256.086 1634.48 249.844 1576.07 C 247.399 1553.19 248 1527.98 248.031 1504.71 L 248.04 531.919 C 248.042 512.303 247.819 492.571 248.247 473.017 C 249.694 406.887 301.524 360.365 364.41 353.142 z" fill="rgb(3,3,3)" transform="translate(0,0)"></path>
<path d="M 1742.15 427.305 C 1813.02 417.603 1800.96 513.975 1800.97 554.252 L 1800.87 1551.65 C 1800.65 1581.73 1781.66 1604.2 1752.66 1610.97 C 1728.52 1611.67 1695.32 1597.77 1692.71 1571.32 C 1689.86 1542.44 1691.01 1505.27 1691.01 1476.15 L 1691.01 570.049 C 1691.02 513.589 1673.05 441.19 1742.15 427.305 z" fill="rgb(3,3,3)" transform="translate(0,0)"></path>
<metadata><recraft-signature>{"signed_by": "recraft", "signature_b64": "p8WzV1660bPpDTHJlDk18blqS5z9OlS6n3xStmZmmqQ+jtesNDNSa83KBON1wcAqOnG9yxinL1Dsjy132EysAA==", "signing_algo": "Ed25519", "generation_timestamp": 1773000869, "identifier": "4f7123fd-ec5e-4d32-9be4-c0ac2221be1b"}</recraft-signature></metadata></svg>