<svg xmlns="http://www.w3.org/2000/svg" height="512" preserveAspectRatio="none" style="display: block;" version="1.1" viewBox="0 0 2048 2048" width="512">
<path d="M 1326.35 426.952 C 1326.18 387.974 1320.58 348.373 1350.39 317.9 C 1380.82 286.79 1436.04 285.54 1467.26 316.348 C 1498.87 347.546 1493.18 386.267 1493 426.952 C 1567.08 428.674 1648.8 411.244 1705.97 465.458 C 1747.83 505.148 1748.71 545.158 1748.58 598.051 L 1748.54 1546.64 C 1748.8 1703.03 1708.41 1748.31 1550.5 1748.06 L 472.165 1748.26 C 374.493 1748.53 301.932 1701.53 301.496 1597.03 L 301.4 596.522 C 301.262 522.314 319.491 458.915 400.64 433.204 C 426.279 425.081 451.897 426.86 478.507 426.876 L 556.437 426.952 C 556.371 364.958 554.3 305.124 632.767 294.455 C 718.546 290.74 724.307 362.36 724.001 426.952 C 743.861 427.708 769.731 426.966 789.974 426.964 L 1326.35 426.952 z M 470.193 1580.51 L 1579 1580.51 C 1581.49 1577.07 1578.98 1545.4 1578.98 1538.59 L 1579 934.991 L 594.725 934.979 C 553.663 934.978 511.169 934.42 470.193 934.991 L 470.193 1580.51 z M 1326.35 597.353 L 724.001 597.353 C 711.928 709.374 563.594 704.055 556.437 597.353 L 477.86 597.353 C 474.007 597.669 472.368 597.023 470.278 599.098 C 467.776 653.512 469.595 714.336 470.193 769.001 L 1458.13 768.993 C 1494.98 768.992 1542.78 767.58 1579 769.001 C 1577.49 752.621 1578.96 732.881 1579 715.845 L 1579 604.75 C 1577.27 589.192 1511.63 597.932 1493 597.353 C 1488.87 710.18 1328.88 706.038 1326.35 597.353 z" fill="rgb(0,0,0)" transform="translate(0,0)"></path>
<path d="M 932.825 1279.09 C 940.629 1278.53 957.881 1279.04 966.135 1279.04 L 1085.53 1279.04 C 1112.01 1279.02 1148.82 1279.04 1149.68 1315.61 C 1150.81 1356.41 1166.97 1448.85 1113.19 1451 L 994.199 1451.02 C 969.406 1451.02 899.566 1461.18 897.33 1422.52 C 895.26 1386.74 895.913 1349.99 896.708 1314.13 C 897.291 1292.04 913.3 1282.75 932.825 1279.09 z" fill="rgb(0,0,0)" transform="translate(0,0)"></path>
<path d="M 929.161 981.991 C 955.914 981.853 1110.31 979.494 1123.49 984.073 C 1158.84 996.358 1150.09 1039.11 1149.96 1068.44 C 1149.81 1102.71 1157.13 1135.44 1118.78 1151.97 C 1111.24 1152.78 1098.63 1152.12 1090.65 1152.05 L 974.163 1152.03 C 940.054 1152.04 896.42 1158.1 896.163 1108.28 C 895.949 1066.99 880.792 992.489 929.161 981.991 z" fill="rgb(0,0,0)" transform="translate(0,0)"></path>
<path d="M 700.501 1279.09 C 736.018 1278.87 764.856 1278.16 765.215 1325.25 C 765.454 1356.6 766.323 1388.65 764.97 1419.97 C 764.183 1438.19 747.203 1449.31 731.036 1451.32 C 683.266 1451.75 630.925 1450.96 583.5 1451 C 498.676 1451.93 514.654 1422.58 514.884 1352.87 C 517.369 1269.19 524.146 1279.08 603.417 1279.05 L 700.501 1279.09 z" fill="rgb(0,0,0)" transform="translate(0,0)"></path>
<path d="M 1474.51 981.991 L 1475.61 981.944 C 1520.67 980.064 1533.3 994.68 1533 1037.22 C 1532.36 1129.31 1552.39 1151.97 1444.81 1152 L 1341.86 1151.97 C 1263.69 1153.2 1288.04 1086.11 1284.85 1033.01 C 1281.26 973.18 1331.2 981.932 1372.14 981.932 L 1474.51 981.991 z" fill="rgb(0,0,0)" transform="translate(0,0)"></path>
<metadata><recraft-signature>{"signed_by": "recraft", "signature_b64": "Mc8CV2FD6++ulFg2kF8o5fiF49eccmge5276ZXhqg4sF7fILTY1ngp7COmjK7wx1HhnLF8wgCrc9hieWNyadAA==", "signing_algo": "Ed25519", "generation_timestamp": 1772989751, "identifier": "ed60d085-7524-4d7f-a7af-84b4447ef696"}</recraft-signature></metadata></svg>