<svg xmlns="http://www.w3.org/2000/svg" height="512" preserveAspectRatio="none" style="display: block;" version="1.1" viewBox="0 0 2048 2048" width="512">
<path d="M 357.101 300.012 L 830.923 299.976 C 865.408 299.959 912.485 292.487 929.452 330.253 C 941.047 356.062 935.885 417.348 935.889 447.293 L 935.965 797.768 C 935.96 850.129 950.74 931.374 877.747 936.001 L 413.965 936.037 C 393.993 936.049 373.164 936.693 353.395 935.027 C 288.098 929.526 300.988 847.128 300.99 801.666 L 300.973 388.2 C 300.979 344.936 301.08 304.748 357.101 300.012 z M 424.999 813.733 L 813.009 813.733 C 814.69 685.046 815.655 550.724 813.009 422.046 L 424.999 422.046 L 424.999 813.733 z" fill="rgb(0,0,0)" transform="translate(0,0)"></path>
<path d="M 357.101 1112.34 C 361.836 1111.77 373.5 1112.2 378.892 1112.23 L 843.694 1112.25 C 856.662 1112.23 869.306 1112.11 882.259 1112.76 C 949.751 1116.13 935.871 1195.71 935.866 1241.36 L 935.917 1611.02 C 935.941 1665.12 952.324 1732.6 884.233 1745 C 876.646 1745.59 860.052 1745.08 851.744 1745.06 L 425.348 1744.95 C 372.605 1744.98 301.718 1758.18 301.128 1681.89 L 301.018 1201.61 C 301.032 1158.11 300.318 1118.36 357.101 1112.34 z M 424.999 1624.97 L 684.923 1624.94 C 726.866 1624.95 774.867 1626.31 816.089 1624.97 L 816.089 1234.45 L 424.999 1234.45 C 423.879 1258.31 424.998 1292.57 425.005 1317.21 L 424.951 1581.55 C 424.935 1590.58 424.079 1617.5 424.999 1624.97 z" fill="rgb(0,0,0)" transform="translate(0,0)"></path>
<path d="M 1399.27 1113.07 C 1574.45 1095.76 1730.41 1223.96 1747.34 1399.18 C 1764.26 1574.4 1635.72 1730.08 1460.46 1746.61 C 1285.75 1763.1 1130.67 1635.05 1113.79 1460.37 C 1096.92 1285.7 1224.63 1130.33 1399.27 1113.07 z M 1448.46 1622.49 C 1555.5 1613.12 1634.76 1518.89 1625.67 1411.83 C 1616.58 1304.76 1522.57 1225.25 1415.48 1234.05 C 1307.99 1242.89 1228.11 1337.34 1237.23 1444.8 C 1246.36 1552.27 1341.02 1631.9 1448.46 1622.49 z" fill="rgb(0,0,0)" transform="translate(0,0)"></path>
<metadata><recraft-signature>{"signed_by": "recraft", "signature_b64": "yPG5VU0lU6fivq2ypmfpPk4uiSoqRgunEMSzsnE0d6dE4huP+idu+VOiK1+gQd6/kaXXv6qLHehHFXVwPFs2CA==", "signing_algo": "Ed25519", "generation_timestamp": 1773000820, "identifier": "effb7df0-befa-4c36-9ae2-c3ed4e9f97fd"}</recraft-signature></metadata></svg>