<svg xmlns="http://www.w3.org/2000/svg" height="512" preserveAspectRatio="none" style="display: block;" version="1.1" viewBox="0 0 2048 2048" width="512">
<path d="M 1131.77 1045.84 C 1138.18 1045.25 1149.91 1045.69 1156.68 1045.72 L 1527.96 1045.9 C 1562.68 1045.95 1610.98 1038.95 1641.1 1057.79 C 1694.01 1090.91 1676.08 1211.83 1676.49 1271.52 L 1676.99 1486.42 C 1676.97 1556.25 1697.15 1654.91 1608.25 1671.51 C 1578.03 1672.44 1542.91 1671.54 1512.17 1671.53 L 1196.06 1671.54 C 1146.26 1671.56 1084.56 1680.02 1064.66 1619.45 C 1057.84 1598.7 1060.83 1533.44 1060.83 1507.75 L 1060.84 1202.84 C 1060.84 1141.36 1045.02 1052.04 1131.77 1045.84 z M 1147.79 1584.86 L 1587.56 1584.86 L 1587.54 1282.05 C 1587.54 1231.5 1586.9 1179.45 1587.56 1129 L 1147.79 1129 L 1147.87 1532.55 C 1147.96 1549.18 1149.13 1568.78 1147.79 1584.86 z" fill="rgb(31,30,30)" transform="translate(0,0)"></path>
<path d="M 906.072 356.695 C 979.908 356.14 987.113 410.821 987.134 469.871 L 987.617 901.074 C 988.315 972.224 934.638 979.072 878.197 979.044 L 452.688 978.988 C 379.74 972.918 372.608 924.415 372.611 863.503 L 372.446 441.616 C 372.133 365.013 425.748 356.58 487.988 356.635 L 906.072 356.695 z M 460.637 892.521 L 900.919 892.521 L 902.119 891.791 C 902.195 885.388 900.99 878.095 900.954 871.026 L 900.919 442.993 L 460.637 442.993 L 460.633 741.494 C 460.631 790.562 459.557 843.851 460.637 892.521 z" fill="rgb(31,30,30)" transform="translate(0,0)"></path>
<path d="M 438.653 1218.3 C 453.452 1217.31 481.855 1218.25 497.496 1218.26 L 713.562 1218.25 C 816.76 1218.18 823.303 1237.73 823.224 1339.72 L 823.23 1554.97 C 823.255 1604.56 826.819 1662.86 758.25 1671.51 C 740.92 1672.43 715.047 1671.56 696.883 1671.55 L 489.029 1671.56 C 444.17 1671.56 381.297 1670.16 374.04 1609.15 C 371.78 1590.15 372.613 1568.36 372.611 1549.25 L 372.637 1344.5 C 372.656 1292.37 367.415 1227.11 438.653 1218.3 z" fill="rgb(31,30,30)" transform="translate(0,0)"></path>
<path d="M 457.894 1302.86 L 739.403 1302.86 L 739.403 1584.86 L 457.894 1584.86 L 457.894 1302.86 z" fill="rgb(235,77,45)" transform="translate(0,0)"></path>
<path d="M 1306.46 356.695 L 1574.94 356.588 C 1680.28 356.352 1676.97 402.373 1676.98 492.418 L 1676.98 704.701 C 1676.96 765.751 1667.23 804.291 1596.75 807.842 L 1330.58 807.873 C 1272.57 807.834 1225.11 794.503 1225.01 728.068 L 1224.88 452.385 C 1224.87 447.073 1225.19 440.252 1224.85 435.107 C 1221.58 384.409 1259.89 356.79 1306.46 356.695 z" fill="rgb(31,30,30)" transform="translate(0,0)"></path>
<path d="M 1311.23 442.993 L 1587.56 442.993 L 1587.56 720.961 L 1311.23 720.961 L 1311.23 442.993 z" fill="rgb(254,205,46)" transform="translate(0,0)"></path>
<metadata><recraft-signature>{"signed_by": "recraft", "signature_b64": "RCVEgZnR9J5dWLqCjRQBuh4FcARcLmHhY7W32OKQoHFU4TQ+QtAAbqVIn7hrJdUgxkHx/Qonjm16ZZWRzI/XDg==", "signing_algo": "Ed25519", "generation_timestamp": 1773000829, "identifier": "3d3968a9-1cc2-4dc5-9f31-e10a51274d20"}</recraft-signature></metadata></svg>