<svg xmlns="http://www.w3.org/2000/svg" height="512" preserveAspectRatio="none" style="display: block;" version="1.1" viewBox="0 0 2048 2048" width="512">
<path d="M 1665.31 301.007 C 1719.2 298.392 1748.79 324.217 1749.26 376.677 L 1749.22 1094.29 C 1748.82 1165.56 1699.39 1171.35 1641.94 1171.27 L 441.701 1171.18 L 441.796 1623.16 C 441.901 1674.25 449.269 1726.72 384.015 1741.46 C 310.109 1752.49 300.522 1694.08 300.881 1641.01 L 300.854 374.55 C 301.01 301.119 357.09 300.915 413.7 300.941 L 1665.31 301.007 z M 441.701 445.17 L 441.701 667.001 L 1592.5 667.001 L 1606.17 667.001 L 1606.17 445.17 L 451.866 445.17 L 441.701 445.17 z M 441.701 809.748 L 441.701 1024.2 L 554.25 1024.2 L 1606.17 1024.2 L 1606.17 809.748 C 1574.83 808.249 1531.12 809.779 1499 809.748 L 478.989 809.78 C 468.149 809.781 452.058 810.35 441.701 809.748 z" fill="rgb(0,0,0)" transform="translate(0,0)"></path>
<metadata><recraft-signature>{"signed_by": "recraft", "signature_b64": "YpMBViqbx8XpXtvCJN6yRvEceuXXtJuig3G7vsKKU/dXl6e9xP6RfR4wdWo6WKhGMyEp7CtgKt/24JA7hmVpDg==", "signing_algo": "Ed25519", "generation_timestamp": 1772997340, "identifier": "3a7df674-bb93-4a3c-ab4a-d9c8462faeaf"}</recraft-signature></metadata></svg>