<svg xmlns="http://www.w3.org/2000/svg" height="512" preserveAspectRatio="none" style="display: block;" version="1.1" viewBox="0 0 2048 2048" width="512">
<path d="M 347.852 621.611 L 1714.7 621.688 C 1745.86 620.504 1771.02 632.985 1792.36 654.912 C 1825.86 689.346 1817.71 736.887 1817.26 781.335 L 1817.12 1313.31 C 1816.91 1383.06 1763.49 1421.64 1698.25 1419.07 L 1697.22 1419.08 C 1667.6 1419.31 1638.53 1416.6 1608.96 1415.06 L 390.869 1347.23 C 265.345 1340.63 229.072 1333.58 229.062 1197.88 L 229.024 761.179 C 228.981 676.652 252.566 621.031 347.852 621.611 z M 1710.25 1373.07 C 1783.78 1369.45 1770.05 1283.58 1770.05 1232.6 L 1770.08 749.63 C 1769.91 654.035 1719.92 667.19 1639.53 667.179 L 424.819 667.181 C 396.748 667.179 363.479 666.285 335.959 667.199 C 280.887 674.215 275.103 707.641 275.344 755.88 L 275.484 1168.01 C 275.45 1203.59 265.851 1264.76 299.545 1286.72 C 325.369 1303.56 540.256 1308.18 578.694 1310.22 L 1660.33 1370.69 C 1675.11 1371.45 1696.11 1373.37 1710.25 1373.07 z" fill="rgb(0,0,0)" transform="translate(0,0)"></path>
<path d="M 447.005 780.969 C 459.878 780.137 467.703 780.233 480.495 780.969 C 487.618 815.772 504.645 847.956 510.024 883.62 C 518.867 849.795 527.105 813.601 539.704 780.969 L 593.013 780.969 L 593.013 944.815 L 555.544 944.815 C 555.237 919.123 557.067 891.012 555.544 865.916 C 556.031 861.443 556.023 852.329 556.171 847.499 C 552.847 852.452 534.619 927.834 527.035 944.815 C 515.83 944.96 504.987 944.97 493.781 944.815 C 482.983 913.972 473.59 882.275 466.996 850.302 C 464.892 877.292 469.764 915.096 469.49 944.815 C 455.048 944.542 441.426 944.568 426.981 944.815 L 426.981 780.969 C 433.499 780.663 440.443 780.88 447.005 780.969 z" fill="rgb(0,0,0)" transform="translate(0,0)"></path>
<path d="M 1555.73 821.554 C 1573.21 823.863 1580.84 829.346 1592.98 841.484 L 1592.98 825.184 C 1606.11 826.047 1615.85 825.798 1628.79 825.184 C 1627.9 837.05 1628.59 849.069 1628.68 861 L 1628.84 913.755 C 1628.85 924.847 1629.22 935.5 1628.05 946.496 C 1622.71 996.649 1548.26 1004.71 1524.83 974.058 C 1521.81 969.044 1519.08 965.203 1519.65 959.379 C 1534.83 935.73 1586.96 994.644 1592.98 929.73 C 1523.68 989.799 1460.26 839.053 1555.73 821.554 z M 1571.09 911.922 C 1600.45 901.512 1601.17 856.561 1567.07 854.316 C 1530.9 859.404 1543.01 908.254 1571.09 911.922 z" fill="rgb(0,0,0)" transform="translate(0,0)"></path>
<path d="M 1235.11 786.016 C 1247.55 785.738 1259.04 785.77 1271.49 786.016 L 1271.49 836.326 C 1323.85 783.125 1387.02 878.007 1338.63 932.29 C 1316.83 953.928 1291.56 950.876 1269.21 932.29 L 1269.21 944.815 C 1257.89 946.079 1246.45 945.477 1235.11 944.815 C 1235.96 894.528 1235.82 836.284 1235.11 786.016 z M 1295.78 916.25 C 1325.22 912.095 1325.66 853.844 1295.78 850.302 C 1266.44 854.466 1261.56 914.027 1295.78 916.25 z" fill="rgb(0,0,0)" transform="translate(0,0)"></path>
<path d="M 367.193 1041.1 C 378.765 1040.37 392.848 1041.39 405.003 1041.1 L 405.003 1080.99 C 488.331 1056.79 498.532 1139.36 466.996 1180.27 C 430.288 1212.75 409.526 1172.94 395.262 1188.29 C 390.453 1189.82 373.468 1188.96 367.193 1188.84 C 365.787 1140.99 368.135 1089.53 367.193 1041.1 z M 426.981 1165.37 C 456.278 1156.6 454.036 1104.47 426.981 1102.41 C 389.826 1105.19 396.865 1163.75 424.212 1165.23 L 425.917 1165.33 C 426.272 1165.35 426.626 1165.36 426.981 1165.37 z" fill="rgb(0,0,0)" transform="translate(0,0)"></path>
<path d="M 769.992 1038.99 L 804.157 1038.99 L 804.157 1084.2 C 875.861 1043.19 904.316 1137.24 867.474 1180.27 C 846.09 1198.41 826.984 1194.71 803.997 1182.29 C 798.848 1184.11 805.176 1184.7 801.76 1187.54 C 796.911 1191.56 776.724 1190.12 769.992 1190 C 769.273 1175.02 769.936 1154.35 769.944 1139.01 L 769.992 1038.99 z M 804.157 1115.54 C 804.734 1135.15 800.536 1156.63 819.665 1167.55 C 825.092 1167.03 829.811 1166.78 835.097 1165.37 C 856.174 1146.92 855.727 1102.44 820.635 1102.41 L 819.665 1102.41 C 812.371 1106.74 808.882 1108.3 804.157 1115.54 z" fill="rgb(0,0,0)" transform="translate(0,0)"></path>
<path d="M 634.11 1038.99 C 644.407 1039.47 658.425 1039.03 669.001 1038.99 C 668.954 1053.84 669.588 1069.45 669.001 1084.2 C 738.843 1044.8 767.58 1136.69 732.999 1178.13 C 705.086 1206.59 674.648 1182.49 667.259 1183.27 L 666.651 1188.46 C 663.139 1191.09 639.805 1190.05 634.11 1190 C 632.916 1141.77 634.091 1087.71 634.11 1038.99 z M 697.383 1165.37 C 719.103 1154.64 718.656 1102.04 686.028 1102.41 C 664.417 1107.74 654.277 1170.92 697.383 1165.37 z" fill="rgb(0,0,0)" transform="translate(0,0)"></path>
<path d="M 1425.01 1045.99 L 1459.94 1045.99 L 1459.94 1190 C 1440.47 1192.23 1426.44 1200.21 1426.97 1173.48 C 1414.69 1191.38 1408.1 1193.12 1386.78 1193.14 C 1321.61 1187.74 1339.99 1027.09 1425.01 1084.2 C 1425.3 1071.85 1425.03 1058.43 1425.01 1045.99 z M 1408.75 1162.59 C 1434.71 1153.04 1432.01 1102.87 1400.36 1102.41 C 1373.92 1113.63 1376.13 1170.37 1408.75 1162.59 z" fill="rgb(0,0,0)" transform="translate(0,0)"></path>
<path d="M 1425.01 819.005 C 1481.29 810.362 1489.27 847.868 1489.3 891.582 L 1489.17 944.815 C 1475.28 944.436 1454.77 950.895 1453.77 932.29 C 1433.44 950.163 1402.99 952.103 1382.01 933.855 C 1373.34 924.279 1369.8 906.375 1374.23 894.39 C 1387.28 859.113 1448.66 876.487 1452.04 859.509 C 1445.06 839.148 1420.17 844.84 1408.75 857.13 C 1397.97 857.477 1387.94 857.314 1377.18 857.13 C 1381.43 828.381 1399.77 823.408 1425.01 819.005 z M 1415.7 916.25 C 1455.79 922.915 1460.66 887.511 1447.82 890.423 C 1438.55 891.862 1387.26 899.858 1415.7 916.25 z" fill="rgb(0,0,0)" transform="translate(0,0)"></path>
<path d="M 669.001 819.005 C 748.881 813.789 733.19 889.67 732.999 944.815 C 715.198 944.778 698.047 953.369 697.383 929.73 C 678.722 950.893 646.193 953.808 626.741 932.29 C 617.805 918.457 617.431 895.426 629.37 883.359 C 645.274 867.284 676.247 870.824 697.383 870.976 C 694.944 859.888 694.576 857.727 686.028 850.302 C 675.084 847.401 673.967 847.561 662.937 850.302 C 657.973 854.312 656.715 855.722 653.699 861.29 C 641.028 860.76 633.37 860.362 620.612 861.29 C 624.441 828.626 639.405 823.477 669.001 819.005 z M 680.233 918.879 C 687.592 916.512 690.472 915.368 697.383 911.922 C 697.413 906.158 697.525 900.241 697.383 894.49 C 685.307 893.182 680.834 892.723 669.001 894.49 C 644.094 899.135 651.834 921.804 675.984 919.317 L 680.233 918.879 z" fill="rgb(0,0,0)" transform="translate(0,0)"></path>
<path d="M 967.703 819.005 C 1013.64 814.777 1036.56 853.07 1032.07 894.49 C 1018.18 895.146 954.901 892.653 947.887 895.451 L 947.388 897.608 C 952.822 920.88 978.22 920.882 993.584 906.987 C 1002.9 907.085 1012.28 907.007 1021.61 906.987 C 1039.42 909.15 1005.63 958.712 951.574 943.923 C 897.572 929.147 888.695 831.402 967.703 819.005 z M 946.426 870.976 C 957.376 870.579 966.357 870.131 977.341 870.976 C 985.239 870.36 989.103 870.31 997.067 870.976 C 992.944 853.981 986.79 846.902 967.703 848.014 C 954.139 852.597 951.335 858.172 946.426 870.976 z" fill="rgb(0,0,0)" transform="translate(0,0)"></path>
<path d="M 1524.83 1073 C 1586.04 1065.73 1593.86 1093.15 1593.18 1144.48 L 1592.98 1190 C 1576.9 1192.46 1561.63 1199.25 1560.77 1178.13 C 1539.81 1199.19 1511.76 1198.55 1489.17 1180.27 C 1446.12 1120.86 1547.54 1121.64 1555 1117.35 C 1565.26 1102.96 1534.44 1087.73 1515.14 1110.73 L 1483.68 1110.73 C 1487.86 1083.46 1499.57 1077.96 1524.83 1073 z M 1521.59 1165.37 C 1538.9 1170.28 1560.46 1165.19 1557.77 1142.66 L 1556.47 1142.17 L 1555.73 1142.51 C 1545.68 1143.01 1497.51 1146.21 1521.59 1165.37 z" fill="rgb(0,0,0)" transform="translate(0,0)"></path>
<path d="M 1013.77 1073 C 1058.61 1069.18 1086.45 1096.94 1080 1142.51 C 1052.74 1141.84 1024.27 1141.26 997.067 1142.51 C 999.882 1158.74 1002.88 1163.3 1018.83 1167.55 C 1031.22 1164.76 1033.79 1162.94 1041.94 1153.54 C 1050.41 1153.43 1058.79 1153.48 1067.25 1153.54 C 1076.89 1153.86 1076.54 1158.53 1072.15 1166.12 C 1047.01 1209.51 969.828 1201.16 961.464 1148.66 C 954.509 1104.99 970.95 1079.64 1013.77 1073 z M 1028.25 1120.99 L 1047.8 1120.99 C 1042.65 1108.7 1033.14 1099.03 1018.83 1099.3 C 984.469 1107.43 986.816 1120.8 1028.25 1120.99 z" fill="rgb(0,0,0)" transform="translate(0,0)"></path>
<path d="M 1271.49 1073 C 1316.1 1061.28 1335.18 1104.95 1333.66 1142.51 C 1310.53 1143.71 1275.7 1142.52 1251.75 1142.51 C 1260.73 1175.5 1279.55 1170.85 1301.79 1153.54 C 1312.12 1152.75 1323.25 1153.29 1333.66 1153.54 C 1319.83 1195.46 1268.41 1206.17 1235.63 1179.53 C 1201.37 1151.68 1210.95 1075.27 1271.49 1073 z M 1275.2 1120.99 C 1284.5 1120.71 1292.69 1121.05 1301.79 1120.99 C 1296.42 1107.81 1290.4 1100.74 1275.2 1099.3 C 1253.84 1102.84 1228.71 1121.87 1275.2 1120.99 z" fill="rgb(0,0,0)" transform="translate(0,0)"></path>
<path d="M 549.414 1075 C 596.285 1072.59 614.918 1097.68 609.427 1142.51 C 591.339 1141.42 551.506 1141.47 533.175 1142.51 C 539.447 1172.96 564.362 1171.87 581.571 1151.34 C 593.181 1149.99 597.875 1149.91 609.427 1151.34 L 610.014 1152.6 C 600.761 1211.52 506.998 1204.34 499.486 1150.55 C 493.592 1108.35 504.457 1082.26 549.414 1075 z M 559.751 1120.99 C 592.033 1118.76 571.574 1100.14 549.414 1102.41 C 523.117 1110.43 532.7 1120.91 559.751 1120.99 z" fill="rgb(0,0,0)" transform="translate(0,0)"></path>
<path d="M 1144.04 819.005 C 1173.19 815.591 1200.1 825.812 1206.6 857.13 C 1194.53 858.836 1186.28 858.071 1174.19 857.13 C 1169.22 852.2 1168.14 851.402 1161.94 848.014 C 1155.48 847.271 1133.94 845.667 1135.3 857.102 C 1147.02 871.277 1210.59 867.143 1212.73 903.004 C 1214.75 936.846 1190.02 945.336 1161.94 947.928 C 1141.65 948.329 1116.22 945.634 1105.03 925.951 C 1090.68 900.737 1114.99 906.929 1133.54 906.987 C 1144.69 927.209 1179.32 922.026 1176.98 908.979 C 1165.41 893.123 1076.28 896.749 1107.1 838.819 C 1113.96 825.914 1131 821.712 1144.04 819.005 z" fill="rgb(0,0,0)" transform="translate(0,0)"></path>
<path d="M 1689.74 1075 C 1701.13 1075.2 1712.14 1074.16 1723.52 1075 C 1711.57 1107.91 1700.61 1140.19 1689.74 1173.48 C 1677.63 1213.4 1666.42 1243.01 1615.01 1223.87 C 1614.51 1214.73 1614.8 1206.08 1615.01 1196.95 C 1629.31 1200.76 1654.32 1208 1645.95 1184.05 C 1633.18 1147.52 1616.15 1112.12 1605.08 1075 L 1644.3 1075 C 1645.87 1083.08 1661.74 1131.97 1664.98 1140.05 C 1670.16 1121.42 1679.79 1090.79 1689.74 1075 z" fill="rgb(0,0,0)" transform="translate(0,0)"></path>
<path d="M 1139.81 1073 C 1166.17 1070.45 1193.01 1076.61 1198.16 1106.41 C 1186.7 1108.37 1177.75 1109.59 1166.18 1110.73 C 1157.52 1098.23 1132.8 1092.64 1130.41 1108.1 C 1136.07 1119.68 1182.75 1119.83 1192.26 1133.92 C 1217.97 1171.99 1181.47 1192.64 1148.53 1193.14 C 1129.65 1193.34 1105.32 1189.56 1095.15 1171.55 C 1082.2 1148.62 1103.68 1154.34 1122.39 1153.54 C 1130.54 1167.5 1162.37 1173.36 1165.39 1157.97 C 1159.2 1142.67 1099.88 1148.72 1095.31 1114.66 C 1091.09 1083.31 1114.85 1076.45 1139.81 1073 z" fill="rgb(0,0,0)" transform="translate(0,0)"></path>
<path d="M 819.665 819.005 C 827.663 816.956 831.503 818.267 838.728 821.554 C 837.129 832.476 831.498 850.329 828.359 861.29 C 783.682 835.443 793.602 919.571 794.672 944.815 C 786.11 945.117 775.773 944.668 766.771 944.815 C 763.42 945.082 761.768 945.573 758.811 944.015 C 756.01 935.005 758.049 837.58 758.066 821.554 C 768.429 820.83 781.941 821.396 792.545 821.554 C 792.714 826.373 792.584 831.481 792.545 836.326 C 801.529 823.868 805.022 820.829 819.665 819.005 z" fill="rgb(0,0,0)" transform="translate(0,0)"></path>
<path d="M 905.022 1038.99 C 915.742 1038.38 928.959 1038.87 939.864 1038.99 C 938.763 1085.68 937.312 1143.28 939.864 1190 C 929.022 1190.53 916.017 1190.1 905.022 1190 L 905.022 1038.99 z" fill="rgb(0,0,0)" transform="translate(0,0)"></path>
<path d="M 850.367 825.184 C 862.242 824.964 874.105 825.103 885.982 825.184 C 885.724 864.876 886.69 905.263 885.982 944.815 C 873.882 944.922 862.678 944.028 850.367 944.815 C 851.596 906.099 850.153 864.388 850.367 825.184 z" fill="rgb(0,0,0)" transform="translate(0,0)"></path>
<path d="M 862.357 780.969 C 886.624 775.378 898.685 801.718 872.807 813.137 C 847.477 816.019 836.632 789.305 862.357 780.969 z" fill="rgb(0,0,0)" transform="translate(0,0)"></path>
<metadata><recraft-signature>{"signed_by": "recraft", "signature_b64": "YtAZ9TQAY0v1PDkAR1nehGNEFzaJtNIhhnxTAmaxlR0tCEzD+icI/e0ydjDheglscopRPr1LQVkAKYesr+rHCQ==", "signing_algo": "Ed25519", "generation_timestamp": 1772996303, "identifier": "ed9c7fe7-153a-4765-8a2e-dfd34fcfba49"}</recraft-signature></metadata></svg>