<svg xmlns="http://www.w3.org/2000/svg" height="512" preserveAspectRatio="none" style="display: block;" version="1.1" viewBox="0 0 2048 2048" width="512">
<path d="M 885.001 244.928 L 1131.16 244.853 C 1136.55 244.849 1142.06 244.947 1147.42 244.847 C 1315.9 241.7 1453.52 386.284 1452.93 552.725 C 1452.89 566.127 1451.93 579.485 1452.51 592.971 C 1464.95 592.933 1477.27 592.97 1489.77 593.175 C 1636.73 595.584 1771.12 710.899 1789.87 857.758 C 1792.57 878.908 1792.03 900.945 1792.02 922.258 L 1791.97 1001.21 C 1791.99 1055.36 1792.83 1111.82 1791.8 1165.73 C 1789.12 1305.27 1667.44 1432.57 1531.77 1454.2 C 1516.23 1456.68 1474.53 1456.68 1457 1456.09 C 1455.96 1470.24 1456.69 1480.42 1456.9 1494.51 C 1459.37 1655.34 1324.56 1798.29 1162.88 1801.4 L 912.265 1801.43 C 894.467 1801.44 875.744 1801.89 858.479 1800.16 C 700.307 1784.25 576.748 1630.45 591.362 1472.89 C 591.387 1470.69 592.941 1453.89 590.121 1453.36 C 567.45 1449.15 538.136 1451.86 515.348 1449.14 C 384.073 1433.5 268.219 1315.97 257.45 1183.65 C 255.953 1165.25 256.9 1145.51 256.951 1127.01 L 256.99 943.207 C 256.986 914.741 256.272 887.882 259.708 859.535 C 277.837 709.975 406.846 592.633 558.661 595.008 C 570.884 595.199 584.145 596.173 596.326 595.151 L 598.023 594.998 C 598.785 578.061 598.297 558.185 597.998 541.083 C 595.299 386.863 728.661 243.609 885.001 244.928 z M 683.091 1276.97 C 715.539 1242.16 753.686 1197.38 802.729 1195.48 C 884.839 1192.07 930.772 1289.78 873.911 1349.67 C 860.619 1363.67 845.949 1369.81 829.805 1380.19 C 724.451 1447.96 760.718 1615.56 886.392 1628.82 C 912.464 1631.57 950.383 1629.36 977.921 1629.34 L 1148.4 1629.33 C 1272.37 1627.08 1327.28 1480.45 1239.62 1395.92 C 1225.04 1381.86 1209.8 1375.23 1193.17 1364.87 C 1120.05 1319.3 1145.01 1197.44 1242.07 1194.68 C 1302.15 1192.98 1331.72 1246.86 1370.16 1281.3 L 1444.9 1281.41 C 1567.36 1281.51 1617.84 1233.54 1618.01 1110.08 L 1617.97 980.961 C 1617.95 919.921 1626.2 854.106 1578.97 807.242 C 1526.63 755.316 1458.16 765.528 1390.27 766.412 C 1194.47 768.962 1344.19 570.831 1237.84 458.59 C 1187.98 407.22 1122.87 414.124 1057.34 414.962 C 1006.45 415.613 954.21 413.591 903.5 415.002 C 822.432 426.106 766.172 479.89 768.92 564.001 C 769.428 596.14 768.792 628.798 768.926 660.982 C 767.855 747.97 731.387 766.186 655.753 766.109 L 591.538 766.026 C 576.516 766.009 557.619 765.463 543.089 767.25 C 488.133 774.008 437.747 819.359 428.552 874.726 C 425.031 895.928 425.925 922.289 425.958 944.088 L 425.962 1113.21 C 425.964 1168.63 430.583 1214.51 480.577 1251.72 C 519.876 1280.98 559.975 1277.04 605.528 1277.02 L 683.091 1276.97 z" fill="rgb(0,0,0)" transform="translate(0,0)"></path>
<metadata><recraft-signature>{"signed_by": "recraft", "signature_b64": "/mnm3nC5Uwsq9tLQW4XJ/21D/TRfFvfUmwOhMjlnaLv4F0/pt9zuYtSCpaF6f64q+MbEOI0yHafkHEPIiOKpBg==", "signing_algo": "Ed25519", "generation_timestamp": 1772989327, "identifier": "b90127a3-6379-4ac1-ad4b-af095ad8d297"}</recraft-signature></metadata></svg>