<svg xmlns="http://www.w3.org/2000/svg" height="512" preserveAspectRatio="none" style="display: block;" version="1.1" viewBox="0 0 2048 2048" width="512">
<path d="M 1582.37 915.263 C 1616.71 853.668 1733.91 808.75 1801.08 799.883 C 1813.25 798.277 1864.3 789.567 1835.02 817.158 C 1784.08 865.166 1731.41 911.2 1684.27 963.181 C 1715.33 985.448 1828 1073.77 1842.98 1107.53 C 1845.33 1112.84 1842.52 1120.64 1835.71 1120.23 C 1768.58 1116.17 1658.07 1077.51 1606.06 1039.93 C 1577.98 1094.64 1506.36 1167.02 1456.25 1198.09 C 1435.5 1210.95 1415.02 1218.22 1393.27 1228.66 C 1370.39 1235.21 1348.21 1247.09 1324.11 1248.62 C 1279.52 1251.44 1232.94 1250.28 1188.16 1250.25 L 695.837 1250.23 C 627.564 1250.24 543.486 1258.99 480.303 1228.66 C 378.155 1198.17 307.919 1133.6 259.428 1039.93 C 239.777 1026.3 211.344 1025.51 204.319 997.066 C 193.826 954.573 224.331 940.235 254.736 923.607 C 468.19 806.873 805.925 791.347 1040.68 800.629 C 1188.75 806.579 1453.37 834.939 1582.37 915.263 z M 501.716 1213.12 C 552.682 1226.48 586.597 1222.85 637.85 1221.24 L 797.913 1215.24 C 886.619 1211.54 970.849 1212.29 1058.71 1216.85 C 1103.63 1219.19 1320.69 1230.77 1348.65 1216.82 C 1457.75 1195.24 1520.36 1124.89 1582.37 1039.93 C 1496.7 1091.43 1404.25 1110.38 1306.54 1126.17 C 1031.66 1170.6 649.434 1169.09 378.706 1091.57 C 352.669 1084.12 327.873 1073.31 302.126 1065.76 C 340.496 1140.32 424.464 1189.3 501.716 1213.12 z M 658.992 872.171 C 728.865 933.788 698.48 1021.2 643.873 1079.87 C 834.706 1104.08 1098.81 1103.64 1289.24 1069.27 C 1354.05 1061.63 1530.31 1026.85 1568.24 973.844 C 1500.62 908.718 1226.73 870.015 1139.05 863.219 C 1049.22 856.255 951.182 856.891 861.463 856.933 C 792.861 862.063 728.39 863.019 658.992 872.171 z M 441.876 915.263 C 399.758 925.469 294.857 961.787 259.428 988.785 C 279.435 997.805 315.117 1010.76 335.745 1015.96 C 372.07 1029.36 414.17 1040.01 452.337 1047.83 C 496.792 1021.78 494.094 929.618 441.876 915.263 z M 609.898 879.309 C 566.451 886.512 512.092 895.747 469.907 908.213 C 530.47 945.372 534.43 1001.75 501.716 1060.22 L 511.664 1060.22 C 539.045 1064.12 564.066 1069.56 592.216 1072.47 C 621.488 1052.23 650.013 1020.47 658.257 981.992 C 664.448 953.097 639.27 874.545 609.898 879.309 z" fill="rgb(56,55,56)" transform="translate(0,0)"></path>
<path d="M 501.716 1213.12 C 552.682 1226.48 586.597 1222.85 637.85 1221.24 L 797.913 1215.24 C 886.619 1211.54 970.849 1212.29 1058.71 1216.85 C 1103.63 1219.19 1320.69 1230.77 1348.65 1216.82 C 1358.77 1225.92 1380.75 1221.47 1393.27 1228.66 C 1370.39 1235.21 1348.21 1247.09 1324.11 1248.62 C 1279.52 1251.44 1232.94 1250.28 1188.16 1250.25 L 695.837 1250.23 C 627.564 1250.24 543.486 1258.99 480.303 1228.66 C 483.105 1227.12 499.381 1215.17 501.716 1213.12 z" fill="rgb(217,128,72)" transform="translate(0,0)"></path>
<path d="M 1029.32 861.522 C 1081.72 888.457 1112.9 918.398 1130.21 973.844 C 1152.26 944.935 1180.56 907.447 1154.57 872.171 C 1207.18 890.09 1231.04 925.094 1250.14 973.844 C 1274.8 942.743 1288.98 925.438 1289.24 885.785 C 1332.79 925.225 1263.88 988.772 1235.68 1015.96 C 1232.69 970.241 1217.74 940.702 1184.9 908.213 C 1176.26 955.519 1150.62 986.488 1112.95 1015.96 C 1116.42 978.728 1103.68 949.331 1079.29 921.616 C 1075.31 916.668 1070.68 912.581 1066.06 908.213 C 1056.24 954.905 1029.4 987.298 992.721 1015.96 C 999.597 969.223 979.743 939.555 947.707 908.213 L 947.548 909.494 C 941.227 958.326 911.998 987.179 874.883 1015.96 C 881.911 971.06 861.828 942.34 832.264 911.615 C 825.58 955.939 794.875 984.337 760.649 1009.96 C 766.321 962.585 734.115 921.979 707.486 885.785 C 744.765 900.785 767.807 931.96 778.963 969.764 L 783.545 965.15 C 814.763 933.091 822.216 899.89 788.336 868.194 C 841.126 890.287 878.849 915.577 893.414 973.844 C 925.551 940.24 945.264 900.788 907.354 864.808 C 937.475 866.673 988.317 919.658 1002.41 944.193 C 1005.74 949.986 1010.49 966.707 1012.86 973.844 C 1041.63 935.195 1060.09 902.4 1029.32 861.522 z" fill="rgb(56,55,56)" transform="translate(0,0)"></path>
<path d="M 422.943 936.29 C 436.479 933.644 449.598 942.469 452.249 956.004 C 454.9 969.539 446.08 982.662 432.546 985.318 C 419.005 987.976 405.874 979.15 403.221 965.607 C 400.569 952.065 409.4 938.937 422.943 936.29 z" fill="rgb(56,55,56)" transform="translate(0,0)"></path>
<metadata><recraft-signature>{"signed_by": "recraft", "signature_b64": "XnX5aWoWN2fEebZei8iH3o/LnOBX1UOzlRftCuCTGx/URjJYMyVla9Ya2n9+R/Ir7MiUzNC91p7m2wUZL8a9Cg==", "signing_algo": "Ed25519", "generation_timestamp": 1772995732, "identifier": "d352d1f5-387f-45f4-b1ef-48fba4b7716e"}</recraft-signature></metadata></svg>