<svg xmlns="http://www.w3.org/2000/svg" height="512" preserveAspectRatio="none" style="display: block;" version="1.1" viewBox="0 0 2048 2048" width="512">
<path d="M 588.001 343.001 L 1379.87 342.996 C 1561.58 342.835 1615.41 370.246 1641.21 557.9 L 1742.8 1310.22 C 1766.34 1492.15 1635.49 1674.95 1450.24 1697.62 C 1424.41 1701.93 1393.36 1700.57 1367.19 1700.53 L 732.7 1700.48 C 685.44 1700.49 630.771 1703.47 584.834 1696.01 C 433.497 1671.42 313.685 1540.41 302.727 1387.43 C 299.163 1337.69 306.287 1297.74 312.939 1248.7 L 407.667 559.187 C 411.408 531.845 413.742 503.656 419.549 476.739 C 437.745 392.392 506.853 348.946 588.001 343.001 z M 1462.2 1113.07 L 1515 1113.16 C 1526.2 1113.24 1537.91 1113.92 1549 1113.07 L 1478.69 569.947 C 1477.14 557.459 1473.5 522.248 1470.35 511.616 L 583.517 511.616 C 580.333 525.605 577.905 550.095 575.782 565.009 L 509.874 1024.57 C 508.849 1032.02 497.378 1109.07 498.611 1112.25 C 505.376 1113.41 519.854 1113.05 527.259 1113.06 L 1462.2 1113.07 z M 642.286 1536.78 L 642.286 1278.11 L 530.281 1278.08 C 514.696 1278.07 489.894 1277.14 475.264 1278.11 C 471.588 1320.38 461.302 1357.91 471.378 1400.51 C 489.442 1476.89 562.77 1537.37 642.286 1536.78 z" fill="rgb(0,0,0)" transform="translate(0,0)"></path>
<path d="M 642.286 1278.11 L 1571.62 1278.11 C 1573.97 1301.17 1578.17 1327.73 1579.75 1350.08 C 1586.53 1445.96 1503.32 1527.83 1411.1 1535.92 C 1387.03 1538.03 1350.8 1536.79 1325.47 1536.79 L 642.286 1536.78 L 642.286 1278.11 z" fill="rgb(171,170,170)" transform="translate(0,0)"></path>
<metadata><recraft-signature>{"signed_by": "recraft", "signature_b64": "FB8us2CBSz+11mDpNSw3z/Fx3PFaVIUAKYWGgclULAM+J9C4MxIKmfCHDty8gdxPFMULDt73QnR1NnTkGo8aCw==", "signing_algo": "Ed25519", "generation_timestamp": 1772998880, "identifier": "03d612a6-7d87-41b3-ba98-39a2e1c7134a"}</recraft-signature></metadata></svg>