<svg xmlns="http://www.w3.org/2000/svg" height="512" preserveAspectRatio="none" style="display: block;" version="1.1" viewBox="0 0 2048 2048" width="512">
<path d="M 1023.02 137.31 C 1088.17 142.826 1074.23 208.463 1074.22 257.335 L 1074.19 412.001 L 1555.24 411.979 C 1593.69 411.98 1674.62 405.154 1660.86 470.277 C 1651.86 512.902 1615.33 510.78 1578.92 510.781 L 1246.58 510.782 C 1258.31 519.566 1271.82 527.23 1284.26 535.134 C 1365.29 586.015 1450.59 634.589 1530.51 686.645 C 1559.25 705.368 1598 720.136 1584.11 763.612 C 1565.48 818.854 1510.06 787.456 1478.95 768.291 L 1094.22 531.382 C 1088.1 527.568 1082.01 523.702 1075.5 520.596 L 1074.19 519.981 C 1071.15 549.719 1074.21 592.624 1074.21 623.915 L 1074.19 1689.17 C 1074.19 1721.65 1075.12 1758.87 1074.19 1791 C 1097.64 1792.27 1135.22 1791.02 1159.66 1791.02 L 1331 1791 L 1331 1890.57 C 1302.63 1892.01 1260.07 1890.6 1230.2 1890.59 L 1023.02 1890.57 L 720.661 1890.57 L 720.661 1791 L 890.36 1791 C 917.668 1791 949.15 1791.9 976.06 1791 L 976.059 659.698 C 976.061 614.629 977.176 564.73 976.06 519.981 C 955.478 528.827 930.067 545.919 910.683 558.144 L 553.638 778.995 C 462.462 836.566 446.389 736.596 483.173 707.999 C 506.382 689.638 543.438 670.767 569.531 654.751 L 719.702 562.236 C 746.756 545.556 776.376 528.109 802.792 510.782 C 783.64 512.59 754.292 510.801 734.298 510.786 L 483.901 510.762 C 445.138 510.753 387.894 520.325 382.649 463.867 C 377.046 403.554 454.443 411.99 491.25 411.978 L 976.06 412.001 C 976.932 396.144 976.093 371.495 976.078 354.847 L 976.028 190.651 C 975.864 157.624 990.587 141.735 1023.02 137.31 z" fill="rgb(1,1,0)" transform="translate(0,0)"></path>
<metadata><recraft-signature>{"signed_by": "recraft", "signature_b64": "LH+Evij8Lamovg4soZ6jeN+PzBs69YZdoEG5AphB+wO5yKwzX1v4zf1jCCxaZzcxOWTzjkBTN02U0PQXVQQqBw==", "signing_algo": "Ed25519", "generation_timestamp": 1772996404, "identifier": "de7b17d7-f613-46b5-b461-f75b59b5925f"}</recraft-signature></metadata></svg>