<svg xmlns="http://www.w3.org/2000/svg" height="512" preserveAspectRatio="none" style="display: block;" version="1.1" viewBox="0 0 2048 2048" width="512">
<path d="M 721.75 448.52 L 1532.7 448.502 C 1564.25 448.471 1601.92 446.769 1632.45 450.084 C 1730.66 460.75 1726.74 561.529 1726.76 632.671 L 1726.74 1613.87 C 1726.77 1643.85 1732.54 1682.09 1709.78 1705.83 C 1686.02 1730.63 1644.64 1732.82 1619.83 1708.37 C 1598.26 1687.13 1601.97 1660.09 1602 1632.85 L 1602.04 575.797 L 879.25 575.797 L 448.202 575.797 L 448.202 1023.85 L 1469.99 1023.85 L 1469.99 1154 L 464.996 1154.03 C 381.419 1153.99 321.875 1118.6 321.055 1028.56 L 320.985 609.267 C 320.971 540.306 329.655 462.197 417.874 450.498 C 447.992 446.504 489.21 448.522 520.73 448.522 L 721.75 448.52 z" fill="rgb(0,0,0)" transform="translate(0,0)"></path>
<metadata><recraft-signature>{"signed_by": "recraft", "signature_b64": "mPgNbVbP+1pjtfx1k/PEmGhQRhPypo0jtB/XAuTsUwvmKxu8SNEFqps4HxMhq3Jx4Jre3DEXqYKEEbTBU22RAA==", "signing_algo": "Ed25519", "generation_timestamp": 1772997088, "identifier": "1d790c69-6350-400e-a001-559ae2408b85"}</recraft-signature></metadata></svg>