<svg xmlns="http://www.w3.org/2000/svg" height="512" preserveAspectRatio="none" style="display: block;" version="1.1" viewBox="0 0 2048 2048" width="512">
<path d="M 1434.54 1407.92 C 1752.24 1398.86 1712.98 1793.37 1470.08 1791 L 612.5 1790.96 C 543.889 1791.22 488.424 1786.11 438.505 1733.88 C 332.066 1622.53 391.539 1436.04 544.712 1410.9 C 577.195 1405.57 615.287 1407.91 648.616 1407.93 L 1434.54 1407.92 z M 1075.5 1620.94 C 1090.56 1620.32 1099.31 1620.13 1114.25 1620.94 C 1142.93 1620.19 1174.75 1620.97 1203.72 1620.97 L 1379.97 1620.91 C 1409.94 1620.9 1450.07 1624.1 1478.74 1620.94 C 1489.26 1613.56 1490.05 1610.58 1493.68 1598.4 C 1489.9 1584.15 1479.51 1569.68 1462.75 1576.03 C 1384.49 1583.36 1302.29 1593.27 1223.84 1601.98 L 1138.93 1611.84 C 1117.77 1614.33 1096.21 1616.2 1075.5 1620.94 z M 953.218 1620.94 C 960.414 1620.68 967.24 1621.05 974.358 1620.94 C 946.728 1614.82 908.288 1611.71 879.569 1608.64 L 629.991 1581.32 C 616.338 1579.8 585.401 1575.27 572.974 1576.03 C 545.082 1584.41 548.58 1621.89 578.552 1620.86 L 894.156 1620.92 C 912.371 1620.91 935.423 1621.47 953.218 1620.94 z" fill="rgb(0,0,0)" transform="translate(0,0)"></path>
<path d="M 840.076 765.001 C 857.746 763.794 885.009 764.966 903.61 764.984 L 1141.09 764.972 C 1178.12 764.868 1219.6 756.567 1245.33 789.577 C 1323.29 889.622 1404.71 987.213 1483.32 1086.69 L 1538.16 1155.28 C 1562.13 1185.11 1583.3 1205 1578.86 1246.17 C 1574.16 1293.06 1529.69 1326.25 1483.44 1321.06 C 1438.84 1316.06 1412.87 1272.26 1386.82 1239.51 L 1308.77 1141.2 C 1264.29 1084.55 1216.6 1029.04 1172.18 972.449 C 1162.56 960.504 1151.13 946 1140.76 934.973 L 905.395 934.973 C 898.899 941.754 887.761 956.87 881.437 964.833 L 674.208 1225.98 C 647.251 1259.45 622.246 1306.45 580.572 1319.1 C 534.424 1333.12 484.474 1306.42 471.855 1259.52 C 456.811 1204.81 494.418 1173.09 525.482 1134.65 L 632.573 1002.9 C 689.875 932.24 747.64 862.028 803.493 790.202 C 813.8 776.946 823.568 769.103 840.076 765.001 z" fill="rgb(0,0,0)" transform="translate(0,0)"></path>
<path d="M 1007.07 173.757 C 1133.61 164.367 1243.89 259.132 1253.65 385.645 C 1263.42 512.157 1168.98 622.718 1042.49 632.852 C 915.482 643.027 804.36 548.108 794.558 421.068 C 784.755 294.028 880.001 183.186 1007.07 173.757 z" fill="rgb(0,0,0)" transform="translate(0,0)"></path>
<metadata><recraft-signature>{"signed_by": "recraft", "signature_b64": "KZcpUZ1cykm67ccga5HEZNC9zWs6GbQMwHAt4xKRdt0EGOG1Jl2h1dDM1E1AQjxj6yevYX/NyylYepXsO+GuCQ==", "signing_algo": "Ed25519", "generation_timestamp": 1772999080, "identifier": "f08c13b0-401e-4f4b-86be-231b71492232"}</recraft-signature></metadata></svg>