<svg xmlns="http://www.w3.org/2000/svg" height="512" preserveAspectRatio="none" style="display: block;" version="1.1" viewBox="0 0 2048 2048" width="512">
<path d="M 303.793 411.188 L 1687.98 411.152 C 1770.82 411.143 1765.83 402.178 1765.83 493.803 L 1765.83 1610.38 C 1765.8 1623.81 1760.07 1633.08 1746.25 1634.15 L 351.835 1634.17 C 333.48 1634.21 314.26 1634.81 296.012 1634.15 C 274.261 1620.41 283.49 1548.02 283.493 1521.18 L 283.524 511.426 C 283.521 484.422 283.583 457.154 283.216 430.137 C 283.06 418.614 294.378 413.292 303.793 411.188 z M 329.259 864.547 L 847.069 864.64 C 851.697 864.662 869.221 865.956 871.928 864.547 L 871.928 457.324 L 329.259 457.324 L 329.257 720.641 C 329.26 767.646 328.241 817.872 329.259 864.547 z M 1177.79 864.547 L 1718.52 864.547 L 1718.52 457.324 L 1177.79 457.324 L 1177.79 864.547 z M 329.259 1183.02 L 329.259 1588.52 L 562.75 1588.52 L 871.928 1588.52 L 871.923 1318.66 C 871.922 1274.51 871.01 1226.88 871.928 1183.02 L 635.067 1183.02 L 329.259 1183.02 z M 917.042 457.324 L 917.042 563.04 C 920.651 578.148 925.24 552.478 930.615 570.507 L 932.675 569.334 C 932.746 565.208 932.85 563.707 933.649 559.641 L 933.847 558.665 C 933.973 524.6 934.143 492.846 935.802 458.876 L 933.847 457.324 L 917.042 457.324 z M 1718.52 1183.02 C 1685.5 1182.02 1646.94 1183.02 1613.42 1183.02 L 1253.1 1183 C 1231.27 1182.98 1198.33 1181.79 1177.79 1183.02 L 1177.77 1544.07 C 1177.77 1558.15 1177.08 1574.8 1177.79 1588.52 L 1718.52 1588.52 L 1718.52 1183.02 z" fill="rgb(0,0,0)" transform="translate(0,0)"></path>
<path d="M 951.28 457.324 L 1131.41 457.324 L 1131.42 842.035 C 1131.42 856.609 1129.78 888.625 1134.16 900.741 C 1142.67 909.691 1144.48 909.965 1157.44 910.004 L 1650.27 910.022 L 1718.52 910.022 L 1718.52 1136.89 L 1144.4 1136.89 C 1124.97 1149.54 1131.18 1169.51 1131.32 1190.27 L 1131.41 1588.52 L 1037.34 1588.52 L 917.042 1588.52 L 917.057 1282.13 C 917.056 1237.06 917.839 1189 917.042 1144.14 C 912.841 1140.45 910.657 1139.5 905.807 1136.89 C 843.661 1135.6 776.595 1136.87 713.907 1136.87 L 329.259 1136.89 L 329.259 928.256 L 329.259 910.022 L 829.986 910.056 C 896.786 910.059 917.301 927.167 917.178 856.67 L 917.042 791.647 L 917.042 563.04 C 920.651 578.148 925.24 552.478 930.615 570.507 L 932.675 569.334 C 932.746 565.208 932.85 563.707 933.649 559.641 L 933.847 558.665 C 933.973 524.6 934.143 492.846 935.802 458.876 L 933.847 457.324 L 951.28 457.324 z" fill="rgb(213,212,212)" transform="translate(0,0)"></path>
<path d="M 1650.27 910.022 L 1718.52 910.022 L 1718.52 1136.89 L 1144.4 1136.89 C 1124.97 1149.54 1131.18 1169.51 1131.32 1190.27 L 1131.41 1588.52 L 1037.34 1588.52 C 1080.26 1551.19 1078.73 1514.23 1083.09 1461.72 C 1091.49 1360.37 1080.51 1256.35 1089 1155.42 C 1094.67 1088.06 1167.06 1093.46 1216.64 1092.4 C 1263.59 1091.41 1312.27 1092.82 1360.5 1094.12 L 1455.79 1096.3 C 1506.54 1097.95 1600.36 1109.55 1642.7 1078.88 C 1705.05 1033.7 1666.87 954.875 1679.79 910.022 C 1673.73 910.28 1654.11 912.76 1650.27 910.022 z" fill="rgb(191,190,190)" transform="translate(0,0)"></path>
<path d="M 329.259 928.256 C 330.349 930.157 329.285 964.636 329.277 969.492 L 329.259 1094.51 C 383.451 1092.34 437.332 1091.38 491.489 1091.35 L 769.672 1092 C 810.543 1092.01 913.84 1085.69 917.042 1144.14 C 912.841 1140.45 910.657 1139.5 905.807 1136.89 C 843.661 1135.6 776.595 1136.87 713.907 1136.87 L 329.259 1136.89 L 329.259 928.256 z" fill="rgb(191,190,190)" transform="translate(0,0)"></path>
<path d="M 951.28 457.324 L 1131.41 457.324 L 1131.42 842.035 C 1131.42 856.609 1129.78 888.625 1134.16 900.741 C 1101.09 895.179 1091.82 909.403 1089.1 863.44 C 1082.69 755.344 1087.62 633.837 1087.68 524.774 C 1087.73 502.179 1090.03 480.049 1089.51 457.324 C 1081.17 457.982 1062.87 457.385 1054.03 457.372 L 979.25 457.375 C 974.567 457.409 953.762 458.653 951.28 457.324 z" fill="rgb(191,190,190)" transform="translate(0,0)"></path>
<path d="M 917.042 563.04 C 920.651 578.148 925.24 552.478 930.615 570.507 L 932.675 569.334 C 932.746 565.208 932.85 563.707 933.649 559.641 L 933.847 558.665 C 935.114 604.973 937.099 781.382 926.129 810.213 C 909.09 798.982 927.161 801.501 919.109 790.489 L 917.042 791.647 L 917.042 563.04 z" fill="rgb(191,190,190)" transform="translate(0,0)"></path>
<metadata><recraft-signature>{"signed_by": "recraft", "signature_b64": "NDhRgJwF+0JawoBbxaVXC5IQTezhgyMZdtyXCLdzq0/pAMasGQSQbV4Cwc86/fZ6hhWOrqsG2l2RRysjVSyYDQ==", "signing_algo": "Ed25519", "generation_timestamp": 1773000801, "identifier": "09df421a-e316-43e5-809c-cc9f85d4b342"}</recraft-signature></metadata></svg>