<svg xmlns="http://www.w3.org/2000/svg" height="512" preserveAspectRatio="none" style="display: block;" version="1.1" viewBox="0 0 2048 2048" width="512">
<path d="M 458.127 291.52 C 459.685 291.412 461.443 291.268 463 291.276 L 1548.76 291.46 C 1562.3 291.396 1575.95 290.99 1589.47 291.551 C 1676.65 295.174 1752.16 371.799 1752.94 459.017 L 1753.01 1258.64 C 1753.07 1333.8 1761.52 1392.13 1703.08 1450.51 C 1650.59 1502.93 1602.12 1502.35 1533.7 1502.28 L 1148.91 1502.26 C 1152.37 1520.29 1158.24 1539.11 1163.4 1556.84 L 1183.27 1624.51 C 1189.28 1644.42 1198.4 1665.93 1199.03 1686.8 C 1201.21 1758.97 1098.02 1777.79 1071.78 1711.18 C 1046.02 1645.77 1030.08 1562.71 1008.07 1493.94 C 994.635 1451.97 973.316 1397.03 1033.51 1375.09 C 1053.73 1367.72 1123.61 1371.01 1149.01 1371.01 L 1535.78 1371.03 C 1560.35 1371.03 1615.46 1377.54 1618.62 1341.42 C 1623.48 1285.76 1619.99 1229.18 1620.49 1173.41 L 1620.96 649.5 L 1621.02 523.77 C 1621.04 447.243 1635.03 422.928 1549.99 422.933 L 475.475 423.062 C 431.515 425.209 427.279 442.385 426.913 484.304 L 427.376 1321.48 C 427.654 1381.01 483.315 1371 524.709 1370.97 L 667.951 1370.93 C 691.608 1370.93 721.397 1369.65 744.219 1372.33 C 775.99 1376.06 801.7 1410.93 793.98 1442.5 C 782.182 1490.75 764.493 1537.61 749.867 1585.08 C 738.78 1620.86 725.156 1682.97 710.001 1715.05 C 686.832 1764.1 620.673 1765.63 592.045 1720.99 C 573.203 1691.6 588.748 1658.72 598.175 1628.45 L 620.364 1555.74 C 625.221 1540.17 632.391 1519.6 635.947 1504.08 L 636.357 1502.26 L 530.079 1502.25 C 461.776 1502.32 416.658 1508.4 358.096 1460.75 C 296.497 1410.63 295.03 1350.57 295.714 1280.43 L 295.737 493.913 C 295.776 383.061 336.721 301.324 458.127 291.52 z" fill="rgb(0,0,0)" transform="translate(0,0)"></path>
<path d="M 869.902 588.726 C 968.235 576.301 1058.06 645.848 1070.65 744.159 C 1083.24 842.47 1013.85 932.411 915.558 945.17 C 817.031 957.96 726.826 888.363 714.204 789.814 C 701.581 691.266 771.333 601.18 869.902 588.726 z M 898.511 809.103 C 923.893 806.291 942.303 783.602 939.826 758.186 C 937.35 732.769 914.908 714.06 889.461 716.2 C 872.697 717.609 857.988 727.93 850.962 743.215 C 843.935 758.5 845.677 776.384 855.522 790.026 C 865.367 803.668 881.791 810.956 898.511 809.103 z" fill="rgb(0,0,0)" transform="translate(0,0)"></path>
<path d="M 865.705 980.961 C 1013.76 969.297 1161.97 1075.66 1182.47 1225.31 C 1188.09 1266.37 1151.49 1300.33 1111.14 1295.79 C 1057.04 1290.64 1058.3 1257.84 1044.59 1216.21 C 1028.7 1169.2 969.451 1120.09 919.766 1116.88 C 841.708 1102.13 762.743 1145.27 735.468 1221.45 C 729.098 1237.77 728.254 1257.46 717.728 1271.9 C 684.951 1317.6 589.922 1301.95 603.055 1218.09 C 624.02 1084.2 736.059 996.674 865.705 980.961 z" fill="rgb(0,0,0)" transform="translate(0,0)"></path>
<path d="M 1388.75 620.395 C 1438.26 614.016 1477.93 670.667 1454.35 714.861 C 1439.65 740.857 1378.29 800.406 1348.8 808.992 C 1288.58 813.851 1248.05 744.476 1288.88 697.049 C 1313.86 669.607 1352.62 624.352 1388.75 620.395 z" fill="rgb(0,0,0)" transform="translate(0,0)"></path>
<path d="M 1327.78 930.342 C 1367.26 924.479 1386.84 953.655 1411.96 978.384 C 1428.11 994.293 1453.88 1015.66 1459.17 1037.9 C 1468.29 1076.22 1441.5 1107.31 1405.58 1116.88 C 1355.68 1122.87 1311.07 1064.47 1280.61 1029.19 C 1254.78 992.091 1279.38 938.406 1327.78 930.342 z" fill="rgb(0,0,0)" transform="translate(0,0)"></path>
<metadata><recraft-signature>{"signed_by": "recraft", "signature_b64": "ewpSpUvLVFN0WYCG3zolLa8U18xa8iMZFwdM8xRtl1jSpb8q5p/5le1OfSlgV1CM7mENGxVQOY4RQlee6ZR6Bg==", "signing_algo": "Ed25519", "generation_timestamp": 1772989309, "identifier": "6929393d-2295-4770-98bc-ad952fde7854"}</recraft-signature></metadata></svg>