<svg xmlns="http://www.w3.org/2000/svg" height="512" preserveAspectRatio="none" style="display: block;" version="1.1" viewBox="0 0 2048 2048" width="512">
<path d="M 496.357 256.356 C 507.433 255.483 528.504 256.295 540.548 256.31 L 746.514 256.319 C 776.917 256.307 808.099 255.072 838.002 259.799 C 929.86 274.319 1001.88 348.739 1020.58 438.743 C 1025.65 463.109 1022.84 494.066 1022.82 519.488 L 1022.8 762.541 C 1022.93 784.664 1024.76 806.303 1021.55 828.397 C 1004.14 948.425 917.898 1002.4 810.244 1025 L 608.452 1024.96 C 514.07 1025.01 435.951 1033.92 359.177 963.703 C 287.782 898.403 282.946 837.777 282.976 748.029 L 282.97 530.316 C 282.958 499.392 280.769 464.627 287.473 434.733 C 310.743 330.96 391.71 263.622 496.357 256.356 z" fill="rgb(0,0,0)" transform="translate(0,0)"></path>
<path d="M 510.529 397.312 L 767.507 397.296 C 874.651 397.521 877.579 432.775 877.486 521.454 L 877.498 735.466 C 877.506 807.373 879.969 862.456 797.248 878.75 C 781.134 879.556 757.847 878.798 741.291 878.786 L 552.411 878.829 C 499.103 878.882 431.735 871.664 429.131 800.444 C 428.192 774.772 428.335 749.528 428.324 723.87 L 428.34 508.316 C 428.38 449.188 434.698 402.354 510.529 397.312 z" fill="rgb(234,235,234)" transform="translate(0,0)"></path>
<path d="M 1220.93 547.967 C 1328.06 543.731 1441.08 547.49 1537.38 599.727 C 1676.04 674.942 1760.96 813.508 1761.94 973.205 C 1762.2 1016.26 1766.83 1107.44 1759.97 1146.89 C 1749.16 1209 1692.43 1207.02 1646.06 1206.99 L 1545.75 1206.97 C 1420.96 1206.98 1292.81 1205.42 1168.28 1206.97 C 1167.7 1220.78 1168.25 1238.39 1168.25 1252.55 L 1168.32 1719.5 C 1168.37 1735.47 1169.71 1753.9 1167.74 1769.31 C 1160.06 1829.47 1086.16 1853.96 1043.16 1810.96 C 1019.08 1786.88 1022.58 1762.12 1022.71 1732.06 L 1022.81 1678.93 C 1002.91 1677.22 982.705 1678.83 962.696 1678.91 C 811.55 1679.45 671.87 1595.85 594.855 1466.22 C 550.365 1399.99 538.702 1304.3 537.181 1227 C 535.974 1165.64 603.868 1132.92 652.408 1167.9 C 689.59 1194.23 683.634 1237.67 685.781 1277.67 C 692.86 1409.56 803.005 1521.91 934.382 1533.07 C 962.735 1535.48 993.883 1534.2 1022.81 1534.06 L 1022.42 1141.37 C 1021.78 1065.92 1090.99 1062.37 1146.42 1062.45 L 1618.05 1062.51 C 1618.17 952.305 1625.61 866.666 1541.46 781.069 C 1403.56 640.8 1240.73 718.994 1182.06 677.409 C 1128.12 639.185 1148.14 558.686 1220.93 547.967 z" fill="rgb(0,0,0)" transform="translate(0,0)"></path>
<path d="M 1485.97 1445.29 C 1532.4 1442.06 1567.96 1494.46 1598.35 1525.21 C 1608.91 1537.08 1622.38 1547.7 1631.37 1560.81 C 1660.88 1603.88 1630.31 1656.04 1580.34 1664.96 C 1545.67 1665.71 1537.55 1655.57 1514.26 1632.79 L 1479.68 1599 C 1459.59 1579.08 1427.29 1555.19 1423.96 1525.81 C 1419.37 1485.27 1445.52 1451.38 1485.97 1445.29 z" fill="rgb(6,137,214)" transform="translate(0,0)"></path>
<metadata><recraft-signature>{"signed_by": "recraft", "signature_b64": "7qZ1gOyJmv3inxzBnWKtxYrpwuFU7w5CxAyaWAzFWUIPiRsWaBp3NGK1m/HgvXRMh/QUW09Fv7nApSFka95PDw==", "signing_algo": "Ed25519", "generation_timestamp": 1772989429, "identifier": "83d1b6d8-7a2b-434f-9b79-48d5baa17c0e"}</recraft-signature></metadata></svg>