<svg xmlns="http://www.w3.org/2000/svg" height="512" preserveAspectRatio="none" style="display: block;" version="1.1" viewBox="0 0 2048 2048" width="512">
<path d="M 561.999 497.828 L 1501.15 497.828 C 1583.65 497.828 1693.44 480.748 1755.4 541.166 C 1814.6 598.883 1800.53 691.589 1800.95 769.058 L 1801.02 1336.11 C 1801.11 1406.85 1806.51 1449.4 1752.47 1504.22 C 1704.48 1552.89 1653.55 1546.05 1591.87 1546.05 L 1485.75 1546 L 422.474 1546.04 C 327.892 1546.02 249.556 1496.25 249.047 1392.04 L 249.09 706.96 C 249.035 641.457 243.681 591.062 294.351 540.258 C 341.529 492.953 392.576 497.792 453.438 497.799 L 561.999 497.828 z M 1668.74 1474 C 1746.97 1426.31 1730.53 1400.93 1730.49 1314.22 L 1730.52 709.579 C 1730.57 606.144 1724.85 568.964 1609.01 569.417 L 422.538 569.376 C 414.595 569.347 401.209 568.905 393.661 569.485 C 324.738 576.224 321.383 629.494 321.516 681.044 L 321.525 1355.19 C 321.603 1479.55 362.406 1474.07 470.711 1474.04 L 1652.68 1473.8 C 1657.35 1473.76 1664.73 1474.31 1668.74 1474 z" fill="rgb(0,0,0)" transform="translate(0,0)"></path>
<path d="M 514.42 785.683 C 615.273 785.968 592.152 772.844 621.498 878.342 L 665.306 1031.28 C 671.444 1052.06 680.568 1086.8 688.123 1106.09 L 688.85 1107.92 C 696.685 1087.44 704.86 1056.77 711.375 1035.3 L 762.847 860.912 C 781.664 799.097 767.974 786.466 829.068 785.604 C 902.488 784.568 890.228 791.002 890.173 855.717 L 890.575 1228.93 C 890.981 1267.55 856.822 1261.09 826.966 1258.49 C 811.563 1244.09 814.831 1227.6 814.923 1208.1 L 815.02 983.996 C 814.726 968.49 814.391 957.423 815.02 941.946 C 802.657 974.116 795.756 1003.06 786.149 1035.99 L 748.976 1160.49 C 743.369 1179.47 726.462 1245.57 715.882 1258.49 C 649.371 1269.01 654.521 1249.56 638.505 1194.97 L 587.875 1023.53 C 579.843 996.485 566.279 951.72 561.999 924.367 C 561.381 949.64 561.967 977.091 561.975 1002.6 L 562.179 1207.6 C 562.879 1259.94 565.342 1258.4 509.091 1258.78 C 478.793 1258.99 488.013 1199.5 488.007 1178.26 L 487.768 812.947 C 487.758 794.728 495.593 784.656 514.42 785.683 z" fill="rgb(0,0,0)" transform="translate(0,0)"></path>
<path d="M 1400.56 783.012 C 1448.57 777.61 1507.65 800.514 1534.84 840.268 C 1549.58 861.826 1575.34 917.885 1546.07 937.536 C 1532.44 937.657 1518.44 937.68 1504.49 937.698 C 1475.96 938.597 1484.69 912.15 1477.1 893.165 C 1441.8 804.888 1300.88 884.275 1363.91 947.057 C 1403.07 986.071 1484.06 1001 1529.84 1045.68 C 1604.1 1118.15 1543.87 1258.01 1435.25 1258.49 C 1358.13 1262.06 1284.53 1233.23 1272.58 1148.53 C 1271.12 1138.2 1269.1 1122.82 1276.14 1114.16 C 1284.45 1103.95 1333.87 1105.18 1341.82 1110.74 C 1348.08 1115.1 1342.12 1150.64 1366.48 1171.23 C 1405.66 1204.36 1493.94 1189.03 1484.87 1126.63 C 1474.11 1052.63 1291 1056.33 1275.06 933.01 C 1264.08 848.054 1319.7 793.322 1400.56 783.012 z" fill="rgb(0,0,0)" transform="translate(0,0)"></path>
<path d="M 1003.78 785.683 C 1065.08 784.044 1132.5 784.579 1194.12 785.792 C 1207.34 786.053 1215.52 790.499 1216.16 804.618 C 1219.21 872.282 1215.32 860.953 1149.66 860.971 L 1057.62 860.955 L 1057.62 965.51 C 1102.05 965.023 1147.19 965.534 1191.68 965.51 C 1210.93 977.726 1205.94 992.66 1207.19 1012.53 C 1209.92 1050.77 1175.39 1039.46 1143.52 1039.26 L 1057.62 1039.1 L 1057.62 1126.5 L 1057.62 1185.99 C 1074.63 1185.02 1092.52 1185.88 1109.7 1185.93 L 1202.78 1185.99 C 1221.69 1195.73 1216.51 1232.24 1212.87 1249.68 C 1211.3 1252.82 1209.07 1255.64 1207 1258.49 C 1197.31 1259.06 1183.6 1258.46 1173.61 1258.45 L 1006.15 1258.55 C 971.953 1258.41 983.264 1195.29 983.269 1169.9 L 983.221 880.453 C 983.212 851.251 971.655 793.432 1003.78 785.683 z" fill="rgb(0,0,0)" transform="translate(0,0)"></path>
<metadata><recraft-signature>{"signed_by": "recraft", "signature_b64": "9ZrdvpmvSV8q4bncAoW+DAtkm2dL9Kli7kK+9UqgSVTYHdkPXOObFqN3k9K4pZ8TPSGCgHsuCdfD5cX4lct6Dw==", "signing_algo": "Ed25519", "generation_timestamp": 1772997667, "identifier": "803dbdb3-01a5-4956-98e6-d4c7c37fc241"}</recraft-signature></metadata></svg>