<svg xmlns="http://www.w3.org/2000/svg" height="512" preserveAspectRatio="none" style="display: block;" version="1.1" viewBox="0 0 2048 2048" width="512">
<path d="M 354.829 310.112 L 1654.11 310.07 C 1683.92 310.033 1737.47 303.202 1737.19 349.669 L 1736.94 1643.6 C 1736.98 1684.27 1747.61 1736.72 1688.84 1737.27 L 410.306 1737.31 C 323.274 1737.68 312.432 1739.95 312.436 1656.17 L 312.475 440.284 C 312.463 394.59 295.318 316.21 354.829 310.112 z M 759.472 759.436 L 759.472 1284.62 L 1226.5 1284.62 L 1288.67 1284.62 L 1288.67 759.436 L 817.33 759.436 L 759.472 759.436 z M 759.472 1640.02 L 1285.25 1640.02 L 1287.51 1639.5 C 1289.54 1635.29 1288.67 1554.48 1288.67 1543.14 L 1288.67 1379.85 C 1231.23 1380.6 1171.81 1379.85 1114.24 1379.84 L 763.864 1379.85 L 760.489 1380.15 C 758.225 1383.2 759.477 1430.11 759.489 1437.81 L 759.472 1640.02 z M 1384.99 1379.85 L 1384.99 1640.02 L 1557.31 1640.04 C 1580.93 1640.04 1618.61 1641.45 1640.52 1640.02 C 1641.49 1613.24 1640.52 1580.94 1640.51 1553.71 L 1640.52 1379.85 L 1384.99 1379.85 z M 663.01 1379.85 L 412.908 1379.85 L 408.991 1380.19 C 405.958 1383.86 407.813 1613.11 407.811 1640.02 L 659.251 1640.02 L 662.034 1639.67 C 663.815 1636.96 663.015 1566.92 663.017 1557.36 L 663.01 1379.85 z M 1384.99 404.958 C 1383.83 407.276 1385.15 639.92 1384.99 663.98 L 1640.52 663.98 C 1642.31 655.344 1640.52 608.324 1640.52 596.53 L 1640.52 404.958 L 1384.99 404.958 z M 663.01 663.98 C 664.389 641.353 662.944 602.925 662.94 578.94 L 663.01 404.958 L 407.811 404.958 L 407.811 663.98 C 433.728 663.036 465.55 663.979 491.995 663.984 L 663.01 663.98 z M 1384.99 1284.62 L 1640.52 1284.62 L 1640.52 759.436 L 1470.24 759.407 C 1443.17 759.402 1411.8 758.63 1384.99 759.436 C 1385.67 778.225 1385 798.728 1384.99 817.781 L 1384.99 1284.62 z M 1288.67 663.98 L 1288.66 489.151 C 1288.65 463.173 1286.68 430.129 1288.67 404.958 L 759.472 404.958 L 759.472 663.98 L 1288.67 663.98 z M 659.251 1284.62 L 661.851 1284.27 C 664.023 1279.54 662.983 1127.67 662.988 1110.26 L 663.01 759.436 L 412.908 759.436 L 410.191 760.469 C 405.241 774.118 407.817 907.08 407.82 932.876 L 407.811 1284.62 L 574.898 1284.59 C 601.729 1284.58 632.66 1283.83 659.251 1284.62 z" fill="rgb(39,50,69)" transform="translate(0,0)"></path>
<metadata><recraft-signature>{"signed_by": "recraft", "signature_b64": "c+ih8brxvSJqUIHvTHKVYkLziBIQiXtcIn1rvEaeWJB6YkBcYApLItzPzXUtd66Y6oow/ouGOzyylk/Zb9b+Dw==", "signing_algo": "Ed25519", "generation_timestamp": 1772999397, "identifier": "54732c1d-e692-4dd6-adb1-f0081bbfddb7"}</recraft-signature></metadata></svg>