<svg xmlns="http://www.w3.org/2000/svg" height="512" preserveAspectRatio="none" style="display: block;" version="1.1" viewBox="0 0 2048 2048" width="512">
<path d="M 384.801 354.998 C 388.999 354.544 403.243 354.898 407.954 354.903 L 1610.61 354.96 C 1628.1 354.963 1650.16 354 1667.19 356.014 C 1739.49 364.557 1727.21 447.691 1727.15 498.969 L 1727.27 1382.52 C 1727.39 1424.46 1727.91 1452.62 1689.3 1478.78 L 1460.44 1631.57 C 1436.46 1647.97 1411.99 1664.56 1387.76 1680.78 C 1331.58 1718.39 1267.36 1663.8 1282.3 1602.22 C 1290.66 1567.76 1321.41 1557.32 1347.45 1538.44 C 1371.35 1522.91 1396.46 1504.42 1420.65 1490.12 L 428.255 1490.19 C 339.051 1490.55 321.114 1469.35 321.213 1385.52 L 321.282 494.753 C 321.215 436.357 307.203 367.421 384.801 354.998 z M 464.49 496.142 L 464.49 1349.1 L 1525.75 1349.1 C 1539.35 1349.14 1573.62 1350.24 1585.02 1349.1 C 1585.83 1319.08 1585.02 1285.75 1585.02 1255.39 L 1585.02 496.142 L 519.496 496.142 C 501.273 496.257 482.681 496.526 464.49 496.142 z" fill="rgb(0,0,0)" transform="translate(0,0)"></path>
<metadata><recraft-signature>{"signed_by": "recraft", "signature_b64": "dCZAMjYy6UDPl7vjIxVsK/1yrb9Bma/hhZDulXJ675697NIMBzN5iMvrjXw+cEcZxfnY+0Za1BmoYNRM7mntBQ==", "signing_algo": "Ed25519", "generation_timestamp": 1772995935, "identifier": "c4497ebb-60c5-426a-84dc-a17b1c73f3a0"}</recraft-signature></metadata></svg>