<svg xmlns="http://www.w3.org/2000/svg" height="512" preserveAspectRatio="none" style="display: block;" version="1.1" viewBox="0 0 2048 2048" width="512">
<path d="M 1529.83 239.291 C 1571.12 235.349 1588.6 264.054 1609.32 293.252 C 1732.94 467.477 1736.99 593.293 1737 790.958 L 1737.02 1280.68 C 1737.02 1472.03 1722.36 1587.57 1601.16 1752.25 C 1540.88 1836.06 1509.16 1802.41 1428.02 1759.5 L 862.61 1460.39 L 394.897 1214.64 C 317.494 1173.82 310.108 1171.99 310.016 1087.81 L 309.989 948.771 C 310.012 907.171 313.255 872.198 354.735 848.654 C 411.02 816.706 470.365 788.963 527.851 759.029 L 1447.77 275.379 C 1472.57 262.536 1503.15 244.167 1529.83 239.291 z M 841.479 759.89 L 841.479 1284.18 C 850.724 1290.99 893.757 1312.18 906.877 1319.25 L 1054.09 1397.17 C 1076.81 1409.08 1101.14 1420.85 1123.37 1433.31 L 1455.46 1607.21 C 1471.52 1615.63 1494.21 1627.83 1511.1 1634.06 C 1585.41 1499.55 1588.66 1448.7 1588.64 1302.79 L 1588.51 684.775 C 1588.22 592.843 1565.47 501.194 1520.24 420.969 C 1518.22 417.374 1513.81 407.56 1511.1 405.122 C 1482.8 422.456 1446.67 440.739 1417.06 456.115 L 950.936 703.213 C 917.997 720.729 875.184 745.184 841.479 759.89 z M 463.004 961.038 C 462.977 1000.01 461.67 1046.27 463.004 1084.68 C 489.236 1097.28 517.221 1113.23 543.468 1126.82 C 590.605 1151.75 647.13 1183.68 695.537 1204.97 L 695.669 874.918 C 695.703 864.213 696.446 847.931 695.537 837.869 L 528.815 926.174 C 509.935 936.132 482.015 953.118 463.004 961.038 z" fill="rgb(0,0,0)" transform="translate(0,0)"></path>
<metadata><recraft-signature>{"signed_by": "recraft", "signature_b64": "LbuxQYW2+UBQ56ROaouNSELk66eS8AKvS8c+OuGp7Wm9Df2jLgFWLIz0OSMiT3qQDvUdavGU6QI+Woln3sRKAg==", "signing_algo": "Ed25519", "generation_timestamp": 1772997809, "identifier": "afb31313-dd36-4ecb-a087-381405903e6c"}</recraft-signature></metadata></svg>