<svg xmlns="http://www.w3.org/2000/svg" height="512" preserveAspectRatio="none" style="display: block;" version="1.1" viewBox="0 0 2048 2048" width="512">
<path d="M 440.471 286.89 C 457.298 285.647 488.099 286.859 506.437 286.869 L 1556.25 286.842 C 1580.76 286.84 1609.07 284.902 1632.58 290.712 C 1716.35 311.422 1707.14 389.77 1707.08 454.512 L 1707.07 1589.5 C 1707.12 1646.96 1714.36 1703.12 1649.78 1733.76 C 1613.03 1753.15 1544.37 1742.01 1501.79 1744.86 L 1500.02 1744.98 L 1500.02 1231.5 L 1500.02 1122.03 C 1488.59 1122.95 1470.63 1122.13 1458.51 1122.1 L 611.305 1122.04 C 590.847 1122.05 568.853 1122.81 548.688 1122.03 L 548.688 1744.98 L 482.66 1745.1 C 412.851 1745.48 342.992 1728.8 342.177 1640.52 L 342.009 426.628 C 341.889 359.526 351.506 288.951 440.471 286.89 z M 548.688 918.969 L 1500.02 918.969 C 1499.01 825.845 1500.03 730.598 1500.02 637.28 L 1499.94 551.026 C 1499.72 529.433 1498.46 510.648 1500.02 488.989 C 1464.81 488.457 1428.58 488.984 1393.26 488.987 L 548.688 488.989 L 548.688 918.969 z" fill="rgb(0,0,0)" transform="translate(0,0)"></path>
<metadata><recraft-signature>{"signed_by": "recraft", "signature_b64": "ujk3nmDdUjjqZjyxhhLnY/tA14Bh8M+v+uB7y40YlVHm3e/bUT6pdRUorovcT9TVwidAxJtbt5cP2rKjOdnUCw==", "signing_algo": "Ed25519", "generation_timestamp": 1772996120, "identifier": "156e6318-6f79-4001-a6a4-a329ea791e5a"}</recraft-signature></metadata></svg>