<svg xmlns="http://www.w3.org/2000/svg" height="512" preserveAspectRatio="none" style="display: block;" version="1.1" viewBox="0 0 2048 2048" width="512">
<path d="M 784.469 326.033 C 851.279 326.031 921.831 327.226 988.251 326.033 C 986.712 460.013 988.256 597.231 988.258 731.43 L 988.29 846.617 C 988.311 859.999 989.394 890.044 988.251 901.522 L 1466.23 901.515 C 1544.35 901.515 1627.29 902.933 1705 901.522 L 1705 1113.25 L 988.251 1113.25 L 988.251 1421.54 L 988.245 1602.96 C 988.249 1632.82 989.008 1665.57 988.251 1695.16 L 778.582 1695.16 C 777.658 1631.42 778.579 1565.21 778.581 1501.33 L 778.582 1113.25 L 344.546 1113.25 C 343.774 1091.21 344.51 1064.13 344.516 1041.73 L 344.546 901.522 L 778.582 901.522 L 778.643 398.421 C 778.648 388.371 777.204 330.487 780.481 326.389 L 784.469 326.033 z" fill="rgb(0,0,0)" transform="translate(0,0)"></path>
<path d="M 1062.02 1187 L 1705 1187 L 1705 1695.16 C 1685.78 1696.24 1655.16 1695.19 1635.16 1695.17 L 1062.02 1695.16 L 1062.02 1187 z" fill="rgb(0,0,0)" transform="translate(0,0)"></path>
<path d="M 1062.02 326.033 C 1076.8 327.192 1111.44 326.077 1127.92 326.071 L 1705 326.033 L 1705 827.095 L 1062.02 827.095 L 1062.02 326.033 z" fill="rgb(0,0,0)" transform="translate(0,0)"></path>
<path d="M 651.376 1187 L 705.027 1187 L 705.04 1532.32 C 705.02 1585.79 706.064 1642.06 705.027 1695.16 L 394.5 1695.16 L 344.546 1695.16 C 343.564 1676.5 344.535 1648.23 344.54 1628.64 L 344.547 1289.46 C 344.542 1255.86 343.892 1220.41 344.546 1187 L 651.376 1187 z" fill="rgb(0,0,0)" transform="translate(0,0)"></path>
<path d="M 344.546 326.033 L 705.027 326.033 L 705.027 827.095 C 694.037 827.729 678.391 827.129 666.951 827.125 L 344.546 827.095 L 344.546 326.033 z" fill="rgb(0,0,0)" transform="translate(0,0)"></path>
<metadata><recraft-signature>{"signed_by": "recraft", "signature_b64": "Z30hfCuAfOk+93RzcW4+AeCDXh+CUKenkfBlJLFfraGqrY1HqoKLBr54HJEBQKZ6l+l76wMPyNYroT8yBSzbAw==", "signing_algo": "Ed25519", "generation_timestamp": 1772997032, "identifier": "710cab48-e0e7-45f0-91df-b1cf2acf61c4"}</recraft-signature></metadata></svg>