<svg xmlns="http://www.w3.org/2000/svg" height="512" preserveAspectRatio="none" style="display: block;" version="1.1" viewBox="0 0 2048 2048" width="512">
<path d="M 293.335 289.151 C 332.331 288.44 373.774 289.139 412.917 289.139 L 1715 289.178 C 1730.08 289.21 1747.1 289.761 1761.98 289.151 L 1761.98 1576.24 C 1761.97 1631.9 1760.04 1703.08 1763.51 1757.42 L 1761.98 1758.08 L 288.011 1758.08 L 288.006 492.586 C 288.006 476.45 287.036 293.927 289.456 289.511 L 293.335 289.151 z M 1089 1630.82 L 1631.24 1630.82 L 1631.27 1131.87 C 1631.3 1113.43 1632.52 1089.54 1631.24 1072 L 1089 1072 L 1089 1630.82 z M 417.936 415.998 L 417.936 941.001 L 778.195 940.991 C 837.586 940.988 900.07 939.855 959.055 941.001 L 959.1 462.189 C 959.12 452.344 960.14 423.493 959.055 415.998 L 417.936 415.998 z M 1631.24 415.998 L 1089 415.998 L 1089 941.001 C 1131.96 940.999 1630.7 941.293 1631.24 941.001 C 1632.04 882.952 1631.24 822.765 1631.24 764.545 L 1631.24 415.998 z M 417.936 1630.82 L 959.055 1630.82 C 960.023 1628.88 959.064 1594.63 959.059 1589.14 L 959.055 1072 L 476.208 1071.99 C 457.608 1071.99 436.327 1072.5 417.936 1072 L 417.936 1630.82 z" fill="rgb(0,0,0)" transform="translate(0,0)"></path>
<metadata><recraft-signature>{"signed_by": "recraft", "signature_b64": "qyASPLIxmU7hBw8RYVQjiw1103Inz/lhW9uFucgeim9Bb9Y367x2DFq7El9FtuKmJ18Sdy6cJGkB6Zmy1fVkCQ==", "signing_algo": "Ed25519", "generation_timestamp": 1772996241, "identifier": "4c096f17-7f59-4964-9ff6-7b5e63fd49d8"}</recraft-signature></metadata></svg>