<svg xmlns="http://www.w3.org/2000/svg" height="512" preserveAspectRatio="none" style="display: block;" version="1.1" viewBox="0 0 2048 2048" width="512">
<path d="M 290.079 292.047 L 1757.96 292.047 C 1757.05 304.698 1757.92 328.454 1757.93 341.866 L 1757.96 1753.85 L 290.079 1753.85 C 290.937 1740.56 290.137 1717.51 290.122 1703.42 L 290.079 292.047 z M 401.734 970.043 L 969.028 970.043 L 969.028 403.036 L 401.734 403.036 L 401.734 970.043 z M 1080.47 970.043 L 1647.12 970.043 C 1648.11 909.382 1647.12 845.7 1647.13 784.855 L 1647.12 403.036 L 1080.47 403.036 C 1079.11 521.156 1080.39 642.156 1080.48 760.499 L 1080.45 900.941 C 1080.44 922.274 1079.6 949.281 1080.47 970.043 z M 1157 1079.51 C 1131.59 1079.46 1105.85 1079.21 1080.47 1079.51 L 1080.47 1644.99 C 1092.36 1643.66 1115.07 1644.94 1128.44 1644.97 L 1572.69 1644.99 L 1647.12 1644.99 L 1647.12 1079.51 L 1157 1079.51 z M 965.25 1644.99 L 969.018 1644.7 C 969.904 1642.8 969.883 1643.43 969.87 1641.58 L 969.028 1079.51 C 907.197 1078.86 844.078 1079.51 782.171 1079.51 L 410.997 1079.51 C 393.095 1079.46 401.648 1105.54 401.714 1125.36 L 401.681 1608.31 C 401.74 1620.46 401.052 1632.92 401.734 1644.99 L 965.25 1644.99 z" fill="rgb(0,0,0)" transform="translate(0,0)"></path>
<metadata><recraft-signature>{"signed_by": "recraft", "signature_b64": "IMBW5rQxrmBAS7u76+emNLKToxh+kTUXFu3K00GiiIVIgOz7GtWnWQ6cfVsFJLAVN1jRCTNjPnxtnexRNWDsDw==", "signing_algo": "Ed25519", "generation_timestamp": 1772996413, "identifier": "515f9359-fe3a-4a6d-aba9-4112e6569240"}</recraft-signature></metadata></svg>