<svg xmlns="http://www.w3.org/2000/svg" height="512" preserveAspectRatio="none" style="display: block;" version="1.1" viewBox="0 0 2048 2048" width="512">
<path d="M 1063.34 935 L 1604.11 934.969 C 1628.35 934.971 1657.17 933.648 1680.98 937.228 C 1749.31 947.171 1808.75 1005.93 1815.09 1075.37 C 1817.49 1101.76 1816.02 1135.07 1816.02 1161.98 L 1816.05 1467.85 C 1816.05 1495.6 1818.2 1531.12 1813.27 1557.69 C 1799.06 1634.23 1737.54 1683.14 1662.79 1690.7 L 1121.33 1690.74 C 1061.62 1690.76 1019.98 1695.4 969.773 1656.18 C 900.658 1602.19 909.993 1534.58 910 1458.01 L 909.979 1144.52 C 909.983 1121.81 908.562 1091.42 911.647 1069.44 C 922.946 988.94 987.674 943.797 1063.34 935 z M 1046 1323 L 1126.48 1322.91 C 1135.45 1322.89 1146.58 1323.3 1155.19 1322.87 C 1242.2 1318.56 1261.79 1435.33 1181.79 1458.76 C 1156.64 1465.62 1076.19 1461.11 1046 1461.6 C 1045.65 1556.06 1034.35 1554.16 1123.01 1554.18 L 1472.25 1554.16 L 1601.45 1554.19 C 1618.12 1554.19 1647.61 1555.25 1662.79 1554.16 C 1688 1530.99 1678.04 1484.69 1678.01 1449.79 L 1678.04 1165.15 C 1678.05 1051.5 1683.89 1065.82 1580.1 1065.83 L 1072.13 1065.66 C 1070.54 1065.65 1068.56 1065.78 1066.95 1065.87 C 1034.32 1076.37 1045.9 1137.19 1045.93 1167.31 L 1046 1323 z" fill="rgb(0,0,0)" transform="translate(0,0)"></path>
<path d="M 393.307 354.639 L 915.47 354.606 C 989.644 354.574 1046.8 351.986 1100.18 416.273 C 1138.34 462.236 1136.91 504.963 1136.94 560.848 L 1136.96 713.966 C 1136.96 726.468 1137.1 738.4 1136.27 751.03 C 1131.82 822.74 1032.67 838.261 1006.37 771.686 C 1000.63 757.162 1002.57 722.572 1002.57 705.43 L 1002.52 566.27 C 1002.44 545.981 1011.76 489.737 978.883 489.573 L 476.911 489.511 C 448.558 489.512 420.022 488.961 391.719 490.19 C 358.722 491.623 369.048 552.683 369.033 574.77 L 368.996 739.98 L 393.307 739.98 C 419.679 740.026 489.506 736.887 510.819 743.019 C 574.293 761.281 572.738 861.52 508.416 877.689 C 488.875 882.601 466.174 880.21 446.07 880.199 L 368.996 880.151 C 369.203 902.359 368.328 925.541 368.822 947.094 C 369.774 988.545 418.858 978.353 449.925 978.246 L 644.072 978.32 C 670.117 978.361 720.144 973.804 741.81 985.464 C 798.76 1016.11 784.441 1110.86 700.277 1110.39 L 430.334 1110.45 C 371.899 1110.49 324.073 1110.42 279.671 1065.09 C 247.07 1031.8 234.27 997.191 234.021 951.017 L 233.992 546.824 C 233.994 526.103 232.492 499.891 236.707 479.95 C 252.904 403.333 316.126 355.027 393.307 354.639 z" fill="rgb(0,0,0)" transform="translate(0,0)"></path>
<metadata><recraft-signature>{"signed_by": "recraft", "signature_b64": "h7HzEsrCFl4HUTXlMMDnm3yLPJOQUin80k9XpLTMA669ENz0Bhbmx4gPVpnjA2Bu+/GQTNz5yBPX5+D2kEV5Bg==", "signing_algo": "Ed25519", "generation_timestamp": 1772999952, "identifier": "881f18d8-81e7-441f-adee-b6432b02bfb8"}</recraft-signature></metadata></svg>