<svg xmlns="http://www.w3.org/2000/svg" height="512" preserveAspectRatio="none" style="display: block;" version="1.1" viewBox="0 0 2048 2048" width="512">
<path d="M 1163.77 349.184 C 1222.46 345.302 1226.19 386.141 1226.07 433.267 L 1225.88 498.693 C 1225.54 610.465 1283.25 674.147 1397.29 665.818 L 1397.1 421.571 C 1396.88 389.289 1404.35 346.943 1447.16 349.102 C 1509.9 352.267 1502.01 415.711 1502.03 460.986 L 1502 570.657 C 1555.1 524.184 1607.78 523.953 1671 518.003 C 1669.39 484.281 1673.15 447.279 1670.88 412.398 C 1665.87 335.568 1775.55 315.047 1776.16 422.47 L 1776.14 554.901 C 1776.24 628.36 1780.52 690.13 1741.64 757.149 C 1688.17 849.337 1603.7 885.446 1502 884.994 C 1502.96 915.347 1502.02 950.649 1502 981.51 C 1543.55 984.615 1597.4 981.54 1639.87 981.537 C 1742.89 979.897 1776.12 1036.95 1776.16 1131.55 L 1776.15 1376.5 C 1776.07 1396 1776.68 1415.05 1776.13 1434.62 C 1771.09 1493.79 1672.39 1520.98 1672.95 1406.98 L 1673.05 1144.58 C 1673.11 1075.71 1675.66 1085.57 1607.03 1085.52 L 1262.6 1085.51 C 1256.43 1108.94 1251.59 1140.8 1246.34 1165.67 L 1201.88 1375.55 C 1196.74 1398.85 1193.99 1422.65 1187.44 1445.92 C 1170.33 1506.68 1083.27 1495.62 1080.72 1434.52 C 1080 1417.17 1090.34 1380.59 1094.42 1361.92 L 1168.2 1016.65 C 1176.14 973.186 1236.75 981.409 1267.51 981.436 L 1397.29 981.51 C 1398.63 912.95 1397.28 839.341 1397.29 770.333 C 1383.31 769.497 1368.71 770.506 1354.5 769.905 C 1247.07 765.829 1151.34 684.897 1127.69 580.328 C 1117.25 534.182 1124.03 477.819 1121.95 430.13 C 1120.37 393.991 1120.32 359.222 1163.77 349.184 z M 1502 779.056 C 1509.46 779.126 1517.33 779.327 1524.75 779.056 C 1593.61 778.121 1657.22 728.228 1667.93 658.764 C 1669.69 647.388 1669.83 634.564 1671 623.013 C 1662.74 622.748 1654.26 622.266 1646.05 623.013 C 1564.99 625.637 1506.36 702.446 1502 779.056 z" fill="rgb(0,0,0)" transform="translate(0,0)"></path>
<path d="M 867.715 349.184 C 937.611 346.077 924.014 424.958 923.954 470.406 L 923.985 627.35 C 923.91 757.437 838.72 867.104 704.785 879.945 C 687.835 881.57 670.341 881.186 653.196 881.12 C 653.157 915.04 655.371 948.146 653.196 981.51 L 770.866 981.489 C 803.251 981.478 865.425 972.609 876.234 1015.14 C 883.121 1042.23 889.13 1069.58 895.179 1096.87 L 957.188 1374.24 C 960.896 1390.95 965.479 1408.31 967.584 1425.05 C 973.155 1469.35 927.978 1502.98 888.247 1479.27 C 861.89 1463.54 861.268 1439.98 855.756 1413.13 L 806.8 1190.71 C 799.125 1155.48 792.418 1120.91 784.228 1085.51 L 509.139 1085.48 C 471.318 1085.47 419.366 1084.09 381.183 1087.73 C 368.304 1088.95 374.018 1149.1 374.014 1159.07 L 374.112 1407.43 C 374.227 1423.48 376.409 1445.93 369.254 1460.07 C 347.913 1502.24 287.844 1500.38 273.022 1453.07 C 267.939 1440.12 270.031 1341.62 270.043 1321.64 L 269.919 1102.97 C 269.861 995.511 354.06 981.328 440.141 981.468 L 547.568 981.51 C 546.045 911.42 547.603 835.681 547.568 765.107 C 507.374 764.979 482.669 767.438 443.365 756.241 C 348.917 729.335 277.175 645.277 273.197 545.866 C 272.074 517.779 273.79 489.701 272.997 461.605 C 274.372 417.734 259.529 355.612 322.24 350.09 C 390.406 347.241 374.609 426.16 373.992 467.053 C 373.165 521.853 374.182 584.87 416.142 624.413 C 457.008 662.573 495.46 663.197 547.568 662.215 L 547.593 480.608 C 547.727 456.834 547.36 433.014 547.719 409.227 C 549.042 323.663 647.318 341.549 651.742 393.214 C 655.753 440.056 656.376 521.257 653.196 570.657 C 709.494 526.008 752.849 517.35 822.028 518.003 C 821.356 494.811 821.72 470.061 822.019 446.735 C 822.562 404.409 812.306 358.781 867.715 349.184 z M 653.196 775.002 L 686.058 775.002 C 772.325 765.315 817.405 708.858 822.028 623.013 C 813.399 622.867 803.24 622.437 794.751 623.013 C 693.284 639.831 676.857 692.028 653.196 775.002 z" fill="rgb(0,0,0)" transform="translate(0,0)"></path>
<path d="M 318.778 1573.03 C 319.307 1572.97 319.835 1572.91 320.364 1572.86 L 1626.88 1573.01 C 1658.01 1572.98 1689.61 1572.52 1720.71 1573.59 C 1789.52 1574.06 1796.3 1678.8 1721.75 1678.7 C 1705.8 1679.87 1679.01 1678.75 1661.81 1678.73 L 419.999 1678.73 C 387.198 1678.75 354.488 1678.91 321.603 1678.49 C 260.988 1677.72 249.294 1584.99 318.778 1573.03 z" fill="rgb(0,0,0)" transform="translate(0,0)"></path>
<metadata><recraft-signature>{"signed_by": "recraft", "signature_b64": "sgZKq+jn+SeENAVKno2YW2HM1vUTmuTKytfy8wItMB2baJtQpMpWwB7bCRzvoTHgjP4xpL/fjAnF1NZ+C2pRCQ==", "signing_algo": "Ed25519", "generation_timestamp": 1773000225, "identifier": "c202fe8c-a92e-496f-a339-aed1cc17821b"}</recraft-signature></metadata></svg>