<svg xmlns="http://www.w3.org/2000/svg" height="512" preserveAspectRatio="none" style="display: block;" version="1.1" viewBox="0 0 2048 2048" width="512">
<path d="M 246.965 709.002 L 1762.82 708.964 C 1805.54 708.962 1873.49 707.577 1874.01 771.659 L 1874.25 1208.48 C 1874.26 1271.22 1885.47 1333 1801.43 1335.51 L 289.786 1335.54 C 253.135 1335.61 213.053 1342.93 188.084 1310.42 C 169.882 1286.71 175.944 1233.67 175.997 1203.04 L 175.911 802.671 C 175.715 743.113 179.705 717.25 246.965 709.002 z M 1738.5 1292.95 C 1782.67 1293.13 1834.85 1308.96 1832.71 1253.03 C 1831.22 1214.28 1832.04 1175.31 1831.97 1136.53 L 1831.94 844.193 C 1832.11 820.981 1831.88 797.021 1830.33 773.968 C 1828.08 740.51 1773.69 751.55 1746.58 751.549 L 317.482 751.557 C 199.798 751.288 216.971 743.246 216.971 861.466 L 216.911 1263.61 C 217 1302.88 260.207 1292.97 288.245 1292.97 L 1738.5 1292.95 z" fill="rgb(0,0,0)" transform="translate(0,0)"></path>
<path d="M 366.32 1002 C 376.925 982.61 385.885 961.987 396.358 942.488 C 407.781 921.219 434.009 925.296 436.759 950.692 C 444.44 997.678 454.348 1065.89 456.613 1112.34 C 457.711 1134.85 439.898 1141.92 423.304 1130.09 C 414.784 1117.24 411.353 1070.98 408.645 1052.59 C 407.485 1040.51 406.4 1030.35 404.46 1018.36 C 369.242 1095.77 359.076 1081.1 328.729 1015.73 C 324.152 1048.88 324.896 1129.55 291.018 1135.95 C 277.073 1132.24 273.31 1126.66 274.828 1111.86 C 280.668 1054.95 288.729 997 300.18 940.987 C 301.478 934.639 312.135 930.963 317.482 928.963 C 338.171 929.292 357.849 985.108 366.32 1002 z" fill="rgb(0,0,0)" transform="translate(0,0)"></path>
<path d="M 1386.79 928.963 C 1413.64 932.33 1407.39 963.217 1407.01 985.728 C 1406.23 1032.28 1408 1079.32 1407 1125.82 C 1402.47 1129.77 1400.79 1130.66 1395.66 1133.56 C 1355.68 1146.37 1338.45 1062.24 1315.97 1031.22 C 1314.66 1060.49 1316.43 1095.76 1315.97 1125.82 C 1263.76 1178.28 1275.82 1054.04 1275.83 1036.29 L 1275.86 979.442 C 1275.87 959.665 1269.34 931.826 1295.8 928.963 C 1321.25 929.206 1353.49 1019.86 1366.59 1045.89 C 1366.55 1029.03 1363.4 944.361 1370.61 935.104 C 1374.57 930.012 1380.9 929.781 1386.79 928.963 z" fill="rgb(0,0,0)" transform="translate(0,0)"></path>
<path d="M 781.192 928.963 C 792.138 926.684 804.021 929.79 808.397 940.586 C 830.312 994.661 843.978 1057.89 857.584 1114.26 C 847.958 1148.74 817.693 1129.88 792.452 1130.09 C 767.035 1129.32 708.695 1149.78 715.055 1108.4 C 718.692 1084.74 753.84 953.358 764.099 937.686 C 768.336 931.214 774.14 930.376 781.192 928.963 z M 761.002 1089.61 L 786.137 1089.61 C 794.002 1089.69 802.165 1089.9 809.996 1089.61 C 807.218 1074.05 792.99 1014.08 786.137 1002 C 781.403 1012.07 777.824 1026.62 774.824 1037.57 L 761.002 1089.61 z" fill="rgb(0,0,0)" transform="translate(0,0)"></path>
<path d="M 1503.08 928.963 C 1513.86 927.884 1522.05 928.849 1527.53 939.204 C 1544.91 972.026 1564.16 1008.81 1579.01 1042.65 L 1578.88 978.37 C 1578.84 958.574 1573.75 941.358 1591.67 928.963 C 1627.23 927.368 1618.16 957.372 1618.71 982.818 C 1619.63 1026.12 1619.45 1070.05 1618.37 1113.33 C 1618.04 1126.55 1611.92 1132.76 1599.4 1135.95 C 1577.04 1133.38 1570.04 1107.19 1561.66 1089.25 C 1550.9 1066.22 1536.62 1042.54 1529 1018.36 C 1527 1040.99 1536.43 1121.81 1519.8 1132.52 C 1511.53 1137.84 1497.32 1136.24 1492.42 1126.97 C 1485 1112.96 1487.54 950.918 1490.54 941.661 C 1492.69 935.02 1497.19 932.137 1503.08 928.963 z" fill="rgb(0,0,0)" transform="translate(0,0)"></path>
<path d="M 1700.01 923.191 C 1730.77 920.195 1782.81 949.103 1767.02 978.019 C 1744.38 1019.47 1715.15 924.964 1686.55 983.959 C 1670.43 1017.23 1675.72 1114 1717.17 1094.37 C 1726.89 1089.8 1734.42 1072.43 1738.5 1062.97 C 1718.19 1063.38 1704.57 1066.13 1700.01 1042.65 C 1701.96 1020.26 1705.62 1018.39 1727.75 1018.36 C 1747.16 1018.73 1764.84 1013 1777 1031.22 C 1784.63 1088.62 1745.65 1163.64 1677.04 1127.97 C 1616.84 1093.88 1619.06 944.016 1700.01 923.191 z" fill="rgb(0,0,0)" transform="translate(0,0)"></path>
<path d="M 1088.73 928.963 C 1118.32 911.987 1180.75 977.767 1126.45 993.505 C 1107.43 987.323 1111.89 979.9 1100.83 970.208 C 1094.65 964.801 1075.2 974.469 1088.19 989.133 C 1113.23 1017.39 1161.29 1044.76 1154.44 1088.99 C 1149.61 1120.2 1119.7 1141.11 1088.73 1135.95 C 1047.4 1131.98 1018.34 1076.26 1048.8 1060.22 C 1074.28 1046.81 1067.01 1086.78 1095.6 1096.61 C 1141.07 1086.08 1088.11 1047.12 1072.51 1032.97 C 1028.81 993.352 1027.58 936.146 1088.73 928.963 z" fill="rgb(0,0,0)" transform="translate(0,0)"></path>
<path d="M 938.544 933.578 C 992.284 900.979 961.23 999.901 957.556 1015.73 C 953.744 1040.14 938.604 1092.14 930.901 1115.11 C 925.488 1131.25 918.626 1134.47 902.854 1135.95 C 890.956 1131.16 887.575 1128.55 883.786 1116.05 C 871.575 1075.8 841.279 984.846 838.244 944.186 C 842.482 934.589 844.124 933.273 853.333 928.963 C 887.379 927.894 897.769 1021.35 906.612 1052.59 C 913.206 1029.04 927.703 950.537 938.544 933.578 z" fill="rgb(0,0,0)" transform="translate(0,0)"></path>
<path d="M 547.935 930.222 C 584.894 927.172 575.022 968.403 575.028 996.352 L 574.998 1085.9 C 589.805 1082.63 615.415 1069.52 629.397 1076.62 C 641.444 1082.73 641.096 1098.12 634.984 1108.97 C 629.264 1113.17 625.653 1114.98 619.373 1118.26 C 596.881 1123.35 537.406 1156.86 534.751 1113.57 C 533.605 1094.89 532.53 950.295 536.576 940.176 C 538.852 934.484 542.483 932.512 547.935 930.222 z" fill="rgb(0,0,0)" transform="translate(0,0)"></path>
<path d="M 1187.87 928.963 C 1218.52 925.286 1210.06 978.154 1210.02 996.494 L 1209.99 1089.61 C 1226.17 1085.11 1226.89 1080.84 1240.92 1072.98 C 1271.54 1072.02 1279.17 1099.12 1252.53 1118.26 C 1233.76 1130.56 1177.21 1152.8 1171.87 1115.16 C 1166.81 1079.56 1169.15 989.346 1170.86 951.438 C 1171.47 937.715 1173.89 931.247 1187.87 928.963 z" fill="rgb(0,0,0)" transform="translate(0,0)"></path>
<path d="M 676.739 928.963 C 687.786 928.603 692.109 930.987 698.53 939.697 C 704.555 974.085 700.441 1032.59 701.073 1069.83 C 701.679 1105.48 711.509 1169.1 660.595 1173.39 C 634.808 1172.2 620.602 1136.12 660.595 1130.09 L 660.652 1015.84 C 660.599 993.508 655.544 953.01 666.3 933.578 C 670.252 931.406 672.482 930.587 676.739 928.963 z" fill="rgb(0,0,0)" transform="translate(0,0)"></path>
<path d="M 1445.71 928.963 C 1477.49 923.373 1467.74 982.762 1467.73 1003.24 L 1467.69 1122.6 L 1462.84 1130.09 C 1457.74 1133.41 1456.66 1134.21 1450.89 1135.95 C 1441.68 1135.75 1430.41 1132.68 1429.08 1122.34 C 1423.7 1080.65 1425.46 998.029 1427.3 953.492 C 1428 936.801 1430.14 932.237 1445.71 928.963 z" fill="rgb(0,0,0)" transform="translate(0,0)"></path>
<path d="M 1001.7 928.963 C 1019.22 928.376 1022.65 936.564 1023.25 952.493 C 1025.02 1002.35 1023.8 1052.37 1024.66 1102.28 C 1024.96 1119.38 1024.19 1127.96 1008.3 1135.95 C 989.796 1135.41 982.889 1128.13 983.528 1108.85 C 985.385 1052.86 981.317 995.589 986.163 939.933 C 986.648 934.369 997.13 930.58 1001.7 928.963 z" fill="rgb(0,0,0)" transform="translate(0,0)"></path>
<path d="M 492.8 930.222 C 500.176 929.917 511.426 935.306 512.24 943.236 C 517.385 993.387 514.171 1064.27 513.359 1116.54 C 512.919 1127.76 506.529 1133.69 496.25 1135.95 C 467.292 1137.89 473.51 1102.15 473.602 1083.48 L 474.005 983.365 C 474.002 963.215 468.227 935.127 492.8 930.222 z" fill="rgb(0,0,0)" transform="translate(0,0)"></path>
<path d="M 487.504 874.126 C 516.463 872.418 525.354 905.33 499.633 917.263 C 481.35 920.475 474.646 910.23 474.026 893.708 C 474.601 881.89 476.101 878.184 487.504 874.126 z" fill="rgb(0,0,0)" transform="translate(0,0)"></path>
<path d="M 1442.5 873.33 C 1452.9 871.391 1463.11 877.493 1466.33 887.566 C 1468.2 893.422 1467.41 899.805 1464.17 905.027 C 1460.92 910.248 1455.55 913.783 1449.47 914.697 C 1438.15 916.397 1427.56 908.717 1425.66 897.434 C 1423.76 886.151 1431.26 875.428 1442.5 873.33 z" fill="rgb(0,0,0)" transform="translate(0,0)"></path>
<metadata><recraft-signature>{"signed_by": "recraft", "signature_b64": "qt83XNP+0o3lhfUm9ysAEW9prkBhOnHNL6/7NEqF2vyCufjlFDJyj0NjuLlxretRn9N3qps0hZJ90j9L55gkCQ==", "signing_algo": "Ed25519", "generation_timestamp": 1772999231, "identifier": "df86d77e-387a-4e89-bf34-0bb44b18815d"}</recraft-signature></metadata></svg>