<svg xmlns="http://www.w3.org/2000/svg" height="512" preserveAspectRatio="none" style="display: block;" version="1.1" viewBox="0 0 2048 2048" width="512">
<path d="M 1185.96 250.001 C 1300.49 240.391 1418.73 297.649 1494.75 381.625 C 1548.81 441.331 1576.22 500.233 1593.21 577.761 C 1902.84 627.333 1918.21 1044.47 1631.29 1121.18 C 1480.18 1161.58 1326 1068.24 1288.24 918.249 C 1248.76 761.428 1346.33 620.094 1498.87 582.497 C 1455.25 377.505 1208.81 272.701 1031.39 393.222 C 961.303 440.078 910.463 515.824 897.185 599.43 C 893.135 624.931 897.164 652.451 872.042 668.248 C 852.55 681.759 817.61 673.892 807.229 651.991 C 792.494 620.906 809.6 560.663 818.779 529.406 C 812.4 520.946 803.685 512.7 795.797 505.582 C 623.702 350.271 350.57 452.852 308.12 676.519 C 274.23 855.078 393.237 1000.97 564.973 1033.29 C 648.064 1045.16 732.551 1021.69 797.441 967.521 C 850.767 923.001 856.328 890.145 919.958 958.467 C 947.678 988.23 981.091 1005.04 1017.31 1022.08 C 1023.79 1004.53 1026.65 985.601 1043.74 974.862 C 1065.75 961.084 1095.12 968.995 1108.19 991.231 C 1123.48 1017.25 1069.44 1163.65 1059.83 1197 L 1152.88 1196.95 C 1187.16 1196.73 1245.87 1189.53 1245.48 1243.25 C 1245.3 1268.06 1224.03 1291.09 1211.02 1311.23 L 1076.66 1519.33 C 1068.62 1531.61 1061.39 1544.42 1052.72 1556.42 C 1023.13 1597.37 934.146 1569.03 984.829 1489.94 C 1023.76 1429.19 1083.06 1350.86 1114.79 1287.99 L 1044.01 1288.09 C 944.133 1288.19 936.848 1271.33 967.466 1174.44 L 988.006 1107.22 C 930.827 1084.63 910.411 1071.7 863.015 1033.29 C 847.819 1043.25 833.466 1055.78 817.784 1066.05 C 672.362 1161.23 475.584 1145.8 346.232 1029.29 C 185.373 884.401 164.325 639.047 308.923 474.573 C 454.286 309.23 694.92 293.726 859.513 440.661 C 929.496 328.441 1052.81 252.827 1185.96 250.001 z M 1574.54 1037.43 C 1676.42 1028.91 1751.99 939.252 1743.15 837.401 C 1734.31 735.549 1644.41 660.258 1542.58 669.427 C 1441.22 678.555 1366.34 767.962 1375.15 869.353 C 1383.95 970.744 1473.12 1045.91 1574.54 1037.43 z" fill="rgb(16,15,15)" transform="translate(0,0)"></path>
<path d="M 1557.79 1214.44 C 1614.97 1213.3 1605.13 1286.78 1605.14 1326.22 L 1605.1 1471.67 C 1635.93 1450.49 1676.06 1377.72 1719.85 1405.37 C 1782.99 1445.23 1717.26 1494.28 1685.3 1526.24 L 1632.6 1579.74 C 1624.41 1588.09 1610.34 1600.63 1605.1 1610.56 L 1605.13 1695.29 C 1605.29 1734.11 1611.59 1777.91 1557.79 1781.91 C 1513.37 1777.91 1510.52 1744.03 1512.05 1708.5 C 1513.54 1673.94 1510.01 1637.08 1512.09 1602.58 C 1483.9 1578.88 1456.62 1548.48 1429.5 1523.26 C 1411.16 1506.2 1371.53 1475.18 1370.9 1448.33 C 1370.32 1423.19 1388.49 1402.55 1414.33 1402.16 C 1444.34 1401.7 1490.29 1456 1512.09 1477.49 L 1512.06 1326.65 C 1512.04 1281.14 1498.17 1221.12 1557.79 1214.44 z" fill="rgb(16,15,15)" transform="translate(0,0)"></path>
<path d="M 584.175 1210.36 C 652.16 1202.96 637.769 1290.06 637.773 1331.58 L 637.735 1515.08 C 658.734 1494.16 682.122 1466.44 705.468 1448.07 C 743.234 1423.27 795.111 1473.18 767.97 1510.69 C 754.857 1528.81 734.838 1547.17 719.013 1563.59 L 637.735 1649.1 C 639.344 1693.57 650.655 1768.58 605.382 1786.26 C 580.876 1792.1 551.833 1777.68 547.302 1752.61 C 544.375 1736.41 545.281 1661.37 546.533 1642.6 C 526.452 1624.85 503.261 1597.92 483.948 1578 L 444.015 1536.89 C 428.705 1520.98 410.026 1506.23 413.295 1481.9 C 419.192 1436.87 466.712 1427.96 496.358 1458.87 C 513.128 1476.36 528.792 1495.12 546.533 1511.61 L 546.475 1340.32 C 546.46 1292.2 530.426 1226.38 584.175 1210.36 z" fill="rgb(16,15,15)" transform="translate(0,0)"></path>
<metadata><recraft-signature>{"signed_by": "recraft", "signature_b64": "i7J/lUUGIqxHgysFywZ7LvDOmdf76XDJ9WUunFcPwMbrRVen9x83N3bUrEbbXdB+u4FFEMPyxFOyDQQu+hGRDw==", "signing_algo": "Ed25519", "generation_timestamp": 1772999089, "identifier": "d09f30d7-6761-42b3-8de7-592b2422f2c1"}</recraft-signature></metadata></svg>