<svg xmlns="http://www.w3.org/2000/svg" height="512" preserveAspectRatio="none" style="display: block;" version="1.1" viewBox="0 0 2048 2048" width="512">
<path d="M 499.279 925.023 C 578.83 921.789 670.41 919.21 740.37 958.623 C 808.352 996.923 852.558 1057.06 873.932 1131.52 C 891.174 1117.99 905.738 1103.97 924.312 1091.62 C 1026.4 1023.77 1178.55 1037.19 1266.85 1122.37 C 1357.17 1050.38 1389.62 1051.88 1494.26 1049.18 C 1551.79 1047.7 1605.37 1051.1 1656.88 1080.18 C 1763.91 1138.47 1803.41 1230.16 1803.26 1345.18 L 1803.27 1501.62 C 1803.27 1605.75 1769.18 1699.28 1645.79 1700.62 C 1585.71 1701.56 1525.22 1700.9 1465.15 1701.04 C 1370.32 1701.26 1295.78 1681.48 1266.85 1577.78 C 1260.89 1551.5 1262.12 1525.84 1262.12 1499.07 L 1262.16 1377.97 C 1262.17 1352.98 1263.69 1321.58 1259.72 1297.24 C 1228.51 1105.89 951.505 1087.67 894.151 1278.24 C 885.851 1305.83 886.857 1336.44 886.862 1364.96 L 886.93 1483.29 C 886.997 1579.5 875.93 1679.63 755.043 1699.09 C 733.578 1702.54 704.959 1701.09 682.714 1701.06 L 450.712 1701.02 C 427.595 1701.09 395.575 1702.98 373.385 1698.87 C 268.293 1679.42 242.922 1594.06 242.932 1503.45 L 242.953 1262.12 C 242.9 1224.98 240.666 1183.63 247.606 1147.46 C 271.924 1020.73 376.035 940.999 499.279 925.023 z M 621.19 1602.49 L 694.176 1602.58 C 775.025 1602.62 788.54 1591.36 788.606 1508.41 L 788.568 1225.05 C 788.157 1100.11 706.699 1008.93 574.942 1020.94 C 556.868 1022.58 530.174 1020.47 511.314 1021.02 C 455.656 1027.95 415.852 1048.05 380.225 1092.62 C 338.689 1144.57 342.722 1197.84 342.761 1260.12 L 342.767 1501.46 C 342.759 1554.23 340.768 1602.95 409.305 1602.63 L 621.19 1602.49 z M 1327.95 1196.64 C 1359.35 1265.36 1358.03 1294.54 1358.01 1368.14 L 1358.03 1486.51 C 1357.8 1604.97 1370.08 1602.6 1473.83 1602.5 L 1569.5 1602.49 L 1615.62 1602.6 C 1715.02 1603.08 1705.56 1559.73 1705.48 1473.84 L 1705.46 1323.47 C 1705.19 1275.38 1690.1 1231.76 1655.38 1197.84 C 1594.45 1138.34 1540.75 1145.09 1463.81 1145.31 C 1409.19 1147.77 1369.9 1158.45 1327.95 1196.64 z" fill="rgb(29,28,28)" transform="translate(0,0)"></path>
<path d="M 544.66 346.995 C 659.383 334.471 771.869 424.906 787.782 538.273 C 792.065 568.784 790.139 676.757 781.639 701.493 C 755.533 790.361 682.304 852.599 590.851 865.721 C 429.12 877.898 337.386 759.95 342.807 603.128 C 344.98 540.253 343.002 491.806 384.409 438.023 C 427.374 382.215 476.275 357.489 544.66 346.995 z M 579.25 765.526 C 689.648 749.687 703.854 641.932 690.293 548.482 C 681.451 487.552 619.013 438.896 557.686 445.379 C 462.139 456.984 440.173 526.887 441.764 611.166 C 442.041 625.812 440.272 645.417 442.861 659.768 C 455.681 730.806 511.212 768.178 579.25 765.526 z" fill="rgb(29,28,28)" transform="translate(0,0)"></path>
<path d="M 1472.34 471.591 L 1475.64 471.386 C 1608.29 464.17 1706.29 580.386 1705.28 710.944 C 1704.82 770.407 1705.2 831.812 1672.9 884.45 C 1633.78 949.106 1568.42 987.521 1492.54 990.953 C 1375.3 992.653 1271.95 912.035 1262.32 791.658 C 1260.16 764.697 1263.27 737.143 1262.09 710.034 C 1250.01 582.041 1348.21 481.623 1472.34 471.591 z M 1485.63 893.262 C 1518.81 892.477 1549.77 878.885 1572.67 855.015 C 1615.48 811.632 1605.48 747.282 1605.87 691.5 C 1606.38 619.644 1552.09 566.281 1479.2 567.389 C 1403.17 574.048 1358.41 626.266 1358.04 702.263 C 1357.59 796.517 1366.3 892.382 1485.63 893.262 z" fill="rgb(29,28,28)" transform="translate(0,0)"></path>
<metadata><recraft-signature>{"signed_by": "recraft", "signature_b64": "rAZNma5n9ySCV1CDlkrniOGnlcKkVsn7PCI4UA29ZtBO6LH6e+Nf8/OqRmrX8zOP2wL/HqIqG3nuMpp29NWwCQ==", "signing_algo": "Ed25519", "generation_timestamp": 1772998506, "identifier": "5597d2b4-6789-4134-9785-bf94677a2cf4"}</recraft-signature></metadata></svg>