<svg xmlns="http://www.w3.org/2000/svg" height="512" preserveAspectRatio="none" style="display: block;" version="1.1" viewBox="0 0 2048 2048" width="512">
<path d="M 996.422 255.982 C 1177.48 242.709 1342.66 375.895 1360.17 558.643 C 1362.75 585.519 1361.43 616.008 1361.43 643.19 L 1361.39 794.024 C 1486.46 851.522 1501.12 930.359 1553.69 1043.79 C 1603.38 1150.96 1650.18 1259.48 1699.01 1367.04 C 1722.63 1419.03 1743.33 1452.72 1743.09 1513.01 C 1742.58 1643.92 1649.87 1756.89 1522.61 1784.53 C 1485.88 1792.55 1458.83 1791.15 1422.02 1791.11 L 1053.5 1791.09 L 617.254 1791.18 C 609.143 1791.22 600.564 1791.02 592.543 1791.28 C 399.853 1797.73 249.774 1588.02 325.088 1414.75 C 366.907 1318.54 411.598 1223.47 455.438 1128.19 L 520.326 987.053 C 536.772 950.984 546.931 921.619 569.292 888.371 C 591.537 855.297 647.724 801.145 687.038 794.024 C 686.425 782.177 687.032 764.632 687.029 752.198 L 687.011 667.456 C 687.007 581.833 680.397 523.702 719.353 444.479 C 774.119 333.106 875.09 268.868 996.422 255.982 z M 1249.29 1580.92 L 1431.05 1580.96 C 1485.58 1581.79 1543.36 1548.3 1517.57 1488.79 C 1480.34 1402.87 1441.81 1317.35 1403.4 1231.97 L 1332.68 1074.5 C 1292.38 985.928 1298.94 978.745 1203.13 978.912 L 798.112 978.888 C 797.648 978.913 797.185 978.939 796.721 978.964 C 771.552 984.819 754.364 993.864 743.429 1018.05 L 541.125 1456.03 C 535.981 1467.11 527.818 1482.23 524.247 1493.4 C 511.528 1533.14 545.058 1577.37 585.555 1580.61 C 609.871 1581.36 635.11 1581 659.44 1580.97 L 1249.29 1580.92 z M 896.49 766.953 L 1032.75 766.953 L 1150.97 766.953 L 1151 648.572 C 1151 593.341 1157.08 547.444 1113.48 504.891 C 1088.76 480.765 1048.84 462.124 1013.73 467.393 C 905.862 480.715 896.4 558.098 896.539 647.489 L 896.49 766.953 z" fill="rgb(0,0,0)" transform="translate(0,0)"></path>
<metadata><recraft-signature>{"signed_by": "recraft", "signature_b64": "nQL496KXLGT8EQqrrgddi9jGYPMccin/MQirtOGQU30La0hrWbOcdhUFb+714QOWfrD7lAC8W9LYlfsodQ6mAw==", "signing_algo": "Ed25519", "generation_timestamp": 1772990062, "identifier": "6ad36249-60d0-4fb9-a639-a1281b617330"}</recraft-signature></metadata></svg>