<svg xmlns="http://www.w3.org/2000/svg" height="512" preserveAspectRatio="none" style="display: block;" version="1.1" viewBox="0 0 2048 2048" width="512">
<path d="M 1114 282.005 C 1122.57 281.389 1138.51 281.94 1147.55 281.948 L 1656.4 281.996 C 1722.57 282.08 1753.41 297.201 1753.43 370.673 L 1753.44 873.977 C 1753.44 889.185 1753.75 904.857 1752.54 920.021 C 1746.33 998.011 1649.57 983.275 1595.41 983.239 L 1182.97 983.218 C 1154.08 983.456 1136.73 978.447 1114 960.172 C 1072.2 989.011 989.198 1037.01 945.199 1058.84 L 945.265 1371.15 C 945.325 1429.62 936.261 1488.47 856.817 1482 C 870.784 1541.22 907.806 1634.39 913.862 1690.19 C 918.437 1732.34 877.68 1769 836.407 1764.83 C 775.599 1757.98 771.177 1700 757.227 1653.11 L 706.172 1482 C 689.846 1482.55 670.446 1482.02 653.873 1482 C 649.173 1501 644.255 1519.88 639.18 1538.77 L 605.544 1660.37 C 595.164 1697.56 591.344 1736.42 555.682 1757.88 C 508.948 1786.01 443.528 1744.29 450.722 1690.36 C 453.664 1668.31 465.502 1633.3 471.64 1610.88 L 531.088 1399.5 C 541.835 1361.49 554.064 1356.6 586.243 1339.15 C 603.496 1337.91 636.947 1339.1 655.899 1339.11 L 800.342 1339.15 C 801.515 1313.7 800.376 1277.79 800.358 1251.48 L 800.342 1071 L 629.933 1070.97 C 467.431 1070.9 435.781 1097.4 435.937 1256.98 L 435.999 1367.24 C 436 1407.25 440.091 1445.84 400.128 1469.15 C 356.64 1494.52 298.018 1468.86 293.444 1417.41 C 292.368 1405.31 292.945 1391.67 292.948 1379.43 L 293.013 1311.82 C 293.07 1264.34 291.08 1211.79 294.493 1164.97 C 302.97 1048.68 399.378 951.05 514.166 935.885 C 538.549 932.664 559.569 933.299 584.165 933.421 L 765.354 933.654 C 793.076 933.593 841.76 930.957 867.223 938.685 C 882.172 932.56 910.823 915.077 925.89 906.423 L 1048.9 834.24 C 1106.52 800.063 1149.42 771.925 1193.24 842.988 L 1611.65 842.988 L 1611.65 420.589 L 1189.9 420.589 C 1151.82 486.096 1060.8 465.473 1053.47 400.384 C 1045.26 348.016 1049.78 290.476 1114 282.005 z" fill="rgb(0,0,0)" transform="translate(0,0)"></path>
<path d="M 678.627 577.243 C 767.415 573.836 842.12 643.123 845.395 731.916 C 848.671 820.709 779.274 895.312 690.476 898.456 C 601.863 901.594 527.45 832.374 524.181 743.765 C 520.913 655.157 590.024 580.642 678.627 577.243 z" fill="rgb(0,0,0)" transform="translate(0,0)"></path>
<path d="M 1080.69 466.402 C 1136.61 455.577 1190.81 535.802 1134.85 586.596 C 1128.89 592 1118.2 602.688 1114 609.555 C 1125.57 626.005 1144.02 635.197 1152.7 655.471 C 1172.63 701.994 1139.29 756.729 1087.43 756.222 C 1054.43 755.9 1038.58 737.121 1016.61 715.147 C 994.879 733.82 985.989 749.49 956.251 753.909 C 871.781 759.505 839.863 672.855 912.86 609.555 C 895.239 587.458 874.236 577.8 871.934 546.041 C 869.069 506.507 897.454 471.962 937.197 468.664 C 979.361 465.166 988.809 487.042 1016.61 510.446 C 1033.43 487.577 1051.7 469.698 1080.69 466.402 z" fill="rgb(0,0,0)" transform="translate(0,0)"></path>
<path d="M 1462.76 533.271 C 1521.42 527.727 1558.21 599.769 1524.62 646.619 C 1516.02 658.619 1505.03 668.673 1494.58 679.059 L 1452.84 720.221 C 1426.11 746.491 1408.99 772.432 1370.48 778.982 C 1306.92 779.889 1271.12 709.915 1308.97 665.661 C 1339.02 630.524 1417.04 539.984 1462.76 533.271 z" fill="rgb(0,0,0)" transform="translate(0,0)"></path>
<metadata><recraft-signature>{"signed_by": "recraft", "signature_b64": "nLxbACmNf9/Xme3k8aqClJRMeqtPSkq3VG9gV94Pxo+VJgmpns2JMCQK9CwE4T+n8eBUzzdJ4Fg5Isaa9HcPCA==", "signing_algo": "Ed25519", "generation_timestamp": 1772995585, "identifier": "80ef3fed-296c-4289-9b1d-d5bb6c4fadb5"}</recraft-signature></metadata></svg>