<svg xmlns="http://www.w3.org/2000/svg" height="512" preserveAspectRatio="none" style="display: block;" version="1.1" viewBox="0 0 2048 2048" width="512">
<path d="M 821.179 601.986 C 830.568 601.237 850.201 601.908 860.228 601.923 L 1637.39 601.939 C 1676.98 601.915 1740.68 593.337 1747.82 649.042 C 1751.27 675.905 1749.91 706.906 1749.88 734.277 L 1749.94 1146.02 C 1749.95 1194.68 1747.96 1227.71 1692.19 1237.01 L 857.496 1236.99 C 835.458 1236.86 816.394 1240.82 796.667 1228.55 C 758.254 1204.67 766.967 1156.65 767.004 1116.44 L 766.947 697.275 C 766.816 651.752 765.172 613.257 821.179 601.986 z M 895.038 1024.27 C 918.104 1025.36 950.244 1024.27 974.218 1024.27 L 1623.51 1024.27 L 1624.59 1023.2 C 1618.1 926.936 1625.59 821.419 1623.51 724.003 L 895.038 724.003 L 895.038 1024.27 z" fill="rgb(0,0,0)" transform="translate(0,0)"></path>
<path d="M 453.579 297.895 C 510.988 296.869 571.869 297.897 629.471 297.899 L 1138.22 297.866 C 1166.77 297.859 1203.44 295.824 1230.84 300.603 C 1331.74 318.207 1382.96 416.075 1365 511.136 C 1325.16 511.483 1280.13 511.969 1240.69 511.136 C 1236.8 476.288 1249.82 424.948 1196.73 424.554 L 548.112 424.525 C 520.608 424.602 492.637 423.991 465.084 424.4 C 411.519 425.195 424.952 501.568 424.987 538.524 L 424.993 1548.08 C 425.002 1629.68 433.449 1624.88 504.228 1624.76 L 909.25 1624.67 L 1167.56 1624.71 C 1191.47 1624.69 1235.47 1627.36 1239.02 1593.45 C 1242.08 1564.2 1240.66 1533.44 1240.65 1503.83 L 1240.69 1323 L 1365 1323 L 1365.01 1508.05 C 1365.04 1541.25 1367.43 1587.58 1361.94 1618.96 C 1343.91 1721.97 1254.86 1748.07 1166.36 1748.05 L 501.227 1748.05 C 406.503 1748.06 317.261 1716.73 301.167 1607.56 C 298.142 1587.03 299.231 1564.82 299.277 1543.97 L 299.322 523.883 C 299.221 408.252 319.461 316.01 453.579 297.895 z" fill="rgb(0,0,0)" transform="translate(0,0)"></path>
<path d="M 736.905 1492.51 C 747.702 1491.82 761.338 1492.42 772.463 1492.45 L 892.143 1492.47 C 927.35 1492.48 973.152 1492.46 979.345 1539.86 C 984.567 1579.84 969.694 1611.7 927.244 1618 L 799.956 1618.04 C 757.79 1618.03 694.929 1627.95 685.379 1570.51 C 678.77 1530.76 693.719 1497.21 736.905 1492.51 z" fill="rgb(0,0,0)" transform="translate(0,0)"></path>
<metadata><recraft-signature>{"signed_by": "recraft", "signature_b64": "QE767KlEmDwJGqVkukE0P7rQAbQgdnTA0+rhtPdg5krExXwd2WdnO0wMmO5BGJfWohqVp9ra+YWdr3OhAYtDAg==", "signing_algo": "Ed25519", "generation_timestamp": 1772998963, "identifier": "9ec60c7b-5855-4a7b-a644-3ea4401cdae0"}</recraft-signature></metadata></svg>