<svg xmlns="http://www.w3.org/2000/svg" height="512" preserveAspectRatio="none" style="display: block;" version="1.1" viewBox="0 0 2048 2048" width="512">
<path d="M 450.876 486.085 L 1565.16 486.035 C 1696.07 486.015 1759.15 543.825 1759.05 677.549 L 1759.1 821.272 C 1759.2 869.737 1752.64 925.01 1688.84 928.861 C 1677.98 929.167 1667.28 929.166 1656.44 929.854 C 1564.01 935.448 1544.49 1061.89 1631.59 1094.02 C 1664.47 1106.15 1698.11 1088.69 1727.95 1114.99 C 1755.47 1139.24 1759.03 1159.96 1758.99 1195.48 C 1758.91 1283.25 1776.71 1412.58 1720.08 1480.65 C 1668.55 1544.22 1602.84 1539.59 1530.37 1539.54 L 505.455 1539.54 C 482.321 1539.54 455.065 1540.37 432.498 1537.52 C 358.225 1528.14 296.241 1459.98 290.611 1386.02 C 289.213 1367.64 289.726 1347.01 289.757 1328.27 L 289.701 674.438 C 289.7 571.507 339.45 494.942 450.876 486.085 z M 827.236 1386.51 L 1571.01 1386.63 C 1578.4 1386.68 1592.08 1387.15 1599.02 1386.51 C 1617.27 1365.69 1611.13 1345.29 1611.11 1317.66 L 1611.01 1241.62 C 1603.84 1239.68 1592.59 1236.98 1585.95 1234.42 C 1367.43 1169.44 1372.2 831.001 1607.98 781.269 L 1608.04 704.504 C 1608.08 679.07 1615.82 636.718 1579.63 634.886 C 1548.59 633.315 1517.31 633.949 1486.22 633.969 L 831.301 633.851 C 829.909 633.862 828.624 633.931 827.236 634.003 L 827.239 1135.04 C 827.241 1217.8 828.488 1304.05 827.236 1386.51 z M 660.25 1386.51 L 675.559 1386.51 C 676.135 1371.34 675.575 1356.13 675.567 1340.93 L 675.57 671.589 C 675.574 660.031 676.155 645.106 675.559 634.003 C 637.304 632.618 589.265 634 550.06 633.98 L 490.488 633.94 C 482.128 633.931 468.427 633.431 460.561 634.003 C 439.363 643.797 441.623 658.401 441.483 678.624 L 441.644 1354.91 C 441.734 1391.87 451.977 1386.54 484.642 1386.59 L 660.25 1386.51 z" fill="rgb(0,0,0)" transform="translate(0,0)"></path>
<metadata><recraft-signature>{"signed_by": "recraft", "signature_b64": "sP/qM8N3nSfmjq8CYEgryGuia1w/MqbRD3AnaGjtTRAjPucuNPj1d3c9guP9wQROb1/KlB5irsTgKqBtchIPAA==", "signing_algo": "Ed25519", "generation_timestamp": 1772998588, "identifier": "a08ed908-5444-47bb-aa05-fd782e5c7b2d"}</recraft-signature></metadata></svg>