<svg xmlns="http://www.w3.org/2000/svg" height="512" preserveAspectRatio="none" style="display: block;" version="1.1" viewBox="0 0 2048 2048" width="512">
<path d="M 1337.84 1120.97 C 1396.99 1118.28 1460.21 1124.84 1518.5 1120.92 C 1661.67 1111.3 1743.72 1220.74 1744.9 1353.12 L 1744.9 1652.94 C 1745.57 1749.75 1722.65 1754.09 1638.87 1754.08 L 1553.5 1754 L 1240.52 1754.06 C 1228 1754.07 1212.22 1754.64 1200.07 1753.36 C 1140.33 1747.05 1144.94 1682.32 1144.95 1640.78 L 1145 1326.37 C 1145.86 1215.7 1231.81 1134.75 1337.84 1120.97 z M 1266.49 1629.01 L 1544.5 1629.01 C 1568.72 1629.05 1603.38 1630.25 1626.9 1629.01 L 1626.95 1359.25 C 1627.16 1299.83 1608.51 1241.65 1538.06 1241.59 L 1354.5 1241.35 C 1353.37 1241.33 1351.74 1241.48 1350.6 1241.57 C 1273.6 1247.57 1266.48 1304.39 1266.46 1364.06 L 1266.47 1563.59 C 1266.47 1584.48 1265.88 1608.37 1266.49 1629.01 z" fill="rgb(0,0,0)" transform="translate(0,0)"></path>
<path d="M 353.974 294.964 L 355.09 294.895 C 369.915 294.076 391.607 294.891 407.014 294.913 L 1167.77 294.917 C 1215.62 294.78 1269.32 293.155 1269.46 358.108 C 1269.59 418.241 1269.32 478.419 1269.55 538.556 C 1269.97 652.729 1158.59 636.479 1145.79 574.243 C 1142.84 559.847 1144.96 536.727 1145 521.303 L 1145 415.997 L 425.228 415.997 L 425.228 990.858 L 425.228 1268.78 L 902.603 1268.75 C 925.49 1268.75 964.206 1265.65 984.513 1274.28 C 1040.4 1298.04 1025.53 1383.85 966.055 1388.37 C 938.251 1389.53 909.437 1388.99 881.583 1388.96 L 399.499 1388.67 C 286.295 1388.01 301.989 1358.94 302.007 1265.48 L 302.063 437.492 C 302.023 380.808 285.75 312.968 353.974 294.964 z" fill="rgb(0,0,0)" transform="translate(0,0)"></path>
<path d="M 1428.28 657.985 C 1553.1 650.468 1660.45 745.415 1668.23 870.218 C 1676.01 995.021 1581.29 1102.57 1456.51 1110.62 C 1331.35 1118.69 1223.4 1023.62 1215.6 898.445 C 1207.79 773.264 1303.09 665.524 1428.28 657.985 z M 1449.49 990.933 C 1507.74 984.788 1549.95 932.551 1543.73 874.314 C 1537.5 816.077 1485.21 773.936 1426.98 780.233 C 1368.86 786.52 1326.82 838.694 1333.03 896.823 C 1339.24 954.953 1391.35 997.067 1449.49 990.933 z" fill="rgb(0,0,0)" transform="translate(0,0)"></path>
<metadata><recraft-signature>{"signed_by": "recraft", "signature_b64": "/w28EuakVjD41y22bqRhaC6h6S1CN1giIq0mtMeHlBZpkzROEismvkZlUBC2mL5z/y07cl7kdEUyQ0NFw36hAQ==", "signing_algo": "Ed25519", "generation_timestamp": 1772990425, "identifier": "8bf2c4d4-3ebe-4b69-93ce-d93a49d64c7a"}</recraft-signature></metadata></svg>