<svg xmlns="http://www.w3.org/2000/svg" height="512" preserveAspectRatio="none" style="display: block;" version="1.1" viewBox="0 0 2048 2048" width="512">
<path d="M 254.998 669.734 C 265.349 668.633 297.067 669.686 308.601 669.713 L 1669.39 669.71 C 1709.52 669.697 1749.85 669.484 1789.77 670.002 C 1859.81 671.711 1850.1 742.747 1850.01 791.117 L 1850.06 1270.76 C 1850.08 1315.3 1854.24 1365.49 1794.99 1376.07 C 1785.55 1377.28 1757.67 1376.11 1745.99 1376.09 L 260.415 1376.41 C 188.853 1375.71 199.039 1292.7 199.034 1247.04 L 198.936 768.153 C 198.935 722.461 195.043 677.003 254.998 669.734 z M 884.5 1319 L 1755.06 1318.99 C 1763.37 1318.98 1786.42 1320.83 1791.93 1315.68 C 1796.57 1301.33 1794.89 1243.24 1794.92 1225.38 L 1794.99 865.306 C 1794.99 845.124 1797.37 744.889 1792.47 730.151 C 1783.28 720.107 1724.02 724.595 1708.3 724.6 L 1169.74 724.653 L 375.486 724.668 C 357.45 724.667 265.784 720.227 256.028 729.798 C 254.072 740.804 254.941 783.723 254.96 797.809 L 254.956 1274.64 C 254.96 1284.13 254.411 1306.97 256.369 1315.19 C 266.252 1322.84 314.105 1319.02 328.693 1319.02 L 884.5 1319 z" fill="rgb(0,0,0)" transform="translate(0,0)"></path>
<path d="M 617.774 921.903 C 670.295 915.498 718.095 952.799 724.646 1005.3 C 731.197 1057.8 694.028 1105.71 641.543 1112.4 C 588.853 1119.13 540.721 1081.78 534.144 1029.07 C 527.568 976.363 565.047 928.334 617.774 921.903 z M 637.932 1078.12 C 696.867 1070.08 705.516 957.706 620.869 953.879 C 550.273 974.303 568.139 1092.48 637.932 1078.12 z" fill="rgb(0,0,0)" transform="translate(0,0)"></path>
<path d="M 415.361 1057.83 C 430.685 1016.32 439.068 970.803 456.284 930.238 C 458.54 924.924 509.325 913.871 508.874 941.851 C 508.019 994.954 511.358 1048.46 509.248 1101.51 C 504.014 1109.62 502.679 1109.83 493.187 1111.42 C 465.057 1108.5 473.134 1087.99 473.167 1062.3 L 473.264 992.696 C 473.588 988.517 473.662 984.949 473.723 980.753 C 469.391 983.217 441.337 1084.91 435.511 1098.84 C 427.271 1118.55 398.117 1115.15 394.177 1100.49 C 382.416 1056.72 366.949 1013.06 354.978 969.48 C 355.34 987.099 356.756 1094.01 353.827 1101.99 C 349.211 1114.56 325.186 1116.16 320.919 1102.77 C 316.717 1089.58 317.944 964.636 319.413 941.779 C 320.152 930.287 324.333 925.814 335.407 922.23 C 386.067 925.582 376.859 930.786 392.341 981.9 L 415.361 1057.83 z" fill="rgb(0,0,0)" transform="translate(0,0)"></path>
<path d="M 1125.91 919.007 C 1141.18 917.583 1156.73 918.559 1171.64 924.136 C 1250.93 951.217 1201.99 1013.28 1180.95 978.613 C 1138.75 909.056 1051.12 975.433 1087.7 1053.89 C 1102.78 1086.5 1148.91 1087.43 1177.01 1072.65 L 1177.01 1038.54 C 1153.41 1038.88 1128.26 1047.59 1125.91 1021.02 C 1127.78 1008.4 1133.25 1007.53 1145.31 1007.9 C 1224.21 1010.31 1221.65 994.977 1218.23 1083.97 C 1186.24 1120.25 1105.86 1126.39 1070.82 1093.32 C 1011.2 1037.04 1035.49 923.756 1125.91 919.007 z" fill="rgb(0,0,0)" transform="translate(0,0)"></path>
<path d="M 1358.73 992.696 C 1358.87 976.568 1358.54 957.688 1358.49 941.571 C 1358.4 914.225 1397.66 918.016 1398.69 934.861 C 1399.67 950.92 1399.06 972.575 1399.03 989.153 L 1399 1101.51 C 1391.14 1113.38 1382.56 1114.74 1369.39 1111.42 C 1363.59 1108.28 1362.61 1106.87 1358.73 1101.51 L 1358.73 1026.04 L 1288.99 1026.04 C 1288.9 1055.51 1302.27 1107.37 1270.16 1111.42 C 1263.1 1110.85 1253.43 1111.39 1251 1102.97 C 1247.55 1091 1247.94 956.866 1249.41 938.454 C 1250.21 928.397 1254.46 924.182 1264.29 922.23 C 1299.27 919.435 1289.11 966.604 1288.99 992.696 C 1311.99 992.992 1335.67 992.704 1358.73 992.696 z" fill="rgb(0,0,0)" transform="translate(0,0)"></path>
<path d="M 1450.36 922.23 C 1465.54 921.88 1556.66 920.094 1563.86 924.826 C 1574.93 932.106 1572.5 950.749 1559.17 953.284 C 1539.6 957.004 1500.39 953.129 1478.48 953.879 C 1477.89 967.543 1478.39 984.213 1478.48 998.07 C 1490.82 998.049 1555.23 995.731 1561.48 1001.92 C 1566.91 1007.31 1566.73 1021.2 1561.33 1026.41 C 1552.63 1034.81 1492.65 1030.26 1478.48 1030.5 L 1478.48 1043.4 C 1478.16 1055.46 1478.17 1066.06 1478.48 1078.12 C 1495.14 1078.09 1553.85 1076.19 1565.94 1079.11 C 1580.81 1082.7 1582.74 1104.98 1568.49 1110.45 C 1563.11 1112.51 1468.65 1112.29 1458.26 1111.66 C 1429.06 1109.89 1437.82 1086.62 1437.84 1064.3 L 1437.89 997.169 C 1437.89 976.919 1429.11 927.463 1450.36 922.23 z" fill="rgb(0,0,0)" transform="translate(0,0)"></path>
<path d="M 1599.45 922.23 C 1612.9 921.651 1723.69 920.056 1727.26 926.242 C 1748 962.16 1698.96 954.163 1680.56 953.879 L 1680.56 1078.12 C 1680.85 1138.9 1639.97 1108.8 1639.46 1099.52 C 1638.57 1083.49 1638.92 1067.24 1638.93 1051.15 L 1639 953.879 C 1625.36 953.817 1599.85 958.12 1588.94 950.972 C 1578.47 944.119 1583.6 923.584 1599.45 922.23 z" fill="rgb(0,0,0)" transform="translate(0,0)"></path>
<path d="M 769.196 922.23 C 773.766 923.1 777.834 924.44 782.277 925.782 C 784.795 927.729 787.255 930.457 789.49 932.772 C 788.962 988.712 789.963 1044.92 789.44 1100.89 C 788.915 1156.99 769.691 1174.46 714.656 1172.99 C 690.367 1162.77 690.626 1143.75 714.656 1133.52 C 721.533 1137.35 723.863 1138.39 731.309 1140.68 C 755.947 1132.19 749.323 1101.89 749.621 1080.77 C 749.91 1060.28 747.765 939.305 751.925 932.15 C 755.332 926.292 763.045 923.824 769.196 922.23 z" fill="rgb(0,0,0)" transform="translate(0,0)"></path>
<path d="M 910.044 922.23 C 922.266 922.891 933.306 925.476 933.863 939.633 C 936.248 981.428 934.28 1023.73 934.374 1065.51 C 934.491 1117.84 859.046 1128.09 832.115 1094.55 C 821.581 1080.26 815.873 1051.47 838.96 1046.85 C 865.932 1041.46 859.064 1073.87 873.03 1081.06 C 912.031 1101.12 886.899 951.817 896.858 931.41 C 899.501 925.993 904.705 924.129 910.044 922.23 z" fill="rgb(0,0,0)" transform="translate(0,0)"></path>
<path d="M 987.722 922.23 C 997.962 923.801 1010.46 925.341 1010.58 938.245 C 1011.09 991.754 1013.27 1051.14 1010.92 1103.94 C 1005.2 1108.88 1003.32 1109.59 995.91 1111.42 C 990.268 1112.12 974.337 1111.45 973.668 1103.32 C 969.264 1049.85 971.907 994.675 972.168 940.92 C 972.225 929.168 977.015 924.992 987.722 922.23 z" fill="rgb(0,0,0)" transform="translate(0,0)"></path>
<path d="M 1169.74 872.324 C 1193.27 869.864 1213.5 886.561 1198.52 900.476 C 1194.8 900.917 1188.8 899.079 1184.92 898.147 C 1182.91 898.82 1179.02 901.502 1177.01 902.774 C 1157.83 919.12 1143.99 909.01 1125.91 898.147 C 1096.61 926.306 1088.11 878.573 1122.8 872.324 C 1140.48 873.224 1141.93 875.386 1153.87 888.251 C 1158.87 883.751 1164.54 877.331 1169.74 872.324 z" fill="rgb(0,0,0)" transform="translate(0,0)"></path>
<path d="M 769.196 872.324 C 794.427 868.094 799.863 909.452 769.196 911.309 C 739.018 908.108 739.203 873.102 769.196 872.324 z" fill="rgb(0,0,0)" transform="translate(0,0)"></path>
<metadata><recraft-signature>{"signed_by": "recraft", "signature_b64": "N5P7LP6YBsLh1nCGF5kLVy/zhbwlF2ptSbJZWPL1B8kd4xd6qi31gjC8IciuODMBYa9iJY+wPd0SIx2jZttqDw==", "signing_algo": "Ed25519", "generation_timestamp": 1773000896, "identifier": "2ebd9ad0-3758-4d9d-8d03-41f3082b5a02"}</recraft-signature></metadata></svg>