<svg xmlns="http://www.w3.org/2000/svg" height="512" preserveAspectRatio="none" style="display: block;" version="1.1" viewBox="0 0 2048 2048" width="512">
<path d="M 385.757 1375 C 482.406 1373.86 581.638 1375 678.406 1374.98 L 763.888 1374.97 C 842.132 1374.97 907.111 1386.82 908.151 1481.29 C 908.773 1537.73 908.651 1594.36 908.89 1650.85 C 909.106 1701.97 871.747 1749.86 818.199 1750.51 C 805.251 1752.15 774.45 1750.51 759.508 1750.49 L 451.139 1750.48 C 411.97 1750.38 372.282 1757.92 338.043 1734.62 C 298.46 1707.69 295.102 1666.69 295.286 1623.62 L 295.232 1500.7 C 294.885 1433.94 308.533 1389.15 385.757 1375 z M 806.748 1679 C 840.707 1678.11 834.141 1651.45 834.097 1626.13 L 833.985 1499.66 C 834.512 1433.6 813.515 1447.33 753.559 1447.33 L 395.047 1447.34 C 361.003 1451.77 368.87 1486.33 368.945 1511.84 L 368.967 1625.9 C 368.203 1694.89 389.642 1679.05 449.782 1679.01 L 723.739 1679.02 C 749.851 1679.05 780.953 1679.93 806.748 1679 z" fill="rgb(0,0,0)" transform="translate(0,0)"></path>
<path d="M 381.252 293.993 C 410.09 293.124 443.174 294.023 472.442 294.028 L 766.054 293.96 C 784.663 293.927 807.274 292.727 825.412 294.524 C 924.644 304.358 905.565 424.292 905.752 493.811 L 905.916 551.447 C 906.07 615.078 895.079 650.768 825.776 670.871 C 811.289 672.584 773.302 670.863 756.626 670.846 L 442.552 670.837 C 387.335 670.736 333.395 679.703 306.177 614.469 C 296.223 590.611 297.965 567.792 298.032 542.829 L 298.031 384.529 C 298.182 336.114 333.378 299.51 381.252 293.993 z M 371.132 381.502 L 371.094 507.404 C 371.099 536.38 359.483 597.081 395.735 598.861 C 420.148 600.059 445.144 599.596 469.811 599.587 L 792.699 599.335 C 798.537 599.337 808.535 599.977 813.791 599.632 L 815.178 599.532 C 826.024 595.351 833.276 588.351 833.388 576.265 C 833.998 510.249 834.762 442.912 834.039 376.991 C 817.576 361.009 786.884 366.932 763.786 366.944 L 393.413 366.878 C 392.925 366.914 392.437 366.951 391.948 366.988 C 380.233 369.141 377.397 371.435 371.132 381.502 z" fill="rgb(0,0,0)" transform="translate(0,0)"></path>
<path d="M 1228.04 293.993 C 1244.73 292.693 1282.66 293.94 1300.55 293.955 L 1595.18 293.985 C 1617.76 293.969 1640.8 293.106 1663.61 294.115 C 1742.32 297.598 1751.16 366.806 1751.1 426.192 L 1750.99 505.668 C 1750.9 589.942 1760.99 645.383 1664.65 670.871 L 1276.73 670.908 C 1176.12 670.947 1140.12 647.416 1140.01 539.612 L 1140.04 417.474 C 1140.1 355.477 1153.03 303.434 1228.04 293.993 z M 1648.75 599.532 C 1686.89 597.124 1680.36 569.272 1680.06 540.786 L 1680.04 426.035 C 1680.04 408.474 1685.64 370.548 1661.58 367.755 L 1659.55 367.505 C 1648.48 366.212 1626.74 366.952 1614.78 366.956 L 1245.85 366.988 C 1226.94 366.801 1213.67 369.641 1213.69 391.837 L 1214.52 514.795 C 1214.24 600.98 1204.58 599.614 1285.62 599.588 L 1648.75 599.532 z" fill="rgb(0,0,0)" transform="translate(0,0)"></path>
<path d="M 1231.84 1375 C 1254.48 1373.69 1293.22 1375.04 1317.27 1375.04 L 1605.01 1374.97 C 1624.45 1374.94 1647.6 1374.04 1666.73 1376.13 C 1709.25 1380.79 1748.68 1421.57 1749.84 1464.97 C 1751.59 1529.72 1751.2 1596.67 1750.25 1661.58 C 1749.48 1710.9 1713.68 1746.76 1664.65 1750.51 L 1281.39 1750.54 C 1223.63 1750.55 1152.09 1746.13 1142.1 1670.24 C 1138.18 1640.46 1140.08 1603.76 1140.04 1573.23 L 1139.97 1509 C 1139.94 1436.04 1154.37 1388.39 1231.84 1375 z M 1658.25 1679 C 1669.81 1675.93 1672.84 1672.64 1680.01 1663.45 L 1679.88 1661.68 C 1678.88 1647.54 1679.95 1629.41 1680 1614.66 L 1680.06 1518.53 C 1680 1428.61 1669.39 1447.27 1583.87 1447.31 L 1240.37 1447.22 C 1240.09 1447.26 1239.81 1447.3 1239.53 1447.34 C 1204.82 1452.5 1214.41 1492.21 1214.44 1521.41 L 1214.53 1598.84 C 1214.57 1627.2 1202.39 1680.6 1241.57 1678.9 L 1658.25 1679 z" fill="rgb(0,0,0)" transform="translate(0,0)"></path>
<path d="M 508.994 988.631 L 1214.49 988.631 C 1214.32 1011.69 1217.31 1037.27 1214.49 1060.09 L 508.994 1060.09 L 508.765 1015.37 C 508.684 1008.07 508.177 995.503 508.994 988.631 z" fill="rgb(231,40,40)" transform="translate(0,0)"></path>
<path d="M 366.314 946.326 C 408.514 943.068 445.445 974.454 449.035 1016.63 C 452.626 1058.8 421.533 1095.98 379.39 1099.9 C 336.773 1103.87 299.087 1072.35 295.456 1029.7 C 291.825 987.056 323.64 949.62 366.314 946.326 z" fill="rgb(231,40,40)" transform="translate(0,0)"></path>
<metadata><recraft-signature>{"signed_by": "recraft", "signature_b64": "Ea1vy8UV/mwMQMWVMKS6XTXXztqrDZZswAAhr4uKhDp84VsS36N/vIZR4CXIuwOlayJS5P4UVOFBSp2OFTadCQ==", "signing_algo": "Ed25519", "generation_timestamp": 1773000109, "identifier": "afe96833-449f-4e4c-b329-9dad3972390e"}</recraft-signature></metadata></svg>