<svg xmlns="http://www.w3.org/2000/svg" height="512" preserveAspectRatio="none" style="display: block;" version="1.1" viewBox="0 0 2048 2048" width="512">
<path d="M 376.518 341.993 C 400.929 340.866 436.357 341.983 461.652 341.988 L 805.57 341.968 C 900.726 341.913 938.928 316.838 938.028 426.946 L 938.03 788.675 C 938.043 838.074 956.38 922.638 902.298 937.473 C 876.915 938.645 840.965 937.498 814.597 937.493 L 470.423 937.49 C 441.256 937.515 411.725 937.754 382.55 937.284 C 331.865 936.468 342.748 870.667 342.78 837.44 L 342.694 415.884 C 342.347 384.68 335.55 350.506 376.518 341.993 z M 426.764 853.001 L 854.51 853.001 L 854.51 424.999 L 426.764 424.999 C 426.043 464.717 426.833 503.631 426.741 543.295 L 426.764 853.001 z" fill="rgb(0,0,0)" transform="translate(0,0)"></path>
<path d="M 376.518 1110.94 L 848.396 1110.87 C 941.547 1110.83 938.019 1114.11 938.026 1195.72 L 938.012 1627.67 C 938.01 1659.77 944.947 1698.8 902.298 1705.6 C 884.766 1706.77 849.674 1705.63 830.91 1705.62 L 473.794 1705.55 C 437.322 1705.51 359.331 1719.86 344.68 1679.9 C 340.342 1668.07 342.774 1583.27 342.775 1565.39 L 342.794 1215.74 C 342.787 1173.7 329.296 1125.71 376.518 1110.94 z M 426.764 1621.99 L 809.202 1621.94 C 820.596 1621.92 843.759 1621.19 854.51 1621.99 C 855.046 1603.26 854.506 1584.45 854.507 1565.68 L 854.51 1194.99 L 569.298 1194.97 C 522.531 1194.97 473.362 1194.19 426.764 1194.99 L 426.764 1621.99 z" fill="rgb(0,0,0)" transform="translate(0,0)"></path>
<path d="M 1291.13 1110.94 C 1303.89 1109.68 1321.24 1110.82 1334.38 1110.88 L 1476.3 1110.89 C 1508.17 1110.71 1531.19 1108.59 1562.83 1116.74 C 1640.13 1136.66 1704.98 1208.36 1705.93 1290.31 C 1706.35 1326.48 1705.95 1364.32 1705.98 1400.86 L 1706.04 1472.95 C 1706.06 1504.12 1707.94 1531.73 1699.5 1562.26 C 1677.79 1640.75 1606.22 1703 1523.54 1705.6 L 1392.12 1705.59 C 1350.49 1705.62 1303.75 1708.65 1263.24 1699.8 C 1177.17 1681.01 1110.94 1598.44 1110.41 1510.61 C 1110.18 1495.32 1110.73 1480.23 1110.82 1464.98 L 1110.56 1332.17 C 1110.55 1267.16 1117.22 1219.13 1165.4 1168.68 C 1195.64 1137.01 1247.12 1111.79 1291.13 1110.94 z M 1523.54 1621.99 C 1612.06 1609.45 1623.01 1545.54 1622.64 1474.12 L 1622.6 1327.8 C 1622.71 1264.28 1609.42 1207.59 1533.13 1194.88 C 1514.03 1191.7 1495.92 1194.79 1476.79 1194.94 L 1364.33 1194.99 C 1357.73 1194.99 1298.85 1194.14 1296.75 1194.99 C 1270.37 1195.4 1244.62 1208.59 1226.18 1227.06 C 1189.49 1263.81 1194.59 1310.71 1194.81 1358.11 C 1195.18 1440.43 1171.92 1561.98 1255.71 1606.81 C 1289 1625.4 1313.13 1622.35 1349.41 1622.02 L 1486.57 1622.07 C 1497.95 1622.12 1512.6 1623.38 1523.54 1621.99 z" fill="rgb(0,0,0)" transform="translate(0,0)"></path>
<path d="M 1402.43 337.073 C 1427.59 335.848 1440.49 343.34 1451.65 366.011 L 1699.46 868.884 C 1738.52 950.148 1632.89 937.481 1587.11 937.49 L 1411.5 937.473 L 1179.57 937.4 C 1066.34 937.249 1115.88 864.998 1149.43 799.261 L 1370.63 360.019 C 1378.2 345.23 1387.48 341.455 1402.43 337.073 z M 1220.57 853.001 L 1408.9 853.001 L 1531.55 852.968 C 1554.18 852.932 1570.81 851.416 1593.71 853.001 C 1580.25 818.423 1553.37 769.299 1536.45 734.689 L 1430.78 518.72 C 1427.81 512.791 1412.03 479.582 1408.9 476.716 C 1401.65 487.619 1390.75 511.539 1384.56 524.072 L 1345.52 602.249 C 1303.61 686.306 1261.18 768.158 1220.57 853.001 z" fill="rgb(0,0,0)" transform="translate(0,0)"></path>
<metadata><recraft-signature>{"signed_by": "recraft", "signature_b64": "QWlRlKUFqopjzOd37a+0AMSYz54QxusAf8LaZ/19q1YlTbF7Mp2yKDd6AuQ5ljMBWifnjvR1BgJOkiANYyzCBQ==", "signing_algo": "Ed25519", "generation_timestamp": 1772998197, "identifier": "fb4aff51-a6d9-42d1-9a03-826f94b2f07e"}</recraft-signature></metadata></svg>