<svg xmlns="http://www.w3.org/2000/svg" height="512" preserveAspectRatio="none" style="display: block;" version="1.1" viewBox="0 0 2048 2048" width="512">
<path d="M 1382.65 722.005 C 1385.82 721.095 1405.45 721.895 1410.14 721.915 L 1585.8 721.971 C 1700.27 721.658 1708.98 742.86 1747.75 847.039 L 1812.94 1025.26 C 1822.44 1051.73 1834.51 1077.26 1842.29 1104.82 C 1855.52 1151.75 1793.86 1189.34 1759.86 1153.06 C 1743.3 1133.45 1679.52 941.034 1667.67 907.575 C 1666.07 892.712 1640.61 893.048 1639.01 903.65 C 1636.41 920.887 1661.06 979.4 1666.68 994.637 L 1701.58 1090.73 C 1729.41 1166.42 1755.71 1242.88 1781.68 1319.22 L 1650 1319.22 C 1649.35 1340.32 1650 1364.6 1650 1386.01 L 1649.97 1519.39 C 1649.97 1565.18 1662.11 1621.51 1610.05 1643.61 C 1576.83 1657.7 1534.05 1640.14 1526.3 1603.59 C 1522.45 1585.43 1523.43 1563.07 1523.45 1544.6 L 1523.49 1319.22 C 1513.8 1319.49 1503.56 1319.27 1493.82 1319.22 L 1493.83 1584.68 C 1494.03 1641.93 1423.87 1667.73 1384.26 1629.29 C 1356.81 1602.63 1365.54 1542.19 1365.54 1505.82 L 1365.53 1319.22 L 1231.93 1319.22 C 1241.73 1285.92 1257.33 1244.69 1269.23 1211.7 L 1359.24 966.813 C 1364.06 953.755 1389.99 903.182 1369.17 895.603 C 1348.69 888.152 1343.47 917.126 1338.6 930.295 L 1245.3 1186.16 C 1219.07 1258.23 1144.64 1200.84 1099.15 1182.61 C 1099.32 1236.38 1098.9 1290.19 1099.36 1343.93 C 1099.41 1350.7 1096.94 1370.12 1097.44 1373.76 C 1107.01 1443.2 1125.41 1517.45 1137.81 1587.31 C 1147.98 1646.48 1073.96 1669.43 1053.33 1620.39 C 1048.93 1609.93 1046.47 1590.36 1044.05 1578.3 L 1026.91 1489.05 C 1023.26 1469.37 1016.27 1441.8 1014.17 1422.9 C 1010.25 1434.82 1005.6 1462.74 1003.05 1476.01 L 984.818 1571.9 C 982.103 1586.53 979.365 1606.89 974.365 1620.17 C 962.203 1651.69 914.509 1656.59 896.092 1629.39 C 881.311 1607.56 895.881 1561.74 900.781 1536.21 C 911.352 1483.07 923.259 1424.27 932.203 1370.97 C 916.968 1334.09 926.338 1228.61 925.021 1182.61 C 858.574 1203.74 806.291 1266 773.3 1171.63 C 747.931 1099.06 724.881 1023.9 695.384 952.932 C 696.149 997.22 695.361 1044.2 695.362 1088.69 L 695.392 1511.22 C 695.398 1534.36 696.15 1558.73 695.135 1581.4 C 691.487 1662.88 567.781 1669.14 550.883 1596.62 C 545.401 1573.09 547.017 1539.98 547.04 1515.15 L 547.091 1288.16 C 547.167 1275.33 545.406 1212.47 519.41 1250.09 L 518.663 1251.19 L 518.713 1541.63 C 518.737 1556.65 519.48 1574.45 516.806 1589.04 C 502.359 1663.92 396.54 1666.21 376.094 1593.61 C 370.996 1575.51 374.023 1540.31 374.02 1521.18 L 374.033 960.545 L 312.383 1142.4 C 284.016 1228.09 191.161 1178.04 203.013 1129.86 C 208.962 1105.68 217.518 1080.77 225.365 1057.18 L 298.762 830.944 C 333.154 727.618 349.147 721.987 452.254 722.01 L 622.527 721.965 C 751.691 721.992 747.277 754.776 783.26 860.256 L 835.669 1013.09 C 846.205 1044.56 857.345 1082.59 869.576 1113 C 896.665 1103.97 926.365 1083.69 952.511 1077.25 C 966.063 1073.91 1055.36 1074.47 1069.29 1076.45 C 1088.51 1079.19 1148.74 1111.9 1167.29 1122.81 C 1180.28 1091.45 1194.24 1051.68 1206.06 1019.57 L 1244.54 916.798 C 1272.44 839.979 1285.1 730.972 1382.65 722.005 z" fill="rgb(0,0,0)" transform="translate(0,0)"></path>
<path d="M 1495.74 399.838 C 1572.12 393.244 1639.38 449.847 1645.93 526.236 C 1652.47 602.624 1595.83 669.845 1519.43 676.342 C 1443.11 682.834 1375.96 626.25 1369.42 549.93 C 1362.88 473.61 1419.42 406.427 1495.74 399.838 z" fill="rgb(0,0,0)" transform="translate(0,0)"></path>
<path d="M 524.533 399.281 C 600.528 391.356 668.517 446.642 676.255 522.656 C 683.993 598.671 628.54 666.523 552.507 674.075 C 476.738 681.6 409.172 626.381 401.461 550.631 C 393.749 474.88 448.802 407.179 524.533 399.281 z" fill="rgb(0,0,0)" transform="translate(0,0)"></path>
<path d="M 999.815 882.831 C 1046.61 877.183 1089.14 910.495 1094.87 957.279 C 1100.59 1004.06 1067.35 1046.65 1020.58 1052.46 C 973.691 1058.28 930.981 1024.94 925.241 978.043 C 919.5 931.146 952.909 888.492 999.815 882.831 z" fill="rgb(0,0,0)" transform="translate(0,0)"></path>
<metadata><recraft-signature>{"signed_by": "recraft", "signature_b64": "15S+NTsMqxVP5fI+xs/bah4lxHporIFdiytRM2kjaU/754vdqPbl3kEZimVROT6YvTkpyn/390dCutxaHjSgBg==", "signing_algo": "Ed25519", "generation_timestamp": 1773000508, "identifier": "499318c4-09f4-48ba-a546-8b5eaf740ce2"}</recraft-signature></metadata></svg>