<svg xmlns="http://www.w3.org/2000/svg" height="512" preserveAspectRatio="none" style="display: block;" version="1.1" viewBox="0 0 2048 2048" width="512">
<path d="M 236.005 569.001 C 256.635 568.008 286.524 568.996 307.726 569.003 L 1800.44 568.985 C 1836.06 568.745 1855.1 599.645 1855.04 631.537 L 1854.97 1329.56 C 1855.11 1376.43 1862.27 1422.1 1805.83 1436.46 C 1775.2 1437.12 1741.75 1436.47 1710.95 1436.47 L 334.266 1436.48 C 307.484 1436.48 280.57 1436.63 253.804 1436.3 C 180.715 1434.51 194.482 1351.18 194.504 1298.2 L 194.487 681.552 C 194.466 640.063 183.77 582.354 236.005 569.001 z M 236.005 1382.6 C 248.738 1400.08 273.215 1394.07 294.58 1394.07 L 1744.5 1394.02 C 1760.73 1394.13 1794.33 1398 1807.58 1387.81 C 1817.54 1380.15 1813.08 1297.21 1813.07 1282.6 L 1813.14 623.996 C 1813.13 622.258 1813.08 620.568 1813.03 618.832 C 1801.42 605.752 1777.46 611.865 1758.73 611.907 L 308.124 611.924 C 221.121 611.548 235.988 597.49 235.968 687.06 L 236.019 1315.77 C 236.045 1336.91 236.797 1361.82 236.005 1382.6 z" fill="rgb(0,0,0)" transform="translate(0,0)"></path>
<path d="M 1370.57 874.146 C 1381.6 873.634 1391.13 873.123 1402.15 874.146 L 1448.18 991.565 C 1464.82 1033.1 1482.87 1075.32 1498.49 1117.09 L 1451.13 1117.09 C 1447.15 1101.65 1438.16 1080.57 1432.06 1065.19 C 1402.89 1067.18 1372.23 1065.66 1343 1065.19 C 1337.07 1083.11 1331.34 1099.64 1324.2 1117.09 L 1230.85 1117.09 C 1212.9 1089.25 1182.82 1043.92 1159 1021.06 L 1159 1117.09 C 1144.57 1117.32 1129.91 1117.75 1115.53 1117.09 L 1115.53 1086.5 L 1115.53 874.146 C 1175.09 875.949 1267.83 857.702 1283.4 936.498 C 1293.13 985.722 1257.77 1012.6 1214.67 1021.06 C 1235.21 1052.44 1258.62 1079.6 1278.05 1112.2 C 1307.23 1034.87 1338.8 950.292 1370.57 874.146 z M 1159 976.966 C 1179.87 977.06 1212.77 980.711 1230.85 971.607 C 1237.66 964.42 1242.48 956.881 1240.95 946.482 C 1235.76 911.297 1190.66 917.875 1164.24 918.062 L 1159.98 918.838 C 1157.92 922.308 1159.01 969.344 1159 976.966 z M 1360.76 1021.06 L 1386.75 1021.06 L 1414.08 1021.06 C 1412.16 1015.65 1387.34 952.331 1386.75 951.688 C 1375.85 974.534 1368.16 996.902 1360.76 1021.06 z" fill="rgb(0,0,0)" transform="translate(0,0)"></path>
<path d="M 713.778 874.146 C 855.114 861.225 894.02 1100.7 729.25 1122.98 C 549.626 1126.88 586.902 864.358 713.778 874.146 z M 729.25 1078.01 C 827.2 1064.31 810.076 911.672 718.959 918.062 C 621.003 923.59 619.173 1080.37 729.25 1078.01 z" fill="rgb(0,0,0)" transform="translate(0,0)"></path>
<path d="M 367.396 874.146 C 377.845 873.957 388.601 874.118 399.076 874.146 C 419.298 932.201 454.446 989.729 475.494 1048.68 C 480.123 1034.76 490.756 1013.65 496.962 999.298 L 551.305 874.146 C 563.288 874.06 575.025 874.334 587.061 874.146 L 587.061 1117.09 C 571.715 1116.13 560.079 1116.32 544.955 1117.09 C 544.616 1107.02 544.862 1096.6 544.955 1086.5 L 544.955 998.115 C 525.23 1030.02 507.384 1081.22 490.114 1117.09 C 479.559 1116.76 469.769 1116.62 459.198 1117.09 C 447.871 1085.96 419.501 1022.61 404.02 994.803 L 404.02 1117.09 C 388.806 1116.14 376.135 1116.26 361.009 1117.09 C 359.745 1072.06 360.968 1020.56 360.978 975.112 L 361.003 912.507 C 361.02 900.28 355.91 875.445 367.396 874.146 z" fill="rgb(0,0,0)" transform="translate(0,0)"></path>
<path d="M 1508.02 874.146 C 1527.22 872.101 1605.09 872.574 1622.03 875.122 C 1692.71 885.755 1722.33 1005.01 1607.66 1021.06 C 1626.87 1046.73 1658.1 1089.12 1672.08 1117.09 L 1650.25 1117.09 L 1624.59 1117.09 C 1611.5 1097.21 1567.24 1034.05 1551.32 1021.06 L 1551.32 1117.09 L 1508.02 1117.09 C 1507.25 1099.74 1507.96 1079.39 1507.97 1061.66 L 1508.02 939.711 C 1508.05 918.051 1508.81 895.668 1508.02 874.146 z M 1551.32 976.966 C 1572.76 977.079 1614.29 979.176 1631.77 968.019 C 1638.55 960.517 1638.81 958.001 1641.42 948.447 C 1632.28 908.317 1584.59 918.043 1551.32 918.062 C 1551.25 937.568 1550.97 957.495 1551.32 976.966 z" fill="rgb(0,0,0)" transform="translate(0,0)"></path>
<path d="M 900.683 874.146 C 942.885 864.185 954.134 891.076 974.997 918.062 C 962.495 925.439 949.009 930.687 935.639 936.328 C 924.517 917.409 909.927 901.191 893.185 928.256 C 889.023 981.631 966.022 964.354 974.946 1043.81 C 978.759 1077.76 954.042 1115.28 917.734 1117.09 C 879.213 1121.88 853.771 1103.03 844.784 1065.19 C 856.926 1057.02 863.885 1054.42 877.343 1048.68 C 893.931 1086.7 939.686 1078.12 931.657 1041.04 C 924.43 1006.52 861.719 1002.93 852.142 951.543 C 845.168 914.118 862.549 880.871 900.683 874.146 z" fill="rgb(0,0,0)" transform="translate(0,0)"></path>
<path d="M 981.955 874.146 C 1016.49 876.588 1065.97 874.96 1101.02 874.146 C 1101.33 888.443 1101.05 903.692 1101.02 918.062 L 1064.49 918.062 C 1063.74 972.103 1064.5 1028.06 1064.49 1082.25 C 1065.03 1093.9 1065.28 1105.44 1064.49 1117.09 C 1052.21 1117.86 1033.61 1117.17 1020.86 1117.09 L 1020.86 918.062 C 1007.27 917.617 995.563 917.709 981.955 918.062 L 981.955 874.146 z" fill="rgb(0,0,0)" transform="translate(0,0)"></path>
<metadata><recraft-signature>{"signed_by": "recraft", "signature_b64": "m59/ldB63h3MRqec7b4evP7JkGRodxU+lnz+kVD7awvCnFRRv8MTZ3Q8K++S1/XYPHfq3Ry3b9wdxvtmRHimDw==", "signing_algo": "Ed25519", "generation_timestamp": 1773000517, "identifier": "43f25468-d4a9-4e76-bb37-423b9d9615fc"}</recraft-signature></metadata></svg>