<svg xmlns="http://www.w3.org/2000/svg" height="512" preserveAspectRatio="none" style="display: block;" version="1.1" viewBox="0 0 2048 2048" width="512">
<path d="M 235.52 553.001 C 242.184 552.228 275.237 552.971 283.562 552.986 L 1798.8 553.05 C 1874.66 554.916 1875.95 602.843 1875.96 665.872 L 1875.96 1359.23 C 1876.08 1416.06 1880.62 1458.63 1814.58 1476.56 C 1799.34 1477.75 1765.59 1476.6 1748.99 1476.58 L 244.478 1476.62 C 184.808 1474.93 172.776 1427.25 172.963 1377.61 L 172.97 672.287 C 172.947 616.348 167.072 565.604 235.52 553.001 z M 1801.25 1414.51 C 1823.13 1411.01 1814.68 1365.78 1814.63 1346.39 L 1814.58 679.609 C 1814.58 662.256 1822.36 616.023 1802.14 615.804 L 380.384 615.994 C 337.928 615.992 289.62 614.744 247.869 615.997 C 244.055 616.638 241.194 616.614 238.412 619.146 C 232.977 633.343 235.522 782.6 235.526 809.237 L 235.551 1394.77 C 235.584 1399.48 235.964 1413.38 242.25 1413.66 C 274.294 1415.12 306.662 1414.55 338.79 1414.55 L 1801.25 1414.51 z" fill="rgb(0,0,0)" transform="translate(0,0)"></path>
<path d="M 676.702 898.506 C 738.031 890.743 793.969 934.357 801.393 995.728 C 808.818 1057.1 764.894 1112.79 703.483 1119.88 C 642.551 1126.91 587.384 1083.4 580.018 1022.51 C 572.651 961.617 615.852 906.21 676.702 898.506 z M 701.179 1069.08 C 770.366 1057.19 749.75 934.125 685.73 946.995 C 616.397 952.373 624.614 1083.04 701.179 1069.08 z" fill="rgb(0,0,0)" transform="translate(0,0)"></path>
<path d="M 540.689 898.515 L 541.303 898.813 C 544.236 904.034 567.437 1092.83 570.283 1117 C 560.108 1116.48 524.007 1116.12 515.967 1117 C 510.223 1075.84 503.202 1022.12 502.399 980.313 C 487.57 1022.55 470.256 1077.1 450.336 1117 C 438.434 1116.4 431.229 1116.02 419.292 1117 C 403.008 1072.4 383.798 1028.76 367.735 983.995 C 366.795 993.209 366.018 1003.24 364.598 1012.33 C 360.683 1046.08 355.698 1083.31 352.965 1117 C 335.074 1116.56 316.549 1116.36 298.684 1117 C 299.015 1101.24 303.992 1072.14 306.152 1055.33 L 318.898 952.594 C 321.207 934.985 324.75 915.835 326.449 898.515 C 344.96 899.171 366.302 898.613 385.021 898.515 C 399.671 940.736 417.099 983.172 435.29 1023.92 C 455.212 984.343 466.723 939.576 483.402 898.515 C 500.772 899.305 522.909 898.604 540.689 898.515 z" fill="rgb(0,0,0)" transform="translate(0,0)"></path>
<path d="M 1560.92 898.515 L 1626.52 898.521 C 1750.08 899.549 1783.37 1023.79 1714.17 1090.43 C 1681.63 1117.98 1647.88 1117.15 1608.97 1117.13 L 1554.09 1117 C 1553.89 1062.23 1552.99 959.095 1555.6 900.507 C 1555.64 899.536 1559.38 898.927 1560.92 898.515 z M 1609.86 1069.08 C 1633.84 1070.92 1660.36 1073.78 1678.79 1055.1 C 1697.71 1031.69 1699.72 977.361 1674.59 957.411 C 1657.25 943.648 1630.69 946.72 1609.86 946.995 L 1609.86 1069.08 z" fill="rgb(0,0,0)" transform="translate(0,0)"></path>
<path d="M 1165.49 898.515 C 1193.18 898.466 1240.86 895.249 1265.01 901.159 C 1326.66 916.247 1337.85 994.307 1274.5 1030.96 C 1283.26 1061.25 1306.79 1086.45 1317.91 1117 L 1274.5 1117 L 1258.7 1117 C 1251.71 1104.3 1221.42 1046.65 1212.75 1041.44 C 1202.54 1041.4 1206.87 1063.66 1206.88 1071.28 L 1207 1117 L 1153.02 1117 L 1153.02 898.515 L 1165.49 898.515 z M 1207 993 C 1223.23 993.266 1240.61 996.156 1252.37 984.792 L 1253.18 983.995 C 1281.7 952.784 1236.42 943.019 1207 946.995 L 1207 993 z" fill="rgb(0,0,0)" transform="translate(0,0)"></path>
<path d="M 1403.57 898.515 C 1421.16 899.023 1440.4 898.585 1458.1 898.515 C 1461.66 914.325 1471.49 936.694 1477.64 952.718 L 1521.39 1063.99 C 1528.28 1081.42 1536.44 1099.27 1542.06 1117 L 1484.03 1117 C 1481.05 1107.21 1473.36 1089.17 1469.4 1079 L 1458.1 1079 L 1391.82 1079 C 1386.71 1089.98 1380.88 1105.52 1376.15 1117 L 1317.91 1117 C 1346.67 1045.16 1373.82 969.117 1403.57 898.515 z M 1408.36 1030.96 L 1432.5 1030.96 L 1452.97 1030.96 C 1448.56 1018.21 1436.91 976.989 1432.5 968.641 C 1421.82 986.704 1415.66 1010.87 1408.36 1030.96 z" fill="rgb(0,0,0)" transform="translate(0,0)"></path>
<path d="M 1039.86 898.515 L 1128.97 898.515 C 1128.33 913.089 1128.94 932.08 1128.97 946.995 L 1039.86 946.995 C 1040.25 960.982 1040.5 970.009 1039.86 983.995 L 1119 983.995 L 1119 1030.96 L 1039.86 1030.96 C 1038.92 1040.25 1039.68 1059.08 1039.86 1069.08 C 1046.71 1069.38 1054.78 1069.13 1061.74 1069.08 C 1081.71 1069 1110.01 1070.26 1128.97 1069.08 L 1128.97 1117 L 985.033 1117 L 985.033 898.515 C 1002.48 899.283 1022.27 898.692 1039.86 898.515 z" fill="rgb(0,0,0)" transform="translate(0,0)"></path>
<path d="M 798.525 898.515 C 842.792 902.289 920.557 899.894 965.468 898.515 C 966.191 914.103 964.904 931 965.468 946.995 L 912.991 946.995 L 912.991 1063.5 L 912.991 1117 L 857.012 1117 C 855.892 1061.82 856.991 1002.5 857.012 946.995 L 798.525 946.995 C 798.156 931.33 798.509 914.288 798.525 898.515 z" fill="rgb(0,0,0)" transform="translate(0,0)"></path>
<metadata><recraft-signature>{"signed_by": "recraft", "signature_b64": "7h/4zPYfp6AOvmWtOBFpQHxAQaoWHzZkbKUdzwCoBBC0GWLPngUfOXBzglYkFDf3prgj030pEL9mzPSI+A2bAw==", "signing_algo": "Ed25519", "generation_timestamp": 1773000728, "identifier": "c62be755-862b-41cd-90a6-b3807537fdc1"}</recraft-signature></metadata></svg>