<svg xmlns="http://www.w3.org/2000/svg" height="512" preserveAspectRatio="none" style="display: block;" version="1.1" viewBox="0 0 2048 2048" width="512">
<path d="M 831.435 290.014 C 857.533 289.09 889.938 289.98 916.399 289.989 L 1176.22 289.955 C 1224.16 289.913 1263.9 290.104 1302.69 323.833 C 1356.88 370.955 1350.65 422.267 1350.6 487.098 L 1350.59 682.215 C 1350.59 695.592 1350.73 708.931 1350.55 722.3 C 1349.52 796.298 1287.9 853.419 1216.25 857.543 L 866.63 857.605 C 838.709 857.612 815.454 859.167 788.581 849.386 C 702.043 817.887 696.831 753.361 696.888 677.667 L 696.926 478.667 C 696.511 384.064 717.093 304.273 831.435 290.014 z M 825.812 738.052 C 838.073 738.945 855.093 738.119 867.939 738.085 L 1213.17 738.052 C 1238.86 737.392 1229.22 691.931 1229.22 670.033 L 1229.21 473.596 C 1229.21 460.612 1230.54 426.605 1225.96 416.06 C 1211.68 409.691 1097.58 411.891 1073.81 411.887 L 839.339 411.919 C 827.468 413.455 820.787 413.43 820.85 427.611 L 821.044 704.022 C 821.046 717.732 818.781 725.926 825.812 738.052 z" fill="rgb(23,22,23)" transform="translate(0,0)"></path>
<path d="M 1392.11 1135.6 C 1410.09 1134.94 1433.39 1135.63 1451.72 1135.63 L 1656.1 1135.55 C 1729.68 1135.58 1802.7 1147.87 1821.82 1236.04 C 1828.35 1266.12 1825.81 1308.68 1825.82 1340.23 L 1825.83 1587.88 C 1825.81 1683.48 1807.25 1732.91 1705.75 1757 C 1685.08 1755.67 1651.89 1756.98 1629.71 1756.99 L 1473.01 1757.02 C 1407.67 1757.1 1359.65 1765.11 1310.12 1713.58 C 1265.25 1666.88 1274.01 1609.23 1274 1550.25 L 1273.98 1310.19 C 1273.6 1220.72 1287.26 1158.61 1392.11 1135.6 z M 1397 1265.83 L 1396.93 1576.53 C 1396.89 1599.89 1389.7 1626.04 1409.88 1637.4 L 1692.5 1637.4 C 1697.26 1634.79 1699.44 1631.54 1702.99 1627.38 C 1705.97 1509.74 1705.22 1383.08 1702.99 1265.83 C 1699.53 1262.88 1696.03 1259.83 1692.5 1256.98 L 1409.88 1256.98 C 1403.55 1259.5 1401.58 1260.75 1397 1265.83 z" fill="rgb(23,22,23)" transform="translate(0,0)"></path>
<path d="M 360.286 1135.6 L 618.887 1135.59 C 730.583 1135.85 773.801 1194.34 773.829 1301.05 L 773.824 1606.72 C 773.553 1691.3 723.544 1757.68 635.004 1757 L 434.417 1756.91 C 374.254 1756.86 316.061 1767.16 267.236 1723.53 C 214.183 1676.12 222.613 1625.17 222.602 1561.1 L 222.53 1317.42 C 222.523 1219.27 246.243 1141.34 360.286 1135.6 z M 346.513 1265.83 L 346.513 1622.67 C 364.344 1640.36 411.799 1633.12 438.363 1633.12 L 622.25 1633.1 C 641.598 1633.68 648.657 1634.72 648.872 1612.55 L 649.01 1319.07 C 648.999 1246.79 650.832 1256.85 583.577 1256.95 L 416.181 1256.92 C 403.408 1256.9 385.437 1256.29 373.159 1256.98 C 359.18 1256.68 356.232 1255.32 346.513 1265.83 z" fill="rgb(23,22,23)" transform="translate(0,0)"></path>
<path d="M 1426.36 819.035 C 1477.52 816.068 1516.28 874.421 1554.2 908.004 C 1602.95 946.713 1576.81 1020.32 1514.86 1020.06 C 1482.37 1019.93 1465.4 997.877 1443.5 975.943 L 1435.06 967.864 C 1418.3 986.627 1400.2 1010.89 1374.76 1017.25 C 1318.99 1031.21 1274.93 970.181 1305.75 922.659 C 1323.05 895.978 1389.16 827.123 1426.36 819.035 z" fill="rgb(23,22,23)" transform="translate(0,0)"></path>
<path d="M 598.223 819.035 C 613.238 821.419 632.424 820.06 645.775 829.811 C 659.023 839.488 684.512 866.293 696.735 880.345 C 715.941 902.427 743.879 916.173 750.373 946.268 C 761.272 996.771 714.642 1032.34 668.111 1015.42 C 648.493 1008.13 637.273 988.302 620.127 976.846 L 618.76 975.943 L 610.752 967.864 C 591.704 980.362 574.611 1007.86 557.043 1015.02 C 495.906 1039.95 442.584 967.244 487.26 916.923 C 511.882 889.19 567.78 831.12 598.223 819.035 z" fill="rgb(23,22,23)" transform="translate(0,0)"></path>
<metadata><recraft-signature>{"signed_by": "recraft", "signature_b64": "aNFKWyDJBQ6JDlfPUf8X6ZE9i+Kg1VyqElJ/7aA8QfyRQszJX15p4jLK8eGtZ7ouyrYRZlJS70b3RDNcZLLbBw==", "signing_algo": "Ed25519", "generation_timestamp": 1772999778, "identifier": "0c666c53-df74-4f95-9ff4-fe657ec77a70"}</recraft-signature></metadata></svg>