<svg xmlns="http://www.w3.org/2000/svg" height="512" preserveAspectRatio="none" style="display: block;" version="1.1" viewBox="0 0 2048 2048" width="512">
<path d="M 443.439 276.236 C 460.442 275.011 495.136 276.196 513.69 276.21 L 1545.8 276.199 C 1566.74 276.199 1592.95 275.771 1613.42 278.132 C 1691.4 287.123 1763.3 354.429 1768.88 434.228 C 1770.64 459.516 1769.92 491.045 1769.89 516.992 L 1769.85 1593.82 C 1768.94 1689.8 1694.54 1760.61 1600.25 1768.14 L 482.422 1768.24 C 391.386 1768.69 312.058 1739.84 284.472 1641.09 C 275.381 1608.55 278.465 1575.63 278.509 1542.09 L 278.518 492.919 C 278.525 436.953 277.181 383.003 318.247 338.225 C 354.81 298.358 390.78 280.847 443.439 276.236 z M 1587.48 1626.01 C 1632.24 1602.14 1623.87 1579.21 1624.91 1533.84 C 1625.47 1509.38 1624.83 1484.48 1624.82 1460.02 L 1624.9 459.614 C 1625.18 407.284 1560.38 419.818 1524.82 419.822 L 488.116 419.715 C 481.995 419.694 465.678 419.171 460.3 419.833 C 438.933 422.04 425.158 435.597 425.04 457.349 L 424.936 1555.45 C 424.889 1622.19 424.762 1626.22 500.112 1626.08 L 1587.48 1626.01 z" fill="rgb(0,0,0)" transform="translate(0,0)"></path>
<path d="M 821.679 658.38 C 873.205 655.524 917.528 701.778 898.128 754.381 C 891.677 771.872 867.883 798.318 855.463 813.759 L 785.495 901.153 C 773.116 916.822 759.889 932.125 749.258 948.992 C 801.048 947.6 860.233 948.978 912.505 948.982 L 1298.16 948.992 C 1278.34 914.979 1242.39 883.92 1224.32 853.424 C 1194.51 803.115 1117.73 758.132 1156.65 692.676 C 1178.02 656.737 1224.27 651.009 1259.28 671.174 C 1273.28 680.509 1308.08 728.212 1320.63 743.87 L 1489.65 952.651 C 1547.38 1024.56 1542.54 1021.93 1479.22 1100.4 L 1315.68 1306.15 C 1288.44 1341.13 1271.66 1375.58 1224.11 1384.99 C 1170.05 1386.74 1134.02 1336.39 1151.18 1284.9 C 1159.75 1259.18 1256.55 1148.31 1278.21 1120.92 C 1284.84 1112.54 1291.85 1104.22 1297.29 1095.01 L 1298.16 1093.54 C 1276.39 1094.1 1252.1 1093.55 1230.1 1093.55 L 749.258 1093.54 C 760.323 1110.32 776.623 1130.63 789.301 1146.5 L 856.08 1228.87 C 867.966 1243.67 879.106 1257.73 890.439 1273.16 C 921.393 1315.29 890.645 1376.09 841.359 1384.73 C 788.284 1394.02 753.438 1332.32 724.449 1295.54 L 569.291 1102.23 C 551.422 1080.21 524.057 1055.3 518.868 1026.81 C 513.043 994.844 538.384 974.035 556.874 950.913 L 669.776 812.058 C 704.051 769.307 768.673 665.286 821.679 658.38 z" fill="rgb(0,0,0)" transform="translate(0,0)"></path>
<metadata><recraft-signature>{"signed_by": "recraft", "signature_b64": "a1sKA0F5WMgq7JgjorqPc5jFnk7i6XlLb7AHeMOA3yULN0xJnHnrH/h0RxqhilWVIHITuWl+0ypgRxTXBHUDCQ==", "signing_algo": "Ed25519", "generation_timestamp": 1772989292, "identifier": "6dee8df7-6dcd-40b0-a73a-768343049ca2"}</recraft-signature></metadata></svg>