<svg xmlns="http://www.w3.org/2000/svg" height="512" preserveAspectRatio="none" style="display: block;" version="1.1" viewBox="0 0 2048 2048" width="512">
<path d="M 317.688 298.096 C 354.601 298.663 393.184 298.109 430.182 298.109 L 1684.54 298.026 C 1752.86 297.976 1758.3 287.804 1758.03 364.83 L 1758.21 1591.85 C 1758.28 1613.08 1751.99 1625.39 1728.75 1626.51 C 1692.02 1625.89 1653.54 1626.5 1616.62 1626.51 L 360.997 1626.57 C 282.286 1627.14 290.063 1623.53 290.077 1551.62 L 289.886 329.673 C 289.952 311.784 300.277 299.942 317.688 298.096 z M 477.997 1287.36 C 492.443 1286.42 509.089 1283.83 523.58 1281.94 L 665.514 1264.21 C 678.222 1262.7 694.835 1261.28 707.018 1259.06 L 707.031 1371.18 C 707.025 1394.87 705.464 1419.72 709.408 1442.78 C 719.754 1503.3 807.63 1507.74 826.636 1452.46 C 833.822 1431.56 831.068 1388.02 831.062 1365.05 L 831.014 1218 L 1215.49 1218 L 1215.47 1359.86 C 1215.46 1381.82 1213.66 1411.91 1217.31 1432.94 C 1223 1465.77 1260.79 1477.37 1288.58 1463.47 C 1321.48 1442.32 1313.1 1402.82 1313.07 1367.79 L 1313.03 1259.06 C 1332.22 1256.77 1351.26 1260.43 1370.57 1262.83 L 1433.1 1270.88 C 1477.02 1276.7 1525.97 1282.55 1570.03 1287.36 L 1570.01 796.05 C 1570 776.889 1569.23 753.917 1570.03 735.286 L 477.997 735.286 C 476.527 740.418 478.001 832.347 477.998 843.194 L 478.018 1235.71 C 478.045 1253.64 478.633 1269.24 477.997 1287.36 z M 477.997 673.515 C 501.552 674.522 532.295 673.52 556.615 673.519 L 707.018 673.515 L 707.018 473.046 C 631.145 472.651 553.59 474.23 477.997 473.046 L 477.997 673.515 z M 769.564 473.046 L 769.564 673.515 L 919.296 673.49 C 942.349 673.479 971.075 672.565 993.584 673.515 L 993.584 473.046 C 919.518 473.939 843.783 473.062 769.564 473.046 z M 1282.02 473.046 L 1055.13 473.046 L 1055.13 673.515 L 1282.02 673.515 C 1282.66 651.923 1282 628.238 1281.99 606.423 L 1282.02 473.046 z M 1345 673.515 L 1570.03 673.515 C 1570.85 662.601 1569.96 645.904 1570 634.336 L 1569.96 531.651 C 1569.84 511.858 1568.55 492.772 1570.03 473.046 L 1345 473.046 L 1345 673.515 z" fill="rgb(0,0,0)" transform="translate(0,0)"></path>
<metadata><recraft-signature>{"signed_by": "recraft", "signature_b64": "6z+/IIrGBLa9FvmUelA7y2LE7keGhLSPaYWFHdmVpqApWCJXlWQ4g9AbYw0J0+eBLswpLiGHBKkcvxY28JclBA==", "signing_algo": "Ed25519", "generation_timestamp": 1772998093, "identifier": "5ef33107-9a47-4467-af63-4142b0f4cd87"}</recraft-signature></metadata></svg>