<svg xmlns="http://www.w3.org/2000/svg" height="512" preserveAspectRatio="none" style="display: block;" version="1.1" viewBox="0 0 2048 2048" width="512">
<path d="M 368.72 434.999 C 378.878 434.126 405.063 434.981 416.277 434.991 L 1570.65 434.989 C 1610.6 434.946 1666.21 429.995 1703.78 442.348 C 1765.38 462.608 1753.01 558.651 1753 607.465 L 1753.01 1465.08 C 1753.09 1538.19 1760.51 1584.16 1682.76 1610.92 C 1671.41 1611.95 1643.61 1610.98 1630.72 1610.96 L 473.916 1610.95 C 415.882 1610.99 312.684 1626.86 298.298 1550.3 C 293.4 1524.24 295.661 1489.59 295.442 1463.04 L 295.016 597.738 C 295.021 528.157 280.044 454.967 368.72 434.999 z M 409.5 1560.95 L 1620.97 1561 C 1649.16 1561.05 1699.97 1567.25 1701.97 1525.05 C 1703.82 1486.06 1703.06 1446.61 1703.04 1407.5 L 1702.85 528.232 C 1702.69 486.143 1684.42 483.507 1647.95 484.643 L 1638.46 484.958 L 423.904 484.902 C 356.079 484.64 345.235 476.032 345.067 556.504 L 345.077 1507.02 C 345.237 1566.77 356.292 1560.76 409.5 1560.95 z" fill="rgb(0,0,0)" transform="translate(0,0)"></path>
<path d="M 1165.02 742.999 C 1188.79 742.899 1216.47 741.46 1239.83 744.033 C 1297.46 750.382 1305.71 848.001 1257.55 881.223 C 1269.83 915.205 1279.12 951.676 1289.67 985.993 C 1276.14 986.599 1263.06 986.244 1249.53 985.993 L 1243.69 962.527 C 1239 945.918 1230.8 905.224 1221.21 889.578 C 1219.83 887.319 1206.74 888.042 1203.01 888.115 C 1202.5 920.319 1202.98 953.699 1203.01 985.993 C 1189.3 985.664 1178.74 985.568 1165.02 985.993 L 1165.02 742.999 z M 1203.01 850.798 C 1217.03 852.025 1231.04 853.884 1243.69 846.391 C 1249.78 837.685 1247.63 826.296 1248.22 816.345 C 1250.57 776.381 1235.64 779.504 1203.01 780.001 L 1203.01 850.798 z" fill="rgb(0,0,0)" transform="translate(0,0)"></path>
<path d="M 811.011 742.999 C 876.269 742.797 936.289 733.194 932.754 821.207 C 931.478 852.991 926.18 859.256 903.601 881.223 C 915.978 907.781 928.032 956.959 934.893 985.993 L 893.015 985.993 C 892.519 978.642 890.923 969.931 889.758 962.527 C 881.394 937.59 875.499 911.009 866.706 885.224 L 849.901 885.224 L 849.901 985.993 L 811.011 985.993 L 811.011 742.999 z M 849.901 850.798 C 863.128 850.804 877.369 851.509 889.758 846.391 C 896.309 825.657 897.418 797.076 882.207 780.001 C 871.375 779.176 860.755 780.002 849.901 780.001 C 848.911 802.616 850.034 827.8 849.901 850.798 z" fill="rgb(0,0,0)" transform="translate(0,0)"></path>
<path d="M 593.031 742.999 C 606.423 742.636 617.634 742.368 630.998 742.999 C 629.796 765.995 630.965 798.923 630.977 822.99 L 630.998 985.993 L 609.327 985.993 L 593.031 985.993 C 577.371 931.507 552.429 874.491 535.005 819.606 C 533.58 836.966 534.93 857.541 534.976 875.509 L 535.005 985.993 C 522.287 985.729 513.93 985.456 501.018 985.993 C 500.214 960.747 500.985 930.698 500.99 905.179 L 501.018 742.999 C 511.044 743.705 530.207 743.02 540.724 742.999 C 561.168 791.86 574.827 839.332 593.031 888.115 L 593.045 793.144 C 593.067 776.922 593.788 758.923 593.031 742.999 z" fill="rgb(0,0,0)" transform="translate(0,0)"></path>
<path d="M 855.549 1088.05 C 893.845 1087.89 962.434 1080.76 961.072 1139.05 C 960.183 1177.11 971.591 1258.33 948.623 1288.24 C 927.761 1308.26 884.105 1302.14 855.549 1302.03 L 855.549 1088.05 z M 889.758 1270.8 C 900.076 1270.33 917.164 1271.67 923.778 1264.62 C 931.618 1244.92 938.164 1142.48 917.106 1123.5 L 889.758 1120 L 889.758 1270.8 z" fill="rgb(0,0,0)" transform="translate(0,0)"></path>
<path d="M 724.941 1088.05 C 729.261 1088.51 743.9 1088.46 747.188 1088.19 C 832.855 1080.84 832.076 1126.84 830.053 1195.27 C 829.091 1227.78 836.657 1260.12 815.791 1288.24 C 797.38 1303.17 781.477 1302.17 759.222 1302.15 L 724.941 1302.03 L 724.941 1088.05 z M 758.829 1270.8 C 768.813 1269.92 782.768 1269.81 790.911 1264.62 C 801.088 1246.83 796.622 1158.69 793.859 1134.5 C 792.158 1119.6 770.955 1120.47 758.829 1120 C 757.797 1132.77 758.787 1154.55 758.805 1168.36 L 758.829 1270.8 z" fill="rgb(0,0,0)" transform="translate(0,0)"></path>
<path d="M 1346.12 742.999 C 1362.92 743.417 1381.46 743.01 1398.4 742.999 C 1406.78 784.964 1413.72 825.997 1421.48 867.855 L 1443.54 985.993 L 1405.4 985.993 C 1404.1 971.814 1400.45 950.726 1398.4 936.001 C 1392 934.52 1358.25 935.967 1349.52 936.001 C 1346.26 948.624 1342.9 972.224 1340.55 985.993 L 1304.63 985.993 C 1307.77 923.282 1332.08 804.424 1346.12 742.999 z M 1353.26 902.989 L 1375.28 902.989 L 1390.99 902.989 C 1382.79 866.417 1380.02 820.931 1370.58 786.947 C 1365.83 825.007 1359.43 864.998 1353.26 902.989 z" fill="rgb(0,0,0)" transform="translate(0,0)"></path>
<path d="M 1019.1 742.999 C 1080.94 742.077 1140.32 729.964 1141.7 808.721 C 1143.67 922.007 1080.52 882.765 1059.28 899.727 L 1058.92 902.989 C 1058.95 929.113 1057.91 960.509 1058.92 985.993 C 1043.62 985.07 1034.25 985.197 1019.1 985.993 L 1019.1 742.999 z M 1058.92 860.135 C 1073.24 860.102 1084.56 861.95 1095.43 850.798 C 1102.85 845.533 1126.19 772.635 1058.92 780.001 L 1058.92 860.135 z" fill="rgb(0,0,0)" transform="translate(0,0)"></path>
<path d="M 697.856 742.999 L 747.324 742.999 L 775.765 901.569 C 779.914 925.372 785.144 963.407 790.911 985.993 C 777.744 985.856 764.75 985.887 751.582 985.993 C 748.435 971.968 745.742 956.41 743.009 942.205 C 742.47 931.74 708.961 936.387 700.857 936.001 C 698.016 951.551 695.677 970.092 693.235 985.993 C 679.866 985.58 668.2 985.66 654.817 985.993 C 658.032 972.181 660.61 947 663.104 932.015 L 683.067 814.793 C 686.905 791.502 690.006 764.857 697.856 742.999 z M 704.049 902.989 C 710.006 902.973 719.255 902.651 724.941 902.989 L 737.433 902.989 C 736.267 889.433 722.988 800.203 719.072 793.622 C 716.277 827.321 709.508 869.711 704.049 902.989 z" fill="rgb(0,0,0)" transform="translate(0,0)"></path>
<path d="M 460.686 1088.05 C 537.19 1087.77 572.346 1081.99 566.251 1170.94 C 565.129 1187.31 558.051 1200.14 545.386 1210.27 C 554.127 1240.65 564.262 1271.84 573.799 1302.03 C 561.281 1302.48 553.122 1302.57 540.724 1302.03 C 535.689 1293.08 535.933 1290.9 535.005 1280.8 C 526.139 1265.47 518.739 1236.26 512.677 1217.97 C 506.464 1218.2 501.222 1218.13 495.006 1217.97 C 494.239 1243.9 492.877 1276.64 495.006 1302.03 L 460.686 1302.03 L 460.74 1159.84 C 460.73 1137.47 459.686 1109.74 460.686 1088.05 z M 495.006 1186.87 C 503.114 1186.95 520.905 1188.19 527.017 1183.99 C 533.382 1172.43 538.753 1134.21 524.967 1124.98 C 519.762 1121.5 502.202 1120.63 495.006 1120 L 495.006 1186.87 z" fill="rgb(0,0,0)" transform="translate(0,0)"></path>
<path d="M 1125.41 1088.05 C 1143.09 1087.59 1161.05 1087.66 1178.68 1088.88 C 1233.87 1092.69 1241.53 1181.83 1203.01 1210.27 C 1213.26 1240.71 1223.43 1270.93 1231.51 1302.03 C 1221.11 1302.91 1206.54 1302.35 1195.94 1302.03 L 1188.8 1280.8 C 1183.99 1261.56 1176.81 1235.85 1168.74 1217.97 L 1152.41 1217.97 C 1150.78 1241.4 1152.43 1277.37 1152.41 1302.03 C 1141.45 1302.22 1129.94 1302.04 1118.93 1302.03 C 1118.94 1284.05 1118.11 1092.15 1119.98 1089.03 L 1125.41 1088.05 z M 1152.41 1183.99 C 1163.87 1184.09 1178.72 1185.12 1188.8 1179.83 C 1202.25 1133.69 1188.55 1124.51 1152.41 1120 L 1152.41 1183.99 z" fill="rgb(0,0,0)" transform="translate(0,0)"></path>
<path d="M 593.031 1088.05 C 647.603 1087.76 699.608 1080.92 698.535 1155.94 C 698.182 1180.59 694.859 1191.95 676.544 1210.27 C 686.608 1240.99 695.322 1270.95 704.049 1302.03 C 692.157 1302.43 682.463 1302.41 670.577 1302.03 C 667.778 1295.42 665.377 1287.69 663.072 1280.8 C 657.909 1261.8 651.067 1236.46 644.522 1217.97 C 638.288 1217.74 633.229 1217.79 626.997 1217.97 L 626.997 1302.03 L 593.031 1302.03 L 593.031 1088.05 z M 626.997 1183.99 C 637.278 1184.24 649.939 1185.81 658.244 1179.83 C 666.166 1166.8 664.902 1150.53 663.072 1135.77 C 652.795 1118.98 645.599 1120.38 626.997 1120 L 626.997 1183.99 z" fill="rgb(0,0,0)" transform="translate(0,0)"></path>
<path d="M 1413.01 1088.05 C 1425.57 1087.37 1442.07 1087.94 1454.94 1088.05 C 1469.4 1155.76 1476.09 1237.99 1495.01 1302.03 C 1483.52 1302.63 1471.23 1302.21 1459.66 1302.03 C 1456.31 1288.89 1454.11 1271.54 1451.93 1257.81 C 1439.16 1257.56 1425.82 1257.77 1413.01 1257.81 C 1410.13 1270.93 1407.37 1288.63 1405.4 1302.03 C 1393.88 1302.17 1382.12 1302.04 1370.58 1302.03 C 1373.43 1282.19 1405.9 1094.46 1410.01 1088.45 L 1413.01 1088.05 z M 1416.53 1226.05 L 1435.25 1226.05 C 1438.75 1226.08 1442.04 1226.59 1444.96 1224.94 C 1445.45 1217.51 1432.85 1143.82 1430.23 1136.46 L 1429.49 1135.77 C 1428.7 1160.46 1418.85 1199.6 1416.53 1226.05 z" fill="rgb(0,0,0)" transform="translate(0,0)"></path>
<path d="M 1058.92 1088.05 L 1091.95 1088.05 L 1091.95 1129.5 L 1091.95 1205.52 C 1091.93 1236.99 1096.62 1294.99 1056.58 1303.13 C 976.257 1319.48 986.562 1242.15 986.541 1192.87 L 986.589 1088.05 L 995.616 1088.05 C 1003.94 1088.29 1010.8 1088.35 1019.1 1088.05 L 1019.03 1184 C 1019.03 1207.77 1011.79 1258.04 1032.67 1270.8 C 1068.73 1272.29 1058.35 1232.54 1058.53 1205.56 C 1058.75 1170.82 1055.35 1120.92 1058.92 1088.05 z" fill="rgb(0,0,0)" transform="translate(0,0)"></path>
<path d="M 1304.63 1085.38 C 1352.48 1086.62 1359.46 1124.43 1357.13 1162.99 L 1323.53 1162.99 C 1324.15 1145.83 1326.82 1120.23 1303.21 1117.77 C 1273.17 1116.01 1283.74 1215.9 1283.54 1234.81 C 1283.27 1260.28 1284.73 1272.77 1312.17 1270.8 C 1331.45 1257.43 1320.54 1237.32 1323.53 1217.97 L 1357.13 1217.97 C 1357.29 1240.54 1360.15 1264.84 1346.8 1285.21 C 1331.94 1309.06 1289.6 1310.64 1268.6 1295.23 C 1241.63 1273.75 1249.79 1209.36 1249.5 1175.74 C 1249.12 1130.17 1247.14 1089.94 1304.63 1085.38 z" fill="rgb(0,0,0)" transform="translate(0,0)"></path>
<path d="M 1440.9 742.999 L 1553.49 742.999 C 1554.06 753.83 1553.56 768.845 1553.49 780.001 L 1514 780.001 L 1514 947.5 L 1514 985.993 L 1474.99 985.993 C 1473.97 966.599 1474.94 938.177 1474.95 918.064 L 1474.99 780.001 C 1464.1 780.806 1451.91 780.24 1440.9 780.001 C 1439.73 766.227 1439.92 756.789 1440.9 742.999 z" fill="rgb(0,0,0)" transform="translate(0,0)"></path>
<path d="M 1499.43 1088.05 C 1534.3 1086.82 1569.99 1087.16 1604.83 1088.05 L 1604.83 1120 L 1566.78 1120 C 1566.01 1134.42 1566.72 1155.86 1566.73 1170.74 L 1566.78 1273.25 C 1566.52 1282.67 1566.73 1292.58 1566.78 1302.03 C 1554.2 1302.72 1543.62 1302.57 1531.01 1302.03 L 1531.01 1120 C 1518.92 1120.13 1507.11 1120.17 1495.01 1120 C 1494.98 1113.43 1493.64 1093.45 1496.25 1088.75 L 1499.43 1088.05 z" fill="rgb(0,0,0)" transform="translate(0,0)"></path>
<metadata><recraft-signature>{"signed_by": "recraft", "signature_b64": "8ZzxFcvV9d7+qX12LcU3M5k1CzkFned7X+9Mt0mk7BhjvgGysMgHKH9H5EU5XWx+YlvIdD+tiiyU3ME1r4SkDg==", "signing_algo": "Ed25519", "generation_timestamp": 1772999107, "identifier": "4f48311a-bf77-495a-b8ff-a2d08ce7db0e"}</recraft-signature></metadata></svg>