<svg xmlns="http://www.w3.org/2000/svg" height="512" preserveAspectRatio="none" style="display: block;" version="1.1" viewBox="0 0 2048 2048" width="512">
<path d="M 364.735 298.979 C 365.121 298.939 365.507 298.899 365.892 298.858 L 1618.2 298.952 C 1702.51 298.925 1747.17 299.924 1747.18 398.208 L 1747.34 1225.03 C 1747.68 1306.87 1705.25 1318.06 1633.4 1318.03 L 1258.25 1318 L 1166.86 1317.99 C 1150.79 1317.97 1133.91 1317.36 1118 1318 L 1118 1743.83 L 930.623 1743.83 L 930.623 1318 C 888.871 1316.73 839.22 1317.98 796.865 1317.98 L 428.808 1318.05 C 383.022 1318.07 310.757 1319.89 302.254 1256.39 C 298.808 1230.65 300.831 1196.63 300.842 1169.84 L 300.781 436.352 C 300.756 377.96 289.117 314.777 364.735 298.979 z M 425.997 1196 L 1585.62 1196.08 C 1594.93 1196.1 1615.61 1196.77 1624.01 1196 C 1622.86 1171.06 1624 1137.79 1624.01 1112.03 L 1624.01 422.009 L 425.997 422.009 C 424.856 484.189 426.001 550.362 426.001 612.907 L 426.01 1129.55 C 426.014 1150.79 426.785 1175.2 425.997 1196 z" fill="rgb(0,0,0)" transform="translate(0,0)"></path>
<path d="M 1017.06 501.176 C 1042.05 499.119 1046.44 513.897 1059.64 532.278 L 1145.06 651.406 C 1167.02 682.421 1193.17 713.845 1130.63 709.183 C 1166.29 754.037 1206.23 809.119 1239.25 856.592 C 1259.61 885.879 1211.4 885.175 1197.37 884.992 C 1230.05 936.832 1269.17 985.677 1302.16 1037.29 C 1332.55 1084.85 1230.82 1074.8 1213.58 1074.79 L 1053 1074.75 L 1053 1106.19 L 1038.25 1106.19 L 998.009 1106.19 L 998.009 1074.75 C 979.912 1074.08 959.39 1074.72 940.997 1074.73 L 829.373 1074.81 C 794.901 1074.87 754.578 1086.63 744.202 1050.76 C 748.842 1031.89 834.009 910.055 851.477 884.992 C 834.384 884.86 815.925 889.431 803.537 875.981 C 798.627 852.199 817.26 838.395 831.938 819.258 L 874.297 762.874 C 886.824 746.355 902.516 726.767 912.742 709.183 C 885.592 712.112 865.81 703.454 884.786 677.034 L 979.84 545.168 C 989.357 531.671 1002.92 508.706 1017.06 501.176 z" fill="rgb(0,0,0)" transform="translate(0,0)"></path>
<metadata><recraft-signature>{"signed_by": "recraft", "signature_b64": "67QAo5Pme11s4O0u+Y9uPOqQ8F5uJChNOOM1W/SA9X/vu6m2WtOGDRcnT3yOLFmR6PjHQdaeKMDNgD2wBHRsAw==", "signing_algo": "Ed25519", "generation_timestamp": 1772996718, "identifier": "070137da-7ab6-464b-8a05-1a850782963e"}</recraft-signature></metadata></svg>