<svg xmlns="http://www.w3.org/2000/svg" height="512" preserveAspectRatio="none" style="display: block;" version="1.1" viewBox="0 0 2048 2048" width="512">
<path d="M 858.475 305.001 C 888.915 305.981 925.165 305.012 956.107 305.011 L 1743.49 305.001 L 1743.49 603.046 C 1743.49 651.834 1742.62 702.939 1743.49 751.471 L 858.475 751.471 L 858.495 353.861 C 858.513 338.22 859.236 320.263 858.475 305.001 z" fill="rgb(0,0,0)" transform="translate(0,0)"></path>
<path d="M 858.475 1297.01 C 884.285 1298.46 927.304 1297.04 954.08 1297.02 L 1743.49 1297.01 L 1743.49 1593.03 C 1743.48 1642.17 1742.83 1692.89 1743.49 1741.88 L 955.253 1741.88 C 924.149 1741.88 889.169 1740.96 858.475 1741.88 L 858.475 1297.01 z" fill="rgb(0,0,0)" transform="translate(0,0)"></path>
<path d="M 858.475 887.512 L 1743.49 887.512 C 1744.68 918.669 1743.51 957.092 1743.5 989.096 L 1743.49 1160 L 858.475 1160 C 857.425 1070.75 857.91 976.878 858.475 887.512 z" fill="rgb(0,0,0)" transform="translate(0,0)"></path>
<path d="M 306.577 305.001 L 722.49 305.001 C 723.554 353.001 722.505 405.702 722.502 454.085 L 722.49 751.471 L 306.577 751.471 L 306.582 353.568 C 306.597 337.165 307.357 321.419 306.577 305.001 z" fill="rgb(0,0,0)" transform="translate(0,0)"></path>
<path d="M 322.001 1297.01 L 722.49 1297.01 C 721.504 1308.3 722.403 1330.41 722.43 1342.7 L 722.49 1741.88 L 709.25 1741.88 L 306.577 1741.88 C 305.884 1716.02 306.57 1687.44 306.576 1661.35 L 306.574 1365.5 C 306.566 1343.59 305.808 1318.52 306.577 1297.01 L 322.001 1297.01 z" fill="rgb(0,0,0)" transform="translate(0,0)"></path>
<path d="M 426.004 887.512 L 624.078 887.517 C 655.419 887.514 691.484 886.607 722.49 887.512 L 722.49 1160 L 604.5 1160 L 306.577 1160 L 306.577 887.512 L 426.004 887.512 z" fill="rgb(0,0,0)" transform="translate(0,0)"></path>
<metadata><recraft-signature>{"signed_by": "recraft", "signature_b64": "MG8QV8bUPBUffOQBssK7LGFzE2ixdUg3VT9r70vgpca5g/tctGP8s0y/AnZboeojOn03l1FMfztwpXaOjrPnDQ==", "signing_algo": "Ed25519", "generation_timestamp": 1772996178, "identifier": "b11442e5-beaf-423b-b4f4-41fb8f9e4266"}</recraft-signature></metadata></svg>