<svg xmlns="http://www.w3.org/2000/svg" height="512" preserveAspectRatio="none" style="display: block;" version="1.1" viewBox="0 0 2048 2048" width="512">
<path d="M 740.357 743.429 C 780.86 742.347 825.811 743.407 866.809 743.412 L 1243.48 743.389 C 1309.63 743.367 1332.77 729.274 1370.15 785.653 L 1577.61 1097.17 C 1599.9 1130.31 1650 1184.95 1639.07 1227.37 C 1624.62 1283.43 1549.31 1300.13 1518.06 1258.59 C 1480.63 1208.82 1448.48 1154.85 1414.01 1103.01 L 1316.77 957.145 C 1302.35 935.52 1280.16 904.784 1267.81 882.999 L 912.574 882.999 C 947.956 942.088 989.297 1000.63 1026.64 1058.79 L 1432.37 1682.31 C 1445.36 1701.98 1463.76 1725.67 1474.22 1745.37 C 1506.42 1805.98 1432.08 1868.54 1374.68 1838.79 C 1344.14 1822.96 1258.08 1675.93 1233.59 1640.73 C 1181.56 1551.79 1113.48 1462.49 1057.55 1373.74 C 1047.44 1357.69 1035.5 1342.21 1025.89 1326.07 C 1016.96 1335.93 1001.92 1359.02 994.364 1370.3 L 759.302 1721.88 C 737.646 1754.48 715.555 1792.95 691.648 1823.29 C 653.49 1867.73 578.625 1845.51 568.197 1788.64 C 560.761 1748.09 585.716 1723.42 607.041 1691.35 L 870.033 1292.52 C 893.28 1257.53 915.503 1222.72 939.138 1187.82 C 928.175 1168.91 910.694 1144.42 898.329 1125.48 L 815.285 998.836 C 798.227 973.332 778.265 945.55 762.153 919.789 C 707.28 997.959 653.441 1079.02 599.558 1158.12 L 557.614 1220.19 C 545.777 1237.93 534.675 1259.86 515.074 1270.72 C 448.808 1307.44 381.45 1228.02 422.004 1166.46 L 656.331 816.934 C 681.515 778.423 690.688 747.072 740.357 743.429 z" fill="rgb(0,0,0)" transform="translate(0,0)"></path>
<path d="M 1002.72 197.707 C 1136.83 185.971 1255.07 285.132 1266.88 419.23 C 1278.68 553.329 1179.59 671.625 1045.49 683.503 C 911.302 695.39 792.898 596.201 781.082 462.002 C 769.267 327.803 868.518 209.452 1002.72 197.707 z M 1032.58 540.106 C 1086.9 535.595 1127.3 487.926 1122.84 433.598 C 1118.38 379.269 1070.75 338.826 1016.42 343.232 C 962.013 347.645 921.502 395.354 925.967 449.757 C 930.433 504.159 978.181 544.624 1032.58 540.106 z" fill="rgb(0,0,0)" transform="translate(0,0)"></path>
<metadata><recraft-signature>{"signed_by": "recraft", "signature_b64": "sXYOvqJNidhNKk3BFqCnc1pMV8tiTXp9E7EtX/CYiDtb/7wQ2j5krze0k5NypmVz7TvEaQlvS0oRptKvQiM5CA==", "signing_algo": "Ed25519", "generation_timestamp": 1772996789, "identifier": "d456fa4b-cb2b-4741-9ba8-8537d0e65774"}</recraft-signature></metadata></svg>