<svg xmlns="http://www.w3.org/2000/svg" height="512" preserveAspectRatio="none" style="display: block;" version="1.1" viewBox="0 0 2048 2048" width="512">
<path d="M 568.63 169.11 C 581.336 168.302 690.256 195.902 709.014 200.594 C 933.787 256.822 1171.74 311.953 1364.07 447.181 C 1381.5 459.44 1401.14 500.309 1413.99 518.824 C 1598.59 821.285 1631.96 1219.69 1452.17 1532.04 C 1425.44 1578.47 1384.19 1631.36 1350.68 1673.21 C 1363.93 1696.56 1378.69 1730.73 1390.34 1755.73 C 1398.4 1772.12 1406.33 1788.4 1413.24 1805.67 C 1432.14 1852.87 1359.12 1885.93 1338.03 1845.36 C 1325.98 1822.19 1271.02 1693.33 1258.5 1683.62 C 1194.97 1634.37 1130.16 1586.6 1065.63 1538.62 L 514.248 1129.53 C 502.066 1120.83 484.825 1112.25 480.891 1096.63 C 477.004 1081.21 483.322 1013.43 484.527 992.497 L 516.71 412.997 C 520.475 347.719 523.228 282.393 527.517 217.153 C 529.498 187.008 539.981 175.851 568.63 169.11 z M 568.63 1057.52 C 577.47 1066.07 599.193 1081.75 609.465 1089.34 L 1168.75 1505.01 C 1175.54 1510.16 1188.44 1520.57 1195.16 1524.64 C 1153.25 1427.07 1102.48 1332 1059.68 1234.73 C 1044.2 1199.9 989.576 1127.43 1047.1 1106.82 C 1094.52 1089.83 1103.67 1128.49 1119.93 1160.4 C 1135.77 1191.51 1148.81 1224.58 1164.32 1255.26 C 1217.12 1361.08 1267.29 1468.64 1315.59 1576.56 C 1545.81 1293.96 1521.57 862.296 1337.35 562.837 C 1332.39 554.782 1307.78 514.045 1302.32 510.392 C 1116.09 385.657 835.567 317.771 612.433 266.081 C 609.785 282.826 608.952 318.138 607.991 336.044 L 571.678 1002.4 C 570.732 1018.86 570.488 1041.8 568.63 1057.52 z" fill="rgb(0,0,0)" transform="translate(0,0)"></path>
<metadata><recraft-signature>{"signed_by": "recraft", "signature_b64": "qQ+C3wgD3DvfAhQmWg9s0whot2Weaq9oVEWdxdFjuUZv3XY76Xl2VhXM/Sc/bcisNhVX5ps2qS7z9ne8AfeLDw==", "signing_algo": "Ed25519", "generation_timestamp": 1772999177, "identifier": "ef05c772-b771-4e23-b308-1d3c20c5022b"}</recraft-signature></metadata></svg>