<svg xmlns="http://www.w3.org/2000/svg" height="512" preserveAspectRatio="none" style="display: block;" version="1.1" viewBox="0 0 2048 2048" width="512">
<path d="M 396.002 341.003 L 1670.52 340.947 C 1767.57 340.913 1791.62 361.861 1791.54 460.199 L 1791.73 1616.71 C 1792.26 1707.3 1726.17 1706.22 1656.5 1706 L 384.7 1706.03 C 333.928 1706 267.145 1705.26 259.336 1636.34 C 257.505 1620.18 257.981 1602.95 257.986 1586.65 L 257.879 432.051 C 257.153 338.225 320.611 340.837 396.002 341.003 z M 426.999 1323.96 C 453.711 1273.29 480.806 1217.77 506.625 1166.45 L 730.612 710.567 C 747.761 675.154 763.07 638.92 781.94 604.077 C 795.695 633.647 812.052 664.397 826.463 694.117 L 985.387 1018.31 C 989.933 1027.45 1000.28 1049.32 1005.45 1057.18 C 1016.4 1035.58 1025.33 1015.19 1035.65 993.562 L 1248.76 543.086 C 1270.91 582.083 1294.73 637.361 1314.16 678.409 L 1526.52 1126.96 C 1534.14 1143.28 1552.32 1178.92 1557 1193.82 L 1159.5 1193.82 L 1068.68 1193.82 C 1096.32 1247.34 1131.17 1311.94 1153.57 1366.13 L 506.609 1366.12 C 481.015 1366.12 452.223 1365.4 426.999 1366.13 L 426.999 1538.05 L 1504.79 1538.05 C 1540.95 1538.04 1587.02 1536.71 1622.52 1538.05 L 1622.52 511.287 L 468.501 511.277 C 455.865 511.273 439.141 510.594 426.999 511.287 L 427.012 1237.23 C 427.011 1262.18 425.809 1299.8 426.999 1323.96 z M 1245.14 898.44 C 1221.26 953.23 1188.97 1006.28 1166.69 1060 L 1248.76 1060 C 1269.34 1060.04 1307.72 1061.4 1327.14 1060 C 1317.86 1040.15 1254.68 907.329 1245.14 898.44 z M 613.682 1237.49 L 781.94 1237.49 L 894.496 1237.44 C 909.084 1237.43 935.007 1236.51 948.303 1237.49 C 941.764 1219.69 921.649 1181.66 912.57 1163.26 L 836.232 1009.49 C 828.637 994.135 789.394 906.427 781.94 898.44 C 771.38 911.238 759.166 940.091 751.557 955.982 L 707.845 1046.62 C 677.863 1107.61 639.701 1175.47 613.682 1237.49 z" fill="rgb(0,0,0)" transform="translate(0,0)"></path>
<metadata><recraft-signature>{"signed_by": "recraft", "signature_b64": "dQBuKkTGKxBtltXYRyXLPR/z+dTxP/nrTbld4RdArsJms/JADwx8Lu/xxZTxEbatPCXCNj2e5t3LoTuuk+9XDg==", "signing_algo": "Ed25519", "generation_timestamp": 1772996708, "identifier": "1d4e6219-fb32-42fc-a755-bbf8a86c747a"}</recraft-signature></metadata></svg>