<svg xmlns="http://www.w3.org/2000/svg" height="512" preserveAspectRatio="none" style="display: block;" version="1.1" viewBox="0 0 2048 2048" width="512">
<path d="M 849.375 222.511 L 1461.93 222.573 C 1489.98 222.566 1521.91 220.353 1548.66 225.527 C 1644.76 244.117 1689.56 318.196 1689.97 409.484 L 1690.01 1623.58 C 1690.16 1718.34 1652.19 1797.76 1550.34 1821.08 C 1526.45 1826.55 1506.46 1825.33 1482.34 1825.32 L 1199.75 1825.33 L 1094.08 1825.39 C 966.391 1825.42 944.608 1815.92 871.118 1714.53 L 437.16 1107.16 C 401.008 1057.25 359.828 1014.25 359.641 948.513 L 360.022 730.227 C 360.006 682.257 357.783 629.247 362.031 581.951 C 378.931 393.769 540.614 237.063 728.704 223.871 C 768.363 221.089 809.677 222.473 849.375 222.511 z M 1057.4 354.933 C 1133.55 450.937 1163.46 511.303 1162.99 640.092 C 1118.32 640.081 1072.6 640.626 1028 640.092 C 1028.31 525.975 986.383 437.017 879.675 382.667 C 707.194 294.816 492.66 423.765 492.085 617.485 L 492.206 883.53 C 492.24 954.779 487.928 950.557 528.956 1007.14 L 678.714 1217.52 C 687.033 1228.45 695.696 1241.75 703.779 1253.13 L 985.84 1645.28 C 995.355 1658.77 1010.16 1677.46 1017.77 1691 L 1463.1 1691.04 C 1566.01 1691.11 1556.06 1680.72 1556.07 1591.04 L 1556.02 404.669 C 1555.41 341.266 1498.36 355.588 1455.5 354.933 C 1323.73 353.581 1189.38 354.939 1057.4 354.933 z" fill="rgb(0,0,0)" transform="translate(0,0)"></path>
<metadata><recraft-signature>{"signed_by": "recraft", "signature_b64": "im5gvlHg8ykReuAYPKfzrW3kiN03+0hSFQYswNNd4t+5pr6FcmXV5bbaNg3mLB54OMDI1CEweoTGZlLKNeKWCw==", "signing_algo": "Ed25519", "generation_timestamp": 1772989204, "identifier": "8a25933e-571c-4d20-83ef-f9ae4543715a"}</recraft-signature></metadata></svg>