<svg xmlns="http://www.w3.org/2000/svg" height="512" preserveAspectRatio="none" style="display: block;" version="1.1" viewBox="0 0 2048 2048" width="512">
<path d="M 1163.8 159.302 C 1214.89 153.841 1268.92 191.449 1284 240.359 L 1727.57 1665.83 C 1732.7 1683.36 1738.66 1701.79 1742.12 1719.65 C 1754.67 1786.81 1707.63 1849.36 1640.88 1860.04 C 1595.9 1867.24 1569.99 1848.79 1533.24 1827.15 L 1262.6 1670.85 C 1225.86 1649.62 1180.5 1620.94 1143.23 1602.12 L 954.998 1493.01 C 857.707 1436.15 878.53 1434.41 767.738 1434.34 L 449.458 1434.39 C 433.31 1434.4 415.302 1435.34 399.357 1432.65 C 318.744 1419.06 276.885 1325.92 317.909 1255.84 C 329.351 1236.3 344.279 1218.23 357.569 1200.03 L 1029.04 272.406 C 1070.29 216.538 1087.85 167.931 1163.8 159.302 z M 640.192 1209.24 L 810.113 1209.27 C 830.851 1209.27 890.545 1207.73 907.676 1212.15 C 944.356 1221.62 1079.97 1298.22 1121.39 1326.44 C 1148.57 1340.93 1172.72 1355.91 1199.32 1370.83 L 1436.07 1505.07 C 1429.21 1476.65 1417.55 1445.12 1408.64 1417.21 L 1146.79 578.225 C 1142.49 564.709 1137.52 547.708 1132.49 534.654 C 1112.15 558.236 1092.96 587.408 1073.79 612.467 C 1014.02 690.597 957.245 771.435 899.058 850.677 L 751.627 1053.81 C 717.486 1100.11 669.622 1160.57 640.192 1209.24 z" fill="rgb(0,0,0)" transform="translate(0,0)"></path>
<metadata><recraft-signature>{"signed_by": "recraft", "signature_b64": "0Qpduc6vpEndAZHhshM3QoUeDvLkrm4IxJqIX1V9TVWXwI7siidtuA6meif5w48Gs12aOgiLcWCsaNAwlDQECQ==", "signing_algo": "Ed25519", "generation_timestamp": 1772999524, "identifier": "79accce5-6764-479f-98e3-2f4f8190ee66"}</recraft-signature></metadata></svg>