<svg xmlns="http://www.w3.org/2000/svg" height="512" preserveAspectRatio="none" style="display: block;" version="1.1" viewBox="0 0 2048 2048" width="512">
<path d="M 447.465 246.292 C 468.291 245.574 493.945 246.28 515.137 246.282 L 1529.31 246.236 C 1585.95 246.121 1646.92 238.384 1669.61 306.593 C 1677.83 331.32 1674.39 405.124 1674.39 435.03 L 1674.61 1696.44 C 1674.17 1743.15 1641.67 1770.75 1601.02 1783.92 C 1590.06 1785.19 1566.16 1784.03 1554.08 1783.99 L 533.118 1783.95 C 507.439 1783.95 480.872 1784.45 455.313 1783.24 C 416.54 1781.41 374.338 1741.73 371.744 1703.05 C 370.735 1688.02 371.388 1664.18 371.401 1648.27 L 371.45 415.162 C 371.443 348.571 355.184 257.143 447.465 246.292 z M 551.998 1608.06 L 1496.21 1608.06 L 1496.21 424.487 L 583.163 424.398 C 574.996 424.373 559.565 423.779 551.998 424.487 L 551.998 1608.06 z" fill="rgb(23,22,22)" transform="translate(0,0)"></path>
<path d="M 1066.44 491.739 C 1082.22 491.794 1098.13 491.158 1113.89 491.739 L 1113.87 1423.24 C 1113.88 1456.51 1115.86 1501.3 1113.89 1533.33 L 984.25 1533.33 L 934.999 1533.33 L 934.999 491.739 L 1066.44 491.739 z" fill="rgb(23,22,22)" transform="translate(0,0)"></path>
<metadata><recraft-signature>{"signed_by": "recraft", "signature_b64": "dgQeJqA7pVYci78XCCsZv1D7cdbmlure1dzFKAvsmL+9tDRmQuTgAR3C05XnJiLoPk4Z+PEQdiiOGlAiDu7MDA==", "signing_algo": "Ed25519", "generation_timestamp": 1772999560, "identifier": "6b1a1c7c-d061-4c47-ac2b-269b48aee11b"}</recraft-signature></metadata></svg>