<svg xmlns="http://www.w3.org/2000/svg" height="512" preserveAspectRatio="none" style="display: block;" version="1.1" viewBox="0 0 2048 2048" width="512">
<path d="M 423.919 296.938 C 431.595 296.068 459.053 296.852 468.223 296.866 L 1533.91 296.963 C 1598.83 296.954 1649.63 288.035 1702.69 333.592 C 1762.95 385.337 1753.07 450.967 1753.03 521.932 L 1753.04 1551.1 C 1753.05 1570.88 1753.53 1591.85 1752.83 1611.52 C 1750.09 1688.1 1692.31 1728.2 1627.76 1750 C 1610.17 1751.21 1578.51 1750.05 1559.71 1750.04 L 500.718 1750.05 C 477.245 1750.07 451.611 1751.12 428.587 1748.91 C 350.148 1741.38 292.639 1672.12 295.723 1594.06 C 296.236 1581.08 295.973 1566.95 296.032 1553.97 L 295.964 511.455 C 295.87 409.578 299.532 317.362 423.919 296.938 z M 1593.75 1682.7 C 1673.82 1682.05 1685.09 1629.64 1685.08 1566.8 L 1684.97 456.624 C 1684.85 376.627 1638.38 361.847 1567.72 362.065 L 447.871 362.139 C 360.27 369.694 363.432 431.445 363.47 499.734 L 363.424 1542.92 C 363.312 1655.06 372.676 1682.71 488.688 1682.74 L 1593.75 1682.7 z" fill="rgb(0,0,0)" transform="translate(0,0)"></path>
<path d="M 1201.52 1096 L 1203.51 1095.81 C 1215.61 1094.77 1231.84 1095.73 1244.49 1095.87 L 1412.33 1095.97 C 1542.84 1095.88 1561.01 1126.87 1561.08 1254.29 L 1561.06 1439.9 C 1561.01 1503.19 1540.86 1558.36 1468.41 1563 C 1390.89 1564.21 1312.95 1561.92 1235.39 1563.19 C 1125.14 1565.01 1109.04 1513.74 1108.99 1414.45 L 1108.99 1225.17 C 1109.02 1158.99 1119.18 1104.4 1201.52 1096 z M 1465.52 1497 C 1483.42 1491.8 1492.01 1481.73 1492.11 1463.27 L 1492.16 1248.88 C 1492.48 1217.24 1503.53 1163.52 1457.94 1163.83 C 1374.69 1164.38 1287.51 1160.05 1204.62 1163.02 C 1166.45 1171.15 1175.98 1213.7 1176.03 1245.47 L 1176.05 1417.25 C 1175.97 1478.21 1167.25 1497.68 1239.02 1497.08 L 1465.52 1497 z" fill="rgb(0,0,0)" transform="translate(0,0)"></path>
<path d="M 1325.53 1357.62 C 1344.56 1355.12 1362.06 1368.39 1364.79 1387.39 C 1367.52 1406.39 1354.47 1424.05 1335.5 1427.01 C 1323.03 1428.96 1310.47 1424.05 1302.63 1414.16 C 1294.78 1404.26 1292.86 1390.92 1297.6 1379.22 C 1302.34 1367.51 1313.01 1359.26 1325.53 1357.62 z" fill="rgb(0,0,0)" transform="translate(0,0)"></path>
<path d="M 1323.65 1226.46 C 1342.5 1222.59 1360.91 1234.74 1364.77 1253.59 C 1368.63 1272.43 1356.48 1290.84 1337.63 1294.69 C 1318.79 1298.54 1300.4 1286.4 1296.54 1267.56 C 1292.68 1248.73 1304.82 1230.33 1323.65 1226.46 z" fill="rgb(0,0,0)" transform="translate(0,0)"></path>
<path d="M 583.408 1096 L 764.809 1095.98 C 793.447 1095.96 833.006 1094.05 860.836 1097.97 C 900.819 1103.59 937.172 1143.06 937.813 1184.47 C 939.01 1261.8 937.931 1340.96 938.556 1418.48 C 938.952 1484.92 929.31 1562.96 843.25 1563 L 661.541 1562.99 C 616.456 1563.02 564.418 1571.39 526.776 1541.17 C 481.673 1504.95 487.023 1459.58 486.993 1407.91 L 486.982 1221.42 C 487.005 1154.33 502.088 1103.51 583.408 1096 z M 843.25 1497 C 879.439 1486.66 871.713 1446.13 871.585 1416.9 L 871.537 1347.31 C 871.532 1323.66 873.881 1196.83 869.768 1183.81 C 860.523 1154.52 812.212 1162.96 788.64 1163 L 621.506 1162.98 C 611.586 1162.97 592.802 1162.38 583.408 1163.02 C 543.1 1171.91 554.104 1220.58 554.133 1255.37 L 554.132 1423.55 C 554.13 1451.32 549.926 1495.1 590.31 1495.85 C 674.153 1497.39 759.416 1497.87 843.25 1497 z" fill="rgb(0,0,0)" transform="translate(0,0)"></path>
<path d="M 697.803 1328.99 C 740.511 1324.51 798.35 1339.43 828.65 1370.96 C 842.228 1385.1 837.633 1409.48 821.841 1420.36 C 792.84 1440.33 768.432 1402.4 729.22 1395.13 C 666.948 1389.28 665.932 1419.78 627.418 1429.31 C 599.795 1423.53 580.446 1399.86 599.202 1374.22 C 617.245 1348.88 669.421 1333.28 697.803 1328.99 z" fill="rgb(0,0,0)" transform="translate(0,0)"></path>
<path d="M 576.873 484.133 C 589.144 483.17 616.68 484.073 630.029 484.085 L 811.519 483.981 C 870.212 483.379 931.902 493.909 937.344 568.892 C 938.9 590.326 938.436 612.012 938.474 633.495 L 938.332 853.955 C 938.073 903.427 897.594 941.396 849.25 945.669 C 827.964 944.919 803.707 945.645 782.06 945.654 L 621.686 945.758 C 501.977 945.952 487.031 907.653 486.994 793.372 L 487.005 604.908 C 487.052 540.189 504.51 492.751 576.873 484.133 z M 832.75 878.483 C 870.385 878.97 871.409 860.902 871.551 829.669 L 871.68 607.591 C 872.016 578.203 876.466 548.974 835.344 549.311 L 672.985 549.69 C 650.143 549.667 615.149 548.494 593.043 549.72 C 549.556 549.143 554.073 576.346 554.113 608.32 L 554.202 836.089 C 554.385 896.823 610.164 878.511 660.207 878.471 L 832.75 878.483 z" fill="rgb(0,0,0)" transform="translate(0,0)"></path>
<path d="M 631.627 623.411 C 649.886 622.224 665.624 636.119 666.71 654.383 C 667.796 672.648 653.815 688.31 635.545 689.295 C 617.416 690.273 601.903 676.424 600.825 658.301 C 599.748 640.178 613.511 624.589 631.627 623.411 z" fill="rgb(0,0,0)" transform="translate(0,0)"></path>
<path d="M 798.524 624.287 C 837.784 625.757 846.151 681.714 798.524 688.504 C 757.774 685.58 747.263 630.239 798.524 624.287 z" fill="rgb(0,0,0)" transform="translate(0,0)"></path>
<path d="M 1197.04 484.133 C 1204.61 483.422 1223.66 484.021 1232.32 484.039 L 1412.05 484.082 C 1537.33 484.052 1561.04 507.355 1561.05 633.492 L 1561.15 811.007 C 1561.88 874.222 1547.51 940.56 1468.41 945.669 C 1451.87 946.294 1431.25 945.736 1414.47 945.721 L 1239.04 945.708 C 1129.01 945.47 1109.04 908.112 1108.98 803.09 L 1108.98 611.023 C 1109.03 549.053 1118.91 492.176 1197.04 484.133 z M 1468.41 878.483 C 1500.17 859.99 1492.35 837.729 1492.14 804.182 L 1492.05 634.49 C 1492.02 562.273 1503.76 549.522 1426.18 549.642 L 1253.87 549.676 C 1238.67 549.662 1216.23 548.91 1201.52 549.72 C 1166.36 558.328 1176.08 601.859 1176.05 632.146 L 1176.06 810.37 C 1176.14 893.85 1194.43 878.537 1272.59 878.52 L 1434.93 878.571 C 1443.42 878.596 1460.66 879.197 1468.41 878.483 z" fill="rgb(0,0,0)" transform="translate(0,0)"></path>
<path d="M 1381.79 624.287 C 1413.52 624.496 1432.54 657.872 1409.44 682.324 C 1398.98 693.391 1385.74 703.865 1376.22 715.289 L 1375.22 716.502 C 1387.3 733.694 1419.48 752.495 1416.99 771.103 C 1411.22 814.291 1368.26 811.953 1347.36 780.75 C 1345.03 777.267 1332.55 764.989 1329.83 762.086 C 1316.33 775.22 1295.37 799.753 1278.7 804.389 C 1269.33 804.397 1257.4 801.631 1251.16 794.436 C 1223.94 763.046 1264.26 734.579 1284.09 716.502 C 1276.97 707.986 1264.5 693.969 1255.28 685.773 C 1228.58 662.029 1241.02 623.177 1277.05 626.037 C 1292.42 627.257 1314.5 655.352 1328.54 666.937 L 1329.83 667.992 C 1345.42 655.76 1367.07 629.366 1381.79 624.287 z" fill="rgb(0,0,0)" transform="translate(0,0)"></path>
<metadata><recraft-signature>{"signed_by": "recraft", "signature_b64": "gjFynVP10+LFD0rEfFaDHN2Qcdxx+2W8DxRWDVyi4CfX1VYIaA/ktYJOekW63AkuOfoSMExBlDYfha9qd3/rCA==", "signing_algo": "Ed25519", "generation_timestamp": 1772998416, "identifier": "6f4c38be-311d-4e1f-83fa-80c0a8a275b7"}</recraft-signature></metadata></svg>