<svg xmlns="http://www.w3.org/2000/svg" height="512" preserveAspectRatio="none" style="display: block;" version="1.1" viewBox="0 0 2048 2048" width="512">
<path d="M 452.301 298.258 L 1553.95 298.205 C 1571.42 298.208 1589.91 297.888 1607.21 299.93 C 1677.51 308.228 1745.25 372.839 1748.61 445.378 C 1749.73 469.333 1749.04 495.469 1749.02 519.675 L 1749.01 1547.78 C 1749.01 1566.15 1749.94 1589.04 1747.96 1606.97 C 1738.8 1690 1673.53 1738.61 1594.75 1744.97 L 493.544 1745.02 C 473.6 1745.02 453.242 1745.39 433.505 1742.71 C 362.552 1733.08 304.509 1670.75 300.679 1599.09 C 299.118 1569.88 299.898 1539.75 299.929 1510.46 L 299.907 474.021 C 299.814 376.926 345.934 304.726 452.301 298.258 z M 1585.25 1623.82 C 1613.78 1620 1624.37 1606.22 1624.62 1578.18 L 1624.85 501.992 C 1624.84 466.559 1628.93 425.14 1583.16 423.865 C 1540.43 423.028 1497.44 423.473 1454.7 423.476 L 465.172 423.474 C 412.623 425.221 425.541 475.152 425.549 514.139 L 425.485 1510.21 C 425.377 1601.36 405.804 1623.9 508.785 1623.84 L 1585.25 1623.82 z" fill="rgb(40,40,40)" transform="translate(0,0)"></path>
<path d="M 645.253 885.459 C 555.626 855.761 500.761 765.451 515.708 672.223 C 530.656 578.995 611.004 510.364 705.423 510.175 C 799.841 509.986 880.463 578.295 895.784 671.462 C 911.104 764.63 856.601 855.159 767.095 885.215 C 727.578 898.484 684.822 898.57 645.253 885.459 z" fill="rgb(40,40,40)" transform="translate(0,0)"></path>
<path d="M 694.255 639.723 C 729.933 633.29 764.024 657.142 770.209 692.864 C 776.394 728.585 752.306 762.51 716.543 768.447 C 681.128 774.326 647.606 750.525 641.482 715.152 C 635.357 679.779 658.926 646.092 694.255 639.723 z" fill="rgb(200,225,242)" transform="translate(0,0)"></path>
<path d="M 1280 1162.33 C 1321.36 1147.7 1366.48 1147.65 1407.88 1162.18 C 1496.32 1193.23 1549.51 1283.51 1533.81 1375.92 C 1518.12 1468.33 1438.11 1535.98 1344.37 1536.09 C 1250.64 1536.19 1170.47 1468.73 1154.56 1376.36 C 1138.64 1283.98 1191.63 1193.59 1280 1162.33 z" fill="rgb(40,40,40)" transform="translate(0,0)"></path>
<path d="M 1336.57 1277.53 C 1373.09 1273.08 1406.3 1299.1 1410.71 1335.63 C 1415.11 1372.16 1389.05 1405.33 1352.51 1409.69 C 1316.05 1414.04 1282.95 1388.03 1278.55 1351.57 C 1274.15 1315.11 1300.12 1281.98 1336.57 1277.53 z" fill="rgb(200,225,242)" transform="translate(0,0)"></path>
<path d="M 1279.17 883.688 C 1190.91 852.458 1137.99 762.157 1153.9 669.888 C 1169.8 577.618 1249.89 510.241 1343.52 510.362 C 1437.15 510.484 1517.06 578.068 1532.73 670.379 C 1548.39 762.69 1495.24 852.853 1406.9 883.854 C 1365.55 898.362 1320.48 898.304 1279.17 883.688 z" fill="rgb(40,40,40)" transform="translate(0,0)"></path>
<path d="M 1332.5 639.127 C 1368.33 632.79 1402.47 656.825 1408.59 692.693 C 1414.71 728.56 1390.47 762.555 1354.56 768.457 C 1318.96 774.308 1285.32 750.318 1279.26 714.757 C 1273.19 679.196 1296.97 645.409 1332.5 639.127 z" fill="rgb(200,225,242)" transform="translate(0,0)"></path>
<path d="M 646.374 1160.03 C 686.049 1147.37 728.763 1147.97 768.07 1161.72 C 856.887 1192.8 910.076 1283.68 893.67 1376.34 C 877.264 1468.99 796.103 1536.09 702.016 1534.78 C 607.928 1533.47 528.667 1464.14 514.847 1371.06 C 501.027 1277.99 556.726 1188.62 646.374 1160.03 z" fill="rgb(40,40,40)" transform="translate(0,0)"></path>
<path d="M 695.669 1278.67 C 731.62 1273.19 765.16 1298.03 770.396 1334.02 C 775.632 1370.01 750.562 1403.38 714.539 1408.36 C 678.863 1413.31 645.887 1388.53 640.701 1352.89 C 635.516 1317.25 660.065 1284.1 695.669 1278.67 z" fill="rgb(200,225,242)" transform="translate(0,0)"></path>
<path d="M 767.707 973.468 L 1279 973.468 L 1279.07 1053.57 C 1279.08 1064.7 1279.78 1083.67 1279 1093.99 L 787.018 1093.99 C 781.292 1093.31 773.664 1093.8 767.707 1093.99 C 766.837 1082.97 767.62 1065.11 767.639 1053.33 L 767.707 973.468 z" fill="rgb(40,40,40)" transform="translate(0,0)"></path>
<path d="M 1279.17 883.688 C 1320.48 898.304 1365.55 898.362 1406.9 883.854 L 1407.55 1055.83 C 1407.6 1089.55 1406.65 1128.84 1407.88 1162.18 C 1366.48 1147.65 1321.36 1147.7 1280 1162.33 C 1278.72 1157.21 1279.02 1102.42 1279 1093.99 C 1279.78 1083.67 1279.08 1064.7 1279.07 1053.57 L 1279 973.468 L 1279.17 883.688 z" fill="rgb(59,151,236)" transform="translate(0,0)"></path>
<path d="M 645.253 885.459 C 684.822 898.57 727.578 898.484 767.095 885.215 L 767.707 973.468 L 767.639 1053.33 C 767.62 1065.11 766.837 1082.97 767.707 1093.99 C 773.664 1093.8 781.292 1093.31 787.018 1093.99 L 767.707 1093.99 L 768.07 1161.72 C 728.763 1147.97 686.049 1147.37 646.374 1160.03 C 645.075 1126.57 645.645 1090.8 645.574 1057.05 L 645.253 885.459 z" fill="rgb(59,151,236)" transform="translate(0,0)"></path>
<metadata><recraft-signature>{"signed_by": "recraft", "signature_b64": "5j51Lg94tIuQDaY2JXnNUWqKrwp582S6n+8F1MRt3D2Y0AqRXPN0OQRqwz6vnhhAZRzG8rMMLQ4xMsBn1pWQCQ==", "signing_algo": "Ed25519", "generation_timestamp": 1773000072, "identifier": "6e1dffa5-68da-43da-a9c3-e76c6fa4dc19"}</recraft-signature></metadata></svg>