<svg xmlns="http://www.w3.org/2000/svg" height="512" preserveAspectRatio="none" style="display: block;" version="1.1" viewBox="0 0 2048 2048" width="512">
<path d="M 607.375 264.54 L 1454.24 264.519 C 1493.16 264.496 1542.74 261.868 1580.08 269.179 C 1677.97 288.346 1760.72 362.382 1784.54 460.309 C 1792.02 491.042 1791.01 517.429 1791.03 548.656 L 1791.04 1460.29 C 1791.04 1498.62 1793.24 1542.11 1785.14 1578.99 C 1761.21 1687.54 1665.52 1773.07 1553.6 1779.97 C 1517.28 1782.21 1479.01 1780.98 1442.5 1780.94 L 587.6 1780.97 C 485.544 1780.97 408.915 1783.4 330.917 1704.6 C 251.946 1624.81 258.962 1547.85 258.982 1446.86 L 258.767 520.044 C 258.704 387.424 360.242 279.812 492.18 266.034 C 528.041 262.289 570.87 264.499 607.375 264.54 z M 1519.42 1622.65 C 1569.47 1622.17 1616.25 1596 1622.35 1541.66 C 1623.65 1530.04 1623.07 1515.29 1623.09 1503.36 L 1623.08 519.673 C 1623.05 446.734 1572.08 425.43 1507.24 425.429 L 522.863 425.49 C 476.976 426.586 431.289 453.827 426.066 503.5 C 424.795 515.588 425.471 530.303 425.472 542.69 L 425.493 1452.79 C 425.463 1563.98 421.431 1623.01 548.328 1622.7 L 1519.42 1622.65 z" fill="rgb(0,0,0)" transform="translate(0,0)"></path>
<path d="M 574.378 505.001 C 632.787 503.163 646.848 534.984 686.748 574.118 L 871.747 757.284 C 894.33 779.877 936.634 827.591 961.343 844.303 L 1113.38 844.303 C 1092.98 773.48 1128.42 727.473 1200.69 727.538 C 1252.76 727.585 1305 727.621 1357.09 727.242 C 1437.34 726.656 1483.68 806.754 1428.19 860.432 C 1398.88 888.868 1370.99 885.123 1333.23 885.068 L 1272.85 884.994 C 1286.54 929.3 1278.98 971.16 1233.99 994.779 C 1209.85 1007.45 1150.02 1003.81 1120.37 1003.09 C 1129.44 1013.4 1142.39 1025.69 1152.26 1035.71 L 1500.59 1382.97 C 1523.47 1405.88 1540.44 1420.84 1540.14 1455.67 C 1539.76 1499.84 1501.41 1537.6 1457.13 1536.86 C 1417.08 1536.19 1396.16 1508.51 1370.67 1481.98 L 1195.19 1307.68 C 1089.94 1202.07 982.172 1092.52 874.705 989.49 C 840.198 989.547 805.429 989.102 770.974 989.49 L 770.974 1082 C 874.518 1086.02 937.943 1073.42 935.011 1208.54 C 934.258 1243.23 940.356 1274.06 915.955 1303.16 C 866.805 1363.76 774.982 1334.51 765.76 1253.4 C 715.593 1253.59 652.271 1264.08 616.418 1222.54 C 594.567 1197.23 598.088 1164.45 598.13 1133.4 L 598.172 951.237 C 598.156 933.054 597.598 914.581 598.686 896.457 C 601.949 842.103 651.742 808.884 703.454 813.742 L 532.585 643.565 C 485.688 596.156 505.89 518.638 574.378 505.001 z" fill="rgb(0,0,0)" transform="translate(0,0)"></path>
<metadata><recraft-signature>{"signed_by": "recraft", "signature_b64": "m7CRX9mSqlHo6/hfWA8xSHte9CWnwadGjt85GZJv1F0F3u22pwMzuVZCvTZ1+pMjBFVBkpPPR7pTy54XzwytCA==", "signing_algo": "Ed25519", "generation_timestamp": 1772990266, "identifier": "6a26df75-0a4b-4373-8c21-48fc32458c15"}</recraft-signature></metadata></svg>