<svg xmlns="http://www.w3.org/2000/svg" height="512" preserveAspectRatio="none" style="display: block;" version="1.1" viewBox="0 0 2048 2048" width="512">
<path d="M 439.926 604.001 C 458.118 602.861 489.919 603.947 508.969 603.961 L 1550.44 603.98 C 1630 603.797 1709.94 608.688 1740.23 702.438 C 1751.61 737.656 1748.03 784.274 1748.02 821.694 L 1747.94 1293.39 C 1747.39 1376.59 1686.81 1428.23 1609.61 1439.46 L 482.272 1439.54 C 434.552 1439.86 396.107 1441.1 357.331 1409.13 C 291.197 1354.6 301.921 1290.05 302.024 1214.74 L 301.971 801.289 C 301.495 748.292 298.048 702.852 334.789 659.328 C 362.715 626.245 396.503 608.563 439.926 604.001 z M 453.002 1290 L 1464.77 1290.01 C 1506.72 1290.01 1552.56 1291.06 1594.04 1290 L 1594.01 811.931 C 1594.01 794.072 1593.26 771.273 1594.04 753.994 L 453.002 753.994 L 453.002 1290 z" fill="rgb(0,0,0)" transform="translate(0,0)"></path>
<path d="M 521.028 822.644 L 607.72 822.657 C 625.255 822.654 644.617 823.167 661.997 822.644 L 661.997 1218.06 L 521.028 1218.06 L 521.028 822.644 z" fill="rgb(0,0,0)" transform="translate(0,0)"></path>
<metadata><recraft-signature>{"signed_by": "recraft", "signature_b64": "eCWj/IfCWYsbKZOEbMAY1WAE5A08+rJkyqZVLswHXJUEEuiggXL7xaL3TlN8X7R9qp9lLl5cq8WLzl3E4IWwBA==", "signing_algo": "Ed25519", "generation_timestamp": 1772999814, "identifier": "1ee58054-aeb6-4cc1-afd6-55fab581dd2a"}</recraft-signature></metadata></svg>