<svg xmlns="http://www.w3.org/2000/svg" height="512" preserveAspectRatio="none" style="display: block;" version="1.1" viewBox="0 0 2048 2048" width="512">
<path d="M 259.767 621.305 C 268.982 620.389 302.119 621.24 312.434 621.249 L 1784.87 621.431 C 1858.33 619.675 1853.09 696.832 1853.02 743.954 L 1853.06 1296.65 C 1853.05 1351.66 1860.9 1406.22 1791.2 1421.41 L 316.26 1421.41 C 238.135 1421.76 198.976 1420.65 198.963 1332.21 L 198.962 732.132 C 198.809 683.122 195.55 631.729 259.767 621.305 z M 239.065 1362.1 C 256.943 1386.72 277.583 1380.06 305.279 1380.06 L 1786.41 1380 C 1804.36 1375.61 1811.46 1366.28 1811.5 1348.15 L 1811.58 750.26 C 1811.63 650.125 1814.13 665.997 1721.41 665.99 L 582.114 666.013 C 477.734 666.011 370.991 664.865 266.778 666.013 C 225.165 672.826 239.023 736.762 239.033 772.185 L 239.065 1362.1 z" fill="rgb(1,1,1)" transform="translate(0,0)"></path>
<path d="M 575.571 1067.12 C 666.004 1063.47 699.902 1142.6 675.081 1220.62 C 660.324 1267.01 629.615 1276.38 588.25 1286.99 C 556.888 1283.93 532.635 1282.74 508.648 1259.33 C 449.108 1201.2 477.102 1067.64 575.571 1067.12 z M 585.215 1235.94 C 647.317 1226.45 632.232 1101.07 575.571 1115.77 C 527.059 1119.68 517.473 1240.31 585.215 1235.94 z" fill="rgb(1,1,1)" transform="translate(0,0)"></path>
<path d="M 1654.05 1070.52 C 1672.41 1069.08 1687.31 1069.82 1705.72 1070.52 L 1705.72 1280.52 L 1643.75 1280.52 C 1629.22 1263.23 1579.2 1166.12 1569.93 1142.34 C 1568.43 1184.99 1569.94 1237.26 1569.93 1280.52 L 1516.54 1280.52 C 1515.35 1267.34 1516.5 1228.9 1516.51 1213.61 L 1516.54 1070.52 C 1539.94 1069.66 1564.69 1071.13 1588.32 1070.52 L 1623.51 1137.91 C 1635.69 1161.26 1648.33 1180.97 1654.05 1206.61 C 1655.12 1161.82 1653.69 1115.64 1654.05 1070.52 z" fill="rgb(1,1,1)" transform="translate(0,0)"></path>
<path d="M 713.022 1070.52 C 762.989 1067.08 859.203 1060.04 858.828 1127.5 C 858.732 1144.74 849.767 1154.69 837.361 1165.63 C 870.051 1182.6 878.27 1227.1 853.998 1254.09 C 838.014 1282.86 784.541 1280.56 756.511 1280.57 L 708.556 1280.52 C 708.562 1257.05 707.28 1077.13 710.454 1070.98 L 713.022 1070.52 z M 802.125 1226.88 C 826.122 1198.11 786.513 1192.83 764.956 1195.84 C 764.777 1208.29 764.493 1220.58 764.956 1233.02 C 778.9 1233.33 791.109 1235.55 802.125 1226.88 z M 798.132 1145.73 C 813.783 1116.2 785.947 1116.07 764.956 1115.77 L 764.956 1150.01 C 777.828 1150.71 786.679 1152.16 798.132 1145.73 z" fill="rgb(1,1,1)" transform="translate(0,0)"></path>
<path d="M 1400.88 1070.52 L 1484.64 1070.52 L 1484.64 1118.97 L 1419.88 1118.97 C 1420.05 1129.52 1420.2 1139.45 1419.88 1150.01 L 1478.98 1150.01 L 1478.98 1195.84 C 1459.74 1195.41 1439.23 1195.79 1419.88 1195.84 C 1419.49 1207.54 1419.84 1221.18 1419.88 1233.02 L 1453.5 1233.02 L 1489.49 1233.02 C 1488.81 1247.4 1489.41 1265.84 1489.49 1280.52 C 1447.58 1280.54 1403.65 1279.76 1361.99 1280.52 C 1361.98 1210.85 1362.69 1140.11 1361.99 1070.52 L 1400.88 1070.52 z" fill="rgb(1,1,1)" transform="translate(0,0)"></path>
<path d="M 1105.74 1070.52 C 1124.49 1062.45 1164.26 1073.41 1182.2 1081.39 C 1179.05 1096.38 1174.83 1113.78 1171.04 1128.59 C 1156.9 1118.67 1120.33 1105.11 1105.73 1121.36 C 1074.41 1156.19 1177.2 1152.83 1182.55 1206.32 C 1187.68 1257.56 1161.12 1281.21 1114.71 1286.99 C 1078.03 1287.45 1067.81 1285.67 1033.83 1271.85 C 1039.73 1255.73 1041.07 1243.28 1044.95 1226.88 C 1064.52 1233.59 1077.58 1240.05 1099.5 1239.62 C 1106.76 1242.8 1129.17 1231.35 1125.06 1222.55 C 1116.95 1205.14 1077.01 1197.35 1061.95 1184.05 C 1021.5 1148.29 1042.92 1076.13 1105.74 1070.52 z" fill="rgb(1,1,1)" transform="translate(0,0)"></path>
<path d="M 350.56 1070.52 C 383.065 1070.53 426.2 1069.14 457.512 1070.52 C 458.061 1085.69 457.561 1103.58 457.512 1118.97 C 436.874 1119.18 415.914 1118.89 395.223 1118.97 C 395.488 1131.11 395.695 1141.94 395.223 1154.1 L 450.495 1154.1 L 450.495 1203 L 424.5 1203 L 395.223 1203 C 393.98 1224.48 395.185 1258.33 395.223 1280.52 C 384.092 1281.41 348.692 1281.31 338.142 1280.52 L 338.142 1070.52 L 350.56 1070.52 z" fill="rgb(1,1,1)" transform="translate(0,0)"></path>
<path d="M 1193.43 1070.52 C 1206.73 1071.35 1228.08 1070.59 1242.17 1070.59 L 1341 1070.52 L 1341 1118.97 C 1325.43 1120.11 1310.54 1119.69 1294.99 1118.97 L 1294.99 1235.94 L 1294.99 1280.52 C 1279.4 1281.39 1255.11 1280.54 1238.6 1280.52 C 1237.87 1265.52 1238.54 1243.99 1238.56 1228.69 L 1238.6 1118.97 C 1223.69 1118.75 1208.38 1118.95 1193.43 1118.97 C 1193.44 1102.86 1192.81 1086.6 1193.43 1070.52 z" fill="rgb(1,1,1)" transform="translate(0,0)"></path>
<path d="M 452.5 773.001 L 487.105 773.001 L 487.105 942.049 L 472.375 942.049 L 450.495 942.049 C 423.258 905.615 407.765 860.094 384.999 820.863 C 385.415 861.009 385.011 901.844 384.999 942.049 L 350.56 942.049 C 349.509 928.497 350.512 901.805 350.521 886.991 L 350.56 773.001 L 395.223 773.001 C 415.472 807.152 431.459 844.541 452.5 878.545 C 454.341 843.82 452.811 807.791 452.5 773.001 z" fill="rgb(1,1,1)" transform="translate(0,0)"></path>
<path d="M 897.001 1070.52 L 952.897 1070.52 L 952.897 1233.02 L 1023.26 1233.02 L 1023.26 1280.52 L 897.001 1280.52 L 897.001 1070.52 z" fill="rgb(1,1,1)" transform="translate(0,0)"></path>
<path d="M 652.495 764.512 C 664.745 764.589 676.667 764.159 689.004 764.512 C 689.067 787.334 689.353 810.557 689.004 833.346 C 746.433 784.247 793.61 866.383 754.494 931.377 C 728.999 949.865 709.044 950.282 683.565 931.377 L 683.565 942.049 L 652.495 942.049 L 652.495 764.512 z M 689.004 904.929 C 695.17 913.767 701.987 917.709 713.022 916.991 C 737.428 905.172 737.385 846.412 708.556 848.221 C 680.837 854.136 689.259 883.513 689.004 904.929 z" fill="rgb(1,1,1)" transform="translate(0,0)"></path>
<path d="M 563.423 820.863 C 619.281 792.889 678.91 920.757 580.735 944.982 C 480.268 952.7 492.232 817.942 563.423 820.863 z M 575.571 914.399 C 605.346 904.736 597.263 846.271 567.764 846.468 C 538.51 854.739 541.255 918.774 575.571 914.399 z" fill="rgb(1,1,1)" transform="translate(0,0)"></path>
<path d="M 1549.05 815.319 C 1595.35 807.069 1607.36 857.594 1606.98 892.6 C 1595.54 893.472 1537.39 889.066 1533.24 895.517 C 1532.44 926.186 1578.07 916.931 1594.49 909.195 C 1595.56 914.465 1596.58 917.703 1598.21 922.729 L 1603.15 934.552 C 1503.89 996.556 1440.99 832.916 1549.05 815.319 z M 1559.42 866.999 L 1575.78 866.999 C 1572.63 851.472 1566.93 840.402 1549.05 842.077 C 1536.94 847.545 1534.94 854.867 1532.04 866.999 C 1541.27 867.182 1550.2 867.105 1559.42 866.999 z" fill="rgb(1,1,1)" transform="translate(0,0)"></path>
<path d="M 1108.66 820.863 C 1156.06 812.488 1168.26 854.068 1167.99 892.6 C 1143.04 892.836 1115.55 891.414 1090.98 892.6 C 1098.04 929.002 1129.35 918.894 1156.77 909.195 C 1156.91 912.194 1156.88 914.04 1156.77 916.991 C 1158.41 923.022 1160.06 928.59 1161.93 934.552 C 1026.59 990.285 1021.4 815.724 1108.66 820.863 z M 1090.98 866.999 L 1120.25 866.999 L 1132.09 866.999 C 1126.84 851.139 1123.65 843.503 1105.74 846.468 C 1094.14 851.397 1093.08 854.412 1090.98 866.999 z" fill="rgb(1,1,1)" transform="translate(0,0)"></path>
<path d="M 908.722 820.863 C 951.824 802.832 977.613 852.792 975.783 892.6 C 954.978 892.544 872.814 879.851 904.894 911.353 C 923.958 930.074 951.498 906.985 960.843 912.547 C 963.042 919.91 965.537 927.252 967.955 934.552 C 847.598 992.64 822.344 829.379 908.722 820.863 z M 924.418 866.999 L 938.054 866.999 C 935.781 856.855 935.434 852.333 925.686 847.149 L 924.418 846.468 L 913.055 846.468 C 901.738 850.505 900.916 856.373 897.001 866.999 C 906.239 867.176 915.193 867.103 924.418 866.999 z" fill="rgb(1,1,1)" transform="translate(0,0)"></path>
<path d="M 1419.88 820.863 C 1467.24 812.347 1482.36 853.85 1478.98 892.6 C 1459.84 893.859 1425.72 892.651 1405.63 892.6 C 1416.07 945.355 1465 895.046 1469.68 916.991 L 1474.46 934.552 C 1348.29 991.833 1337.71 816.101 1419.88 820.863 z M 1405.63 866.999 C 1413.66 867.168 1421.21 867.138 1429.25 866.999 C 1452.76 866.93 1437.55 846.959 1419.88 848.221 C 1411.18 852.103 1409.44 856.964 1406.14 865.626 L 1405.63 866.999 z" fill="rgb(1,1,1)" transform="translate(0,0)"></path>
<path d="M 830.993 757.397 C 859.139 755.041 856.84 763.484 853.998 786.432 L 849.683 786.078 C 824.292 783.948 829.542 802.477 830.993 820.863 C 839.814 819.794 845.284 819.885 853.998 820.863 L 853.998 846.468 C 846.53 846.671 838.506 846.496 830.993 846.468 C 830.959 878.194 830.65 910.358 830.993 942.049 C 818.217 943.135 807.636 942.744 795.017 942.049 C 795.024 931.284 797.693 851.623 792.416 846.771 C 787.3 845.37 783.345 846.083 778.027 846.468 C 777.856 838.108 778.017 829.266 778.027 820.863 C 783.608 820.006 789.439 820.036 795.017 820.863 C 793.198 789.385 792.344 762.629 830.993 757.397 z" fill="rgb(1,1,1)" transform="translate(0,0)"></path>
<path d="M 1216.83 820.863 C 1235.38 815.788 1253.15 821.024 1269.43 829.944 C 1265.84 838.079 1263.13 844.942 1260.08 853.302 C 1250.8 849.041 1221.59 837.993 1219.04 854.228 C 1225.26 874.166 1269.47 862.757 1271.8 903.957 C 1273.35 931.44 1252.17 944.668 1226.75 944.982 C 1206.42 946.218 1195.51 941.208 1176.5 934.552 C 1180.94 924.673 1183.94 918.702 1189.35 909.195 C 1198.92 912.073 1236.9 924.472 1235.98 905.195 C 1230.28 894.052 1182.66 891.025 1181.63 862.559 C 1180.66 835.718 1191.07 824.239 1216.83 820.863 z" fill="rgb(1,1,1)" transform="translate(0,0)"></path>
<path d="M 1330.97 786.432 C 1331.99 788.724 1330.98 816.2 1330.97 820.863 C 1339.22 820.955 1347.62 820.865 1355.88 820.863 C 1355.6 829.741 1355.67 837.578 1355.88 846.468 C 1347.96 846.686 1338.98 846.459 1330.97 846.468 C 1331.09 875.754 1317.91 921.512 1351.35 912.547 C 1353.43 920.831 1354.64 931.208 1355.88 939.804 C 1346.57 942.626 1340.49 943.508 1330.97 944.982 C 1282.14 947.132 1293.95 882.713 1294.99 846.468 C 1288.51 845.917 1285.36 846.101 1278.91 846.468 C 1278.58 837.724 1278.74 829.588 1278.91 820.863 L 1294.99 820.863 C 1293.62 810.436 1293.34 806.189 1294.99 795.86 C 1306.79 791.856 1318.84 789.276 1330.97 786.432 z" fill="rgb(1,1,1)" transform="translate(0,0)"></path>
<path d="M 1654.05 760.546 L 1668.01 760.546 C 1666.36 819.226 1668.67 882.769 1668.01 942.049 C 1658.67 943.728 1653.19 942.868 1643.75 942.049 L 1630.05 942.049 C 1628.98 928.869 1630 898.185 1630.01 883.462 L 1630.05 760.546 C 1639.07 760.941 1645.07 761.044 1654.05 760.546 z" fill="rgb(1,1,1)" transform="translate(0,0)"></path>
<path d="M 994.081 760.546 C 1006.41 760.445 1018.67 760.287 1031 760.546 L 1031.02 900.373 C 1031.03 906.788 1032.1 938.606 1031 942.049 C 1017.61 942.931 1007.32 942.669 994.081 942.049 L 994.081 760.546 z" fill="rgb(1,1,1)" transform="translate(0,0)"></path>
<metadata><recraft-signature>{"signed_by": "recraft", "signature_b64": "y3NBR9frk1ORHqATx56FK5p3w9DhNVw7lpSQt5REa+5ToDO6Qf1M+FOQgq77Wz+7q2in9YFoUq8sLhljXcoNCA==", "signing_algo": "Ed25519", "generation_timestamp": 1772996165, "identifier": "06c263a0-e381-47aa-bf8f-8b9a62fd08d1"}</recraft-signature></metadata></svg>