<svg xmlns="http://www.w3.org/2000/svg" height="512" preserveAspectRatio="none" style="display: block;" version="1.1" viewBox="0 0 2048 2048" width="512">
<defs>
	<linearGradient gradientUnits="userSpaceOnUse" id="Gradient1" x1="1374.07" x2="1427.93" y1="737.283" y2="769.717">
		<stop class="stop0" offset="0" stop-color="rgb(125,117,121)" stop-opacity="1"></stop>
		<stop class="stop1" offset="1" stop-color="rgb(149,151,151)" stop-opacity="1"></stop>
	</linearGradient>
</defs>
<path d="M 1810.07 1098.16 C 1790.8 1079.94 1794.67 1062.93 1794.66 1038.39 L 1794.63 817.423 C 1794.5 763.884 1859.23 765.315 1860.62 810.136 C 1861.21 829.039 1861.03 848.18 1861.03 867.245 L 1861.1 1041.83 C 1861.2 1065.63 1865.42 1082.1 1843.87 1098.16 L 1843.81 1488.39 C 1843.7 1507.05 1842.79 1525.23 1843.87 1543.84 C 1836.76 1544.13 1828.17 1543.87 1820.96 1543.84 C 1819.48 1462.66 1815.9 1385.7 1811.97 1304.79 C 1800.52 1304.16 1785.86 1304.73 1774.09 1304.75 L 1702.35 1304.79 C 1663.35 1304.81 1615.84 1303.23 1578.05 1304.79 C 1579.52 1329.87 1577.89 1360.05 1576.82 1385.47 L 1572.95 1484 C 1572.29 1502.66 1570.68 1525.52 1572.02 1543.84 C 1564.18 1544.23 1557.9 1544.09 1550.03 1543.84 C 1551.13 1517.69 1549.33 1491.02 1548.82 1464.93 C 1547.83 1415.29 1549.93 1353.39 1545.34 1305.33 C 1542.78 1303.32 1541.13 1304.05 1537.05 1303.91 C 1531.03 1299.68 1533.76 1263.63 1516.54 1244.74 C 1515.36 1231.78 1516.72 1200.79 1516.54 1186 L 1497.47 1186 L 1497.47 1272.25 C 1496.55 1300.64 1497.41 1334.18 1497.42 1363.03 L 1497.47 1543.84 C 1487.54 1543.32 1482.86 1543.02 1472.94 1543.84 L 1472.94 1186 L 1102.89 1185.98 C 1085.8 1185.91 1067.16 1185.02 1050.29 1186 L 1050.29 1467.88 C 1092 1474.03 1169.95 1490.22 1189.97 1531.12 L 855.903 1531.12 C 869.847 1488.84 954.393 1472.38 994.531 1467.88 C 995.501 1445.96 994.571 1419.9 994.556 1397.42 L 994.523 1257.65 C 994.515 1234.32 993.899 1209.15 994.531 1186 L 563.159 1186 L 563.159 1538.03 L 536.801 1538.03 L 536.814 1328.88 C 536.807 1299.42 536.159 1268.08 536.801 1238.82 C 529.739 1239.67 524.027 1240.5 517.047 1241.83 C 516.727 1262.7 516.979 1283.89 517.047 1304.79 L 502.999 1304.79 C 502.99 1383.66 504.113 1465.19 502.999 1543.84 C 494.07 1543.28 489.793 1542.81 480.925 1543.84 C 479.104 1479.75 465.501 1364.06 472.896 1304.79 L 235.997 1304.79 C 231.624 1366.37 232.254 1429.31 229.048 1491.04 C 228.154 1508.25 226.761 1526.72 227.909 1543.84 L 203.552 1543.84 L 203.537 1244.35 C 203.55 1198 202.079 1143.68 203.552 1098.16 C 183.456 1082.22 186.976 1069.78 186.973 1046.79 L 186.973 874.097 C 186.987 836.814 174.726 786.753 217.659 777.151 C 263.864 775.544 254.007 833.175 254.013 863.194 L 254.007 965.812 C 254.002 1006.03 267.066 1073.4 235.997 1098.16 C 236.01 1145.37 234.744 1198.03 235.997 1244.74 C 320.444 1230.81 380.516 1228.98 466.845 1241.83 C 449.703 1224.02 438.597 1209.64 423.454 1190.09 C 433.543 1120.48 449.366 1050.06 460.004 980.52 C 470.238 979.781 485.637 980.431 496.361 980.461 L 1585.6 980.52 C 1587.34 1034.33 1607.01 1120.56 1617.34 1175.04 C 1625.6 1218.6 1619.24 1205.55 1585.6 1238.82 C 1671.41 1230.83 1726.19 1230.9 1810.07 1241.83 C 1811.5 1196.99 1810.08 1143.69 1810.07 1098.16 z" fill="rgb(0,0,0)" transform="translate(0,0)"></path>
<path d="M 1022.03 499.516 C 1044.45 512.175 1055.48 543.886 1027.84 555.867 C 1027.22 563.853 1027.16 566.806 1027.84 574.763 C 1034.27 575.532 1036.98 576.12 1043.07 578.371 C 1044.38 621.225 1043.09 670.849 1043.07 714.189 C 1110.88 716.734 1086.77 736.413 1034.8 742.17 C 1031.74 863.059 1170.76 866.076 1177.95 761.95 C 1121.94 766.938 1085.98 733.975 1161.38 734.979 C 1161.37 692.57 1162.59 645.09 1161.38 603.294 C 1166.99 602.812 1172.33 603.125 1177.95 603.294 C 1178.14 595.787 1178.06 588.582 1177.95 581.072 C 1155.23 561.432 1169.69 536.859 1184.03 515.77 C 1192.54 538.421 1213.55 565.474 1184.03 581.072 L 1184.03 603.294 C 1188.7 603.174 1193.59 603.275 1198.29 603.294 L 1198.29 734.979 C 1255.29 734.085 1252.86 759.282 1194.02 761.95 C 1194.27 851.989 1096.52 886.451 1034.8 812.047 L 1034.8 937.946 C 1045.79 945.336 1092.15 955.917 1083.35 971.615 C 1074.59 977.595 1035.05 975.548 1022.03 975.539 C 936.867 975.78 946.878 968.43 1012.98 937.946 L 1012.98 812.047 C 957.974 888.348 858.23 859.569 852.254 761.95 C 788.597 758.458 791.656 727.731 849.312 734.979 C 849.878 720.913 846.071 604.671 851.96 598.38 C 856.287 596.541 860.132 597.175 864.93 597.34 C 865.155 591.269 864.974 584.51 864.93 578.371 C 843.208 557.291 853.802 538.713 869 515.77 C 875.526 528.331 882.087 542.342 885.98 555.867 C 885.882 556.196 885.784 556.524 885.687 556.852 L 885.159 558.48 C 882.086 568.12 878.489 571.046 871.608 578.371 C 871.082 585.821 871.198 589.841 871.608 597.34 L 885.98 597.34 C 887.352 641.236 885.556 690.319 885.98 734.979 C 943.022 728.457 941.801 760.08 869 761.95 C 866.269 879.98 1030.74 846.347 1012.47 744.632 C 1011.55 739.531 967.553 742.4 963.138 727.527 C 964.235 710.316 994.708 714.13 1007.08 714.189 C 1007.95 696.858 1004.71 581.512 1009.5 576.236 C 1013.59 574.158 1017.33 574.723 1022.03 574.763 L 1022.03 555.867 C 997.46 541.278 1010.68 518.512 1022.03 499.516 z" fill="rgb(0,0,0)" transform="translate(0,0)"></path>
<path d="M 869 555.867 L 870.247 557.132 C 871.315 560.821 869.892 564.761 869 568.626 L 867.866 568.521 C 867.052 564.595 868.286 559.932 869 555.867 z" fill="rgb(252,251,252)" transform="translate(0,0)"></path>
<path d="M 1357.78 752.929 C 1370.36 749.553 1435.71 744.675 1443.85 757.274 C 1450.07 796.962 1465.04 882.778 1410 894.9 L 1410 955.244 C 1479.26 973.026 1390.34 984.453 1371.94 975.106 C 1363.76 961.805 1387.17 960.517 1393.4 957.395 C 1396.37 953.936 1395.07 903.082 1395.04 894.9 C 1338.85 882.645 1344.34 792.323 1357.78 752.929 z" fill="rgb(0,0,0)" transform="translate(0,0)"></path>
<path d="M 1357.78 752.929 C 1370.36 749.553 1435.71 744.675 1443.85 757.274 C 1426.15 756.889 1369.51 760.98 1357.78 752.929 z" fill="url(#Gradient1)" transform="translate(0,0)"></path>
<path d="M 591.978 752.929 L 677.239 752.929 C 690.744 804.943 700.802 872.51 640.996 894.9 L 640.996 955.244 C 649.03 956.968 654.895 957.968 662.083 962.304 C 670.332 989.094 605.293 972.364 604.137 970.792 C 603.823 959.178 618.368 957.341 626.957 955.244 C 626.203 938.764 626.555 911.644 626.957 894.9 C 570.491 873.309 582.161 800.693 591.978 752.929 z" fill="rgb(0,0,0)" transform="translate(0,0)"></path>
<metadata><recraft-signature>{"signed_by": "recraft", "signature_b64": "JhPugwVcpZxCDvmBnXzt25/ky76qFsIuixJS7lUtLkwB2trZRkP/r9RgkQvvH5bb7EFZEbsup+SJMchjm12wBA==", "signing_algo": "Ed25519", "generation_timestamp": 1773009053, "identifier": "3b629a5d-6dfc-447e-a302-7efdbc38c744"}</recraft-signature></metadata></svg>