<svg xmlns="http://www.w3.org/2000/svg" height="512" preserveAspectRatio="none" style="display: block;" version="1.1" viewBox="0 0 2048 2048" width="512">
<path d="M 757.239 674.125 C 781.969 672.262 794.024 691.311 798.378 713.281 L 873.838 1079.27 C 876.428 1092.2 882.115 1125.55 887.162 1135.57 C 893.781 1141.49 896.87 1142.6 904.971 1145.33 C 932.56 1136.53 928.442 1115.91 933.709 1088.45 L 1009.32 715.303 C 1020.31 663.832 1067.93 663.826 1079.28 694.683 C 1093.92 734.522 1105.66 818.029 1114.58 862.172 L 1151.24 1041.29 C 1156.13 1065.05 1161.36 1121.06 1173.49 1139.16 C 1212.06 1161.52 1215.56 1087.56 1220.86 1062.48 C 1230.39 1017.48 1240.4 964.5 1252.58 920.608 C 1256.54 907.328 1269.81 899.817 1283.01 899.378 C 1319.86 898.151 1320.61 938.92 1326.3 965.374 L 1350.22 1074.94 C 1354.21 1093.18 1357.96 1111.56 1362.48 1129.67 C 1367.95 1151.6 1395.37 1150.16 1403.82 1114.32 L 1430.91 984.153 C 1451.23 886.365 1445.37 894.144 1536.16 894.111 L 1710.76 894.124 C 1759.29 894.174 1792.34 889.965 1792.31 953.109 L 1792.43 1283.82 C 1792.67 1350.1 1781.58 1353.16 1716.64 1353.09 L 1638.5 1353 L 348.749 1353.04 C 258.067 1353.07 256.935 1355.7 256.975 1273.13 L 256.914 809.998 C 256.723 778.75 285.901 759.95 313.007 777.241 C 331.881 790.241 331.451 816.462 334.695 836.917 C 349.085 927.65 374.098 1016.26 393.021 1106.07 C 395.2 1113.35 396.476 1124.76 399.578 1131.45 C 406.7 1146.8 432.08 1150.42 440.541 1134.62 C 453.309 1110.77 476.123 961.864 482.252 928.247 C 490.446 883.915 551.827 888.483 558.026 931.344 C 570.289 990.695 582.542 1072.06 600.033 1128.25 C 606.946 1152.72 636.541 1150.38 642.553 1116.77 C 666.741 981.527 694.939 847.019 722.496 712.443 C 727.185 689.547 733.572 679.784 757.239 674.125 z" fill="rgb(0,0,0)" transform="translate(0,0)"></path>
<metadata><recraft-signature>{"signed_by": "recraft", "signature_b64": "PQQyjiDxEAwyIn4BEJGoUjIz0by0xLZb8o6wEpFjgJGIIGl2JMZITQ5f/3qYEcp0E7f0vRsoV6BkpD+h4IDiBQ==", "signing_algo": "Ed25519", "generation_timestamp": 1772997248, "identifier": "4ddff244-cbd5-4a1c-8b4b-b31b2655a1c9"}</recraft-signature></metadata></svg>