<svg xmlns="http://www.w3.org/2000/svg" height="512" preserveAspectRatio="none" style="display: block;" version="1.1" viewBox="0 0 2048 2048" width="512">
<path d="M 271.438 697.982 L 1740.19 697.945 C 1839.81 698.231 1867.12 728.59 1867.07 827.106 L 1867.12 1232.38 C 1866.83 1285.69 1828.9 1331.33 1772.75 1331.01 L 322.416 1331.04 C 219.172 1331.01 180.199 1315.61 181.118 1206.3 L 181.098 856.026 C 181.099 785.069 173.4 706.039 271.438 697.982 z M 1768.75 1283 C 1823.29 1283.69 1819.13 1238.18 1819.04 1197.51 L 1819.11 800.234 C 1819.23 737.109 1768.82 746.654 1725.32 746.725 L 280.049 746.805 C 218.477 748.378 229.22 803.551 229.329 846.718 L 229.165 1235.37 C 229.145 1291.54 289.371 1282.98 327.528 1283.03 L 1768.75 1283 z" fill="rgb(0,0,0)" transform="translate(0,0)"></path>
<path d="M 554.104 911.013 C 657.411 876.785 696.076 1100.25 584.88 1126.99 C 455.145 1141.65 456.797 920.127 554.104 911.013 z M 570.239 1087.7 C 615.093 1080.3 613.496 945.315 564.963 949.291 C 558.251 950.608 548.718 953.427 545.084 959.983 C 531.31 984.838 522.571 1093.59 570.239 1087.7 z" fill="rgb(0,0,0)" transform="translate(0,0)"></path>
<path d="M 1131.79 913.001 C 1153.52 912.917 1176.95 911.474 1198.32 914.84 C 1258.17 924.268 1270.3 1001.52 1216.19 1036.97 C 1223.6 1051.59 1263.61 1104.91 1248.41 1119.2 C 1231.95 1134.68 1216.76 1127.8 1202.72 1113.57 C 1198.93 1104.53 1169.54 1043.25 1164.51 1040.33 C 1159.49 1046.4 1166 1098.96 1161.34 1112.41 C 1154.82 1131.23 1125.42 1132.21 1118.24 1113.98 C 1114.66 1104.88 1117.01 995.102 1116.82 975.205 C 1116.62 954.9 1106.73 921.156 1131.79 913.001 z M 1163 1006.99 C 1173.99 1008.08 1187.75 1011.03 1196.26 1002.31 C 1215.9 968.324 1194.98 953.647 1163 954.05 L 1163 1006.99 z" fill="rgb(0,0,0)" transform="translate(0,0)"></path>
<path d="M 975.273 913.001 C 1006.73 912.877 1050.34 908.034 1073.2 933.494 C 1103.24 966.956 1087.33 1008.06 1057.33 1034.18 C 1066.59 1051.13 1076.02 1070.1 1085.46 1086.97 C 1107.52 1126.41 1059.74 1145.05 1040.51 1105.28 C 1016.46 1053.58 1004.72 1009.81 1004.7 1091.92 C 1004.7 1111.47 1008.74 1111.53 995.484 1126.99 C 948.404 1130.69 958.19 1097.43 958.462 1060.84 L 958.431 1013.26 C 958.396 984.298 945.745 918.776 975.273 913.001 z M 1033.6 1002.31 C 1055.36 970.423 1037.22 952.993 1004.09 954.05 C 1001.17 957.263 1004.12 999.566 1004.09 1006.99 C 1016.04 1007.18 1023.25 1008.42 1033.6 1002.31 z" fill="rgb(0,0,0)" transform="translate(0,0)"></path>
<path d="M 416.008 1034.18 C 415.176 1002.98 413.658 958.953 416.346 927.908 C 418.477 903.286 457.688 908.208 458.279 925.817 C 460.229 983.862 458.712 1042.34 459.072 1100.44 C 459.154 1113.71 454.766 1118.66 446.126 1126.99 C 417.327 1130.49 412.146 1106.05 399.094 1086 C 382.982 1061.25 369.399 1034.4 353 1009.88 L 353.167 1071.41 C 353.196 1086.53 354.904 1103.6 348.819 1117.48 C 339.804 1126.32 313.419 1130.69 311.184 1113.87 C 305.052 1067.74 307.555 977.587 309.402 927.245 C 309.82 915.851 319.244 913.089 328.421 911.013 C 350.835 912.123 360.648 941.508 370.43 958.135 L 416.008 1034.18 z" fill="rgb(0,0,0)" transform="translate(0,0)"></path>
<path d="M 1467.77 911.013 C 1480.06 910.258 1484.45 913.817 1490.96 923.926 C 1492.11 949.632 1460.24 985.279 1448.62 1009.88 C 1464.07 1033.61 1507.94 1091.17 1499.09 1117.48 C 1456.12 1151.83 1428.17 1058.86 1404 1026.55 L 1404 1093.35 C 1400.16 1145.43 1358.87 1128.96 1357.22 1107.29 C 1356.06 1092.15 1355.99 1079.26 1356 1064.57 L 1356.14 996.587 C 1356.14 969.691 1343.58 906.381 1382.68 911.311 C 1413.64 915.214 1403.47 980.259 1404 1006.99 C 1413.1 985.262 1443.32 914.963 1467.77 911.013 z" fill="rgb(0,0,0)" transform="translate(0,0)"></path>
<path d="M 1661.47 911.013 C 1677.67 910.555 1686.47 915.862 1691.03 931.662 C 1707.7 989.495 1726.85 1047.01 1741.58 1105.33 C 1744.87 1118.34 1709.02 1157.47 1690.45 1083 L 1667.25 1083 L 1637.9 1083 C 1632.21 1098.54 1633.18 1121.16 1613.89 1126.83 C 1603.41 1129.91 1587.55 1122.38 1585.59 1110.95 C 1584.12 1102.35 1635.17 929.34 1639.99 922.353 C 1645.28 914.703 1652.65 912.374 1661.47 911.013 z M 1647.92 1041.94 L 1667.25 1041.94 L 1677.79 1041.94 C 1676.22 1034.05 1664.97 994.263 1661.47 988.729 C 1656.41 1002.37 1650.36 1027.23 1647.92 1041.94 z" fill="rgb(0,0,0)" transform="translate(0,0)"></path>
<path d="M 861.162 911.013 C 883.926 909.239 917.861 913.331 927.643 937.22 C 918.58 977.187 888.691 951.253 861.162 954.05 C 817.846 973.947 884.94 999.396 898.306 1005.35 C 956.196 1031.14 951.034 1127.86 855.75 1126.99 C 832.65 1125.81 804.44 1117.5 796.41 1093.35 C 807.08 1051.66 836.862 1084.8 875.657 1083 C 919.226 1055.12 832.428 1032.26 819.591 1019.48 C 780.204 980.271 802.54 913.192 861.162 911.013 z" fill="rgb(0,0,0)" transform="translate(0,0)"></path>
<path d="M 673.125 913.001 L 736.606 912.923 C 748.988 912.874 760.259 912.867 773.182 913.395 C 785.758 913.909 817.845 954.58 747 954.05 L 747 1096.5 C 747.031 1143.13 701.796 1127.56 700.438 1108.26 C 699.201 1090.7 699.631 1073.37 699.636 1055.91 L 699.678 954.05 C 649.398 959.158 650.486 923.33 673.125 913.001 z" fill="rgb(0,0,0)" transform="translate(0,0)"></path>
<path d="M 1295.78 911.013 C 1306.44 910.571 1320 913.317 1324.11 924.723 C 1327.72 934.754 1326.65 1082.96 1325.47 1103.03 C 1324.79 1114.54 1321.26 1122.54 1309.9 1126.99 C 1300.84 1127.78 1285.96 1126.06 1281.56 1116.86 C 1273.83 1100.73 1276.78 934.132 1280.23 924.757 C 1283.05 917.078 1288.85 914.259 1295.78 911.013 z" fill="rgb(0,0,0)" transform="translate(0,0)"></path>
<path d="M 1540.17 911.013 C 1548.27 910.943 1561.95 912.391 1565.65 921.061 C 1572.03 935.993 1568.83 1107.36 1566.27 1113.91 C 1563.6 1120.74 1557.59 1124.07 1551.3 1126.99 C 1538.83 1128.2 1529.52 1123.4 1522.24 1113.57 C 1519.71 1055.38 1522.2 990.919 1522.42 932.076 C 1522.46 919.138 1529.21 914.806 1540.17 911.013 z" fill="rgb(0,0,0)" transform="translate(0,0)"></path>
<metadata><recraft-signature>{"signed_by": "recraft", "signature_b64": "nBlIMSdQm9u3Oi+ZZIVidLwH3yCcTjQVMYGHCjTVbVjLOB0lHodMSXegyFNo7vgQLuQ33HsBz8AS6Jnj3pUuBA==", "signing_algo": "Ed25519", "generation_timestamp": 1772997648, "identifier": "88908c50-dbf3-4c14-abd1-9c6f5196e9f1"}</recraft-signature></metadata></svg>