<svg xmlns="http://www.w3.org/2000/svg" height="512" preserveAspectRatio="none" style="display: block;" version="1.1" viewBox="0 0 2048 2048" width="512">
<path d="M 512.832 801.001 C 662.37 785.442 656.851 1091 607.375 1189.16 C 590.498 1222.64 572.474 1233.95 538.114 1244.98 C 463.487 1250.86 430.382 1190.41 420.346 1125.78 C 406.463 1036.38 393.181 823.478 512.832 801.001 z M 528.494 1188.03 C 596.663 1171.46 579.894 955.164 567.203 905.643 C 560.843 880.828 550.691 854.59 521.164 856.065 C 447.843 878.115 469.753 1096.55 485.771 1148.83 C 491.821 1168.57 504.061 1192.94 528.494 1188.03 z" fill="rgb(0,0,0)" transform="translate(0,0)"></path>
<path d="M 325.302 1073.89 C 324.472 1058.61 325.349 1035.93 325.338 1019.89 L 325.57 906.273 C 325.783 879.14 324.353 850.501 326.367 823.418 C 328.209 798.655 366.233 794.564 378.145 814.224 C 386.165 827.461 381.291 980.342 381.397 1006.58 L 381.726 1160.49 C 381.723 1194 391.455 1227.37 360.261 1244.98 C 326.839 1247.09 322.526 1219.15 313.099 1194.38 L 289.55 1132.45 C 271.346 1085.17 244.186 1022.98 231.486 974.439 C 229.874 998.689 231.349 1017.84 231.455 1041.87 L 231.417 1154.97 C 231.425 1181.76 240.131 1231.03 212.644 1241.57 C 202.03 1248.26 176.517 1237.5 175.815 1224.58 C 173.35 1179.24 174.442 1128.71 174.459 1083.26 L 174.372 830.048 C 174.411 813.247 181.795 805.294 198.032 801.001 C 225.436 801.757 228.415 821.279 236.752 842.152 L 256.604 891.246 C 279.168 947.754 307.285 1016.75 325.302 1073.89 z" fill="rgb(0,0,0)" transform="translate(0,0)"></path>
<path d="M 1151.54 801.001 C 1198.36 797.086 1192.99 858.73 1200.5 898.625 L 1248.3 1161.31 C 1251.42 1178.56 1255.05 1196.5 1256.89 1213.94 C 1260.4 1241.65 1212.51 1259.1 1201.41 1228.99 C 1194.25 1209.57 1192.86 1185.49 1189.41 1164.98 L 1163.62 1164.98 L 1125.62 1164.98 C 1120.54 1184.95 1123.27 1230.24 1102.6 1241.67 C 1081.38 1253.4 1056.28 1235.6 1059.37 1212.3 C 1062.99 1184.97 1068.32 1157.76 1073.32 1130.64 L 1123.96 862.621 C 1128.85 837.988 1127.02 810.765 1151.54 801.001 z M 1134.45 1111 L 1163.62 1111 L 1182.57 1111 C 1178.98 1091.21 1162.03 968.783 1157.49 961.504 C 1150.03 1011.11 1143.3 1061.63 1134.45 1111 z" fill="rgb(0,0,0)" transform="translate(0,0)"></path>
<path d="M 1777.35 798.992 C 1810.98 798.911 1815.27 864.275 1819.7 888.677 L 1862.76 1134.02 C 1867.12 1159.22 1891.98 1236.05 1856.59 1243.11 C 1812.38 1251.92 1816.87 1193.57 1810.52 1164.98 C 1801.89 1164.6 1794.06 1164.78 1785.46 1164.98 C 1772.47 1164.42 1762.4 1164.55 1749.49 1164.98 C 1745.38 1185.25 1748.24 1234.27 1723.3 1242.57 C 1707.44 1247.85 1687.68 1241.37 1683.35 1223.9 C 1678.66 1205 1716.27 1020.87 1721.95 988.098 C 1725.47 967.805 1747.92 823.031 1753.66 812.852 C 1758.85 803.626 1767.85 801.529 1777.35 798.992 z M 1756.51 1104.99 L 1785.46 1104.99 C 1790.51 1105.03 1796.67 1105.24 1801.62 1104.99 C 1798.74 1089.1 1781.79 974.443 1777.35 970.661 C 1775.8 1008.82 1763.31 1066.22 1756.51 1104.99 z" fill="rgb(0,0,0)" transform="translate(0,0)"></path>
<path d="M 1509.27 798.992 C 1538.07 799.353 1544.09 819.871 1543.29 844.533 C 1542.45 870.075 1543.22 896.173 1541.14 921.599 C 1566.97 887.392 1587.22 843.329 1612.31 811.884 C 1630.63 787.91 1671.87 808.762 1660.69 835.152 C 1653.66 851.731 1642.16 866.483 1632.83 881.816 C 1610.64 918.095 1582.13 958.526 1562.53 995.276 L 1561.95 996.381 C 1589.2 1055.42 1618.04 1114.13 1647.01 1172.36 C 1653.41 1185.23 1660.85 1197.85 1665.75 1211.38 C 1674.17 1247.79 1626.62 1253.94 1614.34 1233.04 C 1587.07 1186.63 1567.76 1132.41 1541.14 1085.58 C 1541.17 1109.14 1544.03 1211.35 1537.86 1227.54 C 1529.16 1250.34 1492.69 1251.26 1484.84 1227 C 1481.65 1217.15 1483.96 1120.26 1483.96 1102.7 L 1483.97 932.052 C 1483.98 892.556 1468.76 811.363 1509.27 798.992 z" fill="rgb(0,0,0)" transform="translate(0,0)"></path>
<path d="M 881.757 801.001 C 916.062 798.876 915.979 828.035 921.413 854.217 L 935.15 922.97 C 945.662 975.574 959.72 1032.69 967.449 1085.58 C 969.87 1070.23 973.293 1056.54 976.196 1041.42 L 1008.22 868.669 C 1010.65 855.01 1013.47 817.788 1024.9 808.766 C 1038.55 796.982 1064.44 801.766 1070.95 819.188 C 1075.85 832.296 1068.53 857.255 1065.87 871.465 L 1048.8 961.504 C 1044.55 980.849 1041.17 1002.15 1037.34 1021.78 L 1010.81 1156.95 C 1005.47 1184.11 1001.91 1265.39 954.744 1240.76 C 938.077 1232.06 934.113 1189.34 930.532 1172.5 L 873.2 902.596 C 866.036 867.393 840.689 814.288 881.757 801.001 z" fill="rgb(0,0,0)" transform="translate(0,0)"></path>
<path d="M 1368.5 798.992 C 1432.11 785.726 1475.92 857.705 1424.93 874.234 C 1401.46 881.226 1350.02 799.399 1330.84 950.799 C 1326.92 981.75 1318.82 1230.51 1395.75 1181.18 C 1415.37 1168.62 1440.66 1140 1454.53 1183.65 L 1454.95 1184.99 C 1456.59 1241.56 1365.39 1262.95 1327.05 1229.26 C 1240.01 1152.75 1231.2 809.809 1368.5 798.992 z" fill="rgb(0,0,0)" transform="translate(0,0)"></path>
<path d="M 693.839 804.363 L 765.129 804.242 C 789.904 804.208 828.862 796.159 829.489 828.061 C 830.397 874.326 798.94 861.771 763.001 862.368 L 763.036 1095.4 C 763.037 1118.52 767.068 1215.34 759.206 1231.15 C 749.68 1246.96 726.171 1249.2 714.324 1236.26 C 701.986 1222.8 705.093 1186.05 705.123 1168.39 L 705.181 862.368 C 678.032 861.817 637.048 873.509 638.814 834.787 C 639.37 822.602 639.387 816.465 648.865 807.438 C 661.345 803.618 680.352 804.506 693.839 804.363 z" fill="rgb(0,0,0)" transform="translate(0,0)"></path>
<metadata><recraft-signature>{"signed_by": "recraft", "signature_b64": "YyrpG26vvUzt8caUG/6dMYF6jXdURAkvvnEqXztMfM59uWYFL5/g+D0dQ3IaY1UJGHjOqbRgo5t7AWJN820DDw==", "signing_algo": "Ed25519", "generation_timestamp": 1772997720, "identifier": "464dbbdf-58f4-4c30-9a5d-644506fda680"}</recraft-signature></metadata></svg>