<svg xmlns="http://www.w3.org/2000/svg" height="512" preserveAspectRatio="none" style="display: block;" version="1.1" viewBox="0 0 2048 2048" width="512">
<path d="M 304.369 247.234 C 346.467 242.094 391.299 299.623 418.418 326.755 L 499.633 406.945 L 1630.22 406.887 C 1644.11 406.848 1662.96 406.005 1676.48 407.458 C 1740.08 414.292 1799.76 473.249 1802.67 538.062 C 1803.27 551.284 1803.02 565.181 1803.03 578.487 L 1803.01 1638.45 C 1803.03 1697.08 1819.13 1774.17 1742.78 1788.16 C 1683.06 1797.61 1601.45 1668.55 1549.62 1633.42 C 1520.67 1632.48 1485.48 1633.41 1456.16 1633.41 L 494.724 1633.42 C 459.244 1633.42 420.655 1634.61 385.74 1632.41 C 321.342 1628.34 261.342 1574.01 248.49 1511.11 C 244.052 1489.39 244.996 1467.7 244.993 1445.41 L 245.217 526.935 C 245.688 454.809 244.201 382.272 245.442 310.113 C 246.036 275.558 272.042 253.706 304.369 247.234 z M 634.749 534.558 C 668.913 571.517 702.099 603.065 737.608 638.391 L 1282.63 1186.24 C 1381.48 1285.62 1480.58 1385.22 1581.08 1483.01 C 1588.54 1490.27 1596.96 1499.29 1605.5 1504.98 C 1612.41 1506.12 1655.34 1504.92 1665.25 1504.98 L 1667.99 1505.91 C 1672.61 1502.08 1670.05 1432.46 1670.05 1421.6 L 1670.09 731.908 C 1670.09 713.538 1672.19 549.254 1667.34 543.31 C 1654.21 527.233 1553.54 534.541 1530.21 534.549 L 647.28 534.558 C 643.003 534.638 639.047 534.702 634.749 534.558 z M 1414.18 1504.98 C 1410.43 1499.38 1394.03 1483 1388.38 1477.35 L 1101.65 1191.08 C 1065.74 1155.21 1020.08 1112.02 986.575 1074.97 C 969.418 1074.15 951.299 1074.92 934.001 1074.96 L 424.272 1074.97 C 409.267 1074.96 389.589 1075.45 374.961 1074.97 C 373.943 1084.17 374.921 1115.4 374.941 1125.96 L 374.961 1390.25 C 374.957 1418.8 374.25 1447.41 375.93 1476 C 378.135 1513.52 424.739 1505.08 450.276 1505.05 L 1350.6 1505.02 C 1368.86 1505.04 1396.56 1505.93 1414.18 1504.98 z" fill="rgb(0,0,0)" transform="translate(0,0)"></path>
<path d="M 374.961 466.777 C 383.166 472.38 399.991 490.56 408.095 498.765 L 804.366 896.214 C 813.987 905.837 847.245 937.32 853.627 946.106 C 802.064 947.108 746.681 946.109 694.835 946.107 L 374.961 946.106 L 374.933 520.994 C 374.911 503.919 374.236 483.572 374.961 466.777 z" fill="rgb(5,114,245)" transform="translate(0,0)"></path>
<metadata><recraft-signature>{"signed_by": "recraft", "signature_b64": "FYP35vePR/J3nM33iltROobcNlkGGNutyEocvyQEfG4H2AaouqHmvfOrlPr7Hv60CFaFOzra3v3PgCbf9qIaDA==", "signing_algo": "Ed25519", "generation_timestamp": 1772990257, "identifier": "8d4f6a34-3392-47db-8dd8-883fcc0f0f7f"}</recraft-signature></metadata></svg>