<svg xmlns="http://www.w3.org/2000/svg" height="512" preserveAspectRatio="none" style="display: block;" version="1.1" viewBox="0 0 2048 2048" width="512">
<path d="M 397.782 444.869 C 488.131 443.762 580.982 444.87 671.565 444.871 L 1603.67 444.773 C 1656.87 444.677 1723.64 444.645 1734.59 515.99 C 1737.67 536.073 1737.02 555.629 1737.02 575.529 L 1737.01 1421.98 C 1737.06 1495.54 1736.31 1559.31 1646.25 1574.11 C 1620.18 1574.99 1589.08 1574.15 1562.53 1574.13 L 457.684 1574.13 C 398.169 1574.26 325.729 1576.87 312.697 1496.99 C 310.236 1481.9 311.042 1463.67 311.063 1448.39 L 311.088 599.79 C 311.083 529.274 304.11 460.451 397.782 444.869 z M 513.146 968.913 L 1641.99 968.913 L 1641.99 537.973 C 1628 538.599 1613.14 538.01 1599 537.992 L 513.146 537.973 L 513.168 920.701 C 513.171 935.849 513.746 954.146 513.146 968.913 z M 513.146 1482.48 C 552.256 1483.64 598.151 1482.49 637.602 1482.49 L 1641.99 1482.48 L 1641.99 1060.13 C 1629.38 1060.67 1613.05 1060.19 1600.1 1060.18 L 513.146 1060.13 L 513.204 1436.15 C 513.23 1448.46 513.978 1470.73 513.146 1482.48 z" fill="rgb(20,20,21)" transform="translate(0,0)"></path>
<path d="M 513.146 537.973 L 513.168 920.701 C 513.171 935.849 513.746 954.146 513.146 968.913 C 504.742 968.205 486.642 968.809 477.499 968.821 L 405.859 968.913 L 405.859 682.4 C 405.857 634.685 405.214 585.543 405.859 537.973 C 441.102 537.985 478.065 538.691 513.146 537.973 z" fill="rgb(238,191,74)" transform="translate(0,0)"></path>
<path d="M 405.859 1060.13 L 473.544 1060.2 C 484.859 1060.27 502.381 1060.94 513.146 1060.13 L 513.204 1436.15 C 513.23 1448.46 513.978 1470.73 513.146 1482.48 C 503.284 1481.91 488.019 1482.42 477.825 1482.43 L 405.859 1482.48 L 405.859 1060.13 z" fill="rgb(238,191,74)" transform="translate(0,0)"></path>
<metadata><recraft-signature>{"signed_by": "recraft", "signature_b64": "DkvLq2WaebHywuqGRBul1ulSzVenkoF2qyQ5USwB8ZyDkyZ+ZF/+AN2cwochJHbln1smOtXuB/ll8eK5aQEPCA==", "signing_algo": "Ed25519", "generation_timestamp": 1772995880, "identifier": "c058057d-5090-4a7a-b2f1-1d8d869b27ff"}</recraft-signature></metadata></svg>