<svg xmlns="http://www.w3.org/2000/svg" height="512" preserveAspectRatio="none" style="display: block;" version="1.1" viewBox="0 0 2048 2048" width="512">
<path d="M 992.488 254.087 C 1179.48 237.124 1344.67 375.311 1361 562.36 C 1377.33 749.408 1238.59 914.132 1051.49 929.831 C 865.276 945.454 701.509 807.515 685.256 621.358 C 669.002 435.202 806.387 270.969 992.488 254.087 z M 1043.43 761.853 C 1138.11 751.644 1206.6 666.626 1196.41 571.945 C 1186.22 477.264 1101.22 408.761 1006.54 418.926 C 911.821 429.095 843.29 514.131 853.481 608.843 C 863.672 703.555 948.724 772.066 1043.43 761.853 z" fill="rgb(0,0,0)" transform="translate(0,0)"></path>
<path d="M 762.056 984.405 C 838.316 976.011 886.439 1072.82 827.953 1126.85 C 816.141 1138.23 800.145 1144.54 785.44 1151.83 C 682.035 1203.11 582.366 1298.84 556.228 1414.69 C 550.764 1438.91 551.986 1483.01 551.985 1508.85 L 552.031 1620.3 C 552.069 1681.56 555.15 1736.41 474.25 1747.22 C 393.742 1744.46 383.353 1696.54 383.479 1627.09 L 383.499 1551.15 C 383.483 1513.87 382.152 1454.63 386.712 1418.83 C 407.755 1253.66 535.813 1097.92 678.215 1018 C 704.274 1003.38 731.982 987.713 762.056 984.405 z" fill="rgb(0,0,0)" transform="translate(0,0)"></path>
<path d="M 1267.73 984.405 C 1287.35 979.963 1307.84 989.666 1325.05 998.038 C 1457.29 1062.36 1568.97 1161.61 1627.29 1298.64 C 1659.43 1374.17 1662.04 1424.61 1662.02 1504.74 L 1662.18 1644.14 C 1662.4 1696.66 1649.85 1737.77 1588.24 1747.22 C 1502.8 1752.11 1495.04 1689.28 1494.99 1622.4 L 1495.09 1507.83 C 1495.08 1481.27 1496.13 1452.47 1492.19 1425.93 C 1474.31 1305.61 1376.17 1208.25 1272.14 1154.18 C 1257.64 1146.65 1239.69 1142.05 1227.01 1131.65 C 1170.26 1085.1 1191.06 993.819 1267.73 984.405 z" fill="rgb(0,0,0)" transform="translate(0,0)"></path>
<path d="M 762.056 1580.52 L 763.882 1580.37 C 771.551 1579.8 785.762 1580.43 793.994 1580.45 L 1215.36 1580.5 C 1255.5 1580.5 1302.58 1573.13 1335.2 1601.83 C 1390.84 1650.78 1360.98 1742.94 1285.25 1747.22 L 813.407 1747.27 C 775.432 1747.28 736.586 1752.5 706.672 1724.1 C 650.405 1670.67 684.32 1584.97 762.056 1580.52 z" fill="rgb(0,0,0)" transform="translate(0,0)"></path>
<metadata><recraft-signature>{"signed_by": "recraft", "signature_b64": "fd8LvY44fSeFRMK+81t0+wfQe6c7jwYs0rwKYg/TG6pOKQt3qT6FRGrg/6sb6njHjOxqlS8zDiDolQoX2tkcAA==", "signing_algo": "Ed25519", "generation_timestamp": 1773000481, "identifier": "77f36292-287c-49c0-8dbc-711f00a8b7cc"}</recraft-signature></metadata></svg>