<svg xmlns="http://www.w3.org/2000/svg" height="512" preserveAspectRatio="none" style="display: block;" version="1.1" viewBox="0 0 2048 2048" width="512">
<path d="M 294.026 509.475 C 332.453 510.345 373.66 509.48 412.412 509.465 L 1630.35 509.473 C 1670.98 509.472 1713.28 508.836 1753.78 509.475 L 1753.78 1613.75 C 1753.82 1614.79 1753.5 1615.15 1753.07 1616.25 C 1745.58 1619.02 1654.22 1617.92 1639.36 1617.91 L 294.026 1617.91 L 294.039 591.049 C 294.044 570.535 290.934 527.962 294.026 509.475 z M 348 1562.21 L 1700.3 1562.21 L 1700.3 563.998 L 396.309 563.945 C 382.448 563.932 361.365 563.263 348 563.998 L 348 1562.21 z" fill="rgb(0,0,0)" transform="translate(0,0)"></path>
<path d="M 701.348 1070.79 C 749.936 1068.67 805.745 1069.85 854.332 1071.04 C 858.687 1071.15 864.377 1074.87 868.014 1077.21 C 873.831 1089.94 874.123 1116.72 865.452 1127.12 C 852.525 1142.63 773.303 1133.82 751.382 1135.85 L 749.995 1135.98 L 749.995 1223.39 L 808.656 1223.28 C 830.204 1223.24 858.177 1217.15 859.826 1244.54 C 862.626 1291.07 844.594 1285.13 808.963 1285.1 L 749.995 1284.99 C 749.889 1310.09 751.132 1338.38 749.995 1362.96 L 749.995 1377.54 C 774.379 1379.35 846.836 1372.8 863.927 1381.78 C 878.737 1389.57 877.877 1419.46 870.827 1431.52 C 861.82 1446.92 833.08 1442.46 818.516 1442.41 L 767.541 1442.48 C 690.405 1442.66 674.066 1460.26 674.04 1373.93 L 674.044 1166.96 C 674.056 1135.66 662.337 1075.78 701.348 1070.79 z" fill="rgb(0,0,0)" transform="translate(0,0)"></path>
<path d="M 1200.46 1070.79 L 1302.86 1070.7 C 1333.84 1070.69 1377.05 1060.18 1378.27 1100.04 C 1379.58 1142.56 1354.86 1136.08 1321.78 1136.07 L 1255.55 1135.98 C 1255.6 1164.99 1255.05 1194.47 1255.55 1223.39 L 1306.16 1223.21 C 1327.52 1223.05 1357.68 1217.52 1359.35 1245.96 C 1361.97 1290.24 1347.24 1285.44 1312.48 1285.13 L 1255.55 1284.99 L 1255.55 1358.35 L 1255.55 1377.54 C 1285.9 1377.49 1333.89 1374.59 1360.83 1378.97 C 1380.3 1385.32 1382.02 1409.26 1377.3 1426.01 C 1369.47 1453.87 1236.24 1442.68 1209.71 1442.31 C 1192.02 1442.05 1180.52 1431.24 1180.8 1413.42 C 1180.09 1359.9 1180.39 1306.16 1180.39 1252.65 L 1180.4 1148.65 C 1180.37 1119.29 1169.94 1080.15 1200.46 1070.79 z" fill="rgb(0,0,0)" transform="translate(0,0)"></path>
<path d="M 1106.03 1070.79 C 1129.98 1070.07 1152.56 1071.18 1145.22 1103.88 C 1137.76 1137.09 1128.72 1170.36 1119.79 1203.2 L 1070.39 1388.52 C 1059.62 1429.78 1061.65 1446.27 1014.44 1442.95 C 997.928 1441.79 988.117 1441.84 982.999 1423.18 C 964.125 1354.37 944.235 1285.85 926.513 1216.77 C 916.72 1174.37 901.235 1132.97 892.637 1090.47 C 898.221 1066.82 915.374 1071.42 935.061 1070.28 C 969.874 1068.26 967.027 1101.48 974.537 1126.89 C 992.419 1187.4 1006.05 1250.78 1021.9 1311.49 C 1028.59 1249.04 1059.73 1151.08 1075.63 1088.12 C 1079.92 1071.13 1091.1 1070.54 1106.03 1070.79 z" fill="rgb(0,0,0)" transform="translate(0,0)"></path>
<path d="M 825.554 713.981 C 840.075 714.091 853.267 713.408 868.014 713.981 C 879.386 754.047 891.152 817.158 896.519 857.954 C 905.417 809.417 916.538 761.478 930.206 713.981 L 956.815 713.981 C 969.875 757.527 981.171 805.89 989.773 850.381 C 1001.89 808.727 1008.83 752.984 1021.9 713.981 L 1062.9 713.981 C 1054.48 747.262 1048.18 780.326 1039.91 813 C 1030.52 861.821 1019.47 916.443 1007.07 964.782 C 997.378 964.994 987.51 964.838 977.798 964.782 C 966.452 931.872 948.894 854.733 943.332 817.185 C 936.17 860.741 919.336 920.077 908.968 964.782 C 899.223 964.89 889.375 964.798 879.621 964.782 L 847.803 815.619 C 844.54 800.734 824.109 722.76 825.554 713.981 z" fill="rgb(0,0,0)" transform="translate(0,0)"></path>
<path d="M 517.439 713.981 C 528.837 713.528 536.524 713.443 547.996 713.981 C 557.017 748.397 608.37 831.914 627.199 870.349 C 626.423 855.082 627.143 833.787 627.15 817.999 L 627.199 713.981 C 638.957 713.251 656.26 713.884 668.295 713.981 L 668.295 964.782 L 652.653 964.782 L 631.782 964.782 C 609.712 940.501 569.103 841.793 547.996 807.359 C 546.675 857.712 548.015 913.937 547.996 964.782 C 533.658 964.865 519.356 964.989 505.018 964.782 L 505.018 713.981 C 509.248 713.83 513.218 713.913 517.439 713.981 z" fill="rgb(0,0,0)" transform="translate(0,0)"></path>
<path d="M 1469.5 713.981 L 1507.04 713.981 C 1526.52 798.327 1555.94 880.375 1575.18 964.782 C 1562.89 964.937 1544.39 963.399 1533.29 964.782 C 1528.88 952.344 1523.31 926.98 1519.65 912.998 L 1507.04 912.998 L 1456.4 912.998 C 1451.64 928.252 1446.47 949.178 1442.5 964.782 C 1428.25 963.929 1414.06 964.376 1399.8 964.782 C 1403.2 944.557 1412.53 913.334 1418.24 893.203 L 1457.54 752.025 C 1460.62 740.861 1464.87 724.253 1469.5 713.981 z M 1469.5 870.349 C 1477.05 870.429 1484.48 870.532 1492.04 870.349 L 1507.04 870.349 C 1505.01 861.618 1489.36 799.201 1486.33 795.738 C 1480.48 819.89 1472.94 846.039 1469.5 870.349 z" fill="rgb(0,0,0)" transform="translate(0,0)"></path>
<path d="M 798.376 713.981 C 804.595 713.819 811.367 713.967 817.635 713.981 C 817.492 728.397 817.308 742.628 817.635 757.044 C 805.238 758.348 761.282 758.558 749.995 757.044 C 750.258 775.821 750.371 794.223 749.995 813 C 768.298 812.951 786.71 812.794 805.002 813 C 805.092 828.012 805.194 842.942 805.002 857.954 C 787.05 858.041 767.758 857.227 749.995 857.954 L 749.995 919.969 L 817.635 919.969 L 817.635 931.75 C 818.487 945.163 818.671 951.216 817.635 964.782 L 706.064 964.782 C 707.11 939.302 706.09 906.583 706.082 880.45 L 706.064 713.981 L 798.376 713.981 z" fill="rgb(0,0,0)" transform="translate(0,0)"></path>
<path d="M 1284.76 713.981 L 1393 713.981 L 1393 757.044 C 1371.56 757.012 1349.37 756.551 1328 757.044 L 1328 813 L 1387.49 813 L 1387.49 857.954 C 1369.95 858.676 1345.99 857.981 1328 857.954 C 1328.28 876.592 1328.54 894.338 1328 912.998 L 1328 919.969 C 1350.69 919.911 1373.87 920.476 1396.49 919.969 C 1396.61 934.947 1396.75 949.805 1396.49 964.782 C 1362.78 963.412 1319.19 964.751 1284.76 964.782 L 1284.77 786.644 C 1284.84 763.389 1283.83 736.813 1284.76 713.981 z" fill="rgb(0,0,0)" transform="translate(0,0)"></path>
<path d="M 1225.99 713.981 L 1269.1 713.981 C 1254.45 754.013 1241.83 790.515 1225.99 830.705 C 1213.65 860.591 1214.93 871.462 1214.93 903.014 L 1215 964.782 L 1171.51 964.782 C 1167.65 900.957 1180.04 885.091 1157.62 821.985 L 1132.9 752.592 C 1129.12 742.156 1122.44 724.747 1120.8 713.981 C 1134.38 713.568 1149.81 713.953 1163.52 713.981 C 1165.8 722.797 1170.76 736.359 1173.67 745.336 L 1193.48 807.359 C 1201.31 783.911 1216.17 735.402 1225.99 713.981 z" fill="rgb(0,0,0)" transform="translate(0,0)"></path>
<metadata><recraft-signature>{"signed_by": "recraft", "signature_b64": "LmioDG/0gK6Y7BNp1ypq35HpzIj9jfldhNW/YkgySivZrFgMW746mpIMmfI10aR4V3IeZuo8YYCIINGORdSrCA==", "signing_algo": "Ed25519", "generation_timestamp": 1772996214, "identifier": "b4fd98ec-b189-402c-baac-9daad182cbd5"}</recraft-signature></metadata></svg>