<svg xmlns="http://www.w3.org/2000/svg" height="512" preserveAspectRatio="none" style="display: block;" version="1.1" viewBox="0 0 2048 2048" width="512">
<path d="M 410.069 285.097 C 498.169 283.976 588.948 285.101 677.25 285.103 L 1585.41 285.041 C 1660.08 285.031 1667.14 279.656 1667.09 354.348 L 1667.03 1409.05 L 1774.97 1408.97 C 1791.19 1408.97 1816.79 1407.43 1831.53 1410.32 C 1866.21 1417.1 1867.68 1475.25 1829.43 1479.7 C 1810.5 1481.91 1792.64 1481.01 1773.9 1481 L 1667.03 1480.96 L 1667.03 1675.35 L 1768.9 1675.28 C 1787.29 1675.28 1811.86 1673.82 1829.52 1677 C 1868.47 1684.07 1866.65 1741.69 1829.92 1747.6 C 1812.07 1750.47 1783.75 1748.83 1765.04 1748.83 L 1635.93 1748.77 L 281.158 1748.79 C 264.148 1748.79 246.404 1748.86 229.304 1748.63 C 182.642 1749 177.882 1684.09 222.473 1676.73 C 238.037 1674.16 262.123 1675.33 278.151 1675.32 L 382.096 1675.35 L 382.096 1480.96 C 328.832 1479.16 271.269 1483.82 217.885 1479.2 C 185.627 1472 168.49 1409.39 244.081 1408.91 L 382.096 1409.05 L 382.037 349.463 C 381.819 321.896 374.531 293.293 410.069 285.097 z M 454.013 1675.35 L 1469.42 1675.34 C 1507.71 1675.34 1556.44 1673.93 1593.97 1675.35 C 1593.97 1611.29 1594.95 1544.8 1593.97 1480.96 L 454.013 1480.96 C 454.828 1502.97 454.006 1528.22 454.008 1550.62 L 454.013 1675.35 z" fill="rgb(24,24,24)" transform="translate(0,0)"></path>
<path d="M 454.013 357.795 L 1260.49 357.795 L 1260.41 542.046 C 1262.84 602.523 1329.99 588.922 1333.75 554.877 C 1335.51 538.934 1334.02 514.718 1334.01 497.827 L 1333.98 357.795 L 1428.2 357.795 L 1428.16 655.781 C 1428.17 674.052 1424.92 701.224 1437.11 715.535 C 1455.67 737.326 1496.96 728.81 1500.86 698.932 C 1502.6 685.582 1501.78 670.985 1501.7 657.45 L 1501.62 357.795 L 1593.97 357.795 L 1593.97 811.086 L 1593.97 1409.05 L 454.013 1409.05 L 454.013 357.795 z" fill="rgb(247,249,249)" transform="translate(0,0)"></path>
<path d="M 750.728 926.174 L 750.682 695.752 C 750.626 686.013 750.078 675.508 750.762 665.945 C 753.828 623.092 819.578 621.268 820.636 673.428 C 821.277 705.007 821.006 736.794 821.01 768.384 L 821.058 1032.66 C 821.188 1060.3 827.528 1081.02 801.747 1098.25 C 762.465 1114.54 750.269 1082.09 736.473 1054.5 L 651.827 886.808 C 641.453 866.51 630.906 844.551 619.811 824.848 C 618.957 906.234 620.474 988.087 619.748 1069.49 C 617.51 1113.8 551.418 1106.82 548.472 1074.96 C 546.5 1053.63 547.451 1029.44 547.454 1007.48 L 547.473 733.142 C 547.465 699.447 534.405 639.296 578.751 635.169 C 609.718 633.65 617.499 661.766 628.989 685.172 L 653.907 734.989 C 686.285 798.601 719.325 862.02 750.728 926.174 z" fill="rgb(24,24,24)" transform="translate(0,0)"></path>
<path d="M 914.452 635.169 C 928.538 633.949 944.344 635.456 951.274 649.216 C 977.509 701.308 999.796 758.238 1024.34 811.086 C 1046.33 765.94 1074.55 688.031 1099.7 648.464 C 1116.25 624.338 1188.6 624.857 1149.61 707.623 C 1124.65 760.617 1099.9 814.424 1073.93 866.939 C 1055.58 902.722 1059.04 907.689 1059.05 946.948 L 1059.25 1040.38 C 1059.33 1068.95 1056.22 1117.82 1009.82 1099.1 C 979.651 1086.93 986.044 1055.85 986.062 1029.61 L 986.182 940.505 C 986.389 887.05 988.293 901.895 966.517 853.373 L 915.166 739.333 C 900.494 706.543 863.176 652.901 914.452 635.169 z" fill="rgb(24,24,24)" transform="translate(0,0)"></path>
<metadata><recraft-signature>{"signed_by": "recraft", "signature_b64": "fEOkd0DRpaa0e9eA3n/kb/gBob0s11ZQaGnjzXfIkO8GddpThazSi1G1y3YVHOz/x5gDPiAg+mUFLAucmCweDQ==", "signing_algo": "Ed25519", "generation_timestamp": 1773000289, "identifier": "c3d28763-71df-4d28-8c9c-5661f2fe9ed2"}</recraft-signature></metadata></svg>