<svg xmlns="http://www.w3.org/2000/svg" height="512" preserveAspectRatio="none" style="display: block;" version="1.1" viewBox="0 0 2048 2048" width="512">
<path d="M 850.751 282.517 L 1512.43 282.48 C 1586.75 282.487 1648.17 277.523 1706.28 335.522 C 1763.73 392.86 1758.02 449.108 1757.99 523.612 L 1757.99 1492.07 C 1758.07 1598.51 1759.87 1691.09 1639.02 1740.63 C 1599.76 1756.72 1558.45 1753.03 1517.25 1753.02 L 869.25 1752.99 L 518.588 1753.03 C 489.653 1753.02 457.629 1753.58 429.275 1747.43 C 367.15 1733.7 308.599 1676.98 294.792 1614.35 C 286.177 1575.27 289.23 1519.81 289.231 1478.24 L 289.215 1308.65 C 289.216 1280.99 289.883 1251.14 289.208 1223.7 C 595.405 1309.53 705.146 903.349 444.689 809.858 C 392.582 791.154 340.442 792.131 289.208 813.235 L 289.169 497.279 C 289.072 398.189 318.06 314.96 428.6 288.213 C 456.869 281.373 486.217 282.477 515.367 282.486 L 850.751 282.517 z M 427.041 660.769 C 445.937 662.478 468.434 669.051 486.024 675.49 C 818.903 797.352 806.425 1259.56 466.952 1362.75 C 453.622 1366.8 440.371 1368.33 427.041 1371.49 L 427.007 1512.35 C 427.024 1605.76 421.138 1613.98 516.231 1614.02 L 1569.51 1614.04 C 1635.1 1616.62 1621.02 1529.23 1621.03 1488.72 L 1621.06 1295.2 C 1600.97 1311.65 1584.31 1321.62 1561.53 1334.03 C 1273.47 1482.63 940.811 1214.98 1043.77 895.407 C 1125.7 641.088 1413.06 564.914 1621.06 722.315 L 1621.15 488.414 C 1621.44 419.658 1596.98 420.944 1534.72 420.928 L 470.815 420.831 C 470.453 420.876 470.091 420.921 469.729 420.966 C 416.751 429.206 426.953 491.35 426.962 530.084 L 427.041 660.769 z M 1405.45 1236.14 C 1531.87 1228.61 1628.36 1120.2 1621.2 993.757 C 1614.03 867.312 1505.91 770.502 1379.45 777.298 C 1252.46 784.121 1155.16 892.79 1162.35 1019.76 C 1169.55 1146.73 1278.5 1243.71 1405.45 1236.14 z" fill="rgb(0,0,0)" transform="translate(0,0)"></path>
<metadata><recraft-signature>{"signed_by": "recraft", "signature_b64": "LcmfhG+dSHR9jry7BmLIy3bG1+A5Wpxgz7A6oJUHAZVXcZcuiyvsAxQFw37H270qhYVlH1e9LQ+zV+NehYm9BQ==", "signing_algo": "Ed25519", "generation_timestamp": 1772990360, "identifier": "b2b6cb61-a848-4856-b09c-862a31cf86e3"}</recraft-signature></metadata></svg>