<svg xmlns="http://www.w3.org/2000/svg" height="512" preserveAspectRatio="none" style="display: block;" version="1.1" viewBox="0 0 2048 2048" width="512">
<path d="M 506.277 297.001 C 532.352 296.086 560.135 296.972 586.389 296.99 L 1506.7 296.966 C 1523.23 296.973 1542.42 296.539 1558.56 298.988 C 1637.38 310.947 1685.01 378.255 1685.78 455.495 L 1685.85 1058.3 C 1685.87 1207.88 1647.78 1266.12 1490.76 1266.08 L 1087.99 1266.05 L 1087.99 1605.25 C 1087.64 1612.66 1087.65 1617.59 1087.99 1625 C 1117 1625.69 1160.87 1621.72 1188.19 1625.48 C 1258.65 1635.19 1257.22 1741.86 1186.66 1748.38 C 1167.91 1750.11 1148.14 1749.48 1129.43 1749.49 L 925.586 1749.5 C 904.736 1749.5 873.385 1751.39 854.354 1747.18 C 791.303 1733.23 791.057 1641.09 854.54 1626.84 C 869.191 1623.55 885.672 1624.87 900.314 1624.89 L 960.188 1625 C 960.809 1607.19 960.225 1586.73 960.206 1568.71 L 960.194 1332.64 C 960.202 1310.82 960.727 1287.71 960.188 1266.05 L 548.833 1266.09 C 530.341 1266.09 505.66 1266.81 488.063 1264.02 C 426.124 1254.21 371.956 1197.4 365.811 1135.23 C 364.315 1120.1 364.529 1102.78 364.52 1087.45 L 364.528 472.081 C 364.533 376.2 400.241 309.839 506.277 297.001 z M 1524.25 1137 L 1535.19 1137 C 1563.17 1120.96 1554.11 1077.5 1554.1 1046.8 L 1553.85 458.757 C 1553.52 411.279 1494.56 425.978 1458.94 426.01 L 521.473 425.999 C 500.852 430.71 493.707 443.236 493.509 463.42 L 493.28 1036.31 C 493.253 1067.29 480.11 1136.4 523.635 1136.88 C 559.028 1137.27 594.451 1136.94 629.858 1136.95 L 1524.25 1137 z" fill="rgb(0,0,0)" transform="translate(0,0)"></path>
<metadata><recraft-signature>{"signed_by": "recraft", "signature_b64": "bC1HVjIEp8xMuIB0dgua0IK3FXeI9hX/iNAJhGCBwdKmH8FOkPzu4+XZBa1ye1Al7qxa+ZNRrTMihbR8onyRDQ==", "signing_algo": "Ed25519", "generation_timestamp": 1772989857, "identifier": "cc7c3c07-97cb-434a-8043-b694955ff260"}</recraft-signature></metadata></svg>