<svg xmlns="http://www.w3.org/2000/svg" height="512" preserveAspectRatio="none" style="display: block;" version="1.1" viewBox="0 0 2048 2048" width="512">
<path d="M 403.255 445.009 L 1615.1 444.961 C 1726 444.949 1827.81 495.525 1829.04 621.458 L 1829.08 1341.46 C 1829.08 1366.62 1831.62 1406.13 1826.88 1429.53 C 1808.99 1517.92 1731.58 1578.79 1644.67 1579.15 L 426.848 1579.19 C 409.619 1579.21 390.625 1580.03 373.691 1577.74 C 288.307 1566.11 223.745 1489.49 219.494 1404.61 C 218.662 1388 219.803 1369.03 219.838 1352.12 L 219.825 705.982 C 219.807 669.828 217.908 627.108 222.587 591.722 C 234.531 501.406 317.373 448.463 403.255 445.009 z M 882.5 1517 L 1578.59 1517.03 C 1741.19 1517.06 1766.56 1485.83 1766.55 1325.21 L 1766.52 644.412 C 1765.61 536.283 1709.3 508.79 1610.25 508.846 L 1174.74 508.908 L 462.96 508.918 C 412.287 508.865 357.763 501.075 318.681 541.692 C 292.181 569.233 282.885 594.281 282.919 632.129 L 282.997 1333.15 C 282.824 1464.61 295.501 1517.16 439.345 1517.07 L 882.5 1517 z" fill="rgb(0,0,0)" transform="translate(0,0)"></path>
<path d="M 757.424 616.525 C 778.989 611.626 792.917 634.713 804.73 649.938 C 832.805 686.123 861.458 721.413 890.169 757.041 L 972.047 860.439 C 973.061 845.831 972.104 819.987 972.086 804.22 L 972.002 690.232 C 971.996 674.58 971.788 658.798 972.366 643.152 C 973.74 605.944 1034.4 607.171 1035.76 645.568 C 1039.34 746.799 1037.77 852.516 1036.61 953.841 C 1036.44 968.533 1025.52 979.003 1012.34 983.51 C 1003.1 984.647 987.33 984.543 980.86 976.435 C 922.047 902.731 847.484 817.808 794.048 741.721 L 794.142 935.883 C 794.291 1012.82 734.695 983.408 730.971 963.026 C 727.964 946.569 729.137 923.199 729.128 906.084 L 729.092 700.637 C 729.064 665.593 717.093 624.198 757.424 616.525 z" fill="rgb(0,0,0)" transform="translate(0,0)"></path>
<path d="M 593.258 616.525 C 611.247 616.214 639.715 612.188 653.594 625.308 C 671.24 641.991 663.739 676.256 637.596 679.564 C 619.516 681.852 601.27 680.991 583 680.993 L 481.001 680.944 C 480.724 708.5 480.958 736.353 481.001 763.933 L 577.093 763.853 C 592.88 763.84 608.39 763.414 624.214 764.488 C 654.135 766.323 682.798 827.428 603.823 827.096 C 562.943 826.925 521.88 827.604 481.001 827.04 L 481.001 919 L 553.5 919 L 607.933 918.84 C 696.174 918.598 669.882 981.022 635.469 983.013 C 623.267 983.72 611.406 983.536 599.212 983.54 L 479.075 983.59 C 400.838 983.555 417.996 954.349 418.002 887.537 L 417.943 686.644 C 417.872 608.203 423.526 616.466 494.433 616.466 L 593.258 616.525 z" fill="rgb(0,0,0)" transform="translate(0,0)"></path>
<path d="M 1431.45 1095 C 1486.51 1097.89 1562.47 1083.78 1606.36 1123.55 C 1664.82 1176.52 1660.33 1279.42 1610.96 1336.93 C 1577.78 1372.78 1540.49 1370.1 1496.04 1370.06 L 1427.94 1369.99 L 1428 1145.74 C 1428.03 1135.8 1424.2 1098.32 1431.45 1095 z M 1467 1336.93 C 1501.1 1337.38 1559.08 1342.92 1581.76 1313.1 C 1616.11 1269.89 1621.45 1181.54 1573.73 1144.59 C 1552.4 1128.07 1534.03 1129.66 1508.53 1129.59 L 1467 1129.49 L 1467.02 1267.76 C 1467.04 1289.97 1467.89 1315.12 1467 1336.93 z" fill="rgb(0,0,0)" transform="translate(0,0)"></path>
<path d="M 1151.96 1095 C 1166.43 1094.78 1179.8 1091.06 1188.73 1104.3 C 1229.41 1164.67 1281.42 1232.92 1317.31 1294.04 C 1320.99 1233.46 1318.84 1155.81 1317.31 1095 C 1334.19 1094.94 1335.66 1096.96 1356 1095 L 1356 1369.99 C 1351.96 1370.5 1327.74 1369.97 1321.92 1369.99 C 1283.41 1304.75 1231.48 1239.97 1190.49 1174.85 C 1191.55 1238.29 1190.8 1306.33 1190.49 1369.99 L 1151.96 1369.99 L 1151.91 1132.24 C 1151.81 1120.5 1150.97 1106.39 1151.96 1095 z" fill="rgb(0,0,0)" transform="translate(0,0)"></path>
<path d="M 485.796 1091.27 C 544.383 1084.16 603.755 1112.74 603.002 1178.03 C 591.971 1178.49 577.793 1178.06 566.542 1178.03 C 550.365 1117.32 480.475 1109.92 457.289 1142.26 C 401.317 1220.31 601.097 1190.39 607.738 1281.23 C 612.37 1344.58 564.439 1369.44 510.574 1373.96 C 447.964 1374.85 397.94 1348.66 399.025 1279.48 C 407.87 1278.77 426.696 1279.55 436.731 1279.48 C 441.245 1369.35 578.699 1346.6 566.565 1286.15 C 557.056 1238.78 422.327 1252.48 409.578 1184.52 C 398.713 1126.61 436.326 1100.12 485.796 1091.27 z" fill="rgb(0,0,0)" transform="translate(0,0)"></path>
<path d="M 873.632 1095 C 887.486 1095.24 901.163 1094.48 914.995 1095 C 913.579 1143.75 914.949 1192.84 914.936 1241.61 C 914.927 1277.03 912.588 1322.82 955.025 1334.98 C 990.454 1345.14 1037.74 1330.91 1044.73 1290.33 C 1048.9 1265.09 1047.62 1237.38 1047.65 1211.69 L 1047.55 1095 C 1060.56 1095.11 1073.6 1095.3 1086.61 1095 C 1086.38 1107.22 1086.58 1119.99 1086.61 1132.25 L 1086.63 1220.23 C 1086.65 1264.15 1091.85 1311.28 1058.12 1345.33 C 1024.51 1379.25 936.061 1383.42 902.587 1349.24 C 866.354 1312.47 873.599 1255.72 873.635 1208.12 L 873.632 1095 z" fill="rgb(0,0,0)" transform="translate(0,0)"></path>
<path d="M 634.543 1095 L 836.991 1095 L 836.991 1129.49 L 757.424 1129.49 C 756.639 1145.23 757.369 1166.98 757.377 1183.26 L 757.424 1289.75 L 757.424 1369.99 L 717.016 1369.99 L 717.016 1129.49 L 634.543 1129.49 C 634.423 1117.98 634.224 1106.52 634.543 1095 z" fill="rgb(0,0,0)" transform="translate(0,0)"></path>
<path d="M 1124.5 921.278 C 1135.86 918.867 1147.64 922.785 1155.29 931.524 C 1162.94 940.262 1165.28 952.455 1161.39 963.401 C 1157.5 974.347 1148 982.336 1136.55 984.288 C 1119.33 987.224 1102.93 975.845 1099.64 958.689 C 1096.36 941.533 1107.41 924.905 1124.5 921.278 z" fill="rgb(0,0,0)" transform="translate(0,0)"></path>
<metadata><recraft-signature>{"signed_by": "recraft", "signature_b64": "fRPTDjY2WByWvhAHUc07ZkrbwNa+MnzuNoOIcqS3LPY2YHqeKMNKP1fBycF15g/9gt6e+OWGGt4AhQt8QNpvDA==", "signing_algo": "Ed25519", "generation_timestamp": 1773000317, "identifier": "6b1a95dd-d677-403b-8b1f-6803545584bf"}</recraft-signature></metadata></svg>