<svg xmlns="http://www.w3.org/2000/svg" height="512" preserveAspectRatio="none" style="display: block;" version="1.1" viewBox="0 0 2048 2048" width="512">
<path d="M 553.101 731 C 679.865 718.31 767.418 866.032 715.625 980.088 C 700.517 1013.36 672.652 1047.43 637.494 1061 C 646.321 1061.96 655.258 1062.42 664.128 1062.12 C 881.182 1054.89 986.349 1340.74 809.222 1483.23 C 796.791 1493.22 780.78 1501.86 767.014 1510.15 L 767.659 1720.6 C 767.817 1797.12 713.78 1793.04 655.65 1793.03 L 557.5 1792.95 L 463.459 1793.01 C 371.623 1792.68 383.819 1735.42 383.827 1662.29 L 383.85 1519.83 C 153.651 1459.96 163.387 1087.64 428.023 1061.61 C 447.186 1059.73 465.609 1062.48 484.688 1061 C 479.975 1060.07 472.687 1058.8 468.78 1056.71 C 306.308 969.834 394.256 722.787 553.101 731 z M 510.49 1665 C 553.602 1664.99 599.141 1664.23 642.05 1665 C 642.132 1653.89 642.24 1642.86 642.05 1631.75 L 641.995 1470.7 C 641.02 1403.71 664.548 1413.57 709.563 1392.65 C 813.562 1344.34 779.277 1189.17 662.517 1189.07 L 468.597 1188.96 C 463.244 1188.95 449.575 1188.51 444.772 1189.02 C 319.639 1205.26 313.439 1370.29 425.596 1397.69 C 453.667 1404.55 479.603 1397.9 497.994 1426.91 C 515.397 1452.08 510.529 1483.67 510.525 1512.88 L 510.454 1613.31 C 510.436 1628.37 509.702 1650.41 510.49 1665 z" fill="rgb(0,0,0)" transform="translate(0,0)"></path>
<path d="M 1480.8 731 C 1667.61 722.915 1741.58 966.181 1572.77 1061 C 1874.78 1059.61 1917.33 1432.1 1666 1522.88 L 1666.02 1673.36 C 1666.01 1725.43 1675.37 1792.38 1598.03 1792.94 L 1362.86 1792.98 C 1273.54 1792.89 1280.96 1744.2 1280.96 1668.97 L 1281.02 1533.94 L 1237.37 1534.04 C 1210.19 1534.13 1189.61 1536.25 1168.52 1515.42 C 1143.08 1490.29 1143.64 1448.27 1168.44 1423 C 1190.28 1400.76 1218.08 1404.03 1246.62 1404.34 L 1295.75 1404.48 C 1403.6 1402.19 1407.07 1421.61 1407.08 1523.14 L 1407.02 1662.2 C 1420.48 1663.29 1437.12 1662.3 1451.04 1662.26 L 1534.51 1662.2 C 1534.51 1600.43 1534.63 1538.58 1534.3 1476.82 C 1533.9 1401.8 1584.8 1413.13 1625.18 1399.02 C 1716.39 1367.14 1729.82 1241.26 1639.49 1198.75 C 1605.66 1182.84 1459.35 1188.86 1412 1189.06 C 1368.37 1189.25 1327.52 1192.49 1297.51 1229.07 C 1288.67 1239.84 1282.23 1253.45 1271.96 1263.98 C 1215.76 1321.57 1100.55 1234.74 1224.08 1118.86 C 1278.9 1067.44 1346 1057.69 1417.13 1061 C 1318.55 1014.4 1285.98 890.921 1350.71 803.512 C 1385.93 755.952 1424.24 740.227 1480.8 731 z" fill="rgb(0,0,0)" transform="translate(0,0)"></path>
<path d="M 1009.42 254.23 C 1150.38 245.89 1271.47 353.273 1280.05 494.219 C 1288.62 635.166 1181.43 756.433 1040.5 765.238 C 899.241 774.062 777.63 666.574 769.037 525.299 C 760.445 384.024 868.133 262.59 1009.42 254.23 z M 1036.59 636.909 C 1107.35 630.115 1159.15 567.176 1152.22 496.431 C 1145.29 425.685 1082.25 374 1011.52 381.07 C 940.981 388.121 889.47 450.949 896.383 521.499 C 903.295 592.05 966.023 643.684 1036.59 636.909 z" fill="rgb(0,0,0)" transform="translate(0,0)"></path>
<metadata><recraft-signature>{"signed_by": "recraft", "signature_b64": "oOYDKDJt1b6cbNOjImhCKGlvFVzvYyKvF0khd2dkQktq5yZnVfwfP8mkT+dG+Z8vxZUoihaCS2Sh5N1u76YoAA==", "signing_algo": "Ed25519", "generation_timestamp": 1772990443, "identifier": "37c6bef4-de74-4541-8b91-c010d4bf86ab"}</recraft-signature></metadata></svg>