<svg xmlns="http://www.w3.org/2000/svg" height="512" preserveAspectRatio="none" style="display: block;" version="1.1" viewBox="0 0 2048 2048" width="512">
<path d="M 758.375 244.52 L 1446.42 244.498 C 1602.14 244.488 1642.26 262.228 1682.01 411.985 L 1761.38 701.135 C 1773.88 745.705 1792.57 797.013 1793.11 843.203 C 1793.96 915.301 1762.98 989.465 1707.53 1036.2 C 1700.41 1042.2 1692.99 1048.25 1686.43 1054.94 L 1685.31 1056.1 L 1685.35 1588.69 C 1685.35 1678.74 1675.2 1768.25 1566.5 1794.95 C 1529.69 1803.98 1480.12 1801.01 1441.4 1801.02 L 1290.75 1800.99 L 593.662 1801.03 C 424.173 1801.02 362.912 1763.2 362.979 1586.74 L 363.018 1056.1 C 284.486 998.85 232.93 892.724 260.544 795.962 C 266.102 776.489 271.919 757.208 277.154 737.632 L 366.403 407.931 C 405.341 265.309 447.79 244.52 595.294 244.496 L 758.375 244.52 z M 477.176 1098.05 L 477.146 1593.67 C 477.149 1609.87 476.411 1631.03 478.038 1646.95 C 483.537 1700.74 566.941 1686.95 604.677 1686.96 L 1345.5 1687 L 1512.18 1687.05 C 1558.8 1686.79 1571.53 1665.71 1571.06 1621.04 L 1570.51 1098.05 C 1541.33 1100.71 1508.09 1096.15 1478.5 1098.08 C 1385.91 1104.13 1322.69 1080.19 1259.58 1015.74 C 1192.34 1099.47 1116.7 1095.7 1024.18 1098.09 C 942.369 1100.19 881.091 1097.46 814.072 1041.69 C 806.496 1035.39 792.11 1019.28 787.332 1015.74 C 728.936 1088.61 659.727 1098.13 575.066 1098.09 L 477.176 1098.05 z M 731.45 667.411 L 845.699 667.411 L 845.686 798.233 C 845.695 915.095 858.544 984.689 994.511 985.961 L 1053.82 985.998 C 1105.12 985.776 1143.98 977.987 1176.53 934.497 C 1210.4 885.84 1200.73 838.492 1201.42 781.975 C 1201.89 744.426 1202.55 704.714 1201.39 667.411 C 1238.67 668.549 1282.03 667.376 1319.99 667.411 L 1319.98 795.719 C 1319.98 920.115 1336.58 986.045 1478.34 986.04 L 1534.59 985.99 C 1617.54 985.31 1677.32 920.573 1677.21 838.001 C 1677.15 795.595 1632.1 664.971 1619.07 617.186 L 1577.66 464.021 C 1570.88 438.953 1564.61 413.428 1557.06 388.643 C 1545.43 350.413 1483.15 361.689 1450.71 361.625 L 821.624 361.52 L 560.406 361.496 C 501.747 361.54 496.718 361.873 481.856 417.411 L 393.487 744.805 C 370.833 825.841 344.174 911.857 437.668 967.837 C 479.418 992.834 561.373 986.84 612.24 985.691 C 672.658 983.861 726.99 933.619 730.665 872.757 C 732.215 847.08 731.485 820.231 731.482 794.32 L 731.45 667.411 z" fill="rgb(0,0,0)" transform="translate(0,0)"></path>
<metadata><recraft-signature>{"signed_by": "recraft", "signature_b64": "yUBRJwzXiFvCOalgoz+gDhZu2lUeGTjBgrwzIKQUn4O4J9EH3TS7lW9U1UxTVnvBLKiMn0XYdRo9PvyrZQ6SBA==", "signing_algo": "Ed25519", "generation_timestamp": 1772998889, "identifier": "98406b24-24cc-4c20-bf5f-639696ea6d58"}</recraft-signature></metadata></svg>