<svg xmlns="http://www.w3.org/2000/svg" height="512" preserveAspectRatio="none" style="display: block;" version="1.1" viewBox="0 0 2048 2048" width="512">
<path d="M 1657.78 213.237 C 1695.22 210.345 1732.89 238.188 1741.23 274.578 C 1774.38 419.212 1726.5 576.448 1629.86 686.587 C 1462.29 877.56 1209.25 894.407 993.377 776.953 C 988.133 793.075 983.426 809.745 978.644 826.041 C 1039.26 917.944 1062.85 985.418 1071.19 1094.42 C 1358.93 935.377 1708.76 1190.67 1656.5 1515.99 C 1631.11 1674.07 1508.86 1804.3 1349.75 1829.67 C 1312.84 1835.56 1280.06 1834.99 1242.94 1834.98 L 1061.77 1835.06 C 1045.63 1835.08 1027.88 1836.12 1011.89 1833.51 C 927.243 1819.66 921.088 1693.92 1000.64 1667.66 C 1022.17 1660.55 1054.77 1663.28 1077.94 1663.3 L 1227.67 1663.33 C 1291.79 1663.38 1340.84 1669.91 1397.36 1631.65 C 1610.59 1487.27 1443.05 1153.52 1196.96 1217.15 C 1172.43 1223.48 1155.83 1238.94 1132.66 1249.32 C 1064.21 1279.96 984.739 1286.82 911.244 1273.34 C 798.336 1248.84 749.582 1179.41 627.853 1224.92 C 411.873 1305.67 412.11 1615.2 649.465 1664.03 C 675.897 1668.06 700.819 1662.47 725.619 1675.32 C 795.561 1711.56 780.259 1809.03 706.847 1830.01 C 688.138 1835.36 685.614 1831.04 667.945 1830.34 C 219.477 1808.74 168.424 1187.43 595.094 1063.27 C 712.191 1029.19 799.914 1044.32 903.071 1101.57 C 904.648 941.213 765.013 799.859 612.259 771.939 C 586.24 767.183 563.25 764.879 541.979 747.717 C 484.329 701.205 514.959 607.474 586.628 600.535 C 653.862 594.025 800.298 654.286 852.959 697.941 C 863.078 671.418 871.415 644.994 884.183 619.459 C 962.891 462.057 1122.99 357.546 1298.83 345.576 C 1421.08 337.256 1474.13 349.293 1583 256.422 C 1610.77 232.737 1618.8 218.493 1657.78 213.237 z M 1075.23 629.177 C 1088.63 636.472 1101.21 642.999 1114.68 649.953 C 1194.35 687.831 1283.94 698.965 1368.21 668.442 C 1447.53 639.713 1537.38 558.211 1560.31 474.106 L 1559.6 472.892 L 1558.56 472.841 C 1366 553.446 1258.4 444.733 1075.23 629.177 z" fill="rgb(0,0,0)" transform="translate(0,0)"></path>
<metadata><recraft-signature>{"signed_by": "recraft", "signature_b64": "J3YfNUtkttJ/JTiut/Yp1eDYcoS/xnrgXnHNrBKDRRJUCfQC7nLjcRrPWwFaHOmCCWh/2UO/jKUFv7YOMVjqCQ==", "signing_algo": "Ed25519", "generation_timestamp": 1772999186, "identifier": "09689a80-6e3b-4559-95dc-14431d8820ed"}</recraft-signature></metadata></svg>