<svg xmlns="http://www.w3.org/2000/svg" height="512" preserveAspectRatio="none" style="display: block;" version="1.1" viewBox="0 0 2048 2048" width="512">
<path d="M 387.841 345.087 C 389.737 344.86 389.014 344.889 390.913 344.89 L 1141.03 345.071 C 1294.06 344.939 1364.73 365.737 1364.95 534.578 L 1364.91 939.166 L 1674.6 939.058 C 1708.04 938.975 1737.99 937.211 1764.38 962.282 C 1812.23 1007.74 1791.66 1089.26 1727.21 1104.66 C 1711.59 1108.39 1690.02 1107.04 1673.6 1107.05 L 1364.91 1107.02 L 1364.91 1408.5 L 1364.93 1518.54 C 1364.96 1652.32 1329.83 1704.75 1191.23 1704.21 L 447.335 1704.16 C 396.646 1704.16 352.809 1707.48 310.536 1674.44 C 253.92 1630.19 256.21 1582.4 256.366 1518.97 L 256.357 531.933 C 256.308 433.931 275.866 359.918 387.841 345.087 z M 423.995 1535.99 L 1171.59 1536.09 C 1177.5 1536.1 1191.61 1536.5 1197.02 1535.99 L 1197.02 512.167 C 1171.33 513.085 1140.31 512.167 1114.14 512.161 L 423.995 512.167 C 422.353 519.207 423.988 560.012 423.992 570.382 L 423.995 1535.99 z" fill="rgb(0,0,0)" transform="translate(0,0)"></path>
<metadata><recraft-signature>{"signed_by": "recraft", "signature_b64": "E/k/3DpskTejoE4pGNDHPNLdNO6BwEGxzuJQxI3GgWQD4wu5yy7KT9STYs18EamAD5d2Ns6n7xiSNBgJjP+dAw==", "signing_algo": "Ed25519", "generation_timestamp": 1773000673, "identifier": "3917cd01-24fb-4a95-9e7b-84fd15887c0e"}</recraft-signature></metadata></svg>