<svg xmlns="http://www.w3.org/2000/svg" height="512" preserveAspectRatio="none" style="display: block;" version="1.1" viewBox="0 0 2048 2048" width="512">
<path d="M 328.748 496.325 C 359 495.505 393.717 496.313 424.27 496.314 L 1660.19 496.342 C 1678.44 496.286 1696.75 495.087 1715.02 496.188 C 1805.76 501.656 1829.85 575.958 1829.9 651.261 L 1829.95 1380.98 C 1830.06 1463.04 1817.11 1530.46 1719.75 1547.17 C 1615.27 1548.35 1508.71 1547.18 1403.97 1547.18 L 379.716 1547.19 C 363.416 1547.27 344.814 1548.8 328.752 1546.89 C 231.086 1535.27 219.047 1456.27 219.197 1378.93 L 219.222 654.859 C 219.243 576.505 234.977 503.936 328.748 496.325 z M 609.5 1490.34 L 1676.76 1490.43 C 1735.12 1490.62 1773.08 1477.8 1773.12 1410.52 L 1773.01 626.945 C 1772.19 542.387 1697.05 552.939 1637.68 552.9 L 1440.51 552.812 L 366.293 552.8 C 312.246 552.817 277.012 562.627 276.953 625.238 L 277.071 1395.48 C 277.669 1479.51 296.481 1490.41 377.827 1490.38 L 609.5 1490.34 z" fill="rgb(0,0,0)" transform="translate(0,0)"></path>
<path d="M 668.934 842.483 C 770.844 833.858 860.534 909.284 869.513 1011.16 C 878.493 1113.04 803.379 1203 701.531 1212.33 C 599.181 1221.71 508.688 1146.14 499.665 1043.76 C 490.641 941.379 566.521 851.15 668.934 842.483 z M 703.245 1156.97 C 820.558 1116.16 817.113 952.901 728.079 907.451 C 715.569 901.065 686.329 894.543 672.761 898.388 C 539.975 914.348 545.847 1170.22 703.245 1156.97 z" fill="rgb(0,0,0)" transform="translate(0,0)"></path>
<path d="M 998.004 846.003 C 1065.74 845.908 1158.86 833.187 1184.75 913.442 C 1203.24 970.774 1181.41 1021.83 1124.05 1041.88 C 1184.01 1065.42 1173.96 1124.66 1195.06 1174.88 C 1198.92 1184.08 1202.41 1192.69 1204.72 1202.4 C 1202.44 1211.18 1119.54 1236.23 1119.01 1163.79 C 1090.22 1090.75 1111.01 1064.57 1017 1065.01 L 1017.09 1146.26 C 1017.13 1169.28 1025.6 1209.02 992.985 1210.86 C 968.831 1212.23 941.364 1215.4 941.592 1182.84 L 941.641 923.056 C 941.648 860.997 929.61 847.804 998.004 846.003 z M 1017 901.872 L 1017 1011 C 1035.54 1011.09 1070.87 1013.05 1087.14 1007.22 C 1132.57 981.944 1130.29 912.925 1080.1 903.381 C 1067.94 901.068 1057 901.358 1044.49 901.872 L 1017 901.872 z" fill="rgb(0,0,0)" transform="translate(0,0)"></path>
<path d="M 1291.55 846.003 L 1414.18 845.932 C 1436 845.938 1458.17 845.404 1479.77 846.727 C 1503.14 848.159 1501.38 894.571 1485.94 905.042 C 1470.73 905.825 1451.86 905.114 1436.21 905.095 L 1341.99 905.042 L 1341.99 997.512 C 1365.43 997.799 1465.39 994.659 1478.55 1000.18 C 1482.5 1004.31 1483.75 1007.18 1484.22 1012.99 C 1488.04 1055.13 1481.9 1057.63 1441.92 1056.04 C 1409.8 1054.76 1373.97 1058.48 1341.99 1056.02 L 1341.99 1099.5 L 1341.99 1151.14 C 1371.32 1152.7 1479.14 1147.11 1497.32 1154.21 C 1510.31 1159.27 1508.79 1193.95 1504.05 1203.12 C 1495.92 1218.84 1398.62 1210.97 1378 1210.96 L 1326.88 1210.99 C 1269.7 1211.35 1269.51 1210.34 1269.48 1154.01 L 1269.46 950.928 C 1269.47 920.302 1257.46 853.838 1291.55 846.003 z" fill="rgb(0,0,0)" transform="translate(0,0)"></path>
<metadata><recraft-signature>{"signed_by": "recraft", "signature_b64": "Os7RmlX33bBLjaAC1d/D9J5oJyxPKq5S3Hqd5K732KyAFRNDeHSmUmhGoS1zx1/x5PsnqGScUMugvpJdonppDg==", "signing_algo": "Ed25519", "generation_timestamp": 1772997522, "identifier": "e3456312-2a54-4f08-8b3c-4dabb823dab6"}</recraft-signature></metadata></svg>