<svg xmlns="http://www.w3.org/2000/svg" height="512" preserveAspectRatio="none" style="display: block;" version="1.1" viewBox="0 0 2048 2048" width="512">
<path d="M 1664.26 678.104 C 1708.86 678.438 1748.61 672.362 1787.96 698.944 C 1834.56 730.424 1861.76 786.515 1862.05 842.139 L 1862.07 1167.61 C 1862.07 1192.04 1863.45 1218.26 1857.89 1242.01 C 1835.01 1339.9 1758.57 1367.69 1670.71 1367.52 L 384.44 1367.43 C 324.226 1367.68 281.703 1366.63 233.806 1321.19 C 201.517 1290.55 185.243 1248.91 184.866 1204.69 L 184.801 858.974 C 184.753 772.766 213.279 696.757 311.4 679.715 C 327.15 676.979 348.926 678.057 365.286 678.059 L 1664.26 678.104 z M 1152.5 1324.41 L 1650.86 1324.43 C 1673.92 1324.44 1703.57 1325.7 1725.7 1321.44 C 1804.56 1306.25 1818.56 1240.29 1818.57 1174.35 L 1818.55 849.004 C 1818.46 780.574 1780.67 720.054 1708.44 720.384 L 895.983 720.992 L 387.859 720.949 C 367.04 720.94 340.461 719.519 320.286 722.713 C 235.749 736.096 227.242 801.009 227.425 868.653 L 227.505 1193.02 C 227.666 1234.94 233.723 1258.98 264.1 1289.93 C 306.136 1332.76 358.34 1324.47 412.941 1324.45 L 1152.5 1324.41 z" fill="rgb(1,1,1)" transform="translate(0,0)"></path>
<path d="M 462.813 891.363 C 535.483 886.184 598.716 940.616 604.404 1013.25 C 610.093 1085.88 556.106 1149.49 483.516 1155.69 C 410.201 1161.95 345.814 1107.31 340.068 1033.95 C 334.323 960.595 389.417 896.593 462.813 891.363 z M 484.484 1110.89 C 532.932 1104.03 566.654 1059.2 559.824 1010.75 C 552.994 962.298 508.195 928.543 459.737 935.337 C 411.229 942.139 377.431 986.994 384.268 1035.5 C 391.105 1084 435.986 1117.77 484.484 1110.89 z" fill="rgb(1,1,1)" transform="translate(0,0)"></path>
<path d="M 1543.58 890.853 C 1567.21 889.936 1627.89 888.321 1648.01 892.992 C 1724.02 910.638 1733.36 1005.42 1661.34 1049.94 C 1676.92 1081.22 1742.36 1144.21 1687.25 1156.66 C 1671.46 1152.29 1670.36 1148.04 1661.34 1134.17 C 1648.41 1111.9 1623.71 1074.99 1608.94 1053.91 C 1593.83 1052.83 1584.35 1052.95 1569.49 1053.91 C 1569.3 1084.19 1582.1 1153.01 1543.58 1156.66 C 1529.91 1149.6 1525.23 1143.63 1525.16 1128.3 C 1524.84 1059.33 1524.9 990.344 1525.17 921.38 C 1525.23 905.693 1528.16 896.737 1543.58 890.853 z M 1569.49 1010.39 C 1590.37 1010.47 1632.65 1013.99 1648.99 1003.31 C 1685.17 972.175 1660.98 930.078 1605.98 936.624 C 1596.96 937.698 1585.74 935.493 1575.78 936.966 C 1561.86 936.818 1569.5 994.447 1569.49 1010.39 z" fill="rgb(1,1,1)" transform="translate(0,0)"></path>
<path d="M 927.961 890.853 C 956.687 887.999 960.821 915 970.229 936.246 L 1037.89 1087.92 C 1043.5 1100.56 1049.55 1114.07 1054.49 1127.06 C 1059.57 1142.26 1040.58 1161.59 1025.64 1154.41 C 1008.5 1146.18 999.826 1115.25 993.054 1098.33 L 948.25 1098.33 C 924.969 1098.39 901.237 1097.83 878.028 1098.33 C 870.7 1112.5 860.569 1145.22 847.269 1152.96 C 827.717 1164.33 811.813 1140.34 819.858 1120.24 C 833.023 1087.34 907.046 901.471 927.961 890.853 z M 895.983 1053.91 L 934.75 1053.91 C 947.385 1053.9 960.326 1053.75 972.932 1053.91 C 970.652 1047.32 936.329 961.439 934.75 959.625 C 923.808 979.282 902.108 1033.64 895.983 1053.91 z" fill="rgb(1,1,1)" transform="translate(0,0)"></path>
<path d="M 1335.33 892.719 L 1418.81 892.609 C 1433.93 892.579 1450.62 892.007 1465.46 893.121 C 1488.28 894.833 1490.51 934.661 1464.72 936.358 C 1452.22 937.18 1440.88 937.096 1428.46 937.08 L 1360.07 936.966 L 1360.07 1000.02 L 1420.24 1000.29 C 1499.01 1001.33 1471.97 1042.3 1454.76 1043.85 C 1442.97 1044.91 1431.23 1044.29 1419.28 1044.18 L 1360.07 1044 C 1359.98 1049.68 1360.05 1055.42 1360.07 1061.11 L 1360.07 1109 L 1427.22 1108.88 C 1455.55 1108.78 1489.32 1100.34 1482.58 1141.83 C 1468.51 1163.52 1371.6 1154.21 1343.38 1154.05 C 1326.49 1153.96 1317.17 1144.93 1316.63 1128.07 C 1314.44 1060.42 1315.17 992.587 1315.42 924.897 C 1315.48 909.521 1320.39 898.733 1335.33 892.719 z" fill="rgb(1,1,1)" transform="translate(0,0)"></path>
<path d="M 1108.8 890.853 C 1143.93 888.49 1132.87 967.886 1133 997.061 C 1165.34 966.778 1197.51 932.992 1229.5 902.184 C 1259.19 873.589 1285.95 904.169 1267.3 922.807 C 1239.17 950.924 1208.41 984.904 1178.19 1010.39 C 1188.13 1024.6 1245.4 1089.62 1257.2 1098.33 C 1263.71 1107.49 1276.29 1121.12 1277.14 1132.06 C 1278.44 1148.59 1257.11 1163.81 1243.07 1150.02 C 1209.48 1117.01 1181.17 1076.6 1147.33 1044 L 1133 1061.11 C 1132.9 1085.02 1134.06 1109.1 1132.76 1133.03 C 1131.17 1162.36 1093.55 1162.14 1089.67 1135.74 C 1088.06 1124.78 1088.96 1108.03 1088.95 1096.45 L 1088.97 925.624 C 1089.1 908.434 1087.88 893.777 1108.8 890.853 z" fill="rgb(1,1,1)" transform="translate(0,0)"></path>
<path d="M 705.927 890.853 C 765.492 872.381 832.254 978.025 767.52 978.207 C 753.438 978.246 749.912 953.976 742.975 946.047 C 724.796 922.879 672.509 934.592 674.256 967.234 C 677.077 1016.53 797.918 982.561 798.648 1079.05 C 798.992 1124.55 762.781 1157.34 718.251 1156.66 C 668.212 1174.09 588.259 1091.23 643.406 1074.25 C 650.119 1072.19 657.093 1075.5 662.828 1079.24 C 668.026 1087.97 669.689 1094.55 678.176 1101.67 C 727.299 1143.96 789.433 1074.05 733.662 1052.6 C 706.144 1041.84 677.413 1039.49 654.149 1019.57 C 600.552 973.678 639.474 893.84 705.927 890.853 z" fill="rgb(1,1,1)" transform="translate(0,0)"></path>
<metadata><recraft-signature>{"signed_by": "recraft", "signature_b64": "azJE2sbxp3gUdG9AoxLO9xSkbrDFkvvtHmfc/U3MGifCnN6YqChSvf8tth+0cTEYAc+BPwOLxI2/Qhm0UV/pBw==", "signing_algo": "Ed25519", "generation_timestamp": 1773000665, "identifier": "9e5c310c-a41f-4301-8347-4358ec060758"}</recraft-signature></metadata></svg>