<svg xmlns="http://www.w3.org/2000/svg" height="512" preserveAspectRatio="none" style="display: block;" version="1.1" viewBox="0 0 2048 2048" width="512">
<path d="M 436.687 274.996 C 439.124 274.923 441.557 274.863 443.995 274.852 L 1268.86 274.987 C 1300.3 274.959 1342.04 272.816 1372.46 277.469 C 1438.01 287.498 1496.21 348.559 1504.57 414.127 C 1507.57 437.625 1506.96 463.245 1506.97 486.703 L 1506.94 937.431 C 1490.29 937.974 1470.68 937.464 1453.85 937.453 L 1350.64 937.431 C 1349.94 920.645 1350.62 898.92 1350.62 881.616 L 1350.64 426.911 L 447.773 426.911 L 447.773 663.5 L 447.773 1462.11 L 926.403 1462.11 L 926.403 1617.18 L 497.877 1617.24 C 478.102 1617.25 453.937 1618.08 434.721 1615.41 C 369.524 1606.37 310.892 1550.35 300.562 1485.17 C 297.418 1465.33 298.036 1436.74 298.049 1416.04 L 298.074 475.652 C 298.067 368.736 314.834 294.102 436.687 274.996 z" fill="rgb(29,29,29)" transform="translate(0,0)"></path>
<path d="M 1513.75 1073.7 C 1529.55 1073.8 1545.61 1073.64 1561.38 1073.33 C 1666.75 1071.26 1752.43 1166.73 1753.01 1268.98 L 1753.01 1536.53 C 1753.02 1639.1 1722.96 1733.51 1608.5 1762.47 C 1564.32 1773.65 1511.57 1769.62 1465.48 1769.61 L 1305.5 1769.65 C 1283.18 1769.75 1256.03 1771.11 1234.11 1768.55 C 1143.94 1758 1065.98 1677.68 1066.52 1585.52 L 1066.86 1301.55 C 1066.56 1199.37 1102.42 1107.43 1214.21 1080.23 C 1256.08 1070.04 1307.4 1073.73 1351.2 1073.73 L 1513.75 1073.7 z M 1447.25 1621.47 L 1517.69 1621.57 C 1597.17 1621.71 1602.95 1608.37 1603.01 1529.91 L 1603 1293.85 C 1602.39 1215.55 1557 1227.23 1498.23 1227.38 L 1376.24 1227.42 L 1309.29 1227.33 C 1240.22 1227.27 1217.46 1230.27 1217.27 1305.02 L 1217.28 1548.21 C 1217.67 1630.07 1246.69 1621.53 1318.13 1621.53 L 1447.25 1621.47 z" fill="rgb(29,29,29)" transform="translate(0,0)"></path>
<metadata><recraft-signature>{"signed_by": "recraft", "signature_b64": "UWAUs/X/g8YA6XOdUGSU35lLhyxnn/mLBWRyE44AI9FVblTXxAKcJmzUkDEM3kPqJYjEjUoYruco09R2kfHTCg==", "signing_algo": "Ed25519", "generation_timestamp": 1772999733, "identifier": "003c62b9-980d-44ec-b187-888394bc7b74"}</recraft-signature></metadata></svg>