<svg xmlns="http://www.w3.org/2000/svg" height="512" preserveAspectRatio="none" style="display: block;" version="1.1" viewBox="0 0 2048 2048" width="512">
<path d="M 1016 285.5 C 1120.32 283.558 1210.49 334.856 1260.06 426.99 C 1289.52 481.741 1291.65 519.432 1291.07 578.944 C 1299.55 578.064 1323.47 578.858 1333.22 578.902 L 1408.77 578.93 C 1430.99 579.098 1454.38 577.351 1476.3 578.512 C 1586.55 584.347 1684.51 681.862 1694.95 790.879 C 1698.16 824.382 1696.95 861.279 1696.97 895.23 L 1696.97 1472.92 C 1697.07 1583.33 1677.61 1672.83 1568.77 1730.99 C 1515.72 1759.34 1470.63 1759.82 1412.82 1759.9 L 643.847 1759.89 C 593.601 1759.87 560.854 1761.79 512.219 1746.51 C 415.246 1711.02 353.736 1622.13 353.044 1519.08 L 352.971 1441.82 C 352.931 1416.03 351.265 1390.63 356.439 1365.11 C 367.092 1312.54 428.041 1270.76 479.742 1294.26 C 488.304 1298.16 501.47 1310.91 509.085 1317.43 C 569.631 1369.45 665.466 1357.44 718.883 1301.01 C 845.933 1166.79 665.064 958.869 513.897 1068.47 C 507.872 1072.84 502.744 1079.8 497.373 1085 C 466.18 1118.24 411.018 1106.48 381.836 1076.69 C 354.107 1048.39 350.263 1021.33 350.12 983.728 L 350.113 867.674 C 350.113 806.629 346.214 761.028 377.985 705.076 C 442.238 591.921 526.269 578.822 640.39 578.904 L 758.022 578.944 C 758.063 559.31 756.867 532.467 758.769 513.676 C 771.944 383.462 888.693 291.803 1016 285.5 z M 502.49 909.48 C 660.861 853.566 836.663 934.692 893.421 1094.45 C 970.717 1312.02 774.974 1539.29 548.962 1495.87 C 533.038 1492.81 518.016 1487.66 502.49 1484.24 C 491.634 1550.62 520.081 1589.95 582.685 1609.07 C 598.476 1610.1 622.593 1609.15 638.995 1609.11 L 1426.22 1609.14 C 1536.45 1609.29 1549.19 1571.09 1549.04 1466.42 L 1549.1 837.478 C 1549.3 722.898 1483.81 730.051 1389.96 730.008 L 1252.51 729.96 C 1194.02 730.015 1108.9 737.735 1112.91 647.463 C 1112.75 606.637 1160.97 586.972 1136.72 515.555 C 1119.56 464.986 1077.86 437.049 1025.61 434.501 L 1023.45 434.413 C 955.314 438.108 902.719 490.671 905.449 559.852 C 906.454 585.307 917.727 600.622 928.55 623.115 C 949.666 667.001 916.18 725.836 867.702 729.817 C 845.869 731.61 818.068 729.955 795.268 729.94 L 649.63 730.024 C 542.77 730.101 501.892 739.605 502.408 854.878 L 502.49 909.48 z" fill="rgb(0,0,0)" transform="translate(0,0)"></path>
<metadata><recraft-signature>{"signed_by": "recraft", "signature_b64": "5ys4PxuMonaG2OzrrpY5H8VRZFebWxEFsfUJfZUhhGWB+6F/dl1ckxZaEHoXKIB6lSW1UN4UiqqTiXK1d0vaAg==", "signing_algo": "Ed25519", "generation_timestamp": 1772990110, "identifier": "f6b9835c-ff99-49a3-8978-f2cb13b4d7f7"}</recraft-signature></metadata></svg>