<svg xmlns="http://www.w3.org/2000/svg" height="512" preserveAspectRatio="none" style="display: block;" version="1.1" viewBox="0 0 2048 2048" width="512">
<path d="M 972.769 377 C 1059.13 368.21 1139.79 432.519 1151.42 517.859 C 1155.17 545.423 1153.09 583.395 1153.08 612.092 L 1153.13 1451.45 C 1153.13 1471.87 1154.25 1509.23 1152.25 1528.55 C 1144.07 1607.15 1070.04 1671.69 991.369 1670.08 C 915.737 1668.54 888.584 1633.54 840.68 1584.95 L 658.485 1401.64 C 596.41 1339.6 579.92 1305.29 586.757 1219.82 C 596.724 1095.24 597.072 964.105 589.173 838.986 C 583.289 745.783 580.855 719.926 655.372 646.253 L 854.194 445.014 C 895.677 403.186 911.277 386.701 972.769 377 z M 867.118 1415.64 L 958.788 1509.34 C 1022.52 1574.38 1014.45 1488.31 1014.44 1447.1 L 1014.84 542.104 C 1014.97 525.007 1001.04 512.459 984.665 512.992 C 968.438 517.483 934.104 557.109 921.161 570.286 L 765.32 728.047 C 711.617 782.624 721.688 770.658 726.861 852.028 C 734.575 973.381 731.97 1121.71 723.036 1242.46 C 720.543 1277.15 757.648 1304.01 779.863 1326.8 L 867.118 1415.64 z" fill="rgb(0,0,0)" transform="translate(0,0)"></path>
<path d="M 1504.84 557.242 C 1543.17 555.044 1556.34 570.139 1585.58 592.385 C 1806.25 760.271 1855.16 1090.79 1704.97 1321.18 C 1669.11 1376.18 1596.18 1470.52 1530.18 1484.95 C 1448.87 1489.22 1422.73 1400.35 1477.84 1359.35 C 1688.57 1202.57 1720.1 887.534 1513.96 713.546 C 1487.48 691.191 1455.24 681.159 1448.58 642.718 C 1440.67 601.606 1463.18 565.445 1504.84 557.242 z" fill="rgb(0,0,0)" transform="translate(0,0)"></path>
<path d="M 1342.78 772.453 C 1369.77 771.786 1388.91 784.328 1409.02 800.528 C 1542.15 907.835 1550.9 1122.83 1420.71 1236.49 C 1396.22 1257.87 1384.44 1271.84 1350.67 1276.13 C 1313.19 1276.95 1280.42 1252.31 1277.2 1213.22 C 1271.03 1138.35 1390.03 1133.69 1374.79 1004.72 C 1369.39 951.279 1344.96 922.033 1304.8 890.306 C 1256.45 852.098 1276.58 777.194 1342.78 772.453 z" fill="rgb(0,0,0)" transform="translate(0,0)"></path>
<path d="M 318.794 772.453 C 355.148 759.787 392.491 800.585 393.604 835.271 C 394.322 857.653 394.02 880.647 394.029 903.006 L 394.034 1158.02 C 394.016 1212.15 400.351 1258.28 337.241 1276.13 L 335.836 1276.19 C 292.903 1277.46 260.186 1248.78 260.061 1205.07 L 259.967 876.795 C 259.784 834.213 256.118 772.998 318.794 772.453 z" fill="rgb(0,0,0)" transform="translate(0,0)"></path>
<metadata><recraft-signature>{"signed_by": "recraft", "signature_b64": "tVuQGXo6A2WPshTuLrC3uQWWX347ReJp2zhCEWHcyNXDSoW/WJLz4hiYOEqxUDxvmUFc+mKyMsIAMIGe4CalAg==", "signing_algo": "Ed25519", "generation_timestamp": 1772989250, "identifier": "473c7d21-a79f-42bd-b961-4fb1c62acee8"}</recraft-signature></metadata></svg>