<svg xmlns="http://www.w3.org/2000/svg" height="512" preserveAspectRatio="none" style="display: block;" version="1.1" viewBox="0 0 2048 2048" width="512">
<path d="M 1494 679.839 L 1789.93 679.8 C 1875.3 679.732 1896.75 697.06 1897.84 783.415 C 1898.38 825.945 1897.97 868.434 1897.96 910.921 L 1898.05 1249.03 C 1898.09 1266.78 1899.16 1290.08 1896.92 1307.18 C 1889.52 1363.52 1832.86 1366.17 1790.86 1366.05 L 553.75 1365.98 L 240.462 1366.18 C 157.366 1366.6 152.011 1317.26 151.985 1248.54 L 151.683 769.914 C 151.383 685.014 193.238 679.778 266.414 679.8 L 1494 679.839 z M 198.615 1300.19 C 217.198 1325.72 252.479 1317.18 282.5 1317.3 L 1660.42 1317.3 C 1717.25 1317.3 1775.96 1318.07 1832.59 1317.3 C 1859.48 1300.79 1850.57 1278 1850.47 1248.42 L 1850.6 888.569 C 1850.59 844.458 1850.85 800.38 1850.27 756.227 C 1849.76 717.07 1797.83 728.289 1770.99 728.011 L 293.226 727.978 C 273.869 727.974 198.617 719.398 198.42 748.723 L 198.615 1300.19 z" fill="rgb(0,0,0)" transform="translate(0,0)"></path>
<path d="M 309.738 933.803 C 311.076 933.036 316.595 931.493 318.21 931.463 C 422.415 930.405 433.596 1099.99 327.474 1114.98 L 321.181 1115.01 C 195.226 1115.51 207.461 931.009 309.738 933.803 z M 327.474 1080 C 378.842 1059.72 362.441 947.124 309.738 969.838 C 259.549 971.238 271.703 1053.03 288.264 1071.3 C 295.205 1078.95 317.038 1080.05 327.474 1080 z" fill="rgb(0,0,0)" transform="translate(0,0)"></path>
<path d="M 739.029 933.803 C 774.33 933.73 863.543 921.45 879.925 962.288 C 891.137 990.241 883.28 1021.56 853.944 1032.63 C 865.25 1060 884 1086.21 898.746 1112.04 C 883.653 1112.25 869.003 1112.06 853.944 1112.04 C 846.045 1111.93 814.824 1052.2 807.306 1042.28 C 796.399 1040.82 793.111 1041.23 782.303 1042.28 C 782.025 1065.32 782.3 1088.96 782.303 1112.04 C 770.189 1112.73 751.635 1112.08 739.029 1112.04 L 739.029 933.803 z M 782.303 1006.37 C 794.605 1006.48 829.192 1008.47 837.874 1003 C 860.837 960.977 806.668 969.358 782.303 969.838 C 782.35 981.774 782.596 994.503 782.303 1006.37 z" fill="rgb(0,0,0)" transform="translate(0,0)"></path>
<path d="M 1340.01 933.803 C 1354.02 932.474 1367.38 933.036 1381.37 933.803 L 1381.37 1112.04 L 1370.25 1112.04 L 1340.01 1112.04 C 1335.92 1102.53 1284.68 1026.46 1277 1017.73 L 1277 1112.04 L 1235.03 1112.04 L 1235.03 933.803 C 1242.18 933.668 1249.46 933.768 1256.63 933.803 C 1260.92 933.588 1266.4 933.779 1270.79 933.803 C 1294.68 960.724 1316.06 1003.08 1340.01 1032.63 C 1339.4 1022.46 1339.92 1008.75 1339.94 998.279 L 1340.01 933.803 z" fill="rgb(0,0,0)" transform="translate(0,0)"></path>
<path d="M 1483.02 933.803 C 1494.93 932.623 1505.71 933.185 1517.57 933.803 C 1523.68 940.848 1535.3 957.819 1541.27 966.178 L 1588 1032.63 L 1588 933.803 C 1602.44 933.244 1615.85 934.212 1629.44 933.803 C 1630.88 988.172 1632.5 1057.51 1629.44 1112.04 C 1619.1 1112.46 1606.59 1112.11 1596.13 1112.04 C 1569.97 1085.74 1548.17 1042.64 1523.02 1014 L 1523.02 1112.04 C 1509.44 1111.8 1496.6 1111.81 1483.02 1112.04 L 1483.02 933.803 z" fill="rgb(0,0,0)" transform="translate(0,0)"></path>
<path d="M 1738.01 933.803 C 1783.23 925.946 1811.7 950.163 1816 995.076 C 1802.89 995.24 1789.44 995.079 1776.3 995.076 C 1763.22 956.14 1714.9 959.265 1706.1 985.256 C 1675.21 1075.39 1755.26 1108.02 1776.3 1049.49 C 1763.77 1049.19 1750.59 1049.43 1738.01 1049.49 C 1737.82 1037.81 1737.99 1025.71 1738.01 1014 L 1770.99 1014 L 1816 1014 L 1816 1112.04 C 1806.09 1111.41 1797.84 1111.73 1787.96 1112.04 C 1786.37 1105.97 1784.34 1099.49 1782.55 1093.43 C 1762.73 1113.43 1743.57 1114.91 1716.6 1112.57 C 1633 1105.34 1629.32 919.929 1738.01 933.803 z" fill="rgb(0,0,0)" transform="translate(0,0)"></path>
<path d="M 1103.88 933.803 L 1155.27 933.803 C 1156.48 939.117 1160.85 949.915 1162.88 955.339 L 1180.71 1002.08 C 1193.56 1035.84 1208.18 1077.8 1219.14 1112.04 L 1175.84 1112.04 C 1172.29 1101.44 1168.34 1090.59 1164.63 1080 L 1155.27 1080 L 1094.52 1080 C 1090.71 1086.84 1085.15 1103.71 1082.18 1112.04 C 1068.19 1112.29 1053.76 1112.09 1039.73 1112.04 C 1041.89 1102.58 1048.02 1086.71 1051.49 1077.29 L 1072.31 1020.99 C 1080.03 999.528 1094.23 952.414 1103.88 933.803 z M 1108.88 1042.28 L 1132.25 1042.28 L 1150.94 1042.28 C 1144.31 1021.26 1137.81 1001 1132.25 979.725 C 1121.77 996.74 1115.06 1022.6 1108.88 1042.28 z" fill="rgb(0,0,0)" transform="translate(0,0)"></path>
<path d="M 581.035 933.803 L 713 933.803 L 713 969.838 L 623.512 969.838 L 623.512 1003 L 695.78 1003 C 695.843 1014.77 695.566 1026.23 695.78 1038.09 C 672.586 1038.65 646.93 1038.08 623.512 1038.09 C 623.348 1050.64 623.366 1062.87 623.512 1075.42 L 713 1075.42 C 713.406 1087.5 713.114 1099.93 713 1112.04 C 701.917 1112.92 681.804 1112.12 669.758 1112.1 L 581.035 1112.04 L 581.035 933.803 z" fill="rgb(0,0,0)" transform="translate(0,0)"></path>
<path d="M 1017.52 933.803 L 1062.33 933.803 L 1047.3 979.725 C 1031.44 1021.35 1016.91 1069.37 1002.85 1112.04 C 988.091 1112.85 971.311 1111.41 955.944 1112.04 C 944.852 1083.03 935.713 1052.39 925.525 1022.98 L 907.035 969.007 C 902.868 957.183 898.171 945.821 894.607 933.803 C 908.245 933.026 926.061 932.203 939.578 933.803 C 941.512 944.163 948.619 962.938 952.121 973.633 L 979.025 1054.42 C 992.854 1016.35 1003.21 967.837 1017.52 933.803 z" fill="rgb(0,0,0)" transform="translate(0,0)"></path>
<path d="M 527.439 933.803 C 531.69 934.474 566.08 933.821 572.188 933.803 C 570.248 941.06 566.239 950.591 563.633 957.909 L 549.386 998.655 C 535.517 1037.12 522.674 1074.34 506.763 1112.04 C 492.103 1113.07 479.97 1112.6 465.389 1112.04 C 450.458 1079.17 441.082 1043.06 427.997 1009.31 C 420.907 992.936 402.787 948.698 399.989 933.803 L 444.996 933.803 C 459.055 973.427 473.714 1015.19 488.67 1054.42 C 497.126 1020.15 514.807 967.288 527.439 933.803 z" fill="rgb(0,0,0)" transform="translate(0,0)"></path>
<path d="M 1413.02 933.803 L 1453.01 933.803 L 1452.95 1052.22 C 1452.96 1071 1453.78 1093.63 1453.01 1112.04 C 1446.68 1112.73 1421.71 1111.9 1413.02 1112.04 L 1413.02 933.803 z" fill="rgb(0,0,0)" transform="translate(0,0)"></path>
<metadata><recraft-signature>{"signed_by": "recraft", "signature_b64": "+bz78ADxN5KsPdc8FKKoyq9Y1HoEbLpgUaczPmf3HH4GzxC5/C0jF1Ue1hLh8FgJtZXDYodJrVYdT4FY/+AwBA==", "signing_algo": "Ed25519", "generation_timestamp": 1772998835, "identifier": "b6edda8c-ba84-4864-9acb-763df6786f39"}</recraft-signature></metadata></svg>