<svg xmlns="http://www.w3.org/2000/svg" height="512" preserveAspectRatio="none" style="display: block;" version="1.1" viewBox="0 0 2048 2048" width="512">
<path d="M 1579.99 1035.95 C 1598.27 1036 1617.18 1036.24 1635.54 1035.46 C 1716.25 1031.95 1797.22 1092.31 1813.63 1172.03 C 1820.96 1207.65 1818.03 1259.77 1818.01 1297.63 L 1818.04 1493.94 C 1818.04 1526.25 1819.68 1558.88 1806.89 1589.21 C 1767.61 1682.33 1690.8 1700.04 1601.99 1699.78 L 1320.55 1699.72 C 1266.52 1699.94 1226.47 1704.47 1177.14 1676.5 C 1116.32 1642.03 1081.29 1584.88 1081.02 1514.1 L 1081.01 1311.09 C 1081 1229.45 1070.83 1156.08 1134.29 1092.42 C 1188.49 1038.06 1230.7 1035.82 1302.5 1035.92 L 1579.99 1035.95 z M 1639.53 1564.97 C 1690.99 1548.83 1682.05 1510.1 1682.03 1466.98 L 1682.06 1274.31 C 1682.03 1184.4 1692.36 1169.94 1588.91 1169.96 L 1343.74 1169.96 C 1318.05 1169.94 1290.12 1169.32 1264.73 1170 C 1210.87 1180.71 1221.88 1230.74 1221.92 1272.36 L 1221.87 1473.82 C 1221.66 1572.68 1236.03 1565.02 1336.78 1564.97 L 1588.27 1564.98 C 1598.57 1565.02 1630.4 1565.95 1639.53 1564.97 z" fill="rgb(0,0,0)" transform="translate(0,0)"></path>
<path d="M 414.626 345.911 C 415.987 345.8 417.929 345.617 419.247 345.623 L 781.56 345.877 C 810.789 345.871 841.83 344.228 870.341 350.044 C 963.466 369.042 1020.25 450.279 1020.36 542.277 C 1020.45 611.998 1020.48 681.693 1020.67 751.414 C 1020.7 759.572 1021.14 767.345 1019.89 775.463 C 1008.36 850.47 879.324 863.535 880.409 750.75 L 880.777 537.978 C 881.215 500.147 861.613 483.217 824.561 483 L 454.459 482.963 C 345.205 483.008 365.956 521.993 365.979 608.79 L 365.965 1480.01 C 365.125 1583.93 428.493 1565.04 507.371 1564.96 L 792.149 1564.99 C 827.187 1565 862.209 1565.06 897.248 1564.46 C 984.914 1562.97 990.732 1696.78 896.526 1699.47 C 862.384 1700.05 828.205 1699.76 794.062 1699.77 L 481.096 1699.74 C 449.64 1699.73 408.814 1701.34 378.806 1694.88 C 292.808 1676.36 232.163 1597.31 230.139 1510.12 C 229.545 1484.56 230.02 1456.65 230.049 1430.64 L 230.016 555.502 C 230.048 442.961 293.093 349.865 414.626 345.911 z" fill="rgb(0,0,0)" transform="translate(0,0)"></path>
<path d="M 1450.67 412.387 C 1494.9 406.005 1526.28 462.01 1549.75 490.645 L 1643.12 604.88 C 1694.06 667.545 1746.53 729.277 1796.21 792.904 C 1828.58 838.649 1825.18 899.799 1763.89 913.386 C 1751.79 916.07 1734.25 915.117 1721.12 915.096 L 1461.5 915.034 L 1190.85 915.104 C 1163.93 915.173 1136.31 917.567 1114.31 898.542 C 1090.16 877.66 1082.37 838.221 1098.46 810.329 C 1109.42 791.319 1126.72 773.045 1140.79 756.148 L 1380.61 462.231 C 1403.37 434.342 1410.36 415.408 1450.67 412.387 z M 1302.22 778.622 L 1461.5 778.622 C 1509.7 778.63 1559.27 779.262 1607.35 778.622 C 1560.82 720.006 1502.77 643.835 1450.67 590.767 C 1435.61 611.601 1419.27 630.766 1403.09 650.724 L 1346.74 721.085 C 1333.63 737.335 1313.05 761.95 1302.22 778.622 z" fill="rgb(0,0,0)" transform="translate(0,0)"></path>
<metadata><recraft-signature>{"signed_by": "recraft", "signature_b64": "gCjfeVkWxkDTAn7GQH82B9cGFS4QbGUIZjzy+O3Qr50RXSwEekuGQFiKMuD/T4pB/ZoblzeU8OxNvpfWohdSAw==", "signing_algo": "Ed25519", "generation_timestamp": 1772989770, "identifier": "a9fad883-1325-4abd-a7f3-e7d41771bdbd"}</recraft-signature></metadata></svg>