<svg xmlns="http://www.w3.org/2000/svg" height="512" preserveAspectRatio="none" style="display: block;" version="1.1" viewBox="0 0 2048 2048" width="512">
<path d="M 403.625 618.583 L 1595.98 618.525 C 1728.98 617.575 1845.94 669.94 1879.83 810.91 C 1886.97 840.648 1886.5 870.781 1886.53 901.567 L 1886.75 1172.14 C 1887.17 1299.79 1789.3 1410.56 1662.43 1424.82 C 1638.67 1427.49 1607.99 1426.96 1583.76 1426.97 L 1484.5 1426.95 L 1200.73 1427 C 1123.35 1426.98 1133.32 1420.98 1133.52 1347.59 C 1095.98 1374.77 1050.06 1461.1 988.404 1417.54 C 974.186 1407.49 927.145 1360.53 914.893 1344.11 C 913.64 1374.54 925.853 1426.9 880.502 1427.03 L 470.828 1426.96 C 432.365 1426.97 394.233 1429.06 356.407 1420.88 C 247.32 1397.28 161.94 1295.01 161.051 1182.94 L 160.96 924.136 C 160.964 903.859 160.355 882.992 161.797 862.796 C 171.138 732.008 267.814 621.809 403.625 618.583 z M 854.604 1367.86 C 854.559 1346.42 853.532 1321.27 855.823 1300.1 C 858.811 1272.49 919.399 1272.98 934.699 1283.73 C 959.2 1300.95 999.244 1346.68 1023.63 1370.62 L 1024.86 1369.63 C 1080.64 1324.51 1087.33 1270.37 1163.75 1278.25 C 1205.59 1282.56 1192.61 1338.66 1193.01 1367.86 C 1217.51 1366.52 1254.37 1367.77 1280.11 1367.8 L 1449.5 1367.86 L 1566.59 1367.92 C 1648.58 1367.93 1705.61 1372.14 1769.76 1309.67 C 1841.88 1239.43 1829 1152.73 1828.97 1061.36 L 1828.95 891.678 C 1828.02 751.688 1754.32 676.464 1614.94 676.128 L 415.495 676.163 C 320.442 681.094 245.262 732.688 224.975 830.956 C 217.996 864.76 219.064 895.879 219.058 930.094 L 219.073 1123.67 C 218.975 1204.86 220.559 1259.37 285.801 1320.76 C 346.901 1378.24 425.768 1367.93 503.133 1367.89 L 811.283 1367.78 C 824.796 1367.7 841.45 1366.94 854.604 1367.86 z" fill="rgb(0,0,0)" transform="translate(0,0)"></path>
<path d="M 359.768 807 C 479.542 806.292 488.282 998.466 372.255 1012.6 C 309.469 1022.58 278.147 962.419 280.759 906.583 C 283.301 852.233 303.512 817.519 359.768 807 z M 372.255 975.295 C 416.487 966.849 424.522 848.802 363.738 846.056 C 312.699 851.09 303.572 976.445 372.255 975.295 z" fill="rgb(0,0,0)" transform="translate(0,0)"></path>
<path d="M 1609.03 809.765 C 1677.91 804.845 1758.33 805.765 1763.12 895.365 C 1765.02 930.994 1762.32 956.398 1736.46 984.475 C 1706.63 1013.92 1672.16 1007.66 1633.57 1009.14 C 1614.51 1009.88 1609.63 1006.68 1609.33 987.733 C 1608.58 939.94 1603.58 854.098 1609.03 809.765 z M 1652.06 971 C 1671.27 972.77 1692.69 974.553 1706.7 958.442 C 1726.99 931.441 1729.5 877.293 1701.12 854.722 C 1686.75 843.296 1669.32 845.378 1652.06 846.056 L 1652.06 971 z" fill="rgb(0,0,0)" transform="translate(0,0)"></path>
<path d="M 798.016 807 C 818.976 806.221 853.42 806.991 873.964 810.522 C 926.279 821.777 935.646 887.332 887.754 915.867 C 898.773 942.799 914.95 969.481 922.684 997.405 C 927.145 1013.51 892.579 1009.13 883.012 1008.92 C 881.382 1005.79 879.348 1000.13 877.975 996.666 C 869.557 977.145 858.057 948.318 848.422 930.528 C 843.514 930.764 838.806 930.616 833.9 930.528 C 833.954 941.879 837.008 998 830.403 1004.43 C 825.56 1009.14 796.779 1012.14 792.196 1004.43 C 785.503 993.155 789.573 895.895 789.536 877.977 C 789.499 860.094 781.495 812.484 798.016 807 z M 833.9 892.993 C 844.858 893.093 857.319 893.918 867.101 888.486 C 886.89 858.287 865.451 839.822 833.9 843.013 C 832.778 861.238 833.143 874.728 833.9 892.993 z" fill="rgb(0,0,0)" transform="translate(0,0)"></path>
<path d="M 1490.81 807 C 1518.62 808.929 1534.45 799.276 1540.27 833.877 C 1543.93 855.651 1593.55 993.273 1590.92 1004.01 C 1589.89 1005.31 1588.63 1006.82 1587 1007.16 C 1542.74 1016.19 1548.13 994.385 1537.3 968.839 C 1534.18 969.034 1530.57 968.889 1527.39 968.839 L 1477.33 968.839 C 1473.33 979.702 1471.85 996.585 1464.3 1004.93 C 1458.83 1010.97 1431.2 1010.1 1425.83 1003.96 C 1424.91 986.502 1477.21 817.051 1481.13 811.524 C 1483.59 808.058 1486.93 807.769 1490.81 807 z M 1486.43 933.554 C 1494.81 933.868 1501.85 933.789 1510.25 933.554 L 1527.39 933.554 C 1525.56 925.108 1510.56 867.842 1506.39 864.775 C 1498.72 887.946 1492.66 909.941 1486.43 933.554 z" fill="rgb(0,0,0)" transform="translate(0,0)"></path>
<path d="M 1332.82 805.001 C 1410.49 797.291 1432.1 880.251 1379.67 859.833 C 1372.15 857.354 1364.07 845.963 1356.72 844.02 C 1303.73 830.069 1301.91 889.319 1304.49 924.97 C 1307.12 961.118 1331.81 989.487 1368.98 968.839 C 1369.31 958.495 1369.37 950.409 1368.98 939.985 C 1354.64 940.217 1336.35 944.657 1334.59 925.63 C 1332.31 900.921 1340.29 902.846 1360.25 902.879 C 1367.8 903.014 1403.84 899.456 1408.66 905.478 C 1414.53 912.799 1411.94 976.547 1411.92 989.501 C 1376.85 1031.29 1277.97 1018.93 1263.56 944.343 C 1251.88 883.915 1264.48 817.93 1332.82 805.001 z" fill="rgb(0,0,0)" transform="translate(0,0)"></path>
<path d="M 1573.86 1076.99 C 1603.31 1074.02 1647.89 1073.32 1668.72 1097.67 C 1696.39 1130.02 1692.41 1186.91 1660.5 1214.84 C 1643.22 1229.02 1557.38 1248.84 1562.6 1214.62 C 1565.93 1192.76 1558.1 1093.34 1563.89 1079.32 C 1566.8 1077.31 1570.25 1077.37 1573.86 1076.99 z M 1600.68 1198.99 C 1615.09 1197.43 1624.87 1197.5 1637.6 1189.55 C 1661.11 1155.38 1654.83 1107.27 1600.68 1109.67 C 1600.1 1139.76 1600.91 1169.04 1600.68 1198.99 z" fill="rgb(0,0,0)" transform="translate(0,0)"></path>
<path d="M 1291.52 1076.99 C 1351.59 1076.7 1407.65 1071.82 1408.5 1154.54 C 1408.78 1181.31 1402.87 1195.78 1383.81 1214.84 C 1362.36 1234.75 1314.25 1232.77 1285.08 1230.79 L 1285.06 1152.36 C 1285.03 1138.2 1281.02 1085.9 1291.52 1076.99 z M 1324.01 1198.99 C 1339.97 1199.67 1347.53 1200.46 1360.25 1189.55 C 1379.49 1163.05 1375.51 1106.75 1324.01 1109.67 C 1324.04 1136.78 1325.33 1172.77 1324.01 1198.99 z" fill="rgb(0,0,0)" transform="translate(0,0)"></path>
<path d="M 803.551 1076.99 C 832.154 1078.44 879.56 1074.29 900.637 1096.02 C 931.381 1127.71 929.462 1184.13 899.185 1214.84 C 877.716 1229.65 810.353 1240.21 799.688 1226.66 C 796.287 1212.86 793.08 1083.36 803.551 1076.99 z M 833.9 1198.99 C 849.47 1198.4 862.905 1200.16 874.405 1189.55 C 886.827 1172.57 888.542 1131.12 870.365 1117.32 C 861.437 1110.54 844.967 1111.8 833.9 1112.2 L 834.015 1170.02 C 834.039 1177.85 834.691 1191.76 833.9 1198.99 z" fill="rgb(0,0,0)" transform="translate(0,0)"></path>
<path d="M 473.77 807 C 505.163 806.281 504.273 810.616 512.739 839.89 C 523.671 877.691 532.952 916.309 544.783 953.824 C 550.553 933.414 576.982 818.2 585.924 811.3 C 593.153 805.722 617.54 803.29 623.459 813.013 C 628.948 822.028 615.601 854.047 612.573 864.775 C 610.578 869.09 605.004 888.991 603.443 894.268 L 583.007 962.192 C 579.717 972.976 573.442 1005.17 561.015 1007.67 C 508.867 1022.22 511.558 983.798 498.961 943.012 L 463.805 825.691 C 460.28 813.596 461.475 809.972 473.77 807 z" fill="rgb(0,0,0)" transform="translate(0,0)"></path>
<path d="M 944.786 807 C 976.813 806.192 975.039 808.963 982.784 839.678 C 992.082 876.549 1003.82 912.832 1012.24 949.944 C 1015.92 934.004 1044.16 817.813 1050.25 811.146 C 1056.34 804.485 1084.45 806.517 1090.55 812.865 C 1092.78 821.058 1081.19 854.401 1078 864.775 C 1072.5 884.031 1040.86 1002.59 1032.07 1007.57 C 1026.54 1010.71 997.629 1009.13 991.2 1006.99 C 978.681 1002.82 965.242 933.512 961.212 919.478 L 941.406 850.116 C 936.415 832.097 923.325 811.664 944.786 807 z" fill="rgb(0,0,0)" transform="translate(0,0)"></path>
<path d="M 657.952 807 C 672.465 806.98 748.851 804.601 755.812 810.222 C 761.599 814.896 760.37 834.866 756.377 839.273 C 750.492 845.767 699.317 843.055 688.757 843.013 L 688.757 888.486 C 701.258 888.43 742.618 886.783 751.01 891.268 C 755.565 897.09 756.545 917.458 752.586 919.374 C 739.71 925.604 702.436 923.903 688.757 923.706 C 688.953 933.74 688.827 943.787 688.757 953.824 L 688.757 971 C 701.035 971.157 748.899 965.607 756.139 976.183 C 789.833 1025.41 666.396 1011 654.945 1007.47 C 642.196 1003.55 646.635 961.566 646.609 950.927 L 646.308 892.416 C 646.308 867.453 635.714 814.396 657.952 807 z" fill="rgb(0,0,0)" transform="translate(0,0)"></path>
<path d="M 990.787 1076.99 C 1008.53 1075.3 1067.46 1077.6 1055.38 1109.77 C 1052.37 1117.8 1045.8 1119.84 1038.59 1122.7 C 1004.77 1098.53 974.746 1105.48 974.123 1151.95 C 973.596 1191.27 984.003 1207.15 1023.63 1198.99 C 1026.43 1152.34 1002.09 1197.87 1004.67 1157.74 C 1005.71 1141.47 1021.54 1146.87 1035.14 1146.87 C 1072.46 1145.74 1061.05 1171.57 1060.93 1208.74 C 1035.33 1251.15 947.949 1243.54 938.024 1181.2 C 930.801 1135.84 938.439 1087.02 990.787 1076.99 z" fill="rgb(0,0,0)" transform="translate(0,0)"></path>
<path d="M 481.406 1076.99 C 490.789 1076.96 507.654 1075.52 515.31 1079.3 C 528.99 1093.89 547.776 1182.19 558.451 1206.51 C 568.262 1228.86 562.088 1232.77 539.335 1230.1 C 519.087 1227.73 532.784 1203.83 511.014 1201.17 L 509.53 1201 L 473.77 1201 C 469.38 1209.52 466.23 1222.75 458.964 1228.27 C 453.768 1232.22 433.239 1232.14 429.428 1226.69 C 431.899 1208.72 465.61 1081.76 481.406 1076.99 z M 481.406 1170.34 C 486.7 1170.31 492.974 1170.13 498.17 1170.34 L 509.53 1170.34 C 508.439 1163.03 499.041 1123.96 494.661 1120.68 C 489.816 1137.16 484.768 1153.5 481.406 1170.34 z" fill="rgb(0,0,0)" transform="translate(0,0)"></path>
<path d="M 1477.33 1076.99 C 1493.05 1075.2 1498.4 1073.08 1503.81 1089.83 C 1517.65 1132.63 1530.31 1175.75 1545.08 1218.24 C 1546.01 1220.91 1548.47 1228.26 1543.99 1228.92 C 1506.84 1234.4 1509.16 1228.3 1499.98 1201 L 1486.43 1201 L 1459.46 1201 C 1455.34 1210.82 1452.57 1220.63 1449.5 1230.79 C 1443.76 1230.94 1416.17 1234.72 1415.19 1226.54 C 1414.37 1219.62 1458.07 1083.19 1462.81 1079.42 C 1466.86 1076.2 1472.46 1076.95 1477.33 1076.99 z M 1465.26 1170.34 L 1484.5 1170.34 L 1494.77 1170.34 C 1492.93 1163.78 1482.78 1126.08 1479.66 1122.7 C 1474.11 1138.81 1469.47 1153.78 1465.26 1170.34 z" fill="rgb(0,0,0)" transform="translate(0,0)"></path>
<path d="M 1199.78 1076.99 C 1207.01 1075.7 1220.94 1072.64 1223.93 1081.49 C 1227.98 1093.49 1271.89 1223.69 1268.54 1229.69 C 1223.39 1247.66 1239.25 1200.35 1211.97 1201 L 1181.13 1201 C 1177.79 1210.15 1174.03 1222.9 1169.32 1230.79 L 1137.28 1230.79 C 1140.17 1217.26 1148.54 1194.23 1153.13 1179.57 L 1170.07 1125.21 C 1174.94 1109.59 1179.7 1090.58 1188.22 1076.99 L 1199.78 1076.99 z M 1188.22 1170.34 C 1192.25 1170.41 1199.48 1170.75 1203.23 1170.34 L 1217.72 1170.34 C 1216.02 1162.18 1207.12 1126.54 1203.23 1120.68 C 1197.01 1138 1192.62 1152.43 1188.22 1170.34 z" fill="rgb(0,0,0)" transform="translate(0,0)"></path>
<path d="M 1126.41 807 C 1132.18 806.914 1154.22 806.076 1154.41 814.499 C 1155.73 874.894 1154.98 935.493 1154.75 995.919 C 1154.71 1005.44 1152.1 1007.25 1143.19 1008.92 C 1108.04 1009.58 1112.02 1010.21 1111.7 975.555 C 1111.23 926.158 1111.32 876.686 1111.71 827.292 C 1111.84 811.321 1111.41 810.138 1126.41 807 z" fill="rgb(0,0,0)" transform="translate(0,0)"></path>
<path d="M 1199.78 807 C 1208.39 806.762 1223.25 804.72 1229.15 811.622 C 1234.22 834.613 1232.27 997.519 1229.54 1003.03 C 1227.73 1006.7 1224.31 1007.62 1220.74 1008.92 C 1210.22 1008.42 1198.11 1008.64 1188.22 1005.85 C 1187.68 997.383 1188.15 985.213 1188.17 976.46 L 1188.22 918.727 C 1188.22 904.35 1186.34 819.498 1189.77 811.616 C 1192.83 808.676 1195.62 808.273 1199.78 807 z" fill="rgb(0,0,0)" transform="translate(0,0)"></path>
<path d="M 701.27 1076.99 C 708.814 1077.02 716.462 1076.83 723.057 1080.39 C 728.258 1087.99 725.076 1185.44 725.061 1198.99 C 736.767 1199.08 771.011 1197.07 779.044 1201.85 C 786.202 1216.36 784.633 1229.22 767.25 1230.79 C 753.81 1230.75 699.645 1232.79 690.674 1228.31 C 686.28 1209.36 687.239 1085.3 689.034 1082.06 C 691.011 1078.48 697.606 1077.79 701.27 1076.99 z" fill="rgb(0,0,0)" transform="translate(0,0)"></path>
<path d="M 589.81 1076.99 L 597.584 1076.83 C 602.909 1076.76 609.82 1076.25 613.822 1080.51 C 619.149 1086.19 616.77 1182.87 616.698 1198.99 C 630.636 1199.12 645.677 1197.83 659.363 1199.29 C 673.735 1200.82 675.508 1225.12 662.563 1230.79 C 651.156 1230.8 585.253 1235.98 581.457 1226.38 C 578.629 1219.22 578.05 1088.41 580.598 1081.9 C 583.364 1078.75 585.686 1078.44 589.81 1076.99 z" fill="rgb(0,0,0)" transform="translate(0,0)"></path>
<path d="M 1091.44 1076.99 C 1099 1076.89 1114.97 1075.48 1120.62 1079.53 C 1126.86 1094.39 1122.08 1194.89 1122.54 1225.61 C 1122.58 1228.35 1119.72 1229.53 1117.69 1230.79 C 1109.99 1230.78 1093.03 1231.82 1087.36 1227.25 C 1084.02 1214.19 1081.12 1084.67 1091.44 1076.99 z" fill="rgb(0,0,0)" transform="translate(0,0)"></path>
<metadata><recraft-signature>{"signed_by": "recraft", "signature_b64": "ByXWQWOVoDdMM9/kFQuPmi9Fh9mRCJ42cv/TxtwUMyzvFb+IMemrn2VNtsJSptmdHaGeYk07ybopomda1VZPAw==", "signing_algo": "Ed25519", "generation_timestamp": 1772989557, "identifier": "2424a81f-1523-4a7a-a195-22c92eb5e51c"}</recraft-signature></metadata></svg>