<svg xmlns="http://www.w3.org/2000/svg" height="512" preserveAspectRatio="none" style="display: block;" version="1.1" viewBox="0 0 2048 2048" width="512">
<path d="M 999.455 228.659 C 1434.37 214.518 1798.54 555.365 1813.17 990.269 C 1827.79 1425.17 1487.35 1789.72 1052.47 1804.83 C 616.891 1819.97 251.643 1478.87 236.993 1043.28 C 222.343 607.688 563.847 242.822 999.455 228.659 z" fill="rgb(0,0,0)" transform="translate(0,0)"></path>
<path d="M 991.348 343.456 C 1362.46 325.21 1678.17 611.119 1696.68 982.22 C 1715.2 1353.32 1429.52 1669.23 1058.43 1688.02 C 686.965 1706.82 370.657 1420.78 352.123 1049.3 C 333.589 677.822 619.855 361.722 991.348 343.456 z" fill="rgb(254,214,92)" transform="translate(0,0)"></path>
<path d="M 1014.91 1157.22 C 1108.95 1152.36 1189.13 1224.66 1193.98 1318.7 C 1198.84 1412.74 1126.54 1492.91 1032.5 1497.76 C 938.466 1502.61 858.305 1430.32 853.449 1336.28 C 848.594 1242.25 920.882 1162.09 1014.91 1157.22 z" fill="rgb(0,0,0)" transform="translate(0,0)"></path>
<path d="M 728.388 732.699 C 792.03 727.731 847.661 775.265 852.684 838.902 C 857.706 902.539 810.22 958.212 746.588 963.289 C 682.877 968.373 627.122 920.816 622.093 857.101 C 617.065 793.387 664.669 737.672 728.388 732.699 z" fill="rgb(0,0,0)" transform="translate(0,0)"></path>
<path d="M 1299.17 733.666 C 1361.66 727.888 1417.03 773.797 1422.92 836.273 C 1428.81 898.75 1383 954.2 1320.53 960.205 C 1257.91 966.225 1202.29 920.274 1196.38 857.636 C 1190.47 794.999 1236.52 739.459 1299.17 733.666 z" fill="rgb(0,0,0)" transform="translate(0,0)"></path>
<metadata><recraft-signature>{"signed_by": "recraft", "signature_b64": "Tvq7f49t7TEf/x+bDx6DOIgakQEmYsWpI9+V0eH7UMnYEf8n5Sp4M2YDiJ1nRGx1swEb+lx/S+ZkiRfdLZ9ZAg==", "signing_algo": "Ed25519", "generation_timestamp": 1773000700, "identifier": "cfe49381-5116-47fc-86c9-f89cc5876495"}</recraft-signature></metadata></svg>