<svg xmlns="http://www.w3.org/2000/svg" height="512" preserveAspectRatio="none" style="display: block;" version="1.1" viewBox="0 0 2048 2048" width="512">
<path d="M 1659.88 538.439 C 1697.75 536.706 1715.11 562.585 1734.48 590.249 C 1748.67 609.379 1772.64 634.967 1771.15 660.577 C 1766.58 739.733 1662.41 778.576 1591.51 776.996 C 1578.68 792.842 1561.76 806.086 1547.5 821.517 C 1629.92 820.69 1759.12 847.925 1834.88 873.401 C 1932.32 906.166 1956.16 1167 1845.89 1220.48 C 1632.16 1290.23 1409.22 1310 1185.7 1310.02 L 1007.12 1310 C 874.21 1310.03 746.027 1312.09 613.36 1301.77 C 556.227 1296.87 223.062 1245.74 183.703 1207.7 C 105.847 1132.47 114.2 977.262 179.874 897.176 C 201.377 870.954 267.822 856.433 301.323 848.866 C 507.982 802.186 681.605 799.488 888.436 799.509 L 1306.06 799.551 C 1323.8 799.576 1342.87 800.234 1360.45 799.535 C 1383.77 779.563 1411.09 759.506 1435.43 740.674 L 1524.16 671.349 C 1543.93 618.639 1602.84 544.41 1659.88 538.439 z M 301.49 986.692 C 301.486 1003.17 299.863 1101.08 303.149 1109.98 C 335.8 1133.41 609.397 1170.04 652.364 1173.15 C 705.875 1177.02 774.96 1175.19 829.702 1175 L 1060.81 1174.96 C 1210.96 1174.94 1350.98 1179.41 1500.79 1161.31 C 1553.65 1155.04 1695.19 1134.48 1743.45 1110.92 C 1743.46 1094.9 1744.55 998.244 1741.82 988.355 C 1729.69 977.599 1450.4 930.977 1401.67 928.007 C 1353.33 965.008 1303.46 1000.42 1254.37 1036.41 C 1199.32 1078.58 1125.76 1056.77 1135.61 988.103 C 1141.37 947.877 1165.5 945.818 1192.76 928.007 C 1171.32 927.613 1149.7 928.63 1128.19 928.443 L 712.37 928.007 C 570.849 938.651 440.918 952.394 301.49 986.692 z" fill="rgb(0,0,0)" transform="translate(0,0)"></path>
<metadata><recraft-signature>{"signed_by": "recraft", "signature_b64": "TockU4m5fqnTimeQ/KMd+v9QiMCrD2i9PPI3PdXY/MzST9W9QufCFuGNl0KJLq+A8KgYoP6rxSdgZgqVDxocBA==", "signing_algo": "Ed25519", "generation_timestamp": 1772996969, "identifier": "38e58936-0166-42a9-be6c-26fdb17855b9"}</recraft-signature></metadata></svg>