<svg xmlns="http://www.w3.org/2000/svg" height="512" preserveAspectRatio="none" style="display: block;" version="1.1" viewBox="0 0 2048 2048" width="512">
<path d="M 1020.35 180.356 C 1060.17 170.38 1118.04 302.097 1131.45 330.667 C 1236.96 555.34 1287.24 807.905 1282.92 1055.98 C 1282.47 1081.8 1279.38 1108.19 1283 1133.83 C 1296.95 1146.41 1332.52 1166.95 1349.25 1178.48 C 1391.6 1207.67 1435.62 1235.35 1477.4 1265.39 C 1532.72 1226.64 1565.81 1237.92 1614.43 1270.75 C 1656.42 1299.14 1700.85 1327.71 1741.91 1357.07 C 1798.37 1397.43 1728.69 1476.71 1701.31 1511.87 C 1664.92 1558.61 1627.8 1535.68 1591.61 1510.31 L 1498.42 1446.55 C 1447.38 1412.84 1431.2 1391.41 1428.25 1328.52 C 1420.63 1324.41 1400.15 1309.55 1392.2 1304.14 L 1318.31 1254.09 C 1304.58 1244.77 1284.41 1230.23 1270.22 1222.63 C 1270.14 1228.14 1269.55 1234 1268.73 1239.48 C 1238.71 1442 1183.26 1648.42 1071.73 1822.24 C 1057.62 1844.23 1049.54 1863.05 1020.35 1864.22 C 990.362 1857.38 963.159 1801.8 948.995 1775.92 C 819.564 1539.46 764.507 1260.46 765.017 992.396 C 765.068 965.438 768.593 933.062 765.021 907.182 C 745.389 883.685 593.296 794.917 556.831 770.31 C 505.187 841.073 412.298 761.608 359.979 729.466 C 323.717 707.188 265.846 680.57 283.082 626.97 C 287.077 614.545 336.204 539.556 346.124 528.067 C 361.506 510.253 386.53 501.257 409.436 508.624 C 435.926 517.144 553.633 601.209 577.519 623.449 C 599.583 643.993 610.407 673.046 599.662 702.683 C 618.02 716.567 650.89 736.651 671.152 749.546 L 776.662 817.431 C 817.337 593.452 862.66 395.779 989.973 198.558 C 996.552 188.367 1008.62 181.636 1020.35 180.356 z M 1093.15 1316.53 C 1126.51 1258.72 1137.09 1212.64 1148.92 1147.66 C 1071.88 1101.28 997.496 1048.71 920.902 1001.52 C 911.296 995.603 900.868 988.339 890.858 983.494 C 890.324 1084.81 893.851 1186.43 936.518 1280.43 C 973.715 1362.39 1030.71 1413.46 1093.15 1316.53 z M 900.944 894.543 C 953.403 935.494 1029.48 976.824 1086.53 1014.43 C 1107.17 1027.57 1136.21 1047.12 1157.02 1058.27 C 1157.17 961.118 1124.11 670.106 1016.95 674.173 C 953.12 691.393 910.439 836.483 900.944 894.543 z" fill="rgb(0,0,0)" transform="translate(0,0)"></path>
<metadata><recraft-signature>{"signed_by": "recraft", "signature_b64": "D0Hrnv7eGtAag7GDZGFX6z0ACIaRWpOGeRpdXPqjztpkFnyoDnN6/n4BNztf0jjfcM55v8uMMv9H8FTupYGSCQ==", "signing_algo": "Ed25519", "generation_timestamp": 1772996960, "identifier": "050b23c5-0106-4058-b7b6-ad944a7d5d97"}</recraft-signature></metadata></svg>