<svg xmlns="http://www.w3.org/2000/svg" height="512" preserveAspectRatio="none" style="display: block;" version="1.1" viewBox="0 0 2048 2048" width="512">
<path d="M 538.392 217.978 C 610.204 217.231 683.359 217.978 755.303 217.981 L 1471.94 217.913 C 1576.83 217.866 1578.14 250.676 1578.36 345.186 L 1578.51 1667.73 C 1578.56 1731.17 1596.22 1821.96 1508.41 1829.89 L 577.015 1829.97 C 473.284 1830.49 468.456 1795.65 468.608 1700.25 L 468.63 386.544 C 468.628 321.126 449.607 228.088 538.392 217.978 z M 619.989 748.999 L 1216.01 748.938 C 1253.85 748.914 1290.23 742.419 1319.78 770.979 C 1363.1 812.851 1341.02 889.5 1280.3 897.861 C 1259.83 900.681 1232.89 899.023 1211.27 899.016 L 619.989 898.98 C 619.282 926.879 619.976 957.27 619.981 985.412 L 619.989 1673.98 L 694.5 1673.98 L 1425.03 1673.98 L 1425.03 369.03 L 626.513 369.03 C 612.613 371.153 620.016 422.889 620.018 439.463 L 619.961 699.1 C 619.954 712.795 619.124 736.117 619.989 748.999 z" fill="rgb(0,0,0)" transform="translate(0,0)"></path>
<path d="M 784.504 1316.51 L 1226.34 1316.44 C 1256.6 1316.25 1300.03 1307.4 1299.98 1352.37 L 1299.95 1537.95 C 1300.02 1564.1 1303.16 1597.62 1266.25 1596.99 L 826.909 1597.07 C 749.233 1597.14 748.796 1603.63 748.937 1516.73 L 748.917 1374.23 C 748.743 1342.82 743.707 1317.58 784.504 1316.51 z M 809.792 1536.26 L 925.715 1536.29 C 947.221 1536.31 974.08 1537.14 995.007 1536.26 C 996.005 1523.12 995.04 1497.65 995.026 1483.57 L 995.007 1376.01 L 809.792 1376.01 C 808.853 1393.79 809.741 1414.09 809.774 1432.2 L 809.792 1536.26 z M 1056 1536.26 C 1075.97 1536.93 1098.22 1536.29 1118.4 1536.27 L 1238.31 1536.26 C 1238.98 1483.31 1238.35 1429.07 1238.31 1376.01 L 1114.57 1376 C 1099.34 1375.99 1070.32 1374.97 1056 1376.01 L 1056 1536.26 z" fill="rgb(0,0,0)" transform="translate(0,0)"></path>
<path d="M 1260.54 985.513 C 1300.8 980.132 1337.78 1008.48 1343.02 1048.76 C 1348.27 1089.04 1319.8 1125.92 1279.5 1131.03 C 1239.4 1136.13 1202.73 1107.81 1197.5 1067.72 C 1192.28 1027.63 1220.47 990.868 1260.54 985.513 z" fill="rgb(0,0,0)" transform="translate(0,0)"></path>
<path d="M 1256.46 515.103 C 1295.83 508.923 1332.78 535.745 1339.11 575.093 C 1345.43 614.44 1318.74 651.492 1279.42 657.96 C 1239.89 664.462 1202.61 637.606 1196.25 598.055 C 1189.89 558.504 1216.88 521.316 1256.46 515.103 z" fill="rgb(0,0,0)" transform="translate(0,0)"></path>
<metadata><recraft-signature>{"signed_by": "recraft", "signature_b64": "j139u2/FtZr6tuKi7TeTkfhcrn4wz7gO7jLovyP7J+EOkwqRFN81dvSdrFYmAYKljJTNINjzKifjF/SUa4WtAA==", "signing_algo": "Ed25519", "generation_timestamp": 1772999053, "identifier": "44607db4-c774-4114-b6a7-b7fa89d0f322"}</recraft-signature></metadata></svg>