<svg xmlns="http://www.w3.org/2000/svg" height="512" preserveAspectRatio="none" style="display: block;" version="1.1" viewBox="0 0 2048 2048" width="512">
<path d="M 1149.8 272.989 C 1365.18 250.139 1485.05 469.534 1560.44 635.368 C 1605.13 730.797 1656.97 819.752 1717.41 905.92 C 1799.46 1022.91 1853.44 1160.03 1828.67 1304.94 C 1760.46 1703.84 1244.65 1796.78 912.004 1741.71 C 894.055 1740.71 847.537 1730.38 829.121 1725.7 C 603.815 1668.35 250.952 1521.68 217.564 1254.9 C 195.025 1074.8 313.309 844.233 420.35 706.395 C 589.904 488.059 870.399 306.954 1149.8 272.989 z M 530.235 1091.76 C 522.757 1084.61 521.31 1080.16 518.685 1070.65 C 530.382 1020.28 591.43 914.734 620.166 875.017 C 641.376 845.702 697.132 757.39 737.834 789.037 C 740.635 784.478 738.739 777.712 740.558 775.424 C 756.167 755.793 791.931 724.269 816.85 716.706 C 789.296 686.863 817.719 669.634 841.521 654.795 C 896.589 620.464 1028 560.78 1095.79 564.692 C 1122.77 547.72 1395.95 516.118 1435 524.102 L 1436.75 522.791 C 1388.85 429.638 1280.98 325.145 1169.76 332.081 C 1011.62 341.942 822.397 432.495 694.496 524.631 C 547.99 630.171 426.412 771.881 349.435 935.503 C 290.043 1061.47 238.707 1214.89 308.76 1346.96 C 347.553 1420.1 439.624 1496.35 514.753 1534.82 C 516.842 1524.86 490.401 1450.51 486.45 1427.58 C 467.648 1318.45 486.107 1205.44 520.1 1101.22 C 521.928 1095.62 525.073 1093.58 530.235 1091.76 z" fill="rgb(0,0,0)" transform="translate(0,0)"></path>
<path d="M 1436.75 522.791 C 1447.7 536.641 1469.64 580.376 1477.66 597.968 C 1522.37 696.222 1569.66 792.591 1628.73 883.156 C 1673.74 952.169 1722.04 1018.1 1750.69 1095.88 C 1810.78 1259.03 1755.35 1440.95 1616.57 1546.62 C 1329.99 1764.81 881.792 1719.17 572.963 1566.01 C 562.964 1561.06 522.197 1540.64 514.753 1534.82 C 516.842 1524.86 490.401 1450.51 486.45 1427.58 C 467.648 1318.45 486.107 1205.44 520.1 1101.22 C 521.928 1095.62 525.073 1093.58 530.235 1091.76 C 522.757 1084.61 521.31 1080.16 518.685 1070.65 C 530.382 1020.28 591.43 914.734 620.166 875.017 C 641.376 845.702 697.132 757.39 737.834 789.037 C 740.635 784.478 738.739 777.712 740.558 775.424 C 756.167 755.793 791.931 724.269 816.85 716.706 C 789.296 686.863 817.719 669.634 841.521 654.795 C 896.589 620.464 1028 560.78 1095.79 564.692 C 1122.77 547.72 1395.95 516.118 1435 524.102 L 1436.75 522.791 z" fill="rgb(251,242,216)" transform="translate(0,0)"></path>
<path d="M 518.685 1070.65 C 530.382 1020.28 591.43 914.734 620.166 875.017 C 641.376 845.702 697.132 757.39 737.834 789.037 C 756.966 816.981 736.465 828.924 718.364 848.028 C 666.299 902.977 627.007 969.052 595.676 1037.63 C 583.105 1065.15 573.565 1118.19 530.235 1091.76 C 522.757 1084.61 521.31 1080.16 518.685 1070.65 z" fill="rgb(0,0,0)" transform="translate(0,0)"></path>
<path d="M 816.85 716.706 C 789.296 686.863 817.719 669.634 841.521 654.795 C 896.589 620.464 1028 560.78 1095.79 564.692 C 1122.84 573.875 1123.88 612.391 1102.3 618.323 C 1010.24 642.672 970.674 646.965 880.802 699.542 C 859.301 712.12 841.109 732.266 816.85 716.706 z" fill="rgb(0,0,0)" transform="translate(0,0)"></path>
<path d="M 768.57 1110.24 C 791.241 1108.05 889.749 1187.79 820.612 1210.94 C 789.35 1216.09 700.42 1129.91 768.57 1110.24 z" fill="rgb(0,0,0)" transform="translate(0,0)"></path>
<path d="M 1131.5 797.11 C 1163.85 794.513 1252.64 874.699 1185.44 896.929 C 1160.64 898.05 1113.93 851.545 1108.93 838.083 C 1102.19 819.913 1114.13 802.631 1131.5 797.11 z" fill="rgb(0,0,0)" transform="translate(0,0)"></path>
<path d="M 943.895 947.08 C 970.915 945.258 1062.1 1026.48 993.611 1046.74 C 961.796 1049.41 876.042 967.247 943.895 947.08 z" fill="rgb(0,0,0)" transform="translate(0,0)"></path>
<metadata><recraft-signature>{"signed_by": "recraft", "signature_b64": "+rRnIuCdK+Mj9RG0I5kSEQbsz+JO69dG1QTnhi+FqtzI7pKiISiA9mv+1FWt5/wEylU3prodlVzIwiu3J9SeAg==", "signing_algo": "Ed25519", "generation_timestamp": 1772995631, "identifier": "1cf42ac9-8ef6-463f-bbc4-55cce0128412"}</recraft-signature></metadata></svg>