<svg xmlns="http://www.w3.org/2000/svg" height="512" preserveAspectRatio="none" style="display: block;" version="1.1" viewBox="0 0 2048 2048" width="512">
<path d="M 1011.15 252.439 C 1204.62 238.275 1360.61 439.585 1296.64 621.944 C 1289.71 641.694 1279.65 659.175 1270.83 677.897 C 1292.23 678.199 1314.39 677.069 1335.48 678.115 C 1466.23 684.604 1561.34 800.867 1555.98 929.131 C 1551.4 1038.55 1483.78 1089.57 1413.3 1160.24 C 1385.42 1188.19 1359.27 1215.64 1330.7 1242.4 C 1350.83 1260.07 1367.07 1277.05 1385.8 1295.75 L 1450.31 1360.24 C 1498.05 1408.7 1568.66 1456.03 1567 1528.5 C 1565.76 1582.56 1533.95 1610.25 1497.93 1645.06 L 1447.45 1694.07 C 1421.54 1719.27 1396.57 1747.6 1368.56 1770.1 C 1288.21 1834.65 1220 1756.49 1168.06 1704.6 L 1082.23 1617.79 C 1066.82 1602.35 1051.12 1588.18 1036.3 1572.08 C 1031.73 1567.47 1029.56 1565.28 1025.66 1560.02 C 971.266 1611.33 920.228 1666.93 866.524 1718.91 C 824.45 1759.64 800.826 1799.56 734.65 1793.27 C 685.811 1788.62 666.943 1764.83 635.135 1732.8 L 589.157 1686.74 C 539.012 1636.49 473.349 1591.6 481.2 1514.38 C 485.997 1467.2 512.363 1443.31 544.491 1412.47 C 599.207 1359.96 657.817 1289.08 714.573 1242.4 C 705.692 1229.89 682.449 1207.18 671.042 1195.55 L 591.273 1114.23 C 579.168 1101.77 566.57 1089.91 555.159 1076.92 C 409.141 910.708 533.907 656.963 770.618 677.897 C 766.433 664.374 759.137 650.904 754.146 637.465 C 686.009 453.994 816.418 261.588 1011.15 252.439 z M 611.151 1526.88 C 642.982 1563.18 720.495 1625.49 742.488 1661.28 C 763.484 1635.19 781.959 1619.42 805.474 1595.94 L 963.699 1439.4 C 985.484 1418.25 1005.87 1393.43 1040.27 1404.48 C 1057.54 1410.95 1077.98 1435.26 1091.46 1448.76 L 1305.53 1661.28 C 1347.04 1613.63 1394.86 1572.39 1438.44 1526.88 L 1215 1304.58 C 1149.68 1239.74 1168.52 1223.28 1227.39 1164.24 L 1288.57 1103 C 1355.85 1036.92 1491.96 937.764 1392.81 836.368 C 1361.5 804.349 1329.95 799.689 1287.45 799.477 L 1177.31 799.488 C 1145.28 799.507 1108.76 805.973 1083.85 781.681 C 1034.13 733.195 1093.3 695.341 1123.86 668.819 C 1252.64 559.843 1157.84 361.292 1011.15 378.023 C 875.554 401.402 814.343 544.416 904.133 649.756 C 929.842 679.917 976.863 697.983 979.509 741.537 C 982.986 798.747 926.628 799.648 888.237 799.594 L 794.163 799.443 C 735.847 799.338 683.881 792.561 644.735 846.136 C 594.671 914.657 625.948 972.817 676.67 1023.21 L 815.592 1163.87 C 883.364 1235.98 896.656 1239.89 814.008 1322.65 L 747.937 1389.42 C 705.249 1432.56 656.941 1488.15 611.151 1526.88 z" fill="rgb(0,0,0)" transform="translate(0,0)"></path>
<path d="M 1007.01 959.003 C 1060.45 952.306 1104.14 1007.12 1074.73 1054.99 C 1048.87 1097.09 985.489 1073.67 975.574 1126.11 C 969.1 1160.35 960.395 1181.48 922.232 1190.75 C 828.995 1204.28 834.791 1095.32 879.333 1032.95 C 911.174 988.364 954.148 967.409 1007.01 959.003 z" fill="rgb(0,0,0)" transform="translate(0,0)"></path>
<metadata><recraft-signature>{"signed_by": "recraft", "signature_b64": "QwKQasXcnMY6zYvZSYeTKjUDCTkU8+kaIR5oHW3yf1DkcpWi6Hivvml+4aKYtY7xTW3EEbHlYzDJB6YPzofQAA==", "signing_algo": "Ed25519", "generation_timestamp": 1772989802, "identifier": "1dc6d404-a54d-4d49-826e-29d6d99e04f5"}</recraft-signature></metadata></svg>