<svg xmlns="http://www.w3.org/2000/svg" height="512" preserveAspectRatio="none" style="display: block;" version="1.1" viewBox="0 0 2048 2048" width="512">
<path d="M 1185.85 649.307 C 1238.53 643.369 1278.17 696.572 1258.02 746.097 C 1225.31 826.474 1194.23 907.507 1162.77 988.385 C 1154.63 1004.45 1149.61 1027.08 1140.27 1042.23 C 1104.18 1100.85 1039.05 1112.45 984.641 1074.82 C 958.004 1056.4 762.359 923.306 739.128 918.126 C 721.285 923.697 725.983 937.555 738.769 946.012 C 779.696 973.084 823.818 998.727 864.087 1026.45 C 837.041 1098.7 797.044 1175.13 767.219 1248 C 787.76 1249.13 818.168 1248.05 839.688 1248.04 L 986.071 1248 C 1049.84 1247.94 1103.11 1240.1 1148.29 1295.25 C 1188.79 1344.69 1173.91 1392.9 1165.28 1449 L 1127.26 1695.76 C 1124.1 1716.04 1122.06 1740.25 1115.67 1759.23 C 1083.83 1853.99 915.826 1849.27 938.974 1691.98 C 951.975 1603.64 967.156 1514.96 977.685 1426.41 L 834.871 1426.41 L 796.974 1426.41 C 829.316 1472.96 888.277 1502.63 886.824 1565.95 C 885.903 1606.05 869.017 1625.6 842.364 1652.22 L 638.778 1853.75 C 558.339 1931.93 412.349 1811.5 519.239 1706.2 C 568.2 1657.97 615.873 1608.12 666.167 1561.29 C 655.408 1545.74 630.115 1518.85 617.663 1504.55 L 540.913 1414.72 C 492.31 1357.97 450.708 1296.86 484.364 1216.23 C 533.221 1099.19 581.446 981.598 632.662 865.552 C 660.741 801.898 726.017 760.587 795.107 788.785 C 823.7 800.743 849.957 821.976 876.159 838.19 C 927.037 869.674 977.562 901.772 1027.58 934.478 L 1110.71 729.389 C 1128.39 685.953 1134.34 657.846 1185.85 649.307 z" fill="rgb(0,0,0)" transform="translate(0,0)"></path>
<path d="M 925.766 435.538 C 1021.93 430.825 1103.76 504.855 1108.67 601.011 C 1113.58 697.167 1039.71 779.146 943.566 784.25 C 847.144 789.368 764.878 715.245 759.955 618.812 C 755.033 522.379 829.323 440.264 925.766 435.538 z" fill="rgb(0,0,0)" transform="translate(0,0)"></path>
<path d="M 1430.29 753.227 C 1499.78 744.274 1543 833.399 1486.62 878.359 L 1315.09 1012.49 C 1286.2 1034.76 1278.36 1045.11 1242.23 1054.17 C 1213.16 1057.48 1194.46 1055 1168.29 1041.94 C 1173.56 1026.18 1231.14 877.636 1235.3 876.093 C 1238.22 877.747 1240.26 881.502 1242.23 884.427 C 1254.09 877.063 1271.05 863.793 1282.54 855.284 L 1367.68 790.936 C 1388.16 775.46 1404.56 758.488 1430.29 753.227 z" fill="rgb(0,0,0)" transform="translate(0,0)"></path>
<path d="M 1447.99 158.163 C 1463.91 157.413 1470.14 163.107 1475.56 177.357 C 1462.61 233.627 1454.41 296.018 1442.71 352.333 C 1458.28 350.491 1553.57 326.154 1536.89 370.115 C 1528.84 391.336 1494.17 427.069 1480.38 448.575 L 1479.34 450.223 C 1505.23 454.515 1602.53 470.918 1614.95 492.836 C 1615.04 497.586 1614.95 502.635 1614.95 507.415 C 1604.5 527.137 1572.5 527.841 1551.11 532.339 L 1416.41 560.637 C 1404.39 563.16 1350.2 580.314 1366.19 534.298 C 1369.63 524.388 1415.98 517.848 1430.29 514.795 C 1456.69 509.594 1479.06 504.108 1505.85 500.99 C 1483.87 491.404 1421.87 486.652 1421.52 463.141 C 1421.36 452.832 1467.09 397.143 1475.56 388.294 C 1454.75 391.186 1439.52 394.668 1418.15 395.707 C 1384.81 379.59 1410.93 311.346 1414.12 276.67 C 1402.57 297.897 1353.5 383.273 1336.61 395.707 L 1334.39 396.256 C 1324.39 398.759 1313.63 397.137 1308.05 387.253 C 1299.26 371.694 1326.11 339.589 1335.11 325.48 L 1399 225.806 C 1409.08 210.252 1432.49 164.994 1447.99 158.163 z" fill="rgb(0,0,0)" transform="translate(0,0)"></path>
<path d="M 576.875 307.217 C 600.514 303.438 607.603 330.477 616.659 347.602 C 628.432 370.696 643.403 394.661 653.976 418.173 C 661.707 435.364 634.619 470.581 607.826 422.745 C 615.007 471.317 592.883 466.856 556.394 466.986 C 573.242 491.171 587.764 514.228 548.229 525.614 C 568.252 530.736 604.85 537.728 614.991 556.337 L 614.991 569.924 L 613.99 571.599 C 608.15 581.211 605.421 582.64 594.738 585.295 C 578.205 581.781 450.828 542.49 446.136 538.321 C 395.157 493.024 491.098 488.883 513.87 484.463 C 490.403 426.929 478.408 412.7 563.835 422.745 C 563.239 398.94 557.577 334.392 563.835 315.869 C 567.984 311.391 571.266 309.373 576.875 307.217 z" fill="rgb(0,0,0)" transform="translate(0,0)"></path>
<path d="M 651.149 450.49 C 664.716 448.647 677.231 458.091 679.18 471.644 C 681.13 485.196 671.785 497.785 658.249 499.841 C 644.561 501.921 631.8 492.448 629.828 478.744 C 627.857 465.04 637.429 452.354 651.149 450.49 z" fill="rgb(0,0,0)" transform="translate(0,0)"></path>
<path d="M 1283.58 419.884 C 1296.55 416.433 1309.86 424.086 1313.41 437.022 C 1316.96 449.959 1309.4 463.332 1296.49 466.971 C 1283.45 470.648 1269.9 462.997 1266.32 449.927 C 1262.74 436.857 1270.49 423.371 1283.58 419.884 z" fill="rgb(0,0,0)" transform="translate(0,0)"></path>
<metadata><recraft-signature>{"signed_by": "recraft", "signature_b64": "bg/mNbTnnk2ldxQbQ/hyzKaTE89UEDDlLyvnVkddTN3iMItSuK5FjRhuUNC3wUaDOaI4HNSwsotnEPouJmiJCg==", "signing_algo": "Ed25519", "generation_timestamp": 1772989502, "identifier": "375b6468-0a7d-47f9-bdf7-6a75b3a3343f"}</recraft-signature></metadata></svg>