<svg xmlns="http://www.w3.org/2000/svg" height="512" preserveAspectRatio="none" style="display: block;" version="1.1" viewBox="0 0 2048 2048" width="512">
<path d="M 1720.79 1079.19 L 1721.87 1079.67 C 1724.46 1085.48 1726.57 1090.29 1728.72 1096.3 C 1741.52 1102.93 1757.01 1110.92 1769.32 1117.9 C 1911.26 1198.33 1928.36 1315.37 1776.22 1399.11 C 1466.55 1567.91 842.961 1561.11 500.949 1481.68 C 449.79 1469.8 359.423 1446.42 314.756 1419.73 C 242.172 1394.52 136.147 1317.36 169.306 1227.23 C 192.049 1165.4 259.133 1129.83 314.756 1102.99 C 318.567 1093.98 321.243 1087.61 326.179 1079.19 C 359.44 1107.16 414.896 1131.05 456.966 1143.35 C 767.966 1234.28 1258.82 1235.28 1576.25 1148.21 C 1610.27 1138.93 1645.74 1123.15 1676.62 1106.43 C 1691.84 1098.12 1704.97 1086.62 1720.79 1079.19 z M 1720.79 1327.72 C 1745.29 1315.94 1787.61 1291.37 1795.22 1263.31 C 1785.54 1223.62 1724.37 1196.45 1688.66 1183.34 C 1534.23 1310.14 1223.19 1322.66 1020.48 1325.59 C 862.931 1327.06 502.226 1303.88 375.122 1201.03 C 371.883 1198.41 354.301 1184.07 352.19 1183.34 C 326.519 1191.8 268.404 1225.24 256.078 1249.16 C 240.22 1290.09 320.479 1329.52 347.278 1340.64 C 628.442 1457.32 1070.7 1459.11 1362.61 1422.46 C 1474.74 1408.38 1620.52 1380.28 1720.79 1327.72 z" fill="rgb(0,0,0)" transform="translate(0,0)"></path>
<path d="M 1034.25 479.973 C 1063.54 478.387 1097.85 480.513 1127.35 481.417 C 1269.6 485.775 1616.4 511.724 1724.52 613.234 C 1750.67 635.42 1757.72 674.72 1728.9 699.052 C 1591.02 815.46 1189.19 830.478 1016.5 829.997 C 853.318 832.076 422.382 802.609 319.572 695.016 C 294.293 668.562 298.021 636.708 323.95 612.374 C 436.955 506.324 855.302 474.354 1034.25 479.973 z" fill="rgb(0,0,0)" transform="translate(0,0)"></path>
<path d="M 1714.89 913.754 C 1746.48 938.238 1751.94 978.001 1724.99 1008.45 C 1643.03 1101.04 1338.01 1133.47 1216.85 1141.16 C 1031.93 1152.9 844.238 1148.73 660.752 1121.96 C 570.629 1108.82 396.817 1078.99 326.179 1016.79 C 283.64 990.029 312.363 947.105 333.509 917.632 C 372.848 965.968 477.735 993.534 536.873 1006.26 C 751.138 1052.38 975.796 1060.25 1194.09 1047.26 C 1306.56 1040.84 1652 1007.21 1714.89 913.754 z" fill="rgb(0,0,0)" transform="translate(0,0)"></path>
<path d="M 329.438 762.735 C 331.336 763.81 337.918 770.391 340.274 772.334 C 427.268 844.06 671.229 875.644 783.257 884.099 C 1020.15 901.977 1509.25 906.087 1720.79 769.653 C 1760.52 805.596 1756.44 825.122 1720.79 861.205 C 1692.95 883.331 1660.14 897.737 1626.57 909.061 C 1308.63 1016.3 778.892 1011.69 458.696 921.322 C 394.684 903.256 244.551 849.399 329.438 762.735 z" fill="rgb(0,0,0)" transform="translate(0,0)"></path>
<metadata><recraft-signature>{"signed_by": "recraft", "signature_b64": "1juNjvCF//0GTyvNoljZWqwvKOx5ZCq3epYIe851LBt93jJj4sGIschej7Wa0M+F1f8qEOcA+cPvO8xZIyTYBg==", "signing_algo": "Ed25519", "generation_timestamp": 1773009062, "identifier": "e3518362-e348-4a17-985a-07acbef0dec4"}</recraft-signature></metadata></svg>