<svg xmlns="http://www.w3.org/2000/svg" height="512" preserveAspectRatio="none" style="display: block;" version="1.1" viewBox="0 0 2048 2048" width="512">
<path d="M 318.808 982.003 C 342.95 981.129 372.879 981.989 397.602 981.991 L 1646.59 981.988 C 1672.71 981.989 1698.89 981.832 1724.98 982.151 C 1773.77 982.746 1777.59 1057.72 1728.75 1065.52 C 1718.3 1066.42 1691.17 1065.59 1679.67 1065.58 L 332.93 1065.3 C 259.189 1062.88 272.452 990.919 318.808 982.003 z" fill="rgb(4,4,4)" transform="translate(0,0)"></path>
<path d="M 322.75 510.571 L 1718.87 510.639 C 1781.52 514.702 1776.72 580.781 1728.75 592.941 L 369.521 593.009 C 356.31 593.017 330.999 594.285 318.554 592.647 C 272.073 586.531 270.875 513.965 322.75 510.571 z" fill="rgb(4,4,4)" transform="translate(0,0)"></path>
<path d="M 1329.37 1448.81 L 1682.99 1448.71 C 1697.27 1448.57 1714.03 1447.33 1728.15 1448.81 C 1778.28 1454.08 1773.88 1529.44 1725.41 1529.87 L 718.25 1529.31 C 585.516 1529.3 452.699 1528.7 319.994 1530.01 C 271.976 1530.49 267.239 1451.46 317.917 1448.93 C 330.725 1448.29 343.616 1448.72 356.438 1448.81 L 1329.37 1448.81 z" fill="rgb(4,4,4)" transform="translate(0,0)"></path>
<metadata><recraft-signature>{"signed_by": "recraft", "signature_b64": "hL5tdhWvNjxMbBJ4W3998w//YofC1Xn8O1xAx4jwzmKF7dqo6s9y6c7rJBlw5NublGM4cHyhzf7s0Wq3o2zLAQ==", "signing_algo": "Ed25519", "generation_timestamp": 1773000335, "identifier": "034b7f2f-9c0f-45af-af0f-915405a377db"}</recraft-signature></metadata></svg>