<svg xmlns="http://www.w3.org/2000/svg" height="512" preserveAspectRatio="none" style="display: block;" version="1.1" viewBox="0 0 2048 2048" width="512">
<path d="M 1069.24 289.09 C 1346.63 280.288 1640.17 408.347 1822.05 617.413 C 1850.7 650.335 1861.68 660.866 1843.14 701.524 C 1825.37 740.47 1806.02 778.719 1788.05 817.581 L 1449.92 1539.29 C 1440.27 1559.41 1393.63 1662.75 1384.03 1671.45 C 1365.75 1688.04 1342.79 1686.01 1320.01 1686.03 L 1184.33 1686.05 C 1129.75 1686.02 1130.58 1693.68 1093.69 1651.09 C 1081.88 1637.24 1068.05 1623.13 1055.68 1609.54 L 362.769 848.402 L 312.35 794.219 C 265.363 742.845 259.835 718.073 304.948 662.146 C 471.19 452.468 738.83 312.51 1004.91 292.636 C 1026.3 291.039 1047.74 290.263 1069.24 289.09 z M 422.203 723.439 C 449.19 750.43 480.856 786.12 506.92 814.559 L 608.641 924.727 C 635.977 954.712 669.64 985.237 693.784 1017.22 C 781.358 950.422 941.949 860.139 1057.01 858.772 C 1232.84 836.684 1419.36 899.671 1555.79 1010.87 C 1564 990.388 1574.93 968.388 1584.34 948.249 L 1685.97 724.109 C 1691.72 711.575 1699.84 691.86 1705.82 680.422 C 1535.49 514.295 1310.17 413.146 1069.24 420.549 C 818.032 427.347 588.279 535.034 422.203 723.439 z M 1151.02 1081.56 C 1150.89 1169.19 1150.48 1261.72 1153.47 1349.33 C 1155.33 1404.01 1158.31 1468.04 1155.49 1522.73 C 1169.06 1534.29 1177.78 1544.52 1189.41 1557.89 C 1217.11 1558.42 1273.82 1560.71 1298.49 1557.89 C 1306.13 1546.09 1314.08 1526.66 1320.04 1513.55 L 1503.7 1121.64 C 1510.4 1106.99 1518.75 1087.22 1526.35 1073.8 C 1296.76 883.978 981.989 894.964 749.333 1076.71 C 806.825 1137.76 862.823 1200.54 919.368 1262.49 L 1095.63 1454.4 C 1108.77 1468.93 1126.6 1489.69 1140.38 1502.2 C 1137.71 1474.11 1140.48 1439.1 1140.95 1410.13 L 1146.44 1179.25 C 1147.05 1150.26 1149.83 1100.79 1147.84 1073.8 L 1151.02 1081.56 z" fill="rgb(5,4,4)" transform="translate(0,0)"></path>
<metadata><recraft-signature>{"signed_by": "recraft", "signature_b64": "ZuZe4Ha9pr34UF2WmORqguA8O3AJ0a4maZfhbG7ZeyEKX094XI8Z+NLhmbeaTD/jXAv+Fw0SNoN6UwTUK+RoAw==", "signing_algo": "Ed25519", "generation_timestamp": 1772998252, "identifier": "3f5f2bd8-84f3-4cd4-849a-072857e9017a"}</recraft-signature></metadata></svg>