<svg xmlns="http://www.w3.org/2000/svg" height="512" preserveAspectRatio="none" style="display: block;" version="1.1" viewBox="0 0 2048 2048" width="512">
<defs>
	<linearGradient gradientUnits="userSpaceOnUse" id="Gradient1" x1="352.556" x2="1317.79" y1="1254.19" y2="1507.99">
		<stop class="stop0" offset="0" stop-color="rgb(0,0,0)" stop-opacity="1"></stop>
		<stop class="stop1" offset="1" stop-color="rgb(20,22,41)" stop-opacity="1"></stop>
	</linearGradient>
</defs>
<path d="M 608.446 938.361 C 618.572 937.802 631.891 938.313 642.307 938.319 L 915.582 938.349 C 946.232 938.333 978.322 941.04 1008.83 938.361 C 946.129 963.906 936.789 1025.56 983.072 1072.46 C 947.46 1073.44 907.733 1072.48 871.767 1072.47 L 659.857 1072.45 C 543.714 1072.3 511.478 1119.48 511.488 1231.73 L 511.514 1614.39 L 1127.01 1614.39 L 1127.01 1251.58 C 1129.59 1254.06 1132.24 1256.39 1134.91 1258.78 C 1179.07 1299.15 1224.85 1280.59 1260.56 1243.03 C 1259.55 1255.4 1260.49 1282.03 1260.51 1295.54 L 1260.56 1746.54 L 681.193 1746.54 C 580.032 1746.54 475.998 1747.79 375.027 1746.54 L 374.992 1239.36 C 374.997 1206.86 373.442 1172.93 379.829 1140.96 C 401.822 1030.86 496.216 946.955 608.446 938.361 z" fill="url(#Gradient1)" transform="translate(0,0)"></path>
<path d="M 796.115 281.142 C 947.135 269.35 1079.04 382.399 1090.5 533.445 C 1101.97 684.491 988.629 816.15 837.558 827.282 C 686.954 838.38 555.789 725.469 544.362 574.889 C 532.935 424.309 645.56 292.897 796.115 281.142 z M 820.509 688.675 C 895.546 687.73 955.712 626.322 955.124 551.281 C 954.536 476.24 893.415 415.783 818.372 416.014 C 742.823 416.246 681.868 477.87 682.46 553.418 C 683.052 628.965 744.965 689.626 820.509 688.675 z" fill="rgb(0,0,0)" transform="translate(0,0)"></path>
<path d="M 1141.39 1044.99 L 1675.08 1044.99 L 1675.08 1174.46 L 1401.75 1174.43 C 1358.13 1174.43 1309.09 1175.78 1266.14 1174.46 C 1258.2 1142.6 1240.44 1128.73 1216.26 1108.69 L 1173.23 1072.44 C 1163.68 1064.5 1149.53 1053.66 1141.39 1044.99 z" fill="rgb(11,119,246)" transform="translate(0,0)"></path>
<metadata><recraft-signature>{"signed_by": "recraft", "signature_b64": "OZGf2GeXtWQ2N73VmY7Kt3Fv761Gt0I/544DUxtsWF+zck1Xs5FofcRuABE8iriKdsYuPHWKBQTCu4YNQv1MCA==", "signing_algo": "Ed25519", "generation_timestamp": 1773000544, "identifier": "1fbc49c2-38df-4eab-a1cb-e0b05cc9aaa9"}</recraft-signature></metadata></svg>