<svg xmlns="http://www.w3.org/2000/svg" height="512" preserveAspectRatio="none" style="display: block;" version="1.1" viewBox="0 0 2048 2048" width="512">
<path d="M 348.063 416.448 L 1662.96 416.348 C 1735.03 416.157 1797.74 430.17 1798.6 517.861 L 1798.95 1481.15 C 1798.92 1552.53 1788.82 1611.16 1704.05 1613 L 396.145 1613.07 C 256.211 1614.38 248.832 1570.68 249.048 1440.6 L 249.034 543.681 C 249.048 474.562 260.084 418.739 348.063 416.448 z M 1704.05 1536 C 1721.83 1533.82 1721.01 1516.9 1721.15 1503.04 L 1721.4 515.39 C 1721.5 496.14 1712.72 494.208 1695.28 494.117 L 348.063 493.988 C 317.38 498.243 328.999 550.903 329.026 578.468 L 329.036 1453.91 C 329.205 1522.33 312.803 1536.51 390.464 1536.06 L 1593.53 1536 C 1627.43 1536 1670.78 1534.7 1704.05 1536 z" fill="rgb(0,0,0)" transform="translate(0,0)"></path>
<path d="M 804.902 833.469 C 832.101 833.816 859.972 833.489 887.223 833.469 C 908.436 892.639 927.388 956.287 947.385 1016.25 L 983.549 1124.12 C 987.427 1135.48 1007.84 1189.46 1005.74 1196.98 C 999.043 1202.55 947.497 1202.61 940.516 1199.25 C 933.231 1190.75 916.019 1126.05 910.895 1109.96 L 893.145 1109.96 L 780.897 1109.96 C 772.638 1139.68 765.026 1172.58 753.014 1200.99 C 667.8 1204.89 686.471 1200.46 711.254 1124.15 L 786.027 886.707 C 789.609 875.6 800.072 842 804.902 833.469 z M 796.399 1053.33 L 846.75 1053.33 C 861.481 1053.51 878.634 1054.11 893.145 1053.33 L 861.718 949.019 C 857.606 935.068 848.453 907.095 847.453 894.363 L 846.75 893.621 L 842.164 902.159 C 827.326 930.022 809.434 1016.84 796.399 1053.33 z" fill="rgb(0,0,0)" transform="translate(0,0)"></path>
<path d="M 468.301 833.469 L 531.071 833.395 C 576.208 833.422 619.342 832.18 654.622 866.186 C 697.296 907.321 698.749 990.594 656.904 1032.87 C 621.98 1068.16 576.023 1068 529.5 1067.96 L 512.999 1067.96 L 513.077 1145.28 C 513.089 1159.66 515.063 1184.23 509.466 1197.3 C 507.855 1201.06 446.669 1212.27 446.344 1186.85 C 445.869 1170.7 446.015 1154.85 446.008 1138.82 L 445.986 916.688 C 445.99 885.449 433.263 834.906 468.301 833.469 z M 512.999 1010.49 C 546.171 1010.74 576.298 1014.46 604.108 995.842 C 624.277 974.068 625.724 927.736 604.379 906.944 C 584.943 888.01 538.625 889.342 512.999 890.427 L 512.999 1010.49 z" fill="rgb(0,0,0)" transform="translate(0,0)"></path>
<path d="M 1519.6 833.469 C 1530.84 833.2 1590.95 831.293 1596.07 836.31 C 1598.37 847.932 1578.31 866.23 1571.77 874.941 C 1543.62 912.449 1499.72 958.669 1476.26 995.842 C 1506.19 1037.67 1535.65 1083.58 1564.05 1126.67 C 1577.43 1146.53 1596.07 1170 1603.67 1192.22 C 1605.8 1206.92 1533.71 1202.2 1529.69 1196.12 C 1496.28 1145.55 1463.13 1094.69 1428.82 1044.67 C 1422.54 1051.69 1403.09 1074.68 1398.94 1082.31 C 1398.92 1098.35 1400.75 1188.5 1397.41 1198.49 C 1393.33 1201.75 1332.79 1205.03 1331.39 1194.53 C 1329.2 1178.13 1329.68 1158.19 1329.67 1141.52 L 1329.74 897.05 C 1329.82 871.751 1318.83 834.908 1344.8 833.469 C 1359.01 832.549 1384.33 833.288 1398.94 833.469 C 1398.02 857.997 1398.72 880.971 1398.86 905.33 L 1398.94 1000.31 C 1440.28 947.157 1476.75 886.885 1519.6 833.469 z" fill="rgb(0,0,0)" transform="translate(0,0)"></path>
<path d="M 1157.35 829.561 C 1185.73 827.673 1233.17 834.888 1257.71 849.475 C 1254.15 862.834 1242.59 893.533 1236.24 905.657 C 1199.01 884.927 1109.19 878.887 1111.07 935.646 C 1113.06 995.599 1271.85 974.592 1274.09 1094.22 C 1275.78 1184.53 1196.08 1205.34 1123.75 1205 C 1102.46 1203.35 1026.19 1198.29 1038.42 1164.8 C 1043.59 1150.67 1048.86 1136.61 1054.47 1122.63 C 1090.69 1136.79 1108.04 1148.45 1151.66 1145.71 C 1191.65 1143.2 1229.52 1107.34 1193.83 1070.58 C 1180.73 1057.07 1142.91 1047.04 1123.5 1039.63 C 1000.15 992.532 1022.14 840.941 1157.35 829.561 z" fill="rgb(0,0,0)" transform="translate(0,0)"></path>
<metadata><recraft-signature>{"signed_by": "recraft", "signature_b64": "Pszpf/6tpj4XgUvCQd8XoKogC4qVVtEmgPyMz8SBjy9XZ5QSR5nr5ulomfgSNH/kjXqSF8nsMQmppwuRCtj/DQ==", "signing_algo": "Ed25519", "generation_timestamp": 1772996101, "identifier": "c1a7f15b-24f8-4b01-a802-aab30f972396"}</recraft-signature></metadata></svg>