<svg xmlns="http://www.w3.org/2000/svg" height="512" preserveAspectRatio="none" style="display: block;" version="1.1" viewBox="0 0 2048 2048" width="512">
<path d="M 257.026 425.995 L 1791.87 425.995 L 1791.87 1622.14 C 1787.02 1622.86 1763 1622.23 1756.25 1622.21 L 380.532 1622.14 C 339.697 1622.14 297.761 1621.62 257.026 1622.14 L 257.051 471.613 C 257.093 456.521 257.749 440.979 257.026 425.995 z M 690.995 1497.88 L 1662.25 1497.88 L 1664.2 1497.64 C 1668.57 1486.29 1665.47 1321.12 1665.49 1296 L 1666 1086.65 L 700.499 1086.65 C 683.36 1087.1 690.917 1107.62 690.979 1126.72 L 690.981 1401.35 C 690.976 1432.45 690.188 1467.16 690.995 1497.88 z M 690.995 958.701 L 1634.88 958.608 C 1642.21 958.589 1659.38 958.033 1666 958.701 C 1664.87 940.838 1665.76 922.737 1665.92 904.787 L 1666 548.989 L 690.995 548.989 L 690.995 958.701 z M 381.997 548.989 L 381.997 958.701 C 441.504 958.681 504.949 957.516 564.123 958.701 C 564.663 913.701 564.117 867.677 564.115 822.567 L 564.123 548.989 L 381.997 548.989 z M 381.997 1086.65 L 381.997 1497.88 L 554.25 1497.88 L 564.123 1497.88 L 564.132 1266.1 C 564.137 1206.74 564.839 1145.85 564.123 1086.65 C 509.002 1085.33 448.196 1086.65 392.499 1086.65 L 381.997 1086.65 z" fill="rgb(0,0,0)" transform="translate(0,0)"></path>
<metadata><recraft-signature>{"signed_by": "recraft", "signature_b64": "P/0WMpwOk+bpNuX5Ndx3ma36Q1l9zuiX0vGxBnzCPE6HLGRblObQxCDUP9/VSfxu1JZgfpxACGKd3qypEbnWAQ==", "signing_algo": "Ed25519", "generation_timestamp": 1772996258, "identifier": "a083a18c-4724-4f24-a06c-88d4a6c0ccb6"}</recraft-signature></metadata></svg>