<svg xmlns="http://www.w3.org/2000/svg" height="512" preserveAspectRatio="none" style="display: block;" version="1.1" viewBox="0 0 2048 2048" width="512">
<path d="M 382.733 298.992 C 388.316 298.338 421.571 298.969 428.948 298.987 L 1569.27 299.02 C 1686.6 299.011 1747.48 288.75 1748.27 431.555 L 1748.32 1561.79 C 1748.34 1636.93 1764.19 1727.18 1665.71 1746.63 L 442.038 1746.7 C 385.297 1746.8 319.515 1747.44 303.714 1675.04 C 299.512 1655.79 300.929 1631.94 300.981 1611.9 L 300.992 486.852 C 300.98 408.464 282.77 320.461 382.733 298.992 z M 469.168 466.86 C 467.689 492.63 469.166 532.751 469.175 560.048 L 469.193 1502.16 C 469.211 1523.46 470.339 1558.25 469.168 1578.54 C 491.786 1579.17 516.604 1578.55 539.441 1578.55 L 678.929 1578.54 L 1484.74 1578.54 C 1513.64 1578.54 1554.57 1577.17 1582.34 1578.54 L 1582.34 466.86 C 1560.15 466.105 1534.79 466.854 1512.21 466.861 L 1374.49 466.86 L 469.168 466.86 z" fill="rgb(0,0,0)" transform="translate(0,0)"></path>
<path d="M 1236.05 644.99 C 1291.16 644.027 1349.18 644.967 1404.51 644.99 C 1405.78 678.905 1404.52 721.106 1404.52 755.904 L 1404.51 1267.25 C 1404.51 1313.58 1405.57 1363.65 1404.51 1409.58 L 1404.08 1410.94 C 1398.91 1411.95 1348.57 1409.46 1337.55 1409.47 L 1236.05 1409.58 L 1236.05 644.99 z" fill="rgb(0,0,0)" transform="translate(0,0)"></path>
<metadata><recraft-signature>{"signed_by": "recraft", "signature_b64": "qatCg5Kcbo4fYV40gmzC0MTLqD6Us10DvuPv3k/xmhjmxOr+l8n+nI+sSV1juvvZ9D28okRdf4pQhdUD44tkDA==", "signing_algo": "Ed25519", "generation_timestamp": 1772989979, "identifier": "9a9f8b92-dd74-48fe-9804-ca1320c0b8eb"}</recraft-signature></metadata></svg>