<svg xmlns="http://www.w3.org/2000/svg" height="512" preserveAspectRatio="none" style="display: block;" version="1.1" viewBox="0 0 2048 2048" width="512">
<path d="M 354.5 1189.88 L 756.169 1189.79 C 844.15 1189.65 858.534 1203 858.082 1290.73 L 858.443 1690.8 C 858.45 1727.83 827.84 1756.17 791.113 1756.05 C 776.601 1757.05 763.242 1756.03 748.784 1756.12 L 365.499 1756.08 C 287.073 1755.88 282.974 1713.97 282.974 1647.55 L 282.985 1260.44 C 282.985 1213.93 307.997 1189.13 354.5 1189.88 z M 416.68 1622.01 L 724.567 1622.01 L 724.567 1323.02 L 416.68 1323.02 L 416.68 1622.01 z" fill="rgb(0,0,0)" transform="translate(0,0)"></path>
<path d="M 1443.85 1189.88 C 1498.2 1173.84 1530.03 1258.98 1549.65 1293.47 L 1720.38 1589.04 C 1733.7 1612.09 1748.02 1634.13 1760.99 1657.75 C 1783.13 1694.72 1754.34 1746.49 1714.1 1753.71 C 1688.93 1758.22 1649.05 1756.09 1622.63 1756.09 L 1454.5 1756.05 L 1275.26 1756.09 C 1249.72 1756.09 1224.14 1756.32 1198.62 1755.86 C 1150.36 1755.37 1109.51 1702.27 1133.58 1660.72 L 1368.08 1264.96 C 1387.4 1232.18 1400.52 1191.45 1443.85 1189.88 z M 1454.5 1622.01 C 1470.11 1622.03 1569.28 1623.43 1576.54 1619.28 C 1581.73 1609.66 1563.24 1586.75 1556.98 1576.26 C 1544.36 1555.1 1457.94 1396.15 1447.18 1394.54 C 1440.9 1401.54 1432.05 1420.64 1426.45 1429.89 C 1390.97 1488.5 1358.64 1549.1 1322.96 1607.58 C 1307.18 1633.48 1436 1622.02 1454.5 1622.01 z" fill="rgb(0,0,0)" transform="translate(0,0)"></path>
<path d="M 1017.53 288.239 C 1123.14 284.378 1211.95 366.715 1216.08 472.313 C 1220.21 577.911 1138.1 666.933 1032.51 671.331 C 926.543 675.746 837.13 593.274 832.986 487.295 C 828.841 381.317 911.54 292.114 1017.53 288.239 z" fill="rgb(0,0,0)" transform="translate(0,0)"></path>
<path d="M 1025.66 786.484 C 1026.81 787.294 1033.1 794.781 1034.77 796.48 L 1220.18 980.86 C 1193.78 1010.69 1151.42 1049.24 1122.18 1077.71 C 1101.31 1049.02 1051.77 1010.35 1025.66 980.86 C 1023.51 979.779 1024.19 980.011 1021.96 979.526 C 996.039 1008.49 945.849 1049.16 925.184 1077.71 C 898.651 1044.68 859.954 1012.41 829.765 980.86 C 880.283 921.636 968.169 838.211 1025.66 786.484 z" fill="rgb(0,0,0)" transform="translate(0,0)"></path>
<metadata><recraft-signature>{"signed_by": "recraft", "signature_b64": "IcjJJEywRZF58EzOx6WQNoSfIL/l6PiLSuBpSZag2PSewBXPEpLwMfQIQpVVRtZFodpaGeIoo1kBqfbXTb+rBA==", "signing_algo": "Ed25519", "generation_timestamp": 1772989645, "identifier": "cc081490-1769-4aed-8cc2-b91d1dcf0b22"}</recraft-signature></metadata></svg>