<svg xmlns="http://www.w3.org/2000/svg" height="512" preserveAspectRatio="none" style="display: block;" version="1.1" viewBox="0 0 2048 2048" width="512">
<path d="M 371.449 435.009 L 1634.26 434.937 C 1738.34 434.683 1761.08 455.983 1761.09 563.923 L 1761.07 1445.95 C 1761.13 1512.55 1764.04 1581.02 1674.79 1592.11 L 428.021 1592.15 C 370.075 1592.28 302.39 1594.11 289.944 1517.96 C 287.715 1504.33 288.797 1487.02 288.839 1472.98 L 288.873 582.733 C 288.852 513.005 279.034 449.172 371.449 435.009 z M 1593.5 1546.96 C 1688.22 1547.29 1716.89 1564.31 1716.95 1452.37 L 1716.69 539.692 C 1716.23 474.531 1682.55 479.919 1628.3 479.94 L 453.228 479.998 C 424.071 479.907 366.024 473.366 345.548 494.066 C 329.45 510.341 333.017 533.548 333.016 554.589 L 333.371 1497.62 C 333.748 1554.24 390.863 1547.02 429.871 1546.99 L 1593.5 1546.96 z" fill="rgb(1,1,1)" transform="translate(0,0)"></path>
<path d="M 1012.71 832.386 C 1029.01 831.651 1038.9 836.362 1053.48 837.145 C 1069.42 838.001 1090.94 822.892 1097.14 851.644 C 1099.23 861.328 1086.44 866.188 1079.25 866.804 C 1085.53 885.063 1086.07 904.973 1070.87 919.059 C 1046.42 941.726 997.881 927.136 998.219 939.415 C 1007.12 955.113 1057.57 943.139 1077.09 959.38 C 1098.4 977.103 1098.92 1006.09 1084.19 1026.25 C 1052.31 1066.31 936.286 1062.37 947.791 995.279 C 949.536 985.099 957.66 979.772 965.722 974.395 C 951.548 952.345 954.996 940.945 973.217 922.991 C 929.773 886.627 958.272 837.284 1012.71 832.386 z M 1029.96 1017.87 C 1036.27 1016.38 1038.76 1015.25 1044.19 1011.55 C 1058.58 984.534 1028.17 983.664 1009.57 983.437 C 975.079 988.325 987.867 1022.37 1029.96 1017.87 z M 1009.57 904.679 C 1016.69 905.562 1018.51 905.787 1025.89 904.679 C 1051.38 896.178 1045.13 861.096 1012.71 863.161 C 992.872 873.555 990.711 891.836 1009.57 904.679 z" fill="rgb(1,1,1)" transform="translate(0,0)"></path>
<path d="M 892.843 773.016 C 918.114 764.351 919.821 784.327 919.916 803.045 C 920.202 858.882 919.976 914.731 920.259 970.566 C 920.416 1001.38 888.15 1005.84 877.021 974.395 C 859.758 997.914 830.036 1000.73 804.653 990.343 C 740.461 960.525 751.055 821.736 840.554 832.837 C 856.355 834.796 867.017 840.065 877.021 852.731 C 876.947 827.483 865.375 774.846 892.843 773.016 z M 849.691 958.845 C 894.734 935.97 881.595 866.6 836.907 869.295 C 797.368 881.998 794.33 956.3 848.899 958.817 L 849.691 958.845 z" fill="rgb(1,1,1)" transform="translate(0,0)"></path>
<path d="M 438.018 778.998 C 471.75 776.517 526.336 775.368 551.061 798.296 C 576.427 821.82 579.046 874.958 554.514 899.829 C 533.318 921.318 502.784 919.221 474.808 919.037 C 447.044 919.164 490.302 1010.96 435.189 995.544 C 408.324 988.027 419.241 832.535 420.775 804.234 C 421.6 789.023 422.907 783.685 438.018 778.998 z M 515.561 875.399 C 549.279 831.909 505.558 813.645 465.49 815.007 C 464.695 836.706 465.52 860.934 465.49 882.91 C 481.493 883.686 502.89 886.927 515.561 875.399 z" fill="rgb(1,1,1)" transform="translate(0,0)"></path>
<path d="M 1364.46 831.807 C 1410.16 824.237 1453.33 855.199 1460.82 900.917 C 1468.3 946.634 1437.26 989.746 1391.52 997.145 C 1345.91 1004.52 1302.94 973.58 1295.48 927.984 C 1288.01 882.388 1318.88 839.357 1364.46 831.807 z M 1387.53 958.845 C 1424.8 946.312 1424.83 865.952 1373.95 869.295 C 1321.99 882.358 1335.55 966.134 1387.53 958.845 z" fill="rgb(1,1,1)" transform="translate(0,0)"></path>
<path d="M 1186.61 831.583 C 1232.2 827.556 1272.43 861.203 1276.53 906.779 C 1280.63 952.356 1247.04 992.642 1201.47 996.813 C 1155.8 1000.99 1115.41 967.318 1111.3 921.64 C 1107.19 875.963 1140.93 835.62 1186.61 831.583 z M 1200.02 958.845 C 1241.39 949.489 1239.38 864.62 1187.9 869.295 C 1144.34 883.156 1148.95 962.844 1200.02 958.845 z" fill="rgb(1,1,1)" transform="translate(0,0)"></path>
<path d="M 473.56 1124.68 C 515.506 1117.96 554.887 1146.72 561.251 1188.72 C 567.615 1230.73 538.521 1269.86 496.467 1275.87 C 454.914 1281.81 416.344 1253.13 410.055 1211.63 C 403.767 1170.13 432.113 1131.32 473.56 1124.68 z M 494.212 1239.65 C 528.1 1226.41 529.559 1162.22 478.391 1159.69 C 443.621 1176.59 447.068 1246.4 491.917 1239.97 L 494.212 1239.65 z" fill="rgb(1,1,1)" transform="translate(0,0)"></path>
<path d="M 1501.78 773.016 C 1540.14 771.889 1532.14 789.737 1532.57 822.376 L 1532.91 894.125 C 1548.45 879.358 1580.33 837.502 1596.87 836.325 C 1663.16 831.611 1587.79 891.131 1582.11 897.505 L 1581.22 898.523 C 1592.95 923.626 1630.41 959.413 1631.11 978.512 C 1626.48 996.224 1605.27 1001.77 1592.95 990.548 C 1574.8 974.011 1565.87 945.864 1548.35 928.022 L 1547.31 926.969 C 1527.94 944.617 1534.56 959.112 1532.91 983.437 C 1524.42 995.889 1497.57 1003.09 1490.26 986.56 C 1486.02 976.952 1487.31 812.663 1488.27 792.857 C 1488.82 781.611 1490.73 776.977 1501.78 773.016 z" fill="rgb(1,1,1)" transform="translate(0,0)"></path>
<path d="M 658.763 832.386 C 741.874 823.323 762.521 919.388 726.712 926.064 C 719.627 927.385 701.427 926.96 693.168 926.97 L 638.258 926.969 C 645.261 989.026 705.52 940.707 725.684 953.581 C 756.523 996.189 655.563 1008.34 619.211 979.966 C 568.706 940.539 584.886 839.321 658.763 832.386 z M 638.258 894.125 L 675.948 894.125 C 683.079 894.138 691.063 894.338 698.119 894.125 C 695.614 872.033 685.956 863.061 663.681 866.804 C 645.869 870.466 642.28 876.684 638.258 894.125 z" fill="rgb(1,1,1)" transform="translate(0,0)"></path>
<path d="M 1349.73 1068.21 C 1360.74 1066.93 1366.26 1069.74 1373.95 1077.19 C 1374.9 1085.71 1374.06 1102.16 1374.04 1111.49 L 1373.95 1177.88 C 1393.19 1160.69 1407.59 1133.71 1431.32 1122.98 C 1437.87 1118.57 1462.55 1120.22 1462.52 1131.16 C 1462.46 1149.97 1430.61 1170.79 1421.82 1187.38 C 1432.86 1204.83 1466.36 1242.98 1469.62 1260.53 C 1447.31 1316.36 1397.14 1225.76 1387.53 1213.66 C 1361.29 1229.71 1386.65 1273.18 1360.68 1277.75 C 1324.28 1284.15 1331.06 1237.68 1331.03 1218.33 L 1330.96 1157.53 C 1330.95 1129.85 1319.45 1073.22 1349.73 1068.21 z" fill="rgb(1,1,1)" transform="translate(0,0)"></path>
<path d="M 604.713 1068.21 C 639.629 1070.05 633.118 1092.48 633.103 1120.15 L 633 1177.88 C 647.034 1157.3 701.705 1091.57 717.581 1142.43 C 713.21 1155.43 687.205 1176.88 675.948 1187.38 C 685.944 1199.57 723.025 1245.35 722.523 1260.53 C 696.48 1311.51 659.212 1236.78 643.83 1216.91 C 639.565 1220.74 635.389 1224.28 633 1229.46 C 633.607 1252.39 638.387 1270.33 611.429 1276.97 L 606.328 1275.77 C 590.761 1272.12 589.486 1264.09 588.799 1249.76 C 588.012 1233.33 587.141 1087.17 589.828 1080.37 C 592.385 1073.89 598.745 1070.82 604.713 1068.21 z" fill="rgb(1,1,1)" transform="translate(0,0)"></path>
<path d="M 913.755 1120.99 C 1015.31 1105.17 989.6 1180.88 996.827 1236.39 C 1001.53 1272.5 978.499 1295.39 957.568 1260.53 C 934.575 1282.3 912.893 1280.35 884.93 1271.09 C 874.228 1259.32 867.134 1250.5 866.596 1233.44 C 865.108 1176.93 909.944 1180.8 953.397 1180.96 C 954.215 1112.2 873.926 1205.57 874.482 1142.43 C 883.196 1126.27 897.047 1123.75 913.755 1120.99 z M 936.097 1243.6 C 954.422 1236.18 953.382 1228.19 953.397 1210.15 C 944.729 1209.54 936.77 1209.89 928.125 1210.15 C 902.511 1215.22 904.105 1250.51 936.097 1243.6 z" fill="rgb(1,1,1)" transform="translate(0,0)"></path>
<path d="M 1075.1 1120.99 C 1158.42 1110.25 1143.57 1179.94 1111.65 1161.66 C 1100.99 1155.55 1068.24 1143.78 1069.12 1167.07 C 1068.91 1181.97 1114.25 1182.76 1130.42 1198.71 C 1164.78 1232.62 1132.92 1277.29 1079.25 1276.97 C 1052.8 1278.49 1007.44 1256.89 1028.67 1234.06 C 1048.67 1212.55 1075.32 1262.91 1095.04 1240.98 C 1118.35 1208.89 1030.91 1222.76 1024.94 1175.96 C 1020.79 1143.41 1044.19 1123.45 1075.1 1120.99 z" fill="rgb(1,1,1)" transform="translate(0,0)"></path>
<path d="M 782.774 1088.23 C 806.212 1087.27 804.342 1110.05 804.653 1126.29 C 813.72 1126.54 828.88 1125.83 836.224 1131.17 C 842.784 1135.93 845.53 1150.62 838.288 1155.83 C 830.69 1161.3 813.984 1159.82 804.653 1159.69 C 804.763 1171.23 799.796 1232.76 809.373 1239.21 C 821.468 1247.35 844.027 1229.38 842.995 1254.83 C 842.69 1262.36 842.547 1265.39 836.907 1271.09 C 812.812 1284.42 767.648 1277.78 762.501 1246.6 C 758.079 1219.81 760.016 1187.31 760.071 1159.69 C 728.614 1160.08 730.894 1125.37 760.071 1126.29 C 760.366 1117.88 759.854 1109.35 760.071 1100.72 C 767.309 1093.65 772.873 1089.92 782.774 1088.23 z" fill="rgb(1,1,1)" transform="translate(0,0)"></path>
<path d="M 1267.11 1120.99 C 1274.98 1120.62 1288.41 1121.1 1292.42 1129.48 C 1298.43 1142.02 1294.62 1261.29 1292.05 1266.53 C 1289.31 1272.1 1284.72 1275.03 1279.01 1276.97 C 1269.23 1278.45 1256.79 1275.75 1252.51 1265.64 C 1247.99 1254.95 1248.42 1138.92 1252.66 1129.58 C 1255.23 1123.92 1261.75 1122.62 1267.11 1120.99 z" fill="rgb(1,1,1)" transform="translate(0,0)"></path>
<path d="M 1187.9 1120.99 C 1196.72 1120.49 1208.97 1121.59 1213.63 1130.37 C 1216.49 1135.75 1216.42 1254.93 1213.42 1263.99 C 1211.14 1270.89 1206.25 1273.99 1200.02 1276.97 C 1190.68 1277.71 1176.58 1276.14 1173.17 1265.44 C 1169.7 1254.55 1169.5 1136.96 1173.19 1130.11 C 1176.2 1124.54 1182.36 1122.97 1187.9 1120.99 z" fill="rgb(1,1,1)" transform="translate(0,0)"></path>
<path d="M 1187.9 1068.21 C 1221.55 1063.36 1226.96 1100.81 1200.02 1110.07 C 1170.89 1114.92 1158.72 1076.93 1187.9 1068.21 z" fill="rgb(1,1,1)" transform="translate(0,0)"></path>
<path d="M 1267.11 1068.21 C 1298.56 1064.35 1302.34 1101.71 1279.01 1110.07 C 1247.36 1113.33 1235.8 1075.06 1267.11 1068.21 z" fill="rgb(1,1,1)" transform="translate(0,0)"></path>
<metadata><recraft-signature>{"signed_by": "recraft", "signature_b64": "LlJMXZL31+aKFzmGib4mHJ2NoMidsOzd9cS0xUy2O2ALMn5L5up63hyglWdd6AttfS7M7/WvPNxnflI1plz1BQ==", "signing_algo": "Ed25519", "generation_timestamp": 1772998407, "identifier": "7e4604fd-b94d-45f5-8afc-09b9b150b59c"}</recraft-signature></metadata></svg>