<svg xmlns="http://www.w3.org/2000/svg" height="512" preserveAspectRatio="none" style="display: block;" version="1.1" viewBox="0 0 2048 2048" width="512">
<path d="M 419.27 298.146 C 446.687 297.296 478.748 298.133 506.602 298.134 L 1585.15 298.093 C 1602.33 298.07 1623.94 296.99 1640.53 299.419 C 1758.49 316.693 1750.05 424.548 1749.98 510.909 L 1750 1575.64 C 1749.99 1665.87 1726.61 1744.01 1616.5 1748.47 L 471.388 1748.5 C 396.317 1748.45 324.993 1737.21 303.269 1648.47 C 296.33 1620.12 298.488 1589.69 298.511 1560.54 L 298.618 476.981 C 298.66 390.572 305.721 309.373 419.27 298.146 z M 426.091 1622.1 L 1621.02 1622.1 L 1621.02 1065 L 426.091 1065 L 426.119 1562.86 C 426.13 1579.99 426.998 1605.79 426.091 1622.1 z M 724.131 938.005 C 822.139 939.419 924.151 938.006 1022.41 938.005 L 1621.02 938.005 L 1621.02 425.448 L 759.395 425.355 C 748.318 425.303 734.879 424.756 724.131 425.448 C 723.036 437.128 724.13 466.148 724.163 478.819 L 724.131 938.005 z M 426.091 938.005 L 599.021 938.005 L 599.021 425.448 C 542.922 425.367 481.868 424.308 426.091 425.448 L 426.091 938.005 z" fill="rgb(0,0,0)" transform="translate(0,0)"></path>
<metadata><recraft-signature>{"signed_by": "recraft", "signature_b64": "dLsd19ebVMZFg67iIJWTownDQ0SiVk/Y/fSdVk0C+t68v71eOdTtkT8fy4mVXKMc+Z1wBAg0cj7JXj530pjvBQ==", "signing_algo": "Ed25519", "generation_timestamp": 1772998552, "identifier": "fb281e31-9a26-42ac-80fa-3537d59d9f1a"}</recraft-signature></metadata></svg>