<svg xmlns="http://www.w3.org/2000/svg" height="512" preserveAspectRatio="none" style="display: block;" version="1.1" viewBox="0 0 2048 2048" width="512">
<path d="M 1498.11 308.48 C 1613.47 300.569 1707.24 419.456 1664.4 527.996 C 1660.95 536.745 1654.45 548.559 1649.94 557.157 C 1668.73 559.856 1730.46 580.162 1746.85 588.704 C 1832.31 633.247 1820.96 777.838 1685.79 768.873 C 1683.71 805.517 1677.81 833.095 1661.64 866.218 C 1673.61 876.982 1691.1 904.803 1701.21 918.684 C 1732.87 962.137 1776.84 1005.94 1753.82 1064.39 C 1734.1 1114.46 1677.89 1142.29 1626.79 1122.51 C 1590.29 1108.39 1530.59 1019.15 1513.55 981.109 C 1512.19 978.7 1509.78 975.637 1508.08 973.317 C 1499.73 982.432 1490.7 996.38 1483.48 1006.92 L 1445.73 1062.08 C 1439.15 1071.5 1432.89 1080.63 1425.71 1089.91 C 1347 1191.13 1195.95 1078.26 1271.53 974.423 C 1296.84 939.658 1328.6 895.587 1351.68 859.197 C 1348.22 837.778 1334.1 792.171 1327.92 768.873 C 1246.72 781.505 1192.08 699.255 1228.78 628.14 C 1255.55 576.27 1311.91 572.906 1362.46 557.157 C 1304.12 445.355 1370.98 316.835 1498.11 308.48 z M 1412.84 885.852 C 1424.18 901.743 1441.52 926.096 1456.21 938.06 C 1460.54 928.239 1466.63 920.36 1470.92 913.034 C 1504.93 854.971 1523.13 887.545 1548.39 923.871 L 1613.5 1017.57 C 1624.14 1032.86 1634.42 1056.72 1652.74 1061.28 C 1682.43 1068.66 1705.43 1038.73 1688.51 1012.06 C 1661.82 970 1625.34 931.205 1598.5 887.104 C 1583.48 862.002 1623.16 799.256 1621.53 750.134 C 1619.35 718.272 1623.88 697.293 1661.64 699.29 C 1664.99 688.773 1616.16 684.835 1661.64 628.565 C 1647.34 624.86 1632.66 618.561 1618.57 614.104 C 1582.2 602.599 1547.39 597.739 1572.63 550.413 C 1564.1 552.946 1554.57 559.22 1545.76 562.453 C 1504.69 577.512 1479.92 566.904 1443.19 552.511 C 1462.9 582.463 1447.31 600.014 1416.04 609.055 C 1383.11 618.579 1290.67 632.499 1282.33 665.947 C 1278.16 682.606 1289.48 704.179 1307.15 707.175 C 1326.28 711.889 1363.33 690.367 1376.25 713.19 L 1377.16 714.778 C 1383.16 725.355 1388.51 748.039 1392.05 760.777 L 1408.8 821.096 C 1415.44 845.805 1424.54 861.07 1412.84 885.852 z M 1689.79 704.792 C 1737.34 708.803 1753.95 668.015 1722.35 650.102 C 1713.01 674.603 1701.06 684.123 1689.79 704.792 z" fill="rgb(22,21,21)" transform="translate(0,0)"></path>
<path d="M 1502.51 765.466 C 1519.17 761.948 1535.53 772.598 1539.05 789.255 C 1542.57 805.912 1531.93 822.271 1515.27 825.797 C 1498.61 829.325 1482.24 818.674 1478.72 802.011 C 1475.2 785.348 1485.85 768.985 1502.51 765.466 z" fill="rgb(22,21,21)" transform="translate(0,0)"></path>
<path d="M 1507.45 655.697 C 1524.08 654.775 1538.42 667.265 1539.79 683.864 C 1541.15 700.463 1529.05 715.131 1512.49 716.942 C 1501.38 718.157 1490.49 713.245 1484.04 704.114 C 1477.6 694.982 1476.61 683.071 1481.48 673.008 C 1486.34 662.945 1496.29 656.316 1507.45 655.697 z" fill="rgb(22,21,21)" transform="translate(0,0)"></path>
<path d="M 1443.19 552.511 C 1438.66 546.526 1431.81 540.268 1426.94 534.311 C 1371.42 466.406 1428.02 368.75 1512.91 372.56 C 1600.98 375.297 1645.48 484.511 1572.63 550.413 C 1564.1 552.946 1554.57 559.22 1545.76 562.453 C 1504.69 577.512 1479.92 566.904 1443.19 552.511 z" fill="rgb(225,180,116)" transform="translate(0,0)"></path>
<path d="M 1549.29 433.768 C 1565 431.439 1579.66 442.172 1582.19 457.85 C 1584.71 473.527 1574.16 488.322 1558.52 491.044 C 1548.22 492.836 1537.76 488.95 1531.13 480.873 C 1524.5 472.797 1522.72 461.777 1526.48 452.026 C 1530.24 442.275 1538.96 435.3 1549.29 433.768 z" fill="rgb(22,21,21)" transform="translate(0,0)"></path>
<path d="M 1456.07 434.718 C 1466.26 431.963 1477.15 434.974 1484.48 442.578 C 1491.81 450.182 1494.42 461.172 1491.3 471.261 C 1488.17 481.35 1479.81 488.939 1469.46 491.066 C 1454.12 494.22 1439.06 484.619 1435.44 469.387 C 1431.82 454.155 1440.95 438.802 1456.07 434.718 z" fill="rgb(22,21,21)" transform="translate(0,0)"></path>
<path d="M 1456.21 938.06 C 1423.98 968.121 1400.74 1024.3 1371.54 1054.38 C 1352.49 1074 1325.02 1062.59 1317.38 1038.89 C 1311.49 1016.67 1396.84 912.203 1412.84 885.852 C 1424.18 901.743 1441.52 926.096 1456.21 938.06 z" fill="rgb(225,180,116)" transform="translate(0,0)"></path>
<path d="M 1661.64 628.565 C 1678.13 633.685 1708.47 641.835 1722.35 650.102 C 1713.01 674.603 1701.06 684.123 1689.79 704.792 C 1682.38 703.391 1667.9 701.38 1661.64 699.29 C 1664.99 688.773 1616.16 684.835 1661.64 628.565 z" fill="rgb(225,180,116)" transform="translate(0,0)"></path>
<path d="M 524.04 308.48 C 607.629 292.165 693.496 364.913 705.519 446.335 C 712.51 493.683 702.971 515.067 686.575 557.157 C 722.897 562.742 791.922 589.899 812.98 618.211 C 864.748 687.814 806.166 784.574 722.125 771.86 C 715.209 812.884 707.336 829.35 696.875 866.218 C 714.548 884.858 733.837 916.445 749.529 937.837 C 772.709 969.441 798.777 992.098 797.843 1034.01 C 796.298 1103.39 723.213 1151.28 659.818 1120.4 C 601.049 1091.84 588.98 1016.61 544.885 973.317 C 540.67 971.391 527.809 994.963 525.339 998.973 L 495.156 1048.67 C 475.09 1081.83 454.914 1117.17 414.371 1127.65 C 342.293 1146.27 272.673 1079.77 294.573 1006.84 C 305.789 970.28 370.756 891.871 393.103 853.872 C 378.179 829.273 369.03 797.323 365.578 768.873 C 295.568 785.546 233.082 720.02 249.739 651.58 C 266.817 581.407 341.107 573 402.464 557.157 C 360.037 486.484 366.387 405.231 430.016 348.628 C 453.671 327.586 491.355 306.601 524.04 308.48 z M 435.25 907.95 L 436.943 907.814 C 472.943 904.661 470.992 900.237 497.316 928.209 C 513.117 886.555 552.497 865.726 581.172 910.196 C 594.131 930.293 665.768 1045.52 679.713 1057.35 C 701.145 1075.53 761.107 1060.41 711.824 992.58 C 694.614 968.155 635.599 899.086 630.09 873.873 C 625.77 854.101 656.159 801.519 657.236 763.098 C 658.399 739.853 649.466 704.674 680.982 699.29 C 680.176 679.738 678.789 642.018 686.575 624.543 C 644.431 611.396 581.448 604.053 601.639 550.413 C 598.214 551.089 586.833 557.451 582.196 559.333 C 519.438 584.953 503.441 550.533 479.161 550.413 C 502.004 597.35 466.867 603.117 431.952 613.552 L 367.857 632.419 C 355.218 636.01 342.681 638.62 330.667 644.373 C 302.901 657.668 308.064 696.36 334.607 706.744 C 363.731 718.138 401.396 678.546 421.799 718.603 C 430.961 739.667 420.501 780.81 438.103 814.254 C 462.063 859.781 464.65 864.209 435.25 907.95 z M 722.125 704.792 C 757.967 718.956 805.581 667.138 731.379 641.328 C 731.104 674.576 728.437 674.406 722.125 704.792 z" fill="rgb(22,21,21)" transform="translate(0,0)"></path>
<path d="M 531.619 766.065 C 548.294 761.233 565.712 770.919 570.406 787.634 C 575.1 804.348 565.271 821.685 548.518 826.241 C 531.96 830.745 514.867 821.054 510.227 804.533 C 505.588 788.012 515.137 770.841 531.619 766.065 z" fill="rgb(22,21,21)" transform="translate(0,0)"></path>
<path d="M 533.626 650.968 C 544.587 648.794 555.868 652.712 563.122 661.212 C 570.376 669.712 572.471 681.469 568.601 691.952 C 564.73 702.435 555.498 710.009 544.461 711.756 C 527.847 714.385 512.185 703.234 509.234 686.675 C 506.282 670.115 517.127 654.24 533.626 650.968 z" fill="rgb(22,21,21)" transform="translate(0,0)"></path>
<path d="M 479.161 550.413 C 474.391 541.962 466.318 535.649 460.542 527.947 C 405.464 454.503 475.289 350.502 564.692 372.869 C 650.648 394.373 666.424 489.033 601.639 550.413 C 598.214 551.089 586.833 557.451 582.196 559.333 C 519.438 584.953 503.441 550.533 479.161 550.413 z" fill="rgb(225,180,116)" transform="translate(0,0)"></path>
<path d="M 581.432 436.793 C 596.7 433.459 611.815 443.001 615.372 458.218 C 618.929 473.435 609.608 488.688 594.445 492.466 C 584.437 494.96 573.862 491.87 566.771 484.381 C 559.68 476.891 557.173 466.163 560.209 456.307 C 563.246 446.45 571.356 438.993 581.432 436.793 z" fill="rgb(22,21,21)" transform="translate(0,0)"></path>
<path d="M 495.857 436.095 C 511.391 433.862 525.821 444.569 528.184 460.084 C 530.548 475.599 519.961 490.118 504.467 492.611 C 488.788 495.134 474.058 484.393 471.667 468.694 C 469.275 452.995 480.138 438.356 495.857 436.095 z" fill="rgb(22,21,21)" transform="translate(0,0)"></path>
<path d="M 435.25 907.95 L 436.943 907.814 C 472.943 904.661 470.992 900.237 497.316 928.209 C 471.112 960.311 443.327 1010.73 421.194 1046.3 C 394.023 1086.59 344.348 1054.78 358.642 1022.41 C 370.388 995.813 416.107 933.374 435.25 907.95 z" fill="rgb(225,180,116)" transform="translate(0,0)"></path>
<path d="M 686.575 624.543 C 696.759 627.814 722.361 636.451 731.379 641.328 C 731.104 674.576 728.437 674.406 722.125 704.792 C 704.3 701.54 699.342 696.222 680.982 699.29 C 680.176 679.738 678.789 642.018 686.575 624.543 z" fill="rgb(225,180,116)" transform="translate(0,0)"></path>
<path d="M 1011.88 991.39 C 1117.87 980.264 1213.81 1093.58 1182.26 1196.31 C 1178.14 1209.73 1170.87 1224.59 1164.94 1237.47 C 1197.38 1242.48 1268.32 1268.79 1289.18 1290.57 C 1343.38 1347.14 1311.74 1442.62 1234.9 1456.23 C 1223.54 1458.24 1210.68 1457.26 1199.14 1456.98 C 1196.92 1493.06 1188.99 1506.15 1179.51 1538.29 C 1203.1 1583.61 1231.99 1622.15 1259.5 1664.85 C 1312.79 1747.56 1190.12 1861.12 1105.02 1778.99 C 1085.38 1759.91 1042.06 1693.48 1029.05 1668.44 L 1022.37 1661.48 L 975.341 1731.93 C 964.952 1747.46 953.333 1766.91 940.284 1779.7 C 890.926 1828.08 803.565 1807.78 781.73 1741.65 C 758.292 1670.67 837.329 1603.37 869.823 1538.29 C 855.277 1508.88 848.38 1486.53 844.614 1453.55 C 761.886 1457.26 703.279 1388.09 742.879 1310.38 C 771.316 1254.58 831.223 1255.84 882.538 1238.12 L 884.376 1237.47 C 823.261 1128.6 886.079 1006.35 1011.88 991.39 z M 911.366 1596.06 C 922.779 1598.58 954.75 1577.57 982.314 1605.6 C 998.025 1581.03 1020.64 1546.58 1047.65 1585.55 C 1075.58 1625.84 1101.09 1667.54 1130.2 1707.11 C 1145.17 1727.45 1153.79 1748.92 1184.08 1740.46 C 1198.1 1738.01 1212.72 1714.09 1205.65 1700.49 C 1186.11 1662.92 1119.3 1578.97 1113.19 1540.81 C 1109.12 1515.34 1136.23 1484.08 1136.78 1452.33 C 1137.33 1421.17 1127.83 1385.61 1164.94 1377.83 C 1164.07 1361.24 1163.64 1320.37 1168.44 1305.19 C 1133.77 1292.53 1066.58 1288.09 1078.56 1240.31 C 1024.97 1250.17 1031.59 1264.89 967.155 1237.47 C 988.434 1277.75 941.471 1287.24 914.163 1294.57 L 846.834 1312.62 C 830.863 1317.02 809.012 1321.34 800.615 1335.81 C 789.658 1354.7 792.829 1381.05 815.594 1388.59 C 850.916 1400.28 904.778 1349.47 904.984 1424.05 C 905.043 1445.53 909.505 1475.64 919.07 1494.93 C 944.942 1547.12 939.791 1545.65 911.366 1596.06 z M 1218.82 1392.35 C 1257.77 1385.56 1262.81 1345.95 1231.31 1325.96 C 1219.02 1350.61 1219.1 1364.91 1218.82 1392.35 z" fill="rgb(22,21,21)" transform="translate(0,0)"></path>
<path d="M 1017.52 1449.94 C 1033.98 1446.49 1050.15 1456.98 1053.71 1473.42 C 1057.26 1489.87 1046.87 1506.1 1030.44 1509.75 C 1013.88 1513.44 997.474 1502.94 993.889 1486.35 C 990.303 1469.76 1000.9 1453.42 1017.52 1449.94 z" fill="rgb(22,21,21)" transform="translate(0,0)"></path>
<path d="M 1019.54 1338.85 C 1035.88 1336.69 1050.93 1348.03 1053.36 1364.33 C 1055.79 1380.63 1044.69 1395.87 1028.43 1398.56 C 1017.67 1400.34 1006.8 1396.18 999.973 1387.68 C 993.147 1379.18 991.432 1367.67 995.485 1357.55 C 999.539 1347.43 1008.73 1340.29 1019.54 1338.85 z" fill="rgb(22,21,21)" transform="translate(0,0)"></path>
<path d="M 967.155 1237.47 C 921.568 1197.62 905.547 1137.13 949.192 1088.01 C 1008.83 1020.89 1119.37 1063 1122.94 1151.31 C 1125.07 1205.5 1100.83 1208.88 1078.56 1240.31 C 1024.97 1250.17 1031.59 1264.89 967.155 1237.47 z" fill="rgb(225,180,116)" transform="translate(0,0)"></path>
<path d="M 1065.91 1116.63 C 1082.11 1115.39 1096.26 1127.5 1097.53 1143.71 C 1098.8 1159.91 1086.7 1174.08 1070.5 1175.37 C 1054.26 1176.66 1040.06 1164.53 1038.79 1148.3 C 1037.53 1132.06 1049.67 1117.88 1065.91 1116.63 z" fill="rgb(22,21,21)" transform="translate(0,0)"></path>
<path d="M 976.271 1117.46 C 991.943 1114.33 1007.18 1124.51 1010.29 1140.19 C 1013.4 1155.86 1003.21 1171.09 987.532 1174.19 C 971.875 1177.28 956.672 1167.1 953.564 1151.45 C 950.456 1135.79 960.619 1120.58 976.271 1117.46 z" fill="rgb(22,21,21)" transform="translate(0,0)"></path>
<path d="M 911.366 1596.06 C 922.779 1598.58 954.75 1577.57 982.314 1605.6 C 956.945 1645.44 930.073 1683.91 903.354 1723.06 C 880.009 1763.31 809.331 1736.83 859.689 1672.29 C 878.895 1647.68 893.51 1620.51 911.366 1596.06 z" fill="rgb(225,180,116)" transform="translate(0,0)"></path>
<path d="M 1168.44 1305.19 C 1181.38 1308.91 1220.65 1320.51 1231.31 1325.96 C 1219.02 1350.61 1219.1 1364.91 1218.82 1392.35 C 1195.29 1390.87 1179.24 1378.61 1164.94 1377.83 C 1164.07 1361.24 1163.64 1320.37 1168.44 1305.19 z" fill="rgb(225,180,116)" transform="translate(0,0)"></path>
<metadata><recraft-signature>{"signed_by": "recraft", "signature_b64": "PyVGWa+RfSfoWa97hI9opzY95eDmGlFfBKfIjw8LZQN7ArS0is3OOTXjbANNJPoNEkvDXZTgBqetk0BZV68iDg==", "signing_algo": "Ed25519", "generation_timestamp": 1772995713, "identifier": "cdebd188-2734-4027-a186-5e9556c93901"}</recraft-signature></metadata></svg>