<svg xmlns="http://www.w3.org/2000/svg" height="512" preserveAspectRatio="none" style="display: block;" version="1.1" viewBox="0 0 2048 2048" width="512">
<path d="M 458.375 292.003 L 1655.12 291.973 C 1697.89 291.985 1748 286.855 1749.09 348.866 L 1749 1647.4 C 1749.3 1732.09 1749.02 1751.24 1658.1 1751.1 L 1589.5 1751 L 394.739 1751.05 C 300.92 1751.09 299.924 1735.51 299.964 1647.08 L 300.011 411.725 C 299.975 319.59 288.45 292.023 391.842 291.949 L 458.375 292.003 z M 409.49 399.49 L 409.49 1642.21 L 1216.5 1642.21 L 1640 1642.21 C 1638.97 1626.3 1639.9 1610.47 1639.97 1594.5 L 1640 399.49 C 1552.41 397.958 1459.49 399.495 1371.55 399.496 L 834.998 399.49 L 456.523 399.52 C 442.298 399.541 423.14 400.225 409.49 399.49 z" fill="rgb(0,0,0)" transform="translate(0,0)"></path>
<path d="M 1033.52 604.57 C 1117.52 604.41 1182.96 597.307 1247.85 663.096 C 1302.5 718.505 1307.16 765.091 1307.03 837.465 L 1307.26 906.358 C 1307.52 963.684 1286.75 1010.09 1247.01 1051.17 C 1176.85 1123.68 1098.46 1113.03 1006.57 1113.03 L 848.99 1113 L 848.99 1279.5 L 848.993 1385.09 C 849.005 1403.1 849.623 1422.81 848.99 1440.56 C 814.088 1441.76 772.438 1440.55 737.027 1440.56 L 737.025 697.153 C 737.022 667.009 736.298 634.453 737.027 604.57 L 1033.52 604.57 z M 848.99 1000.43 L 1092.52 1000.45 C 1125.41 1000.61 1145.17 995.293 1169.55 972.594 C 1209.38 927.525 1200.95 857.943 1198.97 799.248 C 1196.78 734.446 1137.21 713.771 1082.91 713.9 L 848.99 713.997 L 848.99 1000.43 z" fill="rgb(0,0,0)" transform="translate(0,0)"></path>
<metadata><recraft-signature>{"signed_by": "recraft", "signature_b64": "j0MlQIepznGFbeyVyU0FwrvBlI3Z2LYlvz9FUuuWHEN/1Bp+D+FTkomBdjSOsLyARg21vGQbGsBT889oyQpLAg==", "signing_algo": "Ed25519", "generation_timestamp": 1772998653, "identifier": "316eb12b-8a28-4c3a-8ac0-1a60658cb15c"}</recraft-signature></metadata></svg>