<svg xmlns="http://www.w3.org/2000/svg" height="512" preserveAspectRatio="none" style="display: block;" version="1.1" viewBox="0 0 2048 2048" width="512">
<path d="M 1015.54 282.16 C 1133.25 273.708 1238.67 358.728 1276.67 466.666 C 1295.63 468.421 1325.23 466.694 1345.66 466.656 L 1485.17 466.636 C 1579.52 466.587 1670.41 483.138 1696.6 594.935 C 1704.52 628.758 1701.69 676.13 1701.65 711.72 L 1701.66 928.729 C 1701.86 972.716 1700.43 1031.33 1637.52 1031.03 C 1561.66 1030.66 1524.49 1044.36 1508.71 960.91 C 1484.03 870.589 1349.76 865.211 1327.34 960.146 C 1322.92 985.237 1330.63 992.737 1307.39 1014.91 C 1271.42 1048.9 1127.55 1041.63 1156.12 945.382 C 1160 932.319 1166.5 923.97 1172.51 911.733 C 1232.94 788.871 1379.4 713.062 1509.89 775.205 C 1530.92 785.206 1549.24 797.585 1569.24 810.977 L 1569.71 637.437 C 1569.53 599.013 1542.08 597.173 1510.96 597.412 L 1282.87 597.478 C 1264.37 662.923 1244.88 702.38 1191.37 747.378 C 1041.18 873.68 791.107 778.526 766.65 597.478 L 522.015 597.441 C 434.634 597.51 450.239 631.221 450.379 706.876 L 450.401 1568.11 C 450.77 1621.77 466.419 1628.74 517.362 1628.62 L 1327.03 1628.51 L 1489.61 1628.52 C 1519.59 1628.53 1592.82 1639.07 1599.24 1596.48 C 1605.12 1557.49 1601.17 1486.93 1600.91 1445.56 C 1588.93 1243.52 1296.93 1206.14 1239.11 1407.42 C 1228.35 1440.03 1242.33 1484.88 1214.66 1511.23 C 1167.88 1555.78 1095.97 1526.77 1094.49 1461.42 C 1090.51 1284.73 1239.83 1135.26 1415.85 1135.02 C 1596.01 1134.78 1733.88 1284.71 1735.69 1459.96 L 1735.76 1542.75 C 1735.73 1590.87 1737.77 1628.72 1713.67 1672.69 C 1657.93 1774.36 1577.24 1764.13 1480.94 1764.03 L 500.715 1764.25 C 445.082 1764.52 408.352 1752.88 367.209 1713.74 C 304.98 1654.55 313.489 1584.06 313.517 1506.71 L 313.312 640.477 C 313.375 527.128 399.776 466.683 504.595 466.629 L 770.773 466.666 C 810.002 362.907 900.316 283.633 1015.54 282.16 z M 1038.57 669.622 C 1108.93 661.898 1159.69 598.57 1151.92 528.214 C 1144.14 457.858 1080.77 407.146 1010.42 414.976 C 940.148 422.799 889.503 486.082 897.272 556.363 C 905.041 626.644 968.286 677.338 1038.57 669.622 z" fill="rgb(20,20,20)" transform="translate(0,0)"></path>
<metadata><recraft-signature>{"signed_by": "recraft", "signature_b64": "bFjjsEO4qna0Vm5VmlHt+Pg9DcMVWA+qWQABlwZv5Ati4UuNs21sH5AVIaTCOAKk4RCQUTxr8QAOUuyxUEu/Cg==", "signing_algo": "Ed25519", "generation_timestamp": 1772995539, "identifier": "03c3d58c-9aa7-4d4d-af41-b9e7963b960f"}</recraft-signature></metadata></svg>