<svg xmlns="http://www.w3.org/2000/svg" height="512" preserveAspectRatio="none" style="display: block;" version="1.1" viewBox="0 0 2048 2048" width="512">
<path d="M 528.613 300.48 L 1445.82 300.494 C 1481.95 300.468 1527.01 297.823 1561.89 303.415 C 1664.65 319.888 1746.91 414.09 1746.98 518.742 L 1747.05 1470.81 C 1746.86 1499.84 1748.38 1527.64 1744.03 1556.48 C 1727.68 1664.89 1628.79 1747.95 1519.63 1747.97 L 1145.32 1748.03 C 1128.39 1748.03 1109.84 1749.16 1093.14 1746.5 C 1008.93 1732.99 997.82 1612.88 1078.84 1585.51 C 1104.24 1576.92 1154.16 1580.54 1182.41 1580.59 L 1486.82 1580.63 C 1574.33 1581.02 1581.57 1569.2 1581.55 1477.13 L 1581.53 1010.25 L 1581.69 532.547 C 1581.83 471.855 1535.55 465.909 1487 465.949 L 766.621 466.004 C 692.441 466 618.04 465.612 543.854 466.416 C 474.809 466.44 465.077 507.887 465.045 566.08 L 465.069 784.966 C 465.079 811.16 464.737 838.198 465.384 863.979 C 466.539 928.243 514.921 926.681 560.86 943.127 C 699.337 992.702 798.859 1122.63 809.965 1269.28 C 815.654 1344.39 733.661 1389.13 674.582 1343.39 C 638.799 1315.08 647.449 1269.92 635.143 1230.87 C 614.231 1164.52 562.135 1113.34 496.299 1091.51 C 481.637 1086.64 466.315 1083.76 451.915 1078 C 361.317 1045.57 300.155 961.098 300.121 864.301 L 300.042 562.168 C 300.058 538.897 299.461 505.776 304.489 483.659 C 330.059 371.179 411.898 302.638 528.613 300.48 z" fill="rgb(0,0,0)" transform="translate(0,0)"></path>
<path d="M 369.83 1229.26 C 453.213 1223.1 465.267 1276.21 465.072 1340.05 L 465.018 1438.35 C 465.023 1487.23 453.592 1561.67 514.523 1579.14 C 529.882 1583.54 552.044 1580.57 568.735 1580.54 L 694.522 1580.52 C 723.092 1580.47 752.774 1579.57 781.12 1582.63 C 862.04 1591.35 887.67 1715.98 782.939 1748 C 705.554 1746.32 559.351 1757.4 488.655 1743.37 C 392.954 1724.38 320.175 1650.3 302.475 1554.59 C 296.788 1523.83 299.954 1507.02 300.045 1476.72 L 300.056 1361.33 C 299.863 1299.76 292.349 1243.3 369.83 1229.26 z" fill="rgb(0,0,0)" transform="translate(0,0)"></path>
<metadata><recraft-signature>{"signed_by": "recraft", "signature_b64": "vt1CsEPCo3w/8BACDvSbTIIUqlrS1zclZwjWZzs4IcwywaSktVrRPDeNWRvLc14/jDWGH/V6nH4qg9EjDSp9Bg==", "signing_algo": "Ed25519", "generation_timestamp": 1772989705, "identifier": "bcf4ddfe-cc3f-4e7d-acae-83cc079e8976"}</recraft-signature></metadata></svg>