<svg xmlns="http://www.w3.org/2000/svg" height="512" preserveAspectRatio="none" style="display: block;" version="1.1" viewBox="0 0 2048 2048" width="512">
<path d="M 716.02 354.011 C 726.465 354.718 743.671 354.092 754.652 354.071 L 1809.49 354.011 L 1809.38 727.489 C 1809.47 804.506 1810.27 883.109 1809.49 959.995 C 1789.15 961.201 1755.36 960.026 1733.63 960.011 L 416.603 959.988 C 391.775 959.996 357.762 961.207 333.954 959.995 L 333.954 1087.85 C 344.865 1088.53 362.564 1087.92 374.003 1087.91 L 1458.5 1087.85 L 1809.49 1087.85 L 1809.49 1694.27 C 1778.92 1694.27 1744.44 1693.39 1714.16 1694.27 L 1714.16 1183.99 L 911.002 1184 C 880.808 1183.99 841.126 1182.69 811.997 1183.99 L 811.997 1694.27 C 800.064 1693.26 787.341 1694.1 775.265 1694.17 L 716.02 1694.27 L 716.01 1240.31 C 715.987 1221.21 714.986 1203.13 716.02 1183.99 L 333.954 1183.99 L 333.943 1637.72 C 333.925 1656.16 333.07 1676.14 333.954 1694.27 L 238.537 1694.27 L 238.537 354.011 C 269.043 353.994 303.8 354.929 333.954 354.011 L 333.954 866.003 L 716.02 866.003 C 716.992 856.846 716.057 828.831 716.069 817.77 L 716.02 354.011 z M 811.997 866.003 L 1708.25 866.003 L 1712.57 865.872 C 1714.91 863.312 1714.26 853.413 1714.25 849.579 L 1714.16 447.553 C 1681.95 446.911 1647.84 447.549 1615.43 447.552 L 819.999 447.553 C 804.86 448.614 811.973 480.501 811.972 497.03 L 811.997 866.003 z" fill="rgb(0,0,0)" transform="translate(0,0)"></path>
<metadata><recraft-signature>{"signed_by": "recraft", "signature_b64": "VDoqTK6efmQYR5h7U6+rQe32yHZBzgahr9w/yrgBPtXongvr2rlFtXAy0Q7zpLYn3Flv7CY8asDKRAPF5bYtAg==", "signing_algo": "Ed25519", "generation_timestamp": 1772996312, "identifier": "9a7bd5fb-45c8-4e2c-b702-6a2cc7ff55f3"}</recraft-signature></metadata></svg>