<svg xmlns="http://www.w3.org/2000/svg" height="512" preserveAspectRatio="none" style="display: block;" version="1.1" viewBox="0 0 2048 2048" width="512">
<path d="M 423.048 557.128 C 447.491 556.195 478.904 557.113 503.766 557.114 L 1567.74 557.095 C 1705.21 556.839 1751.63 594.306 1751.45 728.764 L 1751.4 1325.05 C 1751.23 1409.91 1726.13 1477.42 1626.93 1487.02 L 466.606 1487.07 C 450.295 1487.08 433.335 1487.6 417.405 1486.19 C 322.894 1477.82 298.066 1397.62 298.04 1317.82 L 298.072 775.142 C 298.071 742.168 296.379 701.685 298.533 670.055 C 302.844 606.752 363.928 564.989 423.048 557.128 z M 429.975 689.464 L 429.988 1281.25 C 429.989 1304.86 430.596 1331.58 429.975 1355.02 L 1475.5 1355.02 L 1619 1355.02 L 1618.98 764.476 C 1618.93 740.597 1617.79 712.649 1619 689.464 C 1582.91 690.608 1540.59 689.463 1503.88 689.461 L 574.696 689.464 L 429.975 689.464 z" fill="rgb(18,18,18)" transform="translate(0,0)"></path>
<path d="M 507.083 1198.01 L 895.527 1198.01 L 895.527 1283.31 L 507.083 1283.31 L 507.083 1198.01 z" fill="rgb(18,18,18)" transform="translate(0,0)"></path>
<path d="M 1461.17 1153.57 C 1496.17 1147.16 1529.74 1170.35 1536.12 1205.36 C 1542.51 1240.37 1519.29 1273.92 1484.27 1280.28 C 1449.3 1286.63 1415.79 1263.44 1409.42 1228.47 C 1403.04 1193.49 1426.2 1159.97 1461.17 1153.57 z" fill="rgb(18,18,18)" transform="translate(0,0)"></path>
<metadata><recraft-signature>{"signed_by": "recraft", "signature_b64": "nwofVWceJvA+Q3/eiLup6N8Ld7JcKNRELY17vDQ7TzH6LUVrr59yCPbZbVOcgE4KQPeBWt/Cw3f77u7xg08vAQ==", "signing_algo": "Ed25519", "generation_timestamp": 1772999796, "identifier": "a7ba65c5-fe41-4005-9f81-c9ae79937dfd"}</recraft-signature></metadata></svg>