<svg xmlns="http://www.w3.org/2000/svg" height="512" preserveAspectRatio="none" style="display: block;" version="1.1" viewBox="0 0 2048 2048" width="512">
<path d="M 834.301 195.533 C 970.699 191.818 1054.09 244.455 1156.03 321.678 L 1156.79 322.25 C 1268.74 305.243 1409.2 370.039 1492.78 441.306 C 1615.51 545.962 1690.88 703.024 1709.64 862.028 C 1721.99 966.707 1685.84 1046.74 1576.85 1081.89 C 1523.22 1100.39 1488.31 1084.76 1436.52 1075.31 C 1446.64 1129.55 1460.99 1182.97 1469.94 1237.46 C 1487.54 1344.48 1511.63 1480.4 1512.79 1589.14 C 1510.45 1737.27 1388.74 1849.59 1241.76 1845.02 C 1104.71 1847.79 990.394 1716.16 988.083 1580.64 C 987.383 1552.36 992.099 1524.66 995.152 1496.63 C 1003.76 1417.61 1023.01 1131.09 988.05 1057.83 C 967.568 1064.07 943.028 1067.66 921.945 1072.66 C 847.175 1090.41 788.8 1099.26 721.067 1045.68 C 693.446 1023.83 662.858 984.968 658.56 949.038 C 441.403 1008.09 306.387 919.339 347.233 687.214 C 390.955 438.742 564.101 207.768 834.301 195.533 z M 1206.25 927.853 C 1313.08 932.619 1414.24 945.644 1518.44 971.095 C 1547.41 978.171 1595.15 943.613 1593.84 911.664 C 1584.49 683.267 1411.78 424.976 1160.78 436.996 C 941.738 462.651 806.048 648.657 774.198 857.634 C 772.267 870.306 767.926 900.239 769.578 911.034 C 774.852 945.496 818.924 976.926 853.557 969.69 C 892.532 961.546 931.026 950.687 970.358 944.334 C 1049.13 931.611 1126.8 928.345 1206.25 927.853 z M 1311.68 1714.62 C 1404.69 1654.83 1395.05 1592.26 1385.73 1495.54 C 1373.02 1363.58 1348.42 1178.33 1311.68 1050.62 C 1263.48 1045.16 1209.04 1040.74 1160.78 1042.49 C 1099.44 1044.43 1109.65 1032.77 1116.7 1086.66 C 1136.27 1236.12 1130.43 1385.4 1114.3 1534.95 C 1112.16 1554.77 1109.5 1575.9 1111.48 1595.91 C 1122.08 1703.28 1215.9 1747.38 1311.68 1714.62 z" fill="rgb(0,0,0)" transform="translate(0,0)"></path>
<path d="M 658.56 824.334 C 621.68 836.422 538.553 857.201 500.801 844.655 C 415.732 816.384 474.598 650.968 495.99 596.384 C 582.478 384.756 750.297 255.571 976.15 344.492 C 984.01 348.232 991.189 352.247 998.783 356.45 C 992.591 359.252 982.249 364.307 976.15 366.418 C 972.254 369.451 962.712 373.231 957.89 375.815 C 791.43 465.016 690.4 639.32 658.56 824.334 z" fill="rgb(222,221,220)" transform="translate(0,0)"></path>
<path d="M 976.15 344.492 C 984.01 348.232 991.189 352.247 998.783 356.45 C 992.591 359.252 982.249 364.307 976.15 366.418 C 975.779 365.623 975.939 366.16 976.153 364.738 L 979.342 363.318 C 981.575 360.071 976.919 356.746 976.552 351.28 L 976.15 344.492 z" fill="rgb(238,236,238)" transform="translate(0,0)"></path>
<metadata><recraft-signature>{"signed_by": "recraft", "signature_b64": "lSRDR6VWoAcI5h8wcbLDZ+k8LkaD/V+ER7D4PtEJdfkpy5YNUp8qzws+97VKd2EI9GXpKqWlancjpmIaoEqEAg==", "signing_algo": "Ed25519", "generation_timestamp": 1772996798, "identifier": "88be9f66-4551-4cc5-98c9-d90b49067910"}</recraft-signature></metadata></svg>