<svg xmlns="http://www.w3.org/2000/svg" height="512" preserveAspectRatio="none" style="display: block;" version="1.1" viewBox="0 0 2048 2048" width="512">
<path d="M 621.28 173.316 C 655.603 169.589 939.45 243.153 982.752 254.274 C 1022.37 264.45 1039.31 264.977 1079.82 266.221 C 1269.1 272.031 1424.51 388.352 1562.65 505.156 L 1760.07 670.053 C 1775.32 682.968 1795.52 698.938 1809.43 712.693 C 1780.75 784.988 1750.58 857.036 1721.02 928.993 L 1690.7 1002.22 C 1683.8 1019.15 1677.35 1036.97 1669.66 1053.46 C 1656.27 1041.35 1640.55 1030.17 1626.69 1018.27 L 1546.55 949.845 C 1491.15 903.301 1501.66 900.77 1433.19 924.615 C 1408.08 933.743 1382.47 941.002 1356.14 945.36 C 1255.19 962.072 1172.6 907.408 1071.8 984.803 C 1030.93 1016.19 993.121 1082.87 937.516 1024.03 C 922.376 1004.23 917.036 980.332 922.701 955.673 C 947.746 846.667 1030.91 794.953 1132.43 774.451 C 1157.88 769.204 1186.24 771.28 1208.61 756.651 C 1231.68 741.458 1242.01 710.565 1231.62 684.779 C 1217.62 652.208 1147.76 575.817 1123.66 545.726 C 1103.88 521.037 1116.42 467.149 1039.32 455.494 C 964.391 443.903 779.738 625.138 737.344 676.482 C 720.728 696.607 711.664 721.023 685.164 715.338 C 607.952 698.771 598.548 592.905 671.829 563.326 C 684.013 558.408 693.656 553.729 704.717 546.782 L 617.678 572.846 C 584.451 582.948 554.835 597.838 518.686 582.01 C 462.622 557.463 457.628 478.048 508.194 444.292 C 522.249 434.91 560.832 424.38 579.34 418.245 L 677.416 385.864 C 702.445 377.774 725.138 371.099 750.158 362.186 L 657.605 336.453 C 637.683 331.07 618.474 326.436 598.725 319.668 C 518.593 292.209 535.348 183.933 621.28 173.316 z" fill="rgb(0,0,0)" transform="translate(0,0)"></path>
<path d="M 1027.77 520.299 C 1050.24 516.756 1067.36 543.61 1060.43 564.18 C 1053.43 584.973 1029.67 592.494 1011.62 604.688 C 871.115 699.571 759.016 831.007 713.273 997.224 C 707.537 1017.92 701.71 1039.83 700.48 1061.09 C 714.374 1073.79 749.515 1097.35 765.916 1108.71 L 888.489 1192.39 C 995.404 1108.4 1135.2 1197.22 1107.91 1319.23 C 1070.42 1486.91 806.741 1442.7 851.842 1250.47 C 836.646 1238.35 812.553 1222.05 796.347 1210.52 L 693.212 1137.19 C 692.588 1174.13 697.053 1203.51 700.48 1239.62 C 717.44 1241.8 727.01 1246.57 741.18 1255.71 C 882.298 1346.09 751.932 1590.37 576.055 1467.07 C 504.541 1385.5 523.281 1270.62 632.395 1239.62 C 629.552 1216.88 626.018 1194.54 628.702 1171.87 C 549.951 1202.56 488.701 1288.81 458.883 1366.57 C 554.051 1453.27 494.283 1608.1 367.798 1603.1 C 196.914 1596.34 184.712 1323.05 397.98 1333 C 438.192 1226.13 521.803 1137.77 628.702 1095.39 C 652.398 856.598 777.45 682.799 973.983 549.344 C 988.621 539.404 1010.81 523.157 1027.77 520.299 z" fill="rgb(0,0,0)" transform="translate(0,0)"></path>
<path d="M 529.887 1604.48 C 602.877 1596.06 668.937 1648.25 677.639 1721.2 C 686.342 1794.16 634.41 1860.42 561.487 1869.4 C 488.167 1878.43 421.47 1826.16 412.721 1752.8 C 403.971 1679.45 456.501 1612.95 529.887 1604.48 z" fill="rgb(0,0,0)" transform="translate(0,0)"></path>
<path d="M 842.572 1467.78 C 915.636 1459.52 981.563 1512.05 989.818 1585.12 C 998.074 1658.18 945.531 1724.1 872.465 1732.35 C 799.412 1740.6 733.503 1688.06 725.249 1615.01 C 716.995 1541.96 769.52 1476.04 842.572 1467.78 z" fill="rgb(0,0,0)" transform="translate(0,0)"></path>
<metadata><recraft-signature>{"signed_by": "recraft", "signature_b64": "42kkhSNt2M9xwlVXW+UtRowmaloclUmjpYoYT7UHIEeyfy4zie1BwpFjzQai4hzP8bKWdNcwZZFGLIOh4yrgBw==", "signing_algo": "Ed25519", "generation_timestamp": 1772996810, "identifier": "3098ef1b-dd66-41c6-b715-73bd0461dea7"}</recraft-signature></metadata></svg>