<svg xmlns="http://www.w3.org/2000/svg" height="512" preserveAspectRatio="none" style="display: block;" version="1.1" viewBox="0 0 2048 2048" width="512">
<path d="M 843.125 290.776 L 1168.06 290.742 C 1338.27 290.604 1478.11 369.424 1543.01 533.386 C 1575.37 615.129 1569.01 706.366 1569.02 792.868 L 1569.03 1270.75 C 1569.04 1312.28 1571.16 1361.94 1568.29 1402.86 C 1556.09 1577.19 1404.55 1735.87 1228.54 1747.73 C 1192.76 1750.14 1155.31 1753.31 1129.27 1722.38 C 1091.8 1676.29 1111.59 1598.33 1174.91 1589.19 C 1198.76 1585.75 1219.5 1587.71 1242.99 1581.84 C 1328.15 1560.55 1398.47 1483.22 1406.6 1395.03 C 1409.78 1337.92 1408.04 1275.29 1408.05 1217.09 L 1408 731.483 C 1408.02 700.17 1409.98 656.531 1405.28 626.583 C 1388.95 522.656 1298.02 459.633 1197.75 454.008 L 973.972 453.987 C 869.878 453.951 778.827 439.515 699.656 524.341 C 633.411 595.318 639.241 666.563 639.247 755.811 L 639.232 1210.87 C 639.231 1265.69 638.996 1320.24 640.197 1374.9 C 642.378 1474.25 712.362 1560.87 809.119 1584.07 C 844.057 1593.52 883.212 1579.62 911.712 1607.95 C 963.895 1659.64 934.248 1746.62 857.987 1748.94 C 674.081 1756.21 502.448 1603.54 481.535 1421.93 C 475.055 1365.65 478.522 1293.99 478.524 1235.9 L 478.481 753.058 C 478.453 693.876 474.982 635.696 489.094 577.659 C 527.827 418.357 677.347 293.212 843.125 290.776 z" fill="rgb(0,0,0)" transform="translate(0,0)"></path>
<path d="M 1009.68 640.495 C 1081.92 638.899 1092.97 694.586 1093 749.88 L 1093.03 1294.34 C 1093.09 1343.75 1085.16 1398.79 1021.19 1403.03 C 941.443 1403.89 934.031 1347.69 934.002 1287.95 L 933.984 747.444 C 934.002 695.266 943.371 644.555 1009.68 640.495 z" fill="rgb(0,0,0)" transform="translate(0,0)"></path>
<path d="M 1697 821.326 C 1786.35 807.752 1793.12 886.641 1793.04 948.167 L 1793.09 1106.09 C 1793.15 1159.75 1790.13 1201.69 1726.22 1216.79 C 1643.21 1226.94 1630.98 1165.73 1630.98 1103.72 L 1630.94 931.43 C 1630.9 877.905 1632.42 832.31 1697 821.326 z" fill="rgb(0,0,0)" transform="translate(0,0)"></path>
<path d="M 331.819 817.298 C 351.685 814.99 373.498 823.535 389.021 835.608 C 423.833 862.683 419.057 900.809 419.041 940.111 L 419.062 1102.87 C 419.147 1159.03 411.413 1210.23 343.754 1216.79 C 293.917 1216.04 257.704 1181.77 257.851 1131.58 L 257.425 923.033 C 257.084 866.346 267.31 825.585 331.819 817.298 z" fill="rgb(0,0,0)" transform="translate(0,0)"></path>
<path d="M 1228.8 817.298 C 1262.22 810.433 1299.81 835.817 1312.3 866.033 C 1320.15 885.019 1318.02 915.75 1318.04 936.506 L 1318.03 1096.41 C 1318 1147.75 1311.12 1194.18 1246.26 1201.73 C 1163.74 1209.03 1156.91 1141.06 1156.96 1082.51 L 1156.92 927.451 C 1156.9 876.428 1161.53 822.748 1228.8 817.298 z" fill="rgb(0,0,0)" transform="translate(0,0)"></path>
<path d="M 777.765 817.298 C 860.245 816.127 865.012 875.202 865.034 935.569 L 865.11 1092.34 C 865.538 1146.82 861.576 1184.92 797.248 1201.73 C 721.58 1204.68 707.395 1157.19 707.478 1096.51 L 707.447 940.746 C 707.251 881.608 703.692 832.009 777.765 817.298 z" fill="rgb(0,0,0)" transform="translate(0,0)"></path>
<metadata><recraft-signature>{"signed_by": "recraft", "signature_b64": "1g7cKyfacEPVoP1E31VB06BOar5jLohtUpfWLQO/QQ9/M5F6NAaoHyjGv70/nN47skCkj3uEBQq7kmtcon4wAg==", "signing_algo": "Ed25519", "generation_timestamp": 1772999907, "identifier": "2fcb4df9-07ce-4e42-bd2f-89fa8ede8f49"}</recraft-signature></metadata></svg>