<svg xmlns="http://www.w3.org/2000/svg" height="512" preserveAspectRatio="none" style="display: block;" version="1.1" viewBox="0 0 2048 2048" width="512">
<path d="M 588.501 363.512 L 1703.2 363.469 C 1747.59 363.311 1792.85 364.618 1793 426.951 L 1792.95 1575.53 C 1792.94 1650.77 1793.44 1679.48 1711.05 1679.16 L 1469.25 1679.07 L 352.465 1679.18 C 300.651 1679.42 257.582 1676.79 256.972 1612.43 L 257.044 461.502 C 256.931 448.425 255.251 428.653 257.14 416.747 C 267.991 348.336 345.549 363.537 399.175 363.546 L 588.501 363.512 z M 700.603 1557.09 L 1666.25 1557.09 L 1670.08 1556.74 C 1672.49 1552.64 1671.05 1112.13 1671.05 1073.02 L 812.109 1073.01 C 779.292 1073.01 738.724 1071.81 706.725 1073.02 C 694.977 1074.93 700.625 1112.95 700.635 1125.87 L 700.603 1557.09 z M 375.903 485.991 C 375.072 500.998 375.866 520.154 375.884 535.678 L 375.903 947.997 L 579.018 947.997 L 579.018 485.991 L 375.903 485.991 z M 579.018 1073.02 C 517.155 1072.28 436.691 1068.45 375.903 1073.02 C 374.895 1084.53 375.857 1110.8 375.882 1123.23 L 375.903 1557.09 L 579.018 1557.09 C 580.147 1554.56 579.016 1116.6 579.018 1073.02 z M 700.603 485.991 C 699.474 570.861 700.817 657.902 700.574 743.002 L 700.586 874.971 C 700.569 897.576 699.728 925.699 700.603 947.997 L 1671.05 947.997 L 1671.05 485.991 C 1641.84 487.094 1605.1 486.001 1575.33 485.997 L 700.603 485.991 z" fill="rgb(0,0,0)" transform="translate(0,0)"></path>
<metadata><recraft-signature>{"signed_by": "recraft", "signature_b64": "E32llOWReJH0i5aBHu/2Etdr8aJd8qcOmYgvYa/aqM/ApGcNPFnZSdfLaLADcFVgTHfZoldBAXVKMSVr6nWHDg==", "signing_algo": "Ed25519", "generation_timestamp": 1772997827, "identifier": "12ce4fa1-ca3d-4c5f-864e-0f7404e76697"}</recraft-signature></metadata></svg>