<svg xmlns="http://www.w3.org/2000/svg" height="512" preserveAspectRatio="none" style="display: block;" version="1.1" viewBox="0 0 2048 2048" width="512">
<path d="M 242.602 603.129 C 246.076 602.597 276.209 603.059 281.983 603.064 L 1787.74 603.176 C 1826.19 601.798 1866.96 624.786 1878.52 662.973 C 1884.73 683.511 1882.55 721.989 1882.51 745.133 L 1882.52 1268.18 C 1882.53 1344.18 1899.42 1413.5 1809.77 1443 C 1797.77 1444.16 1759.45 1443.03 1745.92 1443.01 L 352.758 1442.99 C 293.041 1442.99 179.499 1456.93 167.582 1371.51 C 163.766 1344.16 165.429 1309.75 165.495 1281.73 L 165.466 735.667 C 165.457 668.336 166.01 617.76 242.602 603.129 z M 1723.72 1397 C 1843.2 1397.49 1835.71 1394.86 1835.57 1288.31 L 1835.45 703.057 C 1835.18 642.137 1794.29 650.039 1746.64 650.06 L 328.969 650.124 C 201.86 649.731 211.891 647.832 211.951 761.806 L 212.003 1340.74 C 212.117 1406.89 270.068 1397.02 316.427 1397.03 L 1723.72 1397 z" fill="rgb(0,0,0)" transform="translate(0,0)"></path>
<path d="M 1667.75 922.52 C 1688.97 922.621 1718.72 918.297 1736.06 931.329 C 1780.08 964.409 1771.85 1056.38 1710.03 1063.6 C 1725.63 1094.72 1754.27 1132.31 1773.46 1163.01 L 1723.72 1163.01 C 1716.69 1151.94 1708.65 1140.4 1701.3 1129.46 C 1684.98 1105.86 1672.32 1085.71 1653.99 1063.6 L 1653.99 1163.01 C 1639.76 1163.56 1624.37 1163.15 1610.03 1163.01 L 1610.03 922.52 C 1629.01 922.209 1648.72 922.501 1667.75 922.52 z M 1653.99 1018.99 C 1671.43 1019.12 1704.12 1022.41 1717.32 1013.73 C 1729.5 995.826 1725.58 980.951 1710.03 966.998 C 1691.35 966.62 1672.67 967.028 1653.99 966.998 C 1653.47 984.099 1654 1001.83 1653.99 1018.99 z" fill="rgb(0,0,0)" transform="translate(0,0)"></path>
<path d="M 1244.92 922.52 C 1255.57 921.917 1270.9 922.229 1281.66 922.52 C 1280.89 947.965 1281.62 977.585 1281.63 1003.25 L 1281.66 1163.01 L 1244.92 1163.01 C 1215.03 1112.67 1183.18 1062.63 1151.02 1013.73 C 1149.62 1062.13 1153.81 1114.07 1151.1 1161.7 C 1148.41 1163.55 1147.62 1162.89 1143.71 1163.01 L 1107.97 1163.01 L 1107.98 1003.31 C 1107.97 977.385 1107.12 948.063 1107.97 922.52 C 1119.23 922.132 1132.32 922.467 1143.71 922.52 C 1170.45 959.14 1218.29 1039.29 1239.04 1078.25 L 1238.99 979.394 C 1238.99 967.757 1234.11 924.084 1244.92 922.52 z" fill="rgb(0,0,0)" transform="translate(0,0)"></path>
<path d="M 540.164 922.52 C 547.958 923.547 572.453 922.978 580.966 922.52 C 587.776 944.257 596.813 964.891 605.182 986.086 L 653.817 1110.46 C 660.391 1127.52 668.571 1145.83 674.26 1163.01 L 625.568 1163.01 C 619.713 1146.93 613.079 1129.19 606.597 1113.45 C 598.395 1113.69 589.245 1113.47 580.966 1113.45 L 513.192 1113.45 C 507.28 1129.91 499.838 1147.05 492.766 1163.01 L 448.999 1163.01 C 454.514 1118.32 519.614 969.285 540.164 922.52 z M 529.776 1068.93 L 561.733 1068.93 L 591.193 1068.93 L 567.755 1007.13 C 567.231 1005.73 561.715 989.68 561.733 989.708 C 550.86 1006.4 534.377 1049.04 529.776 1068.93 z" fill="rgb(0,0,0)" transform="translate(0,0)"></path>
<path d="M 283.016 922.52 C 312.017 922.46 373.99 919.239 399.111 926.325 C 463.534 944.498 483.115 1070.08 355.5 1068.93 L 328.969 1068.93 C 328.62 1100.05 328.96 1131.83 328.969 1163.01 L 283.016 1163.01 L 283.016 922.52 z M 328.969 1025 C 349.85 1025.14 382.038 1029.26 396.988 1016.21 C 433.501 966.877 356.001 966.807 328.969 966.998 C 328.331 985.99 328.9 1005.89 328.969 1025 z" fill="rgb(0,0,0)" transform="translate(0,0)"></path>
<path d="M 1454.01 922.52 C 1497 923.273 1541.89 922.482 1585.07 922.52 L 1585.07 966.998 L 1497 966.998 L 1497 1018.99 L 1581.99 1018.99 L 1581.99 1063.6 L 1497 1063.6 L 1497 1078.25 L 1497 1119 L 1549.01 1118.93 C 1560.4 1118.82 1573.99 1118.14 1585.07 1119 C 1586.07 1127.67 1585.2 1152.91 1585.07 1163.01 L 1454.01 1163.01 L 1454.11 992.648 C 1454.14 977.121 1452.57 935.685 1454.01 922.52 z" fill="rgb(0,0,0)" transform="translate(0,0)"></path>
<path d="M 868.233 922.52 C 870.814 923.663 917.496 1061.9 924.254 1078.25 L 977.674 922.52 L 1024.99 922.52 C 1014.36 954.685 1002.93 987.526 990.49 1018.99 C 974.29 1065.5 958.395 1117.66 940.275 1163.01 L 906.788 1163.01 C 875.905 1084.37 850.86 1002.23 820.394 922.52 C 836.188 922.6 852.485 922.883 868.233 922.52 z" fill="rgb(0,0,0)" transform="translate(0,0)"></path>
<path d="M 681.017 862.425 L 725.623 862.425 L 725.601 1034.65 C 725.599 1052.14 724.519 1104.41 727.285 1117.41 C 733.139 1120.27 823.24 1118.86 836.999 1119 C 836.904 1130.61 838.006 1152.4 836.999 1163.01 C 800.612 1164.59 762.464 1162.01 725.855 1163.22 C 680.712 1164.71 681.018 1115.25 681 1083.42 L 681.009 916.32 C 681.005 898.868 680.363 879.594 681.017 862.425 z" fill="rgb(0,0,0)" transform="translate(0,0)"></path>
<path d="M 1321.38 922.52 L 1437.03 922.52 L 1437.03 966.998 C 1421.17 966.8 1404.89 966.996 1388.99 966.998 L 1388.98 1077.57 C 1388.96 1097.08 1388.39 1117.39 1388.99 1136.75 C 1388.25 1146.76 1388.44 1152.99 1388.99 1163.01 L 1347.02 1163.01 L 1347.02 966.998 C 1333.3 966.162 1312.21 966.917 1298.11 966.998 L 1298.11 922.52 L 1321.38 922.52 z" fill="rgb(0,0,0)" transform="translate(0,0)"></path>
<path d="M 1034.18 922.52 C 1048.56 922.131 1063.06 922.388 1077.46 922.52 C 1076.89 948.832 1077.43 977.407 1077.43 1003.87 L 1077.46 1163.01 L 1076.95 1163.59 C 1069.75 1164.18 1043.16 1163.03 1034.18 1163.01 C 1035.01 1138.24 1034.22 1108.24 1034.21 1083.17 L 1034.18 922.52 z" fill="rgb(0,0,0)" transform="translate(0,0)"></path>
<path d="M 762.015 922.52 L 806.002 922.52 C 805.101 976.992 806.006 1034.92 806.002 1089.82 C 791.606 1090.09 776.226 1089 762.015 1089.82 C 763.218 1034.69 761.051 977.811 762.015 922.52 z" fill="rgb(0,0,0)" transform="translate(0,0)"></path>
<metadata><recraft-signature>{"signed_by": "recraft", "signature_b64": "JmX80ICcmwoiGFeZV26f0ny0mGCx1qL88t0d7+ouBeScklwXBih6T7o+rIiMlYr5EX/y1Bt7+u8SgdS3rOsQCA==", "signing_algo": "Ed25519", "generation_timestamp": 1772997818, "identifier": "2b9f7d25-0844-4079-afd6-2ca2ef411665"}</recraft-signature></metadata></svg>