<svg xmlns="http://www.w3.org/2000/svg" height="512" preserveAspectRatio="none" style="display: block;" version="1.1" viewBox="0 0 2048 2048" width="512">
<path d="M 846.83 445.51 L 1790.99 445.51 L 1790.99 1578.51 C 1726.71 1579.6 1658.78 1578.49 1594.11 1578.49 L 1197.75 1578.51 L 362.425 1578.48 C 328.341 1578.48 291.313 1577.69 257.488 1578.51 L 257.461 488.498 C 257.419 474.391 256.835 459.469 257.488 445.51 L 846.83 445.51 z M 352.49 540.49 C 351.865 587.606 352.491 636.2 352.492 683.454 L 352.49 969 L 1546.5 969 L 1694.59 969 L 1694.59 540.49 L 507.166 540.49 L 352.49 540.49 z M 352.49 1174.67 L 1647.28 1174.65 C 1661.43 1174.65 1681.02 1173.99 1694.59 1174.67 C 1695.49 1166.38 1694.71 1145.7 1694.66 1136.33 L 1694.59 1064.22 L 400.795 1064.22 C 386.094 1064.21 366.864 1063.56 352.49 1064.22 L 352.49 1174.67 z" fill="rgb(0,0,0)" transform="translate(0,0)"></path>
<metadata><recraft-signature>{"signed_by": "recraft", "signature_b64": "SpZbjkQRz6FuHcKB3TWLteXlYbqrFP4kBscFthF5bEtIyPsPRzjhEI0yuBz+sjrSnuiylgFZV1YB4tHyQvOrAw==", "signing_algo": "Ed25519", "generation_timestamp": 1772997800, "identifier": "dc894fb5-db01-4a76-a4d6-486088245df7"}</recraft-signature></metadata></svg>