<svg xmlns="http://www.w3.org/2000/svg" height="512" preserveAspectRatio="none" style="display: block;" version="1.1" viewBox="0 0 2048 2048" width="512">
<path d="M 1249.84 759.143 C 1247.64 712.404 1254.92 658.854 1243.59 613.483 C 1217.25 511.115 1114.99 449.049 1013.41 453.051 C 860.136 459.09 763.189 605.458 813.895 748.358 C 842.451 828.835 707.676 921.904 664.743 760.464 C 623.352 586.01 715.354 411.263 878.013 338.816 C 1070.7 252.997 1304.3 359.133 1375.8 554.733 C 1382.56 573.235 1387.09 593.354 1391.74 612.553 C 1345.44 658.227 1297.8 717.022 1249.84 759.143 z" fill="rgb(23,21,22)" transform="translate(0,0)"></path>
<path d="M 1391.74 612.553 C 1401.76 667.32 1392.58 723.932 1395.97 779.137 L 1395.93 936.552 C 1395.94 957.032 1397.81 990.732 1395.97 1009.52 C 1365.31 1049.88 1287.32 1125.65 1249.84 1161.15 L 1249.84 929.1 C 1249.1 911.76 1249.8 889.894 1249.81 872.128 L 1249.84 759.143 C 1297.8 717.022 1345.44 658.227 1391.74 612.553 z" fill="rgb(23,21,22)" transform="translate(0,0)"></path>
<path d="M 1391.74 612.553 C 1401.76 667.32 1392.58 723.932 1395.97 779.137 C 1382.95 786.962 1362.1 813.055 1350.53 824.543 C 1316.84 857.965 1283.52 897.124 1249.84 929.1 C 1249.1 911.76 1249.8 889.894 1249.81 872.128 L 1249.84 759.143 C 1297.8 717.022 1345.44 658.227 1391.74 612.553 z" fill="rgb(246,8,25)" transform="translate(0,0)"></path>
<path d="M 1395.97 1161.15 L 1395.99 1316.96 C 1395.98 1341.97 1396.94 1374.44 1395.97 1398.79 C 1390.08 1403.06 1379.91 1414.65 1374.24 1420.59 L 1281.69 1514.89 C 1273.98 1522.7 1257.77 1538.19 1252 1546.61 L 1249.84 1546.61 C 1248.82 1468.33 1248.71 1389.64 1249.84 1311.34 C 1269.6 1293.51 1291.55 1269.46 1310.25 1250.37 L 1373.97 1184.07 C 1380.6 1177.05 1389.91 1167.98 1395.97 1161.15 z" fill="rgb(23,21,22)" transform="translate(0,0)"></path>
<path d="M 1395.97 1546.61 C 1397.49 1510.75 1396.39 1473.94 1395.66 1438.07 C 1397.66 1524.52 1395.89 1615.52 1395.93 1702.38 L 1396.01 1766.51 C 1396.25 1796.84 1401.46 1815.98 1377.62 1840.33 C 1327.48 1891.54 1250.07 1854.67 1250.02 1777.8 C 1251.31 1750.91 1248.66 1722.02 1249.84 1695.4 L 1252 1695.4 C 1261.4 1688.53 1286.84 1658.88 1296.79 1648.88 C 1330.03 1615.48 1362.51 1579.68 1395.97 1546.61 z" fill="rgb(23,21,22)" transform="translate(0,0)"></path>
<path d="M 1249.84 1546.61 L 1252 1546.61 L 1251.96 1647.67 C 1251.95 1658.02 1251.12 1686.25 1252 1695.4 L 1249.84 1695.4 C 1249.24 1691.96 1249.77 1659.86 1249.78 1653.88 L 1249.84 1546.61 z" fill="rgb(122,123,125)" transform="translate(0,0)"></path>
<metadata><recraft-signature>{"signed_by": "recraft", "signature_b64": "fLON2XApGpgf86wnQh457AWXUUriQkuKYmsMTxOA4EEvXr9JkWsIbJ32bPTKkpu9yn4zPdWeg38VgKbcjK1uCg==", "signing_algo": "Ed25519", "generation_timestamp": 1772996386, "identifier": "661a925f-3d3b-4977-9b28-f967bab18cb2"}</recraft-signature></metadata></svg>