<svg xmlns="http://www.w3.org/2000/svg" height="512" preserveAspectRatio="none" style="display: block;" version="1.1" viewBox="0 0 2048 2048" width="512">
<path d="M 282.602 568.738 C 298.623 566.964 328.019 568.678 345.069 568.697 L 1763.69 568.737 C 1801.49 567.905 1793.04 613.853 1793.03 638.747 L 1793.13 1043.8 C 1793.22 1081.81 1787.99 1093.71 1747.86 1093.43 C 1736.99 1130.5 1733.71 1134.46 1715.38 1166.83 C 1740.95 1192.35 1716.62 1191.55 1742.49 1226.53 C 1741.25 1230.34 1737.63 1237.63 1735.9 1241.91 C 1761.91 1282.73 1741.97 1282.67 1723.63 1322.9 C 1717.76 1335.79 1712.4 1348.39 1707.01 1361.5 C 1696.92 1388.47 1691.4 1413.8 1687.17 1442.14 C 1683.55 1466.41 1648.8 1461.06 1631.85 1461.05 L 307.024 1461.03 C 250.677 1461.01 257.025 1450.15 257 1396.29 L 256.956 650.57 C 256.912 620.265 245.552 571.786 282.602 568.738 z M 306.153 1126.38 L 1635.57 1126.33 C 1648.8 1126.32 1670.4 1125.58 1682.91 1126.38 C 1702.03 1101.81 1677.14 1040.07 1742.49 1042.07 L 1742.49 758.704 C 1742.49 713.113 1741.24 662.056 1742.49 617.093 C 1725.83 617.689 1706.26 617.111 1689.32 617.108 L 306.153 617.093 L 306.181 1060.25 C 306.266 1081.93 306.989 1104.83 306.153 1126.38 z" fill="rgb(0,0,0)" transform="translate(0,0)"></path>
<path d="M 306.153 1126.38 L 1635.57 1126.33 C 1648.8 1126.32 1670.4 1125.58 1682.91 1126.38 C 1664.09 1157.03 1654.07 1174.24 1682.91 1202.17 C 1678.41 1219.3 1679.22 1222.38 1687.26 1238.12 C 1684.51 1251.88 1687.58 1257.17 1695.72 1267.5 C 1667.42 1318.68 1655.64 1356.02 1640.28 1411.49 C 1625.47 1410.94 1606.62 1411.48 1591.46 1411.48 L 306.153 1411.49 L 306.153 1126.38 z" fill="rgb(216,11,24)" transform="translate(0,0)"></path>
<metadata><recraft-signature>{"signed_by": "recraft", "signature_b64": "MiGXSex26N70Nl7Z8iMPfT+qLHnykBpSapzLNKokWdDAxOH+SmKrMKa4aebK2T4/aGcjPhv3BZdhqPuSV7eoDw==", "signing_algo": "Ed25519", "generation_timestamp": 1772997053, "identifier": "a3d426ed-ff96-404e-b1d2-f87db1c6c4c0"}</recraft-signature></metadata></svg>