<svg xmlns="http://www.w3.org/2000/svg" height="512" preserveAspectRatio="none" style="display: block;" version="1.1" viewBox="0 0 2048 2048" width="512">
<path d="M 628.104 296.611 C 628.194 296.604 628.284 296.596 628.375 296.588 L 1338.63 296.58 C 1455.73 296.549 1552.22 306.562 1606.33 434.965 C 1627.87 486.067 1623.14 537.25 1623.12 590.973 L 1623.1 728.003 L 1673.44 728.103 C 1684.27 728.214 1698.59 728.8 1709 728.003 L 1709 1444.87 C 1709 1483.12 1711.39 1525.81 1703.84 1563.02 C 1684.62 1657.68 1602.12 1733.44 1506.67 1746.19 C 1479.21 1749.86 1450.19 1748.97 1422.43 1748.91 L 647.506 1748.95 C 610.08 1748.95 565.117 1751.33 529.122 1744.06 C 419.778 1721.95 336.994 1616.23 342.847 1504.48 C 343.727 1487.68 342.98 1468.48 343.003 1451.41 L 343.001 728.003 C 368.241 727.597 399.429 727.399 424.535 728.003 C 426.124 622.347 405.486 478.96 466.716 392.605 C 507.998 334.385 559.395 308.756 628.104 296.611 z M 1518.02 1562.38 C 1544.07 1535.27 1536.35 1499.18 1536.34 1462.93 L 1536.31 895.991 L 623.564 895.992 C 588.101 895.992 544.73 894.688 509.993 895.991 L 510.009 1457.56 C 509.937 1516.9 501.639 1579.75 582.196 1579.64 L 1452.26 1579.15 C 1478.43 1579.14 1497.61 1582.18 1518.02 1562.38 z M 593.001 728.003 L 935.886 728.003 L 1455 728.003 L 1455.04 586.78 C 1455.02 488.748 1457.39 465.34 1351.23 465.65 L 1116.47 465.752 L 694.233 465.713 C 626.108 465.676 593.122 465.315 592.963 540.948 L 593.001 728.003 z" fill="rgb(0,0,0)" transform="translate(0,0)"></path>
<metadata><recraft-signature>{"signed_by": "recraft", "signature_b64": "OlzPRXb+giomBdIRR7k2cYctbeK+GWkR+z4wuiCQI7CDA47nSyN0m54bQpJFnXVbcCQmMnNLBv3c5+RRZrDTDg==", "signing_algo": "Ed25519", "generation_timestamp": 1772999044, "identifier": "5cdd256b-e429-4bc2-a39d-2092d00b2943"}</recraft-signature></metadata></svg>