<svg xmlns="http://www.w3.org/2000/svg" height="512" preserveAspectRatio="none" style="display: block;" version="1.1" viewBox="0 0 2048 2048" width="512">
<path d="M 1466.43 1588.01 C 1466.54 1606.95 1467.73 1630.94 1466.16 1649.45 C 1459.13 1732.5 1379.1 1804.58 1296.21 1805.11 L 637.759 1805.12 C 610.344 1805.13 575.715 1807.23 549.434 1803.14 C 460.409 1789.29 398.312 1709.84 400.12 1621.66 L 400.038 437.461 C 400.018 425.129 399.674 412.435 400.312 400.136 C 405.007 309.698 483.659 237.896 572.985 237.255 L 1227.46 237.421 C 1255.97 237.382 1294.49 235.677 1321.59 240.295 C 1389.87 251.929 1456.13 313.764 1463.93 383.992 C 1467.96 420.234 1466.44 465.376 1466.44 502.633 L 1466.43 1509.48 C 1497.87 1508.1 1538.05 1509.77 1570.6 1509.48 L 1570.6 1133.08 L 1646.82 1133.08 L 1646.91 1502.03 C 1647.04 1572.29 1652.54 1588 1581.49 1588.03 L 1525.31 1588.03 C 1510.62 1588.04 1479.37 1589.54 1466.43 1588.01 z M 1303.26 1728.98 C 1391.7 1698.16 1389.51 1647.66 1389.5 1566.03 L 1389.5 495.917 C 1389.54 465.309 1390.37 432.923 1388.88 402.765 C 1386.67 357.852 1339.57 318.736 1295.54 317.263 C 1264.84 316.584 1233.42 317.036 1202.7 317.038 L 718.578 316.989 C 669.823 316.984 617.025 315.946 568.714 317.007 C 483.809 329.31 481.352 387.603 480.959 456.171 L 480.958 1585.21 C 480.976 1707.29 509.108 1729.01 626.381 1729.02 L 1246.43 1728.96 C 1261.14 1728.93 1290.64 1727.54 1303.26 1728.98 z" fill="rgb(24,23,24)" transform="translate(0,0)"></path>
<path d="M 717.651 1541.83 L 797.946 1541.74 C 808.34 1541.68 836.16 1540.33 844.967 1542.43 C 891.187 1553.46 892.741 1615.94 841.233 1624.67 C 822.483 1625.8 725.863 1626.69 713.265 1623.97 C 666.437 1613.87 666.182 1547.63 717.651 1541.83 z" fill="rgb(24,23,24)" transform="translate(0,0)"></path>
<path d="M 1025.74 1541.83 C 1042.09 1541.31 1133.5 1539.03 1146.02 1542.68 C 1194.16 1556.74 1191.95 1620.76 1137.81 1624.67 L 1066.14 1624.74 C 1053.41 1624.75 1028.63 1625.85 1017.29 1623.01 C 970.685 1611.3 972.757 1545.28 1025.74 1541.83 z" fill="rgb(223,61,59)" transform="translate(0,0)"></path>
<path d="M 1570.6 996.03 C 1592.97 996.047 1625.24 997.12 1646.82 996.03 C 1645.62 1039.55 1646.83 1089.02 1646.82 1133.08 L 1570.6 1133.08 C 1571.51 1088.56 1570.59 1040.87 1570.6 996.03 z" fill="rgb(172,209,229)" transform="translate(0,0)"></path>
<path d="M 1603.24 878.305 C 1623.78 875.727 1642.57 890.172 1645.36 910.685 C 1648.14 931.199 1633.89 950.131 1613.4 953.126 C 1599.97 955.091 1586.51 949.688 1578.16 938.976 C 1569.81 928.264 1567.86 913.894 1573.05 901.344 C 1578.24 888.793 1589.77 879.996 1603.24 878.305 z" fill="rgb(58,157,223)" transform="translate(0,0)"></path>
<path d="M 1601.65 636.295 C 1622.24 633.01 1641.6 647.058 1644.85 667.657 C 1648.11 688.257 1634.04 707.591 1613.43 710.821 C 1592.87 714.045 1573.58 700.004 1570.33 679.443 C 1567.08 658.883 1581.09 639.575 1601.65 636.295 z" fill="rgb(58,157,223)" transform="translate(0,0)"></path>
<path d="M 1599.45 762.224 C 1619.53 757.618 1639.55 770.092 1644.27 790.143 C 1648.99 810.194 1636.64 830.292 1616.61 835.127 C 1596.43 840 1576.13 827.519 1571.37 807.305 C 1566.61 787.092 1579.21 766.867 1599.45 762.224 z" fill="rgb(58,157,223)" transform="translate(0,0)"></path>
<metadata><recraft-signature>{"signed_by": "recraft", "signature_b64": "dGI5TV/6Vj4uCkZ2i6rp+0jU8n6umJ4Es0frTvGynUp+kU+k+AN0sYeil+XpNGmFY6TmnuhSNLt+QFiS+bsbDQ==", "signing_algo": "Ed25519", "generation_timestamp": 1772999329, "identifier": "f4bb981a-fc21-4903-baca-887f4c98b36c"}</recraft-signature></metadata></svg>