<svg xmlns="http://www.w3.org/2000/svg" height="512" preserveAspectRatio="none" style="display: block;" version="1.1" viewBox="0 0 2048 2048" width="512">
<path d="M 231.018 610.97 C 240.31 610.055 275.351 610.934 286.538 610.954 L 1809.98 610.992 C 1855.3 611.198 1859.61 644.095 1859.62 682.184 L 1859.69 1336.88 C 1859.76 1374.29 1868.98 1428.6 1818.43 1435.58 L 298.55 1435.61 C 252.991 1435.63 190.832 1448.23 189.753 1382.95 C 189.406 1361.92 189.362 1341.15 189.371 1320.2 L 189.368 718.934 C 189.341 675.405 177.598 622.945 231.018 610.97 z M 231.018 652.209 L 231.018 1395.98 L 1657.45 1395.98 L 1765.84 1395.93 C 1779.93 1395.92 1805.52 1395.01 1818.43 1395.98 L 1818.42 732.124 C 1818.42 707.837 1817.39 675.851 1818.43 652.209 L 397.491 652.209 L 231.018 652.209 z" fill="rgb(0,0,0)" transform="translate(0,0)"></path>
<path d="M 1371.01 1058.17 C 1406.95 1058.06 1464.7 1053.66 1491.32 1080.62 C 1525.21 1114.95 1522.77 1192.38 1489.41 1226.33 C 1467.11 1246.61 1437.12 1245.95 1409.48 1245.9 L 1368.24 1245.79 C 1369.41 1224.48 1366.45 1063.18 1368.31 1058.8 L 1371.01 1058.17 z M 1413.1 1207.22 C 1430.85 1206 1445.24 1206.65 1459.95 1195.31 C 1481.4 1148.21 1475.78 1093.68 1413.1 1097.95 L 1413.15 1170.56 C 1413.16 1181.4 1413.68 1196.82 1413.1 1207.22 z" fill="rgb(0,0,0)" transform="translate(0,0)"></path>
<path d="M 564.26 803.441 L 613.097 803.31 C 628.051 803.191 642.137 802.226 657.341 804.568 C 707.251 812.255 725.872 876.06 682.254 903.518 C 710.866 921.44 695.483 960.417 710.779 992.511 C 704.424 992.615 665.469 994.128 662.411 992.511 C 648.437 944.663 677.586 917.728 609.002 922.003 C 608.498 944.887 608.947 969.506 609.002 992.511 C 597.083 993.26 576.92 992.556 564.26 992.511 L 564.26 803.441 z M 609.002 882.51 C 622.655 882.626 645.598 884.583 656.915 877.761 C 674.794 838.878 633.521 843.087 609.002 843.316 L 609.002 882.51 z" fill="rgb(0,0,0)" transform="translate(0,0)"></path>
<path d="M 1175.02 1058.17 C 1190.78 1057.69 1209.84 1057.99 1225.65 1058.17 C 1247.63 1095.33 1267.08 1135.36 1289 1172.35 L 1289 1058.17 L 1331.17 1058.17 C 1331.69 1074.47 1332.34 1238.72 1330.33 1245.11 L 1328.17 1245.79 C 1312.94 1245.44 1298.47 1245.56 1283.23 1245.79 C 1261.4 1208.38 1241.04 1166.63 1219.02 1128.09 L 1219.02 1245.79 L 1175.02 1245.79 L 1175.02 1058.17 z" fill="rgb(0,0,0)" transform="translate(0,0)"></path>
<path d="M 777.929 803.441 C 795.394 804.18 818.061 803.467 835.937 803.441 C 857.134 863.119 869.797 933.539 890.342 992.511 C 875.686 993.095 859.47 992.645 844.689 992.511 C 840.242 982.55 838.456 967.298 835.734 961.763 L 833.4 960.995 C 813.532 960.678 793.058 960.962 773.145 960.995 C 770.44 971.549 767.437 982.022 764.486 992.511 L 720.318 992.511 C 732.18 940.499 760.193 854.346 777.929 803.441 z M 784.744 922.003 C 791.964 922.211 797.992 922.379 805.193 922.003 L 827.61 922.003 C 823.464 910.055 807.234 845.632 805.193 843.316 C 798.304 865.767 789.849 899.29 784.744 922.003 z" fill="rgb(0,0,0)" transform="translate(0,0)"></path>
<path d="M 431.376 803.441 C 453.595 803.45 478.89 800.919 499.908 808.578 C 545.888 825.333 550.024 900.928 505.311 921.513 C 482.143 932.179 455.786 923.195 440.323 928.801 L 439.704 931.512 L 439.704 992.511 C 424.13 992.422 409.612 991.779 393.999 992.511 C 393.057 975.392 393.957 948.441 393.963 930.425 L 393.999 803.441 L 431.376 803.441 z M 439.704 890.027 C 455.699 890.231 471.799 892.42 484.901 882.51 C 490.036 873.27 488.688 860.674 484.901 851.192 C 471.308 840.639 456.317 842.838 439.704 843.316 C 439.652 858.599 439.331 874.821 439.704 890.027 z" fill="rgb(0,0,0)" transform="translate(0,0)"></path>
<path d="M 937.928 1058.17 C 944.558 1058.77 983.992 1058.72 989.871 1058.17 C 970.185 1084.1 946.998 1110 925.711 1135 C 936.917 1156.98 954.209 1185.25 966.636 1207.22 C 974.16 1218.3 982.882 1234 989.871 1245.79 L 933.007 1245.79 C 927.54 1229.36 900.631 1181.45 890.342 1166.02 C 883.678 1172.91 878.223 1181.57 873 1189.62 L 873 1245.79 L 827.61 1245.79 L 827.613 1123.6 C 827.621 1110.29 821.663 1059.31 833.4 1058.17 L 873 1058.17 C 872.878 1081.86 874.453 1112.14 873 1135 C 893.33 1110.27 916.111 1081.26 937.928 1058.17 z" fill="rgb(0,0,0)" transform="translate(0,0)"></path>
<path d="M 1047.03 1058.17 L 1106.02 1058.17 C 1124.3 1119.91 1138.23 1183.93 1157.55 1245.79 C 1142.3 1245.48 1126.09 1245.78 1110.77 1245.79 C 1107.49 1234.12 1104.46 1222.24 1101.25 1210.52 C 1083.46 1210.15 1064.96 1210.6 1047.03 1210.52 C 1041.23 1223.46 1038.5 1232.26 1034.24 1245.79 L 989.871 1245.79 C 1008.1 1184.91 1025.61 1116.72 1047.03 1058.17 z M 1052 1172.35 C 1060.1 1172.55 1067.16 1172.62 1075.25 1172.35 C 1080.94 1172.48 1085.97 1172.56 1091.67 1172.35 C 1090.85 1169.09 1073.98 1095.84 1075.25 1097.95 C 1066.53 1116.49 1058.09 1151.56 1052 1172.35 z" fill="rgb(0,0,0)" transform="translate(0,0)"></path>
<path d="M 701.95 1058.17 L 755.778 1058.17 C 776.247 1119.8 794.893 1182.99 811.571 1245.79 C 795.952 1245.52 780.124 1245.72 764.486 1245.79 C 759.181 1231.16 758.437 1225.68 755.778 1210.52 L 701.95 1210.52 C 699.557 1222.3 696.854 1234.02 694.399 1245.79 L 646.559 1245.79 C 667.081 1184 681.28 1120.07 701.95 1058.17 z M 710.779 1172.35 C 718.429 1172.69 723.628 1172.76 731.25 1172.35 C 736.178 1172.4 741.058 1172.48 745.987 1172.35 C 743.78 1162.92 729.533 1100.97 725.666 1097.95 C 721.098 1117.1 710.562 1154.48 710.779 1172.35 z" fill="rgb(0,0,0)" transform="translate(0,0)"></path>
<path d="M 1146.88 803.441 C 1166.26 803.367 1187.31 804.063 1206.37 803.441 C 1187.87 822.061 1155.6 865.017 1140.5 886.82 C 1155.57 909.8 1169.75 933.53 1184.99 956.599 C 1192.47 968.69 1199.5 980.073 1206.37 992.511 C 1191.18 992.611 1175.21 993.142 1160.01 992.049 C 1150.3 991.35 1115.24 928.316 1110.77 919.189 C 1105.41 924.388 1100.28 928.634 1096.62 935.134 C 1096.7 954.266 1096.84 973.379 1096.62 992.511 C 1081.7 992.516 1066.93 992.083 1052 992.511 C 1050.76 931.065 1051.93 865.201 1052 803.441 C 1057.59 803.194 1063.39 803.371 1069 803.441 C 1078.58 803.221 1086.99 803.124 1096.62 803.441 L 1096.62 882.51 L 1146.88 803.441 z" fill="rgb(0,0,0)" transform="translate(0,0)"></path>
<path d="M 1274.24 801.003 C 1311.82 795.482 1351.36 815.437 1353.66 856.946 C 1340.4 857.496 1325.02 856.673 1311.22 856.946 C 1295.96 825.309 1261.27 836.29 1261.85 853.221 C 1263.41 871.915 1298.78 876.883 1312.79 881.627 C 1381.48 904.897 1366.75 989.134 1294.25 995.888 C 1253.06 1001.52 1214.17 975.966 1215.08 931.512 C 1227.16 930.727 1242.84 931.612 1255.47 931.512 C 1264.89 958.411 1296.24 966.866 1306.89 949.136 C 1329.63 911.252 1227.98 925.568 1219.89 869.935 C 1213.78 827.945 1236.31 807.387 1274.24 801.003 z" fill="rgb(0,0,0)" transform="translate(0,0)"></path>
<path d="M 1544.85 1058.17 L 1665 1058.17 L 1665 1097.95 C 1640.51 1098.55 1613.61 1097.97 1588.94 1097.95 L 1588.94 1135 C 1609.09 1135.37 1629.74 1134.72 1650.07 1135 C 1650.25 1147.42 1650.11 1159.93 1650.07 1172.35 L 1588.94 1172.35 L 1588.94 1189.62 L 1588.94 1207.22 C 1610.39 1207.24 1644.97 1204.42 1665 1207.22 C 1668.85 1224.02 1668.01 1228.84 1665 1245.79 L 1544.85 1245.79 L 1544.85 1058.17 z" fill="rgb(0,0,0)" transform="translate(0,0)"></path>
<path d="M 887.017 803.441 L 1023 803.441 L 1023 843.316 L 977.49 843.316 C 977.077 877.73 977.453 912.788 977.49 947.25 C 976.923 961.701 977.623 977.737 977.49 992.511 C 962.297 992.234 948.176 992.032 933.007 992.511 L 933.007 843.316 C 883.865 849.021 886.66 850.658 887.017 803.441 z" fill="rgb(0,0,0)" transform="translate(0,0)"></path>
<path d="M 1371.01 803.441 L 1506.21 803.441 L 1506.21 843.316 C 1491.14 844.127 1475.01 843.755 1459.95 843.316 L 1459.95 947.25 L 1459.95 992.511 C 1446.18 993.047 1430.29 992.601 1416.36 992.511 C 1415.78 943.233 1416.34 892.697 1416.36 843.316 L 1371.01 843.316 C 1371.11 831.926 1369.99 813.888 1371.01 803.441 z" fill="rgb(0,0,0)" transform="translate(0,0)"></path>
<path d="M 1571.87 803.441 C 1595.57 803.472 1627.26 802.328 1650.07 803.441 C 1649.85 816.11 1649.93 828.434 1650.07 841.105 L 1605 841.105 L 1605 992.511 C 1599.75 992.708 1594.21 992.558 1588.94 992.511 L 1561.02 992.511 C 1559.53 945.033 1561 889.252 1561.02 841.105 C 1543.55 841.661 1529.9 842.157 1512.46 841.105 C 1512.29 828.694 1512.46 815.886 1512.46 803.441 L 1571.87 803.441 z" fill="rgb(0,0,0)" transform="translate(0,0)"></path>
<path d="M 381.02 1058.17 C 396.05 1058.22 410.904 1057.67 425.96 1058.17 L 425.988 1144.81 C 426.132 1166.28 427.032 1185.69 425.96 1207.22 C 450.252 1207.49 474.724 1207.27 499.03 1207.22 L 499.03 1245.79 L 381.02 1245.79 L 381.02 1058.17 z" fill="rgb(0,0,0)" transform="translate(0,0)"></path>
<path d="M 532.459 1058.17 C 546.916 1057.07 555.607 1056.8 569.995 1058.17 C 571.037 1106.17 570.019 1158.86 569.995 1207.22 C 592.099 1207.89 617.098 1207.28 639.392 1207.22 C 639.197 1215.78 641.72 1240.44 637.551 1245.62 L 633.25 1245.79 L 525.017 1245.79 L 524.971 1127.41 C 524.945 1110.67 517.409 1058.44 532.459 1058.17 z" fill="rgb(0,0,0)" transform="translate(0,0)"></path>
<metadata><recraft-signature>{"signed_by": "recraft", "signature_b64": "AkkHFWYeau+bw5537jI1pNH4mO0UnUzLvsOkcscOhFVc7/ZhNt/ff+qVchymqLOb8zlZDnSM1mkRBgfdvHT8Dw==", "signing_algo": "Ed25519", "generation_timestamp": 1772998289, "identifier": "b2206143-79c1-4d74-8550-eff1ba1c0380"}</recraft-signature></metadata></svg>