<svg xmlns="http://www.w3.org/2000/svg" height="512" preserveAspectRatio="none" style="display: block;" version="1.1" viewBox="0 0 2048 2048" width="512">
<path d="M 533.106 300.023 C 606.915 298.811 684.434 300.011 758.463 300.014 L 1421.79 300.033 C 1460.28 300.03 1504.45 297.832 1542.03 302.488 C 1647 315.494 1734.14 404.458 1746.17 509.288 C 1748.87 532.811 1747.87 561.511 1747.86 585.532 L 1747.84 1470.09 C 1747.83 1485.84 1748.22 1518.88 1745.67 1533.91 C 1725.42 1653.46 1635.44 1734.23 1514.68 1746.21 C 1489.96 1746.78 1463.58 1746.23 1438.67 1746.23 L 625.838 1746.19 C 533.346 1746.2 467.993 1754.05 390.36 1691.29 C 310.261 1626.53 300.884 1554.31 300.918 1461.44 L 301.002 537.363 C 301.323 407.721 407.315 311.748 533.106 300.023 z M 1345.5 1580.08 L 1460.77 1580.12 C 1550.08 1580.1 1582.33 1580.73 1582.49 1482.39 L 1582.49 549.976 C 1582.21 485.496 1545.89 465.962 1486.51 466.063 L 708.421 466.126 L 607.353 466.074 C 512.231 466.071 466.966 466.77 466.893 570.871 L 466.846 1497.12 C 467.671 1591.84 549.816 1580.08 612.964 1580.05 L 1345.5 1580.08 z" fill="rgb(36,35,36)" transform="translate(0,0)"></path>
<path d="M 1824.18 256.995 C 1839.49 255.939 1861.46 256.407 1877.45 256.892 C 1979.5 259.987 1966.25 261.335 1967.13 355.972 C 1967.41 386.695 1972.13 423.408 1932.5 429.689 C 1898.01 430.91 1862.05 429.149 1827.72 429.568 C 1773.73 430.227 1790.48 330.822 1790.47 295.514 C 1790.46 274.295 1805.81 262.083 1824.18 256.995 z" fill="rgb(213,66,75)" transform="translate(0,0)"></path>
<metadata><recraft-signature>{"signed_by": "recraft", "signature_b64": "d8+vAizzL/MhoHQX9IaJcJufb/i6rUwMkLNdNxCmMcle1PFD+AH1ZyDMzctL9Dsh+dWuguZ0g9xIjcvP8U1JCQ==", "signing_algo": "Ed25519", "generation_timestamp": 1773000026, "identifier": "a2de274c-a862-43fa-9e59-c97f70e83a96"}</recraft-signature></metadata></svg>