<svg xmlns="http://www.w3.org/2000/svg" height="512" preserveAspectRatio="none" style="display: block;" version="1.1" viewBox="0 0 2048 2048" width="512">
<path d="M 384.833 424.353 C 401.548 423.174 435.799 424.316 453.9 424.325 L 1599.56 424.354 C 1723.02 424.293 1749.94 433.54 1750.04 564.686 L 1750 1349.28 C 1750.14 1384.26 1759.4 1451.52 1705.4 1450.08 C 1637.77 1447.78 1624.21 1452.53 1624.41 1377.47 L 1624.49 551.998 L 425.898 551.998 C 425.04 563.813 425.826 584.965 425.898 597.5 L 425.898 1495.02 L 1454.63 1494.97 C 1486.06 1494.97 1534.33 1489.94 1538.33 1533.69 C 1547.04 1629.15 1513.5 1621.15 1439.43 1621.02 L 444.767 1620.97 C 321.321 1621.03 298.264 1600.89 298.386 1473.87 L 298.373 565.21 C 298.369 500.306 301.291 430.961 384.833 424.353 z" fill="rgb(0,0,0)" transform="translate(0,0)"></path>
<metadata><recraft-signature>{"signed_by": "recraft", "signature_b64": "vdMTWcSBC4fwE5LiX6B5nf/59kyA4+VN47xD31qtALxbRjrzLoylUk8H6v9Ejyg3X+tr5zlHcKQCDTMtRcJ9Ag==", "signing_algo": "Ed25519", "generation_timestamp": 1773000379, "identifier": "7d515461-fbfa-4861-b0b4-baa3f1f436be"}</recraft-signature></metadata></svg>