<svg xmlns="http://www.w3.org/2000/svg" height="512" preserveAspectRatio="none" style="display: block;" version="1.1" viewBox="0 0 2048 2048" width="512">
<path d="M 437.742 350.996 C 437.982 350.963 438.221 350.93 438.46 350.897 L 1551.08 350.955 C 1716.38 350.954 1750.98 413.878 1750.85 572.298 L 1750.84 1508.23 C 1750.85 1520.8 1751.58 1551.47 1750.13 1562.79 C 1740.71 1636.17 1683.75 1688.46 1610.66 1695.15 L 484.469 1695.22 C 441.552 1695.29 407.327 1695.64 369.736 1670.22 C 301.478 1624.06 298.505 1568.58 298.55 1496.07 L 298.56 556.286 C 298.546 448.415 315.64 373.541 437.742 350.996 z M 1598.74 1566.16 C 1630.85 1543.23 1619.11 1506.47 1619.07 1467.55 L 1619.11 554.721 C 1619.14 484.612 1631.15 478.815 1559.17 478.881 L 451.163 478.954 C 442.131 483.085 435.425 487.763 432.082 497.684 C 428.784 507.472 430.859 676.495 430.86 699.851 L 430.823 1481.86 C 430.717 1581.88 425.953 1566 533.551 1566.1 L 1541.63 1566.15 C 1550.45 1566.16 1592.52 1567.31 1598.74 1566.16 z" fill="rgb(32,31,32)" transform="translate(0,0)"></path>
<path d="M 1458.98 802.989 C 1560.2 795.844 1546 876.28 1545.97 950 L 1546.16 1169.31 C 1546.19 1232.85 1511.18 1243.12 1455.84 1243.08 L 1152.91 1243.02 C 1100.79 1244.2 1063.11 1232.25 1063.03 1172.24 L 1063.01 892.703 C 1062.99 818.672 1086.96 802.816 1158.12 802.913 L 1458.98 802.989 z M 1192.99 1115.98 L 1340.67 1115.95 C 1362.91 1115.95 1393.05 1114.97 1414.51 1115.98 C 1414.53 1055.43 1415.75 990.791 1414.51 930.585 L 1265.96 930.564 C 1243.85 930.553 1214.17 929.534 1192.99 930.585 C 1191.7 932.069 1192.96 962.478 1192.97 966.864 L 1192.99 1115.98 z" fill="rgb(32,31,32)" transform="translate(0,0)"></path>
<path d="M 560.69 802.989 C 614.348 801.759 672.934 802.944 726.908 802.947 L 791.743 802.952 C 860.131 802.961 875.934 808.13 891.765 879.492 L 903.894 933.982 L 955.824 1153.54 C 966.689 1198.97 948.278 1233.21 901.414 1243.02 L 600.038 1243.05 C 501.202 1243.03 501.009 1212.54 501.053 1120.84 L 501.058 912.895 C 500.915 863.392 496.697 811.711 560.69 802.989 z M 628.035 930.585 L 628.035 1115.98 L 743.191 1115.94 C 762.399 1115.93 783.929 1115.39 802.855 1115.98 L 816.336 1115.98 C 805.121 1054.75 787.867 991.372 777.374 930.585 L 640.785 930.585 L 628.035 930.585 z" fill="rgb(78,128,254)" transform="translate(0,0)"></path>
<metadata><recraft-signature>{"signed_by": "recraft", "signature_b64": "ON9sigJVPNkJFdV5QpzOr/uIRmrmAN2ndhQAp5B2kM3EkcANGc/zX+5q5pS86TT5CdZOKkVv7cvtCSL9enq1Ag==", "signing_algo": "Ed25519", "generation_timestamp": 1772999925, "identifier": "2496a163-eaaf-4e36-bc6f-2ae6cd31d857"}</recraft-signature></metadata></svg>