<svg xmlns="http://www.w3.org/2000/svg" height="512" preserveAspectRatio="none" style="display: block;" version="1.1" viewBox="0 0 2048 2048" width="512">
<path d="M 268.001 473.992 L 1779.44 473.992 L 1779.41 1457.16 C 1779.41 1494.28 1780.76 1539.2 1779.44 1575.7 L 268.001 1575.7 L 268.001 473.992 z M 616.895 930.847 L 302.999 930.847 L 302.999 1115.53 L 616.895 1115.53 C 616.886 1255.27 615.402 1397.55 616.895 1537.07 L 801.14 1537.07 L 801.119 1257.23 C 801.116 1211 800.219 1161.55 801.14 1115.53 L 1009.25 1115.53 L 1718.82 1115.46 C 1725.23 1115.44 1737.56 1114.99 1743.54 1115.53 L 1743.54 930.847 C 1709.26 930.189 1673.06 930.841 1638.6 930.844 L 801.14 930.847 L 801.14 506.485 C 781.867 505.815 760.092 506.477 740.514 506.487 L 620.787 506.485 L 617.254 507.393 C 615.353 511.433 616.991 542.513 617.013 549.454 L 616.895 930.847 z" fill="rgb(0,0,0)" transform="translate(0,0)"></path>
<metadata><recraft-signature>{"signed_by": "recraft", "signature_b64": "f2TxwzWq0YfuALy623BB79ReZsUPm1kJlHU6pcVR1htS+3NjDp7zdNUE2DQrI3xWhBh5rlqs/4PFhtgUOun7Aw==", "signing_algo": "Ed25519", "generation_timestamp": 1772996582, "identifier": "ffe1bb3e-75c5-479c-ad99-f687830dbe2c"}</recraft-signature></metadata></svg>