<svg xmlns="http://www.w3.org/2000/svg" height="512" preserveAspectRatio="none" style="display: block;" version="1.1" viewBox="0 0 2048 2048" width="512">
<path d="M 1605.58 189.235 C 1644.93 188.609 1674.68 217.208 1674.99 256.621 L 1675.54 1781.31 C 1676.86 1829.51 1628.92 1864.21 1583.53 1849.23 C 1558 1840.8 1529.26 1825.18 1504.23 1813.98 L 800.868 1495.02 C 741.212 1466.36 750.021 1466 685.515 1466.01 L 562.483 1466.04 C 507.369 1466.11 476.407 1473.94 430.299 1437.84 C 361.051 1383.61 373.044 1309.99 373.053 1233.61 L 373.17 719.873 C 372.926 661.511 409.633 600.567 467.293 583.511 C 499.656 573.938 547.862 577.515 582.596 577.534 L 691.317 577.496 C 746.312 577.527 737.341 580.475 788.316 556.857 L 1531.9 216.972 C 1554.99 206.514 1580.93 192.407 1605.58 189.235 z M 833.49 688.07 C 834.086 712.348 833.499 738.572 833.494 763.032 L 833.49 1354.32 L 1051.81 1454.51 C 1076.43 1466.42 1099.58 1476.42 1124.17 1487.73 L 1478.58 1648.16 C 1496.66 1656.18 1518.15 1666.98 1535.75 1673.86 C 1534.84 1656.83 1535.58 1640.46 1535.71 1623.45 L 1535.75 368.55 C 1520.16 373.14 1479.11 392.964 1462.03 400.76 L 887.691 663.97 C 871.778 671.246 847.82 680.554 833.49 688.07 z M 511.94 1330 L 628.501 1329.94 C 650.112 1329.84 672.652 1328.68 694.077 1330 L 694.077 714.975 L 511.94 714.975 C 511.215 727.036 511.849 739.406 511.908 751.533 L 511.925 1220.37 C 511.918 1252.98 510.522 1298.38 511.94 1330 z" fill="rgb(0,0,0)" transform="translate(0,0)"></path>
<metadata><recraft-signature>{"signed_by": "recraft", "signature_b64": "NIhRq38sKZLBB/p4ynvkBfMTjwlLjSEX1IBYNdkd6bxIkUn5x4IqoK4PIUEbNKtqpvEkDuLYHIPi444gFqJ0DA==", "signing_algo": "Ed25519", "generation_timestamp": 1773000774, "identifier": "29fd6b49-01b9-448b-aa5a-125cd7392b0e"}</recraft-signature></metadata></svg>