<svg xmlns="http://www.w3.org/2000/svg" height="512" preserveAspectRatio="none" style="display: block;" version="1.1" viewBox="0 0 2048 2048" width="512">
<path d="M 425.938 473.998 L 1619.44 473.869 C 1688.68 473.811 1705.2 507.96 1705.68 571.096 L 1705.77 1484.05 C 1705.49 1536.7 1678.81 1573.82 1622.75 1572.96 L 1425.43 1572.96 C 1380.03 1572.99 1315.77 1581.96 1280.22 1550.34 C 1251.48 1524.76 1254.88 1491.82 1254.91 1457.26 L 1254.98 1376.17 C 1254.97 1358.04 1262.61 1321.68 1241.55 1320.9 C 1217.46 1320.01 1192.7 1320.44 1168.56 1320.44 L 484.063 1320.46 C 371.567 1320.49 342.718 1317.82 342.861 1197.94 L 342.779 573.712 C 342.599 512.863 353.419 477.107 425.938 473.998 z M 494.031 1167.02 L 1300.54 1167 C 1367.51 1166.98 1406.53 1179.1 1406.31 1254.68 L 1406.06 1421 C 1418.34 1421 1549.7 1421.99 1552.26 1421 C 1553.59 1397.33 1552.23 1361.98 1552.24 1337.06 L 1552.26 622.079 L 494.031 622.079 L 494.059 1104 C 494.1 1125.39 494.739 1145.55 494.031 1167.02 z" fill="rgb(0,0,0)" transform="translate(0,0)"></path>
<metadata><recraft-signature>{"signed_by": "recraft", "signature_b64": "1lj1k/s66neYfZsdeJ3a8bwTwfUvH1qBY1IoaXupbpAUP5TdIje3ASAGsqf2SGmTyeaskmFU/2IQ8vvBgk0lDQ==", "signing_algo": "Ed25519", "generation_timestamp": 1772995946, "identifier": "9be5970e-027a-4969-9f91-8fe6dcac02e6"}</recraft-signature></metadata></svg>