<svg xmlns="http://www.w3.org/2000/svg" height="512" preserveAspectRatio="none" style="display: block;" version="1.1" viewBox="0 0 2048 2048" width="512">
<path d="M 374.697 301.008 L 1621.39 300.965 C 1669.03 300.926 1728.88 297.057 1742.97 359.531 C 1746.07 373.285 1745.03 393.412 1745.04 407.789 L 1745 1559.1 C 1745.05 1636.98 1766.41 1721.2 1670.9 1745.01 C 1664.43 1745.85 1636.45 1745.1 1627.61 1745.07 L 479.408 1745.04 C 433.949 1745.07 374.749 1753.75 337.026 1726.82 C 296.884 1698.15 301.006 1655.75 300.993 1612.14 L 300.974 470.144 C 300.941 402.435 283.77 313.702 374.697 301.008 z M 465.994 1582.36 L 1582.44 1582.36 L 1582.44 464.939 L 465.994 464.939 L 465.994 1582.36 z" fill="rgb(35,48,62)" transform="translate(0,0)"></path>
<path d="M 755.741 596.382 C 786.109 592.914 806.312 606.802 831.615 621.075 L 1387.43 937.962 C 1410.13 950.996 1433.28 960.297 1446.5 984.181 C 1481.58 1047.55 1433.07 1081.74 1386.48 1107.2 L 1335.66 1135.24 L 1173.46 1228.19 C 1051.95 1293.35 930.479 1368.21 809.666 1436.11 C 782.055 1451.62 745.124 1448.62 719.766 1429.64 C 686.032 1404.39 688.08 1371.59 688.07 1333.75 L 688.038 713.622 C 688.033 662.821 688.08 605.13 755.741 596.382 z M 849 1228.19 C 873.395 1215.69 899.67 1200.23 923.867 1186.72 L 1085.44 1096.66 L 1161.35 1053.87 C 1177.62 1044.85 1200.85 1032.71 1215.4 1022.39 C 1172.61 999.547 1132.44 976.045 1090.43 952.314 L 882.682 835.602 C 876.039 831.824 854.8 819.298 849 817.192 L 849 1228.19 z" fill="rgb(35,48,62)" transform="translate(0,0)"></path>
<metadata><recraft-signature>{"signed_by": "recraft", "signature_b64": "6zlrjcIRESuXv5gH08Bb+XvTKL6cjFsOc8vMZ3fp94Prwd5C1j09v4OUAXkM9RKxjCAw1PPGvzb1e1B6BEXBBQ==", "signing_algo": "Ed25519", "generation_timestamp": 1772999587, "identifier": "749309ae-12d9-4818-9e39-ef1054dee960"}</recraft-signature></metadata></svg>