<svg xmlns="http://www.w3.org/2000/svg" height="512" preserveAspectRatio="none" style="display: block;" version="1.1" viewBox="0 0 2048 2048" width="512">
<path d="M 1382.72 375.405 C 1459.03 364.464 1517.05 426.175 1565.66 473.99 L 1669.64 577.242 C 1799.42 705.807 1780.12 830.207 1775.31 1000.24 L 1767.18 1302.89 C 1765.36 1358.07 1769.69 1465.92 1757.43 1516.89 C 1739.34 1592.12 1675.17 1652.75 1598.78 1665.94 C 1566.91 1671.04 1526.58 1668.74 1493.5 1668.7 L 666.75 1668.71 L 548.284 1668.73 C 513.148 1668.76 472.029 1670.86 438.161 1663.05 C 322.544 1636.39 285.355 1546.57 282.802 1441.04 L 268.986 942.982 C 268.168 916.395 265.246 886.836 268.251 860.473 C 282.441 741.557 366.487 718.272 459.465 686.674 L 1270.54 405.482 C 1310.89 391.862 1339.96 379.534 1382.72 375.405 z M 423.033 1092.32 C 422.306 1118.94 424.112 1145.71 424.993 1172.32 L 432.878 1424.01 C 434.457 1469.22 429.137 1514.61 487.964 1515.08 L 1532.4 1515.1 C 1556.54 1515.09 1580.76 1519.22 1599.87 1501.92 C 1626.57 1473.5 1617.41 1359.62 1618.21 1318.56 L 1621.94 1163.09 C 1622.3 1140.21 1623.57 1114.95 1622.03 1092.32 C 1577.19 1061.48 1501.86 1050.91 1449.98 1060.93 C 1394.87 1071.58 1352.68 1102.22 1294.51 1105.28 C 1248.8 1107.68 1204.11 1106.36 1159.74 1092.25 C 1029.36 1047.29 1021.98 1042.04 892.25 1091.68 C 811.884 1120.56 721.872 1107.41 645.287 1073.93 C 612.929 1059.78 568.446 1053.17 532.775 1056.99 C 493.152 1062.37 458.018 1071.99 423.033 1092.32 z M 556.412 810.163 L 792.75 810.163 L 1622.03 810.163 C 1620.39 713.691 1509.99 622.851 1441.17 558.354 C 1425.69 543.823 1409.96 523.65 1385.85 527.29 C 1367.15 531.129 1349.59 538.055 1331.55 544.185 L 674.824 769.78 C 637.519 783.02 592.082 796.171 556.412 810.163 z" fill="rgb(0,0,0)" transform="translate(0,0)"></path>
<metadata><recraft-signature>{"signed_by": "recraft", "signature_b64": "y6wz7PS0UWQfMDnt+tSdTBS3PNQ2aCKy1TeztkfONRUkYRU0h03foCJncwn4+y2DIk8h+lrdOjRSNP6e3bvmBg==", "signing_algo": "Ed25519", "generation_timestamp": 1772995696, "identifier": "7a703316-0f92-41c8-a0d6-c7e23e214fef"}</recraft-signature></metadata></svg>