<svg xmlns="http://www.w3.org/2000/svg" height="512" preserveAspectRatio="none" style="display: block;" version="1.1" viewBox="0 0 2048 2048" width="512">
<path d="M 334.542 426.33 L 1745 426.33 L 1745 1597.78 C 1734.92 1598.02 1724.6 1597.84 1714.5 1597.78 L 302.91 1597.78 L 302.91 426.33 C 313.494 426.504 323.961 426.411 334.542 426.33 z M 720.47 1069.6 L 720.47 1478.38 L 971.825 1478.38 L 1624.83 1478.38 L 1624.83 1069.6 L 1375 1069.6 L 720.47 1069.6 z M 720.47 545.051 C 719.645 569.332 720.464 596.897 720.474 621.516 L 720.433 887.62 C 720.411 905.266 719.544 930.239 720.47 947.001 C 749.971 947.899 784.519 947.009 814.385 947.005 L 1574.5 947.001 L 1624.83 947.001 L 1624.83 545.051 L 770.497 545.051 L 720.47 545.051 z M 425.552 545.051 L 425.552 947.001 L 599.985 947.001 L 599.985 545.051 L 425.552 545.051 z M 478.997 1069.6 L 425.552 1069.6 L 425.552 1478.38 L 547.5 1478.38 L 599.985 1478.38 L 600.006 1201.11 C 599.997 1157.65 597.092 1112.87 599.985 1069.6 L 478.997 1069.6 z" fill="rgb(0,0,0)" transform="translate(0,0)"></path>
<metadata><recraft-signature>{"signed_by": "recraft", "signature_b64": "ZU07C8yv4+sTniDgTJSYAebMw5HzcDqyA6QoGUfqmj6Qxd0ZE1OcX1O1GaMVnFhG3mbA1RNcAKWE24q7SDPeBw==", "signing_algo": "Ed25519", "generation_timestamp": 1772995776, "identifier": "e11c78dc-793f-46b8-bb50-d174470bd1b5"}</recraft-signature></metadata></svg>