<svg xmlns="http://www.w3.org/2000/svg" height="512" preserveAspectRatio="none" style="display: block;" version="1.1" viewBox="0 0 2048 2048" width="512">
<path d="M 502.75 352.49 L 1544.85 352.352 C 1614.78 352.021 1683.31 374.721 1694.49 456.278 C 1696.64 472.017 1696.21 491.772 1696.21 507.92 L 1696.53 1575.63 C 1696.31 1660.87 1626.25 1694.43 1552.25 1693.99 L 504.689 1694.06 C 422.918 1694.13 354.716 1662.83 353.971 1567.1 L 354.017 499.441 C 354.057 436.456 366.168 382.98 434.136 359.089 C 457.378 350.92 478.51 352.482 502.75 352.49 z M 510.996 864.4 L 1279 864.4 L 1279 1025.7 L 510.996 1025.7 L 510.996 1536.02 L 767.5 1536.02 L 1536.21 1536.02 L 1536.21 512.921 L 510.996 512.921 L 510.996 864.4 z" fill="rgb(0,0,0)" transform="translate(0,0)"></path>
<metadata><recraft-signature>{"signed_by": "recraft", "signature_b64": "sYDw2lPMSjaHnV2c6jdmoRMRaurLWYtxWOwQU2+L5t3A3NENKV5qz+QDt0yn9nT4S1ge9iZIgJu91e9QaVaOCg==", "signing_algo": "Ed25519", "generation_timestamp": 1773000858, "identifier": "08793ac3-1964-4976-9570-fa0e9b0cbd90"}</recraft-signature></metadata></svg>