<svg xmlns="http://www.w3.org/2000/svg" height="512" preserveAspectRatio="none" style="display: block;" version="1.1" viewBox="0 0 2048 2048" width="512">
<path d="M 1345.46 1198.57 C 1362.5 1197.67 1388.56 1198.54 1406.27 1198.55 L 1761.65 1198.28 C 1836.3 1199.55 1844.09 1260.32 1844.05 1318.59 L 1844.02 1587.93 C 1844.03 1647.78 1860.13 1758.53 1767.04 1754.42 L 1392.33 1754.5 C 1360.01 1754.71 1323.37 1759.12 1297.49 1734.95 C 1258.2 1698.24 1269.01 1635.3 1269.05 1584.72 L 1269.04 1323.5 C 1269.04 1267.22 1268.61 1203.14 1345.46 1198.57 z M 1345.46 1697.51 L 1767.04 1697.51 C 1797.09 1688.4 1786.56 1629.99 1786.55 1602 L 1786.54 1370.84 C 1786.56 1336.65 1801.38 1256.39 1758.07 1256.74 L 1394.43 1256.98 C 1380.63 1256.9 1361.79 1255.39 1348.71 1257 C 1315.39 1265.33 1327.28 1342.96 1327.27 1373.15 L 1327.25 1521.07 C 1327.25 1564.02 1311.62 1675.17 1345.46 1697.51 z" fill="rgb(0,0,0)" transform="translate(0,0)"></path>
<path d="M 1491.39 1330.39 C 1526.67 1329.68 1574.75 1324.67 1604.39 1344.59 C 1648.4 1374.15 1652.45 1423.7 1624.86 1466.01 C 1659.47 1500.17 1652.01 1557.26 1618.61 1588.71 C 1579.86 1620.87 1540.48 1608.03 1494.31 1610.36 C 1449.1 1612.64 1465.01 1502.51 1465 1470.64 L 1465.02 1402.32 C 1465.03 1374.9 1456.88 1338.05 1491.39 1330.39 z M 1523 1552.01 C 1544.21 1555.32 1563.05 1557.37 1581.75 1546.12 C 1621.57 1496.98 1548.45 1496.07 1523 1495 L 1523 1552.01 z M 1523 1441 C 1540.8 1441.19 1562.83 1443.87 1577.58 1433.94 C 1610.37 1388.16 1551.74 1388.92 1523 1389.01 L 1523 1441 z" fill="rgb(0,0,0)" transform="translate(0,0)"></path>
<path d="M 281.188 1198.57 C 312.726 1199.49 349.298 1198.59 381.206 1198.58 L 652.208 1198.53 C 745.63 1198.49 778.675 1216.39 778.034 1312.5 L 778.008 1629.44 C 777.996 1688.27 779.279 1746.69 703.944 1754.42 L 326.68 1754.46 C 205.157 1754.54 206.248 1722.33 206.3 1620.51 L 206.317 1343.29 C 206.304 1271.19 193.556 1216.28 281.188 1198.57 z M 277.803 1697.51 C 300.429 1698.77 337.399 1697.51 361.044 1697.5 L 649.466 1697.54 C 662.043 1697.56 693.128 1698.62 703.944 1697.51 C 730.403 1685.81 720.965 1620.34 720.971 1594.16 L 720.947 1345.08 C 720.942 1331.03 727.112 1263.96 707.334 1260.14 C 680.306 1254.93 644.774 1257.04 617.486 1257.02 L 349.684 1256.97 C 329.295 1256.97 304.575 1256.29 284.47 1257 C 250.036 1265.63 263.225 1344.42 263.221 1375.91 L 263.085 1640.05 C 263.047 1663.39 256.953 1682.45 277.803 1697.51 z" fill="rgb(0,0,0)" transform="translate(0,0)"></path>
<path d="M 476.064 1330.39 C 531.424 1326.68 574.154 1358.18 591.513 1410.13 C 573.354 1415.23 555.772 1423.04 538.365 1430.37 C 519.987 1360.91 403.426 1365.16 425.616 1509.36 C 433.793 1562.49 503.082 1576.54 532.504 1532 C 534.575 1528.86 539.191 1518.6 541.501 1517.13 L 543.514 1518.09 C 559.88 1527.25 574.348 1537.69 591.513 1546.12 C 566.726 1587.66 538.536 1616.02 486.42 1616.53 C 402.31 1617.36 363.288 1547.97 366.522 1470.55 C 363.795 1401.48 399.611 1330.13 476.064 1330.39 z" fill="rgb(0,0,0)" transform="translate(0,0)"></path>
<path d="M 1192.5 291.984 C 1247.2 287.293 1297.4 314.373 1297.86 373.056 L 1298.02 716.288 C 1297.99 800.672 1273.52 825.56 1189.22 825.47 L 1121.55 825.381 C 1035.63 825.365 946.974 824.254 861.25 825.406 L 849.109 825.454 C 768.912 825.48 751.034 788.043 750.993 715.366 L 751.003 380.35 C 751.403 304.339 798.258 291.95 863.439 291.951 L 940.025 291.978 C 1023.11 291.985 1109.65 290.676 1192.5 291.984 z M 819.032 350.131 C 803.666 369.331 809.488 395.632 809.492 420.788 L 809.534 680.313 C 809.535 758.633 791.828 768.004 874.674 768.014 L 1151.5 767.974 C 1219.63 768.211 1239.59 786.219 1239.58 715.818 L 1239.2 379.86 C 1238.98 365.343 1238.8 358.815 1225.93 350.131 L 898.993 350.131 L 819.032 350.131 z" fill="rgb(0,0,0)" transform="translate(0,0)"></path>
<path d="M 1017.78 417.144 C 1048.79 415.666 1050.95 434.293 1060.96 458.102 L 1120.75 602.304 C 1126.81 617.295 1144.08 653.18 1144.11 669.016 C 1144.13 680.881 1123.21 699.185 1108.61 693.459 C 1087.23 685.068 1079.1 650.332 1069.34 629.888 C 1056.67 630.233 1043.48 629.973 1030.75 629.888 L 978.461 629.888 C 966.851 650.298 963.374 682.105 941.348 692.041 C 929.651 697.317 906.415 686.063 903.931 672.962 C 900.444 654.574 915.588 627.302 922.833 610.423 L 982.855 465.981 C 991.282 445.487 994.438 423.778 1017.78 417.144 z M 1001 574.986 L 1026.38 574.986 C 1034.04 574.496 1039.86 574.708 1047.56 574.986 C 1043.34 564.604 1029.4 522.607 1026.38 517.607 C 1015.33 534.452 1008.34 555.906 1001 574.986 z" fill="rgb(0,0,0)" transform="translate(0,0)"></path>
<path d="M 1544.74 825.406 C 1555.69 826.963 1567.22 826.237 1578.32 828.594 C 1685.83 851.432 1693.74 999.211 1587 1032.95 L 1587 1129.74 L 1577.58 1129.74 L 1528.03 1129.74 C 1528.75 1097.89 1526.73 1064.51 1528.03 1032.95 C 1422.83 999.594 1424.33 861.543 1544.74 825.406 z M 1564.49 978.914 C 1590.09 974.971 1607.78 951.201 1604.22 925.543 C 1600.65 899.885 1577.14 881.846 1551.43 885.041 C 1534.46 887.149 1519.95 898.232 1513.44 914.044 C 1506.94 929.855 1509.46 947.944 1520.03 961.38 C 1530.6 974.816 1547.59 981.516 1564.49 978.914 z" fill="rgb(0,0,0)" transform="translate(0,0)"></path>
<path d="M 476.064 722.361 C 619.449 707.454 673.864 927.443 513.444 979.084 C 512.808 1007.67 513.677 1036.75 513.444 1065.49 C 494.485 1065.86 475.066 1065.57 456.07 1065.49 C 456.955 1054.28 456.289 1043.06 456.183 1031.8 L 456.07 979.084 C 432.803 973.316 422.401 967.851 403.416 953.504 C 411.608 942.893 432.19 921.469 442.171 912.752 C 457.253 922.939 476.118 928.345 494.247 924.394 C 574.508 904.372 575.931 794.001 495.798 779.956 C 429.605 768.354 385.468 841.614 432.147 905.242 C 424.586 915.269 403.593 936.895 394.459 945.436 C 312.532 870.255 363.508 732.029 476.064 722.361 z" fill="rgb(0,0,0)" transform="translate(0,0)"></path>
<path d="M 1078.69 1410.13 C 1106.25 1408.71 1164.1 1480.91 1185.33 1502.37 C 1193.2 1510.32 1196.79 1527.8 1188.66 1536.37 C 1159.22 1567.38 1129.71 1598.62 1099.31 1628.66 C 1090.34 1637.92 1076.19 1638.08 1066.4 1629.73 C 1034.86 1602.83 1077.21 1572.5 1094.21 1552.01 C 1081.15 1551.19 1061.01 1551.92 1047.56 1552.01 L 850.897 1552.01 C 850.306 1533.91 850.845 1513.29 850.897 1495 L 1099.19 1495 C 1080.94 1475.48 1023.22 1427.44 1078.69 1410.13 z" fill="rgb(0,0,0)" transform="translate(0,0)"></path>
<metadata><recraft-signature>{"signed_by": "recraft", "signature_b64": "GcKm1dLyi4L0/2TRBvlca8kbb+snNhPrb2ViaiSlseq96NQSv1yIuum8Ew+Znw176pzkpWF6vadOcqUq2/p/BQ==", "signing_algo": "Ed25519", "generation_timestamp": 1772998262, "identifier": "b3e48f2a-816e-484e-9313-8a2060b0e155"}</recraft-signature></metadata></svg>