<svg xmlns="http://www.w3.org/2000/svg" height="512" preserveAspectRatio="none" style="display: block;" version="1.1" viewBox="0 0 2048 2048" width="512">
<path d="M 358.715 296.999 C 359.081 296.946 359.446 296.893 359.812 296.841 L 1507.72 296.972 C 1545.1 296.919 1616.55 287.53 1621.09 343.233 C 1622.44 359.741 1621.97 377.72 1621.97 394.36 L 1621.94 811.212 C 1580.77 811.2 1535.73 812.225 1495.01 811.212 L 1495.01 420.971 C 1475.59 420.222 1451.63 420.951 1431.73 420.956 L 1305.95 420.972 C 1212.6 420.978 1115.56 419.581 1022.48 420.971 C 1022.88 463.355 1023.68 515.807 1022.48 557.648 L 895.018 557.648 C 896.023 551.309 895.095 524.987 895.077 516.374 L 895.018 420.971 L 425.698 420.971 C 425.078 431.986 425.621 447.801 425.632 459.207 L 425.698 531.75 L 425.698 1172.91 C 441.011 1172.11 460.585 1172.89 476.436 1172.9 L 895.018 1172.91 C 896.042 1124.02 895.037 1070.98 895.018 1021.74 L 1022.48 1021.74 L 1022.48 1172.91 C 1036.21 1172.12 1047.79 1172.74 1061.5 1172.83 L 1123.55 1172.91 C 1133.15 1222.52 1127.28 1278.21 1177.65 1301 C 1163.79 1299.7 1130.76 1300.95 1114.78 1300.97 L 420.2 1301.04 C 342.046 1301.06 301.038 1306.27 300.991 1213.32 L 301 421.765 C 300.946 368.767 287.698 306.967 358.715 296.999 z" fill="rgb(0,0,0)" transform="translate(0,0)"></path>
<path d="M 1416.27 935.922 C 1492.98 931.967 1620.12 926.115 1677.83 972.386 C 1743.42 1024.97 1750.34 1069.35 1747.46 1147.53 C 1744.81 1219.37 1760.05 1281.85 1707.74 1343.55 C 1670.23 1387.8 1633.87 1406.19 1576.96 1412.63 C 1575.19 1441.52 1578.74 1471.07 1576.15 1500.78 C 1569.34 1578.95 1457.48 1579.13 1451.52 1511.56 C 1450.44 1499.23 1450.86 1486.2 1450.92 1473.53 L 1451.08 1409.18 C 1451.04 1389.62 1448.2 1354.32 1451.01 1336.26 C 1480.01 1275.22 1514.88 1298.61 1570.72 1292.85 C 1638.63 1285.85 1625.52 1214.48 1626.88 1166.44 C 1627.76 1049.75 1610.24 1059.2 1512.41 1059.02 L 1455.12 1058.88 C 1315.78 1058.46 1398.17 1158.25 1355.29 1212.56 C 1321.5 1255.64 1250.91 1235.87 1246.9 1180.46 C 1237.92 1056.33 1280.71 951.21 1416.27 935.922 z" fill="rgb(0,0,0)" transform="translate(0,0)"></path>
<path d="M 924.977 1402.29 C 1020.26 1393.79 1104.43 1464.05 1113.11 1559.32 C 1121.78 1654.58 1051.68 1738.88 956.428 1747.73 C 860.931 1756.6 776.366 1686.28 767.67 1590.77 C 758.974 1495.25 829.449 1410.82 924.977 1402.29 z" fill="rgb(0,0,0)" transform="translate(0,0)"></path>
<path d="M 1504.54 1621.72 C 1538.72 1616.63 1570.58 1640.13 1575.79 1674.29 C 1581.01 1708.45 1557.61 1740.39 1523.47 1745.72 C 1489.17 1751.07 1457.04 1727.54 1451.8 1693.22 C 1446.56 1658.9 1470.2 1626.85 1504.54 1621.72 z" fill="rgb(0,0,0)" transform="translate(0,0)"></path>
<metadata><recraft-signature>{"signed_by": "recraft", "signature_b64": "t8foNNxG0edcDTu/wsW0qWmNOcH3+4bQWEUVn/17yjadniBP+xmtqcTBS6MHpDFsx6qA1kNiOEzfIaHaJxs3Dg==", "signing_algo": "Ed25519", "generation_timestamp": 1772989449, "identifier": "3f228949-d44a-430c-8d94-e538838af53f"}</recraft-signature></metadata></svg>