<svg xmlns="http://www.w3.org/2000/svg" height="512" preserveAspectRatio="none" style="display: block;" version="1.1" viewBox="0 0 2048 2048" width="512">
<path d="M 709.785 1081 C 715.159 1080.42 750.712 1080.56 755.997 1081 C 756.009 1129.71 754.742 1183.86 755.997 1232.14 C 579.794 1194.25 544.256 1456.34 710.525 1473.87 C 773.47 1480.5 800.58 1442.24 840.228 1401.85 L 944.657 1297.49 C 955.939 1286.39 977.853 1262.85 988.672 1254.03 L 990.028 1252.94 C 990.453 1245.13 989.795 1232.66 989.339 1224.68 C 985.552 1158.32 1030.5 1100.13 1095.75 1087.12 C 1114.56 1083.37 1137.99 1084.95 1157.81 1085.01 L 1583.57 1084.93 C 1640.97 1084.89 1676.01 1081.14 1722.32 1125.46 C 1759.17 1160.73 1759.34 1196.92 1759.14 1242.66 L 1759.06 1614.91 C 1760.33 1707.78 1708.38 1759.32 1615.88 1759.94 L 1175.33 1760.01 C 1149.48 1760.01 1115.28 1761.45 1090.83 1755.71 C 990.857 1732.23 989.962 1644.65 989.971 1565.05 L 990.028 1459.38 C 953.569 1495.36 911.997 1545.37 870.161 1572.37 C 706.299 1678.12 488.529 1580.05 461.166 1388.23 C 438.249 1227.58 556.066 1102.59 709.785 1081 z M 1133 1228.89 C 1131.72 1356.97 1133.44 1486.63 1133 1614.91 L 1583.5 1614.91 L 1616.05 1614.91 L 1616.05 1228.89 L 1167.75 1228.89 L 1133 1228.89 z" fill="rgb(0,0,0)" transform="translate(0,0)"></path>
<path d="M 419.501 288.719 L 883.189 288.69 C 904.839 288.684 933.179 287.067 953.96 291.419 C 1055.9 312.768 1057.06 400.034 1057.04 479.864 L 1057 580.391 C 1091.9 547.521 1128.93 505.147 1164.98 475.639 C 1329.65 340.853 1588.32 477.658 1587.51 684.626 C 1592.97 853.016 1461.89 959.491 1302.18 962.448 L 1302.21 864.096 C 1302.26 850.859 1303.11 829.105 1302.18 816.532 C 1333.32 817.504 1346.24 817.396 1375.07 803.741 C 1533.08 712.379 1384.4 502.435 1261.05 585.877 C 1243.92 597.651 1225.77 617.122 1210.62 632.023 L 1097.1 744.074 C 1084.34 756.61 1067.82 772.038 1057 786.081 C 1053.58 839.331 1062.12 872.376 1019.68 917.506 C 992.803 946.092 957.36 962.119 917.964 962.359 L 462.164 962.458 C 436.696 962.457 409.861 964.295 385.39 956.996 C 277.017 924.671 287.872 832.302 287.875 745.5 L 287.837 458.216 C 287.625 371.063 312.414 290.361 419.501 288.719 z M 431.561 816.532 C 449.887 817.102 468.45 816.563 486.82 816.547 L 913.007 816.532 C 915.309 813.529 912.983 783.165 912.977 776.93 L 913.007 429.018 L 483.499 429.002 C 467.906 428.995 446.716 428.266 431.561 429.018 L 431.574 685.972 C 431.554 727.621 430.394 775.325 431.561 816.532 z" fill="rgb(0,0,0)" transform="translate(0,0)"></path>
<metadata><recraft-signature>{"signed_by": "recraft", "signature_b64": "KY3TCJ++TH8oVmWg2fNYh+bTFF6SrbmrYXTmZu9LQuLA1Q2VwiCPUz2dnIPGKAFob9W1sFXG45h5KnMOR1BbBg==", "signing_algo": "Ed25519", "generation_timestamp": 1772989391, "identifier": "bb94614e-7ad3-4c13-b090-8aa50ebcf81c"}</recraft-signature></metadata></svg>