<svg xmlns="http://www.w3.org/2000/svg" height="512" preserveAspectRatio="none" style="display: block;" version="1.1" viewBox="0 0 2048 2048" width="512">
<path d="M 371.157 417.996 C 400.079 417.245 432.073 417.96 461.26 417.973 L 1621.31 417.947 C 1697.34 417.846 1758.46 418.83 1802.51 497.113 C 1826.55 539.825 1822.08 583.424 1822.02 630.149 L 1822.05 1438.64 C 1822.06 1453.8 1822.84 1471.71 1821.58 1486.61 C 1814.62 1568.79 1748.76 1607.22 1678.24 1626.99 C 1665.5 1626.33 1652.79 1626.92 1640.02 1626.97 L 416.026 1627.03 C 324.034 1627.16 239.347 1587.53 228.911 1484.09 C 226.899 1464.15 227.898 1442.3 227.981 1422.06 L 227.931 612.592 C 227.657 560.331 225.547 519.778 261.399 476.415 C 291.084 440.511 324.897 422.715 371.157 417.996 z M 1664.47 1509 C 1689.48 1501.29 1702.13 1487.31 1702.22 1460.45 L 1702.26 703.693 C 1702.27 678.863 1705.01 576.544 1699.29 559.759 C 1686.08 520.932 1564.54 537.212 1527.14 537.214 L 382.541 537.197 C 362.862 538.584 346.745 547.396 346.522 569.666 L 346.032 1290.88 C 346.042 1353.6 344.93 1417.35 347.575 1480 C 349.314 1521.2 430.258 1509.01 458.056 1509 L 1618.53 1509.08 C 1628.72 1509.09 1655.62 1509.87 1664.47 1509 z" fill="rgb(0,0,0)" transform="translate(0,0)"></path>
<path d="M 758.729 765.006 C 808.719 759.551 847.043 814.084 818.014 857.894 C 795.302 892.17 673.564 988.847 636.401 1022.86 C 684.36 1066.77 784.23 1143.96 820.61 1190.13 C 844.835 1236.6 799.577 1288.8 749.259 1275.93 C 725.99 1268.4 691.916 1232.39 673.524 1215.41 L 532.623 1088.35 C 511.972 1069.99 489.696 1055.18 486.664 1025.95 C 482.281 983.69 528.568 955.301 558.108 929.306 L 704.869 799.231 C 724.331 781.761 732.207 770.831 758.729 765.006 z" fill="rgb(0,0,0)" transform="translate(0,0)"></path>
<path d="M 1276.1 765.006 C 1314.46 765.039 1333.12 789.692 1359.59 813.49 L 1508.65 947.248 C 1584.11 1014.93 1574.5 1035.58 1504.64 1099.09 L 1353.04 1237.94 C 1338.37 1251.44 1325.48 1264.13 1309.29 1275.93 C 1263.74 1288.96 1218.12 1265.25 1223.76 1214.06 C 1227.9 1176.46 1263.79 1159.18 1290.22 1133.79 C 1330.96 1098.45 1372.98 1056.59 1414.5 1022.86 C 1397.95 1005.89 1374.8 986.72 1356.62 970.683 L 1285.14 906.49 C 1271.6 894.464 1246.44 874.277 1235.68 860.703 C 1204.7 821.618 1229.72 774.951 1276.1 765.006 z" fill="rgb(0,0,0)" transform="translate(0,0)"></path>
<path d="M 1106.79 708.374 C 1138.28 703.044 1168.5 726.414 1174.56 757.037 C 1178.99 778.573 1168 798.669 1160.97 818.581 L 1005.73 1246.33 C 992.299 1284.07 986.132 1332.99 939.498 1341.5 C 895.305 1342.77 859.13 1306.04 872.81 1261.62 C 886.562 1216.97 905.378 1172.37 921.29 1128.24 L 1031.99 824.151 C 1047.39 782.719 1058.06 715.147 1106.79 708.374 z" fill="rgb(0,0,0)" transform="translate(0,0)"></path>
<metadata><recraft-signature>{"signed_by": "recraft", "signature_b64": "HqYB9YvMHO93bXJqxb9IsTo5Z+dje+XuYu/Sw0RzAsOcCwNLGfWjdOpFlrWoyRXUkaVQ/LFX6KTk+7rkrY9rBg==", "signing_algo": "Ed25519", "generation_timestamp": 1772997966, "identifier": "df4d64af-2e86-40c0-aef3-b43c3e1bb338"}</recraft-signature></metadata></svg>