<svg xmlns="http://www.w3.org/2000/svg" height="512" preserveAspectRatio="none" style="display: block;" version="1.1" viewBox="0 0 2048 2048" width="512">
<path d="M 492.422 370 C 531.541 369.442 572.012 369.996 611.229 370 L 1317.85 370 C 1341.22 388.439 1374.7 424.739 1397.49 446.505 C 1411.82 460.192 1572.95 615.56 1572.96 619.803 C 1573.16 686.258 1572.99 785.562 1573 848.298 C 1586.2 849.484 1622.14 848.328 1637.64 848.32 L 1775.66 848.273 C 1807.89 848.248 1862.77 836.409 1863.06 878.95 L 1863.01 1187.77 C 1863.15 1244.63 1868.01 1249.06 1803.39 1249.05 L 1573 1248.99 L 1572.97 1536.68 C 1572.98 1572.41 1587.34 1658.95 1554.89 1675.05 C 1533.77 1676.5 1507.44 1675.08 1485.83 1675.06 L 549.996 1675.09 C 468.605 1675.34 474.216 1676.36 474.192 1594.84 L 474.214 1248.99 C 454.172 1248.29 430.333 1248.97 409.915 1248.99 L 283.636 1249.07 C 259.503 1249.08 235.06 1249.46 210.949 1248.63 C 177.148 1247.47 184.947 1204.15 184.962 1180.86 L 185.02 879.176 C 185.311 839.901 211.172 848.063 242.929 848.195 L 418.114 848.306 C 436.451 848.272 456.159 847.457 474.214 848.298 L 474.18 454.432 C 474.158 427.937 465.084 380.442 492.422 370 z M 236.345 901.174 L 236.345 1196.98 L 1758.5 1196.98 L 1812.03 1196.98 L 1812.03 901.174 L 289.653 901.174 C 271.337 901.763 254.435 901.054 236.345 901.174 z M 1337.08 458.611 L 1337.08 608.002 C 1386.12 608.021 1442.38 609.378 1490.75 608.002 C 1486.68 601.85 1474.66 590.808 1468.77 585.072 L 1367.96 487.628 C 1362.66 482.402 1342.45 462.262 1337.08 458.611 z M 1521.75 1622.65 C 1522.55 1617.13 1521.85 1593.17 1521.8 1586 L 1521.75 1248.99 L 524.986 1248.99 L 525.07 1581.59 C 525.232 1597.01 526.881 1607.06 524.986 1622.65 L 1521.75 1622.65 z M 524.986 420.986 C 523.897 510.081 525.008 601.583 525.001 690.808 L 524.956 795.984 C 524.945 811.6 524.194 833.364 524.986 848.298 L 1521.75 848.298 L 1521.75 657.49 L 1371.39 657.513 C 1350.38 657.529 1319.91 658.545 1299.82 657.49 C 1281.68 645.538 1288.68 603.159 1288.72 581.768 L 1288.69 475.905 C 1288.69 458.664 1289.34 437.941 1288.68 420.986 L 609.915 420.97 C 582.623 420.97 551.938 420.212 524.986 420.986 z" fill="rgb(0,0,0)" transform="translate(0,0)"></path>
<path d="M 1440.61 954.999 L 1474.39 954.999 C 1475.83 966.802 1478.52 973.863 1482.13 985.006 C 1494.62 1024.62 1522.03 1102.99 1525.66 1143 L 1493.79 1143 C 1489.03 1129.16 1484.24 1113.31 1482.13 1098.94 C 1465.77 1098.3 1446.83 1098.82 1430.38 1098.94 C 1424.7 1113.48 1420.86 1128.87 1415.04 1143 L 1342.16 1143 C 1319.04 1120.04 1307.92 1085.03 1282.99 1063.33 C 1282.01 1087.21 1282.95 1118.44 1282.99 1143 L 1248.91 1143 L 1248.91 954.999 L 1282.99 954.999 L 1282.99 1043.79 C 1293.94 1018.97 1319.46 975.408 1337.08 954.999 L 1374.91 954.999 C 1359.4 982.586 1331.47 1016.44 1317.85 1043.79 C 1332.56 1070.92 1363.39 1116.96 1382.15 1141.12 C 1402.97 1079.59 1420.22 1016.73 1440.61 954.999 z M 1435.94 1070.8 C 1443.08 1070.82 1450.37 1070.93 1457.5 1070.8 L 1474.39 1070.8 C 1471.75 1061.37 1457.64 1009.47 1454.09 1003.57 C 1450.22 1027.13 1441.74 1047.83 1435.94 1070.8 z" fill="rgb(0,0,0)" transform="translate(0,0)"></path>
<path d="M 609.362 954.999 C 678.998 942.432 681.15 998.884 682.736 1049.28 C 683.99 1089.09 682.782 1138.68 631.257 1143 C 615.079 1150.83 583.779 1140.88 573.164 1126.94 C 550.769 1098.82 540.737 957.995 609.362 954.999 z M 625.023 1113 C 647.929 1111.29 645.067 1087.96 645.256 1070.97 C 645.479 1050.81 655.261 975.868 618.801 985.006 C 583.894 988.589 595.579 1028.77 594.89 1057.98 C 595.345 1086.73 587.062 1117.85 625.023 1113 z" fill="rgb(0,0,0)" transform="translate(0,0)"></path>
<path d="M 713.009 954.999 C 735.063 955.084 769.621 952.377 790.002 958.033 C 831.667 969.596 839.186 1022.88 796.678 1043.79 C 828.529 1055.82 831.501 1084.07 823.212 1113 C 823.075 1113.26 822.938 1113.51 822.801 1113.77 L 822.093 1115.03 C 801.498 1152.25 749.846 1143.13 713.009 1143 L 713.009 954.999 z M 782.524 1107.29 C 805.65 1075.91 780.31 1060.66 749.483 1060.99 C 749.527 1076.09 750.322 1098.5 749.483 1113 C 760.907 1113.84 773.62 1116.21 782.524 1107.29 z M 749.483 1032.99 C 761.699 1033.08 772.094 1032.86 782.524 1025.17 C 801.805 995.246 778.043 984.553 749.483 985.006 C 748.945 1000.61 749.352 1017.29 749.483 1032.99 z" fill="rgb(0,0,0)" transform="translate(0,0)"></path>
<path d="M 418.079 954.999 C 456.515 954.844 518.594 946.143 529.108 996.684 C 535.208 1026.01 522.844 1043.58 501.135 1060.99 C 510.755 1087.36 532.928 1117.67 541.792 1143 C 529.571 1142.83 508.073 1148.5 501.135 1136.1 C 488.625 1113.52 476.316 1088.97 464.339 1065.98 C 460.742 1066.33 456.658 1066.08 453.007 1065.98 L 453.007 1143 C 441.147 1143.67 429.909 1143.48 418.079 1143 L 418.079 954.999 z M 453.007 1037.1 C 465.017 1037.67 472.173 1039.09 482.67 1032.99 C 509.621 1014.3 495.555 986.817 464.339 985.006 C 444.063 985.597 452.909 1015.43 453.007 1037.1 z" fill="rgb(0,0,0)" transform="translate(0,0)"></path>
<path d="M 277.51 954.999 C 306.322 954.874 352.209 949.666 373.501 969.409 C 416.253 1009.05 387.916 1073.95 319.75 1074.02 C 305.377 1073.53 312.249 1127.96 312.274 1143 L 277.51 1143 C 279.248 1081.87 276.287 1016.6 277.51 954.999 z M 312.274 1043.79 C 323.796 1043.84 338.338 1044.28 348.081 1037.1 C 373.651 1003.52 346.612 984.762 312.274 985.006 C 312.542 1004.64 311.937 1024.55 312.274 1043.79 z" fill="rgb(0,0,0)" transform="translate(0,0)"></path>
<path d="M 1158.56 954.999 L 1169 954.999 C 1172.92 962.176 1175.6 968.457 1178.13 976.22 C 1194.5 1026.55 1217.41 1091.43 1227.58 1143 L 1192.97 1143 C 1188.91 1130.96 1184.35 1111.65 1181.16 1098.94 L 1155.16 1098.94 L 1128.48 1098.94 C 1123.79 1113.5 1119.44 1128.35 1115.01 1143 L 1081.4 1143 C 1094.49 1085.51 1119.03 1012.82 1138.58 954.999 C 1145.26 955.515 1151.87 955.183 1158.56 954.999 z M 1138.58 1070.8 L 1155.16 1070.8 C 1161.71 1070.79 1168.53 1070.68 1175.05 1070.8 C 1172.65 1062.51 1157 1005.17 1155.16 1003.57 C 1148.2 1025.63 1139.63 1047.67 1138.58 1070.8 z" fill="rgb(0,0,0)" transform="translate(0,0)"></path>
<path d="M 1662.02 954.999 C 1696.9 955.012 1734.93 954.117 1769.56 954.999 C 1769.95 965.915 1769.72 976.598 1769.56 987.512 C 1746.1 987.099 1721.66 987.452 1698.12 987.512 C 1697.75 1001.82 1698.21 1018.4 1698.12 1032.99 L 1753.93 1032.99 L 1753.93 1063.33 C 1736.04 1063.82 1716.18 1063.37 1698.12 1063.33 C 1697.66 1070.17 1698.05 1080.06 1698.12 1087.11 L 1698.12 1113 L 1769.56 1113 L 1769.56 1143 L 1662.02 1143 L 1662.02 1017.61 C 1662 998.629 1660.92 973.116 1662.02 954.999 z" fill="rgb(0,0,0)" transform="translate(0,0)"></path>
<path d="M 859.028 954.999 L 957.939 954.999 L 957.939 987.512 C 942.12 988.627 911.773 987.57 894.959 987.512 C 895.01 1002.61 894.365 1017.93 894.959 1032.99 L 943.061 1032.99 C 943.176 1043.06 943.077 1053.25 943.061 1063.33 C 927.072 1063.25 910.933 1063.04 894.959 1063.33 L 894.959 1098.94 L 894.959 1111.07 L 957.939 1111.07 C 960.401 1126.09 960.053 1127.65 957.939 1143 L 859.028 1143 L 859.028 954.999 z" fill="rgb(0,0,0)" transform="translate(0,0)"></path>
<path d="M 1525.66 954.999 C 1535.89 955.733 1554.98 955.09 1565.88 955.079 L 1645.37 954.999 C 1645.68 965.519 1645.41 976.923 1645.37 987.512 C 1633.24 986.78 1614.66 987.425 1602.02 987.512 C 1601.5 1024.22 1602.01 1062.14 1602.02 1098.94 L 1602.02 1143 L 1567.02 1143 L 1567.02 987.512 C 1553.24 987.282 1539.51 987.936 1525.66 987.512 C 1524.82 976.418 1525.22 966.054 1525.66 954.999 z" fill="rgb(0,0,0)" transform="translate(0,0)"></path>
<path d="M 970.207 954.999 L 1086 954.999 L 1086 987.512 C 1074.12 988.145 1059.48 987.652 1047.34 987.512 C 1046.63 998.407 1047.27 1016.48 1047.28 1028 L 1047.34 1107.29 L 1047.34 1143 L 1011.87 1143 C 1010.98 1092.21 1011.79 1038.47 1011.87 987.512 L 970.207 987.512 C 969.989 976.535 970.073 965.961 970.207 954.999 z" fill="rgb(0,0,0)" transform="translate(0,0)"></path>
<path d="M 1020.69 1312.3 C 1041.67 1312.2 1064.72 1311.23 1085.34 1313.95 C 1118.39 1318.31 1140.73 1352.75 1133.59 1384.58 C 1128.8 1406.56 1114.99 1415.36 1097.53 1426.55 C 1113.06 1448.97 1133.88 1485.16 1146.54 1508.95 C 1131.89 1508.44 1109.58 1514.17 1102.94 1502.54 C 1065.87 1439.4 1043.55 1374.78 1051 1508.95 L 1015.02 1508.95 C 1015.01 1446.18 1013.42 1376.42 1015.15 1314.26 C 1017.17 1312.07 1016.89 1312.77 1020.69 1312.3 z M 1051 1401.55 C 1063.28 1401.39 1075.94 1402.56 1086 1395.01 C 1114.71 1368.05 1090.2 1339.91 1051 1344.4 L 1051 1401.55 z" fill="rgb(0,0,0)" transform="translate(0,0)"></path>
<path d="M 864.085 1312.3 C 912.719 1310.23 987.367 1307.31 980.744 1379.1 C 978.504 1403.38 965.184 1412.58 948.318 1426.55 C 961.203 1445.26 984.147 1488.49 993.141 1508.95 C 984.523 1508.83 957.08 1511.59 951.754 1505.57 C 939.052 1480.83 927.005 1456.07 914.829 1431.07 L 899.259 1431.07 C 899.268 1456.64 898.662 1483.53 899.259 1508.95 L 864.085 1508.95 L 864.085 1312.3 z M 899.259 1401.55 C 912.65 1402.31 923.041 1402.65 934.721 1395.01 C 963.097 1365.65 937.783 1338.65 899.259 1344.4 C 897.569 1347.29 899.271 1393.96 899.259 1401.55 z" fill="rgb(0,0,0)" transform="translate(0,0)"></path>
<path d="M 745.801 1312.3 C 756.176 1311.67 771.741 1312.22 782.524 1312.3 C 805.73 1368.4 829.915 1450.94 845.734 1508.95 C 834.1 1508.5 819.54 1508.93 807.682 1508.95 C 803.592 1495.04 799.727 1482.18 796.678 1467.99 L 779.75 1467.99 L 731.545 1467.99 C 727.309 1481.53 723.09 1495.68 718.233 1508.95 C 704.552 1509.89 696.216 1509.65 682.658 1508.95 C 694.383 1457.53 727.446 1361.35 745.801 1312.3 z M 741.339 1436.36 C 749.744 1436.41 758.092 1436.46 766.5 1436.36 L 787.196 1436.36 C 782.734 1419.85 770.732 1358.94 766.5 1348.78 C 753.273 1381.36 751.738 1404.34 741.339 1436.36 z" fill="rgb(0,0,0)" transform="translate(0,0)"></path>
<path d="M 1169 1312.3 L 1273.02 1312.3 L 1273.02 1344.4 C 1250.16 1344.81 1226.21 1344.31 1203.2 1344.4 L 1203.2 1395.01 L 1259.44 1395.01 C 1259.72 1405.17 1259.38 1416.23 1259.44 1426.55 C 1241.9 1427.27 1221.42 1426.17 1203.2 1426.55 C 1203.4 1434.95 1203.24 1443.7 1203.2 1452.13 C 1203.59 1459.92 1203.26 1469.52 1203.2 1477.45 L 1273.02 1477.45 C 1271.15 1491.81 1271.05 1494.52 1273.02 1508.95 L 1169 1508.95 L 1169 1312.3 z" fill="rgb(0,0,0)" transform="translate(0,0)"></path>
<path d="M 1292.5 1312.3 L 1409.67 1312.3 L 1409.67 1344.4 C 1396.77 1344.97 1380.18 1344.44 1367 1344.4 L 1367 1473.25 L 1367 1508.95 L 1330.98 1508.95 L 1330.98 1344.4 C 1317.72 1343.73 1302.19 1344.36 1288.68 1344.4 C 1287.36 1337.82 1285 1318.15 1288.7 1312.84 L 1292.5 1312.3 z" fill="rgb(0,0,0)" transform="translate(0,0)"></path>
<metadata><recraft-signature>{"signed_by": "recraft", "signature_b64": "XOKhfdEPvVYG4F2Svsq/HbXMTNvppMPEGbdXGcx3ZliNG9wwFsi04kRir7wMm3KDt+gKQuct/BeQxu7QknV5CA==", "signing_algo": "Ed25519", "generation_timestamp": 1772998234, "identifier": "aa3b0193-29af-4d7f-9fa2-dbca49a44a95"}</recraft-signature></metadata></svg>