<svg xmlns="http://www.w3.org/2000/svg" height="512" preserveAspectRatio="none" style="display: block;" version="1.1" viewBox="0 0 2048 2048" width="512">
<path d="M 351.82 422.964 C 352.235 422.921 352.65 422.878 353.065 422.835 L 1632.47 422.931 C 1663.31 422.879 1706.46 415.773 1730.63 439.248 C 1761.62 469.345 1752.02 521.328 1752.01 563.007 L 1752.05 1463.21 C 1752.25 1508.02 1754.16 1564.67 1689.14 1565.09 L 770.012 1565.31 C 740.826 1565.52 712.609 1569.4 689.729 1547.49 C 650.757 1510.17 671.099 1443.82 725.649 1437.92 C 738.146 1436.57 750.345 1436.97 762.892 1436.96 L 1622.7 1436.99 L 1622.7 1331.75 L 1622.7 551.997 L 425.423 551.997 L 425.423 1210.26 L 770.197 1210.26 C 811.92 1247.55 859.844 1297.16 897.257 1338 L 410.45 1338.03 C 374.729 1338.05 305.121 1344.85 298.659 1293.38 C 295.347 1267 296.985 1235.98 297.015 1208.87 L 296.966 543.965 C 296.836 492.354 285.235 437.271 351.82 422.964 z" fill="rgb(0,0,0)" transform="translate(0,0)"></path>
<metadata><recraft-signature>{"signed_by": "recraft", "signature_b64": "28lA5t6vP8fxWo/+PRx82dBcXHLtuovtGoQVJh+AofBhcTOuyKRujLvPA4mc8AdzjLFOIIHh4KX3Gld2ZiMEBA==", "signing_algo": "Ed25519", "generation_timestamp": 1772998010, "identifier": "6ff19000-24c4-4fbb-bf74-391c685dbb13"}</recraft-signature></metadata></svg>