<svg xmlns="http://www.w3.org/2000/svg" height="512" preserveAspectRatio="none" style="display: block;" version="1.1" viewBox="0 0 2048 2048" width="512">
<path d="M 464.4 274.517 L 676.885 274.509 C 711.204 274.514 754.314 273.358 787.544 275.157 C 935.755 283.183 1059.28 385.463 1094.46 529.029 C 1105.3 573.262 1103.39 607.735 1103.38 652.679 L 1103.36 1060.45 C 1129.96 1055.87 1154.7 1052.79 1181 1045.58 C 1378.44 991.41 1548.09 815.761 1564.37 606.886 C 1566.17 583.833 1565.5 559.633 1565.48 536.41 L 1565.44 429.732 L 1467.25 429.76 C 1462.43 429.77 1454.37 429.571 1449.59 430.028 C 1339.15 440.558 1322.73 266.112 1471.62 274.474 C 1521.17 277.256 1586 266.9 1632.14 284.576 C 1681.02 303.173 1724.61 359.704 1723.03 413.269 C 1721.12 477.753 1726.73 548.291 1721.61 612.172 C 1708.55 775.104 1623.08 939.866 1498.64 1046.07 C 1388.81 1145.11 1248.68 1198.29 1103.36 1216.04 C 1104.03 1228.61 1103.4 1246.55 1103.38 1259.56 L 1103.36 1609 L 1220.16 1609 C 1240.01 1608.99 1260.73 1608.43 1280.42 1609 C 1281.94 1657.53 1280.44 1715.61 1280.42 1764.92 L 767.004 1764.92 L 767.004 1609 L 946.223 1609 L 946.223 1216.04 C 623.693 1177.32 343.914 938.41 329.196 601.005 C 327.421 560.294 322.786 424.276 330.921 387.936 C 344.829 325.812 401.466 277.526 464.4 274.517 z M 482.49 429.732 L 482.465 529.252 C 482.473 552.19 482.325 574.805 483.66 597.509 C 495.679 801.988 648.662 977.926 841.27 1038.17 C 858.71 1043.62 875.817 1047.18 893.29 1051.98 C 912.215 1055.64 927.11 1058.16 946.223 1060.45 L 946.261 634.289 C 946.359 544.652 926.419 466.049 825.97 436.682 C 796.141 427.962 767.834 429.605 737.12 429.687 L 546.373 429.732 C 526.218 429.784 502.338 430.397 482.49 429.732 z" fill="rgb(0,0,0)" transform="translate(0,0)"></path>
<metadata><recraft-signature>{"signed_by": "recraft", "signature_b64": "doApK6a71IlyHXU1rPIW+w9BMC01LWvxS0rJcQY9pC0NpSxOvCbxtlJiXsGzHy+U99pweF7SVAC4mv5c9PkfBg==", "signing_algo": "Ed25519", "generation_timestamp": 1772997984, "identifier": "850b76d9-10bf-41b5-828d-b11a725dccc7"}</recraft-signature></metadata></svg>