<svg xmlns="http://www.w3.org/2000/svg" height="512" preserveAspectRatio="none" style="display: block;" version="1.1" viewBox="0 0 2048 2048" width="512">
<path d="M 349.822 674.998 C 359.997 674.007 395.123 674.938 406.473 674.947 L 1610.93 674.96 C 1671.01 674.963 1772.51 663.313 1784.41 747.78 C 1789.41 783.242 1787.44 824.417 1787.41 860.515 L 1787.47 1208.18 C 1787.54 1288.77 1793.59 1349.48 1698.7 1367.49 L 412.449 1367.54 C 350.513 1367.59 273.853 1362.97 261.903 1282.46 C 258.421 1259 260.004 1227.13 259.937 1202.71 L 259.974 857.996 C 259.918 773.99 247.009 693.453 349.822 674.998 z M 1693.58 1321.18 C 1760.86 1315.22 1744.82 1224.08 1744.81 1175.76 L 1744.84 841.464 C 1744.85 805.141 1754.43 755.858 1724.02 731.959 C 1702.7 715.204 1670.38 719.819 1643.72 719.826 L 355.861 719.877 C 295.245 723.507 304.024 785.493 304.028 829.24 L 304.086 1160.63 C 304.092 1201.74 288.496 1321.8 353.598 1321.53 L 1667.07 1321.29 C 1675.74 1321.38 1684.99 1321.97 1693.58 1321.18 z" fill="rgb(0,0,0)" transform="translate(0,0)"></path>
<path d="M 1433.74 947.51 C 1441.99 946.838 1455.35 946.487 1462.51 950.318 C 1486.8 963.317 1475.02 957.525 1481.46 950.785 C 1494.21 950.531 1506.31 950.36 1519.08 950.446 L 1519.14 1058.75 C 1519.14 1077.88 1519.13 1097.15 1518.66 1116.25 C 1517.22 1174.95 1435.34 1172.42 1396.03 1156.47 C 1398.99 1145.97 1400.54 1135.58 1402.37 1124.84 C 1438 1144.65 1478.71 1148.8 1476.02 1094.48 C 1459.98 1108.52 1428.06 1111.74 1410.61 1099.29 C 1387.09 1082.48 1397.4 1009.79 1397.57 983.623 C 1397.71 962.346 1414.88 951.088 1433.74 947.51 z M 1466.66 1077.87 C 1481.33 1065.75 1475.63 1008.47 1474.78 988.944 C 1474.2 975.508 1460.24 974.73 1448.73 975.065 C 1440.75 981.92 1416.95 1087.77 1466.66 1077.87 z" fill="rgb(0,0,0)" transform="translate(0,0)"></path>
<path d="M 477.786 950.446 C 527.903 940.827 534.572 981.901 533.167 1021.42 C 532.311 1045.47 537.678 1080.31 518.038 1098.31 C 500.037 1114.8 467.396 1113.22 451.942 1094.48 C 452.875 1105.95 452.014 1129.64 451.942 1141.75 C 451.417 1148.71 451.679 1154.05 451.942 1161.02 L 411.004 1161.02 L 411.004 950.446 C 428.78 949.987 444.642 943.284 451.942 960.153 C 461.702 953.028 466.368 951.931 477.786 950.446 z M 451.942 991.51 C 452.883 1026.39 436.38 1080.53 477.786 1077.87 C 501.667 1073.12 494.737 995.554 487.106 986.576 C 480.245 980.38 478.694 978.534 468.948 980.006 C 459.958 982.804 456.572 983.044 451.942 991.51 z" fill="rgb(0,0,0)" transform="translate(0,0)"></path>
<path d="M 894.372 888.012 C 907.211 889.071 922.651 888.441 935.51 888.012 C 935.507 926.39 936.165 966.549 935.51 1004.73 C 947.066 987.101 957.435 966.882 970.999 950.446 C 988.063 948.2 999.903 950.292 1016.25 950.446 C 1002.78 966.098 981.09 995.713 970.999 1013.32 C 982.443 1036.7 996.815 1059.49 1009.35 1082.38 C 1013.8 1090.55 1018.24 1098.52 1022.16 1106.98 C 1007.73 1106.87 990.659 1106.34 976.446 1106.98 C 968.067 1092.17 954.171 1058.72 946.569 1042.05 C 943.937 1046.87 938.697 1054.31 935.51 1059.11 L 935.51 1106.98 C 922.091 1107.18 907.647 1106.16 894.372 1106.98 C 893.659 1084.06 894.334 1057.08 894.339 1033.86 L 894.372 888.012 z" fill="rgb(0,0,0)" transform="translate(0,0)"></path>
<path d="M 806.805 947.51 C 861.934 950.846 854.255 982.536 854.024 1024.57 L 853.99 1106.98 L 813.008 1106.98 C 813.029 1089.58 815.618 996.279 809.925 986.813 C 802.412 974.32 783.656 980.635 774.026 986.576 C 773.366 992.596 774.006 1016.78 774.01 1024.11 L 774.026 1106.98 C 760.424 1107.3 746.54 1107.07 732.908 1106.98 C 732.093 1092.02 732.854 1069.98 732.862 1054.45 L 732.908 950.446 L 770.967 950.446 C 771.08 954.621 770.971 959.256 770.967 963.475 C 783.531 952.646 791.013 950.452 806.805 947.51 z" fill="rgb(0,0,0)" transform="translate(0,0)"></path>
<path d="M 656.437 950.446 L 693 950.446 L 693 1106.98 L 656.437 1106.98 C 654.629 1102.55 653.472 1099.01 652.023 1094.48 C 634.338 1110.34 600.473 1117.16 581.849 1100.34 C 567.519 1087.39 571.255 1050.66 571.536 1032.5 L 571.536 950.446 C 585.327 950.709 598.2 950.717 611.99 950.446 C 611.975 966.668 609.435 1063.44 614.245 1071.24 C 621.544 1083.09 642.887 1074.79 652.023 1070.44 C 651.701 1059.89 651.462 954.011 652.961 950.99 L 656.437 950.446 z" fill="rgb(0,0,0)" transform="translate(0,0)"></path>
<path d="M 1562.01 913.001 L 1604.76 913.001 L 1604.76 950.446 C 1612.48 951.028 1624.41 950.294 1633 950.446 L 1633 977.384 C 1623.36 977.221 1614.41 977.188 1604.76 977.384 C 1604.72 992.81 1601.78 1068.97 1608.33 1077.22 C 1616.34 1082.04 1624.09 1079.61 1633 1077.87 C 1633.72 1084.76 1633.24 1092.26 1633 1099.25 C 1632.84 1110.36 1609.22 1109.18 1601.3 1109.61 C 1556.37 1112.04 1561.91 1078.51 1561.92 1046.96 L 1562.01 977.384 L 1545.02 977.384 L 1545.02 950.446 L 1562.01 950.446 C 1561.74 938.251 1561.98 925.256 1562.01 913.001 z" fill="rgb(0,0,0)" transform="translate(0,0)"></path>
<path d="M 1050.02 917 L 1092.89 917 L 1092.89 950.446 C 1101.13 950.199 1108.76 950.293 1117 950.446 L 1117 980.006 C 1110.11 980.587 1100.04 980.126 1092.89 980.006 C 1092.98 1005.14 1091.39 1048.39 1094.26 1074.01 C 1095.13 1081.74 1114.27 1077.33 1118.34 1078.83 C 1119.91 1085.2 1120.3 1099.82 1120.69 1106.98 C 1056.6 1117.67 1049.93 1101.82 1049.96 1040.7 L 1050.02 980.006 L 1029.8 980.006 C 1029.04 969.423 1029.12 960.973 1029.8 950.446 C 1036.2 950.233 1043.54 950.426 1050.02 950.446 C 1049.7 939.206 1049.15 928.218 1050.02 917 z" fill="rgb(0,0,0)" transform="translate(0,0)"></path>
<path d="M 1148.98 888.012 C 1162.97 887.916 1176.99 887.724 1190.97 888.012 C 1189.95 911.134 1190.96 940.749 1190.96 964.499 L 1190.97 1106.98 C 1176.89 1106.79 1163.07 1106.85 1148.98 1106.98 L 1148.98 888.012 z" fill="rgb(0,0,0)" transform="translate(0,0)"></path>
<path d="M 1235.77 888.012 L 1271.97 888.012 C 1271.65 909.381 1273.11 1101.84 1271 1106.36 L 1268.25 1106.98 L 1230.59 1106.98 C 1229.98 1085.4 1229.23 892.887 1232.02 888.572 L 1235.77 888.012 z" fill="rgb(0,0,0)" transform="translate(0,0)"></path>
<path d="M 1319.88 947.51 C 1332.18 947.394 1344.5 947.177 1356.79 947.51 L 1356.58 1055.01 C 1356.56 1065.24 1357.37 1099 1355.55 1106.37 L 1353.25 1106.98 L 1314.51 1106.98 L 1314.47 994.628 C 1314.45 988.088 1313.26 951.222 1315.96 947.713 L 1319.88 947.51 z" fill="rgb(0,0,0)" transform="translate(0,0)"></path>
<path d="M 1314.51 888.012 C 1328.16 887.554 1343.03 887.914 1356.79 888.012 C 1355.66 900.413 1356.14 910.72 1356.79 922.996 C 1342.8 923.262 1328.53 923.063 1314.51 922.996 L 1314.51 888.012 z" fill="rgb(0,0,0)" transform="translate(0,0)"></path>
<metadata><recraft-signature>{"signed_by": "recraft", "signature_b64": "eDwupTZI2uidlUL2dcxqmI5YzeNZ+OdXqjWhnX7XHio4RsOiEEUz8tpOuJjLyGVNOduMPktDbCe8b3mY1HOIBA==", "signing_algo": "Ed25519", "generation_timestamp": 1773000388, "identifier": "ecfdd6cd-a597-4221-a948-6d85b0f7bcc8"}</recraft-signature></metadata></svg>