<svg xmlns="http://www.w3.org/2000/svg" height="512" preserveAspectRatio="none" style="display: block;" version="1.1" viewBox="0 0 2048 2048" width="512">
<path d="M 370.935 299.986 C 378.444 299.191 407.364 299.931 416.502 299.949 L 1561.81 299.966 C 1624.26 299.926 1723.82 282.53 1742.61 360.977 C 1748.02 383.588 1745.99 411.365 1745.97 435.196 L 1746.03 613.198 C 1746.13 705.367 1733.93 705.319 1685.93 785.801 L 1328.8 1398.95 C 1323.37 1409.34 1312.11 1426.24 1305.54 1437.34 L 1175.66 1658.95 C 1137.26 1723.8 1139.88 1745.16 1054.21 1745.06 L 420.699 1745.06 C 311.36 1745.13 299.842 1715.57 299.961 1608.95 L 300.03 452.807 C 299.971 391.717 284.859 310.69 370.935 299.986 z M 467.989 1581 L 1029.1 1581 C 1043.42 1558.75 1056.39 1534.42 1070.01 1511.52 L 1170.03 1340.61 C 1190.33 1305.61 1211.71 1267.72 1232.94 1233.58 C 1268.32 1174.56 1302.73 1113.79 1337.22 1054.18 L 1551.99 687.076 C 1584.86 630.164 1583.19 647.682 1583.12 582.24 L 1583.02 467.005 L 467.989 467.005 C 466.853 479.674 467.826 496.048 467.936 509.259 L 467.989 1581 z" fill="rgb(0,0,0)" transform="translate(0,0)"></path>
<metadata><recraft-signature>{"signed_by": "recraft", "signature_b64": "xnYNL0+CjFGx6Wz3YG1cj9HtsiDxywnYOO5QVRB53cGMOTlfv4zLWLfA7ubAK3ZYaN4qcYj6mc8soNlJiwY/BA==", "signing_algo": "Ed25519", "generation_timestamp": 1772996040, "identifier": "ac55db98-6098-471c-ae0d-c5c3a2944753"}</recraft-signature></metadata></svg>