<svg xmlns="http://www.w3.org/2000/svg" height="512" preserveAspectRatio="none" style="display: block;" version="1.1" viewBox="0 0 2048 2048" width="512">
<path d="M 986.89 233.687 L 1316.01 233.687 L 1316.01 445.48 L 1062 445.48 C 1061.98 478.824 1063.22 519.019 1062 551.895 C 1074.76 558.692 1090.12 568.569 1103.34 576.055 L 1390.5 740.103 C 1406.43 749.291 1432.12 763.228 1446.55 773.531 C 1448.92 789.241 1447.24 825.331 1446.55 841.488 L 1791.02 841.488 L 1791.02 1745.47 L 1309.75 1745.47 L 609.522 1745.46 C 492.075 1745.47 372.264 1746.74 255.043 1745.47 L 255.043 835.94 C 264.268 835.244 274.159 835.844 283.495 835.813 L 357.243 835.914 C 438.51 836 524.009 837.3 605.005 835.94 L 605.005 773.531 C 621.562 759.706 651.642 743.783 671.497 732.297 L 790.335 664.546 C 855.44 627.914 920.303 586.236 986.89 551.895 C 985.589 520.85 986.866 479.016 986.87 446.912 L 986.89 233.687 z M 421.563 1581 L 597.25 1581 C 611.723 1580.67 605.011 1548.36 604.977 1533.33 L 605.005 1108.29 L 485.55 1108.25 C 467.672 1108.24 444.735 1107.48 427.419 1108.29 L 422.512 1108.65 C 420.523 1111 421.381 1131.66 421.416 1135.84 L 421.586 1449.18 C 421.594 1491.38 422.916 1539.56 421.563 1581 z M 1446.55 1581 L 1568.93 1580.96 C 1585.88 1580.95 1613.31 1579.97 1629.01 1581 L 1629.01 1108.29 L 1505.32 1108.31 C 1489.89 1108.32 1460.81 1109.23 1446.55 1108.29 L 1446.55 1581 z M 769.409 1581 L 924.5 1581 L 940.018 1581 L 939.985 1171.41 C 939.895 1151.13 939.333 1128.48 940.018 1108.29 C 890.795 1109.62 835.106 1108.27 785.42 1108.29 C 780.361 1108.31 774.386 1108.47 769.409 1108.29 L 769.409 1581 z M 1033.47 812.733 C 1079.63 807.712 1113.1 766.396 1108.43 720.199 C 1103.76 674.002 1062.7 640.223 1016.46 644.544 C 969.736 648.912 935.513 690.513 940.235 737.207 C 944.957 783.901 986.815 817.808 1033.47 812.733 z M 1280.08 1108.29 L 1115.82 1108.29 C 1111.03 1108.75 1110.81 1107.88 1108.55 1110.51 C 1108.22 1141.47 1108.9 1174.24 1108.9 1205.46 L 1108.92 1533.26 C 1108.96 1548.44 1109.47 1566.04 1108.88 1581 L 1274.25 1581 C 1286.11 1580.36 1280.06 1539.95 1280.05 1527.13 L 1280.08 1108.29 z" fill="rgb(0,0,0)" transform="translate(0,0)"></path>
<metadata><recraft-signature>{"signed_by": "recraft", "signature_b64": "BTbATERRMtmGj6ZhMMYJl1/7Vcsq/bJTZfLxtOpBuCpAv5pM5rrXW+bG4xiJJ1AlrczT6P3d5Yk3AH8rGKECCg==", "signing_algo": "Ed25519", "generation_timestamp": 1772998714, "identifier": "73c0c2b0-d94a-482b-8791-fcb6fefe0d36"}</recraft-signature></metadata></svg>