<svg xmlns="http://www.w3.org/2000/svg" height="512" preserveAspectRatio="none" style="display: block;" version="1.1" viewBox="0 0 2048 2048" width="512">
<path d="M 671.781 214.658 C 711.947 213.27 709.345 312.02 710.88 336.489 L 710.991 338.143 C 735.697 369.259 751.392 325.67 760.939 323.079 C 767.723 329.738 761.808 351.577 755.225 357.332 C 732.31 377.366 697.757 373.921 678.989 402.073 C 666.411 422.299 593.85 521.706 595.127 527.412 C 603.996 533.536 615.083 512.794 620.285 507.017 C 649.848 474.185 702.313 459.113 745.497 457.962 C 740.565 522.399 697.719 560.789 639.745 581.026 C 649.144 598.172 662.915 621.703 670.182 639.241 C 692.679 693.533 703.99 753.164 749.542 793.939 C 793.536 833.321 843.847 819.193 898.79 821.096 C 924.254 819.589 957.969 834.304 982.261 832.451 C 1142.33 820.239 1418.05 776.489 1556.25 855.334 C 1633.64 846.403 1685.92 861.386 1701.47 949.663 C 1709.85 997.229 1701.65 988.757 1727.9 1030.54 C 1638.75 1044.85 1663.62 901.391 1592.35 885.791 C 1655.17 984.163 1611.79 1026.37 1607.81 1123.71 C 1604.18 1212.69 1666.96 1270.56 1726.76 1322.68 C 1759.35 1352.21 1743.68 1389.47 1739.79 1426.79 C 1731.1 1510.25 1734.12 1594.73 1733.93 1678.64 L 1721.94 1678.64 C 1712.28 1720.71 1693.97 1713.66 1656.43 1709.21 C 1687.94 1637.5 1685.49 1676.9 1681.9 1592.7 L 1677.36 1500.95 C 1669.55 1369.41 1657.02 1382.28 1554.02 1321.33 C 1538.83 1312.35 1524.88 1301.17 1509.73 1292.58 C 1518.38 1329.43 1553.3 1376.96 1544.24 1402.49 L 1444.01 1678.64 L 1432.4 1678.64 C 1423.44 1722.25 1405.77 1712.02 1363.07 1707.02 C 1369.28 1691.5 1385.75 1677.43 1398.13 1666.68 C 1400.01 1660 1402.37 1652.92 1404.46 1646.26 C 1424.94 1589.28 1467.42 1466.03 1457.7 1408.5 C 1450.79 1367.66 1411.99 1342.68 1384.39 1315.87 C 1343.41 1276.06 1309.72 1218.36 1294.14 1163.9 C 1312.5 1161.17 1329.14 1154.72 1346.41 1148.3 C 1339.24 1141.74 1327.36 1130.26 1319.85 1125.01 C 1252.1 1124.35 1214.04 1145.45 1150.9 1163.77 C 1121.29 1172.35 928.016 1203.86 926.544 1205.05 C 891.714 1233.22 852.01 1352.12 843.402 1399.72 C 830.059 1473.5 808.354 1545.67 795.382 1619.55 C 792.26 1637.34 793.377 1659.05 790.498 1678.64 C 765.072 1680.66 766.155 1688.98 760.99 1711.45 C 743.092 1712.03 722.772 1711.28 704.522 1711.45 C 712.919 1695.83 724.271 1680.11 732.4 1665.42 C 738.877 1653.72 752.91 1552.72 755.959 1533.7 C 770.329 1444.02 771.145 1393.43 767.005 1302.23 C 765.901 1277.91 767.025 1246.95 762.381 1223.39 C 758.939 1205.94 736.993 1189.07 728.558 1170.93 C 721.249 1155.2 714.714 1142.08 709.308 1125.12 C 693.037 1074.08 706.252 1101.79 670.629 1063.18 C 567.385 951.276 589.837 855.579 547.595 734.961 C 530.541 734.73 516.257 737.78 497.718 736.633 C 482.418 735.686 459.114 730.802 445.567 731.779 C 418.249 734.498 398.055 744.151 369.766 744.076 C 327.21 743.963 260.671 694.022 324.661 663.428 C 360.936 646.085 396.771 619.597 421.787 588.081 C 453.652 547.936 498.16 520.797 551.412 523.287 C 561.876 475.36 533.895 428.683 488.067 410.371 C 468.598 402.592 408.521 389.228 426.817 350.476 L 428.187 350.13 C 438.06 357.15 443.164 383.929 466.221 383.374 C 501.715 382.521 457.581 310.768 489.232 258.774 C 507.031 229.539 503.814 287.471 503.615 291.261 C 500.949 342.099 541.935 425.993 576.791 464.267 L 577.725 465.276 C 615.801 478.26 654.234 400.642 639.487 372.395 C 638.087 369.712 584.043 311.896 617.393 304.862 C 623.364 309.67 621.164 343.72 644.454 350.189 C 708.155 367.885 666.269 229.16 671.781 214.658 z M 492.808 637.722 C 508.506 635.519 514.818 629.176 525.417 618.007 C 514.363 603.973 507.544 597.796 488.766 597.381 C 439.71 602.591 462.634 638.45 492.808 637.722 z M 318.612 696.63 C 332.497 689.366 327.995 682.523 314.66 681.901 C 299.749 687.428 302.362 700.674 318.612 696.63 z" fill="rgb(8,8,8)" transform="translate(0,0)"></path>
<path d="M 492.808 603.068 C 514.067 607.211 509.937 623.07 492.808 630.696 C 473.482 629.501 470.464 608.874 492.808 603.068 z" fill="rgb(8,8,8)" transform="translate(0,0)"></path>
<path d="M 964.744 1224.41 C 969.915 1223.59 964.64 1253.17 964.235 1257.29 L 937.399 1519.3 C 932.163 1575.79 929.578 1618.38 930.841 1675.1 C 925.144 1675.37 918.475 1675.15 912.682 1675.1 C 907.284 1685.34 903.226 1696.26 898.937 1707.02 C 891.57 1707.13 851.215 1708.14 847.412 1705.76 L 848.11 1703.42 C 889.34 1634.29 882.245 1670.29 882.174 1584.57 L 881.646 1517.51 C 881.635 1492.84 881.888 1468.51 879.571 1443.88 C 878.026 1427.44 868.381 1409.82 870.795 1393.33 C 873.797 1372.82 910.197 1253.75 920.035 1240.97 C 928.685 1229.73 951.62 1226.21 964.744 1224.41 z" fill="rgb(8,8,8)" transform="translate(0,0)"></path>
<metadata><recraft-signature>{"signed_by": "recraft", "signature_b64": "Q7usGBo5XEn8GMJBQ8EWEFGlRqMC16mSaahDvNV2gFT0UtR0iBIJwqPyLQcohiBI2Ddmo3Awrk4gZ+A3X1jBCg==", "signing_algo": "Ed25519", "generation_timestamp": 1772997367, "identifier": "06dcc0d8-4fe2-490c-8a17-7b2432f493fd"}</recraft-signature></metadata></svg>