<svg xmlns="http://www.w3.org/2000/svg" height="512" preserveAspectRatio="none" style="display: block;" version="1.1" viewBox="0 0 2048 2048" width="512">
<path d="M 997.39 483.001 C 1044.95 479.526 1128.57 488.485 1174.35 498.649 C 1248.29 515.065 1301.22 521.106 1377 521.118 C 1460.28 521.131 1565.42 543.227 1633.9 592.186 C 1664.57 614.114 1691.04 645.837 1728.68 661.297 C 1888.05 740.476 1920.1 874.789 1777.02 986.339 C 1805.6 1043.69 1789.68 1099.11 1758.23 1151.3 C 1804.29 1228.57 1807.09 1292.28 1742.72 1363.17 C 1605.02 1514.84 1266.09 1550.17 1059.64 1559.98 C 884.312 1560.58 703.292 1539.73 537.413 1479.93 C 417.488 1436.71 266.273 1342.53 320.349 1195.53 C 230.571 1140.28 196.193 1062.33 248.263 966.548 C 214.311 934.826 184.622 900.411 178.984 852.552 C 166.006 742.388 270.443 689.426 350.248 644.713 C 370.526 632.974 386.37 615.552 404.496 601.202 C 520.382 509.46 651.543 532.975 781.651 515.539 C 855.08 505.699 921.915 490.91 997.39 483.001 z M 1054.23 1130.99 C 1139.68 1124.44 1196.84 1103.71 1275.02 1092.7 C 1365.74 1079.93 1452.77 1091.7 1539.31 1054.79 C 1592.33 1032.18 1615.61 1004.19 1661.08 973.808 C 1688.5 955.479 1730.06 949.139 1754.96 923.522 C 1816.37 872.621 1826.66 810.808 1761.82 757.357 C 1727.46 729.031 1688.39 712.975 1651.68 688.393 C 1625.83 671.668 1605.33 648.56 1579.08 632.498 C 1482.59 573.446 1355.22 591.79 1249.73 576.912 C 1159.33 564.163 1089.86 539.433 992.792 544.989 C 921.683 551.452 862.019 568.178 793.228 577.506 C 687.153 591.891 595.665 577.533 490.213 623.846 C 443.144 644.518 420.511 677.468 381.197 700.523 C 340.107 724.619 297.761 739.977 266.049 777.406 C 205.071 849.374 270.071 915.234 335.621 946.716 C 369.836 962.042 404.129 973.892 431.89 1000.72 C 453.35 1021.89 474.679 1043.79 503.555 1055.02 C 601.688 1093.17 652.21 1081.2 748.801 1093.66 C 836.404 1104.95 921.235 1131.3 1010.15 1130.94 C 1024.72 1130.83 1039.69 1130.29 1054.23 1130.99 z" fill="rgb(0,0,0)" transform="translate(0,0)"></path>
<path d="M 1160.36 714.024 C 1284 712.551 1233.94 779.814 1203.99 777.869 C 1165.71 775.383 1132.52 779.322 1095.36 788.889 C 1083.67 792.331 1071.58 796.204 1059.64 798.452 C 1033.09 789.769 1017.78 766.171 1036.96 746.058 C 1058.14 723.836 1132.18 715.941 1160.36 714.024 z" fill="rgb(0,0,0)" transform="translate(0,0)"></path>
<path d="M 637.883 703.489 C 680.158 706.292 678.214 757.284 648.139 765.696 C 639.797 768.03 630.089 768.52 621.469 769.575 C 577.053 774.994 544.898 796.762 511.155 802.353 C 494.245 801.755 479.359 792.995 477.087 775.003 C 471.284 726.657 605.273 706.755 637.883 703.489 z" fill="rgb(0,0,0)" transform="translate(0,0)"></path>
<path d="M 1287.76 906.985 C 1312.44 904.874 1336.08 908.112 1362.52 911.735 C 1397.74 916.562 1424.02 946.311 1389.16 974.905 C 1378.8 983.404 1348.2 973.763 1333.8 970.4 C 1307.37 968.774 1279.24 969.997 1253.48 976.667 C 1224.49 984.169 1164.57 920.358 1287.76 906.985 z" fill="rgb(0,0,0)" transform="translate(0,0)"></path>
<path d="M 857.577 877.994 C 869.531 877.463 882.418 877.804 894.289 877.97 C 919.337 878.322 936.733 904.456 922.7 926.762 C 910.831 945.629 838.519 941.54 807.763 949.208 C 797.956 951.99 784.391 956.457 774.747 957.63 L 771.972 956.675 C 757.336 951.66 747.575 944.27 746.13 927.858 C 742.498 886.609 828.68 881.115 857.577 877.994 z" fill="rgb(0,0,0)" transform="translate(0,0)"></path>
<path d="M 1567.93 771.003 C 1592.97 767.68 1626.02 779.936 1615.03 811.762 C 1606.21 837.328 1558.15 832.813 1525.72 848.746 C 1485.93 866.691 1428.23 793.416 1567.93 771.003 z" fill="rgb(0,0,0)" transform="translate(0,0)"></path>
<path d="M 299.092 999.991 C 320.577 1010.48 349.392 1018.13 367.942 1032.24 C 407.474 1062.31 430.055 1091.53 478.412 1111.05 C 593.75 1157.59 637 1137.61 743.061 1155.2 C 910.666 1182.14 1012.3 1215.79 1193.34 1175.79 C 1224.28 1168.56 1254.06 1158.44 1285.67 1154.15 C 1410.34 1135.71 1527.55 1156.7 1638.7 1070.02 C 1669.89 1045.69 1681.14 1029.91 1719.88 1014.67 C 1738.59 1054.69 1726.16 1092.62 1698 1124.06 C 1676.33 1145.99 1655.61 1155.12 1632.19 1173.67 C 1603.86 1196.09 1583.37 1229.57 1548.1 1242.73 C 1462.17 1275.11 1365.93 1263.59 1277.06 1277.81 C 1196.32 1290.73 1125.07 1325.06 1041.38 1323.02 C 996.965 1321.94 953.953 1322.89 909.877 1312.39 C 861.477 1300.86 814.133 1286.55 764.837 1279.43 C 676.859 1265.54 590.044 1279.86 506.614 1244.96 C 470.214 1232.27 447.712 1201.49 417.704 1181.03 C 348.129 1133.59 252.964 1104.65 299.092 999.991 z" fill="rgb(245,220,160)" transform="translate(0,0)"></path>
<path d="M 1709.43 1198.84 C 1710.1 1199.09 1711.03 1199.38 1711.49 1199.9 C 1744.85 1238.5 1725.84 1291.85 1694.36 1322.55 C 1601.31 1413.28 1448.83 1448.03 1323.04 1472.11 C 1077.58 1512.22 603.827 1514.83 404.58 1328.77 C 377.12 1297.87 364.353 1269.03 374.853 1228.21 C 386.154 1235.13 402.23 1249.24 412.677 1258.2 C 513.025 1344.27 622.136 1323.85 743.3 1338.98 C 791.815 1345.29 836.867 1360.56 884.415 1371.47 C 975.105 1392.28 1076.33 1390.63 1166.69 1369.18 C 1215.07 1357.69 1261.94 1339.14 1311.85 1335.38 C 1398.71 1328.84 1486.37 1332.51 1569.43 1301.66 C 1628.73 1279.65 1650.65 1225.76 1709.43 1198.84 z" fill="rgb(245,220,160)" transform="translate(0,0)"></path>
<metadata><recraft-signature>{"signed_by": "recraft", "signature_b64": "b638bg6dJuRJqnwDJm/LBKQXDUnunrDEDz2XC1lla3OTqfYNF1eolGi81SvtXOgyXjuBwrDJLWWgBAlfUG+9CQ==", "signing_algo": "Ed25519", "generation_timestamp": 1772995678, "identifier": "ce81f7f2-e716-4573-95bf-7956346852e2"}</recraft-signature></metadata></svg>