<svg xmlns="http://www.w3.org/2000/svg" height="512" preserveAspectRatio="none" style="display: block;" version="1.1" viewBox="0 0 2048 2048" width="512">
<path d="M 831.1 509.316 C 890.777 498.788 944.774 529.089 993.231 558.345 C 1033.67 582.76 1063.19 551.623 1096.93 533.807 C 1188.92 485.242 1272.35 506.265 1355.79 554.086 C 1391.63 576.01 1413.78 558.686 1444.75 540.053 C 1642.71 427.924 1867.93 639.488 1769.67 832.956 C 1740.97 889.449 1727.51 862.025 1763.59 925.07 C 1803.7 995.147 1798 1081.06 1750.8 1145.98 C 1738.09 1163.47 1760.53 1188.66 1767.7 1204.48 C 1861.65 1407.42 1651.58 1605 1460.67 1514.84 C 1427.13 1499 1412.7 1474.75 1371.75 1485.7 C 1357.93 1491.06 1347.39 1498.16 1334.59 1505.34 C 1261.17 1546.48 1168.6 1546.54 1093.23 1510.43 C 1014.17 1472.56 1049.11 1467.43 968.947 1507.98 C 815.494 1585.62 615.28 1486.64 598.316 1313.04 C 596.216 1291.55 596.984 1269.36 596.982 1247.8 L 597.024 1161.51 C 554.347 1128.36 533.257 1080.4 523.598 1029 C 507.95 1029.49 490.905 1030.58 475.468 1029.3 C 174.943 1003.74 190.269 557.544 492.77 554 C 506.708 553.837 520.758 554.025 534.725 554.033 L 625.884 554.047 C 686.265 554.042 674.95 559.895 727.569 534.126 C 759.263 518.605 795.552 506.426 831.1 509.316 z M 1356.02 1309 C 1427.43 1316.19 1447.48 1300.65 1521.76 1349.16 C 1564.01 1376.75 1614.37 1366.37 1619.91 1312.5 C 1622.15 1291.86 1611.79 1282.87 1601.97 1267.78 C 1560.22 1203.48 1559.1 1111.95 1606.84 1050.32 C 1630.81 1019.38 1607.99 1003.05 1592.34 975.107 C 1562.58 921.969 1562.38 851.976 1592.08 798.825 C 1598.85 786.765 1608.66 776.67 1615.75 764.879 C 1639.29 723.131 1595.46 674.064 1547.98 683.981 C 1532.02 687.314 1518.6 698.812 1504.58 706.294 C 1432.84 744.564 1339.35 739.274 1268.3 702.016 C 1192.91 662.478 1215.98 672.34 1145.28 706.701 C 1075.05 740.836 988.846 741.115 917.299 710.637 C 891.57 699.677 865.596 676.014 836.977 677.438 C 816.029 679.503 800.377 692.66 781.912 701.432 C 712.068 734.609 622.274 725.07 546.126 724.955 C 525.523 724.924 495.906 721.868 476.527 727.117 C 427.838 740.304 409.76 816.971 449.718 849.403 C 497.13 887.883 589.885 826.023 651.898 910.397 C 680.036 948.682 668.671 983.515 688.554 1014.82 C 696.593 1027.48 708.523 1037.72 718.585 1048.76 C 761.275 1095.61 768.063 1139.36 768.029 1198.56 C 768.013 1227.79 764.434 1290.31 772.452 1317.07 C 782.701 1351.29 816.119 1371.94 851.411 1367.43 C 875.276 1364.38 892.224 1348.33 912.273 1336.8 C 975.515 1300.44 1061.32 1300.46 1127.06 1329.9 C 1166.13 1347.4 1185.18 1377.43 1233.04 1365.3 C 1255.75 1359.55 1274.68 1340.41 1296.05 1330.57 C 1315.55 1321.6 1336.43 1317.29 1356.02 1309 z" fill="rgb(0,0,0)" transform="translate(0,0)"></path>
<metadata><recraft-signature>{"signed_by": "recraft", "signature_b64": "ykz/xY2kn9FRdP4OGegi4duqmd8hOyOLzgardfnX+mROj1V9dRsuUyTGIcufCv9TenOUzK0eaaF0b2uK/qrjBw==", "signing_algo": "Ed25519", "generation_timestamp": 1772996093, "identifier": "3cf0a43d-b6a1-4b81-88f1-2f2c5c9c6369"}</recraft-signature></metadata></svg>