<svg xmlns="http://www.w3.org/2000/svg" height="512" preserveAspectRatio="none" style="display: block;" version="1.1" viewBox="0 0 2048 2048" width="512">
<path d="M 264.361 634.382 C 283.587 633.119 320.657 634.351 341.133 634.361 L 1685.26 634.344 C 1747.84 634.341 1845.38 617.812 1856.81 702.387 C 1858.78 717.004 1858.03 734.699 1858.03 749.615 L 1858 1247.62 C 1857.94 1319.79 1874.41 1398.39 1780.78 1408.54 L 306.69 1408.57 C 215.943 1408.93 190.154 1396.59 190.081 1297.65 L 190.049 745.129 C 189.946 690.642 194.843 642.269 264.361 634.382 z M 1780.78 1368.99 C 1824.95 1365.3 1819.17 1326.68 1819.02 1294.77 L 1819.01 827.922 C 1819.05 774.845 1840.17 676.137 1769.87 675.934 L 329.658 675.946 C 315.604 675.924 282.06 674.905 269.445 675.939 C 221.645 681.913 230.903 733.375 230.964 768.897 L 231.017 1321.72 C 231.146 1382.85 274.338 1369.09 323.674 1369.04 L 1780.78 1368.99 z" fill="rgb(3,3,3)" transform="translate(0,0)"></path>
<path d="M 1431.77 912.999 C 1554.06 885.787 1578.47 1123.86 1455.24 1134.79 C 1315.43 1150.1 1312.87 922.778 1431.77 912.999 z M 1446.1 1095.16 C 1501.53 1084.52 1508.12 956.343 1441.49 952.485 C 1381.4 959.02 1375.89 1094.8 1446.1 1095.16 z" fill="rgb(3,3,3)" transform="translate(0,0)"></path>
<path d="M 354.009 915.854 C 384.833 915.866 420.947 913.579 450.651 918.105 C 501.035 925.783 521.501 1000.81 466.302 1034.34 C 481.248 1063.53 496.027 1101.41 507.735 1132.01 C 490.855 1131.44 473.555 1132.76 457.034 1132.01 C 443.005 1095.12 440.09 1048.9 399.062 1048.81 C 398.502 1075.74 399.048 1104.89 399.062 1132.01 C 384.184 1132.2 368.92 1132.01 354.009 1132.01 L 354.042 981.854 C 354.073 965.926 352.617 929.47 354.009 915.854 z M 399.062 1008.86 C 414.772 1009.55 429.79 1010.95 444.113 1003.2 C 471.869 976.602 443.656 951.589 402.736 956.997 L 400.276 957.472 C 398.004 961.838 398.835 1001.38 399.062 1008.86 z" fill="rgb(3,3,3)" transform="translate(0,0)"></path>
<path d="M 585.397 915.854 L 652.586 915.854 C 674.513 986.999 694.189 1060.12 713.89 1132.01 C 698.309 1132.3 681.885 1132.02 666.237 1132.01 C 661.514 1120.01 657.988 1086.75 647.25 1085.51 C 625.994 1086.21 602.549 1085.52 581.079 1085.51 C 576.099 1098.77 571.418 1118.16 567.971 1132.01 C 553.868 1132.13 531.461 1130.77 518.327 1132.01 C 524.94 1117.31 533.639 1084.89 538.676 1068.02 L 569.592 966.172 C 573.055 954.571 580.662 925.718 585.397 915.854 z M 617.721 1045.5 L 641.882 1045.5 C 640.106 1038.9 618.456 957.816 617.721 956.997 C 608.896 976.91 598.369 1022.21 592.821 1045.5 L 617.721 1045.5 z" fill="rgb(3,3,3)" transform="translate(0,0)"></path>
<path d="M 793.768 912.999 C 819.886 911.577 840.266 914.11 863.194 927.245 C 860.989 937.455 858.077 961.168 857.64 971.529 C 839.375 960.245 771.484 938.918 777.556 975.22 C 781.039 996.045 831.552 1007.34 849.45 1022.43 C 901.619 1061.12 868.538 1128.44 799.736 1134.79 C 770.555 1134.49 756.81 1131.42 731.026 1119.02 C 733.854 1106.48 734.803 1087.41 737.137 1073.26 C 760.064 1090.54 798.768 1105.93 822.428 1081.96 C 832.408 1051.28 781.184 1045.9 760.184 1029.59 C 705.721 991.853 729.274 923.359 793.768 912.999 z" fill="rgb(3,3,3)" transform="translate(0,0)"></path>
<path d="M 1624.81 912.999 C 1650.98 907.912 1676.45 919.53 1697.36 933.989 C 1692.12 947.612 1685.64 956.014 1680.8 971.529 C 1661.03 955.142 1602.66 938.334 1604.96 972.074 C 1606.61 996.333 1666.31 1009.85 1684.36 1030.3 C 1730.57 1076.86 1685.18 1137.56 1619.06 1134.79 L 1615.05 1134.77 C 1588.63 1134.45 1567.84 1124.69 1549.57 1105.91 C 1553.34 1096.67 1561.5 1083.05 1566.35 1073.26 C 1586.64 1088.02 1601.96 1096.81 1627.96 1096.15 C 1639.36 1095.86 1659.17 1084.03 1655.14 1072.46 C 1643.97 1045.01 1603.31 1039.46 1581.61 1020.18 C 1534.56 978.398 1561.93 916.314 1624.81 912.999 z" fill="rgb(3,3,3)" transform="translate(0,0)"></path>
<path d="M 1020.13 915.854 C 1024.79 915.683 1030.17 915.837 1034.9 915.854 L 1034.9 956.997 L 983.49 956.997 C 982.785 974.765 983.437 997.099 983.444 1015.29 L 983.49 1132.01 C 968.128 1132.44 951.241 1132.07 935.823 1132.01 C 935.941 1120.81 935.885 1109.69 935.823 1098.5 L 935.823 956.997 L 884.512 956.997 C 884.179 943.759 884.296 929.108 884.512 915.854 L 1020.13 915.854 z" fill="rgb(3,3,3)" transform="translate(0,0)"></path>
<path d="M 1067.23 915.854 C 1081.28 915.916 1094.89 915.273 1109 915.854 C 1108.4 973.951 1108.98 1033.04 1109 1091.22 L 1183.03 1091.22 C 1183.01 1096.77 1185.64 1129.13 1183.03 1132.01 L 1062.06 1132.01 C 1062.89 1106.25 1060.63 919.836 1063.02 916.275 L 1067.23 915.854 z" fill="rgb(3,3,3)" transform="translate(0,0)"></path>
<path d="M 1212.96 915.854 L 1259 915.854 L 1259 1091.22 C 1282.46 1091.93 1308.18 1091.05 1332 1091.22 L 1332 1132.01 C 1320.15 1132.65 1303.44 1132.07 1291.19 1132.06 L 1212.96 1132.01 L 1212.96 915.854 z" fill="rgb(3,3,3)" transform="translate(0,0)"></path>
<metadata><recraft-signature>{"signed_by": "recraft", "signature_b64": "E0sUyAXcOQbJk8LKxkhVX/S57fLIb7njaQtS87FS6dEQz11KJ5n92afP749qnybcYY9oe2FLZK4RjIePHZ9JAA==", "signing_algo": "Ed25519", "generation_timestamp": 1773000757, "identifier": "2e5cc8ac-e43b-4a1d-8ca6-d25bbd3c0175"}</recraft-signature></metadata></svg>