<svg xmlns="http://www.w3.org/2000/svg" height="512" preserveAspectRatio="none" style="display: block;" version="1.1" viewBox="0 0 2048 2048" width="512">
<path d="M 600.741 445.024 C 646.072 443.672 671.914 455.798 697.146 494.128 C 653.391 514.74 617.231 557.739 623.912 608.636 C 628.921 609.855 635.844 612.194 640.929 613.759 C 642.078 530.514 727.655 474.827 802.812 514.036 C 890.783 559.929 869.562 675.75 770.282 703.846 C 813.705 770.821 886.529 733.446 939.713 700.272 C 1054.15 630.101 1178.26 591.091 1311.35 626.549 C 1491.31 673.006 1613.76 858.604 1590.43 1042.1 C 1576.75 1149.65 1525.42 1210.19 1451 1283.62 C 1435.56 1298.86 1419.66 1318.59 1397.08 1321.69 L 1204.99 1353.21 C 1194.3 1354.87 1182.37 1357.28 1171.81 1357.58 C 1128.74 1358.83 1113.72 1288.69 1175.17 1277.23 C 1200.74 1272.46 1226.3 1268.15 1251.89 1263.77 L 1288.53 1257.36 C 1247.87 1222.64 1219.74 1186.12 1210.41 1132.17 C 1208.8 1122.86 1205.49 1073.44 1183.02 1106.12 C 1182.15 1147.42 1192.07 1166.82 1208.14 1203.89 C 1198.81 1205.73 1182.11 1207.37 1172.04 1208.56 L 1003.4 1228.43 C 945.735 1234.95 897.29 1239.37 839.485 1239.81 C 794.115 1303.4 762.377 1314.52 691.028 1331.08 C 647.849 1341.11 604.719 1351.23 561.473 1360.97 C 497.033 1372.66 497.88 1306.63 532.852 1293.27 C 558.518 1283.46 634.436 1266.92 660.594 1263.77 C 668.001 1226.92 679.765 1205.49 704.674 1178.69 C 695.171 1114.69 676.699 1056.79 626.344 1013.36 C 578.403 972.011 537.247 971.769 477.4 972.251 C 433.124 972.608 220.373 951.636 201.274 909.615 C 195.98 897.965 188.409 867.49 193.283 855.758 C 198.922 842.186 295.845 784.432 315.648 766.606 C 330.643 753.109 339.133 734.949 349.785 718.191 C 390.052 654.84 462.007 629.052 528.735 603.383 C 472.343 540.027 526.849 456.605 600.741 445.024 z M 484.491 821.447 C 504.219 818.603 517.928 800.335 515.146 780.599 C 512.365 760.862 494.14 747.095 474.395 749.814 C 454.561 752.545 440.718 770.869 443.513 790.695 C 446.307 810.52 464.674 824.304 484.491 821.447 z" fill="rgb(45,44,44)" transform="translate(0,0)"></path>
<path d="M 1617.48 978.284 C 1633.89 984.244 1654.85 996.122 1670.57 1004.31 C 1905.56 1126.79 1916.48 1385.54 1693.02 1513.2 C 1567.32 1574.22 1457.77 1575.74 1319.64 1558.88 C 1239.52 1549.1 1192.61 1547.45 1115.53 1568.97 C 1106.71 1573.41 1077.73 1590.39 1069.06 1584.94 C 1035.21 1563.64 1076.45 1542.96 1094.39 1532.86 C 1207.98 1469.91 1334.75 1507.04 1458.27 1502.54 C 1575.48 1498.2 1716.47 1453.84 1769.62 1339.42 C 1827.61 1214.6 1725.88 1102.45 1614.17 1056.1 C 1618 1027.46 1617.73 1006.93 1617.48 978.284 z" fill="rgb(45,44,44)" transform="translate(0,0)"></path>
<metadata><recraft-signature>{"signed_by": "recraft", "signature_b64": "rlcdsf5+zHjV96JmKk0ZVsH/PFU7WoduH/FGcD+lVTkSnniA8/QzlezxGSRlLC5JtYqUPDmlN+eJcYvrqACjAg==", "signing_algo": "Ed25519", "generation_timestamp": 1772998067, "identifier": "8de49e91-73c7-45a3-878b-66f63dc4e923"}</recraft-signature></metadata></svg>