<svg xmlns="http://www.w3.org/2000/svg" height="512" preserveAspectRatio="none" style="display: block;" version="1.1" viewBox="0 0 2048 2048" width="512">
<path d="M 1560.38 302.942 L 1622.99 302.906 C 1646.71 302.843 1672.07 299.721 1695.08 307.847 C 1752 327.947 1753.58 381.699 1734.64 428.883 C 1693.9 530.335 1647.49 633.904 1609.69 735.83 C 1625.88 780.388 1744.92 1077.66 1744.87 1101.4 C 1744.71 1177.5 1683.36 1189.32 1625.04 1189.04 L 466.995 1188.99 C 466.223 1195.14 466.9 1218.44 466.918 1225.91 L 466.995 1586.85 L 466.907 1635.79 C 466.126 1795.22 301.958 1754.83 302.179 1659.12 L 302.254 427.508 C 302.17 332.338 310.444 302.888 412 302.902 L 1560.38 302.942 z M 466.995 1022.48 C 505.388 1023.42 548.049 1022.48 586.749 1022.48 L 1545.32 1022.48 C 1538.41 1000.64 1524.76 971.99 1516.07 949.299 L 1472.02 842.355 C 1421.36 720.309 1431.99 727.462 1481.43 609.542 L 1520.5 516.433 C 1527.08 500.592 1535.31 483.06 1540.44 466.995 L 466.995 466.995 L 466.995 1022.48 z" fill="rgb(0,0,0)" transform="translate(0,0)"></path>
<metadata><recraft-signature>{"signed_by": "recraft", "signature_b64": "xFgvyP2vSlJSqYWdywtqy8739Fx+3OMryKGV+SnE/2LLuVx6e9Ryuh+cS0kCFWdUwkfwvAXsEC9FtrXVyhGuCA==", "signing_algo": "Ed25519", "generation_timestamp": 1772999204, "identifier": "d7d36dbd-09fd-4b78-9dfe-fadee3e413fe"}</recraft-signature></metadata></svg>