<svg xmlns="http://www.w3.org/2000/svg" height="512" preserveAspectRatio="none" style="display: block;" version="1.1" viewBox="0 0 2048 2048" width="512">
<path d="M 411.878 698.538 L 1743.53 698.49 C 1793.92 698.404 1854.55 696.667 1854.23 766.421 L 1854.03 1218.41 C 1854.04 1332.43 1840.79 1328.38 1739 1328.39 L 1634.5 1328.35 L 300.707 1328.4 C 244.732 1328.41 194.958 1332 194.255 1261.57 L 194.036 805.925 C 194.042 700.516 204.819 698.513 309.682 698.499 L 411.878 698.538 z M 1796.72 1283.23 C 1825.99 1268.81 1811.76 1162.52 1811.76 1127.54 L 1811.81 916.625 C 1811.83 893.063 1815.46 768.123 1807.54 752.104 C 1802.2 741.303 1772.63 744.353 1762.94 744.413 L 334.43 744.495 C 313.729 744.478 274.057 743.138 255.448 744.51 C 225.28 746.483 237.54 810.115 237.304 836.311 L 236.999 1195.8 C 236.951 1226.96 224.304 1282.24 262.848 1282.99 C 287.281 1283.47 312.143 1283.24 336.589 1283.24 L 1708.8 1283.22 C 1728.4 1283.21 1780.49 1286.77 1796.72 1283.23 z" fill="rgb(7,7,7)" transform="translate(0,0)"></path>
<path d="M 295.505 913.995 C 317.94 914.092 388.621 912.512 406.148 919 C 449.289 939.672 453.983 1013.43 402.48 1038.61 C 410.943 1058.15 433.316 1102.07 443.681 1119.64 C 427.522 1120.42 411.605 1120.17 395.452 1119.64 C 383.569 1102.2 366.924 1064.44 358.93 1045.07 C 353.364 1045.51 344.793 1045.15 339.003 1045.07 L 339.003 1119.64 C 325.547 1120.14 309.186 1119.66 295.505 1119.64 C 294.9 1105.36 295.474 1087.09 295.482 1072.45 L 295.414 941.49 C 295.387 933.666 294.3 921.249 295.505 913.995 z M 339.003 1004.95 C 354.823 1007.24 375.465 1010.78 387.837 998.545 C 397.593 990.205 397.733 973.258 390.224 963.817 C 381.006 952.229 353.655 954.881 339.003 954.435 L 339.003 1004.95 z" fill="rgb(7,7,7)" transform="translate(0,0)"></path>
<path d="M 507.837 913.995 L 560.249 913.995 C 570.406 974.737 602.128 1057.99 618.79 1119.64 C 609.861 1120.58 584.863 1119.7 574.856 1119.64 C 571.712 1111.85 568.182 1085.83 560.249 1083.97 C 544.104 1083.35 524.267 1083.94 507.837 1083.97 C 500.324 1097.98 499.666 1104.9 494.585 1119.64 C 479.383 1120.01 464.076 1119.77 448.863 1119.64 C 464.998 1055.05 487.256 975.867 507.837 913.995 z M 513.853 1045.07 L 536.25 1045.07 L 551.86 1045.07 C 549.438 1035.42 536.223 981.797 532.497 977.658 C 526.612 996.346 517.932 1025.78 513.853 1045.07 z" fill="rgb(7,7,7)" transform="translate(0,0)"></path>
<path d="M 1393.91 913.995 C 1408.94 914.168 1423.82 914.101 1438.85 913.995 L 1438.85 1114.25 C 1437.88 1123.81 1403.69 1119.43 1393.91 1119.64 L 1393.91 1038.61 L 1346.51 1038.61 L 1346.51 1119.64 L 1302.41 1119.64 C 1301.72 1051.57 1302.33 982.155 1302.41 913.995 C 1309.73 914.977 1337.79 914.228 1346.51 913.995 C 1346.9 941.872 1346.53 970.602 1346.51 998.545 C 1360.31 999.339 1379.78 998.654 1393.91 998.545 C 1393.94 970.371 1393.62 942.163 1393.91 913.995 z" fill="rgb(7,7,7)" transform="translate(0,0)"></path>
<path d="M 1189.79 910.999 C 1247.57 905.54 1268.09 935.918 1268.05 986.843 L 1229.12 986.843 C 1222.45 940.074 1187.56 944.586 1182.19 965.291 C 1176.85 985.849 1166.91 1077.56 1200.6 1083.97 C 1213.97 1082.6 1216 1081.99 1226 1073.16 C 1226.7 1065.65 1226.13 1052.97 1226 1045.07 L 1200.6 1045.07 C 1200.51 1031.13 1194.46 1005.38 1207.75 1004.95 L 1268.05 1004.95 C 1268.22 1047.62 1277.54 1107.21 1222.14 1121.16 C 1144.75 1140.64 1135.31 1080.32 1136.09 1024.59 C 1136.78 975.203 1128.69 924.13 1189.79 910.999 z" fill="rgb(7,7,7)" transform="translate(0,0)"></path>
<path d="M 1477.53 913.995 C 1511.61 916.067 1553.68 914.705 1587.99 913.995 C 1586.8 929.854 1586.38 938.34 1587.99 954.435 C 1566.05 954.41 1543.93 954.809 1522 954.435 L 1522 998.545 L 1581 998.545 C 1581.11 1011.02 1581.37 1023.7 1581 1036.16 C 1562.88 1036.88 1540.49 1036.2 1522 1036.16 L 1522 1060.25 C 1522.38 1066.03 1522.05 1074.94 1522 1080.96 C 1543.21 1081.47 1566.64 1080.99 1587.99 1080.96 L 1587.99 1119.64 L 1477.53 1119.64 L 1477.53 913.995 z" fill="rgb(7,7,7)" transform="translate(0,0)"></path>
<path d="M 1622.44 913.995 L 1748 913.995 L 1748 954.435 L 1704.01 954.435 C 1704.69 995.833 1704.02 1039.4 1704.01 1080.96 C 1703.75 1093.99 1703.36 1106.61 1704.01 1119.64 L 1657.01 1119.64 L 1657.01 954.435 L 1616.61 954.435 C 1616.43 944.26 1611.87 915.474 1622.44 913.995 z" fill="rgb(7,7,7)" transform="translate(0,0)"></path>
<path d="M 802.996 913.995 L 890 913.995 L 890 954.435 C 875.641 954.351 861.103 954.149 846.764 954.435 C 846.771 973.975 848.904 1108.62 845.407 1118.92 L 843.067 1119.64 L 802.996 1119.64 L 802.996 954.435 C 788.228 953.794 773.526 954.196 758.747 954.435 C 758.168 942.197 758.671 926.499 758.747 913.995 C 773.096 913.554 788.56 913.906 802.996 913.995 z" fill="rgb(7,7,7)" transform="translate(0,0)"></path>
<path d="M 987.537 913.995 C 1028.54 913.407 1071.21 913.986 1112.33 913.995 C 1112.16 927.327 1112.4 941.02 1112.33 954.435 L 1072.49 954.435 L 1072.49 1083.97 L 1072.49 1119.64 C 1057.92 1119.26 1042.78 1119.64 1028.13 1119.64 L 1028.13 954.435 C 1014.46 954.38 1001.3 954.978 987.537 954.435 C 987.475 940.944 987.393 927.487 987.537 913.995 z" fill="rgb(7,7,7)" transform="translate(0,0)"></path>
<path d="M 686.575 913.995 L 740.086 913.995 C 740.309 927.426 739.752 940.851 740.086 954.435 C 724.68 953.86 714.167 953.626 698.972 954.435 C 697.45 1006.51 698.949 1066.91 698.972 1119.64 C 688.047 1120.84 678.498 1120.17 667.613 1119.64 L 655.01 1119.64 L 655.01 954.435 L 614.01 954.435 L 614.01 913.995 L 686.575 913.995 z" fill="rgb(7,7,7)" transform="translate(0,0)"></path>
<path d="M 918.076 913.995 L 961.006 913.995 L 961.006 1119.64 C 950.552 1120.53 929.299 1119.73 918.076 1119.64 L 917.949 970.746 C 918.088 952.89 917.019 931.145 918.076 913.995 z" fill="rgb(7,7,7)" transform="translate(0,0)"></path>
<metadata><recraft-signature>{"signed_by": "recraft", "signature_b64": "Ve/fo5BEDNkcLF5MOzVSIg987BsJS1GXv7dcpioPgEBh07WFbn/M1alNK7TgxHsq4BUatpZDZ7ZP7tDyJ81nCQ==", "signing_algo": "Ed25519", "generation_timestamp": 1773000887, "identifier": "3a99306f-c63f-4fa7-9538-2601b41c3099"}</recraft-signature></metadata></svg>