<svg xmlns="http://www.w3.org/2000/svg" height="512" preserveAspectRatio="none" style="display: block;" version="1.1" viewBox="0 0 2048 2048" width="512">
<path d="M 1355.85 406.941 C 1389.24 403.679 1478.13 504.23 1509.2 536.812 L 1563.66 536.812 C 1587.11 503.749 1670.6 417.539 1712.06 406.941 C 1744.07 417.086 1737.87 427.649 1742.97 459.541 C 1751.04 509.978 1752.6 595.886 1734.59 645.663 C 1740.12 659.061 1771.35 757.216 1771.07 764.445 C 1769.98 793.207 1732.8 808.26 1714.66 825.73 C 1673.13 992.89 1649 1150.07 1512.45 1276.93 C 1503.05 1285.67 1489.2 1296.87 1481.34 1306.58 L 1480.44 1307.71 C 1469.11 1340.18 1466.1 1402.19 1461.72 1438.35 L 1455.48 1490.24 C 1451.6 1523.79 1449.55 1539.31 1479.48 1563.21 C 1497.33 1577.3 1522.56 1591.29 1508.23 1618.14 C 1501.14 1631.43 1489.07 1633.71 1475.44 1632.35 C 1427.12 1627.52 1347.47 1646.94 1334.24 1571.85 C 1320.95 1496.48 1309.96 1409.21 1292.93 1335.46 C 1244.95 1331.24 1203.3 1310.63 1160.8 1289.85 C 1089.38 1254.92 1021.33 1231.28 943.323 1216.45 C 909.672 1275.04 878.99 1338.72 846.103 1397.92 C 831.494 1424.22 874.687 1513.43 892.383 1531.44 C 903.599 1542.93 972.422 1537.05 953.439 1578.36 C 944.352 1598.99 923.436 1596.1 904.863 1596.25 C 854.504 1598.6 853.49 1585.66 836.004 1544.49 C 812.062 1491.46 783.9 1460.18 789.835 1400.1 C 740.467 1457.34 735.693 1505.57 793.256 1567.81 C 801.693 1576.93 815.716 1580.68 819.85 1593.54 C 836.919 1646.62 722.345 1634.69 698.475 1631.34 C 661.216 1626.11 656.866 1594.67 648.187 1564.75 C 637.694 1528.57 628.165 1492.14 618.122 1455.84 C 602.43 1399.12 613.769 1385.86 642.515 1334.59 C 698.151 1235.35 646.535 1176 619.928 1082.73 C 587.67 1132.1 563.011 1198.4 507.83 1228.75 C 429.736 1271.69 324.225 1267.91 243.635 1233.17 C 175.595 1203.84 204.395 1186.93 245.21 1155.25 C 327.821 1098.77 363.145 1000.17 435.639 933.241 C 543.675 830.852 692.937 790.344 838.852 796.579 L 1152.02 810.234 C 1294.55 817.037 1292.16 755.03 1336.58 649.118 C 1320.05 583.528 1316.29 520.813 1325.98 453.586 C 1329.43 429.688 1325.99 410.595 1355.85 406.941 z M 707.856 1575.81 C 716.051 1576.55 722.231 1576.68 730.361 1575.81 C 708.493 1541.12 690.634 1494.87 697.536 1453.58 C 709.967 1379.2 840.951 1265.41 893.21 1190.75 C 921.441 1150.42 914.512 1151.94 969.367 1164.12 C 1049.06 1181.82 1122.91 1209.34 1196.26 1244.38 C 1224.31 1257.78 1251.49 1272.37 1282.4 1278.09 C 1279.85 1253.97 1271.39 1229.87 1270.1 1206.12 C 1267.88 1175.78 1312.73 1169.82 1321.64 1193.46 C 1329.63 1214.65 1334.12 1250.83 1338.1 1273 L 1366.53 1432.48 C 1373.85 1475.89 1381.69 1519.41 1390.69 1562.54 C 1393.61 1576.56 1402.86 1575.91 1414.61 1575.81 C 1389.15 1525.28 1396.18 1520.56 1403.26 1465.48 L 1429.21 1255.77 C 1432.62 1229.44 1436.18 1118.73 1487.97 1167.42 C 1499.5 1178.26 1490.57 1206.49 1489.68 1222.6 L 1489.6 1224.16 C 1584.15 1117.3 1612.66 1014.99 1646.98 880.895 C 1622.92 897.788 1555.18 970.456 1528.48 956.043 C 1510.91 944.876 1493.77 930.465 1477.45 917.555 L 1381.87 842.601 C 1350.67 921.267 1247.71 1064.49 1176.74 1097.05 C 1084.52 1139.37 978.916 1075.72 888.808 1116.35 C 831.511 1142.18 787.859 1283.54 717.149 1294.54 C 710.621 1321.56 665.742 1410.68 666.081 1414.91 C 668.905 1450.24 696.625 1538.77 707.856 1575.81 z M 1397.03 649.118 C 1382.72 679.586 1363.9 721.708 1355.85 754.023 C 1411.94 801.702 1480.13 849.788 1538.9 896.368 C 1554.57 882.127 1576.79 865.668 1593.72 852.172 L 1681.31 781.848 C 1695.02 770.907 1700.3 767.11 1712.06 754.023 C 1703.02 723.328 1688.83 675.177 1677.47 645.663 C 1696.81 580.274 1696.91 549.458 1692.74 484.276 C 1656.87 514.95 1615.04 569.314 1583.42 592.131 L 1582.6 592.73 C 1551.91 592.794 1520.15 590.67 1489.6 592.73 C 1456.78 565.69 1410.46 502.79 1376.49 484.276 C 1377.57 540.048 1372.18 595.807 1397.03 649.118 z" fill="rgb(0,0,0)" transform="translate(0,0)"></path>
<path d="M 1329.42 802.354 C 1346.88 815.442 1364.86 829.004 1381.87 842.601 C 1350.67 921.267 1247.71 1064.49 1176.74 1097.05 C 1084.52 1139.37 978.916 1075.72 888.808 1116.35 C 831.511 1142.18 787.859 1283.54 717.149 1294.54 C 731.511 1209 706.287 1166.05 677.748 1089.75 C 657.128 1027.59 645.19 940.413 694.948 889.477 C 745.546 837.681 807.848 850.958 873.428 853.163 L 1078.03 861.54 C 1180.9 866.111 1249.64 884.953 1329.42 802.354 z" fill="rgb(248,187,105)" transform="translate(0,0)"></path>
<path d="M 1618.76 706.187 C 1658.36 703.892 1643.19 734.139 1608.01 750.186 C 1580.33 755.047 1568.59 724.456 1618.76 706.187 z" fill="rgb(0,0,0)" transform="translate(0,0)"></path>
<path d="M 1450.42 710.046 C 1466.24 709.142 1488.58 721.52 1493.54 736.744 C 1490.8 745.974 1489.26 749.754 1480.44 754.023 C 1456.42 754.716 1413.76 723.848 1450.42 710.046 z" fill="rgb(0,0,0)" transform="translate(0,0)"></path>
<path d="M 631.795 880.895 L 632.473 881.682 C 617.74 901.056 607.271 942.433 606.097 966.825 C 603.586 1018.98 596.37 1015.86 569.455 1061.78 C 545.441 1102.75 518.641 1158.7 476.313 1183.05 C 427.349 1211.21 353.323 1209.75 299.351 1195.87 L 285.063 1192.49 C 359.602 1139.67 397.591 1056.39 456.99 990.318 C 495.724 947.235 575.04 894.496 631.795 880.895 z" fill="rgb(248,187,105)" transform="translate(0,0)"></path>
<metadata><recraft-signature>{"signed_by": "recraft", "signature_b64": "pox0QFqtkUqeh03cKKG7NU5QahIOog16Js7riPl8DI2j19GCA9Tm2BSwxUCmfq6RJKsff+C0+WyXtTEji0oLAA==", "signing_algo": "Ed25519", "generation_timestamp": 1772997331, "identifier": "db2adfc0-a001-4585-a357-004393ec028d"}</recraft-signature></metadata></svg>