<svg xmlns="http://www.w3.org/2000/svg" height="512" preserveAspectRatio="none" style="display: block;" version="1.1" viewBox="0 0 2048 2048" width="512">
<path d="M 288.742 949.053 C 292.922 948.534 315.662 948.972 320.972 948.981 L 1205.81 949.05 C 1230.51 949.051 1255.33 948.866 1280 949.268 C 1358.69 950.548 1384.76 1061.67 1289.5 1089.13 C 1281.47 1089.93 1258.24 1089.22 1249.03 1089.19 L 360.498 1089.15 C 337.897 1089.17 315.007 1089.49 292.44 1089.08 C 212.266 1086 198.824 966.032 288.742 949.053 z" fill="rgb(4,4,4)" transform="translate(0,0)"></path>
<path d="M 1483.78 740.564 L 1727.51 740.47 C 1773.49 740.185 1818 754.045 1818.36 811.496 L 1818.01 1202.53 C 1818 1279.13 1803.34 1306.21 1722.17 1306.06 L 1476.75 1305.99 C 1390.59 1294.88 1388.01 1186.94 1467.96 1168.25 C 1481.85 1165 1523.11 1166.97 1539.27 1167.01 L 1681.02 1167 L 1681.02 874.404 L 1539.33 874.435 C 1515.39 874.436 1483.91 876.134 1460.95 872.246 C 1387.6 859.83 1389.08 741.587 1483.78 740.564 z" fill="rgb(4,4,4)" transform="translate(0,0)"></path>
<metadata><recraft-signature>{"signed_by": "recraft", "signature_b64": "pDGAnjjZWqwS6f/p6/MjXuPWRrcLAEUsQv4X1PriMsZjqEM2v/NavsmaFIgV3YV3iB/XGhICMM6iYbPICsIEBQ==", "signing_algo": "Ed25519", "generation_timestamp": 1772998579, "identifier": "08c46a6e-5ab0-4793-889f-9a582f7e168e"}</recraft-signature></metadata></svg>