<svg xmlns="http://www.w3.org/2000/svg" height="512" preserveAspectRatio="none" style="display: block;" version="1.1" viewBox="0 0 2048 2048" width="512">
<path d="M 306.538 417.057 C 311.964 416.353 340.132 416.976 347.513 416.986 L 1732.13 417.131 C 1805.25 417.407 1806.97 469.625 1806.9 522.626 L 1806.88 1477.71 C 1806.93 1539.64 1822.27 1609.03 1746.06 1629.89 C 1730.96 1631.2 1696.35 1629.91 1679.32 1629.89 L 404.66 1629.91 C 362.054 1629.93 307.946 1638.34 272.675 1613.7 C 239.644 1590.62 242.597 1554.03 242.605 1519 L 242.611 564.378 C 242.616 505.875 227.847 428.803 306.538 417.057 z M 302.822 489.004 C 302.039 506.746 302.802 528.862 302.811 547.11 L 302.822 1023.16 L 419.389 1023.16 L 419.292 1376.45 C 419.142 1447.12 423.986 1443.12 499.13 1443.05 L 903.018 1442.99 L 903.018 1571 L 1634.6 1570.98 C 1649.29 1570.98 1740.5 1577.68 1743.83 1560.46 C 1747.72 1540.45 1746.08 1507.65 1746.07 1488.01 L 1746.06 1019.95 C 1739.72 1020.67 1717.15 1020.03 1709.55 1020.03 L 1627.01 1019.95 L 1627.07 677.481 C 1627.06 607.535 1623.97 602.846 1555.68 602.967 L 1253.98 603.019 C 1218.16 603.018 1180.61 603.698 1144.99 603.019 L 1144.99 477.566 L 414.293 477.542 C 395.547 477.537 323.741 475.806 309.853 480.652 C 306.813 483.864 305.265 485.384 302.822 489.004 z" fill="rgb(33,32,33)" transform="translate(0,0)"></path>
<path d="M 302.822 1023.16 L 419.389 1023.16 L 419.292 1376.45 C 419.142 1447.12 423.986 1443.12 499.13 1443.05 L 903.018 1442.99 L 903.018 1571 C 864.081 1572.15 823.326 1571.02 784.17 1571.01 L 394.031 1571.06 C 298.472 1571.09 302.748 1589.86 302.794 1490.43 L 302.822 1023.16 z" fill="rgb(227,56,59)" transform="translate(0,0)"></path>
<path d="M 1144.99 477.566 L 1657.84 477.546 C 1674.74 477.536 1730.8 473.024 1742.6 483.959 C 1748.07 498.008 1746.07 610.6 1746.07 631.737 L 1746.05 890.926 C 1746.04 931.176 1744.69 980.214 1746.06 1019.95 C 1739.72 1020.67 1717.15 1020.03 1709.55 1020.03 L 1627.01 1019.95 L 1627.07 677.481 C 1627.06 607.535 1623.97 602.846 1555.68 602.967 L 1253.98 603.019 C 1218.16 603.018 1180.61 603.698 1144.99 603.019 L 1144.99 477.566 z" fill="rgb(227,56,59)" transform="translate(0,0)"></path>
<metadata><recraft-signature>{"signed_by": "recraft", "signature_b64": "KVlAePlpZVcgY6+F+jHQKDm0S1GSQx7jLHheiqOi2WsMV8qKW4VbFjMqDeNvqp4LNRIEG/59FW8gY7OlNzmrBQ==", "signing_algo": "Ed25519", "generation_timestamp": 1773000279, "identifier": "13f370e7-294a-47c3-a826-70ceaed09e2d"}</recraft-signature></metadata></svg>