<svg xmlns="http://www.w3.org/2000/svg" height="512" preserveAspectRatio="none" style="display: block;" version="1.1" viewBox="0 0 2048 2048" width="512">
<path d="M 455.501 629.985 L 1768.71 629.968 C 1831.72 630.003 1877.41 634.935 1877.86 710.684 L 1877.87 1285.29 C 1877.9 1406.58 1862.81 1415.9 1742.19 1415.94 L 1594.55 1415.98 L 286.858 1416.04 C 171.753 1416.41 170.285 1383.52 170.311 1287.04 L 170.395 729.831 C 170.821 629.202 215.397 629.978 304.414 629.959 L 455.501 629.985 z M 444.5 1368 L 1760.36 1368.06 C 1780.41 1368.13 1829.66 1374.71 1830.68 1342.89 C 1831.52 1316.55 1831.08 1289.94 1831.05 1263.56 L 1830.98 849.376 C 1830.99 816.273 1836.13 715.911 1827.51 689.006 C 1808.11 670.737 1775.34 678.094 1750.25 678.09 L 1606.99 677.978 L 297.431 677.978 C 204.245 677.987 217.922 680.083 217.952 764.414 L 217.953 1324.05 C 218.049 1382.49 261.614 1368.06 308.162 1368.05 L 444.5 1368 z" fill="rgb(0,0,0)" transform="translate(0,0)"></path>
<path d="M 1019.31 911.328 C 1112.92 892.777 1127.89 1116.87 1032.43 1130.97 C 940.227 1136.4 940.031 983.125 975.376 934.025 C 987.521 917.153 1000.52 914.413 1019.31 911.328 z M 1032.43 1086.02 C 1062.54 1081.85 1072.37 951.269 1019.31 953.001 C 980.758 968.792 981.806 1098.98 1032.43 1086.02 z" fill="rgb(0,0,0)" transform="translate(0,0)"></path>
<path d="M 580.686 914.996 L 619.41 914.856 C 643.35 914.806 659.701 913.371 679.872 928.743 C 727.387 964.953 724.495 1059.84 690.59 1103 L 687.226 1106.41 C 666.08 1127.47 646.502 1128.04 618.389 1128.04 L 580.686 1127.95 C 579.553 1109.35 580.649 1077.08 580.656 1057.26 L 580.686 914.996 z M 617.933 1086.02 C 637.976 1087.43 648.499 1087.43 663.467 1072.4 C 681.491 1045.68 685.35 984.064 656.749 961.493 C 648.318 954.84 629.042 955.35 617.933 955.127 L 617.933 1086.02 z" fill="rgb(236,7,5)" transform="translate(0,0)"></path>
<path d="M 287.4 914.996 C 311.643 915.004 342.906 913.284 366.223 916.006 C 422.487 922.575 435.335 1005.98 382.96 1042 C 395.435 1063 419.279 1107.16 428.693 1127.95 C 418.379 1127.82 385.958 1131.37 382.96 1122.23 C 367.643 1100.4 354.75 1063.61 339.944 1048.99 L 325.045 1048.99 L 325.045 1127.95 C 312.383 1127.7 300.061 1127.81 287.4 1127.95 C 286.997 1057.77 286.698 985.185 287.4 914.996 z M 325.045 1011.25 C 340.446 1010.98 360.512 1013.62 371.749 1004.6 C 402.462 960.937 355.03 954.667 325.045 955.127 L 325.045 1011.25 z" fill="rgb(236,7,5)" transform="translate(0,0)"></path>
<path d="M 1481.01 914.996 L 1518.97 914.996 C 1536.42 956.956 1556.54 1000.24 1575.01 1042 L 1575.01 914.996 L 1613.26 914.996 C 1612.97 984.573 1614.61 1057.26 1613.11 1126.47 C 1611.28 1128.45 1610.69 1127.75 1606.99 1127.95 C 1598.45 1128.44 1589.8 1128.12 1581.24 1127.95 C 1563.49 1103.74 1531.59 1025.1 1518.97 996.205 C 1518.25 1036.94 1516.25 1087.52 1518.97 1127.95 C 1506.19 1129.28 1493.77 1128.59 1481.01 1127.95 L 1481.01 914.996 z" fill="rgb(0,0,0)" transform="translate(0,0)"></path>
<path d="M 1120.43 914.996 L 1155.99 914.996 C 1173.74 955.73 1193.6 997.273 1211.96 1038.08 C 1212.98 998.551 1211.99 954.827 1211.96 914.996 C 1223.97 914.533 1236.91 914.889 1249 914.996 L 1248.96 1069.72 C 1248.96 1077.39 1249.65 1122.67 1248.29 1126.95 L 1246.07 1127.95 L 1211.96 1127.95 C 1206.01 1109.25 1199 1096.18 1190.85 1078.62 L 1155.99 1004.6 C 1155.36 1018.2 1155.91 1033.13 1155.93 1046.91 L 1155.99 1127.95 C 1144.06 1128.72 1132.37 1128.22 1120.43 1127.95 L 1120.43 914.996 z" fill="rgb(0,0,0)" transform="translate(0,0)"></path>
<path d="M 1699.83 911.328 C 1749.75 904.641 1769.03 943.606 1771.6 986.831 C 1760.27 987.283 1746.09 986.856 1734.53 986.831 C 1732.01 970.102 1730.06 956.349 1710.27 953.061 C 1667.88 946.02 1679.57 1021.98 1678.89 1048.99 C 1678.02 1101.1 1728.17 1113.98 1734.53 1048.99 L 1705.42 1048.99 C 1705.28 1036.4 1705.36 1023.84 1705.42 1011.25 L 1714.25 1011.25 L 1771.6 1011.25 C 1772.21 1056.63 1778.51 1119.68 1721.14 1129.53 C 1646.11 1142.43 1638.5 1082.88 1640.49 1027.34 C 1642.39 974.448 1632.68 922.257 1699.83 911.328 z" fill="rgb(0,0,0)" transform="translate(0,0)"></path>
<path d="M 1329.95 911.328 C 1373.37 914.249 1390.56 933.8 1391.26 976.51 C 1381.58 976.995 1367.44 976.548 1357.43 976.51 C 1353.15 961.727 1350.69 954.329 1334.25 953.001 C 1328.42 953.327 1319.9 953.31 1316.39 958.198 C 1280.17 1006.8 1399.67 984.052 1393.94 1070.98 C 1391.47 1108.45 1372.19 1128.74 1334.25 1130.97 C 1296.1 1128.11 1274.62 1110.89 1271.11 1071.56 C 1270.05 1059.77 1297.54 1064.83 1307.32 1064.95 C 1315.43 1094.28 1348.12 1103.21 1357.43 1070.22 C 1348.72 1030.13 1280.47 1047.33 1272.87 988.762 C 1267.2 944.989 1286.11 917.035 1329.95 911.328 z" fill="rgb(0,0,0)" transform="translate(0,0)"></path>
<path d="M 447.165 914.996 L 554.993 914.996 C 554.724 928.757 554.639 941.377 554.993 955.127 L 484.355 955.127 L 484.355 1001.99 L 544.128 1001.99 L 544.128 1042 L 484.355 1042 L 484.355 1070.22 L 484.355 1086.02 L 554.993 1086.02 L 554.993 1127.95 L 487.997 1127.91 C 474.733 1127.84 460.188 1127.03 447.165 1127.95 L 447.165 914.996 z" fill="rgb(236,7,5)" transform="translate(0,0)"></path>
<path d="M 799.465 914.996 L 838.114 914.996 C 852.805 961.355 857.781 1016.4 873.146 1060.77 C 877.251 1016.21 894.408 960.714 902.488 914.996 L 944.113 914.996 C 941.872 928.35 934.101 955.239 930.339 969.218 C 924.872 993.571 899.861 1108.22 890.072 1126.46 C 886.325 1129.58 859.435 1128.01 852.014 1127.95 C 835.727 1057.45 816.266 985.648 799.465 914.996 z" fill="rgb(0,0,0)" transform="translate(0,0)"></path>
<path d="M 1414.08 914.996 L 1452.89 914.996 L 1452.89 1127.95 C 1442.77 1128.71 1424.79 1128.04 1414.08 1127.95 L 1414.08 914.996 z" fill="rgb(0,0,0)" transform="translate(0,0)"></path>
<path d="M 743.059 914.996 L 781 914.996 L 781 1127.95 L 743.059 1127.95 L 743.059 914.996 z" fill="rgb(0,0,0)" transform="translate(0,0)"></path>
<metadata><recraft-signature>{"signed_by": "recraft", "signature_b64": "hxcCco/h/dQQtYJ6g9z/OCvQ/KwZOX0AJbxpRSJ+EHMFJe4yYAZP49zJaCHNAGG+LxM/VY/gwfDe60QrsZf4AA==", "signing_algo": "Ed25519", "generation_timestamp": 1772998325, "identifier": "fffa8a57-fb8a-422e-8fe3-6cd74cbd4d9d"}</recraft-signature></metadata></svg>