<svg xmlns="http://www.w3.org/2000/svg" height="512" preserveAspectRatio="none" style="display: block;" version="1.1" viewBox="0 0 2048 2048" width="512">
<path d="M 1397.4 384.537 L 1617.54 384.441 C 1657.53 384.438 1689.6 393.897 1689.75 441.661 L 1689.76 1559.01 C 1689.75 1652.27 1688.81 1662.62 1585.75 1662.2 L 1407.14 1662.09 C 1384.81 1662.04 1360.36 1663.33 1338.03 1661.71 C 1282.7 1657.69 1294.04 1581.58 1294.04 1544.22 L 1293.97 478.437 C 1293.94 413.751 1290.82 384.573 1364.91 384.506 L 1397.4 384.537 z M 1393.49 485.341 C 1392.43 523.305 1393.49 566.209 1393.49 604.618 L 1393.49 1562 L 1516.5 1562 L 1589.02 1562 C 1588.02 1524.16 1589.02 1481.79 1589.03 1443.54 L 1589.02 485.341 L 1459.99 485.341 L 1393.49 485.341 z" fill="rgb(0,0,0)" transform="translate(0,0)"></path>
<path d="M 401.77 384.537 C 433.282 377.687 460.938 416.266 480.491 436.01 L 978.758 932.148 C 1039.45 992.675 1083.38 1009.32 1007.63 1086.35 L 717.5 1378.19 C 659.326 1437.39 599.066 1495.66 540.164 1554.22 C 507.879 1586.32 477.521 1620.83 443.386 1651.02 C 412.792 1678.09 364.655 1658.56 360.48 1618.05 C 359.167 1605.31 359.991 1590 359.993 1576.66 L 360.06 470.369 C 360.21 432.745 349.459 390.794 401.77 384.537 z M 459.49 1495.89 C 478.935 1477.21 498.008 1457.04 517.281 1437.97 L 695.196 1261.18 C 764.413 1193.64 831.351 1123.36 900.958 1056.16 C 910.864 1046.59 921.822 1035.18 930.881 1024.85 C 915.646 1006.91 899.461 991.198 882.8 974.659 L 482.319 575.662 C 479.251 572.587 461.846 554.171 459.49 552.596 C 458.863 571.567 459.46 592.68 459.475 611.842 L 459.439 1449.37 C 459.418 1463.1 458.791 1482.46 459.49 1495.89 z" fill="rgb(0,0,0)" transform="translate(0,0)"></path>
<metadata><recraft-signature>{"signed_by": "recraft", "signature_b64": "JFz3RSkDgIUN13zQPxwXKBZ98Ky53OhImjJ3XrGaetcvxi3R7j9h9Xd7j3f5FZM1+E5S8Ev5dNJ3Ff5gUGY8Bg==", "signing_algo": "Ed25519", "generation_timestamp": 1772998307, "identifier": "31f20dda-41f2-483e-ae91-0a098c227fb0"}</recraft-signature></metadata></svg>