<svg xmlns="http://www.w3.org/2000/svg" height="512" preserveAspectRatio="none" style="display: block;" version="1.1" viewBox="0 0 2048 2048" width="512">
<path d="M 478.967 323.689 C 484.623 324.913 540.78 382.274 548.321 389.676 L 682.029 520.338 C 886.552 322.129 1210.04 291.768 1457.14 425.519 C 1868.81 648.349 1938.12 1200.79 1596.16 1515.58 C 1328.8 1765.19 920.964 1750.77 658.478 1502.5 C 640.051 1485.07 622.35 1465.28 604.999 1446.53 C 605.799 1455.9 605.084 1474.38 605.069 1484.55 L 604.999 1564.08 C 567.253 1566.02 524.781 1562.89 486.197 1564.08 C 484.906 1532.54 486.169 1491.4 486.176 1458.83 L 486.197 1241.15 C 563.417 1240.09 643.087 1241.14 720.5 1241.15 L 866.999 1241.15 L 866.999 1358.08 C 807.069 1358.87 746.335 1357.63 686.262 1358.08 C 694.508 1371.73 707.264 1384.46 718.231 1396.04 C 934.413 1624.17 1291.35 1643.61 1521.26 1424.99 C 1748.67 1208.73 1758.23 860.846 1540.97 633.635 C 1337.77 421.126 980.794 397.941 765.417 604.041 C 810.817 650.938 858.206 696.495 904.422 742.742 C 879.343 772.145 848.718 797.882 821.761 825.644 C 817.534 820.583 811.794 814.745 807.117 810.031 L 398.133 403.643 C 423.024 378.334 452.676 347.172 478.967 323.689 z" fill="rgb(1,1,1)" transform="translate(0,0)"></path>
<path d="M 238.795 957.433 L 1063.27 957.427 C 1096.45 957.428 1132.21 958.116 1165.17 957.433 L 1165.29 1038.97 C 1165.31 1044.57 1165.76 1070.84 1164.85 1074.47 L 1162.25 1075 L 232.08 1075 L 231.982 1002.01 C 231.936 987.979 225.953 958.98 238.795 957.433 z" fill="rgb(1,1,1)" transform="translate(0,0)"></path>
<metadata><recraft-signature>{"signed_by": "recraft", "signature_b64": "agEpAXVXPqIExrAXATMN+gvchsiX4Kt9c46knrvg3lV7hnK5d40vtnV5l72DyxKQnf7Ch+6XvmdPKw6m1bnODQ==", "signing_algo": "Ed25519", "generation_timestamp": 1772998980, "identifier": "9be7928c-8d45-4c91-a446-882da475bf2b"}</recraft-signature></metadata></svg>