<svg xmlns="http://www.w3.org/2000/svg" height="512" preserveAspectRatio="none" style="display: block;" version="1.1" viewBox="0 0 2048 2048" width="512">
<path d="M 401.385 406.512 L 1614.62 406.508 C 1636.52 406.468 1659.51 404.518 1680.44 411.379 C 1761.34 437.898 1751 517.765 1751 584.595 L 1751.04 1493.64 C 1751.13 1567.51 1736.48 1635.99 1643.25 1640.54 L 442.534 1640.56 C 426.76 1640.56 407.112 1641.27 391.688 1639.05 C 344.616 1632.29 300.292 1584.15 299.093 1536.38 C 298.364 1507.37 298.566 1478.52 298.579 1449.71 L 298.582 540.422 C 298.591 525.167 298.187 509.175 299.505 494.113 C 304.231 440.105 350.714 407.766 401.385 406.512 z M 430.88 1508.66 L 789.212 1508.66 C 795.62 1507.49 817.756 1508.57 825.556 1508.59 L 1144.26 1508.68 C 1181.61 1508.67 1220.39 1508.06 1257.62 1508.66 C 1257.59 1471.76 1258.18 1433.97 1257.62 1397.19 L 1257.56 1311.62 C 1257.55 1299.34 1256.91 1281.25 1257.62 1269.48 L 1618.53 1269.48 L 1618.53 535.846 L 471.811 535.797 C 460.366 535.782 441.644 535.069 430.88 535.846 C 429.794 553.392 430.785 572.712 430.855 590.499 L 430.833 1450.14 C 430.799 1468.59 429.956 1490.73 430.88 1508.66 z" fill="rgb(0,0,0)" transform="translate(0,0)"></path>
<path d="M 1257.62 1397.19 L 1618.53 1397.19 L 1618.53 1508.66 L 817.289 1508.71 C 810.441 1508.73 795.625 1509.2 789.212 1508.66 C 795.62 1507.49 817.756 1508.57 825.556 1508.59 L 1144.26 1508.68 C 1181.61 1508.67 1220.39 1508.06 1257.62 1508.66 C 1257.59 1471.76 1258.18 1433.97 1257.62 1397.19 z" fill="rgb(36,134,249)" transform="translate(0,0)"></path>
<metadata><recraft-signature>{"signed_by": "recraft", "signature_b64": "KCy3Kyc3sBKYbVQZOBC2Y2ACqK5g2TstY+MSNY5QZAKyjaIdcmzrGc1IWRdqzSHPrlutM/PtSBDRqvkvY07AAQ==", "signing_algo": "Ed25519", "generation_timestamp": 1772998120, "identifier": "a9c36ac0-4819-4171-9a96-311707141389"}</recraft-signature></metadata></svg>