<svg xmlns="http://www.w3.org/2000/svg" height="512" preserveAspectRatio="none" style="display: block;" version="1.1" viewBox="0 0 2048 2048" width="512">
<path d="M 746.846 302.009 C 750.558 302.667 769.587 302.184 774.769 302.145 L 1672.93 302.018 C 1694.71 302.024 1726.14 303.152 1747 302.009 C 1746.45 320.245 1746.98 341.431 1746.98 359.929 L 1747 825 L 746.846 825 L 746.815 341.575 C 746.768 334.587 745.592 306.449 746.846 302.009 z" fill="rgb(0,0,0)" transform="translate(0,0)"></path>
<path d="M 746.846 1221 L 1747 1221 L 1747 1743.01 L 746.846 1743.01 L 746.847 1279 C 746.842 1260.04 746.22 1239.73 746.846 1221 z" fill="rgb(0,0,0)" transform="translate(0,0)"></path>
<path d="M 302 302.009 C 310.739 302.662 327.179 302.09 336.364 302.064 L 610.993 302.009 L 610.993 969.51 L 1747 969.51 L 1747 1078 L 678.5 1078 C 656.051 1077.94 633.426 1077.72 610.993 1078 L 610.981 1667.92 C 610.974 1692.57 610.429 1718.5 610.993 1743.01 L 302 1743.01 C 300.851 1686.35 301.986 1625.78 301.989 1568.79 L 302 1221 L 504.51 1221 C 505.368 1174.32 504.516 1124.94 504.51 1078 L 302 1078 C 299.7 1046.92 300.564 1000.16 302 969.51 L 504.51 969.51 C 505.331 956.943 504.568 935.859 504.557 922.599 L 504.51 825 L 302 825 L 301.996 358.43 C 301.983 341.024 301.001 318.678 302 302.009 z" fill="rgb(0,0,0)" transform="translate(0,0)"></path>
<metadata><recraft-signature>{"signed_by": "recraft", "signature_b64": "1gLLx7vhpbRJE+1Y0fHsRouMoM1+tdMrMz1OB+A9E7r/5MqRUWtmCMYayi9TG3f7xZev/djq0ZX5WRXyZ5PWBw==", "signing_algo": "Ed25519", "generation_timestamp": 1772997235, "identifier": "3d581822-bf72-43f5-8579-2e51a69291f0"}</recraft-signature></metadata></svg>