<svg xmlns="http://www.w3.org/2000/svg" height="512" preserveAspectRatio="none" style="display: block;" version="1.1" viewBox="0 0 2048 2048" width="512">
<path d="M 382.999 507.001 L 861.691 506.952 C 885.544 506.943 913.195 505.686 936.368 509.961 C 1005.15 522.65 1026.38 580.275 1026.6 641.165 L 1026.63 1369.79 C 1026.69 1421.9 1034.41 1466.44 992.929 1506.48 C 965.194 1533.25 939.157 1537.23 902.5 1537.01 L 403.498 1537.1 C 269.701 1537.5 251.988 1498.27 252.093 1368.77 L 252.075 646.216 C 252.181 553.859 288.846 510.756 382.999 507.001 z M 382.999 1407 C 400.185 1407.78 421.316 1407.03 438.977 1407.02 L 887.5 1407 C 903.325 1407.23 897.299 1391.96 897.273 1375.26 L 897.246 693.459 C 897.262 676.703 898.131 655.332 897.214 639.233 L 393.373 639.233 C 373.171 641.417 382.947 713.899 382.952 735.879 L 382.999 1407 z" fill="rgb(0,0,0)" transform="translate(0,0)"></path>
<path d="M 1721.78 591.254 C 1796.03 586.138 1796.03 651.359 1796.02 701.19 L 1795.99 1308.61 C 1796 1334.93 1796.14 1361.23 1796.46 1387.55 C 1797.18 1447.55 1728.26 1480.88 1686.73 1433.52 C 1650.95 1392.28 1606.93 1323.08 1573.74 1276.49 L 1327.88 930.808 C 1311.57 908.354 1296.83 886.397 1279.99 863.904 C 1279.32 906.896 1279.96 951.933 1279.97 995.076 L 1280.02 1332.58 C 1280.09 1395.44 1293.15 1421.39 1228.74 1454.99 C 1189.38 1456.25 1149.47 1431.39 1149.41 1388.66 L 1149.92 684.955 C 1149.92 672.558 1149.23 658.78 1151.32 646.683 C 1160.27 594.782 1228.59 572.624 1263.58 613.612 C 1279.62 632.396 1295.4 657.342 1309.98 677.926 L 1601.21 1087.99 C 1622.21 1117.95 1643.79 1147.17 1664.04 1177.74 L 1664.03 710.568 C 1664.03 658.554 1655.48 604.84 1721.78 591.254 z" fill="rgb(0,0,0)" transform="translate(0,0)"></path>
<metadata><recraft-signature>{"signed_by": "recraft", "signature_b64": "dPpvJuejjEh68Vz5IYrqQjalMuHfG+DAnqEX8gJ7Hi3l+nc8NtM29B5if8dnJDZUbxItDD2mWez+gw9vIOqfCQ==", "signing_algo": "Ed25519", "generation_timestamp": 1772989263, "identifier": "097c8e35-64e3-470e-a21c-2f04d2bcaced"}</recraft-signature></metadata></svg>