<svg xmlns="http://www.w3.org/2000/svg" height="512" preserveAspectRatio="none" style="display: block;" version="1.1" viewBox="0 0 2048 2048" width="512">
<path d="M 928.82 391.51 C 934.855 390.51 948.365 391.288 954.743 391.328 L 1071.67 391.41 C 1091.04 391.297 1113.32 389.952 1132.12 393.904 C 1221.95 412.781 1243.11 477.109 1243.05 555.579 L 1243.05 1452.54 C 1243.05 1542.97 1237.48 1638.71 1119.74 1654.01 C 1104.32 1655.32 1065.78 1654 1048.79 1654 L 979.148 1654.06 C 959.215 1654.07 935.441 1655.21 916.184 1650.71 C 820.232 1628.3 804.871 1550.19 804.994 1468.88 L 805.048 567.069 C 805.072 475.483 822.54 404.355 928.82 391.51 z M 1095.8 1538.07 C 1123.63 1539.58 1127 1525.38 1127.35 1501.55 C 1128.43 1428.22 1128.03 1354.85 1128.03 1281.51 L 1128.06 568.878 C 1128.1 530.296 1137.76 504.776 1090.65 504.391 L 950.498 504.49 C 907.997 506.823 920.957 557.252 920.961 591.746 L 920.998 1463.87 C 920.819 1546.69 913.046 1535.56 998.062 1538.07 C 1029.29 1537.13 1065.21 1539.5 1095.8 1538.07 z" fill="rgb(0,0,0)" transform="translate(0,0)"></path>
<path d="M 370.5 391.51 L 491.278 391.46 C 571.741 391.466 657.923 395.031 681.151 495.018 C 684.846 510.924 684.032 537.908 684.03 555.164 L 683.99 1450.81 C 683.999 1475.12 684.876 1501.2 684.168 1525.15 C 681.978 1599.2 623.593 1639.66 558.226 1654.01 C 541.781 1652.85 521.191 1653.74 504.394 1653.89 L 423.026 1654.09 C 339.522 1654.04 262.418 1628.52 248.854 1531.01 C 246.1 1511.2 246.993 1489.53 247.005 1469.41 L 247.01 570.644 C 247.02 480.595 262.33 405.798 370.5 391.51 z M 519.25 1538.07 C 545.489 1539.54 570.284 1542.21 570.217 1506.32 L 570.148 572.061 C 570.28 501.283 573.021 504.039 494.801 504.422 L 411.998 504.49 C 345.861 504.163 360.302 531.083 360.294 588.095 L 360.271 1441.15 C 360.254 1462.57 360.06 1484.04 360.472 1505.44 C 361.262 1546.55 397.548 1538.15 428.476 1538.13 L 519.25 1538.07 z" fill="rgb(0,0,0)" transform="translate(0,0)"></path>
<path d="M 1499 391.51 L 1610.26 391.459 C 1680.39 391.445 1732.02 388.714 1777.49 453.468 C 1805.71 493.652 1801.68 535.473 1801.65 581.845 L 1801.67 780.169 C 1801.69 874.53 1782.31 953.78 1665.75 962.996 L 1550.38 963.05 C 1527.35 963.051 1498.75 964.547 1476.68 960.422 C 1366.98 939.921 1364.42 850.366 1364.5 765.137 L 1364.48 565.447 C 1364.47 473.26 1385.5 397.198 1499 391.51 z M 1474.98 523.768 C 1474.45 558.132 1474.98 593.731 1474.98 628.199 L 1474.98 833.705 C 1492.45 858.57 1511.7 852.939 1538.88 852.944 L 1612.95 852.939 C 1621.9 852.939 1659.17 853.808 1665.75 852.905 C 1687.1 841.659 1687.88 826.834 1687.83 804.992 C 1687.62 715.623 1688.57 626.242 1687.32 536.881 C 1687.14 523.93 1686.61 509.845 1670.92 506.511 C 1613.95 501.752 1553.7 506.067 1496.76 504.49 C 1485.7 508.158 1480.5 513.594 1474.98 523.768 z" fill="rgb(0,0,0)" transform="translate(0,0)"></path>
<path d="M 1496.76 1083 C 1501.23 1082.54 1513.43 1082.89 1518.59 1082.9 L 1626.31 1082.96 C 1647.5 1082.92 1669.64 1082.28 1689.54 1086.26 C 1777.65 1103.9 1801.84 1173.88 1801.71 1252.24 L 1801.63 1458.13 C 1801.66 1553.56 1793.36 1641.21 1670.25 1654.01 L 1551.67 1654.06 C 1407.7 1653.99 1364.42 1619.83 1364.48 1476.33 L 1364.5 1269.36 C 1364.43 1246.55 1363.19 1220.06 1366.62 1197.86 C 1377.28 1128.84 1432.42 1091.62 1496.76 1083 z M 1653.66 1538.07 C 1697.25 1534.17 1687.92 1492.29 1687.9 1460.31 L 1687.87 1279.34 C 1687.79 1196.23 1696.32 1194.95 1605.08 1194.98 L 1509.27 1195.04 C 1464.42 1199.74 1474.93 1239.94 1474.96 1274.49 L 1474.75 1494.87 C 1475 1551.69 1498.34 1538.17 1548.86 1538.15 L 1653.66 1538.07 z" fill="rgb(0,0,0)" transform="translate(0,0)"></path>
<metadata><recraft-signature>{"signed_by": "recraft", "signature_b64": "9yTcwmup3Qp8+u0ca0h2MtlWgLnf93c3oUI671Zpmc+iIENWKgqD4WwDtXZeQGGM+FIFlb386uFY66oIRYE6Dw==", "signing_algo": "Ed25519", "generation_timestamp": 1772990034, "identifier": "300af34c-2185-4b41-aa3e-e5e67e580254"}</recraft-signature></metadata></svg>