<svg xmlns="http://www.w3.org/2000/svg" height="512" preserveAspectRatio="none" style="display: block;" version="1.1" viewBox="0 0 2048 2048" width="512">
<path d="M 274.626 557.361 C 300.542 556.216 336.336 557.352 363.153 557.354 L 1698.32 557.352 C 1768.65 557.302 1858.9 551.579 1880.1 643.979 C 1885.27 666.503 1884.5 696.81 1884.53 720.617 L 1884.53 1257.81 C 1884.73 1360.55 1899.62 1442 1780.25 1472.08 C 1743.31 1470.65 1697 1472.08 1659.17 1472.08 L 327.869 1472.16 C 198.652 1473.39 164.773 1434.4 165.024 1306.92 L 165.021 693.105 C 165.125 621.982 193.565 562.688 274.626 557.361 z M 1772.98 1407.49 C 1831.98 1393.92 1823.13 1345.78 1823.04 1298.85 L 1823.04 756.816 C 1823.07 715.163 1834.73 650.654 1791.8 628.211 C 1765.39 614.065 1671.26 619.959 1638.95 619.968 L 329.492 619.95 C 317.428 619.926 285.177 619.014 274.626 619.969 C 221.11 627.763 226.852 679.118 226.97 720.29 L 226.938 1332.47 C 226.971 1415.75 269.191 1407.57 341.471 1407.53 L 1772.98 1407.49 z" fill="rgb(0,0,0)" transform="translate(0,0)"></path>
<path d="M 337.314 873.001 C 368.712 872.952 423.346 868.886 450.396 884.1 C 509.908 917.572 499.995 1013.42 433.377 1033.01 C 446.167 1062.32 489.986 1109.87 497.266 1134.87 C 491.517 1154.33 483.786 1158.81 463.91 1153.09 C 454.966 1146.95 447.601 1133.83 440.868 1124.45 C 421.827 1095.48 398.984 1065.45 381.06 1037.23 C 372.396 1037.46 363.67 1037.31 354.999 1037.23 L 355.103 1101.28 C 355.116 1112.93 355.263 1123.68 354.543 1135.74 C 352.896 1163.33 311.896 1161.67 311.221 1131.74 C 310.822 1114.03 310.973 1096.15 310.971 1078.36 L 310.957 919.742 C 310.963 899.75 307.483 888.874 321.786 873.001 L 337.314 873.001 z M 354.999 997.021 C 378.696 997.161 414.534 1000.99 433.377 986.603 C 452.902 957.524 448.814 920.07 408.448 914.455 C 392.168 912.191 371.75 913.38 354.999 913.38 L 354.999 997.021 z" fill="rgb(0,0,0)" transform="translate(0,0)"></path>
<path d="M 1339.61 873.001 C 1355.33 872.121 1379.17 874.453 1394.18 872.911 C 1495.86 862.465 1540.13 984.507 1437.47 1029.96 L 1476.04 1086.53 C 1486.12 1101.28 1529.64 1151.88 1477.94 1155.61 C 1467.24 1156.38 1454.44 1133.41 1447.97 1124.45 C 1435.85 1103.74 1402.39 1047.47 1388.15 1033.01 L 1365.49 1033.01 C 1364.81 1055.6 1368.49 1125.17 1364.06 1142.16 C 1359.3 1160.43 1329.31 1159.58 1322.93 1143.2 C 1319.4 1134.13 1319.7 915.077 1320.96 892.572 C 1321.59 881.219 1329.48 876.326 1339.61 873.001 z M 1437.47 982.614 C 1453.81 965.235 1455.04 941.72 1437.17 924.954 C 1419.91 908.757 1387.88 912.874 1365.49 913.38 L 1365.49 992.465 C 1390.42 992.603 1417.75 996.708 1437.47 982.614 z" fill="rgb(0,0,0)" transform="translate(0,0)"></path>
<path d="M 739.358 873.001 C 766.066 871.622 795.246 873.613 822.194 872.86 C 901.239 870.651 931.203 977.984 874.301 1027.03 C 846.68 1051.11 816.761 1049.23 782.75 1046.92 C 779.996 1046.7 774.16 1046.91 771.166 1046.92 C 770.414 1067.82 771.601 1088.73 771.283 1111.05 C 772.95 1176.13 727.691 1162.58 727.517 1130 C 727.106 1053.26 728.281 976.469 726.999 899.733 C 726.761 885.518 725.984 879.508 739.358 873.001 z M 771.166 1005.75 C 797.97 1005.91 827.271 1010.41 847.243 992.465 C 865.003 974.895 865.91 945.562 849.536 927.25 C 832.579 908.285 794.432 914.269 771.166 913.38 L 771.166 1005.75 z" fill="rgb(0,0,0)" transform="translate(0,0)"></path>
<path d="M 1635.79 869.078 C 1659.54 872.866 1661.06 889.786 1668.42 909.559 L 1732.1 1076.66 C 1739.05 1095.21 1748.4 1116.08 1753.42 1134.87 C 1746.51 1159.03 1721.19 1162.35 1712.36 1144.85 C 1703.43 1127.15 1696.84 1106.43 1689.14 1088 L 1635.79 1088 L 1582.86 1088 C 1576.53 1105.18 1567.07 1144.88 1550 1153.09 C 1540.89 1155.41 1539.28 1155.58 1530.26 1153.09 C 1506.05 1137.04 1532.85 1094.46 1541.83 1071.33 L 1587.16 955.997 C 1598.51 927.011 1606.37 876.448 1635.79 869.078 z M 1598.85 1046.92 L 1635.79 1046.92 L 1674.04 1046.92 C 1669.96 1036.07 1639.26 954.24 1635.79 950.688 C 1622.12 981.707 1609.73 1014.87 1598.85 1046.92 z" fill="rgb(0,0,0)" transform="translate(0,0)"></path>
<path d="M 540.827 873.001 L 634.391 872.962 C 651.006 872.893 668.319 872.271 684.848 872.961 C 704.115 873.796 704.194 900.635 693.818 910.36 C 687.51 916.271 657.926 913.482 648.864 913.446 L 570.51 913.38 C 569.264 932.947 570.584 965.713 570.51 986.603 C 589.726 987.653 672.055 982.741 681.688 991.35 C 689.561 998.387 688.878 1019.04 681.253 1025.87 C 672.39 1033.81 647.344 1030.07 636.394 1030.07 L 570.51 1029.96 C 570.575 1035.57 570.515 1041.3 570.51 1046.92 L 570.51 1110.51 L 646.054 1110.46 C 659.264 1110.45 672.167 1110.38 685.606 1110.82 C 702.782 1110.55 703.347 1140.18 695 1149.25 C 687.945 1156.91 556.539 1153.11 542.173 1152.56 C 521.155 1151.75 525.974 1116.99 526.064 1102.46 L 526.147 885.526 C 530.929 877.419 532.104 875.945 540.827 873.001 z" fill="rgb(0,0,0)" transform="translate(0,0)"></path>
<path d="M 945.98 873.001 L 1061.33 872.895 C 1076.24 872.995 1097.73 870.205 1094.61 892.405 C 1092.3 919.553 1065.51 913.317 1045.84 913.435 C 1022.41 913.576 998.934 912.957 975.49 913.38 C 976.135 936.493 975.411 963.069 975.49 986.603 C 1004.87 986.953 1123.6 969.389 1077.66 1029.96 C 1051.08 1029.49 1000.42 1026.92 975.49 1029.96 L 975.49 1062.5 L 975.49 1110.51 C 1004.73 1110.08 1033.18 1110.93 1063.48 1110.34 C 1105.69 1109.51 1121.37 1133.85 1089.85 1153.09 C 1064.13 1153.08 941.014 1163.14 933.278 1142.2 C 929.76 1132.68 930.287 916.434 931.224 893.481 C 931.725 881.208 934.025 876.983 945.98 873.001 z" fill="rgb(0,0,0)" transform="translate(0,0)"></path>
<path d="M 1122.76 873.001 C 1129.14 872.484 1142.22 872.93 1149.1 872.936 L 1202.11 872.963 C 1228.35 872.978 1255.37 872.327 1281.54 873.796 C 1297.83 874.711 1300.65 901.992 1284.55 913.38 C 1264.53 913.306 1243.98 912.993 1224 913.38 L 1224 1095.5 C 1223.98 1124.02 1231.87 1166.14 1186.83 1153.09 C 1183.57 1150.19 1181.28 1146.99 1178.58 1143.57 C 1177.36 1128.77 1178.54 1089.71 1178.55 1073.58 L 1178.58 913.38 C 1164.07 912.978 1137.67 915.222 1124.4 912.564 C 1109.37 909.553 1103.65 882.305 1122.76 873.001 z" fill="rgb(0,0,0)" transform="translate(0,0)"></path>
<metadata><recraft-signature>{"signed_by": "recraft", "signature_b64": "VSgFeQgaCf9Ve4eHMS5hiV/EMgSrMpQ/TRrfarmysDmYseY7TjkfhWOtnYafzSDkR72I5Ushoc0zhAKriNQJCQ==", "signing_algo": "Ed25519", "generation_timestamp": 1772990100, "identifier": "03b967f4-5d05-46ab-8200-da4845b5fef7"}</recraft-signature></metadata></svg>