<svg xmlns="http://www.w3.org/2000/svg" height="512" preserveAspectRatio="none" style="display: block;" version="1.1" viewBox="0 0 2048 2048" width="512">
<path d="M 1422.21 343.911 C 1500.77 421.041 1573.62 497.555 1649.49 577.023 L 1649.49 916.009 C 1691.41 917.99 1726.53 934.358 1758.5 960.922 C 1832.25 1022.2 1826.96 1092.49 1826.98 1178.11 L 1826.97 1442.72 C 1826.98 1469.16 1828.8 1503.8 1823.51 1528.79 C 1806.67 1608.41 1725.68 1668.46 1645.88 1671.32 C 1613.92 1672.46 1582.31 1671.9 1550.83 1671.88 L 451.998 1671.89 C 432.686 1671.89 407.221 1672.83 388.236 1669.92 C 296.812 1655.91 224.301 1574.8 220.84 1482.29 C 219.837 1455.47 220.465 1428.87 220.472 1402.45 L 220.48 1153.27 C 220.468 1128.31 219.435 1096.42 223.786 1072.58 C 239.311 987.534 313.971 920.079 400.966 916.009 L 608.297 916.159 C 613.998 916.196 625.752 916.577 631.026 916.009 L 1514.95 916.009 L 1514.95 723.001 C 1514.95 692.533 1514.07 657.5 1514.95 627.327 L 1432.74 547.272 C 1396.39 512.286 1357.91 475.791 1322.61 439.801 C 1342.26 417.476 1399.28 362.579 1422.21 343.911 z M 1649.49 1537.38 C 1697.71 1523.08 1693.46 1490.93 1693.22 1450.4 L 1693.04 1190.49 C 1693.04 1160.45 1695.16 1118.87 1690.75 1089.59 C 1683.23 1039.68 1593.78 1052.9 1557.7 1052.91 L 454.107 1052.9 C 437.952 1052.89 413.086 1052.05 397.836 1052.95 C 347.323 1067.28 355.952 1115.26 356.023 1156.17 L 356.08 1397.6 C 356.067 1438.25 342.308 1545.67 413.778 1537.44 L 1609.04 1537.43 C 1620.8 1537.46 1638.65 1538.58 1649.49 1537.38 z" fill="rgb(43,43,43)" transform="translate(0,0)"></path>
<path d="M 493.145 1252.73 L 855.65 1252.73 L 855.65 1388.97 C 736.505 1391.26 612.75 1390.29 493.145 1388.97 C 493.69 1343.94 493.078 1297.89 493.145 1252.73 z" fill="rgb(43,43,43)" transform="translate(0,0)"></path>
<path d="M 400.966 352.145 L 534.954 352.145 L 534.954 916.009 C 566.638 915.964 599.433 915.482 631.026 916.009 C 625.752 916.577 613.998 916.196 608.297 916.159 L 400.966 916.009 L 400.966 352.145 z" fill="rgb(77,177,215)" transform="translate(0,0)"></path>
<metadata><recraft-signature>{"signed_by": "recraft", "signature_b64": "kkdlmzBSZ3z56HOx1eNsd7JlFln95aDwTHT7zZqnQwPdHyrs0bwmhcJrDwKJGXKupznXXVX0ORL8483XftTCAw==", "signing_algo": "Ed25519", "generation_timestamp": 1772999407, "identifier": "32f11db9-120c-4904-98bd-c40aaf8800a9"}</recraft-signature></metadata></svg>