<svg xmlns="http://www.w3.org/2000/svg" height="512" preserveAspectRatio="none" style="display: block;" version="1.1" viewBox="0 0 2048 2048" width="512">
<path d="M 918.834 294.603 C 1049.09 285.687 1159.83 394.751 1150.96 524.551 C 1148.04 567.418 1134.49 613.706 1129.05 656.933 C 1200.84 667.411 1297.58 639.544 1369.17 673.042 C 1445.8 708.899 1445.93 771.773 1445.83 840.557 L 1445.78 937.781 C 1445.76 1020.98 1465.42 1063.89 1548.94 1017.52 C 1720.82 922.983 1920.1 1114.22 1827.52 1292.87 C 1774.59 1395.01 1636.62 1436.1 1539.66 1371.36 C 1521.99 1359.55 1507.6 1352.74 1485.48 1360.18 C 1440.66 1375.74 1445.64 1413.89 1445.73 1451.73 L 1445.65 1609.43 C 1445.37 1668.67 1405.13 1723.62 1348.24 1740.86 C 1321.17 1749.06 1292.34 1747.09 1263.97 1747.03 L 1114.86 1747.12 C 1101.9 1747.13 1088.99 1747.77 1075.48 1746.55 C 1018.44 1741.43 992.176 1668.2 1035.22 1629.67 C 1042.3 1623.75 1055.44 1620.61 1061.7 1614.12 C 1108.28 1565.82 1114.63 1503.99 1096.58 1442.46 C 1070.67 1367.35 1001.75 1318.69 922.154 1323.05 C 771.481 1331.31 698.045 1520.15 800.651 1612.71 C 809.125 1620.27 822.572 1623.42 830.802 1631.62 C 856.444 1657.29 856.961 1700.1 832.612 1726.81 C 807.734 1754.1 784.999 1747.13 752.238 1747 L 580.575 1747.05 C 499.923 1747.2 429.473 1732.34 403.514 1639.65 C 396.552 1614.79 397.96 1588.7 397.992 1563.27 L 398.027 1313.33 C 131.721 1296.54 134.91 910.427 401.221 897.893 L 401.331 800.416 C 401.197 733.566 450.399 674.296 515.764 660.889 C 546.225 654.641 578.681 656.962 610.205 656.977 L 738.131 656.933 C 731.621 609.77 719.45 560.613 715.811 513.546 C 707.023 399.877 808.343 300.078 918.834 294.603 z M 539.981 796.993 L 539.981 1118 C 564.317 1119.72 604.858 1118 630.815 1118.01 L 707.452 1118.01 C 762.485 1117.98 805.934 1116.2 848.81 1075.68 C 958.046 966.529 883.789 792.048 733.479 796.952 C 717.364 797.478 700.244 796.96 684.023 796.962 L 549.372 796.993 C 546.279 796.986 543.061 796.935 539.981 796.993 z" fill="rgb(0,0,0)" transform="translate(0,0)"></path>
<metadata><recraft-signature>{"signed_by": "recraft", "signature_b64": "2XL2p9d0L0GRct/JS/Qc3/bMcLCswb1snpRBs70edxzXe/87o/iLigspzHMSQvxp2am995woRMVDq7khuboEAg==", "signing_algo": "Ed25519", "generation_timestamp": 1772990461, "identifier": "af1b54bf-2eaa-426d-9f89-7b3db49231f6"}</recraft-signature></metadata></svg>