<svg xmlns="http://www.w3.org/2000/svg" height="512" preserveAspectRatio="none" style="display: block;" version="1.1" viewBox="0 0 2048 2048" width="512">
<path d="M 1016.15 212.733 C 1221.23 208.652 1390.82 371.505 1395.06 576.574 C 1399.29 781.643 1236.56 951.358 1031.5 955.746 C 826.215 960.139 656.281 797.203 652.042 591.917 C 647.802 386.631 810.865 216.818 1016.15 212.733 z M 1044.51 811.15 C 1171.43 799.979 1265.24 687.988 1253.98 561.075 C 1242.72 434.161 1130.67 340.432 1003.76 351.778 C 876.98 363.112 783.362 475.034 794.609 601.825 C 805.857 728.616 917.715 822.311 1044.51 811.15 z" fill="rgb(25,23,23)" transform="translate(0,0)"></path>
<path d="M 1005.33 1020.07 C 1369.75 1000.49 1689.27 1325.03 1674.56 1690.31 C 1671.89 1756.84 1562.54 1781.71 1535.51 1706.01 C 1528.88 1687.96 1531.42 1667.33 1530.91 1648.42 C 1524.08 1436.47 1386.93 1258.09 1188.23 1189.33 C 910.294 1093.16 609.963 1254.28 530.063 1535.41 C 521.76 1564.63 517.996 1594.32 513.517 1624.36 C 513.015 1638.92 512.714 1662.51 513.517 1676.45 C 518.149 1684.47 521.211 1686.79 528.438 1691.99 C 544.813 1691.28 564.506 1691.97 581.304 1691.98 L 1239.27 1691.99 C 1280.84 1691.99 1323.8 1690.65 1365.05 1693.88 C 1432.74 1699.17 1444.93 1834.12 1348.03 1833.54 L 604.525 1833.35 C 534.979 1833.43 474.17 1840.6 419.407 1786.48 C 383.982 1752.35 371.584 1715.44 370.979 1666.93 C 366.688 1322.92 661.622 1023.62 1005.33 1020.07 z" fill="rgb(25,23,23)" transform="translate(0,0)"></path>
<metadata><recraft-signature>{"signed_by": "recraft", "signature_b64": "0z7/U4idSsQxbqIxHySHvKZX+/rsj13UIs5D4hGTtIXyw/02YTbKMJ2MldLqV8sd9fxw9oVUxWMBlbmyN8T5Bw==", "signing_algo": "Ed25519", "generation_timestamp": 1772998488, "identifier": "280108b9-d116-4062-9b72-724270c5c2b6"}</recraft-signature></metadata></svg>