<svg xmlns="http://www.w3.org/2000/svg" height="512" preserveAspectRatio="none" style="display: block;" version="1.1" viewBox="0 0 2048 2048" width="512">
<path d="M 606.002 289.626 L 1603.3 289.566 C 1676.41 289.553 1747.76 309.285 1767.05 392.464 C 1773.12 418.667 1771.04 448.36 1771.03 475.382 L 1771.03 1263.2 C 1771.01 1343.32 1741.97 1428.5 1646.59 1433.44 C 1619.73 1434.82 1593.2 1436.52 1571.94 1417.19 C 1544.84 1392.56 1542.21 1348.51 1567.46 1321.56 C 1585.71 1302.33 1608.55 1301.84 1633.31 1301 L 1633.31 426.001 C 1589.53 425.118 1542.59 425.992 1498.57 425.993 L 417.997 426.001 C 416.778 439.204 417.851 459.353 417.925 473.415 L 417.997 848.5 L 417.973 1242.46 C 417.974 1258.77 417.598 1275.4 418.988 1291.7 C 420.409 1308.34 489.162 1301.04 504.727 1301.04 L 1179.77 1300.95 C 1272.71 1300.86 1255.49 1289.51 1317.14 1351.53 L 1592.22 1626.81 C 1629.81 1665.19 1646.17 1718.37 1587.19 1748.7 C 1529.31 1780.43 1480.09 1710 1444.59 1674.28 L 1239.44 1469.13 C 1230.37 1459.85 1217.48 1446.05 1207.57 1438 L 480.765 1437.97 C 457.225 1437.98 424.001 1440.08 401.639 1436.65 C 317.78 1423.78 276.695 1352.95 276.083 1274.35 L 276.058 498.3 C 276.029 469.986 274.741 432.013 277.794 404.509 C 288.276 346.574 341.405 298.103 399.555 291.079 C 422.294 288.332 451.609 289.595 474.94 289.592 L 606.002 289.626 z" fill="rgb(0,0,0)" transform="translate(0,0)"></path>
<metadata><recraft-signature>{"signed_by": "recraft", "signature_b64": "L/OmJGonDkTpvGQVSeLcCzl4URuPCVxF8OjbR8unF67CH2Axzt9rjehlcYPucEslA/Asvc+ie8J8tyRUtVXdBA==", "signing_algo": "Ed25519", "generation_timestamp": 1772998168, "identifier": "19647db8-4318-449e-bb80-0eb5e1595e53"}</recraft-signature></metadata></svg>