<svg xmlns="http://www.w3.org/2000/svg" height="512" preserveAspectRatio="none" style="display: block;" version="1.1" viewBox="0 0 2048 2048" width="512">
<path d="M 1779.47 414.881 C 1789.16 414.504 1797.35 414.638 1807 414.881 L 1807 1632.99 C 1789.02 1633.54 1769.19 1633.01 1750.97 1633 L 269.5 1632.99 L 241.02 1632.99 L 241.02 414.881 L 1779.47 414.881 z M 767.256 528.424 L 767.28 818.212 C 767.283 866.373 768.068 916.994 767.256 964.967 L 1394.5 964.967 L 1691 964.967 L 1690.98 576.197 C 1690.97 561.738 1690.25 542.277 1691 528.424 L 1064.31 528.424 L 767.256 528.424 z M 767.256 1081.53 L 767.274 1372.75 C 767.277 1418.43 768.66 1472.1 767.256 1517.29 L 1528.5 1517.29 L 1691 1517.29 L 1691 1081.53 L 932.49 1081.53 C 879.349 1081.51 819.851 1080.15 767.256 1081.53 z M 357.521 1081.53 L 357.521 1517.29 L 556.955 1517.26 C 587.307 1517.25 625.616 1516.06 654.981 1517.29 C 656.212 1513.09 654.974 1435.96 654.974 1427.34 L 654.981 1081.53 L 357.521 1081.53 z M 357.521 528.424 L 357.521 964.967 L 654.981 964.967 C 656.084 961.373 654.978 884.599 654.979 875.173 L 654.981 528.424 C 623.103 527.717 588.639 528.421 556.574 528.426 L 357.521 528.424 z" fill="rgb(1,1,1)" transform="translate(0,0)"></path>
<metadata><recraft-signature>{"signed_by": "recraft", "signature_b64": "P0M8D5NbkS09u28un336BrnLZefpH8bKT5oUJmFy9JDgYbcEQihgPGtWx6oMnzND8yqBNQEYmk1BCFkklr2ZDQ==", "signing_algo": "Ed25519", "generation_timestamp": 1772997550, "identifier": "80268d1d-2dd1-4416-9f70-92147714b16f"}</recraft-signature></metadata></svg>