<svg xmlns="http://www.w3.org/2000/svg" height="512" preserveAspectRatio="none" style="display: block;" version="1.1" viewBox="0 0 2048 2048" width="512">
<path d="M 257.536 474.003 L 1791.75 474.003 L 1791.75 1533.93 C 1791.8 1540.38 1793.67 1550.94 1793.17 1555.67 L 1791.75 1556.28 L 257.536 1556.28 L 257.536 474.003 z M 785.997 1497 L 1730.01 1497 L 1730.01 1095 L 785.997 1095 L 786.027 1450.5 C 786.051 1465.91 786.649 1481.67 785.997 1497 z M 785.997 927.471 L 1626.07 927.483 C 1659.34 927.484 1697.1 928.355 1730.01 927.471 L 1730.01 534.871 L 785.997 534.871 L 785.997 927.471 z M 377.992 534.871 L 317.49 534.871 L 317.49 927.471 L 554.805 927.471 C 574.259 927.533 594.655 927.906 614.037 927.471 L 614.038 665.252 C 614.031 624.776 612.495 574.316 614.037 534.871 C 594.054 533.498 558.677 534.871 536.997 534.881 L 377.992 534.871 z M 327.376 1095 C 311.338 1094.66 317.643 1110.42 317.535 1128.14 L 317.49 1497 L 606.25 1497 C 620.445 1497.04 614.091 1476.89 614.092 1461.35 L 614.016 1193.09 C 614.009 1161.1 613.3 1126.69 614.037 1095 L 359.663 1094.87 C 350.984 1094.83 335.668 1094.32 327.376 1095 z" fill="rgb(0,0,0)" transform="translate(0,0)"></path>
<metadata><recraft-signature>{"signed_by": "recraft", "signature_b64": "pEWLDLXGBW3+uWL+H2QCevIz59EUGwgp/hDFvVMwq9DSDAzoj2VoOcFZO0u5RARXpkNeYM7MmWUF0gN0V4p7Dg==", "signing_algo": "Ed25519", "generation_timestamp": 1772997541, "identifier": "70593c8b-23bc-4798-bd1c-bd6fc85ee583"}</recraft-signature></metadata></svg>