<svg xmlns="http://www.w3.org/2000/svg" height="512" preserveAspectRatio="none" style="display: block;" version="1.1" viewBox="0 0 2048 2048" width="512">
<path d="M 325.484 381.283 C 356.838 380.522 391.399 381.295 422.979 381.297 L 1672.45 381.349 C 1705.78 381.325 1737.86 375.619 1765.11 399.331 C 1801.11 430.66 1792.03 486.053 1792.01 530.05 L 1791.99 1535.04 C 1791.99 1586.42 1798.26 1661.43 1724.25 1665.1 C 1701.71 1666.29 1666.92 1665.14 1643.43 1665.14 L 392.964 1665.11 C 287.843 1665.21 256.323 1663.07 256.488 1545.48 L 256.516 534.145 C 256.507 472.454 242.253 392.665 325.484 381.283 z M 993.223 1578.96 L 1708.95 1578.96 L 1708.95 1114.98 L 993.223 1114.98 L 993.223 1578.96 z M 993.223 923.369 L 1708.95 923.369 C 1709.65 921.708 1708.95 861.351 1708.94 853.501 L 1708.93 598.048 C 1708.93 556.026 1707.97 510.161 1708.95 468.385 C 1683.38 469.059 1655.69 468.391 1629.89 468.386 L 993.223 468.385 C 993.151 619.279 994.766 772.631 993.223 923.369 z M 472.486 468.385 C 432.415 468.415 381.309 469.826 342.149 468.385 L 342.149 923.369 L 674.023 923.369 L 802.925 923.369 L 802.915 619.881 C 802.912 571.12 801.713 516.795 802.925 468.385 L 472.486 468.385 z M 342.149 1578.96 L 802.925 1578.96 L 802.903 1165.65 C 802.901 1150.01 802.27 1130.17 802.925 1114.98 L 342.149 1114.98 L 342.186 1523.14 C 342.232 1542.41 342.874 1559.57 342.149 1578.96 z" fill="rgb(0,0,0)" transform="translate(0,0)"></path>
<metadata><recraft-signature>{"signed_by": "recraft", "signature_b64": "OAnLr2T+Hz7oR/Ei/HtFwC30Jz7ORgE3f7RubMRLZsbi+d4TmPBfFBQFpOgLaaIconYo5Vfsb/JuNjxZ1uYbBA==", "signing_algo": "Ed25519", "generation_timestamp": 1772997124, "identifier": "c5963c19-626b-4931-98b3-e05561ef0a3c"}</recraft-signature></metadata></svg>