<svg xmlns="http://www.w3.org/2000/svg" height="512" preserveAspectRatio="none" style="display: block;" version="1.1" viewBox="0 0 2048 2048" width="512">
<path d="M 1683.81 277.226 C 1727.17 274.868 1767.53 299.221 1770.74 345.071 C 1773.57 385.474 1739.65 408.928 1713.65 434.797 L 1322.96 825.533 C 1302.55 846.14 1278.4 868.738 1259.18 890.002 L 1652.96 889.982 C 1669.88 889.989 1690.86 888.583 1707.44 891.474 C 1789.15 905.719 1789.79 1023.98 1708.23 1039.22 C 1692.49 1042.16 1665.87 1040.21 1649.04 1040.19 L 1147.53 1040.13 C 1164.45 1058.24 1186.49 1078.99 1204.4 1097 L 1702.1 1594.5 C 1719.84 1612.16 1739.64 1630.9 1756.03 1649.67 C 1808.19 1713.27 1719.04 1808.63 1647.92 1750.28 C 1636.7 1741.07 1627.33 1730.93 1617.09 1720.64 L 1025 1128.35 C 1011.9 1138.38 991.294 1160.53 979.112 1172.83 L 624.334 1527.32 L 448.126 1703.63 C 432.456 1719.34 416.821 1735.97 400.57 1750.63 C 353.259 1793.16 277.174 1758.09 277.568 1694.51 C 277.786 1659.38 292.102 1648.99 315.351 1625.91 L 917.8 1022.56 C 900.582 1008.83 877.81 983.359 861.789 967.195 L 378.055 479.547 C 350.587 451.88 321.943 426.042 295.923 396.425 C 255.409 349.993 289.21 280.314 349.23 277.884 C 384.342 276.462 401.746 298.642 424.778 321.385 L 826.204 718.926 C 891.57 783.62 958.259 851.503 1025 914.504 C 1038.44 898.715 1056.44 882.478 1071.41 867.825 L 1559.91 380.464 C 1589.41 351.152 1643.81 284.704 1683.81 277.226 z" fill="rgb(0,0,0)" transform="translate(0,0)"></path>
<metadata><recraft-signature>{"signed_by": "recraft", "signature_b64": "l+i1kW8pHD1wTFPUzpqi6QGKWNgq4a7QNSH4nxqw65mgZzrhaX0kkWTBgaeqF5mmA4uQtt6h8320GdeS+QiwAA==", "signing_algo": "Ed25519", "generation_timestamp": 1772996057, "identifier": "4317d4bd-e88f-42ef-a3b0-a333187716bb"}</recraft-signature></metadata></svg>