<svg xmlns="http://www.w3.org/2000/svg" height="512" preserveAspectRatio="none" style="display: block;" version="1.1" viewBox="0 0 2048 2048" width="512">
<path d="M 612.876 702.49 L 1614.79 702.444 C 1725.27 702.478 1777.39 751.608 1760.38 865.405 L 1644.26 1587.63 C 1627.81 1693.24 1602.64 1729.12 1496.62 1729.09 L 1437.5 1729.01 L 428.429 1729.04 C 349.853 1728.99 282.064 1689.48 282.887 1601.32 C 283.059 1582.87 287.802 1561.05 290.772 1542.5 L 402.556 835.515 C 420.155 729.046 452.412 702.457 554.224 702.445 L 612.876 702.49 z M 412.767 1598.01 L 1480.91 1598.02 C 1487.79 1598.03 1507.34 1600.65 1512.24 1597.05 L 1513.6 1591.89 C 1559.84 1340.25 1588.5 1081.47 1637.25 832.001 L 569.186 831.946 C 557.934 831.931 539.81 831.252 529.244 832.001 C 525.643 838.775 514.911 918.975 512.749 933.021 L 425.675 1509.22 C 421.284 1536.76 414.774 1570.76 412.767 1598.01 z" fill="rgb(0,0,0)" transform="translate(0,0)"></path>
<path d="M 1011.8 899.222 C 1060.28 894.885 1094.94 933.642 1084.61 982.054 C 1081.89 994.794 1076.72 1008.07 1072.58 1020.53 L 1047.54 1095.48 C 1017.25 1185.93 1009.7 1189.9 1041.34 1276.91 L 1082.48 1387.7 C 1096.82 1426.92 1073.87 1468.18 1031.25 1473.76 C 978.617 1475.81 967.995 1446.38 952.408 1403.36 L 933.502 1351.21 C 892.986 1239.94 871.214 1218.62 912.023 1096.72 L 940.077 1012.52 C 955.674 965.17 958.168 912.864 1011.8 899.222 z" fill="rgb(0,0,0)" transform="translate(0,0)"></path>
<path d="M 1269.64 899.222 C 1309.17 894.583 1342.48 923.552 1343.18 963.667 C 1343.47 980.801 1333.72 1003.76 1328.12 1020.43 L 1298.74 1109.79 C 1290.8 1134.54 1277.17 1170.15 1276.84 1195.49 C 1276.47 1224.06 1325.72 1354.6 1335.95 1387.17 C 1349.27 1429.56 1326.39 1462.38 1285.43 1473.76 C 1219.25 1473.66 1219.11 1434.83 1200.87 1385.21 C 1191.75 1360.41 1184.75 1334.58 1176.18 1309.59 C 1143.37 1209.36 1138.39 1191.8 1168.94 1095.01 L 1199.4 1000.49 C 1213.46 957.591 1217.44 910.545 1269.64 899.222 z" fill="rgb(0,0,0)" transform="translate(0,0)"></path>
<path d="M 1501.04 247.004 C 1524.17 241.855 1549.32 260.36 1560.45 279.299 C 1580.49 313.413 1553.02 339.729 1553.88 369.006 C 1554.29 383.096 1569.7 415.959 1573.08 435.563 C 1583.48 489.315 1567.24 608.782 1501.04 621.796 C 1472.5 624.509 1446.75 611.193 1434.75 584.569 C 1414.39 539.404 1450.31 519.594 1449.9 477.08 C 1449.23 407.02 1402.74 397.284 1442.23 299.899 C 1455.25 267.791 1464.41 253.67 1501.04 247.004 z" fill="rgb(0,0,0)" transform="translate(0,0)"></path>
<metadata><recraft-signature>{"signed_by": "recraft", "signature_b64": "5FmloLpPIVRreQQ7u+/oyDlr73oXuLK2Z8a/j3lV0eOImBVyFdedDtr+4lrvaWYoOhW4uXBXbM5SxFotAfqzBw==", "signing_algo": "Ed25519", "generation_timestamp": 1773000045, "identifier": "a0fa9353-b461-48a9-8b61-ed0665c67a58"}</recraft-signature></metadata></svg>