<svg xmlns="http://www.w3.org/2000/svg" height="512" preserveAspectRatio="none" style="display: block;" version="1.1" viewBox="0 0 2048 2048" width="512">
<path d="M 270.045 264.952 L 1779.49 264.952 L 1779.49 1783.14 C 1778.69 1783.52 1536.96 1783.13 1516.45 1783.13 L 270.045 1783.14 L 270.045 264.952 z M 373.977 368.78 C 372.172 396.821 373.951 429.634 373.978 458.493 L 373.981 835.752 C 373.972 863.651 372.491 905.635 373.977 932.345 L 556.937 932.345 L 932.996 932.345 L 932.992 557.059 C 932.991 494.733 932.275 431.003 932.996 368.78 C 915.515 367.686 890.704 368.765 872.343 368.78 L 749.492 368.78 L 373.977 368.78 z M 1117.4 932.345 L 1614.79 932.361 C 1632.89 932.367 1657.89 933.144 1675.5 932.345 C 1676.42 870.643 1675.5 806.599 1675.49 744.698 L 1675.5 368.78 C 1648.65 367.249 1606.88 368.779 1578.82 368.787 L 1147.5 368.732 C 1138.09 368.702 1126.6 368.141 1117.4 368.78 C 1116.22 429.88 1117.4 495.367 1117.41 556.803 L 1117.4 932.345 z M 1477 1114.87 L 1117.4 1114.87 C 1115.96 1158.84 1117.4 1211.95 1117.41 1256.54 L 1117.46 1629.29 C 1117.5 1643.47 1118.19 1663.92 1117.4 1677.8 L 1320.5 1677.8 L 1635.86 1677.73 C 1646.77 1677.7 1665.01 1677.11 1675.5 1677.8 L 1675.5 1114.87 C 1656.4 1115.86 1629.2 1114.89 1609.45 1114.88 L 1477 1114.87 z M 379.929 1114.87 C 376.057 1115.27 376.22 1114.57 374.147 1116.75 C 373.091 1181.36 373.967 1248.26 373.977 1313 L 373.977 1677.8 L 924.929 1677.8 C 940.688 1676.89 932.994 1636.45 932.998 1619.46 L 932.996 1114.87 L 443.977 1114.9 C 424.478 1114.9 399.035 1115.66 379.929 1114.87 z" fill="rgb(0,0,0)" transform="translate(0,0)"></path>
<metadata><recraft-signature>{"signed_by": "recraft", "signature_b64": "F94x1tyjr7mol0aUcD0RY7T8Pgrb4GskqGy5LJf5FJzXJ0D7TZWFwkABh1GeMdU90s2p6VEu1saSUfRNFioTBg==", "signing_algo": "Ed25519", "generation_timestamp": 1772996013, "identifier": "6db5b76c-b029-4446-b02f-b6f9c00480f1"}</recraft-signature></metadata></svg>