<svg xmlns="http://www.w3.org/2000/svg" height="512" preserveAspectRatio="none" style="display: block;" version="1.1" viewBox="0 0 2048 2048" width="512">
<path d="M 692.54 741.817 L 693.389 741.79 C 699.548 747.001 704.262 867.066 705.666 881.755 C 688.897 890.403 671.975 898.976 656.144 908.928 C 317.18 1122.76 427.81 1633.57 823.059 1687.24 C 1019.66 1713.93 1195.09 1597.99 1268.06 1418.4 C 1297.01 1463.75 1326.44 1515.2 1353 1562.02 C 1335.38 1589.77 1326.84 1602.12 1305.44 1626.83 C 1249.47 1689.1 1183.68 1740.36 1106.86 1774.7 C 762.072 1928.61 354.028 1703.76 321.838 1319.95 C 298.971 1047.3 454.478 846.486 692.54 741.817 z" fill="rgb(0,0,0)" transform="translate(0,0)"></path>
<path d="M 868.732 651.195 C 886.628 648.489 908.295 657.499 921.243 669.678 C 953.108 699.653 942.049 769.202 942.999 812.51 L 1203.76 812.418 C 1217.64 812.342 1232.76 811.79 1246.44 813.749 C 1308.94 822.701 1343.53 946.442 1211.31 945.888 L 1160.59 945.769 C 1088.49 945.778 1014.94 945.016 942.999 945.804 C 944.394 979.49 942.148 1016.89 942.999 1051.26 C 968.281 1052.71 1009.91 1051.27 1036.64 1051.26 L 1227.68 1051.21 C 1343.23 1051.05 1327.44 1033.32 1384.79 1135.12 L 1454.49 1257.74 C 1481.31 1305.54 1523.43 1369.98 1545.21 1418.4 C 1559.29 1408.84 1586.57 1394.83 1602.29 1386.63 C 1722.44 1316.79 1756.66 1443.76 1701.39 1483.92 C 1685.1 1494.97 1666.6 1503.65 1648.68 1512.16 C 1593.7 1537.08 1500.9 1614.86 1455.55 1534.72 C 1389.76 1418.48 1324.81 1301.98 1259.77 1185.4 C 1259.59 1185.17 1259.41 1184.94 1259.24 1184.71 C 1233.09 1185.36 1205.35 1184.52 1179.09 1184.54 L 919.843 1184.76 C 822.403 1185.22 810.086 1173.19 810.234 1071.89 L 810.271 800.318 C 810.239 740.465 793.662 666.599 868.732 651.195 z" fill="rgb(0,0,0)" transform="translate(0,0)"></path>
<path d="M 861.65 202.535 C 965.584 195.134 1055.9 273.243 1063.57 377.158 C 1071.24 481.073 993.368 571.594 889.473 579.532 C 785.198 587.499 694.272 509.277 686.575 404.981 C 678.877 300.685 757.334 209.962 861.65 202.535 z" fill="rgb(0,0,0)" transform="translate(0,0)"></path>
<metadata><recraft-signature>{"signed_by": "recraft", "signature_b64": "bd8iWuhdhr9XYn0aL5hRMkpEkHH6lBnOC1nLcEf+pEcDK+gRqkWrdGsWXl28NWNlKD+2ya5GxdJXfQxNw7dLAA==", "signing_algo": "Ed25519", "generation_timestamp": 1772998706, "identifier": "3a361499-3aea-4dfb-aaa3-ef384e1f0ff6"}</recraft-signature></metadata></svg>