<svg xmlns="http://www.w3.org/2000/svg" height="512" preserveAspectRatio="none" style="display: block;" version="1.1" viewBox="0 0 2048 2048" width="512">
<path d="M 586.018 294.946 C 604.798 294.114 629.633 294.89 649.007 294.912 L 1436.35 294.887 C 1548.57 294.859 1647.92 351.948 1661.04 473.567 C 1663.73 498.46 1662.72 527.875 1662.73 553.132 L 1662.81 1511.98 C 1662.82 1530.82 1663.8 1552.14 1661.42 1570.71 C 1647.81 1676.79 1564.82 1737.08 1464.36 1747.02 L 650.792 1747.01 C 629.402 1747.01 607.807 1746.72 586.436 1747.07 C 481.473 1748.82 385.58 1655.42 384.966 1549.54 L 384.988 525.537 C 385.063 404.931 454.179 295.47 586.018 294.946 z M 647.109 1625.99 C 657.371 1625.14 666.522 1625.87 676.757 1625.89 L 1377.19 1625.99 C 1453.7 1626.05 1535.07 1635.15 1536.08 1526.66 L 1536.04 546.032 C 1536.05 409.04 1483.84 420.966 1376.7 421.06 L 661.593 421.06 C 650.782 423.82 639.413 420.58 630.504 422.811 L 629.905 423.758 C 658.467 426.086 607.912 450.911 603.301 492.413 C 601.526 508.397 602.456 524.96 602.541 541.035 L 602.615 1438.66 C 602.571 1495.58 591.217 1574.14 639.579 1612.4 C 647.992 1619.05 620.931 1616.6 647.109 1625.99 z" fill="rgb(48,47,48)" transform="translate(0,0)"></path>
<path d="M 1067.99 939.004 L 1411.79 939.004 L 1411.79 1066.03 C 1388.47 1065.31 1361.45 1065.99 1337.88 1065.99 L 1157.71 1066.02 C 1129.03 1066.03 1096.4 1066.87 1067.99 1066.03 C 1067.39 1024.34 1067.97 980.824 1067.99 939.004 z" fill="rgb(48,47,48)" transform="translate(0,0)"></path>
<path d="M 1067.99 1198.19 L 1411.79 1198.19 C 1412.81 1232.01 1414.82 1285.65 1411.79 1319.23 L 1067.99 1319.23 L 1067.99 1198.19 z" fill="rgb(253,179,32)" transform="translate(0,0)"></path>
<path d="M 647.109 1625.99 C 547.381 1629.99 508.024 1612.12 507.895 1508.04 L 507.883 527.939 C 508.103 449.107 538.67 420.885 616.651 420.954 L 661.593 421.06 C 650.782 423.82 639.413 420.58 630.504 422.811 L 629.905 423.758 C 658.467 426.086 607.912 450.911 603.301 492.413 C 601.526 508.397 602.456 524.96 602.541 541.035 L 602.615 1438.66 C 602.571 1495.58 591.217 1574.14 639.579 1612.4 C 647.992 1619.05 620.931 1616.6 647.109 1625.99 z" fill="rgb(232,231,230)" transform="translate(0,0)"></path>
<metadata><recraft-signature>{"signed_by": "recraft", "signature_b64": "YXK07CL41b5HcwwSl0Wjg0XPLltCRlAfs3Vfiu3Ne/Z3dmlU2HXL9crWqnUE7d8a97dNVXaVCvJ+3CnEOhSbAg==", "signing_algo": "Ed25519", "generation_timestamp": 1772997115, "identifier": "950e5c9d-9c4a-4635-a6b0-8a3ae77e4655"}</recraft-signature></metadata></svg>