<svg xmlns="http://www.w3.org/2000/svg" height="512" preserveAspectRatio="none" style="display: block;" version="1.1" viewBox="0 0 2048 2048" width="512">
<path d="M 716.78 297.266 C 741.65 294.303 765.395 305.076 783.091 322.086 C 813.546 351.361 807.106 390.409 807.001 428.981 L 1238.36 428.981 C 1238.36 389.969 1232.54 352.922 1261.97 322.915 C 1294.96 289.271 1350.23 289.83 1383.29 322.753 C 1411.56 350.91 1407.12 392.62 1407 428.981 L 1577.39 428.972 C 1672.18 428.939 1746.43 433.865 1747.48 551.507 L 1747.54 1602.78 C 1747.52 1665.67 1737.59 1723.04 1663.68 1742.43 C 1638.18 1749.12 1598.79 1746.71 1571.02 1746.7 L 1462.5 1746.68 L 439.361 1746.72 C 366.735 1746.73 301.458 1723.52 300.962 1635.55 L 300.993 568.365 C 301.002 505.445 316.945 445.795 390.3 430.842 C 411.813 426.457 450.141 428.956 473.831 428.97 L 642.112 428.981 C 641.87 363.679 638.991 309.728 716.78 297.266 z M 472.002 1108.51 L 472.002 1579.59 L 1204.12 1579.59 L 1578.27 1579.59 L 1578.27 1108.51 C 1552.22 1109.28 1523.92 1108.52 1497.61 1108.51 L 850.484 1108.51 L 472.002 1108.51 z M 632.624 596.005 L 524.811 595.96 C 509.235 595.953 486.915 595.17 472.002 596.005 C 470.517 624.82 472.006 669.976 472.005 699.925 L 472.002 938.003 L 1507.75 938.003 L 1578.27 938.003 L 1578.27 596.005 L 1398.49 596.005 C 1356.53 657.61 1291.79 652.123 1248.88 596.005 L 799.228 596.005 C 755.958 656.847 692.626 658.915 648.634 596.005 C 645.06 595.996 635.799 595.736 632.624 596.005 z" fill="rgb(0,0,0)" transform="translate(0,0)"></path>
<path d="M 1179.89 1239 L 1340.13 1239.03 C 1405.49 1239.01 1452.52 1217.8 1450.4 1294.5 C 1449.3 1334.39 1466.61 1434.84 1427.02 1447.29 C 1417.62 1448.05 1402.01 1447.34 1392 1447.33 L 1233.89 1447.35 C 1205.32 1447.38 1155.57 1457.1 1155.08 1414.96 C 1154.54 1372.19 1155.57 1329.28 1154.91 1286.52 C 1154.52 1261.81 1153.71 1249.01 1179.89 1239 z" fill="rgb(0,0,0)" transform="translate(0,0)"></path>
<path d="M 627.92 1239 C 635.786 1238.38 653.519 1238.94 661.968 1238.95 L 810.796 1238.96 C 879.029 1238.91 890.058 1228.32 890.082 1299.51 L 890.085 1372.79 C 890.097 1401.91 900.539 1438.4 867.072 1447.29 C 856.605 1447.93 841.611 1447.33 830.675 1447.33 L 679.535 1447.32 C 576.654 1447.3 603.928 1432.77 601.197 1341.61 C 600.07 1304 587.73 1249.45 627.92 1239 z" fill="rgb(0,0,0)" transform="translate(0,0)"></path>
<metadata><recraft-signature>{"signed_by": "recraft", "signature_b64": "sit/xxfUm1rx5+obQZi5TlDGFSNCXN36qlx+In0S8PpGsN0s3kBHYG1izdIIbuk0lol0LFiJos4rRMJO0faMDQ==", "signing_algo": "Ed25519", "generation_timestamp": 1772989784, "identifier": "e20e157e-2485-4423-9294-3119de315fb0"}</recraft-signature></metadata></svg>