<svg xmlns="http://www.w3.org/2000/svg" height="512" preserveAspectRatio="none" style="display: block;" version="1.1" viewBox="0 0 2048 2048" width="512">
<path d="M 461.607 255.004 L 1548.96 254.937 C 1678.15 254.863 1708.09 304.909 1707.99 429.094 L 1707.99 1584.72 C 1707.99 1615.52 1708.82 1647.31 1706.75 1677.95 C 1702.74 1737.11 1647.19 1786.06 1590.25 1793.36 C 1572.04 1794.45 1541.12 1793.4 1522.17 1793.38 L 524.476 1793.36 C 504.204 1793.39 482.684 1794.05 462.645 1792.46 C 403.227 1787.77 349.557 1735.25 341.708 1676.51 C 338.88 1655.35 340.053 1625.91 340.078 1604.28 L 340.041 453.282 C 339.984 355.243 340.477 268.914 461.607 255.004 z M 1590.25 1709.13 C 1639.17 1689.44 1625.17 1629.21 1625.17 1583.68 L 1625.55 385.68 C 1625.82 352.522 1602.07 339.092 1572.96 338.554 L 495.756 338.321 C 489.156 338.293 467.019 337.752 461.607 338.413 C 436.186 341.83 421.551 361.221 421.638 386.398 L 421.87 1621.29 C 421.882 1636.93 421.494 1653.95 423.294 1669.44 C 429.18 1720.12 502.963 1709.17 538.933 1709.15 L 1536.51 1709.14 C 1551.56 1709.14 1576.27 1710.03 1590.25 1709.13 z" fill="rgb(35,40,50)" transform="translate(0,0)"></path>
<path d="M 1206.89 1166.54 C 1221.11 1167.54 1247.5 1166.59 1262.53 1166.57 L 1373.93 1166.53 C 1392.58 1166.52 1417.49 1165.09 1435.4 1168.17 C 1509.03 1180.86 1518.4 1296.72 1480.38 1343.25 C 1449.81 1373.51 1397.55 1364.93 1357.98 1364.93 L 1206.89 1364.96 L 1206.87 1223.96 C 1206.86 1214.27 1206 1172.48 1206.89 1166.54 z M 1418.97 1284.42 C 1420.31 1280.78 1418.87 1253.01 1418.97 1245.95 L 1326.86 1245.89 C 1314.34 1245.88 1293.59 1245.13 1281.92 1245.95 L 1281.92 1284.42 L 1418.97 1284.42 z" fill="rgb(35,40,50)" transform="translate(0,0)"></path>
<path d="M 619.226 1164.1 L 851.99 1164.1 L 851.99 1245.95 L 631.138 1245.95 L 631.138 1284.42 C 649.71 1283.28 661.646 1284.24 679.912 1284.36 L 755.5 1284.42 C 825.941 1279.84 826.969 1302.72 825.57 1364.96 L 679.164 1365.02 C 602.45 1365.04 541.836 1373.73 548.904 1265.72 C 552.391 1212.43 550.668 1170.09 619.226 1164.1 z" fill="rgb(35,40,50)" transform="translate(0,0)"></path>
<path d="M 953.373 1166.54 C 958.989 1167.38 982.108 1166.65 989.506 1166.63 L 1073.71 1166.54 C 1096.79 1231.73 1133.02 1299.5 1158.33 1364.96 L 1062.08 1364.96 C 1056.25 1344.73 1043.66 1313.99 1036.3 1292.75 C 1034.06 1286.67 1014.88 1231.11 1002.25 1260.59 C 987.579 1294.81 976.252 1330.47 961.998 1364.96 L 868.832 1364.96 C 872.319 1355.37 878.856 1341.98 883.016 1332.14 L 918.181 1249.88 C 928.866 1225.14 941.952 1189.56 953.373 1166.54 z" fill="rgb(35,40,50)" transform="translate(0,0)"></path>
<metadata><recraft-signature>{"signed_by": "recraft", "signature_b64": "rKGCpLRzM8WIcPWjTveCDoSQfMc7D9kogLZb+xJEiTvhJAXDBiQ/EY3HaAQvRIPPh4Y6/LhqbTRYflFHyAI6AQ==", "signing_algo": "Ed25519", "generation_timestamp": 1773000117, "identifier": "b506ffe7-2dc1-4518-829a-036c49a6563a"}</recraft-signature></metadata></svg>