<svg xmlns="http://www.w3.org/2000/svg" height="512" preserveAspectRatio="none" style="display: block;" version="1.1" viewBox="0 0 2048 2048" width="512">
<path d="M 1529.83 485.288 C 1601.24 480.115 1568.02 542.357 1651.19 549.927 C 1676.24 552.207 1689.47 588.463 1704.09 604.508 C 1719.58 621.742 1713.06 634.429 1710.28 654.324 C 1714.31 665.528 1720.22 675.559 1725.65 686.099 C 1751.47 736.22 1717.12 839.321 1673.8 868.464 C 1649.19 885.018 1635.89 859.581 1610.21 868.561 C 1591.77 875.01 1520.37 915.529 1510.61 930.393 C 1482.83 972.711 1509.54 1043.12 1419.77 1023.43 C 1401.09 1028.52 1397.74 1039.62 1381.09 1045 L 1365.5 1038.63 C 1348.73 1042.58 1326.35 1090.76 1302.55 1110.69 C 1275.42 1133.4 1254.45 1111.5 1226.06 1107.77 C 1193.98 1104.46 1195.93 1127 1180.45 1142.02 C 1168.73 1153.38 1140.8 1141.68 1123.88 1140.46 C 1080.38 1137.31 1071.35 1148.82 1041.59 1172.93 C 1039.4 1172.39 1030.1 1170.24 1028.72 1170 C 1015.64 1167.74 1014.18 1218.38 994.208 1235.12 C 965.214 1261.14 934.243 1216.97 913.538 1259.95 C 899.337 1289.43 946.866 1328.73 909.437 1363.81 C 881.715 1386.78 861.635 1331.01 837.886 1331.19 C 813.254 1331.39 814.422 1366.21 801.817 1379.04 C 773.425 1365.54 780.651 1380.26 770.818 1400.83 C 767.942 1406.85 759.384 1412.43 756.767 1419.99 C 752.871 1433.1 773.594 1441.55 771.82 1454.54 C 770.426 1464.75 746.936 1495.77 736.157 1493.29 C 717.531 1473.04 744.727 1448.6 671.591 1429.01 L 670.376 1428.69 C 663.533 1430.84 654.827 1435.37 648.161 1438.59 C 643.152 1437.05 632.147 1431.28 625.552 1428.69 C 594.212 1453.13 617.82 1435.42 596.219 1431.56 C 581.89 1439.4 596.607 1452.67 581.611 1461.03 C 579.696 1462.09 574.121 1467.34 572.314 1468.99 C 578.026 1512.33 548.76 1476.24 545.638 1507.45 L 551.258 1526.74 C 537.704 1598.22 416.062 1557.53 423.051 1478.72 C 424.004 1467.97 434.177 1431.47 418.113 1426.79 C 390.907 1418.87 399.849 1420.41 391.735 1394.83 C 389.416 1387.8 365.591 1380.07 360.226 1372.1 C 351.537 1359.21 364.592 1344.59 366.68 1330.44 L 366.89 1328.97 C 357.05 1302.69 318.224 1264.72 313.754 1233.37 C 316.777 1212.01 327.173 1209.34 330.892 1189.81 C 339.67 1143.71 318.183 1138.18 313.939 1107.07 L 313.754 1105.61 C 318.323 1096.36 326.468 1089.73 330.044 1080.25 C 333.256 1071.72 330.923 1048.94 341.839 1046.36 C 350.893 1049.6 353.964 1066.05 362.17 1062.49 C 381.964 1053.92 376.846 1023.94 382.986 1007 C 388.813 990.931 409.168 994.594 416.83 980.284 C 424.874 965.574 401.958 947.181 441.036 948.325 C 460.819 948.839 444.919 915.935 456.343 906.359 C 472.498 892.817 476.926 922.686 484.712 928.894 C 506.486 946.258 537.466 922.906 572.314 923.001 C 589.797 911.059 589.747 900.316 600.915 884.26 C 623.997 851.075 641.529 900.635 674.279 892.252 C 721.083 880.271 719.193 867.984 740.878 835.631 C 750.888 820.695 766.783 817.377 781.091 806.194 C 793.263 796.68 801.605 777.27 812.429 770.664 C 838.54 754.727 852.315 786.179 887.679 768.979 C 925.268 750.698 930.777 707.22 966.41 693.097 C 995.769 681.461 1042.47 721.644 1092.55 645.202 C 1117.92 606.475 1153.97 637.613 1185.04 630.837 C 1199.6 627.662 1217.71 608.324 1234.46 602.801 C 1287.92 585.173 1274.96 624.399 1317.29 556.657 C 1331.45 534.002 1347.33 546.594 1361.97 541.086 C 1381.9 533.589 1394.82 511.532 1417.95 504.634 C 1441.2 497.697 1456.61 510.14 1476.51 507.162 C 1495.41 504.335 1507.22 489.887 1529.83 485.288 z" fill="rgb(9,9,8)" transform="translate(0,0)"></path>
<metadata><recraft-signature>{"signed_by": "recraft", "signature_b64": "WoWKRTDmEU2bMbsYYRKFr8Ly1Bf0JqJTOjFXJPCs/Gt81xdt7Hm/TYwTUO0XX5bZf7tgm4fky0MwU0lEhsItBg==", "signing_algo": "Ed25519", "generation_timestamp": 1772997441, "identifier": "560710cf-53f8-49c6-be96-874be8384112"}</recraft-signature></metadata></svg>