<svg xmlns="http://www.w3.org/2000/svg" height="512" preserveAspectRatio="none" style="display: block;" version="1.1" viewBox="0 0 2048 2048" width="512">
<path d="M 756.801 561.001 C 779.075 558.515 830.799 569.761 855.226 574.234 L 1370.8 669.415 C 1498.58 692.399 1500.15 710.267 1581.41 800.542 C 1629.53 854.001 1706.74 931.882 1716.41 1002.45 C 1728.41 1090.33 1686.57 1142.43 1618.7 1186.61 L 1389.54 1337.05 C 1364.86 1352.96 1332.01 1378.64 1303.24 1382.65 C 1231.36 1396.41 1167.11 1296.26 1226.94 1235.75 C 1237.02 1225.55 1253 1216.69 1265.39 1208.84 L 1486.19 1067.97 C 1506.56 1054.87 1526.69 1042.95 1546.96 1029.32 C 1530.4 1007.25 1513.98 988.683 1496.2 967.71 L 1447.07 909.029 C 1432.35 891.729 1409.89 862.607 1395.05 847.45 C 1375.56 842.178 1343.71 837.495 1323 833.742 L 841.82 742.686 C 811.25 736.496 744.445 728.769 720.948 713.002 C 661.067 672.821 674.394 576.712 756.801 561.001 z" fill="rgb(0,0,0)" transform="translate(0,0)"></path>
<path d="M 733.1 1126.57 L 1124.72 1126.56 C 1165.95 1126.46 1212.41 1115.58 1159.83 1150.51 C 1097.22 1192.11 1071.7 1283.44 1109.8 1349.54 C 1147.33 1414.66 1182.67 1478.25 1219.04 1543.71 L 1256.26 1610.48 C 1264.99 1625.95 1280.68 1649.4 1285.01 1666.51 C 1307.66 1756.18 1199 1819.02 1136.74 1747.73 C 1127.17 1736.77 1112.92 1706.88 1105.49 1692.74 L 1062.35 1610.73 C 1017.29 1524.44 970.327 1436.15 922.844 1351.48 C 914.009 1334.67 900.53 1296.14 877.212 1295.37 C 831.817 1293.88 785.912 1295.56 740.557 1297.24 C 705.855 1298.52 690.359 1351.31 674.78 1381.55 L 557.123 1612.05 C 539.994 1646.18 508.146 1719.82 484.924 1747.59 C 419.382 1825.14 300.025 1751.01 337.901 1658.1 C 343.233 1645.01 352.08 1629.22 358.8 1616.52 L 565.014 1222.43 C 594.222 1165.98 671.674 1128.95 733.1 1126.57 z" fill="rgb(0,0,0)" transform="translate(0,0)"></path>
<path d="M 1224.51 267.157 C 1316.14 256.39 1399.25 321.655 1410.53 413.223 C 1421.81 504.791 1357.01 588.272 1265.5 600.058 C 1173.28 611.938 1088.99 546.512 1077.62 454.22 C 1066.26 361.929 1132.15 278.009 1224.51 267.157 z" fill="rgb(0,0,0)" transform="translate(0,0)"></path>
<metadata><recraft-signature>{"signed_by": "recraft", "signature_b64": "yXA8HA7VkOYizJr0zzazVBYRi6BR7dFjfSnZCPdrIXhsUBmDTzq6hK3Gv5pbs+w2/6hNI3X0SDh3ERY96t4JCg==", "signing_algo": "Ed25519", "generation_timestamp": 1773000571, "identifier": "7349766f-b0df-43d4-92f3-6592f3505f88"}</recraft-signature></metadata></svg>