<svg xmlns="http://www.w3.org/2000/svg" height="512" preserveAspectRatio="none" style="display: block;" version="1.1" viewBox="0 0 2048 2048" width="512">
<path d="M 262.754 1075.12 C 323.493 1071.73 351.869 1106.65 341.459 1163.87 C 347.349 1163.98 352.034 1163.37 355.771 1169.01 C 351.81 1187.47 330.08 1161.3 337.08 1201.7 C 322.613 1234.05 268.813 1220.03 265.157 1226.11 C 268.72 1235.98 301.342 1239.45 312.077 1249.37 C 361.609 1295.14 341.834 1387.56 451.522 1378.26 C 478.561 1375.96 499.525 1417.04 423.562 1411.36 C 389.991 1408.85 357.762 1389.47 337.08 1363.05 C 338.767 1376.88 339.761 1391.74 341.459 1405.99 C 418.815 1404.43 450.612 1451.21 498.522 1507.92 C 500.956 1456.37 521.812 1411.11 576.869 1403.05 C 557.766 1388.92 543.328 1380.04 532.993 1357.62 C 501.403 1290.1 566.443 1219.12 637.836 1246.12 C 708.302 1272.77 710.175 1369.07 629.456 1403.05 C 685.248 1420.77 690.007 1436.14 719.966 1484.58 C 730.758 1502.03 753.449 1527.92 773.312 1535.07 C 857.68 1498.24 842.711 1555.93 772.384 1563.23 C 741.221 1565.45 719.169 1541.38 698.418 1522.79 C 700.944 1541.33 701.815 1557.57 703.908 1575.72 C 728.503 1569.35 779.406 1552.94 789.353 1589.57 C 800.881 1632.03 741.393 1647.18 713.145 1656.2 C 699.483 1677.11 693.522 1676.99 670.043 1678.54 C 622.902 1701.19 469.861 1692.78 492.539 1620.15 C 485.72 1598.89 483.454 1585.84 492.539 1564.85 C 477.52 1555.48 470.644 1547.73 458.55 1535.07 C 463.443 1544.54 479.581 1572.57 455.876 1573.44 C 435.132 1574.19 389.317 1500.13 370.882 1484.58 C 311.172 1496.07 217.112 1518.22 177.195 1456.1 C 172.356 1448.57 172.044 1437.33 174.828 1428.96 C 146.902 1356.27 170.549 1263.03 225.693 1209.29 C 176.021 1169.17 201.828 1089.26 262.754 1075.12 z" fill="rgb(0,0,0)" transform="translate(0,0)"></path>
<path d="M 1821.22 1216.81 C 1830.1 1219.38 1850.39 1248.46 1855.37 1257.29 C 1884.77 1309.45 1890.93 1371.74 1875.8 1428.96 C 1884.58 1446.77 1875.14 1458.93 1863.89 1472.91 C 1829.33 1513.88 1724.15 1497.38 1682.07 1478.65 C 1675.09 1488.77 1605.05 1569.23 1591.73 1562.32 C 1572.29 1552.23 1595.33 1535.09 1601.73 1524.22 L 1602.57 1522.79 C 1571.61 1555.98 1553.97 1582.25 1533 1538.54 C 1534.7 1565.02 1532.81 1610.44 1523.31 1635.26 C 1521.45 1640.12 1512.94 1646.86 1510.31 1651.68 C 1495.35 1679.01 1499.94 1685.79 1456.1 1691.89 C 1414.95 1697.61 1384.07 1703.07 1348.7 1678.54 C 1336.44 1689.75 1330.73 1683.22 1329.75 1669.04 C 1308.22 1658.51 1263.75 1632.5 1243.96 1618.98 C 1220.49 1603.63 1227.72 1558.22 1260.34 1559.78 C 1279.94 1560.71 1310.46 1573.33 1329.75 1579.69 C 1331.49 1560.12 1336 1541.94 1340.18 1522.79 C 1261.61 1598.8 1149.2 1530.25 1199.96 1520.4 C 1225.97 1515.34 1240.03 1532.65 1256.7 1526.04 C 1340.03 1498.58 1317.82 1425.45 1412.06 1403.05 C 1329.98 1382.2 1328.04 1273.96 1404.35 1245.11 C 1499.76 1210.46 1564.66 1366.92 1447.33 1403.05 C 1515.28 1418.64 1512.73 1444.35 1527.77 1507.92 C 1590.41 1494.78 1604.43 1429.86 1636.09 1414.03 C 1659.85 1402.14 1671.76 1422.66 1697.92 1405.99 C 1703.33 1394.42 1707.22 1376.14 1711.13 1363.05 C 1598.99 1461.34 1503.23 1380.13 1632.41 1375.39 C 1661.86 1374.31 1697.05 1328.96 1707.03 1303.48 C 1719.4 1271.9 1729.55 1258.98 1753.76 1233.66 C 1785.5 1233.4 1794.04 1231.98 1821.22 1216.81 z" fill="rgb(0,0,0)" transform="translate(0,0)"></path>
<path d="M 987.751 427.082 C 964.743 409.406 955.878 394.366 951.466 365.106 C 934.933 258.766 1087.48 246.766 1095.54 342.243 C 1098.28 374.711 1086.4 409.633 1057.5 427.082 C 1141.91 459.18 1151.09 499.799 1167.77 580.545 C 1180.47 585.007 1218.05 606.952 1227.13 607.344 C 1241.48 607.964 1266.18 583.472 1278.83 586.357 C 1283.65 593.709 1265.45 603.059 1260.09 605.241 C 1276.64 617.134 1305.12 622.172 1312.79 633.094 L 1312.38 634.702 C 1303.07 638.247 1284.11 629.53 1274.76 629.274 C 1284.66 633.305 1306.53 639.854 1312.3 647.073 C 1316.08 662.889 1279.28 644.583 1273.85 643.025 L 1273.51 643.8 C 1282.26 649.383 1300.25 654.563 1305.47 661.212 C 1306.73 678.21 1262.33 652.978 1256.7 649.46 C 1262.72 655.669 1283.97 667.901 1283.97 674.803 C 1272.33 684.568 1230.89 642.979 1221.87 639.686 C 1218.9 642.001 1219.5 642.573 1215.46 641.666 C 1168.93 631.234 1140.92 620.871 1117.76 577.265 C 1115.3 607.8 1104.22 673.743 1124.9 696.945 C 1129.49 702.097 1141.38 711.541 1147.08 717.352 C 1212.39 717.06 1218.55 812.19 1101 818.409 C 1095.35 795.426 1071.34 763.667 1047.18 764.19 C 1050.16 775.872 1051.77 768.516 1051.49 790.086 C 1093.07 789.687 1087.85 802.992 1087.4 838.861 C 1087.15 858.372 1078.16 881.271 1055.93 863.312 C 1053.22 861.128 1011.33 814.859 1005.97 809.139 C 973.783 818.96 903.804 811.895 873.427 796.688 C 828.451 774.173 850.558 719.965 895.288 717.352 C 896.248 713.016 926.819 696.792 929.041 675.521 C 932.754 639.976 928.031 606.179 924.152 570.844 C 906.3 606.356 861.107 645.636 820.102 637.499 C 819.712 636.406 817.945 630.361 816.92 633.602 C 819.976 661.459 735.034 676.977 772.022 657.991 L 773.312 657.343 L 773.312 657.343 C 765.527 659.316 752.148 663.997 745.086 659.139 L 744.887 656.706 C 746.842 652.801 748.019 652.284 751.562 649.46 L 751.562 649.46 C 746.131 651.004 739.926 653.548 735.589 648.388 C 735.945 639.247 764.954 629.437 773.312 624.034 C 766.446 626.17 735.192 641.38 735.888 626.554 C 739.425 619.32 776.183 608.274 785.618 605.241 C 779.692 601.205 768.608 595.263 767.155 588.764 C 770.658 578.229 807.148 604.502 814.818 607.996 C 850.244 585.715 872.647 586.507 880.842 540.187 C 891.534 479.751 930.779 445.28 987.751 427.082 z M 1051.49 436.345 C 1012.7 451.672 1006.42 434.414 995.497 436.345 C 928.445 449.2 983.495 512.215 1051.49 489.76 C 1068.19 482.778 1076.37 477.575 1081.02 459.222 C 1074.53 443.484 1067.93 440.946 1051.49 436.345 z M 1011.23 801.011 L 1023.17 801.011 L 1023.17 790.086 C 1024.55 772.199 1021.63 762.407 1043 763.409 C 1036.04 762.852 1026.19 762.453 1019.69 760.389 C 1012.17 771.427 1010.81 788.033 1011.23 801.011 z" fill="rgb(0,0,0)" transform="translate(0,0)"></path>
<path d="M 895.288 717.352 C 939.518 725.702 984.863 747.398 1030.45 748.832 C 1049.56 749.433 1136.13 713.222 1147.08 717.352 C 1116.39 726.479 1044.23 753.909 1016.54 750.672 C 1000.15 748.757 908.263 724.71 895.288 717.352 z" fill="rgb(166,166,170)" transform="translate(0,0)"></path>
<path d="M 751.562 649.46 C 762.769 643.605 773.355 638.626 785.618 635.295 C 773.532 642.234 765.503 647.36 751.562 649.46 L 751.562 649.46 z" fill="rgb(221,221,225)" transform="translate(0,0)"></path>
<path d="M 773.312 657.343 C 793.622 640.167 800.997 643.307 773.312 657.343 L 773.312 657.343 z" fill="rgb(221,221,225)" transform="translate(0,0)"></path>
<path d="M 940.779 1478.65 C 994.232 1493.71 995.215 1506.32 1057.5 1478.65 C 1106.67 1497.44 1118.98 1514.89 1135.51 1559.38 C 1189.85 1705.65 1119.17 1656.79 1123.83 1702.44 C 1126.95 1733.11 1090.18 1750.27 1068.38 1757.88 C 1016.83 1771.51 859.038 1781.33 882.189 1690.01 C 811.934 1654.21 857.903 1583.59 879.151 1524.98 C 885.834 1506.52 923.5 1485.79 940.779 1478.65 z M 898.639 1609.81 C 890.134 1623.49 879.328 1633.17 895.288 1644.88 L 900.465 1647.46 L 901.503 1647.03 C 901.985 1641.44 901.809 1613.25 898.639 1609.81 z M 1101 1641.66 L 1106.63 1635.14 L 1113.14 1629.45 C 1110.64 1621.71 1107.33 1611.1 1101 1605.63 C 1101.05 1615.84 1101.71 1632.3 1101 1641.66 z" fill="rgb(0,0,0)" transform="translate(0,0)"></path>
<path d="M 991.995 1310.35 C 1092.19 1296.75 1139.27 1462.28 1011.23 1478.65 C 887.383 1492.82 881.256 1323.37 991.995 1310.35 z" fill="rgb(0,0,0)" transform="translate(0,0)"></path>
<path d="M 519.375 685.154 C 569.983 681.912 593.098 714.879 595.771 760.389 C 584.363 746.837 581.195 732.545 575.567 716.277 C 554.511 702.013 580.047 756.907 585.513 764.092 C 591.048 771.365 663.211 811.623 598.337 796.422 C 586.033 793.538 578.338 787.416 569.79 778.549 C 577.726 794.228 583.02 804.336 602.151 806.415 C 610.121 807.282 631.184 813.542 637.138 809.139 C 641.727 787.814 666.658 815.522 669.299 826.302 C 672.377 838.873 656.368 841.606 655.01 845.04 C 651.614 853.626 653.496 856.347 646.994 866.135 C 623.259 874.899 540.027 879.707 519.124 874.118 C 463.669 859.74 476.666 805.925 485.932 763.859 C 491.676 737.783 493.276 699.837 519.375 685.154 z" fill="rgb(0,0,0)" transform="translate(0,0)"></path>
<path d="M 1513.99 681.238 C 1572.29 676.602 1563.01 783.202 1563.03 825.347 C 1563.06 903.253 1414.51 870.522 1402.21 856.439 C 1401.01 852.769 1399.87 846.225 1399.04 842.236 C 1335.11 795.526 1457.78 799.47 1475.3 790.086 C 1464.72 792.879 1434.37 799.012 1428.39 787.315 C 1429.29 777.076 1470.66 768.448 1473.77 738.554 C 1476.94 708.095 1480.03 690.075 1513.99 681.238 z" fill="rgb(0,0,0)" transform="translate(0,0)"></path>
<path d="M 1740.22 942.163 C 1790.77 931.484 1801.48 1038.43 1801.92 1069.7 C 1739.9 1045.45 1690.06 1091.76 1689.98 1154.81 C 1667.88 1146.59 1639.26 1134.12 1619.93 1120.82 C 1593.72 1102.77 1593.27 1061.62 1632.47 1058.48 C 1652.57 1057.65 1656.01 1082.09 1694.56 1075.12 C 1698.27 1065.37 1724.92 965.092 1718.24 958.045 L 1716.18 958.54 C 1704.59 969.997 1690.62 1050.38 1689.98 1065.6 C 1675.64 1064.93 1667.46 1063.99 1654.07 1058.48 C 1694.55 1015.85 1665.31 947.275 1740.22 942.163 z" fill="rgb(0,0,0)" transform="translate(0,0)"></path>
<path d="M 293.054 942.163 C 350.923 935.873 374.837 991.439 377.123 1040.99 C 414.623 1054.95 386.086 1059.06 364.078 1065.6 C 361.046 1051.08 341.129 959.007 327.967 959.779 L 326.248 961.782 C 324.42 970.162 352.985 1056.9 357.093 1075.12 C 376.499 1073.69 387.492 1068.91 406.197 1065.6 C 427.929 1052.23 453.313 1077.14 444.585 1099.33 C 436.91 1118.84 376.567 1161.46 359.515 1153.99 C 354.28 1151.69 369.812 1095.83 313.093 1071.29 C 289.011 1060.87 270.347 1061.2 246.139 1069.7 C 245.452 1029.97 255.527 963.903 293.054 942.163 z" fill="rgb(0,0,0)" transform="translate(0,0)"></path>
<path d="M 1768.98 1075.12 C 1853.4 1069.05 1885.93 1211.45 1768.98 1220.02 C 1750.47 1220.04 1732.06 1216.78 1719.79 1201.7 C 1719.81 1196.86 1719.85 1192.54 1719.09 1187.69 C 1717.82 1179.63 1669.27 1178.16 1706.85 1163.87 C 1700.25 1116.34 1721.16 1084.19 1768.98 1075.12 z" fill="rgb(0,0,0)" transform="translate(0,0)"></path>
<path d="M 1718.44 800.953 C 1754.48 794.573 1788.87 818.603 1795.28 854.638 C 1801.68 890.673 1777.68 925.082 1741.64 931.512 C 1705.58 937.948 1671.13 913.913 1664.72 877.843 C 1658.31 841.772 1682.37 807.339 1718.44 800.953 z" fill="rgb(0,0,0)" transform="translate(0,0)"></path>
<path d="M 311.729 798.677 C 348.016 795.106 380.373 821.516 384.146 857.782 C 387.919 894.049 361.691 926.553 325.446 930.529 C 288.913 934.536 256.095 908.054 252.292 871.499 C 248.489 834.945 275.154 802.275 311.729 798.677 z" fill="rgb(0,0,0)" transform="translate(0,0)"></path>
<path d="M 1498.76 557.001 C 1552.16 541.215 1602.33 645.205 1524.27 672.068 C 1517.66 674.342 1511.44 674.697 1504.76 677.496 C 1468.23 694.682 1430.23 651.62 1458.6 627.571 C 1440.28 591.013 1458.21 559.482 1498.76 557.001 z" fill="rgb(0,0,0)" transform="translate(0,0)"></path>
<path d="M 538.802 557.001 C 562.562 554.838 594.639 560.927 603.603 586.217 C 601.824 597.33 601.467 601.567 595.771 611.388 C 609.041 641.548 601.491 679.82 561.472 681.238 C 475.008 675.227 462.095 573.037 538.802 557.001 z" fill="rgb(0,0,0)" transform="translate(0,0)"></path>
<path d="M 453.829 1001.28 C 467.488 998.873 480.661 1014.51 471.002 1024.76 C 457.955 1038.61 424.088 1035.89 406.197 1037.39 C 399.395 1035.19 393.687 1033.13 386.599 1032.07 C 385.363 1024.3 384.61 1020.31 382.402 1012.8 C 421.067 1013.79 419.958 1006.96 452.435 1001.5 L 453.829 1001.28 z" fill="rgb(0,0,0)" transform="translate(0,0)"></path>
<path d="M 1594.09 1009.99 C 1601.18 1007.15 1654.92 1008.51 1663.82 1011.64 C 1665.5 1019 1662.64 1035.24 1654.07 1037.39 C 1642.81 1037.5 1564.8 1038.89 1582.83 1012.5 C 1586.3 1010.04 1589.71 1010.32 1594.09 1009.99 z" fill="rgb(0,0,0)" transform="translate(0,0)"></path>
<path d="M 1472.09 693.411 C 1478.17 695.584 1471.56 704.878 1471.08 709.352 C 1468.18 749.736 1462.24 752.789 1426.85 774.868 C 1421.19 778.394 1397.62 764.976 1391.19 760.389 C 1371.91 727.147 1426.47 750.091 1437.56 756.118 C 1445.19 743.732 1455.06 732.899 1462.01 720.38 C 1466.34 712.584 1467.87 702.039 1472.09 693.411 z" fill="rgb(0,0,0)" transform="translate(0,0)"></path>
<path d="M 637.138 748.399 C 669.525 747.08 646.551 779.386 618.823 778.549 C 611.413 772.149 603.561 766.32 595.771 760.389 C 609.156 754.116 622.377 749.601 637.138 748.399 z" fill="rgb(0,0,0)" transform="translate(0,0)"></path>
<metadata><recraft-signature>{"signed_by": "recraft", "signature_b64": "RmH69niPgzojThOo+cl2sHCI+pQvQFUSqEW7hxga5bo672qi1d1k/GdQIxayLbillsneN9ALEZyMKl3wr1C+Bw==", "signing_algo": "Ed25519", "generation_timestamp": 1772988318, "identifier": "7a21b434-3c78-45f9-b50f-9e38ccf83293"}</recraft-signature></metadata></svg>