<svg xmlns="http://www.w3.org/2000/svg" height="512" preserveAspectRatio="none" style="display: block;" version="1.1" viewBox="0 0 2048 2048" width="512">
<path d="M 373.437 494.011 C 387.022 493.013 414.877 493.96 429.644 493.971 L 1581.34 493.975 C 1641.63 493.967 1739.55 479.902 1749.08 564.909 C 1751.02 582.2 1750.4 601.231 1750.42 618.731 L 1750.42 1408.6 C 1750.44 1428.2 1751 1448.53 1750.32 1468.03 C 1748.89 1508.71 1711.97 1550.71 1669.18 1548.51 L 426.531 1548.54 C 329.2 1548.61 299.008 1541.01 299.611 1433.31 L 299.526 641.966 C 299.455 580.271 290.464 506.313 373.437 494.011 z M 1669.18 1497.01 C 1689.4 1488.87 1698.11 1474.87 1698.11 1453.91 L 1698.08 709.714 C 1698.08 666.738 1699.73 623.196 1697.88 580.317 C 1697.19 564.388 1694.62 554.166 1678.52 547.29 C 1670.16 543.721 1438.56 545.856 1407.42 545.857 L 464.786 545.848 C 437.559 545.847 402.905 544.706 376.559 545.854 C 359.151 549.722 348.609 559.051 348.561 577.155 L 348.989 1416.82 C 348.888 1514.07 350.378 1497.02 440.513 1497.03 L 1641.37 1497.13 C 1647.86 1497.2 1663.62 1498.04 1669.18 1497.01 z" fill="rgb(0,0,0)" transform="translate(0,0)"></path>
<path d="M 1091.47 718.448 C 1114.23 719.431 1144.64 718.469 1168 718.448 L 1168 978.537 C 1153.52 978.97 1135.43 978.806 1121.01 978.537 C 1119.5 960.378 1120.77 942.336 1120.93 924.074 L 1121.01 834.59 C 1120.77 820.422 1120.5 807.001 1121.01 792.841 C 1116.64 805.475 1112.78 821.479 1109.25 834.589 L 1086.33 919.683 C 1081.16 938.827 1075.91 960.084 1069.18 978.537 L 1021.98 978.537 C 1009.13 920.779 987.865 849.439 970.629 792.841 L 970.631 911.345 C 970.603 933.24 969.564 956.945 970.629 978.537 C 954.333 978.91 938.009 978.088 922.028 978.537 L 922.028 718.448 C 940.977 719.662 976.479 718.507 996.759 718.448 L 1020.14 803.765 C 1029.17 835.597 1038.72 866.741 1045.89 899.082 C 1061.39 844.876 1081.77 774.12 1091.47 718.448 z" fill="rgb(0,0,0)" transform="translate(0,0)"></path>
<path d="M 1349 718.448 C 1439.2 718.476 1531.6 717.279 1621.59 718.448 L 1621.59 763.88 C 1599.43 763.913 1561.68 762.464 1541.49 763.88 L 1541.48 906.406 C 1541.48 928.377 1540.47 957.508 1541.49 978.537 L 1493.16 978.537 C 1492.53 960.447 1493.12 939.011 1493.12 920.581 L 1493.16 806.592 C 1493 792.253 1493.01 778.22 1493.16 763.88 L 1388.43 763.88 C 1390.61 833.796 1386.81 908.276 1388.43 978.537 C 1373.22 978.919 1356.45 978.487 1341.02 978.537 L 1341.02 763.88 L 1259.01 763.88 L 1259.01 718.448 L 1349 718.448 z" fill="rgb(0,0,0)" transform="translate(0,0)"></path>
<path d="M 754.993 718.448 L 799.32 718.448 C 811.57 752.441 827.229 789.749 840.886 823.339 L 904.211 978.537 C 887.817 977.842 866.321 978.513 849.456 978.537 C 842.698 961.741 828.83 930.713 825.341 914.49 C 816.901 914.238 807.812 914.449 799.32 914.49 L 724.983 914.49 C 716.802 935.964 706.583 957.132 698.067 978.537 C 681.114 978.882 663.652 978.376 646.607 978.537 C 650.041 966.69 658.554 947.702 663.403 935.616 L 698.774 848.453 C 715.804 807.204 731.524 756.327 754.993 718.448 z M 741.981 869.995 L 776.5 869.995 L 807.096 869.995 C 805.302 865.416 773.741 780.213 776.5 783.686 C 768.25 797.406 763.667 812.038 758.08 827.061 L 741.981 869.995 z" fill="rgb(0,0,0)" transform="translate(0,0)"></path>
<path d="M 529.167 714.379 C 582.567 707.498 636.355 739.505 637.136 796.948 C 620.109 797.22 602.728 796.997 585.673 796.948 C 573.726 731.412 494.522 753.399 496.978 786.292 C 500.531 831.803 613.825 811.131 635.719 873.233 C 658.889 938.955 607.79 985.664 543.367 984.998 L 540.058 985.049 C 479.953 985.579 439.304 952.421 439.492 890.698 L 489.323 890.698 C 490.395 904.553 489.751 914.778 501.277 924.708 C 550.913 972.743 649.316 891.794 547.732 870.729 C 520.038 864.986 492.221 858.026 470.168 841.769 C 414.311 800.592 451.277 722.905 529.167 714.379 z" fill="rgb(0,0,0)" transform="translate(0,0)"></path>
<path d="M 1255.39 1162.39 C 1281.02 1162.87 1292.81 1167.62 1309.04 1187.91 C 1308.93 1180.27 1309 1172.65 1309.04 1165 L 1349 1165 L 1349.05 1263.1 C 1349.08 1282.32 1349.57 1301.15 1348.31 1320.35 C 1343.96 1386.51 1252.85 1398.43 1217.75 1353.95 C 1211.6 1344.03 1210.68 1340.37 1207.92 1329.1 L 1249.75 1329.1 C 1258.35 1346.93 1279.81 1351.18 1295.45 1338.78 C 1305 1331.23 1302.73 1309.9 1303.02 1297.98 C 1297.85 1303.8 1291.5 1310.75 1283.5 1312.67 C 1189.06 1335.41 1165.8 1187.14 1255.39 1162.39 z M 1278.45 1278.96 C 1319.37 1267.2 1309.55 1197.75 1269 1199.07 C 1233.16 1209.34 1228.46 1279.83 1278.45 1278.96 z" fill="rgb(0,0,0)" transform="translate(0,0)"></path>
<path d="M 1060.01 1110.99 L 1096.6 1110.99 C 1096.6 1180.05 1097.89 1253.31 1096.6 1321.98 L 1056.6 1321.98 C 1055.86 1318.42 1053.19 1310.28 1052.05 1306.48 C 1040.11 1328.43 1013.69 1324.42 993.018 1321.98 C 941.922 1299.13 934.494 1218.66 963.603 1184.37 C 985.535 1158.54 1026.09 1154.67 1052.05 1176.28 C 1051.64 1158.87 1043.39 1112.15 1060.01 1110.99 z M 1025.27 1289.5 C 1072.27 1285.98 1062.14 1187.74 1021.98 1199.07 C 980.391 1201.84 979.33 1290.2 1025.27 1289.5 z" fill="rgb(0,0,0)" transform="translate(0,0)"></path>
<path d="M 1453.81 1162.39 C 1477.74 1161.88 1498.03 1164.08 1510.12 1187.91 C 1522.41 1171.81 1536.18 1162.83 1557.25 1162.48 C 1611.61 1161.58 1607.57 1206.44 1607.61 1245.03 L 1607.6 1321.98 L 1562.7 1321.98 C 1562.45 1291.1 1574.65 1214.49 1547.73 1199.07 C 1519.37 1197.91 1517.62 1211.34 1517.54 1237.25 C 1517.48 1257.48 1517.5 1277.74 1517.52 1297.98 C 1517.08 1305.33 1517.43 1314.48 1517.52 1321.98 L 1472.2 1321.98 C 1471.78 1303.58 1477.47 1216.45 1466.18 1204.09 C 1459.56 1196.52 1441.5 1196.81 1434.99 1204.19 C 1424.6 1215.99 1427.38 1242.73 1427.4 1258.08 L 1427.51 1321.98 C 1412.81 1322.26 1397.31 1321.99 1382.55 1321.98 C 1381.99 1304.93 1382.52 1284.64 1382.52 1267.35 L 1382.55 1165 L 1421.79 1165 C 1422.24 1171.65 1422.11 1175.37 1421.79 1181.97 C 1432.05 1169.6 1439.22 1166.95 1453.81 1162.39 z" fill="rgb(0,0,0)" transform="translate(0,0)"></path>
<path d="M 664.2 1162.49 C 708.917 1155.72 750.59 1186.67 757.048 1231.43 C 763.506 1276.19 732.279 1317.65 687.473 1323.8 C 643.102 1329.89 602.131 1299.03 595.736 1254.7 C 589.34 1210.37 619.917 1169.19 664.2 1162.49 z M 683.045 1289.5 C 728.416 1269.16 717.608 1192.33 670.777 1199.07 C 627.078 1210.25 635.103 1292.88 683.045 1289.5 z" fill="rgb(0,0,0)" transform="translate(0,0)"></path>
<path d="M 859.861 1162.39 C 916.719 1154.63 920.879 1199.72 921.87 1241.93 C 922.496 1268.6 921.654 1295.32 922.028 1321.98 L 878.147 1321.98 C 876.653 1293.63 897.528 1167.67 835.756 1202.79 C 821.791 1214.92 825.218 1247.7 825.268 1265.47 L 825.341 1321.98 L 781.85 1321.98 C 780.617 1272.24 781.543 1215.08 781.85 1165 L 825.341 1165 C 825.494 1170.54 825.367 1176.4 825.341 1181.97 C 834.128 1166.71 843.353 1164.56 859.861 1162.39 z" fill="rgb(0,0,0)" transform="translate(0,0)"></path>
<path d="M 499.284 1162.39 C 536.923 1157.86 567.096 1167.79 574.027 1207.62 C 506.436 1214.5 546.042 1209.55 516.912 1188.71 L 515.77 1187.91 C 497.273 1189.75 471.931 1204.2 501.796 1214.94 C 521.153 1221.91 542.967 1224.61 560.217 1236.63 C 603.775 1266.98 572.129 1317.84 515.77 1325.01 C 470.928 1326.27 447.775 1310.3 443.58 1266.1 C 458.769 1265.85 474.166 1265.41 489.323 1266.1 C 490.063 1319.86 552.267 1280.02 530.849 1268.14 C 502.102 1252.74 449.029 1255.31 446.48 1212.3 C 444.543 1179.61 470.491 1163.58 499.284 1162.39 z" fill="rgb(0,0,0)" transform="translate(0,0)"></path>
<path d="M 1129.98 1165 L 1174.29 1165 C 1175.05 1182.73 1174.31 1206.06 1174.3 1224.18 L 1174.29 1321.98 C 1164.6 1322.82 1140.74 1322.02 1129.98 1321.98 C 1129.54 1271.76 1128.92 1214.99 1129.98 1165 z" fill="rgb(0,0,0)" transform="translate(0,0)"></path>
<path d="M 1129.98 1110.99 C 1144.17 1110.06 1159.99 1110.7 1174.29 1110.99 L 1174.29 1145.62 L 1129.98 1145.62 C 1128.75 1131.84 1129.02 1124.68 1129.98 1110.99 z" fill="rgb(0,0,0)" transform="translate(0,0)"></path>
<metadata><recraft-signature>{"signed_by": "recraft", "signature_b64": "2Ro/fu4e5MiF9OT/2wfMR988FRcid+MO9uUNoRGS/197mNxbBs0ClkM3ArENUPupOExt5sqxALKIQDqRTfRXCA==", "signing_algo": "Ed25519", "generation_timestamp": 1773000344, "identifier": "ddd2fc77-4551-46f1-a0aa-789d4538006e"}</recraft-signature></metadata></svg>