<svg xmlns="http://www.w3.org/2000/svg" height="512" preserveAspectRatio="none" style="display: block;" version="1.1" viewBox="0 0 2048 2048" width="512">
<path d="M 333.819 721.003 C 356.462 719.643 393.024 720.958 417.07 720.971 L 1653.05 720.977 C 1677.59 720.963 1702.54 720.478 1726.96 721.964 C 1794.26 725.853 1850.69 792.012 1856.46 856.862 C 1858.44 879.177 1857.7 903.804 1857.69 926.427 L 1857.76 1140.38 C 1857.8 1160.66 1858.98 1183.08 1855.73 1202.96 C 1839.97 1299.45 1765.22 1321.14 1683.04 1321.12 L 668.791 1321.12 C 651.712 1321.13 647.097 1302.42 656.901 1290.64 C 665.058 1280.83 756.749 1285.05 771.864 1285.05 L 1483.66 1285.04 L 1641.4 1285.04 C 1692.17 1285.04 1748.93 1293.17 1788.69 1254.77 C 1830.32 1214.55 1821.14 1149.51 1821.11 1096.76 L 1821.15 901.684 C 1821.99 817.879 1792.76 758.802 1695.46 758.61 L 388.532 758.453 C 312.298 758.128 231.6 768.094 230.913 869.921 L 230.996 1151.22 C 230.912 1252.67 272.198 1285.02 370.708 1285.07 L 431.054 1285.04 L 431.054 1321.09 C 375.107 1324.55 298.864 1326.62 253.981 1293.1 C 189.914 1245.26 193.651 1191.4 193.725 1120.44 L 193.735 909.73 C 193.4 809.561 216.91 736.847 333.819 721.003 z" fill="rgb(0,0,0)" transform="translate(0,0)"></path>
<path d="M 694.806 910.062 C 747.803 902.995 746.484 949.669 752.278 988.218 L 764.425 1065.39 C 765.271 1070.51 765.999 1083.65 769.506 1086.57 C 783.185 1062.99 783.344 960.826 797.456 928.814 C 811.096 897.875 871.161 902.363 876.069 938.408 C 879.041 957.841 878.124 974.378 878.072 993.165 L 877.842 1061.8 C 877.878 1082.28 886.9 1126.77 860.18 1133.52 C 829.194 1142.24 836.901 1088.72 836.916 1072.85 L 837.104 979.491 C 837.187 971.363 838.6 953.762 837.008 947.102 C 825.509 953.664 809.59 1074.8 806.11 1092.04 C 794.611 1148.97 741.835 1154.82 731.683 1085.69 C 729.252 1069.14 712.964 953.738 703.728 947.732 C 695.7 959.224 709.024 1099.57 699.988 1121.41 C 690.852 1143.48 661.036 1135.06 660.687 1111.35 C 659.899 1057.94 658.954 1004.4 660.998 951.086 C 661.872 928.266 672.347 914.415 694.806 910.062 z" fill="rgb(0,0,0)" transform="translate(0,0)"></path>
<path d="M 1229.13 910.062 C 1320.07 913.915 1309.33 952.799 1312.05 1018.62 C 1314.18 1070.26 1313.57 1127.21 1247.25 1132.88 C 1172.83 1133.12 1161.09 1149.58 1161.23 1077.77 L 1161.15 965.684 C 1161.16 900.376 1165.98 909.741 1229.13 910.062 z M 1203.51 1097 C 1221.82 1097.21 1241.54 1099.63 1257.29 1089.97 C 1276.68 1071.13 1270.13 999.971 1267.92 974.315 C 1265.07 941.241 1227.64 944.971 1203.51 947.102 L 1202.14 947.544 C 1201.41 952.35 1203.11 957.665 1203.27 962.555 C 1204.71 1007.14 1202.37 1052.49 1203.51 1097 z" fill="rgb(0,0,0)" transform="translate(0,0)"></path>
<path d="M 546.828 910.062 C 567.839 904.684 592.149 922.345 597.279 943.332 C 605.195 975.721 635.767 1089.98 634.945 1120.17 C 610.217 1160.78 594.23 1116.62 588.153 1092 C 580.398 1091.34 567.673 1091.88 559.5 1092 L 514.093 1092 C 508.651 1104.17 509.66 1128.47 493.985 1132.92 C 482.425 1136.19 469.638 1130.64 467.2 1118.37 C 465.48 1109.72 497.782 961.889 502.041 946.222 C 508.727 921.627 520.759 912.197 546.828 910.062 z M 519.479 1058.01 L 555.5 1058.01 L 581.779 1058.01 C 577.702 1037.24 567.109 945.741 546.828 947.102 C 534.489 956.605 522.3 1040.76 519.479 1058.01 z" fill="rgb(0,0,0)" transform="translate(0,0)"></path>
<path d="M 1500.67 907 C 1551.3 891.299 1622.16 968.012 1562.08 985.824 C 1555.27 983.763 1553.68 983.269 1547.33 979.746 C 1534.08 958.513 1536.99 934.318 1496.45 945.792 C 1466.88 954.16 1479.17 1028.15 1478.31 1056.06 C 1477.44 1084.25 1483.86 1100.72 1515.93 1098.27 C 1548.45 1095.77 1548.56 1080.27 1547.33 1052.26 C 1534.12 1053.19 1525.67 1054.42 1513.59 1048 C 1506.73 1038.43 1505.78 1032.22 1509.46 1021.24 C 1517.92 1010.67 1573.92 1004.37 1589.37 1026.61 C 1589.29 1054.45 1594.88 1091.49 1575.25 1112.24 C 1539.59 1152.11 1430.95 1142.75 1434.69 1074.63 C 1438.05 1013.32 1410.96 912.004 1500.67 907 z" fill="rgb(0,0,0)" transform="translate(0,0)"></path>
<path d="M 364.497 907 C 485.503 892.156 435.738 1041.5 403.141 954.171 C 394.869 932.014 346.652 938.365 343.091 962.774 C 337.559 1000.7 411.784 999.703 438.117 1034.78 C 469.328 1075.31 432.831 1144.25 376.25 1132.88 C 308.599 1141.51 276.541 1060.19 319.37 1053.91 C 343.053 1053.5 333.84 1082.24 351.539 1094.85 C 366.22 1105.31 395.429 1103.29 404.43 1086.85 C 432.472 1035.63 315.971 1038.8 305.594 984.846 C 298.435 936.604 321.696 916.161 364.497 907 z" fill="rgb(0,0,0)" transform="translate(0,0)"></path>
<path d="M 917.846 910.062 C 939.171 909.093 962.371 910.415 983.927 909.955 C 1000.1 911.58 1062.77 900.746 1051.29 935.554 C 1045.88 951.944 1011.19 947.455 997.997 947.102 L 997.997 1092 C 998.276 1101.73 998.897 1112.6 997.997 1122.19 C 985.445 1136.69 956.577 1139.82 954.727 1115.89 C 953.348 1098.05 954.001 1078.34 954.001 1060.33 L 954.062 947.102 C 940.445 947.163 925.725 947.686 912.234 947.102 C 896.673 934.443 896.868 915.764 917.846 910.062 z" fill="rgb(0,0,0)" transform="translate(0,0)"></path>
<path d="M 1620.78 910.062 L 1685.35 909.933 C 1698.47 909.927 1755.31 903.347 1733.07 940.251 C 1728.14 948.437 1702.14 946.935 1691.33 947.102 L 1691.33 1106.55 L 1691.33 1122.19 C 1678.59 1137.24 1663.38 1139.63 1651.59 1122.19 C 1651.52 1121.84 1651.44 1121.5 1651.37 1121.15 L 1651.04 1119.41 C 1644.01 1083.37 1649.79 987.606 1649.36 947.102 C 1639.82 947.112 1617.11 948.718 1610.71 944.384 C 1593.23 932.544 1602.95 914.194 1620.78 910.062 z" fill="rgb(0,0,0)" transform="translate(0,0)"></path>
<path d="M 1089.34 910.062 C 1118.19 908.452 1118.05 920.349 1118.01 944.549 C 1117.91 1001.09 1118.47 1057.69 1117.67 1114.23 C 1117.52 1125.37 1113.81 1129.87 1103.55 1132.88 C 1092.23 1133.6 1088.74 1133.3 1079.25 1127.51 C 1072.21 1114.51 1074.84 1096.28 1074.88 1081.5 L 1075.04 929.214 C 1075.1 919.306 1080.29 913.321 1089.34 910.062 z" fill="rgb(0,0,0)" transform="translate(0,0)"></path>
<path d="M 1372.07 910.062 C 1392.22 909.649 1393.57 924.228 1394.29 940.084 C 1395.18 959.484 1396.28 1114.15 1392.64 1121.24 C 1389.05 1128.25 1382.33 1130.46 1375.4 1132.88 C 1351.28 1133.87 1351.58 1117.91 1351.77 1099.24 C 1352.34 1044.68 1351.58 990.063 1352.02 935.511 C 1352.15 919.168 1355.67 912.567 1372.07 910.062 z" fill="rgb(0,0,0)" transform="translate(0,0)"></path>
<path d="M 597.576 1287.76 C 606.754 1284.72 616.678 1289.59 619.892 1298.7 C 623.105 1307.82 618.426 1317.84 609.369 1321.22 C 603.357 1323.47 596.601 1322.29 591.701 1318.15 C 586.801 1314 584.521 1307.53 585.74 1301.23 C 586.958 1294.93 591.485 1289.78 597.576 1287.76 z" fill="rgb(0,0,0)" transform="translate(0,0)"></path>
<path d="M 476.444 1287.53 C 485.646 1285.43 494.862 1290.99 497.286 1300.11 C 499.711 1309.24 494.474 1318.64 485.441 1321.38 C 479.31 1323.25 472.652 1321.61 468.078 1317.13 C 463.504 1312.64 461.743 1306.01 463.486 1299.85 C 465.229 1293.68 470.198 1288.96 476.444 1287.53 z" fill="rgb(0,0,0)" transform="translate(0,0)"></path>
<path d="M 537.66 1287.79 C 543.702 1285.96 550.26 1287.53 554.828 1291.89 C 559.395 1296.24 561.266 1302.72 559.725 1308.84 C 558.185 1314.96 553.471 1319.78 547.385 1321.46 C 538.136 1324.01 528.557 1318.65 525.895 1309.43 C 523.233 1300.21 528.476 1290.57 537.66 1287.79 z" fill="rgb(0,0,0)" transform="translate(0,0)"></path>
<metadata><recraft-signature>{"signed_by": "recraft", "signature_b64": "cL0aJpHL763V8hBu8gOD/anAEbAQUCYmNx3fHu0LbraQpm8Blywq8bsW6N+2/MUNRS0TdhxTPbXwqMPkldTrCA==", "signing_algo": "Ed25519", "generation_timestamp": 1773000326, "identifier": "5ceab100-adad-4dc3-a590-969aaafc1c99"}</recraft-signature></metadata></svg>