<svg xmlns="http://www.w3.org/2000/svg" height="512" preserveAspectRatio="none" style="display: block;" version="1.1" viewBox="0 0 2048 2048" width="512">
<path d="M 514.309 282.108 C 533.611 281.281 559.406 282.094 579.323 282.097 L 1477.59 282.091 C 1497.02 282.094 1515.59 282.25 1535.19 283.113 C 1604.61 286.168 1641.11 410.061 1511.99 416.927 C 1509.57 434.329 1511.6 458.114 1511.98 477.023 C 1513.17 537.239 1511.72 585.463 1494.42 643.809 C 1451.05 790.053 1307.21 945.475 1172.35 1019.38 C 1187.9 1032.48 1208.18 1045.45 1224.86 1058.37 C 1353.09 1157.75 1490.45 1294.76 1509.84 1463.15 C 1514.73 1505.64 1513.97 1581.69 1511.99 1626.48 C 1627.75 1622.52 1618.32 1752.48 1534.21 1762 L 551.222 1762.03 C 537.048 1762.02 523.484 1762.31 509.122 1761.33 C 437.411 1756.89 408.615 1633.7 533.488 1626.48 C 533.404 1572.15 530.685 1515.44 539.368 1462.19 C 571.922 1262.51 719.732 1130.07 875.376 1019.38 C 814.77 986.926 721.166 905.371 677.621 856.307 C 606.754 776.459 551.98 679.75 539.146 572.572 C 536.324 549 536.986 524.964 536.98 501.11 L 537.018 416.927 C 512.1 415.246 499.054 418.014 478.087 401.465 C 427.662 361.666 450.793 288.343 514.309 282.108 z M 671.913 1626.48 L 1026.6 1626.48 L 1375.51 1626.48 L 1375.6 1561.97 C 1376.61 1459.93 1368.51 1412.3 1303.47 1325.91 C 1232.45 1231.58 1138.32 1156.68 1036.19 1098.42 C 1032.95 1096.57 1027.28 1093 1023.69 1092.77 C 974.216 1122.65 922.586 1149.38 878.213 1187.09 C 747.033 1298.6 671.721 1381.42 671.823 1554.12 L 671.913 1626.48 z M 734.298 702.941 C 781.847 786.205 930.476 904.389 1023.69 947.169 C 1066 930.098 1166.36 858.438 1197.77 830.196 C 1236.95 798.169 1289.3 746.066 1315.36 702.941 L 734.298 702.941 z M 1375.51 416.927 C 1341.81 415.906 1303.07 416.941 1269.05 416.927 L 671.913 416.927 L 671.826 503.158 C 671.645 523.096 670.487 543.174 671.913 563.001 C 685.627 563.848 700.405 563.158 714.289 563.047 L 779.5 563.001 L 1375.51 563.001 L 1375.51 416.927 z" fill="rgb(0,0,0)" transform="translate(0,0)"></path>
<metadata><recraft-signature>{"signed_by": "recraft", "signature_b64": "GUBznGyGoZjMTwRXcghMMPY5fi+WcwfDnlqT46Q783pB2Hw4J32yXZsYIS92CoGuMQ/JgJVS/1bQf20whoHJBA==", "signing_algo": "Ed25519", "generation_timestamp": 1772989811, "identifier": "4c26dc1f-a076-43b7-8feb-3071ebae4431"}</recraft-signature></metadata></svg>