<svg xmlns="http://www.w3.org/2000/svg" height="512" preserveAspectRatio="none" style="display: block;" version="1.1" viewBox="0 0 2048 2048" width="512">
<path d="M 1560.78 351.976 L 1570.35 351.615 C 1658.24 348.289 1742.92 415.238 1743.26 505.72 L 1743.12 1581.75 C 1743.18 1616.21 1747.68 1644.19 1722 1671.01 C 1676.29 1719.47 1592.66 1692.13 1585.58 1625.66 C 1583.24 1603.64 1584.72 1577.13 1584.71 1554.68 L 1584.71 928.003 L 486.75 928.003 C 479.704 928.221 472.098 928.042 465.001 928.003 L 465.012 1554.22 C 465.032 1568.97 464.463 1588.06 465.089 1602.69 C 470.227 1722.77 304.99 1723.01 304.648 1607.58 L 304.806 536.354 C 304.828 480.901 309.559 443.195 351.606 400.604 C 410.646 340.801 479.077 351.939 555.483 351.985 L 1560.78 351.976 z M 465.001 767.334 L 1584.71 767.334 C 1586.11 763.861 1584.58 536.755 1584.71 513.937 L 465.001 513.937 L 465.001 767.334 z" fill="rgb(0,0,0)" transform="translate(0,0)"></path>
<metadata><recraft-signature>{"signed_by": "recraft", "signature_b64": "94MPFFhj44uyBMXHMuCPkaS6c757Mq6lxWLobL5+82oZdAIm79Rb1OK1Nm+cy2fAAIFmAjNef7NMxXmz4bkWDA==", "signing_algo": "Ed25519", "generation_timestamp": 1773000581, "identifier": "db5beeb7-63b0-4ef0-af26-d92863b57782"}</recraft-signature></metadata></svg>