<svg xmlns="http://www.w3.org/2000/svg" height="512" preserveAspectRatio="none" style="display: block;" version="1.1" viewBox="0 0 2048 2048" width="512">
<path d="M 1201.88 740.748 C 1210.46 739.692 1235.79 740.672 1245.92 740.71 L 1630.01 740.772 C 1733.01 739.202 1736.95 897.333 1626.92 893.256 C 1603.69 892.396 1577.55 893.195 1555.2 893.18 L 1257.28 893.17 C 1170.91 893.23 1188.83 915.511 1189.01 992.878 L 1188.9 1131.08 C 1188.83 1189.9 1209.17 1183.19 1258.75 1182.99 L 1389.36 1183 C 1488.28 1182.93 1571.79 1176.27 1627.57 1278.62 C 1649.7 1319.22 1647 1359.94 1647.01 1404.27 L 1646.97 1498.25 L 1646.94 1681.58 C 1646.94 1712.63 1648.12 1745.14 1646.43 1775.82 C 1643.57 1827.75 1588.52 1862.85 1540.43 1841.7 C 1480.16 1815.19 1492.75 1754.25 1492.77 1700.26 L 1492.81 1490.41 C 1492.82 1451.33 1492.84 1412.59 1492.08 1373.52 C 1491.19 1327.81 1447.14 1336.89 1413.44 1336.96 L 1294.73 1337.03 C 1221.26 1337.03 1158 1343.04 1098.57 1290.59 C 1017.34 1218.88 1034.01 1121.64 1034.04 1024.17 L 1033.99 956.698 C 1033.98 929.931 1032.88 906.025 1038.95 879.572 C 1056.07 805.097 1124.93 744.912 1201.88 740.748 z" fill="rgb(0,0,0)" transform="translate(0,0)"></path>
<path d="M 800.796 866.529 C 818.721 866.758 837.04 866.53 854.999 866.529 C 854.435 883.458 854.939 903.028 854.947 920.21 L 854.999 1024.33 C 820.129 1025.43 795.7 1023.47 760.04 1031.29 C 475.571 1093.66 402.644 1480.58 655.365 1637.8 C 831.396 1746.93 1023.85 1674.8 1128.55 1509.53 C 1183.78 1509.41 1243.39 1510.64 1298.32 1509.53 C 1262.87 1577.52 1251.21 1608.7 1201.88 1673.15 C 1184.71 1689.82 1172.63 1704.93 1153.69 1721.45 C 866.286 1974.28 402.038 1814.94 347.881 1428.21 C 312.397 1174.83 467.539 944.932 713.916 880.452 C 743.576 872.782 770.777 870.806 800.796 866.529 z" fill="rgb(0,0,0)" transform="translate(0,0)"></path>
<path d="M 1299.18 197.097 C 1427.63 188.704 1538.61 285.903 1547.23 414.334 C 1555.85 542.766 1458.85 653.924 1330.44 662.771 C 1201.7 671.64 1090.2 574.342 1081.56 445.588 C 1072.92 316.835 1170.41 205.51 1299.18 197.097 z" fill="rgb(0,0,0)" transform="translate(0,0)"></path>
<metadata><recraft-signature>{"signed_by": "recraft", "signature_b64": "vxZ7peZJdcsVQsdgN65PLhigat+DE9KZDHGWXH3Pb+YFXkDi9aYIrLwJwOeGWCyul9fltnau2XIhsyGD//mKDw==", "signing_algo": "Ed25519", "generation_timestamp": 1772998362, "identifier": "7ee76e55-7f27-451d-a68f-714edb419bbc"}</recraft-signature></metadata></svg>