<svg xmlns="http://www.w3.org/2000/svg" height="512" preserveAspectRatio="none" style="display: block;" version="1.1" viewBox="0 0 2048 2048" width="512">
<path d="M 1664.88 562.998 L 1721.59 562.803 C 1781.07 562.185 1802.45 566.581 1802.61 632.417 L 1801.95 1431.72 C 1801.69 1492.22 1757.85 1483.11 1710.85 1482.97 L 386.5 1482.93 L 313.982 1482.99 C 279.464 1483.07 244.904 1484.72 244.976 1440.08 L 244.991 638.44 C 244.94 559.574 268.298 562.63 339.954 562.972 L 1664.88 562.998 z M 298.026 615.73 C 298.672 634.077 298.102 652.164 298.041 670.499 L 298.115 1383.65 C 298.216 1399.68 298.819 1414.94 298.026 1430.98 L 969.5 1430.98 L 1489.43 1430.98 C 1575.33 1430.97 1663.86 1429.87 1749.53 1430.98 L 1749.53 615.73 C 1727.57 614.8 1698.99 615.72 1676.45 615.726 L 1081.6 615.73 L 322.48 615.804 C 316.477 615.822 303.509 616.299 298.026 615.73 z" fill="rgb(1,1,1)" transform="translate(0,0)"></path>
<path d="M 1317.01 821.705 C 1358.65 824.812 1406.37 810.544 1439.92 842.772 C 1474.69 876.168 1477.48 940.389 1444.21 975.735 C 1411.76 1006.65 1360.23 1002.1 1317.01 999.999 C 1312.71 953.882 1315.68 868.914 1317.01 821.705 z M 1358.34 966.01 C 1380.36 965.081 1396.23 966.267 1414.68 952.325 C 1431.58 917.515 1432.85 862.121 1383.56 858.688 C 1375.53 858.129 1366.8 858.211 1358.34 858.255 C 1356.87 889.434 1358.37 933.475 1358.34 966.01 z" fill="rgb(1,1,1)" transform="translate(0,0)"></path>
<path d="M 798.733 821.705 C 843.309 820.428 889.914 834.199 873.794 891.808 C 868.742 909.86 856.28 915.921 841.332 924.195 C 852.294 946.416 874.868 976.461 888.732 999.999 C 873.433 998.788 856.729 999.559 841.332 999.999 L 819.408 966.01 C 813.126 955.355 803.258 937.498 794.976 929.058 C 788.28 927.761 780.408 928.234 773.67 929.058 C 773.347 952.43 773.625 976.58 773.67 999.999 C 759.655 999.665 747.302 999.588 733.301 999.999 C 732.666 940.988 733.353 880.825 733.301 821.705 L 798.733 821.705 z M 830.844 888.67 C 854.091 851.674 793.633 854.533 773.67 854.878 C 773.073 868.249 772.461 880.58 773.67 893.998 C 790.113 894.184 817.167 896.753 830.844 888.67 z" fill="rgb(1,1,1)" transform="translate(0,0)"></path>
<path d="M 1544.05 821.705 C 1547.02 822.505 1579.18 821.724 1585 821.705 C 1590.44 872.237 1637.67 945.732 1652.53 999.999 C 1638.24 1000.26 1623.42 1000.03 1609.08 999.999 C 1603.8 988.022 1599.92 975.423 1595.83 962.99 L 1585 962.99 L 1530.84 962.99 C 1524 975.331 1520.75 986.683 1516.2 999.999 C 1502.6 1000.75 1487.3 999.941 1473.41 999.999 C 1486.81 954.903 1521.48 863.49 1544.05 821.705 z M 1538.93 931.512 C 1546.7 931.587 1554.31 931.647 1562.07 931.512 L 1585 931.512 C 1582.14 922.741 1565.97 873.52 1562.07 868.552 C 1555.65 879.993 1544.33 916.82 1538.93 931.512 z" fill="rgb(1,1,1)" transform="translate(0,0)"></path>
<path d="M 1021.14 821.705 L 1065.98 821.705 C 1051.58 841.273 1014.37 870.957 1003.61 893.998 C 1015.05 925.664 1056.17 968.646 1070.51 999.999 C 1054.45 999.359 1037.3 999.822 1021.14 999.999 C 1011.81 982.222 985.074 940.958 973.185 924.195 C 970.517 926.523 966.263 929.372 963.282 931.512 L 951.003 947.979 L 951.003 999.999 L 909.073 999.999 L 909.073 821.705 L 951.003 821.705 L 951.003 893.998 C 972.673 877.104 995.239 840.053 1021.14 821.705 z" fill="rgb(1,1,1)" transform="translate(0,0)"></path>
<path d="M 606.251 821.705 C 620.192 822.284 636.554 821.318 651.137 821.705 C 670.563 881.992 697.637 939.865 717.389 999.999 C 705.9 999.045 684.162 999.893 672.011 999.999 C 670.024 991.294 665.802 961.69 656.25 960.038 L 597.586 960.038 C 592.353 972.212 587.971 987.175 583.119 999.999 C 568.197 999.096 556.882 999.135 542.156 999.999 C 565.467 941.46 581.963 879.851 606.251 821.705 z M 606.251 929.058 L 630.049 929.058 L 651.137 929.058 C 648.405 920.807 630.16 864.368 627.596 861.76 C 620.388 884.091 612.967 906.588 606.251 929.058 z" fill="rgb(1,1,1)" transform="translate(0,0)"></path>
<path d="M 445.8 819 C 488.953 817.676 517.836 825.499 527.594 872.495 C 505.396 872.618 497.691 879.094 487.225 864.826 C 464.016 833.186 397.034 867.606 456.266 886.247 C 486.213 895.672 530.202 901.134 533.475 940.729 C 536.859 982.91 507.782 1000.24 469.649 1002.97 C 425.786 1002.89 397.242 990.054 391.355 942.005 C 401.902 941.416 417.384 941.94 428.309 942.005 C 438.33 975.241 496.016 985.061 494.737 942.005 C 469.429 924.971 400.358 924.054 395.026 885.349 C 389.264 843.518 408.849 826.405 445.8 819 z" fill="rgb(1,1,1)" transform="translate(0,0)"></path>
<path d="M 1166.02 821.705 C 1178.86 821.235 1193.93 821.648 1206.94 821.705 C 1205.59 840.757 1206.62 861.799 1206.82 881.07 L 1206.94 966.01 L 1290.99 966.01 C 1291.07 977.343 1291.2 988.667 1290.99 999.999 C 1251.29 1002.92 1206.34 999.993 1166.02 999.999 L 1166.02 821.705 z" fill="rgb(1,1,1)" transform="translate(0,0)"></path>
<path d="M 1572.49 1114.44 C 1649.48 1108.15 1662.3 1160.7 1614.59 1181.01 C 1622.78 1192.21 1637.34 1215.89 1643.25 1227.99 C 1631.88 1228.45 1626.16 1228.71 1614.59 1227.99 C 1610.98 1223.84 1608.21 1220.8 1605.12 1216.2 C 1600.14 1207.12 1591.47 1190.54 1585 1183.5 L 1572.49 1183.5 L 1572.49 1227.99 C 1563 1228.25 1553.54 1228.09 1544.05 1227.99 C 1543.01 1191.95 1544.02 1150.85 1544.05 1114.44 C 1553.26 1113.96 1563.31 1113.86 1572.49 1114.44 z M 1572.49 1161 C 1583.03 1161.15 1600 1162.57 1609.08 1158.42 C 1622.44 1130.97 1588.52 1137.07 1572.49 1137 C 1572.55 1144.76 1572.8 1153.31 1572.49 1161 z" fill="rgb(1,1,1)" transform="translate(0,0)"></path>
<path d="M 1342.15 1114.44 C 1370.67 1109.28 1403.4 1114.08 1407.01 1148.97 C 1398.43 1149.07 1389.59 1149.07 1381.01 1148.97 C 1372.92 1135.1 1361.27 1131.81 1345.84 1137.23 C 1310.98 1149.44 1323.15 1228.08 1381.01 1199.84 L 1381.01 1183.5 C 1373.13 1183.17 1363.31 1183.61 1355.03 1183.5 L 1355.03 1167.76 L 1355.41 1166.05 C 1358.96 1164 1399.76 1164.89 1407.01 1164.92 C 1406.94 1179.76 1407.69 1194.56 1407.01 1209.38 C 1374.55 1243.97 1307.24 1235.29 1299.21 1183.07 C 1294.31 1151.24 1308.7 1118.89 1342.15 1114.44 z" fill="rgb(1,1,1)" transform="translate(0,0)"></path>
<path d="M 1093.92 821.705 C 1105.37 821.296 1115.5 821.456 1126.94 821.705 L 1127.03 943.312 C 1127.03 951.417 1128.18 995.104 1126.31 999.181 L 1122.4 999.999 C 1109.47 999.703 1097.92 999.645 1085 999.999 L 1084.97 882.252 C 1084.97 864.344 1077 822.107 1093.92 821.705 z" fill="rgb(1,1,1)" transform="translate(0,0)"></path>
<path d="M 765.69 1114.44 C 784.737 1114.41 822.079 1110.67 836.95 1123.22 C 864.57 1146.52 845.612 1187.93 798.733 1187.89 L 782.997 1187.89 C 782.206 1200.28 782.72 1215.51 782.997 1227.99 L 755.021 1227.99 L 755.021 1114.44 L 765.69 1114.44 z M 782.997 1164.92 C 796.144 1166.17 807.578 1168.18 819.408 1161 C 827.955 1133.2 800.697 1138.6 782.997 1138.99 L 782.997 1164.92 z" fill="rgb(1,1,1)" transform="translate(0,0)"></path>
<path d="M 1115.58 1114.44 L 1137.55 1114.44 L 1165.29 1184.09 C 1170.87 1198.03 1178.05 1214 1182.54 1227.99 C 1171.65 1227.67 1162.65 1227.37 1151.75 1227.99 C 1149.77 1220.86 1147.65 1213.86 1145.51 1206.78 C 1141.45 1206.43 1135.47 1206.71 1131.25 1206.78 C 1120.22 1206.15 1112.54 1206.36 1101.58 1206.78 C 1098.63 1213.96 1096.4 1220.63 1093.92 1227.99 C 1084.49 1227.68 1075.4 1227.17 1065.98 1227.99 C 1068.88 1210.97 1098.34 1115.32 1115.58 1114.44 z M 1109.25 1183.5 L 1126.94 1183.5 L 1137.55 1183.5 C 1136.15 1178.83 1124.58 1146.32 1122.4 1144.62 C 1117.85 1156.97 1112.63 1170.77 1109.25 1183.5 z" fill="rgb(1,1,1)" transform="translate(0,0)"></path>
<path d="M 882.44 1114.44 L 912.579 1114.44 C 921.484 1140.48 946.322 1208.18 960.187 1227.99 L 926.383 1227.99 C 923.289 1217.93 924.971 1207.55 912.579 1206.78 L 874.034 1206.78 L 866.135 1227.99 L 837.29 1227.99 C 851.132 1190 867.2 1151.91 882.44 1114.44 z M 882.44 1183.5 C 886.807 1183.54 892.505 1183.76 896.75 1183.5 L 912.579 1183.5 C 910.23 1178.31 897.913 1145.63 896.75 1144.62 C 891.941 1157.28 887.36 1171.21 882.44 1183.5 z" fill="rgb(1,1,1)" transform="translate(0,0)"></path>
<path d="M 1003.61 1114.44 C 1028.83 1102.07 1052.79 1120.75 1058.37 1147 C 1049.33 1146.72 1039.57 1146.21 1030.68 1144.62 C 1028.9 1142.13 1026.1 1139.31 1023.95 1137 C 1015.44 1132.7 992.255 1130.48 990.871 1142.19 C 997.614 1158.1 1034.06 1154.38 1050.59 1168.25 C 1078.9 1192.02 1054.91 1229.53 1011.15 1230.66 C 980.241 1229.92 964.899 1216.99 960.187 1187.89 C 968.918 1188.02 977.203 1188.06 985.93 1187.89 C 992.678 1211.52 1021.48 1215.37 1029.23 1204.47 C 1047.7 1178.48 968.813 1183.7 965.559 1150.83 C 962.798 1122.93 979.674 1114 1003.61 1114.44 z" fill="rgb(1,1,1)" transform="translate(0,0)"></path>
<path d="M 660.503 1114.44 C 688.449 1114.46 735.568 1107.61 736.172 1149.26 C 736.744 1188.76 707.158 1187.44 677.75 1187.89 C 667.594 1188.13 671.904 1218.98 672.011 1227.99 C 663.242 1228.23 653.74 1228.02 644.912 1227.99 C 644.225 1216.97 644.837 1200.59 644.851 1189.09 L 644.912 1114.44 L 660.503 1114.44 z M 672.011 1164.92 C 682.397 1165.05 696.121 1166.31 704.876 1161 C 722.161 1136.27 685.645 1138.78 672.011 1138.99 C 672.658 1148.82 672.731 1155.05 672.011 1164.92 z" fill="rgb(1,1,1)" transform="translate(0,0)"></path>
<path d="M 567.997 1114.44 C 597.68 1107.42 616.134 1120.35 627.596 1147 L 597.586 1147 C 581.649 1120.18 547.602 1145.04 565.363 1149.98 C 600.853 1159.86 646.186 1166.13 619.815 1215.6 C 615.31 1224.04 599.512 1226.84 590.043 1227.99 C 560.837 1230.54 535.234 1227.46 530.022 1192.71 C 540.888 1191.31 545.99 1191.7 556.808 1192.71 C 573.996 1221.23 610.915 1200.19 594.304 1188.9 C 577.449 1177.44 536.146 1182.33 532.815 1151.79 C 531.177 1123.93 544.513 1116.63 567.997 1114.44 z" fill="rgb(1,1,1)" transform="translate(0,0)"></path>
<path d="M 1230.02 1114.44 C 1258.23 1104.56 1289.09 1134.6 1279.85 1148.98 C 1276.3 1149.9 1259.86 1149.01 1255.07 1148.97 C 1246.95 1124.96 1215.39 1133.22 1216.6 1146.98 C 1224.71 1163.42 1279.16 1148.34 1283.35 1189.25 C 1286.35 1218.54 1261.82 1229.11 1237.42 1230.66 C 1207.03 1229.77 1191.21 1218.81 1187.48 1187.89 C 1196.59 1186.83 1205.27 1187.48 1214.41 1187.89 C 1215.08 1191.44 1216.56 1196.25 1217.55 1199.84 C 1241.74 1220.81 1279.65 1193.15 1239.33 1184.59 C 1161.88 1168.15 1186.8 1113.59 1230.02 1114.44 z" fill="rgb(1,1,1)" transform="translate(0,0)"></path>
<path d="M 451.129 1114.44 C 460.389 1114.14 469.573 1114.32 478.832 1114.44 C 491.083 1144.79 511.368 1201.89 527.594 1227.99 C 517.009 1228.4 505.401 1228.08 494.737 1227.99 C 490.596 1213.57 492.153 1206.37 475.75 1206.78 C 463.529 1206.88 450.83 1207.18 438.652 1206.78 C 436.684 1213.79 434.31 1221.02 432.131 1227.99 L 405.098 1227.99 C 412.23 1202.08 438.077 1142.8 451.129 1114.44 z M 451.129 1183.5 L 465.062 1183.5 L 478.832 1183.5 C 477.162 1178.38 467.654 1149.74 465.062 1147 C 457.585 1159.76 453.427 1168.68 451.129 1183.5 z" fill="rgb(1,1,1)" transform="translate(0,0)"></path>
<path d="M 1459.88 1114.44 C 1469.28 1114.06 1476.79 1114.12 1486.2 1114.44 C 1489.65 1125.56 1496.71 1140.43 1501.24 1151.86 L 1530.84 1227.99 L 1500.92 1227.99 C 1497.03 1220.23 1495.59 1208.62 1486.2 1206.78 C 1473.89 1206 1463.8 1206.21 1451.66 1206.78 C 1449.24 1213.93 1446.79 1220.9 1444.21 1227.99 C 1433.05 1227.11 1425.79 1227.4 1414.68 1227.99 C 1420.02 1209.13 1449.99 1130.22 1459.88 1114.44 z M 1459.88 1183.5 L 1475.85 1183.5 L 1486.2 1183.5 C 1481.84 1170.63 1477.31 1157.63 1473.41 1144.62 C 1468.13 1157.83 1463.56 1169.62 1459.88 1183.5 z" fill="rgb(1,1,1)" transform="translate(0,0)"></path>
<metadata><recraft-signature>{"signed_by": "recraft", "signature_b64": "v9V1V0LuL9tOAToac0rrMUrORX2x1fc0lI4laGgGuTiXdwgCOxtOSW4FpmQiUDyhf+HnQ0rPxHjkkzR5iNQ2Aw==", "signing_algo": "Ed25519", "generation_timestamp": 1772998380, "identifier": "0652085c-7a7e-48c2-bef9-3d8e9db03266"}</recraft-signature></metadata></svg>