<svg xmlns="http://www.w3.org/2000/svg" height="512" preserveAspectRatio="none" style="display: block;" version="1.1" viewBox="0 0 2048 2048" width="512">
<path d="M 255.843 709.006 C 264.31 708.126 298.069 708.979 308.301 708.997 L 1660.69 708.991 C 1699.36 708.97 1738.28 708.095 1776.92 709.118 C 1884.64 711.97 1867.1 799.402 1866.99 876.161 L 1867.04 1185.69 C 1867.13 1256.62 1876.48 1313.7 1793.01 1336.99 C 1785.38 1337.99 1756.01 1337.07 1746.18 1337.05 L 371.785 1337.02 C 308.339 1337.01 195.108 1356.62 184.042 1267.77 C 181.15 1244.56 182.578 1218.97 182.583 1195.37 L 182.565 874.82 C 182.565 805.145 164.83 723.507 255.843 709.006 z M 1788.99 1289 C 1835.82 1277.25 1820.97 1199.94 1820.92 1160.51 L 1821.04 809.791 C 1821.17 773.528 1811.78 754.838 1773.14 754.515 L 309.389 753.931 C 296.071 753.89 273.994 752.658 261.993 753.98 C 214.362 760.211 229.106 833.323 229.095 870.167 L 228.984 1185.88 C 228.948 1216.73 217.818 1288.49 264.307 1288.9 L 1710.19 1288.99 C 1734.62 1289.02 1765 1289.98 1788.99 1289 z" fill="rgb(0,0,0)" transform="translate(0,0)"></path>
<path d="M 1350.5 939.998 C 1358.13 939.013 1385.01 939.956 1394.4 939.998 C 1398.01 966.534 1411.19 1012.16 1418.69 1037.84 C 1427.54 1009.27 1436.74 969.127 1443.78 939.998 L 1497.99 939.998 L 1497.99 1109.98 C 1486.46 1110.45 1471.86 1110.01 1460.1 1109.98 C 1460.06 1071.72 1460.66 1033.19 1460.1 995.009 L 1460 994.57 L 1459.24 994.985 C 1450.14 1033.1 1442.91 1071.25 1433.18 1109.98 L 1404 1109.98 C 1393.87 1079.99 1383.31 1013.29 1373.9 991.86 C 1377.39 1027.39 1377.84 1074.06 1376.97 1109.98 L 1337.71 1109.98 C 1336.82 1094.18 1337.66 1069.96 1337.67 1053.31 L 1337.71 939.998 L 1350.5 939.998 z" fill="rgb(0,0,0)" transform="translate(0,0)"></path>
<path d="M 845.799 939.998 C 923.655 924.077 912.818 999.252 913.054 1047.5 C 913.209 1079.32 904.769 1109.3 867.748 1109.98 C 779.172 1126.3 800.393 1034.64 800.169 978.025 C 800.076 954.55 824.359 943.091 845.799 939.998 z M 837.822 1070.76 C 844.446 1079.15 849.013 1081.98 859.988 1080.99 C 863.468 1079.58 868.966 1077.76 870.869 1074.19 C 877.798 1061.17 878.008 993.237 871.29 979.614 C 865.094 971.719 863.458 968.946 852.83 969.238 C 826.361 980.282 837.578 1043.01 837.822 1070.76 z" fill="rgb(0,0,0)" transform="translate(0,0)"></path>
<path d="M 944.714 939.998 C 955.318 940.447 964.527 940.255 975.101 939.998 L 1017.93 1033.59 L 1017.93 939.998 C 1031.41 940.794 1041.95 940.447 1055.49 939.998 L 1055.49 1109.98 L 1037.08 1109.98 L 1017.93 1109.98 C 1002.27 1081.21 983.067 1041.28 972.49 1010.26 C 971.27 1039.52 972.521 1079.78 972.49 1109.98 L 935.967 1109.98 L 935.915 999.586 C 935.869 981.179 927.711 941.182 944.714 939.998 z" fill="rgb(0,0,0)" transform="translate(0,0)"></path>
<path d="M 441.53 939.998 C 460.514 939.559 480.383 939.923 499.432 939.998 C 511.531 996.604 524.579 1053.59 537.619 1109.98 L 499.432 1109.98 C 496.777 1102.4 494.895 1097.03 493.108 1089.26 L 493.108 1080.99 L 452.726 1080.99 C 450.674 1089.4 449.062 1101.22 447.612 1109.98 L 406.874 1109.98 C 415.844 1069.42 428.542 974.146 441.53 939.998 z M 457.301 1048.95 L 473.729 1048.95 L 484.157 1048.95 C 482.443 1037.3 474.396 989.081 470.047 979.614 C 465.964 999.06 459.759 1029.38 457.301 1048.95 z" fill="rgb(0,0,0)" transform="translate(0,0)"></path>
<path d="M 1588.38 939.998 C 1593.48 939.762 1599.28 939.951 1604.44 939.998 C 1606.75 983.78 1635.39 1061.63 1645.17 1109.98 C 1632.09 1109.5 1617.65 1109.87 1604.44 1109.98 L 1597.76 1084.8 C 1589.95 1085.21 1579.98 1084.86 1572.01 1084.8 L 1558.73 1084.8 C 1556.22 1093 1555.09 1101.51 1553.72 1109.98 L 1512.3 1109.98 C 1520.09 1065.68 1540.09 984.391 1553.72 939.998 C 1567.76 941.672 1574.42 942.855 1588.38 939.998 z M 1564.38 1053 C 1570.67 1053.11 1576.62 1053.25 1582.92 1053 C 1585.76 1053.3 1588.81 1054.04 1591.24 1052.89 C 1591.01 1045.98 1580.46 996.078 1577.72 991.86 C 1573.21 1012.24 1569.12 1032.68 1564.38 1053 z" fill="rgb(0,0,0)" transform="translate(0,0)"></path>
<path d="M 1121.15 939.998 C 1164.27 930.181 1186.7 954.317 1187.98 995.009 C 1175.76 995.188 1163.18 995.026 1150.92 995.009 C 1145.63 961.195 1115.22 964.181 1115.59 996.093 C 1115.86 1019.32 1114.25 1043.94 1116.87 1066.99 C 1118.3 1079.58 1155.76 1095.08 1150.92 1046.07 L 1134.01 1046.07 C 1133.88 1035.79 1133.59 1025.23 1134.01 1014.98 L 1150.92 1014.98 L 1187.98 1014.98 C 1188.09 1036.6 1191.21 1075.65 1179.6 1091.92 C 1155.12 1126.84 1080.41 1116.96 1076.97 1068.72 C 1073.53 1020.42 1060.16 949.169 1121.15 939.998 z" fill="rgb(0,0,0)" transform="translate(0,0)"></path>
<path d="M 327.753 939.998 C 364.454 935.037 393.015 947.636 393.084 989.233 C 377.616 990.612 370.712 990.6 355.165 989.233 C 343.522 949.224 302.117 982.828 337.246 999.187 C 352.335 1007.23 374.169 1013.69 385.414 1027.4 C 410.072 1057.46 395.723 1112.75 351.248 1109.98 C 304.004 1114.65 284.058 1100.73 285.064 1053 L 321.062 1053 L 321.345 1055.37 C 328.025 1110.08 393.959 1063.01 326.564 1036.99 C 269.984 1015.15 267.344 947.947 327.753 939.998 z" fill="rgb(0,0,0)" transform="translate(0,0)"></path>
<path d="M 1245.82 939.998 C 1290.78 931.465 1314.5 951.123 1314.03 995.009 L 1279.85 995.009 C 1276.31 942.505 1200.28 981.305 1284.38 1015.44 C 1334.34 1035.72 1327.59 1110.27 1272.75 1109.98 C 1226.8 1118.56 1204.54 1095.81 1205.04 1053 C 1216.42 1052.74 1227.65 1052.89 1239.03 1053 C 1247.49 1095.34 1283.54 1081.05 1280.19 1061.66 C 1276.45 1039.97 1213.56 1033.32 1208.72 998.056 C 1204.31 965.941 1212.86 945.826 1245.82 939.998 z" fill="rgb(0,0,0)" transform="translate(0,0)"></path>
<path d="M 584.619 939.998 C 622.347 934.458 653.798 944.838 653.06 989.233 L 617.282 989.233 C 607.388 957.78 580.582 967.554 584.221 984.815 C 590.721 1015.64 654.186 1010.18 656.574 1056.77 C 658.143 1087.39 646.494 1107.41 614.25 1109.98 C 568.925 1113.16 547.875 1106.49 542.667 1057 L 578.174 1057 C 582.609 1078.35 594.723 1082.53 614.25 1076.33 C 630.927 1036.15 552.439 1039.45 546.772 1000.9 C 541.945 968.069 549.844 946.983 584.619 939.998 z" fill="rgb(0,0,0)" transform="translate(0,0)"></path>
<path d="M 712.562 939.998 C 750.384 934.179 777.775 946.687 778.051 989.233 C 745.995 989.445 752.361 995.406 737.923 975.607 C 730.18 965.59 708.295 968.028 709.916 983.057 C 713.394 1015.3 782.605 1008.35 782.688 1057.52 C 782.723 1086.77 771.189 1109.58 738.749 1109.98 C 697.655 1117.19 670.575 1101.79 670.979 1057 C 681.962 1057.88 694.21 1057.47 705.194 1057 C 713.429 1087.88 746.185 1084.66 742.309 1059.11 C 736.68 1037.3 692.327 1034.21 679.489 1015.99 C 659.142 987.111 672.83 945.657 712.562 939.998 z" fill="rgb(0,0,0)" transform="translate(0,0)"></path>
<path d="M 1639 939.998 L 1751.43 939.998 L 1751.43 972.965 L 1716.49 972.965 C 1715.04 1002.53 1716.46 1045.69 1716.49 1076.33 C 1716.76 1087.38 1716.54 1098.89 1716.49 1109.98 L 1676.04 1109.98 C 1676.88 1098.67 1676.11 1076.72 1676.1 1064.58 L 1676.04 972.965 C 1662.91 972.486 1652.17 972.632 1639 972.965 C 1638.83 962.072 1638.98 950.914 1639 939.998 z" fill="rgb(0,0,0)" transform="translate(0,0)"></path>
<path d="M 1582.92 902.461 C 1593.72 889.506 1602.09 885.971 1615.17 898.78 C 1621.91 916.945 1617.02 929.85 1597.76 934.839 C 1588.22 932.257 1580.98 926.927 1572.01 922.667 C 1541.4 954.647 1517.24 901.448 1558.73 891.116 C 1569.02 892.973 1573.98 896.95 1582.92 902.461 z" fill="rgb(0,0,0)" transform="translate(0,0)"></path>
<metadata><recraft-signature>{"signed_by": "recraft", "signature_b64": "BGJ8rgE/j5IywPyLv++XSJm58yyfp4eNg7VliBG17/tqzUMpJA/rHJYB6brBMUpmsbJeP+wSdyS74FBFBlXLAA==", "signing_algo": "Ed25519", "generation_timestamp": 1772999117, "identifier": "1582492e-8c93-433a-a078-9ad9eb6e778d"}</recraft-signature></metadata></svg>