<svg xmlns="http://www.w3.org/2000/svg" height="512" preserveAspectRatio="none" style="display: block;" version="1.1" viewBox="0 0 2048 2048" width="512">
<path d="M 1403.04 342.826 C 1403.55 313.195 1396.42 266.072 1416.48 242.95 C 1434.67 221.986 1470.28 220.341 1490.22 240.137 C 1509.23 259.004 1506.65 279.777 1506.37 304.024 L 1506.22 342.826 L 1738.47 342.701 C 1751.7 342.639 1769.8 339.939 1780 348.614 C 1785.25 359.653 1783.29 439.107 1783.29 455.251 L 1783.32 1789.67 C 1783.26 1800.99 1780.88 1812.62 1766.99 1812.86 C 1741.55 1813.3 1715.99 1812.98 1690.54 1812.97 L 1033.25 1812.99 L 360.365 1813.04 C 333.939 1813.05 307.451 1813.29 281.04 1812.79 C 256.078 1812.32 264.406 1754.27 264.403 1736.59 L 264.457 379.104 C 264.817 334.371 278.045 342.568 317.006 342.746 L 377.841 342.881 C 430.925 342.872 490.177 341.406 542.483 342.826 C 542.732 318.827 540.345 288.344 544.006 265.221 C 553.905 219.082 648.202 194.861 648.108 303.345 L 648.013 342.826 L 973.311 342.826 C 973.291 300.014 961.986 233.373 1020.75 226.4 C 1087.52 218.665 1078.08 303.133 1077.99 342.826 L 1294.21 342.827 C 1328.77 342.828 1368.88 341.776 1403.04 342.826 z M 298.926 376.888 L 298.915 1727 C 298.877 1744.97 298.013 1760.81 298.926 1779 C 349.656 1780.34 406.428 1779 457.832 1778.99 L 1749.87 1779 L 1749.87 1578.45 L 1749.82 418.797 C 1749.8 406.518 1749.15 388.681 1749.87 376.888 L 1506.22 376.888 C 1506.19 390.941 1507.48 410.063 1505.67 423.027 C 1499.62 466.355 1445.88 481.511 1416.62 449.826 C 1397.51 429.142 1403.14 402.009 1403.04 376.888 L 1077.99 376.888 C 1078.78 403.016 1082.97 429.511 1063.45 450.181 C 1038.69 476.382 993.754 469.237 978.623 436.706 C 970.363 418.946 973.418 396.183 973.311 376.888 C 865.636 376.953 755.476 375.652 648.013 376.888 C 648.112 386.715 647.839 399.037 648.26 408.666 C 650.505 459.988 592.894 486.119 556.718 450.184 C 538.72 432.305 542.439 400.848 542.483 376.888 C 487.498 375.45 424.844 376.903 369.123 376.888 L 298.926 376.888 z M 1449.12 259.01 C 1428.6 271.714 1436.19 319.467 1436.27 342.826 L 1460.5 342.826 L 1473.03 342.826 C 1473.1 317.576 1484.09 255.359 1449.12 259.01 z M 575.514 422.404 C 585.147 432.707 597.606 437.543 609.506 427.552 C 617.867 415.949 614.832 391.58 614.114 376.888 C 599.892 375.832 589.75 375.79 575.514 376.888 C 576.055 391.365 576.948 408.08 575.514 422.404 z M 1473.03 376.888 C 1463.92 376.727 1454.42 376.38 1445.36 376.888 C 1424.41 378.036 1430.26 443.552 1463.64 431.114 C 1479.4 419.998 1473.09 393.825 1473.03 376.888 z M 590.834 259.01 C 565.105 268.856 576.12 318.124 575.514 342.826 L 599.903 342.826 C 604.341 342.78 609.763 342.575 614.114 342.826 C 614.277 317.643 624.943 257.954 590.834 259.01 z M 1006.66 422.404 C 1017.21 433.87 1025 435.768 1038.93 427.552 C 1046.11 413.405 1044.43 393.06 1044.54 376.888 L 1006.66 376.888 C 1006.12 389.236 1005.78 410.209 1006.66 422.404 z M 1020.75 259.01 C 1013.72 262.832 1011.37 264.168 1006.66 270.986 C 1005.04 290.042 1007.22 321.524 1006.66 342.826 C 1015.35 342.801 1024.61 342.608 1033.25 342.826 L 1044.54 342.826 C 1044.65 318.445 1054.71 257.862 1020.75 259.01 z" fill="rgb(0,0,0)" transform="translate(0,0)"></path>
<path d="M 1333.67 583.98 C 1342.19 583.159 1360.23 583.825 1369.31 583.868 L 1527.85 583.948 C 1593.74 583.8 1598.57 570.833 1598.55 641.251 L 1598.56 799.51 C 1598.65 818.749 1606.52 852.805 1584.44 856.42 C 1583.6 856.46 1582.76 856.5 1581.92 856.541 L 1369.57 856.456 C 1349.52 856.445 1319.55 862.984 1319.17 834.609 C 1318.81 807.857 1318.99 781.113 1319 754.373 L 1319.03 596.357 C 1323.3 587.811 1324.34 586.557 1333.67 583.98 z M 1353.02 824.888 C 1381.84 820.092 1383.77 824.948 1411.48 824.942 L 1564.13 824.888 C 1564.8 804.138 1564.15 780.753 1564.14 759.77 L 1564.13 617.306 L 1353.02 617.306 L 1353.02 824.888 z" fill="rgb(0,0,0)" transform="translate(0,0)"></path>
<path d="M 1506.22 672.233 C 1574.4 665.178 1457.84 764.219 1445.36 770.372 C 1436.96 762.541 1428.23 753.629 1420.01 745.513 C 1410.47 736.105 1381.33 711.513 1418.96 704.216 C 1425.93 702.865 1443.42 724.227 1449.12 730.567 C 1458.27 717.566 1493.28 680.816 1506.22 672.233 z" fill="rgb(14,186,4)" transform="translate(0,0)"></path>
<path d="M 1333.67 983.385 L 1500.44 983.364 C 1520.05 983.363 1597.32 973.734 1597.81 999.11 C 1599.3 1077.22 1598.19 1155.41 1598.62 1233.53 C 1598.69 1245.67 1595.34 1249.51 1584.44 1253.83 C 1499.92 1252.97 1411.15 1257.48 1327.48 1253.83 C 1323.22 1249.28 1322.13 1247.23 1319.03 1242.01 C 1318.53 1218.03 1317.24 1002.38 1320.6 993.485 C 1322.88 987.446 1328.2 985.683 1333.67 983.385 z M 1353.02 1221.78 C 1371.11 1220.62 1402.28 1221.77 1421.74 1221.78 L 1564.13 1221.78 C 1565.71 1212.43 1564.17 1175.29 1564.15 1163.25 L 1564.13 1017.99 L 1423.92 1017.96 C 1401.17 1017.95 1375.47 1017.33 1353.02 1017.99 C 1351.77 1084.29 1353.02 1155.09 1353.02 1221.78 z" fill="rgb(0,0,0)" transform="translate(0,0)"></path>
<path d="M 1506.22 1069.02 C 1516.69 1073.04 1529.65 1081.72 1521.86 1093.86 C 1514.99 1104.6 1458.33 1163.55 1447.44 1163.8 C 1440.62 1163.95 1422.12 1142.91 1416.65 1137.79 C 1383.44 1107.74 1401.73 1078.03 1449.12 1127.31 C 1456.5 1116.82 1496.26 1076.23 1506.22 1069.02 z" fill="rgb(14,186,4)" transform="translate(0,0)"></path>
<path d="M 1333.67 1381.19 L 1487.36 1381.17 C 1517.34 1381.13 1559.99 1379.19 1590.59 1383.41 C 1603.54 1385.2 1598.57 1466.04 1598.58 1478.32 L 1598.58 1572.44 C 1598.57 1593.22 1606.59 1643.89 1584.44 1650.12 L 1423.79 1650.18 C 1404.9 1650.18 1328.03 1658.27 1320.82 1639.73 C 1317.37 1630.88 1318.08 1425.16 1319.5 1399.76 C 1320.13 1388.45 1322.78 1384.89 1333.67 1381.19 z M 1353.02 1617.76 L 1564.13 1617.76 L 1564.12 1483.19 C 1564.09 1460.49 1562.95 1437.83 1564.13 1415.33 L 1353.02 1415.33 C 1351.97 1481.66 1353.02 1551.15 1353.02 1617.76 z" fill="rgb(0,0,0)" transform="translate(0,0)"></path>
<path d="M 1503.46 1470.77 C 1556.52 1476.4 1467.68 1547.78 1455.58 1558.57 C 1438.36 1573.91 1422.15 1548.13 1410.63 1536.17 C 1405.43 1531.06 1394.7 1522 1393.68 1514.49 C 1392.14 1506.64 1402.65 1496.7 1410.05 1498.06 C 1421.13 1500.09 1438.51 1520.01 1445.36 1528.4 C 1453.17 1517.05 1492.3 1476.69 1503.46 1470.77 z" fill="rgb(14,186,4)" transform="translate(0,0)"></path>
<path d="M 591.645 578.211 C 671.359 576.145 737.607 639.185 739.498 718.903 C 741.388 798.62 678.202 864.73 598.48 866.444 C 519.007 868.153 453.148 805.207 451.264 725.737 C 449.379 646.268 512.18 580.271 591.645 578.211 z M 609.307 831.465 C 669.885 823.812 712.703 768.379 704.805 707.832 C 696.908 647.286 641.303 604.691 580.789 612.833 C 520.619 620.928 478.319 676.149 486.172 736.351 C 494.024 796.553 549.074 839.075 609.307 831.465 z" fill="rgb(0,0,0)" transform="translate(0,0)"></path>
<path d="M 645.158 668.489 C 650.471 670.176 664.98 688.36 669.137 693.406 C 640.319 720.758 614.246 747.53 586.015 775.262 C 577.21 766.48 566.537 757.077 557.266 748.572 L 532.698 724.601 C 537.283 718.876 548.662 707.712 554.328 701.813 C 565.9 711.082 575.596 720.137 586.015 730.567 C 600.134 712.549 628.041 686.259 645.158 668.489 z" fill="rgb(14,186,4)" transform="translate(0,0)"></path>
<path d="M 582.121 975.386 C 661.077 968.378 730.823 1026.56 738.086 1105.49 C 745.349 1184.43 687.39 1254.36 608.482 1261.88 C 529.212 1269.43 458.888 1211.15 451.592 1131.86 C 444.296 1052.56 502.804 982.426 582.121 975.386 z M 597.477 1228.09 C 657.862 1226.54 705.575 1176.36 704.083 1115.97 C 702.592 1055.59 652.46 1007.82 592.071 1009.26 C 531.6 1010.69 483.76 1060.91 485.253 1121.38 C 486.747 1181.85 537.009 1229.64 597.477 1228.09 z" fill="rgb(0,0,0)" transform="translate(0,0)"></path>
<path d="M 636.563 1072.75 C 644.166 1077.23 655.252 1091.47 660.386 1098.73 C 645.727 1108.55 599.764 1156.35 586.015 1171.25 C 576.839 1164.3 566.475 1153.59 557.266 1145.63 C 549.246 1136.76 541.463 1129.72 532.698 1121.62 C 540.631 1113.25 548.369 1106.06 557.266 1098.73 L 586.015 1127.31 C 592.545 1116.9 626.614 1081.51 636.563 1072.75 z" fill="rgb(14,186,4)" transform="translate(0,0)"></path>
<path d="M 587.357 1375.36 C 665.232 1371.52 731.561 1431.35 735.737 1509.21 C 739.913 1587.07 680.365 1653.65 602.526 1658.16 C 524.214 1662.7 457.136 1602.71 452.935 1524.38 C 448.733 1446.05 509.01 1379.23 587.357 1375.36 z M 596.518 1623.85 C 655.494 1622.56 702.289 1573.76 701.108 1514.78 C 699.927 1455.8 651.217 1408.91 592.236 1409.98 C 533.096 1411.05 486.054 1459.92 487.238 1519.06 C 488.422 1578.2 537.382 1625.15 596.518 1623.85 z" fill="rgb(0,0,0)" transform="translate(0,0)"></path>
<path d="M 641.134 1467.64 C 646.271 1469.9 659.517 1483.92 664.156 1488.73 C 640.976 1515.49 610.831 1545.01 586.015 1570.5 L 554.328 1540.92 C 544.969 1532.76 540.019 1528.28 532.698 1518.31 C 540.514 1508.18 543.953 1505.52 554.328 1497.65 C 564.238 1509.08 574.408 1518.73 586.015 1528.4 C 597.456 1513.17 626.843 1480.5 641.134 1467.64 z" fill="rgb(14,186,4)" transform="translate(0,0)"></path>
<path d="M 866.334 1187.09 L 1149.75 1187.03 C 1161.89 1187.03 1173.99 1186.87 1186.12 1187.32 C 1209.79 1188.19 1211.85 1218.87 1187.25 1221.78 L 901.26 1221.75 C 891.369 1221.73 858.982 1223.34 853.71 1218.15 C 838.658 1203.33 847.737 1188.87 866.334 1187.09 z" fill="rgb(0,0,0)" transform="translate(0,0)"></path>
<path d="M 861.715 1035 L 1094.24 1035.06 C 1122 1035.06 1165.56 1033.32 1193.47 1036.51 C 1205.77 1037.91 1209.61 1060.62 1190.68 1069.02 L 899.701 1069.07 C 887.326 1069.07 874.89 1069.24 862.523 1068.95 C 842.423 1068.47 839.53 1041.99 861.715 1035 z" fill="rgb(0,0,0)" transform="translate(0,0)"></path>
<path d="M 861.715 790.881 L 1150.03 790.84 C 1162.93 790.845 1186.72 789.427 1198.12 793.727 C 1202.55 798.785 1203.37 800.743 1205.85 806.999 C 1202.61 817.024 1201.34 819.808 1192.31 824.888 C 1188.06 825.505 1169.38 824.927 1164.02 824.922 L 871.368 824.845 C 839.484 823.137 842.48 797.821 861.715 790.881 z" fill="rgb(0,0,0)" transform="translate(0,0)"></path>
<path d="M 861.715 1431.96 C 878.184 1431.35 898.565 1431.94 915.324 1431.94 L 1139.61 1431.95 C 1158.69 1431.94 1179.23 1431.37 1198.12 1431.96 C 1208.31 1444.08 1208.35 1462.11 1190.68 1465.51 L 977.572 1465.52 C 938.227 1465.51 897.445 1466.13 858.247 1465.51 C 844.783 1455.06 839.387 1436.04 861.715 1431.96 z" fill="rgb(0,0,0)" transform="translate(0,0)"></path>
<path d="M 866.334 1584.3 C 877.843 1583.65 895.007 1584.28 907.117 1584.28 L 1184.59 1584.38 C 1211.58 1585.84 1211.3 1612.1 1190.68 1617.76 C 1080.92 1617.76 967.651 1619.22 858.247 1617.76 C 839.298 1605.71 844.319 1586.81 866.334 1584.3 z" fill="rgb(0,0,0)" transform="translate(0,0)"></path>
<path d="M 861.715 638.996 C 874.462 638.267 892.913 638.937 906.103 638.951 L 1118.53 639.029 C 1141.06 638.986 1172.07 637.38 1193.51 640.355 C 1204.85 641.929 1211.51 663.961 1190.68 672.233 L 863.995 672.704 C 861.806 672.721 855.547 669.577 853.312 668.489 C 846.015 655.057 847.091 645.5 861.715 638.996 z" fill="rgb(0,0,0)" transform="translate(0,0)"></path>
<metadata><recraft-signature>{"signed_by": "recraft", "signature_b64": "ZCvmBewhIAmV2MQoo7KINfL+m/eaduWMa7+NmR0dKRKhYO6nXIwZCpDFloj3vhXkW0C6/6fnIa1cFOzbbBf1DA==", "signing_algo": "Ed25519", "generation_timestamp": 1772988309, "identifier": "a0150b69-c149-4132-8b96-d82bd2723e57"}</recraft-signature></metadata></svg>