<svg xmlns="http://www.w3.org/2000/svg" height="512" preserveAspectRatio="none" style="display: block;" version="1.1" viewBox="0 0 2048 2048" width="512">
<path d="M 1157 1099.51 L 1639.2 1099.45 C 1736.04 1099.15 1752.27 1111.95 1751.92 1210.32 L 1752.43 1693.68 C 1752.88 1753.65 1707.89 1763.32 1658.33 1763.78 L 1180.53 1763.84 C 1127.68 1763.88 1061.11 1770.91 1062.6 1693.92 L 1062.55 1220.49 C 1062.26 1137.51 1061.99 1099.57 1157 1099.51 z M 1195 1632.37 L 1617.08 1632.37 C 1618.53 1592.39 1617.06 1543.17 1617.06 1502.62 L 1617.08 1236.99 L 1195 1236.99 C 1193.97 1252.32 1194.99 1276.81 1195 1293.08 L 1195 1632.37 z" fill="rgb(0,0,0)" transform="translate(0,0)"></path>
<path d="M 1118.39 282.999 C 1147.91 281.84 1186.43 283.027 1216.57 283.03 L 1667.59 282.98 C 1772.95 283.153 1751.94 362.167 1751.96 439.686 L 1751.95 781.865 C 1751.94 848.047 1770.53 915.217 1697.49 941.005 C 1692.56 941.818 1652.11 941.043 1644.28 941.025 L 1170.08 941.066 C 1061.62 941.592 1062.44 915.583 1062.52 819.978 L 1062.54 374.865 C 1062.34 326.049 1062.56 294.917 1118.39 282.999 z M 1195 807.759 L 1613.25 807.759 L 1616.15 807.213 C 1618.3 801.824 1616.99 754.814 1617.01 744.881 L 1617.11 468.087 C 1617.12 450.715 1617.75 431.013 1617.08 413.997 L 1201.25 413.997 C 1199.62 414.257 1196.05 414.425 1196.03 415.453 C 1194.14 517.153 1194.99 714.321 1195 807.759 z" fill="rgb(0,0,0)" transform="translate(0,0)"></path>
<path d="M 447.068 1278.51 C 516.486 1279.05 576.381 1281.18 587.496 1366.54 L 836.532 1366.53 C 877.167 1366.53 920.671 1367.41 960.978 1366.54 C 964.411 1392.07 963.289 1474.39 960.978 1496.99 L 736.5 1496.99 L 587.496 1496.99 C 582.08 1542.08 544.314 1577.55 498.007 1578.53 C 446.032 1579.63 362.378 1587.45 326.731 1549.98 C 296.166 1519.36 301.013 1484.69 301.076 1445.19 L 300.935 1380.15 C 300.91 1283.89 370.976 1278.47 447.068 1278.51 z" fill="rgb(0,0,0)" transform="translate(0,0)"></path>
<path d="M 494.503 549.12 L 831.066 549.108 C 847.846 549.108 950.582 547.381 960.245 550.609 C 961.585 555.669 961.051 583.178 961.047 589.841 L 960.978 678.791 L 767.5 678.791 L 405.798 678.842 C 377.989 678.836 344.526 682.643 322.7 662.311 C 295.986 637.427 292.842 595.674 318.381 568.569 C 346.794 538.411 451.249 550.375 494.503 549.12 z" fill="rgb(0,0,0)" transform="translate(0,0)"></path>
<metadata><recraft-signature>{"signed_by": "recraft", "signature_b64": "OGBE/MWwIogx0bDi1ONZoaRcuFjiJo4SsFOo7eW93jfeWSH4d3nSPoDqDGuhQ8shGpgSlSRz34Bu5z+Vl1XiBA==", "signing_algo": "Ed25519", "generation_timestamp": 1772998058, "identifier": "73c10266-33e4-42c3-a4ca-7748b7a04a9a"}</recraft-signature></metadata></svg>