<svg xmlns="http://www.w3.org/2000/svg" height="512" preserveAspectRatio="none" style="display: block;" version="1.1" viewBox="0 0 2048 2048" width="512">
<path d="M 951.977 494.2 C 980.474 492.95 1013.42 494.946 1042.5 494.126 C 1097.62 499.657 1137.63 474.748 1136.93 561.453 L 1136.88 743.18 C 1136.87 766.983 1136.53 791.269 1136.95 814.963 C 1137.45 843.018 1170.36 854.336 1190.17 872.826 C 1270.34 947.678 1251.18 1025.35 1247.12 1123.02 L 1239.56 1317.63 C 1238.15 1351.34 1235.85 1387.01 1235.14 1420.44 L 1233.63 1478.55 C 1231.68 1545 1224.21 1551.52 1158.35 1551.49 L 1093.5 1551.4 L 931.782 1551.37 C 826.981 1551.41 819.275 1567.98 814.19 1450.07 L 802.08 1106.68 C 798.615 1013.25 782.592 923.618 872.144 860.531 C 928.17 821.063 913.027 808.204 912.997 739.488 L 912.897 592.239 C 912.882 555.793 902.153 500.737 951.977 494.2 z M 1150.93 1466.55 L 1150.93 1455.09 C 1150.2 1342.11 1167.08 1218.3 1162.45 1107 L 885.786 1107 C 884.194 1136.33 887.869 1172.07 888.611 1201.91 C 890.665 1284.54 901.399 1385.52 897.234 1466.55 L 1150.93 1466.55 z M 881.006 1024.16 L 1101.5 1024.16 L 1168.02 1024.16 C 1173.84 913.67 1111.32 923.514 1027.84 921.145 C 1002.71 920.432 973.607 920.18 948.503 921.079 C 890.118 930.907 880.837 972.674 881.006 1024.16 z" fill="rgb(27,26,26)" transform="translate(0,0)"></path>
<path d="M 362.892 494.2 L 448.431 494.128 C 513.364 494.123 547.343 486.303 547.069 559.586 L 546.833 806.842 C 545.659 836.604 565.062 845.719 586.209 860.262 C 676.177 922.134 658.692 1003.92 655.4 1096.25 L 641.935 1450.55 C 638.943 1520.62 650.292 1551.66 562.9 1551.51 L 505.5 1551.4 L 283.353 1551.35 C 234.793 1549 226.387 1534.83 224.673 1485.76 L 210.363 1086.07 C 206.676 990.593 201.239 922.133 286.054 860.241 C 338.441 822.013 325.842 819.489 325.831 753.944 L 325.732 558.618 C 325.868 525.913 329.26 504.778 362.892 494.2 z M 558.274 1451.5 C 556.849 1425.4 559.799 1395.43 560.858 1369.09 L 567.717 1210.73 C 569.205 1181.62 572.722 1134.8 572.018 1107 L 295.172 1107 C 294.684 1136.32 296.345 1162.07 297.319 1191.28 L 306.828 1420.29 C 307.363 1435.09 308.316 1452.01 307.049 1466.55 L 474.477 1466.6 C 497.482 1466.6 533.617 1467.79 555.915 1466.55 C 556.69 1462.18 558.03 1455.76 558.274 1451.5 z M 290.979 1024.16 C 362.842 1025.48 439.267 1024.16 511.5 1024.16 L 576.113 1024.16 C 579.603 968.82 564.557 923.814 501.959 921.602 C 459.025 920.085 398.64 925.77 358.823 921.079 C 300.866 930.827 290.476 973.139 290.979 1024.16 z" fill="rgb(27,26,26)" transform="translate(0,0)"></path>
<path d="M 1536.98 494.2 C 1555.74 492.524 1579.76 494.165 1599.09 494.168 L 1652.34 494.126 C 1664.02 494.116 1677.34 493.531 1688.71 495.397 C 1732.73 502.618 1721.8 571.641 1721.81 603.281 L 1721.89 735.921 C 1721.89 757.946 1721.37 780.559 1721.83 802.359 C 1721.96 845.983 1761.32 859.272 1788.36 884.097 C 1851.67 942.219 1837.17 1020.81 1834.27 1097.25 L 1822.02 1442.86 C 1820.83 1473.54 1829.48 1542.85 1785.74 1549.01 C 1756.6 1553.11 1722.5 1551.47 1692.85 1551.4 L 1530.99 1551.39 C 1502.77 1551.41 1474.2 1552.03 1446.02 1550.69 C 1398.66 1550.49 1407.72 1473.61 1406.64 1441.83 L 1392.71 1095.4 C 1388.75 995.962 1377.16 913.327 1477.43 847.785 C 1509.52 826.806 1499.08 777.227 1499.08 741.102 L 1499.09 599.484 C 1498.94 559.334 1488.04 505.665 1536.98 494.2 z M 1491.99 1466.55 C 1521.39 1464.74 1734.14 1469.14 1740.86 1465.14 C 1742.38 1461.33 1742.15 1459.29 1742.32 1455.09 C 1736.11 1381.69 1747.02 1283.61 1747.03 1206.62 C 1747.03 1174.59 1752.45 1138.67 1748.97 1107 L 1477.49 1107 C 1476.68 1128.86 1479.06 1149.41 1479.77 1171.09 C 1482.96 1268.53 1486.28 1369.33 1491.99 1466.55 z M 1471.76 1024.16 L 1692.85 1024.16 L 1753.61 1024.16 C 1754.73 964.028 1737.54 921.112 1670.4 920.959 L 1586.49 921.071 C 1572.05 921.044 1550.97 920.326 1536.98 921.079 C 1482.79 932.471 1470.56 974.873 1471.76 1024.16 z" fill="rgb(27,26,26)" transform="translate(0,0)"></path>
<metadata><recraft-signature>{"signed_by": "recraft", "signature_b64": "U8hKbGT7giPN0xAGqDL0K+lk9Btijh3BFtD2wc2PEgWbtCEi8CEDwHtlnFX9F9L2olgOFNcg7Olkn7Jno6P7Cg==", "signing_algo": "Ed25519", "generation_timestamp": 1772995889, "identifier": "9008d967-7077-4bc1-8262-3b338b78d6cd"}</recraft-signature></metadata></svg>