<svg xmlns="http://www.w3.org/2000/svg" height="512" preserveAspectRatio="none" style="display: block;" version="1.1" viewBox="0 0 2048 2048" width="512">
<path d="M 460.596 345.093 L 1555.77 345.033 C 1624.75 344.922 1693.16 366.026 1704.47 447.221 C 1706.67 462.987 1706.26 481.295 1706.26 497.298 L 1706.23 1533.68 L 1554 1533.68 L 1554 492.996 L 506.114 492.996 C 500.986 492.669 496.345 492.856 491.232 492.996 C 490.09 529.735 491.209 572.316 491.213 609.584 L 491.232 1552.09 C 534.062 1553.22 582.932 1552.11 626.156 1552.11 L 1232.88 1552.09 C 1287.5 1552.1 1344.97 1553.03 1399.34 1552.09 L 1399.34 1701.82 C 1380.41 1702.65 1355.88 1701.84 1336.35 1701.83 L 504.194 1701.83 C 440.027 1701.95 384.628 1694.74 354.797 1625.71 C 340.79 1593.29 344.145 1555.6 344.147 1520.85 L 344.174 512.196 C 344.151 492.601 342.978 471 344.413 451.83 C 349.344 385.958 400.09 351.271 460.596 345.093 z" fill="rgb(47,47,47)" transform="translate(0,0)"></path>
<metadata><recraft-signature>{"signed_by": "recraft", "signature_b64": "yp6CfFS4s0DtgbDTigIc8Eo/mCD+jfgKwJodYEhGzHixAJedeCdNNilMvhrcW3RawgyoXxjYCBbJFRL8jTVCBw==", "signing_algo": "Ed25519", "generation_timestamp": 1772997071, "identifier": "1712d43d-c613-44ce-ac80-b318e9c3b7d5"}</recraft-signature></metadata></svg>