<svg xmlns="http://www.w3.org/2000/svg" height="512" preserveAspectRatio="none" style="display: block;" version="1.1" viewBox="0 0 2048 2048" width="512">
<path d="M 1231.99 284.899 C 1231.79 284.408 1231.99 399.433 1231.99 407.442 L 1231.99 1326.02 L 493.212 1325.96 C 444.786 1325.99 399.426 1334.45 359.298 1300.99 C 323.015 1266.64 314.32 1202.47 350.039 1164.52 C 369.633 1143.71 390.675 1124.25 410.835 1103.99 L 1117.26 395.276 C 1148.64 363.861 1196.78 310.031 1231.99 284.899 z" fill="rgb(0,0,0)" transform="translate(0,0)"></path>
<path d="M 1374.33 269.001 L 1719.56 269.001 L 1719.56 1290.78 C 1719.58 1296.26 1721.26 1323.77 1719.56 1326.02 L 1374.33 1326.02 C 1373.06 1291.1 1374.32 1246.3 1374.32 1210.77 L 1374.33 269.001 z" fill="rgb(0,0,0)" transform="translate(0,0)"></path>
<path d="M 820.516 1470.99 L 1231.99 1470.99 C 1231.78 1571.28 1233.31 1673.95 1231.99 1774 L 957.191 1774 C 912.089 1774 865.449 1774.67 820.516 1774 C 819.893 1760.46 820.457 1745.41 820.475 1731.65 L 820.513 1650.49 C 820.525 1591.8 819.408 1529.42 820.516 1470.99 z" fill="rgb(0,0,0)" transform="translate(0,0)"></path>
<path d="M 1374.33 1470.99 L 1640.32 1470.99 C 1609.29 1510.19 1547.05 1561.61 1510.01 1598.21 C 1463.67 1639.44 1420.03 1683.98 1374.33 1725.94 C 1375.03 1718.41 1374.51 1704.75 1374.45 1696.81 L 1374.33 1470.99 z" fill="rgb(0,0,0)" transform="translate(0,0)"></path>
<metadata><recraft-signature>{"signed_by": "recraft", "signature_b64": "NZIVg1Qrq+ozUmyRuyj1ABRl+nkHAeOftiUgeQtPrQISGmhKM8xyNT6yPwFv4iiQEC15QM25aRR1sXDSvqj8CA==", "signing_algo": "Ed25519", "generation_timestamp": 1772996977, "identifier": "e0783b12-f4e7-4e72-b3b9-cc8218a510be"}</recraft-signature></metadata></svg>