<svg xmlns="http://www.w3.org/2000/svg" height="512" preserveAspectRatio="none" style="display: block;" version="1.1" viewBox="0 0 2048 2048" width="512">
<path d="M 934.332 221.532 C 1030.91 215.279 1079.25 264.699 1140.14 325.72 L 1271.83 459.778 C 1350.27 540.54 1369.3 553.681 1369.31 665.279 L 1369.27 738.296 L 1461.51 738.266 C 1760.34 738.889 1847.52 1089.05 1615.28 1227.72 C 1560.15 1258.1 1490.56 1218.54 1492.47 1154.1 C 1493.86 1107.23 1521.6 1092.28 1553.38 1063.36 C 1592.11 1028.12 1592.46 967.926 1555.58 931.054 C 1519.9 895.394 1486.85 898.492 1440.86 898.543 L 1369.27 898.539 C 1352.48 994.559 1227.15 993.709 1205.31 905.091 C 1200.15 884.191 1202.52 828.535 1202.52 805.372 L 1202.54 620.795 C 1171.93 590.881 1140.79 558.201 1110.66 527.633 L 1002.76 419.254 C 981.876 397.955 963.342 374.299 929.527 386.037 C 887.848 398.744 890.838 444.861 890.877 479.2 L 891.082 556.117 C 891.393 600.839 892.028 665.379 828.777 669.476 C 802.051 671.208 770.746 670.17 743.145 670.167 L 571.156 670.178 C 477.406 670.208 468.708 666.129 468.955 772.675 L 468.942 1314.02 C 469.215 1385.32 510.709 1377.11 564.119 1376.98 L 945.033 1376.42 C 1035.37 1375.48 1019.26 1472.64 1018.91 1533.87 C 1018.4 1621.35 1125.39 1658.6 1183.57 1595.6 C 1212.22 1564.58 1208.59 1538.76 1208.53 1499.01 L 1208.48 1434.89 C 1208.46 1400.96 1209.76 1360.38 1208.47 1327.22 C 1170.31 1288.02 1131.98 1250.85 1093.69 1211.96 C 1036.49 1155.55 980.37 1096.69 923.382 1039.82 L 853.442 969.551 C 828.744 944.396 807.232 927.705 804.161 889.832 C 797.852 812.007 885.686 773.272 936.227 820.448 C 980.65 863.729 1025.39 909.089 1069.15 953.428 L 1684.21 1572.05 C 1713.08 1601.42 1740.64 1618.77 1744.98 1662.01 C 1749.31 1708.02 1716.38 1748.07 1670 1751.2 C 1619.63 1754.61 1593.03 1712.71 1561.16 1681.16 L 1424.54 1544.79 C 1407.2 1527.76 1387.14 1506.53 1369.27 1490.7 C 1369.12 1505.04 1369.68 1519.62 1370.14 1533.92 C 1375.39 1695.84 1219.77 1814.46 1063.9 1786.33 C 951.029 1765.96 852.344 1658.76 850.95 1541.33 L 515.624 1541.25 C 379.544 1540.92 299.314 1429.08 299.037 1302 L 299.015 770.507 C 298.931 652.81 318.384 548.904 454.858 512.556 C 495.621 501.7 540.347 505.046 582.436 505.04 L 722.518 505.001 C 722.883 450.29 717.189 404.971 740.744 353.047 C 776.752 273.674 847.729 228.124 934.332 221.532 z" fill="rgb(0,0,0)" transform="translate(0,0)"></path>
<metadata><recraft-signature>{"signed_by": "recraft", "signature_b64": "rsya+Ta1C9w/nG47wVhsegkuvpB97iIbp+3I7nmCOqYQh5PfHh/UMpTzelcbw9FubZxPnIUvl+0+my+3M4gNBg==", "signing_algo": "Ed25519", "generation_timestamp": 1772995548, "identifier": "e4426ab3-171c-467e-bb67-184cb87ae436"}</recraft-signature></metadata></svg>