<svg xmlns="http://www.w3.org/2000/svg" height="512" preserveAspectRatio="none" style="display: block;" version="1.1" viewBox="0 0 2048 2048" width="512">
<path d="M 994.313 710.083 C 1076.3 712.211 1162.1 698.167 1195.26 802.658 L 1369.26 1349.05 C 1373.33 1361.33 1377.82 1373.72 1380.48 1386.47 C 1396.04 1460.71 1291.05 1489.1 1263.76 1435.26 C 1252.24 1412.55 1243.4 1378.41 1235.74 1353.28 L 1204.83 1254.85 L 1048.5 1254.85 C 979.513 1254.85 909.189 1254.07 840.356 1254.85 L 803.424 1372.41 C 797.961 1389.59 793.282 1406.86 787.193 1423.9 C 760.428 1498.79 643.108 1460.64 670.137 1375.61 L 823.708 904.201 C 857.676 796.702 861.38 715.012 994.313 710.083 z M 881.725 1131.9 L 1044.5 1131.9 C 1084.82 1131.92 1126.3 1132.47 1166.53 1131.9 C 1161.64 1112 1153.4 1088.53 1147.12 1068.74 L 1090.52 886.721 C 1071.9 825.841 1069.63 828.352 1003 830.49 C 981.403 831.866 971.825 839.002 965.362 859.83 L 899.474 1073.97 C 894.116 1091.34 885.895 1115.08 881.725 1131.9 z" fill="rgb(0,0,0)" transform="translate(0,0)"></path>
<path d="M 344.811 1232.39 C 425.361 1218.87 414.42 1325.04 414.404 1373.88 L 414.262 1579.65 C 413.898 1633.68 464.742 1626.04 502.874 1626.03 L 644.427 1626.02 C 663.868 1626.02 689.515 1624.54 708.278 1626.33 C 769.277 1632.19 789.069 1726.25 711.787 1748.99 C 706.252 1749.81 690.884 1749.11 684.522 1749.08 L 516.854 1749.02 C 486.503 1749.04 454.986 1750.52 424.884 1745.11 C 357.328 1732.97 302.578 1674.77 291.291 1607.6 C 288.463 1590.77 289.941 1566.79 289.981 1549.27 L 289.989 1342.7 C 289.957 1295.98 282.182 1241.07 344.811 1232.39 z" fill="rgb(0,0,0)" transform="translate(0,0)"></path>
<path d="M 1690.42 1232.39 C 1717.53 1225.03 1752.64 1252.16 1756.81 1279.57 C 1761.64 1311.32 1758.67 1342.65 1758.71 1374.26 L 1759.65 1533.93 C 1759.8 1599.99 1760.01 1647.87 1710.38 1698.53 C 1650.9 1759.24 1585.6 1748.95 1507.78 1748.95 L 1358.19 1748.99 C 1305.55 1750.21 1264.15 1696.89 1300.26 1650.81 C 1328.04 1615.36 1377.94 1628.43 1416.92 1627.49 C 1466.14 1626.31 1515.96 1624.34 1565.14 1626.22 C 1644.17 1629.23 1635.67 1594.49 1635.58 1526.04 L 1635.51 1370.63 C 1635.44 1317 1620.5 1242.41 1690.42 1232.39 z" fill="rgb(0,0,0)" transform="translate(0,0)"></path>
<path d="M 1341.96 296.917 C 1351.51 296.126 1374.8 296.874 1385.53 296.873 L 1561.9 296.887 C 1576.59 296.894 1600.91 296.218 1614.54 298.371 C 1681.79 308.998 1739.29 358.094 1755.3 425.11 C 1761.65 451.663 1759.63 491.442 1759.62 520.027 L 1759.66 709.023 C 1759.8 755.471 1762.08 795.044 1705.23 809.586 C 1619.86 805.124 1635.57 736.538 1635.48 674.212 L 1635.43 515.977 C 1635.5 418.762 1629.06 417.916 1538.44 418.018 L 1406.76 418.067 C 1390.49 418.068 1354.2 420.117 1340.24 417.345 C 1269.68 403.341 1271.26 313.717 1341.96 296.917 z" fill="rgb(0,0,0)" transform="translate(0,0)"></path>
<path d="M 680.286 296.917 C 779.512 283.796 771.166 402.365 719.981 414 C 688.555 421.144 650.319 418.138 617.62 418.108 L 502.338 418.004 C 406.501 417.932 414.165 431.878 414.417 513.692 L 414.285 727.269 C 414.462 767.662 409.221 794.968 367.306 809.586 C 312.348 822.698 290.47 776.157 290.031 729.351 L 290.04 564.938 C 289.983 487.455 278.861 403.8 339.353 344.043 C 395.934 288.148 444.58 296.933 515.917 296.956 L 680.286 296.917 z" fill="rgb(0,0,0)" transform="translate(0,0)"></path>
<metadata><recraft-signature>{"signed_by": "recraft", "signature_b64": "uaCg/AhX/6SbO71CMun1W2ab9NS+t8fhMAK+2cDPQynJmTXUJEU3QAJf1Wx1YI22znkhnt/uExDrgF1qSbeAAg==", "signing_algo": "Ed25519", "generation_timestamp": 1772989401, "identifier": "dc86179b-f337-4de8-9a49-e3f7cc0612e2"}</recraft-signature></metadata></svg>