<svg xmlns="http://www.w3.org/2000/svg" height="512" preserveAspectRatio="none" style="display: block;" version="1.1" viewBox="0 0 2048 2048" width="512">
<path d="M 384.048 1151.46 L 384.68 1151.45 L 1617.83 1151.4 C 1658.46 1151.25 1688.01 1146.91 1719.77 1177.89 C 1761.29 1218.4 1752.69 1286.57 1701.74 1314.47 C 1681.05 1325.79 1662.17 1324.83 1639.48 1324.66 L 1450.89 1324.51 C 1449.82 1342.53 1450.89 1371.02 1450.81 1390.06 L 1450.89 1534.51 L 1450.96 1613.55 C 1451 1686.14 1446.66 1747.77 1355.69 1748.04 L 689.469 1747.98 C 612.03 1747.42 597.87 1690.65 597.955 1626.21 L 598.003 1324.51 C 581.52 1323.92 561.919 1324.46 545.191 1324.48 L 442.452 1324.54 C 422.355 1324.55 386.895 1326.26 368.414 1321.94 C 270.709 1299.05 279.611 1159.65 384.048 1151.46 z M 769.858 1577.29 C 824.578 1578.29 882.787 1577.29 937.716 1577.28 L 1276.02 1577.29 C 1276.87 1493.61 1276.02 1408.32 1276.02 1324.51 L 826.094 1324.48 C 808.057 1324.48 787.652 1323.97 769.858 1324.51 L 769.831 1495.22 C 769.825 1517.09 768.521 1556.55 769.858 1577.29 z" fill="rgb(0,0,0)" transform="translate(0,0)"></path>
<path d="M 1229.55 298.006 C 1258.19 298.582 1288.94 298.01 1317.7 298.011 L 1552.25 297.922 C 1565.88 297.894 1581.42 297.343 1594.77 298.994 C 1690.46 310.83 1660.99 415.143 1650.88 476.098 L 1571.91 962.503 C 1557.02 1051.08 1548.54 1067.54 1450.04 1067.53 L 542.468 1067.54 C 441.446 1067.54 383.962 1070.84 384.021 949.09 L 384.015 415.987 C 384.034 355.985 394.472 307.24 468.076 298.006 L 1071.96 298.006 L 1071.96 466.925 C 1054.63 466.073 1033.83 466.906 1016.02 466.913 L 552.49 466.925 L 552.49 894.204 L 1410.21 894.204 C 1417.28 860.627 1423.35 817.787 1429.17 783.535 L 1463.87 579.453 C 1469.89 543.059 1475.59 502.832 1483.33 466.925 C 1460.1 465.692 1423.41 466.907 1399.32 466.912 L 1229.55 466.925 C 1228.77 439.115 1229.51 407.474 1229.55 379.339 L 1229.55 298.006 z" fill="rgb(0,0,0)" transform="translate(0,0)"></path>
<metadata><recraft-signature>{"signed_by": "recraft", "signature_b64": "ciYXVLI36v3zLEN1q3fiEmKh7ogunJsnJMzWpbMGWoepYEhp2kWdjF3ZddDnGtPeBLN2HZVBU3i2IZq5GoYZBA==", "signing_algo": "Ed25519", "generation_timestamp": 1772998853, "identifier": "c15e0b3b-faba-4e8b-b9bb-ed5e92ce570c"}</recraft-signature></metadata></svg>