<svg xmlns="http://www.w3.org/2000/svg" height="512" preserveAspectRatio="none" style="display: block;" version="1.1" viewBox="0 0 2048 2048" width="512">
<path d="M 1000.43 606.001 C 1192.82 595.982 1334.48 781.23 1263.52 960.675 C 1257.29 976.436 1250.62 989.241 1242.71 1004.2 C 1372.74 1033.4 1426.67 1102.79 1494.01 1204.81 L 1620.58 1395.41 C 1647.83 1435.96 1664.44 1455.12 1664.9 1507.66 C 1665.62 1588.89 1603.21 1659.99 1521.38 1664.62 C 1488 1666.51 1446.79 1665.46 1412.34 1664.98 C 1407.54 1721.97 1363.11 1769.82 1303.68 1748.44 C 1273.07 1737.43 1244.53 1701.11 1221.74 1678.61 L 1108.24 1565.77 C 1085.92 1543.43 1061.06 1517.37 1037.97 1496.36 C 1032.75 1491.19 1028.98 1487.17 1022.94 1482.95 C 998.178 1505.74 973.784 1530.77 949.897 1554.67 L 844.255 1660.45 C 819.381 1685.37 790.634 1714.31 764.793 1737.16 C 716.914 1779.51 633.393 1736.53 628.929 1671.06 C 626.621 1657.69 549.199 1664.75 532.32 1664.83 C 419.889 1665.52 353.659 1550.3 395.199 1449.88 C 403.226 1430.47 419.075 1409.29 430.811 1391.5 L 562.837 1192.32 C 624.99 1098.88 685.953 1029.18 804.677 1004.2 C 797.05 985.749 788.457 969.466 782.179 950.15 C 730.3 790.531 830.435 624.766 1000.43 606.001 z M 548.431 1505 C 572.14 1505.74 598.829 1505.01 622.904 1505 L 769.004 1505 C 803.728 1466.91 841.656 1431.59 877.608 1394.66 L 941.387 1330.12 C 978.12 1293.04 1023.53 1249.34 1075.81 1300.79 C 1084.08 1308.93 1093.23 1318.62 1101.97 1326.66 L 1239.78 1464.08 C 1253.34 1477.79 1267.83 1490.9 1281 1505 C 1354.18 1505.1 1429.74 1503.83 1502.67 1505 C 1491.5 1484.49 1474.64 1460.44 1461.36 1440.68 L 1397.72 1346.29 C 1270.71 1158.35 1267.41 1153.28 1046.92 1153.28 L 898.333 1153.27 C 801.744 1158.48 753.702 1196.25 702.818 1271.41 L 593.773 1434.82 C 579.123 1457.07 561.883 1482.21 548.431 1505 z M 1037.55 960.029 C 1090.95 952.836 1128.39 903.712 1121.17 850.323 C 1113.96 796.934 1064.82 759.51 1011.43 766.748 C 958.079 773.981 920.683 823.086 927.893 876.443 C 935.104 929.8 984.193 967.217 1037.55 960.029 z" fill="rgb(0,0,0)" transform="translate(0,0)"></path>
<path d="M 1607.91 290.315 C 1647.12 278.564 1677.52 312.7 1699.2 339.691 C 1796.48 460.812 1807.87 611.428 1707.54 735.999 C 1684.43 764.702 1658.92 794.487 1620.25 798.615 C 1548.51 806.593 1495.77 720.336 1567.62 651.555 C 1616.31 603.78 1629.59 535.058 1595.36 474.961 C 1573.13 435.925 1532.99 416.86 1534.17 368.258 C 1535.17 326.775 1565.26 290.327 1607.91 290.315 z" fill="rgb(0,0,0)" transform="translate(0,0)"></path>
<path d="M 422.113 290.315 C 499.092 281.191 553.48 374.906 479.531 439.529 C 422.935 488.986 419.521 588.457 470.634 642.056 C 503.891 676.929 530.681 707.095 505.707 756.975 C 494.69 778.979 475.555 791.184 451.784 798.615 C 393.997 808.9 360.992 770.037 331.642 726.379 C 254.612 611.8 257.336 455.535 345.559 347.635 C 367.233 321.126 386.195 294.667 422.113 290.315 z" fill="rgb(0,0,0)" transform="translate(0,0)"></path>
<path d="M 1355.86 387.283 C 1384.48 383.553 1491.51 468 1516.76 486.367 C 1538.83 502.959 1546.55 525.492 1542.41 552.224 C 1538.99 580.336 1513.37 595.178 1492.58 610.918 C 1458.95 636.378 1419.18 666.127 1383.93 689.455 C 1331.51 699.321 1293.13 654.029 1324.81 615.657 C 1344.38 592.883 1401.63 563.149 1429.56 538.673 C 1396.73 513.997 1355 489.915 1324.54 462.308 C 1300.21 440.249 1317.39 394.892 1355.86 387.283 z" fill="rgb(0,0,0)" transform="translate(0,0)"></path>
<path d="M 682.049 387.283 C 724.769 383.123 750.089 427.322 722.548 461.757 C 710.401 476.945 634.306 524.948 615.051 538.673 C 648.786 562.612 684.553 585.541 717.807 610.144 C 747.963 632.456 735.419 690.401 682.049 689.455 C 653.957 684.725 568.72 615.677 539.594 596.322 C 501.494 571.005 497.829 511.17 534.935 483.857 C 563.937 462.51 651.922 394.347 682.049 387.283 z" fill="rgb(0,0,0)" transform="translate(0,0)"></path>
<metadata><recraft-signature>{"signed_by": "recraft", "signature_b64": "TWHfEiBHlScrecHJGuQJ85TqyDfrJp6p95df1G+liWAxtWtpM+DOdqhM4qPWCvmvZ3k23SPvwGbh0VR1lHg4Bg==", "signing_algo": "Ed25519", "generation_timestamp": 1772989042, "identifier": "bf056418-9493-489a-a6d3-324209385966"}</recraft-signature></metadata></svg>