<svg xmlns="http://www.w3.org/2000/svg" height="512" preserveAspectRatio="none" style="display: block;" version="1.1" viewBox="0 0 2048 2048" width="512">
<path d="M 560.762 486.999 C 644.498 477.764 701.508 522.664 764.028 566.087 L 1273.47 926.245 C 1461.8 1059.7 1384.09 1180.06 1347.18 1364.46 C 1333.16 1434.48 1289 1487.69 1227.21 1522.08 C 1166.92 1555.64 1114.31 1550.24 1048.5 1550.12 L 508.782 1550.15 C 480.901 1550.14 444.836 1551.22 417.754 1546.32 C 313.283 1527.41 233.437 1444.51 216.587 1339.82 C 206.682 1278.28 225.312 1219.86 238.487 1160.05 L 319.056 769.267 C 334.559 692.479 338.988 622.595 398.058 563.457 C 448.325 513.131 491.363 496.809 560.762 486.999 z M 1036.75 1390.52 L 1090.12 1390.59 C 1193.24 1390.65 1188.56 1351.73 1208.34 1262.37 L 1227.05 1177.93 C 1247.44 1084.41 1228.13 1082.11 1147.8 1026.42 L 789.28 775.115 C 748.293 745.853 619.59 639.184 572.747 646.396 C 538.146 650.205 503.03 676.596 494.62 711.525 C 484.09 755.256 476.444 799.887 466.92 843.789 L 389.119 1207.43 C 376.868 1262.79 350.987 1330.3 405.635 1372.3 C 436.259 1395.84 476.181 1390.59 513.631 1390.57 L 1036.75 1390.52 z" fill="rgb(0,0,0)" transform="translate(0,0)"></path>
<path d="M 1432.79 221.025 C 1490.42 215.087 1513.88 264.922 1539.55 305.165 L 1620.65 433.342 C 1649.54 479.421 1677.74 525.565 1707.99 570.852 C 1722.69 595.476 1744.02 621.189 1755.32 647.252 C 1786.22 718.507 1693.42 794.989 1624.58 735.751 C 1615.33 727.003 1609.01 715.709 1602.19 705.273 C 1550.75 626.575 1502.84 545.105 1451.48 466.463 C 1448.4 461.447 1445.79 457.987 1442.26 453.301 L 1280.43 714.368 C 1238.17 781.201 1129.48 752.281 1130.43 669.851 C 1130.8 638.058 1160.83 598.548 1178.4 571.188 L 1249.33 460.257 C 1280.91 411 1310.53 360.252 1342.43 311.226 C 1368.73 270.792 1380.95 231.097 1432.79 221.025 z" fill="rgb(0,0,0)" transform="translate(0,0)"></path>
<path d="M 1743.81 1251.33 C 1792.7 1245.73 1832.94 1286.86 1832.96 1334.32 L 1833.03 1703.07 C 1833.03 1712.72 1832.78 1723.74 1832.94 1733.37 C 1834.25 1807.01 1748.79 1842.16 1696.74 1790.39 C 1663.86 1757.69 1673.02 1685.18 1673.06 1638.71 C 1673.88 1627.7 1673.59 1620.88 1673.06 1610 C 1630.95 1609.09 1488.92 1616.21 1455.93 1603.24 C 1387.02 1576.13 1392.15 1471.91 1465.29 1454.36 C 1489.14 1448.64 1526.1 1450.96 1551.73 1450.96 L 1673.06 1450.98 L 1672.98 1368.96 C 1672.93 1312.55 1673.71 1262.94 1743.81 1251.33 z" fill="rgb(0,0,0)" transform="translate(0,0)"></path>
<metadata><recraft-signature>{"signed_by": "recraft", "signature_b64": "KlPitfEVtUxfCuYZgaltG1jnwlFPix2LUr13MhdILgbvwvb+TG269cMM+RNv+iEKO977O2X0wMEpxKmBKYDSAA==", "signing_algo": "Ed25519", "generation_timestamp": 1772989903, "identifier": "59b98e93-1050-4d73-8487-1cc92ee1521b"}</recraft-signature></metadata></svg>