<svg xmlns="http://www.w3.org/2000/svg" height="512" preserveAspectRatio="none" style="display: block;" version="1.1" viewBox="0 0 2048 2048" width="512">
<path d="M 983.766 691.251 C 990.671 690.479 996.643 699.429 1000.41 704.812 C 1035.39 754.791 1107.9 742.063 1140.38 691.251 L 1142.35 691.569 C 1214.77 703.389 1283.1 765.819 1323.69 825.451 C 1449.31 1010.76 1393.82 1066.47 1213.46 1159.77 C 1201.15 1166.14 1185.84 1173.33 1172.65 1176.71 C 1133.41 1186.76 1094.23 1141.68 1127.61 1113.98 C 1165.19 1082.79 1301.79 1030.22 1309.27 990.851 C 1313.85 966.725 1282.76 917.584 1270 897.767 C 1269.76 928.711 1275.39 981.175 1270 1009.52 C 1259.22 1025.15 1192.66 1060.7 1171.54 1072.76 C 1126.77 1098.4 1096.78 1098.87 1104.56 1158.07 C 1079.53 1152.34 1014.12 1126.92 991.05 1127.09 C 991.314 1080.56 970.826 1079.92 938.484 1056.86 C 913.696 1039.18 881.476 1021.46 858.193 1002.51 L 857.022 1001.55 C 854.924 965.463 859.866 921.388 859.833 884.624 C 845.055 899.22 804.902 962.469 816.626 985.595 C 830.982 1013.91 959.808 1075.79 972.332 1099.14 C 974.919 1103.97 982.533 1124.01 970.833 1121.74 C 948.877 1117.28 926.971 1114.95 904.697 1112.94 C 889.703 1111.59 867.942 1116.11 854.062 1112.99 C 833.55 1104.65 816.793 1089.24 799.575 1078.46 C 735.075 1037.09 718.613 1008.11 745.444 933.541 C 783.29 828.354 866.194 710.575 983.766 691.251 z" fill="rgb(0,0,0)" transform="translate(0,0)"></path>
<path d="M 1293.99 767.089 C 1387.31 818.175 1410.11 888.806 1434.95 983.07 L 1458.82 1071.55 C 1475.09 1133.62 1466.15 1127.9 1510.3 1174.03 C 1598.65 1266.35 1627 1414.51 1535.48 1514.06 C 1455.59 1600.95 1231.3 1615.45 1109.25 1620.86 C 1055.38 1622.13 997.913 1615.43 946.337 1617.97 C 946.193 1598.6 947.892 1579.15 948.866 1559.81 L 954.442 1457.82 C 956.108 1431.05 957.888 1410.7 958.505 1383.44 C 1086.74 1415.56 1183.18 1395.34 1276.9 1293.43 C 1322.71 1243.62 1302.08 1228.96 1303.21 1186.06 C 1303.68 1168.02 1307.85 1144.83 1306.53 1127.09 C 1364.42 1070.77 1428.87 1052.27 1396.7 943.536 C 1376.66 875.787 1341.2 820.226 1294.12 768.092 C 1294.08 767.757 1294.03 767.423 1293.99 767.089 z" fill="rgb(0,0,0)" transform="translate(0,0)"></path>
<path d="M 870.344 1127.09 C 971.511 1120.99 1175.1 1189.76 1268.93 1247.23 C 1240.7 1388 1102.94 1360.37 999.916 1321.9 C 990.744 1318.47 962.258 1305.33 954.949 1305.77 C 947.217 1315.18 942.488 1439.26 941.109 1460.07 C 939.856 1497.9 936.292 1535.68 934.465 1573.49 C 931.776 1629.14 943.087 1711.63 872.802 1729.98 C 831.243 1740.82 783.482 1714.09 774.367 1671.38 C 769.957 1650.72 773.224 1627.79 772.257 1606.69 C 767.204 1496.4 757.848 1240.34 806.927 1165.42 C 822.266 1142.01 843.864 1132.78 870.344 1127.09 z" fill="rgb(0,0,0)" transform="translate(0,0)"></path>
<path d="M 719.018 969.479 L 720.638 970.562 C 711.399 1058 777.719 1075.38 836.195 1121.58 C 786.252 1150.22 791.831 1169.6 773.132 1212.39 L 772.568 1213.66 C 752.302 1223.31 728.589 1226.34 714.243 1247.43 C 679.672 1298.24 623.706 1421.49 598.5 1479.9 C 591.616 1493.49 584.444 1507.43 579.698 1521.9 C 544.34 1498.73 527.1 1434.47 521.61 1394.04 C 510.198 1309.99 543.866 1219.21 612.726 1167.9 C 656.541 1134.33 659.799 1134.32 673.772 1081.73 C 681.799 1051.52 699.792 993.535 719.018 969.479 z" fill="rgb(0,0,0)" transform="translate(0,0)"></path>
<path d="M 1061.56 413.924 C 1138.07 411.816 1201.82 472.082 1204.02 548.586 C 1206.21 625.09 1146.02 688.911 1069.52 691.191 C 992.893 693.474 928.949 633.164 926.751 556.538 C 924.553 479.912 984.935 416.036 1061.56 413.924 z M 1035.24 644.696 C 1061.88 639.539 1055.99 619.801 1030.97 618.052 C 1006.26 622.945 1010.47 645.614 1035.24 644.696 z M 1104.56 644.696 C 1129.15 637.226 1118.67 617.083 1095.42 618.052 C 1071.27 627.072 1081.58 646.76 1104.56 644.696 z" fill="rgb(0,0,0)" transform="translate(0,0)"></path>
<path d="M 768.161 1229.99 L 769.356 1230.27 C 771.51 1234.52 763.926 1279.5 762.989 1288.31 C 755.116 1362.39 754.228 1437.27 755.531 1511.74 C 755.943 1535.24 758.999 1558.38 755.032 1581.91 C 749.827 1605.76 723.097 1638.52 712.686 1662.39 C 688.263 1718.4 628.769 1738.02 579.698 1697.31 C 524.023 1645.82 556.054 1603.58 581.091 1549.78 L 670.828 1361.06 C 696.81 1306.65 709.236 1250.81 768.161 1229.99 z" fill="rgb(0,0,0)" transform="translate(0,0)"></path>
<path d="M 448.852 1663.31 C 457.817 1661.87 539.126 1678.7 550.738 1682.86 C 580.508 1724.45 606.284 1732.12 655.488 1728.95 C 648.797 1778.97 654.403 1805.25 598.5 1824.99 C 567.786 1828.88 441.367 1794.12 423.321 1782.87 C 373.198 1751.62 382.054 1676.78 448.852 1663.31 z" fill="rgb(0,0,0)" transform="translate(0,0)"></path>
<path d="M 925.107 1709.64 C 959.264 1725.33 963.753 1799.14 922.935 1826.71 C 908.706 1836.32 808.222 1880.95 792.64 1884.53 C 772.999 1889.04 754.297 1883.7 737.548 1873.33 C 713.962 1858.3 703.69 1826.64 710.878 1800.3 C 722.289 1758.49 772.831 1751.38 806.624 1732.12 C 851.058 1754.4 892.128 1747.6 925.107 1709.64 z" fill="rgb(0,0,0)" transform="translate(0,0)"></path>
<path d="M 607.984 1084.9 C 629.311 1086.03 609.01 1102.36 600.773 1107.4 C 426.615 1213.82 449.812 1377.43 434.169 1387.78 C 419.585 1387.98 424.357 1373.13 424.556 1363.17 C 426.791 1250.84 507.052 1132.85 607.984 1084.9 z" fill="rgb(0,0,0)" transform="translate(0,0)"></path>
<path d="M 1293.99 1133.07 C 1299.06 1143.09 1281.57 1221.48 1270.91 1229.85 C 1264.96 1230.19 1224.86 1208.01 1214.53 1203.5 C 1203.58 1198.29 1194.63 1194.57 1183.34 1190.13 C 1221.45 1171.68 1256.81 1153.65 1293.99 1133.07 z" fill="rgb(0,0,0)" transform="translate(0,0)"></path>
<path d="M 1122.81 158.387 C 1130.37 158.636 1182.98 172.919 1187.88 177.422 C 1192.22 190.973 1124.67 221.838 1113.04 227.929 C 1126.89 234.597 1143.04 237.909 1157.33 243.645 C 1183.55 254.175 1110.49 267.142 1104.56 269.462 C 1112.18 272.522 1117.99 274.297 1125.66 277.926 C 1137.74 298.477 1085.28 283.487 1079.13 270.47 C 1078.99 257.855 1113.31 250.272 1122.81 247.733 C 1113.38 244.383 1084.8 240.965 1086.07 227.914 C 1089.69 220.803 1148.59 190.861 1159.97 184.493 C 1146.24 180.179 1112.06 177.523 1122.81 158.387 z" fill="rgb(0,0,0)" transform="translate(0,0)"></path>
<path d="M 1397.77 293.111 C 1446.26 289.992 1457.41 345.047 1423.2 361.326 C 1406.66 369.197 1388.27 366.808 1380.85 349.159 C 1364.24 390.199 1367.55 409.675 1329.42 365.488 C 1319.65 394.179 1303.38 404.804 1310.24 376.679 C 1321.95 335.511 1334.39 339.666 1354.75 376.679 C 1358.39 366.353 1371.88 312.354 1389.04 341.127 C 1397.23 356.278 1420.32 353.108 1426.25 338.14 C 1433.03 321.015 1416.57 300.311 1398.15 308.502 C 1366.72 322.471 1378.67 300.656 1397.77 293.111 z" fill="rgb(0,0,0)" transform="translate(0,0)"></path>
<path d="M 1498.68 542.245 C 1572.29 533.972 1535.55 658.01 1475.35 597.67 C 1463.25 627.452 1462.51 649.76 1431.8 611.824 C 1409.72 637.977 1398.56 627.993 1412.66 611.824 C 1431.79 585.226 1438.14 593.167 1452.12 618.052 C 1480.4 536.761 1478.26 599.303 1503.72 598.56 C 1531.06 597.763 1533.52 557.841 1498.68 555.767 C 1496.89 556.975 1479.11 576.229 1477.19 567.872 C 1473.72 552.687 1488.87 545.884 1498.68 542.245 z" fill="rgb(0,0,0)" transform="translate(0,0)"></path>
<path d="M 683.577 477.351 C 693.388 476.775 712.638 481.113 708.828 494.572 C 701.6 499.661 686 490.003 675.742 495.101 C 659.85 503.087 661.647 527.646 678.718 533.491 C 713.731 545.478 706.877 480.574 737.548 555.767 C 757.806 540.023 764.135 518.004 779.975 553.571 C 792.288 579.973 773.903 579.972 763.882 555.767 C 730.648 574.616 722.874 581.277 715.887 537.594 C 660.338 584.005 617.474 489.532 683.577 477.351 z" fill="rgb(0,0,0)" transform="translate(0,0)"></path>
<path d="M 1502.52 1065.7 C 1518.39 1065.78 1557.65 1093.69 1569.91 1104.37 C 1589.61 1121.65 1674.58 1223.1 1653.15 1247.23 C 1635.43 1247.75 1635.07 1223.4 1627.61 1207.03 C 1606.19 1159.96 1570.81 1123.02 1528.63 1093.94 C 1519.57 1087.69 1488.31 1079.77 1502.52 1065.7 z" fill="rgb(0,0,0)" transform="translate(0,0)"></path>
<path d="M 826.455 239.031 C 836.057 238.423 863.233 242.036 850.05 256.786 C 837.599 263.17 835.168 243.053 815.805 261.816 L 814.87 262.737 C 810.551 273.768 809.785 285.984 820.977 293.421 C 851.709 313.84 862.262 244.123 870.344 327.097 C 880.161 321.914 888.333 317.671 898.544 313.186 C 905.005 319.612 909.753 327.996 914.61 335.755 C 917.861 341.375 922.03 346.668 919.188 353.018 C 906.133 361.707 898.699 340.068 893.35 331.469 C 857.6 349.882 855.997 349.566 854.062 308.869 C 792.941 327.67 773.761 255.38 826.455 239.031 z" fill="rgb(0,0,0)" transform="translate(0,0)"></path>
<path d="M 964.532 1324.22 C 982.159 1329.73 1037.06 1347.63 1052.38 1356.16 L 1052.47 1357.9 C 1028.1 1357.67 987.648 1353 964.532 1345.58 C 963.485 1336.2 963.447 1333.53 964.532 1324.22 z" fill="rgb(0,0,0)" transform="translate(0,0)"></path>
<path d="M 1285.99 953.693 C 1290.36 958.011 1299.14 986.95 1290.6 996.726 C 1281.07 1007.33 1285.79 960.479 1285.99 953.693 z" fill="rgb(0,0,0)" transform="translate(0,0)"></path>
<path d="M 841.307 953.693 L 842.136 954.915 C 841.465 961.37 842.641 985.012 838.966 987.677 L 836.195 986.415 C 826.303 975.627 834.796 964.171 841.307 953.693 z" fill="rgb(0,0,0)" transform="translate(0,0)"></path>
<metadata><recraft-signature>{"signed_by": "recraft", "signature_b64": "ybTMZz+HolE9BBT159VhqhAvEYqnYwypBy4wvryuLze1Pvwvekor52mBtzbNDpsPejvKrVDtn1QNlobMy4z0Cw==", "signing_algo": "Ed25519", "generation_timestamp": 1772988367, "identifier": "512178a4-5fe4-4378-afb0-5e0818060942"}</recraft-signature></metadata></svg>