<svg xmlns="http://www.w3.org/2000/svg" height="512" preserveAspectRatio="none" style="display: block;" version="1.1" viewBox="0 0 2048 2048" width="512">
<path d="M 313.67 240.51 C 343.94 243.61 356.642 244.104 378.902 266.089 L 1723.66 1609.34 C 1744 1629.7 1765.35 1650.42 1785.27 1671.13 C 1835.04 1726.25 1775.12 1817.16 1702.56 1793.83 C 1673.31 1784.42 1619.78 1725.22 1596.02 1701.34 C 1572.62 1677.8 1539.18 1642.44 1514.81 1621.11 C 1493.63 1620.29 1466.47 1621.09 1444.73 1621.09 L 726.754 1621.13 C 659.559 1621.16 598.116 1625.3 545.758 1574.22 C 491.247 1521.04 496.258 1462.04 496.327 1392.8 L 496.356 1267.11 C 167.268 1242.16 191.516 775.549 496.356 772.684 L 496.458 645.33 C 496.441 635.388 494.887 607.572 496.356 600.544 C 482.115 589.671 463.62 570.027 450.246 556.638 L 302.773 407.505 C 282.96 387.475 253.58 363.378 247.957 335.104 C 238.588 287.992 267.353 249.88 313.67 240.51 z M 884.5 1468.01 L 897.165 1468.01 L 897.095 1395.7 C 897.027 1287.52 931.842 1228.19 1047.6 1228.41 L 1100.21 1228.59 C 1107.43 1228.63 1115.98 1228.89 1123.08 1228.47 C 1107.56 1212.02 1088.94 1195.05 1072.66 1179 L 747.235 852.824 C 734.953 840.508 661.444 763.276 651.169 758.378 L 651.246 825.268 C 651.255 854.648 655.154 884.204 632.126 906.685 C 580.685 956.905 497.172 898.466 439.921 955.965 C 404.391 991.648 406.373 1052.5 443.07 1086.91 C 494.771 1139.92 649.181 1069.67 651.139 1186.96 C 652.698 1280.39 649.365 1374.68 651.169 1468.01 L 884.5 1468.01 z M 1228.98 1468.01 L 1316.27 1467.98 C 1330.13 1467.98 1348.02 1467.44 1361.59 1468.01 C 1350.13 1454.92 1336.05 1441.48 1323.67 1429.01 L 1268.89 1373.86 C 1258.84 1363.94 1239.09 1342.16 1228.98 1335.23 L 1228.98 1468.01 z" fill="rgb(18,17,17)" transform="translate(0,0)"></path>
<path d="M 1037.49 240.51 C 1185.76 228.585 1308.63 346.005 1313.95 492.339 L 1471.91 492.18 C 1523.85 492.167 1561.35 505.074 1599.16 541.579 C 1653.75 594.29 1647.05 653.197 1647.04 721.794 L 1647.02 1431.69 C 1601.13 1385.47 1530.04 1324.52 1491.53 1275.46 C 1490.35 1248.89 1491.55 1211.12 1491.54 1183.68 L 1491.53 997.111 L 1491.53 649.937 L 1304 649.962 C 1261.48 649.971 1205.42 660.258 1171.01 628.849 C 1117.79 580.267 1180.07 478.456 1120.65 425.215 C 1086.06 394.22 1037.01 391.971 999.929 419.474 C 930.241 471.162 993.737 571.959 946.731 624.806 C 923.998 650.362 891.881 648.211 860.682 649.937 C 814.327 597.362 752.967 539.525 702.618 490.384 C 737.601 489.615 769.679 494.751 804.558 492.339 C 802.489 355.829 901.376 249.695 1037.49 240.51 z" fill="rgb(18,17,17)" transform="translate(0,0)"></path>
<metadata><recraft-signature>{"signed_by": "recraft", "signature_b64": "SSqDbGqx1zKNkKIGN2sWHRVVjD9/gZsXzKEaKNDsIvNC6+pw9at8IYaVPrCOyJ6FW8MCKH+Zv17qdMoeBtKjCw==", "signing_algo": "Ed25519", "generation_timestamp": 1772989318, "identifier": "1f432879-1295-4b84-a0f7-0f0def212f9c"}</recraft-signature></metadata></svg>