<svg xmlns="http://www.w3.org/2000/svg" height="512" preserveAspectRatio="none" style="display: block;" version="1.1" viewBox="0 0 2048 2048" width="512">
<path d="M 1771.72 683.374 C 1773.42 685.677 1761.87 709.42 1759.85 713.94 C 1728.65 783.834 1706.58 825.691 1707.34 902.357 C 1724.25 906.106 1740.73 914.217 1756.47 921.309 C 1903.65 987.619 1947.43 1102.78 1789.65 1197.37 C 1758.68 1215.94 1763.39 1209.99 1737.15 1237 C 1466.46 1515.6 813.363 1507.41 491.714 1359.03 C 430.773 1330.92 351.709 1288.16 307.24 1236.24 C 279.225 1203.54 286.778 1211.16 249.923 1189.54 C 215.1 1169.1 179.526 1138.86 165.442 1099.94 C 119.679 973.507 323.988 900.815 417.421 868.217 C 402.709 884.397 393.671 889.107 395.199 912.501 C 314.382 942.982 103.906 1031.74 237.347 1137.39 C 411.942 1275.63 819.994 1294.49 1029.45 1295.04 C 1091.8 1295.17 1161.02 1294.65 1223.1 1288.26 C 1368.69 1279.6 1517.53 1259.03 1657.29 1213.59 C 1721.25 1192.8 1900.09 1127.39 1842.27 1029.95 C 1822.27 996.237 1756.75 953.149 1716.92 944.871 C 1740 986.795 1762.8 1035.94 1785.88 1079.71 C 1667.63 1059.99 1624.2 1016.82 1542.39 944.871 C 1501.93 966.094 1455.79 980.232 1416.44 1000.57 C 1437.96 1025.25 1451.61 1056.71 1447.69 1089.82 C 1391.01 1077.13 1344.21 1071.01 1285.55 1052.77 C 1272.81 1048.81 1268.02 1048.74 1255.09 1052.06 C 1033.05 1109.09 790.623 1120 570.082 1050.6 C 506.002 1030.43 307.343 938.179 503.029 938.968 C 475.78 925.72 445.516 913.88 417.421 902.357 C 417.565 902.096 417.709 901.835 417.854 901.574 L 418.606 900.289 C 441.85 860.057 541.679 784.955 580.266 764.988 C 695.627 705.291 879.458 695.901 1011.59 707.479 C 1202.42 724.201 1363.36 769.054 1542.39 827.845 C 1557.55 816.363 1584.86 785.817 1598.49 771.167 C 1647.86 718.117 1703.02 698.824 1771.72 683.374 z M 901.281 993.841 C 912.665 1020.56 930.854 1056.22 964.529 1051.83 C 987.939 1047 1047.09 1006.92 1070.39 993.766 C 1120.78 965.321 1067.14 897.711 1017.56 926.863 C 994.981 940.14 967.237 953.234 944.624 968.254 C 927.602 935.704 920.406 903.194 876.827 902.357 C 862.048 907.543 765.923 969.979 758.566 980.477 C 737.982 1009.85 778.579 1058.94 818.152 1041.44 C 846.263 1028.2 874.511 1009.79 901.281 993.841 z M 701.199 1032.03 C 723.31 1018.63 743.219 976.256 749.234 951.95 C 759.363 911.031 739.863 791.014 693.49 792.997 C 681.847 803.956 689.033 809.259 697.129 819.915 C 736.448 871.677 742.596 942.496 704.453 996.383 C 702.173 999.848 668.408 1041.13 701.199 1032.03 z M 594.593 901.882 C 611.235 897.487 621.146 880.414 616.71 863.783 C 612.273 847.152 595.176 837.284 578.556 841.762 C 561.995 846.224 552.169 863.248 556.59 879.82 C 561.011 896.393 578.01 906.261 594.593 901.882 z" fill="rgb(0,0,0)" transform="translate(0,0)"></path>
<path d="M 1106.85 565.266 C 1120.5 564.768 1125.63 630.168 1127.61 643.452 C 1165.52 666.152 1187.6 681.593 1218.24 714.036 C 1173.61 700.385 1094.68 692.521 1048.21 687.413 C 1011.9 680.759 950.245 678.849 913.43 678.976 C 933.869 641.352 1068.34 572.296 1106.85 565.266 z" fill="rgb(0,0,0)" transform="translate(0,0)"></path>
<metadata><recraft-signature>{"signed_by": "recraft", "signature_b64": "TvSNCMIfBsMm+HVtmdussf0aPFMogEVDAG5yr5WKuoSXoyxrwktSdZJSZbIt+kwMonv7DO31PoGdMXm4eHd+Ag==", "signing_algo": "Ed25519", "generation_timestamp": 1773009104, "identifier": "fbf65e43-6906-4e83-9fc0-273c6c2eb634"}</recraft-signature></metadata></svg>