<svg xmlns="http://www.w3.org/2000/svg" height="512" preserveAspectRatio="none" style="display: block;" version="1.1" viewBox="0 0 2048 2048" width="512">
<path d="M 1016.93 176.532 C 1267 172.774 1488.07 375.509 1495.05 626.798 C 1497.15 702.487 1495.1 781.702 1495.1 857.674 L 1495.12 956.659 C 1495.13 978.503 1496.15 1002.27 1493.76 1023.81 C 1467.59 1259.87 1266.17 1439.8 1029.89 1442.19 L 1026.38 1442.32 C 777.38 1450.1 556.103 1235.18 552.738 986.328 C 552.375 959.463 552.552 932.339 552.566 905.36 L 552.496 669.522 C 552.336 604.295 553.729 565.579 574.529 502.673 C 638.488 309.24 814.072 181.654 1016.93 176.532 z M 1038.25 1315.01 C 1193.15 1297.54 1323.18 1211.26 1360.25 1050.48 C 1370.09 1007.79 1367.78 960.506 1367.71 916.832 L 1367.74 686.99 C 1367.73 660.832 1368.09 635.93 1365.51 609.967 C 1347.96 433.245 1187.71 300.206 1013 303.042 C 855.597 315.116 718.562 418.571 686.493 577.787 C 678.294 618.495 679.053 659.398 679.057 700.597 L 679.063 924.666 C 679.051 951.934 678.731 978.691 680.614 1005.92 C 692.828 1182.56 862.207 1325.89 1038.25 1315.01 z" fill="rgb(28,27,27)" transform="translate(0,0)"></path>
<path d="M 349.708 990.367 C 374.538 981.869 406.308 1001.47 416.728 1023.79 C 425.622 1042.84 422.586 1063.96 426.382 1084.15 C 463.214 1285.7 558.774 1409.14 738.418 1497.52 C 792.411 1524.09 781.709 1597.57 722.765 1613.27 C 702.053 1616.02 684.876 1611 666.477 1601.89 C 469.395 1504.19 323.901 1314.48 300.342 1093.52 C 295.672 1049.72 289.879 997.886 349.708 990.367 z" fill="rgb(28,27,27)" transform="translate(0,0)"></path>
<path d="M 1679.68 990.367 C 1735.01 981.733 1750.57 1030.62 1747.37 1074.67 C 1729.98 1314.06 1572.74 1525.88 1349 1613.27 C 1332.3 1611.17 1315.62 1610.04 1301.6 1598.9 C 1274.41 1577.3 1272.09 1534.9 1296.08 1510.01 C 1312.23 1493.24 1342.77 1484.53 1363.26 1471.67 C 1501.55 1391.3 1604.82 1245.87 1622.71 1085.69 C 1627.23 1045.47 1626.63 996.181 1679.68 990.367 z" fill="rgb(119,145,190)" transform="translate(0,0)"></path>
<path d="M 1013 1573.2 C 1064.99 1569.17 1085.89 1602.05 1085.56 1648.34 C 1085.14 1706.3 1086.31 1764.39 1085.29 1822.31 C 1084.77 1852.47 1065.52 1871.12 1038.25 1880.69 C 969.785 1890.54 961.584 1837.16 961.509 1783.14 L 961.469 1722.69 C 961.464 1666.98 944.611 1587.94 1013 1573.2 z" fill="rgb(251,186,99)" transform="translate(0,0)"></path>
<metadata><recraft-signature>{"signed_by": "recraft", "signature_b64": "eEEOGim3iP1lqKsmCfGb5ZocgMw6pcUUSD9GG/BPPuxm+Quwl6AABTczRvwqoyKUylddmMpJdMO92lWiHj96CQ==", "signing_algo": "Ed25519", "generation_timestamp": 1772999443, "identifier": "075c2db6-eea7-4161-bc0c-8113eb13eb68"}</recraft-signature></metadata></svg>