<svg xmlns="http://www.w3.org/2000/svg" height="512" preserveAspectRatio="none" style="display: block;" version="1.1" viewBox="0 0 2048 2048" width="512">
<path d="M 1163.54 664.735 L 1274.18 664.689 C 1394.17 664.655 1483.62 692.902 1542.37 812.289 C 1567.62 865.816 1599.15 953.73 1618.04 1011.24 C 1625.03 1001.17 1630.8 993.791 1641.02 987.003 L 1673.24 987.005 C 1707.65 987.105 1735.37 986.047 1761.23 1012.49 C 1789.27 1041.16 1798.4 1086.48 1767.19 1116.65 C 1742.6 1140.42 1709.29 1136.79 1677.65 1136.08 C 1697.28 1176.3 1720.76 1215.02 1729.26 1259.84 C 1740.51 1319.18 1742.85 1383.61 1745.79 1443.9 C 1747.42 1506.34 1763.19 1556.67 1681.91 1571.83 L 1681.95 1664.3 C 1682.13 1739.32 1678.54 1788.61 1587.58 1784.15 C 1472.97 1778.52 1442.82 1796.23 1442.85 1662.98 L 1442.83 1571.83 L 885.5 1571.83 L 606.98 1571.83 L 607.001 1665.74 C 607.019 1725.62 606.965 1783.22 529.021 1783.93 L 474.402 1783.94 C 373.975 1784.09 365.281 1756.79 365.271 1662.67 L 365.287 1571.83 C 291.507 1570.71 298.438 1496.46 300.146 1445.89 C 304.641 1312.73 305.532 1253.28 365.287 1136.08 C 348.824 1135.58 328.269 1137.54 312.911 1134.35 C 217.966 1114.57 239.13 953.428 418.061 989.976 C 422.863 997.819 427.437 1007.34 431.274 1015.67 C 450.134 934.381 497.306 802.388 553.76 747.171 C 625.94 676.574 690.478 664.617 784.781 664.703 L 1163.54 664.735 z M 1302.48 1056.95 L 1518.57 1056.95 C 1510.73 1033.38 1501.21 1011.53 1492.67 988.474 L 1465.56 915.965 C 1415.13 783.998 1369.36 770.995 1237.77 771.012 L 747.865 771.039 C 693.381 775.517 654.193 791.523 617.648 834.02 C 585.067 871.907 545.581 1001.13 531.148 1056.95 L 1302.48 1056.95 z M 1234.25 1439.04 C 1307.04 1435.16 1326.6 1316.7 1277.18 1275.45 C 1251.12 1253.5 1213.07 1257.96 1181.01 1257.97 L 906.322 1257.97 C 879.517 1257.96 846.643 1257.04 820.171 1258 C 754.348 1264.46 742.668 1318.97 748.432 1373.79 C 756.015 1445.91 823.905 1439.1 875.775 1439.07 L 1153.98 1439.05 C 1176.6 1439.06 1212.59 1440.28 1234.25 1439.04 z M 583.523 1431.59 C 635.138 1427.73 673.756 1382.61 669.6 1331.02 C 665.444 1279.43 620.102 1241.07 568.535 1245.52 C 517.384 1249.94 479.401 1294.83 483.524 1346.01 C 487.646 1397.18 532.325 1435.42 583.523 1431.59 z M 1482.63 1429.08 C 1533.71 1422.6 1569.83 1375.9 1563.28 1324.84 C 1556.73 1273.77 1509.98 1237.71 1458.92 1244.33 C 1407.97 1250.94 1371.99 1297.58 1378.53 1348.54 C 1385.07 1399.51 1431.66 1435.55 1482.63 1429.08 z" fill="rgb(52,52,60)" transform="translate(0,0)"></path>
<path d="M 1006.48 259.023 C 1088.39 254.985 1169.87 284.605 1226.33 344.749 C 1248.99 368.887 1223.29 401.6 1195.02 390.918 C 1184.67 387.009 1175.63 373.444 1167.09 366.387 C 1130.54 334.587 1089.36 321.75 1042.29 314.988 C 982.104 313.338 929.316 326.44 882.002 365.703 C 873.308 372.918 860.74 388.481 849.939 390.878 C 825.224 396.363 803.626 368.826 820.194 347.241 C 864.676 288.94 938.381 270.316 1006.48 259.023 z" fill="rgb(52,52,60)" transform="translate(0,0)"></path>
<path d="M 1006.48 352.994 C 1063.14 349.217 1113.42 365.632 1152.69 407.581 C 1180.8 437.605 1140.42 478.452 1110.23 444.695 C 1094.81 427.447 1065.41 413.626 1042.29 410.329 C 961.484 399.62 945.577 451.824 919.16 456.479 C 857.373 467.368 879.56 372.406 1006.48 352.994 z" fill="rgb(52,52,60)" transform="translate(0,0)"></path>
<path d="M 1018.12 466.001 C 1053.69 463.106 1084.93 489.461 1088.07 525.011 C 1091.21 560.562 1065.07 591.983 1029.54 595.366 C 993.664 598.782 961.869 572.332 958.699 536.434 C 955.53 500.536 982.198 468.924 1018.12 466.001 z" fill="rgb(52,52,60)" transform="translate(0,0)"></path>
<metadata><recraft-signature>{"signed_by": "recraft", "signature_b64": "3GqahygkSG8/ddjlWZADc8n3Z4fbD9d2oBmhS5WGD44Oe/rLEePYOmoZbh4WPmZpKHykbI0FcIf4z7U3ay7oBQ==", "signing_algo": "Ed25519", "generation_timestamp": 1773000164, "identifier": "939930a7-f0b7-4e52-85ca-d94e44fa6343"}</recraft-signature></metadata></svg>