<svg xmlns="http://www.w3.org/2000/svg" height="512" preserveAspectRatio="none" style="display: block;" version="1.1" viewBox="0 0 2048 2048" width="512">
<path d="M 498.873 413.969 C 520.933 412.929 550.59 413.942 573.383 413.952 L 1520.68 413.893 C 1668.93 413.635 1799.93 500.237 1808.77 658.971 C 1809.75 676.536 1809.12 694.928 1809.1 712.66 L 1809.04 1298.14 C 1809.03 1331.78 1811.36 1379.12 1805.81 1410.71 C 1783.63 1536.92 1676.3 1624.6 1549.25 1631.51 L 591.371 1631.53 C 560.765 1631.55 530.297 1631.47 499.693 1631.15 C 356.77 1629.65 239.736 1511.11 238.631 1367.85 L 238.599 751.005 C 238.56 706.639 235.931 663.407 245.301 619.77 C 270.565 502.109 378.624 414.753 498.873 413.969 z M 1554.25 1478.96 C 1650.24 1462.25 1657.56 1409.11 1657.57 1323.92 L 1657.68 702.496 C 1657.84 687.086 1658.8 672.096 1656.11 656.939 C 1642.11 577.971 1573.38 562.759 1507.2 562.865 L 498.873 562.932 C 408.705 574.531 390.543 633.435 390.77 713.406 L 390.769 1336 C 390.836 1445.84 439.48 1479.16 542.425 1479.02 L 1554.25 1478.96 z" fill="rgb(42,41,41)" transform="translate(0,0)"></path>
<path d="M 624.542 951.718 C 718.049 944.841 799.428 1015.06 806.316 1108.57 C 813.203 1202.07 742.991 1283.46 649.485 1290.36 C 555.965 1297.26 474.562 1227.03 467.673 1133.51 C 460.785 1039.99 531.02 958.596 624.542 951.718 z" fill="rgb(42,41,41)" transform="translate(0,0)"></path>
<path d="M 1404.89 954.353 C 1497.86 951.781 1575.34 1025.02 1578 1118 C 1580.65 1210.97 1507.48 1288.52 1414.5 1291.25 C 1321.42 1293.99 1243.75 1220.71 1241.1 1127.62 C 1238.44 1034.53 1311.79 956.928 1404.89 954.353 z" fill="rgb(42,41,41)" transform="translate(0,0)"></path>
<path d="M 1018.05 955 C 1054.15 951.045 1091.36 977.538 1100.97 1013.09 C 1104.61 1026.52 1103.17 1052.4 1103.17 1067.22 L 1103.24 1192.25 C 1103.28 1247.73 1085.93 1280.24 1029.51 1290.96 C 907.653 1285.06 947.393 1141.83 942.937 1054.16 C 940.412 1004.46 962.211 957.892 1018.05 955 z" fill="rgb(42,41,41)" transform="translate(0,0)"></path>
<metadata><recraft-signature>{"signed_by": "recraft", "signature_b64": "CqpcxL3wrx5e6q7UxJ8HOkMxWZOJWeH5cXTCLfKROJIF+ehhTlm6SUyWWtS8JvmMhmQ+C70i6KJLJNgV+t4UAw==", "signing_algo": "Ed25519", "generation_timestamp": 1772989466, "identifier": "78e7de02-5f99-4c15-b599-adee3f382cad"}</recraft-signature></metadata></svg>