<svg xmlns="http://www.w3.org/2000/svg" height="512" preserveAspectRatio="none" style="display: block;" version="1.1" viewBox="0 0 2048 2048" width="512">
<path d="M 638.943 949.205 L 638.896 420.456 C 638.812 337.669 638.985 314.14 729.248 314.317 L 1634.31 314.32 C 1706.88 314.603 1705.84 356.668 1705.85 416.045 L 1705.93 1634.99 C 1705.56 1697.48 1669.45 1706.99 1612.75 1706.81 L 703.199 1706.78 C 630.614 1706.97 638.842 1640.34 638.874 1591.33 L 638.943 1070.97 C 637.554 1033.47 638.909 987.345 638.943 949.205 z M 767.946 441.155 L 767.946 1581.74 L 1463.48 1581.74 L 1578.84 1581.74 L 1578.84 441.155 L 884.49 441.155 C 848.725 441.174 802.834 442.591 767.946 441.155 z" fill="rgb(3,2,3)" transform="translate(0,0)"></path>
<path d="M 346.479 949.205 C 358.362 949.862 376.025 949.295 388.121 949.269 L 466.001 949.201 C 521.868 949.192 583.711 950.595 638.943 949.205 C 638.909 987.345 637.554 1033.47 638.943 1070.97 L 346.479 1070.97 C 347.939 1031.63 345.502 989.13 346.479 949.205 z" fill="rgb(172,173,165)" transform="translate(0,0)"></path>
<metadata><recraft-signature>{"signed_by": "recraft", "signature_b64": "bf9q+Wli+Qeb4s4WZD7IoP9ZQhOj5T0K4aFyZgScVeRBzOCtadZGsSCBbQRIhyVUVzbg98TM76jeOErs2ZdxBg==", "signing_algo": "Ed25519", "generation_timestamp": 1772996084, "identifier": "60d91e53-58ed-453d-9bfb-9a48dc65c781"}</recraft-signature></metadata></svg>