<svg xmlns="http://www.w3.org/2000/svg" height="512" preserveAspectRatio="none" style="display: block;" version="1.1" viewBox="0 0 2048 2048" width="512">
<path d="M 323.395 544.994 L 362.12 544.994 C 380.735 568.196 376.033 573.357 411.015 567.51 C 410.562 594.489 429.024 618.842 441.265 642.009 C 467.593 641.941 494.127 642.475 520.407 642.009 L 520.407 672.574 C 537.82 680.841 542.204 695.068 553.793 711.102 C 568.559 712.473 601.473 710.846 618.484 711.102 C 626.949 746.955 656.601 748.802 670.192 714.902 C 672.806 708.38 683.953 708.421 690.53 706.449 C 703.916 713.29 716.947 723.636 727.655 734.171 C 702.102 763.417 718.014 767.759 747.169 764.725 C 758.018 774.573 772.575 792.662 781.516 804.485 C 775.065 815.072 767.981 827.628 759.579 836.49 L 704.493 836.49 C 698.344 831.42 691.772 823.051 686.496 816.801 C 679.778 814.743 645.57 819.348 636.684 815.801 C 633.418 814.037 602.817 771.173 587.594 802.35 C 583.345 811.053 590.415 824.781 593.187 833.886 C 549.698 838.115 560.062 867.211 531.324 828.078 C 502.568 827.689 492.559 837.753 477.717 809.612 C 457.298 810.489 432.004 809.522 411.015 809.612 L 411.015 782.909 C 381.674 755.628 397.334 735.623 351.573 734.171 C 346.24 729.824 342.632 723.685 336.304 717.999 L 315.473 717.999 C 300.918 731.398 293.715 725.914 288.26 709.149 C 280.521 685.365 260.377 691.311 237.856 691.546 C 237.402 651.986 237.068 607.038 237.856 567.51 C 260.557 566.307 288.267 568.157 312.233 567.51 C 315.949 559.466 319.162 552.757 323.395 544.994 z" fill="rgb(0,0,0)" transform="translate(0,0)"></path>
<path d="M 1050.2 1143.01 C 1093.95 1144.3 1145.88 1143.03 1190.25 1143.01 L 1231.23 1181.98 C 1237.54 1188.01 1250.29 1199.8 1255.27 1206.47 C 1254.84 1221.38 1253.33 1233.6 1250.5 1248.33 C 1258.57 1250.46 1264.06 1252.09 1271.86 1254.96 L 1271.86 1322.91 L 1198 1322.91 L 1198 1350.49 C 1192.62 1350.23 1186.98 1349.66 1181.71 1350.49 C 1176.62 1356.99 1171.8 1363.64 1166.62 1370.19 C 1111.99 1340.25 1130.71 1348.98 1081.6 1378.86 C 1055.85 1351.13 1025.98 1321.68 1001.92 1292.92 C 1006.13 1285.87 1011.69 1278.03 1016.34 1271.13 L 1016.34 1214.97 C 1026.61 1214.1 1039.66 1214.78 1050.2 1214.97 C 1050.29 1192.28 1049.12 1165.1 1050.2 1143.01 z" fill="rgb(0,0,0)" transform="translate(0,0)"></path>
<path d="M 1691.26 1299.87 C 1713.09 1299.92 1735.11 1299.44 1756.91 1299.87 C 1774.16 1316.16 1795.31 1340.5 1810 1358.69 C 1809.13 1399.33 1809.99 1443.14 1810 1484.01 L 1753.29 1484.01 C 1734.56 1467.91 1708.1 1434.37 1691.26 1414.95 C 1690.78 1376.86 1689.75 1337.92 1691.26 1299.87 z" fill="rgb(0,0,0)" transform="translate(0,0)"></path>
<path d="M 917.395 964.962 C 931.227 976.068 951.43 997.739 964.351 1010.97 C 952.553 1025.67 937.194 1036.43 923.237 1054.7 C 907.136 1032.94 894.28 1025.89 876.243 1006.7 C 890.415 993.741 903.6 978.731 917.395 964.962 z" fill="rgb(0,0,0)" transform="translate(0,0)"></path>
<path d="M 1320.03 997.632 C 1335.86 996.814 1355.44 997.925 1371.9 997.632 C 1371.81 1008.31 1373.66 1046.73 1371.9 1054.7 C 1354.95 1054.3 1337.06 1054.64 1320.03 1054.7 C 1320.99 1038.13 1319.58 1015.41 1320.03 997.632 z" fill="rgb(0,0,0)" transform="translate(0,0)"></path>
<metadata><recraft-signature>{"signed_by": "recraft", "signature_b64": "LzQSYiW/BAayNTSuvarBb3wlzqzmYOb44WtZPmeS0NHNwOhNhUlHh4s9+1W7ep9AN0da7POmWxM7bx+lApi/Bg==", "signing_algo": "Ed25519", "generation_timestamp": 1772996475, "identifier": "d35ec22e-88d6-47a2-bd95-f0d45175cbd1"}</recraft-signature></metadata></svg>