<svg xmlns="http://www.w3.org/2000/svg" height="512" preserveAspectRatio="none" style="display: block;" version="1.1" viewBox="0 0 2048 2048" width="512">
<path d="M 372.757 564.521 L 1680.55 564.454 C 1697.74 564.437 1716.39 564.081 1733.47 565.331 C 1777.02 568.516 1813.01 611.758 1813.15 654.404 L 1813.02 1313.49 C 1813.01 1356.7 1821.83 1422.28 1789.48 1454.74 C 1755.23 1489.1 1720.63 1482.47 1675.95 1482.34 L 353.266 1482.38 C 237.598 1482.61 234.46 1438.72 234.596 1334.66 L 234.374 661.64 C 233.456 568.254 299.055 564.318 372.757 564.521 z M 1718.75 1433 C 1771.9 1431.59 1763.48 1384.2 1763.42 1346.11 L 1763.4 692.202 C 1763.39 617.048 1759.96 611.554 1680.61 611.648 L 440.957 611.745 C 404.735 611.748 362.909 613.035 327.374 611.745 C 273.828 617.949 283.865 654.318 283.732 695.96 L 283.805 1362.84 C 283.781 1434.17 295.774 1433.13 367.434 1433.08 L 1718.75 1433 z" fill="rgb(0,0,0)" transform="translate(0,0)"></path>
<path d="M 1123.9 810.96 C 1203.74 808.38 1276.26 802.653 1269.07 908.508 C 1266.09 952.355 1269.19 964.428 1227.98 991.19 C 1243.28 1018.83 1268.41 1073.09 1277.86 1102.48 C 1272.97 1117.9 1269.57 1120.98 1254.03 1122.94 C 1230.47 1119.83 1225.57 1100.12 1217.6 1080.75 C 1210.32 1061.83 1190.47 1016.7 1181.28 999.997 C 1170.11 999.998 1159.21 999.56 1148 999.997 L 1148.06 1064.39 C 1148.07 1088.37 1154.63 1109.54 1131.78 1122.94 C 1091.23 1124.75 1100.49 1089.9 1100.47 1059.59 L 1100.44 891.264 C 1100.45 859.63 1089.52 818.756 1123.9 810.96 z M 1148 953.533 C 1166.26 954.598 1198.09 956.409 1212.5 945.365 C 1226.07 930.309 1225.84 875.593 1211.13 864.121 C 1199.29 854.876 1162.73 855.94 1148 856.995 L 1148 953.533 z" fill="rgb(0,0,0)" transform="translate(0,0)"></path>
<path d="M 953.341 810.96 C 962.753 809.413 972.078 816.504 975.251 824.952 C 1006.49 908.107 1040.07 1010.27 1065.13 1096.46 C 1069.86 1112.72 1045.27 1129.57 1031.38 1121.64 C 1014.87 1112.22 1008.5 1077.75 1003.04 1059.99 L 960.5 1059.99 L 903.653 1059.99 C 898.18 1081.15 896.093 1111.15 875.43 1122.94 C 851.027 1123.87 840.322 1112.19 847.304 1088.1 C 871.615 1004.27 898.867 921.219 925.34 838.051 C 931.142 819.824 934.049 814.094 953.341 810.96 z M 955.5 1013 L 987.021 1013 C 983.699 1002.54 955.483 908.548 953.341 906.575 C 940.113 940.604 929.312 977.44 920.535 1013 L 955.5 1013 z" fill="rgb(0,0,0)" transform="translate(0,0)"></path>
<path d="M 1342.71 810.96 L 1383.79 810.876 C 1435.68 810.823 1481.95 822.236 1480.99 885.265 C 1479.41 988.916 1476.58 1010.11 1367.9 1013 C 1367.54 1018.68 1367.77 1024.44 1367.9 1030.14 C 1368 1053.86 1378.8 1143.49 1331.91 1120.28 C 1316.7 1112.75 1320.04 1075.38 1320.02 1059.33 L 1320.02 884.418 C 1320.02 854.225 1309.07 818.705 1342.71 810.96 z M 1367.9 965.51 C 1387.53 965.895 1407.97 969.027 1423.85 957.711 C 1434.77 944.435 1432.52 933.524 1433.16 917.825 C 1435.76 854.554 1426.11 856.969 1367.9 856.995 C 1367.95 891.775 1366.92 931.13 1367.9 965.51 z" fill="rgb(0,0,0)" transform="translate(0,0)"></path>
<path d="M 687.904 953.533 C 694.924 940.009 703.212 927.993 711.481 915.231 L 749.492 857.576 C 757.454 845.708 765.839 830.789 774.515 820.193 C 785.719 806.507 811.148 810.039 814.884 829.082 C 819.038 850.256 757.808 931.552 745.138 953.533 C 767.44 988.961 791.468 1043.99 817.185 1074.99 C 839.254 1125.26 800.097 1132.71 783.96 1116.56 C 775.647 1108.24 770.891 1097.09 765.312 1087.2 L 740.605 1043.58 C 731.174 1026.55 720.865 1005.27 708.007 991.19 C 702.776 997.776 692.632 1010.14 689.359 1018.64 C 681.676 1038.59 699.835 1116.32 672.02 1122.86 C 632.789 1132.09 640.809 1080.8 640.94 1057.12 L 640.944 886.878 C 640.932 861.903 631.953 817.134 662.354 810.96 C 695.158 813.42 687.986 852.831 687.953 876.846 L 687.904 953.533 z" fill="rgb(0,0,0)" transform="translate(0,0)"></path>
<path d="M 491.414 810.96 C 552.776 795.758 631.634 852.576 568.297 874.658 C 549.968 870.777 534.561 860.401 515.326 858.324 C 491.889 855.793 456.761 862.525 454.549 891.646 C 449.958 952.093 542.145 928.299 583.375 976.116 C 613.773 1011.37 604.691 1068.76 570.397 1097.83 C 545.217 1119.18 507.966 1123.71 476.247 1121.19 C 370.268 1117.1 366.27 1042.1 406.265 1049.43 C 423.514 1052.59 438.618 1066.19 454.785 1070.61 C 488.164 1079.72 556.72 1075.05 552.642 1028.37 C 547.807 968.063 411.095 1003.91 404.707 907.947 C 401.075 853.386 437.228 814.406 491.414 810.96 z" fill="rgb(0,0,0)" transform="translate(0,0)"></path>
<path d="M 1516.36 810.96 C 1526.27 810.262 1661.97 808.472 1665.28 813.884 C 1695.92 863.981 1637.11 857.157 1606.95 856.995 L 1606.95 1088.93 C 1607.92 1135.83 1558.61 1138.93 1558.54 1089.26 L 1558.57 856.995 C 1543.33 856.197 1504.55 860.778 1496.96 851.114 C 1480.55 830.203 1491.16 811.376 1516.36 810.96 z" fill="rgb(0,0,0)" transform="translate(0,0)"></path>
<path d="M 1501.46 1214.01 C 1511.43 1213.86 1521.04 1213.89 1531 1214.01 C 1528.53 1271.32 1550.99 1376.16 1465.92 1375 C 1391.62 1373.98 1396.36 1320.55 1396.52 1268.91 L 1396.52 1214.01 C 1406.73 1214.25 1415.77 1214.22 1425.95 1214.01 L 1425.9 1278.37 C 1425.92 1292.7 1425.43 1306.26 1427.71 1320.72 C 1432.82 1353.16 1499.74 1366.89 1501.6 1303.61 C 1502.47 1274.03 1500.18 1243.52 1501.46 1214.01 z" fill="rgb(0,0,0)" transform="translate(0,0)"></path>
<path d="M 1620.64 1211.38 C 1642.37 1210.1 1658.78 1219.31 1675.95 1231.05 C 1671.37 1239.79 1668.02 1245.27 1662.55 1253.51 C 1648.17 1243.09 1626.31 1230.57 1607.46 1241.47 C 1571.12 1262.48 1642.44 1281.11 1650.04 1284.2 C 1704.14 1306.19 1690.41 1377.88 1615.75 1373.91 C 1595.49 1372.13 1577.46 1362.67 1564.62 1346.99 C 1570.07 1340.16 1575.08 1334.1 1580.85 1327.56 C 1630.23 1374.11 1674.24 1327.96 1638.77 1310.53 C 1616.62 1299.37 1573.69 1296.97 1569.49 1265.8 C 1564.3 1227.35 1588.79 1215.72 1620.64 1211.38 z" fill="rgb(0,0,0)" transform="translate(0,0)"></path>
<path d="M 1269.02 1214.01 L 1298.63 1214.01 C 1299.62 1256.53 1298.11 1301.13 1298.63 1344 L 1370.01 1344 L 1370.01 1370.02 C 1340.67 1371.39 1299.3 1370.05 1269.02 1370.02 L 1269.02 1214.01 z" fill="rgb(0,0,0)" transform="translate(0,0)"></path>
<metadata><recraft-signature>{"signed_by": "recraft", "signature_b64": "PnpXl31RpbwnI7ZE8/KLeCmIyrLJC3HYtSf5m8nXSfCYiNtTA/ZRCkPO2UZsbpvz5fi59AdXVbYnYOiaWmE2CQ==", "signing_algo": "Ed25519", "generation_timestamp": 1772989186, "identifier": "0d714cf2-6728-45c2-9648-ea053b372471"}</recraft-signature></metadata></svg>