<svg xmlns="http://www.w3.org/2000/svg" height="512" preserveAspectRatio="none" style="display: block;" version="1.1" viewBox="0 0 2048 2048" width="512">
<path d="M 730.533 1005.47 C 748.569 992.571 794.384 976.989 816.782 968.661 L 894.233 939.155 C 984.874 904.261 1067.81 857.793 1155.51 817.667 C 1223 786.787 1289.02 772.183 1341.3 714.095 C 1413.75 632.669 1426.09 513.804 1548.47 489.434 C 1644.57 470.296 1668.84 515.668 1730.64 556.993 C 1765.9 556.689 1792.56 561.008 1822.01 580.561 C 1826.98 583.979 1848.44 599.521 1843.3 607.297 C 1836.45 617.653 1742.41 628.2 1724.95 630.25 C 1690.43 640.638 1646.29 694.821 1630.24 724.318 C 1612.05 757.75 1616.03 802.035 1613.41 838.934 C 1602.37 994.262 1520.84 1139.3 1380.98 1214.64 C 1364.51 1223.52 1344.72 1230.63 1331.92 1244.72 C 1313.08 1265.48 1319.53 1318.2 1289.65 1350.38 C 1318.3 1393.83 1349.8 1446.79 1387.27 1483.46 C 1413.88 1509.49 1454.53 1481.97 1484.35 1499.29 C 1479.39 1500.42 1475.53 1500.13 1475.29 1505.96 C 1503.99 1511.78 1507.55 1525.08 1512.8 1550.42 C 1505.03 1534 1490.65 1518.43 1470.04 1523.19 C 1469.44 1527.94 1478.09 1540.11 1475.75 1547.92 C 1475.49 1548.77 1475.36 1560.43 1475.29 1562.33 C 1461.32 1525.26 1429.7 1532.26 1390.99 1526.29 C 1355.4 1520.8 1329.84 1489.29 1300.25 1526.05 C 1310.42 1488.32 1322.67 1488.95 1358.22 1490.53 C 1332.42 1449.6 1295.95 1400.37 1267.27 1361.33 C 1240.91 1325.43 1225.48 1324.14 1227.89 1264.64 C 1205.95 1265.01 1175.33 1272.03 1154.89 1280.8 C 1137.93 1311.41 1142.37 1316.93 1115.04 1350.38 C 1126.78 1379.78 1149.86 1472.32 1179.04 1489.36 C 1203.27 1503.52 1240.5 1489.26 1274.59 1505.96 C 1262.15 1504.22 1255.72 1504.22 1243.26 1505.96 C 1277.9 1521.41 1286.99 1526.45 1284.48 1567.16 C 1276.41 1534.57 1257.9 1534.57 1227.89 1526.05 C 1235.29 1544.69 1234.87 1547.17 1233.87 1567.16 C 1217.75 1532.92 1200.14 1536.06 1168 1521.35 C 1137.24 1507.73 1106.49 1468.24 1078.77 1502.96 C 1088.65 1468.02 1102.84 1464.35 1134.7 1475.37 C 1125.56 1445.96 1092.08 1357.39 1078.49 1334.32 C 1061.13 1304.83 1064.73 1261.69 1064.9 1228.24 C 997.47 1220.42 877.18 1182.11 808.225 1162.63 C 794.972 1158.89 780.881 1153.45 767.299 1151.86 C 737.64 1137.85 655.616 1164.24 650.751 1144.5 C 653.796 1135.6 674.093 1126.3 682.953 1121.07 C 547.039 1129.76 343.913 1168.35 227.715 1100.72 C 187.141 1077.11 195.135 1048.42 239.526 1044.17 C 260.948 1042.11 281.594 1042.93 302.999 1042.65 C 439.968 1040.86 603.673 1036.25 740.706 1021.08 C 756.466 1019.34 775.742 1011.67 793.016 1008.89 C 769.541 1005.21 754.145 1004.62 730.533 1005.47 z M 1146.11 977.243 L 1148.77 973.863 C 1151.93 944.45 1194.83 955.715 1189.54 966.85 L 1189.95 967.885 C 1213.19 978.967 1309.88 968.485 1333.32 959.932 C 1384.63 941.209 1435.22 919.728 1468.49 874.154 C 1473.64 867.092 1481.39 857.849 1487.55 851.973 C 1456.14 788.641 1369.82 844.414 1327.47 864.962 C 1207.14 923.355 1123.82 940.522 989.6 942.065 C 1040.6 954.27 1097.89 956.38 1146.11 977.243 z M 1631.58 578.007 C 1601.44 589.557 1603.52 547.107 1631.58 556.993 L 1633.67 556.993 C 1629.21 551.001 1625.48 546.26 1617.59 545.244 C 1575.46 539.822 1602.01 607.812 1631.58 578.007 L 1631.58 578.007 z" fill="rgb(0,0,0)" transform="translate(0,0)"></path>
<path d="M 1022.01 1144.34 C 1030.13 1140.33 1074.3 1136.47 1087.17 1133.92 C 1225.94 1106.45 1388.55 1071.61 1482.29 956 C 1490.32 946.1 1498.3 929.364 1507.94 922.245 C 1515.03 942.73 1522.51 959.437 1535.28 977.243 C 1484.69 1083.65 1376.65 1168.82 1267.31 1209.33 C 1251.3 1215.26 1169.18 1232.63 1168.09 1241.73 C 1126.94 1231.33 1100.67 1215.37 1068.23 1189.23 C 1049.8 1173.82 1038.1 1161.9 1022.01 1144.34 z" fill="rgb(207,206,206)" transform="translate(0,0)"></path>
<path d="M 1535.28 977.243 C 1544.47 987.738 1549.7 992.317 1560.81 1000.87 C 1508.35 1139.63 1317.23 1275.11 1168.09 1241.73 C 1169.18 1232.63 1251.3 1215.26 1267.31 1209.33 C 1376.65 1168.82 1484.69 1083.65 1535.28 977.243 z" fill="rgb(238,238,238)" transform="translate(0,0)"></path>
<path d="M 767.299 1151.86 C 772.195 1148.15 770.256 1144.25 778.598 1143.27 C 814.18 1139.1 849.987 1137.17 885.629 1133.63 C 912.417 1130.88 978.021 1118.05 1001.68 1121.07 C 1006.29 1126.35 1017.51 1139.94 1022.01 1144.34 C 1038.1 1161.9 1049.8 1173.82 1068.23 1189.23 C 1067.19 1200.67 1066.5 1217.56 1064.9 1228.24 C 997.47 1220.42 877.18 1182.11 808.225 1162.63 C 794.972 1158.89 780.881 1153.45 767.299 1151.86 z" fill="rgb(25,24,25)" transform="translate(0,0)"></path>
<path d="M 1495.03 875.32 C 1499.4 891.323 1503.03 906.255 1507.94 922.245 C 1498.3 929.364 1490.32 946.1 1482.29 956 C 1388.55 1071.61 1225.94 1106.45 1087.17 1133.92 C 1074.3 1136.47 1030.13 1140.33 1022.01 1144.34 C 1017.51 1139.94 1006.29 1126.35 1001.68 1121.07 C 1024.68 1115.49 1047.7 1113.23 1070.99 1109.63 C 1208.48 1088.39 1446.85 1026.94 1495.03 875.32 z" fill="rgb(182,180,180)" transform="translate(0,0)"></path>
<path d="M 1822.01 580.561 C 1826.98 583.979 1848.44 599.521 1843.3 607.297 C 1836.45 617.653 1742.41 628.2 1724.95 630.25 C 1723.95 628.885 1669.26 607.244 1661.75 604.643 C 1719.3 599.81 1771.93 605.033 1824.44 601.868 L 1830.57 601.528 C 1830.99 611.944 1834.39 612.388 1841.3 605.572 C 1842.16 596.077 1823.33 588.007 1822.01 580.561 z" fill="rgb(65,65,66)" transform="translate(0,0)"></path>
<path d="M 1484.35 1499.29 C 1479.39 1500.42 1475.53 1500.13 1475.29 1505.96 C 1467.74 1505.14 1462.12 1504.42 1454.69 1502.96 C 1467.49 1499.6 1471.22 1498.83 1484.35 1499.29 z" fill="rgb(238,238,238)" transform="translate(0,0)"></path>
<path d="M 1487.55 851.973 C 1492.37 866.198 1492.21 876.716 1485.08 890.169 C 1432.64 989.19 1298.39 1007.32 1198.43 985.969 C 1185.64 983.235 1157.6 976.344 1146.11 977.243 L 1148.77 973.863 C 1151.93 944.45 1194.83 955.715 1189.54 966.85 L 1189.95 967.885 C 1213.19 978.967 1309.88 968.485 1333.32 959.932 C 1384.63 941.209 1435.22 919.728 1468.49 874.154 C 1473.64 867.092 1481.39 857.849 1487.55 851.973 z" fill="rgb(238,238,238)" transform="translate(0,0)"></path>
<path d="M 1730.64 565.022 C 1767.45 562.732 1809.85 571.175 1835.19 600.022 C 1809.05 597.221 1790.27 594.118 1763.65 593.858 C 1729.09 593.675 1697.04 598.546 1664.43 598.801 L 1664.28 598.271 C 1689.98 593.015 1714.71 588.854 1730.64 565.022 z" fill="rgb(65,65,66)" transform="translate(0,0)"></path>
<path d="M 1631.58 578.007 C 1601.44 589.557 1603.52 547.107 1631.58 556.993 L 1633.67 556.993 C 1636.26 564.608 1635.91 571.202 1631.58 578.007 L 1631.58 578.007 z" fill="rgb(0,0,0)" transform="translate(0,0)"></path>
<path d="M 1633.67 556.993 C 1636.26 564.608 1635.91 571.202 1631.58 578.007 L 1631.58 578.007 C 1634.75 570.801 1633.69 564.488 1631.58 556.993 L 1633.67 556.993 z" fill="rgb(207,206,206)" transform="translate(0,0)"></path>
<metadata><recraft-signature>{"signed_by": "recraft", "signature_b64": "5OgIARTtLsYuFWJcCJs8X4Gj4bT85pLHhX5PeqExvTuS9kxmdtV7zAw8fdM15mO6akFr64bPaPOFUquEGLQ6CA==", "signing_algo": "Ed25519", "generation_timestamp": 1772997638, "identifier": "da7b7d9e-f25f-408e-ba3b-00e7cd5f983d"}</recraft-signature></metadata></svg>