<svg xmlns="http://www.w3.org/2000/svg" height="512" preserveAspectRatio="none" style="display: block;" version="1.1" viewBox="0 0 2048 2048" width="512">
<path d="M 517.357 683.001 C 544.817 682.382 574.699 682.988 602.39 682.989 L 1736.43 682.975 C 1792.23 682.984 1850.5 674.622 1875.76 739.804 C 1892.3 782.491 1860.23 824.952 1840.67 860.972 L 1614.25 1279 C 1606.77 1292.79 1596.69 1314.74 1587.5 1326.33 C 1530.78 1397.94 1419.6 1336.98 1441.12 1251.14 C 1443.88 1240.12 1457.09 1218.1 1462.87 1207.2 L 1510.78 1118.84 C 1548.76 1049.51 1587.52 975.995 1624.1 905.821 C 1634.47 887.778 1645.79 868.103 1654.99 849.49 L 626.827 849.364 C 612.484 849.333 594.352 848.843 580.346 850.053 C 572.137 856.713 517.476 962.653 507.756 980.598 L 400.518 1175.45 C 374.257 1223.95 347.719 1272.67 320.55 1320.62 C 275.425 1394.1 156.529 1348.11 170.585 1261.94 C 174.911 1235.41 209.854 1178.86 223.561 1154.32 L 446.036 750.582 C 467.151 711.928 470.382 692.376 517.357 683.001 z" fill="rgb(0,0,0)" transform="translate(0,0)"></path>
<metadata><recraft-signature>{"signed_by": "recraft", "signature_b64": "G/a8qYAOp+YDLDCXzti9l4xp1fbODxnSKu+FTq/IDH5lZ6bFlBe0rGZX5uhOwqordTKBX0iQgNyIJwVEizgkAA==", "signing_algo": "Ed25519", "generation_timestamp": 1772996903, "identifier": "6fd422e4-3f30-4233-80ea-bc9931f61bc9"}</recraft-signature></metadata></svg>