<svg xmlns="http://www.w3.org/2000/svg" height="512" preserveAspectRatio="none" style="display: block;" version="1.1" viewBox="0 0 2048 2048" width="512">
<path d="M 361.376 298.371 L 1750 298.371 L 1750 1746.51 C 1728.44 1747.06 1704.48 1746.54 1682.75 1746.51 L 298.396 1746.51 L 298.396 298.371 C 319.091 298.665 340.622 298.38 361.376 298.371 z M 467.99 937.989 L 1196.86 937.989 L 1196.86 465.999 C 1146.04 465.324 1093.79 465.998 1042.81 466.001 L 554.783 465.992 C 530.049 465.989 491.7 464.688 467.99 465.999 L 467.973 886.339 C 467.96 902.099 467.268 922.627 467.99 937.989 z M 812.742 1580.99 L 1232.25 1580.99 L 1236.02 1580.77 C 1240.52 1572.04 1236.77 1156.95 1237.88 1109.19 L 818.626 1109.19 C 807.331 1110.48 812.744 1144.17 812.77 1156.2 L 812.782 1466.77 C 812.785 1501.62 814.128 1546.82 812.742 1580.99 z M 467.99 1109.19 L 467.99 1580.99 L 641.995 1580.99 L 641.995 1109.19 L 523.536 1109.15 C 509.699 1109.14 480.819 1108.17 467.99 1109.19 z M 1582.53 465.999 C 1566.71 466.842 1547.89 466.041 1531.64 466.015 L 1420.91 465.945 C 1403.49 465.939 1381.84 465.263 1364.92 465.999 L 1364.92 952.603 L 1582.53 952.603 L 1584.1 951.541 C 1584.29 943.666 1582.53 931.955 1582.52 922.402 L 1582.53 465.999 z M 1406.96 1109.19 C 1406.05 1123.71 1406.92 1144.61 1406.94 1159.86 L 1406.96 1580.99 L 1533.46 1581.04 C 1540.3 1581.05 1578.71 1581.61 1582.53 1580.99 L 1582.56 1161.51 C 1582.56 1144.85 1583.07 1125.57 1582.53 1109.19 L 1406.96 1109.19 z" fill="rgb(0,0,0)" transform="translate(0,0)"></path>
<metadata><recraft-signature>{"signed_by": "recraft", "signature_b64": "a7Upbn4KUCkeLK+xAvvCYZ5JSLW3FUBNpyuDFVx/zQxxYPGXJvF5rlgZ5tgilxQ/H1Ayu4DrcnFoxYu4OjncDQ==", "signing_algo": "Ed25519", "generation_timestamp": 1772998076, "identifier": "c137fcfd-34b8-4138-8195-cafe302239a1"}</recraft-signature></metadata></svg>