<svg xmlns="http://www.w3.org/2000/svg" height="512" preserveAspectRatio="none" style="display: block;" version="1.1" viewBox="0 0 2048 2048" width="512">
<path d="M 233.115 735.004 C 240.508 734.215 276.738 734.984 285.538 735 L 1804.09 735.339 C 1886.03 735.98 1870.46 837.724 1870.47 892.402 L 1870.52 1181.01 C 1870.71 1233.91 1879.9 1280.38 1817.53 1298.94 L 241.62 1298.67 C 163.281 1298.45 177.01 1207.68 177.028 1157.05 L 177.02 855.856 C 176.856 801.132 167.178 750.002 233.115 735.004 z M 1808.28 1258.92 C 1826.36 1255.83 1832.08 1249.04 1832.17 1230.52 L 1832.08 848.524 C 1832.1 819.174 1841.32 775.003 1799.09 773.979 C 1733.34 772.386 1667.33 773.073 1601.5 773.087 L 240.716 773.097 C 202.574 779.59 217.029 855.068 217.023 887.697 L 216.948 1192.79 C 216.918 1216.76 208.816 1258.08 243.358 1258.98 L 1808.28 1258.92 z" fill="rgb(0,0,0)" transform="translate(0,0)"></path>
<path d="M 1533.08 923.134 C 1561.37 921.294 1560.83 918.981 1573.31 944.107 C 1585.64 968.941 1597.41 996.102 1611.02 1020.12 C 1611.05 1008.1 1608.93 933.202 1612.95 927.756 C 1617.7 921.323 1640.26 921.458 1645.41 925.807 C 1649.92 929.613 1650.01 1081.27 1647.1 1103.7 C 1645.89 1113.01 1637.79 1112.71 1630.14 1112.99 C 1609.63 1109 1576.55 1026.42 1565.37 1005.39 C 1564.68 1038.05 1566.12 1070.98 1564.86 1103.65 C 1564.49 1113.46 1528.89 1126.62 1528.31 1092.95 C 1527.92 1069.92 1521.24 931.76 1533.08 923.134 z" fill="rgb(0,0,0)" transform="translate(0,0)"></path>
<path d="M 1720.19 923.134 C 1759.63 910.775 1781.91 951.423 1777.86 987.983 C 1768.72 988.509 1756.54 988.061 1747.18 987.983 C 1740.51 967.565 1746.58 959.286 1720.19 957.972 C 1713.98 962.143 1713.39 962.742 1708.99 969.054 C 1708.91 995.199 1691.3 1108.09 1742.88 1071.18 C 1744.73 1058.24 1743.89 1048.72 1742.88 1035.68 L 1737 1035.11 C 1724.63 1033.92 1705.42 1004.18 1747.18 1005.39 C 1783.95 1006.18 1781.09 1002.31 1781.2 1039.13 C 1781.27 1060.09 1782.75 1079.9 1769.23 1097.54 C 1752.42 1120.33 1711.52 1122.01 1690.11 1104.56 C 1664.37 1083.58 1671.79 1045.24 1671 1015.89 C 1669.93 975.304 1667.72 925.58 1720.19 923.134 z" fill="rgb(0,0,0)" transform="translate(0,0)"></path>
<path d="M 494.696 923.134 C 521.626 920.315 523.673 929.389 508.475 949.956 C 495.321 967.756 483.812 988.575 469.569 1005.39 C 480.593 1030.07 495.55 1053.08 508.323 1076.95 C 523.628 1105.56 532.606 1117.45 490.721 1112.99 C 477.878 1100.84 457.46 1057.38 447.739 1041.38 C 445.223 1044.54 443.779 1046.98 441.649 1050.43 L 441.649 1071.18 C 441.643 1078.71 444.798 1109.42 436.849 1112.31 C 397.98 1126.44 405.056 1083.89 405.025 1060.7 L 405.572 978.336 C 405.748 958.783 397.183 924.919 419.6 922.493 C 451.726 919.017 441.777 963.061 441.649 987.983 C 453.757 971.478 475.535 924.862 494.696 923.134 z" fill="rgb(0,0,0)" transform="translate(0,0)"></path>
<path d="M 1185 923.134 C 1207.56 924.453 1240.19 1107.45 1239.82 1108.4 C 1237.16 1115.4 1214.36 1114.61 1210.01 1111.73 C 1201.2 1105.9 1199.59 1084.79 1197.73 1075 L 1171.5 1075 L 1155.74 1075 C 1152.81 1084.7 1151.44 1094.24 1148.28 1104 C 1147.27 1119.14 1112.08 1112.97 1114.04 1103.46 C 1125.11 1049.66 1140.34 992.905 1154.44 939.493 C 1159.58 919.996 1166.17 922.6 1185 923.134 z M 1164.32 1041.38 L 1178.02 1041.38 L 1189.47 1041.38 C 1188.13 1035.85 1178.67 988.805 1178.02 987.983 C 1172 1004.23 1167.29 1024.2 1164.32 1041.38 z" fill="rgb(0,0,0)" transform="translate(0,0)"></path>
<path d="M 311.783 923.134 C 366.047 911.798 403.399 979.763 361.927 978.551 C 342.12 977.972 345.939 972.74 334.593 959.293 C 324.624 947.478 301.495 961.547 303.301 976.495 C 305.3 993.042 348.276 1003.09 366.175 1016.77 C 401.5 1043.78 386.306 1110.63 328.767 1115.59 C 277.103 1120.83 241.924 1059.15 281.142 1054.56 C 307.629 1051.47 296.893 1085.88 327.495 1080.48 C 338.742 1078.5 348.554 1067.76 345.968 1057.45 C 337.504 1023.67 251.613 1037.71 267.531 962.114 C 272.305 940.12 289.551 925.215 311.783 923.134 z" fill="rgb(0,0,0)" transform="translate(0,0)"></path>
<path d="M 822.724 919.174 C 851.466 916.497 884.533 937.487 887.064 967.855 C 888.305 982.755 854.366 982.784 848.942 972.3 C 841.944 958.775 841.057 954.192 824.239 955.01 L 822.724 955.094 C 815.477 959.053 807.281 964.472 809.27 974.395 C 814.736 1001.66 878.078 991.369 888.052 1042.21 C 894.666 1083.46 876.271 1106.95 836.114 1115.59 C 781.655 1117.73 748.061 1061.28 788.023 1054.89 C 803.405 1052.43 839.675 1113.66 853.285 1057.62 C 843.637 1017.62 787 1035.06 775.144 992.239 C 764.094 952.322 784.668 927.236 822.724 919.174 z" fill="rgb(0,0,0)" transform="translate(0,0)"></path>
<path d="M 693.775 923.134 C 720.598 918.149 720.044 942.803 725.756 963.993 L 743.058 1030.78 C 745.317 1039.83 763.755 1104.79 759.957 1109.07 C 755.07 1114.57 737.296 1113.09 729.727 1112.99 C 726.295 1105.88 721.265 1083.99 718.968 1075 L 707.75 1075 C 695.676 1075.86 690.551 1076.01 678.384 1075 C 673.718 1086.08 673.403 1102.61 665.267 1110.5 C 660.423 1115.2 641.469 1114.02 636.951 1108.22 C 637.248 1096.43 679.913 931.095 684.434 926.159 C 686.701 923.684 690.643 923.566 693.775 923.134 z M 687.043 1041.38 L 698.43 1041.38 L 710.795 1041.38 C 709.025 1033.42 702.069 998.111 698.43 994.564 C 694.38 1009.97 690.182 1025.77 687.043 1041.38 z" fill="rgb(0,0,0)" transform="translate(0,0)"></path>
<path d="M 1242.25 923.134 C 1251.1 922.775 1263.06 921.327 1270.56 925.422 C 1275.84 933.041 1292.54 1018.56 1296.89 1035.68 C 1299.91 1019.43 1316.03 933.992 1321.45 925.145 C 1371.52 898.722 1346.2 979.885 1341.88 998.523 C 1338.84 1012.3 1319.88 1104.86 1314.47 1109.94 C 1308.79 1115.26 1285.33 1114.78 1280.35 1108.59 C 1276.83 1104.22 1229.85 932.484 1242.25 923.134 z" fill="rgb(0,0,0)" transform="translate(0,0)"></path>
<path d="M 1368.15 923.134 C 1381.97 923.099 1445.93 921.23 1453.07 926.107 C 1467.04 959.992 1443.05 957.878 1421 957.972 L 1421 1089.5 C 1421.33 1129.06 1385.93 1114.45 1385.01 1099.83 C 1383.95 1082.92 1384.28 1066.15 1384.28 1049.2 L 1384.31 957.972 C 1342.4 958.627 1352.66 926.523 1368.15 923.134 z" fill="rgb(0,0,0)" transform="translate(0,0)"></path>
<path d="M 1027.73 923.134 C 1036.06 922.865 1044.36 921.66 1050.6 927.484 C 1055.34 937.211 1053.02 1058.67 1053 1079.91 C 1070.23 1079.83 1087.66 1079.61 1104.88 1079.91 C 1106 1090.98 1111.27 1108.56 1098.07 1112.99 C 1083.66 1113.04 1033.36 1115.6 1022.49 1111.18 C 1010.39 1106.27 1016.85 931.778 1018.66 928.307 C 1020.63 924.526 1023.95 924.125 1027.73 923.134 z" fill="rgb(0,0,0)" transform="translate(0,0)"></path>
<path d="M 547.175 923.134 C 555.865 922.471 564.031 921.026 571.133 926.216 C 575.41 932.401 573.784 1061.34 573.773 1079.91 C 587.787 1080.66 602.266 1079.64 616.05 1080.45 C 628.533 1081.19 633.968 1107.98 617.166 1112.99 C 587.666 1112.86 537.964 1125.85 538.172 1092.73 C 538.374 1060.69 533.26 953.725 539.185 928.272 C 541.492 925.323 543.758 924.697 547.175 923.134 z" fill="rgb(0,0,0)" transform="translate(0,0)"></path>
<path d="M 917.606 923.134 C 960.33 921.879 946.049 944.295 945.996 989.071 L 945.975 1079.91 C 955.858 1079.89 990.734 1078.35 997.251 1081.63 C 1001.93 1089.41 1001.9 1106.7 993.338 1112.99 C 980.597 1113.18 920.792 1116.32 913.53 1108.6 C 908.549 1103.3 909.503 950.776 911.248 929.169 C 912.905 925.884 914.557 925.194 917.606 923.134 z" fill="rgb(0,0,0)" transform="translate(0,0)"></path>
<path d="M 1477.83 923.134 L 1482.69 922.984 C 1489.55 922.807 1498.34 922.011 1503.48 926.911 C 1506.82 937.24 1512.32 1104.34 1497.6 1112.99 C 1488.63 1113.3 1477.58 1115.33 1471.02 1108.29 C 1468.84 1101.03 1467.13 934.849 1469.91 926.053 C 1472.15 923.627 1474.47 923.706 1477.83 923.134 z" fill="rgb(0,0,0)" transform="translate(0,0)"></path>
<metadata><recraft-signature>{"signed_by": "recraft", "signature_b64": "SltL0AvjwT0W32/axaP4W4H1HivcUcw+kX6fsm1jizfVtyzLwPtVwMbyX68twuOOVfLeCWsjkfP5EWLazMtdBw==", "signing_algo": "Ed25519", "generation_timestamp": 1772996232, "identifier": "0bc85cd2-e498-48b1-9a9f-5228bec54cb8"}</recraft-signature></metadata></svg>