<svg xmlns="http://www.w3.org/2000/svg" height="512" preserveAspectRatio="none" style="display: block;" version="1.1" viewBox="0 0 2048 2048" width="512">
<path d="M 333.876 343.605 C 363.922 342.713 399.195 343.587 429.556 343.591 L 1661.14 343.58 C 1698.56 343.503 1735.69 337.1 1764.93 364.995 C 1801.08 399.49 1790.75 460.121 1790.74 507.138 L 1790.84 1574.05 C 1790.93 1633.03 1790.78 1702.71 1708.05 1705.52 L 384.618 1705.58 C 367.418 1705.65 349.914 1706.29 332.682 1705.17 C 247.604 1699.62 256.175 1616.16 256.207 1557.14 L 256.215 483.904 C 256.194 424.197 248.331 349.17 333.876 343.605 z M 895.986 1534.99 L 1546.57 1535.01 C 1567.96 1535 1602.38 1533.54 1622.03 1534.99 L 1622.03 1107.02 L 895.986 1107.02 L 895.985 1391.55 C 895.988 1438.65 896.816 1488.15 895.986 1534.99 z M 895.986 511.789 L 895.986 938.637 L 1392.57 938.637 L 1546.32 938.604 C 1568.53 938.598 1600.45 937.591 1622.03 938.637 C 1621.27 921.557 1621.94 903.949 1622 886.782 L 1622.03 511.789 L 1127.96 511.789 L 973.933 511.758 C 950.368 511.753 919.01 510.812 895.986 511.789 z M 426.005 1107.02 C 426.633 1133.24 426.017 1158.72 425.999 1184.91 L 426.018 1467.1 C 426.038 1489.89 426.709 1512.2 426.005 1534.99 L 725.023 1534.99 L 725.023 1107.02 L 426.005 1107.02 z M 434.753 511.789 C 418.794 512.818 426.041 547.536 426.09 564.501 L 426.005 938.637 C 458.926 939.193 493.203 938.644 526.247 938.64 L 722.149 938.637 L 724.003 938.134 C 726.257 931.55 725.041 844.748 725.041 831.566 L 725.023 511.789 L 465.38 511.753 C 457.607 511.742 441.575 511.178 434.753 511.789 z" fill="rgb(0,0,0)" transform="translate(0,0)"></path>
<metadata><recraft-signature>{"signed_by": "recraft", "signature_b64": "2UT6y3dXYXld5aKvMbm92hA4mVCM+TuS2WT+QvMfubpN1JR9OY9MKRlhyfWITj694OPu5trCh1KchXfFWl4OCA==", "signing_algo": "Ed25519", "generation_timestamp": 1772997178, "identifier": "b3757087-084d-4abb-9dea-fc3bc460674f"}</recraft-signature></metadata></svg>