<svg xmlns="http://www.w3.org/2000/svg" height="512" preserveAspectRatio="none" style="display: block;" version="1.1" viewBox="0 0 2048 2048" width="512">
<path d="M 1001.28 219.698 C 1441.79 206.894 1809.48 553.209 1823.04 993.696 C 1836.6 1434.18 1490.92 1802.46 1050.46 1816.79 C 608.923 1831.14 239.547 1484.43 225.951 1042.87 C 212.355 601.31 559.7 232.533 1001.28 219.698 z" fill="rgb(0,0,0)" transform="translate(0,0)"></path>
<path d="M 986.596 335.975 C 1362.64 314.951 1684.64 602.493 1706.13 978.507 C 1727.63 1354.52 1440.49 1676.88 1064.5 1698.84 C 687.847 1720.85 364.792 1433.09 343.26 1056.41 C 321.729 679.731 609.89 357.035 986.596 335.975 z" fill="rgb(254,206,84)" transform="translate(0,0)"></path>
<path d="M 1000.55 1184.92 C 1082.45 1177.39 1168.46 1213.56 1216.44 1280.87 C 1257.49 1340.15 1254.63 1423.41 1170.73 1427.18 C 1110.89 1429.87 1103.82 1377.17 1044.55 1366.3 C 954.7 1351.95 951.745 1417.61 894.617 1426.73 C 842.748 1435.01 790.133 1392.26 800.298 1337.89 C 815.811 1254.92 923.151 1194.97 1000.55 1184.92 z" fill="rgb(0,0,0)" transform="translate(0,0)"></path>
<path d="M 732.797 734.798 C 806.853 727.739 872.502 782.313 879.09 856.413 C 885.677 930.512 830.685 995.812 756.545 1001.93 C 683.07 1007.99 618.484 953.596 611.956 880.161 C 605.428 806.726 659.406 741.795 732.797 734.798 z" fill="rgb(0,0,0)" transform="translate(0,0)"></path>
<path d="M 1294.34 734.632 C 1367.66 730.494 1430.53 786.408 1434.98 859.71 C 1439.43 933.013 1383.78 996.118 1310.5 1000.88 C 1236.78 1005.66 1173.21 949.608 1168.74 875.866 C 1164.26 802.125 1220.58 738.795 1294.34 734.632 z" fill="rgb(0,0,0)" transform="translate(0,0)"></path>
<metadata><recraft-signature>{"signed_by": "recraft", "signature_b64": "Rrrlhm6yPZAntDLk5ekjUe9uA28bzWSuHg1FmQwt6AsMnCqyvP0MDe+sRsZQLQUV5auXxUfOWE6jwYd8HAqjDQ==", "signing_algo": "Ed25519", "generation_timestamp": 1773000682, "identifier": "4712d537-49d8-4d2e-9763-f0603305fc62"}</recraft-signature></metadata></svg>