<svg xmlns="http://www.w3.org/2000/svg" height="512" preserveAspectRatio="none" style="display: block;" version="1.1" viewBox="0 0 2048 2048" width="512">
<path d="M 1236.03 354.781 L 1448.42 354.782 C 1490.97 354.751 1547.16 351.538 1587.74 359.469 C 1669.12 375.376 1740.26 449.927 1750.1 532.658 C 1753.54 561.55 1752.59 593.228 1752.56 622.179 L 1752.61 1414.71 C 1753.19 1589.43 1659.95 1677.91 1482.45 1669.11 C 1442.43 1667.13 1393.86 1673.87 1353.99 1663.87 C 1326.16 1656.89 1302.49 1636.25 1277.77 1622.28 C 1221.75 1585.04 1169.62 1568.5 1164.21 1493.99 L 988.5 1493.99 L 564.943 1494.03 C 534.25 1494.05 503.575 1495.67 473.478 1488.78 C 368.697 1464.78 295.432 1370.2 294.981 1263.33 L 294.964 630.556 C 294.961 597.761 293.037 559.138 299.065 527.777 C 315.02 444.76 386.202 374.701 469.006 358.779 C 499.54 352.908 539.702 354.752 571.257 354.755 L 1236.03 354.781 z M 1319.93 1316.39 L 1319.93 1448.46 C 1341.98 1461.88 1368.96 1483.43 1391.89 1493.53 C 1405.51 1499.53 1508.22 1496.48 1530.75 1496.52 C 1587.98 1492.2 1576.95 1434.83 1576.96 1393.73 L 1576.95 622.438 C 1576.96 534.804 1570.5 528.849 1491.1 528.965 L 742.76 529.027 C 668.841 529.023 593.621 528.251 519.841 529.024 C 463.008 543.861 473.695 590.484 473.685 636.147 L 473.686 1191.77 C 473.692 1218.25 472.386 1254.74 475.68 1280.68 C 481.494 1326.48 568.333 1316.42 599.744 1316.42 L 1256.39 1316.37 C 1276.73 1316.37 1299.83 1315.83 1319.93 1316.39 z" fill="rgb(43,45,46)" transform="translate(0,0)"></path>
<metadata><recraft-signature>{"signed_by": "recraft", "signature_b64": "DvjXUbzatuMPfOmkJyaPPpreo7+70kd35Wn9zgcoMSvRyMAZmhPBbFbbYFEhxBFNX4D6l5pvtRuWwpltOtV9Bg==", "signing_algo": "Ed25519", "generation_timestamp": 1772999678, "identifier": "f3c615e5-69ec-4c8c-8a20-1606fad6cc7b"}</recraft-signature></metadata></svg>