<svg xmlns="http://www.w3.org/2000/svg" height="512" preserveAspectRatio="none" style="display: block;" version="1.1" viewBox="0 0 2048 2048" width="512">
<path d="M 366.235 351.063 L 1596.37 351.059 C 1646.85 351.061 1699.67 351.905 1750 351.063 L 1750 1683.84 C 1728.35 1683.03 1702.42 1683.78 1680.5 1683.84 L 300.206 1683.84 L 300.206 351.063 L 366.235 351.063 z M 411.15 1573 L 1637.02 1573 L 1636.94 504.46 C 1636.84 489.475 1635.88 475.3 1637.02 460.334 L 458.845 460.288 C 443.757 460.268 425.96 459.764 411.15 460.334 L 411.158 1448.73 C 411.158 1488.36 412.243 1533.71 411.15 1573 z" fill="rgb(0,0,0)" transform="translate(0,0)"></path>
<path d="M 1404.18 1021 L 1516.74 1021 L 1516.74 1448.39 L 1205.5 1448.39 L 1094.49 1448.39 C 1093.7 1413.77 1094.45 1376.3 1094.49 1341.48 C 1103.11 1340.78 1115.05 1341.4 1124 1341.42 L 1327.8 1341.48 C 1352.66 1341.48 1379.58 1342.15 1404.18 1341.48 L 1404.18 1021 z" fill="rgb(0,0,0)" transform="translate(0,0)"></path>
<metadata><recraft-signature>{"signed_by": "recraft", "signature_b64": "hwnzLuSMm4FLBlWkqFS9e+m6aQQEYOGzqux9oPYgrGEzZ2oYcnAkQaXoz3bTocOWoB10AxF0i8WWJt75PHJSCg==", "signing_algo": "Ed25519", "generation_timestamp": 1772998570, "identifier": "dd66b2a1-43e8-404e-ac80-ff88c7a37c74"}</recraft-signature></metadata></svg>