<svg xmlns="http://www.w3.org/2000/svg" height="512" preserveAspectRatio="none" style="display: block;" version="1.1" viewBox="0 0 2048 2048" width="512">
<path d="M 473.56 298.982 C 474.989 298.818 474.504 298.832 475.838 298.827 L 1527.81 298.91 C 1636.33 298.847 1738.94 353.426 1746.46 473.628 C 1748.4 504.617 1747.14 539.479 1747.12 571.424 L 1747.14 1533.61 C 1746.87 1635.63 1686.35 1720.59 1583.12 1741.96 C 1554.66 1747.85 1523.38 1746.52 1493.98 1746.52 L 1068.95 1746.58 C 969.871 1745.78 948.4 1627.11 1032.19 1588.34 C 1051.9 1579.22 1126.22 1582.38 1152.69 1582.38 L 1499.44 1582.38 C 1568.97 1582.37 1582.13 1581.77 1581.88 1514 L 1581.81 691.25 L 1581.84 563.411 C 1582.01 490.693 1593.84 466.997 1504.84 467.024 L 514.045 467.07 C 522.571 478.9 537.81 490.326 549.093 500.277 L 895.904 800.07 C 957.434 853.431 1052.61 914.72 1064.28 998.026 C 1079.44 1106.27 993.871 1158.8 920.981 1220.91 L 574.741 1519 C 542.584 1546.98 528.454 1560.6 484.096 1567.7 C 397.205 1581.62 314.727 1519.59 302.756 1432.9 C 300.029 1413.15 301.016 1391.81 301.01 1371.86 L 300.978 531.283 C 300.973 513.144 300.254 487.255 302.141 469.812 C 312.203 376.78 381.553 311.163 473.56 298.982 z M 466.858 1391.01 C 476.367 1384.28 487.45 1374.34 496.623 1366.57 L 552.878 1318.58 C 602.534 1276.55 654.461 1234.18 703.271 1191.5 C 732.324 1167.84 759.718 1143.48 788.318 1119.77 L 858.647 1060.41 C 872.766 1048.33 889.922 1034.08 903.141 1021.35 C 893.122 1014.3 876.18 998.247 866.23 989.612 L 490.183 665.767 C 486.53 662.623 470.148 647.825 466.858 646.262 C 465.064 678.572 466.874 720.426 466.879 753.934 L 466.865 1252.78 C 466.858 1296.01 465.346 1348.5 466.858 1391.01 z" fill="rgb(0,0,0)" transform="translate(0,0)"></path>
<metadata><recraft-signature>{"signed_by": "recraft", "signature_b64": "+AdYmZgqzE5jMsNKtAAqDdpefogrGpy7tSDf3LLAY/IEjBr9NGnQu5xxAjsfnd21Lj8nsYuUV1Vi3N1vNJu2Cg==", "signing_algo": "Ed25519", "generation_timestamp": 1772999715, "identifier": "5df63dbf-d1a8-4994-bee1-d523363d9d00"}</recraft-signature></metadata></svg>