<svg xmlns="http://www.w3.org/2000/svg" height="512" preserveAspectRatio="none" style="display: block;" version="1.1" viewBox="0 0 2048 2048" width="512">
<path d="M 399.433 1301.66 C 342.818 1316.2 292.844 1302.27 259.276 1251.78 C 239.941 1222.69 241.702 1194.6 241.699 1161.32 L 241.719 999.392 C 241.599 966.357 239.576 934.277 246.638 901.705 C 273.375 778.299 372.854 707.867 494.831 707.752 L 634.175 707.909 C 754.728 707.93 824.102 728.936 892.01 840.363 C 942.78 788.507 1019.78 772.323 1087.13 799.352 C 1154.48 826.38 1198.93 891.303 1199.77 963.87 C 1225.89 971.015 1253.03 978.911 1278.15 989.086 C 1285.99 964.589 1288.08 951.852 1285.13 926.405 C 1277.98 864.636 1304.63 800.368 1350.01 758.861 C 1464.94 655.787 1652.5 719.722 1672.63 877.044 C 1678.09 919.74 1664.95 949.023 1683.97 989.667 C 1693.39 1007.11 1768.79 1082.07 1785.49 1100.11 C 1822.79 1143.61 1800.94 1191.39 1742.34 1185.78 C 1753.96 1219.83 1790.48 1359.84 1789.47 1376.37 C 1786.12 1430.93 1729.49 1421.03 1693.61 1421.04 C 1664.5 1421.06 1634.45 1423.18 1605.45 1421.15 C 1604.66 1436.6 1605.4 1459.23 1605.41 1475.15 L 1605.48 1579.9 C 1605.54 1602.28 1607.79 1629.6 1603.06 1651.24 C 1569.73 1803.36 1357.75 1781.99 1356.91 1626.24 L 1357 1421.15 C 1316.26 1420.62 1207.57 1434.44 1184.91 1402.95 C 1166.61 1377.53 1199.28 1284.94 1206.28 1252.9 C 1196.79 1260.99 1169.65 1278.79 1163.02 1286.83 C 1164.02 1329.65 1156.39 1382.81 1154.02 1426.87 L 1146.54 1567.92 C 1144.14 1621.61 1149.35 1674.92 1110.51 1717.67 C 1046.73 1787.88 929.932 1752.41 909.087 1661.92 C 904.134 1640.43 903.899 1615.76 902.452 1593.69 L 888.941 1379.12 C 886.946 1347.92 884.578 1318.2 884.025 1286.83 C 842.837 1263.15 797.343 1218.6 757.947 1198.68 C 758.746 1219.99 756.279 1247.08 754.939 1268.71 L 739.208 1541.1 C 736.024 1595.8 739.665 1640.72 704.494 1688.02 C 628.294 1790.52 472.353 1769 428.543 1648.78 C 418.14 1620.23 419.124 1584.35 416.819 1553.66 L 405.202 1388.51 C 403.74 1365.69 402.504 1323.74 399.674 1303.34 L 399.433 1301.66 z M 1032.69 1656.85 C 1060.03 1641.42 1052.87 1590.53 1054.66 1559.49 C 1056.91 1520.3 1065.84 1247.05 1081.26 1233.43 C 1130.29 1190.15 1193.09 1156.43 1242.24 1115.33 C 1246.68 1102.31 1249.78 1087.36 1254.26 1075.3 L 1197.72 1056.76 C 1191.64 1054.78 1183.95 1052.9 1178.41 1050.9 C 1137.35 1127.33 1047.5 1163.45 964.954 1136.71 C 882.412 1109.97 830.811 1028.02 842.368 942.033 C 778.55 839.862 765.237 799.343 631.249 799.421 L 561.503 799.499 C 509.856 799.541 454.444 792.967 409.336 822.423 C 337.493 869.336 336.397 923.062 336.376 998.168 L 336.376 1158.07 C 336.352 1168.75 336.026 1179.54 336.463 1190.18 C 337.886 1224.86 385.139 1224.45 387.932 1190.61 C 389.784 1168.19 389.059 1145.6 389.041 1123.12 L 388.933 978.352 C 388.436 889.666 474.421 908.566 483.262 954.917 C 486.336 971.036 483.525 997.67 483.511 1015.62 L 483.471 1132.77 C 483.46 1187.4 487.264 1240.93 491.048 1295.41 L 507.031 1513.73 C 510.789 1559.7 503.185 1624.09 544.809 1649.74 C 582.872 1673.19 638.347 1645.41 641.869 1600.95 C 646.016 1548.6 648.483 1494.41 651.947 1441.29 L 660.85 1291.56 C 667.73 1179.83 663.158 1070.71 669.832 960.945 C 672.417 918.433 730.769 901.032 755.708 936.446 C 774.205 962.712 761.633 1047.1 764.413 1084.89 C 768.93 1091.59 791.139 1106.44 798.721 1111.93 L 907.512 1189.53 C 956.672 1224.83 971.628 1221.56 975.365 1283.4 L 994.442 1567.97 C 997.024 1603.8 987.979 1660.12 1032.69 1656.85 z M 1031.56 1050.02 C 1078.85 1044.74 1112.85 1002.04 1107.41 954.767 C 1101.97 907.495 1059.16 873.635 1011.91 879.228 C 964.867 884.795 931.195 927.365 936.61 974.421 C 942.025 1021.48 984.486 1055.29 1031.56 1050.02 z M 1447 1421.15 C 1445.7 1439.07 1446.77 1455.9 1446.91 1473.82 L 1446.94 1598.45 C 1446.94 1627.47 1445.66 1662.56 1488.47 1656.85 C 1521.21 1631.33 1510.13 1602.42 1510.12 1561.13 L 1510.05 1421.15 C 1494.5 1420.66 1480.35 1420.07 1464.78 1421.15 L 1447 1421.15 z" fill="rgb(0,0,0)" transform="translate(0,0)"></path>
<path d="M 892.01 840.363 C 942.78 788.507 1019.78 772.323 1087.13 799.352 C 1154.48 826.38 1198.93 891.303 1199.77 963.87 C 1200.12 994.218 1192.77 1024.16 1178.41 1050.9 C 1137.35 1127.33 1047.5 1163.45 964.954 1136.71 C 882.412 1109.97 830.811 1028.02 842.368 942.033 C 847.523 903.678 864.936 868.016 892.01 840.363 z M 1031.56 1050.02 C 1078.85 1044.74 1112.85 1002.04 1107.41 954.767 C 1101.97 907.495 1059.16 873.635 1011.91 879.228 C 964.867 884.795 931.195 927.365 936.61 974.421 C 942.025 1021.48 984.486 1055.29 1031.56 1050.02 z" fill="rgb(254,3,0)" transform="translate(0,0)"></path>
<path d="M 1470.56 803.323 C 1549.12 795.223 1604.34 881.281 1571.01 950.44 C 1578.46 968.987 1582.8 987.255 1588.36 1006.41 L 1661.01 1258.62 C 1667.14 1280.56 1674.65 1305.77 1679.38 1327.66 L 1500.5 1327.66 L 1285 1327.66 C 1299.87 1273.59 1312.37 1216.83 1326.97 1162.11 L 1380.62 958.005 C 1382.96 948.743 1380.94 936.682 1379.82 927.072 C 1372.59 865.044 1407.4 812.672 1470.56 803.323 z" fill="rgb(253,228,223)" transform="translate(0,0)"></path>
<path d="M 558.78 290.818 C 664.188 280.573 757.981 357.624 768.392 463.016 C 778.804 568.407 701.9 662.321 596.525 672.898 C 490.916 683.499 396.747 606.386 386.312 500.76 C 375.877 395.135 453.138 301.087 558.78 290.818 z M 586.553 579.351 C 640.385 574.207 679.879 526.436 674.81 472.597 C 669.742 418.759 622.027 379.198 568.182 384.19 C 514.228 389.192 474.571 437.023 479.649 490.969 C 484.727 544.915 532.614 584.505 586.553 579.351 z" fill="rgb(0,0,0)" transform="translate(0,0)"></path>
<path d="M 1464.26 291.455 C 1569.27 285.998 1658.86 366.627 1664.47 471.635 C 1670.07 576.643 1589.56 666.344 1484.56 672.089 C 1379.36 677.844 1289.44 597.147 1283.83 491.936 C 1278.22 386.725 1359.04 296.922 1464.26 291.455 z M 1483.52 578.731 C 1537.08 573.388 1576.1 525.535 1570.56 471.995 C 1565.01 418.455 1517.01 379.614 1463.49 385.36 C 1410.26 391.075 1371.67 438.764 1377.18 492.021 C 1382.7 545.278 1430.24 584.047 1483.52 578.731 z" fill="rgb(0,0,0)" transform="translate(0,0)"></path>
<metadata><recraft-signature>{"signed_by": "recraft", "signature_b64": "bq6gAk80cVbkBWt5ZQ+hZxTpxe9OeODSD/VF5rsVnZlVdB00eiUNnexkuHC/LqVnG7fk2fRGhRkvx4uDmBmnCA==", "signing_algo": "Ed25519", "generation_timestamp": 1773000435, "identifier": "4fdf244c-4c9c-4793-9d45-cc0bc17fef84"}</recraft-signature></metadata></svg>