<svg xmlns="http://www.w3.org/2000/svg" height="512" preserveAspectRatio="none" style="display: block;" version="1.1" viewBox="0 0 2048 2048" width="512">
<path d="M 1658.41 520.387 C 1739.67 510.049 1769.3 578.625 1769.94 645.998 L 1770.03 1351.59 C 1770.04 1401.99 1778.37 1451.13 1738.23 1489.11 C 1681.37 1542.89 1634.3 1515.46 1573.54 1492.81 C 1408.27 1431.2 1242.27 1372.89 1076.39 1313.09 C 1050.09 1303.61 1026.29 1290.69 998.165 1286.55 C 937.734 1275.72 875.406 1279.13 814.079 1279.12 L 564.646 1279.12 C 541.311 1296.38 521.676 1322.46 499.369 1342.15 C 441.709 1388.98 359.867 1383.37 310.935 1328.38 C 271.851 1284.46 278.87 1239.74 278.884 1186.39 L 278.88 868.685 C 278.872 840.365 277.313 809.885 280.128 781.473 C 289.005 691.903 389.121 636.2 468.646 680.895 C 504.978 701.315 532.537 743.706 564.646 767.003 C 580.826 767.965 605.79 767.063 622.719 767.036 L 847.833 767.025 C 992.421 767.032 1025.45 751.41 1159.43 702.213 L 1541.66 560.422 C 1567.28 550.876 1634.06 523.133 1658.41 520.387 z M 446.584 882.769 C 445.8 912.314 446.473 945.821 446.514 975.681 L 446.584 1153.99 C 504.875 1104.58 490.222 1108.6 568.75 1109 L 827.758 1109 C 869.932 1109 913.521 1107.92 955.509 1109.6 C 1040.69 1113 1120.8 1148.82 1199.54 1177.32 L 1466.05 1275.66 C 1511.82 1292.77 1562.81 1305.31 1606.18 1322.68 C 1605.52 1301.38 1606.18 1279.05 1606.19 1257.57 L 1606.15 749.873 C 1606.15 745.119 1607.48 716.311 1606.75 714.961 L 1606.18 714.985 C 1587.2 720.6 1567.89 728.446 1549.18 735.22 L 1197.77 866.857 C 1047.49 923.313 1027.69 933.412 870.202 933.309 L 571.667 933.299 C 488.735 933.279 506.733 937.109 446.584 882.769 z" fill="rgb(0,0,0)" transform="translate(0,0)"></path>
<metadata><recraft-signature>{"signed_by": "recraft", "signature_b64": "y+fN754DXDmIvliQmxDK27XRgCj3XbNcYz6j0tUZOvr/9vAVYGtE9ModQA5KW9nnlgjYfxj8yJnRGqIZDvkfCA==", "signing_algo": "Ed25519", "generation_timestamp": 1772996923, "identifier": "eb3f2254-66e2-4d54-ab67-d0c17494b988"}</recraft-signature></metadata></svg>