<svg xmlns="http://www.w3.org/2000/svg" height="512" preserveAspectRatio="none" style="display: block;" version="1.1" viewBox="0 0 2048 2048" width="512">
<path d="M 571.351 1475.74 C 587.61 1474.4 618.515 1475.71 636.557 1475.74 L 1430.34 1475.76 C 1522.85 1475.76 1621.98 1485.57 1648.14 1367.13 C 1654.8 1343.02 1644.58 1311.65 1664.37 1292.05 C 1701.65 1255.14 1756.42 1282.3 1756.49 1332.99 C 1756.69 1459.79 1666.57 1579.36 1534.36 1581.01 L 553.362 1581.15 C 546.624 1581.15 539.708 1581 532.993 1581.13 C 406.586 1583.58 294.839 1474.05 294.38 1347.39 L 294.359 742.293 C 294.306 707.811 291.963 673.251 298.199 638.99 C 317.429 533.347 414.418 441.008 524.556 441.054 L 809.274 441.043 C 832.316 441.03 878.632 436.62 895.651 453.47 L 1479.07 1035 C 1516.49 1072.06 1556.86 1111.05 1592.3 1150.03 C 1630.17 1191.68 1562.8 1260.98 1515.87 1217.14 C 1484.2 1187.99 1453.93 1156.59 1423.56 1126.11 L 963.32 665.502 C 924.625 626.569 883.414 588.125 846.066 548.312 L 574.586 548.312 L 558.801 548.312 C 559.286 553.141 558.567 556.375 558.801 560.052 C 495.624 586.422 497.389 642.972 497.625 698.758 L 497.636 1243.49 C 497.643 1317.85 479.684 1415.49 549.583 1460.94 C 556.386 1465.36 566.36 1469.44 571.351 1475.74 z" fill="rgb(33,32,33)" transform="translate(0,0)"></path>
<path d="M 571.351 1475.74 C 476.853 1476.36 399.867 1440.24 400.219 1334.33 L 400.13 749.793 C 400.113 627.309 416.534 549.401 558.801 548.312 C 559.286 553.141 558.567 556.375 558.801 560.052 C 495.624 586.422 497.389 642.972 497.625 698.758 L 497.636 1243.49 C 497.643 1317.85 479.684 1415.49 549.583 1460.94 C 556.386 1465.36 566.36 1469.44 571.351 1475.74 z" fill="rgb(209,210,219)" transform="translate(0,0)"></path>
<path d="M 1183.65 441.062 C 1257.68 440.076 1334.27 441.047 1408.48 441.032 L 1481.57 441.029 C 1495.91 441.032 1510.19 440.946 1524.52 441.295 C 1631.24 443.896 1727.12 524.424 1750.53 628.087 C 1757.52 659.031 1756.97 691.588 1757 723.235 L 1757 801.092 C 1757.03 848.14 1771.09 929.348 1713.32 941.73 C 1648.16 948.157 1649.39 893.229 1649.43 846.283 L 1649.47 731.483 C 1649.46 693.907 1653.3 658.649 1636.59 623.843 C 1593.52 534.132 1509.16 548.327 1427.74 548.328 L 1244.32 548.257 C 1226.5 548.306 1205.65 549.331 1188.05 547.979 C 1125.51 543.177 1116.43 450.996 1183.65 441.062 z" fill="rgb(33,32,33)" transform="translate(0,0)"></path>
<metadata><recraft-signature>{"signed_by": "recraft", "signature_b64": "ZA82JuZ1Z0ajy7kZbO1oPGA0QW+/513kl9K+xzYxcgWllLHaqUtY+/C2ROlka8CETL2XXLQi1MEWoara+FWPDg==", "signing_algo": "Ed25519", "generation_timestamp": 1772997927, "identifier": "22999114-bb81-4673-b652-fe6469e813e3"}</recraft-signature></metadata></svg>