<svg xmlns="http://www.w3.org/2000/svg" height="512" preserveAspectRatio="none" style="display: block;" version="1.1" viewBox="0 0 2048 2048" width="512">
<path d="M 994.565 220.341 C 1036.15 222.983 1025.03 296.239 1025.01 326.751 L 1024.96 1824.01 L 797.948 1823.95 C 754.963 1823.92 683.613 1836.58 655.231 1805.12 C 621.916 1762.57 616.438 1692.64 638.153 1643.14 C 680.191 1547.31 659.295 1548.12 663.079 1450.23 C 665.212 1395.07 673.602 1338.04 672.999 1283.1 C 672.216 1211.65 660.629 1142.73 682.986 1073.19 C 700.516 1018.67 713.448 1007.22 700.433 949.951 C 691.331 909.9 694.634 874.459 711.156 836.821 C 736.455 779.188 745.872 777.191 738.908 714.507 C 726.575 603.489 791.445 604.272 797.197 510.898 C 799.053 480.769 800.134 451.209 812.648 423.226 C 828.17 388.514 864.571 374.374 889.425 320.864 C 908.503 279.792 946.011 225.616 994.565 220.341 z" fill="rgb(0,0,0)" transform="translate(0,0)"></path>
<path d="M 1186.22 354.998 L 1395.02 354.998 C 1421.35 412.286 1441.35 509.722 1398.12 564.614 C 1389.73 575.27 1369.79 586.97 1363.01 599.363 C 1337.55 645.915 1312.64 706.623 1316.04 760.529 C 1317.76 774.798 1332.49 795.469 1337 820.255 C 1338.68 858.315 1299.47 897.952 1275.44 925.996 L 1186.22 925.996 C 1187.06 907.577 1186.24 882.452 1186.23 863.519 L 1186.22 354.998 z" fill="rgb(0,0,0)" transform="translate(0,0)"></path>
<metadata><recraft-signature>{"signed_by": "recraft", "signature_b64": "AfZ2KlI3PBZQsIzTlB//MEOl7xckNgVgMQi/JyK9v1sP+kfFP0v8glLdBO/uZwFI/Cs5Aa75Z7uSnUNmbslEDA==", "signing_algo": "Ed25519", "generation_timestamp": 1772997603, "identifier": "d7a49ed6-a8bd-455d-a74f-45fc4f3a7839"}</recraft-signature></metadata></svg>