<svg xmlns="http://www.w3.org/2000/svg" height="512" preserveAspectRatio="none" style="display: block;" version="1.1" viewBox="0 0 2048 2048" width="512">
<path d="M 324.401 414.999 L 1678.17 414.925 C 1788.01 414.748 1812.27 439.667 1812.04 551.436 L 1812.04 1302.2 C 1812.03 1368.57 1801.83 1426.95 1722.27 1436 C 1694.24 1436.98 1659.27 1436.01 1630.81 1436 L 390.749 1436.05 C 327.517 1436.1 251.149 1441.68 237.61 1356.39 C 235.649 1344.04 236.852 1325.52 236.914 1312.73 L 237.009 547.71 C 236.996 481.21 236.436 425.891 324.401 414.999 z M 342.999 1330.94 C 384.87 1331.49 427.967 1330.94 469.946 1330.94 L 1674.8 1330.93 C 1679.03 1330.93 1703.36 1332.23 1704.85 1330.94 L 1704.87 609.509 C 1704.87 580.758 1705.72 547.808 1704.85 519.56 L 486.602 519.553 C 441.185 519.552 387.939 518.206 342.999 519.56 C 341.885 546.286 342.992 580.302 342.999 607.785 L 342.999 1330.94 z" fill="rgb(0,0,0)" transform="translate(0,0)"></path>
<path d="M 921.002 1489.68 C 929.194 1489.55 937.73 1489.68 945.953 1489.68 C 934.886 1503.18 907.32 1528.43 893.301 1542.29 L 850.011 1584.51 C 833.656 1600.76 817.197 1617.85 799.898 1632.99 C 762.738 1632.53 721.562 1632.41 684.422 1632.99 C 625.192 1633.52 682.396 1593.53 701.213 1574.93 L 788.583 1489.68 C 832.399 1490.15 877.13 1489.71 921.002 1489.68 z" fill="rgb(0,0,0)" transform="translate(0,0)"></path>
<path d="M 1104.44 1489.68 C 1155.16 1489.02 1207.32 1489.66 1258.18 1489.68 C 1294.88 1520.29 1346.44 1574.38 1381.46 1610.86 C 1388.45 1618.15 1388.6 1620.99 1383.92 1629.42 C 1373.67 1636.83 1347.86 1633.14 1335.19 1633.1 L 1251.04 1632.99 C 1212.8 1600.07 1177.75 1558.44 1140.29 1524.22 C 1129.35 1514.23 1113.64 1500.93 1104.44 1489.68 z" fill="rgb(0,0,0)" transform="translate(0,0)"></path>
<metadata><recraft-signature>{"signed_by": "recraft", "signature_b64": "ggRHntyXRuRcnhItumIZi2DeqBwvD/xOwHlqCwbfNgXVqbocInRnSo9LOtcaSanLytrH85ufDhlww19/3B7UCw==", "signing_algo": "Ed25519", "generation_timestamp": 1772999257, "identifier": "1cf785f3-d17b-4974-ad56-581ed01bd010"}</recraft-signature></metadata></svg>