<svg xmlns="http://www.w3.org/2000/svg" height="512" preserveAspectRatio="none" style="display: block;" version="1.1" viewBox="0 0 2048 2048" width="512">
<path d="M 820.848 709.49 L 1227.35 709.46 C 1250.8 709.41 1277.78 707.8 1300.53 712.423 C 1396.59 731.947 1420.75 805.829 1421.1 889.681 L 1421.08 1594.16 C 1421.08 1619.29 1422.34 1647.44 1416.7 1671.95 C 1393.75 1772.31 1310.51 1789.91 1225.25 1789.51 L 819.404 1789.55 C 797.858 1789.57 771.472 1790.98 751.087 1786.48 C 664.819 1767.46 625.893 1701.35 625.379 1618.8 L 625.36 930.67 C 625.269 774.615 654.867 710.233 820.848 709.49 z M 928.5 1698.98 L 1227.41 1698.92 C 1311.56 1699.03 1329.43 1688.33 1329.09 1602.89 L 1329.03 923.8 C 1329.07 821.927 1334.31 799.819 1219.81 799.848 L 1121.75 799.91 L 814.295 799.872 C 742.152 799.837 718.662 812.986 718.881 888.213 L 719.158 1631.31 C 719.486 1703.19 783.353 1699.07 832.297 1699.05 L 928.5 1698.98 z" fill="rgb(1,1,1)" transform="translate(0,0)"></path>
<path d="M 995.567 254.999 C 1115.79 247.604 1241.9 285.375 1341.5 351.527 C 1374.37 373.999 1443.19 417.507 1389.84 462.412 C 1352.87 493.531 1317.46 448.307 1287.14 427.608 C 1213.55 377.354 1140.43 357.819 1053.25 348.515 C 931.791 346.394 821.749 373.652 727.009 451.922 C 663.382 508.268 620.056 425.416 648.777 397.497 C 744.492 304.456 866.882 268.396 995.567 254.999 z" fill="rgb(1,1,1)" transform="translate(0,0)"></path>
<path d="M 1006.29 447.569 C 1089.06 440.831 1199.69 474.856 1262.48 531.486 C 1306.65 571.327 1253.21 640.617 1202.81 601.273 C 1157.32 565.764 1096.98 541.525 1038.91 540.969 C 977.296 536.517 915.434 555.017 864.007 588.698 C 849.278 598.209 839.118 611.083 820.888 613.821 C 779.728 620.005 752.017 570.321 779.097 538.821 C 828.986 484.739 935.957 452.318 1006.29 447.569 z" fill="rgb(1,1,1)" transform="translate(0,0)"></path>
<path d="M 473.778 833.396 C 514.14 820.974 540.395 868.284 519.25 907.774 C 469.123 1001.37 466.571 1120.56 509.632 1217.2 C 525.621 1253.08 551.494 1299.64 488.238 1316.25 C 454.086 1315.35 441.53 1294.01 428.326 1266.95 C 364.557 1136.25 369.75 972.841 444.567 847.755 C 450.517 837.807 463.206 834.457 473.778 833.396 z" fill="rgb(1,1,1)" transform="translate(0,0)"></path>
<path d="M 1569 833.396 C 1611.7 832.688 1623.69 879.335 1635.46 912.901 C 1674.52 1024.26 1670.62 1152.16 1624 1260.73 C 1611.08 1290.8 1606.03 1312.76 1569 1316.25 C 1530.31 1312.9 1509.83 1278.43 1527.98 1242.79 C 1579.59 1141.41 1581.77 1025.49 1537.91 920.899 C 1521.73 882.313 1516.76 840.91 1569 833.396 z" fill="rgb(1,1,1)" transform="translate(0,0)"></path>
<metadata><recraft-signature>{"signed_by": "recraft", "signature_b64": "p9sQsE+C8moZ07jGv9ZAQ7DgbuToL8GaIhvbuVrObZhoXJkz13vVhZKDWKQmolVfoZDA19/nghOwsstrxxvFAA==", "signing_algo": "Ed25519", "generation_timestamp": 1772999462, "identifier": "340a83df-d2e2-45e8-b837-87e5f17035dc"}</recraft-signature></metadata></svg>