<svg xmlns="http://www.w3.org/2000/svg" height="512" preserveAspectRatio="none" style="display: block;" version="1.1" viewBox="0 0 2048 2048" width="512">
<path d="M 1016.15 287.29 C 1075.4 283.876 1115.61 324.193 1160.23 356.542 L 1715.38 760.359 C 1738.16 776.82 1780.23 801.35 1789.93 825.851 C 1817.72 896.053 1739.28 961.956 1675.67 916.287 C 1666.82 909.933 1654.9 901.269 1645.63 897.64 L 1644 897.012 L 1644.79 1523.05 C 1644.68 1606.31 1594.82 1672.75 1511.96 1691.19 C 1492.14 1695.6 1466.66 1694.06 1446.04 1694.05 L 1039.25 1694 L 608.815 1694.06 C 590.324 1694.11 566.392 1694.71 548.365 1693.45 C 479.675 1688.62 417.509 1624.95 407.681 1557.86 C 405.382 1542.16 405.941 1526.17 405.954 1510.27 L 405.985 933.992 C 405.928 922.694 405.045 907.87 406.03 897.012 C 385.389 911.017 366.554 928.985 340.961 932.079 C 260.615 942.13 212.293 840.14 298.92 783.097 C 324.967 765.945 350.245 747.053 375.629 728.802 L 917.019 334.717 C 955.868 306.005 966.249 292.929 1016.15 287.29 z M 556.885 791.886 C 555.917 855.478 556.737 922.812 556.883 986.598 L 557.037 1527.61 C 557.212 1545.77 606.385 1538.38 620.082 1538.29 L 1024.7 1538.25 L 1422.02 1538.27 C 1432.7 1538.27 1483.63 1539.55 1490.18 1535.57 C 1494.79 1520.77 1492.34 1405.77 1492.34 1381.98 L 1492.35 853.982 C 1492.35 840.784 1493.4 803.144 1492.33 791.886 C 1483.75 783.508 1475.24 777.861 1465.58 770.955 L 1061.79 476.52 C 1051.2 468.718 1035.85 456.628 1024.7 450.672 C 1005.93 460.652 981.385 480.654 963.357 493.576 C 827.41 591.02 690.407 691.381 556.885 791.886 z" fill="rgb(0,0,0)" transform="translate(0,0)"></path>
<path d="M 791.128 958.5 L 1235.68 958.468 C 1293 958.445 1343.46 959.596 1343.97 1032.44 L 1344.07 1331.92 C 1344.67 1405.23 1336.45 1438.39 1258.5 1439.74 L 792.591 1440.05 C 715.275 1440.73 703.941 1401.37 703.944 1333.83 L 703.435 1036.38 C 703.407 978.246 740.319 958.627 791.128 958.5 z M 767.889 1377 C 782.755 1377.65 799.47 1377.03 814.598 1377.02 L 1187.5 1377 L 1279.98 1377 C 1280.73 1346.07 1281.13 1031.76 1277.95 1024.26 C 1264.78 1021.53 1240.05 1022.24 1225.72 1022.24 L 861.492 1022.25 C 847.777 1022.24 776.239 1020.94 769.642 1024.86 C 767.104 1038.33 767.886 1060.29 767.879 1074.61 L 767.881 1299.15 C 767.864 1323.91 767.093 1352.68 767.889 1377 z" fill="rgb(0,0,0)" transform="translate(0,0)"></path>
<path d="M 1489.3 278.031 C 1739.89 265.964 1858.98 605.422 1702.82 613.623 C 1646.15 609.579 1638.75 576.413 1633.91 527.526 C 1628.56 473.517 1579.25 428.315 1527.56 418.009 C 1500.05 412.524 1470.89 423.405 1447.45 402.594 C 1396.88 360.909 1417.34 286.292 1489.3 278.031 z" fill="rgb(0,0,0)" transform="translate(0,0)"></path>
<metadata><recraft-signature>{"signed_by": "recraft", "signature_b64": "705cBcoiReC0Fbft42iLiMu51+03ejykixIXbJH54mBF90d7p9Q1eq1Q0RS9Kglf1GriqUtLnVw8Of+d9Iz2CQ==", "signing_algo": "Ed25519", "generation_timestamp": 1772999416, "identifier": "759644ba-9250-4331-b3a1-dc34a37bd5f7"}</recraft-signature></metadata></svg>