<svg xmlns="http://www.w3.org/2000/svg" height="512" preserveAspectRatio="none" style="display: block;" version="1.1" viewBox="0 0 2048 2048" width="512">
<path d="M 334.773 360.937 C 361.352 359.937 394.339 360.947 421.371 360.95 L 1649.36 360.884 C 1776.11 360.823 1814.98 377.113 1815.06 512.857 L 1815.01 1507.73 C 1815.06 1591.57 1815.26 1666.77 1707.23 1683.9 L 392.468 1683.94 C 324.831 1683.95 250.97 1681.63 236.268 1594.01 C 232.942 1574.19 233.712 1554.29 233.725 1534.55 L 233.773 536.761 C 233.738 455.497 226.656 380.226 334.773 360.937 z M 874.49 481.51 L 874.49 964.552 L 1607.5 964.552 C 1636.57 964.598 1665.98 964.862 1695.02 964.552 L 1695.01 533.499 C 1695 517.819 1694.28 496.822 1695.02 481.51 C 1668.05 480.959 1639.91 481.504 1612.81 481.508 L 959.998 481.51 L 874.49 481.51 z M 353.49 1083 L 353.49 1563.59 L 753.021 1563.59 C 753.791 1561.17 752.981 1480.4 752.99 1473.2 L 753.021 1083 L 353.49 1083 z M 1695.02 1083 L 965.386 1082.99 C 936.391 1082.98 902.993 1082.14 874.49 1083 L 874.519 1513.01 C 874.532 1528.79 875.451 1548.43 874.49 1563.59 L 1603.53 1563.6 C 1633.45 1563.61 1665.32 1564.22 1695.02 1563.59 C 1696.22 1460.17 1695.01 1354.09 1695.02 1250.44 L 1695.06 1139.43 C 1695.09 1123.39 1696.06 1097.95 1695.02 1083 z M 353.49 481.51 L 353.49 964.552 L 753.021 964.552 C 753.934 945.624 753.071 921.564 753.043 902.089 L 753.018 781.573 C 753.019 682.524 754.395 580.286 753.021 481.51 L 353.49 481.51 z" fill="rgb(0,0,0)" transform="translate(0,0)"></path>
<metadata><recraft-signature>{"signed_by": "recraft", "signature_b64": "kkdIq2KkU/wpgUAjWY/MpyMv0BmbFBrzpnWsr7a1JI2WyFfE+0e2r8X70Dn8go0bwXVSrNgU+7b56L/p09zcCA==", "signing_algo": "Ed25519", "generation_timestamp": 1772996439, "identifier": "7b8e53a5-032f-42f0-bcab-3132f2fb365d"}</recraft-signature></metadata></svg>