<svg xmlns="http://www.w3.org/2000/svg" height="512" preserveAspectRatio="none" style="display: block;" version="1.1" viewBox="0 0 2048 2048" width="512">
<path d="M 393.989 289.005 C 406.202 287.594 428.698 288.918 441.721 288.936 L 1022.62 288.953 C 1153.78 288.926 1215.1 289.901 1215.04 439.407 L 1215 831.636 L 1608.89 831.556 C 1676.08 831.479 1740.51 838.886 1756.28 922.606 C 1759.59 940.137 1758.84 963.11 1758.82 981.15 L 1758.83 1611.95 C 1758.83 1686.32 1740.15 1742.73 1654.47 1756.99 C 1645.98 1758.42 1620.81 1757.08 1610.78 1757.07 L 994.78 1757.03 C 876.947 1756.72 830.817 1733.54 830.973 1607.25 L 831.024 1324.6 C 831.026 1290.04 832.168 1249.89 831.031 1215.96 L 453.046 1216.01 C 432.028 1216.02 409.396 1216.66 388.596 1213.59 C 307.46 1201.61 289.428 1136.91 289.69 1068.54 L 289.744 439.324 C 289.764 361.979 305.922 302.632 393.989 289.005 z M 416.139 1089.05 L 853.133 1089.02 C 941.453 1089 959.162 1095.71 959.058 1187.59 L 958.964 1591.86 C 958.961 1603.97 958.378 1620.15 958.996 1631.84 L 1630.09 1631.84 C 1630.91 1630.08 1630.09 1584.96 1630.09 1578.59 L 1630.09 960.002 L 1194.7 960.053 C 1103.21 960.163 1089.78 949.617 1089.97 856.708 L 1090.02 415.028 C 1016.74 416.225 939.685 415.031 866.212 415.029 L 419.156 415.028 L 416.856 415.822 C 415.409 420.605 416.089 457.109 416.102 464.786 L 416.139 1089.05 z" fill="rgb(0,0,0)" transform="translate(0,0)"></path>
<metadata><recraft-signature>{"signed_by": "recraft", "signature_b64": "1QJKS50FSo76v4OczFuRkVIyLKIGToPO4wAFjv0+SyDUE2AWbah7BK6zyPFb9cWZT525Rl6pX9w7sygdCTU+Cw==", "signing_algo": "Ed25519", "generation_timestamp": 1772995869, "identifier": "935afe29-dae2-4bfe-b599-4fbc68b65aca"}</recraft-signature></metadata></svg>