<svg xmlns="http://www.w3.org/2000/svg" height="512" preserveAspectRatio="none" style="display: block;" version="1.1" viewBox="0 0 2048 2048" width="512">
<path d="M 419.965 1278.49 C 418.48 1219.08 419.96 1153.01 419.97 1093.04 L 419.972 549.774 C 419.941 528.654 419.961 507.059 419.571 485.99 C 417.598 379.445 503.611 291.206 610.439 290.962 L 1364.49 290.921 C 1429.87 290.932 1488.49 284.044 1545.92 324.547 C 1593.21 357.902 1628.72 412.538 1629.06 471.969 L 1628.95 1206.53 C 1628.95 1227.77 1627.88 1258.29 1628.96 1278.49 L 1628.96 1409.79 C 1627.97 1460.13 1628.71 1509.93 1628.91 1560.23 C 1629.28 1651.84 1561.54 1737.62 1470.48 1753.31 C 1436.41 1759.18 1392.61 1756.99 1357.29 1756.96 L 624.438 1756.84 C 518.359 1757.44 416.561 1670.66 419.474 1562 C 420.82 1511.77 418.588 1460.02 419.965 1409.79 L 419.965 1278.49 z M 1505.12 1278.49 L 1505.14 561.789 C 1505.14 500.923 1518.64 414.377 1428.01 413.89 L 694.518 413.926 C 663.777 413.918 631.951 412.982 601.371 415.563 C 530.757 426.753 544.004 512.487 544.022 565.457 L 544.053 1278.49 C 569.196 1279.42 599.577 1278.51 625.187 1278.5 L 1428.79 1278.46 C 1450.23 1278.45 1484.46 1277.32 1505.12 1278.49 z M 1505.12 1409.79 C 1501.13 1408.69 1464.14 1409.77 1457.22 1409.77 L 544.053 1409.79 L 543.977 1519.43 C 543.955 1577.56 546.084 1632.95 621.616 1632.6 L 1411.17 1632.1 C 1500.89 1632.63 1505.19 1596.32 1505.17 1517.19 L 1505.12 1409.79 z" fill="rgb(0,0,0)" transform="translate(0,0)"></path>
<path d="M 979.787 1437.7 L 1051.08 1437.63 C 1066.85 1437.62 1091.09 1436.15 1105.55 1439.95 C 1176.82 1458.69 1173.02 1566.78 1078.13 1566 L 1003.52 1566.07 C 989.163 1566.07 964.568 1567.46 951.154 1563.95 C 885.847 1546.88 876.033 1437.32 979.787 1437.7 z" fill="rgb(0,154,240)" transform="translate(0,0)"></path>
<path d="M 419.965 1278.49 C 418.48 1219.08 419.96 1153.01 419.97 1093.04 L 419.972 549.774 C 419.941 528.654 419.961 507.059 419.571 485.99 C 417.598 379.445 503.611 291.206 610.439 290.962 L 1364.49 290.921 C 1429.87 290.932 1488.49 284.044 1545.92 324.547 C 1593.21 357.902 1628.72 412.538 1629.06 471.969 L 1628.95 1206.53 C 1628.95 1227.77 1627.88 1258.29 1628.96 1278.49 L 1538.95 1278.55 C 1532.26 1278.57 1509.82 1279.5 1505.12 1278.49 L 1505.14 561.789 C 1505.14 500.923 1518.64 414.377 1428.01 413.89 L 694.518 413.926 C 663.777 413.918 631.951 412.982 601.371 415.563 C 530.757 426.753 544.004 512.487 544.022 565.457 L 544.053 1278.49 L 419.965 1278.49 z" fill="rgb(0,0,0)" transform="translate(0,0)"></path>
<path d="M 544.053 1278.49 C 569.196 1279.42 599.577 1278.51 625.187 1278.5 L 1428.79 1278.46 C 1450.23 1278.45 1484.46 1277.32 1505.12 1278.49 C 1509.82 1279.5 1532.26 1278.57 1538.95 1278.55 L 1628.96 1278.49 L 1628.96 1409.79 C 1590.3 1410.9 1543.88 1411.57 1505.12 1409.79 C 1501.13 1408.69 1464.14 1409.77 1457.22 1409.77 L 544.053 1409.79 C 541.853 1408.93 430.68 1409.79 419.965 1409.79 L 419.965 1278.49 L 544.053 1278.49 z" fill="rgb(0,113,222)" transform="translate(0,0)"></path>
<metadata><recraft-signature>{"signed_by": "recraft", "signature_b64": "2jfqyhOw3qM+ylzDePbU0AIpAKzppv7759FT5gWl7m75Ct5QSTiOvpLhs9ZSCO/27yX4MLOASd+NBA8OKbtSBQ==", "signing_algo": "Ed25519", "generation_timestamp": 1773000262, "identifier": "969078e2-d81a-4e55-9d4d-a97e560280e9"}</recraft-signature></metadata></svg>