<svg xmlns="http://www.w3.org/2000/svg" height="512" preserveAspectRatio="none" style="display: block;" version="1.1" viewBox="0 0 2048 2048" width="512">
<path d="M 670.561 489.002 C 670.909 488.995 671.258 488.989 671.606 488.982 L 1298.04 489.012 C 1326.42 488.97 1359.25 487.164 1386.84 491.666 C 1490.54 508.587 1507.7 593.151 1536.84 674.614 L 1679.33 1081.88 C 1700.09 1140.41 1782.64 1348.46 1786.92 1399.95 C 1790.33 1469.97 1739.42 1540.67 1670.2 1554.98 C 1631.36 1563.02 1587.56 1560.06 1548.29 1560.06 L 1380.25 1560.04 L 505.133 1560.05 C 469.881 1560.07 430.367 1561.77 395.585 1558.31 C 311.359 1549.93 242.026 1455.96 265.613 1373.22 C 273.155 1346.76 284.199 1319.64 293.135 1293.6 L 530.006 628.822 C 556.884 552.581 574.965 500.532 670.561 489.002 z M 710.695 665.996 C 686.928 740.014 655.679 817.026 629.649 890.609 L 485.921 1295.28 C 476.958 1320.64 464.607 1352.76 457.285 1377.81 L 1307 1377.81 L 1589.63 1377.81 C 1580.49 1345.62 1567.85 1311.68 1556.77 1280 L 1367.4 742.996 C 1359.8 721.952 1346.44 687.069 1341.04 665.996 L 806.243 666.014 C 784.926 666.016 760.397 666.628 739.364 665.996 C 728.629 666.675 721.479 666.772 710.695 665.996 z" fill="rgb(0,0,0)" transform="translate(0,0)"></path>
<metadata><recraft-signature>{"signed_by": "recraft", "signature_b64": "bttFh/ww3D8p52qPEGtycTnyVr6/JPAgrXF6gAYC6PkECxFE6t89CCL/6dmNTPgcS2HPXghYd7O4olSaDhUKAA==", "signing_algo": "Ed25519", "generation_timestamp": 1772997871, "identifier": "29aeb122-2c7e-4c9a-8b75-a0ee01393b05"}</recraft-signature></metadata></svg>