<svg xmlns="http://www.w3.org/2000/svg" height="512" preserveAspectRatio="none" style="display: block;" version="1.1" viewBox="0 0 2048 2048" width="512">
<path d="M 1278.39 294.381 C 1302.78 293.815 1329.48 294.345 1354.03 294.354 L 1587.23 294.276 C 1724.46 294.149 1755.53 350.363 1755.5 482.661 L 1755.51 713.946 C 1755.51 738.85 1756.74 768.623 1752.93 792.641 C 1743.21 853.929 1689.13 896.01 1630.25 903.92 L 1317.39 903.96 C 1237.73 903.938 1159.6 874.886 1153.79 781.14 C 1152.3 757.063 1153.08 730.315 1153.08 705.674 L 1153.05 468.991 C 1152.94 383.814 1173.48 302.929 1278.39 294.381 z M 1626.93 832.251 C 1691.46 806.658 1682.02 766.041 1682.02 706.215 L 1682.02 494.638 C 1682.07 451.006 1690.53 369.069 1626.41 367.082 C 1607.36 366.491 1587.79 366.757 1568.61 366.776 L 1342.73 366.784 C 1323.71 366.776 1299.32 366.055 1280.71 366.823 C 1222.3 380.258 1225.68 418.523 1225.73 467.986 L 1225.72 709.846 C 1225.66 830.296 1235.15 832.319 1343.58 832.301 L 1565.16 832.286 C 1583.75 832.296 1608.95 833.136 1626.93 832.251 z" fill="rgb(36,35,38)" transform="translate(0,0)"></path>
<path d="M 1445.21 451.041 C 1507.92 446.077 1484.84 515.001 1491.01 551.386 C 1498.13 575.499 1595.6 531.074 1599.92 591.775 C 1604.7 658.801 1495.63 621.814 1491.78 635.645 C 1481.13 673.896 1509.5 721.528 1462.36 741.591 C 1425.07 749.904 1416.07 719.081 1415.91 688.491 L 1415.73 658.727 C 1415.55 636.964 1415.71 631.429 1393.02 632.96 C 1353.39 636.72 1289.45 637.073 1310.37 577.724 C 1322.75 542.621 1408.14 569.082 1413.96 554.388 C 1426.2 523.428 1393.87 468.776 1445.21 451.041 z" fill="rgb(36,35,38)" transform="translate(0,0)"></path>
<path d="M 1284.72 1145.99 L 1599.76 1145.88 C 1642.35 1145.62 1671.25 1144.83 1706.85 1173.2 C 1762.41 1217.47 1755.51 1273.22 1755.5 1335.86 L 1755.5 1582.95 C 1755.55 1600.78 1756.46 1625.24 1754.49 1642.21 C 1746.56 1710.71 1688.82 1742.71 1626.93 1748.92 L 1305.77 1749 C 1224.41 1749.28 1153.55 1715.39 1153.09 1624.52 L 1153.09 1302.36 C 1153.1 1285.55 1152.24 1262.52 1155.58 1246.53 C 1168.75 1183.33 1221.42 1146.13 1284.72 1145.99 z M 1634.06 1676.89 C 1694.73 1663.39 1683.41 1605.29 1683.39 1558.6 L 1683.38 1327.36 C 1684.01 1221.07 1673.73 1217.94 1573.71 1218.04 L 1341.49 1218.07 C 1323.35 1218.06 1295.58 1217.13 1278.39 1218.11 C 1214.5 1224.48 1225.72 1284.47 1225.71 1330.88 L 1225.72 1569.09 C 1225.76 1666.43 1220.89 1676.98 1332.34 1676.94 L 1572.73 1676.92 C 1588.42 1676.93 1619.28 1677.95 1634.06 1676.89 z" fill="rgb(36,35,38)" transform="translate(0,0)"></path>
<path d="M 414.702 1145.99 L 736.426 1145.96 C 808.325 1145.93 883.751 1165.37 892.962 1252.86 C 895.171 1273.85 894.155 1298.7 894.163 1320.12 L 894.153 1571.77 C 894.11 1664.55 885.583 1735.94 775.244 1748.92 C 765.669 1749.8 736.087 1749 725.511 1748.98 L 484.395 1748.95 C 331.584 1748.98 294.004 1720.66 293.992 1562.35 L 293.977 1320.32 C 293.96 1234.45 304.548 1155.54 414.702 1145.99 z M 775.244 1676.89 C 836.029 1658.59 822.108 1603.7 822.107 1550.37 L 822.139 1327.88 C 822.149 1215.46 811.586 1218.06 712.28 1218.08 L 487.296 1218.09 C 463.516 1218.07 438.3 1217.52 414.702 1218.11 C 353.851 1226.18 365.636 1296.42 365.625 1340.03 L 365.634 1575.37 C 365.675 1672.74 384.243 1677.04 477.782 1676.95 L 775.244 1676.89 z" fill="rgb(36,35,38)" transform="translate(0,0)"></path>
<path d="M 523.372 1303.24 C 560.601 1300.29 570.811 1307.46 602.12 1325.16 L 644.796 1349.02 C 697.657 1378.37 766.352 1401.66 739.988 1479.77 C 726.348 1520.18 676.741 1538.95 639.662 1557.56 C 616.264 1569.14 591.022 1586.19 566.498 1593.55 C 526.387 1604.53 480.86 1584.31 462.025 1547.15 C 443.316 1510.23 456.691 1451.73 452.883 1409.51 C 447.983 1355.19 467.147 1315.49 523.372 1303.24 z M 540.758 1528.7 C 552.806 1525.32 608.253 1496 620.594 1488.54 C 635.007 1480.92 686.688 1463.25 671.015 1443.27 C 665.06 1435.68 554.054 1371.32 537.521 1367.96 C 507.372 1379.91 520.788 1469.73 520.881 1503.04 C 520.93 1520.38 523.52 1523.96 540.758 1528.7 z" fill="rgb(37,147,223)" transform="translate(0,0)"></path>
<path d="M 554.408 296.27 C 624.804 296.168 663.924 276.835 663.926 358.452 L 663.863 410.076 L 771.213 410.053 C 801.206 410.011 855.283 399.753 856.883 444.112 C 863.167 547.282 863.662 664.562 794.371 746.456 C 740.609 809.997 674.101 843.293 590.487 850.129 C 572.175 849.195 544.496 850.107 525.582 850.109 L 340.71 850.154 C 287.44 849.84 293.858 820.293 294.036 779.072 L 293.994 587.322 C 293.967 569.872 292.655 550.209 293.949 533.117 C 304.08 399.351 424.69 302.72 554.408 296.27 z M 365.645 775.095 L 600.166 775.095 C 669.874 759.012 711.498 739.334 752.865 677.185 C 795.371 613.324 780.388 551.783 783.558 481.016 L 670.808 481.088 C 606.049 481.111 589.891 488.347 590.302 421.419 L 590.487 369.998 C 579.431 369.959 565.208 369.524 554.408 369.998 C 470.624 376.759 393.174 428.96 373.229 514.579 C 363.583 555.987 365.604 602.438 365.6 644.855 L 365.645 775.095 z" fill="rgb(36,35,38)" transform="translate(0,0)"></path>
<metadata><recraft-signature>{"signed_by": "recraft", "signature_b64": "sCeAroTsxqPduGHoVN9fahfa8bhu3dIhErt9S8Cti0cqmEf6ndPDwsVDfkPmVgVcfrMDVUuf3Bqr7ODW8LyrBw==", "signing_algo": "Ed25519", "generation_timestamp": 1772999488, "identifier": "e6cbb6c2-da21-4170-a28d-fcadbacacfd1"}</recraft-signature></metadata></svg>