<svg xmlns="http://www.w3.org/2000/svg" height="512" preserveAspectRatio="none" style="display: block;" version="1.1" viewBox="0 0 2048 2048" width="512">
<path d="M 1386.77 745.096 C 1394 744.784 1401.31 744.529 1408.5 744.487 C 1651.72 743.034 1782.61 1050.5 1610.06 1222.49 C 1713.63 1271.55 1794.79 1398.75 1804.84 1510.89 C 1810.09 1569.45 1805.81 1633.51 1806.65 1692.69 C 1801.11 1775.51 1684.6 1780.05 1671.1 1699.82 C 1661.26 1641.33 1676.06 1566.68 1665.07 1503.97 C 1644.1 1392.92 1545.65 1315.59 1435.98 1305.13 L 1434.76 1305.02 C 1291.9 1304.67 1174.16 1383.3 1155.24 1532.67 C 1148.43 1586.49 1159.61 1652.5 1151.49 1703.5 C 1145.94 1738.38 1106.18 1762.68 1072.52 1754.72 C 1008.5 1739.59 1018.14 1681.94 1018.03 1632.87 C 1017.9 1574.9 1015.18 1516.9 1030.39 1460.34 C 1056.18 1358.18 1117.62 1279.7 1206.59 1226.1 C 1062.44 1075.91 1116.11 833.747 1312.29 761.986 C 1336.63 753.082 1361.19 748.349 1386.77 745.096 z" fill="rgb(0,0,0)" transform="translate(0,0)"></path>
<path d="M 1389 883.451 C 1468.01 873.22 1540.32 929.049 1550.42 1008.07 C 1560.52 1087.1 1504.57 1159.32 1425.52 1169.28 C 1346.67 1179.22 1274.66 1123.43 1264.59 1044.6 C 1254.51 965.761 1310.18 893.657 1389 883.451 z" fill="rgb(192,192,190)" transform="translate(0,0)"></path>
<path d="M 486.356 288.014 C 526.406 287.245 568.859 287.994 609.118 287.995 L 1153.1 288.027 C 1295.47 288.061 1433.09 267.272 1517.63 414.937 C 1546.6 465.525 1573.72 617.51 1527.17 661.602 C 1502.21 685.235 1469.73 683.247 1443.82 662.886 C 1379.73 612.511 1447.71 527.405 1383.72 459.917 C 1362.63 437.675 1333.15 422.71 1302.22 422.055 C 1240.4 420.745 1178.32 421.985 1116.47 421.985 L 569.582 421.963 C 541.758 421.941 503.941 420.017 477.445 423.287 C 424.173 431.226 381.261 479.36 378.382 532.873 C 373.46 624.382 379.676 726.026 378.49 818.86 C 377.436 864.916 379.087 912.899 378.776 959.104 L 378.489 1037.82 C 378.489 1210.71 452.125 1203.18 588.807 1203 L 932.764 1202.94 C 948.388 1202.9 965.091 1202.01 980.532 1203.99 C 1048.98 1212 1059.38 1305.43 999.412 1332.71 C 977.012 1342.91 918.944 1339.12 891.856 1339.11 L 568.617 1339.07 C 527.997 1339.1 482.053 1341.7 442.468 1333.8 C 334.906 1312.33 248.123 1209.5 242.183 1100.42 C 240.255 1065.02 241.044 1028.4 241.04 992.825 L 240.999 630.509 C 240.999 585.065 238.742 531.134 247.293 487.328 C 270.21 369.921 371.023 296.038 486.356 288.014 z" fill="rgb(0,0,0)" transform="translate(0,0)"></path>
<metadata><recraft-signature>{"signed_by": "recraft", "signature_b64": "t5lumNeIc8g2ii+XOF9V2/UM5aIOILSfGXiZ6HUiuQ4JQLHM446vrGu5inM/awT0n7oPmNSNVQY6dSjNrPShDA==", "signing_algo": "Ed25519", "generation_timestamp": 1772990416, "identifier": "63893014-e04d-453c-857d-683bffd06a7d"}</recraft-signature></metadata></svg>