<svg xmlns="http://www.w3.org/2000/svg" height="512" preserveAspectRatio="none" style="display: block;" version="1.1" viewBox="0 0 2048 2048" width="512">
<path d="M 758.835 281.981 L 760.173 281.905 C 1082.78 265.238 1292.51 633.234 1095.14 900.747 C 1083.95 915.91 1070.22 930.292 1057.51 944.218 C 1071.37 952.013 1089.85 957.782 1104.59 965.517 C 1256.42 1045.16 1346.87 1195.24 1347.45 1365.84 L 1347.47 1501.15 C 1347.48 1543.97 1351.13 1598.49 1340.3 1638.95 C 1313.34 1739.63 1224.6 1762.52 1135.54 1762.52 L 802.925 1762.49 L 430.113 1762.56 C 342.866 1762.75 273.035 1746.45 233.158 1655.06 C 218.421 1621.28 218.7 1593.63 218.721 1558.13 L 218.737 1494.89 C 218.752 1387.52 210.899 1299.29 254.098 1198.03 C 307.036 1073.95 390.457 997.333 512.618 944.218 C 380.197 796.69 349.269 588.101 480.045 426.351 C 553.223 335.84 644.231 294.342 758.835 281.981 z M 891.214 1619.51 L 1147.02 1619.55 C 1201.44 1619.69 1205.24 1619.69 1205.16 1568.09 L 1205.04 1356.88 C 1203.78 1204.19 1076.25 1071.47 925.913 1056.02 C 893.457 1052.69 856.061 1054.2 823.197 1054.22 L 676.498 1054.24 C 512.382 1061.75 371.261 1175.9 362.61 1346.55 C 360.831 1381.63 361.971 1418.92 361.994 1454.22 L 361.935 1540.14 C 361.86 1631.52 365.937 1619.53 450.046 1619.54 L 891.214 1619.51 z M 805.451 912.5 C 940.216 901.075 1040.25 782.639 1028.97 647.862 C 1017.69 513.085 899.363 412.923 764.574 424.057 C 629.579 435.208 529.23 553.756 540.527 688.739 C 551.823 823.722 670.481 923.943 805.451 912.5 z" fill="rgb(0,0,0)" transform="translate(0,0)"></path>
<path d="M 1493.1 778.036 L 1585.3 778.006 C 1641.54 777.928 1677.97 773.784 1729.73 803.901 C 1830.34 862.442 1826.05 958.119 1826.03 1057.27 L 1826.04 1301.2 C 1826.05 1406.01 1790.75 1502.94 1674.95 1530.14 C 1642.68 1537.72 1520.78 1537.71 1480.76 1533.93 C 1409.5 1527.2 1390.94 1414.62 1482.75 1395 C 1490.54 1394.38 1504.77 1394.91 1513.15 1394.93 L 1585.8 1395.09 C 1686.72 1395.26 1686.25 1368.03 1686.02 1285.17 L 1686.06 1050.86 C 1686.24 930.138 1686 912.76 1567.07 915.309 C 1520.72 916.303 1449.77 902.821 1436.88 964.899 C 1431.27 991.91 1440.43 1003.1 1419.85 1028.12 C 1377.73 1079.33 1299.2 1053.92 1293.08 989.182 C 1283.49 867.215 1376.7 786.776 1493.1 778.036 z" fill="rgb(0,0,0)" transform="translate(0,0)"></path>
<metadata><recraft-signature>{"signed_by": "recraft", "signature_b64": "SbawEglRl1ESw+hpLupVOKDdvhq3cnB3qC6wLYIQSYvh26/T4qdQ/Dm6VZpM9v9NpjtFYbMqcwfryteqov9gCA==", "signing_algo": "Ed25519", "generation_timestamp": 1772990230, "identifier": "86b57774-051d-4940-9bd8-984ef507e112"}</recraft-signature></metadata></svg>