<svg xmlns="http://www.w3.org/2000/svg" height="512" preserveAspectRatio="none" style="display: block;" version="1.1" viewBox="0 0 2048 2048" width="512">
<path d="M 1629.43 1071 C 1677.17 1062.56 1716.64 1094.59 1723.67 1141.69 C 1741.24 1157.56 1825.44 1226.38 1818.91 1247.91 C 1807.7 1284.91 1794.17 1321.25 1782.47 1358.13 C 1766.66 1407.97 1729.79 1378.26 1735.1 1357.52 C 1746.34 1321.61 1759.54 1285.28 1770.79 1249.54 C 1757.47 1236.38 1743.27 1223.24 1729.63 1210.34 C 1731.45 1224.68 1734.14 1263.35 1732.01 1277.01 C 1727.59 1305.42 1703.64 1341.57 1706.27 1370.73 C 1708.35 1393.88 1724.87 1397.34 1734.9 1411.95 C 1742 1422.29 1756.23 1490.78 1760.66 1506.19 C 1751.93 1505.87 1741.72 1506.16 1732.88 1506.19 C 1734.22 1557.72 1746.21 1616.44 1750.19 1669.06 C 1752.05 1693.54 1758.64 1717.77 1743.81 1738.99 C 1723.93 1767.43 1679.49 1760.74 1668.64 1728.23 C 1653.75 1683.63 1651.09 1570.7 1643.34 1518.76 C 1639.26 1473.72 1633.71 1546.92 1633.36 1551.35 L 1624.28 1665.77 C 1622.84 1683.25 1622.37 1705.67 1618.27 1722.38 C 1610 1756.11 1566.68 1770.62 1541.48 1744.33 C 1519.73 1721.65 1529.81 1677.16 1532.27 1648.14 L 1538.29 1568.3 C 1540.11 1545.77 1543.05 1516.4 1543.03 1494.26 C 1526.05 1493.4 1511.91 1494.27 1515.04 1472.25 C 1523.71 1411.16 1554.73 1399.13 1543.27 1335.51 C 1537.15 1301.53 1536.98 1269.07 1537.02 1234.62 C 1524.91 1251.29 1509.32 1279.23 1493.98 1291.37 C 1482.34 1299.29 1352.57 1257.62 1334.08 1251.83 C 1313.9 1243.15 1323.37 1205.69 1345.42 1210.2 C 1388.15 1218.96 1434.43 1231.97 1476.17 1244.89 L 1526.85 1170.12 C 1528.74 1167.36 1547.68 1141.06 1547.91 1140.6 C 1566.7 1101.28 1565.03 1071.55 1629.43 1071 z" fill="rgb(0,0,0)" transform="translate(0,0)"></path>
<path d="M 393.852 1071 C 419.83 1067.85 451.009 1072.16 471.122 1090.31 C 487.241 1101.42 486.557 1130.78 495.296 1142.08 C 520.916 1175.2 545.732 1212.41 571.969 1244.89 C 589.824 1239.11 698.541 1209.12 709.66 1210.1 C 729.388 1211.84 732.34 1240.31 717.603 1250.84 C 707.897 1257.78 692.592 1259.11 681.311 1262.04 L 570.2 1290.99 C 546.826 1294.54 518.272 1249.36 505.399 1229.37 C 507.476 1275.97 513.955 1315.3 496.228 1360.22 C 509.864 1406.39 514.955 1457.24 526.938 1501.99 L 502.495 1501.99 C 497.197 1560.42 515.4 1650.05 517.96 1712.16 C 520.168 1765.73 433.143 1780.81 429.868 1698.96 C 424.415 1644.37 420.199 1590.46 415.431 1535.88 C 414.759 1528.19 415.294 1495.8 406.823 1494.26 C 403.494 1505 401.317 1532.93 400.095 1545.13 L 387.538 1666.34 C 383.751 1702.09 387.407 1756.99 334.322 1757.36 C 276.033 1757.78 299.125 1673.63 301.726 1641.29 C 306.394 1590.27 313.636 1538.84 317.752 1487.8 C 307.063 1486.4 296.73 1485.57 285.949 1485.92 C 288.958 1464.94 293.692 1443.77 297.472 1422.84 C 299.429 1412.01 314.079 1414.58 323.617 1407.79 C 360.659 1381.44 342.092 1354.43 330.752 1322.45 C 320.166 1292.59 317.101 1236.23 324.597 1205.33 C 309.24 1216.83 292.802 1235.34 279.195 1249.54 L 305.897 1330.02 C 309.913 1342.1 323.345 1365.33 313.681 1377.3 C 305.956 1386.87 288.583 1391.1 278.66 1382.42 C 268.145 1373.22 229.906 1249.52 229.853 1240.13 C 229.799 1230.7 313.17 1152.35 324.597 1141.69 C 328.23 1096.69 352.1 1079.05 393.852 1071 z" fill="rgb(0,0,0)" transform="translate(0,0)"></path>
<path d="M 849.494 419.285 C 942.596 414.124 1045.81 477.501 1046.39 578.515 C 1046.94 675.347 950.599 739.439 860.823 738.114 C 844.48 737.873 828.46 735.187 812.44 735.401 L 810.452 735.438 C 804.927 744.069 798.926 751.949 792.06 759.541 L 790.951 760.678 C 765.043 786.868 730.915 801.093 694.106 801.017 C 724.838 774.658 747.083 742.631 735.522 699.687 C 650.565 644.682 653.776 520.528 735.148 460.215 C 776.122 429.845 799.784 424.678 849.494 419.285 z" fill="rgb(0,0,0)" transform="translate(0,0)"></path>
<path d="M 1334.63 872.52 C 1346.83 871.948 1378.18 870.668 1387.73 876.849 C 1391.33 886.711 1389.96 979.358 1389.96 997.627 L 1389.93 1193.33 C 1382.55 1191.1 1369.7 1187.61 1363.14 1184.45 C 1360.55 1178.13 1361.89 928.272 1361.9 901.92 C 1281 900.122 1098.35 924.268 1048.92 998.154 L 1048.92 1442.01 C 1137.66 1414.12 1268.08 1385.17 1361.9 1382.29 C 1360.14 1355.77 1360.74 1317.27 1361.9 1290.14 C 1374.41 1292.03 1378.42 1292.91 1389.93 1298.02 C 1390.73 1342.77 1388.09 1392.77 1389.93 1436.96 C 1383.33 1437.01 1376.83 1437.74 1370.2 1437.33 C 1244.83 1429.62 1142.1 1447.27 1024.87 1485.92 C 935.715 1446.94 794.716 1433.49 700.072 1437.39 C 692.976 1437.68 662.914 1440.84 659.644 1439.17 L 659.409 1435.95 C 660.019 1421.82 659.48 1403.48 659.471 1389.13 L 659.409 1298.02 L 687.049 1290.14 C 688.09 1318.67 687.039 1353.14 687.049 1382.29 C 785.155 1385.08 907.248 1410.97 998.517 1442.01 C 999.269 1393.23 998.543 1342.23 998.539 1293.28 L 998.517 998.154 C 958.04 924.127 760.951 901.801 687.049 901.92 L 687.078 1079.31 C 687.191 1111.82 688.474 1153.64 687.049 1185.22 C 679.988 1188.32 667.279 1191.26 659.409 1193.33 C 660.11 1163.14 659.402 1130.3 659.339 1099.92 L 659.397 954.905 C 659.382 944.93 655.694 881.269 662.7 878.564 C 708.33 860.945 822.721 882.865 867.246 894.661 C 921.539 909.044 991.167 931.937 1021.61 982.936 C 1039.15 963.972 1056.5 942.853 1080.45 931.514 C 1156.58 895.465 1251.31 875.433 1334.63 872.52 z" fill="rgb(0,0,0)" transform="translate(0,0)"></path>
<path d="M 1215.78 306.474 C 1296.18 300.343 1376.66 358.767 1375.25 443.391 C 1373.65 538.829 1278.61 590.857 1191.5 574.516 C 1187.68 573.799 1175.49 588.044 1172.18 591.325 C 1146.88 609.93 1132.03 612.31 1101.41 616.687 C 1122.19 599.158 1137.25 581.772 1144.12 555.078 C 1019.8 470.237 1079.34 317.65 1215.78 306.474 z" fill="rgb(0,0,0)" transform="translate(0,0)"></path>
<path d="M 1385.44 576.993 C 1395.78 577.476 1405.53 577.866 1415.86 579.379 C 1519.64 594.586 1560.54 704.039 1465.12 771.451 C 1472.98 791.223 1481.24 800.575 1496.52 814.905 C 1477.14 813.316 1469.68 812.559 1451.67 804.825 C 1441.34 800.04 1432.35 793.06 1423.2 786.35 C 1268.94 813.663 1205.56 607.494 1385.44 576.993 z" fill="rgb(0,0,0)" transform="translate(0,0)"></path>
<path d="M 405.744 843.555 C 466.147 838.806 519.001 883.833 523.912 944.223 C 528.822 1004.61 483.936 1057.59 423.559 1062.66 C 362.954 1067.75 309.735 1022.66 304.807 962.038 C 299.878 901.42 345.113 848.322 405.744 843.555 z" fill="rgb(0,0,0)" transform="translate(0,0)"></path>
<path d="M 1616.56 843.589 C 1676.73 834.505 1732.83 876.061 1741.67 936.272 C 1750.52 996.484 1708.74 1052.42 1648.49 1061.02 C 1588.59 1069.58 1533.04 1028.08 1524.24 968.211 C 1515.45 908.337 1556.72 852.622 1616.56 843.589 z" fill="rgb(0,0,0)" transform="translate(0,0)"></path>
<path d="M 887.606 270.996 C 961.462 267.665 1039.22 279.545 1106.99 309.589 C 1096.39 318.669 1092.62 322.492 1084.26 333.684 C 980.062 281.462 815.073 295.891 713.663 347.405 C 612.9 398.59 546.772 498.526 605.023 608.425 C 628.09 647.816 659.8 676.674 698.883 699.687 C 699.429 711.464 699.053 723.624 698.883 735.438 C 680.251 727.829 663.279 714.028 647.404 701.945 C 548.528 626.682 518.35 499.235 600.792 398.477 C 674.85 307.966 778.243 282.592 887.606 270.996 z" fill="rgb(0,0,0)" transform="translate(0,0)"></path>
<metadata><recraft-signature>{"signed_by": "recraft", "signature_b64": "fRDYzH+yIps97Kh0S7dTNBMo7dSc24ounpVtWyIUsdzjjS4R9dsqje19mJwfF74jraZ+1RRSdX41oGViqg7CCQ==", "signing_algo": "Ed25519", "generation_timestamp": 1772988299, "identifier": "d846d992-516e-4f12-8881-2e0185ce1ad8"}</recraft-signature></metadata></svg>