<svg xmlns="http://www.w3.org/2000/svg" height="512" preserveAspectRatio="none" style="display: block;" version="1.1" viewBox="0 0 2048 2048" width="512">
<path d="M 1181.89 319 C 1191.89 317.874 1208.91 318.897 1219.59 318.928 L 1652.63 318.986 C 1754.3 318.838 1804.1 325.889 1804.08 441.318 L 1804.23 693.907 C 1804.74 792.999 1745.4 804.018 1661.14 804.046 L 1593.5 803.996 L 1222.1 803.938 C 1172.33 803.917 1166.29 805.52 1119.01 818.998 L 1012.07 849.725 C 1025.88 806.714 1047.59 756.125 1064.6 714.111 C 1087.42 657.725 1090.96 656.669 1090.97 598.077 L 1091.01 471.067 C 1090.99 393.946 1089.56 335.248 1181.89 319 z M 1150.33 720.557 C 1168.54 721.265 1189.34 720.576 1207.9 720.567 L 1695.13 720.557 C 1703.92 720.716 1712.21 720.895 1721.01 720.557 C 1721.64 685.9 1721.01 649.504 1721 614.707 L 1721.01 403.079 L 1175.06 403.079 L 1175.16 626.458 C 1175.56 672.816 1167.77 677.452 1150.33 720.557 z" fill="rgb(0,0,0)" transform="translate(0,0)"></path>
<path d="M 426.105 1239.88 C 430.35 1239.1 450.282 1239.73 455.509 1239.79 L 752.574 1239.45 C 806.318 1238.93 856.928 1255.14 895.421 1293.47 C 965.216 1362.97 956.457 1428.35 956.876 1516.99 L 957.038 1580.1 C 957.34 1678.24 930.331 1720.06 827.948 1720.07 L 773.721 1720 L 392.942 1720.06 C 232.725 1720.12 245.818 1648.51 242.933 1516.54 C 241.224 1438.37 235.861 1364.74 293.328 1302.9 C 329.466 1264.02 373.299 1243.15 426.105 1239.88 z M 344.423 1637 L 709.5 1637 L 860.014 1637 C 882.584 1623.39 872.839 1561.98 872.819 1534.58 L 872.946 1466.01 C 873.201 1323.5 804.161 1322.91 680.135 1323.02 L 494.491 1322.98 C 420.799 1321.41 329.27 1331.21 329.821 1427.8 C 330.132 1482.25 329.619 1536.86 329.906 1591.33 C 330.018 1612.6 325.301 1624.8 344.423 1637 z" fill="rgb(0,0,0)" transform="translate(0,0)"></path>
<path d="M 1269.17 1239.88 C 1292.72 1238.75 1319.63 1239.84 1343.45 1239.85 L 1574.63 1239.83 C 1598.21 1239.82 1629.56 1238.93 1652.13 1243.96 C 1744.71 1264.58 1803.49 1344.51 1804.06 1438.48 L 1804.04 1552.38 C 1804.25 1661.03 1802.87 1720.06 1677.5 1720.06 L 1622.5 1720 L 1239.63 1720.06 C 1141.45 1720.05 1089.82 1698.16 1090.87 1588.5 L 1091.04 1532.83 C 1091.17 1450.86 1078.27 1383.74 1132.67 1313.72 C 1167.38 1269.03 1213.54 1246.78 1269.17 1239.88 z M 1617.94 1637 C 1631.73 1637.03 1708.69 1638.99 1717.25 1632.2 C 1722.62 1621.65 1721.05 1595.22 1721.04 1582.64 L 1720.98 1519.81 C 1720.93 1487.57 1721.7 1453.79 1720.5 1421.91 C 1718.6 1371.66 1672.34 1327.96 1623.1 1324.18 C 1598.43 1322.34 1573.2 1322.91 1548.49 1322.93 L 1327.42 1322.99 C 1314.53 1322.96 1289.05 1321.99 1277.74 1322.98 C 1159.14 1341.3 1177.68 1442.53 1175.02 1530.29 C 1175.67 1558.53 1173.41 1587.02 1176.79 1615.1 C 1180.55 1646.47 1221.13 1637.11 1246.54 1637.05 L 1617.94 1637 z" fill="rgb(0,0,0)" transform="translate(0,0)"></path>
<path d="M 573.432 735.675 C 693.298 725.327 798.835 814.163 809.086 934.038 C 819.337 1053.91 730.416 1159.38 610.533 1169.53 C 490.786 1179.68 385.467 1090.88 375.228 971.139 C 364.989 851.401 453.702 746.01 573.432 735.675 z M 601.518 1085.84 C 675.417 1081.14 731.421 1017.27 726.44 943.389 C 721.459 869.508 657.388 813.739 583.526 818.993 C 510.047 824.219 454.631 887.884 459.586 961.381 C 464.542 1034.88 528.002 1090.53 601.518 1085.84 z" fill="rgb(0,0,0)" transform="translate(0,0)"></path>
<path d="M 1427.85 821.063 C 1523.65 811.644 1608.91 881.738 1618.2 977.548 C 1627.5 1073.36 1557.29 1158.53 1461.47 1167.7 C 1365.82 1176.84 1280.85 1106.8 1271.57 1011.17 C 1262.3 915.535 1332.23 830.464 1427.85 821.063 z" fill="rgb(254,195,29)" transform="translate(0,0)"></path>
<metadata><recraft-signature>{"signed_by": "recraft", "signature_b64": "In3gBqU0C/TzNNt4LPFZHHAvlYkQxQlMPpo+IIvWRSrZ482i2SqAStpTZWaTN/D5j1tcWkobfHCKpl2zG+9NCQ==", "signing_algo": "Ed25519", "generation_timestamp": 1772989636, "identifier": "4281766b-4977-49f9-972a-bdc5f9a7df1a"}</recraft-signature></metadata></svg>