<svg xmlns="http://www.w3.org/2000/svg" height="512" preserveAspectRatio="none" style="display: block;" version="1.1" viewBox="0 0 2048 2048" width="512">
<path d="M 441.797 254.001 L 1567.01 253.937 C 1652.2 253.907 1651.29 264.798 1664.79 345.376 L 1813.16 1268.9 C 1818.19 1299.5 1827.67 1325.74 1801.91 1349.91 C 1778.71 1371.67 1729.6 1365.01 1698.35 1364.98 L 1078 1365 L 1078 1684.98 C 1101.43 1684.15 1130.17 1684.95 1154.05 1684.96 L 1303.02 1684.98 L 1397 1684.98 C 1395.55 1716.8 1396.97 1761.19 1397 1794 L 650.02 1794 C 649.432 1758.24 650.007 1720.87 650.02 1684.98 L 970.372 1684.98 L 970.372 1365 L 344.704 1364.97 C 306.818 1364.98 229.888 1376.75 225.327 1320.42 C 223.315 1295.58 232.799 1258.27 237.117 1233.15 L 360.383 492.001 C 370.419 429.14 379.662 366.389 391.383 303.785 C 396.68 275.493 413.757 258.447 441.797 254.001 z M 1305.61 924.972 L 1644.25 924.972 L 1646.82 924.324 C 1649.18 917.631 1606.62 665.353 1602.64 638.081 L 1297.03 638.081 L 1293.43 638.742 C 1289.55 646.05 1306.31 888.731 1305.61 924.972 z M 400.598 924.972 L 708.843 924.972 L 742.924 924.972 C 744.747 839.408 761.406 719.901 754.979 638.081 L 448.743 638.081 C 446.42 648.992 444.917 660.039 443.104 671.047 C 429.263 755.091 412.56 840.734 400.598 924.972 z M 857.851 924.972 L 1174.25 924.972 L 1190.03 924.972 C 1191.7 901.684 1188.61 861.316 1187.41 836.654 L 1181.64 703.282 C 1180.72 681.122 1178.38 660.145 1180.02 638.081 L 911.134 638.029 C 901.559 638.009 886.261 637.48 877.028 638.081 C 869.245 638.966 870.958 647.18 870.673 653.953 C 868.464 706.437 864.948 759.716 862.675 812.115 C 861.332 843.083 855.74 895.536 857.851 924.972 z M 466.345 527.984 C 487.284 527.436 509.832 527.967 530.925 527.977 L 655.07 527.984 L 724.921 527.902 C 735.588 527.89 751.019 527.397 761.284 527.984 C 765.23 490.427 772.193 404.467 769.05 366.995 C 708.926 365.839 644.544 367.008 583.996 366.995 L 493.544 366.995 C 485.205 419.969 476.017 475.208 466.345 527.984 z M 877.028 527.984 L 1165.77 527.984 C 1168.98 527.792 1170.68 528.293 1172.79 526.71 C 1175.46 481.22 1166.22 415.959 1165.77 366.995 C 1073.4 365.468 976.637 367.003 883.95 366.995 C 882.992 420.594 876.054 474.47 877.028 527.984 z M 1285.95 527.984 L 1583.06 527.984 L 1564.96 420.956 C 1562.5 405.769 1557.87 381.637 1556.55 366.995 L 1278.96 366.995 C 1274.68 412.251 1285.91 479.32 1285.95 527.984 z M 849.946 1035 C 850.44 1055.46 848.709 1079.39 847.679 1100.1 L 843.363 1190.69 C 842.485 1208.04 840.593 1237.91 841.742 1254.99 L 1198.99 1254.99 C 1203.53 1254.88 1204.22 1255.67 1207.23 1253.54 C 1208.09 1226.39 1204.12 1184.34 1202.93 1156.27 L 1198.98 1072.95 C 1198.36 1061.58 1198.19 1045.83 1196.71 1035 L 966.038 1034.98 C 927.847 1034.97 887.991 1034.39 849.946 1035 z M 1666.85 1035 C 1643.5 1034.25 1616.36 1035 1592.65 1035 L 1428.99 1035 L 1310.96 1035 C 1311.29 1048.39 1312.54 1061.9 1313.16 1075.36 L 1318.01 1185.83 C 1319.12 1208.31 1321.01 1232.79 1321.6 1254.99 L 1583.06 1254.99 L 1700.6 1254.99 C 1689.15 1184.45 1681.31 1103.04 1666.85 1035 z M 728.719 1254.99 C 731.961 1194.38 741.456 1093.71 737.074 1035 L 383.141 1035 C 379.982 1039.59 347.057 1227.01 346.433 1253.45 C 351.717 1257.02 666.484 1255 702.25 1254.99 L 728.719 1254.99 z" fill="rgb(0,0,0)" transform="translate(0,0)"></path>
<metadata><recraft-signature>{"signed_by": "recraft", "signature_b64": "Tg3Ru1GNOuatIKvALvLuSwf/38Mn/aik1+OwQgn15SAppPT4V4ryRR0Ita4+97r+tRSWSTg+0nPlX/RL3EdSCQ==", "signing_algo": "Ed25519", "generation_timestamp": 1773000199, "identifier": "914a088e-678f-4f84-bca6-14a5780ec4d3"}</recraft-signature></metadata></svg>