<svg xmlns="http://www.w3.org/2000/svg" height="512" preserveAspectRatio="none" style="display: block;" version="1.1" viewBox="0 0 2048 2048" width="512">
<path d="M 473.762 359 C 479.424 358.489 487.164 358.908 493.011 358.904 L 1530.97 358.965 C 1599.28 358.978 1670.91 374.646 1684.79 456.335 C 1687.75 473.724 1689.16 491.556 1691.19 509.102 L 1703.34 618.273 L 1791.54 1514.32 C 1796.59 1564.49 1805.08 1612.81 1762.54 1652.82 C 1723.3 1689.73 1692.53 1688.1 1643.73 1688.1 L 1573.5 1688.03 L 407.867 1688.08 C 337.618 1688.11 263.217 1676.42 250.625 1588.75 C 246.881 1562.68 253.94 1515.95 256.752 1488.41 L 353.057 533.149 C 362.605 441.213 364.48 377.273 473.762 359 z M 384.925 1555 L 1558.5 1555 L 1665.15 1555 C 1664.08 1529.99 1659.07 1494.35 1656.47 1468.6 L 1565.59 569.621 C 1563.42 548.473 1556.92 507.83 1558.5 489.1 L 491.153 489.1 C 482 592.761 469.92 697.359 459.452 801.02 L 389.575 1505.96 C 388.113 1520.08 384.812 1541.79 384.925 1555 z" fill="rgb(0,0,0)" transform="translate(0,0)"></path>
<metadata><recraft-signature>{"signed_by": "recraft", "signature_b64": "uDBj8fx7JthHU2HGXhab4WzRdONfI5uK+xKYRSK1lN/tBt6W8OMnUMTlUZkLbo5/DmgcYEssdv72cBxyL+a+Ag==", "signing_algo": "Ed25519", "generation_timestamp": 1772996457, "identifier": "67e01931-2b16-43ab-ac3a-bf1c4af96cfa"}</recraft-signature></metadata></svg>