<svg xmlns="http://www.w3.org/2000/svg" height="512" preserveAspectRatio="none" style="display: block;" version="1.1" viewBox="0 0 2048 2048" width="512">
<path d="M 377.401 407.129 L 1072.18 407.187 C 1099.11 407.114 1127.4 406.22 1154.02 407.397 C 1224.44 410.51 1234.62 525.425 1160.61 533.746 C 1139.04 536.172 1114.8 535.003 1092.98 534.994 L 452.971 534.954 C 433.674 534.946 409.713 534.093 390.999 534.961 C 390.032 541.813 390.824 556.446 390.886 563.983 L 390.999 1505 C 473.705 1505 1379.75 1506.07 1381.78 1505 C 1382.53 1474 1381.77 1439.58 1381.78 1408.23 L 1381.8 1133.64 C 1381.78 1124.21 1380.3 1111.97 1381.55 1102.86 C 1391.97 1026.55 1497.23 1035.48 1505.82 1107.18 C 1508.85 1132.43 1507 1163.23 1507.01 1189.06 L 1507.02 1470 C 1506.99 1598.38 1489.86 1631.25 1354.66 1631.04 L 421.416 1631.04 C 355.49 1631.04 270.51 1631.66 263.089 1539.98 C 261.577 1521.31 263.018 1500.39 263.034 1481.34 L 262.939 562.805 C 262.878 475.022 276.922 415.122 377.401 407.129 z" fill="rgb(0,0,0)" transform="translate(0,0)"></path>
<path d="M 1720.69 407.129 C 1769.83 399.289 1805.66 472.072 1776.51 505.668 C 1733.73 554.976 1684.39 603.659 1640.36 651.325 L 1142.57 1184.77 C 1113.86 1215.05 1068.86 1275.14 1020.29 1235.41 C 964.907 1190.11 898.931 1115.52 847.08 1063.78 L 815.452 1032.39 C 796.571 1013.61 779.007 999.314 778.699 970.306 C 777.465 925.735 827.649 891.254 868.208 911.835 C 880.51 918.078 902.341 941.958 912.993 952.528 L 956.29 994.761 C 986.005 1023.75 1026.36 1059.97 1053.87 1089.37 L 1494.72 621.963 C 1557.72 555.656 1618.97 487.515 1683.83 422.966 C 1693.78 413.067 1707.42 409.432 1720.69 407.129 z" fill="rgb(0,0,0)" transform="translate(0,0)"></path>
<metadata><recraft-signature>{"signed_by": "recraft", "signature_b64": "SLMcEXKrAdZcRUvB4CRvAnAnyphhX2+1TurRXZQZVylnvaZ/hxNYhPez1xWz2e8M+cGNcwvxiJbriRB2vM66Ag==", "signing_algo": "Ed25519", "generation_timestamp": 1772997207, "identifier": "4cea2aa0-fcb9-462d-8c9d-dfd1e2d95b92"}</recraft-signature></metadata></svg>