<svg xmlns="http://www.w3.org/2000/svg" height="512" preserveAspectRatio="none" style="display: block;" version="1.1" viewBox="0 0 2048 2048" width="512">
<path d="M 444.89 403.003 C 452.945 402.122 485.153 402.93 495.297 402.942 L 1526.99 402.951 C 1549.93 402.946 1578.77 402.145 1601.06 403.837 C 1688.5 410.474 1766.3 475.775 1787.03 561.165 C 1794.42 591.649 1793.04 628.948 1793.03 660.447 L 1793.01 1316.44 C 1793.04 1351.29 1793.92 1390.25 1792.01 1424.7 C 1787.49 1506.21 1723.45 1586.77 1646.28 1611.14 C 1634.36 1614.9 1618.36 1617.99 1605.75 1620.98 C 1521.28 1622.44 1432.08 1620.99 1347.34 1621 L 498.498 1621.02 C 466.566 1621.03 439.677 1621.93 408.226 1613.25 C 330.417 1591.77 270.008 1521.79 259.119 1442.14 C 256.092 1420 256.815 1400.73 256.84 1378.55 L 256.821 643.418 C 256.527 514.929 308.977 423.225 444.89 403.003 z M 1326.81 1474.54 L 1507.55 1474.5 C 1548.22 1474.51 1638.56 1487.35 1642.56 1425.52 C 1643.24 1414.92 1643.06 1402.81 1643.06 1392.09 L 1642.75 623.691 C 1642.04 529.725 1562.29 549.468 1492.48 549.487 L 719.156 549.486 L 487.552 549.409 C 436.929 549.867 405.094 555.774 405.256 614.888 L 405.525 1330.11 C 405.471 1376.91 392.507 1467.02 460.328 1473.6 C 471.274 1474.66 483.965 1474.55 495.003 1474.57 L 1326.81 1474.54 z" fill="rgb(0,0,0)" transform="translate(0,0)"></path>
<metadata><recraft-signature>{"signed_by": "recraft", "signature_b64": "t7qw3fhHBbPl8/QpnbDhCYhLjJyAic65EUvg31nXppF+ahNEjdGod49qprsxQKOShlj/JC7MtqD4uCsRTc0hDQ==", "signing_algo": "Ed25519", "generation_timestamp": 1772998644, "identifier": "0eeb52e3-b6f6-40f3-92c5-b1b7e9d37380"}</recraft-signature></metadata></svg>