<svg xmlns="http://www.w3.org/2000/svg" height="512" preserveAspectRatio="none" style="display: block;" version="1.1" viewBox="0 0 2048 2048" width="512">
<path d="M 702.867 229.16 C 907.771 218.156 1082.85 375.24 1094.04 580.134 C 1105.23 785.028 948.308 960.247 743.424 971.628 C 538.274 983.023 362.777 825.851 351.57 620.691 C 340.363 415.531 497.697 240.178 702.867 229.16 z M 737.412 836.831 C 868.099 827.664 966.556 714.205 957.219 583.53 C 947.882 452.856 834.295 354.547 703.633 364.053 C 573.211 373.542 475.121 486.876 484.441 617.31 C 493.76 747.744 606.966 845.981 737.412 836.831 z" fill="rgb(0,0,0)" transform="translate(0,0)"></path>
<path d="M 955.525 1684.03 L 955.577 1288.39 C 955.584 1254.09 960.584 1220.07 940.339 1191.33 C 898.021 1131.25 842.286 1166.92 810.16 1132.97 C 766.531 1086.85 793.506 1016.23 858.937 1016.74 C 931.767 1017.32 982.291 1040.07 1032.68 1089.39 C 1101.78 1165.65 1091.58 1231.68 1091.5 1326.32 L 1091.47 1685.01 C 1091.5 1803.85 1098.65 1818.82 960.246 1818.66 L 463.323 1818.65 C 428.167 1818.85 392.047 1823.94 367.95 1791.56 C 347.034 1763.45 354.015 1705.15 354.039 1671.24 L 354.012 1310.28 C 353.961 1240.28 347.503 1170.17 394.422 1110.86 C 440.336 1052.81 493.138 1027.58 563.836 1017 C 669.883 1005.75 682.489 1134.32 596.952 1150.81 C 547.712 1158.4 489.667 1158.07 489.087 1232.16 L 488.999 1684.03 C 504.844 1683.41 524.682 1684 540.959 1684.01 L 955.525 1684.03 z" fill="rgb(0,0,0)" transform="translate(0,0)"></path>
<path d="M 1327.83 999 C 1367.62 995.87 1444.34 997.157 1486.08 999.877 C 1676.04 1012.25 1763.98 1238.22 1632.59 1371.99 C 1562.43 1443.41 1486.12 1435.11 1395 1434.99 L 1395 1584.5 L 1395.09 1701.2 C 1395.09 1719.32 1396.26 1744.54 1393.92 1761.9 C 1384.58 1831.35 1275.01 1836.4 1261.79 1764.29 C 1260.02 1754.56 1260.9 1741.15 1260.97 1731.03 L 1261 1118.71 C 1261 1058.74 1254.53 1011.22 1327.83 999 z M 1395 1299.99 L 1446.87 1300.09 C 1480.11 1300.35 1506.53 1303.27 1532.75 1277.15 L 1533.59 1276.3 C 1566.72 1238.57 1567.66 1187.84 1528.91 1153.8 C 1503.5 1131.48 1478.86 1134.85 1447.73 1134.89 L 1395 1134.97 L 1395 1299.99 z" fill="rgb(0,0,0)" transform="translate(0,0)"></path>
<metadata><recraft-signature>{"signed_by": "recraft", "signature_b64": "CoXyjNCs9lFauXWlE+55Ozh9Mms3CR3BV/M29nQNiIn5NZJvHtHexBh9URoXdyelQMX7RU4W8V3n87/oFoFDDQ==", "signing_algo": "Ed25519", "generation_timestamp": 1772989345, "identifier": "d778c047-8a00-4c31-b885-966a0001fea2"}</recraft-signature></metadata></svg>