<svg xmlns="http://www.w3.org/2000/svg" height="512" preserveAspectRatio="none" style="display: block;" version="1.1" viewBox="0 0 2048 2048" width="512">
<path d="M 973.829 317.001 C 1022.14 316.182 1072.51 317.022 1121.04 317.027 L 1559.11 316.986 C 1724.26 316.758 1757.05 353.933 1757.03 513.603 L 1757.05 773.788 C 1757.07 825.436 1760.67 864.677 1724.5 906.687 C 1699.44 935.794 1672.61 945.43 1635.46 948.36 L 1042.29 948.314 C 900.835 948.46 855 918.399 855.001 772.816 L 854.994 503.11 C 855.01 410.49 861.219 329.945 973.829 317.001 z M 1437.18 858.441 L 1571.89 858.4 C 1649.24 858.439 1665 873.011 1665.04 784.309 L 1665.03 532.696 C 1665.03 504.578 1665.16 476.458 1664.76 448.371 C 1664.07 399.988 1614.46 409.424 1580.86 409.434 L 1178.12 409.485 L 1040.41 409.559 C 963.77 409.497 948.64 394.602 948.952 481.528 L 948.931 816.986 C 947.017 866.426 1000.78 858.429 1033.85 858.448 L 1437.18 858.441 z" fill="rgb(1,1,1)" transform="translate(0,0)"></path>
<path d="M 544.907 929.53 C 670.004 929.515 782.794 1017.8 797.583 1145.18 C 799.893 1165.07 799.043 1189.21 799.036 1209.5 L 799.078 1381.49 C 799.67 1462.92 786.939 1519.57 687.949 1530.32 C 687.369 1544.2 687.902 1562.29 687.926 1576.36 L 687.99 1668.46 C 687.773 1730.66 602.991 1731.51 597.43 1677.9 C 596.7 1670.86 597.162 1663.19 597.165 1655.94 L 597.148 1530.38 C 597.198 1378.32 653.996 1466.22 700.404 1432.35 C 712.572 1423.47 708.567 1356.24 708.54 1340.24 L 708.778 1184.46 C 709.315 1089.32 640.162 1019.18 544.907 1018.83 C 469.172 1018.8 402.195 1075.18 387.247 1149.08 C 382.654 1171.8 384.37 1198.68 384.32 1221.84 L 383.968 1381.79 C 383.888 1392.12 381.253 1429.6 390.658 1433.88 C 456.61 1463.92 498.517 1385.23 498.504 1527 L 498.584 1653.96 C 498.659 1661.14 499.578 1672.4 498.273 1679.36 C 489.263 1727.36 406.72 1740.69 407.034 1656.41 C 407.191 1614.4 406.578 1572.33 406.998 1530.32 C 341.161 1529.03 292.229 1479.48 293.411 1413.79 C 294.834 1334.77 284.584 1200.25 298.282 1128.52 C 322.264 1010.35 426.369 932.451 544.907 929.53 z" fill="rgb(1,1,1)" transform="translate(0,0)"></path>
<path d="M 1272.05 1313.68 C 1269.46 1277.86 1280.51 1245.24 1248.57 1217.15 C 1227.8 1198.89 1190.91 1191.92 1166.42 1208.67 C 1131.04 1232.86 1089.52 1314 1042.41 1277.05 C 995.155 1239.97 1051.01 1200.74 1073.25 1176.33 C 1139.18 1103.94 1231.67 1082.13 1308.23 1152.59 C 1359.67 1199.94 1363.24 1248.47 1362.96 1313.68 L 1362.96 1407.97 C 1362.44 1433.26 1366.85 1513.2 1361.92 1533.71 C 1350.95 1579.4 1285.76 1581.14 1274.22 1534.69 C 1267.56 1507.85 1273.1 1438.73 1272.05 1407.97 C 1270.29 1381.57 1272.77 1341.99 1272.05 1313.68 z" fill="rgb(252,126,37)" transform="translate(0,0)"></path>
<path d="M 537.047 588.01 C 610.646 582.562 674.774 637.704 680.415 711.289 C 686.057 784.874 631.084 849.146 557.514 854.981 C 483.67 860.838 419.107 805.616 413.444 731.757 C 407.782 657.897 463.173 593.479 537.047 588.01 z" fill="rgb(252,126,37)" transform="translate(0,0)"></path>
<path d="M 1362.96 1313.68 L 1670.3 1313.66 C 1684.41 1313.67 1700.05 1313 1714 1314.97 C 1750.91 1320.2 1770.02 1367.72 1741.39 1394.62 C 1722.27 1412.6 1698.27 1408.3 1674.16 1408.05 L 1362.96 1407.97 L 1362.96 1313.68 z" fill="rgb(1,1,1)" transform="translate(0,0)"></path>
<path d="M 1272.05 1407.97 C 1217.31 1407.08 1113.21 1415.18 1063.33 1406.93 C 1026.49 1400.84 1014.17 1352.53 1040.24 1326.98 C 1060.19 1307.44 1106.91 1313.65 1134.52 1313.65 L 1272.05 1313.68 C 1272.77 1341.99 1270.29 1381.57 1272.05 1407.97 z" fill="rgb(1,1,1)" transform="translate(0,0)"></path>
<metadata><recraft-signature>{"signed_by": "recraft", "signature_b64": "s9AEm2rYllcKdl0hz5Bddlf4M7rXiuDcEEY8miUQltSSvtUw1xY7Wkw4U3jFyKybgA9vWiAE7MlTgIIx7inBCQ==", "signing_algo": "Ed25519", "generation_timestamp": 1772998352, "identifier": "84f10830-8ddf-4067-ba3c-ca861f1f8ad4"}</recraft-signature></metadata></svg>