<svg xmlns="http://www.w3.org/2000/svg" height="512" preserveAspectRatio="none" style="display: block;" version="1.1" viewBox="0 0 2048 2048" width="512">
<path d="M 292.726 315.001 C 330.645 310.975 398.679 314.958 439.863 314.952 C 478.441 314.945 496.761 332.962 496.182 372.279 L 496.217 1633.63 C 496.28 1669.87 505.444 1721.48 452.623 1721.72 L 341.868 1721.76 C 274.754 1721.76 250.325 1731.18 250.589 1655 L 251.297 525.046 C 251.021 475.897 249.803 426.909 250.907 377.696 C 251.649 344.654 255.533 323.054 292.726 315.001 z" fill="rgb(0,0,0)" transform="translate(0,0)"></path>
<path d="M 725.79 796.898 C 770.114 800.816 821.388 794.799 867.908 798.073 C 895.14 799.99 929.498 796.434 934.808 836.863 C 934.254 925.505 932.717 1014.32 930.661 1103 L 921.194 1621.93 C 920.825 1658.74 930.668 1717.35 878.75 1721.72 C 843.017 1722.29 807.188 1721.72 771.444 1721.78 C 740.234 1721.84 687.203 1732.71 673.384 1694.82 C 667.272 1678.06 671.891 1581.54 672.257 1557.57 L 682.805 1033.98 C 683.622 979.107 681.012 920.93 683.154 866.598 C 684.67 828.154 685.261 810.365 725.79 796.898 z" fill="rgb(0,0,0)" transform="translate(0,0)"></path>
<path d="M 1724.06 796.898 L 1725.73 796.76 C 1804.11 790.42 1797.12 829.718 1797.08 893.744 L 1797.13 1646.85 C 1797.73 1724.51 1785.82 1721.62 1719.03 1721.73 L 1628.25 1721.72 C 1583.51 1722.17 1552 1724 1551.96 1670.14 L 1551.95 929 C 1551.97 897.714 1550.52 865.141 1552.27 834.033 C 1554.72 790.642 1599.32 796.798 1628.62 796.833 L 1724.06 796.898 z" fill="rgb(0,0,0)" transform="translate(0,0)"></path>
<path d="M 1141.72 315.001 C 1185.13 319.659 1250.28 314.387 1296.51 315.542 C 1365.86 317.276 1347.59 401.636 1349.13 451.993 L 1362.83 1024.6 C 1363.66 1062.01 1367.49 1118.86 1365.06 1154.96 C 1350.47 1154.77 1335.49 1154.95 1320.86 1154.96 L 1181.28 1154.96 C 1164.44 1154.95 1129.53 1153.74 1114.66 1154.96 C 1115.57 1129.7 1112.79 1085.26 1111.88 1058.88 L 1096.33 413.713 C 1095.17 370.662 1083.96 323.11 1141.72 315.001 z" fill="rgb(0,0,0)" transform="translate(0,0)"></path>
<path d="M 1117.06 1214.51 C 1124.12 1215.05 1137.76 1214.58 1145.24 1214.57 L 1369 1214.51 C 1367.46 1233.42 1368.37 1246.85 1368.68 1265.51 L 1375.16 1583.04 C 1375.74 1619.24 1388.22 1685.34 1363 1709.82 C 1343.03 1730.07 1274.69 1721.66 1245.72 1721.63 C 1178.68 1721.56 1133.32 1739.9 1130.48 1661.65 L 1120.33 1320.65 C 1119.13 1286.45 1116.66 1248.32 1117.06 1214.51 z" fill="rgb(0,0,0)" transform="translate(0,0)"></path>
<metadata><recraft-signature>{"signed_by": "recraft", "signature_b64": "SJs5DwKfC/eJe4HiQMBSeNQbtVpEB5Wwx0xfAv2rO6BNZS/xr164f3O1uKxRFy8jeJrW4GMP1jlS5FSUB5KqBA==", "signing_algo": "Ed25519", "generation_timestamp": 1772996847, "identifier": "5334025d-b941-4308-8a08-e9160ec316c2"}</recraft-signature></metadata></svg>