<svg xmlns="http://www.w3.org/2000/svg" height="512" preserveAspectRatio="none" style="display: block;" version="1.1" viewBox="0 0 2048 2048" width="512">
<path d="M 1599.97 165.338 C 1645.27 158.184 1692.25 188.773 1704.11 232.979 C 1715.22 274.4 1683.74 349.094 1671.34 390.282 L 1275.9 1735.09 C 1269.15 1758.82 1262.73 1783.01 1254.6 1806.29 C 1221.64 1900.89 1076.38 1885.86 1068.61 1786.55 C 1066.68 1761.89 1074.65 1744.82 1081.36 1722.01 L 1313.94 929.404 C 1337.24 849.633 1362.22 770.784 1384.88 690.526 C 1376.62 703.24 1366.28 716.114 1357.02 728.278 L 1294.45 809.032 L 741.708 1525.5 C 722.183 1551.05 701.519 1580.93 680.011 1604.45 C 603.028 1688.63 465.144 1579.8 537.071 1482.87 L 1502.41 244.458 C 1531.96 208.065 1550.37 173.697 1599.97 165.338 z" fill="rgb(0,0,0)" transform="translate(0,0)"></path>
<path d="M 511.654 837.162 C 614.281 829.557 703.662 906.544 711.347 1009.17 C 719.032 1111.79 642.115 1201.23 539.5 1208.99 C 436.771 1216.77 347.209 1139.75 339.516 1037.01 C 331.822 934.277 408.912 844.776 511.654 837.162 z" fill="rgb(0,0,0)" transform="translate(0,0)"></path>
<metadata><recraft-signature>{"signed_by": "recraft", "signature_b64": "1fUJFyFrIV6lRlCJ9mfqC7xXyXKk5oPeazweaoJ/CF1ncEUZh+X5dkbtW5/azGq6/W4yPlnxzjGpp1QFZNQuCw==", "signing_algo": "Ed25519", "generation_timestamp": 1772996856, "identifier": "349534f4-e468-4d06-b52f-50f6c66256aa"}</recraft-signature></metadata></svg>