<svg xmlns="http://www.w3.org/2000/svg" height="512" preserveAspectRatio="none" style="display: block;" version="1.1" viewBox="0 0 2048 2048" width="512">
<path d="M 1530.9 300.598 L 1664.67 300.299 C 1690.22 300.238 1706.38 307.174 1725.21 324.841 C 1757.29 354.946 1750.07 398.023 1750.03 437.713 L 1750.08 1089.49 C 1750.07 1197.51 1680.45 1193.04 1596 1192.99 L 894.069 1192.99 C 895.432 1303.78 894.07 1417.65 894.06 1528.69 L 894.1 1628.14 C 894.179 1662.33 900.495 1687.65 875.183 1715.99 C 830.672 1765.83 750.229 1747.96 729.852 1684.99 C 724.224 1667.59 725.98 1635.22 725.981 1615.72 L 726.032 1540.5 L 726.032 1146.44 C 697.55 1124.33 671.106 1099.33 643.778 1075.99 L 391.08 861.514 C 370.929 843.868 348.601 828.286 329.287 809.721 C 259.012 742.176 317.827 686.241 369.547 643.505 L 656.412 405.143 C 690.921 376.762 725.162 347.748 760.496 320.365 C 795.916 292.916 854.068 300.556 896.392 300.573 L 1530.9 300.598 z M 894.069 1025.83 L 1583.02 1025.83 L 1583.02 466.997 L 894.069 466.997 C 893.063 485.012 894.05 509.051 894.063 527.884 L 894.069 1025.83 z M 511.672 745.455 C 541.488 772.167 577.786 799.789 609.34 825.039 C 644.444 853.644 688.468 895.004 726.032 919.01 C 726.047 878.998 730.648 581.844 726.032 568.056 C 714.823 575.419 700.197 588.197 689.592 596.989 L 544.438 717.591 C 536.199 724.398 517.782 738.37 511.672 745.455 z" fill="rgb(0,0,0)" transform="translate(0,0)"></path>
<metadata><recraft-signature>{"signed_by": "recraft", "signature_b64": "932QwVaK7l3vlNj9ywSS58wnpbwoE3zM5RQxdXh6LnaRzmGm3LFq/PqEgbWuTd/wq+GFzhUdmby2ICYB0ZnvAw==", "signing_algo": "Ed25519", "generation_timestamp": 1772996996, "identifier": "d7c0cbf5-651e-41cc-9e3b-4be43ba59c40"}</recraft-signature></metadata></svg>