<svg xmlns="http://www.w3.org/2000/svg" height="512" preserveAspectRatio="none" style="display: block;" version="1.1" viewBox="0 0 2048 2048" width="512">
<path d="M 981.078 238.128 C 1414.43 214.045 1785.21 545.917 1809.12 979.278 C 1833.03 1412.64 1501.01 1783.29 1067.64 1807.02 C 634.514 1830.75 264.12 1498.96 240.223 1065.84 C 216.326 632.723 547.971 262.197 981.078 238.128 z M 1057.52 1667.31 C 1414.04 1649.09 1688.28 1345.27 1669.99 988.748 C 1651.71 632.227 1347.84 358.051 991.321 376.401 C 634.899 394.746 360.812 698.52 379.089 1054.95 C 397.367 1411.37 701.089 1685.52 1057.52 1667.31 z" fill="rgb(29,29,29)" transform="translate(0,0)"></path>
<path d="M 801.318 633.073 C 1045.65 629.667 1274.98 688.611 1473.07 839.174 C 1528.16 881.047 1511.71 954.335 1449.24 964.947 C 1413.17 971.051 1391.15 948.969 1363.71 929.783 C 1204.24 822.656 993.802 768.053 802.67 773.73 C 767.186 774.784 729.905 780.582 694.918 779.441 C 656.005 778.173 622.846 731.021 633.239 693.836 C 651.792 625.642 742.188 638.119 801.318 633.073 z" fill="rgb(29,29,29)" transform="translate(0,0)"></path>
<path d="M 783.373 878.535 C 984.092 872.773 1197.54 936.484 1362.06 1049.99 C 1385.13 1065.43 1405.02 1078.38 1410.5 1107.53 C 1418 1147.43 1393.57 1186.19 1353.1 1193.67 C 1318.33 1200.1 1291.01 1174.82 1264.6 1156 C 1104.35 1058.6 952.643 1015.55 762.337 1020.96 C 718.213 1022.21 662.293 1039.19 628.088 1008.12 C 588.588 972.992 603.609 902.635 652.754 890.205 C 686.299 881.721 747.892 879.269 783.373 878.535 z" fill="rgb(29,29,29)" transform="translate(0,0)"></path>
<path d="M 744.075 1128.08 C 919.315 1122.95 1110.56 1171.11 1260.02 1264.08 C 1285.23 1279.91 1306.94 1292.62 1313.61 1324.05 C 1321.67 1362.02 1299.64 1402.01 1260.78 1410.44 C 1223.73 1418.48 1198.97 1396.86 1170.07 1377.83 C 1051.45 1302.53 894.611 1270.33 755.892 1269.43 C 715.24 1269.17 676.268 1276.25 636.534 1277.07 C 562.784 1278.61 544.912 1150.54 637.714 1138.46 C 672.994 1133.53 708.551 1130.63 744.075 1128.08 z" fill="rgb(29,29,29)" transform="translate(0,0)"></path>
<metadata><recraft-signature>{"signed_by": "recraft", "signature_b64": "brHLhYv40Hptvuhbolh09c058GXQJMOPFilt/R8/sYqe3hRji/ZrNDjqCVgE3kYpUWnXQmoOha/z3MkUbtg1AQ==", "signing_algo": "Ed25519", "generation_timestamp": 1772999533, "identifier": "82e4bb4b-8ea0-4f41-ada9-c38ff1023ff1"}</recraft-signature></metadata></svg>