<svg xmlns="http://www.w3.org/2000/svg" height="512" preserveAspectRatio="none" style="display: block;" version="1.1" viewBox="0 0 2048 2048" width="512">
<path d="M 337.873 286.001 C 346.799 285.385 362.175 285.902 371.672 285.918 L 833.119 286.024 C 883.241 286.015 986.851 271.486 993.182 345.004 C 995.444 371.272 994.059 403.227 994.048 430.31 L 994.082 1057.97 C 994.183 1115.87 1002.11 1173.25 926.003 1185.01 L 390.379 1185.05 C 305.946 1185.1 268.372 1184.96 268.607 1087.01 L 268.599 408.537 C 268.6 355.343 265.525 294.094 337.873 286.001 z M 337.873 1117.89 C 383.562 1117.3 430.573 1117.89 476.393 1117.88 L 867.95 1117.93 C 880.794 1117.95 911.44 1118.89 922.857 1117.89 C 929.248 1111.95 926.052 1051.74 926.053 1040.48 L 925.981 412.869 C 925.978 396.725 924.989 368.49 926.003 353.49 L 407.308 353.454 C 388.792 353.434 361.21 352.516 343.608 353.49 L 339.15 354.468 C 336.553 358.782 337.929 426.751 337.931 436.749 L 337.873 1117.89 z" fill="rgb(0,0,0)" transform="translate(0,0)"></path>
<path d="M 633.146 471.292 C 671.811 478.362 679.29 532.15 692.697 567.454 L 804.191 854.098 C 812.653 875.265 822.165 896.303 829.596 917.833 C 837.656 941.184 810.275 968.287 786.31 958.369 C 760.544 949.772 736.728 859.441 725.052 832.426 L 630.5 832.426 L 537.722 832.426 C 521.214 867.164 508.67 904.765 493.586 940.112 C 477.58 977.618 418.039 956.585 432.405 915.096 L 590.481 523.355 C 600.906 497.468 601.096 477.317 633.146 471.292 z M 564.909 765.985 C 587.551 766.294 610.482 766.047 633.146 765.985 L 699.999 765.985 C 695.053 750.293 637.115 601.424 633.146 596.613 C 609.658 645.115 583.155 715.728 564.909 765.985 z" fill="rgb(0,0,0)" transform="translate(0,0)"></path>
<path d="M 1294.49 990.998 L 1675.64 990.929 C 1772.25 990.763 1777.99 1014.46 1778.01 1104.56 L 1778.01 1652.24 C 1778.01 1732.82 1768.73 1761.84 1680.53 1761.89 L 1178.38 1761.89 C 1068.58 1761.88 1053.49 1752.83 1053.5 1641.25 L 1053.56 1549.5 L 1053.56 1414.62 L 1122.75 1414.62 L 1122.75 1694 C 1142.62 1693.13 1168.26 1693.95 1188.75 1693.97 L 1710.33 1694 L 1710.33 1058 L 1294.49 1058 C 1293.76 1037.11 1294.51 1012.29 1294.49 990.998 z" fill="rgb(0,0,0)" transform="translate(0,0)"></path>
<path d="M 1447.02 1207.87 C 1462.66 1223.84 1480.68 1240.76 1495.34 1257.2 C 1479.76 1275.05 1455.75 1297.91 1438.63 1315.97 L 1295.1 1467.59 C 1251.61 1513.78 1240.42 1495.13 1204.63 1459.13 L 1151.24 1405.39 C 1137.89 1390.08 1110.86 1370.21 1108.8 1348.81 C 1106.37 1323.43 1138.43 1302.42 1160.13 1317.22 C 1175.25 1327.54 1191.34 1346.41 1204.57 1360.32 L 1254.02 1411.68 C 1274.62 1387.9 1291.13 1371.81 1312.18 1349.61 L 1447.02 1207.87 z" fill="rgb(77,112,173)" transform="translate(0,0)"></path>
<metadata><recraft-signature>{"signed_by": "recraft", "signature_b64": "ymqkXfFt5GuWXu+iCMAT+jmYuK8exs2ofjucex5y/+2X0ZS3qJiCYT0n2AAK3DQDMwy2KnJ3kT65vbUCgrdMCw==", "signing_algo": "Ed25519", "generation_timestamp": 1772997946, "identifier": "bb8233e2-433e-414a-b121-5aa128734068"}</recraft-signature></metadata></svg>