<svg xmlns="http://www.w3.org/2000/svg" height="512" preserveAspectRatio="none" style="display: block;" version="1.1" viewBox="0 0 2048 2048" width="512">
<path d="M 1141.4 1024.98 C 1141.52 1024.96 1141.63 1024.93 1141.74 1024.91 L 1564.45 1024.93 C 1716.67 1024.91 1749.24 1051.87 1749.08 1211.57 L 1749.12 1535.89 C 1749.14 1629.67 1754.94 1723.39 1633.23 1745.19 C 1625.23 1745.78 1610.08 1745.25 1601.66 1745.23 L 1200.73 1745.18 C 1179.03 1745.19 1152.06 1746.46 1131.15 1744.31 C 1075.11 1734.96 1025.24 1685.04 1023.47 1627.01 C 1022.64 1599.84 1023 1571.34 1022.99 1543.99 L 1022.98 1218.85 C 1023.01 1122.23 1025.57 1039.23 1141.4 1024.98 z M 1633.23 1662.73 C 1653.92 1643.63 1663.14 1644.23 1663.89 1609.95 C 1664.56 1579.14 1664.16 1547.54 1664.15 1516.72 L 1664.13 1215.89 C 1664.13 1172.2 1677.96 1111.28 1618.4 1110.84 L 1197.89 1110.93 C 1181.23 1110.92 1157.37 1110.07 1141.4 1110.94 C 1119.28 1118.48 1110.39 1128.58 1110.41 1152.19 L 1110.49 1561.68 C 1110.5 1604.8 1097.62 1661.49 1157.88 1662.45 C 1193.87 1663.02 1230.1 1662.72 1266.11 1662.72 L 1580.57 1662.75 C 1591.48 1662.79 1624.46 1663.76 1633.23 1662.73 z" fill="rgb(41,41,41)" transform="translate(0,0)"></path>
<path d="M 418.614 295.378 C 442.698 294.276 476.98 295.344 501.792 295.352 L 767.068 295.293 C 811.753 295.15 849.638 292.105 887.115 322.042 C 941.335 365.353 937.527 412.651 937.54 476.856 L 937.548 751.165 C 937.61 836.403 933.253 925.808 820.246 937.982 C 802.135 939.237 765 938.03 745.722 938.01 L 477.473 938.006 C 322.806 938.001 298.186 889.794 298.183 741.237 L 298.156 474.03 C 298.152 381.234 309.974 305.77 418.614 295.378 z M 815.251 852.954 C 868.196 849.107 855.006 774.87 855.019 736.319 L 855.03 476.665 C 855.008 368.09 846.815 381.011 750.09 381.017 L 491.293 381.011 C 474.478 380.997 440.654 379.917 425.049 381.046 C 400.617 385.178 383.835 398.93 383.693 425.022 L 383.807 764.677 C 383.818 864.859 396.399 852.366 475.953 852.868 L 759.844 852.948 C 772.895 852.98 804.826 854.323 815.251 852.954 z" fill="rgb(41,41,41)" transform="translate(0,0)"></path>
<path d="M 1104.62 425.5 C 1110.78 424.747 1138.09 425.398 1145.34 425.414 L 1397.25 425.48 C 1429.99 425.472 1462.71 425.176 1495.45 426.081 C 1548.41 427.543 1539 493.325 1539.02 528.902 L 1539.02 747.472 C 1539 791.898 1551.09 836.824 1500.96 852.954 C 1491.31 853.977 1457.3 852.998 1445.77 852.987 L 1177.85 853.001 C 1145.09 853.009 1069.75 864.229 1065.53 816.425 C 1064.22 801.621 1064.63 784.445 1064.62 769.511 L 1064.61 532.333 C 1064.61 489.875 1051.29 432.814 1104.62 425.5 z M 1150.48 766.665 L 1449.04 766.665 C 1450 764.615 1449.04 532.613 1449.04 509.839 L 1150.48 509.839 L 1150.48 766.665 z" fill="rgb(41,41,41)" transform="translate(0,0)"></path>
<path d="M 647.391 1110.94 C 664.213 1106.67 688.897 1114.36 696.982 1129.85 C 743.679 1219.33 785.991 1318 830.472 1409.26 L 863.851 1477.61 C 873.369 1497.05 891.211 1520.65 884.121 1543.13 C 875.564 1576.88 829.392 1585.3 808.439 1559.18 C 795.253 1542.75 783.372 1511.78 773.164 1492.12 L 663.75 1492.12 C 622.423 1492.09 578.372 1492.96 537.252 1492.12 C 526.462 1513.11 517.323 1535.83 505.762 1556.11 C 489.452 1584.72 444.278 1579.79 430.723 1551.15 C 417.622 1523.47 439.07 1497.03 450.802 1472.35 L 585.811 1189.81 C 600.142 1160.19 612.638 1116.2 647.391 1110.94 z M 576.908 1409.13 C 603.242 1409.62 630.086 1409.07 656.5 1409.13 L 735.263 1409.13 C 727.842 1392.01 660.074 1247.96 656.5 1244.54 C 651.197 1252.5 645.819 1264.93 641.544 1273.95 L 618.126 1323.41 C 606.334 1348.18 586.473 1385.37 576.908 1409.13 z" fill="rgb(41,41,41)" transform="translate(0,0)"></path>
<metadata><recraft-signature>{"signed_by": "recraft", "signature_b64": "6/5IhrIGphdWntJORTocgr9jvedhvcFLEHbMD5di4mkHjrtXQ8b8kWkj0O4tr8w4QMt+zzzpw7pNBX881fH1Aw==", "signing_algo": "Ed25519", "generation_timestamp": 1772990312, "identifier": "61bcd700-0cdf-4537-9f9d-39e875da64fb"}</recraft-signature></metadata></svg>