<svg xmlns="http://www.w3.org/2000/svg" height="512" preserveAspectRatio="none" style="display: block;" version="1.1" viewBox="0 0 2048 2048" width="512">
<path d="M 432.501 289.045 L 1393.46 289.008 C 1530.98 289.09 1549.64 350.663 1569.8 470.513 L 1751.61 1569.89 C 1761.24 1625.47 1766.1 1671.22 1720.99 1715.9 C 1690.53 1746.06 1659.76 1755.87 1617.98 1755.99 L 469.19 1756.03 C 386.894 1756.19 300.511 1732.34 293.265 1631.93 C 291.235 1603.81 291.988 1574.33 292.01 1546 L 292 479.708 C 291.983 377.492 314.665 298.671 432.501 289.045 z M 421.997 419.181 L 421.997 1241.02 L 935.23 1241.02 C 935.247 1283.15 935.912 1326.95 935.23 1368.95 L 482.511 1368.91 C 462.358 1368.85 442.007 1367.97 421.997 1368.95 C 422.844 1386.51 422.059 1402.71 422.002 1420.2 L 422.024 1587.01 C 422.097 1600.63 422.969 1614.45 421.997 1627.98 L 952.5 1627.98 L 1535.12 1627.96 C 1560.94 1627.96 1615.15 1637.49 1626.52 1614.33 C 1625.23 1594.08 1616.86 1550.82 1613.31 1528.56 L 1444.91 512.251 C 1440.19 484.801 1432.74 446.415 1429.96 419.181 C 1400.74 420.183 1365.78 419.19 1335.95 419.184 L 581.998 419.181 L 475.132 419.228 C 459.217 419.236 437.385 419.972 421.997 419.181 z" fill="rgb(0,0,0)" transform="translate(0,0)"></path>
<metadata><recraft-signature>{"signed_by": "recraft", "signature_b64": "K+l4WtYR+7sRyZURDx982wWJ46vUFvVWhLCmXTwbhpggmSmf6MBWUF9uunBp7udfwDIrj0F44TGb9CvN1ra8Dg==", "signing_algo": "Ed25519", "generation_timestamp": 1772999026, "identifier": "3fa3a1c9-3b9d-401b-b992-0dfa3dc00d81"}</recraft-signature></metadata></svg>