<svg xmlns="http://www.w3.org/2000/svg" height="512" preserveAspectRatio="none" style="display: block;" version="1.1" viewBox="0 0 2048 2048" width="512">
<path d="M 365.721 833.01 C 384.41 831.754 418.248 832.958 438.14 832.97 L 1614.54 832.955 C 1713.16 832.915 1757.01 829.93 1756.98 945.892 L 1756.96 1578.87 C 1756.95 1638.82 1754.74 1686.83 1682.22 1693.93 L 407.458 1694 C 316.246 1694.07 291.37 1689.88 291.496 1598.51 L 290.973 956.263 C 290.816 897.863 288.982 844.341 365.721 833.01 z M 447.622 1534.89 L 1600.96 1534.89 C 1601.6 1518.99 1601.06 1500.58 1601.02 1484.48 L 1600.94 1125.65 C 1600.94 1081.23 1600 1032.99 1600.96 988.855 L 575.282 988.844 C 534.442 988.844 488.157 987.775 447.622 988.855 L 447.622 1534.89 z" fill="rgb(42,42,42)" transform="translate(0,0)"></path>
<path d="M 616.53 351.443 C 648.243 342.121 693.417 372.943 701.289 404.043 C 713.403 451.901 661.356 532.237 632.2 565.465 C 599.587 599.656 561.265 639.678 545.357 685.219 C 528.861 732.444 525.257 749.228 473.22 762.801 C 451.881 763.607 427.188 757.928 411.185 743.506 C 336.969 676.623 433.867 548.68 483.893 495.34 C 507.937 469.703 533.962 447.191 547.673 413.964 C 562.148 378.881 573.102 354.077 616.53 351.443 z" fill="rgb(42,42,42)" transform="translate(0,0)"></path>
<path d="M 1582.55 351.443 C 1598.16 350.953 1617.72 355.675 1629.88 365.303 C 1739.42 451.933 1556.36 585.736 1514.88 664.925 C 1489.37 713.635 1490.59 753.235 1426.24 762.801 C 1385 763.979 1350.77 740.944 1344.82 697.807 C 1335.59 630.866 1405.36 540.103 1446.13 494.553 C 1467.35 470.865 1491.96 448.232 1506.03 419.198 C 1524.91 380.206 1533.06 356.93 1582.55 351.443 z" fill="rgb(42,42,42)" transform="translate(0,0)"></path>
<metadata><recraft-signature>{"signed_by": "recraft", "signature_b64": "U0RAUu8QXU4iCs3l/7qxF6a77BVhO7ESp/+eOBxuiLG7w+CFBXc6HW95YjJ8WtKOSgG7m/yojANdnOMWbSX5Aw==", "signing_algo": "Ed25519", "generation_timestamp": 1772999823, "identifier": "13f145c4-6059-4de2-90b9-e072ab1af45d"}</recraft-signature></metadata></svg>