<svg xmlns="http://www.w3.org/2000/svg" height="512" preserveAspectRatio="none" style="display: block;" version="1.1" viewBox="0 0 2048 2048" width="512">
<path d="M 339.502 407.55 L 1805.76 407.55 C 1804.1 449.989 1806.06 501.512 1805.76 544.996 L 810.151 544.996 L 810.15 833.202 C 810.136 871.439 811.393 915.926 810.151 953.521 L 1805.76 953.521 C 1801.61 980.223 1804.79 1061.54 1805.76 1092.92 C 1779.79 1093.77 1748.96 1092.94 1722.5 1092.93 L 887.593 1092.93 C 864.013 1092.94 832.841 1091.78 810.151 1092.92 L 810.151 1503.87 L 903.25 1503.87 L 1805.76 1503.87 C 1804.99 1548.89 1805.73 1596.26 1805.76 1641.46 C 1792.34 1640.48 1767.43 1641.4 1752.99 1641.42 L 241.025 1641.46 C 241.036 1595.9 240.437 1549.29 241.025 1503.87 C 254.594 1504.63 274.294 1503.92 288.465 1503.9 L 666.047 1503.87 L 666.047 1092.92 C 652.221 1091.93 624.963 1092.9 610.005 1092.91 L 311.63 1092.86 C 288.853 1092.94 263.413 1092.12 241.025 1092.92 L 241.025 953.521 C 285.289 952.392 335.28 953.506 379.92 953.512 L 666.047 953.521 L 666.047 544.996 L 383.294 544.989 C 336.259 544.991 287.919 545.631 241.025 544.996 L 241.025 407.55 L 339.502 407.55 z" fill="rgb(0,0,0)" transform="translate(0,0)"></path>
<metadata><recraft-signature>{"signed_by": "recraft", "signature_b64": "ep0jvJhUnDECQdd/SNqSSAOyEwf72Yj3rKl7SZDwwAwGgp3iPHzCtH5SY5gFtBkrVZHHdVz4dA6wF1nmNp/kCg==", "signing_algo": "Ed25519", "generation_timestamp": 1772997756, "identifier": "b7b54abc-231a-484d-a75a-506e48e1e5f2"}</recraft-signature></metadata></svg>