<svg xmlns="http://www.w3.org/2000/svg" height="512" preserveAspectRatio="none" style="display: block;" version="1.1" viewBox="0 0 2048 2048" width="512">
<path d="M 1599.17 291.996 C 1700.37 286.512 1756.06 317.451 1756.65 421.575 L 1756.73 787.508 C 1756.95 896.686 1723.71 939.177 1610.97 939.07 L 1541 938.992 C 1549.51 949.682 1560.02 958.704 1568.62 969.55 C 1631.66 1049.11 1546.24 1107.9 1496.4 1158.34 L 1240.53 1415.87 C 1221.99 1434.23 1192.48 1466.86 1173.89 1481.35 C 1142.89 1451.52 1109.7 1418.31 1079.51 1387.32 L 1401.06 1064.63 C 1411.64 1054.14 1432.56 1033.81 1441.04 1022.02 C 1433.66 1012.11 1405.62 986.22 1395.54 975.939 L 1297.11 876.885 C 1272.33 852.351 1253.14 835.834 1229.61 808.514 C 1359.97 812 1492.23 806.691 1623.01 808.514 L 1623.02 552.958 C 1623.01 511.411 1621.99 466.119 1623.01 424.992 L 1239.49 424.992 L 1239.49 723.988 C 1226.26 724.641 1208.11 724.06 1194.48 724.04 L 1107.58 723.988 C 1105.24 617.627 1109.37 509.866 1107.44 403.338 C 1106.88 372.429 1119.73 343.663 1141.92 322.365 C 1176.91 288.788 1215.85 291.895 1260.66 291.96 L 1513.5 292.008 C 1541.33 291.995 1571.6 291.255 1599.17 291.996 z" fill="rgb(0,0,0)" transform="translate(0,0)"></path>
<path d="M 877.817 560.672 C 895.821 572.974 951.7 632.704 970.194 651.91 C 955.437 667.615 938.42 683.936 923.103 699.261 L 677.618 946.99 C 652.049 973.073 625.906 998.817 600.543 1025.07 C 630.956 1054.63 660.762 1085.34 690.821 1115.35 L 812.212 1235.98 L 425.158 1235.98 L 425.158 1623 L 763.915 1622.97 C 778.092 1622.93 795.219 1622.17 809.009 1623 L 809.009 1321 C 853.517 1321.01 900.202 1320.22 944.49 1321 L 944.726 1621.37 C 944.321 1723.83 878.362 1754.92 786.404 1754.95 L 422.567 1754.9 C 352.615 1754.42 292.935 1707.24 293.088 1633.67 L 293.055 1212.22 C 291.495 1165.31 322.763 1127.16 365.429 1111.65 C 393.691 1101.37 466.863 1105.08 500.152 1105.49 C 447.828 1059.3 447.546 991.599 495.334 943.744 L 730.459 706.916 C 777.688 658.93 828.4 606.267 877.817 560.672 z" fill="rgb(0,0,0)" transform="translate(0,0)"></path>
<path d="M 1526.53 1319.58 C 1647.28 1311.47 1751.71 1402.84 1759.71 1523.6 C 1767.71 1644.35 1676.24 1748.7 1555.47 1756.59 C 1434.87 1764.47 1330.68 1673.14 1322.69 1552.54 C 1314.7 1431.94 1405.93 1327.67 1526.53 1319.58 z" fill="rgb(0,0,0)" transform="translate(0,0)"></path>
<path d="M 488.298 292.352 C 607.116 280.53 713.007 367.301 724.769 486.125 C 736.53 604.95 649.705 710.796 530.874 722.497 C 412.13 734.189 306.376 647.44 294.624 528.702 C 282.871 409.963 369.566 304.165 488.298 292.352 z" fill="rgb(0,0,0)" transform="translate(0,0)"></path>
<metadata><recraft-signature>{"signed_by": "recraft", "signature_b64": "bxxHSErR4r4nGWlPUpS6BWmaq15B5x1z646lh46zzUxGD3yBl6UFCajeAWF83zs6z9sKyxKvRypEw2LbCZqtAQ==", "signing_algo": "Ed25519", "generation_timestamp": 1772989336, "identifier": "1491f550-4393-408b-a185-dece05a017eb"}</recraft-signature></metadata></svg>