<svg xmlns="http://www.w3.org/2000/svg" height="512" preserveAspectRatio="none" style="display: block;" version="1.1" viewBox="0 0 2048 2048" width="512">
<path d="M 1043.83 883.958 L 1437.44 883.916 C 1532.11 883.957 1579.01 898.18 1579.3 1000.98 L 1579.28 1358.89 C 1579.16 1455.93 1546.31 1490.54 1449.37 1490.21 L 1381.16 1490.08 C 1381.88 1547.66 1381.11 1606.69 1381.15 1664.4 L 1381.23 1716.59 C 1381.31 1783.7 1359.45 1840.34 1279.03 1841.02 L 875.39 1841.03 C 767.612 1841.03 732.192 1817.33 732.053 1711.84 L 732.058 1162.49 C 732.065 1140.21 732.78 1115.98 732.053 1094.02 C 728.481 1097.16 722.108 1102.59 720.691 1107.14 C 692.288 1199.07 661.846 1307.66 642.598 1401.98 C 613.9 1542.61 464.291 1495.93 464.188 1401.96 C 464.164 1380.46 475.596 1349.79 481.487 1328.4 L 540.77 1113.38 C 570.884 1000.72 636.387 902.04 763.488 885.828 C 797.225 881.525 846.352 883.995 881.852 883.991 L 1043.83 883.958 z" fill="rgb(0,0,0)" transform="translate(0,0)"></path>
<path d="M 1055.22 200.468 C 1219.54 196.855 1355.68 327.104 1359.34 491.418 C 1363.01 655.733 1232.8 791.918 1068.49 795.63 C 904.103 799.343 767.847 669.068 764.183 504.683 C 760.519 340.299 890.836 204.082 1055.22 200.468 z" fill="rgb(0,0,0)" transform="translate(0,0)"></path>
<metadata><recraft-signature>{"signed_by": "recraft", "signature_b64": "ikbGqXRypTDWMbx5iO9Gt0F7D+anZKY29+orYlKM880dNH1HH9RRkrglE4BHuUALFE6QpHcSx1ryhB4mAi1+CQ==", "signing_algo": "Ed25519", "generation_timestamp": 1772990177, "identifier": "495a3db6-da61-40ac-aa67-b35ec3864b35"}</recraft-signature></metadata></svg>