<svg xmlns="http://www.w3.org/2000/svg" height="512" preserveAspectRatio="none" style="display: block;" version="1.1" viewBox="0 0 2048 2048" width="512">
<path d="M 405.561 301.78 L 1600 301.503 C 1640.86 301.159 1668.97 311.465 1699.44 339.883 C 1750.64 387.64 1740.16 450.995 1740.16 514.284 L 1740.15 1406.08 C 1726.85 1406.77 1707.49 1406.15 1693.82 1406.14 L 1600.17 1406.08 C 1599.52 1397.53 1600.09 1382.77 1600.1 1373.73 L 1600.17 444.928 L 548.586 444.928 C 577.206 475.173 605.927 503.008 635.158 532.286 L 1588.56 1482.44 C 1634.28 1527.59 1679.64 1573.01 1724.4 1619.1 C 1768.02 1664.01 1724.57 1736.28 1655.54 1730.85 C 1626.43 1724.93 1608.53 1700.19 1588.3 1680.22 L 520.968 616.359 C 496.294 591.817 470.043 562.98 445.045 539.783 L 445.045 1585.22 L 1403.83 1585.22 L 1403.83 1725.57 C 1394.83 1726.29 1381.2 1725.67 1371.76 1725.64 L 459.932 1725.77 C 384.41 1725.66 317.341 1670.15 306.84 1594.5 C 304.312 1576.29 305.01 1558.33 305.022 1540 L 305.056 405.939 C 305.421 334.742 331.745 301.244 405.561 301.78 z" fill="rgb(40,39,39)" transform="translate(0,0)"></path>
<metadata><recraft-signature>{"signed_by": "recraft", "signature_b64": "kN/r7+j2+vPnrISEFOaIcSVeRI2GoWZxbjypzklKoVpvUvE9P/vbkffl/RgFWFlLzNrtdkJJnSU1f6Izd027Dg==", "signing_algo": "Ed25519", "generation_timestamp": 1772989958, "identifier": "5378aa23-9b7c-4cdb-a30b-bf27789c778b"}</recraft-signature></metadata></svg>