<svg xmlns="http://www.w3.org/2000/svg" height="512" preserveAspectRatio="none" style="display: block;" version="1.1" viewBox="0 0 2048 2048" width="512">
<path d="M 1004.96 278.99 C 1141.1 272.214 1197.36 332.171 1282.49 417.955 L 1484.02 619.595 C 1542.77 677.848 1668.97 791.343 1711.51 855.104 C 1787.8 969.62 1772.75 1131.39 1671.21 1226.18 C 1599.99 1292.67 1531.44 1362.33 1462.49 1431.08 L 1277.71 1615.92 C 1202.98 1690 1164.27 1737.27 1048.25 1749.02 C 898.134 1751.55 858.608 1702 764.424 1609.27 L 441.029 1286.94 C 409.083 1255.52 371.038 1223.5 344.803 1187.65 C 272.687 1089.12 272.427 935.238 348.322 838.936 C 371.732 809.232 414.611 768.953 442.768 740.702 L 766.144 416.852 C 847.147 336.07 884.255 294.211 1004.96 278.99 z M 1040.24 1619.51 C 1096.29 1610.51 1118.34 1594.48 1156.9 1555.86 L 1525.7 1186.54 C 1549.21 1162.69 1580.09 1134.81 1599.61 1108.39 C 1637.44 1057.22 1632.65 973.41 1593.92 924.091 C 1584.11 911.598 1570.84 899.122 1559.56 887.841 L 1157.15 488.391 C 1115.54 446.857 1076.27 414.719 1012.15 421.001 C 933.304 431.185 906.505 474.625 854.067 526.599 L 522.932 855.433 C 462.648 915.698 417.793 950.634 428.014 1042.36 C 435.677 1111.12 477.907 1144.86 523.825 1190.35 L 888.548 1554 C 936.158 1602.17 970.092 1620.37 1040.24 1619.51 z" fill="rgb(32,30,30)" transform="translate(0,0)"></path>
<path d="M 1012.81 1162.63 C 1086.57 1156.56 1151.26 1211.47 1157.25 1285.23 C 1163.24 1358.99 1108.26 1423.62 1034.49 1429.54 C 960.84 1435.44 896.326 1380.56 890.343 1306.91 C 884.36 1233.26 939.17 1168.69 1012.81 1162.63 z" fill="rgb(223,51,52)" transform="translate(0,0)"></path>
<metadata><recraft-signature>{"signed_by": "recraft", "signature_b64": "Feho/iqM/uRPkk9YbbtQ1pYCflZ1mkSJM/MyB1KLxx7YZL26XZOJmZf2r5arnOKLlRaTC0Q7GlJAfNsS9Qx6AA==", "signing_algo": "Ed25519", "generation_timestamp": 1772990397, "identifier": "509f9dbb-0329-4ba4-a031-60e1c60b9167"}</recraft-signature></metadata></svg>