<svg xmlns="http://www.w3.org/2000/svg" height="512" preserveAspectRatio="none" style="display: block;" version="1.1" viewBox="0 0 2048 2048" width="512">
<path d="M 1535.39 254.292 C 1599.04 254.852 1663.42 253.423 1726.92 254.292 C 1726.3 268.915 1726.88 286.209 1726.89 301.145 L 1727.03 1485.85 C 1727.19 1576.45 1677.76 1599.13 1595.94 1599.09 L 510.998 1599.04 L 452.03 1599.08 C 340.193 1599.2 320.501 1567.08 320.703 1464.18 L 320.695 736.549 C 320.636 615.038 339.975 508.98 474.491 461.742 C 520.539 445.571 557.964 448.723 605.135 448.756 L 1263.99 448.751 C 1288.37 448.772 1314.4 450.007 1338.52 447.754 C 1445.45 437.77 1510.25 350.902 1535.39 254.292 z M 510.998 1408 L 1538.04 1408 C 1539.35 1388.04 1538.03 1356.12 1538.02 1334.74 L 1538.03 774.14 C 1538.03 708.957 1536.58 637.44 1538.04 572.824 C 1430.97 627.966 1375.14 638.055 1260.09 638.04 L 596.301 637.99 C 578.516 637.988 555.694 636.935 538.286 639.913 C 505.251 645.564 510.952 738.908 511.001 760.17 L 511.01 1233.78 C 511.008 1253.2 510.372 1406.6 510.998 1408 z" fill="rgb(0,0,0)" transform="translate(0,0)"></path>
<metadata><recraft-signature>{"signed_by": "recraft", "signature_b64": "7i99/7m9r00kxRrc+tpbGqiaXKV34b4CdcCHqJ/Qv/xGfnh4zY6nKb4LRrdI5r0y6lt4+mMJbRvO9MZtorWQDA==", "signing_algo": "Ed25519", "generation_timestamp": 1772997612, "identifier": "0269e8bc-f8ef-4233-9b80-d4e840ebafb1"}</recraft-signature></metadata></svg>