<svg xmlns="http://www.w3.org/2000/svg" height="512" preserveAspectRatio="none" style="display: block;" version="1.1" viewBox="0 0 2048 2048" width="512">
<path d="M 289.362 1377 L 289.332 609.235 C 289.311 488.64 293.8 418.347 434.946 418.57 L 1637.36 418.643 C 1735.94 419.35 1757.45 486.394 1757.43 571.841 L 1757.43 1631.09 C 1760.22 1713.87 1635.27 1715.55 1632.07 1636.64 C 1630.88 1607.07 1632.01 1575.5 1632.02 1545.76 L 1632.03 633.197 C 1632.03 605.087 1632.88 572.588 1632.01 544.936 C 1585.94 545.633 1537.94 544.939 1491.73 544.938 L 416.031 544.936 L 416.031 1377 C 410.141 1377.9 385.848 1377.1 378.05 1377.09 L 289.362 1377 z" fill="rgb(39,38,38)" transform="translate(0,0)"></path>
<path d="M 416.031 1377 C 452.523 1375.57 501.015 1376.99 538.38 1376.99 L 1544.64 1377 C 1545.34 1418.07 1544.67 1460.96 1544.64 1502.15 L 395.951 1502.56 C 317.95 1502.25 288.769 1445.87 289.362 1377 L 378.05 1377.09 C 385.848 1377.1 410.141 1377.9 416.031 1377 z" fill="rgb(103,144,206)" transform="translate(0,0)"></path>
<metadata><recraft-signature>{"signed_by": "recraft", "signature_b64": "xmfd2SmWK6drMn6BkWOS6kYdlgWaYwUzrvAMZNbldIDSWi8JBOii7UiV2iwnOby4C5kRt70iKF5HNt9IwDkaCQ==", "signing_algo": "Ed25519", "generation_timestamp": 1773000270, "identifier": "4f7fd8e6-c959-4ffd-8224-a1fb7ce07bcb"}</recraft-signature></metadata></svg>