<svg xmlns="http://www.w3.org/2000/svg" height="512" preserveAspectRatio="none" style="display: block;" version="1.1" viewBox="0 0 2048 2048" width="512">
<path d="M 1009.03 793.003 C 1119.08 787.108 1171.67 834.569 1233.39 913.52 C 1281.31 878.095 1353.49 883.005 1388.63 934.592 L 1485.23 1075.95 C 1500.45 1098.31 1525.33 1129.57 1535.52 1152.82 C 1552.34 1191.22 1542.06 1244.99 1512.39 1274.58 C 1473.47 1313.4 1378.23 1367.77 1330.15 1402.78 C 1379.05 1513.8 1383.64 1586.39 1383.79 1701.97 L 1671.66 1701.98 C 1682.23 1701.98 1693.24 1701.69 1703.73 1702.15 C 1741.18 1703.78 1743.39 1767.61 1701.47 1768.83 C 1676.65 1769.91 1651.56 1769.55 1626.62 1769.54 L 1034.52 1769.51 L 407.704 1769.47 C 386.578 1769.42 338.671 1774.82 322.293 1760.44 C 308.728 1748.53 309.853 1722.42 322.055 1710.21 C 335.303 1696.96 361.264 1702.42 379.02 1701.98 C 471.171 1699.7 570.056 1700.31 661.976 1701.97 C 658.17 1602.35 673.356 1492.71 718.26 1402.78 C 704.978 1389.47 687.408 1379.01 671.592 1368.49 L 596.172 1318.4 C 475.301 1238.77 483.664 1186.97 561.376 1076.85 L 610.735 1005.71 C 628.16 980.885 645.399 951.882 664.759 928.911 C 703.308 883.171 769.608 882.07 813.829 918.966 C 858.945 840.953 920.758 803.515 1009.03 793.003 z M 1360.09 1172.79 C 1344.44 1205.1 1264.23 1249.49 1231.57 1271.57 C 1216.47 1280.72 1194.5 1301.93 1175.28 1294.36 C 1084.27 1258.5 984.497 1254.16 891.982 1287.37 C 848.209 1303.09 849.779 1295.45 813.079 1270.53 L 719.71 1207.34 C 686.246 1184.55 682.144 1175.92 705.498 1140.38 L 760.793 1056.03 C 768.988 1043.36 779.726 1030.64 785.069 1016.78 C 797.441 984.679 761.144 950.05 730.369 963.686 C 713.75 971.05 694.97 1004.14 684.326 1019.65 L 628.12 1101.62 C 607.018 1132.75 545.833 1196.51 589.149 1230.74 C 623.922 1258.22 664.982 1281.56 701.443 1306.86 C 729.461 1326.01 763.416 1345.87 789.261 1367.37 C 811.909 1386.21 788.591 1417.86 779.471 1436.84 C 744.333 1511.59 730.451 1595.76 731.012 1677.95 L 1251.73 1677.94 C 1272.48 1677.93 1296.09 1677.3 1316.59 1677.95 C 1317.7 1606.54 1307.76 1533.12 1281.02 1466.59 C 1245.15 1377.36 1221.51 1393.32 1312.63 1331.8 L 1419.09 1259.28 C 1459.32 1232.27 1495.4 1210.91 1461.15 1161.43 L 1357.35 1008.82 C 1341.57 985.653 1329.43 955.941 1296.62 958.17 C 1236.21 969.681 1260.51 1021.19 1281.88 1053.06 L 1334.02 1130.32 C 1341.07 1140.93 1355.67 1162 1360.09 1172.79 z M 1248.92 1128.66 C 1236.25 1149.52 1231.66 1160.98 1215.99 1181.31 C 1207.18 1192.74 1187.2 1212.32 1181.36 1221.2 C 1188.47 1217.81 1191.02 1216.29 1197.51 1211.82 C 1216.94 1197.74 1250.32 1175.05 1270.87 1162.63 C 1267.54 1155.98 1254.26 1132.06 1248.92 1128.66 z M 799.213 1128.66 C 790.056 1139.05 782.822 1150.89 775.537 1162.63 C 793.605 1173.64 834.037 1198.98 849.091 1211.82 C 855.928 1216.34 858.801 1218.3 866.66 1221.2 C 832.271 1183.04 825.505 1165.58 799.213 1128.66 z M 1037.55 1205.7 C 1132.42 1198.38 1203.25 1115.32 1195.5 1020.48 C 1187.75 925.65 1104.38 855.189 1009.58 863.356 C 915.378 871.473 845.453 954.209 853.152 1048.45 C 860.85 1142.69 943.276 1212.98 1037.55 1205.7 z" fill="rgb(0,0,0)" transform="translate(0,0)"></path>
<path d="M 1014.6 1071 C 1098.96 1056.9 1143.61 1153.58 1081 1161.68 C 1062.35 1164.1 1052.4 1150.72 1039.25 1140.64 C 1023.98 1135.51 1011.35 1137.7 1001.42 1149.74 C 961.098 1194.5 884.491 1094.16 1014.6 1071 z" fill="rgb(0,0,0)" transform="translate(0,0)"></path>
<path d="M 571.303 432.39 C 589.886 429.018 634.791 454.945 652.737 463.391 C 675.831 474.259 733.157 490.781 736.741 520.197 C 740.245 548.952 703.036 576.162 686.456 600.194 L 685.354 601.813 L 689.791 601.738 C 707.549 601.608 746.138 603.531 758.969 616.595 C 781.3 639.333 831.051 738.716 755.967 734.955 C 730.393 727.832 724.525 694.582 713.2 672.475 C 676.749 661.739 593.098 671.384 589.217 624.871 C 587.262 601.437 634.197 556.341 650.513 536.888 C 627.97 525.401 565.783 502.498 550.776 489.594 C 528.2 470.182 541.26 433.679 571.303 432.39 z" fill="rgb(223,1,11)" transform="translate(0,0)"></path>
<path d="M 1470.48 432.39 C 1503.5 430.869 1518.51 475.243 1495.68 491.878 C 1472.31 508.909 1423.44 525.408 1394.7 540.187 C 1404.98 550.829 1456.7 604.331 1458.05 617.886 C 1463.36 670.965 1371.6 665.024 1330.15 672.475 C 1318.36 695.364 1319.19 718.337 1296.62 730.584 C 1271.06 739.404 1242.31 722.037 1250.12 692.637 C 1254.23 674.011 1266.69 655.562 1272.2 637.849 C 1284.28 599.004 1324.11 604.401 1360.09 601.813 C 1344.44 580.181 1273.27 518.876 1328.17 497.707 C 1357.28 486.481 1444.24 435.003 1470.48 432.39 z" fill="rgb(223,1,11)" transform="translate(0,0)"></path>
<path d="M 1021 273.106 C 1062.13 270.438 1066.09 300.811 1053.34 331.93 C 1040.17 364.088 1025.44 395.669 1012.06 427.735 C 1120.52 440.301 1132.83 435.069 1090.85 534.049 L 1068.93 586.03 C 1059.65 607.924 1056.45 625.654 1031.48 632.389 C 1015.72 634.233 999.238 626.102 993.138 611.057 C 984.999 591.427 1025.36 518.411 1034.52 497.198 C 1010.51 493.575 917.687 495.01 931.641 449.236 C 941.366 417.335 957.542 387.036 969.889 356.056 C 981.389 327.724 991.542 282.544 1021 273.106 z" fill="rgb(223,1,11)" transform="translate(0,0)"></path>
<metadata><recraft-signature>{"signed_by": "recraft", "signature_b64": "lWIykRoEtsDdccrmLXQUjsgM1aJcamTNPOB+24HJcd2XHmFfZVT12dZAq9/dxI9XN5JjgYwtGosREbpMcZcSBA==", "signing_algo": "Ed25519", "generation_timestamp": 1773000766, "identifier": "be29cda2-da2f-43fa-811c-a7374a9e9b39"}</recraft-signature></metadata></svg>