<svg xmlns="http://www.w3.org/2000/svg" height="512" preserveAspectRatio="none" style="display: block;" version="1.1" viewBox="0 0 2048 2048" width="512">
<path d="M 443.922 552.017 C 445.114 632.163 443.909 714.886 443.922 795.28 L 444.06 1621.98 C 444.489 1662.21 452.746 1704.4 415.956 1730.65 C 371.667 1762.25 309.909 1733.78 306.137 1679.41 C 304.898 1660.46 305.085 1642.1 305.114 1623.08 L 305.151 519.2 C 305.457 440.972 365.185 370.098 442.602 357.639 C 460.084 354.825 480.742 355.356 498.557 355.359 L 1233.21 355.411 C 1311.49 355.41 1392.12 354.514 1469.87 356.005 C 1705.18 360.518 1749.55 656.276 1740.91 838.003 C 1735.34 955.095 1718.14 1102.17 1628.53 1187.85 C 1557.42 1253.65 1485.24 1246.87 1395.85 1246.83 L 1080.77 1246.76 C 1036.83 1246.73 1043.84 1246.51 1003.01 1258.88 C 880.943 1295.86 760.161 1336.75 637.749 1372.75 C 617.533 1378.69 595.493 1387.84 574.184 1387.42 C 507.48 1383.66 468.172 1284.64 568.915 1246.82 L 568.914 849.284 C 568.912 784.639 567.536 714.978 568.915 650.781 C 535.441 618.593 481.416 581.016 443.922 552.017 z M 1258.43 1010.33 C 1272.17 995.407 1283.42 981.666 1294.5 964.537 C 1417.99 768.227 1283.64 537.484 1069.07 498.283 C 1036.96 492.416 1007.15 493.038 974.8 493.047 L 589.477 493.101 C 607.535 510.335 652.308 541.643 674.103 558.241 L 1087.9 879.585 C 1142.8 921.988 1202.52 969.704 1258.43 1010.33 z" fill="rgb(36,35,36)" transform="translate(0,0)"></path>
<path d="M 568.915 650.781 C 586.249 662.296 611.049 683.89 628.723 697.646 L 986.927 977.213 C 1029.57 1010.36 1075.62 1044.7 1117.52 1078.63 L 638.702 1227.53 C 618.485 1233.7 589.015 1244 568.915 1246.82 L 568.914 849.284 C 568.912 784.639 567.536 714.978 568.915 650.781 z" fill="rgb(26,180,253)" transform="translate(0,0)"></path>
<path d="M 1346.36 493.101 C 1391.64 495.449 1491.52 481.679 1523.09 512.366 C 1573.56 561.432 1596.61 671.104 1602.06 738.303 C 1608.81 821.575 1605.06 1097.73 1483.09 1107.08 C 1469.21 1107.71 1452.65 1107.13 1438.5 1107.1 L 1357.6 1107.08 C 1378.24 1084.19 1395.83 1065.08 1412.85 1038.99 C 1508.83 891.797 1499.65 702.361 1401.49 558.566 C 1384.77 534.067 1365.44 515.157 1346.36 493.101 z" fill="rgb(26,180,253)" transform="translate(0,0)"></path>
<metadata><recraft-signature>{"signed_by": "recraft", "signature_b64": "BaNm4ONf8rUvCmTl4WW7qK9207mI1v51+mqaaPRAcWDL5IeiaWWrzM6K8c73bV9ldxfxTJYeSOSZyJoA22/ZBA==", "signing_algo": "Ed25519", "generation_timestamp": 1772999859, "identifier": "5750a4df-d068-45ba-9047-cdb3e7aa434f"}</recraft-signature></metadata></svg>