<svg xmlns="http://www.w3.org/2000/svg" height="512" preserveAspectRatio="none" style="display: block;" version="1.1" viewBox="0 0 2048 2048" width="512">
<path d="M 668.358 290.088 L 826.396 290.023 C 922.786 290.01 970.356 281.491 966.008 395.928 C 964.099 446.179 1016.53 477.408 1058.5 446.655 C 1107.96 410.419 1040.1 285.72 1158.44 290.112 C 1206.51 290.398 1254.59 289.726 1302.61 290.063 C 1426.12 293.544 1444.44 279.463 1540.23 379.432 C 1608.62 450.811 1713.11 517.121 1714.3 622.32 L 1714.46 682.632 C 1714.83 857.942 1616.84 749.419 1562.99 805.73 C 1544.85 824.689 1542.24 856.525 1558.36 877.462 C 1593.58 923.212 1713.28 866.488 1714.35 960.83 C 1714.87 1011.27 1714.16 1061.63 1714.65 1112.06 C 1715.12 1208.05 1639.09 1267.51 1548.25 1267.04 C 1489.18 1266.73 1429.9 1267.19 1370.86 1267.02 C 1294.1 1266.8 1277.19 1150.42 1359.54 1135.54 C 1401.06 1128.04 1490.18 1133.03 1534.84 1133.16 C 1582.35 1133.16 1583.16 1142.54 1583.13 1084.87 L 1583.02 1028.42 C 1372.16 1002.88 1346.16 697.914 1587.26 649.39 C 1586.06 636.395 1585.33 608.772 1576.27 599.742 C 1516.92 540.591 1457.71 481.192 1397.69 422.748 C 1395.8 420.907 1388.59 421.139 1385.75 421.1 L 1266.15 421.109 C 1253.96 421.12 1223.44 422.199 1213.48 421.1 C 1174.8 656.748 854.324 622.752 836.543 421.1 L 651.922 421.1 C 596.219 469.601 540.638 530.537 487.165 582.509 C 463.401 605.605 463.84 624.743 464.962 656.147 C 685.058 683.441 692.542 987.944 470.373 1025.33 L 470.373 1124.56 C 473.175 1127.42 476.695 1130.37 479.74 1133.05 L 624.492 1132.97 C 646.221 1132.97 672.488 1132.05 693.941 1134.26 C 769.546 1146.92 762.998 1264.06 680.775 1266.83 C 649.186 1267.9 616.67 1266.91 584.984 1266.94 L 520.624 1267.03 C 468.892 1267.08 428.052 1265.75 386.505 1228.76 C 317.159 1167.03 337.524 1050.93 336.953 964.83 C 336.784 896.887 393.965 899.705 443.508 898.838 C 491.77 897.993 521.19 843.759 489.406 804.894 C 455.591 763.547 397.169 800.64 359.44 768.374 C 328.795 742.166 337.166 699.776 336.989 664.046 C 336.036 581.468 339.116 544.293 399.685 485.674 L 510.281 377.933 C 563.419 325.159 588.8 295.593 668.358 290.088 z" fill="rgb(0,0,0)" transform="translate(0,0)"></path>
<path d="M 1019.04 842.458 C 1227.5 841.943 1336.16 1064.62 1213.48 1236.09 C 1282.37 1264.73 1349.36 1347.28 1384.74 1411.54 C 1434.67 1502.24 1431.95 1574.54 1430.42 1673.82 C 1432.06 1767.4 1319.83 1776.93 1300.79 1705.01 C 1290.64 1666.67 1303.06 1593.63 1294.95 1547.58 C 1272.41 1419.63 1158.33 1323.89 1028.77 1320.61 C 898.041 1313.04 772.347 1421.31 751.122 1549.75 C 744.63 1589.04 754.274 1688.61 741.482 1714.17 C 715.365 1772.81 622.958 1757.39 617.594 1694.12 C 601.085 1499.36 652.674 1338.47 832.415 1236.09 C 715.274 1072.13 815.271 851.603 1019.04 842.458 z M 1034.54 1195.53 C 1095.3 1189.77 1139.87 1135.82 1134.05 1075.07 C 1128.24 1014.31 1074.25 969.793 1013.5 975.666 C 952.831 981.53 908.386 1035.43 914.193 1096.11 C 919.999 1156.78 973.861 1201.27 1034.54 1195.53 z" fill="rgb(0,0,0)" transform="translate(0,0)"></path>
<metadata><recraft-signature>{"signed_by": "recraft", "signature_b64": "GN4VwfbX/iIVIEcHlENP/aEpChveaMkSU5OiWofrNJF3fp78msrPivg8fFmuKLYfIHihkbC6EtSNE82aJnA3AA==", "signing_algo": "Ed25519", "generation_timestamp": 1772989484, "identifier": "ca42f587-608b-44b2-9be9-47798a50a0ab"}</recraft-signature></metadata></svg>