<svg xmlns="http://www.w3.org/2000/svg" height="512" preserveAspectRatio="none" style="display: block;" version="1.1" viewBox="0 0 2048 2048" width="512">
<path d="M 772.375 342.875 L 1430.6 342.86 C 1457.41 342.842 1490.18 341.721 1516.2 343.22 C 1607 348.449 1686.07 414.852 1703.7 504.487 C 1708.65 529.681 1706.95 569.517 1706.82 596.161 L 1706.73 861.062 C 1706.7 911.451 1716.98 961.891 1676.28 999.791 C 1633.28 1039.83 1560.82 1020.7 1541.2 966.59 C 1532.75 943.264 1535.99 890.409 1536 862.097 L 1536.1 579.836 C 1536.16 557.101 1540.42 512.028 1504.98 512.316 L 457.418 512.55 C 371.588 512.61 382.497 514.276 382.616 591.433 L 382.684 1072.97 C 382.039 1099.23 382.665 1128.71 382.669 1155.22 L 382.677 1428.41 C 382.508 1553.8 391.059 1534.31 507.514 1534.19 L 901.835 1534.1 C 935.306 1534.03 971.786 1530.26 997.598 1555.36 C 1054.11 1610.31 1017.29 1706.63 936.673 1705.61 C 897.368 1705.11 857.279 1705.42 818.252 1705.42 L 479.604 1705.48 C 447.467 1705.48 414.16 1707 382.632 1700.31 C 285.437 1679.69 215.432 1594.38 214.987 1495.03 L 214.983 622.715 C 214.954 586.677 212.478 540.187 218.42 505.663 C 231.687 428.582 295.675 362.376 372.508 347.275 C 400.468 341.78 424.27 342.815 452.323 342.832 L 772.375 342.875 z" fill="rgb(0,0,0)" transform="translate(0,0)"></path>
<path d="M 1220.48 1072.97 C 1517.85 1059.44 1788.73 1280.42 1829.55 1575.08 C 1836.61 1626.03 1829.81 1697.04 1766.47 1705.46 L 1763.28 1706.09 C 1745.38 1709.71 1725.75 1706.29 1710.54 1696 C 1663.76 1664.36 1676.89 1620.44 1666.07 1573.32 C 1623.52 1388.22 1462.2 1255.23 1275.89 1236.18 C 1244.87 1233.08 1216.31 1239.08 1188.36 1221.21 C 1127.57 1182.35 1145.85 1088.4 1220.48 1072.97 z" fill="rgb(0,0,0)" transform="translate(0,0)"></path>
<path d="M 1223.8 1369.09 C 1467.74 1347.42 1631.15 1683.36 1458.26 1708.66 C 1429.3 1715.71 1381.56 1680.87 1375.15 1651.97 C 1366.67 1613.74 1354.6 1583.02 1320.91 1559.62 C 1265.82 1521.34 1222.3 1545.96 1187.66 1520.72 C 1127.9 1480.91 1142.94 1385.66 1223.8 1369.09 z" fill="rgb(0,0,0)" transform="translate(0,0)"></path>
<metadata><recraft-signature>{"signed_by": "recraft", "signature_b64": "HyTl0Yl9IyD6ZUiyy06iB2DaNb6H1BOlqaYxl33qMnFq2ZxAUsuwT+z113GqKY1H43KT1CZqWZong5+EGmVrBQ==", "signing_algo": "Ed25519", "generation_timestamp": 1772999479, "identifier": "b3f485fd-f898-49b8-98c9-f385507ea642"}</recraft-signature></metadata></svg>