<svg xmlns="http://www.w3.org/2000/svg" height="512" preserveAspectRatio="none" style="display: block;" version="1.1" viewBox="0 0 2048 2048" width="512">
<path d="M 711.375 256.518 L 1347.39 256.512 C 1376.76 256.507 1410.61 254.465 1439.16 259.809 C 1547.3 280.043 1620.26 369.575 1621 478.67 L 1621.08 803.533 C 1621.1 811.787 1620.74 821.5 1621.13 829.575 C 1626.86 948.713 1538.69 1053.58 1419.41 1064.86 C 1400.87 1066.62 1380.14 1065.63 1361.12 1065.61 L 1278 1065.54 L 1278 1662.73 C 1278.01 1680.8 1279.23 1715.06 1278 1731.37 C 1255.18 1767.44 1246.4 1790.23 1194.08 1790.11 L 877.719 1790.05 C 771.79 1790.05 768.421 1750.58 768.61 1654.62 L 768.639 1065.54 L 686.704 1065.58 C 666.482 1065.6 645.293 1066.33 625.223 1064.16 C 530.56 1053.93 452.432 981.561 431.977 888.889 C 426.008 861.844 427.446 836.333 427.47 808.916 L 427.134 477.758 C 427.23 348.317 538.876 246.949 667.677 256.465 C 680.267 257.395 698.371 256.491 711.375 256.518 z M 1408.74 895.069 C 1470.01 865.669 1455.68 827.678 1455.58 767.191 L 1455.52 540.189 C 1455.61 488.248 1464.46 425.166 1394.26 425.006 L 669.744 424.898 C 662.77 424.886 648.408 424.428 642.153 424.995 C 585.709 436.051 596.201 497.823 596.29 540.567 L 596.516 785.666 C 596.83 890.428 604.799 895.216 703.993 895.087 L 1380.76 895.219 C 1388.32 895.312 1401.72 896.062 1408.74 895.069 z M 938.629 1065.54 C 937.647 1124.88 938.662 1187.56 938.642 1247.2 L 938.629 1622.99 L 1013.5 1622.99 C 1040.86 1622.96 1084.18 1621.52 1110 1622.99 L 1109.97 1119.5 C 1109.97 1105.12 1108.65 1078.74 1110 1065.54 L 1033.49 1065.54 L 938.629 1065.54 z" fill="rgb(0,0,0)" transform="translate(0,0)"></path>
<metadata><recraft-signature>{"signed_by": "recraft", "signature_b64": "LzkRHzyjItsL/XDJcTFzCJFiMk1p0YamEz3De4sqyEclBbylhQJ2fJv26/zfAyaXaX4FeIb3OJeftAgwPf4vAg==", "signing_algo": "Ed25519", "generation_timestamp": 1772989176, "identifier": "a0014b5a-c5b8-4344-b4f9-79f3d2cb3d56"}</recraft-signature></metadata></svg>