<svg xmlns="http://www.w3.org/2000/svg" height="512" preserveAspectRatio="none" style="display: block;" version="1.1" viewBox="0 0 2048 2048" width="512">
<path d="M 998.93 249.755 C 1165.47 236.1 1311.56 360.028 1325.24 526.57 C 1338.92 693.112 1215.02 839.217 1048.48 852.923 C 881.9 866.632 735.756 742.694 722.073 576.116 C 708.39 409.538 832.35 263.413 998.93 249.755 z M 1040.53 719.24 C 1132.71 710.119 1200.05 627.995 1190.93 535.808 C 1181.82 443.622 1099.7 376.279 1007.51 385.392 C 915.316 394.505 847.968 476.632 857.086 568.825 C 866.203 661.018 948.334 728.362 1040.53 719.24 z" fill="rgb(0,0,0)" transform="translate(0,0)"></path>
<path d="M 1408.85 721.979 C 1510.77 722.03 1588.59 711.31 1672.08 791.796 C 1736.61 854.012 1754.22 926.648 1753.28 1013.05 C 1749.56 1109.16 1754.71 1142.38 1642.7 1142.08 L 1562.47 1141.68 C 1423.59 1142.21 1416.5 1344.58 1550.28 1360.42 C 1562.13 1361.83 1576.8 1361.11 1588.92 1361.08 L 1651.59 1360.93 C 1702.31 1360.78 1752.83 1360.34 1753.42 1430.13 L 1753.34 1505.74 C 1753.46 1528.29 1754.39 1552.57 1752.38 1575.03 C 1743.23 1677.27 1662.64 1764.99 1564.34 1790.16 C 1516.09 1802.51 1455.59 1798.87 1405.2 1798.86 L 1238.75 1798.87 C 1204.43 1798.95 1159.31 1805.12 1132.98 1779.55 C 1093.88 1742.39 1111.33 1672.63 1167.03 1663.94 C 1180.29 1661.87 1195.35 1662.56 1208.9 1662.6 L 1496.74 1662.82 C 1532.98 1662.89 1559.98 1652.19 1585.73 1626.24 C 1625.89 1585.77 1619.6 1544.24 1619.6 1493.01 L 1618.72 1493.03 C 1523.29 1494.19 1456.98 1491.17 1384.76 1419.15 C 1284.22 1318.89 1295.34 1147.29 1406.16 1059.6 C 1477.63 1003.04 1536.68 1006.88 1619.6 1007 C 1616.54 959.966 1618.3 926.833 1580.93 889.605 C 1546.66 855.464 1510.57 853.962 1465.81 853.969 L 1408.85 854.006 L 1408.85 721.979 z" fill="rgb(0,0,0)" transform="translate(0,0)"></path>
<path d="M 524.571 721.979 C 535.2 721.256 553.517 721.901 564.814 721.912 L 642.924 721.979 L 642.924 856.49 L 581.416 856.422 C 459.115 856.412 428.425 902.321 429.472 1022.23 L 429.568 1480.43 C 429.461 1532.77 420.455 1576.94 456.704 1620.79 C 499.908 1673.05 548.512 1662.6 609.514 1662.6 L 882.276 1662.53 C 894.72 1662.49 910.526 1661.48 922.498 1663.24 C 985.894 1672.55 1004.92 1746.79 954.761 1785.83 C 931.796 1803.22 898.244 1798.91 870.616 1798.84 L 619.559 1798.91 C 583.442 1798.91 542.021 1800.91 507 1794.78 C 397.313 1775.58 314.016 1686.18 297.448 1577.11 C 292.787 1546.43 294.998 1502.83 295.007 1470.83 L 295.016 1066.1 C 295.008 1024.51 292.682 974.172 298.448 933.685 C 315.135 816.52 411.573 737.884 524.571 721.979 z" fill="rgb(0,0,0)" transform="translate(0,0)"></path>
<metadata><recraft-signature>{"signed_by": "recraft", "signature_b64": "pac46GXfx+xIvMz+ZWPxGde3V/gfvXCtWvg1koB1sesKjDqYH9YZjg9LBl0Y3VjYcFWX9ZgI7A4gDP30VPq4DA==", "signing_algo": "Ed25519", "generation_timestamp": 1772990015, "identifier": "fb1f2de0-c9af-499d-8462-85d3b89b5316"}</recraft-signature></metadata></svg>