<svg xmlns="http://www.w3.org/2000/svg" height="512" preserveAspectRatio="none" style="display: block;" version="1.1" viewBox="0 0 2048 2048" width="512">
<path d="M 594.477 1059 C 813.934 1053.94 1006.86 1220.18 1007.92 1444.17 L 1008.01 1506.16 C 1008.24 1589.68 982.032 1672.68 889.52 1696.1 C 855.297 1704.76 808.275 1702.09 772.167 1702.09 L 637.457 1702.06 C 570.045 1703.65 501.325 1700.87 434.043 1702.09 C 258.563 1705.26 221.82 1627.82 224.377 1462.13 C 217.695 1243.02 383.226 1081.47 594.477 1059 z M 632.25 1567.48 L 776.063 1567.46 C 871.818 1567.45 867.653 1582.01 870.974 1484.9 C 873.968 1397.34 862.475 1326.5 792.587 1263.27 C 741.856 1217.37 669.546 1186.37 600.007 1194 C 440.924 1212.24 349.452 1330.12 358.025 1487.54 C 359.617 1516.76 347.361 1562.07 387.952 1566.9 C 414.561 1568.04 442.718 1567.54 469.312 1567.54 L 632.25 1567.48 z" fill="rgb(0,0,0)" transform="translate(0,0)"></path>
<path d="M 1438.97 946.002 C 1666.05 932.046 1825.36 1115.43 1825 1334.39 L 1825.12 1397.53 C 1825.25 1471.55 1788.79 1545.1 1712.51 1565.87 C 1680.76 1574.51 1633.73 1572.05 1599.84 1572.06 L 1481.65 1572.02 L 1343.04 1572.06 C 1306.21 1572.06 1255.44 1575.07 1220.88 1565.84 C 1081.36 1528.56 1089.13 1378.39 1098.84 1263.03 C 1117.42 1082.07 1265.51 964.129 1438.97 946.002 z M 1473.5 1438 L 1601.42 1438.06 C 1625.87 1438.06 1685.5 1447.28 1686.36 1409.52 C 1687.2 1373.15 1687.86 1332.58 1686.9 1296.54 C 1683.78 1179.54 1565.19 1067.36 1448.68 1082.02 C 1299.14 1096.9 1225.92 1204.31 1233.55 1349.02 C 1235.18 1379.79 1222.3 1432.5 1266.39 1437.58 C 1287.57 1438.55 1310.74 1438.02 1332 1438.02 L 1473.5 1438 z" fill="rgb(0,0,0)" transform="translate(0,0)"></path>
<path d="M 1435.93 348.41 C 1579.26 338.541 1703.36 446.931 1712.86 590.282 C 1722.36 733.633 1613.66 857.457 1470.28 866.596 C 1327.42 875.702 1204.14 767.473 1194.67 624.636 C 1185.2 481.8 1293.12 358.242 1435.93 348.41 z M 1468.58 727.756 C 1536.18 719.582 1584.4 658.234 1576.37 590.622 C 1568.35 523.01 1507.11 474.652 1439.48 482.524 C 1371.64 490.421 1323.09 551.897 1331.14 619.723 C 1339.19 687.549 1400.77 735.956 1468.58 727.756 z" fill="rgb(0,0,0)" transform="translate(0,0)"></path>
<path d="M 595.828 473.994 C 737.297 466.658 857.933 575.384 865.288 716.852 C 872.644 858.321 763.936 978.971 622.468 986.347 C 480.973 993.725 360.292 884.989 352.935 743.493 C 345.578 601.996 454.33 481.331 595.828 473.994 z M 620.392 854.034 C 688.158 847.926 738.174 788.087 732.163 720.312 C 726.152 652.537 666.386 602.435 598.602 608.349 C 530.68 614.274 480.454 674.189 486.477 742.102 C 492.501 810.015 552.487 860.155 620.392 854.034 z" fill="rgb(0,0,0)" transform="translate(0,0)"></path>
<path d="M 1036.3 401.279 C 1094.65 397.279 1104.77 439.836 1122.72 484.752 L 1184.15 638.66 C 1209.78 704.222 1150.81 723.162 1099.94 723.066 L 1054.5 722.949 L 996.436 723.019 C 975.798 723.019 948.449 724.79 930.539 713.36 C 873.441 676.921 913.149 611.954 931.086 566.041 L 963.035 485.367 C 980.908 439.946 982.966 411.5 1036.3 401.279 z" fill="rgb(0,0,0)" transform="translate(0,0)"></path>
<metadata><recraft-signature>{"signed_by": "recraft", "signature_b64": "XtO4EbPar1ffUWOSBAl4RYRUM/bM26gllmKF8wmTho2yirLFLeZj6BrHD5FJgsXqx1qcxzxZZsQhQh6Rmx6ZBw==", "signing_algo": "Ed25519", "generation_timestamp": 1772996157, "identifier": "93fa48dd-c9b0-4b07-b384-5de9c3ccb89f"}</recraft-signature></metadata></svg>