<svg xmlns="http://www.w3.org/2000/svg" height="512" preserveAspectRatio="none" style="display: block;" version="1.1" viewBox="0 0 2048 2048" width="512">
<path d="M 1345.56 1029 C 1363.25 1026.68 1380 1027.94 1397.75 1029.04 C 1573.65 1039.95 1735.08 1173.41 1739.48 1356.79 C 1740.31 1419.94 1740.22 1483.63 1739.71 1546.74 C 1736.42 1582.57 1695.5 1572.81 1670.37 1572.95 L 1526.06 1573.02 L 1526.07 1422.35 C 1525.68 1382.28 1488.53 1367.69 1467 1404.73 L 1467 1573.02 L 934.998 1573.02 L 935.09 1660.81 C 935.154 1740.17 921.749 1802.63 826.534 1803.06 L 437.336 1803.09 C 336.363 1803.03 304.626 1773.13 304.966 1670.79 L 304.985 1330.99 C 305.062 1290.95 306.215 1265.08 336.264 1235.16 C 371.434 1201.09 419.543 1206.9 464.171 1206.92 L 549.157 1206.99 C 540.446 1230.87 538.046 1239.1 532.654 1263.8 L 452.129 1263.73 C 343.89 1263.71 363.937 1296.28 363.954 1387.01 L 363.976 1648.34 C 363.997 1688.22 353.218 1744.38 409.759 1744.61 L 784.667 1744.47 C 819.692 1744.58 875.606 1755.04 875.134 1701.44 L 875.087 1349.24 C 875.277 1304.41 878.412 1263.2 818.087 1263.72 L 597.511 1263.8 C 630.586 1129.68 781.198 1042.08 910.706 1030.49 C 933.577 1028.44 957.372 1028.95 980.352 1029 C 1040.68 1088.5 1103.94 1151.61 1161.63 1213.1 L 1286.16 1086.55 C 1299.78 1072.8 1331.06 1038.66 1345.56 1029 z" fill="rgb(0,0,0)" transform="translate(0,0)"></path>
<path d="M 1179.37 242.59 C 1385.88 226.724 1517.71 421.562 1473.77 618.89 C 1489.38 657.396 1482.22 703.597 1458.6 737.303 C 1454.86 742.64 1444.21 752.45 1441.99 757.701 C 1388.06 885.314 1297.01 1001.41 1147.74 998.983 C 1009.38 986.893 923.673 871.759 876.684 752.161 C 875.638 749.497 867.649 741.3 865.384 738.606 C 837.882 705.898 832.81 646.332 854.251 609.396 C 841.009 506.775 845.662 347.145 972.568 322.378 C 975.896 321.728 996.256 318.52 997.307 317.609 C 1049.32 272.536 1109.5 245.483 1179.37 242.59 z M 1270.78 899.116 C 1316.61 866.098 1349.73 814.839 1373.21 764.239 C 1383.28 744.906 1384.82 724.546 1401.96 709.67 C 1411.71 701.208 1417.8 680.269 1420.03 668.231 C 1429.75 615.728 1362.11 589.293 1326.17 550.553 C 1244.24 566.453 1113.55 541.695 1038.51 513.148 C 1032.31 510.792 1019.43 505.95 1013.51 504.777 C 982.541 540.013 954.075 577.212 923.55 613.03 C 872.363 673.092 913.639 683.427 930.949 726.988 C 985.217 863.556 1117.56 1018.49 1270.78 899.116 z" fill="rgb(0,0,0)" transform="translate(0,0)"></path>
<path d="M 481.016 1354 L 761.735 1354 C 761.257 1382.69 761.838 1412.18 761.735 1441 L 481.016 1441 C 479.871 1415.63 480.976 1380.24 481.016 1354 z" fill="rgb(0,0,0)" transform="translate(0,0)"></path>
<metadata><recraft-signature>{"signed_by": "recraft", "signature_b64": "g1zMfE5U5G2dzmomCZe+WXMHJOEn61ZtSh7NfZM8bM34eb3PtwYxhcSPF68ALz/hf/AjX3cer3XqnlCE3fk5DQ==", "signing_algo": "Ed25519", "generation_timestamp": 1772998159, "identifier": "0e3c94e9-c8d8-43e1-bf2d-e76ce8b88e6e"}</recraft-signature></metadata></svg>