<svg xmlns="http://www.w3.org/2000/svg" height="512" preserveAspectRatio="none" style="display: block;" version="1.1" viewBox="0 0 2048 2048" width="512">
<path d="M 571.021 1454.02 C 485.513 1415.24 417.561 1340.3 416.474 1241.88 C 416.057 1204.14 416.347 1166.05 416.325 1128.33 L 416.308 1054.57 C 416.361 941.328 455.878 839.538 583.567 817.314 C 605.377 813.518 630.318 814.703 652.632 814.714 L 856.883 814.698 C 992.877 814.667 1006.76 826.554 1087.45 934.809 L 1160.19 1032.54 C 1179.04 1058.18 1202.04 1085.68 1219.57 1111.72 C 1277.37 1090.61 1334.01 1068.66 1392.41 1047.93 C 1442.79 1031.53 1478.81 1000.01 1517.74 1051.18 C 1518.77 1060.88 1519.3 1097.58 1517.74 1107.04 C 1504.12 1126.02 1482.96 1132.04 1462.19 1140.48 L 1396.99 1166.27 C 1359.79 1180.92 1241.87 1231.45 1205.75 1234.78 C 1159.41 1239.04 1142.95 1201.84 1119.9 1170.43 L 1013.33 1024.87 C 976.935 974.414 955.411 920.153 882.045 925.196 C 966.84 989.776 957.503 1025.7 957.508 1123.77 L 957.465 1279.37 L 957.543 1282.1 C 958.277 1312.02 957.501 1345.64 957.495 1375.91 L 957.45 1659.55 C 957.448 1715.18 961.931 1752.47 919.995 1796.87 C 864.891 1855.22 785.227 1832.45 714.182 1837.04 C 669.04 1838.64 626.468 1822.1 597.749 1787.19 C 562.424 1744.25 571.047 1688.78 571.056 1636.64 L 571.021 1454.02 z M 685.997 1721.68 C 735.92 1721.85 793.654 1723.15 843.003 1721.68 L 843.003 1279.37 L 685.997 1279.37 L 685.997 1721.68 z M 571.021 1279.37 L 570.977 1132.51 C 570.975 1028.89 555.944 1000.64 639.856 925.196 C 511.675 922.148 525.794 1049.95 529.041 1138.57 C 531.859 1215.49 512.548 1260.55 571.021 1320.87 C 572.061 1304.87 571.72 1295.61 571.021 1279.37 z" fill="rgb(0,0,0)" transform="translate(0,0)"></path>
<path d="M 639.856 925.196 L 882.045 925.196 C 966.84 989.776 957.503 1025.7 957.508 1123.77 L 957.465 1279.37 C 920.339 1279.38 879.885 1280.14 843.003 1279.37 L 685.997 1279.37 C 674.903 1278.85 659.663 1279.33 648.31 1279.33 L 571.021 1279.37 L 570.977 1132.51 C 570.975 1028.89 555.944 1000.64 639.856 925.196 z" fill="rgb(254,183,67)" transform="translate(0,0)"></path>
<path d="M 753.667 205.473 C 900.744 204.69 1020.68 323.139 1021.74 470.214 C 1022.79 617.289 904.566 737.447 757.493 738.774 C 610.036 740.104 489.495 621.5 488.437 474.04 C 487.379 326.581 606.206 206.259 753.667 205.473 z" fill="rgb(0,0,0)" transform="translate(0,0)"></path>
<path d="M 740.133 321.542 C 823.221 313.231 897.272 373.956 905.392 457.063 C 913.513 540.17 852.617 614.081 769.492 622.01 C 686.636 629.914 613.018 569.259 604.924 486.422 C 596.83 403.585 657.315 329.827 740.133 321.542 z" fill="rgb(240,236,234)" transform="translate(0,0)"></path>
<path d="M 1517.74 735.774 L 1291.35 735.82 C 1267.03 735.908 1246.31 737.811 1228.33 718.327 C 1204.05 692.015 1211.3 648.46 1242.21 630.604 C 1260.15 620.239 1283.75 623.294 1304.17 623.399 L 1502.06 623.491 C 1621.57 623.313 1629.68 617.577 1629.69 749.374 L 1629.51 1201.05 C 1629.34 1232.67 1602.92 1261.55 1570.53 1258.04 C 1492.67 1249.6 1524.12 1156.54 1517.74 1107.04 C 1519.3 1097.58 1518.77 1060.88 1517.74 1051.18 C 1518.39 1043.19 1517.66 1029.56 1517.68 1020.79 L 1517.74 735.774 z" fill="rgb(254,183,67)" transform="translate(0,0)"></path>
<metadata><recraft-signature>{"signed_by": "recraft", "signature_b64": "dmrsIWwTAFjUHT+aCenpHZl8nrTG5XVxZtZJkkRAZRluY3agpLXcnUIMX2k7k0uWSgSn7epOcNaX+IBzg3HKCQ==", "signing_algo": "Ed25519", "generation_timestamp": 1773000463, "identifier": "27c49bdd-dd71-4ad2-a3ef-a3ed56154ff9"}</recraft-signature></metadata></svg>