<svg xmlns="http://www.w3.org/2000/svg" height="512" preserveAspectRatio="none" style="display: block;" version="1.1" viewBox="0 0 2048 2048" width="512">
<path d="M 1025.33 248.279 C 1028.51 250.32 1040.42 262.633 1043.81 266.039 L 1619.37 843.929 C 1662.4 886.999 1706.96 930.51 1749.38 973.979 L 1749.38 1530.63 C 1749.37 1616.39 1747.94 1706.6 1749.38 1792.03 C 1738.84 1792.6 1723.01 1792.11 1712.17 1792.09 L 728.986 1792.03 L 728.986 1239 L 893 1239 C 891.816 1280.2 892.985 1327.92 892.999 1369.57 L 893 1624.99 L 1414.5 1624.99 L 1523.26 1625.03 C 1535.45 1625.03 1568.34 1625.72 1577.95 1623.79 C 1581.5 1618.59 1580.04 1461.67 1580.04 1445.18 L 1580.01 1106.92 C 1541.82 1105.73 1496.41 1106.91 1457.75 1106.91 L 469.998 1106.92 L 469.998 1792.03 L 354.677 1792.04 C 339.402 1792.06 314.57 1793.26 300.602 1792.03 C 299.589 1764.58 300.591 1730.22 300.593 1702.12 L 300.602 973.979 C 307.748 962.026 337.279 934.322 348.918 922.651 L 972.55 298.762 C 986.323 285.178 1010.45 257.903 1025.33 248.279 z M 1025.33 939.44 L 1432.58 939.487 C 1447.24 939.52 1467.77 940.538 1481.54 939.44 C 1443.79 903.479 1406.78 865.07 1369.89 828.128 L 1112.68 570.095 C 1082.77 540.24 1054.27 513.393 1025.33 481.938 L 623.04 884.789 C 603.833 903.681 587.544 920.823 567.25 939.44 C 586.552 940.089 605.221 939.512 624.477 939.456 L 1025.33 939.44 z" fill="rgb(0,0,0)" transform="translate(0,0)"></path>
<metadata><recraft-signature>{"signed_by": "recraft", "signature_b64": "/GlvjVC8d+0abOZzr4/eAkRsGAlyFLLnFaolHqKQlpGiu39H1ujNmErNJn9nmvVRfPNtAWh/t5a858i/E9ksCw==", "signing_algo": "Ed25519", "generation_timestamp": 1772996448, "identifier": "096dabb0-fd01-4d74-b5eb-b4042333e1f2"}</recraft-signature></metadata></svg>