<svg xmlns="http://www.w3.org/2000/svg" height="512" preserveAspectRatio="none" style="display: block;" version="1.1" viewBox="0 0 2048 2048" width="512">
<path d="M 598.001 407.49 L 1495.91 407.467 C 1576.32 407.48 1638.47 399.312 1701.42 461.676 C 1762.25 521.933 1755.37 588.195 1755.33 665.62 L 1755.46 1437.37 C 1756.27 1530.03 1680.56 1614.14 1587.56 1620.21 C 1572.44 1621.2 1555.59 1620.65 1539.83 1620.63 L 1453.25 1620.55 L 554.78 1620.57 C 522.422 1620.58 477.545 1623.05 446.393 1617.92 C 372.487 1605.76 306.514 1540.53 294.802 1466.25 C 290.813 1440.94 292.997 1404.46 293.001 1378.3 L 292.92 597.13 C 292.834 501.499 353.384 422.68 450.998 408.761 C 469.35 406.144 493.16 407.437 511.925 407.436 L 598.001 407.49 z M 1617.69 976.4 C 1616.92 964.185 1617.62 942.426 1617.62 929.77 L 1617.69 835.018 C 1578.3 833.617 1528.74 835.008 1488.78 835.009 L 430.999 835.018 L 431.014 1379.42 C 430.871 1471.52 432.52 1483.96 527.297 1483.98 L 1477.7 1483.93 C 1509.56 1483.97 1547.17 1486.38 1578.41 1480.82 C 1623.24 1472.85 1617.76 1416.74 1617.73 1384.08 L 1617.69 976.4 z M 1617.69 691.958 L 1617.75 621.108 C 1617.86 529.988 1591.59 543.005 1516.93 542.996 L 536.315 542.983 C 454.184 542.982 430.815 533.38 430.918 628.051 L 430.999 691.958 L 1617.69 691.958 z" fill="rgb(0,0,0)" transform="translate(0,0)"></path>
<path d="M 430.999 691.958 L 1617.69 691.958 L 1617.68 874.891 C 1617.73 907.493 1618.57 944.135 1617.69 976.4 C 1616.92 964.185 1617.62 942.426 1617.62 929.77 L 1617.69 835.018 C 1578.3 833.617 1528.74 835.008 1488.78 835.009 L 430.999 835.018 L 430.999 691.958 z" fill="rgb(5,121,245)" transform="translate(0,0)"></path>
<metadata><recraft-signature>{"signed_by": "recraft", "signature_b64": "qgh/2xaXi2uDxUgdcklGdBKREfqYArpK6z8y6d4MQcChmMf0bZCW5XwgMG0SDMPorCQvtQ84HjD77aRHomtOBg==", "signing_algo": "Ed25519", "generation_timestamp": 1772999916, "identifier": "26647ffa-b523-4290-b338-1558df587e3a"}</recraft-signature></metadata></svg>