<svg xmlns="http://www.w3.org/2000/svg" height="512" preserveAspectRatio="none" style="display: block;" version="1.1" viewBox="0 0 2048 2048" width="512">
<path d="M 1077.98 542.297 C 1121.84 541.345 1169.61 542.275 1213.84 542.28 L 1621.15 542.253 C 1731.07 542.246 1749.94 541.275 1749.73 657.796 L 1749.77 1167.82 C 1749.78 1233.04 1761.1 1316.67 1670.67 1320.91 C 1591.56 1311.42 1595.85 1252.95 1595.88 1190.59 L 1595.91 820.02 C 1595.9 780.789 1594.84 736.358 1595.89 697.528 L 1128.45 697.549 C 1097.21 697.631 1057.47 702.745 1032.36 681.262 C 978.379 635.077 1006.62 548.385 1077.98 542.297 z" fill="rgb(26,25,25)" transform="translate(0,0)"></path>
<path d="M 366.726 389.285 C 390.847 384.59 416.644 398.148 432.86 415.408 C 457.711 441.859 452.08 481.264 452.069 515.519 L 452.057 1507.22 C 452.061 1555.25 461.761 1657.85 384.233 1652.85 C 344.359 1657.78 306.919 1634.66 299.897 1592.88 C 297.694 1579.78 298.495 1562.93 298.477 1549.34 L 298.263 461.339 C 298.571 422.944 331.21 395.498 366.726 389.285 z" fill="rgb(26,25,25)" transform="translate(0,0)"></path>
<path d="M 1338.85 1500.55 L 1639.97 1500.48 C 1655.38 1500.45 1673.62 1499.36 1688.51 1502.31 C 1777.53 1519.94 1766.41 1650.68 1675.04 1652.5 C 1649.13 1653.01 1622.54 1652.87 1596.7 1652.87 L 1413.5 1652.85 L 1111.97 1652.91 C 1097.31 1652.92 1077.93 1654.04 1064.06 1650.93 C 984.14 1633.02 981.428 1518.93 1063.06 1502.53 C 1086.92 1497.74 1131.54 1500.54 1156.95 1500.57 L 1338.85 1500.55 z" fill="rgb(26,25,25)" transform="translate(0,0)"></path>
<path d="M 841.707 721.292 C 857.456 718 877.949 723.528 891.816 731.315 C 941.551 759.247 931.548 811.576 931.552 861.149 L 931.546 1168.45 C 931.541 1230.16 946.701 1300.95 868.845 1320.91 C 765.724 1333.55 775.057 1238.41 775.238 1173.16 L 775.238 863.359 C 775.231 806.046 762.862 733.907 841.707 721.292 z" fill="rgb(26,25,25)" transform="translate(0,0)"></path>
<metadata><recraft-signature>{"signed_by": "recraft", "signature_b64": "s3a1ZVeM5bJ+009TlWPyltFXD4UiXyAnCvZPn6ihUcS9PGKxRlL3nVa4BkLmCUR9FCV1OkcDl0CbzeJPKZNHAg==", "signing_algo": "Ed25519", "generation_timestamp": 1772998343, "identifier": "c1b9f3f8-b696-40fa-b9e3-1aca69b72ca5"}</recraft-signature></metadata></svg>