<svg xmlns="http://www.w3.org/2000/svg" height="512" preserveAspectRatio="none" style="display: block;" version="1.1" viewBox="0 0 2048 2048" width="512">
<path d="M 435.126 383.23 L 1590.57 383.226 C 1653.67 383.241 1704.83 385.989 1742.32 448.192 C 1786.22 521.045 1791.54 800.672 1791.55 887.424 L 1791.61 1513.59 C 1791.86 1642 1727.25 1664.5 1612.5 1664.29 L 420.102 1664.36 C 336.497 1664.52 258.451 1632.66 255.886 1534.04 C 255.414 1515.9 255.784 1497.61 255.822 1479.44 L 255.807 873.948 C 255.737 759.57 258.19 661.375 279.247 547.918 C 298.094 446.364 317.146 386.938 435.126 383.23 z M 426.003 1106.75 L 426.095 1444.56 C 426.198 1461.25 426.962 1477.42 426.003 1494.09 L 1120.5 1494.09 L 1567 1494.08 C 1583.82 1494.07 1605.71 1493.3 1622.08 1494.09 C 1623.5 1466.4 1622.08 1426.03 1622.07 1396.89 L 1622.03 1138.53 C 1622 1129.04 1621.38 1115.88 1622.08 1106.75 L 928.747 1106.75 L 426.003 1106.75 z M 426.003 939.003 L 1596.5 939.003 L 1622.08 939.003 C 1620.66 845.365 1625.18 755.829 1610.99 662.55 C 1605.25 624.75 1597.51 591.911 1590.24 554.997 L 575.789 554.986 C 536.242 554.985 490.41 553.866 451.222 554.997 C 439.464 652.393 426.073 728.242 425.972 827.019 L 426.003 939.003 z" fill="rgb(0,0,0)" transform="translate(0,0)"></path>
<metadata><recraft-signature>{"signed_by": "recraft", "signature_b64": "Uw+8IlOuslgtpBO0BfeYUxY/fnDEGi+TL8gk+1dcMSrdrPxEB5GtG70+W3QW9utIpl1zPVDNSb8vwqkNstDhDA==", "signing_algo": "Ed25519", "generation_timestamp": 1772996148, "identifier": "c2ca4053-e954-40ac-aa43-3760b44b66b8"}</recraft-signature></metadata></svg>