<svg xmlns="http://www.w3.org/2000/svg" height="512" preserveAspectRatio="none" style="display: block;" version="1.1" viewBox="0 0 2048 2048" width="512">
<path d="M 370.351 606.266 C 390.388 605.247 420.852 606.223 441.418 606.234 L 1597.4 606.225 C 1653.66 606.186 1735.83 593.037 1750.61 666.206 C 1753.64 681.22 1752.74 703.472 1752.74 719.178 L 1752.74 1321.2 C 1752.73 1379.39 1751.04 1425.52 1678.87 1437.13 L 418.436 1437.2 C 336.383 1437.31 294.337 1431.79 294.891 1330.31 L 294.963 723.466 C 294.717 668.291 297.502 614.47 370.351 606.266 z" fill="rgb(16,15,15)" transform="translate(0,0)"></path>
<path d="M 561.63 680.586 L 1557.03 680.594 C 1595.07 680.594 1641.63 679.245 1678.87 680.586 L 1678.88 1294.48 C 1678.89 1317.69 1679.49 1342.85 1678.87 1365.88 C 1616.29 1365.25 1552.62 1365.86 1489.95 1365.88 L 370.351 1365.88 C 365.296 1348.23 367.595 1282.72 367.605 1260.48 L 367.339 698.819 C 366.222 671.577 427.019 680.55 446.43 680.549 L 561.63 680.586 z" fill="rgb(250,250,248)" transform="translate(0,0)"></path>
<path d="M 1131.59 825.912 C 1236.67 825.819 1340.08 827.983 1444.51 842.665 C 1488.75 851.749 1550.86 844.184 1528.27 912.975 C 1564.11 971.298 1565.83 1046.73 1552.2 1112.23 C 1541.38 1164.18 1535.07 1167.37 1485.42 1181.6 C 1452.11 1191.15 1303.05 1223.44 1276.63 1204.55 C 1240.44 1177.9 1264.87 1146.59 1277.89 1116.63 C 1315.42 1030.28 1373.17 971.765 1448.34 916.409 C 1350.83 896.148 1186.33 899.127 1086.62 899.197 C 1076.55 909.896 1065.74 920.105 1055.16 930.305 C 1030.15 955.462 1000.39 985.848 972.806 1008.21 C 951.92 1025.14 917.07 998.91 920.142 972.317 C 923.025 947.362 954.698 924.491 972.215 907.263 C 932.592 913.657 863.465 913.003 828.491 924.365 C 768.32 1019.65 707.165 1082.6 596.401 1122.68 C 551.029 1139.1 534.197 1151.71 511.872 1097.6 C 492.749 1053.71 483.92 1006.08 481.187 958.464 C 479.176 923.425 493.561 917.284 524.821 908.988 C 711.126 859.546 936.547 824.903 1131.59 825.912 z" fill="rgb(16,15,15)" transform="translate(0,0)"></path>
<path d="M 1479.93 984.089 C 1495.6 1008.99 1481.24 1073.31 1480 1103.95 L 1479.93 1105.77 C 1438.57 1117.36 1405.95 1125.35 1363.06 1131.88 C 1361.43 1132.18 1352.94 1133.73 1354.89 1129.58 C 1383.08 1069.61 1427.26 1023.54 1479.93 984.089 z" fill="rgb(226,185,84)" transform="translate(0,0)"></path>
<path d="M 723.588 939.245 L 726.624 938.773 L 727.563 939.885 C 711.947 975.358 630.701 1027.86 595.424 1042.58 C 586.99 1046.1 575.469 1057.42 571.048 1044.99 C 565.027 1023.14 557.909 999.821 556.738 977.146 C 600.093 961.957 677.103 948.206 723.588 939.245 z" fill="rgb(226,185,84)" transform="translate(0,0)"></path>
<path d="M 1107.94 977.146 C 1126.31 974.442 1141.28 981.872 1147.67 999.99 C 1160.33 1035.9 1085.33 1095.55 1060.3 1121.79 L 1012.4 1172.34 C 999.464 1185.97 986.321 1203.61 968.327 1209.17 C 946.008 1210.36 927.865 1198.85 924.208 1175.46 C 920.31 1150.52 946.507 1133.52 961.78 1117.81 L 1018.46 1058.46 C 1037.81 1038.12 1083.51 979.779 1107.94 977.146 z" fill="rgb(16,15,15)" transform="translate(0,0)"></path>
<path d="M 1246.37 980.333 C 1277.1 978.558 1296.33 1010.19 1281.12 1036.61 C 1274.19 1048.65 1265.62 1059.29 1257.31 1070.4 L 1216.21 1125.05 C 1197.45 1150.39 1170.22 1200.95 1140.78 1209.17 C 1120.53 1209.96 1102.49 1198.98 1098.89 1178.04 C 1095.53 1158.43 1109.08 1144.45 1119.73 1129.86 L 1195.45 1027.17 C 1210.66 1006.44 1218.85 983.6 1246.37 980.333 z" fill="rgb(16,15,15)" transform="translate(0,0)"></path>
<path d="M 851.243 1015.18 C 890.059 1012.49 905.634 1056.71 877.936 1081.22 C 853.437 1102.89 745.453 1201.55 723.588 1209.17 C 699.581 1210.84 680.404 1199.13 678.02 1173.74 C 675.683 1148.86 700.17 1134.43 717.277 1120.17 L 806.693 1044.07 C 821.528 1031.33 831.472 1019.69 851.243 1015.18 z" fill="rgb(16,15,15)" transform="translate(0,0)"></path>
<metadata><recraft-signature>{"signed_by": "recraft", "signature_b64": "CVSmT+Z0lMP6AZctw/HAH3OlRt5LH3xu7fRPp+52SJ9CQM0AQqknh3ip45ETleO30/CgHrFlwD3IssexxVYsAQ==", "signing_algo": "Ed25519", "generation_timestamp": 1772995641, "identifier": "5858a5eb-2e61-4e75-b356-ccd638e03831"}</recraft-signature></metadata></svg>