<svg xmlns="http://www.w3.org/2000/svg" height="512" preserveAspectRatio="none" style="display: block;" version="1.1" viewBox="0 0 2048 2048" width="512">
<path d="M 595.387 414.005 C 688.971 407.362 765.933 451.407 817.89 527.104 C 986.109 772.184 715.895 1127.35 756.632 1187.8 C 792.086 1205.52 851.941 1124.48 871.739 1104.05 C 999.161 972.543 1160 871.496 1349.97 879.299 C 1377.36 880.424 1405.2 884.676 1432.74 886.41 C 1541.33 893.961 1649.72 848.82 1724.89 770.603 C 1734.08 761.031 1741.04 749.45 1751.36 740.584 C 1766.86 727.281 1791.82 736.394 1793.27 757.224 C 1793.94 771.816 1791.34 788.039 1789.83 802.823 C 1768.58 1010.46 1701.16 1282.22 1570.07 1443.4 C 1431.76 1608.53 1208.34 1631.58 1006.26 1634.02 C 808.859 1636.4 551.065 1608.66 487.748 1382.76 C 456.485 1272.69 502.783 1170.24 551.134 1073.51 C 584.494 1005.43 724.198 772.984 665.815 698.827 C 645.549 673.088 602.47 703.216 576.826 707.157 C 553.352 710.765 535.184 711.094 510.949 710.466 C 456.077 734.156 320.4 787.426 262.06 748.393 C 248.564 739.363 252.65 721.129 263.618 712.151 C 316.449 658.684 373.929 618.273 404.59 549.9 C 440.77 469.222 507.402 425.173 595.387 414.005 z" fill="rgb(0,0,0)" transform="translate(0,0)"></path>
<path d="M 450.176 579.527 C 471.203 515.846 529.272 477.269 594.191 467.954 C 622.876 463.838 678.465 472.447 701.13 490.279 C 744.593 507.646 779.952 557.216 797.754 598.968 C 893.442 823.387 656.386 1115.92 707.913 1208.42 C 767.324 1304.08 868.522 1186.6 911.708 1140.79 C 1030.27 1015.03 1185.65 918.157 1364.55 932.722 C 1504.08 944.066 1570.51 944.48 1698.48 862.958 C 1598.71 1097.8 1427.86 1292.81 1162.67 1335.9 C 1106.5 1345.03 1127.95 1394.44 1158.91 1391.56 C 1321.65 1368.29 1452.4 1291.43 1564.69 1175.92 C 1602.71 1132.49 1637.88 1088.19 1668.27 1038.8 C 1683.37 1014.26 1696.36 985.073 1710.87 960.697 C 1679.14 1113.42 1619.89 1315.77 1510.22 1430.45 C 1379.84 1563.76 1169.92 1577.74 994.512 1579.47 C 875.979 1580.63 712.533 1568.25 618.002 1489.57 C 572.08 1456.27 541.614 1398.87 533.191 1343.26 C 507.446 1173.26 700.624 967.233 729.992 777.921 C 741.888 701.236 705.07 618.678 612.883 640.202 C 574.596 649.141 565.735 662.035 522.133 657.911 C 510.21 626.888 482.297 591.149 450.176 579.527 z" fill="rgb(247,247,246)" transform="translate(0,0)"></path>
<path d="M 1564.69 1175.92 C 1602.71 1132.49 1637.88 1088.19 1668.27 1038.8 C 1683.37 1014.26 1696.36 985.073 1710.87 960.697 C 1679.14 1113.42 1619.89 1315.77 1510.22 1430.45 C 1379.84 1563.76 1169.92 1577.74 994.512 1579.47 C 875.979 1580.63 712.533 1568.25 618.002 1489.57 C 625.617 1488.79 646.872 1498.84 657.503 1501.17 C 921.001 1559.13 1265.15 1546.21 1462.36 1341.07 C 1485.97 1316.5 1569.57 1207.57 1564.69 1175.92 z" fill="rgb(174,210,225)" transform="translate(0,0)"></path>
<path d="M 701.13 490.279 C 744.593 507.646 779.952 557.216 797.754 598.968 C 893.442 823.387 656.386 1115.92 707.913 1208.42 C 694.947 1210.84 680.745 1203.87 673.069 1193.49 C 650.346 1162.98 666.432 1121.74 678.698 1090.43 C 742.876 926.668 881.337 645.423 710.835 500.265 C 706.928 496.938 703.924 494.732 701.13 490.279 z" fill="rgb(174,210,225)" transform="translate(0,0)"></path>
<path d="M 525.152 526.215 C 539.517 523.565 553.3 533.093 555.895 547.468 C 558.491 561.842 548.911 575.589 534.527 578.131 C 520.219 580.659 506.561 571.141 503.979 556.843 C 501.397 542.545 510.864 528.851 525.152 526.215 z" fill="rgb(0,0,0)" transform="translate(0,0)"></path>
<path d="M 422.838 624.767 C 429.261 628.555 434.123 631.896 440.236 636.207 C 453.077 648.027 460.221 656.236 470.429 670.619 C 436.49 686.634 387.253 707.259 349.824 707.298 L 348.156 707.547 L 347.617 706.393 C 365.697 680.625 402.077 655.361 422.838 624.767 z" fill="rgb(153,46,42)" transform="translate(0,0)"></path>
<path d="M 422.838 624.767 C 429.261 628.555 434.123 631.896 440.236 636.207 C 409.609 667.966 379.642 682.185 349.824 707.298 L 348.156 707.547 L 347.617 706.393 C 365.697 680.625 402.077 655.361 422.838 624.767 z" fill="rgb(229,94,85)" transform="translate(0,0)"></path>
<metadata><recraft-signature>{"signed_by": "recraft", "signature_b64": "T5mwfmfGOdEbRpkiKsPhm89iVGw/p1wvO3ILYU1wvs2MKdcuhiD3NFyDWQXaNewBDpCPHTvpv5wCWXW/sfqjBQ==", "signing_algo": "Ed25519", "generation_timestamp": 1772997576, "identifier": "52cf038c-5f3e-416d-897c-afadab83e87e"}</recraft-signature></metadata></svg>