<svg xmlns="http://www.w3.org/2000/svg" height="512" preserveAspectRatio="none" style="display: block;" version="1.1" viewBox="0 0 2048 2048" width="512">
<path d="M 847.023 1165 C 850.236 1165.54 866.706 1165.17 870.923 1165.15 L 1774.48 1165 L 1774.49 1427.48 C 1774.49 1470.63 1773.84 1515.13 1774.48 1558.12 C 1773.39 1558.61 1617.78 1558.12 1606.25 1558.11 L 847.023 1558.12 L 847.035 1295.6 C 847.033 1252.71 846.263 1207.66 847.023 1165 z" fill="rgb(0,0,0)" transform="translate(0,0)"></path>
<path d="M 847.023 474.065 C 875.041 472.62 917.377 474.041 946.817 474.051 L 1774.48 474.065 L 1774.45 767.34 C 1774.44 778.288 1775.88 847.016 1774.17 852.926 L 1771.79 853.51 L 847.023 853.51 L 847.023 474.065 z" fill="rgb(0,0,0)" transform="translate(0,0)"></path>
<path d="M 641.017 474.065 L 749.505 474.065 L 749.505 955.165 C 760.787 955.858 774.23 955.22 785.788 955.189 L 1774.48 955.165 L 1774.48 1064.99 L 912.5 1064.99 L 749.505 1064.99 C 750.102 1090 749.528 1117.6 749.525 1142.83 L 749.51 1470.82 C 749.513 1499.54 750.04 1529.55 749.505 1558.12 C 738.156 1558.7 723.859 1558.21 712.215 1558.19 L 641.017 1558.12 L 641.017 1064.99 L 274.042 1064.99 L 274.003 994.996 C 273.944 982.3 273.181 967.537 274.042 955.165 L 641.017 955.165 L 641.017 474.065 z" fill="rgb(0,0,0)" transform="translate(0,0)"></path>
<path d="M 274.042 1165 C 281.33 1165.83 301.412 1165.14 309.801 1165.11 L 472.773 1165.06 C 496.286 1165.28 519.507 1166.33 542.993 1165 L 542.993 1415.83 C 542.997 1462.95 542.388 1511.15 542.993 1558.12 L 542.306 1559.47 L 274.042 1558.12 L 274.042 1165 z" fill="rgb(0,0,0)" transform="translate(0,0)"></path>
<path d="M 274.042 474.065 C 362.717 473.738 454.719 475.598 542.993 474.065 L 542.993 853.51 C 518.015 852.168 480.961 853.468 454.844 853.473 L 274.042 853.51 L 274.008 519.049 C 273.929 504.252 273.224 488.713 274.042 474.065 z" fill="rgb(0,0,0)" transform="translate(0,0)"></path>
<metadata><recraft-signature>{"signed_by": "recraft", "signature_b64": "3MkaypNV8g9rimLWrYU5iTgwV8xhj4x8sntLHZ1UhrF+p2S02yhlw3xaQinzy804wAyBlxSFg9asb3FgqmkVBQ==", "signing_algo": "Ed25519", "generation_timestamp": 1772997702, "identifier": "4f7363c6-e5ce-4ba4-bf6e-f084a0b912d2"}</recraft-signature></metadata></svg>