<svg xmlns="http://www.w3.org/2000/svg" height="512" preserveAspectRatio="none" style="display: block;" version="1.1" viewBox="0 0 2048 2048" width="512">
<path d="M 245.015 566.998 L 745.98 566.998 L 745.98 1460.01 L 245.015 1460.01 L 244.991 1261.8 C 245.001 1238.23 244.898 1214.66 245.388 1191.1 C 245.599 1180.94 242.879 1175.58 254.251 1175 C 383.31 1175 514.74 1173.67 643.589 1175 L 643.589 1062 L 245.015 1062 L 245.015 957.001 L 639.008 957.001 L 639.008 848.522 L 245.015 848.522 L 245.015 566.998 z" fill="rgb(0,0,0)" transform="translate(0,0)"></path>
<path d="M 856.103 1175 L 1805 1175 L 1805 1460.01 C 1771.44 1459.26 1734.44 1460 1700.63 1460 L 856.103 1460.01 C 855.497 1451.8 856.055 1438 856.06 1429.4 L 856.103 1175 z" fill="rgb(0,0,0)" transform="translate(0,0)"></path>
<path d="M 856.103 566.998 L 1805 566.998 L 1805 781.778 C 1805 793.651 1806.75 841.191 1805 848.522 L 856.103 848.522 L 856.103 566.998 z" fill="rgb(0,0,0)" transform="translate(0,0)"></path>
<path d="M 856.103 957.001 L 1700.68 957.001 C 1733.7 957.003 1772.56 958.081 1805 957.001 L 1805 1062 L 856.103 1062 C 856.739 1027.64 856.136 991.502 856.103 957.001 z" fill="rgb(0,0,0)" transform="translate(0,0)"></path>
<metadata><recraft-signature>{"signed_by": "recraft", "signature_b64": "/GhvQ6TZnmZcTZXZEBo/9N2lwO07dNGx6epJvtM4yT4UMUizHOZLWTwKEDaoJJd8ifpHH8EkIDU5ZnYTvk1YDg==", "signing_algo": "Ed25519", "generation_timestamp": 1772997621, "identifier": "7f0cd291-10a9-461e-a7e1-5860e1f87a1a"}</recraft-signature></metadata></svg>