<svg xmlns="http://www.w3.org/2000/svg" height="512" preserveAspectRatio="none" style="display: block;" version="1.1" viewBox="0 0 2048 2048" width="512">
<path d="M 212.529 545.459 L 1833.29 545.234 C 1840.02 545.27 1843.38 547.34 1847.87 552.168 C 1852.48 565.29 1850.03 755.927 1850.03 783.061 L 1850.12 1444.47 C 1850.18 1464.74 1854.48 1484.18 1836.79 1497.33 C 1819.82 1503.96 1744.43 1500 1721.36 1500 L 331.436 1500.01 C 313.772 1500 226.362 1502.05 215.706 1498.29 C 190.749 1489.46 200.494 1402.84 200.491 1379.17 L 200.52 710.06 C 200.52 680.191 188.302 553.463 212.529 545.459 z M 247.262 592.513 L 247.262 1454 L 1276.5 1454 L 1804.4 1454 L 1804.4 592.513 C 1792.27 591.533 1777.92 592.352 1765.47 592.456 L 783.023 592.513 C 724.215 593.172 664.011 592.506 605.115 592.505 L 247.262 592.513 z" fill="rgb(0,0,0)" transform="translate(0,0)"></path>
<path d="M 1523.56 972.033 C 1531.69 952.853 1539.63 930.459 1547.08 910.759 L 1584.67 810.26 C 1605.87 752.143 1590.12 752.697 1647.15 754.54 C 1655.74 780.042 1666.38 807.265 1675.67 832.768 C 1692.64 877.098 1714.18 933.05 1727.6 978.524 C 1711.84 978.257 1695.48 978.502 1679.67 978.524 C 1675.26 964.585 1670.13 947.385 1664 934.326 L 1584.64 934.326 C 1578.92 948.927 1573.83 963.724 1568.65 978.524 L 1473.59 978.524 C 1451.02 946.357 1429.84 914.569 1406.45 882.51 C 1400.02 888.473 1396.57 891.832 1391 898.515 L 1391 978.524 L 1346.22 978.524 L 1346.22 754.54 C 1361.08 754.689 1376.12 754.556 1391 754.54 C 1391.54 755.403 1390.45 768.749 1390.49 772.091 L 1391 838.657 C 1416.11 813.228 1443.2 781.347 1468.04 754.54 C 1486.31 754.651 1505.36 755.048 1523.56 754.54 C 1498.71 779.014 1460.38 820.051 1438.09 848.212 C 1461.33 887.646 1497.24 931.076 1523.56 972.033 z M 1596.12 898.515 L 1628.25 898.515 L 1653.11 898.515 C 1646.93 877.538 1634.69 825.491 1628.25 809.678 C 1614.54 831.832 1605.36 872.028 1596.12 898.515 z" fill="rgb(0,0,0)" transform="translate(0,0)"></path>
<path d="M 949.814 754.54 C 958.206 754.254 967.051 753.694 975.365 754.54 C 997.635 795.804 1032.32 854.579 1057.71 893.215 L 1057.71 754.54 C 1071.87 754.735 1084.33 753.739 1099 754.54 L 1099 978.524 L 1060.75 978.524 C 1053.31 977.617 978.018 842.606 969.52 825.206 C 970.357 838.814 969.579 861.688 969.57 875.906 L 969.52 978.524 C 955.343 978.777 941.208 978.64 927.031 978.524 L 927.031 754.54 L 949.814 754.54 z" fill="rgb(0,0,0)" transform="translate(0,0)"></path>
<path d="M 401.814 751.002 C 451.682 749.319 495.468 763.036 500.371 818.955 L 458.52 818.955 C 445.308 779.892 384.09 778.005 373.367 812.86 C 383.853 853.223 465.725 832.611 497.424 876.911 C 533.716 927.63 474.598 991.26 414.782 980.995 C 359.588 981.928 326.865 960.953 319.083 907.002 C 332.332 906.312 349.972 906.916 363.548 907.002 C 379.819 957.751 454.173 954.843 463.593 914.951 C 454.264 876.274 389.511 887.847 354.024 863.046 C 301.947 826.652 336.872 762.501 401.814 751.002 z" fill="rgb(0,0,0)" transform="translate(0,0)"></path>
<path d="M 1212.33 751.002 C 1264.17 750.343 1303 762.545 1307.25 818.955 C 1300.51 818.148 1293.87 817.38 1287.09 817.532 C 1285.14 817.576 1265.02 818.241 1264.53 816.628 C 1251.63 775.009 1183.68 788.381 1184.32 817.785 C 1185.69 854.384 1315.28 828.329 1314.03 911.111 C 1313.2 966.302 1270.12 981.549 1222.75 980.995 C 1180.21 981.92 1134.53 959.308 1134.98 911.51 C 1144.95 910.569 1167.32 911.405 1178.18 911.51 C 1190.62 958.477 1279 949.504 1269.31 909.545 C 1264.24 888.621 1192.14 882.349 1167.98 868.376 C 1138.39 851.269 1133.29 812.167 1150.42 784.474 C 1163.93 762.625 1188.45 756.046 1212.33 751.002 z" fill="rgb(0,0,0)" transform="translate(0,0)"></path>
<path d="M 740.55 754.54 L 888.412 754.54 C 887.867 766.614 888.375 782.635 888.412 795.007 L 783.023 795.007 L 783.023 843.243 L 879.424 843.243 C 879.934 855.684 879.273 869.749 879.424 882.51 C 865.561 882.489 792.06 881.031 783.822 883.901 L 783.023 885.99 L 783.023 939.105 C 818.678 940.091 856.41 938.65 892.403 939.105 C 892.959 950.697 892.454 966.644 892.403 978.524 L 740.55 978.524 L 740.55 754.54 z" fill="rgb(0,0,0)" transform="translate(0,0)"></path>
<path d="M 520.249 754.54 C 535.089 754.442 549.902 754.899 564.752 754.54 C 580.744 811.653 604.474 866.912 619.215 924.313 C 631.694 871.226 655.141 808.168 671.058 754.54 L 715.941 754.54 L 701.49 798.953 C 683.269 859.186 661.136 919.162 643.045 978.524 C 628.358 979.164 608.732 978.538 593.647 978.524 C 568.782 912.242 538.23 823.879 520.249 754.54 z" fill="rgb(0,0,0)" transform="translate(0,0)"></path>
<path d="M 945.985 1110.49 L 983.49 1110.49 L 983.514 1226.94 C 983.507 1234.61 983.905 1277.05 982.417 1281.78 L 980.25 1282.61 C 968.85 1282.17 957.397 1282.46 945.985 1282.61 C 925.949 1249.89 905.058 1218.39 883.51 1186.58 C 882.362 1218.16 882.402 1251.02 883.51 1282.61 L 847.535 1282.61 L 847.535 1110.49 C 852.266 1110.26 856.59 1110.39 861.309 1110.49 L 879.424 1110.49 C 899.459 1143.14 924.333 1182.27 945.985 1213.8 L 945.985 1110.49 z" fill="rgb(0,0,0)" transform="translate(0,0)"></path>
<path d="M 1272.92 1110.49 L 1315.82 1110.49 C 1339.15 1156.54 1360.69 1232.88 1377.69 1282.61 L 1338.78 1282.61 C 1333.49 1272.31 1330.51 1262.03 1327.09 1251.05 L 1315.82 1251.05 L 1262.5 1251.05 C 1258.23 1261.38 1254.15 1272.17 1250.07 1282.61 L 1212.33 1282.61 C 1221.21 1238.03 1255.85 1154.26 1272.92 1110.49 z M 1272.92 1216.98 L 1296.6 1216.98 C 1302.97 1216.99 1309.46 1217.06 1315.82 1216.98 C 1305.92 1193.68 1300.77 1172.9 1292.12 1150.67 C 1286.46 1172.19 1277.51 1196.21 1272.92 1216.98 z" fill="rgb(0,0,0)" transform="translate(0,0)"></path>
<path d="M 740.55 1106.31 C 783.456 1102.38 808.782 1114.62 818.745 1157.36 L 788.245 1157.36 C 774.107 1143.27 775.364 1136.17 750.559 1135.25 C 724.607 1134.29 710.242 1159.92 737.574 1170.46 C 760.816 1178.73 788.703 1177.65 808.843 1193.57 C 850.023 1226.11 817.533 1283.08 762.25 1286.01 C 721.356 1286.72 682.782 1278.99 681.953 1229.51 C 694.258 1229.09 703.643 1228.97 715.941 1229.51 C 728.766 1266.6 792.795 1256.27 786.372 1230.36 C 778.836 1199.97 693.1 1221.32 686.696 1169.34 C 681.463 1130.84 704.24 1110.05 740.55 1106.31 z" fill="rgb(0,0,0)" transform="translate(0,0)"></path>
<path d="M 1110.87 1110.49 C 1121.09 1111.43 1136.81 1110.69 1147.45 1110.49 C 1132.36 1168.82 1109.25 1225.18 1091.15 1282.61 C 1078.1 1282.54 1065.07 1282.42 1052.03 1282.61 C 1040.19 1250.23 1028.79 1215.87 1017.71 1183.18 C 1010.79 1160.1 1001.09 1133.63 995.891 1110.49 C 1008.58 1110.25 1021.67 1110.42 1034.38 1110.49 C 1037.69 1122.6 1043.43 1138.78 1047.4 1151.07 L 1072.44 1229.51 C 1086.14 1192.66 1098.97 1148.46 1110.87 1110.49 z" fill="rgb(0,0,0)" transform="translate(0,0)"></path>
<path d="M 1167.8 1110.49 L 1199.49 1110.49 L 1199.53 1222.8 C 1199.53 1241.5 1207.69 1282.05 1190.1 1282.61 C 1180.57 1282.48 1171.06 1282.27 1161.53 1282.61 C 1161.42 1263.53 1159.26 1115.11 1162.99 1110.75 L 1167.8 1110.49 z" fill="rgb(0,0,0)" transform="translate(0,0)"></path>
<metadata><recraft-signature>{"signed_by": "recraft", "signature_b64": "7qBDBuekttJMyCg5cLr+j0+fdFRFsgHYjfIog2rzJczoKhstXRyApOiQlxpWIExRLeb0ndmQdFcpo13OBJieAg==", "signing_algo": "Ed25519", "generation_timestamp": 1772997918, "identifier": "1f6dd9fc-0427-41ed-a399-a13ad17c455b"}</recraft-signature></metadata></svg>