<svg xmlns="http://www.w3.org/2000/svg" height="512" preserveAspectRatio="none" style="display: block;" version="1.1" viewBox="0 0 2048 2048" width="512">
<path d="M 226.386 613.489 L 1762.89 613.482 C 1782.47 613.473 1802.59 612.804 1822.03 613.489 C 1821.31 642.641 1822.01 674.791 1822.01 704.267 L 1822.03 1433.98 L 226.386 1433.98 L 226.386 613.489 z M 269.004 1391 C 321.485 1392.53 381.312 1390.99 434.579 1390.99 L 1780.02 1391 L 1781.58 1390.39 C 1778.73 1346.5 1780.01 1305.97 1780.03 1262.18 L 1780.02 789.767 C 1780.01 746.06 1778.74 696.165 1780.02 653.236 C 1748.01 654.411 1708.15 653.238 1675.38 653.233 L 399.635 653.222 C 358.599 653.218 308.998 651.771 269.004 653.236 C 268.041 655.075 268.9 694.974 268.924 699.868 L 269.027 1351.71 C 269.028 1362.54 269.713 1380.99 269.004 1391 z" fill="rgb(1,1,1)" transform="translate(0,0)"></path>
<path d="M 1385.02 1071 C 1418.84 1070.17 1466.43 1065.93 1493.76 1088.72 C 1527.49 1116.83 1526.1 1183.71 1499.32 1216.28 C 1478.34 1238.33 1453.32 1237.12 1425.18 1237.1 L 1385.02 1236.99 L 1385.02 1071 z M 1421.43 1203 C 1439.11 1204.78 1457.54 1206.73 1471.95 1195.37 C 1486.84 1174.57 1487.92 1126.67 1465.29 1110.31 C 1453.07 1101.48 1435.84 1102.79 1421.43 1102.98 L 1421.43 1203 z" fill="rgb(1,1,1)" transform="translate(0,0)"></path>
<path d="M 652.849 809.013 L 687.515 809.013 C 673.98 862.685 656.34 923.858 639.2 976.989 L 607.663 976.989 C 597.589 943.252 587.878 902.831 578.643 868.298 C 571.97 901.812 560.126 943.46 551.114 976.989 C 539.154 976.737 528.286 976.705 516.326 976.989 C 507.312 950.205 498.878 918.303 491.005 890.784 C 483.737 864.08 472.516 836.352 468.43 809.013 C 481.598 809.379 493.064 809.362 506.234 809.013 C 510.601 840.41 524.571 882.608 532.134 915.041 C 542.641 883.118 552.902 842.025 560.652 809.013 C 573.585 809.516 583.332 809.547 596.258 809.013 C 600.669 839.46 616.467 882.294 621.782 915.041 C 634.606 883.876 639.952 841.927 652.849 809.013 z" fill="rgb(1,1,1)" transform="translate(0,0)"></path>
<path d="M 1062.02 809.013 L 1098.61 809.013 C 1098.64 862.805 1097.1 923.709 1098.61 976.989 C 1096.69 978.14 1066.66 977.051 1062.02 976.989 C 1042.58 943.315 1021.41 911.098 1002.86 876.715 C 1003.42 908.869 1003.12 944.797 1002.86 976.989 L 967.002 976.989 C 965.984 963.662 966.938 935.096 966.96 920.775 L 967.002 809.013 C 972.925 808.899 993.334 808.182 997.625 809.729 C 1006.67 812.987 1055.52 899.93 1062.02 912.403 L 1062.02 809.013 z" fill="rgb(1,1,1)" transform="translate(0,0)"></path>
<path d="M 1437.11 809.013 C 1449.52 809.138 1458.87 808.326 1471.95 809.013 C 1492.65 842.809 1509.62 880.187 1532.57 912.403 C 1533.73 880.657 1532.61 841.327 1532.57 809.013 L 1567 809.013 L 1567 976.989 C 1554.39 976.536 1545.17 976.327 1532.57 976.989 C 1513.73 953.512 1488.7 901.416 1471.95 873.713 L 1471.95 976.989 C 1460.6 977.157 1448.59 976.917 1437.11 976.989 C 1434.01 926.115 1436.27 860.417 1437.11 809.013 z" fill="rgb(1,1,1)" transform="translate(0,0)"></path>
<path d="M 1066.99 1066.44 C 1105.25 1065.97 1137.77 1082.17 1141.48 1124.11 C 1130.99 1124.54 1117.78 1124.16 1107.07 1124.11 C 1104.61 1118.82 1101.56 1113.84 1098.61 1108.8 C 1055.86 1080.88 1030.51 1111.59 1032.89 1157.95 C 1036.36 1225.39 1096.98 1220.61 1107.07 1178.49 L 1072.55 1178.49 C 1072.22 1168.22 1072.52 1156.73 1072.55 1146.37 L 1091.5 1146.37 L 1141.48 1146.37 L 1141.48 1236.99 L 1115.27 1236.99 C 1115.16 1233.29 1115.24 1229.5 1115.27 1225.79 C 997.941 1308.71 937.35 1077.53 1066.99 1066.44 z" fill="rgb(1,1,1)" transform="translate(0,0)"></path>
<path d="M 1191.85 807.086 C 1233.13 799.951 1254.8 825.606 1266.79 862.002 C 1253.7 861.66 1242.23 861.3 1229.15 862.002 C 1220.21 839.419 1200.98 830.653 1177.75 841.203 C 1149.15 854.19 1148.04 936.339 1183.33 945.238 C 1208.98 951.708 1227.72 939.228 1233.68 915.041 C 1221.56 914.872 1209.14 915.022 1197 915.041 C 1196.85 904.518 1196.76 894.53 1197 883.99 L 1219.5 883.99 L 1266.79 883.99 C 1266.76 914.747 1267.34 946.363 1266.79 976.989 L 1241.26 976.989 L 1241.26 961.044 C 1217.98 983.067 1179.63 985.088 1152.67 968.817 C 1102.06 938.276 1108.14 793.897 1191.85 807.086 z" fill="rgb(1,1,1)" transform="translate(0,0)"></path>
<path d="M 1211.78 1071 C 1226.36 1069.85 1235.26 1069.97 1249.8 1071 C 1263.73 1125.24 1290.95 1182.38 1306.97 1236.99 C 1295.62 1237.25 1283.24 1237 1271.8 1236.99 L 1260.8 1205.64 L 1246.5 1205.64 L 1197 1205.64 C 1194.98 1218.3 1192.45 1224.96 1188.21 1236.99 L 1151.94 1236.99 C 1154.2 1226.21 1159.75 1211.68 1163.58 1200.98 L 1185.46 1141.31 C 1191.26 1125.38 1204.63 1084.16 1211.78 1071 z M 1208.43 1176.01 C 1216.16 1176.34 1221.43 1176.37 1229.15 1176.01 L 1249.8 1176.01 C 1247.81 1167.43 1232.55 1113.33 1229.15 1108.8 C 1220.77 1130.25 1216.65 1154.98 1208.43 1176.01 z" fill="rgb(1,1,1)" transform="translate(0,0)"></path>
<path d="M 891.733 1071 C 904.423 1071.5 915.143 1070.12 929.041 1071 C 945.978 1127.18 969.924 1181.69 989.603 1236.99 L 953.823 1236.99 C 950.046 1225.59 946.196 1216.67 941.444 1205.64 C 938.256 1205.87 935.428 1205.73 932.25 1205.64 L 879.563 1205.64 C 874.716 1215.17 872.307 1226.4 866.937 1236.99 L 831.005 1236.99 C 842.175 1204.53 876.052 1097.51 891.733 1071 z M 891.733 1173 L 913.5 1173 L 932.25 1173 C 928.518 1163.85 913.834 1120.09 909.751 1116.75 C 903.739 1131.32 895.596 1157.5 891.733 1173 z" fill="rgb(1,1,1)" transform="translate(0,0)"></path>
<path d="M 1329.61 809.013 C 1343.75 807.739 1352.27 808.107 1366.21 809.013 C 1370.15 829.39 1379.91 848.011 1386.89 867.65 L 1425.34 976.989 C 1412.91 976.741 1401.06 976.808 1388.63 976.989 C 1385.11 968.367 1381.32 955.631 1377.66 946.061 C 1373.37 946.29 1370.51 946.259 1366.21 946.061 C 1360.45 944.976 1323.25 944.817 1317.79 946.061 C 1311.52 958.206 1310.38 963.38 1306.97 976.989 C 1294.77 977.065 1284.43 976.614 1271.8 976.989 C 1276.28 948.757 1318.26 829.981 1329.61 809.013 z M 1347.53 912.403 C 1353.76 912.506 1359.98 912.712 1366.21 912.403 C 1363.66 902.025 1352.04 861.36 1347.53 853.729 C 1341.06 870.998 1330.84 894.448 1329.61 912.403 C 1336.21 912.688 1340.92 912.678 1347.53 912.403 z" fill="rgb(1,1,1)" transform="translate(0,0)"></path>
<path d="M 679.88 1071 C 688.619 1070.22 708.558 1070.92 717.923 1071 C 726.868 1118.96 760.815 1185.47 774.724 1236.99 L 739.314 1236.99 L 728.024 1205.64 L 713.5 1205.64 L 664.797 1205.64 C 660.919 1216.59 657.519 1226.33 652.849 1236.99 C 641.512 1237.47 633.083 1237.74 621.782 1236.99 C 624.337 1213.74 637.919 1183.46 646.295 1160.93 L 679.88 1071 z M 679.88 1173 C 686.225 1173.3 689.95 1173.42 696.333 1173 L 717.923 1173 C 714.679 1163.1 701.891 1121.51 696.333 1116.75 C 689.745 1134.05 681.289 1154.65 679.88 1173 z" fill="rgb(1,1,1)" transform="translate(0,0)"></path>
<path d="M 1579.76 1071 L 1618.01 1071 C 1634.39 1118.47 1657.54 1195.91 1677.98 1236.99 C 1665.38 1236.71 1651.69 1236.98 1639 1236.99 C 1633.33 1222.01 1634.31 1203.11 1618.01 1203 L 1567 1203 C 1564.91 1214.77 1561.77 1225.67 1557.96 1236.99 C 1545.25 1236.49 1535.13 1236.58 1522.41 1236.99 C 1535.73 1188.74 1560.91 1114.94 1579.76 1071 z M 1579.76 1169.49 C 1585.99 1169.89 1592.64 1170.22 1598.86 1169.49 L 1618.01 1169.49 C 1614.38 1161 1600.08 1114.11 1598.86 1112.64 C 1591.7 1128.65 1585.06 1152.42 1579.76 1169.49 z" fill="rgb(1,1,1)" transform="translate(0,0)"></path>
<path d="M 386.124 807.086 C 429.803 804.268 454.674 816.004 462.339 862.002 L 432.225 862.002 C 405.191 809.46 344.411 850.687 379.055 864.854 C 409.106 877.172 460.128 877.851 465.257 919.414 C 469.957 957.504 442.277 974.005 410.219 978.987 C 369.679 979.577 332.18 972.506 330.842 922.004 L 361.025 922.004 C 370.917 955.07 415.494 957.629 428.105 938.412 C 445.05 913.572 394.212 907.855 378.28 903.373 C 319.637 886.876 321.129 818.795 386.124 807.086 z" fill="rgb(1,1,1)" transform="translate(0,0)"></path>
<path d="M 700.407 809.013 L 808.51 809.013 C 808.686 819.34 808.584 829.609 808.51 839.934 L 731.887 839.934 C 731.751 851.161 731.857 862.478 731.887 873.713 L 801.935 873.713 L 801.935 904.543 C 778.763 905.125 755.126 904.602 731.887 904.543 L 731.887 915.041 L 731.887 946.061 L 812.998 946.061 L 812.998 976.989 L 696.333 976.989 C 696.321 960.321 695.287 813.549 697.006 809.544 L 700.407 809.013 z" fill="rgb(1,1,1)" transform="translate(0,0)"></path>
<path d="M 831.005 809.013 L 944.999 809.013 L 944.999 839.934 C 921.676 840.88 890.866 839.98 866.937 839.934 C 865.76 853.431 865.936 860.053 866.937 873.713 L 935.003 873.713 L 935.003 904.543 C 916.573 904.637 885.134 905.672 867.943 903.308 L 866.937 904.543 L 866.937 946.061 C 889.213 946.046 923.902 948.682 944.999 946.061 C 945.882 957.93 945.838 965.12 944.999 976.989 L 831.005 976.989 C 831.015 921.381 830.354 864.516 831.005 809.013 z" fill="rgb(1,1,1)" transform="translate(0,0)"></path>
<path d="M 1643.42 809.013 C 1679.89 804.644 1708.84 820.218 1712.35 857.677 C 1701.53 858.037 1688.95 857.723 1677.98 857.677 C 1666.67 821.001 1622.87 838.034 1626.57 851.388 C 1634.69 880.702 1713.18 864.739 1715.43 925.29 C 1716.79 961.972 1687.53 978.295 1655.32 978.987 C 1619.65 982.482 1590.58 962.302 1588.27 926.005 C 1600.22 925.401 1609.52 925.589 1621.38 926.005 C 1641.46 979.817 1730.49 928.611 1644.55 902.842 C 1564.21 878.756 1583.15 812.488 1643.42 809.013 z" fill="rgb(1,1,1)" transform="translate(0,0)"></path>
<path d="M 386.124 1071 L 491.005 1071 L 491.005 1102.98 C 467.865 1103.44 443.363 1103.03 420.121 1102.98 L 420.121 1139.26 L 484.016 1139.26 C 483.909 1149.42 483.839 1159.32 484.016 1169.49 C 463.418 1169.03 440.851 1169.47 420.121 1169.49 C 420.602 1191.3 420.136 1215.04 420.121 1236.99 C 408.399 1238.07 397.801 1237.5 386.124 1236.99 C 385.145 1223.45 386.069 1197.57 386.076 1182.78 L 386.124 1071 z" fill="rgb(1,1,1)" transform="translate(0,0)"></path>
<path d="M 511.918 1071 L 546.995 1071 L 546.995 1205.64 L 613.23 1205.64 L 613.23 1236.99 C 579.552 1236.92 545.568 1237.62 511.918 1236.99 L 511.863 1119.74 C 511.907 1104.62 510.901 1085.54 511.918 1071 z" fill="rgb(1,1,1)" transform="translate(0,0)"></path>
<metadata><recraft-signature>{"signed_by": "recraft", "signature_b64": "ewDdZuLhh4N9o4WzEvYW2mj0SgORx8JmZAVjDIwU0a78ICuOUhzs1UImMBpIV6fGi4YqSaT4CkWY+WQ+jq/fAg==", "signing_algo": "Ed25519", "generation_timestamp": 1772996350, "identifier": "2652f233-fb8c-443b-b182-a384a2da5dfe"}</recraft-signature></metadata></svg>