<svg xmlns="http://www.w3.org/2000/svg" height="512" preserveAspectRatio="none" style="display: block;" version="1.1" viewBox="0 0 2048 2048" width="512">
<path d="M 1138.75 670.271 C 1158.28 668.15 1192.61 674.436 1212.48 678.195 C 1504.24 733.388 1745.79 983.596 1749.74 1287.76 L 1749.9 1627.93 C 1750.02 1735.8 1714.88 1750.74 1613.73 1750.7 L 1155.06 1750.65 L 1153.9 1750.69 C 1071.94 1752.43 1028.19 1659.58 1085.22 1600.6 C 1114.98 1569.82 1154.27 1575.12 1193.48 1575.12 L 1577.01 1575.11 L 1577.04 1379.71 C 1577.07 1285.91 1580.35 1244.3 1547.99 1155.19 C 1489.57 994.256 1338.58 881.562 1173.54 848.923 C 1145.73 843.41 1119.75 844.725 1096.47 825.981 C 1036.52 777.701 1059.23 679.16 1138.75 670.271 z" fill="rgb(0,0,0)" transform="translate(0,0)"></path>
<path d="M 369.805 281.266 C 410.854 276.342 433.332 301.435 459.149 327.616 L 1021.19 885.526 C 1046.82 910.786 1072.7 936.364 1097.56 962.458 C 1139.73 1014.26 1109.06 1093.32 1042.99 1105.72 C 990.651 1113.46 968.93 1082.78 936.168 1049.75 L 410.028 520.014 C 379.221 488.396 346.249 457.689 316.344 425.277 C 269.164 374.144 296.941 293.726 369.805 281.266 z" fill="rgb(0,0,0)" transform="translate(0,0)"></path>
<metadata><recraft-signature>{"signed_by": "recraft", "signature_b64": "lMhUsw69+8F2MksoxpWbEYu0Nl7wCBvCKNPXYTqZFn575VYdjMTU4D07Ocn03JiCrL+ihCHwEhPp1sNF0vCyDg==", "signing_algo": "Ed25519", "generation_timestamp": 1772998953, "identifier": "ea6a0373-b56e-4831-a7cc-0d251e992ad7"}</recraft-signature></metadata></svg>