<svg xmlns="http://www.w3.org/2000/svg" height="512" preserveAspectRatio="none" style="display: block;" version="1.1" viewBox="0 0 2048 2048" width="512">
<path d="M 759.889 224.988 C 774.097 223.992 803.004 224.925 818.386 224.942 L 1145.75 224.978 C 1183.33 224.969 1221.74 224.674 1259.13 225.058 C 1407.48 226.581 1540.79 335.432 1564.01 482.833 C 1570.63 524.81 1567.03 595.762 1566.82 640.782 C 1566.13 793.037 1418.28 930.419 1267.13 926.594 C 1235.34 975.2 1169.39 1073.55 1147.74 1121.47 L 1576.15 1121.4 C 1635.95 1121.16 1695.59 1126.47 1695.58 1203.11 L 1695.55 1457.19 C 1695.51 1545.29 1672.31 1566.24 1591.13 1566.28 L 1310.19 1566.27 C 1312.32 1624.73 1308.92 1685.86 1310.4 1744.45 C 1312.79 1839.54 1178.77 1855.07 1154.72 1766.06 C 1150.85 1751.76 1152.79 1722.81 1152.82 1707.01 L 1152.85 1277.78 L 1053.58 1277.78 C 1035.51 1316.74 998.918 1367.62 975.12 1405.09 L 777.919 1717.13 C 760.663 1744.61 742.813 1773.79 723.27 1799.76 C 686.924 1848.45 604.955 1823.42 591.054 1766.05 C 579.033 1716.45 644.059 1633.83 671.309 1590.51 C 714.38 1524.31 755.54 1454.9 797.51 1387.76 C 818.984 1353.4 847.518 1311.78 866.277 1277.78 L 471.213 1277.81 C 435.678 1277.8 403.003 1282.61 375.715 1256.07 C 345.997 1227.16 344.341 1177.19 372.882 1147.33 C 402.058 1116.8 447.234 1121.42 485.51 1121.44 L 961.249 1121.47 C 978.838 1090.96 998.262 1061.37 1017 1031.59 L 1140.61 835.257 C 1197.61 745.727 1200.36 779.082 1291.21 765.03 C 1346.27 756.515 1394.21 710.24 1406.44 656.061 C 1411.86 632.048 1412.24 527.945 1408.19 502.83 C 1397.58 437.059 1340.83 391.403 1276.97 382.512 C 1247.01 378.342 1214.97 380.498 1184.71 380.5 L 861.152 380.506 C 767.645 380.409 666.975 377.746 641.568 497.972 C 637.077 519.224 636.633 630.168 640.668 651.648 C 651.27 708.087 697.988 755.248 754.716 765.599 C 781.578 770.501 805.521 765.093 829.591 781.879 C 866.226 807.428 876.488 858.641 849.263 894.993 C 795.652 966.578 654.454 904.846 601.343 863.272 C 481.482 769.447 474.36 647.097 483.487 508.042 C 493.405 356.939 610.166 241.432 759.889 224.988 z M 1310.19 1407 L 1532.99 1407 C 1536.26 1367.81 1528.69 1318.16 1532.99 1279.95 L 1310.19 1279.95 C 1310 1321.8 1309.64 1365.22 1310.19 1407 z" fill="rgb(0,0,0)" transform="translate(0,0)"></path>
<metadata><recraft-signature>{"signed_by": "recraft", "signature_b64": "VI2fChK30wQ5Ib2911OiZ3vYaLqPXo3wNNbA8NngAsf/R6A1qn2b5K2KtmcGFQd8eumM+dUcjqP/z3qY2ttNCw==", "signing_algo": "Ed25519", "generation_timestamp": 1772989696, "identifier": "b7b007fe-c4ae-4ce1-a07e-c63573b6edc7"}</recraft-signature></metadata></svg>