<svg xmlns="http://www.w3.org/2000/svg" height="512" preserveAspectRatio="none" style="display: block;" version="1.1" viewBox="0 0 2048 2048" width="512">
<path d="M 1549.32 741.546 C 1557.85 740.824 1567.83 741.405 1576.35 742.539 C 1732.1 763.272 1827.43 950.99 1850.02 1089.61 C 1852.1 1105.33 1854.01 1120.06 1852.43 1135.95 C 1848.6 1174.54 1803.38 1193.74 1774.5 1166.89 C 1754.97 1148.73 1758.96 1116.54 1754.57 1091.73 C 1743.96 1031.69 1720.8 983.705 1686 934.379 C 1695.61 977.292 1703.37 1026.48 1711.67 1070 L 1736.75 1207.16 C 1741.58 1233.86 1747.16 1261.22 1751.3 1287.99 C 1726.82 1288.26 1702.05 1287.85 1677.49 1287.99 C 1676.42 1346.58 1687.83 1441.65 1693.97 1501.36 C 1700.17 1561.73 1645.28 1594.06 1602.46 1558.16 C 1583.15 1541.96 1581.81 1520.25 1579.94 1496.95 L 1577.2 1462.24 C 1576.03 1412.07 1568.89 1336.59 1561.75 1287.99 C 1554.34 1288.34 1547.88 1288.18 1540.46 1287.99 C 1530.5 1358.67 1523.95 1441.33 1517.69 1512.6 C 1512.05 1589.22 1418.24 1588.72 1407.73 1525.78 C 1405.28 1511.11 1410.64 1477.86 1412.29 1462.02 L 1422.39 1364.64 C 1424.78 1342.29 1428.64 1310.42 1429.08 1287.99 C 1409.38 1286.54 1370.08 1288.02 1348.6 1287.99 C 1350.66 1261.53 1359.84 1221.88 1363.32 1193.63 C 1401.88 1159.69 1401.19 1132.78 1384.45 1086.86 C 1387.09 1076.29 1389.88 1059.19 1391.9 1048.11 L 1405.01 978.314 C 1407.73 964.116 1410.38 948.212 1414.02 934.379 C 1393.72 955.57 1370.3 999.272 1355.62 1025.32 C 1341.52 990.359 1323.43 965.817 1303.44 934.379 C 1364.45 834.787 1416.3 752.943 1549.32 741.546 z" fill="rgb(0,0,0)" transform="translate(0,0)"></path>
<path d="M 1011.31 806.021 C 1178.24 789.043 1298.8 978.297 1345.74 1114.03 C 1365.37 1170.77 1289 1212.15 1259.75 1134.25 C 1239.44 1076.58 1212.17 1028.14 1169.83 983.308 C 1184.71 1093.02 1205.15 1201.06 1230.1 1309 L 1137.93 1309 C 1137.04 1324.24 1137.9 1347.25 1137.91 1363.26 L 1137.97 1472.64 C 1137.98 1490.59 1139.55 1514.75 1136.61 1531.97 C 1127.81 1583.91 1052.61 1585.38 1042.23 1533.99 C 1039.08 1518.42 1041.03 1490.09 1041.02 1473.41 L 1040.95 1365.31 C 1040.97 1347.72 1041.76 1326.24 1041.01 1309 L 1006 1309 L 1005.99 1521.7 C 1005.4 1586.37 918.349 1583.51 910.768 1535.45 C 907.676 1515.85 909.365 1482.71 909.371 1461.95 L 909.41 1309 L 820.571 1309 C 821.859 1296.24 825.719 1280.83 828.404 1268.06 L 843.817 1196.17 C 858.745 1127.88 873.516 1052.36 877.875 983.308 C 843.978 1016.89 815.911 1062.21 796.916 1105.87 C 784.586 1134.21 782.119 1171.08 744.781 1177.33 C 701.943 1184.5 690.714 1139.83 704.81 1104.46 C 759.452 966.211 847.244 820.104 1011.31 806.021 z" fill="rgb(0,0,0)" transform="translate(0,0)"></path>
<path d="M 473.001 746.55 C 614.248 738.272 682.646 827.931 745.724 934.379 C 723.157 962.9 706.019 1001.63 686.711 1032.83 C 672.535 1004.41 651.313 967.081 630.999 942.385 L 631.017 1465.39 C 631.042 1488.21 635.276 1519.85 624.945 1540.08 C 600.802 1587.37 526.225 1579.38 514.239 1527.77 C 510.737 1512.69 512.869 1475.17 512.876 1457.81 L 512.878 1290.33 C 512.81 1266.87 513.591 1242.65 512.669 1219.26 C 511.715 1195.05 486.797 1190.81 473.001 1210.49 C 472.166 1257.13 472.978 1306.6 473.001 1353.5 L 473.061 1463.13 C 473.067 1482.03 474.694 1507.52 471.264 1525.36 C 462.298 1572.01 402.773 1586.52 369.952 1554.44 C 347.173 1532.18 354.35 1491.2 354.354 1462.11 L 354.378 942.385 C 326.154 973.133 302.238 1047.33 296.794 1089.03 C 292.888 1108.96 295.3 1137.04 284.444 1154.89 C 254.391 1200.53 188.776 1180.63 197.115 1104.69 C 215.252 939.436 299.542 781.079 473.001 746.55 z" fill="rgb(0,0,0)" transform="translate(0,0)"></path>
<path d="M 1545.5 473.559 C 1612.05 467.571 1670.88 516.627 1676.94 583.175 C 1683.01 649.723 1634.02 708.605 1567.48 714.747 C 1500.83 720.9 1441.83 671.814 1435.75 605.156 C 1429.68 538.499 1478.83 479.556 1545.5 473.559 z" fill="rgb(0,0,0)" transform="translate(0,0)"></path>
<path d="M 476.131 474.847 C 542.449 466.178 603.234 512.922 611.885 579.242 C 620.537 645.563 573.778 706.336 507.455 714.97 C 441.157 723.602 380.41 676.863 371.762 610.567 C 363.113 544.27 409.836 483.512 476.131 474.847 z" fill="rgb(0,0,0)" transform="translate(0,0)"></path>
<path d="M 1009.79 534.875 C 1075.97 526.884 1136.14 573.943 1144.33 640.098 C 1152.52 706.253 1105.64 766.562 1039.51 774.948 C 973.098 783.369 912.478 736.248 904.255 669.814 C 896.031 603.379 943.333 542.9 1009.79 534.875 z" fill="rgb(0,0,0)" transform="translate(0,0)"></path>
<metadata><recraft-signature>{"signed_by": "recraft", "signature_b64": "jB42ySyH1dZQU/6GpnHlTZath0XPga0NoG8Zz41X23fAkULmwwmvZrxFit3Px1a4WULXONQ/L3ZXTPLPWIL0Cw==", "signing_algo": "Ed25519", "generation_timestamp": 1773000499, "identifier": "02d58e2b-fe07-4d2d-bf69-2ebfcddd9811"}</recraft-signature></metadata></svg>