<svg xmlns="http://www.w3.org/2000/svg" height="512" preserveAspectRatio="none" style="display: block;" version="1.1" viewBox="0 0 2048 2048" width="512">
<path d="M 857.704 215.51 C 946.873 208.525 1031.66 277.508 1047.71 364.267 C 1051.31 383.782 1050.04 406.214 1050.04 426.187 L 1050 655.639 C 1050.02 677.074 1050.99 703.457 1050 724.223 C 1076.08 725.838 1118.62 733.03 1145.51 736.755 L 1336.51 764.109 C 1418.77 776.222 1506.87 772.647 1568.19 836.502 C 1612.6 882.752 1625.66 923.457 1625.98 985.987 L 1626 1515.25 C 1626.01 1545.38 1627.76 1581.44 1621.65 1610.42 C 1605.52 1686.85 1542.21 1751.41 1465.5 1767.36 C 1431.91 1774.34 1390 1771.72 1355.04 1771.72 L 1197.25 1771.73 L 901.208 1771.77 C 841.207 1771.72 778.441 1763.66 736.425 1714.48 C 675.689 1643.39 618.933 1566.69 559.27 1494.62 L 499.773 1421.45 C 486.955 1405.67 473.268 1389.62 461.405 1373.37 C 406.9 1298.68 410.074 1189.83 473.88 1121.64 C 502.55 1090.99 631.815 1026.29 677.052 1008.02 C 678.556 961.332 677.079 905.303 677.075 858.058 L 677.01 451.753 C 676.991 324.457 715.446 227.542 857.704 215.51 z M 1084.82 1622.1 L 1387.86 1622.23 C 1479.95 1623.12 1473.73 1590.83 1473.69 1509.52 L 1473.65 986.531 C 1473.22 923.579 1443.77 925.777 1390.23 919.695 L 999.448 872.001 C 933.005 865.09 898.855 858.439 898.118 785.599 L 898.147 441.706 C 898.247 416.149 903.608 363.97 862.778 367.33 C 844.242 370.385 831.019 381.129 830.915 400.703 L 831.006 1214.04 C 831.068 1249.43 839.838 1295.09 794.234 1305.91 C 766.422 1312.22 674.665 1238.12 649.392 1221.25 C 588.249 1180.44 553.153 1246.65 580.422 1279.46 C 639.192 1351.03 698.752 1423.25 754.96 1496.84 L 804.537 1560.94 C 861.599 1634.46 859.035 1622.14 945.938 1622.13 L 1084.82 1622.1 z" fill="rgb(0,0,0)" transform="translate(0,0)"></path>
<metadata><recraft-signature>{"signed_by": "recraft", "signature_b64": "fpHgfT5P1jMAWhRbKfkWQAbOjN/F5UGwiWli/LsJNLMuUatDNC8FcQ5QzkLNHtxYh9bytJOfUi3HJkroaYzsBg==", "signing_algo": "Ed25519", "generation_timestamp": 1773000536, "identifier": "e419041e-0bfd-43d2-b0e4-dd389de92f39"}</recraft-signature></metadata></svg>