<svg xmlns="http://www.w3.org/2000/svg" height="512" preserveAspectRatio="none" style="display: block;" version="1.1" viewBox="0 0 2048 2048" width="512">
<path d="M 725.029 510.158 C 724.913 431.471 715.738 367.573 777.128 305.35 C 835.78 244.234 904.991 254.863 981.023 254.088 C 1046.88 253.418 1095.33 256.438 1145.3 306.356 C 1205.08 366.065 1194.75 433.572 1194.64 510.158 L 1442.17 510.096 C 1540.03 510.138 1533.73 555.632 1533.74 642.02 L 1533.69 771.038 C 1870.77 767.597 1877.83 1269.32 1533.69 1278.5 L 1533.71 1370.67 C 1533.73 1385.19 1534.66 1403.05 1533.69 1417.03 C 1566.4 1447.17 1597.64 1480.82 1629.27 1512.22 C 1674.95 1556.5 1718.86 1603.4 1764.6 1647.67 C 1840.74 1721.35 1738.24 1836.19 1658.99 1774.26 C 1649.93 1767.16 1640.54 1757.04 1632.22 1748.79 L 311.027 423.768 C 286.338 399.295 257.387 378.031 254.495 341.108 C 250.72 292.906 282.57 258.668 329.721 254.128 C 377.222 253.396 394.872 282.064 425.08 312.232 L 590.241 478.504 C 599.224 487.545 614.334 503.983 624.208 510.158 C 637.978 512.404 711.741 511.765 725.029 510.158 z M 799.591 681.843 C 810.145 698.302 850.015 736.591 865.805 752.523 L 1253.9 1141.56 C 1291.04 1178.46 1329.55 1218.79 1367.42 1254.76 C 1367.35 1228.29 1364.48 1188.06 1373.85 1164.34 C 1424.44 1047.93 1561.64 1164.34 1611.98 1059.91 C 1630.46 1017.86 1608.72 965.917 1564.97 950.948 C 1511.53 932.666 1450.5 963.156 1401.92 925.337 C 1356.67 890.103 1363.89 849.838 1364 798.885 L 1364.03 681.843 L 1130.26 681.901 C 1046.14 682.747 1028.75 654.45 1028.96 574.748 L 1029.09 522.386 C 1029.17 484.113 1027.6 452.738 984.765 436.562 C 978.073 434.036 966.863 430.803 959.742 432.41 C 905.004 437.913 895.125 474.739 895.332 522.224 L 895.572 576.439 C 895.691 641.987 882.072 689.696 799.591 681.843 z" fill="rgb(34,35,42)" transform="translate(0,0)"></path>
<path d="M 539.736 1023.62 L 554.554 1023.62 L 554.554 1365.42 C 575.411 1366.17 600.775 1365.46 622 1365.45 L 746.716 1365.49 C 839.003 1365.38 891.165 1362.32 890.948 1474.44 L 890.832 1526.59 C 890.81 1537.69 890.43 1548.91 891.553 1559.91 C 897.044 1613.64 962.887 1640.64 1004.34 1604.96 C 1068.83 1549.44 976.424 1402.29 1097.21 1384.05 C 1104.02 1388.53 1131.36 1416.84 1138.82 1424.41 L 1198.46 1484.33 C 1213.83 1499.95 1233.76 1521.08 1250.19 1535.19 C 1229.59 1538.41 1215.16 1537.56 1194.64 1535.19 C 1194.6 1565.58 1196.51 1624.32 1190.89 1651.78 C 1183.84 1721.99 1106.17 1785.9 1037.37 1790.38 C 959.913 1795.42 849.153 1800.3 790.035 1749.8 C 710.189 1681.58 734.056 1620.7 725.029 1535.19 L 544.687 1535.23 C 433.699 1535.23 382.884 1548.35 382.956 1409.81 L 383.003 1023.62 C 398.866 1022.93 419.492 1023.58 435.698 1023.58 L 539.736 1023.62 z" fill="rgb(34,35,42)" transform="translate(0,0)"></path>
<metadata><recraft-signature>{"signed_by": "recraft", "signature_b64": "PQq38P4PLtQgIirm/MBS4XWNIvMUn+8J70ifibvPg/QpeOqBUyEGGjsTnF+UvG21uFA1Mr8hzw72htLe2TPSAQ==", "signing_algo": "Ed25519", "generation_timestamp": 1772990080, "identifier": "6e0213a7-d582-4862-855b-4a58900edd70"}</recraft-signature></metadata></svg>