<svg xmlns="http://www.w3.org/2000/svg" height="512" preserveAspectRatio="none" style="display: block;" version="1.1" viewBox="0 0 2048 2048" width="512">
<path d="M 712.271 270.003 L 1273.91 269.973 C 1300.31 269.965 1331.9 268.37 1357.34 272.909 C 1428.63 285.63 1486.88 349.716 1485.92 423.196 L 1486.03 1069.44 C 1486.02 1106.65 1488.11 1149.69 1481.29 1185.81 C 1460.68 1290.73 1364.12 1375.92 1256.33 1377.8 C 1203.69 1378.72 1151.36 1377.05 1099.08 1378 C 1100.32 1454.66 1098.81 1534.03 1099.08 1611 C 1154.66 1611.59 1210.37 1610.23 1265.93 1611.24 C 1285.6 1611.6 1281.15 1640.95 1281.13 1654.04 L 1281 1709.5 C 1280.57 1780.14 1281.56 1766.06 1211.31 1766.05 L 779.342 1766.02 C 759.03 1752.81 767.575 1655.15 768.077 1629.66 C 768.628 1601.73 814.008 1610.92 835.531 1610.93 L 946.855 1611 L 946.855 1378 L 844.296 1378.05 C 739.45 1378.08 657.726 1364.68 596.358 1263.76 C 561.477 1206.4 562.962 1156.25 563.001 1092.65 L 563.026 495.808 C 563.015 471.717 562.874 446.475 562.448 423.225 C 560.828 334.671 629.076 277.355 712.271 270.003 z M 721.006 1069.06 L 1321.99 1069.06 C 1335.02 1068.78 1328.54 1008.45 1328.54 993.988 L 1328.51 429.997 C 1305.59 430.807 1283.54 430.033 1260.66 430.008 L 730.966 429.997 C 712.972 430.706 720.921 452.94 720.945 473.19 L 721.006 1069.06 z" fill="rgb(0,0,0)" transform="translate(0,0)"></path>
<metadata><recraft-signature>{"signed_by": "recraft", "signature_b64": "3tEVRgw+gPlxN6tkeZ1QkGZf4VvgzwK50EuzfPim5QOxPjvo0/LXkgM1iZrH6tb0+aS7e9jnEBMh/9EJAaZfDw==", "signing_algo": "Ed25519", "generation_timestamp": 1772996533, "identifier": "6408ef88-c28d-4f0d-9ef0-2ff38b98421f"}</recraft-signature></metadata></svg>