<svg xmlns="http://www.w3.org/2000/svg" height="512" preserveAspectRatio="none" style="display: block;" version="1.1" viewBox="0 0 2048 2048" width="512">
<path d="M 884.519 222.397 C 938.535 217.464 977.086 246.035 1012.56 280.884 L 1251.62 520.186 C 1308.82 577.409 1391.68 649.263 1441.34 711.167 C 1470.51 747.534 1474.22 805.65 1451.69 846.052 C 1438.44 869.8 1410.29 894.385 1390.37 914.387 L 1342.66 962.947 C 1327.28 978.45 1310.78 994.507 1296.47 1010.92 C 1308.1 1020.87 1320.84 1034.23 1331.86 1045.22 L 1781.25 1491.16 C 1848.02 1556.2 1834.74 1630.79 1774.92 1691.46 L 1716 1750.56 C 1616.98 1849.78 1562.24 1848.66 1463.49 1751.01 C 1425.62 1713.57 1388.16 1675.53 1350.5 1637.9 L 1231.35 1517.85 C 1157.43 1444.82 1081.28 1371.27 1009.21 1296.6 C 997.154 1306.7 986.612 1318.49 975.455 1329.65 L 908.036 1397.47 C 821.463 1484.09 757.319 1486.33 673.385 1402.05 L 304.185 1032.83 C 281.572 1010.24 252.032 985.582 236.834 957.818 C 189.741 871.781 238.167 777.443 326.385 745.499 C 414.754 710.062 503.387 675.321 592.094 640.759 C 603.494 636.314 618.05 630.711 628.562 624.897 C 639.644 600.693 649.087 575.52 658.883 550.725 L 730.558 366.71 C 762.754 284.546 785.854 230.281 884.519 222.397 z M 1111.59 1197 C 1143.26 1231.93 1186.08 1272.84 1219.92 1306.49 L 1567.4 1652 C 1573.33 1657.81 1583.44 1668.48 1589.16 1673.25 C 1617.87 1644.94 1647.29 1615.86 1674.11 1585.86 L 1234.56 1147.89 C 1226.83 1140.1 1203.43 1114.24 1196.7 1109.63 C 1168.25 1139.66 1139.68 1167.43 1111.59 1197 z" fill="rgb(0,0,0)" transform="translate(0,0)"></path>
<path d="M 403.534 934.504 C 379.628 911.388 338.758 884.093 395.282 868.417 C 404.345 865.903 425.559 856.861 435.563 852.971 L 632.912 776.084 C 752.198 728.956 734.307 741.433 781.995 620.506 L 859.185 424.814 C 889.201 350.347 880.586 339.594 939.355 401.618 C 990.15 454.206 1041.35 504.347 1093.08 555.809 L 1320.76 783.456 L 837.156 1265.68 C 821.24 1281.43 802.516 1301.4 786.439 1316.3 C 753.604 1281.95 718.355 1247.68 684.565 1214.11 L 535.084 1066.18 C 491.403 1023.22 448.145 976.238 403.534 934.504 z" fill="rgb(230,230,229)" transform="translate(0,0)"></path>
<path d="M 403.534 934.504 C 379.628 911.388 338.758 884.093 395.282 868.417 C 404.345 865.903 425.559 856.861 435.563 852.971 L 632.912 776.084 C 752.198 728.956 734.307 741.433 781.995 620.506 L 859.185 424.814 C 889.201 350.347 880.586 339.594 939.355 401.618 C 933.362 412.271 923.533 441.967 918.727 455.136 L 886.432 542.374 C 858.123 620.816 825.702 706.426 793.797 783.456 C 783.22 789.025 770.021 791.687 758.582 795.245 C 669.053 823.088 577.214 865.548 489.679 900.387 C 477.495 905.236 408.908 929.711 403.534 934.504 z" fill="rgb(204,203,203)" transform="translate(0,0)"></path>
<metadata><recraft-signature>{"signed_by": "recraft", "signature_b64": "Xlb6H9woRYJt0Nry4nqmfcCVYQHPqmhjb37DpMR9kO18PFPkdjoL8wWSpgWgAib78Byl2CX0XFSlOduOhsaTCw==", "signing_algo": "Ed25519", "generation_timestamp": 1773000637, "identifier": "8e92a417-49be-40f1-a503-975d67f9af48"}</recraft-signature></metadata></svg>