<svg xmlns="http://www.w3.org/2000/svg" height="512" preserveAspectRatio="none" style="display: block;" version="1.1" viewBox="0 0 2048 2048" width="512">
<path d="M 300.017 300.943 L 1586.85 300.945 C 1640.21 300.944 1694.37 300.407 1747.65 300.943 L 1747.65 1546.97 C 1747.66 1611.51 1748.7 1678.49 1747.65 1742.75 L 1747.39 1745.01 C 1744.03 1746.72 1602.33 1745.98 1584.28 1745.98 L 300.017 1746 L 300.017 300.943 z M 937.953 384.025 L 937.955 753.842 C 937.953 813.607 936.568 878.239 937.953 937.527 C 892.638 936.824 845.477 937.526 799.982 937.533 L 382.995 937.527 L 382.995 1109.98 L 937.953 1109.98 L 937.953 1662.98 L 1084.5 1662.98 C 1092.86 1662.97 1101.73 1662.8 1110.04 1662.98 L 1110.04 1109.98 L 1605.28 1109.94 C 1620.56 1109.93 1648.54 1108.89 1662.55 1109.98 L 1662.55 937.527 C 1626.52 937.006 1589.45 937.532 1553.31 937.537 L 1185.95 937.518 C 1161.41 937.508 1134.29 936.714 1110.04 937.527 L 1110.04 384.025 L 962.489 384.025 C 954.894 384.14 945.372 384.53 937.953 384.025 z M 382.995 1662.98 L 854.019 1662.98 L 854.019 1193.98 L 540.776 1193.96 C 488.489 1193.96 435.223 1193.42 382.995 1193.98 L 382.949 1614.04 C 382.929 1626.8 382.004 1651.34 382.995 1662.98 z M 382.995 384.025 L 382.995 854.948 L 854.019 854.948 L 854.019 384.025 L 433.472 384.01 C 419.107 384.006 396.533 383.218 382.995 384.025 z M 1193.04 854.948 L 1658.15 854.948 L 1660.51 854.825 C 1663.97 850.727 1662.52 802.69 1662.51 793.404 L 1662.55 384.025 L 1199.23 384.025 L 1194.55 384.595 C 1192.35 388.043 1193.24 443.275 1193.2 449.991 L 1193.04 854.948 z M 1193.04 1662.98 L 1506.53 1662.98 C 1556.95 1662.98 1612.47 1661.79 1662.55 1662.98 C 1663.28 1661.13 1662.55 1584.9 1662.55 1576.53 L 1662.55 1193.98 L 1193.04 1193.98 L 1193.05 1612.08 C 1193.06 1627.51 1193.88 1648.09 1193.04 1662.98 z" fill="rgb(0,0,0)" transform="translate(0,0)"></path>
<metadata><recraft-signature>{"signed_by": "recraft", "signature_b64": "7kUYEdevvPSwyNPn5MMT28XoBqhsrtuRzzD/qB7zXR3sV3OH0gi8bEu/lHc3zJo3VLbXD1XgSzokN3NxSDyFDA==", "signing_algo": "Ed25519", "generation_timestamp": 1772997150, "identifier": "3746d6c2-b660-4061-9428-68d949e2f7d3"}</recraft-signature></metadata></svg>