<svg xmlns="http://www.w3.org/2000/svg" height="512" preserveAspectRatio="none" style="display: block;" version="1.1" viewBox="0 0 2048 2048" width="512">
<path d="M 925.621 301.515 C 991.059 301.311 1057.71 302.373 1123 301.515 C 1121.49 318.543 1122.95 345.535 1122.98 363.856 L 1123 913 L 1758.04 913 L 1758.04 1125.03 L 1123 1125.03 C 1123 1181.56 1123.96 1744.18 1123 1746.22 L 925.621 1746.22 C 924.682 1726.39 925.609 1699.49 925.614 1679.11 L 925.621 1125.03 L 289.992 1125.03 C 290.001 1055.03 289.039 982.787 289.992 913 L 925.621 913 L 925.619 504.127 C 925.619 437.388 924.707 368.097 925.621 301.515 z" fill="rgb(0,0,0)" transform="translate(0,0)"></path>
<path d="M 289.992 1238.44 L 641.846 1238.43 C 695.811 1238.43 756.479 1239.82 809.989 1238.44 L 809.989 1650.24 C 809.989 1658.5 810.533 1744.86 809.989 1746.22 C 792.402 1746.85 771.281 1746.25 753.374 1746.25 L 289.992 1746.22 C 288.864 1691.3 289.974 1632.08 289.977 1576.91 L 289.992 1238.44 z" fill="rgb(0,0,0)" transform="translate(0,0)"></path>
<path d="M 1356.75 1238.44 L 1624.34 1238.44 C 1667.56 1238.44 1715.11 1239.44 1758.04 1238.44 C 1758.72 1254.96 1758.06 1276.43 1758.06 1293.42 L 1758.04 1746.22 L 1642.75 1746.22 L 1239.03 1746.22 C 1238.32 1730.03 1239 1708.1 1239 1691.42 L 1239.03 1238.44 L 1356.75 1238.44 z" fill="rgb(0,0,0)" transform="translate(0,0)"></path>
<path d="M 299.877 301.515 L 809.989 301.515 L 809.97 746.638 C 809.939 762.441 816.498 797.103 801.25 796.883 L 289.992 796.883 L 289.992 301.515 L 299.877 301.515 z" fill="rgb(0,0,0)" transform="translate(0,0)"></path>
<path d="M 1243.57 301.515 C 1260.68 300.803 1282.78 301.5 1300.23 301.503 L 1758.04 301.515 C 1758.84 311.665 1758.19 325.283 1758.13 335.76 L 1757.97 740.201 C 1757.96 757.777 1766.33 795.903 1750.5 796.883 L 1294.01 796.874 C 1276.23 796.858 1256.38 795.958 1239.03 796.883 L 1239.09 362.473 C 1239.09 354.102 1237.79 307.461 1240.29 302.273 L 1243.57 301.515 z" fill="rgb(0,0,0)" transform="translate(0,0)"></path>
<metadata><recraft-signature>{"signed_by": "recraft", "signature_b64": "KFMIkjQA5iOQmgdUkM8b43qoS30onPC30wFY7dx6TNl/S2aIkoRT/bBoAJleCw7/Uu7PqMDCSS3sfL2gsNRHDw==", "signing_algo": "Ed25519", "generation_timestamp": 1772997675, "identifier": "6cbd9a0c-b205-4555-98f9-373f9c1d1ce4"}</recraft-signature></metadata></svg>