<svg xmlns="http://www.w3.org/2000/svg" height="512" preserveAspectRatio="none" style="display: block;" version="1.1" viewBox="0 0 2048 2048" width="512">
<path d="M 978.876 229.833 C 1051.27 227.126 1156.84 226.14 1228.66 232.247 C 1515.78 256.661 1759.07 487.354 1766.94 780.779 C 1768.25 829.426 1767.01 879.502 1767.01 928.422 L 1767.01 1336.36 C 1767.2 1441.39 1764.43 1467.17 1654.36 1467.08 L 1174.96 1467.01 C 1173.32 1485.91 1174.93 1516.24 1174.97 1536.86 L 1175.03 1680.69 C 1175.02 1701.69 1176.83 1732.08 1172.86 1752.06 C 1156.77 1833.21 1023.08 1838.09 1025.34 1725.46 L 1025.24 1427.01 C 1025.31 1330.91 1052.82 1319.88 1143.98 1319.94 L 1617.01 1319.99 L 1617.05 840.588 C 1617.04 813.669 1617.73 786.626 1615.51 759.897 C 1603.04 609.544 1507.12 489.384 1375.64 423.206 C 1275.98 374.887 1188.04 378.148 1080.72 378.775 C 1024.18 379.106 965.44 375.552 909.986 384.762 C 754.337 410.615 621.828 525.291 573.906 675.532 C 659.673 707.311 720.59 757.464 739.21 853.423 C 745.303 884.822 743.03 935.682 743.027 969.642 L 743.062 1276.58 C 743.06 1356.4 742.681 1391.02 693.651 1462.9 C 707.354 1478.74 722.652 1492.44 737.573 1507.07 L 799.121 1568.38 C 809.311 1578.56 820.054 1588.63 829.523 1599.39 C 873.684 1649.58 834.914 1727.02 768.169 1722.23 C 734.445 1719.81 718.753 1699.96 696.477 1677.72 L 597.027 1578.79 C 587.863 1569.76 573.384 1556.59 565.477 1547.18 C 460.241 1566.37 363.483 1522.44 310.401 1429.31 C 276.612 1370.03 280 1324.68 279.997 1260.16 L 280.015 964.143 C 279.958 833.025 283.941 756.569 414.231 684.026 C 417.699 663.027 424.979 642.518 431.937 622.492 C 511.611 393.193 733.989 228.748 978.876 229.833 z M 516.726 1401.95 C 608.125 1391.39 596.532 1310.52 596.555 1243.76 L 596.541 957.811 C 596.53 934.897 597.142 910.837 595.567 888.08 C 592.677 846.32 546.537 810.032 505.717 814.408 C 422.385 822.646 426.604 895.675 426.603 958.388 L 426.599 1242.85 C 426.574 1270.46 425.843 1298.46 427.41 1325.98 C 430.057 1372.42 472.425 1402.3 516.726 1401.95 z" fill="rgb(0,0,0)" transform="translate(0,0)"></path>
<metadata><recraft-signature>{"signed_by": "recraft", "signature_b64": "pgiX5GWzbjACmK7js1cYm7wwpInZ8EQM/cEKEb9R2DjrJCQDDKKOqMikF1GMzZa0FOR7xK2ucPvLlx3vVp6mAw==", "signing_algo": "Ed25519", "generation_timestamp": 1772989687, "identifier": "b981af31-7603-4d76-87c5-18aa8f15d28b"}</recraft-signature></metadata></svg>