<svg xmlns="http://www.w3.org/2000/svg" height="512" preserveAspectRatio="none" style="display: block;" version="1.1" viewBox="0 0 2048 2048" width="512">
<path d="M 1013.73 983.292 C 1160.28 970.82 1276.04 1122.62 1236.09 1264.03 C 1224.23 1306.01 1207.11 1333.09 1176.36 1365.55 C 1288.09 1421.09 1360.59 1529.5 1361.98 1654.73 C 1362.74 1723.74 1305.33 1769.16 1239.93 1763.45 C 1225.34 1762.17 1204.17 1763.46 1189.1 1763.46 L 1039.25 1763.42 L 867.235 1763.43 C 800.226 1763.44 720.224 1774.9 692.426 1692.4 C 654.241 1579.08 765.182 1405.07 871.775 1365.55 C 863.271 1353.77 852.754 1343.48 844.353 1331.76 C 741.145 1187.85 839.408 997.584 1013.73 983.292 z M 781.999 1666.42 L 1031.25 1666.42 L 1240.13 1666.37 C 1247.51 1666.34 1258.81 1665.81 1265.89 1666.42 C 1272.85 1533.83 1150.3 1417.1 1019.1 1423.53 C 887.352 1431.88 779.913 1529.28 781.999 1666.42 z M 1037.52 1327.33 C 1106.09 1320.24 1155.99 1259 1149.08 1190.41 C 1142.17 1121.82 1081.05 1071.77 1012.44 1078.51 C 943.591 1085.27 893.32 1146.66 900.258 1215.49 C 907.196 1284.32 968.707 1334.44 1037.52 1327.33 z" fill="rgb(0,0,0)" transform="translate(0,0)"></path>
<path d="M 1523.76 535.001 C 1575.48 530.003 1641.93 555.144 1680.87 588.585 C 1781.56 675.063 1781.28 813.241 1696.34 909.573 C 1791.13 968.194 1854.53 1045.96 1860.68 1163.56 C 1862.62 1200.79 1861.49 1231.05 1835.9 1260.35 C 1799.36 1302.17 1745.69 1290.95 1694.72 1290.96 L 1425.3 1290.95 C 1407.13 1290.95 1382.24 1292.18 1365.18 1289.7 C 1327.76 1283.21 1314.53 1234.57 1340.5 1209.03 C 1361.52 1188.36 1411.82 1194.97 1440.5 1195.06 L 1659.15 1195.06 C 1695.02 1195.07 1732.93 1195.77 1768.62 1195.06 C 1771.59 1011.11 1566.08 907.927 1414.94 1001.73 C 1386.66 1016.85 1368.38 1050.54 1331.97 1038.48 C 1297.37 1027.01 1287.28 980.228 1313.76 955.689 C 1333.33 937.558 1357.76 921.309 1382.15 909.573 C 1347.8 869.206 1323.7 838.22 1318.43 783.332 C 1305.31 646.744 1393.18 550.941 1523.76 535.001 z M 1551.6 877.274 C 1619.66 869.278 1668.33 807.58 1660.26 739.523 C 1652.19 671.466 1590.44 622.865 1522.39 631.012 C 1454.45 639.147 1405.94 700.781 1414 768.731 C 1422.06 836.681 1483.64 885.258 1551.6 877.274 z" fill="rgb(0,0,0)" transform="translate(0,0)"></path>
<path d="M 491.984 537.042 C 692.285 524.298 808.176 763.082 658.65 909.573 C 683.179 923.117 705.829 935.348 728.365 952.699 C 770.568 985.194 736.716 1050.36 686.887 1036.06 C 672.661 1031.98 660.282 1019.21 648.015 1011.09 C 494.847 898.227 266.105 1009.06 280.988 1199 L 572.5 1199 L 650.589 1199 C 660.48 1199 677.827 1198.07 686.959 1199.77 C 737.078 1209.13 731.667 1288.87 680.811 1290.77 C 664.342 1291.38 648.065 1290.97 631.764 1290.96 L 380.504 1290.95 C 350.341 1290.94 279.489 1294.17 253.924 1286.2 C 171.257 1260.43 182.857 1156.08 203.61 1091.14 C 229.407 1010.41 282.736 948.248 357.86 909.573 C 233.049 766.112 298.74 559.945 491.984 537.042 z M 521.494 874.635 C 589.36 868.209 639.113 807.901 632.523 740.051 C 625.934 672.2 565.507 622.592 497.673 629.344 C 430.068 636.073 380.664 696.251 387.231 763.872 C 393.798 831.493 453.858 881.04 521.494 874.635 z" fill="rgb(100,47,183)" transform="translate(0,0)"></path>
<path d="M 1005.06 264.118 C 1125.12 253.01 1231.48 341.297 1242.67 461.359 C 1253.85 581.421 1165.63 687.835 1045.58 699.096 C 925.414 710.368 818.883 622.051 807.688 501.881 C 796.494 381.711 884.878 275.236 1005.06 264.118 z M 1041.46 604.173 C 1109.5 594.759 1157.02 531.974 1147.61 463.937 C 1138.2 395.9 1075.41 348.375 1007.38 357.784 C 939.337 367.195 891.808 429.981 901.221 498.021 C 910.633 566.06 973.421 613.587 1041.46 604.173 z" fill="rgb(100,47,183)" transform="translate(0,0)"></path>
<metadata><recraft-signature>{"signed_by": "recraft", "signature_b64": "PFB/L6iafHOP7BZTcvwJGECS0N7JNvjKqEVFv+raGfZD5N7vK3SEdBOFwg0m1jwYH+crPH5KxP/o6eqmNfINAg==", "signing_algo": "Ed25519", "generation_timestamp": 1772999697, "identifier": "c29d7ee9-aa7f-45d4-a0f5-ac0928ef63cc"}</recraft-signature></metadata></svg>