<svg xmlns="http://www.w3.org/2000/svg" height="512" preserveAspectRatio="none" style="display: block;" version="1.1" viewBox="0 0 2048 2048" width="512">
<path d="M 1534.02 303.038 C 1640.86 294.289 1756.38 384.323 1749.6 496.372 C 1747.64 528.783 1737 570.447 1730.47 603.18 L 1544.33 1503.5 C 1522.19 1611.82 1416.31 1682.38 1307.98 1657.94 L 669.458 1509.09 C 597.571 1480.45 502.495 1478.92 429.357 1452.14 C 332.934 1416.85 300.802 1335.73 300.975 1241.72 L 300.982 666.606 C 300.912 580.997 316.789 524.502 385.404 471.826 C 436.232 432.805 495.291 432.907 556.309 425.316 L 1534.02 303.038 z M 652.347 1350.15 L 1322.47 1505.24 C 1363.25 1514.46 1388.65 1512.18 1398.4 1464.58 L 1550.42 735.023 C 1565.73 657.372 1585.06 579.969 1599.1 501.991 C 1603.81 475.82 1576.95 443.748 1551.64 450.441 C 1529.06 452.724 1505.31 456.319 1482.66 459.169 L 557.678 574.317 C 482.146 583.268 448.957 581.819 449.368 675.071 L 449.317 1222.35 C 448.998 1317.35 470.239 1306.16 545.441 1325.5 C 580.156 1333.21 617.609 1343.58 652.347 1350.15 z" fill="rgb(0,0,0)" transform="translate(0,0)"></path>
<path d="M 1309.92 632.392 C 1363.97 622.455 1409.43 690.362 1372.98 740.826 C 1340.02 786.466 1305.82 831.217 1271.63 876.027 L 1053.74 1162.94 C 1041.18 1179.4 1029.72 1196.25 1016.48 1212.51 C 996.998 1236.43 964.174 1225.5 960.292 1195.69 C 959.249 1187.68 960.061 1177.02 960.054 1168.6 L 960.007 1050.29 C 960.104 1011.84 1034.64 934.32 1060.45 899.393 C 1066.73 892.277 1075.45 880.207 1081.26 872.437 C 1053.45 884.701 1011.06 897.203 981.438 907.229 C 921.585 927.487 907.383 943.03 842.715 942.969 L 783.589 942.863 C 750.389 942.802 716.573 944.207 683.573 941.305 C 622.973 934.355 635.234 876.463 683.881 857.695 C 718.024 844.523 753.363 832.331 787.642 819.737 L 1227.81 659.898 C 1245.14 653.661 1295.19 634.077 1309.92 632.392 z" fill="rgb(0,0,0)" transform="translate(0,0)"></path>
<metadata><recraft-signature>{"signed_by": "recraft", "signature_b64": "V78aejjk9+4JSvY+MbzWRM+JZHnrkGXB2yptVGn6fZejHt8nzZf+oXGkUFOZGJbE1QL7EYgTrjR15M1Tg4xsCg==", "signing_algo": "Ed25519", "generation_timestamp": 1772999652, "identifier": "011c1641-b752-492c-855f-c67fb183eb09"}</recraft-signature></metadata></svg>