<svg xmlns="http://www.w3.org/2000/svg" height="512" preserveAspectRatio="none" style="display: block;" version="1.1" viewBox="0 0 2048 2048" width="512">
<path d="M 1322.47 220.505 C 1409.89 218.593 1484.4 275.027 1498.76 363.496 C 1503.11 390.338 1500.99 422.286 1500.96 449.894 L 1500.97 1110.1 C 1513.09 1118.01 1525.51 1124.88 1537.67 1133.29 C 1640.39 1204.31 1702.45 1321.18 1703.07 1446.58 C 1704.07 1649.03 1536.28 1821.75 1333.25 1822.03 C 1065.49 1825.17 879.178 1556.27 978.916 1306.86 C 1009.08 1231.44 1083.12 1142.07 1161 1110.1 L 1160.98 445.497 C 1160.96 426.466 1160.61 407.411 1160.85 388.384 C 1162.01 297.165 1232.4 226.357 1322.47 220.505 z M 1345.44 1624.11 C 1443.77 1614.78 1515.9 1527.47 1506.49 1429.14 C 1497.09 1330.81 1409.71 1258.75 1311.39 1268.24 C 1213.18 1277.71 1141.22 1364.97 1150.62 1463.19 C 1160.01 1561.4 1247.21 1633.43 1345.44 1624.11 z" fill="rgb(0,0,0)" transform="translate(0,0)"></path>
<path d="M 637.776 928.465 C 688.67 928.679 737.642 963.796 738.772 1017.14 C 739.655 1058.8 738.378 1100.24 739.251 1141.88 C 740.485 1200.71 714.153 1253.78 647.73 1257.62 C 540.21 1256.46 546.489 1170.63 545.019 1092.18 C 543.688 1021.12 538.404 933.958 637.776 928.465 z" fill="rgb(0,0,0)" transform="translate(0,0)"></path>
<path d="M 442.666 674.366 L 527.071 674.311 C 545.547 674.319 580.172 672.578 596.944 677.436 C 704.639 708.628 693.662 864.33 575.25 870.009 L 490.707 870.1 C 471.419 870.103 439.869 871.706 422.188 867.379 C 311.15 840.202 325.714 681.708 442.666 674.366 z" fill="rgb(0,0,0)" transform="translate(0,0)"></path>
<path d="M 637.776 291.316 C 657.303 286.103 687.911 300.526 702.723 312.489 C 744.293 346.062 739.014 397.813 739.055 445.469 C 739.117 517.96 747.342 604.194 647.73 614.51 C 582.642 615.619 537.507 567.841 544.278 501.751 C 544.993 494.775 545.143 485.607 545.16 478.474 L 544.93 411.992 C 544.355 346.14 559.924 300.167 637.776 291.316 z" fill="rgb(0,0,0)" transform="translate(0,0)"></path>
<metadata><recraft-signature>{"signed_by": "recraft", "signature_b64": "WrTb5yD6xDDpXnk9RYh4bIt5elgvVtJFcQQzFFMity3yjLhm9sNhZCOyLfVCVv//cmulpG5g0PDLekVdyzVXCA==", "signing_algo": "Ed25519", "generation_timestamp": 1772989109, "identifier": "aea29779-eebc-46a3-b418-059c40ab0710"}</recraft-signature></metadata></svg>