<svg xmlns="http://www.w3.org/2000/svg" height="512" preserveAspectRatio="none" style="display: block;" version="1.1" viewBox="0 0 2048 2048" width="512">
<path d="M 1181.83 294.098 L 1656.66 294.037 C 1711.04 294.024 1754.84 293.118 1755 362.752 L 1755.04 804.658 C 1755.26 851.126 1759.2 902.984 1691.43 903.118 L 1225.38 903.149 C 1182.68 903.235 1118.81 908.742 1118.9 843.655 L 1119.01 406.22 C 1119.03 355.08 1114.31 295.137 1181.83 294.098 z M 1239.51 779.007 L 1630.25 779.007 L 1633.48 778.73 C 1636.33 772.038 1634.6 447.417 1634.53 412.925 L 1242.79 412.925 C 1239.51 416.064 1239.58 417.398 1239.56 422.556 L 1239.51 779.007 z" fill="rgb(43,39,40)" transform="translate(0,0)"></path>
<path d="M 413.899 1140.13 C 438.5 1139.09 471.519 1140.09 496.891 1140.1 L 763.176 1140.08 C 901.246 1140.14 929.739 1180.65 929.672 1316.82 L 929.637 1571.5 C 929.646 1590.55 929.781 1609.95 929.257 1628.58 C 927.239 1700.33 871.285 1742.2 805.25 1748.83 L 461.703 1748.88 C 442.569 1748.89 421.435 1749.72 402.657 1746.54 C 349.323 1737.48 297.974 1688.01 293.382 1632.78 C 291.398 1608.91 292.24 1582.71 292.26 1558.66 L 292.285 1315.14 C 292.267 1226.66 309.786 1150.09 413.899 1140.13 z M 413.899 1629.51 C 454.472 1630.82 502.345 1629.51 543.488 1629.51 L 805.25 1629.51 L 806.991 1629.22 C 809.796 1617.81 807.904 1547.55 807.907 1531.92 L 807.908 1261.52 C 791.227 1262.68 769.374 1261.54 751.917 1261.52 L 490.206 1261.54 C 468.462 1261.56 438.732 1262.48 417.446 1261.52 C 410.306 1267.31 413.894 1293.92 413.888 1302.9 L 413.899 1629.51 z" fill="rgb(43,39,40)" transform="translate(0,0)"></path>
<path d="M 481.699 384.981 C 537.235 380.505 634.664 377.897 673.755 416.651 C 697.354 440.047 715.881 472.57 715.363 506.754 L 715.476 724.724 C 715.516 737.246 716.601 752.085 714.145 764.069 C 704.733 810.003 646.011 827.329 613.131 793.494 C 590.011 769.703 593.996 742.761 594.035 712.75 L 594.035 698.19 C 560.829 697.66 526.333 698.205 492.983 698.19 C 493.064 717.346 494.987 749.908 490.275 766.805 C 479.194 806.542 433.602 825.007 399.515 799.348 C 368.927 776.322 374.051 747.167 374.081 714.177 L 374.064 544.8 C 374.022 466.819 385.288 399.164 481.699 384.981 z M 492.983 583.002 L 594.035 583.002 C 595.084 557.122 593.175 529.038 594.035 503.004 L 492.983 503.004 C 493.002 529.275 493.46 556.842 492.983 583.002 z" fill="rgb(43,39,40)" transform="translate(0,0)"></path>
<path d="M 1288.71 1140.13 L 1652.88 1140.02 C 1669.89 1139.91 1688.57 1138.74 1705.3 1141.16 C 1755.11 1148.51 1772.7 1209.05 1737.65 1243.99 C 1715.06 1266.51 1684.77 1261.56 1655.16 1261.56 L 1583.52 1261.52 L 1209.68 1261.6 C 1195.11 1261.63 1176.91 1262.62 1163.14 1260.76 C 1116.68 1253.73 1100.18 1191.93 1132.28 1159.79 C 1155.84 1136.21 1188.71 1140.08 1219.68 1140.05 L 1288.71 1140.13 z" fill="rgb(43,39,40)" transform="translate(0,0)"></path>
<path d="M 1170.75 1629.51 C 1179.24 1628.9 1193.19 1629.43 1202.1 1629.44 L 1675.87 1629.48 C 1693.13 1629.42 1712.62 1627.11 1727.13 1637.5 C 1775.24 1671.95 1761.62 1736.75 1703.18 1748.83 L 1192.44 1748.78 C 1086.55 1748.02 1100.31 1637.29 1170.75 1629.51 z" fill="rgb(43,39,40)" transform="translate(0,0)"></path>
<metadata><recraft-signature>{"signed_by": "recraft", "signature_b64": "jiDEfYq7G1aW5NaVztEvjJ5vvfPF5cpRcszlX3gndJQoR4zRtfZ6U/v8IhSXDJwbYJuJXJdq4r/L5B9ChqJ4Dw==", "signing_algo": "Ed25519", "generation_timestamp": 1772998298, "identifier": "45bb30c0-54ac-4b44-baf9-dd78b025fca8"}</recraft-signature></metadata></svg>