<svg xmlns="http://www.w3.org/2000/svg" height="512" preserveAspectRatio="none" style="display: block;" version="1.1" viewBox="0 0 2048 2048" width="512">
<path d="M 936.626 996.675 C 947.874 995.572 965.568 996.563 977.597 996.608 L 1233.4 996.659 C 1269.15 996.633 1338.81 987.232 1361.39 1024.12 C 1403.53 1092.96 1445.32 1164.47 1486.07 1234.03 L 1735.52 1654.38 C 1752.05 1682.03 1764.04 1701.15 1755.42 1734.25 C 1743.97 1775.66 1700.97 1800.81 1659.34 1789.35 C 1618.52 1778.1 1610.86 1750.17 1591.17 1717.08 L 1386.92 1368.29 C 1344.27 1295.45 1301.23 1223.82 1259.97 1149.97 L 1107.75 1149.97 C 1079.22 1150.03 1050.49 1149.59 1022 1149.97 L 1022.01 1318.04 C 1022.05 1424.89 1029.53 1474.26 905.831 1474.01 L 510.063 1473.93 C 443.563 1473.95 446.556 1528.58 446.671 1575.29 L 446.864 1666.69 C 446.894 1684.17 448.67 1719.12 444.269 1734.4 C 419.148 1821.61 289.26 1809.84 288.921 1712.25 L 288.982 1590.47 C 288.935 1530.99 283.811 1480.76 312.763 1425.87 C 362.555 1331.46 437.55 1315.83 532.49 1315.89 L 865.011 1315.92 C 865.967 1298.54 865.037 1271.16 865.023 1252.95 L 864.96 1128.1 C 864.947 1071.64 856.938 1002.27 936.626 996.675 z" fill="rgb(0,0,0)" transform="translate(0,0)"></path>
<path d="M 1073.56 251.017 C 1189.08 238.36 1298.24 339.91 1313.35 452.801 C 1316.75 478.176 1315.57 513.805 1315.49 540.009 C 1315.24 615.981 1321.74 675.683 1269.1 741.034 C 1225.02 795.76 1175.94 821.391 1107.75 830.667 C 984.109 835.501 880.501 757.732 863.517 632.298 C 859.893 605.526 862.272 573.839 861.739 546.78 C 860.212 469.243 858.881 401.587 911.147 336.864 C 954.436 283.258 1006.49 258.972 1073.56 251.017 z M 1100.24 672.766 C 1179.15 660.118 1149.96 556.026 1153.1 496.723 C 1155.82 445.505 1135.75 405.73 1079.58 410.178 C 1018.22 422.979 1020.52 475.085 1021.95 525.483 C 1022.87 557.794 1020.65 591.013 1023.45 623.201 C 1026.45 657.269 1068.01 677.668 1100.24 672.766 z" fill="rgb(0,0,0)" transform="translate(0,0)"></path>
<path d="M 889.5 1636.98 C 1014.16 1626.59 1015.09 1766.48 931.891 1788.18 C 920.215 1791.23 897.27 1790.48 884.577 1790.49 L 615.75 1790.49 C 585.19 1790.84 560.283 1791.32 536.728 1768.68 C 506.962 1740.06 505.448 1687.99 534.606 1658.53 C 558.131 1634.77 586.844 1636.87 617.26 1636.97 L 889.5 1636.98 z" fill="rgb(0,0,0)" transform="translate(0,0)"></path>
<path d="M 1243.76 1425.18 C 1306.76 1419.03 1355.05 1470.49 1328.67 1533.05 C 1319.41 1554.99 1303.48 1577.95 1291.79 1599.23 L 1234 1703.26 C 1208.8 1748.8 1203.92 1774 1153.02 1792.98 C 1096.81 1801.88 1047.71 1754.19 1060.12 1700.16 C 1065.25 1677.84 1101.81 1620.16 1113.76 1598.96 L 1190.25 1464.78 C 1203.23 1441.56 1218.05 1430.76 1243.76 1425.18 z" fill="rgb(0,0,0)" transform="translate(0,0)"></path>
<metadata><recraft-signature>{"signed_by": "recraft", "signature_b64": "6hcVc+BtYlXjyRZQ3LpIdfbTuZghV9oBTM64LUCLwFPlXz7niP6g9hFhgegQaIN2lYrUKL5+3+wlBIdMPq0NAg==", "signing_algo": "Ed25519", "generation_timestamp": 1772990209, "identifier": "f39f0fe4-7fc6-4a5d-aba0-4135e5fbe9b4"}</recraft-signature></metadata></svg>