<svg xmlns="http://www.w3.org/2000/svg" height="512" preserveAspectRatio="none" style="display: block;" version="1.1" viewBox="0 0 2048 2048" width="512">
<path d="M 766.948 225.514 L 1280.98 225.514 C 1282.26 262.461 1280.97 307.44 1280.98 345.158 L 1086.98 345.158 L 1086.98 540.209 L 1154.79 540.176 C 1164.76 540.158 1180.78 539.61 1190.35 540.209 L 1295.72 540.166 C 1319.66 540.166 1347.71 539.588 1371.25 541.82 C 1484.04 552.518 1546.97 630.796 1593.17 723.236 L 1710.3 956.107 C 1719.67 974.839 1757.2 1041.05 1757.29 1058.61 L 1757.36 1513.71 C 1757.41 1554.61 1766.35 1618 1707.96 1625.79 C 1690.1 1630.2 1598.07 1624.51 1568.62 1626.67 C 1547.76 1628.2 1517.73 1609.87 1508.8 1590.83 C 1499.56 1571.1 1502.92 1535.18 1502.93 1512.12 L 1502.98 1381.93 L 543.517 1381.93 L 543.61 1510.01 C 543.661 1561.97 552.712 1625.06 476.328 1625.08 C 440.373 1625.09 366.839 1629.56 333.494 1621.1 C 286.585 1609.2 290.762 1564.81 290.841 1529.62 L 290.815 1068.12 C 290.771 1033.76 366.464 901.335 386.491 861.56 L 455.143 723.402 C 464.061 705.644 472.623 685.667 482.602 668.587 C 555.822 542.917 664.507 540.208 788.843 540.196 L 947.491 540.209 L 962.433 540.209 L 962.433 345.158 L 766.948 345.158 L 766.948 225.514 z M 1598.55 996.483 C 1581.33 967.738 1566.92 936.782 1551.89 906.766 L 1493.66 792.407 C 1425.28 658.848 1408.07 663.974 1258.63 663.943 L 1086.98 663.987 C 1085.65 673.905 1086.31 683.375 1086.98 693.292 C 1073.02 708.164 1060.31 727.031 1048.11 743.69 L 988.978 824.375 C 983.282 832.058 968.093 854.193 962.433 859.666 L 962.433 663.987 C 957.945 664.318 955.289 664.218 950.778 663.987 L 788.362 663.958 C 680.081 663.951 624.105 654.281 571.204 759.669 L 455.288 996.483 C 546.319 995.356 639.745 996.488 730.968 996.487 L 1494.24 996.475 C 1526.95 996.476 1566.42 997.558 1598.55 996.483 z M 417.756 1111.62 L 417.756 1262.85 L 636.716 1262.85 L 636.884 1225.07 C 636.948 1200.9 638.07 1183.22 618.908 1164.18 C 582.591 1128.09 520.758 1111.78 470.004 1111.62 L 417.756 1111.62 z M 1598.55 1111.62 C 1546.61 1109.14 1408.15 1128.88 1407.44 1201.8 C 1407.24 1222.1 1407.42 1242.57 1407.49 1262.85 L 1441.5 1262.85 L 1633.01 1262.85 C 1633.36 1213.85 1633.88 1160.48 1633.01 1111.62 C 1617.12 1110.02 1613.96 1109.62 1598.55 1111.62 z" fill="rgb(38,37,38)" transform="translate(0,0)"></path>
<path d="M 766.948 225.514 L 1280.98 225.514 C 1282.26 262.461 1280.97 307.44 1280.98 345.158 L 1086.98 345.158 L 1086.98 540.209 L 1154.79 540.176 C 1164.76 540.158 1180.78 539.61 1190.35 540.209 C 1156.29 541.549 1121.05 541.122 1086.98 540.209 C 1085.97 554.241 1086.9 568.888 1086.95 583.066 L 1086.98 663.987 C 1085.65 673.905 1086.31 683.375 1086.98 693.292 C 1073.02 708.164 1060.31 727.031 1048.11 743.69 L 988.978 824.375 C 983.282 832.058 968.093 854.193 962.433 859.666 L 962.433 663.987 C 957.945 664.318 955.289 664.218 950.778 663.987 C 955.411 664.065 957.615 664.255 962.109 663.428 C 963.291 660.412 962.49 552.449 962.433 540.209 C 956.521 540.548 953.367 540.495 947.491 540.209 L 962.433 540.209 L 962.433 345.158 L 766.948 345.158 L 766.948 225.514 z" fill="rgb(67,117,205)" transform="translate(0,0)"></path>
<metadata><recraft-signature>{"signed_by": "recraft", "signature_b64": "bmwZk3cKJbL1CAjVm20X/YghR27ovQoseCFsQCMnnH0BjJ16KG3N18w5aiVMLD6ExoBxsSXg983emkMmQgHxAQ==", "signing_algo": "Ed25519", "generation_timestamp": 1773000173, "identifier": "b8e67cd6-78e2-41da-96f7-df993a891899"}</recraft-signature></metadata></svg>