<svg xmlns="http://www.w3.org/2000/svg" height="512" preserveAspectRatio="none" style="display: block;" version="1.1" viewBox="0 0 2048 2048" width="512">
<path d="M 451.126 383.974 L 715.971 383.947 C 735.375 383.947 838.082 381.83 849.125 385.962 C 920.341 412.602 903.15 496.743 850.975 507.919 C 835.929 511.142 819.587 509.972 804.269 509.979 L 458.376 509.918 C 387.043 510.128 384.382 572.378 384.442 623.553 L 384.457 801.461 C 384.412 820.217 383.598 840.27 384.468 858.838 C 419.591 860.166 496.351 853.633 526.731 859.662 C 564.443 867.146 589.315 907.672 574.274 944.141 C 554.68 991.648 510.826 985.028 469.477 984.977 L 384.468 984.905 L 384.21 1288.31 C 384.115 1370.29 442.591 1370.38 505.75 1370.08 L 800.605 1369.98 C 814.185 1369.94 829.407 1369.05 842.757 1371.07 C 892.86 1378.64 912.481 1436.71 880.922 1475.03 C 857.83 1503.06 812.381 1495.66 780.153 1495.65 L 517.07 1495.62 C 483.231 1495.62 443.187 1497.66 410.397 1491.35 C 328.763 1475.64 263.658 1400.9 257.181 1318.34 C 255.613 1298.36 256.203 1276.76 256.222 1256.57 L 256.2 677.437 C 256.191 635.863 254.023 588.35 259.976 547.824 C 274.09 451.728 358.186 390.528 451.126 383.974 z" fill="rgb(0,0,0)" transform="translate(0,0)"></path>
<path d="M 1446.68 380.107 C 1588.92 365.875 1715.71 469.771 1729.72 612.033 C 1743.73 754.295 1639.63 880.924 1497.34 894.706 C 1355.38 908.458 1229.09 804.644 1215.12 662.7 C 1201.14 520.756 1304.76 394.307 1446.68 380.107 z M 1486.38 764.33 C 1557.1 757.172 1608.54 693.906 1601.12 623.214 C 1593.69 552.522 1530.23 501.324 1459.57 509.016 C 1389.28 516.667 1338.41 579.716 1345.8 650.031 C 1353.19 720.346 1416.04 771.45 1486.38 764.33 z" fill="rgb(0,0,0)" transform="translate(0,0)"></path>
<path d="M 1460.78 963.591 C 1645.29 946.423 1806.48 1125.51 1793.87 1307.55 C 1790.28 1359.31 1735.21 1387.48 1691.68 1359.18 C 1651.07 1332.78 1668.55 1284.67 1659.88 1245.53 C 1640.58 1158.45 1568.8 1100.31 1481.25 1094.45 C 1387.14 1088.7 1300.99 1156.02 1282.29 1248.01 C 1274.42 1282.24 1288.59 1314.19 1265.83 1344.46 C 1227.19 1397.77 1148.62 1366.77 1151.01 1295.38 C 1151.62 1271.32 1151.89 1247.5 1156.12 1223.73 C 1183.02 1072.34 1312.85 975.39 1460.78 963.591 z" fill="rgb(0,0,0)" transform="translate(0,0)"></path>
<path d="M 1012.72 984.905 C 1102.45 983.542 1088.22 1061.22 1088.14 1122.7 L 1088.19 1569.78 C 1088.55 1612.7 1089.12 1649.3 1036.8 1662.71 C 960.851 1678.75 958.033 1602.85 958.018 1550.97 L 958.007 1090.55 C 958.02 1042.02 952.589 999.214 1012.72 984.905 z" fill="rgb(0,0,0)" transform="translate(0,0)"></path>
<path d="M 699.79 858.838 C 739.307 855.749 786.125 861.578 825.619 858.81 C 909.954 852.9 933.399 961.982 847.969 984.905 C 813.955 988.235 735.071 986.222 701.142 983.676 C 633.572 978.608 620.993 878.851 699.79 858.838 z" fill="rgb(0,0,0)" transform="translate(0,0)"></path>
<metadata><recraft-signature>{"signed_by": "recraft", "signature_b64": "OkUrdBJ/a6C+voW73HRZgdZsqb4Wx4IXw5J5yc+ePSQqMyOZLunOFS9aSOeZuHR8PUj3xcz9DtwJoPPlwW0gBw==", "signing_algo": "Ed25519", "generation_timestamp": 1772990342, "identifier": "dcd89c96-68e0-4c11-962e-fa239d528b95"}</recraft-signature></metadata></svg>