<svg xmlns="http://www.w3.org/2000/svg" height="512" preserveAspectRatio="none" style="display: block;" version="1.1" viewBox="0 0 2048 2048" width="512">
<path d="M 1025.92 470.666 C 978.244 431.364 994.132 355.223 1056.92 351.333 C 1088.56 350.778 1121.32 351.08 1153.09 351.116 L 1475.44 351.146 C 1540.96 351.035 1593.17 345.071 1646.11 392.592 C 1712.36 452.06 1699.44 527.763 1699.41 607.497 L 1699.37 938.793 C 1699.38 957.122 1700.35 980.437 1699.11 998.01 C 1696.04 1041.29 1646.51 1065.03 1606.75 1047.22 C 1599.84 1052.08 1586.24 1050.74 1577.41 1050.61 L 1175.89 1050.65 C 1167.89 1050.59 1146.89 1049.46 1140.84 1050.61 C 1108.75 1012.66 1048.51 966.863 1023.76 930.997 C 1024.72 929.011 1023.76 906.591 1023.74 902.15 L 1023.76 573.998 C 1023.74 555.244 1022.55 483.955 1025.92 470.666 z" fill="rgb(206,223,241)" transform="translate(0,0)"></path>
<path d="M 1025.92 470.666 C 978.244 431.364 994.132 355.223 1056.92 351.333 C 1088.56 350.778 1121.32 351.08 1153.09 351.116 L 1475.44 351.146 C 1540.96 351.035 1593.17 345.071 1646.11 392.592 C 1712.36 452.06 1699.44 527.763 1699.41 607.497 L 1699.37 938.793 C 1699.38 957.122 1700.35 980.437 1699.11 998.01 C 1696.04 1041.29 1646.51 1065.03 1606.75 1047.22 C 1602.89 1044.74 1598.94 1041.91 1595.15 1039.3 C 1567.29 1012.42 1572.56 987.274 1572.59 951.603 L 1572.62 585.022 C 1572.57 509.808 1593.3 479.71 1507.34 479.824 L 1097.32 479.957 C 1072.79 479.96 1047.82 483.226 1025.92 470.666 z" fill="rgb(22,21,21)" transform="translate(0,0)"></path>
<path d="M 1577.41 1050.61 C 1597.71 1045.59 1584.24 1047.46 1595.15 1039.3 C 1598.94 1041.91 1602.89 1044.74 1606.75 1047.22 C 1599.84 1052.08 1586.24 1050.74 1577.41 1050.61 z" fill="rgb(219,237,254)" transform="translate(0,0)"></path>
<path d="M 1140.84 1050.61 C 1189.9 1097.18 1235.97 1146.74 1284.44 1193.96 C 1359.65 1263.81 1262.35 1343.35 1212.76 1295.83 C 1172.29 1257.03 1131.3 1213.81 1091.19 1173.52 L 363.394 445.205 C 346.318 428.185 328.596 411.613 311.81 393.812 C 260.434 339.33 330.121 261.976 390.056 303.189 C 404.953 313.433 423.898 335.49 437.314 348.861 L 963.677 872.263 C 980.987 889.418 1006.04 916.05 1023.76 930.997 C 1048.51 966.863 1108.75 1012.66 1140.84 1050.61 z" fill="rgb(22,21,21)" transform="translate(0,0)"></path>
<path d="M 408.625 991.259 C 477.208 982.313 477.337 1054.39 477.248 1098.48 L 477.198 1459.36 C 477.137 1528.49 460.164 1579.59 551.484 1574.11 C 570.283 1572.98 596.181 1574.02 615.461 1574.02 L 962.485 1574.02 C 989.154 1573.93 1014.24 1568.39 1035.43 1587.41 C 1077.87 1625.52 1060.12 1678.97 1008.22 1695.9 C 974.822 1697 935.629 1695.89 901.615 1695.89 L 565.849 1695.92 C 514.164 1695.96 468.816 1700.11 424.092 1669.55 C 344.747 1615.34 353.479 1542.92 353.463 1459.04 L 353.441 1101.3 C 353.898 1050.69 343.55 1003.4 408.625 991.259 z" fill="rgb(22,21,21)" transform="translate(0,0)"></path>
<metadata><recraft-signature>{"signed_by": "recraft", "signature_b64": "WmvfuMWpScuCdrkUjM6v6j0Elp645f/ETvsQbuWKbWLzsDbNU2fabVgnxZoPqZuhdKqkAJ/ePPZNKCEqunNnBg==", "signing_algo": "Ed25519", "generation_timestamp": 1773000407, "identifier": "8c11acb6-162e-4f12-8f99-1d208f334c3d"}</recraft-signature></metadata></svg>