<svg xmlns="http://www.w3.org/2000/svg" height="512" preserveAspectRatio="none" style="display: block;" version="1.1" viewBox="0 0 2048 2048" width="512">
<path d="M 1223.8 263.34 C 1262.08 258.735 1312.34 297.275 1322.81 333.139 C 1329.03 354.448 1327.89 381.279 1327.89 403.492 L 1327.84 508.173 C 1327.82 544.339 1324.98 593.585 1334.92 627.016 C 1364.69 727.068 1446.15 730.648 1529.47 730.558 L 1631.56 730.462 C 1658.31 730.49 1688.3 728.873 1712 742.155 C 1793.01 788.787 1782.48 904.489 1694.87 930.464 C 1673.94 936.669 1648.26 935.021 1625.89 935.036 L 1476.59 935.035 C 1409.77 935.011 1388.93 933.519 1329.99 899.313 C 1329.43 927.093 1329.98 956.821 1329.99 984.802 L 1330.01 1154.97 C 1330.01 1241.75 1335.05 1313.46 1310.6 1398.64 C 1221.47 1709.15 877.943 1871.51 583.188 1733.23 C 343.62 1620.83 233.657 1353.48 306.961 1103.2 C 361.214 932.67 497.216 804.5 668.222 753.827 C 754.465 728.271 836.826 733.937 925.832 734.003 L 925.832 935.013 C 917.591 935.996 889.535 935.125 879.544 935.071 C 748.043 934.365 650.172 948.471 559.345 1060.82 C 379.887 1282.8 562.576 1601.61 838.715 1575.62 C 956.123 1564.57 1059.17 1479.77 1101.54 1371.39 C 1127.97 1304.9 1123.5 1256.32 1123.59 1187.15 L 1123.52 406.455 C 1123.47 331.479 1129.36 273.835 1223.8 263.34 z" fill="rgb(0,0,0)" transform="translate(0,0)"></path>
<metadata><recraft-signature>{"signed_by": "recraft", "signature_b64": "Kl1NOcQdT57n1+HHf9uXqZ4krJ96+BwWUSDZJZfiWEfaalDtbSgYqZy8eU/BgF4Fi69fGFIHzaPTlOrddP1TCA==", "signing_algo": "Ed25519", "generation_timestamp": 1772999604, "identifier": "e5721307-1c90-4d95-934b-899c4f9d95bc"}</recraft-signature></metadata></svg>