<svg xmlns="http://www.w3.org/2000/svg" height="512" preserveAspectRatio="none" style="display: block;" version="1.1" viewBox="0 0 2048 2048" width="512">
<path d="M 962.868 480.591 C 1333.67 463.804 1647.86 750.816 1664.6 1121.62 C 1681.34 1492.42 1394.29 1806.58 1023.48 1823.27 C 652.742 1839.96 338.658 1552.97 321.922 1182.23 C 305.185 811.497 592.133 497.376 962.868 480.591 z M 1017.47 1686.41 C 1311.29 1672.86 1538.51 1423.71 1525.02 1129.89 C 1511.52 836.065 1262.42 608.796 968.589 622.238 C 674.684 635.682 447.342 884.867 460.842 1178.77 C 474.341 1472.67 723.568 1699.97 1017.47 1686.41 z" fill="rgb(0,0,0)" transform="translate(0,0)"></path>
<path d="M 991.97 711.349 C 1050.59 716.555 1061.96 750.958 1061.96 802.826 L 1061.93 869.465 C 1061.92 943.13 1062.77 1018.51 1061.92 1092.03 L 1319.54 1092.01 C 1345.28 1092.05 1369.89 1089.46 1391.94 1104.83 C 1445.55 1142.22 1425.6 1219.86 1358.25 1232.49 L 1032.25 1232.49 C 1016.62 1232.49 999.041 1233.16 983.627 1231.25 C 916.745 1222.93 924.964 1149.48 925.014 1101.95 L 925.177 845.144 C 924.991 783.635 914.873 722 991.97 711.349 z" fill="rgb(0,0,0)" transform="translate(0,0)"></path>
<path d="M 998.375 224.281 L 1420.09 224.25 C 1451.54 224.246 1482.9 222.994 1513.88 229.525 C 1635.41 255.15 1729.88 359.918 1732.95 485.73 C 1734.23 538.121 1743.37 647.87 1707.62 678.797 C 1659.45 720.476 1585.36 686.429 1588.92 622.214 C 1589.6 609.969 1588.96 594.164 1589.02 581.5 C 1589.08 550.083 1589.23 518.576 1589.03 487.206 C 1588.03 428.409 1543.95 372.159 1483.91 364.733 C 1465.3 362.433 1444.78 362.983 1426 362.978 L 857.634 363.059 C 838.438 363.092 817.013 363.776 798.081 362.106 C 742.607 356.422 718.423 283.233 758.819 244.287 C 786.519 217.581 833.115 224.251 869.033 224.235 L 998.375 224.281 z" fill="rgb(0,0,0)" transform="translate(0,0)"></path>
<metadata><recraft-signature>{"signed_by": "recraft", "signature_b64": "uAt1p9luXbSFnWJsO5lAwvNclpItIeIRnKqfxmunDKpzmAowNaTdD7uApgbj/aRpFRuVs7p0BvA+YiyokVIXAA==", "signing_algo": "Ed25519", "generation_timestamp": 1772989838, "identifier": "84bddcf2-bc47-4ea5-9eba-592d583f9adc"}</recraft-signature></metadata></svg>