<svg xmlns="http://www.w3.org/2000/svg" height="512" preserveAspectRatio="none" style="display: block;" version="1.1" viewBox="0 0 2048 2048" width="512">
<path d="M 424.455 474.245 C 459.761 456.092 490.924 490.257 468.436 517.434 C 643.872 538.487 575.512 670.635 647.328 765.105 C 678.074 805.55 725.296 850.834 770.489 873.879 C 802.812 890.361 864.45 889.578 902.082 893.23 C 990.564 901.816 1062.1 933.201 1132.87 985.763 C 1240.24 957.096 1281.92 826.421 1359.49 750.087 C 1474.85 636.571 1657.25 637.243 1790.58 717.807 C 1822.86 737.31 1877.18 775.96 1886.06 813.015 C 1880.16 838.584 1863.77 837.945 1841.34 841.42 C 1704.73 862.578 1590.42 939.924 1478.09 1017.97 L 1361.72 1099.8 C 1341.51 1114.28 1305.88 1134.53 1288.76 1149.75 C 1297.59 1161.31 1315.75 1173.56 1328.07 1182.09 C 1316.64 1185.43 1303.45 1188.69 1292.36 1192.41 C 1313.32 1210.63 1343.4 1235.72 1362.66 1254.5 C 1338.82 1254.48 1312.44 1254.78 1288.76 1254.5 C 1312.67 1269.72 1350.62 1304.74 1373.68 1323.1 C 1337.15 1323.31 1314.36 1323.09 1278.18 1316.92 C 1304.7 1343.59 1334.07 1368.35 1362.66 1392.75 C 1317.56 1387.1 1297.45 1384.86 1253.28 1372.33 C 1267.89 1392.7 1291.96 1422.12 1304.01 1441.87 C 1233.37 1424.64 1165 1405.11 1097.42 1377.7 C 1091.7 1380.22 1077.44 1387.22 1072.7 1388.82 C 1083.05 1421.33 1085.81 1463.26 1056.16 1485.8 C 1044.9 1490.14 1040.09 1491.38 1027.46 1490.42 C 998.521 1481.88 967.36 1444.16 946.977 1422 C 910.91 1423.53 866.548 1421.51 831.91 1412.24 C 798.431 1414.1 740.836 1371.01 707.406 1357.05 C 700.379 1349.88 681.693 1339.08 672.957 1332.62 C 621.649 1294.7 567.612 1257.28 527.445 1206.85 C 452.084 1112.23 419.356 979.039 438.027 859.949 C 445.481 812.403 469.284 706.027 408.767 679.413 C 391.477 670.406 370.08 649.519 365.428 629.728 C 343.865 627.634 290.467 631.571 270.593 637.592 C 273.956 589.58 317.307 571.349 359.447 565.466 C 363.885 562.085 365.431 560.341 369.172 556.301 C 335.983 532.713 356.252 492.143 392.478 492.225 C 396.866 478.237 398.827 475.223 413.316 471.052 C 416.82 471.913 420.93 473.225 424.455 474.245 z M 940.444 1316.92 C 956.83 1310.73 954.768 1294.66 938.709 1291.61 C 857.536 1276.16 764.692 1242.7 731.201 1159.95 C 727.821 1151.6 726.839 1146.52 716.552 1145.82 C 696.855 1157.33 707.905 1171.6 718.123 1187.71 C 759.451 1252.89 814.772 1280.79 886.849 1301.42 C 900.777 1305.41 928.924 1311.88 940.444 1316.92 z M 457.311 590.855 C 485.88 583.75 474.045 553.936 449.816 556.301 C 425.121 560.076 427.18 592.71 457.311 590.855 z" fill="rgb(0,0,0)" transform="translate(0,0)"></path>
<path d="M 946.977 1422 C 996.43 1410.34 1024.21 1405.83 1072.7 1388.82 C 1083.05 1421.33 1085.81 1463.26 1056.16 1485.8 C 1044.9 1490.14 1040.09 1491.38 1027.46 1490.42 C 998.521 1481.88 967.36 1444.16 946.977 1422 z" fill="rgb(37,34,34)" transform="translate(0,0)"></path>
<path d="M 424.455 474.245 C 459.761 456.092 490.924 490.257 468.436 517.434 C 432.863 518.654 391.593 525.914 369.172 556.301 C 335.983 532.713 356.252 492.143 392.478 492.225 C 396.866 478.237 398.827 475.223 413.316 471.052 C 416.82 471.913 420.93 473.225 424.455 474.245 z" fill="rgb(252,1,1)" transform="translate(0,0)"></path>
<path d="M 270.593 637.592 C 273.956 589.58 317.307 571.349 359.447 565.466 C 351.143 597.337 371.556 596.977 392.478 612.665 C 385.636 621.165 376.511 628.113 365.428 629.728 C 343.865 627.634 290.467 631.571 270.593 637.592 z" fill="rgb(155,153,153)" transform="translate(0,0)"></path>
<path d="M 707.406 1357.05 C 740.836 1371.01 798.431 1414.1 831.91 1412.24 L 831.531 1413.64 C 821.292 1452.5 825.258 1454.34 791.676 1485.8 L 791.88 1487.49 C 795.152 1515.78 788.958 1550.76 805.954 1572.64 C 775.383 1591.88 762.566 1593.69 729.329 1572.64 C 742.006 1559.05 748.846 1500.85 752.087 1479.46 C 724.302 1438.61 715.433 1404.57 707.406 1357.05 z" fill="rgb(37,34,34)" transform="translate(0,0)"></path>
<path d="M 1027.46 1490.42 C 1040.09 1491.38 1044.9 1490.14 1056.16 1485.8 C 1067.07 1514.85 1077.57 1550.87 1090.44 1579.48 C 1094.75 1589.06 1138.96 1598.94 1159.86 1631.52 C 1132.45 1625.18 1107.32 1622.19 1078.98 1623.96 C 1042.23 1658.41 1012.7 1663.29 974.591 1709.78 C 977.968 1680.65 980.189 1669.01 998.511 1644.64 C 963.245 1644.79 937.065 1655.82 903.732 1666.21 C 944.127 1606.31 1032.14 1618.66 1035.77 1584.71 C 1038.85 1555.92 1029.47 1519.24 1027.46 1490.42 z" fill="rgb(115,108,105)" transform="translate(0,0)"></path>
<path d="M 805.954 1572.64 C 829.576 1581.22 847.98 1595.01 864.165 1614.38 C 800.399 1594.36 800.912 1598.56 739.016 1629.77 C 719.676 1639.52 702.42 1650.29 684.447 1663.36 C 677.946 1668.09 665.031 1682.89 659.986 1685.73 C 651.998 1671.54 680.058 1633.46 688.382 1623.96 C 651.625 1629.2 626.761 1631.79 591.789 1644.64 C 641.711 1585.69 685.281 1606.08 729.329 1572.64 C 762.566 1593.69 775.383 1591.88 805.954 1572.64 z" fill="rgb(0,0,0)" transform="translate(0,0)"></path>
<metadata><recraft-signature>{"signed_by": "recraft", "signature_b64": "HiRvqUlaJAsHvdkrbHXt4MJVwzVcKVNAwMHH1AFpZaUEkslkoFKIZRDQAv6iH23b2Y8m7e8v+Ktl5Q3YbnKAAg==", "signing_algo": "Ed25519", "generation_timestamp": 1772997532, "identifier": "a8260f00-8796-41f1-8325-a2a02c07c62d"}</recraft-signature></metadata></svg>