<svg xmlns="http://www.w3.org/2000/svg" height="512" preserveAspectRatio="none" style="display: block;" version="1.1" viewBox="0 0 2048 2048" width="512">
<path d="M 257.355 629.51 L 1730.75 629.472 C 1781.05 629.448 1847.68 623.493 1860.85 690.713 C 1865.96 716.811 1862.99 764.538 1862.96 792.638 L 1863.04 1294.72 C 1863.14 1349.48 1861.5 1400.71 1792.75 1413.99 C 1773.06 1415.35 1732.11 1414.02 1711.17 1414.01 L 338.774 1414.02 C 236.159 1414.01 185.017 1423.15 184.963 1300.23 L 184.947 742.183 C 184.954 688.683 186.918 636.549 257.355 629.51 z M 1675.01 1366.52 L 1745.07 1366.64 C 1798.39 1366.69 1816.99 1370.36 1816.68 1313.17 L 1816.52 733.47 C 1816.69 665.742 1790.4 676.728 1731.02 676.873 L 375.996 676.895 L 299.161 676.797 C 213.823 676.767 231.941 700.754 231.941 778.016 L 231.938 1324.55 C 232.21 1378.01 274.607 1366.69 312.672 1366.56 L 1675.01 1366.52 z" fill="rgb(0,0,0)" transform="translate(0,0)"></path>
<path d="M 868.689 800.785 C 881.814 800.691 895.123 800.456 908.23 800.785 C 921.062 834.768 958.86 928.878 963.008 962.963 L 911.673 962.963 C 909.038 952.479 906.706 942.052 904.333 931.51 L 862.039 931.51 C 858.109 941.407 855.18 952.582 851.165 962.963 C 805.265 961.545 751.329 962.997 704.789 962.963 L 704.789 950.5 L 704.789 800.785 L 752.999 800.785 L 752.999 921.268 L 808.7 921.268 C 809.313 930.095 809.279 934.405 808.7 943.264 C 829.913 899.504 839.989 845.145 861.318 801.906 C 864.024 800.252 864.984 800.863 868.689 800.785 z M 873.837 893.503 L 884.336 893.503 C 887.93 893.495 890.907 893.976 893.901 892.444 C 893.264 888.762 886.048 863.242 884.336 861.605 C 880.691 871.875 876.21 883.027 873.837 893.503 z" fill="rgb(0,0,0)" transform="translate(0,0)"></path>
<path d="M 1030.41 800.785 L 1035 799.961 C 1077.57 792.36 1101.09 815.997 1108 854.49 C 1093.25 854.535 1075.68 853.818 1061.37 854.49 C 1058.04 848.835 1055.59 844.484 1049.11 841.809 C 993.804 818.941 994.556 948.097 1054.13 921.477 C 1058.73 919.42 1060.19 910.239 1061.37 905.368 L 1037.03 905.368 L 1037.03 877.011 L 1077.5 877.011 L 1108 877.011 C 1108.29 944.441 1094.26 970.703 1022.14 963.818 C 937.056 955.695 943.801 789.68 1030.41 800.785 z" fill="rgb(0,0,0)" transform="translate(0,0)"></path>
<path d="M 600.502 800.785 C 615.055 799.946 625.851 800.069 640.159 800.785 C 658.323 847.991 683.166 914.03 696.306 962.963 C 679.927 962.667 664.275 962.726 647.889 962.963 C 643.002 949.769 645.272 933.918 626.933 934.858 C 615.248 934.925 603.3 935.132 591.637 934.858 L 583.256 962.963 L 534.112 962.963 C 554.441 911.141 569.556 850.216 591.637 800.785 L 600.502 800.785 z M 604.231 896.569 L 621.197 896.569 L 626.859 895.758 L 627.435 894.952 C 625.429 888.929 617.948 864.801 614.728 861.605 C 611.012 873.312 607.631 884.765 604.231 896.569 z" fill="rgb(0,0,0)" transform="translate(0,0)"></path>
<path d="M 1669.73 1067.05 C 1685.59 1067.06 1693.58 1071.92 1702.95 1084.36 C 1702.69 1078.36 1702.81 1073.04 1702.95 1067.05 C 1716.66 1067.88 1724.35 1067.82 1737.99 1067.05 L 1738.01 1146.42 C 1738.07 1161.41 1738.65 1176.67 1737.75 1191.61 C 1734.72 1239.85 1660.34 1248.58 1633.81 1214.91 C 1629.55 1207.86 1628.74 1202.9 1627.02 1194.99 C 1638.01 1195.05 1648.98 1195.14 1659.97 1194.99 C 1674.16 1217.43 1701 1211.89 1702.95 1178.63 C 1620.08 1230.07 1596.18 1071.34 1669.73 1067.05 z M 1690.3 1157.6 C 1709.67 1147.13 1712.96 1095.72 1675.01 1097.01 C 1654.17 1113.51 1654.31 1161.85 1690.3 1157.6 z" fill="rgb(0,0,0)" transform="translate(0,0)"></path>
<path d="M 1146.75 1065 C 1245.64 1060.13 1229.25 1186.14 1166.24 1189.04 C 1156.22 1193.67 1132.45 1189.45 1123.23 1183.77 C 1085.77 1161.61 1086.96 1077.25 1146.75 1065 z M 1159.92 1162.41 C 1186.9 1154.21 1185.97 1098.47 1156.35 1093.11 C 1127.89 1100.31 1126.6 1161.24 1159.92 1162.41 z" fill="rgb(0,0,0)" transform="translate(0,0)"></path>
<path d="M 794.202 1065 C 884.536 1061.11 866.037 1192.71 808.7 1189.04 C 792.34 1191.04 778.213 1192.82 763.914 1182.22 C 725.934 1154.07 729.414 1075.09 794.202 1065 z M 804.45 1162.41 C 825.058 1148.02 829.582 1091.75 794.202 1093.11 C 771.442 1101.26 771.01 1166.51 804.45 1162.41 z" fill="rgb(0,0,0)" transform="translate(0,0)"></path>
<path d="M 475.823 1065 L 482.458 1064.84 C 539.969 1063.87 545.139 1075.79 545.056 1129.67 L 544.997 1189.04 L 510.999 1189.04 C 510.37 1185.14 510.74 1182.6 510.999 1178.63 C 493.596 1193.74 463.593 1195.01 444.525 1182.08 C 434.315 1171.96 430.883 1156.42 434.322 1142.69 C 443.956 1104.22 488.552 1118.63 503.978 1109.42 C 516.145 1093.51 482.89 1082.51 470.138 1103.06 C 456.701 1104.62 452.258 1105.25 439.183 1103.06 C 445.145 1078.55 449.99 1070.24 475.823 1065 z M 475.823 1162.41 C 495.751 1170.36 511.149 1156.57 507.326 1136.26 C 505.642 1135.41 506.333 1135.43 505.401 1135.49 C 493.337 1136.58 449.973 1145.65 475.823 1162.41 z" fill="rgb(0,0,0)" transform="translate(0,0)"></path>
<path d="M 482.071 800.785 L 530.095 800.785 L 530.2 886.519 C 530.178 943.092 529.494 976.607 453.067 962.963 C 426.009 951.5 421.525 931.889 422.999 905.368 C 435.84 904.779 449.204 905.192 462.091 905.368 C 463.207 914.326 462.749 921.928 472.546 924.969 C 487.274 922.513 482.146 882.924 482.134 871.771 L 482.071 800.785 z" fill="rgb(0,0,0)" transform="translate(0,0)"></path>
<path d="M 1303.8 1065 C 1364.75 1061.62 1344.58 1146.65 1345.97 1189.04 C 1335.19 1189.64 1321.12 1189.16 1310.06 1189.04 C 1309.79 1163.97 1311.19 1138.48 1309.48 1113.52 C 1308.08 1093.21 1284.78 1090.88 1275.53 1106.51 C 1271.19 1121.13 1273.14 1170.71 1272.99 1189.04 L 1237.02 1189.04 C 1235.81 1152.05 1236.59 1104.28 1237.02 1067.05 C 1247.47 1066.82 1258.01 1066.98 1268.47 1067.05 C 1268.87 1072.39 1268.56 1078.92 1268.47 1084.36 C 1280.84 1071.71 1286.71 1068.88 1303.8 1065 z" fill="rgb(0,0,0)" transform="translate(0,0)"></path>
<path d="M 1556.86 1067.05 C 1622.7 1058.09 1607.35 1146.75 1607.06 1189.04 C 1594.29 1189.4 1582.88 1189.33 1570.1 1189.04 C 1571.01 1164.44 1584.34 1080.3 1539.64 1100.99 C 1525.6 1113.52 1530.98 1170.81 1531.02 1189.04 C 1519.86 1189.36 1507.97 1189.1 1496.76 1189.04 C 1496 1150.03 1496.32 1106.06 1496.76 1067.05 C 1511.05 1067.28 1529.59 1059.92 1531.02 1079.7 C 1541.17 1071.12 1543.66 1068.87 1556.86 1067.05 z" fill="rgb(0,0,0)" transform="translate(0,0)"></path>
<path d="M 381.004 1025.51 L 434.411 1025.51 L 434.411 1058.49 C 419.257 1058.24 405.072 1058.11 389.931 1058.49 L 389.931 1189.04 C 380.441 1188.82 371.742 1188.84 362.25 1189.04 C 342.465 1188.99 350.96 1164.59 350.964 1143.17 L 351.018 1058.49 L 305.996 1058.49 L 305.996 1025.51 L 381.004 1025.51 z" fill="rgb(0,0,0)" transform="translate(0,0)"></path>
<path d="M 661.86 1065 C 693.442 1063.86 716.802 1064.3 722.968 1100.99 C 706.343 1101.19 696.921 1102.79 682.803 1094.06 C 674.919 1089.19 662.541 1086.26 659.574 1098.73 C 663.117 1110.26 706.559 1109 719.233 1127.02 C 739.898 1156.42 719.545 1193.1 682.998 1189.04 C 649.4 1192.71 625.747 1186.36 621.197 1147.94 C 634.128 1146.86 642.523 1147.25 655.313 1147.94 C 660.67 1162.53 679.474 1168.65 688.959 1157.37 C 695.144 1134.62 627.774 1140.13 625.152 1110.44 C 622.613 1081.7 635.65 1070.5 661.86 1065 z" fill="rgb(0,0,0)" transform="translate(0,0)"></path>
<path d="M 918.328 1065 C 939.245 1064.59 973.356 1076.42 968.648 1102.03 C 965.197 1104.76 942.573 1103.21 936.941 1103.06 C 932.929 1098.18 932.165 1096.55 926.559 1093.11 C 918.903 1091.55 906.224 1087.99 904.51 1099.3 C 910.229 1112.01 949 1109.81 962.608 1128.71 C 985.556 1160.58 958.789 1193.8 918.328 1189.04 C 888.924 1193.34 870.732 1177.02 868.689 1147.94 L 901.23 1147.94 C 914.95 1181.5 956.157 1150.67 919.538 1142.23 C 899.96 1137.72 872.844 1134.94 870.367 1109.57 C 866.79 1072.93 888.696 1068.45 918.328 1065 z" fill="rgb(0,0,0)" transform="translate(0,0)"></path>
<path d="M 1030.41 1065 C 1056.82 1063.52 1080.82 1074.57 1081.32 1103.06 L 1050.74 1103.06 C 1043.37 1090.6 1021.39 1084.03 1018.95 1099.65 C 1023.42 1111.57 1065.17 1109.8 1077.71 1129.05 C 1098.95 1161.66 1074.43 1194.1 1037.03 1189.04 L 1034.58 1189.34 C 1002.24 1193.08 984.545 1180.96 981.71 1147.94 C 992.757 1147.75 1004.35 1147.93 1015.44 1147.94 C 1024.56 1176.04 1053.63 1158.77 1048.17 1150.97 C 1034.77 1131.83 987.146 1141.21 984.383 1110.74 C 981.139 1074.98 1002.4 1068.74 1030.41 1065 z" fill="rgb(0,0,0)" transform="translate(0,0)"></path>
<path d="M 569.525 1025.51 C 582.124 1025.51 594.566 1025.97 607.186 1025.51 L 607.186 1189.04 C 594.681 1189.24 582.04 1189.09 569.525 1189.04 C 569.534 1135.66 568.428 1078.63 569.525 1025.51 z" fill="rgb(0,0,0)" transform="translate(0,0)"></path>
<path d="M 1370.96 1067.05 C 1380.63 1066.42 1396.82 1066.98 1406.99 1067.05 C 1407.12 1079.54 1407.42 1188.17 1406.99 1189.04 L 1370.96 1189.04 C 1370.74 1176.74 1369.55 1069.55 1370.96 1067.05 z" fill="rgb(0,0,0)" transform="translate(0,0)"></path>
<path d="M 1434 1067.05 C 1446.58 1066.66 1457.4 1066.72 1469.98 1067.05 C 1470.57 1079.61 1470.06 1095.6 1470.04 1108.49 L 1469.98 1189.04 C 1458.74 1189.48 1445.43 1189.11 1434 1189.04 L 1434 1067.05 z" fill="rgb(0,0,0)" transform="translate(0,0)"></path>
<path d="M 1384.62 1018.02 C 1412.38 1017.29 1418.75 1048.67 1394.53 1058.49 C 1361.94 1062.7 1360.55 1024.57 1384.62 1018.02 z" fill="rgb(0,0,0)" transform="translate(0,0)"></path>
<path d="M 1445.69 1018.56 C 1452.82 1016.62 1460.45 1018.68 1465.63 1023.96 C 1470.81 1029.24 1472.73 1036.9 1470.66 1043.99 C 1468.59 1051.09 1462.84 1056.52 1455.64 1058.18 C 1444.8 1060.68 1433.95 1054.04 1431.24 1043.25 C 1428.52 1032.46 1434.95 1021.48 1445.69 1018.56 z" fill="rgb(0,0,0)" transform="translate(0,0)"></path>
<metadata><recraft-signature>{"signed_by": "recraft", "signature_b64": "M4CcTGcHtI5ePVICJo1w+OyLuBI1G9tJO68NYlP2w3UqrELKby19G7W6foQxufILAZ/tivw9mXqCWs8cIM2ZCQ==", "signing_algo": "Ed25519", "generation_timestamp": 1772997854, "identifier": "bcf43bd1-1c80-4bb8-8d46-fed5f1628443"}</recraft-signature></metadata></svg>