<svg xmlns="http://www.w3.org/2000/svg" height="512" preserveAspectRatio="none" style="display: block;" version="1.1" viewBox="0 0 2048 2048" width="512">
<path d="M 707.365 287.001 C 708.491 286.935 709.545 286.867 710.676 286.858 L 1248.55 286.98 C 1413.69 286.905 1547.13 297.096 1675.98 423.179 C 1812.93 557.198 1834.44 745.276 1704.28 891.934 C 1659.85 942 1636.69 933.283 1636.89 1010.37 L 1637.04 1529.66 C 1637.04 1595.46 1637.71 1653.34 1586.25 1703.01 C 1533.23 1754.2 1491.01 1756.87 1422.64 1756.99 L 1342.5 1756.96 L 664.147 1756.98 C 631.219 1757.01 596.904 1758.52 564.367 1754.03 C 475.895 1741.82 411.577 1659.22 413.483 1571.35 C 413.788 1557.28 413.949 1543.22 413.973 1529.11 L 414.07 1027.5 C 414.129 942.007 404.419 961.272 348.217 899.538 C 233.547 773.582 230.658 586.778 340.894 456.197 C 436.628 342.794 566.196 301.677 707.365 287.001 z M 1283.5 1636.52 L 1402.16 1636.6 C 1489.65 1636.63 1511.06 1637.75 1511.06 1547.76 L 1511.02 1047.37 C 1510.93 930.387 1514.99 903.77 1607.1 820.779 C 1644.97 786.651 1673.23 724.745 1671.3 673.969 C 1671.13 542.589 1540.72 450.943 1425.46 421.922 C 1372.29 408.535 1326.25 410.568 1272.03 410.558 L 768.322 410.589 C 652.472 410.967 527.947 438.825 444.227 525.039 C 357.56 612.867 357.267 742.534 447.429 828.593 C 503.618 882.226 537.467 908.778 537.655 996.358 L 537.674 1533.08 C 537.623 1551.96 536.838 1572.6 538.508 1591.41 C 543.427 1646.81 617.795 1636.47 654.936 1636.46 L 1283.5 1636.52 z" fill="rgb(0,0,0)" transform="translate(0,0)"></path>
<path d="M 711.705 495.395 C 767.196 489.392 796.654 556.715 772.543 585.137 C 739.815 623.719 701.678 659.011 665.871 694.88 C 640.437 720.323 621.52 749.467 586.036 756.981 C 527.983 758.56 494.496 698.097 534.256 653.627 C 559.803 625.054 589.498 598.631 616.834 571.57 L 656.483 532.082 C 676.255 512.398 683.649 501.507 711.705 495.395 z" fill="rgb(117,116,116)" transform="translate(0,0)"></path>
<metadata><recraft-signature>{"signed_by": "recraft", "signature_b64": "Nt4ADSbHK2OJ+QViCd2LiDtHDMvNETwUrI1+hLngtztxDRg3sYvL611qmndyE43f/y2GKiax2+siawknJXOCDQ==", "signing_algo": "Ed25519", "generation_timestamp": 1772995750, "identifier": "74ec1c7c-6fa6-4afc-87f6-f6194a91ed14"}</recraft-signature></metadata></svg>