<svg xmlns="http://www.w3.org/2000/svg" height="512" preserveAspectRatio="none" style="display: block;" version="1.1" viewBox="0 0 2048 2048" width="512">
<path d="M 999.834 470.282 C 1066.75 467.387 1137.48 482.346 1197.56 511.544 C 1203.83 510.126 1211.17 508.136 1217.3 506.345 C 1399.02 453.248 1597.11 532.993 1687.3 700.51 C 1699.38 722.958 1707.89 745.828 1718.7 769.005 C 1784.9 794.906 1799.46 823.025 1788.95 888.486 L 1716.99 1350.96 C 1712.67 1379.41 1708.69 1418.13 1700.5 1444.89 C 1667.11 1554.02 1576.39 1577.9 1478.14 1577.9 L 1052.5 1577.89 L 572.179 1577.65 C 539.054 1577.34 512.202 1580.38 479.594 1571.55 C 416.721 1554.51 357.282 1500.73 346.125 1434.33 C 326.183 1315.65 308.032 1196.58 290.679 1077.51 L 267.39 927.379 C 263.882 904.327 259.687 880.236 257.301 857.34 C 249.26 780.195 333.647 765.972 334.164 764.85 C 341.557 748.817 345.567 731.284 353.809 715.416 C 438.745 530.089 634.812 456.974 827.498 511.544 C 892.903 489.657 925.143 474.239 999.834 470.282 z M 893.997 1408.81 C 921.834 1409.52 952.211 1408.82 980.277 1408.81 L 1153.02 1408.81 L 1153.02 937.452 C 1122.99 936.907 1091.72 937.453 1061.56 937.452 L 893.997 937.452 C 893.326 989.488 894.001 1043.11 894.003 1095.26 L 893.997 1408.81 z M 1320.01 1408.81 L 1537.7 1408.81 C 1540.16 1388.22 1544.02 1365.63 1547.32 1345.02 L 1589.7 1068.15 C 1595.8 1027.72 1600.48 976.216 1609.66 937.452 L 1352.04 937.337 C 1343.42 937.303 1327.92 936.744 1320.01 937.452 L 1320.01 1408.81 z M 990.349 636.987 C 966.983 641.541 950.106 644.615 927.282 651.984 C 896.712 661.854 866.431 683.536 836.228 689.457 C 824.296 691.797 783.991 672.447 769.23 668.258 C 669.651 640 565.825 680.285 512.007 769.005 L 1057.45 769.005 L 1480.7 769.024 C 1500.61 769.05 1517.58 769.638 1537.7 769.005 C 1466.24 679.186 1372.81 628.567 1255.1 669.783 C 1200.67 688.843 1200.43 700.688 1145.49 671.387 C 1100.46 647.371 1041.9 633.007 990.349 636.987 z M 438.56 937.452 C 462.325 1094.58 485.633 1252.13 512.007 1408.81 C 533.965 1408.24 557.493 1408.8 579.637 1408.81 L 711.25 1408.81 L 725.007 1408.81 L 725.007 937.452 C 697.164 936.501 663.756 937.459 635.416 937.463 L 458.123 937.452 L 438.56 937.452 z" fill="rgb(0,0,0)" transform="translate(0,0)"></path>
<metadata><recraft-signature>{"signed_by": "recraft", "signature_b64": "puvs4PY7LaWeL3K4ZhusJIgg3/5Y86+Tp6Cd4uLAAOYRUQ4eg46yfww1JTZVHpggk+oV1/VKhgChr8HxYrARDQ==", "signing_algo": "Ed25519", "generation_timestamp": 1772997693, "identifier": "668fc181-4bb5-4a3b-acba-97c78a6f4701"}</recraft-signature></metadata></svg>