<svg xmlns="http://www.w3.org/2000/svg" height="512" preserveAspectRatio="none" style="display: block;" version="1.1" viewBox="0 0 2048 2048" width="512">
<path d="M 1141.76 1249 C 1169.88 1248.02 1204.75 1248.97 1233.31 1248.98 L 1514.51 1248.96 C 1530.49 1248.95 1557.19 1248.17 1572.11 1250.38 C 1661.12 1263.56 1685.5 1334.35 1685.45 1411.25 L 1685.52 1537.66 C 1685.6 1555.2 1686.53 1575.22 1683.07 1592.18 C 1669.7 1656 1619.49 1690.27 1558.47 1696.93 L 1201.38 1696.97 C 1180.82 1696.96 1154.23 1697.45 1134.03 1694.04 C 1042.82 1678.66 1016.33 1602.4 1016.25 1522.79 L 1016.24 1463.26 C 1016.28 1356.65 1013.68 1272 1141.76 1249 z M 1141.76 1558.24 C 1158.07 1571.58 1193.14 1566.12 1215.26 1566.12 L 1483.3 1566.11 C 1499.18 1566.13 1536.36 1567.33 1549.94 1566.08 C 1564.82 1556.04 1558.25 1504.22 1558.38 1485.6 C 1558.59 1455.82 1558.53 1426.02 1558.84 1396.24 C 1559.14 1367.12 1519.15 1376.93 1494.52 1376.94 L 1151.61 1376.97 C 1137.18 1386.62 1141.65 1403.49 1141.71 1418.96 L 1141.7 1529.03 C 1141.67 1537.46 1140.99 1550.24 1141.76 1558.24 z" fill="rgb(46,46,46)" transform="translate(0,0)"></path>
<path d="M 704.834 1568.49 L 704.812 1130.33 C 704.817 1113.55 703.439 1092.19 705.937 1075.93 C 716.434 1007.65 810.845 1005.01 829.342 1069.98 C 833.464 1084.46 831.789 1108.77 831.784 1124.02 L 831.701 1198.5 L 831.773 1590.86 C 831.825 1608.07 832.114 1625.31 831.601 1642.49 C 829.634 1708.25 749.616 1697.04 705.21 1696.98 L 473.875 1696.92 C 350.698 1697.22 360.269 1678.36 360.248 1575.04 L 360.253 1195.23 C 360.254 1156.36 359.822 1117.41 360.442 1078.56 C 360.933 1047.8 382.976 1030.2 410.604 1023.1 C 485.286 1020.39 481.758 1076.66 481.761 1128.34 L 481.726 1568.49 L 704.834 1568.49 z" fill="rgb(46,46,46)" transform="translate(0,0)"></path>
<path d="M 1298.95 355.236 C 1330.52 353.001 1355.9 365.347 1368.79 395.338 C 1388.66 441.599 1407.57 488.174 1426.65 534.761 L 1527.99 779.517 L 1589.12 920.672 C 1597.06 939.256 1606.75 961.245 1613.17 980.415 C 1619.55 1051.76 1531.27 1081.82 1496.79 1022.57 C 1489.56 1010.14 1484.13 993.967 1478.58 980.475 L 1354.86 682.34 C 1341.22 649.435 1328.14 615.138 1313.99 582.597 L 1309.42 573.436 C 1291.63 610.566 1274 657.449 1257.76 696.254 L 1143.33 972.098 C 1137.02 988.154 1131.17 1006.45 1123.04 1021.52 C 1087.49 1087.41 989.42 1041 1007.89 974.463 C 1015.36 955.44 1023.48 936.5 1031.34 917.596 L 1229.47 441.549 C 1246.45 400.375 1250.14 366.712 1298.95 355.236 z" fill="rgb(46,46,46)" transform="translate(0,0)"></path>
<metadata><recraft-signature>{"signed_by": "recraft", "signature_b64": "oRpPlXFaC5RsOH5F3cth4mL3KwFtrR6zKvfnE7JVNtjqxeQBsNJ+KxARIa1eHGAHtUuOvc/lxXmJjzeVeylgCQ==", "signing_algo": "Ed25519", "generation_timestamp": 1772989930, "identifier": "1053cc21-585f-4bb8-b7c8-450beab2d884"}</recraft-signature></metadata></svg>