<svg xmlns="http://www.w3.org/2000/svg" height="512" preserveAspectRatio="none" style="display: block;" version="1.1" viewBox="0 0 2048 2048" width="512">
<path d="M 729.683 549.365 C 673.201 510.324 698.618 413.536 754.355 399.757 C 805.247 387.177 915.585 437.033 965.745 466.346 C 977.574 480.683 1005.26 499.397 1021.89 517.442 C 1039.25 500.719 1059.37 485.409 1075.65 469.465 C 1130.79 436.886 1246.14 386.366 1303.06 401.895 C 1340.05 411.986 1363.49 473.246 1353.39 507.189 C 1348.19 524.678 1329.6 538.976 1315.42 549.365 C 1836.89 824.202 1768.34 1568.32 1214.43 1745.38 C 877.945 1852.94 505.675 1650.67 404.426 1316.11 C 309.607 1005.42 452.724 704.02 729.683 549.365 z M 1289.03 763.364 C 1236.87 758.461 1167.65 749.097 1119.59 730.519 C 1076.59 808.918 970.223 804.613 922.66 730.519 C 875.188 748.202 813.797 762.339 762.959 763.364 L 763.135 761.53 C 767.16 716.241 756.382 702.785 774.733 651.197 C 775.255 649.728 775.091 650.043 775.26 648.164 C 542.287 762.756 427.789 1050.91 512.076 1297.43 C 668.887 1756.08 1297.28 1795.67 1510.42 1359.66 C 1635.87 1103.04 1527.43 768.721 1270.28 644.47 L 1270.95 646.18 C 1293.83 704.198 1286.36 701.48 1289.03 763.364 z" fill="rgb(7,7,7)" transform="translate(0,0)"></path>
<path d="M 729.683 549.365 C 673.201 510.324 698.618 413.536 754.355 399.757 C 805.247 387.177 915.585 437.033 965.745 466.346 C 977.574 480.683 1005.26 499.397 1021.89 517.442 C 1039.25 500.719 1059.37 485.409 1075.65 469.465 C 1130.79 436.886 1246.14 386.366 1303.06 401.895 C 1340.05 411.986 1363.49 473.246 1353.39 507.189 C 1348.19 524.678 1329.6 538.976 1315.42 549.365 C 1305.03 552.475 1281.24 571.106 1269.75 577.262 C 1250 587.844 1216.84 600.959 1200.42 611.265 C 1215.37 617.897 1258.37 636.597 1270.28 644.47 L 1270.95 646.18 C 1293.83 704.198 1286.36 701.48 1289.03 763.364 C 1236.87 758.461 1167.65 749.097 1119.59 730.519 C 1076.59 808.918 970.223 804.613 922.66 730.519 C 875.188 748.202 813.797 762.339 762.959 763.364 L 763.135 761.53 C 767.16 716.241 756.382 702.785 774.733 651.197 C 775.255 649.728 775.091 650.043 775.26 648.164 C 798.001 634.967 827.859 624.227 852.108 611.265 C 848.48 609.209 837.536 605.337 833.354 603.996 C 793.805 591.319 764.338 571.094 729.683 549.365 z" fill="rgb(42,214,46)" transform="translate(0,0)"></path>
<path d="M 1200.42 611.265 C 1215.37 617.897 1258.37 636.597 1270.28 644.47 L 1270.95 646.18 C 1293.83 704.198 1286.36 701.48 1289.03 763.364 C 1236.87 758.461 1167.65 749.097 1119.59 730.519 C 1076.59 808.918 970.223 804.613 922.66 730.519 C 875.188 748.202 813.797 762.339 762.959 763.364 L 763.135 761.53 C 767.16 716.241 756.382 702.785 774.733 651.197 C 775.255 649.728 775.091 650.043 775.26 648.164 C 798.001 634.967 827.859 624.227 852.108 611.265 C 983.36 651.273 1069.7 646.735 1200.42 611.265 z" fill="rgb(247,54,53)" transform="translate(0,0)"></path>
<path d="M 965.745 466.346 C 968.164 445.23 969.626 422.015 974.596 401.489 C 986.229 353.444 1029.64 231.708 1094.45 239.6 C 1122.23 242.775 1146.25 271.822 1141.14 299.979 C 1137.37 320.745 1122.04 335.564 1111.23 353.187 C 1089.18 389.142 1079.09 427.652 1075.65 469.465 C 1059.37 485.409 1039.25 500.719 1021.89 517.442 C 1005.26 499.397 977.574 480.683 965.745 466.346 z" fill="rgb(7,7,7)" transform="translate(0,0)"></path>
<metadata><recraft-signature>{"signed_by": "recraft", "signature_b64": "PvIz/kpp7YiFll1IVt6N4xljaMJmPDCmnN4MQm3s9Z+MyGNun5gixz4+SVxgchBEcHaZAd/RE5vOKQQqcG/6DA==", "signing_algo": "Ed25519", "generation_timestamp": 1772998845, "identifier": "695801ed-60ce-4bd7-aae5-80e68364d9b2"}</recraft-signature></metadata></svg>