<svg xmlns="http://www.w3.org/2000/svg" height="512" preserveAspectRatio="none" style="display: block;" version="1.1" viewBox="0 0 2048 2048" width="512">
<path d="M 1064.35 257.429 C 1264.3 243.437 1424.39 408.303 1427.05 604.029 C 1442.54 605.191 1471.4 604.07 1488.25 604.05 L 1621.08 603.997 C 1690.82 604.299 1753 635.846 1779.41 704.345 C 1793.54 740.98 1791.02 772.951 1791.03 810.919 L 1790.99 1273.76 C 1790.64 1323.28 1773.55 1363.32 1738.95 1398.69 C 1685.55 1453.29 1614.39 1444.85 1545.35 1444.8 L 1433.93 1444.81 C 1417.5 1673.13 1224.28 1834.43 992.536 1776.32 C 836.174 1730.78 746.548 1604.71 738.877 1447.04 C 700.111 1446.14 661.208 1449.23 622.599 1443.68 C 396.394 1411.16 229.609 1200.78 257.155 971.946 C 280.967 774.125 442.394 621.382 640.258 603.562 C 674.866 600.445 709.423 601.196 744.094 601.223 C 742.933 414.127 877.958 270.302 1064.35 257.429 z M 910.008 604.029 L 910.66 605.232 C 916.446 615.71 924.497 622.337 931.398 631.707 C 959.953 670.476 952.849 730.53 908.795 754.782 C 884.177 768.335 859.581 765.368 832.525 765.282 L 724.027 765.223 C 702.144 765.168 680.038 763.66 658.211 765.449 C 370.748 788.548 330.332 1193.72 605.447 1271.27 C 668.497 1289.54 736.845 1277.36 801.755 1281.02 C 817.353 1281.9 838.077 1279.41 852.392 1284.18 C 968.762 1322.98 841.31 1481.58 977.232 1587.18 C 1088.99 1668.5 1246.27 1606.12 1264.56 1470.71 C 1273.12 1407.38 1241.03 1293.06 1336.08 1281.83 C 1347.43 1280.01 1371.66 1280.81 1384.16 1280.84 L 1578.05 1280.86 C 1591.03 1280.85 1617.51 1279.93 1629.07 1280.91 L 1629.07 765.267 L 1369.03 765.276 C 1225.68 765.221 1273.85 669.027 1261.33 573.624 C 1249.93 486.756 1161.22 411.406 1072.54 421.008 C 974.926 432.558 908.024 504.939 910.008 604.029 z" fill="rgb(0,0,0)" transform="translate(0,0)"></path>
<metadata><recraft-signature>{"signed_by": "recraft", "signature_b64": "4cpCNEJty2PKr1o8jFcxH8yQXbR7QasuI8isBkzMdUYUX7cGjcC2oisK9xRevCvGw/Jb8wxlzmPuNr9z4YOjCA==", "signing_algo": "Ed25519", "generation_timestamp": 1772990303, "identifier": "0cd918e4-1aa2-4276-bb1c-211be4b977af"}</recraft-signature></metadata></svg>