<svg xmlns="http://www.w3.org/2000/svg" height="512" preserveAspectRatio="none" style="display: block;" version="1.1" viewBox="0 0 2048 2048" width="512">
<path d="M 320.633 299.455 L 1749.94 299.455 L 1749.93 1695.97 C 1749.92 1712.35 1749.25 1731.98 1749.94 1748.02 L 1735.25 1748.02 L 300.99 1748.02 L 300.99 299.455 L 320.633 299.455 z M 1102 1077.55 L 1102 1643.97 L 1295.5 1643.97 L 1644.04 1643.97 L 1644.04 1077.55 L 1454.37 1077.55 L 1102 1077.55 z M 405.49 1077.55 L 405.508 1455.67 C 405.511 1516.66 407.039 1583.8 405.49 1643.97 L 800.5 1643.97 C 848.658 1643.94 898.306 1643.29 946.339 1643.97 C 947.368 1582.21 946.341 1517.62 946.339 1455.6 L 946.339 1077.55 L 550.998 1077.55 L 405.49 1077.55 z M 405.49 401.991 L 405.479 756.961 C 405.475 810.22 406.315 865.923 405.49 918.999 L 885.552 918.981 C 904.922 918.978 927.307 918.367 946.339 918.999 L 946.339 401.991 L 405.49 401.991 z M 1102 918.999 C 1161.26 920.032 1223.97 919.002 1283.42 919 L 1644.04 918.999 C 1644.86 900.195 1644.1 877.438 1644.07 858.214 L 1644.04 401.991 L 1102 401.991 L 1102 918.999 z" fill="rgb(0,0,0)" transform="translate(0,0)"></path>
<metadata><recraft-signature>{"signed_by": "recraft", "signature_b64": "1go69Xlagait/57bQitRriVyIXM3ngB7+oTl/Et3YCPsWSc3bRPjpku4NwS97XhVOIK+EvwhzALBkuFD8YTQDQ==", "signing_algo": "Ed25519", "generation_timestamp": 1772997728, "identifier": "bf182a81-20b8-4fe1-8b52-1c5a0cbeac0e"}</recraft-signature></metadata></svg>