<svg xmlns="http://www.w3.org/2000/svg" height="512" preserveAspectRatio="none" style="display: block;" version="1.1" viewBox="0 0 2048 2048" width="512">
<path d="M 1363.75 296.722 L 1621.29 296.725 C 1663.4 296.723 1707.75 295.945 1749.61 296.722 L 1749.61 1747 L 688.5 1747 L 298.031 1747 C 297.072 1736.47 297.964 1713.13 297.979 1701.38 L 298.031 296.722 L 1363.75 296.722 z M 897.002 1623.35 L 1620.01 1623.35 L 1619.99 1255.24 C 1619.99 1192.66 1619.2 1128.43 1620.01 1065.99 C 1541.73 1064.57 1458.25 1066 1379.56 1066 L 897.002 1065.99 C 896.265 1127.43 897.006 1190.55 897.007 1252.1 L 897.002 1623.35 z M 897.002 936.063 L 1620.01 936.063 L 1619.98 477.939 C 1619.94 463.867 1618.91 438.412 1620.01 425.696 L 897.002 425.696 C 896.141 488.638 897.005 553.861 897.002 616.944 L 897.002 936.063 z M 542.999 425.696 L 426.997 425.696 L 426.997 936.063 L 653.463 936.063 L 768.023 936.063 L 768.015 593.554 C 768.008 539.858 766.568 478.866 768.023 425.696 L 542.999 425.696 z M 442.175 1065.99 C 437.98 1066 430.996 1066.21 426.997 1065.99 L 426.997 1623.35 C 462.65 1624.22 501.544 1623.35 537.527 1623.35 L 757.25 1623.35 L 768.023 1623.35 C 768.792 1557.84 768.024 1490.57 768.025 1424.96 L 768.023 1065.99 L 442.175 1065.99 z" fill="rgb(0,0,0)" transform="translate(0,0)"></path>
<metadata><recraft-signature>{"signed_by": "recraft", "signature_b64": "tnM8h8M0kbdt0FgyI3isNdpQUQljZWfR5e92L4x5fdCOgpY0NlY1HKbuhHQ+n5023zanqoOKvog2V6L7RI+mDw==", "signing_algo": "Ed25519", "generation_timestamp": 1772997558, "identifier": "f91ed913-10aa-4761-bbd8-6e4cdf4465a3"}</recraft-signature></metadata></svg>