<svg xmlns="http://www.w3.org/2000/svg" height="512" preserveAspectRatio="none" style="display: block;" version="1.1" viewBox="0 0 2048 2048" width="512">
<path d="M 1172.6 1059 C 1179.28 1058.45 1193.96 1058.93 1201.49 1058.95 L 1685.63 1058.97 C 1726.68 1058.97 1767.99 1058.47 1809.04 1059.61 C 1864.39 1061.14 1854.02 1129.59 1854.03 1165.54 L 1854 1643.68 C 1853.99 1683.02 1860.31 1730.51 1808.07 1737.49 C 1798.17 1738.09 1782.81 1737.59 1772.5 1737.56 L 1218.57 1737.53 C 1118.54 1737.52 1129.37 1708.07 1129.54 1627.93 L 1129.47 1148.42 C 1129.31 1108.45 1121.51 1070.44 1172.6 1059 z M 1234.49 1635.38 L 1692.88 1635.35 C 1712.22 1635.32 1734.75 1634.62 1753.72 1635.38 C 1759.62 1618.12 1753.08 1217.82 1753.72 1161.1 L 1403.72 1161.11 C 1347.67 1161.12 1290.47 1160.51 1234.49 1161.1 L 1234.45 1584.48 C 1234.42 1598.31 1233.6 1622.25 1234.49 1635.38 z" fill="rgb(0,0,0)" transform="translate(0,0)"></path>
<path d="M 239.689 309.997 C 249.452 309.23 264.521 309.936 274.996 309.959 L 754.32 310.005 C 793.767 310.001 833.301 309.587 872.708 310.329 C 925.778 310.135 919.047 366.389 919.052 401.121 L 919.05 886.437 C 919.155 927.525 928.609 977.581 874.25 985.997 L 299.218 985.936 C 264.51 985.955 194.815 996.78 194.229 942.849 C 193.92 914.346 194.019 885.832 194.018 857.354 L 194.222 364.584 C 196.872 335.809 201.75 311.129 239.689 309.997 z M 295.661 885.999 L 757.654 885.992 C 776.042 885.992 796.835 885.478 815.029 885.999 L 815.029 409.981 L 351.62 409.968 C 335.349 409.962 311.138 409.053 295.661 409.981 C 295.017 428.33 295.636 449.002 295.646 467.618 L 295.661 885.999 z" fill="rgb(0,0,0)" transform="translate(0,0)"></path>
<path d="M 541.065 1089.16 C 569.538 1087.11 590.586 1095.58 602.018 1122.35 C 617.351 1158.25 629.853 1195.23 643.665 1231.7 L 783.151 1597 C 793.135 1623.2 804.494 1649.9 812.554 1676.77 C 825.092 1718.58 747.846 1770.26 715.969 1708.15 C 708.005 1692.6 703.578 1676.19 697.399 1659.99 L 591.732 1384.66 C 579.171 1351.95 566.505 1320.5 555.235 1287.25 C 547.946 1267.98 505.874 1400.99 501.39 1412.75 L 415.998 1632.37 C 406.106 1657.65 397.459 1684.07 385.062 1708.78 C 359.085 1760.54 281.278 1733.68 289.888 1678.01 C 291.803 1665.62 303.385 1639.62 308.211 1626.82 L 487.822 1162.9 C 499.755 1131.52 504.608 1098.82 541.065 1089.16 z" fill="rgb(0,0,0)" transform="translate(0,0)"></path>
<metadata><recraft-signature>{"signed_by": "recraft", "signature_b64": "NKP1ItHKDeKsP3PE9LATjTP9hfBR/uGa68E/GxmjoVg8gYSFLKP93r27520D4/1SNy2frejmyTak4BllnFFQDg==", "signing_algo": "Ed25519", "generation_timestamp": 1772996276, "identifier": "994d41c0-95d3-497c-9486-532bb298dbcb"}</recraft-signature></metadata></svg>