<svg xmlns="http://www.w3.org/2000/svg" height="512" preserveAspectRatio="none" style="display: block;" version="1.1" viewBox="0 0 2048 2048" width="512">
<path d="M 1522.38 338.906 L 1652.13 338.893 C 1669.3 338.876 1686.46 338.338 1703.67 338.472 C 1754.81 338.871 1790.93 384.319 1790.97 433.041 L 1791.07 1582.22 C 1791.2 1684.58 1768.31 1710.82 1664.22 1710.89 L 523.683 1710.88 L 411.767 1710.92 C 386.809 1710.92 355.183 1712.34 331.201 1707.62 C 281.952 1697.93 257.131 1652.99 256.94 1606.62 L 256.896 459.608 C 256.553 365.64 284.287 338.543 377.494 338.841 L 1522.38 338.906 z M 348.495 860.51 L 348.495 1619 L 1488.5 1619 L 1628.45 1619.03 C 1649.44 1619.03 1677.84 1619.97 1698.05 1619 L 1698.06 940.907 C 1698.08 918.631 1699.32 881.352 1698.05 860.51 L 563.993 860.51 L 348.495 860.51 z M 348.495 767.032 L 1698.05 767.032 L 1698.05 429.008 L 348.495 429.008 L 348.495 767.032 z" fill="rgb(0,0,0)" transform="translate(0,0)"></path>
<metadata><recraft-signature>{"signed_by": "recraft", "signature_b64": "fCzMucGSSIywrDrjxs7Kk8ISnVST1JdP6Wq3ewxDIz0MStahuEW+mEWzpv0qEiGAqNT974WLIfsIiRAAhLFbDA==", "signing_algo": "Ed25519", "generation_timestamp": 1772996222, "identifier": "91155ede-9734-478f-9187-9b5b4934b48b"}</recraft-signature></metadata></svg>