<svg xmlns="http://www.w3.org/2000/svg" height="512" preserveAspectRatio="none" style="display: block;" version="1.1" viewBox="0 0 2048 2048" width="512">
<path d="M 453.813 282.958 C 454.021 282.944 454.23 282.929 454.438 282.914 L 1545.02 282.917 C 1564.46 282.909 1583.93 282.149 1603.23 284.723 C 1706.04 298.43 1746.27 376.618 1746.03 470.984 L 1746.01 968.582 C 1746.02 992.504 1747.68 1019.8 1744.22 1042.99 C 1720.37 1127.59 1596.13 1122.28 1582.71 1035.53 C 1579.98 1017.91 1581.58 992.056 1581.58 973.201 L 1581.6 445.155 L 629.198 445.155 C 684.23 505.49 746.117 564.666 803.873 622.558 L 969.533 791.89 C 1006.57 829.499 1058.92 875.338 1091.05 915.662 C 1142.62 988.59 1043.55 1074.58 974.194 1019.4 C 960.178 1008.24 943.202 988.764 929.646 975.133 L 466.786 514.707 L 466.786 1326.52 L 858.639 1326.53 C 888.475 1326.52 920.685 1322.5 946.569 1340.47 C 1005.88 1381.65 985.73 1475.86 914.843 1488.73 C 893.745 1492.56 859.312 1490.54 836.994 1490.51 L 537.456 1490.49 C 507.734 1490.53 474.465 1491.92 445.079 1488.66 C 374.793 1480.87 314.154 1420.96 303.86 1351.24 C 301.381 1334.45 302.598 1317.24 302.677 1300.27 L 302.69 489.079 C 302.695 382.621 328.303 300.643 453.813 282.958 z" fill="rgb(0,0,0)" transform="translate(0,0)"></path>
<path d="M 1563.51 1241.51 L 1623.04 1241.44 C 1641.69 1241.35 1670.95 1239.23 1687.74 1244.28 C 1766.47 1267.92 1767.03 1379.43 1686.65 1400.42 C 1668.43 1405.17 1637.42 1403.04 1617.86 1403.04 L 1516.95 1403 C 1580.96 1472.7 1652.08 1536.03 1717.35 1604.53 C 1723.91 1611.42 1730.84 1617.75 1735.96 1626.01 C 1771.52 1683.11 1724 1756.29 1653.63 1747.85 C 1619.98 1740.02 1609.52 1725.13 1585.46 1701.63 L 1277.09 1396.76 C 1253.49 1373.55 1239.13 1358.14 1238.45 1322.98 C 1235.19 1231.72 1332.37 1241.48 1391.12 1241.47 L 1563.51 1241.51 z" fill="rgb(0,0,0)" transform="translate(0,0)"></path>
<metadata><recraft-signature>{"signed_by": "recraft", "signature_b64": "wRhVARNkTbO05EZunTmWEBtuHSGcVhKTwRL1lTu+OcNkjMG4znTDNSOO8TxSTDcWygBWEJQR4idh6q3s9pgcAg==", "signing_algo": "Ed25519", "generation_timestamp": 1772989540, "identifier": "c5521ed2-d199-4f15-825c-594ed85edad6"}</recraft-signature></metadata></svg>