<svg xmlns="http://www.w3.org/2000/svg" height="512" preserveAspectRatio="none" style="display: block;" version="1.1" viewBox="0 0 2048 2048" width="512">
<path d="M 920.792 937.965 C 939.381 936.492 966.879 937.927 986.66 937.981 L 1231.27 937.716 C 1252.27 937.716 1284.04 936.823 1303.53 940.004 C 1419.85 958.985 1486.4 1026.22 1535.91 1125.53 L 1742.65 1536.48 C 1764.92 1580.32 1801.27 1631.59 1767.95 1680.15 C 1750.47 1705.6 1733.26 1714.4 1704.23 1721 C 1631.27 1731.22 1605.38 1645.61 1580.54 1597.06 L 1380.37 1202.01 C 1332.55 1108.12 1309.35 1107.88 1201.98 1108.06 L 953.698 1108.09 C 923.283 1108.14 898.324 1110.4 873.669 1089.33 C 816.213 1040.24 842.642 943.313 920.792 937.965 z" fill="rgb(0,0,0)" transform="translate(0,0)"></path>
<path d="M 1016.58 1333.08 C 1086.8 1323.95 1138.95 1395.44 1105.93 1459.08 C 1090.45 1488.9 934.111 1637.7 904.475 1664.99 C 820.893 1738.9 679.394 1739.23 594.381 1667.74 C 568.354 1645.86 540.901 1616.75 516.125 1592.19 C 472.338 1545.8 403.308 1498.4 450.419 1428.03 C 469.494 1396.22 521.046 1382.67 553.939 1400.24 C 617.461 1434.18 667.239 1537.35 740.715 1543.8 C 790.443 1548.17 814.109 1513.93 846.299 1481.46 L 928.854 1398.71 C 955.051 1372.23 978.668 1340.38 1016.58 1333.08 z" fill="rgb(0,0,0)" transform="translate(0,0)"></path>
<path d="M 744.298 327 C 762.447 323.312 779.929 330.046 795.357 339.406 C 894.318 399.446 755.731 525.346 992.539 639.274 C 1060.39 673.016 1045.92 782.12 954.208 800.954 C 945.628 801.268 932.854 801.213 924.787 797.917 C 787.3 741.756 694.133 643.033 666.17 493.148 C 657 429.65 653.671 326.565 744.298 327 z" fill="rgb(0,0,0)" transform="translate(0,0)"></path>
<path d="M 1201.79 327 C 1225.07 326.272 1238.99 327.484 1259.33 339.976 C 1313.02 372.942 1294.8 422.243 1305.55 470.126 C 1319.02 530.166 1355.28 587.057 1409.17 618.374 C 1427.75 629.14 1447.13 635.279 1465.57 646.609 C 1523.39 682.149 1505.81 784.885 1420.13 800.954 C 1391.48 798.864 1373.55 787.589 1348.86 774.533 C 1247.75 721.057 1162.91 624.95 1136.14 512.096 C 1118.35 437.14 1106.14 349.899 1201.79 327 z" fill="rgb(0,0,0)" transform="translate(0,0)"></path>
<path d="M 426.673 995.413 C 479.081 990.729 508.851 1027.13 543.059 1059.64 C 619.59 1132.38 602.696 1193.36 531.577 1262.1 C 499.219 1294.53 485.821 1315 436.071 1318.34 C 383.326 1319.25 363.109 1296.08 328.553 1261.35 C 247.28 1181.41 248.406 1128.31 331.922 1047.78 C 367.572 1013.4 375.018 999.964 426.673 995.413 z" fill="rgb(240,7,20)" transform="translate(0,0)"></path>
<metadata><recraft-signature>{"signed_by": "recraft", "signature_b64": "Y8yL9Bld6ATrFc5G4Gf7JdzB9EktIfD0WPXyTjhMz3uwdnNb6jH8WYQgsK/I/hQKpvWrn3tvMCnaVRLftxIUBQ==", "signing_algo": "Ed25519", "generation_timestamp": 1772989091, "identifier": "3313a8ca-9322-4dcc-b657-8ffae4ab1d70"}</recraft-signature></metadata></svg>