<svg xmlns="http://www.w3.org/2000/svg" height="512" preserveAspectRatio="none" style="display: block;" version="1.1" viewBox="0 0 2048 2048" width="512">
<path d="M 856.637 344.975 C 866.588 343.414 896.777 344.944 908.169 344.944 L 1136.37 344.959 C 1213.5 344.981 1266.54 348.632 1326.91 407.22 C 1365.05 444.241 1374.63 478.041 1390.99 526.365 L 1656.04 1311.99 C 1674 1366.65 1703.01 1419.72 1703.19 1478.41 C 1703.49 1577.83 1640.87 1669.8 1542.97 1694.77 C 1500.74 1705.54 1434.33 1701.52 1389.14 1701.51 L 1191.75 1701.51 L 606.126 1701.54 C 539.046 1701.54 491.558 1704.29 433.691 1660.99 C 342.049 1592.42 330.642 1494.64 364.467 1393.88 L 657.332 529.954 C 691.865 425.87 733.765 360.363 856.637 344.975 z M 1191.75 1538.01 L 1454.1 1538.07 C 1582.35 1538.25 1533.04 1461.67 1506.24 1382.99 L 1266.45 674.465 C 1250.23 627.915 1234.93 580.934 1218.13 534.546 C 1206.63 502.815 1171.9 507.857 1145.04 507.925 L 861.584 508.011 C 822.68 515.502 821.214 556.68 809.128 592.338 L 515.192 1464.36 C 506.031 1491.79 513.917 1516.79 539.182 1531.52 C 559 1543.08 601.038 1537.93 624.215 1537.95 L 1191.75 1538.01 z" fill="rgb(0,0,0)" transform="translate(0,0)"></path>
<path d="M 729.17 1241 L 1323 1241 L 1323 1405.9 C 1302.34 1406.65 1277.92 1405.92 1257 1405.91 L 729.17 1405.9 L 729.17 1241 z" fill="rgb(0,0,0)" transform="translate(0,0)"></path>
<metadata><recraft-signature>{"signed_by": "recraft", "signature_b64": "WtbnNeWtNhIk7vz70OS8srnonNtwAWfHwq3d1yafpIw1iWZKJbYHyW1DmpzcmkEBnyOqnBxC1qvs2atyEcXvCA==", "signing_algo": "Ed25519", "generation_timestamp": 1772990493, "identifier": "9128acb9-1564-46e1-8b47-61bca29076ef"}</recraft-signature></metadata></svg>