<svg xmlns="http://www.w3.org/2000/svg" height="512" preserveAspectRatio="none" style="display: block;" version="1.1" viewBox="0 0 2048 2048" width="512">
<path d="M 1165.42 249.983 C 1333.57 240.955 1436.43 369.424 1423.19 529.001 L 1577.79 528.964 C 1604.83 528.962 1640.52 527.016 1666.61 531.784 C 1714.97 540.622 1760.57 589.432 1766.17 638.221 C 1769.8 669.894 1769.04 704.006 1769.04 735.926 L 1768.64 875.952 C 1768.23 933.766 1785.16 1035.28 1731.18 1064.92 C 1663.25 1102.22 1641.08 1030.98 1597.11 1020.93 C 1509.67 999.914 1443.07 1105.88 1509.47 1171.73 C 1586.95 1249.42 1640.85 1148.67 1691.29 1148.92 C 1735.82 1149.14 1768.78 1184.25 1769.07 1228.44 L 1769.02 1589.94 C 1769.04 1607.78 1770.24 1628.2 1767.11 1645.55 C 1750.91 1735.37 1681.33 1753.37 1604.92 1753.04 L 1300.36 1753.37 C 1257.5 1753.25 1220.3 1718.75 1221.51 1675.01 C 1221.57 1621.31 1274.24 1622.81 1274.41 1562.54 C 1274.48 1534.69 1264.68 1515.1 1244.63 1495.06 C 1164.6 1418.23 1027.82 1546.34 1119.24 1623.4 C 1171.08 1667.11 1141.27 1752.85 1070 1753.14 L 731.953 1753.02 C 647.938 1753.02 565.839 1721.76 565.006 1621.25 L 564.996 1318.99 C 552.389 1317.55 541.36 1318.96 528.697 1318.99 C 287.911 1319.47 184.768 1008.68 390.824 874.447 C 438.115 843.64 509.209 828.247 564.996 841.507 L 564.968 730.45 C 564.965 652.595 563.864 549.062 666.794 531.704 C 696.687 526.662 737.401 528.978 768.495 529.02 L 945.021 529.001 C 946.468 511.727 944.396 495.37 945.104 478.321 C 950.221 355.079 1045.73 265.58 1165.42 249.983 z M 715.328 677.505 L 715.3 886.818 C 715.291 931.294 725.321 978.469 692.054 1012.07 C 668.372 1035.99 628.83 1041.44 600.305 1021.87 C 589.788 1013.39 582.336 1004.36 570.607 997.276 C 509.983 960.669 431.036 1004.2 428.978 1074.64 C 426.652 1154.21 521.107 1200.53 581.205 1150.17 C 589.51 1143.21 596.164 1135.84 605.994 1130.09 C 647.888 1105.56 705.357 1136.17 713.886 1182.39 C 716.685 1197.55 715.441 1220.82 715.409 1236.99 L 715.34 1516.47 C 715.35 1544.55 717.045 1578.56 715.328 1606.02 C 789.846 1606.82 864.799 1607.24 939.286 1606.02 C 922.103 1495.16 977.519 1384.53 1081.57 1339.05 C 1267.89 1260.02 1447.06 1407.99 1423.19 1606.02 C 1444.57 1605.32 1466.82 1606.01 1488.36 1606.03 L 1615.98 1606.02 L 1615.98 1346.36 C 1373.77 1380.96 1233.3 1090.75 1415.79 927.916 C 1470.26 879.316 1547.96 862.945 1618.6 875.431 C 1621.38 810.841 1617.47 742.676 1618.6 677.505 C 1592.75 676.829 1564.81 677.505 1538.72 677.506 L 1382.46 677.477 C 1352 677.487 1309.38 679.678 1280.66 675.101 C 1234.54 667.749 1208.13 606.741 1232.58 567.104 C 1239.78 555.417 1251.71 548.187 1259.73 537.155 C 1300.66 478.369 1255.07 404.877 1184.12 401.269 C 1129.76 406.754 1091.22 446.523 1097.16 502.448 C 1102.17 549.709 1150.45 558.729 1143.56 610.31 C 1132.84 690.621 1044.8 677.501 987.638 677.481 L 749.046 677.408 C 738.897 677.332 725.037 676.774 715.328 677.505 z" fill="rgb(0,0,0)" transform="translate(0,0)"></path>
<metadata><recraft-signature>{"signed_by": "recraft", "signature_b64": "ITpaDpViaRHvNSJcObVHSXK8TfAd6echsA+J/AGGcwwTwy08l5y4BkwcCf/aDUq7TH74IjpAoWb4os2v0nUCCQ==", "signing_algo": "Ed25519", "generation_timestamp": 1772990053, "identifier": "57a343fb-8f57-410c-92cb-3dd8172d8671"}</recraft-signature></metadata></svg>