<svg xmlns="http://www.w3.org/2000/svg" height="512" preserveAspectRatio="none" style="display: block;" version="1.1" viewBox="0 0 2048 2048" width="512">
<path d="M 378.688 352.4 L 1623.57 352.377 C 1722.44 351.651 1759.93 366.677 1759.86 471.464 L 1759.81 1515.18 C 1759.92 1591.25 1774.92 1676.8 1674.25 1695.18 C 1643.65 1695.81 1610.63 1695.2 1579.88 1695.2 L 425.88 1695.23 C 365.086 1695.33 291.295 1691.68 289.346 1607.93 C 288.712 1580.67 289.009 1553.09 289.016 1525.66 L 289.013 485.072 C 289.027 416.722 295.276 356.218 378.688 352.4 z M 895.49 1632.84 L 1570.73 1632.86 C 1595.36 1632.87 1665.85 1638.2 1684.83 1624.84 C 1702.64 1606.36 1696.88 1574.09 1696.86 1548.8 L 1696.81 1118 L 899.141 1118 L 896.879 1119 C 894.741 1129.86 895.535 1159.38 895.537 1171.61 L 895.49 1632.84 z M 378.688 416.002 C 340.983 423.07 351.88 468.568 351.91 500.192 L 351.942 929.003 C 461.43 930.182 573.453 928.999 683.177 929.003 L 706.021 929.003 L 706.021 416.002 L 413.45 415.961 C 403.762 415.938 387.989 415.382 378.688 416.002 z M 356.023 1118 L 352.658 1118.85 C 350.25 1124.84 353.033 1563.7 351.898 1596.17 C 351.406 1610.25 354.285 1629.24 372.299 1631.2 C 402.346 1634.45 442.681 1632.81 472.978 1632.8 L 702.125 1632.84 L 704.264 1632.41 C 707.136 1627.33 706.018 1464.38 706.018 1448.52 L 706.021 1118 C 690.763 1119.09 675.781 1118.16 660.487 1118.04 L 356.023 1118 z M 895.49 416.002 C 894.628 447.077 895.472 481.762 895.48 513.203 L 895.463 855.936 C 895.457 877.522 894.493 908.114 895.49 929.003 L 1608.08 929.014 C 1636.44 929.015 1668.89 929.836 1696.81 929.003 C 1697.88 920 1696.82 884.712 1696.81 873.128 L 1696.78 554.66 C 1696.8 520.088 1697.34 485.434 1696.42 450.882 C 1695.37 411.983 1665.2 415.986 1637.26 415.978 L 945.815 415.989 C 931.845 415.981 908.825 415.134 895.49 416.002 z" fill="rgb(0,0,0)" transform="translate(0,0)"></path>
<metadata><recraft-signature>{"signed_by": "recraft", "signature_b64": "HPt43PnvVDap0WSz3czr6QiEn+YWWGdy8gqp+wekWEiNUtuT1q+AvMxGFDPkn+Syp59vyQ28L8ZErNcfCo7ABQ==", "signing_algo": "Ed25519", "generation_timestamp": 1772997459, "identifier": "99edddb6-4b10-471f-835c-a5a8fe0bf48e"}</recraft-signature></metadata></svg>