<svg xmlns="http://www.w3.org/2000/svg" height="512" preserveAspectRatio="none" style="display: block;" version="1.1" viewBox="0 0 2048 2048" width="512">
<path d="M 400.846 419.041 C 407.616 418.284 441.821 419.026 449.998 419.04 L 1571.03 419.018 C 1644.39 419.007 1738.67 410.051 1753.85 511.087 C 1756.19 526.641 1755.3 546.814 1755.29 562.786 L 1755.28 1457.44 C 1755.49 1537.95 1751.05 1611.81 1652.24 1626.99 C 1603.9 1631.66 1579.18 1610.85 1541.94 1585.68 L 1153.27 1324.47 C 1094.31 1284.26 1065.32 1299.96 990.973 1300 L 469.146 1300.04 C 445.278 1300.07 415.65 1301.2 392.729 1298.2 C 314.822 1287.97 292.981 1223.9 292.969 1157.04 L 293.019 571.35 C 292.744 492.087 306.306 434.912 400.846 419.041 z M 433.993 1158.01 L 1060.29 1157.98 C 1133.77 1157.93 1139.72 1147.1 1199.52 1186.63 L 1556.53 1421.77 C 1564.58 1427.06 1611.55 1460.28 1614.57 1461.05 C 1615.3 1437.18 1614.58 1410.4 1614.58 1386.18 L 1614.55 633.59 C 1614.55 611.884 1613.52 581.735 1614.57 560.992 C 1571.64 561.701 1526.71 560.997 1483.6 560.995 L 433.993 560.992 C 432.467 624.894 433.996 694.741 433.998 759.33 L 433.993 1158.01 z" fill="rgb(0,0,0)" transform="translate(0,0)"></path>
<metadata><recraft-signature>{"signed_by": "recraft", "signature_b64": "1aM0vpUpa6Kk7NRnP+VZ//VFTObi+uqa2kElLFP2UzyRqfRYfKKUmaovjrN894TlmevzoHy2py755QKFaYq7BQ==", "signing_algo": "Ed25519", "generation_timestamp": 1772995814, "identifier": "76c222d7-5e87-44c3-9e5b-16e48f31cea1"}</recraft-signature></metadata></svg>