<svg xmlns="http://www.w3.org/2000/svg" height="512" preserveAspectRatio="none" style="display: block;" version="1.1" viewBox="0 0 2048 2048" width="512">
<path d="M 673.855 229.665 C 677.654 230.817 767.076 321.458 779.532 333.868 L 674.106 440.505 C 657.076 457.606 619.061 494.727 605.749 512.723 C 624.816 513.62 651.966 512.76 671.579 512.751 L 1326.21 512.698 C 1364.04 512.7 1403.3 510.961 1440.39 518.855 C 1582.64 549.126 1697.55 681.393 1697.94 828.538 L 1698.05 1711.57 C 1698.05 1768.15 1691.26 1821.87 1621.04 1822.33 L 1281.58 1822.03 C 1235.17 1822.04 1196.56 1823.87 1151.23 1811.91 C 798.183 1717.66 836.486 1203.61 1190.49 1161.93 C 1224.44 1157.93 1267.25 1159.82 1302.06 1159.86 L 1302.06 1303.99 C 1294.23 1303.54 1286.05 1303.84 1278.18 1303.99 C 1228.29 1303.78 1196.57 1300.71 1150.32 1325.33 C 1001.71 1404.43 1025.11 1626.06 1188.69 1669.48 C 1213.24 1676 1240.11 1674.76 1266.06 1674.75 L 1550.03 1674.71 L 1550.06 906.409 C 1550.07 830.26 1557.42 769.427 1498.99 710.327 C 1444.62 655.334 1391.07 661.959 1321.39 661.969 L 605.749 661.999 C 625.035 693.911 748.835 812.323 779.532 841.605 L 711.466 909.431 C 700.268 920.437 685.331 935.953 673.855 945.615 C 645.059 915.821 616.109 887.853 587.146 858.566 L 402.694 671.672 C 314.932 583.762 333.099 575.998 410.461 494.803 C 437.466 466.462 465.463 438.943 493.155 411.384 L 616.096 287.437 C 635.6 267.785 653.415 248.471 673.855 229.665 z" fill="rgb(0,0,0)" transform="translate(0,0)"></path>
<metadata><recraft-signature>{"signed_by": "recraft", "signature_b64": "svILXvkwcSMe7UqRlmsauC6f6aEnJqqRDtMz+MVfnIMjhAleQlhym/P64Q95k4nvSu/pM+Je7B6ViIGg+fKBCA==", "signing_algo": "Ed25519", "generation_timestamp": 1772990379, "identifier": "a51c84d6-9e52-4394-a5d2-25b37650debe"}</recraft-signature></metadata></svg>