<svg xmlns="http://www.w3.org/2000/svg" height="512" preserveAspectRatio="none" style="display: block;" version="1.1" viewBox="0 0 2048 2048" width="512">
<path d="M 388.5 343.398 L 1623.32 343.307 C 1678.74 343.126 1748.3 346.816 1748.91 423.951 L 1749.05 1010.1 C 1749.06 1035.43 1749.77 1062.15 1748.18 1087.36 C 1745.73 1126.12 1704.32 1152.27 1668.55 1151.25 L 1088.73 1151.39 C 1065.99 1151.39 1036.07 1152.91 1014.27 1150.23 C 922.886 1139.02 917.987 1001.77 1010.71 983.086 C 1025.1 980.184 1040.79 981.543 1055.24 981.648 L 1327.5 981.764 L 1487.67 981.783 C 1502.72 981.784 1563.17 983.146 1574.55 979.6 C 1578.04 975.036 1578.65 967.893 1578.66 962.244 L 1578.61 592.152 C 1578.62 569.684 1588.94 510.497 1563.27 510.221 C 1521.86 509.776 1480.42 509.999 1438.99 509.999 L 468.797 509.997 L 468.839 1014.77 C 468.835 1051.95 474.011 1092.68 446.829 1122.16 C 396.834 1176.38 300.537 1149.3 300.086 1070.7 L 299.966 494.729 C 299.985 425.431 288.892 345.136 388.5 343.398 z" fill="rgb(0,0,0)" transform="translate(0,0)"></path>
<path d="M 703.595 938.441 C 731.043 936.644 761.702 955.308 774.598 979.078 L 1069.36 1519.99 C 1081.54 1541.9 1095.85 1566.06 1106.37 1588.65 C 1141.07 1673.62 1019.56 1746.39 959.595 1668.26 C 951.516 1657.73 942.289 1637.82 935.585 1625.48 L 889.494 1541.43 C 828.96 1431.42 769.087 1321.45 706.707 1212.41 L 704.949 1212.56 C 702.275 1215.99 692.79 1233.81 690.077 1238.71 L 483.289 1613.28 C 474.2 1629.77 461.545 1658.27 449.6 1671.2 C 383.891 1742.33 269.145 1676.2 304.965 1583.4 C 308.931 1573.13 316.735 1561.33 322.072 1551.56 L 556.799 1123.35 C 587.292 1065.98 632.851 944.557 703.595 938.441 z" fill="rgb(0,0,0)" transform="translate(0,0)"></path>
<path d="M 1466.06 1238.53 C 1617.07 1235.17 1742.12 1353.19 1749.92 1503.93 C 1758.63 1594.13 1676.39 1655.05 1607.82 1600.8 C 1580.24 1579.33 1576.84 1550.04 1578.02 1517.17 C 1580 1462.21 1538.81 1415.33 1484.24 1408.33 L 1482.95 1408.17 C 1407.87 1394.95 1366.34 1462.67 1365.74 1530.13 C 1364.71 1647.22 1203.5 1647.34 1198.02 1531.68 C 1190.3 1378.5 1312.62 1242.93 1466.06 1238.53 z" fill="rgb(0,0,0)" transform="translate(0,0)"></path>
<metadata><recraft-signature>{"signed_by": "recraft", "signature_b64": "k/+M7SIPxEPEDc29PpaaCn5qdilFcbusv9H03+JOX0R1fy5TKYvvFJH3Bp1+aF6/tKMVXycT6BD0KeSTngYCBw==", "signing_algo": "Ed25519", "generation_timestamp": 1772990351, "identifier": "d6bedccd-00b8-479e-a4dd-896514cbbd13"}</recraft-signature></metadata></svg>