<svg xmlns="http://www.w3.org/2000/svg" height="512" preserveAspectRatio="none" style="display: block;" version="1.1" viewBox="0 0 2048 2048" width="512">
<path d="M 449.084 300.481 C 474.791 299.726 504.935 300.471 530.991 300.472 L 1556.58 300.439 C 1602.71 300.215 1641.02 297.082 1680.68 326.239 C 1743.41 372.367 1745.59 418.888 1745.56 488.579 L 1745.55 1534.17 C 1745.55 1642.78 1731.9 1727.02 1605.25 1747.16 C 1546.85 1748.26 1484.41 1747.18 1425.78 1747.17 L 890.687 1747.18 C 755.521 1747.21 777.571 1749.28 688.649 1660.93 L 348.947 1321.38 C 292.342 1264.69 301.887 1255.74 301.875 1181.93 L 301.877 469.861 C 301.931 379.019 351.172 305.82 449.084 300.481 z M 468.895 1150.14 L 782.381 1150.1 C 794.196 1150.1 815.457 1149.13 826.142 1151.59 C 888.131 1165.82 893.311 1216.54 893.2 1267.26 L 893.124 1580.71 L 1581 1580.71 L 1581 467.016 L 468.895 467.016 L 468.895 1150.14 z M 733.082 1471.33 C 733.123 1422.06 731.529 1365.23 733.082 1316.85 L 629.842 1316.81 C 613.896 1316.81 595.452 1317.34 579.716 1316.85 C 590.5 1331.22 613.375 1352.78 626.574 1366.21 C 647.9 1387.92 710.123 1455.86 733.082 1471.33 z" fill="rgb(23,21,21)" transform="translate(0,0)"></path>
<metadata><recraft-signature>{"signed_by": "recraft", "signature_b64": "W3TkjKT4CJcmokerPQxPIfhAmdIL4KOAd/4q70jmzTIk5K/s5xq85UfHyGK7YROLywzTAYQT+3DyL4RneW+cCw==", "signing_algo": "Ed25519", "generation_timestamp": 1772999595, "identifier": "2cb71253-21c1-487b-b0d8-e746a0eb4712"}</recraft-signature></metadata></svg>