<svg xmlns="http://www.w3.org/2000/svg" height="512" preserveAspectRatio="none" style="display: block;" version="1.1" viewBox="0 0 2048 2048" width="512">
<path d="M 585.085 307.096 L 1350.44 307.072 C 1378.13 307.078 1410.89 308.711 1437.86 307.263 C 1597.14 298.71 1742.88 421.074 1743.83 584.134 L 1743.96 1355.69 C 1743.96 1382.07 1744.32 1408.5 1743.9 1434.87 C 1741.39 1592.05 1616.55 1713.12 1460.75 1715.32 L 653.106 1715.33 C 616.584 1715.33 569.681 1717.69 534.389 1711.23 C 412.624 1688.94 312.411 1578.65 304.99 1454.53 C 303.57 1430.77 304.087 1407.44 304.101 1384.06 L 304.09 689.128 C 304.07 646.071 301.35 593.312 307.501 551.681 C 329.216 404.711 442.403 316.292 585.085 307.096 z M 525.519 1179.97 C 524.917 1199.19 525.498 1218.95 525.527 1238.28 L 525.478 1402.67 C 525.396 1448.11 530.975 1492.96 587.588 1494.44 L 888.5 1494.47 L 1406.65 1494.5 C 1426.6 1494.51 1448.51 1495.13 1468 1493.3 C 1535.89 1486.92 1522.41 1395.14 1522.36 1348.42 L 1522.35 607.968 C 1522.05 541.841 1494.56 530.986 1433.78 530.959 L 585.085 531.001 C 515.422 542.02 525.575 601.887 525.545 656.604 L 525.502 744.86 C 525.496 772.146 524.646 799.79 529.178 826.401 C 553.063 966.644 664.542 1030.32 796.185 1030.2 L 874.182 1030.1 C 895.16 1030.09 916.243 1029.04 936.864 1034.2 C 1012.28 1053.07 1046.51 1144.38 1002.39 1208.31 C 970.616 1254.36 926.979 1256.61 877.268 1256.25 L 824.8 1256.26 C 703.457 1256.35 635.565 1260.12 531.52 1184.4 L 525.519 1179.97 z" fill="rgb(20,19,20)" transform="translate(0,0)"></path>
<metadata><recraft-signature>{"signed_by": "recraft", "signature_b64": "UmbYjHV+EGLUV4WpTqclNwW6gsoN1v8oxqwCxwrpVuDNZTpFLiKkGns+TnpHSk15vh00EwPvp9wmnGLZ1ZkdAg==", "signing_algo": "Ed25519", "generation_timestamp": 1772999632, "identifier": "a6bba32b-0959-4a8f-b86e-01644374c763"}</recraft-signature></metadata></svg>