<svg xmlns="http://www.w3.org/2000/svg" height="512" preserveAspectRatio="none" style="display: block;" version="1.1" viewBox="0 0 2048 2048" width="512">
<path d="M 1325.75 422.51 L 1617.02 422.42 C 1741.87 421.746 1754.22 465.197 1754.03 572.352 L 1754.03 1460.01 C 1754.04 1493.28 1757.68 1530.67 1745.46 1561.77 C 1716.96 1634.31 1648.07 1626.08 1586.38 1626.07 L 1228.67 1626.09 C 1202.95 1625.84 1183.13 1610.32 1173.56 1587.03 C 1160.54 1551.14 1180.34 1510.64 1220.18 1505.9 C 1235.07 1504.13 1251.6 1504.96 1266.75 1504.96 L 1633.9 1505 L 1633.9 542.942 C 1622.39 542.026 1610.08 542.828 1598.43 542.902 L 1322.09 542.981 C 1291.12 542.974 1244.78 545.582 1216.37 540.319 C 1156.81 529.284 1155.67 436.217 1218.09 424.642 C 1234.69 421.565 1249.82 422.454 1266 422.451 L 1325.75 422.51 z" fill="rgb(0,0,0)" transform="translate(0,0)"></path>
<path d="M 633.751 422.51 L 755.931 422.488 C 775.905 422.479 811.606 420.221 829.471 424.742 C 893.438 441.773 891.467 526.153 828.199 541.556 C 816.221 544.472 791.488 542.98 778.433 542.981 L 415.033 542.942 L 415.033 845.5 C 414.813 878.454 422.874 921.04 399.225 947.137 C 361.407 989.429 294.562 962.475 294.191 899.989 L 294.219 551.433 C 294.27 535.351 293.578 513.083 296.573 497.809 C 312.978 414.151 403.985 422.526 465.579 422.547 L 633.751 422.51 z" fill="rgb(0,0,0)" transform="translate(0,0)"></path>
<path d="M 345.932 1111.25 C 405.848 1102.73 415.094 1159.11 415.076 1202.1 L 415.033 1505 L 773.016 1504.97 C 793.518 1504.89 831.088 1501.77 847.686 1512.81 C 896.982 1545.62 883.3 1612.55 826.263 1626.03 C 808.235 1627.19 774.358 1626.08 755.642 1626.07 L 466.905 1626.06 C 361.397 1626.06 293.443 1627.44 294.204 1502.93 L 294.188 1234.96 C 294.19 1184.48 281.564 1125.83 345.932 1111.25 z" fill="rgb(0,0,0)" transform="translate(0,0)"></path>
<metadata><recraft-signature>{"signed_by": "recraft", "signature_b64": "UpLDS2u/0tkq9FXWikhQbGxXysUQrvqSjO9pDQjxlSn37W+nNEaprh//8xzMgwomWe8aALbZsMFFPQXY6l+3BA==", "signing_algo": "Ed25519", "generation_timestamp": 1772998525, "identifier": "df84f207-92e3-4f53-a5f3-cd4bdd6d2e09"}</recraft-signature></metadata></svg>