<svg xmlns="http://www.w3.org/2000/svg" height="512" preserveAspectRatio="none" style="display: block;" version="1.1" viewBox="0 0 2048 2048" width="512">
<path d="M 537.833 289.808 C 550.712 288.065 576.359 289.752 590.572 289.77 L 1460.71 289.705 C 1559.23 289.187 1632.87 307.257 1691.42 398.338 C 1731.38 460.495 1726.01 521.386 1725.95 591.197 L 1725.94 1491.22 C 1725.97 1629.48 1659.75 1745.82 1506.68 1754.72 L 625.374 1754.69 C 597.95 1754.72 570.315 1755.17 542.921 1754.75 C 423.881 1752.93 327.591 1651.06 323.319 1533.73 C 322.415 1508.91 322.989 1483.11 322.997 1458.19 L 322.989 552.552 C 322.993 530.212 322.4 510.187 325.63 487.933 C 341.044 381.737 429.224 295.167 537.833 289.808 z M 447.003 1087.07 C 524.107 1055.72 559.803 1062.09 641.09 1062.1 L 1496.5 1062.08 C 1539.17 1061.62 1565.68 1070.85 1602.61 1091.8 L 1602.64 562.127 C 1602.66 465.78 1586.39 409.575 1476.67 409.459 L 565.999 409.49 C 458.622 409.305 446.999 478.332 446.978 567.367 L 447.003 1087.07 z M 1235.5 1635.33 L 1423.98 1635.3 C 1475.25 1635.31 1532.28 1644.64 1570.62 1605.09 C 1595.42 1579.5 1602.82 1556.81 1602.75 1521.63 L 1602.61 1363.12 C 1602.74 1218.43 1593.17 1179.53 1429.6 1179.54 L 817.995 1179.57 L 642.184 1179.61 C 584.969 1179.61 520.901 1169.86 477.511 1214.59 C 459.635 1233.01 445.795 1261.01 446.153 1286.96 L 447.006 1457.52 C 446.983 1485.8 444.63 1522.11 449.071 1549.45 C 455.524 1589.17 499.023 1629.05 538.634 1633.89 C 560.701 1636.58 588.68 1635.41 611.298 1635.39 L 1235.5 1635.33 z" fill="rgb(0,0,0)" transform="translate(0,0)"></path>
<metadata><recraft-signature>{"signed_by": "recraft", "signature_b64": "IFTERp0eSNqrNy+adta87+YTZ7NdFj2wRndgc7YQhTavIGtrIYiytJ6aQUVFlK/1HPmf5r3gDZFLlsbw+NxeBg==", "signing_algo": "Ed25519", "generation_timestamp": 1772989608, "identifier": "2566d899-4ba1-4756-904c-5a3dc1d18f65"}</recraft-signature></metadata></svg>