<svg xmlns="http://www.w3.org/2000/svg" height="512" preserveAspectRatio="none" style="display: block;" version="1.1" viewBox="0 0 2048 2048" width="512">
<path d="M 325.126 538.176 L 1688.61 538.126 C 1762.15 537.99 1842.6 553.925 1842.95 644.773 L 1843 1319.02 C 1843.02 1349.06 1844.29 1383.7 1841.21 1412.97 C 1834.71 1474.95 1779.88 1506.43 1722.5 1507.32 L 351.89 1507.36 C 333.63 1507.43 314.76 1508.36 296.741 1506.51 C 245.12 1501.2 205.019 1452.16 204.939 1401.18 L 204.897 664.123 C 205.072 579.077 243.736 539.96 325.126 538.176 z M 1741.13 1453 C 1800.94 1438.59 1788.03 1384.94 1788.04 1335.37 L 1788 719.575 C 1788.03 609.7 1796.73 593.264 1686.41 593.484 L 306.15 593.544 C 247.569 600.562 257.983 664.241 258.149 706.93 L 258.297 1376.37 C 258.689 1410.22 261.442 1450.89 307.604 1453.25 L 1684.4 1453.06 C 1697.59 1453.07 1729.39 1454.06 1741.13 1453 z" fill="rgb(0,0,0)" transform="translate(0,0)"></path>
<path d="M 1550.77 843.001 C 1590.03 835.866 1594.64 881.174 1603.99 907.759 L 1647.22 1032.23 C 1662.77 1076.98 1681.63 1121.29 1694.74 1166.81 C 1701.26 1189.46 1672.37 1209.49 1652.65 1198.58 C 1632.04 1187.16 1619.07 1128.95 1612.35 1107.09 L 1557.15 1107.09 L 1493.76 1107.09 C 1486.45 1129.02 1478.37 1150.81 1471.43 1173.14 C 1455.61 1224.05 1400.4 1201.95 1415.85 1154.58 C 1429.87 1111.58 1446.28 1069.28 1461.31 1026.59 L 1495.97 926.647 C 1506.98 895.139 1514.36 848.091 1550.77 843.001 z M 1509.03 1057.93 L 1550.77 1057.93 C 1565.1 1057.93 1580.16 1057.67 1594.43 1057.93 C 1590.47 1042.27 1556.78 935.608 1550.77 927.728 C 1536.8 971.01 1521.78 1014.33 1509.03 1057.93 z" fill="rgb(0,0,0)" transform="translate(0,0)"></path>
<path d="M 1207.84 999.751 L 1216.55 989.218 C 1252.71 946.243 1293.48 903.377 1329.32 860.528 C 1365.94 816.758 1400.92 865.64 1381.61 887.17 C 1349.81 922.627 1310.23 960.472 1276.94 995.489 C 1312.29 1043.19 1343.62 1094.31 1380.23 1141.04 C 1387.95 1153 1391.72 1154.89 1395.63 1169.02 C 1390.98 1192.65 1363.32 1213.73 1343.67 1190.17 C 1312.96 1153.34 1263.34 1077.56 1237.68 1035.29 C 1229.19 1045.07 1214.49 1058.68 1207.84 1067.67 C 1207.81 1086.82 1210.41 1172.95 1205.68 1184.7 C 1196.5 1207.53 1158.67 1203.89 1151.49 1180.96 C 1147.53 1168.32 1149.52 1131.7 1149.51 1116.97 L 1149.5 923.743 C 1149.51 887.52 1138.74 853.173 1178.69 843.001 C 1214.19 842.186 1207.81 889.267 1207.85 912.005 L 1207.84 999.751 z" fill="rgb(0,0,0)" transform="translate(0,0)"></path>
<path d="M 978.54 843.001 C 1007.19 839.916 1104.03 855.005 1082.91 900.994 C 1078.53 910.546 1073.07 913.774 1063.57 917.331 C 1037.34 912.798 942.893 866.729 941.456 939.473 C 941.191 976.063 992.704 988.113 1022.07 999.12 C 1135.63 1041.68 1122.26 1201.33 975.522 1200.64 C 949.229 1198.16 887.357 1187.73 874.909 1156.53 C 868.766 1141.13 882.698 1123.86 899.218 1119.35 C 932.333 1127.43 988.61 1173.37 1026.72 1132.92 C 1085.97 1038.26 897.918 1067.91 883.614 961.538 C 873.911 889.382 911.521 852.445 978.54 843.001 z" fill="rgb(0,0,0)" transform="translate(0,0)"></path>
<path d="M 640.57 843.001 C 675.145 844.966 720.104 952.948 739.537 984.525 L 784.238 901.549 C 792.514 886.315 800.582 869.159 811.055 855.372 C 830.659 829.561 869.869 853.908 859.601 882.106 C 854.29 896.689 842.677 914.679 834.851 928.645 L 789.404 1010.4 C 771.743 1042.37 767.838 1041.58 768.296 1078.11 C 768.601 1102.46 783.837 1228.82 721.944 1193.68 C 703.985 1183.49 708.85 1150.65 708.954 1133.87 L 709.173 1079.61 C 709.446 1043.43 707.397 1047.03 690.121 1015.4 L 647.086 936.099 C 636.908 917.588 619.781 890.073 614.529 871.022 C 618.534 855.968 624.461 847.013 640.57 843.001 z" fill="rgb(0,0,0)" transform="translate(0,0)"></path>
<path d="M 373.554 846.966 C 385.183 846.05 399.639 846.928 411.525 846.93 L 542.895 846.919 C 629.143 846.973 594.165 899.933 576.326 901.307 C 552.473 903.143 527.105 902.014 502.997 902.007 C 501.844 921.444 502.965 954.546 502.971 975.145 L 502.997 1124.5 C 502.914 1142.87 506.972 1173.6 495.622 1188.31 C 485.493 1201.43 464.658 1201.78 452.817 1190.31 C 441.178 1179.03 444.006 1157.89 443.998 1142.61 L 444.032 902.007 C 425.889 902.092 385.612 904.389 369.902 900.152 C 345.185 893.485 345.375 857.868 373.554 846.966 z" fill="rgb(0,0,0)" transform="translate(0,0)"></path>
<metadata><recraft-signature>{"signed_by": "recraft", "signature_b64": "BP7yDuEFrTeKC0SdsAggSTdeLvE6QA+/5L++4CugryNdhUC1NaxMAfsulzLyKsdUDEi+o/ODH7sPGoi1WuxRDw==", "signing_algo": "Ed25519", "generation_timestamp": 1772997956, "identifier": "b0fbfc86-442c-4c72-99ca-7acaf6cdcd8d"}</recraft-signature></metadata></svg>