<svg xmlns="http://www.w3.org/2000/svg" height="512" preserveAspectRatio="none" style="display: block;" version="1.1" viewBox="0 0 2048 2048" width="512">
<path d="M 1393.86 276.965 L 1394.49 278.086 C 1387.37 318.886 1335.48 375.975 1305.95 407.947 C 1390.22 496.506 1434.93 626.278 1411.91 747.395 C 1418.19 756.84 1422.59 766.273 1427.52 776.525 C 1531.94 993.615 1580.56 1251.6 1503.61 1485.22 C 1493.18 1516.89 1477.48 1553.31 1458.43 1580.15 C 1372.6 1375.66 1209.33 1077.42 1327.93 857.18 C 1188.76 1008.8 1285.98 1275.96 1359.29 1438.27 C 1271.95 1594.35 1066.93 1668.99 898.04 1609.1 C 811.349 1578.36 748.145 1524.9 695.264 1451.2 L 690.272 1443.2 C 766.755 1284.2 847.575 1016.76 724.913 861.492 C 806.722 1037.07 727.423 1286.06 650.116 1450.55 C 628.922 1495.64 607.666 1541.54 594.179 1589.58 L 592.984 1590.1 C 588.492 1586.76 583.069 1576.96 580.327 1571.74 C 447.659 1319.26 507.731 990.217 639.659 747.395 C 601.705 648.457 677.369 481.838 742.595 407.947 C 695.205 359.515 679.943 341.603 648.772 276.965 C 686.059 296.653 722.293 317.656 761.063 334.617 C 776.004 341.153 791.951 347.165 805.588 356.048 C 837.617 329.236 899.845 310.133 940.911 302.379 C 1031.34 285.305 1163.59 301.971 1241.98 356.048 C 1298.99 331.708 1341.68 309.277 1393.86 276.965 z M 950.136 764.751 C 970.298 801.165 990.321 838.049 1009.14 875.171 C 1040 895.366 1050.19 853.978 1062.52 830.127 L 1096.62 764.751 C 1137.51 783.078 1210.24 784.574 1252.74 769.096 C 1403.62 716.227 1332.44 521.757 1248.35 440.957 C 1115.61 485.186 1119.79 459.595 1022.64 585.292 C 999.193 542.147 972.343 513.803 931.195 486.634 C 889.38 459.025 844.529 459.017 799.93 440.957 C 692.866 526.627 642.263 759.741 840.774 778.257 C 874.485 781.196 919.9 779.888 950.136 764.751 z" fill="rgb(0,0,0)" transform="translate(0,0)"></path>
<path d="M 1178.49 534.806 C 1218.71 532.954 1252.84 564.008 1254.78 604.223 C 1256.72 644.439 1225.75 678.638 1185.54 680.672 C 1145.2 682.712 1110.86 651.615 1108.91 611.271 C 1106.96 570.927 1138.14 536.664 1178.49 534.806 z M 1190.55 644.402 C 1210.79 640.007 1223.7 620.109 1219.47 599.831 C 1215.24 579.553 1195.44 566.483 1175.13 570.553 C 1154.59 574.67 1141.34 594.739 1145.62 615.248 C 1149.9 635.757 1170.07 648.847 1190.55 644.402 z" fill="rgb(0,0,0)" transform="translate(0,0)"></path>
<path d="M 860.351 535.497 C 900.075 530.462 936.412 558.445 941.691 598.138 C 946.97 637.831 919.211 674.339 879.552 679.863 C 839.545 685.435 802.647 657.38 797.322 617.34 C 791.997 577.299 820.279 540.575 860.351 535.497 z M 874.497 644.474 C 894.915 641.237 908.791 621.991 905.412 601.596 C 902.033 581.201 882.692 567.46 862.321 570.98 C 842.148 574.466 828.57 593.578 831.916 613.774 C 835.262 633.969 854.279 647.68 874.497 644.474 z" fill="rgb(0,0,0)" transform="translate(0,0)"></path>
<path d="M 1022.64 697.265 C 1044.71 695.487 1068.97 721.237 1061.98 738.44 C 1054.18 757.63 1035.72 790.724 1024.96 808.416 L 1023.44 809.236 C 998.524 776.951 956.313 709.716 1022.64 697.265 z" fill="rgb(0,0,0)" transform="translate(0,0)"></path>
<path d="M 1167.49 1644.85 L 1168.16 1645.65 C 1166.82 1660.4 1167.5 1684.16 1167.49 1699.58 C 1217.23 1712.93 1241.23 1729.88 1269.64 1772.06 C 1224.31 1771.18 1175.87 1772.05 1130.29 1772.06 C 1096.84 1772.08 1057.88 1771.07 1024.96 1772.06 C 1046.39 1737.8 1088.6 1702.87 1130.29 1699.58 C 1130.21 1684.36 1130.13 1669.19 1130.29 1653.97 C 1143.22 1650.05 1154.17 1646.92 1167.49 1644.85 z" fill="rgb(0,0,0)" transform="translate(0,0)"></path>
<path d="M 877.013 1644.85 C 889.524 1649.29 902.406 1653.51 915 1657.78 L 915 1699.58 C 954.903 1704.33 1005.22 1735.12 1022.64 1772.06 C 993.532 1773.3 954.491 1772.09 924.5 1772.06 L 778.581 1772.06 C 794.208 1737.96 840.956 1707.03 877.013 1699.58 C 876.937 1681.36 876.773 1663.07 877.013 1644.85 z" fill="rgb(0,0,0)" transform="translate(0,0)"></path>
<metadata><recraft-signature>{"signed_by": "recraft", "signature_b64": "dMyf4r7NOQTACM9jdRJRkjI6Y1tHaxAycQC00CGWcponyxIbpLML0D+an7gmSYzJwgdftZfP+/2p+6gvHfBTDg==", "signing_algo": "Ed25519", "generation_timestamp": 1772997486, "identifier": "d2523002-a3af-40b2-8f7f-cd97bd7d2d2b"}</recraft-signature></metadata></svg>