<svg xmlns="http://www.w3.org/2000/svg" height="512" preserveAspectRatio="none" style="display: block;" version="1.1" viewBox="0 0 2048 2048" width="512">
<path d="M 432.513 330.997 C 477.531 329.567 530.37 331.014 576.033 331.016 L 862.915 330.882 C 949.561 330.834 973.353 432.561 897.527 467.297 C 882.728 474.076 807.597 471.473 786.807 471.444 L 492.615 471.388 C 472.485 471.28 441.361 463.384 441.194 488.919 L 441.073 1564.04 C 457.589 1550.25 482.017 1524.48 498.079 1508.4 L 718.526 1286.26 C 740.721 1263.85 764.985 1240.05 786.086 1216.69 C 821.206 1180.7 853.485 1136.25 909.49 1170.84 C 951.168 1196.59 942.896 1245.69 942.89 1288.52 L 942.857 1566.06 C 942.866 1617.84 955.207 1705.46 882.352 1714.87 C 866.396 1716.93 846.315 1715.35 829.751 1715.31 L 468.526 1715.31 C 341.739 1716.62 298.388 1656.07 298.342 1532.28 L 298.315 540.496 C 298.294 432.908 305.349 350.778 432.513 330.997 z M 639.033 1570.99 L 800.02 1570.99 C 800.014 1555.85 800.336 1408.53 800.02 1407.91 C 781.971 1423.4 753.911 1453.36 736.035 1471 L 665.026 1541.99 C 660.467 1546.61 639.189 1565.8 638.271 1570.41 L 639.033 1570.99 z" fill="rgb(31,31,31)" transform="translate(0,0)"></path>
<path d="M 1669.38 1159.15 C 1711.8 1156.22 1749.92 1186.92 1749.82 1230.75 L 1749.81 1537.67 C 1749.83 1551.32 1749.91 1565.44 1749.48 1578.56 C 1746.6 1666.18 1674.25 1714.81 1592.9 1715.23 L 1211.84 1715.28 C 1196.19 1715.27 1175.77 1716.02 1160.5 1713.6 C 1094.68 1703.16 1107.2 1622.77 1107.22 1575.59 L 1107.18 1395.5 L 1107.12 1283.21 C 1107.13 1260.59 1106.06 1237.29 1109.33 1214.96 C 1116.06 1169 1173.28 1144.52 1211.22 1169.87 C 1227.67 1180.86 1246.45 1202.21 1260.59 1216.71 L 1571.93 1528.43 C 1583.64 1539.86 1596.77 1553.35 1608.83 1564.04 C 1608.95 1556.54 1608.33 1548.55 1608.42 1540.79 L 1608.68 1262.26 C 1608.06 1208.04 1609.8 1173.95 1669.38 1159.15 z M 1245.49 1570.99 L 1413.19 1570.99 C 1410.55 1560.41 1256.66 1411.95 1245.49 1407.91 L 1245.49 1570.99 z" fill="rgb(31,31,31)" transform="translate(0,0)"></path>
<path d="M 1169.71 330.997 C 1174.68 330.525 1188.04 330.921 1193.83 330.933 L 1545.55 330.95 C 1710.49 330.861 1749.96 364.692 1749.78 537.702 L 1749.8 763.139 C 1749.81 813.864 1755.74 866.648 1688.07 877.747 C 1619.21 887.768 1608.77 827.681 1608.79 778.115 L 1608.83 471.465 C 1574.95 470.835 1538.85 471.44 1504.8 471.445 L 1216.13 471.476 C 1200.13 471.468 1181.42 472.232 1165.67 470.456 C 1093.04 462.265 1080.39 349.34 1169.71 330.997 z" fill="rgb(31,31,31)" transform="translate(0,0)"></path>
<metadata><recraft-signature>{"signed_by": "recraft", "signature_b64": "1hAGBCxKCw4Umm2QphiAxnNtwz+GMYYJ96UADBRX+Bi58WG5K+L0AUJpWukfSMHhs0GgnahCejhsWTApl7Y8CA==", "signing_algo": "Ed25519", "generation_timestamp": 1772989050, "identifier": "9a02bb9b-69f9-4e61-b851-ef071dc4bf93"}</recraft-signature></metadata></svg>