<svg xmlns="http://www.w3.org/2000/svg" height="512" preserveAspectRatio="none" style="display: block;" version="1.1" viewBox="0 0 2048 2048" width="512">
<path d="M 296.757 494.97 C 299.397 494.52 326.102 494.902 330.905 494.91 L 1738.74 495.02 C 1783.88 495.28 1829.28 523.567 1846.52 565.75 C 1859.61 597.756 1856.05 635.153 1856.04 669.068 L 1856.03 1381.39 C 1856.5 1478.55 1847.32 1510.3 1750.92 1549.88 C 1745.29 1550.33 1736.62 1549.46 1730.52 1549.45 L 387.355 1549.89 C 361.215 1549.91 331.272 1551.23 306.023 1549.48 C 209.775 1542.8 191.102 1462.24 191.102 1385.31 L 191.127 660.604 C 191.135 575.507 197.701 511.523 296.757 494.97 z M 1740.53 1504.88 C 1820.07 1485.44 1812.06 1428.65 1812.06 1362.12 L 1812.03 704.12 C 1812.06 672.1 1816.59 610.373 1804.64 584.245 C 1779.41 529.092 1712.37 540.938 1662.18 540.971 L 391.161 541.007 C 365.267 541.006 333.146 540.113 307.65 541.015 C 229.556 551.144 235.9 610.069 235.994 672.841 L 235.925 1395.69 C 235.904 1408.19 235.152 1423.34 236.857 1435.61 C 248.937 1522.49 349.926 1504.96 414.011 1504.93 L 1687.44 1504.9 C 1698.33 1504.92 1731.71 1505.86 1740.53 1504.88 z" fill="rgb(0,0,0)" transform="translate(0,0)"></path>
<path d="M 1245.63 726.255 C 1268.28 724.795 1328.86 724.201 1349.8 726.875 C 1471.65 742.427 1510.87 901.961 1417.52 976.758 C 1381.44 1009.53 1335.86 1010.07 1290.12 1009.44 C 1267.89 1009.13 1240.68 1016.01 1226.74 999.004 L 1226.75 764.131 C 1226.83 746.779 1224.67 730.591 1245.63 726.255 z M 1273.99 963.512 C 1323.74 964.038 1353.89 969.427 1393.57 937.092 C 1429.7 889.482 1438.07 829.904 1384.29 789.281 C 1348.94 762.573 1315.47 770.167 1273.99 770.022 L 1273.96 899.098 C 1273.96 919.436 1273.3 943.534 1273.99 963.512 z" fill="rgb(0,0,0)" transform="translate(0,0)"></path>
<path d="M 660.769 723.004 C 688.077 718.368 698.906 764.17 708.654 785.974 L 775.364 935.807 C 781.513 949.611 787.94 962.614 793.165 976.774 C 805.94 1011.39 758.604 1023.3 745.328 991.082 C 739.36 976.598 732.559 960.309 726.037 945.975 L 670.5 945.975 C 649.279 945.907 619.544 947.155 599.262 945.975 C 595.291 958.505 589.694 970.45 584.844 983.134 C 573.93 1011.67 545.702 1020.29 532.281 989.948 C 542.441 949.513 578.776 878.755 596.156 838.939 L 627.635 766.083 C 636.354 746.245 638.026 729.336 660.769 723.004 z M 620.116 902.343 C 635.776 902.617 651.575 902.428 667.25 902.343 L 710.061 902.343 C 705.835 891.776 666.032 794.544 663.547 792.477 C 651.882 815.122 624.505 878.567 620.116 902.343 z" fill="rgb(0,0,0)" transform="translate(0,0)"></path>
<path d="M 848.972 726.255 C 886.589 718.044 880.022 759.28 880.021 783.587 L 879.943 850.642 C 912.144 822.959 969.256 739.937 997.385 726.255 C 1041.29 720.486 1035.87 750.165 1011.01 777.106 C 984.836 805.472 959.279 838.336 929.11 862.512 C 960.257 890.154 987.526 929.048 1017 957.149 C 1021.87 967.948 1060.09 1004.88 1010.57 1010 C 991.758 1011.95 896.661 895 879.943 877.02 C 879.539 914.828 882.008 959.112 878.067 996.979 C 876.437 1012.64 832.26 1020.79 832.562 982.127 C 832.315 904.192 832.509 826.313 832.454 748.387 C 832.446 735.34 837.327 730.629 848.972 726.255 z" fill="rgb(0,0,0)" transform="translate(0,0)"></path>
<path d="M 1538 726.255 L 1621.97 726.165 C 1637.34 726.16 1665.98 722.85 1677.6 733.427 C 1691.2 745.82 1682.27 766.731 1664.96 769.377 C 1654.24 771.016 1641.56 770.132 1630.45 770.113 L 1565.96 770.022 L 1565.96 843.001 L 1619.5 842.857 C 1636.66 842.826 1673.43 839.594 1673.14 865.581 C 1672.83 892.92 1638.47 888.873 1619.8 888.793 L 1565.96 888.696 C 1565.71 900.497 1565.83 911.954 1565.96 923.75 L 1565.96 965.51 C 1595.47 965.731 1625.03 965.064 1654.53 965.642 C 1703.73 966.606 1688.21 1009.86 1664.46 1009.52 C 1643.32 1009.23 1521.04 1019.45 1519.82 996.711 C 1518.26 967.847 1518.97 931.964 1518.99 903.201 L 1518.99 802.804 C 1518.98 777.052 1509.23 732.591 1538 726.255 z" fill="rgb(0,0,0)" transform="translate(0,0)"></path>
<path d="M 385.951 723.004 C 426.598 722.516 413.407 786.68 413.347 817 L 413.333 965.51 C 432.195 965.509 501.999 958.505 511.178 975.429 C 518.776 989.438 508.282 1003.06 496.013 1009.3 C 471.507 1012.63 417.222 1009.88 391.324 1008.96 C 375.128 1008.39 366.212 1000.72 366.167 984.182 C 365.953 905.8 365.949 827.4 366.155 749.02 C 366.196 733.503 371.401 728.081 385.951 723.004 z" fill="rgb(0,0,0)" transform="translate(0,0)"></path>
<path d="M 1337.94 1178.23 L 1380.01 1178.17 C 1459.67 1178.83 1482.89 1255.82 1432.91 1303.65 C 1411.4 1320.86 1391.6 1319.22 1365.92 1319.03 L 1329.2 1318.9 L 1329.17 1229.04 C 1329.18 1212.38 1322.02 1178.8 1337.94 1178.23 z M 1369.95 1282 C 1383.81 1282.13 1398.57 1284.06 1409.06 1273.9 C 1432.59 1236.96 1412.32 1214.85 1369.95 1216.09 C 1369.93 1237.43 1369.44 1260.82 1369.95 1282 z" fill="rgb(0,0,0)" transform="translate(0,0)"></path>
<path d="M 891.354 1178.23 C 929.798 1177.87 981.041 1169.55 1005.04 1207.41 C 1020.83 1232.32 1021.35 1282.92 993.386 1299 C 969.878 1325.24 920.748 1318.98 888.028 1318.9 C 887.43 1301.92 886.108 1189 889.197 1178.95 L 891.354 1178.23 z M 929.11 1282 C 944.432 1282.63 953.383 1283.81 965.918 1273.9 C 990.243 1243.54 970.848 1210.03 929.11 1216.09 L 929.11 1282 z" fill="rgb(0,0,0)" transform="translate(0,0)"></path>
<path d="M 1182.1 1178.23 C 1192.49 1178.16 1203.07 1177.98 1213.45 1178.23 C 1231.6 1201.84 1245.77 1227.16 1266 1250.72 C 1264.96 1229.57 1265.94 1199.96 1266 1178.23 C 1278.77 1178.62 1292.15 1178.21 1305 1178.23 C 1305 1193.63 1305.87 1315.27 1304.01 1318.62 L 1299.25 1318.9 L 1268.72 1318.9 C 1258.17 1307.98 1224.64 1257.1 1217 1243.22 C 1218.48 1261.88 1217.02 1298.11 1217 1318.9 C 1203.96 1319.17 1190.12 1318.92 1177.02 1318.9 C 1177.01 1302.66 1176.07 1182.4 1178.58 1178.69 L 1182.1 1178.23 z" fill="rgb(0,0,0)" transform="translate(0,0)"></path>
<path d="M 781.728 1178.23 C 796.073 1178.37 810.586 1178.25 824.945 1178.23 C 841.359 1225.69 863.48 1271.44 879.943 1318.9 C 864.237 1318.63 848.217 1318.84 832.486 1318.9 C 831.012 1313.02 829.413 1302.33 824.945 1299 L 777.978 1299 L 770.851 1318.9 C 756.229 1318.88 740.579 1317.85 726.037 1318.9 C 734.66 1285.3 766.792 1211.88 781.728 1178.23 z M 786.632 1265.38 C 792.004 1265.47 797.699 1265.69 803.036 1265.38 L 818.193 1265.38 C 816.408 1256.99 806.777 1227.21 803.036 1219.53 C 797.987 1234.94 791.337 1250.42 786.632 1265.38 z" fill="rgb(0,0,0)" transform="translate(0,0)"></path>
<path d="M 508.207 1178.23 L 549.37 1178.23 C 563.204 1208.47 600.498 1289.97 608.065 1318.9 C 600.449 1318.91 570.951 1320.94 565.181 1317.35 C 555.385 1311.24 564.409 1300.58 549.37 1299 C 534.164 1299.58 516.815 1299.1 501.448 1299 C 498.473 1306.09 497.592 1311.39 496.013 1318.9 C 481.42 1318.78 466.308 1318.46 451.769 1318.9 C 462.8 1277.36 490.674 1218.27 508.207 1178.23 z M 512.098 1265.38 C 517.755 1265.41 523.613 1265.53 529.25 1265.38 L 544.415 1265.38 C 540.81 1250.59 531.557 1230.9 529.25 1219.53 C 521.916 1233.46 516.111 1250.12 512.098 1265.38 z" fill="rgb(0,0,0)" transform="translate(0,0)"></path>
<path d="M 1067.62 1178.23 C 1080.95 1179.03 1097.35 1177.47 1111.91 1178.23 C 1115.65 1190.72 1123.72 1208.86 1128.63 1221.62 L 1165.88 1318.9 C 1153.24 1318.25 1135.45 1318.86 1122.42 1318.9 C 1119.95 1312.99 1117.37 1305.16 1115.17 1299 L 1067.62 1299 C 1052.06 1327.11 1047.34 1318.95 1017 1318.9 C 1027.98 1274.53 1052.21 1221.99 1067.62 1178.23 z M 1074.45 1265.38 C 1078.95 1265.42 1085.16 1265.67 1089.53 1265.38 L 1104.39 1265.38 C 1102.72 1259.52 1091.65 1221.68 1089.53 1219.53 C 1083.43 1234.64 1079.94 1250.45 1074.45 1265.38 z" fill="rgb(0,0,0)" transform="translate(0,0)"></path>
<path d="M 663.547 1176.47 C 685.611 1176.49 700.625 1179.76 719.92 1191.19 C 716.027 1202.57 711.087 1212.66 706.02 1223.54 C 694.817 1215.71 660.874 1199.81 653.348 1217.86 C 655.186 1239.47 724.436 1230.81 722.919 1274.52 C 721.639 1311.43 693.088 1321.92 660.769 1320.83 C 639.854 1317.72 623.481 1314.7 608.065 1299 C 611.12 1289.61 615.431 1276.77 620.116 1268.27 C 637.182 1277.24 658.712 1297.34 679.465 1283.51 C 694.276 1258.16 605.611 1275.86 612.251 1214.9 C 615.213 1187.7 639.402 1178.1 663.547 1176.47 z" fill="rgb(0,0,0)" transform="translate(0,0)"></path>
<path d="M 1533.88 1176.47 C 1559.94 1169.7 1583.85 1187.16 1601.45 1203.87 C 1591.98 1212.69 1582.77 1221.34 1574.44 1231.25 C 1560.47 1215.65 1542.11 1202.82 1521.75 1220.93 C 1495.38 1247.08 1527.08 1318.47 1574.44 1265.38 C 1578.1 1269.34 1581.81 1273.17 1585.57 1277.04 C 1591.01 1281.51 1596.3 1286.63 1601.45 1291.46 C 1573.99 1326.21 1535.64 1333.57 1498.37 1307.12 C 1447.17 1270.78 1468.07 1183.96 1533.88 1176.47 z" fill="rgb(0,0,0)" transform="translate(0,0)"></path>
<path d="M 1081.58 888.696 C 1105.02 890.281 1144.27 884.721 1164.5 894.003 C 1183.95 902.932 1180.54 929.86 1156.5 937.092 C 1140.22 937.227 1088.07 939.937 1075.38 934.957 C 1050.33 925.137 1059.93 896.025 1081.58 888.696 z" fill="rgb(0,0,0)" transform="translate(0,0)"></path>
<metadata><recraft-signature>{"signed_by": "recraft", "signature_b64": "gqS5ik9NBZNVDFJ4DFYSdC2oaenG7qlbWSI9WZ7RPYBm5G2aEDh6n/pUzUjBni7XnnFa6Q1orIZ39ZqkUxP1Dw==", "signing_algo": "Ed25519", "generation_timestamp": 1772998271, "identifier": "7aa1e1d3-07ea-4004-9b0b-50d85e323ab3"}</recraft-signature></metadata></svg>