<svg xmlns="http://www.w3.org/2000/svg" height="512" preserveAspectRatio="none" style="display: block;" version="1.1" viewBox="0 0 2048 2048" width="512">
<path d="M 348.063 678.51 L 1663.47 678.482 C 1704.93 678.428 1731.98 674.888 1767.6 701.172 C 1830.39 747.512 1826.11 811.442 1826.01 880.045 L 1826.01 1160.03 C 1826.12 1256.67 1822.98 1346.47 1704.6 1366.09 C 1675.01 1367.15 1638.11 1366.11 1608 1366.1 L 396.793 1366.15 C 382.029 1366.21 366.945 1366.35 352.386 1366.12 C 286.168 1365.04 221.949 1308.54 221.509 1240.25 L 221.53 856.383 C 221.538 840.054 221.612 823.858 221.915 807.528 C 223.199 738.353 278.361 681.366 348.063 678.51 z M 1132.5 1320.23 L 1644.16 1320.25 C 1663.03 1320.26 1691.44 1321.47 1709.26 1318.41 C 1777.77 1306.64 1780.25 1243.07 1780.14 1190.46 L 1780.11 810.626 C 1780.21 717.952 1699.88 724.729 1634.64 724.658 L 917.996 724.574 L 405.474 724.536 C 302.655 724.495 266.921 736.864 266.93 846.135 L 266.875 1230.31 C 267.277 1283.81 304.828 1321.31 358.523 1320.75 L 1132.5 1320.23 z" fill="rgb(1,1,1)" transform="translate(0,0)"></path>
<path d="M 1498.11 910.986 C 1522.17 910.9 1546.49 910.251 1570.51 911.413 C 1635.16 914.541 1665.21 997.724 1589.99 1037.12 C 1599.19 1047.47 1627.16 1090.89 1634.41 1105.14 C 1640.78 1117.64 1623.35 1128.67 1612.82 1131.46 C 1598.84 1128.31 1597.34 1127.1 1589.99 1115.21 C 1574.7 1092.92 1561.43 1068.12 1545.86 1045.49 C 1538.38 1045.04 1530.49 1045.34 1522.97 1045.49 C 1522.89 1061.91 1525.57 1099.38 1521.75 1113.2 C 1516.27 1133.04 1488.21 1139.84 1479.79 1118.11 C 1476.89 1110.64 1477.8 956.398 1478.7 936.976 C 1479.43 921.435 1482.91 916.441 1498.11 910.986 z M 1581.89 996.464 C 1596.74 978.773 1589.11 950.656 1563.46 949.437 C 1549.74 948.786 1536.68 949.027 1522.97 949.205 C 1522.92 961.083 1521.91 994.513 1522.97 1004.11 C 1541.35 1004.28 1567.6 1007.39 1581.89 996.464 z" fill="rgb(1,1,1)" transform="translate(0,0)"></path>
<path d="M 660.033 907.003 C 680.364 910.546 769.458 1036.64 787.017 1057.65 L 787.006 967.5 C 786.974 955.249 785.325 931.338 788.939 920.02 C 793.677 905.182 824.131 905.369 826.355 921.224 C 829.096 940.767 827.891 961.622 828.071 981.404 L 828.084 1063.41 C 828.016 1089.61 836.612 1123.8 806.966 1131.46 C 796.076 1129.72 790.198 1127.06 783.19 1118.57 C 766.494 1097.61 686.201 998.348 680.002 981.293 C 677.69 1025.56 683.805 1076.72 680.002 1119.57 C 672.958 1127.32 669.759 1128.53 660.033 1131.46 C 641.777 1126.61 638.991 1121.5 638.975 1103.07 C 638.923 1045.22 638.674 987.345 639.066 929.498 C 639.151 916.976 649.184 910.178 660.033 907.003 z" fill="rgb(1,1,1)" transform="translate(0,0)"></path>
<path d="M 968.346 907.003 C 1016.07 899.308 1099.97 947.909 1037.26 968.757 C 1032.26 966.932 1025.45 962.219 1020.71 959.357 C 904.326 886.553 847.453 1126.74 1015.75 1089.35 C 1016.07 1075.81 1015.85 1062.16 1015.75 1048.61 C 1005.87 1048.36 985.503 1050.39 977.38 1047.98 C 958.988 1042.53 960.018 1018.9 977.383 1010.29 C 1075.28 1006.39 1064.61 1007.88 1059.75 1112.01 C 1046.89 1122.56 1026.51 1128.43 1010.5 1131.53 C 851.218 1162.9 809.118 933.73 968.346 907.003 z" fill="rgb(1,1,1)" transform="translate(0,0)"></path>
<path d="M 1342.23 907.003 C 1365.82 913.674 1371.39 937.923 1380.75 958.049 L 1443.74 1094.96 C 1453.7 1117.15 1448.84 1125.86 1424.8 1131.46 C 1402.89 1125.64 1398.04 1101.49 1388.98 1082 L 1347.5 1082 L 1296.49 1082 C 1264.62 1169.27 1234.06 1117.74 1239.18 1105.95 C 1263.52 1049.91 1288.46 994.05 1313.77 938.423 C 1321.94 920.483 1321.56 913.407 1342.23 907.003 z M 1313.16 1041.26 C 1326.16 1043.2 1329.19 1043.06 1342.23 1041.26 C 1355.54 1042.66 1358.81 1042.86 1371.82 1041.26 L 1354.37 997.589 C 1351.43 990.091 1345.96 975.273 1342.23 968.757 C 1332.31 993.031 1324.07 1017.22 1313.16 1041.26 z" fill="rgb(1,1,1)" transform="translate(0,0)"></path>
<path d="M 566.773 907.003 C 606.454 909.329 590.821 999.303 591.062 1032.63 C 594.8 1155.1 445.208 1162.26 416.01 1072.19 C 410.061 1053.84 410.927 1037.94 410.935 1018.96 L 411.02 974.5 L 411.02 923.872 C 421.749 902.19 441.293 903.536 453.016 923.872 C 454.274 955.318 448.241 1041.59 457.936 1065.87 C 473.336 1104.44 534.008 1101.32 546.508 1062.26 C 558.43 1025 532.206 919.775 566.773 907.003 z" fill="rgb(1,1,1)" transform="translate(0,0)"></path>
<path d="M 1113.19 910.986 C 1132.19 909.06 1203.42 909.044 1223.66 910.956 C 1246.46 913.109 1245.7 937.245 1230.29 949.205 C 1203.84 949.148 1166.58 950.622 1141.42 949.205 L 1141.42 1001.48 C 1156.04 1001.46 1273.01 991.345 1230.29 1037.12 C 1217.61 1045.74 1158.87 1040.83 1141.42 1041.26 C 1140.24 1071.54 1154.67 1121.84 1121.22 1131.46 C 1105.4 1128.06 1098.24 1124.4 1098.48 1106.73 C 1099.32 1046.28 1096.89 985.274 1099.74 924.992 C 1100.03 918.81 1108.45 913.377 1113.19 910.986 z" fill="rgb(1,1,1)" transform="translate(0,0)"></path>
<metadata><recraft-signature>{"signed_by": "recraft", "signature_b64": "iNrfJUFO5DJ41tnRKCxubrcAM4Oml33XDA1VkoTdkmSYINv5v2tAkSK7MuURUrefpCiKuURajXVp5C5Vc/uwCA==", "signing_algo": "Ed25519", "generation_timestamp": 1773000362, "identifier": "cad966de-827f-4b29-b5ac-5d29052105da"}</recraft-signature></metadata></svg>