<svg xmlns="http://www.w3.org/2000/svg" height="512" preserveAspectRatio="none" style="display: block;" version="1.1" viewBox="0 0 2048 2048" width="512">
<path d="M 1404.37 657.017 C 1385.12 636.483 1366.59 609.497 1345.34 588.639 C 1076.47 324.655 622.913 434.698 505.22 796.238 C 496.332 823.541 492.247 845.912 487.418 873.866 C 476.757 935.589 390.36 948.925 355.665 893.122 C 321.975 838.938 389.321 690.217 415.946 640.042 C 555.045 377.907 871.87 240.862 1158.5 318.518 C 1283.57 352.241 1447.38 452.045 1515.64 568.085 L 1515.77 569.043 C 1516.78 576.267 1518.83 583.146 1519.7 590.377 C 1526.48 646.587 1468.51 688.033 1418.58 663.459 C 1415.35 661.913 1407.29 657.939 1404.37 657.017 z" fill="rgb(0,0,0)" transform="translate(0,0)"></path>
<path d="M 675.894 1472.69 C 928.979 1676.43 1295.88 1601.38 1444.71 1312.17 C 1464.19 1274.32 1469.21 1231.56 1520.64 1225.42 C 1538.38 1223.3 1561.21 1229.35 1574.51 1241.25 C 1613.21 1275.9 1603.65 1309.09 1586.14 1349.12 C 1430.62 1704.79 990.004 1844.96 659.906 1645.71 C 632.832 1629.37 592.485 1602.72 573.767 1578 C 573.116 1574.75 570.243 1568.13 568.898 1564.92 C 547.72 1514.34 595.521 1456.03 649.312 1466.05 C 658.447 1467.75 666.257 1470.6 675.001 1472.5 L 675.894 1472.69 z" fill="rgb(0,0,0)" transform="translate(0,0)"></path>
<path d="M 419.219 1363.47 C 398.583 1396.63 377.718 1430.48 355.904 1462.85 C 300.173 1545.57 194.587 1466.33 231.798 1401.63 C 242.95 1382.25 255.913 1363.66 267.836 1345.31 L 403.89 1135.07 C 422.141 1106.54 434.211 1074.46 469.555 1064.57 C 517.19 1051.24 554.249 1085.69 591.532 1110.09 L 799.935 1246.41 C 817.363 1257.68 840.928 1271.36 855.384 1284.94 C 891.938 1320.08 874.969 1385.44 825.969 1398.3 C 783.038 1409.57 742.223 1371.49 708.139 1349.16 L 575.671 1263.83 C 558.383 1252.81 542.799 1240.98 524.847 1230.76 C 561.825 1351.31 595.663 1387.7 675.894 1472.69 L 675.001 1472.5 C 666.257 1470.6 658.447 1467.75 649.312 1466.05 C 595.521 1456.03 547.72 1514.34 568.898 1564.92 C 570.243 1568.13 573.116 1574.75 573.767 1578 C 523.137 1546.37 444.753 1415.4 419.219 1363.47 z" fill="rgb(0,103,247)" transform="translate(0,0)"></path>
<path d="M 1602.33 711.098 C 1633.41 667.336 1659.54 619.72 1690.5 573.566 C 1749.88 485.04 1844.46 570.042 1812.33 628.708 C 1799.55 653.845 1783.87 677.263 1769 700.869 L 1634.95 911.949 C 1608.65 954.116 1572.9 1022.14 1509.54 990.347 C 1491.81 981.445 1470.78 966.357 1453.46 955.125 L 1250.73 821.912 C 1225.03 804.692 1191.54 791.747 1176.51 763.458 C 1152.92 719.04 1186.43 664.972 1236.3 664.461 C 1265.89 664.158 1284.49 681.201 1308.3 696.836 L 1377.91 742.638 C 1412.06 765.445 1447.25 785.954 1480.95 809.476 C 1466.92 757.727 1434.1 701.303 1404.37 657.017 C 1407.29 657.939 1415.35 661.913 1418.58 663.459 C 1468.51 688.033 1526.48 646.587 1519.7 590.377 C 1518.83 583.146 1516.78 576.267 1515.77 569.043 L 1515.64 568.085 C 1553.23 610.25 1572.71 664.004 1602.33 711.098 z" fill="rgb(0,103,247)" transform="translate(0,0)"></path>
<metadata><recraft-signature>{"signed_by": "recraft", "signature_b64": "rw5vxCYxGfAnJLp3kDiKRAE3P3M7accZvmcmttZtV1shE/nGsNPCa8NoMpSbt1nEEx3WFgqYwy+6a5MoYe4iBQ==", "signing_algo": "Ed25519", "generation_timestamp": 1772999980, "identifier": "abce3bb2-0430-4635-ba23-4ca13f46b121"}</recraft-signature></metadata></svg>