<svg xmlns="http://www.w3.org/2000/svg" height="512" preserveAspectRatio="none" style="display: block;" version="1.1" viewBox="0 0 2048 2048" width="512">
<path d="M 873.131 312.575 L 1344.39 312.513 C 1395.93 312.388 1442.43 310.229 1490.67 333.282 C 1634.79 402.151 1621.51 517.098 1621.48 647.386 L 1621.47 1203.16 C 1621.5 1226.93 1624.67 1247.91 1614.74 1270.06 C 1586.17 1333.77 1494.38 1325.66 1475.43 1259.72 C 1471.14 1244.79 1472.86 1218.06 1472.89 1201.78 L 1473.01 620.36 C 1473.04 553.912 1491.1 464.585 1397.66 460.385 C 1366.72 458.995 1335.31 460.171 1304.33 460.217 L 833.841 460.208 C 808.697 460.243 788.461 471.068 777.281 494.427 C 766.188 517.605 778.181 537.983 787.079 559.563 L 846.977 707.515 C 858.551 735.929 870.56 763.35 881.531 792.269 C 898.053 828.167 915.086 874.33 929.966 911.475 L 1075.67 1278.56 C 1091.61 1318.14 1109.94 1357.02 1115.34 1399.67 C 1131.86 1533.86 1039.04 1649.95 901.984 1649.98 L 509.696 1650.08 C 481.835 1650.09 451.319 1651.89 424.219 1645.57 C 322.823 1621.9 255.576 1528.98 255.701 1426.27 C 255.765 1373.22 271.448 1340.01 292.207 1292.96 L 598.169 533.6 C 622.204 474.906 632.773 419.861 681.101 375.053 C 741.156 319.372 796.818 312.396 873.131 312.575 z M 908.19 1508.02 C 947.92 1497.17 983.399 1456.95 968.125 1413.76 C 949.134 1360.06 927.559 1306.74 908.19 1253.17 L 514.125 1253.23 C 501.74 1253.25 479.109 1254.02 467.563 1253.17 C 464.146 1267.99 455.697 1287.39 449.961 1301.65 L 418.363 1379.84 C 405.218 1413.33 394.055 1438.04 414.073 1471.77 C 442.444 1519.57 508.549 1508.03 555.441 1508.03 L 842.058 1508.04 C 859.472 1508.05 892.275 1509.14 908.19 1508.02 z M 530.023 1106.97 L 691.5 1106.97 L 793.765 1106.93 C 810.931 1106.92 830.692 1106.25 847.512 1106.97 C 842.995 1090.9 830.393 1063.53 823.472 1046.85 L 700.769 743.732 C 698.186 737.449 691.278 719.107 686.453 715.477 C 676.896 737.477 668.13 762.931 658.995 785.644 L 551.416 1051.98 C 544.685 1068.52 535.34 1090.33 530.023 1106.97 z" fill="rgb(20,20,20)" transform="translate(0,0)"></path>
<path d="M 1422.64 1511.02 L 1596.43 1510.98 C 1624.09 1510.98 1673.7 1508.52 1698.99 1513.35 C 1826.12 1537.64 1821.5 1719.29 1688.19 1733.73 C 1670.88 1734.28 1650.7 1733.77 1633.13 1733.77 L 1463.31 1733.76 C 1445.16 1733.75 1427.57 1734.29 1409.56 1731.26 C 1290.53 1711.18 1284.72 1527.61 1422.64 1511.02 z" fill="rgb(20,20,20)" transform="translate(0,0)"></path>
<metadata><recraft-signature>{"signed_by": "recraft", "signature_b64": "VU6FKcfcqN7EyqlWYrvHs/EYGG64PHRTjwiQOxt52Eh0/AZI9H/M2oH5EDrAKm76kNRvFSzxa2GF3mhAqDKXCw==", "signing_algo": "Ed25519", "generation_timestamp": 1772998461, "identifier": "74441a06-28ca-45c6-b959-aea5541251ab"}</recraft-signature></metadata></svg>