<svg xmlns="http://www.w3.org/2000/svg" height="512" preserveAspectRatio="none" style="display: block;" version="1.1" viewBox="0 0 2048 2048" width="512">
<path d="M 285.203 682.003 C 285.631 681.967 286.058 681.931 286.486 681.895 L 1704.43 681.987 C 1724.13 681.985 1749.54 680.394 1768.49 682.774 C 1885.9 697.521 1870 815.782 1869.95 901.292 L 1870.05 1179.25 C 1870.06 1202.23 1870.92 1223.96 1867.37 1246.75 C 1859.71 1295.94 1809.3 1340.26 1759.75 1341.05 C 1749.23 1342.32 1715.9 1341.05 1703.31 1341.04 L 317.565 1341.17 C 250.486 1342.02 186.717 1317.39 179.416 1239.69 C 176.837 1212.25 178.021 1182.38 178.031 1154.91 L 178.05 860.775 C 177.955 778.601 181.5 694.282 285.203 682.003 z M 1746.61 1291.98 C 1823.47 1287.11 1818.56 1235.07 1818.55 1172.2 L 1818.54 888.076 C 1818.53 829.211 1835.69 737.67 1754.06 732.329 L 309.256 732.49 C 231.466 733.79 227.481 778.748 227.484 846.938 L 227.56 1216.05 C 227.932 1295.4 285.257 1292.02 345.518 1292.02 L 1746.61 1291.98 z" fill="rgb(0,0,0)" transform="translate(0,0)"></path>
<path d="M 1104.54 903.385 C 1166.81 893.134 1225.6 935.311 1235.83 997.581 C 1246.07 1059.85 1203.87 1118.63 1141.6 1128.85 C 1079.35 1139.06 1020.6 1096.89 1010.37 1034.64 C 1000.14 972.393 1042.3 913.633 1104.54 903.385 z M 1132.78 1082 C 1202.67 1079.69 1192.89 935.393 1116.13 947.301 C 1041.22 960.569 1054.42 1097.57 1132.78 1082 z" fill="rgb(0,0,0)" transform="translate(0,0)"></path>
<path d="M 1511.35 905.993 C 1540 904.827 1573.15 905.374 1601.72 906.496 C 1700.13 910.36 1712.88 1058.35 1652.2 1107.2 C 1622.12 1129.46 1533.96 1134.02 1507.57 1124.33 C 1486.39 1116.55 1496.51 922.713 1499.37 915.171 C 1501.32 910.002 1506.63 907.891 1511.35 905.993 z M 1551.99 1082 C 1573.93 1082.13 1604.27 1085.73 1620.06 1067.38 C 1638.23 1041.65 1642.93 981.666 1614.81 959.826 C 1600.83 948.964 1569.79 950.844 1551.99 949.991 L 1551.99 1082 z" fill="rgb(0,0,0)" transform="translate(0,0)"></path>
<path d="M 1286.4 905.993 C 1324.28 905.235 1431.46 894.807 1447.55 941.586 C 1462.29 984.47 1447.65 1011.49 1406.97 1028.74 C 1433.33 1046.1 1442.42 1069.9 1460.04 1094.94 C 1485.82 1131.57 1437.46 1131.81 1416.96 1119.52 C 1378.57 1084.49 1385.02 1036.72 1325 1037 C 1325.01 1060.29 1326.47 1088.07 1322.71 1110.97 C 1319.43 1130.98 1271.9 1143.63 1271.49 1090.35 C 1271.07 1034.78 1270.51 978.99 1271.73 923.452 C 1271.95 913.822 1278.06 908.704 1286.4 905.993 z M 1325 949.991 L 1325 995.018 C 1342.54 995.114 1365.55 996.53 1381.82 991.694 C 1387.68 988.778 1390.1 987.329 1394.18 982.164 C 1403.96 941.969 1360.96 946.593 1334.43 949.991 L 1325 949.991 z" fill="rgb(0,0,0)" transform="translate(0,0)"></path>
<path d="M 832.208 905.993 C 872.79 905.178 936.923 899.377 967.467 925.996 C 994.888 949.893 992.115 996.78 968.927 1022.41 C 947.249 1046.37 912.418 1043.8 883.01 1044.96 C 879.342 1044.54 871.012 1044.9 866.997 1044.96 C 866.864 1080.7 880.504 1124.76 839.271 1127.19 C 806.113 1129.14 813.471 1085.44 813.458 1058.68 L 813.306 940.639 C 813.29 923.265 812.087 910.976 832.208 905.993 z M 923.544 995.018 C 930.417 987.192 931.642 981.985 931.116 971.417 C 929.745 943.84 887.046 948.928 866.997 949.991 C 865.949 955.967 866.52 995.149 866.997 1003 C 885.837 1003.22 908.492 1006.25 923.544 995.018 z" fill="rgb(0,0,0)" transform="translate(0,0)"></path>
<path d="M 626.262 905.993 L 628.217 905.933 C 667.386 905.037 732.298 899.687 760.428 927.437 C 785.702 952.369 783.108 1000.49 757.954 1024.77 C 734.541 1047.37 706.302 1045.1 676.5 1044.96 L 661.562 1044.96 C 661.663 1064 662.179 1084.87 661.06 1103.86 C 659.218 1135.16 608.149 1138.08 607.925 1098.66 C 607.607 1042.72 607.034 986.586 608.302 930.667 C 608.587 918.104 614.691 910.39 626.262 905.993 z M 661.562 1003 C 679.953 1002.82 703.529 1005.24 718.41 995.018 C 734.318 976.724 725.635 951.328 700.459 950.301 C 687.333 949.766 674.68 949.881 661.562 949.991 C 661.955 968.384 662.215 984.631 661.562 1003 z" fill="rgb(0,0,0)" transform="translate(0,0)"></path>
<path d="M 387.562 905.993 C 402.767 903.139 419.627 909.446 420.841 925.525 C 423.869 965.635 420.432 1007.86 421.965 1048.15 C 423.752 1095.16 484.247 1103.06 499.751 1069.68 C 508.049 1052.38 506.1 1031.34 506.055 1012.48 L 505.876 951.971 C 505.833 938.5 504.03 923.97 512.777 912.556 C 520.71 901.062 542.026 903.139 550.976 911.774 C 561.779 922.195 558.099 950.715 557.997 965.5 L 558.089 1020.66 C 558.102 1044.59 559.426 1068.94 547.092 1090.47 C 512.419 1151.54 385.442 1141.43 369.889 1070.83 C 366.104 1053.65 366.895 1038.48 366.928 1021.05 L 367.113 966.822 C 367.189 944.448 358.424 911.984 387.562 905.993 z" fill="rgb(0,0,0)" transform="translate(0,0)"></path>
<metadata><recraft-signature>{"signed_by": "recraft", "signature_b64": "wEPslIy1ZqUQfSM87tF0TS0tm8QmqHiOKxbf2Rup0MkJu8pe/9pt4JwvO4jb5kDjSJ5QlKLyRBb9xbZ7bGwWCg==", "signing_algo": "Ed25519", "generation_timestamp": 1773000655, "identifier": "1e34844b-f5f1-4b46-8c38-3942c162e05d"}</recraft-signature></metadata></svg>