<svg xmlns="http://www.w3.org/2000/svg" height="512" preserveAspectRatio="none" style="display: block;" version="1.1" viewBox="0 0 2048 2048" width="512">
<path d="M 462.092 707.07 L 1497.26 707.071 C 1584.51 707.022 1663.72 697.378 1731.55 767.3 C 1775.98 813.097 1790.91 860.736 1790.99 923.641 L 1790.98 1052.6 C 1790.97 1078 1791.46 1103.51 1790.3 1128.87 C 1785.23 1239.86 1694.16 1318.97 1585.3 1319 C 1562.87 1320.09 1530.2 1319.04 1507.19 1319.03 L 501.141 1319.03 C 477.415 1319.03 454.902 1319.41 431.222 1316.45 C 338.015 1304.8 260.725 1224.31 255.439 1130.06 C 254.64 1115.8 254.98 1101.09 254.984 1086.7 L 255.022 944.771 C 255.015 926.641 254.597 900.322 257.26 882.726 C 274.07 771.635 356.428 713.658 462.092 707.07 z M 1589.88 1193 C 1653.65 1176.47 1663.07 1142.64 1663.04 1085.72 L 1663.04 1034.62 C 1663.06 968.154 1684.31 835.032 1585.32 833.488 C 1557.66 832.927 1529.74 833.157 1502.09 833.162 L 498.917 833.092 C 490.315 833.08 463.114 832.406 455.689 833.175 C 387.369 840.893 381.206 890.497 381.021 946.798 L 380.963 1081.2 C 381.048 1186.42 418.103 1193.14 518.798 1193.05 L 1527.37 1193.02 C 1544.33 1193.04 1574.25 1194.14 1589.88 1193 z" fill="rgb(3,3,3)" transform="translate(0,0)"></path>
<path d="M 506.588 950.918 C 573.523 949.614 644.805 950.923 712.035 950.913 L 793.044 950.879 C 808.173 950.869 824.644 950.158 839.69 951.378 C 900.877 956.338 922.736 1042.57 844.032 1074.51 C 827.187 1075.27 801.852 1074.49 784.357 1074.5 L 568.465 1074.53 C 546.515 1074.53 500.192 1077.2 483.605 1065.4 C 434.542 1030.47 449.795 964.736 506.588 950.918 z" fill="rgb(91,89,90)" transform="translate(0,0)"></path>
<metadata><recraft-signature>{"signed_by": "recraft", "signature_b64": "51X2g4KXlM9t7YYN2UWbXWv5DwODcvcfvTCgOFuP12jfNV5LcFQusAZd6BmLYmQkgMuxb6VuaGQFVgFVvy7WBA==", "signing_algo": "Ed25519", "generation_timestamp": 1772999338, "identifier": "1a7898d9-664a-4ced-8649-4ebe272a8a90"}</recraft-signature></metadata></svg>