<svg xmlns="http://www.w3.org/2000/svg" height="512" preserveAspectRatio="none" style="display: block;" version="1.1" viewBox="0 0 2048 2048" width="512">
<path d="M 374.922 299.924 L 1660.59 299.622 C 1736.98 299.413 1747.75 349.338 1747.59 413.761 L 1747.61 1654.8 C 1747.75 1728.71 1700.48 1748.3 1635.15 1747.65 L 1335.36 1747.52 L 1271.46 1747.67 C 1246.62 1747.73 1224.02 1749.57 1201.82 1736.96 C 1139.16 1701.36 1163.08 1645.38 1155.08 1589.83 C 1143.6 1531.5 1127.03 1462.81 1110.25 1406.01 L 940.732 1406.01 C 926.485 1454.37 903.458 1541.67 896.712 1591.18 C 893.755 1620.04 898.576 1650.84 893.386 1679.4 C 879.188 1757.55 800.451 1747.53 742.981 1747.52 L 386.328 1747.75 C 303.964 1747.99 300.998 1678.85 301.019 1616.33 L 301.033 463.956 C 301.037 398.548 285.063 310.428 374.922 299.924 z M 466.999 1580.06 C 478.652 1581.23 492.409 1580.15 504.335 1580.12 L 725.532 1580.06 L 791.287 1308.83 C 808.255 1241.66 856.668 1238.16 913.387 1238.17 L 1116.77 1238.14 C 1165.29 1238.14 1216.07 1231.89 1244.29 1281.25 C 1266.11 1329.18 1292.42 1456.52 1305.89 1513.68 C 1311.36 1535.95 1317.8 1558.07 1323.17 1580.06 L 1582.02 1580.06 C 1581.44 1539.12 1582.02 1496.83 1582.02 1455.77 L 1582.02 467.008 L 466.999 467.008 C 466.031 477.888 466.875 494.41 466.947 505.994 L 466.999 1580.06 z" fill="rgb(0,0,0)" transform="translate(0,0)"></path>
<metadata><recraft-signature>{"signed_by": "recraft", "signature_b64": "lC29hNY4MPrfgYm4FCiKX1SMq75zNlbk2aksTtrYeH7/+zVHwZqKpy6KCYvCQvZqT2dr1sZQpP2DhkI7kjk+Bw==", "signing_algo": "Ed25519", "generation_timestamp": 1772995614, "identifier": "1201692a-a61d-402f-ae68-c4066d64c5ef"}</recraft-signature></metadata></svg>