<svg xmlns="http://www.w3.org/2000/svg" height="512" preserveAspectRatio="none" style="display: block;" version="1.1" viewBox="0 0 2048 2048" width="512">
<path d="M 279.856 211.276 C 316.299 208.033 339.079 240.69 362.061 263.617 L 908.17 807.836 C 922.101 821.619 941.255 841.832 956.048 853.302 L 956.023 424.851 C 956.022 405.749 956.015 387.024 956.663 367.861 C 959.42 286.31 1074.76 280.298 1092.99 363.143 L 1189.55 363.038 C 1248.47 362.97 1254.69 383.482 1294.35 423.558 L 1555.05 683.516 C 1598.46 726.917 1589.06 759.18 1589.06 815.287 L 1589 945.993 L 1641.15 945.896 C 1672.51 945.589 1694.39 940.984 1720.13 964.554 C 1759.72 1000.57 1742.67 1072.65 1688.21 1080.94 C 1671.82 1083.44 1651.05 1082.11 1634.17 1082.11 L 1184.16 1082.09 C 1194.44 1097.72 1219.36 1119.43 1233.21 1133.68 C 1378 1282.66 1525.71 1428.69 1672.38 1575.82 L 1769.23 1673.13 C 1793.34 1697.34 1829.6 1721.56 1829.9 1759.15 C 1829.6 1796.77 1800.29 1826.63 1762.27 1826.15 C 1728.36 1825.72 1712.45 1804.27 1690.28 1781.88 L 1491.65 1583.17 C 1459.34 1548.96 1425.41 1516.12 1391.96 1483.04 L 1159.33 1247.94 L 1121.75 1211.05 C 1112.37 1201.77 1102.9 1191.68 1092.99 1183.12 C 1091.74 1219.83 1092.98 1264.82 1092.99 1302.18 L 1093.03 1631.01 C 1093.02 1664.16 1097.8 1692.55 1073.44 1718.52 C 1034.77 1759.74 966.391 1735.97 957.369 1681.78 C 954.725 1665.89 955.997 1642.9 956.007 1626.4 L 956.048 1183.12 C 945.11 1190.89 919.582 1218.9 908.747 1229.77 L 734.029 1406.8 C 725.294 1415.74 713.835 1428.6 703.396 1435.29 C 634.871 1479.21 560.387 1388.36 618.811 1326.63 C 638.755 1305.55 659.492 1285.13 679.98 1264.56 L 773.255 1170.19 C 801.787 1141.52 831.367 1112.75 857.678 1082.09 C 856.421 1082.2 854.777 1082.38 853.523 1082.36 L 420.035 1082.11 C 387.398 1082.1 349.625 1087.72 324.792 1063.22 C 285.451 1024.42 306.729 954.872 361.858 947.038 C 377.898 944.758 399.695 945.955 416.237 945.963 L 854.322 945.993 C 825.583 915.999 796.501 886.75 766.978 857.523 L 244.744 334.499 C 198.29 287.522 212.69 221.668 279.856 211.276 z M 1092.99 500.99 C 1092.12 526.455 1092.99 555.912 1093 581.779 L 1093.03 762.213 C 1093.03 791.679 1093.8 824.223 1092.99 853.302 C 1117.78 829.251 1143.4 799.517 1169.72 777.612 C 1184.72 753.803 1289.04 655.81 1313.51 632.116 L 1237.74 557.342 C 1222.82 542.388 1194.61 512.466 1178.84 500.99 C 1176.76 501.032 1171.49 501.26 1169.72 500.99 L 1092.99 500.99 z M 1194.96 945.993 C 1211.39 944.943 1225.01 945.36 1241.5 945.993 L 1450.94 945.993 L 1450.94 773.237 C 1437.22 759.652 1420.76 741.495 1407.22 729.075 C 1340.68 798.305 1255.62 874.298 1194.96 945.993 z" fill="rgb(0,0,0)" transform="translate(0,0)"></path>
<metadata><recraft-signature>{"signed_by": "recraft", "signature_b64": "U3KN5bA7WM4KYBavdlTvSawtUvtzqrrLZrykb6HDe3fxqWzvJhNzTEGGo9TswIJVL57IT1i5TrsojnxxH9eDBw==", "signing_algo": "Ed25519", "generation_timestamp": 1772995605, "identifier": "ceb04f7d-03e7-459b-99d8-b56a760bdfa1"}</recraft-signature></metadata></svg>