<svg xmlns="http://www.w3.org/2000/svg" height="512" preserveAspectRatio="none" style="display: block;" version="1.1" viewBox="0 0 2048 2048" width="512">
<path d="M 469.472 488.997 C 611.212 478.899 717.765 564.592 759.655 698.099 C 782.699 771.54 794.882 826.332 866.641 869.422 C 919.62 901.234 954.545 896.266 1011.42 902.946 C 1156.15 919.944 1302.02 1000.41 1350.58 1144.76 C 1359.2 1170.38 1358.84 1186.48 1364.65 1209.23 C 1374.68 1248.45 1417.94 1303.27 1449 1327.24 C 1573.74 1423.57 1762.76 1342.97 1862.56 1439.93 C 1883.4 1460.19 1887.5 1485.09 1866.03 1506.3 C 1825.42 1546.42 1678.98 1557.73 1623.35 1557.49 C 1481.59 1556.87 1376.75 1517.1 1278.07 1417.6 C 1260.32 1434.1 1227.37 1448.58 1217.01 1459.82 C 1196.02 1482.61 1187.85 1508.84 1161.86 1528.65 C 1130.37 1545.73 1094.33 1544.31 1059.38 1546.52 C 1017.06 1549.19 943.336 1576.92 917.518 1528.8 C 895.02 1486.87 932.8 1443.68 971.807 1432.73 C 978.877 1430.74 989.588 1428.91 995.749 1425.8 L 995.83 1424.57 C 988.568 1421.76 933.918 1423.18 921.745 1422.73 C 851.264 1420.13 783.898 1407.55 716.874 1386.06 C 685.86 1435.5 659.243 1502.81 596.744 1511.83 C 543.377 1519.54 459.113 1547.37 462.057 1455.04 C 431.115 1461.34 393.228 1476.43 362.806 1463.81 C 332.117 1451.07 320.948 1412.94 334.788 1383.81 C 351.139 1349.4 392.733 1343.59 425.173 1331.91 C 435.712 1320.94 456.648 1264.4 462.057 1248.14 C 403.298 1175.7 374.546 1128.45 363.647 1031.21 C 355.914 962.215 356.545 903.708 312.786 844.342 C 283.627 832.446 276.509 825.308 262.799 797.136 C 245.006 810.729 226.727 828.072 218.677 849.289 C 198.482 902.517 170.905 822.869 256.476 776.94 C 256.589 768.915 256.567 761.101 256.476 753.074 C 215.462 763.295 211.825 773.243 182.145 785.17 C 152.857 794.493 180.516 741.258 256.476 733.688 C 246.356 592.45 335.94 504.414 469.472 488.997 z M 399.787 812.763 C 389.581 822.507 379.054 831.232 366.719 838.25 C 400.852 902.816 401.919 949.298 410.701 1020.81 C 423.569 1125.58 477.82 1221.75 570.571 1275.26 C 565.634 1247.26 542.208 1210.96 552.87 1193.22 C 496.647 1112 504.946 990.915 561.648 912.099 C 576.767 891.082 600.269 864.765 613.215 844.342 C 605.435 836.552 574.853 817.643 575.182 811.003 C 576.623 781.918 622.939 825.057 626.53 827.959 C 631.231 823.144 642.634 803.698 645.153 797.136 C 623.297 779.776 577.765 775.956 575.231 760.881 L 574.676 759.196 C 570.81 756.621 572.77 757.013 568.842 756.984 L 567.73 758.901 C 569.446 763.364 569.394 763.646 569.513 768.568 L 569.533 769.802 C 573.716 773.754 572.599 768.598 576.092 769.472 C 579.708 769.997 587.532 776.904 590.449 777.438 C 595.737 778.406 601.968 774.806 605.759 781.662 L 601.535 784.198 C 602.807 787.249 599.44 789.59 598.02 792.904 L 597.265 794.686 C 590.579 798.863 587.689 791.632 579.536 791.998 C 564.76 802.997 560.155 853.884 585.205 839.503 L 583.74 833.74 L 584.85 833.147 C 590.552 835.582 595.733 839.364 599.792 844.043 C 598.672 860.31 579.222 843.773 581.741 869.692 C 577.738 878.55 564.065 900.501 556.55 905.473 C 547.144 898.876 548.015 860.674 540.973 846.955 C 526.207 818.188 536.314 826.742 529.5 806.24 L 526.2 805.025 C 522.981 797.768 531.479 800.36 520.22 788.685 C 522.622 786.702 523.191 790.183 525.954 789.13 L 524.305 786.48 C 519.1 784.595 501.357 785.915 496.733 789.859 L 498.119 792.452 C 491.836 796.221 488.33 791.832 482.712 792.269 C 440.732 795.534 440.4 781.851 457.781 751.032 C 439.336 746.781 467.882 743.551 471.151 724.283 C 472.072 718.852 474.072 687.982 462.057 696.072 C 510.049 745.531 385.162 744.575 420.005 786.343 C 459.213 833.344 530.594 763.46 522.933 802.626 C 514.902 843.691 435.178 858.949 399.787 812.763 z M 558.576 1361.73 C 554.913 1366.88 549.824 1373.93 552.87 1380.51 C 555.096 1376.4 559.644 1366.34 558.576 1361.73 z M 1096.11 1472.37 C 1068.55 1475.91 962.781 1457.11 958.576 1502.8 C 957.303 1516.64 1037.81 1499.83 1047.69 1498.88 C 1061.38 1497.56 1077.95 1496.32 1091.76 1495.09 C 1095.5 1488.75 1092.86 1482.19 1096.11 1472.37 z M 358.623 652.845 C 352.585 686.188 323.751 696.282 312.786 662.373 C 304.485 686.662 287.901 787.761 323.792 797.11 C 361.921 810.926 409.952 777.819 379.968 754.543 C 349.048 731.623 334.251 695.973 383.56 682.252 C 376.859 677.951 374.663 664.941 362.173 667.353 L 360.78 666.309 C 358.643 660.745 359.417 658.554 358.623 652.845 z M 606.424 1222.67 C 626.054 1283.2 623.438 1339.7 595.864 1397.93 C 580.168 1431.07 470.067 1447.99 520.698 1477.02 C 542.118 1477.71 586.075 1467.87 605.09 1459.74 C 628.401 1449.3 635.511 1422.1 648.436 1402.28 C 673.169 1364.34 702.326 1337.37 700.984 1287.12 C 670.293 1272.73 651.468 1253.77 624.081 1234.59 C 618.919 1230.99 614.303 1224.37 608.967 1221.77 L 606.424 1222.67 z M 748.981 1267.08 C 749.639 1294.79 748.302 1316.69 739.519 1342.82 C 800.7 1364.83 899.965 1376.74 964.867 1376.72 C 959.468 1358.3 957.441 1346.95 954.642 1328.04 C 916.151 1334.48 779.496 1298.51 750.703 1266.82 L 748.981 1267.08 z" fill="rgb(1,1,1)" transform="translate(0,0)"></path>
<path d="M 327.12 620.583 C 362.036 572.922 392.088 550.249 450.965 541.054 C 611.171 516.031 692.895 621.394 725.27 759.183 C 753.976 858.917 835.532 932.249 939.378 944.932 C 962.391 947.742 985.718 949.041 1008.98 951.497 C 1125.17 963.767 1243.29 1023.41 1293.64 1134.9 C 1263.18 1129.35 1241.71 1126.97 1210.62 1127.55 C 1198.76 1127.77 1170.67 1131.58 1161.86 1127.88 C 1142.54 1065.24 958.614 1157.37 954.881 1299.47 C 954.656 1308.04 955.406 1319.76 954.642 1328.04 C 916.151 1334.48 779.496 1298.51 750.703 1266.82 L 748.981 1267.08 C 741.277 1237.58 714.017 1229.76 701.543 1252.71 C 695.461 1263.91 701.183 1275.75 700.984 1287.12 C 670.293 1272.73 651.468 1253.77 624.081 1234.59 C 618.919 1230.99 614.303 1224.37 608.967 1221.77 L 606.424 1222.67 C 594.607 1195.97 584.698 1169.34 552.87 1193.22 C 496.647 1112 504.946 990.915 561.648 912.099 C 576.767 891.082 600.269 864.765 613.215 844.342 C 605.435 836.552 574.853 817.643 575.182 811.003 C 576.623 781.918 622.939 825.057 626.53 827.959 C 631.231 823.144 642.634 803.698 645.153 797.136 C 623.297 779.776 577.765 775.956 575.231 760.881 L 574.676 759.196 C 570.81 756.621 572.77 757.013 568.842 756.984 L 567.73 758.901 C 569.446 763.364 569.394 763.646 569.513 768.568 L 569.533 769.802 C 573.716 773.754 572.599 768.598 576.092 769.472 C 579.708 769.997 587.532 776.904 590.449 777.438 C 595.737 778.406 601.968 774.806 605.759 781.662 L 601.535 784.198 C 602.807 787.249 599.44 789.59 598.02 792.904 L 597.265 794.686 C 590.579 798.863 587.689 791.632 579.536 791.998 C 564.76 802.997 560.155 853.884 585.205 839.503 L 583.74 833.74 L 584.85 833.147 C 590.552 835.582 595.733 839.364 599.792 844.043 C 598.672 860.31 579.222 843.773 581.741 869.692 C 577.738 878.55 564.065 900.501 556.55 905.473 C 547.144 898.876 548.015 860.674 540.973 846.955 C 526.207 818.188 536.314 826.742 529.5 806.24 L 526.2 805.025 C 522.981 797.768 531.479 800.36 520.22 788.685 C 522.622 786.702 523.191 790.183 525.954 789.13 L 524.305 786.48 C 519.1 784.595 501.357 785.915 496.733 789.859 L 498.119 792.452 C 491.836 796.221 488.33 791.832 482.712 792.269 C 440.732 795.534 440.4 781.851 457.781 751.032 C 439.336 746.781 467.882 743.551 471.151 724.283 C 472.072 718.852 474.072 687.982 462.057 696.072 C 439.756 679.643 409.993 679.226 383.56 682.252 C 376.859 677.951 374.663 664.941 362.173 667.353 L 360.78 666.309 C 358.643 660.745 359.417 658.554 358.623 652.845 C 355.176 632.542 349.724 620.65 327.12 620.583 z" fill="rgb(237,237,236)" transform="translate(0,0)"></path>
<path d="M 575.231 760.881 C 591.84 728.21 720.243 807.907 707.863 834.848 C 692.078 849.811 668.06 807.158 645.153 797.136 C 623.297 779.776 577.765 775.956 575.231 760.881 z" fill="rgb(1,1,1)" transform="translate(0,0)"></path>
<path d="M 613.215 844.342 C 605.435 836.552 574.853 817.643 575.182 811.003 C 576.623 781.918 622.939 825.057 626.53 827.959 C 633.186 834.38 678.852 882.17 645.555 881.23 C 638.215 878.171 621.664 853.416 613.215 844.342 z" fill="rgb(1,1,1)" transform="translate(0,0)"></path>
<path d="M 544.976 626.217 C 578.918 624.834 585.333 676.415 552.87 690.437 C 522.777 694.054 513.04 639.164 544.976 626.217 z" fill="rgb(1,1,1)" transform="translate(0,0)"></path>
<path d="M 1161.86 1127.88 C 1170.67 1131.58 1198.76 1127.77 1210.62 1127.55 C 1241.71 1126.97 1263.18 1129.35 1293.64 1134.9 C 1336.26 1228.32 1310.78 1344.87 1220.91 1400.3 C 1207.47 1408.59 1192.14 1414.81 1181.31 1426.7 C 1140.03 1465.27 1161.89 1494.4 1091.76 1495.09 C 1095.5 1488.75 1092.86 1482.19 1096.11 1472.37 C 1109.22 1465.25 1117.16 1447.9 1107.72 1434.57 C 1099.99 1423.43 1087.02 1427.06 1076.8 1424.45 C 965.93 1396.22 978.377 1212.34 1110.2 1163.13 C 1135.12 1153.82 1158.09 1160.07 1161.86 1127.88 z" fill="rgb(237,237,236)" transform="translate(0,0)"></path>
<path d="M 1353.88 1292.71 C 1356.44 1294.82 1369.96 1315.37 1373.28 1319.68 C 1506.73 1493.68 1762.94 1388.19 1830.46 1477.02 C 1813.93 1480.51 1792.81 1488.52 1773.72 1493 C 1616.94 1525.59 1419.42 1513.83 1310.47 1380.51 C 1333.39 1349.13 1341.14 1328.27 1353.88 1292.71 z" fill="rgb(156,155,155)" transform="translate(0,0)"></path>
<path d="M 500.515 1287.12 C 509.596 1290.82 532.715 1307.24 540.043 1313.77 C 488.416 1376.62 504.402 1393.69 413.791 1417.6 C 404.815 1419.1 382.097 1426.45 377.98 1415.27 C 367.191 1384.57 423.011 1387.05 440.106 1379.61 C 471.824 1365.79 486.353 1316.61 500.515 1287.12 z" fill="rgb(116,115,115)" transform="translate(0,0)"></path>
<metadata><recraft-signature>{"signed_by": "recraft", "signature_b64": "+7B/f25cL+Q4xIZowuepyhORYHoM8nP1nvFCW7HLnU0uDbmXUXVQ4YtdJ7H0mOkHn5G7Stv6FCzuejnkQuHlDA==", "signing_algo": "Ed25519", "generation_timestamp": 1772997432, "identifier": "e7ef3587-7d19-452f-8486-a7c719862983"}</recraft-signature></metadata></svg>