<?xml version="1.0" encoding="UTF-8"?>
<svg viewBox="0 0 500 500" xmlns="http://www.w3.org/2000/svg">
  <!-- Table -->
  <ellipse cx="250" cy="350" rx="120" ry="20" fill="#8B5E2A" stroke="#000" stroke-width="3.5"/>
  <rect x="150" y="350" width="15" height="60" fill="#8B5E2A" stroke="#000" stroke-width="3.5"/>
  <rect x="335" y="350" width="15" height="60" fill="#8B5E2A" stroke="#000" stroke-width="3.5"/>
  
  <!-- Teacher -->
  <circle cx="200" cy="200" r="25" fill="#FFD5B0" stroke="#000" stroke-width="3.5"/>
  <circle cx="192" cy="192" r="4" fill="#000"/>
  <circle cx="208" cy="192" r="4" fill="#000"/>
  <path d="M185 210 Q200 220 215 210" fill="none" stroke="#000" stroke-width="2"/>
  <rect x="190" y="225" width="20" height="50" fill="#0099DD" stroke="#000" stroke-width="3.5"/>
  <circle cx="175" cy="285" r="8" fill="#FFD5B0" stroke="#000" stroke-width="3.5"/>
  <circle cx="225" cy="285" r="8" fill="#FFD5B0" stroke="#000" stroke-width="3.5"/>
  
  <!-- Parent -->
  <circle cx="300" cy="200" r="25" fill="#FFD5B0" stroke="#000" stroke-width="3.5"/>
  <circle cx="292" cy="192" r="4" fill="#000"/>
  <circle cx="308" cy="192" r="4" fill="#000"/>
  <path d="M285 210 Q300 220 315 210" fill="none" stroke="#000" stroke-width="2"/>
  <rect x="290" y="225" width="20" height="50" fill="#FF66CC" stroke="#000" stroke-width="3.5"/>
  <circle cx="275" cy="285" r="8" fill="#FFD5B0" stroke="#000" stroke-width="3.5"/>
  <circle cx="325" cy="285" r="8" fill="#FFD5B0" stroke="#000" stroke-width="3.5"/>
  
  <!-- Papers on table -->
  <rect x="200" y="320" width="100" height="60" fill="#FFFFFF" stroke="#000" stroke-width="3.5"/>
  <path d="M210 330 L290 330" stroke="#000" stroke-width="1"/>
  <path d="M210 340 L280 340" stroke="#000" stroke-width="1"/>
  <path d="M210 350 L285 350" stroke="#000" stroke-width="1"/>
  <path d="M210 360 L270 360" stroke="#000" stroke-width="1"/>
  
  <!-- Speech bubble -->
  <ellipse cx="250" cy="120" rx="60" ry="30" fill="#FFFFFF" stroke="#000" stroke-width="3.5"/>
  <path d="M230 140 L220 160 L250 150 Z" fill="#FFFFFF" stroke="#000" stroke-width="3.5"/>
  
  <!-- Icon in speech bubble (representing discussion about child) -->
  <circle cx="240" cy="115" r="8" fill="#FFD5B0" stroke="#000" stroke-width="2"/>
  <circle cx="237" cy="113" r="2" fill="#000"/>
  <circle cx="243" cy="113" r="2" fill="#000"/>
  <path d="M235 118 Q240 123 245 118" fill="none" stroke="#000" stroke-width="1"/>
  <rect x="250" y="115" width="15" height="10" fill="#66AA00" stroke="#000" stroke-width="1"/>
</svg>