<svg xmlns="http://www.w3.org/2000/svg" height="512" preserveAspectRatio="none" style="display: block;" version="1.1" viewBox="0 0 2048 2048" width="512">
<path d="M 403.542 1033.99 C 419.531 1032.81 455.253 1034.03 473.025 1034.04 L 745.738 1033.95 C 770.711 1033.94 796.904 1032.36 821.668 1035.44 C 875.967 1042.21 925.059 1087.71 939.688 1139.49 C 949.41 1173.91 945.783 1237.21 945.77 1275.37 L 945.772 1544.79 C 945.776 1651.53 936.32 1713.57 819.774 1745.76 C 813.453 1746.29 807.255 1745.48 800.874 1745.49 L 480.83 1745.8 C 426.198 1745.8 376.596 1750.57 331.3 1713.09 C 271.934 1663.98 274.979 1613.12 274.985 1541.02 L 274.981 1240.59 C 274.991 1142.24 282.419 1046.75 403.542 1033.99 z M 422.976 1598 L 764.49 1598.11 C 772.843 1598.16 790.879 1599.09 798.039 1598 C 799.038 1585.25 798.094 1567.32 798.062 1553.88 L 798.039 1181.7 C 714.16 1180.57 627.588 1181.73 543.454 1181.71 L 461.098 1181.63 C 451.667 1181.6 431.192 1180.72 422.976 1181.7 L 422.976 1598 z" fill="rgb(0,0,0)" transform="translate(0,0)"></path>
<path d="M 1232.33 1033.99 C 1242.98 1032.94 1283.7 1034 1296.67 1034.02 L 1575.87 1033.94 C 1622.17 1033.92 1661.62 1028.59 1702.97 1054.32 C 1782.67 1103.9 1771.22 1177.58 1771.08 1257.18 L 1771.11 1553.93 C 1771.14 1655.86 1753.13 1719 1641.24 1745.76 C 1553.58 1747.05 1462.86 1745.52 1374.95 1745.69 L 1282.63 1745.78 C 1215.54 1745.74 1173.08 1739.91 1131.15 1685.29 C 1097.24 1641.11 1104.64 1588.55 1104.66 1535.83 L 1104.64 1225.68 C 1104.63 1172.78 1098.74 1128.68 1134.97 1084.74 C 1160.54 1053.73 1192.61 1038.2 1232.33 1033.99 z M 1249.98 1598 L 1534.74 1597.95 C 1553.05 1597.96 1610.19 1601.6 1624.91 1598 C 1625.64 1586.68 1624.82 1562.76 1624.89 1550.03 L 1624.92 1269.82 C 1624.92 1253.1 1625.93 1195.09 1622.59 1183.32 C 1612.88 1181.14 1590.12 1181.69 1579.42 1181.69 L 1249.98 1181.7 L 1249.98 1598 z" fill="rgb(0,0,0)" transform="translate(0,0)"></path>
<path d="M 1012.93 299.592 C 1120.54 289.967 1228.91 376.187 1248.88 481.503 C 1255.51 516.462 1253.55 552.794 1253.55 588.376 L 1253.6 822.735 C 1253.69 861.913 1259.37 898.829 1225.53 926.12 C 1179.32 964.501 1107.73 928.436 1105.68 870.002 C 1103.86 817.954 1093.06 768.989 1031.25 762.466 C 993.38 757.218 957.079 782.84 946.29 818.734 C 935.749 852.161 950.809 882.491 925.651 912.415 C 901.61 941.207 867.626 951.501 833.487 933.16 C 786.51 907.922 793.011 865.723 793.019 820.252 L 793.038 589.598 C 793.025 555.817 790.579 515.821 797.824 483.203 C 821.67 375.859 905.73 307.99 1012.93 299.592 z M 941.811 625.298 C 976.213 620.524 989.06 614.725 1026.69 614.99 C 1048.97 614.826 1084.17 617.882 1104.68 625.298 C 1105.86 616.687 1107.58 523.44 1105.51 511.551 C 1099.2 475.418 1057.72 443.627 1020.77 447.325 C 920.29 461.13 944.621 553.003 941.811 625.298 z" fill="rgb(0,0,0)" transform="translate(0,0)"></path>
<path d="M 450.369 478.024 C 557.949 466.955 654.144 545.167 665.259 652.743 C 676.375 760.319 598.204 856.548 490.632 867.709 C 382.996 878.878 286.696 800.649 275.574 693.007 C 264.452 585.366 342.722 489.099 450.369 478.024 z M 476.524 721.162 C 502.778 717.605 521.262 693.558 517.947 667.273 C 514.631 640.988 490.755 622.283 464.44 625.357 C 437.782 628.471 418.78 652.728 422.138 679.357 C 425.497 705.986 449.927 724.764 476.524 721.162 z" fill="rgb(0,0,0)" transform="translate(0,0)"></path>
<metadata><recraft-signature>{"signed_by": "recraft", "signature_b64": "6guY8OAXhnrVea4fafPqXTKg2KvQMwd8qKpMtm0rlZumaFpk6j2QihB0EiGhqmyduJzL63wB+gXNubFDLEO1Dw==", "signing_algo": "Ed25519", "generation_timestamp": 1772990333, "identifier": "99383c2d-d88d-437f-b003-5ffcf7847f71"}</recraft-signature></metadata></svg>