<svg xmlns="http://www.w3.org/2000/svg" height="512" preserveAspectRatio="none" style="display: block;" version="1.1" viewBox="0 0 2048 2048" width="512">
<path d="M 205.035 681.995 C 313.419 680.639 425.104 681.992 533.777 681.991 L 1760.65 681.99 C 1789.94 681.992 1862.79 669.04 1863.45 706.314 C 1864.05 740.311 1863.75 774.353 1863.74 808.362 L 1863.72 1227.61 C 1863.74 1265.52 1864.07 1303.46 1863.58 1341.36 C 1863.36 1359.11 1856.76 1363.23 1840.25 1362.94 L 201.219 1362.95 C 175.532 1366.46 184.066 1280.28 184.065 1258.7 L 184.254 713.387 C 184.431 695.583 186.036 687.225 205.035 681.995 z M 221.998 719.079 L 222.007 1257.28 C 222.012 1278.77 222.668 1302.77 221.998 1323.99 L 1723.5 1323.99 L 1825.48 1323.99 L 1825.48 719.079 C 1806.7 719.718 1789.73 719.087 1771.02 719.081 L 323.68 719.079 L 255.553 719.163 C 246.692 719.177 230.289 719.768 221.998 719.079 z" fill="rgb(0,0,0)" transform="translate(0,0)"></path>
<path d="M 1163.03 862.792 C 1177.3 862.248 1189.53 862.425 1203.77 862.792 C 1210.68 891.369 1210.9 931.484 1218.42 956.372 C 1221.42 954.136 1234.27 875.026 1237.56 862.792 C 1250.76 862.647 1263.8 862.447 1277 862.792 L 1277 1021 L 1249.03 1021 C 1249.84 986.95 1248.16 951.854 1249.03 917.749 L 1248.6 912.125 L 1247.81 911.77 C 1240.23 942.233 1234.91 988.748 1229.66 1021 C 1222.92 1021.17 1215.96 1021.04 1209.2 1021 C 1200.78 983.287 1197.96 940.326 1190 904.761 L 1190 1021 C 1180.19 1021.67 1172.79 1021.36 1163.03 1021 C 1163.08 968.664 1162.21 914.937 1163.03 862.792 z" fill="rgb(0,0,0)" transform="translate(0,0)"></path>
<path d="M 305.034 862.792 L 335.49 862.792 L 335.441 938.518 C 335.437 950.174 333.518 979.268 338.826 990.244 C 342.248 996.54 356.299 994.508 358.545 989.712 C 364.867 976.213 362.814 950.665 362.782 935.92 L 362.735 862.792 C 372.98 863.01 383.425 862.847 393.687 862.792 C 393.231 871.462 393.517 880.073 393.687 888.75 L 393.835 949.413 C 393.868 971.295 396.465 995.845 379.677 1012.72 C 362.985 1029.49 332.602 1029.22 316.363 1012.15 C 301.462 996.491 304.984 962.394 304.982 941.834 L 305.034 862.792 z" fill="rgb(0,0,0)" transform="translate(0,0)"></path>
<path d="M 910.83 862.792 C 921.911 862.986 932.354 862.982 943.435 862.792 C 934.8 879.882 918.568 923.237 910.83 934.984 C 920.1 955.714 925.519 972.247 932.719 993.958 C 936.317 1000.56 940.779 1013.56 943.435 1021 C 932.956 1020.78 921.516 1021.1 910.83 1021 C 904.099 1006.98 896.698 983.477 890.292 967.89 C 881.496 986.818 883.888 1000.27 884 1021 L 854.52 1021 C 852.652 972.203 852.184 910.527 854.52 862.792 C 864.257 863.012 874.243 862.843 884 862.792 L 884 931.004 C 891.195 909.773 900.331 882.686 910.83 862.792 z" fill="rgb(0,0,0)" transform="translate(0,0)"></path>
<path d="M 1329.9 862.792 C 1369.41 855.632 1380.57 879.494 1383 913.921 C 1372.92 914.182 1361.5 913.937 1351.32 913.921 C 1351.23 907.378 1351.59 896.232 1346.03 891.678 C 1319.35 869.829 1327.03 966.797 1327.6 974.487 C 1329.86 1004.94 1353.14 1006.61 1351.32 959.087 L 1340 959.087 C 1340.07 950.321 1335.17 933.647 1345.86 931.004 L 1383 931.004 C 1383.15 957.031 1390.87 1014.26 1356.75 1021.25 C 1299.06 1033.09 1296.68 995.458 1297.62 950.738 C 1298.3 918.706 1287.38 869.804 1329.9 862.792 z" fill="rgb(0,0,0)" transform="translate(0,0)"></path>
<path d="M 1421.74 862.792 L 1460.58 862.792 C 1463.59 886.961 1468.43 913.288 1472.49 937.42 L 1486.31 1021 C 1477.43 1021.46 1466.55 1021.08 1457.51 1021 C 1455.28 1011.29 1453.9 1000.66 1452.52 990.76 L 1451.97 989.353 C 1447.5 986.04 1434.9 987.34 1428.93 987.51 C 1423.72 1000.42 1423.43 1007.2 1421.74 1021 C 1412.2 1021.89 1402.52 1021.32 1392.93 1021 C 1399.25 986.426 1407.78 891.332 1421.74 862.792 z M 1428.93 964.169 L 1443.23 964.169 C 1446.97 963.88 1446.54 964.696 1448.07 962.922 C 1447.26 954.568 1441.29 909.008 1437.47 904.761 C 1433.76 921.214 1431.17 946.804 1428.93 964.169 z" fill="rgb(0,0,0)" transform="translate(0,0)"></path>
<path d="M 1603.35 864.995 L 1640.75 864.995 C 1652.36 894.18 1663.25 986.77 1667.29 1021 C 1658.33 1021.26 1649.7 1021.12 1640.75 1021 C 1637.9 1009.87 1636.29 1002.05 1634.36 990.76 L 1634.01 989.586 C 1631.15 987.348 1617.43 988.789 1610.53 987.51 C 1609.88 997.472 1607.42 1010.48 1606.26 1021 L 1577.05 1021 C 1583.78 984.549 1591.83 895.756 1603.35 864.995 z M 1621.64 964.169 C 1640.6 963.426 1621.66 904.783 1621.64 904.761 L 1621.54 906.365 C 1620.75 917.454 1615.93 952.094 1612.3 961.648 L 1613.13 963.675 C 1616.71 964.264 1618.11 964.202 1621.64 964.169 z" fill="rgb(0,0,0)" transform="translate(0,0)"></path>
<path d="M 1519.32 1088.02 C 1528.82 1087.44 1543.95 1087.95 1553.83 1088.02 C 1558.02 1103.01 1564.44 1123.39 1569.74 1137.71 L 1583.64 1088.02 C 1597.09 1088.05 1607.87 1088.57 1621.64 1088.02 C 1623.2 1116.6 1625.64 1157.89 1629.45 1185.97 C 1618.47 1186.92 1614.46 1186.78 1603.35 1185.97 C 1598.96 1170.65 1598.73 1160.35 1597.2 1144.51 L 1597.2 1124.33 C 1593.87 1143.75 1586.26 1166.74 1580.42 1185.97 C 1571.94 1186.43 1566.73 1186.42 1558.24 1185.97 C 1553.18 1170.89 1543.79 1138.87 1541.27 1124.33 C 1541.3 1144.01 1539.17 1166.21 1537.83 1185.97 C 1528.03 1186.7 1520.76 1186.36 1511.01 1185.97 C 1510.39 1159.67 1513.24 1114.64 1517.59 1089.2 L 1519.32 1088.02 z" fill="rgb(0,0,0)" transform="translate(0,0)"></path>
<path d="M 576.609 862.792 C 583.588 863.507 597.929 862.897 605.452 862.792 C 616.921 895.904 617.627 940.655 625.861 973.149 C 627.185 944.079 637.428 893.606 642.499 862.792 C 652.258 863.017 661.953 862.882 671.71 862.792 C 668.69 875.907 666.646 891.208 664.018 904.761 C 656.532 941.067 647.402 984.39 642.499 1021 C 630.173 1021.69 621.846 1021.58 609.714 1021 C 603.955 1003.42 577.89 881.453 576.609 862.792 z" fill="rgb(0,0,0)" transform="translate(0,0)"></path>
<path d="M 1711 1088.02 C 1719.41 1087.75 1728.53 1087.97 1737 1088.02 C 1736.84 1103.52 1739.46 1173.46 1736.48 1185.22 L 1734.18 1185.97 L 1696.74 1185.97 C 1689.7 1166.74 1680.81 1148.67 1674.25 1129.01 C 1673.91 1147.77 1674.44 1167.07 1674.25 1185.97 C 1665.59 1186.55 1655.71 1186.13 1646.94 1185.97 C 1646.19 1176.49 1646.53 1091.54 1648.01 1088.57 L 1651.77 1088.02 C 1661.99 1088.28 1671.51 1088.19 1681.71 1088.02 C 1695.57 1108.4 1699.96 1128.72 1711 1144.51 C 1709.66 1125.91 1708.96 1106.54 1711 1088.02 z" fill="rgb(0,0,0)" transform="translate(0,0)"></path>
<path d="M 1093.99 862.792 C 1095.76 865.139 1094.18 887.394 1093.99 891.958 L 1061 891.958 C 1061.63 905.176 1061.5 913.831 1061 926.977 C 1073.24 925.239 1076.64 925.345 1089.02 926.977 L 1089.02 951.751 C 1079.78 951.882 1070.27 951.757 1061 951.751 L 1061 990.76 C 1069.72 992.245 1084.48 993.083 1093.99 993.958 L 1093.99 1021 L 1031.05 1021 L 1031.1 925.6 C 1031.21 904.684 1032.15 883.61 1031.05 862.792 C 1050.34 862.038 1074.24 862.888 1093.99 862.792 z" fill="rgb(0,0,0)" transform="translate(0,0)"></path>
<path d="M 686.021 862.792 L 750.852 862.792 C 750.798 872.509 750.692 882.243 750.852 891.958 C 737.132 891.262 728.718 891.115 715.001 891.958 L 715.001 926.977 L 745.282 926.977 C 744.999 935.804 745.269 946.057 745.282 954.997 C 735.306 955.127 725.002 955.003 715.001 954.997 C 714.92 966.935 714.799 978.821 715.001 990.76 L 716.262 993.007 C 721.865 994.97 743.543 994.092 750.852 993.958 C 750.297 1003.6 750.553 1011.4 750.852 1021 L 686.021 1021 L 686.021 862.792 z" fill="rgb(0,0,0)" transform="translate(0,0)"></path>
<path d="M 399.159 1088.02 C 407.929 1087.58 413.219 1087.48 421.94 1088.02 C 431.11 1103.77 440.904 1127.46 449.01 1144.51 L 449.01 1088.02 C 458.884 1087.75 467.926 1087.84 477.767 1088.02 L 477.865 1150.26 C 477.894 1166.53 484.094 1184.91 469.148 1185.97 C 459.403 1185.59 451.745 1185.63 441.992 1185.97 C 435.825 1169.49 426.363 1149.14 417.965 1133.75 C 418.353 1150.66 417.981 1168.95 417.965 1185.97 C 408.354 1186.12 398.492 1185.99 388.86 1185.97 L 388.86 1088.02 C 392.282 1087.96 395.733 1088 399.159 1088.02 z" fill="rgb(0,0,0)" transform="translate(0,0)"></path>
<path d="M 1532.64 862.792 C 1564.18 858.144 1564.46 869.523 1558.24 894.69 C 1515.84 877.045 1515.62 907.363 1547.34 933.937 C 1583.44 964.18 1580.66 1023.58 1525.61 1021 C 1512.47 1021.55 1508.24 1022.63 1499.02 1012.77 L 1499.02 984.367 C 1509.9 990.555 1530.89 1000.14 1539.57 988.39 C 1551.43 967.267 1506.55 942.959 1500.66 926.827 C 1489.26 895.579 1496.59 865.241 1532.64 862.792 z" fill="rgb(0,0,0)" transform="translate(0,0)"></path>
<path d="M 801.567 862.792 C 813.234 859.784 826.348 860.622 838.045 862.792 C 834.56 875.263 834.151 878.904 834.019 891.958 C 823.363 891.02 808.356 888.129 801.96 899.191 C 791.058 918.045 785.449 978.516 811.131 993.958 C 819.664 992.323 825.363 991.54 834.019 990.76 C 834.243 1000.53 834.192 1009.57 834.019 1019.31 C 738.718 1047.14 742.184 873.085 801.567 862.792 z" fill="rgb(0,0,0)" transform="translate(0,0)"></path>
<path d="M 1203.77 1088.02 C 1211.96 1088.74 1234.75 1088.03 1244.06 1088.02 C 1252.67 1121.03 1264.22 1152.48 1270.63 1185.97 C 1254.55 1186.85 1240.29 1193.18 1237.56 1178.89 L 1236.36 1175.17 C 1230.06 1170.94 1216.83 1174.27 1209.2 1175.41 C 1209.62 1178.36 1209.31 1182.84 1209.2 1185.97 L 1174.79 1185.97 C 1180.28 1161.88 1194.67 1107.3 1203.77 1088.02 z M 1229.66 1148.98 L 1232.12 1148.48 C 1232.33 1145.04 1224.92 1120.98 1223.17 1118.96 C 1219.55 1132.79 1208.06 1149.93 1229.66 1148.98 z" fill="rgb(0,0,0)" transform="translate(0,0)"></path>
<path d="M 893.874 1088.02 C 905.147 1087.33 915.134 1089.13 927.125 1088.02 C 918.734 1101.26 907.936 1115.67 900.235 1129.01 C 905.104 1139.85 909.841 1150.54 914.483 1161.49 C 918.878 1169.43 923.01 1177.86 927.125 1185.97 C 914.119 1185.01 903.157 1185.37 890.292 1185.97 C 886.918 1175.74 880.853 1165.27 875.492 1155.9 C 868.899 1167.86 868.953 1172.66 866.829 1185.97 C 856.836 1185.47 848.007 1185.72 838.045 1185.97 C 837.956 1153.5 838.944 1120.3 838.045 1088.02 C 848.792 1088.14 859.235 1088.16 869.989 1088.02 L 869.989 1124.33 C 880.049 1114.52 886.328 1100.33 893.874 1088.02 z" fill="rgb(0,0,0)" transform="translate(0,0)"></path>
<path d="M 989.131 1088.02 C 999.062 1087.73 1009.52 1087.96 1019.49 1088.02 C 1011.53 1105.24 1003.41 1113.97 995.027 1129.01 C 1001.96 1140.33 1008.92 1155.35 1014.9 1167.5 C 1018.25 1173.87 1020.88 1179.4 1023.85 1185.97 C 1011.99 1186.77 1000.98 1186.6 989.131 1185.97 C 972.24 1144.22 970.38 1147.93 966.964 1185.97 C 956.423 1186.18 945.589 1186.59 935.089 1185.97 C 934.325 1155.57 934.934 1118.84 935.089 1088.02 L 966.964 1088.02 C 966.795 1099.98 966.959 1112.34 966.964 1124.33 C 974.999 1114.83 982.925 1099.2 989.131 1088.02 z" fill="rgb(0,0,0)" transform="translate(0,0)"></path>
<path d="M 494.037 862.792 L 573.041 862.792 C 572.792 874.471 572.309 879.773 573.041 891.958 C 564.081 892.879 555.464 892.364 546.49 891.958 C 545.802 927.772 546.455 965.592 546.49 1001.56 C 546.175 1007.17 546.456 1015.21 546.49 1021 C 535.296 1021.71 527.604 1021.48 516.53 1021 L 516.53 891.958 C 508.098 892.085 499.75 892.02 491.321 891.958 C 491.193 887.313 489.936 866.194 491.206 863.187 L 494.037 862.792 z" fill="rgb(0,0,0)" transform="translate(0,0)"></path>
<path d="M 1312.82 1088.02 C 1329.73 1085.64 1343.61 1090.4 1356.44 1101.1 C 1356.1 1106.19 1356.38 1113.65 1356.44 1118.96 L 1347.09 1119.13 C 1328.96 1119.5 1319.72 1103.15 1307.1 1124.33 C 1306.06 1146.27 1301.45 1161.32 1327.84 1161.49 C 1325.58 1139.68 1315.57 1158.59 1317.12 1129.01 C 1330.29 1129.05 1343.23 1128.51 1356.44 1129.01 C 1357.53 1133.19 1356.5 1168.89 1356.44 1175.41 C 1335.01 1195.21 1280.25 1196.21 1276.63 1159.01 C 1273.07 1122.48 1271.98 1093.49 1312.82 1088.02 z" fill="rgb(0,0,0)" transform="translate(0,0)"></path>
<path d="M 462.91 862.792 C 470.993 862.505 479.404 862.712 487.517 862.792 C 487.659 872.484 487.554 882.259 487.517 891.958 C 478.04 891.878 468.695 891.797 459.213 891.958 L 459.213 1021 C 449.063 1021.76 440.189 1022.48 430.062 1021 L 430.062 891.958 L 402.633 891.958 C 401.692 882.564 402.18 872.196 402.633 862.792 L 462.91 862.792 z" fill="rgb(0,0,0)" transform="translate(0,0)"></path>
<path d="M 1405.81 1088.02 C 1435.34 1082.41 1449.79 1091.07 1443.23 1118.96 C 1433.85 1117.24 1417.99 1111.85 1409.64 1115.14 C 1401.17 1122.87 1398.19 1159.36 1413.25 1161.07 C 1423.9 1162.28 1413.75 1140.67 1414.11 1129.01 C 1420.66 1127.9 1441.72 1125.38 1446.54 1129.55 L 1446.74 1133.75 C 1446.81 1148.75 1446.99 1163.9 1446.74 1178.89 C 1360.92 1225.36 1344.32 1097.61 1405.81 1088.02 z" fill="rgb(0,0,0)" transform="translate(0,0)"></path>
<path d="M 955.585 862.792 C 965.367 862.978 975.34 862.833 985.138 862.792 L 985.138 993.958 C 997.993 993.128 1006.82 993.316 1019.49 993.958 L 1019.49 1021 L 955.585 1021 L 955.585 862.792 z" fill="rgb(0,0,0)" transform="translate(0,0)"></path>
<path d="M 720.018 1088.02 C 732.308 1087.07 738.416 1087.19 750.852 1088.02 C 748.301 1102.98 743.886 1114.66 739.007 1129.01 L 724.285 1185.97 C 712.159 1186.59 698.215 1186.19 686.021 1185.97 C 675.18 1154.1 667.007 1120.4 656.987 1088.02 C 664.123 1087.8 671.226 1087.94 678.364 1088.02 C 681.447 1087.86 685.825 1088.01 689.023 1088.02 C 690.411 1095.06 703.708 1147.27 706.219 1148.97 C 711.295 1130.11 714.428 1108.56 720.018 1088.02 z" fill="rgb(0,0,0)" transform="translate(0,0)"></path>
<path d="M 1681.71 864.995 C 1691.54 865.106 1701.18 865.079 1711 864.995 L 1711 993.958 L 1742.33 993.958 C 1742.22 1003.03 1742.25 1011.93 1742.33 1021 L 1681.71 1021 C 1682.26 969.122 1679.74 916.809 1681.71 864.995 z" fill="rgb(0,0,0)" transform="translate(0,0)"></path>
<path d="M 762.024 1088.02 L 822.809 1088.02 C 822.213 1097.2 821.915 1103.84 822.809 1112.96 C 813.72 1112.75 804.128 1112.93 794.998 1112.96 L 794.998 1124.33 C 805.136 1123.97 812.581 1123.8 822.809 1124.33 C 820.707 1134.77 821.273 1138.83 822.809 1148.98 C 807.174 1149.5 792.655 1141.18 794.998 1161.49 C 803.034 1162.06 814.551 1161.65 822.809 1161.49 L 822.809 1185.97 L 762.024 1185.97 C 761.668 1153.49 761.985 1120.53 762.024 1088.02 z" fill="rgb(0,0,0)" transform="translate(0,0)"></path>
<path d="M 1127.91 1088.02 L 1163.03 1088.02 C 1165.17 1099.41 1165.02 1101.54 1163.03 1112.96 C 1157.48 1113.63 1142.01 1113.58 1138.75 1114.91 C 1132.87 1129.34 1155 1124.7 1163.03 1124.33 C 1163.98 1133.72 1163.66 1139.6 1163.03 1148.98 C 1155.03 1149.13 1146.41 1149.47 1138.49 1148.98 L 1138.49 1161.49 L 1158.25 1161.49 C 1172.6 1160.42 1167.33 1175.53 1167 1185.97 C 1149.11 1186.78 1125.84 1186.04 1107.54 1185.97 C 1106.29 1156.87 1107.51 1117.88 1107.54 1088.02 L 1127.91 1088.02 z" fill="rgb(0,0,0)" transform="translate(0,0)"></path>
<path d="M 1111.02 862.792 L 1141.48 862.792 L 1141.48 1021 C 1131.21 1021.22 1121.29 1021.12 1111.02 1021 L 1111.02 862.792 z" fill="rgb(0,0,0)" transform="translate(0,0)"></path>
<path d="M 335.49 1088.02 C 359.63 1084.58 381.039 1085.55 366.1 1112.96 C 358.692 1112.54 344.959 1110.85 339.231 1115.68 L 339.195 1117.44 C 346.51 1128.52 399.831 1136.58 368.86 1176.11 C 362.791 1183.86 354.66 1185.1 345.25 1185.97 C 327.337 1186.77 325.96 1187.34 309.038 1178.89 C 311.614 1169.55 314.541 1164.18 319.251 1155.9 C 326.756 1160 341.06 1166.87 347.831 1158.15 C 346.27 1146.56 315.939 1146.01 312.819 1131.28 C 308.099 1108.99 315.02 1095.29 335.49 1088.02 z" fill="rgb(0,0,0)" transform="translate(0,0)"></path>
<path d="M 536.204 1088.02 L 605.452 1088.02 L 605.452 1112.96 C 598.472 1113.34 592.972 1113.19 585.972 1112.96 L 585.972 1171.25 L 585.972 1185.97 C 575.167 1185.81 564.931 1185.78 554.116 1185.97 C 554.781 1162.49 554.185 1136.64 554.116 1112.96 C 548.134 1113.17 542.188 1113.04 536.204 1112.96 C 534.817 1103.32 535.197 1097.51 536.204 1088.02 z" fill="rgb(0,0,0)" transform="translate(0,0)"></path>
<path d="M 1035.6 1088.02 L 1067.84 1088.02 C 1067.07 1111.27 1067.77 1137.98 1067.84 1161.49 C 1077.3 1161.15 1084.56 1161.04 1093.99 1161.49 C 1093.96 1170.05 1095.3 1177.34 1093.99 1185.97 L 1035.6 1185.97 L 1035.6 1088.02 z" fill="rgb(0,0,0)" transform="translate(0,0)"></path>
<path d="M 616.04 1088.02 L 646.998 1088.02 L 647.136 1150.63 C 647.2 1160.54 647.782 1176.47 646.998 1185.97 C 635.944 1185.55 627.056 1185.66 616.04 1185.97 L 616.04 1088.02 z" fill="rgb(0,0,0)" transform="translate(0,0)"></path>
<path d="M 494.037 1088.02 L 524.999 1088.02 L 524.999 1185.97 C 513.397 1185.5 505.7 1185.34 494.037 1185.97 L 494.037 1088.02 z" fill="rgb(0,0,0)" transform="translate(0,0)"></path>
<path d="M 1464.14 1088.02 C 1473.68 1088.6 1483.7 1088.21 1493.29 1088.02 L 1493.29 1185.97 C 1483.56 1186.79 1473.89 1186.27 1464.14 1185.97 C 1463.58 1154.02 1464.1 1120.08 1464.14 1088.02 z" fill="rgb(0,0,0)" transform="translate(0,0)"></path>
<metadata><recraft-signature>{"signed_by": "recraft", "signature_b64": "5gVjSoC/u+q2SEqUrSBddeazBJDDB/Qc3hsnI192Xo2eNNhzsTHzkUsHR3kG0H51aiE0z8QyiyO63DyKA/qUAA==", "signing_algo": "Ed25519", "generation_timestamp": 1772998028, "identifier": "e65bf8b6-9ac8-48ab-907a-c13bc044d987"}</recraft-signature></metadata></svg>