<svg xmlns="http://www.w3.org/2000/svg" height="512" preserveAspectRatio="none" style="display: block;" version="1.1" viewBox="0 0 2048 2048" width="512">
<path d="M 492.5 320.925 C 592.576 316.993 604.515 353.189 631.226 441.846 L 775.362 896.991 L 1280.12 896.991 L 1280.07 475.67 C 1279.99 361.975 1294.82 320.759 1410.86 320.869 L 1536.74 320.848 C 1590.53 320.739 1653.53 337 1661.89 401.186 C 1665.68 430.256 1663.91 471.83 1663.87 502.512 L 1663.84 866.496 C 1663.82 909.136 1664.01 911.748 1677.86 952.204 L 1708.45 1039.68 C 1729.2 1098.03 1747.97 1156.91 1769.44 1215.3 C 1777.48 1239.59 1789.3 1259.67 1789.42 1284.84 L 1789.13 1466.5 C 1789.23 1595.67 1789.49 1663.97 1637.1 1664.03 L 514.827 1664.06 C 411.374 1663.77 383.964 1599.57 383.993 1511.9 L 384.107 431.56 C 384.508 364.616 423.983 319.992 492.5 320.925 z M 511.914 1537 L 1663.89 1537 C 1665.59 1534.4 1663.99 1511.37 1663.96 1506.16 L 1663.89 1408.82 L 641.093 1408.81 C 601.203 1408.81 553.89 1407.59 514.499 1408.82 L 512.005 1409.52 C 510.757 1413.31 511.806 1524.76 511.914 1537 z" fill="rgb(0,0,0)" transform="translate(0,0)"></path>
<metadata><recraft-signature>{"signed_by": "recraft", "signature_b64": "11DGRC9VxXKCXPeB25IdxjYogGn3TJ2wlx4SY/+Hz7siv+wbP6nlmAzBJ0JwxKJ7uOXGNV9ccXky2ueVLqhpAg==", "signing_algo": "Ed25519", "generation_timestamp": 1772996111, "identifier": "a9a9bd66-fcbd-49dc-b7d3-b237d287c8f2"}</recraft-signature></metadata></svg>