<svg xmlns="http://www.w3.org/2000/svg" height="512" preserveAspectRatio="none" style="display: block;" version="1.1" viewBox="0 0 2048 2048" width="512">
<path d="M 1205.34 303.771 L 1722.53 303.671 C 1738.47 303.664 1766.42 302.544 1781.04 303.771 C 1779.58 367.062 1781.03 436.85 1781.03 500.509 L 1781.25 1344.81 C 1781.05 1476.28 1779.67 1610.68 1781.04 1741.99 L 843.5 1741.99 L 267.912 1741.99 L 267.898 356.789 C 267.878 339.527 267.225 320.81 267.912 303.771 L 1205.34 303.771 z M 1127 1122.98 L 1126.98 1484.4 C 1126.98 1543.19 1125.56 1606.89 1127 1665 L 1185.63 1665 L 1703.66 1665 L 1703.66 1122.98 C 1685.96 1122.36 1667.45 1123.05 1649.66 1122.98 L 1301.55 1122.96 C 1243.83 1122.96 1184.5 1122.14 1127 1122.98 z M 345.956 381.995 L 345.956 904.027 L 909.213 904.027 L 909.224 555.931 C 909.226 499.233 910.553 438.123 909.213 381.995 C 843.079 381.247 775.286 381.997 709.063 381.995 L 345.956 381.995 z M 1127 904.027 L 1642.36 904.057 C 1658.8 904.077 1687.9 905.07 1703.66 904.027 L 1703.64 546.563 C 1703.64 493.16 1702.42 434.826 1703.66 381.995 L 1127 381.995 L 1127 904.027 z M 345.956 1122.98 L 345.923 1605.14 C 345.904 1622.63 344.983 1648.25 345.956 1665 L 859.079 1665.06 C 867.59 1665.07 902.946 1665.8 909.213 1665 L 909.213 1122.98 L 345.956 1122.98 z" fill="rgb(0,0,0)" transform="translate(0,0)"></path>
<metadata><recraft-signature>{"signed_by": "recraft", "signature_b64": "jZWloJiyXbQ4YgzzolnHkE34OTJpbgyaXA9fJE5m++Qaky6620cVO27zwkojDPiff+diM9xPteYvEu+ENgsMDg==", "signing_algo": "Ed25519", "generation_timestamp": 1772996249, "identifier": "e320f2f1-7f05-40ab-baf1-96fe94f35d89"}</recraft-signature></metadata></svg>