<svg xmlns="http://www.w3.org/2000/svg" height="512" preserveAspectRatio="none" style="display: block;" version="1.1" viewBox="0 0 2048 2048" width="512">
<path d="M 391.001 409.51 L 1767.1 409.51 C 1766.08 441.166 1767.09 479.481 1767.09 511.616 L 1767.08 1537.94 C 1767.08 1567.18 1768.57 1608.08 1767.1 1635.92 L 1657.5 1635.92 L 281.6 1635.92 L 281.6 409.51 C 317.467 410.108 354.997 409.523 391.001 409.51 z M 865.99 1571.49 L 1608.81 1571.5 C 1638.14 1571.5 1672.25 1572.42 1701.07 1571.49 C 1701.89 1569.65 1701.94 1570.13 1701.95 1568.47 L 1701.07 1112.99 L 865.99 1112.99 L 865.99 1571.49 z M 347.716 475.997 C 346.761 490.119 347.677 510.318 347.696 525.213 L 347.716 933.154 L 691.53 933.154 L 691.505 527.005 C 691.502 511.22 690.866 491.323 691.53 475.997 L 347.716 475.997 z M 865.99 933.154 L 1609.01 933.166 C 1638.86 933.167 1671.5 933.837 1701.07 933.154 L 1702.29 932.165 C 1699.24 883.548 1701.07 821.566 1701.08 771.618 L 1701.07 475.997 L 956.317 475.988 C 928.601 475.986 892.829 474.856 865.99 475.997 L 865.99 933.154 z M 347.716 1112.99 L 347.732 1417.74 C 347.735 1468.38 348.473 1520.97 347.716 1571.49 C 370.37 1570.89 394.85 1571.49 417.735 1571.5 L 645.3 1571.44 C 658.047 1571.4 679.68 1570.64 691.53 1571.49 L 691.53 1112.99 L 462.084 1112.97 C 425.938 1112.96 383.007 1111.75 347.716 1112.99 z" fill="rgb(0,0,0)" transform="translate(0,0)"></path>
<metadata><recraft-signature>{"signed_by": "recraft", "signature_b64": "ChHgy2ZjS0a7J8vYcaQ16fwEN33Cvyt+IU6g1nL+jEUTT29jSw377LRvkBVC/tVl2ZTf+ydGqPCliBmOMFc2Dg==", "signing_algo": "Ed25519", "generation_timestamp": 1772997080, "identifier": "b44fab66-278c-4721-9565-4de22ad584ef"}</recraft-signature></metadata></svg>