<svg xmlns="http://www.w3.org/2000/svg" height="512" preserveAspectRatio="none" style="display: block;" version="1.1" viewBox="0 0 2048 2048" width="512">
<path d="M 297.018 338.896 L 1753.94 338.896 L 1753.94 1636.32 C 1753.93 1653.87 1752.98 1669.89 1755.1 1687.32 L 1753.94 1688.49 L 297.018 1688.49 L 297.018 338.896 z M 806.998 1548.98 L 1613 1548.98 L 1613 1076.97 L 827.792 1076.83 C 822.288 1076.78 811.609 1077.24 806.998 1076.97 L 806.998 1548.98 z M 806.998 936.942 L 1613 936.942 L 1613 475.962 L 896.162 475.949 C 867.09 475.947 835.826 475.337 806.998 475.962 C 805.965 489.743 806.967 510.706 806.982 525.366 L 806.998 936.942 z M 436.988 475.962 L 436.966 887.619 C 436.961 902.839 436.197 922.264 436.988 936.942 L 666.055 936.942 L 666.055 475.962 L 510.781 475.94 C 492.815 475.932 453.774 474.68 436.988 475.962 z M 436.988 1076.97 L 436.975 1496.24 C 436.97 1511.78 436.234 1533.96 436.988 1548.98 L 486.501 1548.98 L 666.055 1548.98 L 666.055 1076.97 C 650.123 1076.5 634.406 1077.01 618.497 1076.97 L 436.988 1076.97 z" fill="rgb(0,0,0)" transform="translate(0,0)"></path>
<metadata><recraft-signature>{"signed_by": "recraft", "signature_b64": "nYCFVjrxkEqgUV9+0LP5iAN+6ZqCBe0mSTaASgUOLZn58Bk8KfhaMAGTtb09ntowPE18jsTj50q0L6iJOtobCA==", "signing_algo": "Ed25519", "generation_timestamp": 1772996895, "identifier": "b866d18f-d63d-49b2-a6f7-4337604fb2d4"}</recraft-signature></metadata></svg>