<svg xmlns="http://www.w3.org/2000/svg" height="512" preserveAspectRatio="none" style="display: block;" version="1.1" viewBox="0 0 2048 2048" width="512">
<path d="M 1185.02 658.634 L 1184.91 423.593 C 1184.76 376.807 1195.71 339.964 1250.87 339.978 L 1655.64 339.9 C 1734.96 339.646 1758.28 340.481 1758.09 433.893 L 1758.64 1645.87 C 1758.67 1694.26 1713.01 1702.29 1674.5 1702 L 1280.97 1702.07 C 1267.24 1702.1 1249.83 1702.91 1236.45 1701.34 C 1171.63 1693.7 1185 1607.83 1185 1561.55 L 1185.02 1385.82 L 417.001 1385.82 L 417.001 1702 C 384.994 1699.17 320.024 1699.39 287.098 1702 C 288.147 1682.66 287.239 1665.82 287.144 1646.56 L 287.098 339.992 L 376.75 339.992 L 417.001 339.992 C 417.704 348.283 417.121 365.471 417.088 374.557 L 417.001 658.634 L 1185.02 658.634 z M 417.001 1256.48 L 1185.02 1256.48 L 1185.04 945.501 C 1185.04 894.798 1186.23 840.165 1185.02 789.999 L 417.001 789.999 L 417.001 1256.48 z M 1314.49 918.035 L 1314.49 1124.52 C 1419.17 1125.59 1526.14 1124.51 1631.02 1124.52 L 1631.02 918.035 L 1423.6 918.033 C 1388.72 918.032 1349.01 919.036 1314.49 918.035 z M 1631.02 467.892 L 1348.98 467.859 C 1338.14 467.844 1325.05 467.143 1314.49 467.892 C 1313.37 474.408 1314.22 491.967 1314.32 499.489 L 1314.49 789.999 C 1327.63 788.774 1340.86 789.88 1354.1 789.934 L 1631.02 789.999 L 1632.24 788.737 C 1629.97 748.345 1630.99 705.197 1631 664.429 L 1631.02 467.892 z M 1631.02 1577 L 1631.02 1256.48 L 1347.2 1256.38 C 1338.63 1256.34 1322.45 1255.58 1314.49 1256.48 C 1313.9 1291.88 1314.48 1328.91 1314.49 1364.45 L 1314.49 1577 L 1631.02 1577 z" fill="rgb(0,0,0)" transform="translate(0,0)"></path>
<metadata><recraft-signature>{"signed_by": "recraft", "signature_b64": "1WafsObZi2poGF4c8Yc8fdD/6u2RG/2FCBbYrKqHG1gC/irUHU1eVlvOjlhJVgos/ClsrjXJGljmOyXYAe+dBg==", "signing_algo": "Ed25519", "generation_timestamp": 1772996691, "identifier": "7d6443b5-beff-4108-8cef-afc7ae077a14"}</recraft-signature></metadata></svg>