<svg xmlns="http://www.w3.org/2000/svg" height="512" preserveAspectRatio="none" style="display: block;" version="1.1" viewBox="0 0 2048 2048" width="512">
<path d="M 382.166 350.35 C 393.844 349.298 425.14 350.295 438.099 350.325 L 1575.81 350.34 C 1636.4 350.248 1702.4 337.926 1737 401.494 C 1750.67 426.607 1748.06 458.521 1748.03 486.279 L 1748.02 1521.48 C 1748.02 1591.9 1761.24 1680.24 1666.75 1695.99 C 1647.79 1697.21 1614.99 1696.02 1594.99 1696.01 L 460.689 1695.99 C 333.442 1696.23 301.825 1687.38 302.064 1550.35 L 302.043 503.229 C 302.102 439.356 292.518 358.634 382.166 350.35 z M 490.295 1509 L 1555.01 1509 L 1555.01 1226.68 L 1555.01 537.553 L 815.812 537.553 C 896.164 577.429 885.374 689.709 801.133 716.643 C 689.602 752.303 620.636 592.015 723.925 537.553 L 568.49 537.529 C 544.888 537.523 513.308 536.55 490.295 537.553 C 490.931 558.966 490.335 580.099 490.302 601.499 L 490.322 1459.84 C 490.331 1475.53 490.967 1493.64 490.295 1509 z" fill="rgb(0,0,0)" transform="translate(0,0)"></path>
<metadata><recraft-signature>{"signed_by": "recraft", "signature_b64": "bYrcJckKnHuyHEMwrHFB8gtcqWkYmhEdk7so/9fsrgztttX+oheFTlQT87dnNvu7D98XQKlduT/SU6GxS32VDA==", "signing_algo": "Ed25519", "generation_timestamp": 1772990388, "identifier": "f0595931-cb84-4f79-a099-cdc9be56edc1"}</recraft-signature></metadata></svg>