<svg xmlns="http://www.w3.org/2000/svg" height="512" preserveAspectRatio="none" style="display: block;" version="1.1" viewBox="0 0 2048 2048" width="512">
<path d="M 291.004 548.332 C 302.947 549.211 327.443 548.406 340.301 548.393 L 1756.04 548.332 L 1756.04 1496.99 L 1755.5 1498.23 C 1717.69 1499.77 1672.78 1496.98 1633.83 1496.99 L 291.004 1496.99 C 291.679 1474.65 291.026 1449.19 291.019 1426.58 L 290.997 630.043 C 290.993 603.611 290.31 574.545 291.004 548.332 z M 732.965 1082.64 C 731.989 1109.57 733.007 1142.21 732.947 1169.6 L 732.965 1379.4 L 1590.5 1379.4 L 1634.01 1379.4 L 1634.01 1082.64 C 1604.51 1081.67 1569.82 1082.64 1539.75 1082.65 L 776.923 1082.64 L 732.965 1082.64 z M 732.965 961.002 L 1634.01 961.002 L 1634.01 666.009 L 834.564 665.993 C 801.19 665.992 766.194 665.461 732.965 666.009 L 732.948 862.787 C 732.944 894.558 732.103 929.627 732.965 961.002 z M 414.998 666.009 L 414.998 961.002 C 478.728 961.802 547.328 961.69 611.023 961.002 L 611.023 666.009 C 548.52 664.688 477.965 665.707 414.998 666.009 z M 414.998 1082.64 L 414.998 1379.4 L 596.5 1379.4 L 611.023 1379.4 L 611.023 1082.64 L 431.477 1082.64 C 425.978 1082.57 420.496 1082.45 414.998 1082.64 z" fill="rgb(0,0,0)" transform="translate(0,0)"></path>
<metadata><recraft-signature>{"signed_by": "recraft", "signature_b64": "nNIbIzR4nZutHqIKCHrEDRb8iyKwzjvlBVTi4+GgTfArhlnrtKPguKBA7XU7nTXlzu9dlGcP0eLQ1Sb1SdRhDA==", "signing_algo": "Ed25519", "generation_timestamp": 1772996609, "identifier": "d3ecfc00-8b3d-4015-9f9e-815c4e9021cd"}</recraft-signature></metadata></svg>