<svg xmlns="http://www.w3.org/2000/svg" height="512" preserveAspectRatio="none" style="display: block;" version="1.1" viewBox="0 0 2048 2048" width="512">
<path d="M 1514.62 428.918 C 1529.59 433.688 1533.61 469.119 1539.91 483.019 C 1579.36 379.704 1604.61 470.711 1603.98 529.573 C 1639.3 541.974 1674.61 581.091 1687.26 616.092 C 1699.95 624.287 1784.87 676.618 1787.56 681.919 C 1794.99 696.6 1772.65 725.208 1764.47 735.705 C 1713.15 801.525 1651.56 748.509 1603.52 769.946 C 1568.34 785.65 1556.29 843.979 1546.92 877.778 C 1529.11 942.055 1500.44 1003.13 1462.22 1057.8 C 1450.44 1074.65 1433.77 1090.43 1426.24 1109.61 C 1390.91 1199.7 1372.95 1343.4 1368.23 1437.84 C 1362.03 1562.13 1404.02 1499.19 1427.28 1556.34 C 1433.41 1571.4 1434.31 1600.22 1415.19 1606.57 C 1402.89 1610.67 1330.33 1610.24 1315.18 1608.67 C 1300.23 1607.12 1295.69 1602.51 1287.48 1590.29 C 1246.38 1529.1 1233.06 1517.7 1232.94 1449.99 C 1232.79 1368.74 1225.32 1286.04 1209.75 1206.39 C 1223.92 1205.21 1229.32 1204.63 1243.4 1206.39 C 1268.71 1283 1266.84 1406.22 1266.78 1487.2 C 1283.73 1515.28 1301.71 1548.08 1318.79 1574.96 L 1381.61 1574.96 C 1365.35 1559.54 1354.83 1557.89 1333.39 1554.42 C 1306.89 1516.11 1290.67 1492.09 1290.92 1446.41 C 1291.63 1321.63 1288.73 1182.69 1216.97 1075.35 C 1196.74 1045.09 1182.29 1069.03 1187.43 1076.77 C 1209.63 1110.21 1226.75 1140.27 1235.89 1180.02 C 1221.41 1178.69 1204.29 1179.55 1189.69 1179.99 C 1062.51 1183.82 943.128 1136.2 827.461 1089.04 C 771.958 1066.41 784.891 1078.73 771.409 1128.26 C 720.943 1284.77 612.637 1301.61 576.051 1387.72 C 565.855 1411.71 571.46 1493.17 587.724 1514.57 C 607.409 1529.87 624.292 1528.74 635.216 1556.15 C 638.957 1565.53 644.599 1603.8 627.204 1604.78 C 534.908 1609.95 521.831 1615.02 499.193 1520.72 C 489.55 1480.55 467.096 1382.12 486.027 1346.14 C 495.667 1329.28 511.816 1318.41 522.021 1301.61 C 617.413 1144.62 455.389 1063.75 578.143 866.133 C 504.345 908.454 487.705 1018.93 515.801 1093.2 C 496.376 1170.91 460.561 1242.96 384.324 1279.49 C 364.903 1288.8 282.164 1321.78 267.219 1289.39 C 254.085 1260.92 279.028 1253.9 295.752 1234.53 C 425.305 1085.7 380.025 877.491 582.455 806.89 C 683.451 771.665 669.592 766.607 776.576 768.737 L 992.238 773.5 C 1140.77 776.514 1136.87 785.141 1260.68 681.29 L 1373 588.114 C 1396.56 568.634 1427.68 542.109 1455.12 529.573 C 1467.1 492.952 1474.89 448.592 1514.62 428.918 z M 1539.91 573.91 C 1504.6 648.794 1491.68 699.322 1539.91 778.158 C 1573.44 732.67 1612.2 717.078 1669.65 733.021 L 1670.59 732.953 C 1705.9 730.659 1725.98 739.064 1744.91 698.103 C 1719.3 677.83 1687.95 663.155 1662.47 642.91 C 1652.83 635.259 1649.95 610.896 1640.79 601.121 C 1628.58 585.928 1543.2 529.492 1519.73 519.539 C 1525.87 535.961 1534.94 557.706 1539.91 573.91 z" fill="rgb(1,1,1)" transform="translate(0,0)"></path>
<path d="M 804.157 1108.83 C 814.178 1112.32 877.586 1131.09 853.835 1145.56 C 848.036 1149.1 838.608 1144.28 832.492 1141.98 C 811.957 1200.43 791.572 1248.91 749.118 1295.91 C 707.051 1342.48 681.878 1341.89 691.319 1417.98 C 703.412 1547.98 766.549 1496.13 773.619 1564.93 C 776.22 1590.24 764.98 1592.03 741.75 1592.53 C 709.168 1590.65 672.408 1602.76 653.529 1567.91 C 635.004 1533.7 597.616 1432.73 603.312 1395.63 C 607.471 1368.54 690.784 1307.49 710.444 1285.43 C 755.271 1238.47 789.036 1171.78 804.157 1108.83 z" fill="rgb(1,1,1)" transform="translate(0,0)"></path>
<metadata><recraft-signature>{"signed_by": "recraft", "signature_b64": "ejnkJ0pUotrZIqwaU9KO7ozvgBNvphtx52qPvA8NaqGVemexg+nopsTY8g6KWSBIl+7Gco0x3qgsoBzhf40LBA==", "signing_algo": "Ed25519", "generation_timestamp": 1772997304, "identifier": "31d1da0c-b597-4f7c-97ef-3727f79c6ac9"}</recraft-signature></metadata></svg>