<svg xmlns="http://www.w3.org/2000/svg" height="512" preserveAspectRatio="none" style="display: block;" version="1.1" viewBox="0 0 2048 2048" width="512">
<path d="M 1632.4 386.335 C 1662.83 379.923 1675.06 423.805 1705.54 421.341 C 1728.87 419.455 1732.93 394.152 1764.48 386.335 C 1800.64 395.361 1796.79 425.367 1797.82 455.99 C 1799.77 513.935 1830.97 504.667 1843.83 538.635 C 1852.96 562.739 1832.7 575.58 1831.11 600.015 C 1827.84 650.365 1853.21 703.839 1830.97 752.642 C 1814.9 787.921 1780.04 764.77 1751.67 775.625 C 1713.4 790.273 1717.47 843.543 1733.95 873.212 C 1787.08 968.855 1724.6 939.074 1699.75 1000.44 C 1680.52 1047.93 1746.29 1096.78 1687.56 1114.43 C 1669.97 1108.39 1646.9 1090.76 1632.94 1113.52 C 1619.14 1136.02 1619.32 1179.66 1606.9 1207.21 C 1586.63 1252.15 1545.07 1246.16 1535.08 1268.29 C 1517.06 1308.21 1526.2 1370.8 1504.43 1410.08 C 1483.77 1447.35 1437.94 1426.06 1405.12 1436.18 C 1374.53 1445.62 1360.49 1481.42 1337.71 1501.54 C 1328.41 1509.75 1315.47 1512.89 1308.05 1523.46 C 1274.16 1571.76 1306.12 1595.15 1226.99 1599.14 C 1117.13 1604.68 1119.43 1654.28 1081.63 1664.34 C 1065.96 1668.5 1020.68 1637.38 1015.44 1625.72 C 1009.13 1611.67 1016.51 1595.71 1012.06 1581.4 C 1006.08 1562.15 978.649 1560.31 962.958 1552.16 C 923.618 1531.73 864.182 1363.28 846.047 1305.24 L 914.314 1305.24 L 914.314 1114.43 C 938.742 1115.3 968.96 1114.46 993.83 1114.45 L 1154.57 1114.43 L 1154.57 1006.01 L 914.314 1006.01 L 914.314 991.014 L 914.314 824.107 C 903.56 824.896 889.53 824.281 878.458 824.228 L 814.087 824.107 C 814.76 884.249 814.102 945.756 814.087 1006.01 C 801.453 1007.23 763.696 1006.06 748.6 1006.05 L 631.509 1006 C 611.947 1005.99 590.713 1005.43 571.316 1006.01 C 572.155 1041.92 597.783 1063.83 566.731 1073.74 C 537.604 1068.04 528.842 1054.49 504.011 1041.68 C 467.52 1022.86 452.666 1064.44 426.027 1072.95 C 378.736 1088.05 381.598 999.553 334.464 974.712 C 318.356 966.222 309.336 973.629 294.562 978.175 C 265.77 987.035 206.573 950.716 199.607 921.561 C 193.836 897.407 210.078 873.625 210.956 848.277 C 212.188 812.676 193.298 786.992 200.413 750.38 C 205.406 724.683 217.894 698.672 245.949 692.023 C 295.141 680.366 286.431 727.739 315.412 744.611 C 333.797 755.315 351.573 744.954 367.502 743.158 C 381.535 741.577 401.152 755.582 419.751 751.131 C 449.556 743.998 465.7 714.807 496.76 712.839 C 531.172 710.659 549.538 751.798 619.166 741.525 C 640.508 738.376 655.828 724.081 676.238 718.828 C 685.161 716.532 784.411 717.612 792.532 720.492 C 814.119 728.147 824.641 739.467 849.868 739.465 C 877.819 739.463 901.241 721.617 928.146 736.366 C 961.497 754.648 1001.63 857.184 1073.53 824.629 C 1110.8 807.757 1115.3 805.087 1152.79 828.243 C 1219.34 869.356 1253.27 796.283 1295.48 785.42 C 1314.57 790.67 1334.21 808.167 1354.42 798.143 C 1393.72 778.649 1376.11 746.263 1387.02 715.943 C 1395.12 693.412 1421 696.916 1436.37 690.26 C 1476.35 672.94 1438.8 611.018 1455.88 572.528 C 1473.35 533.168 1511.2 561.375 1542.27 546.837 C 1640.35 502.326 1575.15 408.418 1632.4 386.335 z" fill="rgb(0,0,0)" transform="translate(0,0)"></path>
<path d="M 778 1114.43 L 814.087 1114.43 C 814.063 1157.15 812.871 1208.04 814.087 1250.12 C 796.062 1229.02 787.457 1214.55 760.543 1201.97 L 759.465 1201.56 C 735.15 1192.63 698.144 1193.27 694.423 1159.16 C 690.776 1125.73 690.968 1138.81 676.034 1114.43 L 778 1114.43 z" fill="rgb(0,0,0)" transform="translate(0,0)"></path>
<metadata><recraft-signature>{"signed_by": "recraft", "signature_b64": "oGYdpWqb7+lj/3E69PLjmxkI5hVBnQn6m4sNTAlnPrK6H/0tOzS00unww2PB9bwbYacr1n8th0O5jfJbg1E4CA==", "signing_algo": "Ed25519", "generation_timestamp": 1772995804, "identifier": "b60cd686-0a5a-4568-bf9d-95cf8ed050dc"}</recraft-signature></metadata></svg>