<svg xmlns="http://www.w3.org/2000/svg" height="512" preserveAspectRatio="none" style="display: block;" version="1.1" viewBox="0 0 2048 2048" width="512">
<path d="M 416.481 293.932 C 507.814 293 600.943 293.928 692.427 293.929 L 1587.2 293.867 C 1728.39 293.632 1751.17 349.079 1750.99 479.795 L 1751.05 1571.81 C 1751.09 1662.73 1742.01 1741.74 1630.89 1752 L 462.582 1752.03 C 331.572 1752.01 299.514 1706.6 299.469 1577.02 L 299.471 483.545 C 299.399 396.297 300.47 309.29 416.481 293.932 z M 422.991 1629.78 L 1618.25 1629.78 C 1629.09 1626.97 1624.03 1488.22 1624.03 1468.24 L 1624.04 413.214 L 428.3 413.214 C 424.5 413.583 424.242 412.899 422.253 415.003 C 423.419 473.781 423 532.254 422.991 591.041 L 422.991 1629.78 z" fill="rgb(0,0,0)" transform="translate(0,0)"></path>
<path d="M 1387.87 541.244 C 1428.85 537.055 1472.05 584.241 1452.65 621.991 C 1429.88 666.285 1404.71 713.309 1380.77 756.8 L 1315.14 877.113 C 1300.49 904.4 1285.29 934.155 1269.92 960.819 C 1297.26 1012.78 1325.39 1063.08 1353.4 1114.51 L 1486.47 1359.3 C 1496.76 1377.59 1508.34 1396.87 1516.8 1416.04 C 1536.8 1462.79 1491.27 1510.23 1442.36 1497.02 C 1407.91 1487.72 1396.55 1451.3 1381.17 1422.71 L 1334.86 1337.72 C 1290.99 1255.91 1245.04 1173.26 1199.47 1092.4 C 1170.25 1150.8 1133.17 1221.48 1098.88 1277.03 C 1117.67 1304.96 1142.6 1352.61 1158.37 1383.34 C 1170.55 1407.08 1185.42 1421.58 1179.14 1450.04 C 1167.94 1503.31 1098.57 1517.29 1066.65 1474.05 C 1050.4 1452.03 1038.89 1424.88 1024.45 1401.59 C 1011.19 1422.76 1000.79 1444.57 988.314 1465.91 C 944.5 1540.81 838.729 1480.85 878.5 1403.78 C 899.222 1363.62 926.118 1315.23 949.535 1277.03 C 913.963 1215.7 882.194 1153.37 846.544 1092.4 C 831.741 1123.15 817.644 1146.93 802.558 1176.36 C 753.114 1263.4 704.491 1354.24 657.725 1443.06 C 645.781 1465.74 636.186 1489.64 608.99 1497.31 C 574.436 1507.05 540.214 1487.07 530.566 1452.6 C 519.444 1412.87 593.864 1301.77 614.897 1263.15 L 712.201 1084.41 C 734.184 1043.34 755.284 1001.3 778.321 960.819 C 735.261 871.127 679.651 778.749 632.794 690.11 C 622.262 669.114 607.48 648.957 598.572 627.264 C 580.356 582.9 616.551 536.627 664.172 544.47 C 698.922 550.193 706.218 575.521 721.166 602.384 C 801.321 746.434 877.389 892.784 958.216 1036.5 C 977.797 1071.34 1000.57 1123.01 1023.47 1154.41 L 1024.45 1155.74 C 1052.52 1108.38 1078.74 1057.22 1105.26 1008.85 L 1320.14 615.939 C 1338.82 581.722 1346.84 548.961 1387.87 541.244 z" fill="rgb(0,0,0)" transform="translate(0,0)"></path>
<metadata><recraft-signature>{"signed_by": "recraft", "signature_b64": "vM0PNPurZZe5DllU3Nt+1mufb11tNMaQ/NGwjydv8pMWBZxAEHCaUCk/yDGyEo3IV//1zEthacOqB2d5CovVAg==", "signing_algo": "Ed25519", "generation_timestamp": 1772989420, "identifier": "70dcf75b-beb7-45b2-b9db-5cce868f0a27"}</recraft-signature></metadata></svg>