<svg xmlns="http://www.w3.org/2000/svg" height="512" preserveAspectRatio="none" style="display: block;" version="1.1" viewBox="0 0 2048 2048" width="512">
<path d="M 411.874 353.001 C 412.178 352.971 412.481 352.941 412.785 352.911 L 1581.72 352.927 C 1638.51 352.908 1690.63 350.877 1692.39 424.613 C 1693.87 486.807 1691.95 549.694 1692.4 611.766 L 1692.83 1580.94 C 1692.97 1615.17 1698.82 1646.06 1673.61 1673.07 C 1635.92 1713.44 1568.77 1692.24 1561.61 1637.54 C 1560.14 1626.32 1560.98 1611.12 1560.98 1599.43 L 1561 560.521 L 1561 481.974 L 487.018 481.974 L 487.077 1592.53 C 487.303 1616.92 491.662 1640.72 478.418 1662.28 C 448.442 1711.09 371.186 1700.06 358.638 1643.27 C 354.802 1625.91 356.076 1606.33 356.093 1588.52 L 356.153 525.556 C 356.128 464.59 336.966 369.482 411.874 353.001 z" fill="rgb(0,0,0)" transform="translate(0,0)"></path>
<path d="M 1281 1565.69 C 1317.37 1565.92 1351.06 1557.88 1379.15 1584.56 C 1417.6 1621.09 1394.11 1687.34 1342.26 1692.86 C 1322.05 1695.01 1300.14 1693.97 1279.8 1693.96 L 766.25 1693.92 L 729.338 1694.05 C 608.336 1694.31 637.96 1571.88 702.949 1566.78 C 723.965 1565.13 745.122 1565.68 766.318 1565.68 L 1281 1565.69 z" fill="rgb(0,0,0)" transform="translate(0,0)"></path>
<metadata><recraft-signature>{"signed_by": "recraft", "signature_b64": "0vQMxa+IDklWICiiaY/9jayCD8LFq3Brg5AA0MeHWMTud+Ntb4B1tHcE4zeAHAxSXCFNnsUDjyrcDbxFMF8MDQ==", "signing_algo": "Ed25519", "generation_timestamp": 1772997880, "identifier": "6710b327-3c82-458e-b380-60525d0a310c"}</recraft-signature></metadata></svg>