<svg xmlns="http://www.w3.org/2000/svg" height="512" preserveAspectRatio="none" style="display: block;" version="1.1" viewBox="0 0 2048 2048" width="512">
<path d="M 1139.49 264.499 C 1322.6 261.168 1451.54 433.063 1394.74 605.194 C 1492.92 605.456 1605.6 584.484 1678.25 659.97 C 1729.17 712.878 1721.99 768.893 1721.97 835.255 L 1721.97 1590.9 C 1721.18 1668.3 1655.83 1744.28 1577.71 1752.45 C 1546.25 1755.74 1510.17 1754.09 1478.25 1754.06 L 827.105 1754.06 C 807.904 1754.07 786.959 1754.67 768.009 1754.05 C 766.599 1721.21 765.149 1665.21 768.009 1632 L 1497.7 1631.27 C 1591.67 1630.14 1603.09 1633.52 1603.06 1532.09 L 1603.02 1121.5 L 1603.07 809.981 C 1603.05 709.553 1561.01 725.994 1481.27 726.02 L 1298.25 725.997 C 1260.37 725.67 1235.63 712.245 1225.47 673.312 C 1215.19 632.994 1251.17 617.634 1268.82 588.934 C 1326.08 495.802 1249.74 383.504 1146.1 384.067 C 1022.36 384.739 964.246 545.459 1060.26 622.744 C 1095.14 650.813 1074.51 710.569 1034.26 721.236 C 1006.2 728.672 965.321 726.049 935.504 726.011 L 530.239 725.886 C 429.225 725.586 441.873 773.08 442.065 860.018 L 442.061 1020.99 L 320.549 1020.99 C 320.389 1018.17 320.267 1015.42 320.251 1012.6 L 320.525 865.25 C 320.524 789.497 310.367 718.66 370.034 660.863 C 425.613 607.025 472.618 605.214 543.365 605.195 L 902.052 605.194 C 851.524 436.807 960.457 270.774 1139.49 264.499 z" fill="rgb(0,0,0)" transform="translate(0,0)"></path>
<path d="M 560.697 1030.24 C 734.369 1022.75 881.279 1157.36 888.958 1331.03 C 896.638 1504.69 762.183 1651.74 588.528 1659.61 C 414.607 1667.49 267.276 1532.79 259.585 1358.86 C 251.894 1184.93 386.759 1037.74 560.697 1030.24 z M 581.505 1536.81 C 688.31 1532.79 771.656 1442.98 767.711 1336.18 C 763.766 1229.37 674.022 1145.96 567.211 1149.83 C 460.295 1153.71 376.785 1243.56 380.735 1350.47 C 384.684 1457.38 474.594 1540.83 581.505 1536.81 z" fill="rgb(0,0,0)" transform="translate(0,0)"></path>
<metadata><recraft-signature>{"signed_by": "recraft", "signature_b64": "tFQBQYFmgj/45JfXxCL9h+noisRTgxTLqW7CpREv+N/wYU78xKBFVg1rFuFh5084mHa7uR4+7M8Zj3oi+rJzCw==", "signing_algo": "Ed25519", "generation_timestamp": 1772989742, "identifier": "7247dcc7-3ce0-4428-a3cd-f320f8ba81c0"}</recraft-signature></metadata></svg>