<svg xmlns="http://www.w3.org/2000/svg" height="512" preserveAspectRatio="none" style="display: block;" version="1.1" viewBox="0 0 2048 2048" width="512">
<path d="M 996.363 255.344 C 1420.99 240.253 1777.4 572.325 1792.34 996.952 C 1807.28 1421.58 1475.09 1777.88 1050.45 1792.67 C 626.034 1807.45 269.952 1475.46 255.019 1051.04 C 240.087 626.628 571.955 270.428 996.363 255.344 z M 1058.51 1663.15 C 1412.14 1644.8 1683.91 1343.21 1665.49 989.594 C 1647.07 635.973 1345.43 364.262 991.812 382.754 C 638.295 401.24 366.677 702.773 385.094 1056.29 C 403.51 1409.81 704.988 1681.49 1058.51 1663.15 z" fill="rgb(0,0,0)" transform="translate(0,0)"></path>
<path d="M 1469.8 639.275 C 1501.54 635.271 1540.11 664.173 1537.35 695.455 C 1511.35 991.153 1297.72 1230.18 1096.13 1430.16 C 1085.14 1441.07 1074.15 1462.28 1059.41 1469.4 C 1027.69 1484.71 990.808 1473.28 974.405 1441.43 C 887.876 1273.44 792.815 1109.9 690.125 951.279 C 654.271 896.189 615.772 842.504 576.266 790.03 C 529.784 728.506 621.11 650.131 673.017 704.398 C 684.312 716.138 693.486 730.132 702.911 743.411 C 800.477 880.878 880.246 1014.79 968.185 1156.19 C 975.076 1130.82 979.979 1105.44 987.512 1079.99 C 1052.95 858.877 1238.94 677.111 1469.8 639.275 z M 1090.52 1250.31 C 1199.27 1150.41 1348.58 938.54 1383.51 803.963 C 1383.78 802.919 1383.4 802.752 1382.8 802.054 C 1212.41 890.771 1091.35 1050.71 1089.37 1248.91 L 1090.52 1250.31 z" fill="rgb(0,0,0)" transform="translate(0,0)"></path>
<metadata><recraft-signature>{"signed_by": "recraft", "signature_b64": "FLuw42QnVuuixDlu6SwafADG9+QD3Bu0RRUs7vDFGboObY/Qn4uyPwp6dRgLpSgafzzj/O1jB/w4a+jBpqogAw==", "signing_algo": "Ed25519", "generation_timestamp": 1772999072, "identifier": "675fb59a-16af-455e-8abe-614a5ae8658b"}</recraft-signature></metadata></svg>