<svg xmlns="http://www.w3.org/2000/svg" height="512" preserveAspectRatio="none" style="display: block;" version="1.1" viewBox="0 0 2048 2048" width="512">
<path d="M 268.484 521.001 L 1779.53 521.001 C 1780.4 562.089 1779.54 606.873 1779.54 648.218 L 1779.53 1508 C 1769.83 1508.92 1744.29 1508.07 1733.17 1508.06 L 268.484 1508 L 268.484 521.001 z M 369.994 1405 L 931.015 1405 L 931.015 1101.07 L 369.994 1101.07 L 369.994 1405 z M 1119 621.998 L 1119 918.943 C 1162.58 919.608 1207.95 918.942 1251.68 918.941 L 1624.01 918.907 C 1638.79 918.881 1664.34 918.023 1678.59 918.943 L 1678.59 621.998 L 1176.45 621.96 C 1161.96 621.944 1131.88 620.89 1119 621.998 z M 369.994 621.998 L 369.994 918.943 L 931.015 918.943 C 931.944 917.22 931.013 646.538 931.015 621.998 C 871.497 623.541 804.486 622.006 744.204 622.003 L 369.994 621.998 z M 1119 1405 L 1674.79 1405 L 1677.85 1405.17 C 1679.87 1401.25 1678.59 1130.69 1678.59 1101.07 C 1659.16 1101.8 1636.2 1101.1 1616.47 1101.09 L 1126.52 1101.07 C 1113.27 1102.98 1118.98 1120.99 1118.98 1135.46 L 1119 1405 z" fill="rgb(0,0,0)" transform="translate(0,0)"></path>
<metadata><recraft-signature>{"signed_by": "recraft", "signature_b64": "DKh7cqD73xG/1x2W4F0kEhiLOHcVM0nhLjPzDjXLGvhKeUD36K2Y+NW6qUIL60KB59PqZ0UyH48OhCpSw0jnDA==", "signing_algo": "Ed25519", "generation_timestamp": 1772995842, "identifier": "36aeea62-3ca9-4953-93c6-405f1dab4055"}</recraft-signature></metadata></svg>