<svg xmlns="http://www.w3.org/2000/svg" height="512" preserveAspectRatio="none" style="display: block;" version="1.1" viewBox="0 0 2048 2048" width="512">
<path d="M 546.928 255.583 C 714.431 249.54 854.95 380.774 860.357 548.298 C 865.763 715.822 733.996 855.842 566.453 860.612 C 399.807 865.356 260.7 734.449 255.323 567.823 C 249.946 401.196 380.323 261.593 546.928 255.583 z M 572.541 699.45 C 650.532 692.276 708.015 623.349 701.065 545.337 C 694.114 467.326 625.351 409.646 547.32 416.374 C 468.973 423.128 411.009 492.231 417.987 570.558 C 424.966 648.886 494.233 706.652 572.541 699.45 z" fill="rgb(0,0,0)" transform="translate(0,0)"></path>
<path d="M 1247.77 794.99 C 1264.08 793.842 1283.37 795.024 1299.55 796.863 C 1783.88 851.905 1969.6 1458 1582 1764.24 C 1567.97 1775.33 1554.28 1786.86 1536.75 1791.3 L 1535.99 1791.45 C 1492.18 1799.67 1453.49 1771.89 1443.1 1729.26 C 1428.61 1669.86 1483.72 1644.41 1518.66 1608.91 C 1744.83 1378.35 1600.11 991.886 1288.02 954.913 C 1263.34 951.989 1239.44 953.111 1217.23 939.599 C 1158.91 904.482 1170.51 812.997 1247.77 794.99 z" fill="rgb(0,0,0)" transform="translate(0,0)"></path>
<path d="M 1093.86 1029 C 1135.58 1024.46 1154.1 1045.65 1180.88 1072.13 L 1226.82 1118.17 C 1254.31 1145.96 1279.56 1168.24 1301.68 1201.21 C 1383.31 1322.91 1352.96 1444.18 1256.37 1540.05 L 1206.29 1589.68 C 1177.9 1617.75 1151.83 1653.55 1111.77 1664 C 1050.59 1679.06 988.838 1595.23 1038.91 1534.24 C 1047.14 1524.22 1057.02 1515.08 1066.17 1505.89 L 1123.36 1448.45 C 1163.41 1408.78 1219.22 1352.1 1167.97 1291.86 C 1135.75 1253.99 1030.24 1167.36 1023.43 1124.82 C 1015.26 1073.77 1044.51 1038.17 1093.86 1029 z" fill="rgb(0,0,0)" transform="translate(0,0)"></path>
<path d="M 325.245 1277.99 C 334.743 1277.43 349.917 1277.93 359.736 1277.93 L 427.392 1277.92 C 454.44 1277.92 483.291 1277.22 510.276 1278.89 C 595.204 1290.89 598.895 1423.27 508.82 1437.91 C 470.443 1439.58 355.741 1442.16 321.192 1436.04 C 236.217 1420.97 234.067 1290.49 325.245 1277.99 z" fill="rgb(0,0,0)" transform="translate(0,0)"></path>
<path d="M 775.125 1277.99 C 811.157 1278 872.402 1270.24 900.799 1292.04 C 956.787 1335.03 937.801 1427.46 864.25 1437.91 C 826.058 1437.81 761.254 1445.96 732.15 1420.44 C 681.459 1375.99 701.927 1283.39 775.125 1277.99 z" fill="rgb(0,0,0)" transform="translate(0,0)"></path>
<metadata><recraft-signature>{"signed_by": "recraft", "signature_b64": "0DM2ORQ6i7jk4jKEZM6UwKAEP4cxv/gQX8pkW54Ninw95TC1B1ss2Y3FOwl86Qwv25jIs3Ls1EJX7ykTTceADw==", "signing_algo": "Ed25519", "generation_timestamp": 1772989137, "identifier": "953a2dae-2211-4f34-90cf-9e022542e4eb"}</recraft-signature></metadata></svg>