<svg xmlns="http://www.w3.org/2000/svg" height="512" preserveAspectRatio="none" style="display: block;" version="1.1" viewBox="0 0 2048 2048" width="512">
<path d="M 469.676 280.165 L 1476.41 280.169 C 1558.13 280.178 1637.27 269.773 1702.65 330.054 C 1774.24 396.047 1765.87 465.111 1765.8 551.834 L 1765.84 1528.44 C 1765.85 1653.1 1718.74 1757.08 1574.75 1763.62 C 1552.91 1764.69 1520.82 1763.67 1498.32 1763.65 L 512.624 1763.7 C 489.685 1763.72 466.371 1764.36 443.689 1761.05 C 357.855 1748.56 287.772 1673.12 285.298 1585.77 C 284.504 1557.71 284.927 1529.41 284.941 1501.32 L 284.878 492.164 C 284.87 485.848 285.143 478.704 284.836 472.506 C 279.486 364.457 365.814 285.877 469.676 280.165 z M 1574.75 1634 C 1646.9 1608.45 1632.21 1550.59 1632.2 1487.56 L 1632.18 916.414 C 1581.28 872.54 1531.97 821.489 1484.05 774.055 L 1162.24 453.065 C 1149.35 440.413 1132.86 423.575 1119.42 412.004 L 531.482 412.021 C 519.82 412.02 479.794 410.965 469.676 412.004 C 440.464 416.569 414.373 438.856 414.098 470.231 L 414.425 1534.82 C 414.384 1586.4 416.607 1634.09 481.104 1634.06 L 1486.73 1634.01 C 1515.82 1634 1545.78 1631.8 1574.75 1634 z M 1311.79 412.004 C 1339.06 447.19 1375.22 477.058 1406.68 508.348 L 1606.5 706.789 C 1615.05 715.188 1623.36 723.342 1632.18 731.461 C 1633.21 715.626 1632.24 697.145 1632.2 680.884 L 1632.19 512.437 C 1632.25 496.967 1632.87 479.936 1630.87 464.717 C 1622.91 404.12 1549.96 411.999 1506.67 412.089 L 1417.98 412.031 C 1406.08 412.046 1376.29 412.921 1365.69 412.004 C 1347.94 412.802 1329.66 411.894 1311.79 412.004 z" fill="rgb(0,0,0)" transform="translate(0,0)"></path>
<path d="M 765.878 928.417 C 801.429 922.583 845.484 956.554 844.866 994.082 C 844.141 1038.11 815.686 1041.57 784.081 1058.75 C 727.811 1095.02 696.328 1157.67 697.845 1224.47 C 701.538 1387.11 897.899 1466.15 1015.98 1357.12 C 1027.97 1346.05 1037.74 1332.76 1048.82 1320.82 C 1102.68 1263.45 1224.75 1334.87 1119.42 1444.14 C 1003.91 1563.83 819.276 1572.07 688.622 1470.45 C 548.961 1361.82 528.261 1154.09 637.181 1016.87 C 664.712 982.189 721.056 933.408 765.878 928.417 z" fill="rgb(0,0,0)" transform="translate(0,0)"></path>
<path d="M 904.951 852.369 C 948.131 844.909 984.857 889.652 985.351 931.928 C 985.934 981.871 987.151 1032.08 985.998 1082 L 1128.72 1081.98 C 1225.89 1081.92 1226.33 1072.41 1276.34 1157.07 L 1403.05 1367.93 C 1427.71 1408.71 1475.13 1459.93 1449.44 1506.48 C 1439.24 1524.97 1426.13 1534.93 1405.59 1540.77 C 1355.47 1550.63 1338.74 1518.46 1316.9 1482.49 L 1189.25 1268.8 C 1178.52 1250.81 1165.75 1232.17 1155.87 1213.99 L 945.877 1214.03 C 860.31 1213.98 853.555 1175.95 853.447 1098.55 L 853.558 940.347 C 853.842 900.46 852.614 857.931 904.951 852.369 z" fill="rgb(0,0,0)" transform="translate(0,0)"></path>
<path d="M 903.615 605.377 C 970.218 597.124 1030.79 644.716 1038.53 711.381 C 1046.28 778.046 998.222 838.253 931.499 845.484 C 865.496 852.638 806.078 805.214 798.419 739.267 C 790.76 673.32 837.728 613.54 903.615 605.377 z" fill="rgb(0,0,0)" transform="translate(0,0)"></path>
<metadata><recraft-signature>{"signed_by": "recraft", "signature_b64": "DtDZeMNf8qCcudIol7/NYTeG7Y9p0xrmrRo0haTbKqgNQXunIN/ILhOGx2hkIqRsKpRNuaJzTtZKttdJuG4VBA==", "signing_algo": "Ed25519", "generation_timestamp": 1772989988, "identifier": "c8142296-06af-41e4-a1b8-5469c23c6916"}</recraft-signature></metadata></svg>