<svg xmlns="http://www.w3.org/2000/svg" height="512" preserveAspectRatio="none" style="display: block;" version="1.1" viewBox="0 0 2048 2048" width="512">
<path d="M 883.047 555.403 L 1121.26 555.41 C 1287.15 555.395 1321.25 560.425 1478.47 615.845 C 1524.5 602.174 1575.8 578.211 1621.69 561.005 C 1622.26 587.303 1637.38 706.785 1642.76 719.812 C 1646.82 729.648 1781.73 879.306 1799.7 899.375 C 1809.14 895.543 1847.57 886.03 1858.12 884.379 C 1846.81 922.627 1836.8 968.557 1826.52 1008.17 L 1810.32 1070.55 C 1806.3 1086.07 1801.75 1101.69 1799.7 1117.58 C 1782.73 1118.64 1753.94 1117.63 1736.09 1117.63 L 1593.68 1117.58 C 1541.22 1160.18 1506.28 1184.56 1442.94 1214.69 L 1442.94 1378.54 C 1458.04 1384.88 1472.72 1411.18 1478.47 1425.75 C 1484.02 1442.16 1485.49 1451.59 1485.97 1468.9 C 1454.72 1468.93 1418.77 1467.89 1388.01 1468.9 C 1388.67 1421.45 1380.77 1404 1354 1367.31 C 1352.87 1358.35 1353.63 1344 1353.74 1334.42 L 1353.92 1204.47 C 1353.78 1187.92 1352.96 1169.92 1354 1153.57 C 1454.78 1124.18 1485.04 1092.67 1560.52 1034.46 C 1573.09 1033.48 1601.34 1034.39 1615.06 1034.41 L 1729.1 1034.46 C 1735.53 1013.03 1740.7 991.82 1747.47 969.98 C 1726.43 949.619 1703.88 921.577 1684.14 899.418 L 1608.3 814.217 C 1544.66 742.799 1564.87 768.473 1550.55 676.285 C 1532.91 684.866 1497.07 701.199 1478.47 707.193 C 1333.9 657.035 1300.06 645.989 1148.81 645.99 L 978.76 646 C 950.632 646.008 919.827 646.77 891.974 645.998 C 903.849 604.571 901.718 593.42 883.047 555.403 z" fill="rgb(48,48,49)" transform="translate(0,0)"></path>
<path d="M 761.436 1130.24 C 921.135 1197.73 1110.04 1215.23 1279 1174.14 L 1279 1378.54 C 1311.61 1402.48 1322.67 1429.55 1322.07 1468.9 C 1252.27 1471.19 1194.97 1444.75 1193.15 1368.52 C 1192.44 1338.75 1194.42 1308.29 1193.14 1278.77 C 1172.04 1281.49 1147.62 1282.39 1126.29 1283.02 C 1034.3 1283.11 904.998 1278.99 817.975 1242.72 C 792.462 1278.41 759.646 1303.37 723.191 1326.63 L 723.191 1381.98 C 756.414 1400.82 776.252 1430.17 777.217 1468.9 C 769.735 1469.7 753.058 1469.01 744.78 1468.99 L 677.986 1468.9 C 681.268 1426.78 667.258 1398.77 634.864 1372.75 C 634.902 1346.48 633.473 1307.99 634.864 1283.02 C 646.309 1272.76 661.428 1266.46 674.644 1258.53 C 723.209 1229.4 755.466 1187.42 761.436 1130.24 z" fill="rgb(48,48,49)" transform="translate(0,0)"></path>
<path d="M 407.356 824.482 C 420.838 785.116 439.134 752.207 465.797 720.232 C 482.78 736.791 508.184 763.562 524.055 781.653 C 467.127 877.18 453.311 974.25 512.731 1076.11 C 555.613 1149.61 562.811 1170.65 561.907 1253.29 C 562.646 1292.89 560.753 1333.24 561.869 1372.75 C 608.425 1388.02 619.684 1424.17 618.835 1468.9 C 516.714 1469.19 472.414 1447.63 472.612 1337.8 L 472.789 1259.57 C 472.971 1186.08 473.214 1173.37 432.923 1110.21 C 406.199 1068.32 384.714 989.071 387.964 938.98 C 387.426 901.928 394.17 859.379 407.356 824.482 z" fill="rgb(48,48,49)" transform="translate(0,0)"></path>
<path d="M 387.964 938.98 C 354.062 938.541 332.922 944.393 317.027 974.586 C 266.494 1070.58 106.794 979.361 241.052 869.387 C 282.648 835.165 353.144 818.867 407.356 824.482 C 394.17 859.379 387.426 901.928 387.964 938.98 z" fill="rgb(203,100,85)" transform="translate(0,0)"></path>
<path d="M 804.826 565.422 C 832.607 570.248 835.423 625.108 817.975 650.112 C 729.536 673.434 666.807 678.012 580.674 727.83 C 575.268 722.928 569.677 716.714 564.616 711.34 C 549.594 695.994 533.925 681.081 519.644 665.051 C 582.57 613.466 726.724 580.341 804.826 565.422 z" fill="rgb(203,100,85)" transform="translate(0,0)"></path>
<path d="M 1530.91 850.619 C 1545.71 847.957 1560.8 853.477 1570.39 865.063 C 1579.98 876.65 1582.58 892.504 1577.2 906.548 C 1571.82 920.592 1559.28 930.646 1544.41 932.855 C 1521.89 936.199 1500.85 920.85 1497.16 898.384 C 1493.48 875.917 1508.5 854.65 1530.91 850.619 z" fill="rgb(48,48,49)" transform="translate(0,0)"></path>
<metadata><recraft-signature>{"signed_by": "recraft", "signature_b64": "Sk5VrAsgnDBvN+8nSNpkehpJYB6DIHhjfKWU56m4jMxwaw9kUKxawaggAMQGcyqbUnKuMWLtCMIHycxNAci/Dw==", "signing_algo": "Ed25519", "generation_timestamp": 1772997396, "identifier": "f9d25765-a1e4-4e83-8ec3-2647ea5f929e"}</recraft-signature></metadata></svg>