<svg xmlns="http://www.w3.org/2000/svg" height="512" preserveAspectRatio="none" style="display: block;" version="1.1" viewBox="0 0 2048 2048" width="512">
<path d="M 1022.28 300.654 C 1026.98 301.567 1163.31 410.043 1179.3 422.938 L 1618.4 770.599 C 1631.72 781.06 1655.99 798.932 1666.99 810.054 L 1667 1625.67 C 1667 1657.07 1665.75 1696.28 1666.99 1726.82 L 1032.25 1726.82 L 382.033 1726.82 L 382.025 911.1 C 382.027 878.318 382.823 842.522 382.033 810.054 C 389.471 802.278 401.706 792.932 410.334 786.013 L 953.487 355.399 C 976.49 337.355 999.261 318.388 1022.28 300.654 z M 553.178 882.674 L 553.178 1265.92 L 768.987 1265.92 C 769.004 1319.24 770.519 1380.37 768.987 1433.02 L 624.099 1433.04 C 602.321 1433.05 574.045 1434.1 553.178 1433.02 L 553.244 1515.95 C 553.245 1528.74 553.823 1546.68 553.178 1559 L 813.5 1559 L 1497.02 1559 L 1497.04 959.497 C 1497.04 936.439 1497.85 908.477 1497.02 885.971 L 1022.28 514.084 L 641.646 814.151 C 616.452 834.233 579.157 864.987 553.178 882.674 z" fill="rgb(0,0,0)" transform="translate(0,0)"></path>
<metadata><recraft-signature>{"signed_by": "recraft", "signature_b64": "LDyvfNwB6KhT81BoEc84FNqo1bd4uGerbV21/YTUaPhVJtOEs40NiLXDycYV+HT+JTgYWwA6sUWnreqH2RnnBw==", "signing_algo": "Ed25519", "generation_timestamp": 1772998723, "identifier": "c3c9c9e6-c4b3-4110-9ea1-739e239acb65"}</recraft-signature></metadata></svg>