<svg xmlns="http://www.w3.org/2000/svg" height="512" preserveAspectRatio="none" style="display: block;" version="1.1" viewBox="0 0 2048 2048" width="512">
<path d="M 631.917 278.388 C 648.971 275.932 713.262 297.258 733.455 302.722 L 1512.71 510.64 C 1617.99 538.992 1632.95 524.589 1632.88 647.773 L 1632.9 816.578 C 1633.07 916.716 1619.03 910.87 1534.48 932.017 L 1193.39 1018.35 C 1157.08 1027.49 1120.72 1037.28 1084.31 1045.82 C 1033.64 1060.09 975.73 1072.5 923.858 1085.76 L 659.162 1152.75 C 571.585 1174.02 550.596 1053.54 616.156 1032.78 C 632.524 1027.6 649.461 1024.07 666.183 1020 L 883.406 965.944 C 909.179 959.542 934.837 952.064 960.872 947.065 L 960.872 496.457 C 932.641 487.641 905.87 481.38 877.579 473.621 L 727.336 432.583 C 691.914 423.245 656.249 414.227 621.232 403.513 C 556.377 383.67 561.262 287.211 631.917 278.388 z M 1087.01 913.974 C 1196.79 890.985 1311.6 855.63 1421.74 829.198 C 1449.65 822.196 1477.03 814.775 1505.06 808.173 L 1505.06 646.428 L 1087.01 530.829 C 1085.77 562.841 1087.36 603.679 1087.19 636.364 L 1087.01 913.974 z" fill="rgb(0,0,0)" transform="translate(0,0)"></path>
<path d="M 470.112 282.347 C 532.314 273.18 543.09 324.372 543.069 373.614 L 542.834 1795.14 C 542.581 1828.34 519.455 1848.8 489.143 1854.98 C 410.116 1856.77 414.197 1801.52 414.352 1746.21 L 414.384 370.637 C 414.373 326.786 417.275 290.482 470.112 282.347 z" fill="rgb(0,0,0)" transform="translate(0,0)"></path>
<metadata><recraft-signature>{"signed_by": "recraft", "signature_b64": "A8RuSBghEgK1g+5irekriZ49rTT9r+GU9aZtngHP2NLIFMtZ4blR/XQG3VsOCIvp9A3s+63lQydFsgpLumOXCA==", "signing_algo": "Ed25519", "generation_timestamp": 1772989118, "identifier": "656c5d34-869f-43ed-af5a-a28c7737bdf8"}</recraft-signature></metadata></svg>