<svg xmlns="http://www.w3.org/2000/svg" height="512" preserveAspectRatio="none" style="display: block;" version="1.1" viewBox="0 0 2048 2048" width="512">
<path d="M 1208.01 361.058 L 1212.45 360.953 C 1247.09 360.276 1284.7 361.086 1319.64 361.091 L 1647.95 361.013 C 1694.22 360.908 1752.11 358.479 1752.38 423.012 L 1751.97 1584.54 C 1751.96 1661.95 1749.08 1684.09 1668.91 1684.06 L 844.5 1684.01 L 402.264 1684.07 C 300.862 1684.14 297.875 1675.05 298.01 1579.57 L 297.528 1076.05 C 297.226 1022.69 323.503 1014.92 370.565 1014.92 L 1152.88 1014.97 L 1152.86 478.538 C 1152.8 427.719 1140.63 371.738 1208.01 361.058 z M 1270.66 480.48 L 1270.72 1033.68 C 1270.74 1052.49 1271.09 1073.19 1270.32 1091.91 C 1268.09 1146.28 1182.23 1133.52 1146.78 1133.5 L 417.922 1133.51 L 417.922 1560.96 L 700.5 1560.96 L 1631.52 1560.96 L 1631.54 601.351 C 1631.55 561.907 1632.41 519.599 1631.52 480.48 L 1351.5 480.48 L 1270.66 480.48 z" fill="rgb(0,0,0)" transform="translate(0,0)"></path>
<metadata><recraft-signature>{"signed_by": "recraft", "signature_b64": "yRgK5IHKQLS+aHDWr7Uqzosd9WWzlAmdIgS6OkOLETyVfba18eKVmWbMwxuy1TodwjzNjcYnTvkjXArIY13qDw==", "signing_algo": "Ed25519", "generation_timestamp": 1772998808, "identifier": "036b2035-9bd7-4df5-878e-1b99fa9b8419"}</recraft-signature></metadata></svg>