<svg xmlns="http://www.w3.org/2000/svg" height="512" preserveAspectRatio="none" style="display: block;" version="1.1" viewBox="0 0 2048 2048" width="512">
<path d="M 677.501 510.001 C 700.695 509.441 726.636 509.985 749.997 509.986 L 1616.54 509.975 C 1632.97 509.972 1651.56 509.293 1667.66 511.975 C 1739.17 523.883 1790.98 584.189 1791.06 656.306 L 1791.06 1330.46 C 1791.17 1464.53 1771.05 1535.39 1620.37 1535.06 L 410.661 1535.57 C 336.169 1535.95 272.837 1482.92 258.125 1409.99 C 253.663 1387.87 255.263 1359.36 255.286 1336.32 L 255.348 852.5 L 255.555 750.082 C 255.457 698.36 245.886 641.715 298.177 611.491 C 348.583 582.438 417.838 612.603 424.702 671.984 C 427.25 694.029 425.797 720.66 425.782 743.147 L 425.727 1367.82 L 1623.1 1367.82 L 1623.1 679.013 L 706.704 679.042 C 686.031 679.031 661.856 681.056 643.565 670.78 C 566.084 627.251 589.014 521.692 677.501 510.001 z" fill="rgb(0,0,0)" transform="translate(0,0)"></path>
<metadata><recraft-signature>{"signed_by": "recraft", "signature_b64": "epVdOtBTSsMvAP61RfXO5lonah2l/uJy9FSzDV2JzX/+MMqtmC6oh2GKjiI/10T/pefG5F7No+lT7aMm3rsoCg==", "signing_algo": "Ed25519", "generation_timestamp": 1772997197, "identifier": "822aad91-9016-4202-a520-8d8b8ce2df37"}</recraft-signature></metadata></svg>