<svg xmlns="http://www.w3.org/2000/svg" height="512" preserveAspectRatio="none" style="display: block;" version="1.1" viewBox="0 0 2048 2048" width="512">
<path d="M 1719.8 369.005 C 1788.64 364.267 1790.89 402.222 1790.92 461.994 L 1790.95 1593.43 C 1790.93 1674.35 1766.14 1673.88 1695.82 1673.69 L 328.5 1673.64 C 282.351 1675.15 256.874 1663.98 256.728 1614.21 L 256.549 462.625 C 256.18 374.138 263.722 368.866 352.333 368.956 L 1719.8 369.005 z M 365.642 1565.09 L 1534.25 1565.1 C 1583.12 1565.1 1632.82 1565.63 1681.59 1565.09 L 1681.59 745.923 L 365.642 745.923 C 365.068 774.192 365.652 804.133 365.645 832.554 L 365.642 1565.09 z M 365.642 634.996 L 1534.8 634.983 C 1583.25 634.982 1633.35 634.237 1681.59 634.996 L 1681.59 479.005 L 365.642 479.005 C 362.915 519.906 363.281 594.078 365.642 634.996 z" fill="rgb(0,0,0)" transform="translate(0,0)"></path>
<metadata><recraft-signature>{"signed_by": "recraft", "signature_b64": "1jp84BFtn0z14cpfoFqtViU9NO4orRhGfIygbCme2oLi9Jebc5zFEMYl5M5OQDyZ2iylfRmAq9JYmUWx/Oa2AQ==", "signing_algo": "Ed25519", "generation_timestamp": 1772997023, "identifier": "f322510e-1d77-48ea-bc1a-b3a7360029bd"}</recraft-signature></metadata></svg>