<svg xmlns="http://www.w3.org/2000/svg" height="512" preserveAspectRatio="none" style="display: block;" version="1.1" viewBox="0 0 2048 2048" width="512">
<path d="M 443.343 297.517 C 470.106 296.66 501.765 297.504 528.967 297.505 L 1573.85 297.439 C 1588.93 297.407 1606.72 296.388 1621.41 298.328 C 1692.69 307.748 1748.16 369.941 1748.81 441.997 L 1749.01 1573.26 C 1749.01 1587.89 1749.87 1606.54 1748.24 1620.84 C 1739.52 1696.95 1676.23 1744.86 1602.75 1747.62 C 1575.97 1748.32 1545.43 1747.63 1518.4 1747.63 L 491.072 1747.65 C 449.4 1747.63 414.685 1749.52 377.016 1727.79 C 297.232 1682.95 299.929 1621.32 299.999 1545.33 L 299.995 489.824 C 300.002 385.964 323.767 306.858 443.343 297.517 z M 471.008 467.003 L 471.008 1578.39 L 1549.75 1578.39 L 1579.01 1578.39 L 1579.01 467.003 L 494.499 467.003 C 485.9 467.324 479.573 467.424 471.008 467.003 z" fill="rgb(0,0,0)" transform="translate(0,0)"></path>
<path d="M 1102.92 981.161 C 1116.41 979.775 1138.18 981.117 1152.56 981.12 L 1323.94 981.161 C 1358.41 981.207 1383.14 979.341 1410.27 1004.89 C 1460.39 1052.09 1436.19 1133.8 1370.09 1148.23 C 1350.45 1152.52 1323.51 1150.24 1302.88 1150.21 L 1193 1150.15 L 1193 1370.5 L 1193.09 1427.24 C 1193.13 1440.61 1193.99 1455.76 1191.6 1468.76 C 1180.37 1529.94 1109.07 1555.23 1059.23 1520.41 C 1015.24 1489.67 1022.23 1444.18 1022.24 1397.37 L 1022.22 1134.14 C 1022.21 1064.51 1015.55 994.857 1102.92 981.161 z" fill="rgb(0,0,0)" transform="translate(0,0)"></path>
<metadata><recraft-signature>{"signed_by": "recraft", "signature_b64": "/PU3ji7xgIC7n/xpXifZ1kCkzN/jHy8AwETzSdYgrC2usUzi2dd1iQU1JUUOCW7SvRCoNAZ9xjB6Xh+4fiaqCA==", "signing_algo": "Ed25519", "generation_timestamp": 1772989282, "identifier": "65431da2-d795-4c8d-bd0f-1c2e7c6cc41f"}</recraft-signature></metadata></svg>