<svg xmlns="http://www.w3.org/2000/svg" height="512" preserveAspectRatio="none" style="display: block;" version="1.1" viewBox="0 0 2048 2048" width="512">
<path d="M 999.918 469.948 C 1375.38 456.518 1690.72 749.855 1704.43 1125.31 C 1718.14 1500.77 1425.03 1816.32 1049.59 1830.31 C 673.748 1844.31 357.79 1550.83 344.067 1174.98 C 330.343 799.13 624.057 483.391 999.918 469.948 z M 1033.52 1661.83 C 1316.09 1656.93 1541.37 1424.22 1537.09 1141.63 C 1532.81 859.045 1300.58 633.258 1017.99 636.925 C 734.523 640.603 507.889 873.703 512.183 1157.16 C 516.478 1440.61 750.07 1666.74 1033.52 1661.83 z" fill="rgb(0,0,0)" transform="translate(0,0)"></path>
<path d="M 998.471 734.013 C 1005.19 733.555 1015.05 733.946 1022 734.013 C 1022.44 773.906 1026.01 1096.91 1019.46 1115.25 C 1004.85 1156.2 959.009 1147.06 924.686 1146.92 L 714.148 1146.95 C 696.968 1146.96 652.395 1149.02 637.549 1143.54 C 600.29 1124.61 604.907 1094.59 613.22 1059.59 C 656.566 877.129 813.041 748.782 998.471 734.013 z" fill="rgb(0,0,0)" transform="translate(0,0)"></path>
<path d="M 955.829 221.583 C 998.943 220.119 1044.31 222.34 1087.46 221.924 C 1154.56 221.278 1153.56 291.094 1153.55 336.275 L 1153.49 420.144 C 1136.86 420.838 1115.5 420.172 1098.5 420.144 C 1078.35 420.963 1052.01 420.188 1031.34 420.181 L 896.008 420.144 C 894.96 396.227 896.348 371.933 896.001 348.03 C 895.22 294.287 887.579 234.114 955.829 221.583 z" fill="rgb(0,0,0)" transform="translate(0,0)"></path>
<metadata><recraft-signature>{"signed_by": "recraft", "signature_b64": "AiVslEnVJso6BlBkkVVolFZwt1OcCfs9y0o89yIY5tRGwni3quGPP1nFVQf9uRoZUCIccI2bSvb4dxLbxnFIAg==", "signing_algo": "Ed25519", "generation_timestamp": 1772989939, "identifier": "70fdf99f-8dc0-40d6-9550-b65ac0573d33"}</recraft-signature></metadata></svg>