<svg xmlns="http://www.w3.org/2000/svg" height="512" preserveAspectRatio="none" style="display: block;" version="1.1" viewBox="0 0 2048 2048" width="512">
<path d="M 358.726 1246 C 366.772 1245.08 398.796 1245.92 408.9 1245.94 L 662.669 1245.99 C 708.404 1245.94 788.429 1233.4 797.475 1296.61 C 798.626 1304.65 798.03 1329.16 798.031 1338.85 L 798.016 1604.96 C 798.004 1662.33 814.238 1735.02 741.196 1748.86 C 735.057 1749.62 702.776 1748.94 694.324 1748.93 L 435.823 1748.86 C 395.786 1748.86 344.569 1757.54 316.335 1726.37 C 298.28 1706.44 301.256 1690.82 301.018 1665.67 L 301.016 1375.01 C 301.03 1325.08 288.939 1253.41 358.726 1246 z" fill="rgb(0,0,0)" transform="translate(0,0)"></path>
<path d="M 589.636 1372.97 L 666.953 1372.97 L 666.953 1622.11 L 508.5 1622.11 L 429.951 1622.11 L 429.948 1455.49 C 429.943 1429.13 429.127 1398.97 429.951 1372.97 L 589.636 1372.97 z" fill="rgb(252,39,71)" transform="translate(0,0)"></path>
<path d="M 1307.99 1246 C 1326.85 1244.98 1357.19 1245.95 1376.74 1245.96 L 1629.6 1245.96 C 1667.31 1245.93 1739.3 1238.63 1745.37 1293.12 C 1747.74 1314.4 1746.78 1341.46 1746.78 1363.07 L 1746.78 1627.74 C 1746.82 1679.8 1757.89 1735.11 1691.04 1748.86 C 1664.41 1749.49 1635.25 1748.89 1608.49 1748.88 L 1357.51 1748.91 C 1248.57 1749.03 1252.05 1730.05 1252.01 1636.85 L 1252.01 1379.92 C 1252 1325.94 1237.41 1255.32 1307.99 1246 z" fill="rgb(0,0,0)" transform="translate(0,0)"></path>
<path d="M 1408.27 1372.97 C 1478.59 1372.97 1550.96 1372.06 1621.08 1372.97 L 1621.08 1625.88 L 1588.5 1625.88 L 1375.85 1625.88 L 1375.85 1372.97 C 1386.69 1372.51 1397.43 1372.8 1408.27 1372.97 z" fill="rgb(254,197,44)" transform="translate(0,0)"></path>
<path d="M 1015.8 597.025 C 1094.37 592.898 1087.05 662.969 1087.03 715.093 L 1087.02 829.001 L 1294.23 829.016 C 1370.62 828.991 1442.07 818.035 1501.71 877.132 C 1554.42 929.373 1560.6 982.18 1557.99 1052.23 C 1562.17 1195.87 1422.95 1151.99 1434.01 1065.69 C 1428.8 995.969 1455.55 953.172 1352.93 953.122 L 1287.78 953.11 C 1222.22 953.11 1152.19 951.761 1087.02 953.131 L 1087.1 1065.02 C 1087.16 1112.2 1094.97 1160.66 1035.42 1173.74 C 958.085 1183.57 960.954 1117.11 961.009 1067.2 L 961.02 953.131 L 768.106 953.162 C 733.784 953.161 699.102 952.815 664.768 953.206 C 579.887 954.171 637.649 1081.31 598.168 1123.22 C 558.978 1164.82 489.966 1135.69 491.114 1076.47 C 492.609 999.382 482.27 939.592 541.447 880.05 C 588.698 832.508 634.663 828.891 697.175 828.97 L 961.02 829.001 L 960.938 709.724 C 960.925 659.561 952.253 609.869 1015.8 597.025 z" fill="rgb(0,0,0)" transform="translate(0,0)"></path>
<path d="M 1495.01 294.167 C 1632.39 291.291 1746.24 400.023 1749.67 537.385 C 1753.11 674.747 1644.85 789.038 1507.5 793.037 C 1369.36 797.06 1254.26 688.029 1250.8 549.87 C 1247.34 411.711 1356.84 297.06 1495.01 294.167 z" fill="rgb(0,0,0)" transform="translate(0,0)"></path>
<path d="M 1495.89 419.28 C 1563.88 416.876 1621.01 469.912 1623.65 537.892 C 1626.3 605.872 1573.47 663.192 1505.5 666.087 C 1437.19 668.996 1379.51 615.837 1376.85 547.509 C 1374.18 479.181 1427.55 421.696 1495.89 419.28 z" fill="rgb(43,144,244)" transform="translate(0,0)"></path>
<metadata><recraft-signature>{"signed_by": "recraft", "signature_b64": "kyJckpwn4B9JyIZ9uo3tqmPX4vXxYBL9GeqMzv9amBhlxnLLOAd7j2x/8jDDgriCIUxWL1vEpbLHo/A81qk4DA==", "signing_algo": "Ed25519", "generation_timestamp": 1772989714, "identifier": "c4d18a66-1e6b-44a3-a7bc-299f9bda803e"}</recraft-signature></metadata></svg>