<svg xmlns="http://www.w3.org/2000/svg" height="512" preserveAspectRatio="none" style="display: block;" version="1.1" viewBox="0 0 2048 2048" width="512">
<path d="M 445.636 447.11 C 467.742 446.064 498.563 447.085 521.547 447.089 L 1131.59 447.07 C 1199.31 447.166 1254.84 470.1 1303.22 517.734 C 1381.45 597.307 1370.89 682.051 1370.69 783.979 C 1424.75 747.265 1517.36 678.121 1574.19 650.136 C 1680.46 597.808 1818.98 675.042 1817.38 796.75 C 1817.12 816.479 1817.54 836.891 1817.53 856.531 L 1817.55 1161.92 C 1817.56 1191.58 1819.04 1223.8 1815.48 1253.24 C 1807.01 1323.12 1749.7 1384.72 1680.46 1397.55 C 1599.92 1412.48 1551.14 1366.97 1490.41 1323.76 C 1452.47 1299.09 1408.82 1264.99 1370.69 1244.04 C 1371.75 1279.13 1373.3 1335.95 1370.29 1370.05 C 1361.08 1474.68 1275.78 1565.26 1171.52 1579.53 C 1150.51 1582.41 1129.65 1581.92 1108.71 1581.92 L 483.634 1581.93 C 467.977 1581.93 444.668 1582.43 429.427 1579.9 C 329.202 1563.23 248.235 1482.82 233.858 1381.36 C 231.399 1364.01 231.988 1343.57 231.991 1325.78 L 231.981 700.788 C 231.991 680.606 231.497 657.577 234.561 637.921 C 251.697 528.023 340.571 461.231 445.636 447.11 z M 1138.88 1432.86 C 1215.64 1414.08 1218.91 1376.19 1218.93 1302.69 L 1218.79 703.261 C 1218.17 609.941 1187.02 593.648 1097.96 593.725 L 497.885 593.705 C 487.204 593.678 470.734 593.048 460.604 593.781 C 393.307 600.07 378.958 649.835 378.95 707.568 L 378.922 1310.93 C 378.888 1325.6 378.554 1340.93 379.626 1355.25 C 386.574 1448.01 500.924 1432.84 564.242 1432.84 L 1096.18 1432.89 C 1108.72 1432.91 1126.83 1433.57 1138.88 1432.86 z M 1668.02 1158.4 C 1668.96 1147.4 1668.08 1121.5 1668.07 1109.05 L 1668.06 883.336 C 1668.07 868.831 1677.59 763.543 1641.54 785.708 C 1612.32 803.677 1584.76 824.329 1556.06 843.12 C 1498.72 880.37 1431.61 922.292 1377.56 964.149 C 1402.12 978.287 1418.63 990.892 1441.77 1006.15 L 1607.79 1117.91 C 1626.28 1130.11 1648.51 1149.28 1668.02 1158.4 z" fill="rgb(30,31,33)" transform="translate(0,0)"></path>
<path d="M 1377.56 964.149 C 1402.12 978.287 1418.63 990.892 1441.77 1006.15 L 1607.79 1117.91 C 1626.28 1130.11 1648.51 1149.28 1668.02 1158.4 C 1669.38 1173.45 1669.37 1232.28 1664.39 1242.87 C 1654.77 1263.3 1614.72 1224.52 1601.8 1216.3 C 1523.39 1166.47 1449.62 1109.3 1370.69 1060.45 C 1369.67 1044.91 1368.66 983.266 1370.79 968.65 C 1372.37 965.805 1374.47 965.423 1377.56 964.149 z" fill="rgb(30,159,249)" transform="translate(0,0)"></path>
<metadata><recraft-signature>{"signed_by": "recraft", "signature_b64": "rwY4CR7vOT0eNKp9YMrhi947VTZ42ci8jAxZxYQOXb4Bc86Aid3x5RLEp14jpoVuEuduc+AZc53nhZs/4DGmCw==", "signing_algo": "Ed25519", "generation_timestamp": 1772999898, "identifier": "98f703f6-4238-460e-a393-219249f7e585"}</recraft-signature></metadata></svg>