<svg xmlns="http://www.w3.org/2000/svg" height="512" preserveAspectRatio="none" style="display: block;" version="1.1" viewBox="0 0 2048 2048" width="512">
<path d="M 561 622.211 L 1409.2 622.21 C 1444.68 622.198 1484.09 620.458 1519 623.529 C 1610.02 631.537 1687.41 696.073 1718.08 781.074 C 1725.04 800.358 1727.84 819.545 1733.55 839.142 C 1794.38 858.515 1789.01 889.267 1789.05 941.348 L 1789.06 1098.2 C 1789.03 1142.44 1790.68 1187.02 1733.55 1198.49 C 1732.33 1203.68 1731.32 1209.54 1730.42 1214.79 C 1710.01 1333.16 1612.85 1424.94 1489.36 1421.4 C 1478.14 1421.08 1466.29 1421.33 1455 1421.3 L 1361.25 1421.18 L 1281.73 1421.23 C 1169.96 1421.34 1145.89 1397.77 1066.19 1317.76 C 1054.24 1305.76 1036.49 1281.14 1017.17 1288.38 C 998.147 1295.51 939.49 1365.27 915.427 1383.33 C 869.008 1418.16 825.083 1421.2 770.194 1421.19 L 597.391 1421.26 C 569.352 1421.28 543.659 1422.47 515.984 1417.38 C 407.292 1397.37 332.43 1309.19 319.581 1202.15 C 281.696 1190.46 264.319 1166.35 264.024 1127.17 L 264.286 896.887 C 264.429 866.842 288.632 838.853 319.581 839.142 C 320.526 715.852 444.391 626.579 561 622.211 z M 1366.5 1254.79 L 1448.87 1254.84 C 1530.6 1254.87 1561.47 1251.61 1561.37 1154.03 L 1561.35 868.921 C 1560.97 804.223 1518.45 790.214 1462.56 790.268 L 561 790.302 C 489.121 795.642 486.707 843.909 486.665 902.272 L 486.641 1151.86 C 487.429 1235.34 507.576 1255.28 595.557 1254.85 L 753.499 1254.84 C 791.82 1254.95 806.478 1261.67 833.768 1231.85 C 895.555 1164.34 940.094 1121.74 1040.28 1127.44 C 1108.25 1131.3 1147.54 1163.58 1191.86 1210.09 C 1233.14 1253.41 1231.09 1254.87 1291.13 1254.86 L 1366.5 1254.79 z" fill="rgb(0,0,0)" transform="translate(0,0)"></path>
<metadata><recraft-signature>{"signed_by": "recraft", "signature_b64": "E/0vM3+iiH6CDPh3MQuHVs9+ONn3D2nwYXbZsEWNntncCWFjRcUydoYoP2ilCRiV3kMhsTM6yt2oK4OmvgcwBg==", "signing_algo": "Ed25519", "generation_timestamp": 1772999249, "identifier": "252173fa-5733-448b-8f8b-239bf3111ead"}</recraft-signature></metadata></svg>