<svg xmlns="http://www.w3.org/2000/svg" height="512" preserveAspectRatio="none" style="display: block;" version="1.1" viewBox="0 0 2048 2048" width="512">
<path d="M 537.768 354.9 C 600.357 354.054 664.799 354.902 727.589 354.904 L 1366.7 354.862 C 1411.06 354.862 1456.15 353.921 1500.43 355.069 C 1645.61 358.832 1759.78 485.661 1751.9 630.065 C 1748.25 696.849 1718.06 745.125 1689.96 803.977 L 1523.5 1155.65 C 1495.98 1214.82 1481.68 1260.66 1431.46 1306.29 C 1349.25 1385.62 1277.55 1385.83 1173.82 1385.78 L 875.386 1385.79 C 679.555 1385.82 616.444 1353.86 535.1 1177.16 L 357.878 799.139 C 343.073 767.382 327.245 736.566 313.345 704.131 C 243.233 540.531 368.842 375.809 537.768 354.9 z M 1360.93 1055.05 L 1537.92 684.417 C 1546.42 666.631 1556.5 648.817 1562.33 629.997 C 1576.02 585.859 1538.4 541.094 1493.51 541.028 L 572.264 540.881 C 568.131 540.865 550.836 540.501 547.51 541.005 C 495.801 548.23 470.092 598.355 492.018 645.004 L 696.377 1075.54 C 709.585 1103.18 722.267 1131.22 735.905 1158.65 C 759.279 1205.66 819.199 1194.88 861.911 1194.96 L 1246.9 1195.04 C 1314.41 1195.05 1334.25 1108.69 1360.93 1055.05 z" fill="rgb(0,0,0)" transform="translate(0,0)"></path>
<path d="M 1112.31 1502 C 1171.99 1497.62 1189.85 1564.11 1166.57 1612.55 C 1128.71 1691.35 1028.87 1718.34 952.384 1681.76 C 869.962 1641.81 816.826 1501.44 950.375 1501.91 C 1004.32 1502.49 1058.38 1501.44 1112.31 1502 z" fill="rgb(0,0,0)" transform="translate(0,0)"></path>
<metadata><recraft-signature>{"signed_by": "recraft", "signature_b64": "g4ln5DYIGdu/H76L1SQitRLbtzRNZlPnm8sdr4fFeP0mxifOPBC5wuspxh7oDK/20hPYY4L1xIk3aW5/BDVoBA==", "signing_algo": "Ed25519", "generation_timestamp": 1772999515, "identifier": "0f7e27e4-44e1-4092-b491-1512ccfe9f3c"}</recraft-signature></metadata></svg>