<svg xmlns="http://www.w3.org/2000/svg" height="512" preserveAspectRatio="none" style="display: block;" version="1.1" viewBox="0 0 2048 2048" width="512">
<path d="M 445.314 412.488 L 446.318 412.458 C 474.382 411.833 505.295 412.478 533.603 412.48 L 1572.6 412.456 C 1588.27 412.458 1610.26 412.081 1625.24 414.103 C 1708.98 425.406 1767.69 503.44 1767.83 585.583 L 1767.92 1361.98 C 1767.93 1385.4 1768.19 1408.66 1768.45 1432.07 C 1769.46 1524.93 1694.55 1608.36 1600.75 1609.91 C 1600.47 1609.94 1600.19 1609.97 1599.91 1610 L 496.721 1609.95 C 476.369 1609.95 453.104 1611.08 432.863 1608.3 C 350.753 1596.99 285.359 1526.94 280.793 1444.01 C 279.591 1422.17 280.489 1399.07 280.521 1377.21 L 280.522 598.354 C 280.877 496.496 335.255 416.983 445.314 412.488 z M 1624.6 660.15 C 1570 697.305 1519.2 742.718 1467.85 784.155 L 1104.84 1078.47 C 1089.14 1091.26 1070.97 1108.62 1054.56 1119.34 C 1009.64 1148.65 959.009 1092.49 927.166 1066.15 L 727.275 901.383 C 710.062 887.372 677.757 862.641 662.641 848.096 C 649.469 836.031 623.048 816.014 608.308 804.106 L 492.227 710.456 C 484.353 704.072 427.195 655.754 423.707 654.334 C 423.12 671.819 423.678 691.133 423.693 708.793 L 423.696 1400.86 C 423.713 1422.64 419.517 1464.47 453.261 1464.84 C 478.179 1465.13 503.271 1465.03 528.183 1465.03 L 1535 1465.03 C 1599.16 1465.05 1624.69 1477.01 1624.68 1405.06 L 1624.7 663.639 C 1624.69 662.431 1624.67 661.354 1624.6 660.15 z M 752.19 737.28 C 756.318 739.656 772.815 753.831 778.041 758.075 L 963.684 907.306 C 983.277 923.039 1004.13 937.831 1023.2 954.111 C 1032.22 948.079 1043.94 938.438 1052.69 931.619 L 1384.34 664.749 C 1426 630.455 1475.03 594.824 1514.76 558.871 L 568.925 558.827 C 554.963 558.703 541.733 557.882 527.777 558.871 C 598.998 614.821 685.357 677.27 752.19 737.28 z" fill="rgb(19,19,19)" transform="translate(0,0)"></path>
<path d="M 423.707 654.334 C 421.264 555.164 436.226 553.481 527.777 558.871 C 598.998 614.821 685.357 677.27 752.19 737.28 C 722.396 770.946 692.197 812.679 662.641 848.096 C 649.469 836.031 623.048 816.014 608.308 804.106 L 492.227 710.456 C 484.353 704.072 427.195 655.754 423.707 654.334 z" fill="rgb(62,168,244)" transform="translate(0,0)"></path>
<metadata><recraft-signature>{"signed_by": "recraft", "signature_b64": "fscZX7rVQUuebTXsUYpvPkxmpwPnavcQMcWJf5RmhtummPvPiJETiTSFMPMcZr7m1loqGXiyAmQZZfcWmK5VDw==", "signing_algo": "Ed25519", "generation_timestamp": 1772999742, "identifier": "7ee34986-90da-42fa-92f1-0825378bd670"}</recraft-signature></metadata></svg>