<svg xmlns="http://www.w3.org/2000/svg" height="512" preserveAspectRatio="none" style="display: block;" version="1.1" viewBox="0 0 2048 2048" width="512">
<path d="M 496.677 299.001 C 567.922 298.033 641.542 299 712.992 299.002 L 1502.98 298.95 C 1579.55 298.939 1652.75 304.145 1688.46 388.219 C 1695.84 405.596 1701.23 426.561 1706.84 444.948 L 1765.42 632.606 C 1772.28 654.16 1783.12 679.098 1787.12 701.024 C 1807.33 811.835 1733.9 903.085 1621 896.037 C 1620.3 913.543 1620.97 932.302 1620.98 950.024 L 1621.05 1475.92 C 1621.05 1578.71 1611.36 1652.06 1514.51 1714.84 C 1481.65 1739.91 1424.03 1748.17 1384.51 1748.36 L 717.171 1748.35 C 682.313 1748.38 642.021 1750.41 608.28 1743.98 C 520.131 1726.64 449.447 1655.19 432.854 1566.94 C 427.015 1535.89 429.021 1506.28 429.033 1475.01 L 429.016 896.037 C 344.23 906.76 266.3 838.292 256.372 756.029 C 251.398 714.819 260.965 694.521 273.351 656.63 L 342.681 444.745 C 370.602 357.345 391.865 312.808 496.677 299.001 z M 895.966 1582.32 C 1008.88 1583.6 1124.64 1582.29 1237.79 1582.3 L 1345.02 1582.39 C 1377.17 1582.43 1404.66 1587.97 1431.35 1567.13 C 1458.16 1538.35 1451.06 1506.43 1451.05 1469.68 L 1451.01 896.037 L 895.966 896.037 C 897.229 916.953 895.981 948.013 895.967 969.932 L 895.966 1582.32 z M 429.016 727.237 L 1533.71 727.237 L 1616.86 727.237 C 1612.59 710.493 1606.54 693.181 1601.44 676.533 L 1578.21 598.726 C 1567.11 561.346 1552.61 504.156 1537.54 468.946 L 508.95 468.946 C 502.464 486.13 496.701 506.036 491.182 523.738 L 463.725 611.948 C 453.507 644.681 435.192 695.956 429.016 727.237 z M 768.012 1582.32 L 768.002 983.003 C 767.998 954.451 767.464 924.436 768.012 896.037 L 598.862 896.037 L 598.888 1473.56 C 598.878 1521.23 588.798 1584.71 661.474 1582.27 C 696.24 1581.11 733.092 1583.79 768.012 1582.32 z" fill="rgb(0,0,0)" transform="translate(0,0)"></path>
<metadata><recraft-signature>{"signed_by": "recraft", "signature_b64": "icpABgmzyKoAfJpA1NH+cWjsaYCSfqcy8xHeH7EaqmVDrPIDCJQYTxM66pPnzlL7+HZ99p7MnivP+GSciJCVBA==", "signing_algo": "Ed25519", "generation_timestamp": 1772998908, "identifier": "43855dee-ab55-4105-8084-a0e48bde9ef6"}</recraft-signature></metadata></svg>