<svg xmlns="http://www.w3.org/2000/svg" height="512" preserveAspectRatio="none" style="display: block;" version="1.1" viewBox="0 0 2048 2048" width="512">
<path d="M 1191.43 331.389 C 1212.39 367.99 1237.65 402.729 1279.15 417.358 C 1211.97 532.38 1324.82 801.974 1374.99 908.049 C 1423.3 1009.81 1508.15 1087.17 1476.94 1217.88 C 1440.66 1369.87 1297.23 1470.76 1153.42 1510 C 1132.78 1515.64 1110.34 1517.58 1090.69 1525.06 C 1085.13 1525.93 1081.5 1524.01 1077.57 1525.06 C 1062.23 1527.98 1049.22 1530.47 1034.13 1534.54 C 1025.32 1534.29 966.013 1532.77 965.027 1537.9 C 950.451 1537.17 936.277 1534.08 922.002 1534.54 C 917.78 1526.3 685.764 1461.13 647.84 1405.27 C 644.96 1401.03 641.212 1397.92 637.216 1394.79 L 635.669 1393.58 C 533.136 1351.03 434.076 1272.23 362.082 1187.02 C 367.883 1190.58 371.142 1192.56 376.462 1196.85 C 391.242 1201.1 400.277 1200.16 412.908 1202.99 C 479.161 1217.81 514.532 1222.51 579.452 1207.18 C 673.044 1189.7 708.622 1147.15 785.588 1099.46 C 879.019 1041.57 947.433 1012.74 1056.25 995.901 C 1098.98 988.147 1223.65 1002.24 1266.55 1011.15 C 1269.88 1011.85 1274.62 1012.81 1277.73 1011.9 L 1279.15 1009.19 C 1285.52 966.054 1270.36 923.026 1257.18 882.753 L 1233.72 811.466 C 1189.23 675.97 1136.89 469.306 1191.43 331.389 z" fill="rgb(249,247,238)" transform="translate(0,0)"></path>
<path d="M 1191.43 331.389 C 1212.39 367.99 1237.65 402.729 1279.15 417.358 C 1211.97 532.38 1324.82 801.974 1374.99 908.049 C 1423.3 1009.81 1508.15 1087.17 1476.94 1217.88 C 1440.66 1369.87 1297.23 1470.76 1153.42 1510 C 1132.78 1515.64 1110.34 1517.58 1090.69 1525.06 C 1102.42 1516.9 1117.58 1513.51 1130.72 1507.84 C 1249.39 1456.66 1351.58 1400.9 1405.46 1272.46 C 1489.68 1071.7 1285.78 1025.91 1279.15 1009.19 C 1285.52 966.054 1270.36 923.026 1257.18 882.753 L 1233.72 811.466 C 1189.23 675.97 1136.89 469.306 1191.43 331.389 z" fill="rgb(20,21,30)" transform="translate(0,0)"></path>
<path d="M 579.452 1207.18 C 673.044 1189.7 708.622 1147.15 785.588 1099.46 C 879.019 1041.57 947.433 1012.74 1056.25 995.901 C 1051.79 999.043 1010.13 1010.8 1001.14 1013.99 C 945.364 1033.81 891.286 1055.56 840.558 1086.45 C 796.636 1112.09 627.942 1222.69 579.452 1207.18 z" fill="rgb(213,192,170)" transform="translate(0,0)"></path>
<path d="M 362.082 1187.02 C 367.883 1190.58 371.142 1192.56 376.462 1196.85 C 410.278 1240.26 538.908 1333.5 585.986 1363.51 C 612.586 1380.47 645.913 1392.22 673.771 1407.32 C 670.656 1407.63 647.166 1395.24 635.669 1393.58 C 533.136 1351.03 434.076 1272.23 362.082 1187.02 z" fill="rgb(213,192,170)" transform="translate(0,0)"></path>
<path d="M 1317.93 1077.22 L 1319.75 1078.15 C 1324.9 1086.37 1326.51 1099 1329.27 1108.37 C 1370.7 1249.13 1262.46 1359.48 1131.08 1389.86 C 1010.49 1417.74 876.016 1385.99 770.465 1319.56 C 745.971 1303.75 707.417 1271.15 689.529 1248.37 C 772.58 1276.14 858.593 1277.97 938.409 1236.1 C 990.935 1208.55 978.764 1198.33 1040.99 1205.64 C 1206.54 1225.08 1212 1102.33 1317.93 1077.22 z" fill="rgb(254,254,254)" transform="translate(0,0)"></path>
<path d="M 1191.43 331.389 C 1196.11 327.02 1202.35 307.116 1205.45 300.018 C 1241.61 217.19 1312.93 192.837 1398.95 210.183 C 1413.02 213.021 1454 227.56 1438.53 246.258 L 1437.87 247.06 C 1483.03 246.493 1479.36 269.27 1505.99 294.34 C 1523.97 311.268 1581.22 349.984 1604.1 362.839 C 1611.83 368.397 1691.08 414.296 1676.93 428.518 C 1663.75 439.461 1577.56 419.418 1563.93 413.278 C 1534.3 406.065 1474.96 401.808 1452.07 392.364 C 1449.26 397.59 1455.77 404.08 1449.96 404.399 C 1438.25 405.012 1429.72 410.564 1418.63 413.614 C 1383.22 423.353 1345.56 426.132 1309.07 422.284 C 1302.05 421.543 1281.45 412.925 1279.15 417.358 C 1237.65 402.729 1212.39 367.99 1191.43 331.389 z" fill="rgb(249,247,238)" transform="translate(0,0)"></path>
<path d="M 1437.87 247.06 C 1483.03 246.493 1479.36 269.27 1505.99 294.34 C 1523.97 311.268 1581.22 349.984 1604.1 362.839 C 1611.83 368.397 1691.08 414.296 1676.93 428.518 C 1663.75 439.461 1577.56 419.418 1563.93 413.278 C 1534.3 406.065 1474.96 401.808 1452.07 392.364 C 1425.91 359.619 1429.92 351.786 1411.26 321.97 C 1399.65 303.435 1371.9 278.736 1395.74 255.827 C 1405.62 246.338 1424.4 246.037 1437.87 247.06 z" fill="rgb(20,21,30)" transform="translate(0,0)"></path>
<path d="M 1563.93 413.278 C 1554.26 405.118 1492.51 384.059 1500.73 367.851 C 1512.42 359.797 1587.3 363.883 1603.27 362.898 L 1604.1 362.839 C 1611.83 368.397 1691.08 414.296 1676.93 428.518 C 1663.75 439.461 1577.56 419.418 1563.93 413.278 z" fill="rgb(242,81,17)" transform="translate(0,0)"></path>
<path d="M 1423.93 266.31 C 1449.87 268.163 1450.31 292.578 1428.81 300.353 C 1405.19 300.799 1400.63 269.776 1423.93 266.31 z" fill="rgb(254,254,254)" transform="translate(0,0)"></path>
<path d="M 1428.81 273.93 C 1442.45 277.751 1440.36 288.429 1428.81 293.571 C 1415.75 291.235 1419.52 278.41 1428.81 273.93 z" fill="rgb(20,21,30)" transform="translate(0,0)"></path>
<path d="M 922.002 1534.54 C 936.277 1534.08 950.451 1537.17 965.027 1537.9 C 968.204 1579.96 956.128 1676.88 952.211 1723.07 C 980.286 1729.96 1148.11 1773.36 1155.58 1783.26 L 1154.73 1784.63 C 1117.11 1788.25 1065.7 1814.89 1034.13 1835.65 C 1002.22 1802.85 960.821 1773.42 926.401 1738.68 C 931.253 1717.89 928.35 1698.56 927.283 1677.35 L 923.04 1598.35 C 921.877 1576.42 920.18 1556.51 922.002 1534.54 z" fill="rgb(20,21,30)" transform="translate(0,0)"></path>
<path d="M 1034.13 1534.54 C 1049.22 1530.47 1062.23 1527.98 1077.57 1525.06 C 1076.56 1570.67 1071.7 1624.83 1066.92 1669.89 L 1153.37 1689.4 C 1194.4 1698.7 1226.15 1703.09 1263.66 1723.07 C 1225.69 1724.68 1177.94 1752.77 1145.47 1772.56 C 1116.17 1749.34 1073.04 1718.12 1041.51 1696.67 C 1050.62 1644.96 1037.06 1587.33 1034.13 1534.54 z" fill="rgb(20,21,30)" transform="translate(0,0)"></path>
<metadata><recraft-signature>{"signed_by": "recraft", "signature_b64": "3MiUIVdxBNU5W4lwfpnH/yiVmgzb/q1EErYp8x2iixwEw+oa/YQcMjZltve6hkSlmHPqhQMm6y6yIeQl2+oACQ==", "signing_algo": "Ed25519", "generation_timestamp": 1772997595, "identifier": "88d1dc56-e06c-4b66-b5f8-602aa9b396cb"}</recraft-signature></metadata></svg>