<svg xmlns="http://www.w3.org/2000/svg" height="512" preserveAspectRatio="none" style="display: block;" version="1.1" viewBox="0 0 2048 2048" width="512">
<path d="M 172.991 525.001 L 1875.96 525.001 L 1875.96 1336.03 C 1875.96 1349.84 1876.69 1517.58 1875.96 1519.48 C 1862.51 1520.09 1844.94 1519.49 1831.15 1519.48 L 315.178 1519.48 C 269.698 1519.47 217.779 1518.14 172.991 1519.48 L 172.991 525.001 z M 851.323 1362.09 L 1198.57 1362.09 L 1198.57 685.002 L 851.323 685.002 C 850.422 712.015 851.315 743.95 851.32 771.342 L 851.323 1362.09 z M 339.716 1362.09 L 686.792 1362.09 L 686.792 685.002 L 339.716 685.002 C 340.725 707.478 339.728 736.622 339.719 759.792 L 339.716 1362.09 z M 1363.91 1362.09 L 1668.95 1362.12 C 1681.26 1362.13 1696.94 1362.71 1708.84 1362.09 L 1708.84 685.002 L 1466.89 684.982 C 1433.97 684.975 1396.47 684.088 1363.91 685.002 C 1362.63 702.85 1363.95 735.823 1363.95 755.069 L 1363.91 1362.09 z" fill="rgb(0,0,0)" transform="translate(0,0)"></path>
<metadata><recraft-signature>{"signed_by": "recraft", "signature_b64": "l6UvG8Ev59Al2UWWAYlzE3SpY9gPuws2cXIAICjf/tD6wIXaoPuqSaLQQcYBsk5DeIdA9NNUGSPY9E7+gPFiCQ==", "signing_algo": "Ed25519", "generation_timestamp": 1772996563, "identifier": "fdf70e6d-f583-4306-adc5-acc9e2bd50a9"}</recraft-signature></metadata></svg>