<svg xmlns="http://www.w3.org/2000/svg" height="512" preserveAspectRatio="none" style="display: block;" version="1.1" viewBox="0 0 2048 2048" width="512">
<path d="M 363.501 296.2 L 1633.06 296.165 C 1730.32 296.115 1752.02 298.776 1752.02 411.371 L 1751.94 1023.22 C 1752.16 1049.85 1755.84 1067.99 1736.81 1089.65 C 1712.28 1118.36 1667.56 1118.94 1640.23 1093.86 C 1614.25 1070.02 1622.57 1041.16 1621.1 1010.35 C 1613.25 845.73 1362.88 820.944 1327.02 991.545 C 1319.99 1025 1336.73 1060.91 1309.64 1090.91 C 1268.76 1136.16 1193.3 1106.31 1194.06 1045.49 C 1194.56 1005.74 1193.46 965.585 1194.18 925.783 C 1195.93 851.631 1232.02 852.012 1290.65 851.992 L 1620.09 852.015 L 1620.09 426.912 L 1197.88 426.912 L 426.999 426.912 L 426.999 1235.97 L 722.814 1235.97 C 723.155 1172.88 714.345 1124.53 761.18 1072.08 C 850.591 971.957 1015.93 1028.78 1025.09 1162.48 C 1026.72 1186.31 1024.4 1211.58 1025.49 1235.97 C 1047.17 1238.4 1062.79 1233.67 1082.16 1247.71 C 1111.51 1269.06 1120 1308.15 1097.29 1338 C 1075.72 1366.36 1048.91 1363.55 1017.18 1363.51 L 401.689 1363.51 C 363.573 1363.52 302.405 1368.02 297.294 1313 C 295.674 1295.56 296.525 1273.84 296.54 1255.87 L 296.537 415.717 C 296.535 361.897 288.278 301.943 363.501 296.2 z" fill="rgb(0,0,0)" transform="translate(0,0)"></path>
<path d="M 1255 1193.96 C 1274.35 1192.64 1312.28 1193.97 1333.2 1193.97 L 1628.81 1193.91 C 1701.92 1193.91 1752.39 1181.85 1752.09 1278.89 L 1751.96 1662.61 C 1751.73 1706.48 1742.7 1748.21 1689.76 1751.62 L 1307.49 1751.71 C 1194.06 1751.77 1193.91 1735.32 1194.01 1636.89 L 1194.05 1284.26 C 1194.07 1239.06 1200.48 1202.25 1255 1193.96 z M 1326 1620.17 C 1353.92 1621.45 1393.6 1620.16 1422.3 1620.16 L 1620.09 1620.17 C 1621.1 1604.71 1620.12 1580.6 1620.1 1564.19 L 1620.15 1366.74 C 1620.17 1357.12 1620.96 1334.45 1620.09 1325.87 L 1423.41 1325.86 C 1393.35 1325.85 1355.27 1324.66 1326 1325.87 L 1326 1620.17 z" fill="rgb(0,0,0)" transform="translate(0,0)"></path>
<metadata><recraft-signature>{"signed_by": "recraft", "signature_b64": "D6Mz6EtJSrRwws3+FBFpMAk2gnewx4w7hNIKzl+nN+Gca11mwbAqHIn6kxwCLxLkHh3TwbOv5HIQdrLQq2r+Dg==", "signing_algo": "Ed25519", "generation_timestamp": 1772989374, "identifier": "10c03f36-df4d-44f8-b197-46728c8694c3"}</recraft-signature></metadata></svg>