<svg xmlns="http://www.w3.org/2000/svg" height="512" preserveAspectRatio="none" style="display: block;" version="1.1" viewBox="0 0 2048 2048" width="512">
<path d="M 296.863 646.266 C 304.295 645.516 325.475 646.191 333.964 646.201 L 1717 646.277 C 1724.52 646.291 1757.22 645.093 1760.55 651.65 C 1775.19 680.461 1779.61 717.748 1788.48 749.119 C 1808.91 821.357 1815.25 843.51 1815.23 918.189 L 1815.17 1353.22 C 1815.1 1360.03 1814.4 1363.3 1810.8 1369.02 C 1796.66 1378.87 1771.55 1374.03 1754.5 1374 L 412.53 1374 C 356.896 1374 299.749 1374.71 244.26 1374 C 231.739 1365.66 233.022 1360.76 232.93 1346.5 L 232.955 895.496 C 232.945 847.702 272.236 675.071 285.986 653.046 C 288.709 648.684 292.007 647.325 296.863 646.266 z M 275.042 1291.33 L 1710.78 1291.36 C 1730.66 1291.39 1754.59 1292.11 1774.08 1291.33 C 1775.12 1247.6 1774.07 1199.27 1774.06 1155.13 L 1774.08 883.161 C 1773.93 872.22 1775.31 854.82 1774.08 845.014 C 1757.18 792.75 1746.55 737.346 1730.15 686.969 L 316.972 686.969 C 304.228 740.88 289.313 793.822 275.042 847.138 C 275.552 859.038 274.988 871.224 275.042 883.161 L 275.042 1291.33 z" fill="rgb(7,6,7)" transform="translate(0,0)"></path>
<path d="M 356.543 1136.25 C 380.177 1134.94 418.912 1136.23 443.669 1136.24 L 1146.04 1136.25 C 1146.55 1155 1146.09 1174.48 1146.04 1193.32 C 1117.84 1194.49 1081.33 1193.34 1052.22 1193.34 L 356.543 1193.32 C 356.349 1174.41 356.535 1155.19 356.543 1136.25 z" fill="rgb(7,6,7)" transform="translate(0,0)"></path>
<path d="M 1647.6 1111.83 C 1670.01 1108.81 1690.61 1124.54 1693.62 1146.94 C 1696.62 1169.34 1680.9 1189.94 1658.49 1192.95 C 1636.1 1195.95 1615.5 1180.23 1612.5 1157.83 C 1609.49 1135.44 1625.21 1114.84 1647.6 1111.83 z" fill="rgb(7,6,7)" transform="translate(0,0)"></path>
<metadata><recraft-signature>{"signed_by": "recraft", "signature_b64": "gmLvJJ3RK0jiqnQsathf1Ggbxq8ZHlox4zbfDMC7mmEnT+mLNv5pVFa6uz9aW8bYAOCi+OEU/1g2IoCgRohRAA==", "signing_algo": "Ed25519", "generation_timestamp": 1772999805, "identifier": "15289e61-1969-4dd1-930c-1bb91fdc4450"}</recraft-signature></metadata></svg>