<svg xmlns="http://www.w3.org/2000/svg" height="512" preserveAspectRatio="none" style="display: block;" version="1.1" viewBox="0 0 2048 2048" width="512">
<path d="M 1293.42 993.014 L 1296.57 992.964 C 1360.46 992.5 1539.48 1055.13 1592.95 1082.04 C 1678.45 1125.07 1707.01 1200.76 1707.48 1289.82 L 1707.55 1557.87 C 1707.55 1671.57 1669.7 1775.06 1540.22 1797.16 C 1505.04 1803.17 1464.54 1801.01 1428.2 1800.98 L 656.5 1801 C 533.33 1801.09 426.443 1812.34 360.955 1682.48 C 337.487 1635.94 338.97 1592.11 338.987 1541.73 L 338.979 1325.15 C 338.963 1282.95 336.231 1243.14 350.135 1202.46 C 382.09 1108.98 433.74 1089.24 514.254 1057.78 C 541.088 1048.01 732.369 985.953 756.57 997.053 C 769.989 1003.21 788.467 1021.07 803.111 1030.31 C 937.186 1114.88 1128.29 1117.32 1256.44 1020.19 C 1268.56 1011.01 1279.7 999.647 1293.42 993.014 z M 1075.5 1673 L 1448.98 1673.01 C 1545.24 1672.95 1578.66 1664.11 1578.57 1566.53 L 1578.46 1279.89 C 1578.3 1202.1 1538.37 1194.15 1473.78 1169.59 C 1294.48 1101.41 1151.67 1103.7 969.492 1098.07 C 826.288 1107.06 710.326 1121.99 571.578 1169.98 C 472.402 1204.29 467.473 1220.59 467.453 1316.41 L 467.513 1530.76 C 467.516 1583.96 459.621 1662.56 533.011 1672.27 C 549.072 1674.4 572.346 1673.06 589.061 1673.06 L 1075.5 1673 z" fill="rgb(0,0,0)" transform="translate(0,0)"></path>
<path d="M 985.65 1190.44 C 1016.74 1189.48 1045.38 1210.93 1072.01 1225.98 L 1181.92 1288.79 C 1210.64 1304.96 1239.86 1319.59 1268.08 1336.66 C 1306.75 1360.05 1311.97 1412.75 1280.19 1444.17 C 1261.31 1462.84 1179.35 1502.63 1152.38 1518.49 C 1123.93 1533.62 1023.91 1594.16 999.687 1596.72 C 958.189 1601.11 920.057 1571.22 915.758 1529.66 C 913.952 1512.2 915.005 1493.82 915.006 1476.26 L 914.963 1299.38 C 914.934 1245.75 920.521 1196.14 985.65 1190.44 z" fill="rgb(253,34,51)" transform="translate(0,0)"></path>
<path d="M 975.268 226.003 C 1011.11 224.802 1055.33 225.086 1090.96 227.519 C 1239.1 237.637 1368.87 349.838 1396.07 496.639 C 1433.29 697.472 1271.95 960.551 1069.56 999.48 C 852.198 1037.81 666.73 788.342 648.83 589.316 C 630.634 387 780.479 239.872 975.268 226.003 z M 1064.91 868.78 C 1245.49 811.296 1374.85 479.729 1164.4 376.586 C 1102.41 344.157 1045.85 354.638 978.562 353.204 C 916.492 357.554 864.849 376.407 822.758 424.64 C 683.393 584.337 874.831 912.386 1064.91 868.78 z" fill="rgb(0,0,0)" transform="translate(0,0)"></path>
<metadata><recraft-signature>{"signed_by": "recraft", "signature_b64": "hVJtqrTgdwcSwvhW5ykqFrj+4AjCA2z+yd9mt5zCxAZ9cXLfIR1LIP2ftvKws5ncAgxTjrZQbL4M05vbS/gZAg==", "signing_algo": "Ed25519", "generation_timestamp": 1772999878, "identifier": "4faa0529-936b-4de8-aec5-7ac46ae259c8"}</recraft-signature></metadata></svg>