<svg xmlns="http://www.w3.org/2000/svg" height="512" preserveAspectRatio="none" style="display: block;" version="1.1" viewBox="0 0 2048 2048" width="512">
<path d="M 1112.77 424.684 L 1501.22 424.398 C 1645.6 424.09 1774.44 534.383 1789.55 678.934 C 1792.34 705.671 1791.01 737.38 1791.01 764.536 L 1791.05 1321.3 C 1791.22 1461.6 1709.94 1582.63 1568.18 1614.16 C 1525.16 1623.73 1487.26 1621.78 1443.57 1621.76 L 935.5 1621.73 L 579.709 1621.79 C 544.69 1621.81 516.663 1623.12 481.801 1615.34 C 373.125 1591.09 286.346 1503.85 263.049 1394.98 C 253.943 1352.43 256.534 1321.29 256.552 1278.41 L 256.387 723.993 C 256.129 590.926 341.711 467.031 473.873 433.402 C 517.88 422.204 561.009 424.642 605.928 424.664 L 1112.77 424.684 z M 1514.55 1507 C 1627.45 1493.06 1674.56 1429.98 1674.57 1314.04 L 1674.62 736.19 C 1674.66 720.26 1675.28 704.569 1673.4 688.727 C 1661.08 585.305 1577.08 541.028 1482.7 541.126 L 535.638 541.183 C 485.763 545.605 448.011 561.933 414.293 599.782 C 364.781 655.362 373.008 721.566 373.015 789.342 L 372.945 1304.69 C 372.931 1320.52 372.435 1336.79 373.729 1352.55 C 382.944 1464.79 475.027 1507.04 573.993 1507.05 L 1447.15 1507.02 C 1467.57 1507.05 1494.9 1507.99 1514.55 1507 z" fill="rgb(27,27,27)" transform="translate(0,0)"></path>
<path d="M 781.511 707.119 C 793.563 706.54 807.097 706.901 818.019 712.811 L 1202.44 925.104 C 1253.15 953.349 1319.45 967.104 1310.82 1036.11 C 1306.01 1074.73 1271.09 1085.36 1242.15 1101.42 C 1207.49 1121.34 1129.7 1158.26 1101.61 1181.87 C 1082.55 1190.03 1047.21 1210.86 1027.5 1221.58 L 870.961 1307.05 C 835.62 1326.15 797.113 1357.85 757.493 1335.16 C 720.686 1314.08 730.232 1255.52 730.22 1220.07 L 730.204 871.643 C 730.214 811.416 710.638 724.763 781.511 707.119 z M 849.849 1181.87 L 973.628 1113.95 C 994.473 1102.41 1015.36 1089.93 1036.41 1078.96 C 1065.71 1063.61 1110.44 1041.93 1136.63 1023.03 C 1106.79 1005.82 1078.69 991.042 1048.96 974.477 L 849.849 864.647 L 849.849 1181.87 z" fill="rgb(27,27,27)" transform="translate(0,0)"></path>
<metadata><recraft-signature>{"signed_by": "recraft", "signature_b64": "X0L95HgTeNxE2D6KFW9OwPbJ6O1+kKZruq9KmAdyIsylcRwjiiRjLnDpMfhQa7DN6eDk1MkhbmYzzsQ5f/PKBQ==", "signing_algo": "Ed25519", "generation_timestamp": 1772999549, "identifier": "cd64e335-ada9-49ba-b160-2466aac34a17"}</recraft-signature></metadata></svg>