<svg xmlns="http://www.w3.org/2000/svg" height="512" preserveAspectRatio="none" style="display: block;" version="1.1" viewBox="0 0 2048 2048" width="512">
<path d="M 849.722 222.104 C 1203.06 214.284 1495.88 494.318 1503.82 847.656 C 1511.76 1200.99 1231.83 1493.9 878.498 1501.97 C 524.987 1510.05 231.899 1229.95 223.951 876.432 C 216.002 522.918 496.206 229.928 849.722 222.104 z M 889.494 1373.52 C 1171.72 1359.73 1389.45 1119.94 1376.01 837.696 C 1362.57 555.449 1123.06 337.426 840.792 350.508 C 558.027 363.614 339.533 603.649 352.993 886.397 C 366.453 1169.15 606.762 1387.34 889.494 1373.52 z" fill="rgb(29,28,28)" transform="translate(0,0)"></path>
<path d="M 537.583 644.354 C 613.002 634.217 607.122 715.556 607.142 762.065 L 607.128 985.608 C 607.099 1035.87 609.313 1077.63 549.782 1086.06 C 474.434 1088.34 479.854 1023.91 479.928 973.008 L 479.938 757.919 C 479.929 709.677 473.144 652.793 537.583 644.354 z" fill="rgb(29,28,28)" transform="translate(0,0)"></path>
<path d="M 1425.98 1374.06 C 1469.16 1366.12 1481.6 1388.12 1508.39 1415.06 L 1757.26 1668.74 C 1773.56 1685.42 1794.26 1703.77 1808.77 1721.56 C 1842.92 1763.41 1820.85 1812.78 1772.77 1826.87 C 1729.31 1830.75 1719.54 1810.37 1691.71 1782.38 L 1452.35 1538.3 C 1431.7 1517.27 1409.39 1496.99 1389.37 1475.31 C 1358.28 1438.97 1379.16 1384.02 1425.98 1374.06 z" fill="rgb(29,28,28)" transform="translate(0,0)"></path>
<metadata><recraft-signature>{"signed_by": "recraft", "signature_b64": "4rKkbyqPRHlOyQ5nx0GwHhCpPmOoWCrVav3gZLORjveIj9GFRhdOgkbo39nKme3eqmIOd0gEnx1fQqkniRXNCQ==", "signing_algo": "Ed25519", "generation_timestamp": 1772999688, "identifier": "99c723a9-cc86-4a1e-98eb-161b44484aab"}</recraft-signature></metadata></svg>